<svg width="250" height="250" viewBox="0 0 250 250" fill="none" xmlns="http://www.w3.org/2000/svg">
<rect width="250" height="250" fill="#033531"/>
<path d="M109.43 56.4763C108.557 62.9524 109.648 69.0646 111.904 74.6675C114.159 80.2704 117.288 85.5822 120.781 90.603C127.766 100.79 135.989 110.322 143.993 120.218C151.997 130.114 160.074 140.301 166.477 151.871C169.606 157.692 172.371 163.877 173.681 170.644C173.899 172.317 174.118 174.064 174.19 175.737C174.118 177.484 174.263 179.157 173.826 180.831C173.463 184.251 171.862 187.307 170.115 189.999C171.789 183.669 170.989 177.556 168.66 172.026C166.332 166.496 163.057 161.33 159.419 156.309C152.143 146.34 143.775 136.881 135.771 126.912C127.766 117.016 119.762 106.611 113.65 94.8961C110.667 89.0021 108.047 82.7444 106.956 76.05C105.792 69.3557 106.301 62.2247 109.43 56.4763Z" fill="#CCAF84"/>
<path d="M123.837 50C122.964 56.4761 124.055 62.5883 126.311 68.1912C128.566 73.794 131.695 79.1059 135.188 84.1266C142.173 94.3137 150.396 103.846 158.4 113.742C166.404 123.638 174.481 133.825 180.884 145.394C184.013 151.216 186.778 157.401 188.088 164.168C188.306 165.841 188.524 167.588 188.597 169.261C188.524 171.008 188.67 172.681 188.233 174.355C187.87 177.775 186.269 180.831 184.522 183.523C186.196 177.193 185.396 171.08 183.067 165.55C180.739 160.02 177.464 154.854 173.826 149.833C166.55 139.864 158.182 130.405 150.178 120.436C142.173 110.54 134.169 100.135 128.057 88.4197C125.074 82.5258 122.454 76.268 121.363 69.5737C120.271 62.9521 120.708 55.7484 123.837 50Z" fill="#CCAF84"/>
<path d="M116.342 109.741C118.671 113.088 119.471 117.599 119.18 121.892C118.889 126.185 117.579 130.333 115.978 134.117C112.631 141.757 107.829 148.16 103.026 154.127C98.2237 160.094 93.0574 165.478 88.4732 171.008C86.2175 173.773 84.0346 176.539 82.4338 179.522C80.7602 182.505 79.6687 185.852 79.7415 190C76.9764 186.944 75.9577 182.287 76.3215 177.921C76.6126 173.482 78.1406 169.408 79.8142 165.697C83.3797 158.202 88.1822 151.871 92.9846 145.977C97.7871 140.083 102.808 134.626 107.174 129.096C109.357 126.331 111.394 123.493 113.068 120.364C114.669 117.235 115.906 113.815 116.342 109.741Z" fill="#CCAF84"/>
<path d="M101.498 101.226C103.826 104.573 104.627 109.085 104.336 113.378C104.045 117.671 102.735 121.819 101.134 125.602C97.7868 133.243 92.9844 139.646 88.1819 145.613C83.3794 151.579 78.2131 156.964 73.629 162.494C71.3732 165.259 69.1903 168.024 67.5895 171.008C65.9159 173.991 64.8244 177.338 64.8972 181.486C62.1321 178.43 61.1134 173.773 61.4772 169.407C61.7683 164.968 63.2964 160.893 64.97 157.182C68.5354 149.688 73.3379 143.357 78.1404 137.463C82.9428 131.569 87.9636 126.112 92.3295 120.582C94.5124 117.817 96.5498 114.979 98.2234 111.85C99.897 108.648 101.061 105.301 101.498 101.226Z" fill="#CCAF84"/>
<path fill-rule="evenodd" clip-rule="evenodd" d="M137.371 67.1722C137.589 71.7563 140.718 76.1222 143.992 79.1783C147.34 82.38 151.633 84.5629 156.144 85.4361C147.776 84.7812 138.899 80.6336 133.951 73.721C130.968 69.6462 129.731 64.1888 132.132 59.5319C134.387 55.0205 140.281 52.1826 145.011 54.7294C147.049 55.8209 148.722 57.8583 148.868 60.1867C148.94 61.0599 148.795 62.588 147.849 62.9518C146.976 63.3156 146.03 61.7876 145.448 61.2782C143.847 59.8957 141.955 59.6046 140.136 60.7689C138.026 62.2242 137.298 64.7709 137.371 67.1722C137.444 68.3364 137.371 66.0079 137.371 67.1722Z" fill="#CCAF84"/>
<path d="M129.076 173.409C137.636 173.409 144.575 166.47 144.575 157.91C144.575 149.35 137.636 142.411 129.076 142.411C120.516 142.411 113.577 149.35 113.577 157.91C113.577 166.47 120.516 173.409 129.076 173.409Z" fill="#CCAF84"/>
</svg>
