<svg width="250" height="250" viewBox="0 0 250 250" fill="none" xmlns="http://www.w3.org/2000/svg">
<rect width="250" height="250" fill="white"/>
<path d="M114.121 92.3921C116.196 92.1759 120.025 92.9539 121.994 93.5654C127.854 95.3849 131.96 99.671 136.348 103.679L183.836 147.17C187.368 150.415 191.253 153.76 194.687 156.989C186.857 157.396 179.344 157.843 171.618 156.477C170.331 156.233 169.003 156.041 167.692 155.756C157.404 153.518 147.231 148.793 139.588 141.448C137.774 139.705 135.984 138.145 134.197 136.519C128.194 131.09 122.224 125.625 116.285 120.126C113.132 117.235 109.823 114.108 106.573 111.353C102.452 107.858 95.2912 105.32 89.8217 105.949C90.3629 105.418 90.7349 104.877 91.2365 104.308C95.3308 99.6617 101.127 95.6409 107.009 93.6507C108.875 93.0194 112.187 92.5339 114.121 92.3921Z" fill="#292C64"/>
<path d="M86.3784 110.077C95.9562 108.998 100.431 114.484 106.821 120.363L120.679 133.066C126.938 138.742 133.167 144.452 139.365 150.194C141.459 152.135 144.81 154.88 146.667 156.867C140.924 156.958 137.639 157.453 131.835 156.774C116.683 154.425 111.895 150.387 101.085 140.422L88.3657 128.753C82.4041 123.296 79.346 119.712 70.7169 119.731C73.8416 115.251 80.8694 110.606 86.3784 110.077Z" fill="#292C64"/>
<path d="M69.4901 124.925C75.2951 124.397 80.3584 130.269 84.2479 133.826L101.413 149.538C103.602 151.537 108.231 155.989 110.364 157.484C106.28 157.504 103.712 157.937 99.4105 157.292C94.4743 156.422 90.3418 155.127 86.1183 152.355C83.5793 150.689 81.3243 148.433 79.082 146.373L70.3534 138.363C65.8118 134.165 64.0033 131.664 57.517 131.6C58.4562 130.794 59.3432 129.84 60.2875 129.027C62.8712 126.763 66.0792 125.333 69.4901 124.925Z" fill="#6994AC"/>
<path d="M57.5673 137.323C63.7153 136.594 69.4419 146.933 62.9622 149.128C58.4978 149.703 53.4905 143.986 54.9436 139.605C55.3277 138.447 56.5175 137.782 57.5673 137.323Z" fill="#6994AC"/>
</svg>
