<svg width="250" height="250" viewBox="0 0 250 250" fill="none" xmlns="http://www.w3.org/2000/svg">
<rect width="250" height="250" fill="white"/>
<path d="M193.629 79.394C194.398 79.3978 195.153 79.6033 195.818 79.9907C196.483 80.3782 197.035 80.9343 197.418 81.6021C197.8 82.2696 198.001 83.026 197.999 83.7954C197.997 84.565 197.793 85.3209 197.407 85.9868L196.294 87.9263L191.38 96.4917L189.632 99.5396L139.56 186.845L131.778 200.404C131.399 201.072 130.849 201.628 130.186 202.015C129.522 202.402 128.767 202.606 127.999 202.606C127.231 202.606 126.476 202.402 125.813 202.015C125.149 201.628 124.6 201.072 124.221 200.404L116.444 186.845L96.3086 151.744L86.2998 134.294L66.3721 99.5454L58.5908 85.9868C58.2049 85.3206 58.0016 84.5644 58 83.7944C57.9985 83.0244 58.1987 82.267 58.582 81.5991C58.9654 80.9313 59.5179 80.3759 60.1836 79.9888C60.8492 79.6017 61.605 79.3969 62.375 79.394H193.629ZM152.159 124.601C153.406 122.416 150.987 119.986 148.823 121.244L117.437 139.482C116.432 140.069 115.7 141.029 115.4 142.153C115.101 143.277 115.258 144.474 115.838 145.483L124.237 160.118L124.227 160.128C124.606 160.797 125.156 161.352 125.82 161.739C126.484 162.125 127.239 162.33 128.008 162.33C128.776 162.33 129.531 162.125 130.195 161.739C130.86 161.352 131.409 160.797 131.789 160.128L152.159 124.601ZM97.0557 99.5464C96.2862 99.5502 95.5311 99.7557 94.8662 100.143C94.2013 100.531 93.6503 101.087 93.2676 101.754C92.885 102.422 92.6838 103.178 92.6856 103.948C92.6873 104.717 92.8916 105.473 93.2774 106.139L101.469 120.422C101.752 120.921 102.132 121.359 102.586 121.71C103.04 122.062 103.558 122.321 104.112 122.47C104.666 122.62 105.245 122.658 105.814 122.583C106.383 122.507 106.932 122.32 107.428 122.032L138.212 104.14C140.37 102.877 139.491 99.5467 136.986 99.5464H97.0557Z" fill="black"/>
</svg>
