<svg width="250" height="250" viewBox="0 0 250 250" fill="none" xmlns="http://www.w3.org/2000/svg">
<rect width="250" height="250" fill="white"/>
<path d="M131.22 57C138.728 58.4844 143.711 61.3589 152.061 61.0112C155.759 61.4132 162.793 59.8882 165.896 61.9571C169.963 64.6698 173.321 68.4525 177.013 71.6226C179.741 73.9648 185.555 76.7135 186.888 79.4777C186.477 80.9761 185.98 83.6647 184.807 84.5667C183.504 84.8472 183.364 83.9409 182.13 83.8889L182.021 84.0723C186.021 91.0582 181.106 95.6006 176.406 100.285C176.102 100.588 173.91 103.502 173.75 103.518C170.359 103.851 166.571 102.203 163.155 101.814C161.63 101.64 159.306 101.344 157.841 101.656C155.477 102.169 154.33 103.662 151.726 102.672C148.764 101.545 147.53 99.8818 146.004 97.2942C145.132 95.8165 144.125 90.2149 143.638 89.8231C143.194 90.4764 143.649 101.168 143.939 102.674C144.228 104.173 144.732 105.573 145.395 106.946C146.393 106.894 147.546 106.808 148.531 106.792C148.421 107.397 148.153 108.791 147.962 109.535C147.771 110.278 142.272 115.774 139.546 118.429L139.284 118.329L139.139 118.603H152.242L78.0699 197L93.2845 155.524H65.1172L91.7744 118.603L67.2215 116.471L82.0564 96.567L81.8215 96.478C83.2686 94.6079 84.5934 92.9586 85.8434 91.4865L91.4719 83.9371C92.6531 82.3527 94.2822 81.1587 96.1488 80.5094L108.161 76.3309C109.26 75.8894 110.421 75.4294 111.656 74.9463C115.285 73.5628 121.229 70.8439 124.631 68.3825L125.362 67.6908L125.499 67.7112C125.522 67.6921 125.547 67.6744 125.569 67.6554C126.753 67.6592 132.786 68.3266 133.167 68.2024C132.8 67.8055 127.584 65.3659 126.928 65.1328L126.926 65.1071C126.645 62.3884 126.56 61.5636 127.367 58.9219C128.763 58.0656 129.632 57.4649 131.22 57Z" fill="#018FF5"/>
<path d="M157.216 66.6095C162.187 66.101 164.184 68.4211 165.573 73.0355C165.802 73.7966 165.888 74.4096 165.482 75.095C164.631 75.1434 163.409 74.3404 162.722 73.8573C162.43 73.5014 162.612 73.6145 162.154 73.5153C160.598 74.9551 159.496 74.5352 157.424 74.4547C155.336 72.6561 153.859 70.6154 153.844 67.7847C155.006 67.1114 155.937 66.865 157.216 66.6095Z" fill="#FEA433"/>
</svg>
