<svg width="250" height="250" viewBox="0 0 250 250" fill="none" xmlns="http://www.w3.org/2000/svg">
<rect width="250" height="250" fill="#4540C1"/>
<path d="M90.8086 99.4559L103.502 95.1101V89.1594C103.502 77.0962 113.281 67.317 125.345 67.317C137.408 67.317 147.187 77.0962 147.187 89.1594V133.878L103.502 102.429L90.8086 106.889V160.441C90.8086 179.528 106.281 195 125.367 195C131.769 195 138.045 193.222 143.495 189.864L144.9 188.998L148.788 194.144H159.195V187.626L153.248 180.421C157.105 175.367 159.195 169.185 159.195 162.826V150.917L147.187 155.263V161.014C147.187 173.077 137.408 182.857 125.345 182.857C113.281 182.857 103.502 173.077 103.502 161.014V115.695L147.187 147.372L159.195 143.141V89.1929C159.195 70.3087 143.886 55 125.002 55C106.117 55 90.8086 70.3087 90.8086 89.1929V99.4559Z" fill="white"/>
</svg>
