<svg width="250" height="250" viewBox="0 0 250 250" fill="none" xmlns="http://www.w3.org/2000/svg">
<rect width="250" height="250" fill="white"/>
<path d="M125.042 136.363C132.33 142.022 140.29 147.718 147.73 153.255C154.028 157.941 161.011 163.364 167.393 167.852L82.5948 167.854C83.3771 167.201 85.0153 166.093 85.9217 165.417L125.042 136.363Z" fill="#263AD5"/>
<path d="M153.499 136.39C160.595 136.296 167.917 136.393 175.03 136.378C175.46 137.235 176.399 138.616 176.955 139.493L181.07 145.911C185.77 153.184 190.414 160.493 195 167.839C186.872 167.942 177.802 167.959 169.69 167.835C168.351 164.729 166.334 161.312 164.811 158.256C161.175 150.966 157.061 143.69 153.499 136.39Z" fill="#263AD5"/>
<path d="M75.0479 136.336C77.5481 136.457 80.4068 136.391 82.9483 136.392L96.5663 136.385C92.3635 144.287 88.3548 152.318 84.177 160.237C82.9252 162.61 81.3375 165.368 80.3752 167.837L76.7598 167.86L55 167.854L75.0479 136.336Z" fill="#263AD5"/>
<path d="M125.007 58.0776C125.33 58.3057 145.474 90.0537 147.055 92.6699C141.664 92.6149 136.174 92.6703 130.774 92.6708C129.077 89.0495 126.755 85.2909 125.146 81.6929C124.569 82.0019 119.859 91.442 119.295 92.6725L102.954 92.6691C105.477 88.4495 108.5 83.9198 111.158 79.7398L125.007 58.0776Z" fill="#263AD5"/>
<path d="M134.65 100.041L147.408 103.337C149.415 103.849 153.498 104.775 155.29 105.488C156.122 106.987 157.671 109.247 158.628 110.743L165.123 120.913C166.115 122.468 167.655 124.73 168.464 126.313C163.293 124.748 157.516 123.581 152.279 122.119C150.312 121.569 146.785 120.867 145.098 120.059C144.192 118.776 142.042 114.406 141.195 112.735C139.054 108.512 136.752 104.265 134.65 100.041Z" fill="#263AD5"/>
<path d="M115.03 100.149C115.125 100.146 115.129 100.177 115.24 100.242C115.137 100.715 114.049 102.614 113.76 103.152C110.777 108.71 108.088 114.536 104.98 120.022C103.458 120.754 97.7101 122.149 95.7074 122.629C91.2431 123.697 86.3404 125.189 81.8984 126.121L81.7082 126.108C81.7399 125.75 93.4096 107.569 94.7152 105.56C96.0744 104.893 100.953 103.736 102.665 103.319C106.755 102.323 110.953 101.113 115.03 100.149Z" fill="#263AD5"/>
</svg>
