<svg width="250" height="250" viewBox="0 0 250 250" fill="none" xmlns="http://www.w3.org/2000/svg">
<rect width="250" height="250" fill="white"/>
<path d="M116.195 50.6194V62.7054L182.876 129.387L125.139 187.124L67.3198 129.311L95.6448 100.986H83.3502L55 129.336L125.044 199.38L195 129.425L116.195 50.6194Z" fill="#FE6309"/>
<path d="M116.169 71.0239V83.1099L162.446 129.387L125.164 166.669L87.8003 129.311L116.125 100.986H103.831L75.4804 129.336L125.07 178.925L174.57 129.425L116.169 71.0239Z" fill="#FE6309"/>
<path d="M124.924 100.101L95.67 129.336L124.975 158.641L131.144 152.465L154.223 129.425L124.924 100.101ZM125.082 146.429L107.965 129.311L124.987 112.288L142.054 129.355L125.082 146.429Z" fill="#FE6309"/>
</svg>
