<svg width="250" height="250" viewBox="0 0 250 250" fill="none" xmlns="http://www.w3.org/2000/svg">
<rect width="250" height="250" fill="#0082BB"/>
<path fill-rule="evenodd" clip-rule="evenodd" d="M62.4748 106.399L63.1241 102.754H47.3789C45.7232 102.77 44.1487 104.083 43.8241 105.719L37.7532 140.079C37.4448 141.731 38.5486 143.092 40.2205 143.092H57.3941L58.0434 139.463H43.2722L45.9992 124.041H57.9947L58.6278 120.461H46.6322L49.132 106.399H62.4748Z" fill="white"/>
<path fill-rule="evenodd" clip-rule="evenodd" d="M70.2369 143.69C63.2895 143.69 59.2802 137.486 61.0819 127.28C62.9162 116.895 69.0844 110.918 76.1453 110.918C80.0248 110.918 81.924 112.149 82.7843 113.024L81.015 116.021C80.1872 115.308 78.921 114.498 76.5674 114.498C70.805 114.498 67.6559 119.714 66.3411 127.101C65.0101 134.667 66.7956 139.883 71.9088 139.883C74.0839 139.883 75.6746 139.17 77.0057 138.36L77.7199 141.584C76.2914 142.702 73.7592 143.69 70.2369 143.69Z" fill="white"/>
<path fill-rule="evenodd" clip-rule="evenodd" d="M97.2794 114.206C91.2248 114.206 88.8549 120.945 87.7187 127.328C86.5987 133.727 86.761 140.126 92.702 140.126C98.7565 140.126 101.013 133.662 102.133 127.328C103.253 120.994 103.334 114.206 97.2794 114.206ZM92.0689 143.69C83.4172 143.69 80.9174 136.595 82.5406 127.328C84.2125 117.884 89.277 110.918 97.7988 110.918C106.516 110.918 108.983 117.884 107.311 127.328C105.671 136.595 100.656 143.69 92.0689 143.69Z" fill="white"/>
<path fill-rule="evenodd" clip-rule="evenodd" d="M155.292 125.156C147.127 126.161 142.062 127.862 140.926 134.245C140.115 138.829 142.614 140.708 147.322 140.708C149.318 140.708 151.315 140.352 152.743 139.639L155.292 125.156ZM146.38 143.689C138.151 143.689 134.953 140.125 135.975 134.374C137.453 125.983 145.763 123.52 155.762 122.516L156.103 120.588C156.964 115.728 154.285 114.319 150.227 114.319C147.159 114.319 144.14 115.436 142.225 116.311L141.527 113.266C143.523 112.261 147.289 110.917 151.639 110.917C157.532 110.917 162.255 113.428 160.892 121.171L157.304 141.47C154.642 142.814 150.795 143.689 146.38 143.689Z" fill="white"/>
<path fill-rule="evenodd" clip-rule="evenodd" d="M179.12 143.107L183.129 120.411C183.649 117.479 182.999 114.255 177.578 114.255C174.64 114.255 173.146 114.66 171.393 115.373L166.475 143.107H161.297L166.605 113.137C169.673 111.792 173.52 110.918 178.584 110.918C187.414 110.918 189.119 115.778 188.34 120.297L184.298 143.107H179.12Z" fill="white"/>
<path fill-rule="evenodd" clip-rule="evenodd" d="M210.454 153.608H36L36.1621 149.108H210.6L210.454 153.608Z" fill="#BED600"/>
<path fill-rule="evenodd" clip-rule="evenodd" d="M129.922 126.922C128.509 134.893 124.955 140.352 118.429 140.352C116.79 140.352 115.167 140.174 114.095 139.591L118.38 115.372C120.004 114.546 121.416 114.141 123.77 114.141C129.775 114.141 131.139 120.005 129.922 126.922ZM125.604 111.095C122.487 111.095 120.621 111.727 118.884 112.553L121.611 97.1469L115.913 100.435L108.657 141.47C110.313 142.701 113.43 143.689 117.731 143.689C127.13 143.689 133.347 136.885 135.132 126.744C136.82 117.186 132.892 111.095 125.604 111.095Z" fill="white"/>
<path fill-rule="evenodd" clip-rule="evenodd" d="M215.739 111.503H210.334L196.456 126.164H196.326L199.864 106.189C203.387 86.4091 181.993 82.2457 159.625 85.6477C144.448 87.9643 131.024 94.0069 131.024 94.0069C131.024 94.0069 148.538 87.8995 163.959 87.0247C183.437 85.9231 198.679 88.8553 194.232 109.429L188.275 143.109H193.339L196.212 126.812H196.326L205.562 143.109H211.454L201.13 126.277L215.739 111.503Z" fill="white"/>
</svg>
