<svg width="250" height="250" viewBox="0 0 250 250" fill="none" xmlns="http://www.w3.org/2000/svg">
<mask id="path-1-inside-1_769_9" fill="white">
<path d="M0 48C0 21.4903 21.4903 0 48 0H202C228.51 0 250 21.4903 250 48V202C250 228.51 228.51 250 202 250H48C21.4903 250 0 228.51 0 202V48Z"/>
</mask>
<path d="M0 48C0 21.4903 21.4903 0 48 0H202C228.51 0 250 21.4903 250 48V202C250 228.51 228.51 250 202 250H48C21.4903 250 0 228.51 0 202V48Z" fill="white"/>
<path d="M48 0V2H202V0V-2H48V0ZM250 48H248V202H250H252V48H250ZM202 250V248H48V250V252H202V250ZM0 202H2V48H0H-2V202H0ZM48 250V248C22.5949 248 2 227.405 2 202H0H-2C-2 229.614 20.3858 252 48 252V250ZM250 202H248C248 227.405 227.405 248 202 248V250V252C229.614 252 252 229.614 252 202H250ZM202 0V2C227.405 2 248 22.5949 248 48H250H252C252 20.3858 229.614 -2 202 -2V0ZM48 0V-2C20.3858 -2 -2 20.3858 -2 48H0H2C2 22.5949 22.5949 2 48 2V0Z" fill="#DDDBDB" mask="url(#path-1-inside-1_769_9)"/>
<path d="M177.177 66.2652C175.949 66.0384 174.702 65.9245 173.453 65.9251H57.0292C56.7521 65.9256 56.4865 66.0359 56.2906 66.2318C56.0947 66.4277 55.9844 66.6933 55.9839 66.9704V164.6C55.9822 169.234 57.5502 173.733 60.4323 177.363C94.0405 164.354 153.115 118.916 179.762 66.9108C178.915 66.6389 178.052 66.4232 177.177 66.2652Z" fill="#11237D"/>
<path d="M194.01 86.4858V184.111C194.01 184.388 193.899 184.654 193.703 184.85C193.507 185.046 193.242 185.156 192.965 185.156H76.5408C73.4499 185.159 70.3982 184.464 67.6132 183.123C101.844 169.421 161.107 123.338 186.979 71.0057C189.191 72.9322 190.963 75.3112 192.176 77.9819C193.389 80.6526 194.015 83.5526 194.01 86.4858Z" fill="#4DC247"/>
</svg>
