<svg width="250" height="250" viewBox="0 0 250 250" fill="none" xmlns="http://www.w3.org/2000/svg">
<path d="M0 48C0 21.4903 21.4903 0 48 0H202C228.51 0 250 21.4903 250 48V202C250 228.51 228.51 250 202 250H48C21.4903 250 0 228.51 0 202V48Z" fill="#5C2682"/>
<path d="M63.7785 89.991V97.291H79.9265V104.013H63.7785V117.115H56.3325V83.271H82.1005V89.991H63.7785Z" fill="white"/>
<path d="M115.075 114.165C114.126 114.915 113.096 115.556 112.005 116.075C110.841 116.622 109.615 117.025 108.355 117.275C106.89 117.563 105.399 117.701 103.907 117.687C101.534 117.709 99.1818 117.248 96.9926 116.333C94.9304 115.474 93.0574 114.218 91.4806 112.635C89.9178 111.048 88.6853 109.166 87.8546 107.099C86.977 104.934 86.5332 102.617 86.5486 100.281V100.185C86.531 97.8544 86.9748 95.5433 87.8546 93.385C88.6963 91.3173 89.9272 89.4305 91.4806 87.827C93.061 86.2081 94.9522 84.9252 97.0406 84.055C99.3113 83.1191 101.749 82.655 104.205 82.691C105.656 82.6801 107.104 82.8094 108.531 83.077C109.748 83.3102 110.939 83.6667 112.085 84.141C113.125 84.5801 114.114 85.1314 115.035 85.785C115.929 86.4243 116.77 87.1361 117.549 87.913L112.805 93.375C111.593 92.2613 110.234 91.3191 108.767 90.575C107.327 89.8835 105.746 89.5363 104.149 89.561C102.791 89.5484 101.448 89.8288 100.209 90.383C99.0221 90.9145 97.96 91.6884 97.0906 92.655C96.2103 93.6386 95.5217 94.7782 95.0606 96.015C94.5706 97.3211 94.3246 98.7061 94.3346 100.101V100.197C94.3261 101.6 94.5721 102.992 95.0606 104.307C95.5147 105.548 96.1925 106.695 97.0606 107.691C97.9461 108.693 99.037 109.492 100.259 110.034C101.481 110.576 102.806 110.849 104.143 110.833C106.077 110.833 107.713 110.478 109.051 109.769C110.5 108.98 111.841 108.005 113.039 106.869L117.777 111.655C116.941 112.559 116.037 113.398 115.075 114.165Z" fill="white"/>
<path d="M150.223 117.115V95.019L140.697 109.475H140.497L131.069 95.165V117.115H123.729V83.271H131.753L140.649 97.583L149.545 83.271H157.571V117.115H150.223Z" fill="white"/>
<path d="M193.519 111.893C192.92 113.057 192.041 114.054 190.961 114.793C189.745 115.613 188.389 116.203 186.961 116.535C185.257 116.938 183.511 117.133 181.761 117.115H165.693V83.271H181.379C184.852 83.271 187.578 84.061 189.557 85.641C191.535 87.221 192.525 89.3484 192.527 92.023V92.129C192.54 92.9967 192.418 93.8612 192.165 94.691C191.939 95.3991 191.616 96.0723 191.204 96.691C190.813 97.2773 190.342 97.8064 189.805 98.263C189.281 98.7115 188.71 99.1006 188.1 99.423C190.056 100.166 191.597 101.173 192.721 102.445C193.845 103.717 194.406 105.478 194.405 107.729V107.825C194.439 109.232 194.135 110.627 193.519 111.893ZM185.176 93.279C185.176 92.151 184.758 91.289 183.921 90.693C183.083 90.097 181.875 89.799 180.295 89.799H172.945V96.953H179.805C181.449 96.953 182.754 96.671 183.721 96.107C184.687 95.543 185.171 94.6324 185.171 93.375L185.176 93.279ZM187.062 106.817C187.08 106.297 186.97 105.78 186.743 105.311C186.515 104.843 186.176 104.437 185.757 104.129C184.886 103.469 183.486 103.136 181.557 103.129H172.957V110.575H181.805C183.449 110.575 184.738 110.277 185.673 109.681C186.607 109.085 187.074 108.158 187.073 106.901L187.062 106.817Z" fill="white"/>
<path d="M193.849 138.801V155.373H55.5925V146.657C55.5923 145.625 55.7953 144.604 56.19 143.65C56.5847 142.697 57.1634 141.831 57.8929 141.101C58.6225 140.372 59.4886 139.793 60.4419 139.399C61.3951 139.004 62.4168 138.801 63.4485 138.801H193.849Z" fill="#FAB613"/>
<path d="M55.5925 160.739H193.849V177.311H63.4485C62.4166 177.311 61.3948 177.108 60.4414 176.713C59.488 176.319 58.6218 175.74 57.8922 175.01C57.1626 174.28 56.584 173.414 56.1894 172.46C55.7948 171.507 55.592 170.485 55.5925 169.453V160.739Z" fill="#FAB613"/>
</svg>
