<svg width="250" height="250" viewBox="0 0 250 250" fill="none" xmlns="http://www.w3.org/2000/svg">
<mask id="path-1-inside-1_769_15" fill="white">
<path d="M0 48C0 21.4903 21.4903 0 48 0H202C228.51 0 250 21.4903 250 48V202C250 228.51 228.51 250 202 250H48C21.4903 250 0 228.51 0 202V48Z"/>
</mask>
<path d="M0 48C0 21.4903 21.4903 0 48 0H202C228.51 0 250 21.4903 250 48V202C250 228.51 228.51 250 202 250H48C21.4903 250 0 228.51 0 202V48Z" fill="white"/>
<path d="M48 0V2H202V0V-2H48V0ZM250 48H248V202H250H252V48H250ZM202 250V248H48V250V252H202V250ZM0 202H2V48H0H-2V202H0ZM48 250V248C22.5949 248 2 227.405 2 202H0H-2C-2 229.614 20.3858 252 48 252V250ZM250 202H248C248 227.405 227.405 248 202 248V250V252C229.614 252 252 229.614 252 202H250ZM202 0V2C227.405 2 248 22.5949 248 48H250H252C252 20.3858 229.614 -2 202 -2V0ZM48 0V-2C20.3858 -2 -2 20.3858 -2 48H0H2C2 22.5949 22.5949 2 48 2V0Z" fill="#DDDBDB" mask="url(#path-1-inside-1_769_15)"/>
<path d="M197.006 109.416C188.336 80.1229 161.342 59.9595 130.408 59.7625C107.945 59.6311 85.5489 59.6968 63.1526 59.6311H60.197V118.808H63.7437C90.5406 118.808 117.338 118.676 144.134 118.808H146.959V118.873C148.995 118.873 151.031 118.873 153.133 118.873C174.347 119.005 189.65 140.285 183.476 160.645C178.681 176.277 163.641 186.26 148.141 184.092C131.196 181.728 119.571 168.461 119.505 151.384C119.505 142.781 119.505 134.111 119.505 125.441H60C60 127.149 60 128.791 60.0657 130.433C60.5911 153.617 69.7204 172.796 88.6359 186.391C111.098 202.548 135.662 204.584 160.423 193.09C191.817 178.51 206.858 142.649 197.006 109.416Z" fill="#FFBF00"/>
</svg>
