<svg width="250" height="250" viewBox="0 0 250 250" fill="none" xmlns="http://www.w3.org/2000/svg">
<rect width="250" height="250" fill="#133F77"/>
<path d="M66.1754 94.0099H104.001C104.043 94.0098 104.084 94.0194 104.121 94.0381C104.159 94.0568 104.192 94.0839 104.217 94.1174C104.242 94.1508 104.259 94.1897 104.267 94.231C104.274 94.2722 104.272 94.3146 104.261 94.3549L95.4856 124.43C95.4693 124.486 95.4351 124.536 95.3882 124.571C95.3413 124.606 95.2842 124.625 95.2256 124.625H53.4253C53.3659 124.626 53.3071 124.612 53.2548 124.584C53.2024 124.556 53.1583 124.514 53.1266 124.464C53.0949 124.414 53.0767 124.356 53.0739 124.297C53.071 124.237 53.0836 124.178 53.1103 124.125L65.9254 94.1549C65.9495 94.1099 65.9856 94.0725 66.0298 94.0469C66.074 94.0213 66.1244 94.0085 66.1754 94.0099Z" fill="#78C2ED" stroke="white" stroke-width="0.59412" stroke-miterlimit="10"/>
<path d="M95.6705 125.02L104.441 94.8249C104.448 94.8025 104.462 94.7829 104.48 94.7691C104.499 94.7552 104.522 94.7477 104.546 94.7477C104.569 94.7477 104.592 94.7552 104.611 94.7691C104.63 94.7829 104.644 94.8025 104.651 94.8249L113.651 126.96C113.655 126.969 113.658 126.98 113.658 126.99C113.658 127.001 113.655 127.011 113.651 127.02L104.901 157.21C104.895 157.235 104.882 157.257 104.862 157.273C104.843 157.288 104.818 157.297 104.793 157.297C104.768 157.297 104.744 157.288 104.724 157.273C104.704 157.257 104.691 157.235 104.686 157.21L95.6555 125.08C95.6552 125.059 95.6604 125.038 95.6705 125.02Z" fill="#123F76" stroke="white" stroke-width="0.597282" stroke-miterlimit="10"/>
<path d="M95.1806 124.925L53.1803 124.745C53.1515 124.745 53.1231 124.752 53.0974 124.765C53.0718 124.778 53.0498 124.797 53.0331 124.821C53.0165 124.844 53.0057 124.872 53.0017 124.9C52.9977 124.929 53.0007 124.958 53.0103 124.985L65.0304 158.19C65.0437 158.226 65.0676 158.256 65.099 158.278C65.1303 158.299 65.1674 158.311 65.2054 158.31L104.236 157.545C104.263 157.545 104.291 157.538 104.315 157.525C104.34 157.512 104.362 157.494 104.378 157.472C104.395 157.45 104.407 157.425 104.412 157.397C104.418 157.37 104.417 157.342 104.411 157.315L95.3406 125.055C95.3311 125.019 95.3105 124.987 95.2817 124.964C95.253 124.941 95.2176 124.927 95.1806 124.925Z" fill="#0F9CDA" stroke="white" stroke-width="0.59412" stroke-miterlimit="10"/>
<path d="M110.256 125.105H148.086C148.128 125.106 148.17 125.116 148.207 125.135C148.245 125.155 148.277 125.182 148.302 125.216C148.327 125.25 148.344 125.289 148.352 125.33C148.36 125.372 148.358 125.414 148.346 125.455L139.571 155.53C139.554 155.586 139.52 155.635 139.473 155.67C139.426 155.705 139.369 155.725 139.311 155.725H97.5308C97.4714 155.726 97.4129 155.711 97.3606 155.683C97.3084 155.655 97.2642 155.614 97.2322 155.564C97.2002 155.514 97.1814 155.457 97.1777 155.397C97.174 155.338 97.1853 155.279 97.2108 155.225L110.031 125.25C110.053 125.209 110.086 125.174 110.125 125.149C110.164 125.124 110.209 125.108 110.256 125.105Z" fill="#78C2ED" stroke="white" stroke-width="0.59412" stroke-miterlimit="10"/>
<path d="M139.756 156.115L148.531 125.92C148.536 125.895 148.55 125.873 148.57 125.858C148.589 125.842 148.613 125.833 148.639 125.833C148.664 125.833 148.688 125.842 148.708 125.858C148.727 125.873 148.741 125.895 148.746 125.92L157.746 158.055C157.751 158.075 157.751 158.095 157.746 158.115L148.991 188.31C148.984 188.333 148.97 188.352 148.951 188.366C148.932 188.38 148.91 188.388 148.886 188.388C148.863 188.388 148.84 188.38 148.821 188.366C148.802 188.352 148.788 188.333 148.781 188.31L139.746 156.185C139.741 156.161 139.744 156.136 139.756 156.115Z" fill="#123F76" stroke="white" stroke-width="0.597282" stroke-miterlimit="10"/>
<path d="M139.266 156.02L97.2656 155.84C97.2362 155.84 97.2072 155.847 97.181 155.86C97.1548 155.874 97.1324 155.893 97.1156 155.918C97.0988 155.942 97.0882 155.97 97.0848 155.999C97.0813 156.028 97.085 156.058 97.0956 156.085L109.126 189.285C109.14 189.321 109.164 189.351 109.195 189.372C109.226 189.394 109.263 189.405 109.301 189.405L148.336 188.64C148.364 188.64 148.391 188.633 148.415 188.621C148.44 188.608 148.461 188.59 148.478 188.567C148.494 188.545 148.505 188.519 148.51 188.492C148.515 188.465 148.514 188.437 148.506 188.41L139.436 156.15C139.426 156.113 139.404 156.08 139.373 156.056C139.342 156.033 139.305 156.02 139.266 156.02Z" fill="#0F9CDA" stroke="white" stroke-width="0.59412" stroke-miterlimit="10"/>
<path d="M110.556 62.5947H148.381C148.423 62.5946 148.464 62.6042 148.502 62.6229C148.539 62.6416 148.572 62.6687 148.597 62.7022C148.622 62.7356 148.64 62.7745 148.647 62.8158C148.655 62.857 148.653 62.8994 148.641 62.9397L139.866 93.0149C139.849 93.0708 139.815 93.1198 139.768 93.1549C139.721 93.1899 139.664 93.2092 139.606 93.2099H97.8057C97.7462 93.211 97.6875 93.1968 97.6351 93.1686C97.5828 93.1404 97.5387 93.0991 97.507 93.0488C97.4753 92.9985 97.4571 92.9409 97.4543 92.8815C97.4514 92.8221 97.4639 92.763 97.4907 92.7099L110.306 62.7497C110.328 62.7024 110.363 62.6626 110.408 62.6351C110.452 62.6076 110.504 62.5936 110.556 62.5947Z" fill="#78C2ED" stroke="white" stroke-width="0.59412" stroke-miterlimit="10"/>
<path d="M140.031 93.6049L148.796 63.4047C148.801 63.3801 148.815 63.3581 148.834 63.3424C148.854 63.3266 148.878 63.318 148.903 63.318C148.929 63.318 148.953 63.3266 148.973 63.3424C148.992 63.3581 149.006 63.3801 149.011 63.4047L158.011 95.5349C158.016 95.5563 158.016 95.5785 158.011 95.5999L149.261 125.79C149.256 125.815 149.242 125.837 149.223 125.852C149.203 125.868 149.179 125.877 149.153 125.877C149.128 125.877 149.104 125.868 149.084 125.852C149.065 125.837 149.051 125.815 149.046 125.79L140.031 93.6649C140.026 93.6452 140.026 93.6245 140.031 93.6049Z" fill="#123F76" stroke="white" stroke-width="0.597282" stroke-miterlimit="10"/>
<path d="M139.561 93.5049L97.5608 93.3248C97.5314 93.3245 97.5023 93.3314 97.4762 93.3448C97.45 93.3583 97.4276 93.378 97.4108 93.4022C97.394 93.4264 97.3834 93.4543 97.3799 93.4835C97.3764 93.5128 97.3802 93.5424 97.3908 93.5699L109.426 126.775C109.439 126.811 109.463 126.841 109.494 126.862C109.526 126.882 109.563 126.892 109.601 126.89L148.631 126.125C148.659 126.126 148.687 126.12 148.712 126.107C148.737 126.095 148.759 126.077 148.776 126.054C148.792 126.032 148.803 126.005 148.808 125.978C148.812 125.95 148.81 125.922 148.801 125.895L139.736 93.6398C139.726 93.6011 139.703 93.5668 139.672 93.5423C139.64 93.5179 139.601 93.5047 139.561 93.5049Z" fill="#0F9CDA" stroke="white" stroke-width="0.59412" stroke-miterlimit="10"/>
<path d="M145.531 95.4249H183.361C183.403 95.4256 183.445 95.436 183.482 95.4552C183.52 95.4744 183.552 95.502 183.577 95.5359C183.602 95.5697 183.619 95.6088 183.627 95.6503C183.635 95.6917 183.633 95.7344 183.621 95.7749L174.831 125.85C174.814 125.906 174.78 125.955 174.733 125.99C174.686 126.025 174.629 126.044 174.571 126.045H132.771C132.711 126.046 132.653 126.031 132.601 126.003C132.548 125.975 132.504 125.934 132.472 125.884C132.44 125.834 132.421 125.776 132.418 125.717C132.414 125.658 132.425 125.599 132.451 125.545L145.271 95.5749C145.294 95.5265 145.331 95.4863 145.378 95.4595C145.424 95.4328 145.477 95.4207 145.531 95.4249Z" fill="#78C2ED" stroke="white" stroke-width="0.59412" stroke-miterlimit="10"/>
<path d="M175.031 126.435L183.781 96.2499C183.787 96.2253 183.8 96.2033 183.82 96.1876C183.839 96.1718 183.864 96.1632 183.889 96.1632C183.914 96.1632 183.938 96.1718 183.958 96.1876C183.977 96.2033 183.991 96.2253 183.996 96.2499L192.996 128.385C193.001 128.405 193.001 128.425 192.996 128.445L184.246 158.64C184.241 158.665 184.227 158.687 184.208 158.703C184.188 158.718 184.164 158.727 184.139 158.727C184.114 158.727 184.089 158.718 184.07 158.703C184.05 158.687 184.037 158.665 184.031 158.64L175.031 126.5C175.026 126.479 175.026 126.456 175.031 126.435Z" fill="#123F76" stroke="white" stroke-width="0.597282" stroke-miterlimit="10"/>
<path d="M174.531 126.34L132.531 126.16C132.501 126.16 132.472 126.167 132.446 126.18C132.42 126.194 132.398 126.213 132.381 126.237C132.364 126.262 132.353 126.29 132.35 126.319C132.346 126.348 132.35 126.378 132.361 126.405L144.396 159.605C144.408 159.641 144.43 159.672 144.461 159.693C144.492 159.715 144.528 159.726 144.566 159.725L183.601 158.96C183.629 158.961 183.657 158.955 183.682 158.942C183.707 158.93 183.729 158.912 183.746 158.889C183.762 158.867 183.773 158.841 183.778 158.813C183.782 158.785 183.78 158.757 183.771 158.73L174.706 126.47C174.694 126.433 174.67 126.401 174.639 126.377C174.608 126.354 174.57 126.341 174.531 126.34Z" fill="#0F9CDA" stroke="white" stroke-width="0.59412" stroke-miterlimit="10"/>
</svg>
