<svg width="250" height="250" viewBox="0 0 250 250" fill="none" xmlns="http://www.w3.org/2000/svg">
<rect width="250" height="250" fill="white"/>
<path fill-rule="evenodd" clip-rule="evenodd" d="M77.9579 55.1568C70.3219 55.1782 62.6418 55.1998 55.0822 55.0843C54.9663 57.36 54.9978 59.865 55.0282 62.2797C55.0392 63.1545 55.05 64.0175 55.0536 64.8534L55.0534 186.868C55.0524 187.462 55.0465 188.093 55.0405 188.743C55.0212 190.819 55.0002 193.086 55.1311 194.935C64.9866 194.839 74.8426 194.814 84.6986 194.859L172.575 194.858C174.454 194.858 176.375 194.848 178.316 194.837C183.846 194.808 189.534 194.778 194.857 194.985C195.062 193.185 195.001 189.461 194.951 186.443C194.932 185.271 194.914 184.206 194.915 183.401L194.927 67.6589C194.927 66.5277 194.919 65.3555 194.911 64.1664C194.89 61.091 194.868 57.9023 194.985 55.015C190.897 55.2617 185.73 55.2158 181.013 55.174C179.297 55.1587 177.641 55.144 176.118 55.1442L86.9266 55.1399C83.9505 55.1399 80.9576 55.1483 77.9579 55.1568ZM185.093 149.241C185.111 143.597 185.129 137.963 185.129 132.364L185.159 64.8879L64.7922 64.9132L64.8226 185.217L185.154 185.254C185.016 173.342 185.055 161.266 185.093 149.241Z" fill="#00CFCD"/>
<path d="M126.132 82.0828C129.399 86.3103 137.146 99.2148 131.604 104.315C130.638 105.205 128.252 105.615 126.901 105.809C126.727 104.449 126.574 101.837 126.345 100.679C126.317 100.039 126.365 98.3383 125.852 97.9869C125.551 98.6023 125.585 99.6186 125.556 100.335C125.295 102.223 125.198 103.828 124.82 105.723C111.609 104.602 121.209 87.3968 126.132 82.0828Z" fill="#1D008B"/>
<path d="M92.651 129.854C96.5622 129.414 97.4331 130.885 99.5486 133.718C97.7584 134.954 94.7338 136.644 92.789 137.817C95.2651 137.022 97.7038 136.428 100.175 135.544C100.76 137.597 100.901 138.655 100.886 140.759C99.9057 142.758 98.7206 143.274 96.7778 144.059C91.3171 145.415 86.934 144.163 81.5154 143.11C84.3753 137.969 86.3478 131.678 92.651 129.854Z" fill="#1D008B"/>
<path d="M152.984 133.498C155.398 129.685 158.06 128.423 162.192 130.999C166.906 133.939 167.789 139.193 170.339 143.589C164.534 144.722 156.325 146.196 151.651 141.657C151.334 140.902 151.323 138.693 151.3 137.836C151.426 136.83 151.685 136.273 152.05 135.337C154.498 135.986 157.094 136.984 159.426 137.977C157.507 136.474 155.035 134.884 152.984 133.498Z" fill="#1D008B"/>
<path d="M164.059 100.574C165.782 100.443 171.762 101.276 173.768 101.536C172.053 104.946 169.662 109.323 167.111 112.087C165.71 113.605 162.894 115.705 160.745 115.676C158.981 115.652 158.351 115.031 157.202 113.904C156.811 113.47 156.296 112.776 155.919 112.301C158.214 110.337 160.564 109.085 162.414 107.481C159.893 108.554 157.439 109.606 154.871 110.572C154.58 109.838 154.22 108.643 154.136 107.855C153.974 106.483 154.373 105.104 155.242 104.029C157.288 101.49 161.033 100.87 164.059 100.574Z" fill="#1D008B"/>
<path d="M120.836 138.806L121.11 139.093C121.147 143.262 123.023 153.269 124.958 156.671C128.864 163.542 137.63 168.84 135.657 177.959C135.245 179.864 134.796 182.376 134.574 184.357C134.445 184.252 134.256 184.058 134.218 183.902C133.596 181.408 133.071 178.963 131.945 176.616C129.293 171.093 124.692 166.466 121.77 161.173C118.762 155.726 118.974 144.652 120.836 138.806Z" fill="#1D008B"/>
<path d="M88.6492 100.222C92.2111 99.9866 97.2024 101.321 97.3443 105.67C97.3888 107.037 96.8751 108.163 96.3745 109.398C95.7049 109.081 91.3763 107.725 90.6787 107.639C90.9368 108.326 94.6572 110.51 95.5013 111.05C95.022 112.259 94.2462 113.157 93.4507 114.178C93.1306 114.417 92.3618 114.985 92.0152 115.107C87.795 116.584 83.7725 111.256 81.9818 108.206C80.8104 106.21 79.7939 104.391 78.9321 102.455C82.2556 101.446 85.1798 100.6 88.6492 100.222Z" fill="#1D008B"/>
<path d="M96.6383 89.754C100.74 90.8168 105.512 91.7952 108.745 94.6683C112.159 97.7014 112.188 100.556 109.124 103.848C108.357 103.324 107.144 102.058 106.433 101.358C105.89 100.571 104.933 99.7392 104.214 99.0644C104.769 100.085 105.235 100.976 105.905 101.928C106.465 103.026 107.007 103.87 107.674 104.91C107.293 105.115 106.867 105.302 106.5 105.508C99.9988 109.173 97.6551 100.026 97.2057 95.4507C97.0286 93.6472 97.0286 91.5119 96.6383 89.754Z" fill="#1D008B"/>
<path d="M154.38 90.3596L154.705 90.3544L154.91 90.5989C154.484 96.0277 154.066 104.867 147.94 106.942C146.4 106.549 145.484 106.111 144.104 105.358C144.679 104.255 146.976 100.704 146.914 99.9214C145.78 101.266 144.002 103.213 142.684 104.338C140.604 102.398 139.577 100.106 141.238 97.4691C144.04 93.0221 149.591 91.5633 154.38 90.3596Z" fill="#1D008B"/>
<path d="M142.389 134.958C142.955 134.694 143.536 134.466 144.13 134.275C147.846 133.109 149.89 136.103 150.845 139.179C150.963 139.973 151.135 140.759 151.298 141.546C151.747 143.403 151.049 148.879 150.829 151.041C147.083 149.192 142.796 147.199 140.012 144.037C136.952 140.563 137.9 138.334 141.095 135.668C142.266 137.211 143.632 139.102 144.904 140.508C144.568 139.358 143.02 136.002 142.389 134.958Z" fill="#1D008B"/>
<path d="M97.7006 115.964C101.239 115.345 102.758 117.906 103.397 120.863C101.276 121.2 99.6357 121.725 97.6173 122.376C99.6376 122.542 101.435 122.385 103.61 122.622C103.612 127.232 102.48 128.27 97.9707 128.574C97.5273 128.459 97.0791 128.376 96.6294 128.291C93.0191 127.608 89.7484 125.871 86.5375 124.154C86.5675 124.108 86.5977 124.063 86.6284 124.017C89.085 120.412 93.2587 116.813 97.7006 115.964Z" fill="#1D008B"/>
<path d="M152.953 115.972C158.428 115.386 162.68 120.541 165.987 124.1C163.018 125.492 159.526 127.66 156.36 128.142C155.761 128.288 155.153 128.397 154.541 128.468C152.423 128.715 151.012 128.164 149.412 126.903C148.755 125.178 148.751 124.424 148.663 122.586C150.13 122.409 153.238 122.467 154.894 122.423C153.754 121.957 149.391 121.309 149.28 120.323C149.021 118.032 150.889 116.558 152.953 115.972Z" fill="#1D008B"/>
<path d="M105.585 134.532C111.774 133.74 108.686 137.901 107.408 141.044C108.586 139.712 109.989 137.731 111.177 136.267C115.694 139.325 114.889 142.009 111.224 145.448C108.301 147.537 105.59 148.814 102.302 150.187C101.814 148.554 101.686 146.432 101.504 144.716C101.121 141.1 101.512 135.926 105.585 134.532Z" fill="#1D008B"/>
<path d="M111.72 119.141C113.687 119.445 114.636 120.646 115.812 122.085C114.356 123.084 112.874 124.043 111.367 124.962C112.761 124.657 114.92 124.047 116.187 123.44C116.33 123.819 116.459 124.202 116.574 124.591C117.561 128.004 116.131 129.224 113.057 130.048C109.429 130.516 106.425 130.09 102.881 129.3C104.661 125.027 106.647 120.059 111.72 119.141Z" fill="#1D008B"/>
<path d="M139.273 119.29C144.342 118.449 147.433 125.688 148.985 129.267C146.229 129.967 142.259 130.522 139.434 130.134C137.958 129.879 137.633 129.782 136.36 129.04C134.812 128.138 134.301 124.443 135.865 123.638C136.614 123.724 139.723 124.875 140.716 125.193C139.286 124.174 137.588 123.148 136.092 122.2C136.992 120.785 137.741 119.968 139.273 119.29Z" fill="#1D008B"/>
<path d="M137.67 99.1837C137.712 99.2093 137.881 99.2955 137.91 99.3302C140.77 102.819 143.537 109.343 141.152 113.253C140.037 113.952 138.95 114.233 137.686 114.508C137.384 113.076 137.578 111.255 137.2 109.965L136.972 109.911C136.703 111.448 136.462 112.99 136.247 114.536C134.324 113.615 132.19 113.076 131.996 110.449C131.676 106.115 135.167 102.324 137.67 99.1837Z" fill="#1D008B"/>
<path d="M113.56 99.1694C116.22 100.873 123.027 110.77 118.28 113.263C117.859 113.484 116.791 113.942 116.317 114.149C115.881 112.74 115.498 111.316 115.168 109.879L114.949 109.518C114.767 109.85 114.993 113.655 115.021 114.42C114.058 114.36 112.783 114.246 112.008 113.666C107.39 110.209 111.706 102.586 113.56 99.1694Z" fill="#1D008B"/>
<path d="M126.625 125.866C126.759 126.237 126.573 128.637 126.565 129.249C126.501 133.896 126.312 138.287 127.622 142.789C129.223 141.907 130.029 141.004 131.4 139.797C130.462 141.797 129.587 143.865 128.685 145.886C129.974 150.052 131.403 152.133 132.753 155.865C132.9 156.065 132.9 156.226 132.938 156.471L132.633 156.598C132.134 156.456 131.745 156.249 131.374 155.874C125.89 150.317 122.221 143.131 123.183 135.152C123.53 132.272 124.588 128.078 126.625 125.866Z" fill="#1D008B"/>
<path d="M126.498 107.064C127.919 107.598 130.774 114.094 130.77 115.831C130.765 117.824 130.721 118.174 129.536 119.6C128.917 119.829 127.772 120.132 127.108 120.327C126.984 119.034 126.828 117.896 126.631 116.611C125.713 117.524 126.85 119.607 125.536 120.143C124.755 120.106 124.009 119.614 123.307 119.235C120.324 115.06 124.164 110.512 126.498 107.064Z" fill="#1D008B"/>
<path d="M145.489 153.087C153.37 152.967 149.528 161.352 147.72 165.337C146.863 164.475 145.904 163.595 145.017 162.754C142.001 159.819 139.026 155.771 144.411 153.469C144.826 154.61 145.348 155.823 145.811 156.954C145.735 155.598 145.662 154.432 145.489 153.087Z" fill="#1D008B"/>
<path d="M104.937 153.128C105.456 153.057 105.755 152.98 106.259 153.128C106.669 153.888 106.462 154.984 106.703 155.96C107.16 154.977 107.232 154.218 107.403 153.154C108.403 153.512 108.931 153.759 109.876 154.243C111.926 157.14 109.979 160.141 108.063 162.452C107.273 163.367 106.12 164.482 105.254 165.366C103.587 162.494 99.4855 154.231 104.937 153.128Z" fill="#1D008B"/>
<path d="M122.548 143.714C122.669 143.769 122.877 143.92 122.996 144C123.868 146.016 124.573 148.042 125.758 149.896C127.803 153.159 130.302 156.088 132.63 159.142C134.203 161.204 135.956 163.265 135.876 165.971C135.826 165.97 135.776 165.969 135.726 165.968C128.354 164.145 122.029 149.652 122.548 143.714Z" fill="#1D008B"/>
<path d="M169.201 113.166C169.28 113.165 169.36 113.165 169.44 113.165C172.562 113.162 175.358 115.063 177.509 117.19C175.486 119.353 174.208 120.561 171.529 121.927C171.28 122.014 171.03 122.096 170.778 122.173C167.782 123.071 167.214 120.918 166.574 118.601L170.038 117.882C168.639 117.656 167.889 117.563 166.478 117.524C166.763 115.047 166.573 113.902 169.201 113.166Z" fill="#1D008B"/>
<path d="M168.397 125.254C172.283 125.845 174.093 129.061 175.884 132.179C173.847 132.675 172.029 133.734 169.241 134.367C165.091 134.479 164.725 133.416 164.927 129.58C165.931 129.793 166.527 129.878 167.547 129.974L167.804 129.642L167.728 129.98C167.899 129.982 167.885 129.938 168.081 129.811L168.143 129.906C167.756 129.403 165.849 128.769 165.19 128.528C165.377 128.155 165.568 127.784 165.763 127.415C166.496 126.042 166.919 125.701 168.397 125.254Z" fill="#1D008B"/>
<path d="M111.422 81.66C112.95 82.6004 115.634 86.3686 116.228 88.12C117.294 91.263 116.433 92.5226 113.456 93.5487C113.201 92.4337 112.959 91.3159 112.73 90.1953L112.465 89.9304C112.178 90.3997 112.36 93.2055 112.376 93.9127C110.567 93.5123 108.793 92.939 108.417 90.8135C107.836 87.5356 109.741 84.3195 111.422 81.66Z" fill="#1D008B"/>
<path d="M140.158 81.6891C141.266 82.1733 143.02 86.3838 143.252 87.6254C144.044 91.8412 144.052 92.9039 139.849 93.8019C139.848 93.0549 140.028 90.2646 139.464 89.9502C139.209 91.2795 139.051 92.3576 138.892 93.7026C137.157 93.1006 135.458 92.3964 135.422 90.2095C135.367 86.84 138.066 84.0411 140.158 81.6891Z" fill="#1D008B"/>
<path d="M92.0161 147.458C93.1879 147.321 94.1242 147.763 95.2323 148.154C94.7867 149.441 94.0718 150.785 93.459 152.014C94.7587 150.943 95.3298 149.436 96.5666 149.154C96.8681 149.248 97.1423 149.275 97.3159 149.541C98.7075 151.673 97.8923 153.768 96.2852 155.221C94.3821 156.821 91.7234 157.607 89.3846 158.405C88.8179 154.823 88.8151 149.823 92.0161 147.458Z" fill="#1D008B"/>
<path d="M82.3028 113.523C85.3146 113.6 85.4951 115.11 85.8319 117.66C84.417 117.632 83.4172 117.687 82.0018 117.797C83.4468 118.282 84.223 118.456 85.7221 118.662C85.1218 120.874 84.1021 123.028 81.3694 122.219C78.1833 121.246 76.6315 119.629 74.3536 117.188C76.7127 115.438 79.3899 114.018 82.3028 113.523Z" fill="#1D008B"/>
<path d="M157.045 150.246C156.844 149.787 156.469 149.098 156.559 148.637C156.844 148.363 157.117 148.237 157.502 148.158C163.56 146.913 162.887 155.141 162.772 158.7C159.735 157.523 150.656 154.977 154.669 150.197C154.877 149.949 155.108 149.696 155.326 149.455C155.662 149.762 156.161 150.188 156.465 150.501C156.999 151.269 157.668 151.847 158.348 152.487C157.92 151.515 157.639 151.117 157.045 150.246Z" fill="#1D008B"/>
<path d="M83.4418 125.237C85.2147 125.466 85.5966 126.443 86.5282 127.846C85.6501 128.564 84.1401 129.293 83.0952 129.858C84.0752 129.774 86.1421 129.184 86.8285 129.525C87.692 130.381 87.3873 131.139 86.7869 132.129C85.8612 133.655 84.8814 133.831 83.2527 134.173C80.7616 134.189 78.0245 133.003 75.6822 132.143C77.8636 129.162 79.7112 126.136 83.4418 125.237Z" fill="#1D008B"/>
<path d="M134.037 130.23C141.199 129.695 137.63 137.797 135.969 141.229C135.137 140.379 134.092 139.53 133.178 138.751C131.751 137.262 129.403 134.777 130.292 132.474C130.733 131.334 131.804 130.974 132.846 130.527C133.472 131.865 133.528 132.711 134.395 134.117C134.314 133.24 133.727 130.736 134.037 130.23Z" fill="#1D008B"/>
<path d="M99.9077 110.239C102.436 110.114 107.436 109.719 109.371 111.467C109.824 111.875 110.093 112.447 110.118 113.055C110.134 113.545 109.973 114.661 109.618 115.033C109.076 115.183 108.791 115.018 108.262 114.818C107.772 114.401 106.719 114.121 106.071 113.906C106.774 114.497 107.256 114.915 108.039 115.409C108.44 115.59 108.693 115.665 108.966 116.02C108.944 117.072 107.037 118.137 106.222 118.034C102.714 117.591 101.031 113.09 99.9077 110.239Z" fill="#1D008B"/>
<path d="M116 130.204C116.626 130.145 116.836 130.118 117.457 130.207C118.275 130.964 117.808 132.235 117.875 133.801C118.265 132.721 118.636 131.417 118.982 130.306C122.976 132.221 121.858 134.578 119.78 137.673C118.941 138.548 117.402 140.347 116.301 140.602C114.93 139.946 112.681 131.494 116 130.204Z" fill="#1D008B"/>
<path d="M144.062 114.58C143.537 114.827 143.166 115.015 142.605 115.174C142.168 114.749 142.007 114.054 142.042 113.458C142.322 108.717 149.783 110.709 152.28 111.114C150.571 114.308 146.285 121.659 142.705 115.921L143.996 115.319C144.664 114.963 145.734 114.228 146.397 113.798C145.598 113.976 144.829 114.291 144.062 114.58Z" fill="#1D008B"/>
<path d="M112.43 145.767C113.089 145.719 113.374 145.721 114.033 145.771C114.357 146.15 114.156 147.097 114.188 147.849L114.489 147.506L114.175 147.455L114.546 147.405L115.251 145.843C118.186 147.854 117.592 149.285 115.484 151.802C114.548 152.695 113.563 153.439 112.49 154.155C111.642 152.146 111.301 150.38 110.886 148.265C111.309 147.085 111.39 146.459 112.43 145.767Z" fill="#1D008B"/>
<path d="M163.7 91.8009L163.936 91.7698L164.101 91.9851C163.899 93.9902 162.449 100.77 159.097 98.2559C158.794 98.0293 158.603 97.7914 158.576 97.42L159.6 96.5135L159.767 96.1532C159.297 95.8114 158.991 96.9721 157.845 96.8892C156.152 95.6802 157.4 93.6361 158.891 92.8996C160.456 92.127 162.023 92.0773 163.7 91.8009Z" fill="#1D008B"/>
<path d="M88.2108 91.66C90.2542 92.0086 97.8331 93.2366 94.5133 96.7978C93.8389 96.8174 93.5754 96.4016 92.7717 95.9985L92.5542 96.1342C92.9795 96.7448 93.5491 97.1151 94.1432 97.5592L92.0283 98.9848C88.7134 97.3274 88.5161 95.0041 88.2108 91.66Z" fill="#1D008B"/>
<path d="M101.628 82.5157C103.69 83.3314 107.474 86.0993 106.512 88.7821C106.275 89.4427 105.981 89.5363 105.334 89.5708C104.742 89.1976 104.828 89.0917 104.451 88.3773L104.324 88.2486L104.157 88.3102C104.258 89.2826 104.676 89.8466 103.859 90.5559C103.731 90.5757 103.487 90.6015 103.369 90.5654C99.8069 89.4777 101.192 84.9867 101.628 82.5157Z" fill="#1D008B"/>
<path d="M138.348 145.906C142.615 146.272 140.238 151.507 139.209 153.746C138.406 153.13 137.81 152.516 137.095 151.806C135.68 150.235 133.321 146.535 137.205 146.468C137.786 147.018 137.198 147.166 137.665 147.742L137.719 147.738C137.984 147.221 137.754 146.936 137.865 146.25L138.348 145.906Z" fill="#1D008B"/>
<path d="M150.184 82.7516C151.703 84.2027 150.851 91.6122 147.793 90.3843C146.965 90.0517 147.799 89.2433 147.663 88.3478C147.196 89.0913 147.181 89.3148 146.416 89.5257C146.083 89.402 145.777 89.3373 145.656 88.9695C144.643 85.9015 148.246 83.8021 150.184 82.7516Z" fill="#1D008B"/>
<path d="M120.501 121.216C121.224 121.156 122.711 121.039 123.349 121.343C124.292 121.792 125.018 123.188 124.478 124.188C123.626 124.522 123.478 123.828 122.583 124.085C122.653 124.73 123.562 124.359 124.036 125.149C124.035 125.681 123.677 126.004 123.332 126.424C121.011 127.912 118.41 123.915 117.194 122.323L120.501 121.216Z" fill="#1D008B"/>
<path d="M130.124 120.737C131.288 120.83 133.617 121.12 134.463 121.919C134.802 123.579 131.389 125.898 129.925 126.423C129.323 126.299 128.555 125.91 128.106 125.476C127.929 124.28 129.306 124.416 129.71 123.528C128.81 123.197 128.114 124.508 127.473 123.385C127.404 121.318 128.37 121.007 130.124 120.737Z" fill="#1D008B"/>
<path d="M119.336 81.0984L119.777 81.2455C120.744 82.4305 121.628 85.2002 120.438 86.4427C119.846 86.622 120.092 86.6215 119.508 86.4578C115.257 86.9939 118.174 82.6003 119.336 81.0984Z" fill="#1D008B"/>
<path d="M131.905 81.0702C133.436 81.5246 135.068 84.2477 134.663 85.8611C134.227 86.2598 134.438 86.1786 133.877 86.1862C129.71 87.9735 131.193 83.068 131.905 81.0702Z" fill="#1D008B"/>
<path d="M96.6425 157.247C100.247 157.039 100.739 158.845 98.6644 161.385L97.8431 162.025C95.6135 162.389 95.9777 158.607 96.6425 157.247Z" fill="#1D008B"/>
<path d="M86.461 145.893C88.4024 145.707 89.3222 147.592 88.307 149.148C87.9519 149.692 86.8409 149.752 86.2161 149.812C85.0968 149.644 84.4483 149.458 83.3573 149.138C84.4481 147.537 84.8791 146.993 86.461 145.893Z" fill="#1D008B"/>
<path d="M164.317 145.72C166.134 145.732 168.148 147.256 168.126 149.108C167.767 149.607 167.794 149.468 167.054 149.671C165.687 149.667 163.931 149.843 163.311 148.344C163.238 147.601 163.855 146.295 164.317 145.72Z" fill="#1D008B"/>
<path d="M154.075 157.26C157.518 157.346 156.022 160.879 155.296 162.861L154.298 161.903C153.277 161.039 151.041 158.672 153.094 157.681C154.11 158.059 153.409 158.182 154.039 158.484C153.955 157.972 153.883 157.756 154.075 157.26Z" fill="#1D008B"/>
<path d="M125.556 100.335C125.585 99.6186 125.551 98.6023 125.852 97.9869C126.365 98.3383 126.317 100.039 126.345 100.679C125.901 101.298 125.983 102.725 125.913 103.575C125.653 102.184 125.978 101.085 125.556 100.335Z" fill="#00000F"/>
<path d="M104.214 99.0644C104.933 99.7392 105.89 100.571 106.433 101.358C106.133 101.569 106.024 101.601 105.905 101.928C105.235 100.976 104.769 100.085 104.214 99.0644Z" fill="#1D008B"/>
<path d="M151.3 137.836C151.323 138.693 151.334 140.902 151.651 141.657L151.298 141.546C151.135 140.759 150.963 139.973 150.845 139.179L151.056 139.074L151.3 137.836Z" fill="#1D008B"/>
<path d="M157.045 150.246C157.639 151.117 157.92 151.515 158.348 152.487C157.668 151.847 156.999 151.269 156.465 150.501L157.045 150.246Z" fill="#1D008B"/>
<path d="M106.071 113.906C106.719 114.121 107.772 114.401 108.262 114.818L108.039 115.409C107.256 114.915 106.774 114.497 106.071 113.906Z" fill="#1D008B"/>
<path d="M144.062 114.58C144.829 114.291 145.598 113.976 146.397 113.798C145.734 114.228 144.664 114.963 143.996 115.319L144.062 114.58Z" fill="#1D008B"/>
<path d="M120.208 160.774C123.56 167.412 133.6 177.638 133.157 185.22C130.483 185.237 127.808 185.229 125.134 185.195C125.32 182.994 122.954 178.749 121.711 176.896C118.14 171.569 118.14 166.686 120.208 160.774Z" fill="#1D008B"/>
<path d="M119.657 175.956C121.984 178.383 123.701 181.935 124.232 185.237C122.142 185.165 119.769 185.22 117.633 185.192C117.892 184.152 117.647 182.894 117.893 181.818C118.323 179.942 119.308 177.806 119.657 175.956Z" fill="#1D008B"/>
<path d="M134.978 185.166C135.496 184.262 136.543 179.377 137.044 177.934C137.583 179.993 138.772 183.397 139.057 185.194C137.694 185.21 136.339 185.241 134.978 185.166Z" fill="#1D008B"/>
</svg>
