<svg width="250" height="250" viewBox="0 0 250 250" fill="none" xmlns="http://www.w3.org/2000/svg">
<mask id="path-1-inside-1_769_19" fill="white">
<path d="M0 48C0 21.4903 21.4903 0 48 0H202C228.51 0 250 21.4903 250 48V202C250 228.51 228.51 250 202 250H48C21.4903 250 0 228.51 0 202V48Z"/>
</mask>
<path d="M0 48C0 21.4903 21.4903 0 48 0H202C228.51 0 250 21.4903 250 48V202C250 228.51 228.51 250 202 250H48C21.4903 250 0 228.51 0 202V48Z" fill="white"/>
<path d="M48 0V2H202V0V-2H48V0ZM250 48H248V202H250H252V48H250ZM202 250V248H48V250V252H202V250ZM0 202H2V48H0H-2V202H0ZM48 250V248C22.5949 248 2 227.405 2 202H0H-2C-2 229.614 20.3858 252 48 252V250ZM250 202H248C248 227.405 227.405 248 202 248V250V252C229.614 252 252 229.614 252 202H250ZM202 0V2C227.405 2 248 22.5949 248 48H250H252C252 20.3858 229.614 -2 202 -2V0ZM48 0V-2C20.3858 -2 -2 20.3858 -2 48H0H2C2 22.5949 22.5949 2 48 2V0Z" fill="#DDDBDB" mask="url(#path-1-inside-1_769_19)"/>
<path d="M190 190C146.536 190 103.386 190 60 190C60 146.614 60 103.464 60 60C103.229 60 146.457 60 190 60C190 103.229 190 146.378 190 190ZM175.538 174.831C157.146 140.955 139.148 107.709 121.227 74.7763C105.744 74.7763 90.7316 74.7763 74.9335 74.7763C93.2467 108.495 111.245 141.741 129.166 174.831C144.728 174.831 159.74 174.831 175.538 174.831ZM107.08 174.831C96.4692 155.339 86.1729 136.397 75.8767 117.376C75.6409 117.455 75.4051 117.612 75.2479 117.69C75.2479 136.711 75.2479 155.653 75.2479 174.831C85.7799 174.831 96.0762 174.831 107.08 174.831ZM174.438 131.917C174.595 131.838 174.831 131.759 174.988 131.681C174.988 112.739 174.988 93.7183 174.988 74.7763C164.456 74.7763 154.238 74.7763 143.392 74.7763C154.002 94.1898 164.22 113.053 174.438 131.917Z" fill="#27255A"/>
</svg>
