<svg width="250" height="250" viewBox="0 0 250 250" fill="none" xmlns="http://www.w3.org/2000/svg">
<rect width="250" height="250" fill="white"/>
<mask id="mask0_83_135" style="mask-type:alpha" maskUnits="userSpaceOnUse" x="55" y="81" width="105" height="64">
<path fill-rule="evenodd" clip-rule="evenodd" d="M67.81 99.0287C56.3977 107.177 51.9143 121.639 57.2129 144.454C57.4167 143.232 57.8242 142.213 58.2318 140.991C68.0138 112.269 101.232 115.325 125.075 114.714C149.123 114.306 157.682 99.4361 159.924 81.9176C140.767 99.0287 95.1181 79.677 67.81 99.0287Z" fill="#D9D9D9"/>
</mask>
<g mask="url(#mask0_83_135)">
<path d="M159.864 80.0623H51.467V145.223H159.864V80.0623Z" fill="url(#paint0_linear_83_135)"/>
</g>
<path fill-rule="evenodd" clip-rule="evenodd" d="M151.459 59.7799C187.523 74.7382 204.53 116.13 189.572 152.193C174.614 188.257 133.222 205.265 97.1583 190.307C90.1916 187.438 83.8395 183.544 78.5118 178.832C74.6185 175.143 69.7007 164.078 70.9302 155.472C72.1596 146.866 85.8885 147.276 94.0847 149.94C85.2739 154.652 90.3965 165.717 109.453 171.66C135.066 179.446 167.032 169.406 178.507 141.743C191.006 111.827 175.433 76.7873 143.673 63.6732C113.346 50.9688 69.9056 67.9762 56.7915 104.04C57.4062 101.991 58.2259 99.9419 59.0455 97.8927C74.0038 61.829 115.395 44.6167 151.459 59.7799Z" fill="#003399"/>
<path opacity="0.15" fill-rule="evenodd" clip-rule="evenodd" d="M78.5115 178.832C72.3643 170.84 75.8477 160.39 82.8146 154.857C86.0931 152.398 89.7816 150.964 94.0844 149.94C89.3716 152.603 88.7569 156.906 92.2403 161.414C76.0526 162.029 78.5115 178.627 78.5115 178.832Z" fill="#000066"/>
<path opacity="0.15" fill-rule="evenodd" clip-rule="evenodd" d="M78.5115 178.832C72.3643 170.84 75.8477 160.39 82.8146 154.857C86.0931 152.398 89.7816 150.964 94.0844 149.94C91.4208 151.374 89.9864 153.423 89.9864 155.677C74.6183 159.57 76.4624 175.143 78.5115 178.832Z" fill="#000066"/>
<path opacity="0.15" fill-rule="evenodd" clip-rule="evenodd" d="M58.27 141.154C68.0645 112.099 101.325 115.168 124.995 114.759C148.053 114.35 156.827 100.64 159.48 84.0665C156.827 89.1818 153.154 93.2741 148.257 96.3432C142.543 99.8219 136.014 101.459 129.484 102.277C122.342 103.3 115.2 103.3 107.855 103.71C96.4277 104.119 83.1643 104.732 72.7576 110.257C60.5145 116.805 57.4538 129.286 57.6578 142.382C58.0659 141.768 58.0659 141.563 58.27 141.154Z" fill="#000066"/>
<mask id="mask1_83_135" style="mask-type:alpha" maskUnits="userSpaceOnUse" x="64" y="116" width="88" height="64">
<path fill-rule="evenodd" clip-rule="evenodd" d="M85.2636 126.6C62.2974 134.416 55.9406 159.304 78.7019 179.049C72.5502 171.028 76.0361 160.538 83.0081 154.985C101.463 140.381 142.474 161.772 151.087 116.316C134.682 130.097 107.82 118.99 85.2636 126.6Z" fill="#D9D9D9"/>
</mask>
<g mask="url(#mask1_83_135)">
<path d="M150.639 116.334H55.7666V178.832H150.639V116.334Z" fill="url(#paint1_linear_83_135)"/>
</g>
<path opacity="0.2" fill-rule="evenodd" clip-rule="evenodd" d="M83.0393 155.197C86.3065 152.709 89.9819 151.258 94.2701 150.221C114.077 146.075 142.665 153.746 150.424 118.084C146.136 124.926 140.214 129.695 132.455 132.598C126.533 134.878 119.999 135.708 113.669 136.122C107.951 136.537 102.234 136.744 96.7203 137.574C91.6155 138.196 86.3065 139.44 81.8141 141.928C81.2016 142.343 80.5889 142.55 79.9764 142.964C77.1176 144.83 74.8714 147.111 73.2379 150.014C70.9917 153.953 70.1749 158.515 70.9917 163.076C71.8085 167.637 73.8505 171.784 76.505 175.516V175.309C74.6672 170.54 75.484 165.564 77.7302 161.21C77.9344 161.003 77.9344 160.795 78.1386 160.588C79.3636 158.515 80.9974 156.649 83.0393 155.197Z" fill="#000066"/>
<defs>
<linearGradient id="paint0_linear_83_135" x1="82.8386" y1="68.8454" x2="121.656" y2="143.222" gradientUnits="userSpaceOnUse">
<stop stop-color="#003398"/>
<stop offset="1" stop-color="#4DEA8F"/>
</linearGradient>
<linearGradient id="paint1_linear_83_135" x1="122.565" y1="99.6086" x2="84.6437" y2="193.945" gradientUnits="userSpaceOnUse">
<stop stop-color="#003398"/>
<stop offset="1" stop-color="#4DEA8F"/>
</linearGradient>
</defs>
</svg>
