<svg width="250" height="250" viewBox="0 0 250 250" fill="none" xmlns="http://www.w3.org/2000/svg">
<rect width="250" height="250" fill="#2E434E"/>
<path fill-rule="evenodd" clip-rule="evenodd" d="M74.5218 103.899L84.0646 87.2999H177.033L179.418 91.4451L186.576 103.899H74.5218V103.899ZM87.7157 80.9479L97.2677 64.3333H163.827L173.379 80.9479H87.7157ZM163.83 172.784H109.453C108.402 172.784 107.517 173.33 107.035 174.145L100.412 185.667H81.5168L97.1017 158.558C97.8086 157.326 99.7079 156.329 101.34 156.329L173.278 156.348L163.83 172.784V172.784ZM186.514 133.326L176.929 149.999H96.0844C95.0517 149.999 94.1882 150.511 93.6965 151.286L87.1656 162.644H68.2707L83.8556 135.539C84.5625 134.307 86.4618 133.31 88.0938 133.31L186.514 133.326ZM82.7308 126.977C81.7166 126.977 80.8314 127.523 80.3489 128.338L73.8949 139.564H55L70.5819 112.461C71.2887 111.23 73.1881 110.229 74.82 110.229L190.224 110.254L195 118.56L190.163 126.974H82.826L82.7308 126.977V126.977Z" fill="#FDB813"/>
</svg>
