<svg width="250" height="250" viewBox="0 0 250 250" fill="none" xmlns="http://www.w3.org/2000/svg">
<mask id="path-1-inside-1_769_25" fill="white">
<path d="M0 48C0 21.4903 21.4903 0 48 0H202C228.51 0 250 21.4903 250 48V202C250 228.51 228.51 250 202 250H48C21.4903 250 0 228.51 0 202V48Z"/>
</mask>
<path d="M0 48C0 21.4903 21.4903 0 48 0H202C228.51 0 250 21.4903 250 48V202C250 228.51 228.51 250 202 250H48C21.4903 250 0 228.51 0 202V48Z" fill="white"/>
<path d="M48 0V2H202V0V-2H48V0ZM250 48H248V202H250H252V48H250ZM202 250V248H48V250V252H202V250ZM0 202H2V48H0H-2V202H0ZM48 250V248C22.5949 248 2 227.405 2 202H0H-2C-2 229.614 20.3858 252 48 252V250ZM250 202H248C248 227.405 227.405 248 202 248V250V252C229.614 252 252 229.614 252 202H250ZM202 0V2C227.405 2 248 22.5949 248 48H250H252C252 20.3858 229.614 -2 202 -2V0ZM48 0V-2C20.3858 -2 -2 20.3858 -2 48H0H2C2 22.5949 22.5949 2 48 2V0Z" fill="#DDDBDB" mask="url(#path-1-inside-1_769_25)"/>
<path d="M78.364 125.12C78.364 121.633 78.3791 118.139 78.364 114.652C78.2588 94.971 93.724 77.7774 111.977 74.4108C118.327 73.2385 124.677 73.8623 131.027 73.6819C136.242 73.5391 141.202 74.764 145.876 76.8606C159.282 82.8573 167.751 92.9871 170.749 107.415C171.298 110.068 171.478 112.826 171.523 115.546C171.629 122.024 171.516 128.509 171.569 134.994C171.719 153.555 158.125 171.2 138.654 175.498C131.974 176.971 125.218 176.205 118.492 176.332C115.344 176.392 112.308 175.874 109.294 174.957C93.1078 170.035 82.9931 159.424 79.2282 142.967C78.5669 140.089 78.5068 137.061 78.3716 134.092C78.2288 131.109 78.334 128.111 78.334 125.12C78.3415 125.12 78.3565 125.12 78.364 125.12ZM158.485 103.598C158.636 103.087 158.711 102.967 158.696 102.861C158.658 102.621 158.613 102.365 158.508 102.147C154.413 93.6108 147.86 87.7644 138.782 85.0591C131.132 82.7747 123.272 83.1053 115.426 84.1123C97.9398 86.3516 85.4729 104.402 88.8245 121.017C91.4922 134.235 99.2097 142.712 112.015 146.642C114.697 147.468 117.553 147.746 120.281 148.265C120.281 151.496 120.281 154.668 120.281 157.854C108.738 157.771 99.1045 153.608 90.7633 146.116C95.2345 156.696 102.937 163.362 114.254 165.804C119.079 166.849 123.956 166.563 128.818 166.458C131.658 166.398 134.536 166.015 137.302 165.368C152.466 161.852 163.813 146.214 161.123 129.786C158.996 116.786 151.61 108.189 139.293 103.823C136.189 102.726 132.808 102.403 129.306 101.667C129.306 100.111 129.246 98.5104 129.321 96.9098C129.396 95.3467 128.915 93.701 129.757 92.183C140.864 92.2356 150.234 96.2635 158.485 103.598Z" fill="#B79157"/>
<path d="M69.5422 120.731C66.0629 120.731 63.1097 120.731 59.8859 120.731C59.4876 116.816 59.3974 112.954 59.8483 109.181C61.0056 99.4424 64.1542 90.3346 69.6925 82.1512C79.1385 68.1964 92.2441 59.547 108.694 56.0151C112.196 55.2637 115.863 55.2261 119.47 55.0683C122.964 54.918 126.466 55.0683 129.968 55.0307C157.441 54.7301 183.119 74.9972 188.905 102.869C190.1 108.64 190.543 114.412 190.213 120.243C187.635 121.01 184.682 121.1 180.324 120.499C180.226 118.853 180.045 117.147 180.045 115.441C180.038 100.54 174.319 88.1178 163.415 78.1158C155.503 70.8566 146.109 66.4831 135.318 65.5287C130.479 65.1004 125.602 64.8298 120.747 64.9125C97.4367 65.2882 78.9281 79.5811 72.1273 100.201C70.444 105.304 69.7451 110.587 69.5573 115.937C69.4971 117.41 69.5422 118.89 69.5422 120.731Z" fill="#B79157"/>
<path d="M180.428 129.283C183.809 129.283 186.778 129.283 189.956 129.283C190.685 132.77 190.49 136.257 190.137 139.654C189.054 150.182 185.756 159.988 179.586 168.698C169.539 182.885 155.982 191.497 138.714 194.36C132.845 195.33 127.006 194.811 121.152 194.977C106.746 195.367 93.8887 190.866 82.7144 181.969C70.4429 172.2 62.9433 159.53 60.3507 143.974C59.5467 139.143 59.8022 134.371 59.727 129.358C63.071 129.358 66.1145 129.358 69.2331 129.358C69.5337 132.973 69.7366 136.422 70.1273 139.849C72.036 156.847 80.6854 169.532 95.2564 178.271C103.237 183.058 112.067 184.975 121.31 185.147C127.675 185.26 134.062 185.335 140.292 183.765C161.205 178.482 174.243 165.354 179.03 144.373C179.932 140.42 179.811 136.234 180.165 132.154C180.225 131.312 180.315 130.463 180.428 129.283Z" fill="#B79157"/>
<path d="M120.336 92.0329C120.434 92.8971 120.539 93.378 120.539 93.8589C120.554 96.4665 120.546 99.0741 120.546 101.794C118.886 102.223 117.315 102.508 115.827 103.042C109.8 105.199 106.02 111.661 107.065 117.883C108.132 124.248 113.61 128.99 120.095 129.125C123.094 129.185 126.107 129.028 129.098 129.2C133.103 129.426 135.275 132.68 133.96 136.197C133.276 138.03 131.841 139.112 130.037 139.263C121.876 139.931 113.7 140.067 106.704 134.882C99.5729 129.599 96.3566 122.43 97.063 113.495C97.9122 102.801 105.825 95.0989 114.444 92.9346C116.24 92.4838 118.119 92.3635 120.336 92.0329Z" fill="#B79157"/>
<path d="M129.488 158.019C129.488 154.525 129.488 151.459 129.488 148.213C130.855 147.844 132.275 147.499 133.666 147.07C140.714 144.906 143.623 137.624 142.879 132.575C141.864 125.706 136.379 120.972 129.525 120.867C126.655 120.822 123.784 120.852 120.913 120.844C119.042 120.837 117.517 120.115 116.427 118.597C114.526 115.952 115.473 112.48 118.486 111.173C119.268 110.835 120.162 110.549 120.996 110.572C125.219 110.707 129.503 110.557 133.651 111.225C145.877 113.202 152.603 124.136 152.926 133.213C153.324 144.358 146.23 154.232 135.462 157.072C133.688 157.546 131.81 157.666 129.488 158.019Z" fill="#B79157"/>
</svg>
