<svg width="250" height="250" viewBox="0 0 250 250" fill="none" xmlns="http://www.w3.org/2000/svg">
<mask id="path-1-inside-1_769_27" fill="white">
<path d="M0 48C0 21.4903 21.4903 0 48 0H202C228.51 0 250 21.4903 250 48V202C250 228.51 228.51 250 202 250H48C21.4903 250 0 228.51 0 202V48Z"/>
</mask>
<path d="M0 48C0 21.4903 21.4903 0 48 0H202C228.51 0 250 21.4903 250 48V202C250 228.51 228.51 250 202 250H48C21.4903 250 0 228.51 0 202V48Z" fill="white"/>
<path d="M48 0V2H202V0V-2H48V0ZM250 48H248V202H250H252V48H250ZM202 250V248H48V250V252H202V250ZM0 202H2V48H0H-2V202H0ZM48 250V248C22.5949 248 2 227.405 2 202H0H-2C-2 229.614 20.3858 252 48 252V250ZM250 202H248C248 227.405 227.405 248 202 248V250V252C229.614 252 252 229.614 252 202H250ZM202 0V2C227.405 2 248 22.5949 248 48H250H252C252 20.3858 229.614 -2 202 -2V0ZM48 0V-2C20.3858 -2 -2 20.3858 -2 48H0H2C2 22.5949 22.5949 2 48 2V0Z" fill="#DDDBDB" mask="url(#path-1-inside-1_769_27)"/>
<path d="M148.938 190.623L91.2203 153.046C91.2203 153.046 83.9809 148.885 82.3233 141.141C79.9956 130.253 87.6655 120.921 87.6655 120.921L162.575 169.706C168.354 173.473 169.931 181.178 166.217 186.99C162.406 192.951 154.564 194.27 148.938 190.623Z" fill="#38D200"/>
<path d="M94.264 112.861C94.264 112.861 85.4219 107.519 85.4219 95.175C85.4219 82.8681 94.2594 77.5977 94.2594 77.5977L125.818 56.9447C128.595 55.1822 131.955 54.5862 135.169 55.2861C138.383 55.986 141.191 57.9253 142.983 60.683C144.776 63.4407 145.408 66.7941 144.743 70.0153C144.078 73.2364 142.169 76.0653 139.431 77.8877L112.837 95.2057L158.15 124.716C158.15 124.716 166.307 129.391 167.919 137.279C170.161 148.284 162.586 157.351 162.586 157.351L94.264 112.861Z" fill="#0473EA"/>
<path d="M153.662 82.8988C150.697 82.8988 148.59 83.8329 146.532 85.173L131.128 95.2057L146.532 105.238C148.609 106.575 150.789 107.511 153.662 107.511C156.902 107.475 159.997 106.163 162.275 103.859C164.554 101.555 165.831 98.445 165.831 95.205C165.831 91.9647 164.554 88.855 162.275 86.5512C159.997 84.2473 156.902 82.9348 153.662 82.8988Z" fill="#38D200"/>
<path d="M94.1109 192.618C97.0736 192.618 99.1815 191.684 101.239 190.344L116.644 180.311L101.239 170.279C99.1616 168.942 96.9835 168.006 94.1109 168.006C92.4833 167.988 90.8683 168.293 89.3594 168.903C87.8504 169.514 86.4775 170.417 85.3202 171.562C84.1628 172.706 83.244 174.069 82.617 175.571C81.9899 177.073 81.667 178.685 81.667 180.312C81.667 181.94 81.9899 183.551 82.617 185.054C83.244 186.556 84.1628 187.918 85.3202 189.063C86.4775 190.207 87.8504 191.111 89.3594 191.721C90.8683 192.332 92.4833 192.637 94.1109 192.618Z" fill="#0473EA"/>
</svg>
