<svg width="250" height="250" viewBox="0 0 250 250" fill="none" xmlns="http://www.w3.org/2000/svg">
<mask id="path-1-inside-1_769_26" fill="white">
<path d="M0 48C0 21.4903 21.4903 0 48 0H202C228.51 0 250 21.4903 250 48V202C250 228.51 228.51 250 202 250H48C21.4903 250 0 228.51 0 202V48Z"/>
</mask>
<path d="M0 48C0 21.4903 21.4903 0 48 0H202C228.51 0 250 21.4903 250 48V202C250 228.51 228.51 250 202 250H48C21.4903 250 0 228.51 0 202V48Z" fill="white"/>
<path d="M48 0V2H202V0V-2H48V0ZM250 48H248V202H250H252V48H250ZM202 250V248H48V250V252H202V250ZM0 202H2V48H0H-2V202H0ZM48 250V248C22.5949 248 2 227.405 2 202H0H-2C-2 229.614 20.3858 252 48 252V250ZM250 202H248C248 227.405 227.405 248 202 248V250V252C229.614 252 252 229.614 252 202H250ZM202 0V2C227.405 2 248 22.5949 248 48H250H252C252 20.3858 229.614 -2 202 -2V0ZM48 0V-2C20.3858 -2 -2 20.3858 -2 48H0H2C2 22.5949 22.5949 2 48 2V0Z" fill="#DDDBDB" mask="url(#path-1-inside-1_769_26)"/>
<path fill-rule="evenodd" clip-rule="evenodd" d="M187.501 66.1755C187.154 62.4296 184.935 59.2737 181.414 58.5339C163.202 54.5502 144.625 52.4787 125.984 52.3531C107.352 52.4802 88.7841 54.5517 70.5822 58.5339C67.0611 59.2737 64.851 62.4202 64.5139 66.1755C63.0998 81.7677 59.7754 122.102 61.4704 138.284C65.4691 176.585 93.3104 200.597 125.984 211.647C130.2 210.225 134.338 208.584 138.383 206.73L149.012 201.112C170.981 187.898 187.519 167.174 190.516 138.284C192.249 122.073 188.877 81.8052 187.501 66.1755Z" fill="url(#paint0_linear_769_26)"/>
<path fill-rule="evenodd" clip-rule="evenodd" d="M182.927 71.0719C182.618 67.5883 180.548 64.6665 177.308 63.9735C160.441 60.2887 143.235 58.3742 125.971 58.261C108.726 58.3859 91.5423 60.313 74.6988 64.0109C71.4399 64.7039 69.3984 67.6257 69.08 71.1094C67.7595 85.5217 64.6879 122.887 66.2706 137.833C70.0164 173.278 95.7226 195.51 125.989 205.746C129.902 204.437 133.741 202.918 137.489 201.195L85.9083 97.855L80.8514 93.978C80.4604 93.6809 80.1418 93.299 79.9196 92.8611C79.6974 92.4231 79.5773 91.9405 79.5684 91.4495V75.4078C79.5635 75.1967 79.6003 74.9867 79.6768 74.7899C79.7533 74.5931 79.8679 74.4134 80.0142 74.2611C80.1604 74.1088 80.3353 73.9869 80.5288 73.9024C80.7223 73.818 80.9306 73.7726 81.1417 73.769C81.4794 73.7749 81.8069 73.8862 82.0782 74.0874L94.552 83.7236C94.9439 84.0352 95.2586 84.4331 95.4714 84.8863C95.6842 85.3396 95.7894 85.8358 95.7788 86.3364V92.7044C101.904 89.2991 108.884 87.741 115.875 88.2187C127.244 88.8087 135.054 96.6001 148.652 97.3493C159.646 97.9205 167.175 94.0248 172.794 90.794C173.393 98.9881 173.965 108.063 174.246 116.229L174.433 124.329C168.243 129.508 158.101 134.059 152.323 134.059C142.78 134.059 136.281 127.841 127.244 127.841C122.986 127.839 118.831 129.147 115.342 131.587L147.303 195.988C167.653 183.739 182.974 164.55 185.699 137.805C187.328 122.849 184.219 85.4842 182.927 71.0719ZM119.912 190.434L116.934 189.049C95.7694 178.485 80.5049 160.964 77.939 136.503C77.246 129.789 77.5925 117.512 78.3417 105.01L119.912 190.434ZM148.643 86.7578C135.045 85.9993 127.572 78.8165 116.213 78.2172C112.158 77.9956 108.097 78.4934 104.216 79.6874L93.9152 72.8138L94.1961 72.7482C104.705 71.2051 115.311 70.4102 125.933 70.3696C141.22 70.4677 156.461 72.0642 171.436 75.1362L171.97 80.6614C166.445 83.7236 159.168 87.2729 148.643 86.711V86.7578ZM151.031 178.813L133.603 143.826C132.713 142.091 131.51 140.535 130.054 139.238C135.457 140.998 141.928 145.268 152.313 145.268C162.306 145.268 170.781 139.21 174.143 136.007C172.279 154.249 163.682 168.371 151.031 178.766V178.813Z" fill="white"/>
<defs>
<linearGradient id="paint0_linear_769_26" x1="79.5162" y1="44.2058" x2="182.959" y2="195.034" gradientUnits="userSpaceOnUse">
<stop offset="0.04" stop-color="#179ED9"/>
<stop offset="0.22" stop-color="#1B7AB6"/>
<stop offset="0.46" stop-color="#205491"/>
<stop offset="0.67" stop-color="#233977"/>
<stop offset="0.86" stop-color="#252867"/>
<stop offset="1" stop-color="#262261"/>
</linearGradient>
</defs>
</svg>
