<svg width="250" height="250" viewBox="0 0 250 250" fill="none" xmlns="http://www.w3.org/2000/svg">
<rect width="250" height="250" fill="white"/>
<path d="M116.95 93.7348C124.353 93.5291 131.873 93.813 139.287 93.6991C139.661 93.6934 140.264 93.7846 140.608 93.9301C141.104 94.6538 142.412 99.0759 142.783 100.207L148.994 119.664C149.313 120.674 150.047 121.76 150.38 122.765C151.046 124.768 151.648 127.097 152.278 129.064L156.782 143.008C157.753 146.011 158.821 148.991 159.704 152.027C160.451 154.599 162.115 157.398 162.215 160.067C161.568 160.155 159.838 160.079 159.109 160.069C157.361 160.052 155.613 160.045 153.864 160.048C151.612 160.039 149.36 160.044 147.109 160.061C145.804 160.073 144.069 160.162 142.825 160.048C142.322 159.67 139.99 150.727 139.595 149.402L131.538 122.447C130.576 119.219 129.751 115.795 128.789 112.691C128.324 113.987 127.988 115.098 127.714 116.455C127.372 118.148 126.832 119.876 126.347 121.535L117.911 150.046C116.994 153.127 116.141 157.074 115.081 159.988C113.947 160.135 95.6956 160.069 95.4369 159.959C95.1379 158.604 97.7255 152.42 98.2941 150.599C102.679 136.449 107.238 122.354 111.97 108.317C113.342 104.118 114.617 99.8442 115.973 95.6363C116.202 94.925 116.355 94.2338 116.95 93.7348Z" fill="#E51614"/>
<path d="M171.543 94.0385C172.438 93.9538 174.773 94.0258 175.796 94.0277L184.702 94.04C185.834 94.0398 187.929 94.0781 189 93.9359C188.872 95.5046 188.946 98.1725 188.946 99.806L188.95 153.904C188.95 156.333 189.001 158.824 188.691 161.231C188.215 164.665 187.223 168.006 185.747 171.142C183.757 175.303 179.6 178.388 175.352 179.935C174.219 180.347 173.078 180.544 171.866 180.972C169.393 181.562 158.076 181.799 156.222 180.137C156.062 179.867 156.044 179.583 156.039 179.274C156.017 178.088 156.113 176.882 156.119 175.691C156.126 174.273 155.974 167.517 156.193 166.715C156.232 166.571 156.272 166.516 156.407 166.467C157.562 166.051 163.053 168.622 166.776 166.42C168.76 165.247 169.832 163.357 170.352 161.161C170.918 158.767 170.677 156.015 170.676 153.558L170.665 97.9892C170.662 97.399 170.593 94.654 170.698 94.2348C170.992 94.0128 171.128 94.072 171.543 94.0385Z" fill="#E51614"/>
<path d="M49.0104 93.9764C53.3082 94.1545 58.1657 94.0401 62.5258 94.0406L87.1452 94.0384C91.1101 94.0373 95.3758 93.9473 99.3123 94.0327C99.1523 95.679 99.2052 98.8348 99.2156 100.595C99.2309 103.195 99.1359 106.444 99.2928 108.98C94.2561 109.035 89.206 108.919 84.1675 108.983C83.872 108.986 83.3435 108.95 83.1464 109.156C83.2689 109.686 83.2268 111.789 83.2267 112.435L83.2226 144.1L83.2337 154.1C83.2365 155.79 83.3145 158.464 83.1202 160.064C81.6982 160.198 79.8645 160.103 78.4156 160.053C73.9354 159.896 69.2951 160.237 64.8379 160.052C64.727 158.525 64.8446 155.574 64.8456 153.897L64.8492 119.296C64.8488 115.938 64.765 112.266 64.8414 108.938C63.6204 109.031 61.9294 108.977 60.6758 108.976L53.4796 108.972C52.1097 108.973 50.3669 108.931 49.0416 109.111C48.9773 104.104 49.0067 98.9891 49.0104 93.9764Z" fill="#E51614"/>
<path d="M127.075 85.4445C120.81 84.5831 116.284 79.0126 116.723 72.703C117.163 66.3935 122.418 61.5045 128.743 61.5205C135.068 61.5365 140.298 66.452 140.705 72.7637C141.113 79.0754 136.559 84.6231 130.289 85.4526C129.222 85.5938 128.141 85.591 127.075 85.4445Z" fill="#67696A"/>
</svg>
