<svg width="250" height="250" viewBox="0 0 250 250" fill="none" xmlns="http://www.w3.org/2000/svg">
<mask id="path-1-inside-1_769_31" fill="white">
<path d="M0 48C0 21.4903 21.4903 0 48 0H202C228.51 0 250 21.4903 250 48V202C250 228.51 228.51 250 202 250H48C21.4903 250 0 228.51 0 202V48Z"/>
</mask>
<path d="M0 48C0 21.4903 21.4903 0 48 0H202C228.51 0 250 21.4903 250 48V202C250 228.51 228.51 250 202 250H48C21.4903 250 0 228.51 0 202V48Z" fill="white"/>
<path d="M48 0V2H202V0V-2H48V0ZM250 48H248V202H250H252V48H250ZM202 250V248H48V250V252H202V250ZM0 202H2V48H0H-2V202H0ZM48 250V248C22.5949 248 2 227.405 2 202H0H-2C-2 229.614 20.3858 252 48 252V250ZM250 202H248C248 227.405 227.405 248 202 248V250V252C229.614 252 252 229.614 252 202H250ZM202 0V2C227.405 2 248 22.5949 248 48H250H252C252 20.3858 229.614 -2 202 -2V0ZM48 0V-2C20.3858 -2 -2 20.3858 -2 48H0H2C2 22.5949 22.5949 2 48 2V0Z" fill="#DDDBDB" mask="url(#path-1-inside-1_769_31)"/>
<path d="M116.95 93.7347C124.352 93.5289 131.873 93.8129 139.287 93.699C139.661 93.6933 140.263 93.7845 140.607 93.93C141.104 94.6537 142.412 99.0758 142.783 100.206L148.993 119.664C149.313 120.674 150.046 121.76 150.38 122.765C151.045 124.768 151.648 127.097 152.277 129.064L156.782 143.008C157.752 146.011 158.82 148.991 159.703 152.027C160.451 154.599 162.115 157.398 162.215 160.067C161.567 160.155 159.837 160.079 159.109 160.069C157.36 160.052 155.612 160.045 153.864 160.048C151.612 160.039 149.36 160.044 147.109 160.061C145.803 160.073 144.069 160.162 142.825 160.048C142.321 159.67 139.989 150.727 139.594 149.402L131.538 122.447C130.575 119.219 129.75 115.795 128.788 112.691C128.323 113.987 127.987 115.098 127.713 116.455C127.371 118.148 126.832 119.876 126.346 121.534L117.911 150.046C116.994 153.127 116.141 157.074 115.081 159.988C113.947 160.135 95.6951 160.069 95.4365 159.959C95.1374 158.604 97.725 152.42 98.2936 150.599C102.678 136.449 107.237 122.354 111.969 108.317C113.342 104.118 114.617 99.844 115.972 95.6362C116.201 94.9248 116.354 94.2337 116.95 93.7347Z" fill="#E51614"/>
<path d="M171.542 94.0384C172.437 93.9537 174.772 94.0257 175.795 94.0276L184.701 94.0399C185.834 94.0397 187.929 94.078 189 93.9358C188.871 95.5044 188.945 98.1723 188.945 99.8059L188.949 153.904C188.949 156.333 189.001 158.824 188.69 161.231C188.215 164.665 187.223 168.006 185.746 171.142C183.757 175.303 179.6 178.388 175.352 179.935C174.219 180.347 173.078 180.544 171.865 180.972C169.392 181.562 158.076 181.799 156.222 180.137C156.062 179.867 156.044 179.583 156.039 179.274C156.017 178.088 156.113 176.881 156.119 175.691C156.126 174.273 155.974 167.517 156.193 166.715C156.232 166.571 156.272 166.516 156.406 166.467C157.561 166.051 163.052 168.622 166.776 166.42C168.76 165.247 169.832 163.357 170.351 161.161C170.918 158.767 170.676 156.015 170.675 153.558L170.664 97.9891C170.661 97.3989 170.592 94.6539 170.697 94.2347C170.992 94.0127 171.128 94.0719 171.542 94.0384Z" fill="#E51614"/>
<path d="M49.0099 93.9763C53.3077 94.1544 58.1652 94.04 62.5253 94.0405L87.1447 94.0383C91.1096 94.0372 95.3753 93.9472 99.3118 94.0325C99.1518 95.6789 99.2047 98.8346 99.2151 100.595C99.2304 103.195 99.1354 106.444 99.2923 108.98C94.2557 109.035 89.2055 108.919 84.167 108.982C83.8716 108.986 83.3431 108.95 83.1459 109.156C83.2684 109.686 83.2264 111.789 83.2263 112.435L83.2221 144.1L83.2333 154.1C83.236 155.79 83.314 158.464 83.1198 160.064C81.6977 160.198 79.864 160.103 78.4152 160.053C73.9349 159.896 69.2946 160.237 64.8374 160.052C64.7266 158.525 64.8441 155.574 64.8451 153.897L64.8487 119.296C64.8483 115.938 64.7645 112.266 64.8409 108.938C63.6199 109.031 61.9289 108.977 60.6753 108.975L53.4792 108.972C52.1092 108.973 50.3664 108.931 49.0411 109.111C48.9768 104.104 49.0062 98.989 49.0099 93.9763Z" fill="#E51614"/>
<path d="M127.075 85.4444C120.809 84.583 116.283 79.0125 116.723 72.7029C117.162 66.3934 122.417 61.5043 128.742 61.5204C135.067 61.5364 140.297 66.4519 140.705 72.7636C141.112 79.0753 136.558 84.6229 130.288 85.4525C129.221 85.5936 128.141 85.5908 127.075 85.4444Z" fill="#67696A"/>
</svg>
