<svg width="250" height="250" viewBox="0 0 250 250" fill="none" xmlns="http://www.w3.org/2000/svg">
<mask id="path-1-inside-1_769_32" fill="white">
<path d="M0 48C0 21.4903 21.4903 0 48 0H202C228.51 0 250 21.4903 250 48V202C250 228.51 228.51 250 202 250H48C21.4903 250 0 228.51 0 202V48Z"/>
</mask>
<path d="M0 48C0 21.4903 21.4903 0 48 0H202C228.51 0 250 21.4903 250 48V202C250 228.51 228.51 250 202 250H48C21.4903 250 0 228.51 0 202V48Z" fill="white"/>
<path d="M48 0V2H202V0V-2H48V0ZM250 48H248V202H250H252V48H250ZM202 250V248H48V250V252H202V250ZM0 202H2V48H0H-2V202H0ZM48 250V248C22.5949 248 2 227.405 2 202H0H-2C-2 229.614 20.3858 252 48 252V250ZM250 202H248C248 227.405 227.405 248 202 248V250V252C229.614 252 252 229.614 252 202H250ZM202 0V2C227.405 2 248 22.5949 248 48H250H252C252 20.3858 229.614 -2 202 -2V0ZM48 0V-2C20.3858 -2 -2 20.3858 -2 48H0H2C2 22.5949 22.5949 2 48 2V0Z" fill="#DDDBDB" mask="url(#path-1-inside-1_769_32)"/>
<path fill-rule="evenodd" clip-rule="evenodd" d="M52.3304 119.711C48.0972 98.4723 49.7769 78.736 58.1221 58.8929C76.701 50.2676 99.4603 48.6404 119.405 52.525C124.449 75.6521 120.37 97.9522 113.269 113.582C94.9329 122.674 72.2225 123.832 52.3304 119.717V119.711Z" fill="#FFCC33"/>
<path fill-rule="evenodd" clip-rule="evenodd" d="M52.2406 130.444C48.0074 151.682 49.687 171.42 58.0323 191.263C76.6214 199.898 99.3753 201.525 119.334 197.638C124.378 174.513 120.299 152.213 113.199 136.583C94.8567 127.49 72.1713 126.331 52.2594 130.448L52.2406 130.444Z" fill="#FFCC33"/>
<path fill-rule="evenodd" clip-rule="evenodd" d="M197.759 130.49C201.992 151.729 200.313 171.471 191.967 191.309C173.38 199.944 150.626 201.572 130.665 197.685C125.622 174.56 129.7 152.265 136.801 136.636C155.143 127.536 177.83 126.378 197.742 130.496L197.759 130.49Z" fill="#FFCC33"/>
<path fill-rule="evenodd" clip-rule="evenodd" d="M197.544 119.504C201.778 98.2668 200.098 78.529 191.752 58.6858C173.174 50.055 150.396 48.4298 130.47 52.3144C125.426 75.4395 129.505 97.7365 136.605 113.369C154.948 122.464 177.633 123.621 197.544 119.504Z" fill="#002244"/>
</svg>
