<svg width="250" height="250" viewBox="0 0 250 250" fill="none" xmlns="http://www.w3.org/2000/svg">
<path d="M0 48C0 21.4903 21.4903 0 48 0H202C228.51 0 250 21.4903 250 48V202C250 228.51 228.51 250 202 250H48C21.4903 250 0 228.51 0 202V48Z" fill="#D42E12"/>
<path d="M132.823 171.066C131.817 158.871 114.618 129.023 108.465 116.8L89.1327 78.3845C89.0608 78.2518 81.5811 113.329 75.4999 140.379C69.3359 167.777 62.9894 195.545 63.2603 194.932C81.1885 195.109 97.4085 194.876 105.8 194.965C126.885 195.191 133.53 179.635 132.823 171.072M117.172 78.9262C118.178 91.1216 135.377 120.969 141.524 133.192L160.868 171.608C160.934 171.741 168.414 136.658 174.495 109.625C180.67 82.2266 187.016 54.4636 186.74 55.0662C168.817 54.8948 152.586 55.1215 144.205 55.033C123.115 54.8119 116.47 70.3629 117.172 78.9262Z" fill="white"/>
</svg>
