<svg width="250" height="250" viewBox="0 0 250 250" fill="none" xmlns="http://www.w3.org/2000/svg">
<rect width="250" height="250" fill="#2D465A"/>
<path d="M158.563 74.5195C160.217 74.4452 161.871 74.4172 163.526 74.4357C171.874 74.5281 179.652 76.875 185.377 83.1817C191.383 89.7983 193.667 98.771 194.772 107.437C194.948 109.504 194.825 111.619 194.924 113.688C195.141 121.562 194.887 129.636 194.216 137.492C193.581 144.918 193.249 152.021 193.575 159.496C193.706 162.528 194.658 166.268 194.625 169.055C193.543 169.839 190.531 168.74 189.45 168.076C179.149 161.625 178.822 150.235 178.502 139.541C178.156 128.026 179.366 113.165 176.19 102.239C173.309 93.3789 166.909 87.8328 157.374 88.7569C154.244 89.0603 151.964 90.1503 149.13 91.2977C134.555 97.1981 126.664 110.977 116.978 122.466C117.313 108.501 116.466 94.3765 117.028 80.4013C117.161 77.1033 119.331 76.8231 122.143 76.5994C125.354 76.3439 129.25 76.2467 131.813 78.4133C132.539 81.2752 132.302 87.1764 132.211 90.2905C133.126 89.3307 134.273 87.8058 135.203 86.6942C140.081 80.8618 150.92 74.9796 158.563 74.5195Z" fill="#A6CE39"/>
<path d="M54.9998 124.352C55.5278 122.234 55.5885 118.109 55.7226 115.83C56.3917 104.454 57.0149 93.0523 55.3855 81.7348C55.4918 79.9719 57.292 80.4218 58.1826 80.7976C62.5878 82.6567 66.7053 87.0332 68.3976 91.5182C72.2295 101.674 71.2318 113.804 71.4919 124.557C71.7878 136.785 70.3149 153.857 83.7043 159.941C88.4582 162.068 94.3487 161.456 98.9309 159.411C102.469 157.832 107.861 155.205 110.801 152.769C118.605 146.303 126.65 135.897 132.514 127.655C132.322 131.568 132.473 136.13 132.505 140.122L132.575 159.577C132.575 161.103 132.857 171.479 131.948 172.084C129.97 173.399 120.631 173.605 118.623 172.158C117.289 170.1 117.704 162.597 117.711 159.708C109.851 168.214 100.179 174.98 88.3569 175.527C70.1843 176.365 58.6944 164.993 55.9572 147.603C55.666 145.751 55.4803 142.679 54.9998 140.957V124.352Z" fill="white"/>
</svg>
