<svg width="250" height="250" viewBox="0 0 250 250" fill="none" xmlns="http://www.w3.org/2000/svg">
<mask id="path-1-inside-1_769_38" fill="white">
<path d="M0 48C0 21.4903 21.4903 0 48 0H202C228.51 0 250 21.4903 250 48V202C250 228.51 228.51 250 202 250H48C21.4903 250 0 228.51 0 202V48Z"/>
</mask>
<path d="M0 48C0 21.4903 21.4903 0 48 0H202C228.51 0 250 21.4903 250 48V202C250 228.51 228.51 250 202 250H48C21.4903 250 0 228.51 0 202V48Z" fill="white"/>
<path d="M48 0V2H202V0V-2H48V0ZM250 48H248V202H250H252V48H250ZM202 250V248H48V250V252H202V250ZM0 202H2V48H0H-2V202H0ZM48 250V248C22.5949 248 2 227.405 2 202H0H-2C-2 229.614 20.3858 252 48 252V250ZM250 202H248C248 227.405 227.405 248 202 248V250V252C229.614 252 252 229.614 252 202H250ZM202 0V2C227.405 2 248 22.5949 248 48H250H252C252 20.3858 229.614 -2 202 -2V0ZM48 0V-2C20.3858 -2 -2 20.3858 -2 48H0H2C2 22.5949 22.5949 2 48 2V0Z" fill="#DDDBDB" mask="url(#path-1-inside-1_769_38)"/>
<path fill-rule="evenodd" clip-rule="evenodd" d="M65.1083 107.184L65.361 106.173L65.6137 104.91L76.7329 64.9819L195 65.2346L64.3502 171.625L123.989 99.6029H79.2599L76.7329 99.8556C71.426 100.108 66.6245 103.393 65.1083 107.184Z" fill="#808285"/>
<path fill-rule="evenodd" clip-rule="evenodd" d="M188.682 138.014C188.682 137.509 184.892 160.505 178.574 184.26L55 185.018L188.43 77.1119L128.538 149.639H173.52L176.047 149.386C181.354 149.134 186.913 141.805 188.682 138.014Z" fill="#ED1C24"/>
</svg>
