<svg width="250" height="250" viewBox="0 0 250 250" fill="none" xmlns="http://www.w3.org/2000/svg">
<mask id="path-1-inside-1_350_3" fill="white">
<path d="M0 125C0 55.9644 55.9644 0 125 0C194.036 0 250 55.9644 250 125C250 194.036 194.036 250 125 250C55.9644 250 0 194.036 0 125Z"/>
</mask>
<path d="M0 125C0 55.9644 55.9644 0 125 0C194.036 0 250 55.9644 250 125C250 194.036 194.036 250 125 250C55.9644 250 0 194.036 0 125Z" fill="white"/>
<path d="M0 125M250 125M250 125M0 125M125 0M250 125M125 250M0 125M125 250V248C57.069 248 2 192.931 2 125H0H-2C-2 195.14 54.8598 252 125 252V250ZM250 125H248C248 192.931 192.931 248 125 248V250V252C195.14 252 252 195.14 252 125H250ZM125 0V2C192.931 2 248 57.069 248 125H250H252C252 54.8598 195.14 -2 125 -2V0ZM125 0V-2C54.8598 -2 -2 54.8598 -2 125H0H2C2 57.069 57.069 2 125 2V0Z" fill="#DDDBDB" mask="url(#path-1-inside-1_350_3)"/>
<path d="M79.4427 126.622L108.699 138.83L118.616 134.407L99.3696 126.387L187.11 87.305V162.996L141.133 143.815L131.229 148.224L195 174.837V75.1631L79.4427 126.622Z" fill="#49AA5E"/>
<path d="M133.438 116.443L150.644 123.626L62.8896 162.695V87.0041L106.825 105.335L116.73 100.925L55 75.1631V174.837L170.557 123.39L143.343 112.034L133.438 116.443Z" fill="#264B91"/>
</svg>
