<svg width="250" height="250" viewBox="0 0 250 250" fill="none" xmlns="http://www.w3.org/2000/svg">
<path d="M0 125C0 55.9644 55.9644 0 125 0C194.036 0 250 55.9644 250 125C250 194.036 194.036 250 125 250C55.9644 250 0 194.036 0 125Z" fill="white"/>
<path d="M79.4427 126.622L108.699 138.83L118.616 134.407L99.3696 126.387L187.11 87.3051V162.996L141.133 143.815L131.229 148.224L195 174.837V75.1632L79.4427 126.622Z" fill="#49AA5E"/>
<path d="M133.438 116.443L150.644 123.626L62.8896 162.695V87.0042L106.825 105.335L116.73 100.926L55 75.1632V174.837L170.557 123.39L143.343 112.034L133.438 116.443Z" fill="#264B91"/>
</svg>
