<svg width="250" height="250" viewBox="0 0 250 250" fill="none" xmlns="http://www.w3.org/2000/svg">
<mask id="path-1-inside-1_453_589" fill="white">
<path d="M0 125C0 55.9644 55.9644 0 125 0C194.036 0 250 55.9644 250 125C250 194.036 194.036 250 125 250C55.9644 250 0 194.036 0 125Z"/>
</mask>
<path d="M0 125C0 55.9644 55.9644 0 125 0C194.036 0 250 55.9644 250 125C250 194.036 194.036 250 125 250C55.9644 250 0 194.036 0 125Z" fill="white"/>
<path d="M0 125M250 125M250 125M0 125M125 0M250 125M125 250M0 125M125 250V248C57.069 248 2 192.931 2 125H0H-2C-2 195.14 54.8598 252 125 252V250ZM250 125H248C248 192.931 192.931 248 125 248V250V252C195.14 252 252 195.14 252 125H250ZM125 0V2C192.931 2 248 57.069 248 125H250H252C252 54.8598 195.14 -2 125 -2V0ZM125 0V-2C54.8598 -2 -2 54.8598 -2 125H0H2C2 57.069 57.069 2 125 2V0Z" fill="#DDDBDB" mask="url(#path-1-inside-1_453_589)"/>
<path d="M124.771 135.77C125.412 135.765 126.053 135.755 126.694 135.75C126.902 135.75 127.106 135.745 127.315 135.745C128.949 135.76 130.588 135.77 132.223 135.784C132.223 142.396 132.223 149.002 132.223 155.752C134.652 155.752 136.828 155.752 139.183 155.752C139.183 147.232 139.183 138.881 139.183 130.525C141.498 130.51 143.813 130.5 146.128 130.485C146.128 136.677 146.128 142.869 146.128 149.221C148.731 149.221 150.992 149.221 153.58 149.221C153.58 127.383 153.58 105.68 153.58 83.9775C172.066 93.8343 183.378 120.254 178.718 142.695C173.616 167.274 153.769 185.767 130.335 187.781C104.452 190.005 81.5102 175.232 72.8412 150.767C64.341 126.76 73.0299 99.4632 93.7214 85.1691C94.3026 84.7702 94.9435 84.4561 95.8576 83.9326C95.8576 104.748 95.8576 125.22 95.8576 145.995C98.3366 145.995 100.617 145.995 102.902 145.995C102.902 153.648 102.902 161.302 102.902 168.945C105.679 168.945 107.925 168.945 110.364 168.945C110.364 159.427 110.364 150.163 110.364 140.9C112.684 140.9 114.999 140.9 117.319 140.9C117.319 147.995 117.319 155.089 117.319 162.244C120.056 162.244 122.317 162.244 124.771 162.244C124.771 153.299 124.771 144.534 124.771 135.77Z" fill="#33387B"/>
<path d="M153.579 83.9772C153.579 105.68 153.579 127.383 153.579 149.221C150.991 149.221 148.73 149.221 146.127 149.221C146.127 142.869 146.127 136.677 146.127 130.484C146.127 104.538 146.127 78.5926 146.127 52.5819C148.526 51.1061 150.812 49.7051 153.579 48C153.579 60.3397 153.579 72.161 153.579 83.9772Z" fill="#AEA8C8"/>
<path d="M124.77 135.769C124.77 144.534 124.77 153.299 124.77 162.248C122.311 162.248 120.056 162.248 117.318 162.248C117.318 155.094 117.318 147.999 117.318 140.904C117.318 117.501 117.318 94.098 117.318 70.4456C119.614 69.0296 121.909 67.6137 124.77 65.8438C124.77 89.4663 124.77 112.62 124.77 135.769Z" fill="#AEA8C8"/>
<path d="M110.358 140.9C110.358 150.163 110.358 159.427 110.358 168.945C107.919 168.945 105.679 168.945 102.896 168.945C102.896 161.297 102.896 153.643 102.896 145.995C102.896 123.759 102.896 101.522 102.896 79.2959C105.321 77.8351 107.561 76.4889 110.358 74.8037C110.358 97.1947 110.358 119.047 110.358 140.9Z" fill="#AEA8C8"/>
<path d="M139.183 130.519C139.183 138.87 139.183 147.226 139.183 155.747C136.823 155.747 134.652 155.747 132.223 155.747C132.223 149.001 132.223 142.39 132.223 135.779C132.223 111.03 132.223 86.2805 132.223 61.2371C134.279 59.9657 136.411 58.6545 139.183 56.9443C139.183 81.9728 139.183 106.248 139.183 130.519Z" fill="#AEA8C8"/>
<path d="M127.314 135.744C127.106 135.744 126.902 135.749 126.693 135.749C126.902 135.744 127.106 135.744 127.314 135.744Z" fill="#AEA8C8"/>
</svg>
