<svg width="250" height="250" viewBox="0 0 250 250" fill="none" xmlns="http://www.w3.org/2000/svg">
<path d="M0 125C0 55.9644 55.9644 0 125 0C194.036 0 250 55.9644 250 125C250 194.036 194.036 250 125 250C55.9644 250 0 194.036 0 125Z" fill="white"/>
<path d="M124.771 135.769C125.412 135.764 126.053 135.754 126.694 135.749C126.902 135.749 127.106 135.744 127.315 135.744C128.949 135.759 130.588 135.769 132.223 135.784C132.223 142.395 132.223 149.001 132.223 155.752C134.652 155.752 136.828 155.752 139.183 155.752C139.183 147.232 139.183 138.88 139.183 130.524C141.498 130.509 143.813 130.499 146.128 130.484C146.128 136.677 146.128 142.869 146.128 149.221C148.731 149.221 150.992 149.221 153.58 149.221C153.58 127.383 153.58 105.68 153.58 83.9772C172.066 93.8341 183.378 120.254 178.718 142.694C173.616 167.274 153.769 185.766 130.335 187.781C104.452 190.004 81.5102 175.232 72.8412 150.766C64.341 126.76 73.0299 99.463 93.7214 85.1688C94.3026 84.77 94.9435 84.4559 95.8576 83.9324C95.8576 104.748 95.8576 125.219 95.8576 145.995C98.3366 145.995 100.617 145.995 102.902 145.995C102.902 153.648 102.902 161.301 102.902 168.944C105.679 168.944 107.925 168.944 110.364 168.944C110.364 159.427 110.364 150.163 110.364 140.9C112.684 140.9 114.999 140.9 117.319 140.9C117.319 147.994 117.319 155.089 117.319 162.244C120.056 162.244 122.317 162.244 124.771 162.244C124.771 153.299 124.771 144.534 124.771 135.769Z" fill="#33387B"/>
<path d="M153.579 83.9772C153.579 105.68 153.579 127.383 153.579 149.221C150.991 149.221 148.73 149.221 146.127 149.221C146.127 142.869 146.127 136.677 146.127 130.484C146.127 104.538 146.127 78.5926 146.127 52.5819C148.526 51.1061 150.812 49.7051 153.579 48C153.579 60.3397 153.579 72.161 153.579 83.9772Z" fill="#AEA8C8"/>
<path d="M124.772 135.769C124.772 144.534 124.772 153.299 124.772 162.249C122.313 162.249 120.058 162.249 117.32 162.249C117.32 155.094 117.32 147.999 117.32 140.905C117.32 117.501 117.32 94.0983 117.32 70.4458C119.615 69.0299 121.911 67.6139 124.772 65.844C124.772 89.4665 124.772 112.62 124.772 135.769Z" fill="#AEA8C8"/>
<path d="M110.36 140.9C110.36 150.163 110.36 159.427 110.36 168.945C107.921 168.945 105.68 168.945 102.898 168.945C102.898 161.296 102.898 153.643 102.898 145.995C102.898 123.759 102.898 101.522 102.898 79.2958C105.323 77.8349 107.563 76.4888 110.36 74.8036C110.36 97.1946 110.36 119.047 110.36 140.9Z" fill="#AEA8C8"/>
<path d="M139.183 130.519C139.183 138.871 139.183 147.227 139.183 155.747C136.823 155.747 134.652 155.747 132.223 155.747C132.223 149.002 132.223 142.39 132.223 135.779C132.223 111.03 132.223 86.2808 132.223 61.2373C134.279 59.9659 136.411 58.6547 139.183 56.9446C139.183 81.9731 139.183 106.249 139.183 130.519Z" fill="#AEA8C8"/>
<path d="M127.314 135.744C127.106 135.744 126.902 135.749 126.693 135.749C126.902 135.744 127.106 135.744 127.314 135.744Z" fill="#AEA8C8"/>
</svg>
