<svg width="250" height="250" viewBox="0 0 250 250" fill="none" xmlns="http://www.w3.org/2000/svg">
<mask id="path-1-inside-1_453_587" fill="white">
<path d="M0 125C0 55.9644 55.9644 0 125 0C194.036 0 250 55.9644 250 125C250 194.036 194.036 250 125 250C55.9644 250 0 194.036 0 125Z"/>
</mask>
<path d="M0 125C0 55.9644 55.9644 0 125 0C194.036 0 250 55.9644 250 125C250 194.036 194.036 250 125 250C55.9644 250 0 194.036 0 125Z" fill="white"/>
<path d="M0 125M250 125M250 125M0 125M125 0M250 125M125 250M0 125M125 250V248C57.069 248 2 192.931 2 125H0H-2C-2 195.14 54.8598 252 125 252V250ZM250 125H248C248 192.931 192.931 248 125 248V250V252C195.14 252 252 195.14 252 125H250ZM125 0V2C192.931 2 248 57.069 248 125H250H252C252 54.8598 195.14 -2 125 -2V0ZM125 0V-2C54.8598 -2 -2 54.8598 -2 125H0H2C2 57.069 57.069 2 125 2V0Z" fill="#DDDBDB" mask="url(#path-1-inside-1_453_587)"/>
<path d="M114.119 92.3924C116.194 92.1762 120.023 92.9541 121.992 93.5656C127.852 95.3851 131.958 99.6712 136.347 103.679L183.834 147.171C187.366 150.415 191.252 153.76 194.686 156.989C186.855 157.396 179.343 157.843 171.616 156.477C170.329 156.234 169.001 156.041 167.69 155.756C157.402 153.518 147.229 148.793 139.586 141.448C137.772 139.705 135.982 138.145 134.195 136.52C128.192 131.09 122.222 125.625 116.283 120.126C113.13 117.235 109.821 114.108 106.571 111.353C102.45 107.858 95.2893 105.32 89.8197 105.95C90.3609 105.418 90.733 104.878 91.2345 104.308C95.3289 99.6619 101.125 95.6411 107.007 93.6509C108.873 93.0196 112.185 92.5342 114.119 92.3924Z" fill="#292C64"/>
<path d="M86.3764 110.077C95.9543 108.998 100.429 114.484 106.819 120.363L120.677 133.066C126.936 138.743 133.165 144.452 139.363 150.195C141.457 152.135 144.808 154.881 146.666 156.868C140.922 156.958 137.637 157.453 131.833 156.775C116.681 154.425 111.894 150.387 101.083 140.422L88.3638 128.753C82.4021 123.297 79.3441 119.712 70.715 119.732C73.8396 115.251 80.8674 110.606 86.3764 110.077Z" fill="#292C64"/>
<path d="M69.4882 124.926C75.2932 124.398 80.3564 130.269 84.2459 133.826L101.411 149.538C103.6 151.538 108.229 155.99 110.362 157.484C106.278 157.504 103.71 157.937 99.4086 157.292C94.4724 156.422 90.3398 155.127 86.1164 152.355C83.5774 150.689 81.3224 148.433 79.0801 146.373L70.3515 138.363C65.8099 134.165 64.0013 131.665 57.515 131.6C58.4542 130.794 59.3413 129.841 60.2856 129.027C62.8693 126.763 66.0772 125.333 69.4882 124.926Z" fill="#6994AC"/>
<path d="M57.5653 137.323C63.7134 136.595 69.4399 146.933 62.9602 149.128C58.4959 149.704 53.4885 143.987 54.9417 139.606C55.3257 138.448 56.5156 137.782 57.5653 137.323Z" fill="#6994AC"/>
</svg>
