<svg width="250" height="250" viewBox="0 0 250 250" fill="none" xmlns="http://www.w3.org/2000/svg">
<mask id="path-1-inside-1_453_585" fill="white">
<path d="M0 125C0 55.9644 55.9644 0 125 0C194.036 0 250 55.9644 250 125C250 194.036 194.036 250 125 250C55.9644 250 0 194.036 0 125Z"/>
</mask>
<path d="M0 125C0 55.9644 55.9644 0 125 0C194.036 0 250 55.9644 250 125C250 194.036 194.036 250 125 250C55.9644 250 0 194.036 0 125Z" fill="white"/>
<path d="M0 125M250 125M250 125M0 125M125 0M250 125M125 250M0 125M125 250V248C57.069 248 2 192.931 2 125H0H-2C-2 195.14 54.8598 252 125 252V250ZM250 125H248C248 192.931 192.931 248 125 248V250V252C195.14 252 252 195.14 252 125H250ZM125 0V2C192.931 2 248 57.069 248 125H250H252C252 54.8598 195.14 -2 125 -2V0ZM125 0V-2C54.8598 -2 -2 54.8598 -2 125H0H2C2 57.069 57.069 2 125 2V0Z" fill="#DDDBDB" mask="url(#path-1-inside-1_453_585)"/>
<path fill-rule="evenodd" clip-rule="evenodd" d="M193.629 79.3945C194.398 79.3983 195.153 79.6038 195.818 79.9912C196.483 80.3787 197.035 80.9348 197.418 81.6025C197.8 82.2701 198.001 83.0265 197.999 83.7959C197.997 84.5655 197.793 85.3214 197.407 85.9873L196.294 87.9268L191.38 96.4922L189.632 99.54L139.56 186.846L131.778 200.404C131.399 201.073 130.849 201.629 130.186 202.016C129.522 202.402 128.767 202.606 127.999 202.606C127.231 202.606 126.476 202.402 125.813 202.016C125.149 201.629 124.6 201.073 124.221 200.404L116.444 186.846L96.3086 151.744L86.2998 134.295L66.3721 99.5459L58.5908 85.9873C58.2049 85.321 58.0016 84.5649 58 83.7949C57.9985 83.0249 58.1987 82.2675 58.582 81.5996C58.9654 80.9317 59.5179 80.3764 60.1836 79.9893C60.8492 79.6022 61.605 79.3974 62.375 79.3945H193.629ZM152.159 124.602C153.406 122.416 150.987 119.986 148.823 121.244L117.437 139.482C116.432 140.069 115.7 141.029 115.4 142.153C115.101 143.277 115.258 144.475 115.838 145.483L124.237 160.118L124.227 160.129C124.606 160.797 125.156 161.353 125.82 161.739C126.484 162.126 127.239 162.33 128.008 162.33C128.776 162.33 129.531 162.126 130.195 161.739C130.86 161.353 131.409 160.797 131.789 160.129L152.159 124.602ZM97.0557 99.5469C96.2862 99.5507 95.531 99.7561 94.8662 100.144C94.2013 100.531 93.6503 101.087 93.2676 101.755C92.885 102.423 92.6838 103.179 92.6856 103.948C92.6873 104.718 92.8916 105.474 93.2774 106.14L101.469 120.423C101.752 120.922 102.132 121.36 102.586 121.711C103.04 122.062 103.558 122.321 104.112 122.471C104.666 122.62 105.245 122.658 105.814 122.583C106.383 122.508 106.932 122.32 107.428 122.032L138.212 104.141C140.37 102.877 139.491 99.5472 136.986 99.5469H97.0557Z" fill="black"/>
</svg>
