<svg width="250" height="250" viewBox="0 0 250 250" fill="none" xmlns="http://www.w3.org/2000/svg">
<path d="M0 125C0 55.9644 55.9644 0 125 0C194.036 0 250 55.9644 250 125C250 194.036 194.036 250 125 250C55.9644 250 0 194.036 0 125Z" fill="white"/>
<path d="M128.557 99.1879C139.043 97.1849 149.73 101.505 155.878 110.232C158.133 113.433 159.67 117.083 160.384 120.933C160.915 123.801 160.982 126.735 160.581 129.624C158.674 143.361 146.731 153.46 132.868 153.057C119.005 152.654 107.669 141.88 106.562 128.055C105.456 114.231 114.935 101.79 128.557 99.1879Z" fill="#311B25"/>
<path d="M128.557 99.1879C139.043 97.1849 149.73 101.505 155.878 110.232C158.133 113.433 159.67 117.083 160.384 120.933C160.915 123.801 160.982 126.735 160.581 129.624C158.674 143.361 146.731 153.46 132.868 153.057C119.005 152.654 107.669 141.88 106.562 128.055C105.456 114.231 114.935 101.79 128.557 99.1879Z" fill="url(#paint0_radial_1_2023)"/>
<path d="M137.773 100.487C138.319 100.475 138.331 100.388 138.731 100.626C138.803 100.907 138.814 100.947 138.765 101.232C138.28 101.207 138.077 101.284 137.752 101.044C137.705 100.766 137.704 100.756 137.773 100.487Z" fill="black"/>
<path d="M130.102 69.6677C134.493 69.1768 142.183 69.9385 146.489 70.9836C152.785 72.5993 158.961 75.1991 164.368 78.8261C165.776 79.7703 171.171 84.7046 173.447 87.2891C172.795 87.8821 169.444 90.5959 168.189 91.6574C166.809 90.461 165.384 88.9503 163.97 87.7722C158.322 83.0667 150.001 79.0737 142.77 77.776C131.067 75.5908 118.969 77.8203 108.815 84.0338C106.513 85.4301 105.012 86.8973 102.952 88.3331C102.069 89.2345 101.057 90.0896 100.172 90.9758C94.1145 97.0377 90.1431 104.136 87.7869 112.347C87.4645 113.471 87.0346 115.134 86.0881 121.744C84.7541 121.744 80.9861 121.882 79.1758 121.882C80.9211 105.234 84.0622 98.1828 91.7623 89.1805C92.7138 88.0651 93.7984 87.1193 94.7938 86.0525C102.521 77.7714 113.246 72.2385 124.374 70.351C126.291 70.0258 128.165 69.8216 130.102 69.6677Z" fill="#987429"/>
<path d="M133.041 82.5202C137.832 82.2747 142.615 83.3033 147.141 84.7333C151.896 86.2354 156.647 88.8471 160.427 92.0939C161.059 92.6362 162.014 93.6704 163.829 95.516C162.856 96.3186 159.872 98.6848 158.255 99.9211C152.138 94.7204 145.159 90.6531 136.991 90.2232C124.761 89.5794 114.312 94.1006 106.553 103.475C102.014 108.958 100.149 115.068 99.1549 122.016C96.7451 122.014 94.3353 121.996 91.9258 121.964C92.761 111.559 96.2611 103.33 103.347 95.6399C106.954 91.7243 111.548 88.3476 116.409 86.1953C121.739 83.8361 127.21 82.7533 133.041 82.5202Z" fill="#987429"/>
<path d="M183.721 131.213L184.133 131.809L183.998 132.196L183.861 132.258C183.7 131.953 183.728 131.565 183.721 131.213Z" fill="black"/>
<path d="M65.8672 129.496L88.6382 129.498L95.3925 129.495C96.3564 129.495 98.0462 129.44 98.959 129.526C99.4269 130.254 99.5898 130.761 99.6942 131.616C100.188 135.659 101.97 140.851 104.023 144.405C108.056 151.265 114.327 156.528 121.783 159.308C123.952 160.137 125.942 160.833 128.286 161.04C134.892 161.624 141.536 161.389 147.632 158.478C148.723 157.957 149.806 157.548 150.81 156.877C152.66 155.627 154.483 154.26 156.284 152.936C156.941 152.453 158.135 151.39 158.76 151.052C159.575 151.49 160.257 152.131 160.969 152.714C163.626 154.889 166.191 157.17 168.805 159.394L179.182 168.208C180.053 168.954 183.576 171.579 183.836 172.376C183.844 173.263 183.006 174.09 182.402 174.706C172.541 184.566 159.952 191.246 146.258 193.884C144.788 194.166 139.254 194.409 138.395 195H128.11C127.159 194.334 122.502 194.229 121.2 193.908C119.312 193.442 117.096 193.095 115.24 192.595C113.542 191.986 111.761 191.49 110.068 190.879C106.155 189.468 102.332 187.466 98.804 185.346C87.1617 178.406 77.8704 168.132 72.1334 155.852C70.7127 152.808 69.5653 149.416 68.4361 146.233C67.872 144.108 67.4263 141.849 66.9279 139.714C66.5872 138.254 66.5019 134.679 65.8672 133.545V129.496Z" fill="#987429"/>
<path d="M111.686 60.113C121.531 56.988 131.443 56.5102 141.715 57.1496C146.58 57.5576 151.415 58.5949 156.003 60.2561C160.428 61.8592 165.709 64.2092 169.652 66.7518C171.726 68.0885 173.738 69.5203 175.68 71.0425C176.645 71.7979 182.247 77.0566 183.388 78.2579C181.651 79.9439 180.002 81.4333 178.333 82.9751C175.623 80.658 172.98 78.2234 170.13 76.0807C159.318 67.9669 146.086 63.7365 132.572 64.0733C126.932 64.24 121.024 64.8765 115.619 66.656C114.804 66.9243 113.964 67.2604 113.158 67.5629C104.321 70.8142 96.3525 76.0568 89.8688 82.8842C81.1271 92.1673 75.8731 103.342 73.7998 115.877C73.4245 118.146 73.494 119.921 73.2289 121.989C70.9331 121.993 68.1236 122.067 65.8672 121.965C65.8672 94.6893 86.4511 69.0743 111.686 60.113Z" fill="#987429"/>
<defs>
<radialGradient id="paint0_radial_1_2023" cx="0" cy="0" r="1" gradientUnits="userSpaceOnUse" gradientTransform="translate(156.363 105.247) rotate(135) scale(38.6453 38.6452)">
<stop offset="0.517907" stop-color="#CD8926"/>
<stop offset="1" stop-color="#CB8727" stop-opacity="0"/>
</radialGradient>
</defs>
</svg>
