<svg width="250" height="250" viewBox="0 0 250 250" fill="none" xmlns="http://www.w3.org/2000/svg">
<path d="M0 125C0 55.9644 55.9644 0 125 0C194.036 0 250 55.9644 250 125C250 194.036 194.036 250 125 250C55.9644 250 0 194.036 0 125Z" fill="white"/>
<path d="M100.832 92.702L87.9788 68.5103L58 119.137L90.4582 175.429H168.389L156.159 151.909H103.786L85.4403 119.137L100.832 92.702Z" fill="#EB7B27"/>
<path d="M101.228 92.1666L88.5871 68.5369H136.221L198 175.489H169.986L146.425 133.316H112.592L105.772 121.084L111.804 110.178H132.955L122.627 92.1666H101.228Z" fill="#6D6F6E"/>
</svg>
