<svg width="250" height="250" viewBox="0 0 250 250" fill="none" xmlns="http://www.w3.org/2000/svg">
<mask id="path-1-inside-1_453_576" fill="white">
<path d="M0 125C0 55.9644 55.9644 0 125 0C194.036 0 250 55.9644 250 125C250 194.036 194.036 250 125 250C55.9644 250 0 194.036 0 125Z"/>
</mask>
<path d="M0 125C0 55.9644 55.9644 0 125 0C194.036 0 250 55.9644 250 125C250 194.036 194.036 250 125 250C55.9644 250 0 194.036 0 125Z" fill="white"/>
<path d="M0 125M250 125M250 125M0 125M125 0M250 125M125 250M0 125M125 250V248C57.069 248 2 192.931 2 125H0H-2C-2 195.14 54.8598 252 125 252V250ZM250 125H248C248 192.931 192.931 248 125 248V250V252C195.14 252 252 195.14 252 125H250ZM125 0V2C192.931 2 248 57.069 248 125H250H252C252 54.8598 195.14 -2 125 -2V0ZM125 0V-2C54.8598 -2 -2 54.8598 -2 125H0H2C2 57.069 57.069 2 125 2V0Z" fill="#DDDBDB" mask="url(#path-1-inside-1_453_576)"/>
<path d="M124.706 146.777C131.258 150.732 137.262 155.344 143.393 159.92C148.943 164.043 155.434 168.638 161.715 171.465C166.175 173.473 176.053 172.211 176.053 172.211C175.21 173.961 173.382 175.634 171.989 176.945C165.361 183.181 157.003 187.724 148.474 190.778C147.116 191.265 145.714 191.687 144.354 192.129C134.912 195.447 124.261 195.33 114.441 194.187C108.169 193.457 99.7867 190.437 97.1517 184.143C95.2258 179.542 92.975 172.02 96.2043 167.549C97.9158 165.18 101.872 163.153 104.13 161.28C108.809 157.767 113.48 154.173 118.322 150.888C120.446 149.447 124.706 146.777 124.706 146.777Z" fill="#1B9C89"/>
<path d="M70.0773 109.357C70.1978 109.351 70.3185 109.345 70.4391 109.34C71.3657 109.3 73.1441 109.166 73.9631 109.582C78.4724 111.875 82.5517 115.569 86.6489 118.513L96.1597 125.373C98.3687 126.95 102.448 130.048 102.448 130.048C102.448 130.048 98.2991 143.563 96.2057 150.375C93.5056 159.161 89.1254 167.997 89.856 177.422C90.1816 181.621 91.8157 183.491 93.1208 187.171C92.3815 186.892 91.8058 186.647 91.0888 186.319C85.8047 182.925 79.7376 179.666 75.3396 174.99C66.734 165.841 58.8855 153.526 56.1113 141.158C54.5289 134.104 54.1438 124.664 58.3169 118.55C60.9788 114.623 65.2823 110.322 70.0773 109.357Z" fill="#666666"/>
<path d="M185.356 89.8328C185.356 89.8328 190.529 99.7142 191.09 101.381C197.4 120.146 196.091 140.166 187.032 157.805C183.912 163.879 179.51 166.938 172.677 167.915C167.437 168.664 164.08 167.557 159.537 165.167C159.359 165.111 159.183 165.052 159.014 164.973C157.325 164.176 147 129.968 147 129.968C147 129.968 149.618 128.235 150.673 127.473C158.524 121.798 166.557 116.187 174.442 110.585C179.335 107.108 183.37 101.738 184.493 95.8151C184.867 93.8463 185.356 89.8328 185.356 89.8328Z" fill="#666666"/>
<path d="M101.692 59.5045C103.002 59.2167 106.73 59.5492 108.126 59.8647C112.176 60.7805 117.234 63.0038 119.935 66.2821C120.975 67.5452 122.4 70.0861 122.4 70.0861L119.22 80.0843L117.328 85.3629L111.39 104.122C111.39 104.122 89.7023 104.261 78.9213 104.077C75.5933 104.02 72.1673 104.34 68.9006 104.977C63.6734 106.206 59.5275 109.954 55.5779 113.327C56.0017 111.143 56.0865 108.977 56.7571 106.699C59.2573 98.2065 63.7543 88.7297 69.2745 81.8088C75.6478 73.8183 84.501 66.4928 93.7216 62.1458C96.8057 60.6918 98.3186 59.8958 101.692 59.5045Z" fill="#666666"/>
<path d="M124.784 55.1115C137.497 54.7807 147.416 57.5384 158.595 63.5688C166.629 67.9026 176.769 75.2829 179.425 84.3315C181.803 92.4341 178.788 97.2362 175.23 103.991L169.526 104.004C159.204 104.062 138.341 104.048 138.341 104.048C138.341 104.048 137.047 99.621 136.393 97.5971C135.74 95.5732 132.83 86.5087 132.83 86.5087C132.324 84.9794 131.483 81.8035 131.483 81.8035C131.483 81.8035 125.302 61.0228 113.366 55.69C117.166 55.4008 120.973 55.2079 124.784 55.1115Z" fill="#1B9C89"/>
<path d="M135.516 118.954C139.106 118.461 142.214 119.558 144.563 122.343C143.886 122.792 142.921 123.69 142.275 124.259C138.146 119.467 130.122 122.233 131.18 128.861C131.876 133.224 136.247 134.904 140.203 133.109C140.904 132.69 141.989 131.718 142.651 131.156C143.252 131.934 143.776 132.791 144.307 133.62C142.944 134.929 141.279 135.881 139.46 136.392C137.919 136.82 136.527 136.808 135.008 136.381C125.235 133.631 125.649 121.29 135.516 118.954Z" fill="#1B9C89"/>
<path d="M120.064 118.956C122.634 118.789 124.179 119.644 125.326 121.897C123.884 122.865 124.225 122.65 123.193 123.246C122.374 122.366 121.883 121.898 120.574 121.781C119.995 121.729 118.743 122.207 118.896 122.939C119.412 125.41 122.438 126.5 123.959 128.283C125.965 130.557 126.554 133.351 123.968 135.475C122.649 136.559 121.477 136.782 119.799 136.629C117.366 136.244 115.277 133.027 115.277 133.027L117.451 131.583C117.451 131.583 119.48 134.402 121.429 133.939C122.547 133.674 123.515 132.608 122.87 131.453C121.258 128.541 116.762 127.378 116.001 124.018C115.325 121.028 116.904 119.308 120.064 118.956Z" fill="#1B9C89"/>
<path d="M111.901 119.168L113.725 119.163C113.725 120.131 113.579 121.364 113.486 122.347C111.859 122.37 109.999 122.301 108.356 122.277C108.354 123.392 108.408 124.581 108.441 125.702C110.188 125.742 111.935 125.759 113.682 125.752C113.69 126.769 113.644 127.366 113.537 128.373C111.935 128.42 110.105 128.359 108.487 128.342L108.524 131.877L108.538 136.064L105.281 136.114C105.218 130.483 105.187 124.852 105.188 119.221L111.901 119.168Z" fill="#1B9C89"/>
</svg>
