<svg width="250" height="250" viewBox="0 0 250 250" fill="none" xmlns="http://www.w3.org/2000/svg">
<path d="M0 125C0 55.9644 55.9644 0 125 0C194.036 0 250 55.9644 250 125C250 194.036 194.036 250 125 250C55.9644 250 0 194.036 0 125Z" fill="white"/>
<path d="M190.892 101.82C164.245 94.02 143.409 108.603 139.851 131.295C130.461 131.295 121.026 131.295 111.326 131.295C111.326 122.17 111.326 113.11 111.326 103.565C124.362 103.565 137.332 103.565 150.546 103.565C150.546 98.5717 150.546 94.0642 150.546 89.5568C146.502 88.7171 104.233 88.5183 97.0083 89.3579C97.0083 123.076 97.0083 156.837 97.0083 191.041C80.4809 183.374 69.0575 171.465 61.7219 155.688C56.883 145.304 54.6513 134.278 55.049 122.766C56.198 89.9987 78.1388 60.899 112.122 54.0936C133.267 49.8734 152.49 55.2867 169.061 69.0522C180.198 78.3323 187.6 89.7998 190.892 101.82Z" fill="#D72F28"/>
<path d="M176.201 173.696C160.778 192.963 131.413 201.492 110.312 195.306C110.312 179.507 110.312 163.643 110.312 147.425C120.387 147.425 130.573 147.425 141.091 147.425C146.482 163.908 157.95 172.989 176.201 173.696Z" fill="#090808"/>
<path d="M194.868 120.446C195.663 134.035 192.967 146.674 186.98 158.472C173.767 164.77 160.443 157.522 156.134 149.59C150.986 140.133 151.494 125.418 161.791 117.331C171.159 109.951 185.521 110.857 194.868 120.446Z" fill="#169348"/>
</svg>
