<svg width="250" height="250" viewBox="0 0 250 250" fill="none" xmlns="http://www.w3.org/2000/svg">
<mask id="path-1-inside-1_453_580" fill="white">
<path d="M0 125C0 55.9644 55.9644 0 125 0C194.036 0 250 55.9644 250 125C250 194.036 194.036 250 125 250C55.9644 250 0 194.036 0 125Z"/>
</mask>
<path d="M0 125C0 55.9644 55.9644 0 125 0C194.036 0 250 55.9644 250 125C250 194.036 194.036 250 125 250C55.9644 250 0 194.036 0 125Z" fill="white"/>
<path d="M0 125M250 125M250 125M0 125M125 0M250 125M125 250M0 125M125 250V248C57.069 248 2 192.931 2 125H0H-2C-2 195.14 54.8598 252 125 252V250ZM250 125H248C248 192.931 192.931 248 125 248V250V252C195.14 252 252 195.14 252 125H250ZM125 0V2C192.931 2 248 57.069 248 125H250H252C252 54.8598 195.14 -2 125 -2V0ZM125 0V-2C54.8598 -2 -2 54.8598 -2 125H0H2C2 57.069 57.069 2 125 2V0Z" fill="#DDDBDB" mask="url(#path-1-inside-1_453_580)"/>
<path d="M190.892 101.82C164.245 94.0202 143.409 108.603 139.851 131.295C130.461 131.295 121.026 131.295 111.326 131.295C111.326 122.17 111.326 113.111 111.326 103.565C124.362 103.565 137.332 103.565 150.546 103.565C150.546 98.5718 150.546 94.0644 150.546 89.5569C146.502 88.7173 104.233 88.5184 97.0083 89.358C97.0083 123.076 97.0083 156.837 97.0083 191.041C80.4809 183.374 69.0575 171.465 61.7219 155.689C56.883 145.304 54.6513 134.278 55.049 122.766C56.198 89.9988 78.1388 60.8991 112.122 54.0937C133.267 49.8735 152.49 55.2869 169.061 69.0523C180.198 78.3324 187.6 89.7999 190.892 101.82Z" fill="#D72F28"/>
<path d="M176.201 173.696C160.778 192.964 131.413 201.492 110.312 195.306C110.312 179.507 110.312 163.643 110.312 147.425C120.387 147.425 130.573 147.425 141.091 147.425C146.482 163.908 157.95 172.989 176.201 173.696Z" fill="#090808"/>
<path d="M194.868 120.446C195.663 134.035 192.967 146.674 186.98 158.473C173.767 164.77 160.443 157.523 156.134 149.59C150.986 140.133 151.494 125.418 161.791 117.331C171.159 109.951 185.521 110.857 194.868 120.446Z" fill="#169348"/>
</svg>
