<svg width="250" height="250" viewBox="0 0 250 250" fill="none" xmlns="http://www.w3.org/2000/svg">
<path d="M0 125C0 55.9644 55.9644 0 125 0C194.036 0 250 55.9644 250 125C250 194.036 194.036 250 125 250C55.9644 250 0 194.036 0 125Z" fill="white"/>
<path fill-rule="evenodd" clip-rule="evenodd" d="M110.857 75.2326C115.773 74.5524 120.9 76.2937 123.617 78.905C124.993 80.2271 126.395 81.3616 127.545 83.4155C128.533 85.1784 129.328 87.2506 129.647 89.5806C130.998 99.48 123.702 107.324 115.339 108.46C105.358 109.816 97.5658 102.551 96.3953 94.1588C95.6694 88.9537 97.5727 84.0748 100.075 81.2458C103.022 77.9141 105.905 75.9178 110.857 75.2326ZM134.043 95.6539C134.183 94.9904 136.228 91.9509 136.748 91.0775L144.981 77.5283C148.146 72.3873 152.977 63.959 156.039 59.4873C157.481 61.7567 159.579 65.9566 161.105 68.6002L176.144 95.9001L165.889 95.8875C164.8 119.228 148.261 136.911 130.498 142.904C113.452 148.655 96.1262 145.916 81.8769 135.673L77.5583 132.219L71.2825 125.595L71.2617 152.796C71.2617 158.925 75.9988 163.461 82.1412 163.461H167.572C173.977 163.461 178.722 159.035 178.722 152.796V66.6894C178.722 60.4786 173.998 55.9996 167.741 55.9996L146.13 55.9995C145.217 56.0001 144.185 58.1805 143.259 59.5963L136.208 70.78C135.55 70.4346 135.094 69.8009 134.531 69.3413C133.98 68.8921 133.426 68.4005 132.87 67.9605C120.977 58.5454 104.706 58.7572 92.8495 68.2787C89.6744 70.8285 89.2568 71.7922 87.0488 74.4625C83.2964 79.0007 81.1549 87.0303 81.1471 93.3656C81.1224 110.336 95.3061 124.235 111.856 124.806C121.602 125.143 129.547 121.149 134.586 116.436C136.24 114.89 136.926 114.125 138.299 112.377C141.405 108.426 145.051 100.568 144.761 95.7647L134.043 95.6539Z" fill="#B03140"/>
<path fill-rule="evenodd" clip-rule="evenodd" d="M110.857 75.2335C105.904 75.9187 103.022 77.915 100.075 81.2467C97.5723 84.0757 95.669 88.9546 96.3949 94.1597C97.5653 102.552 105.357 109.817 115.339 108.461C123.702 107.324 130.997 99.4809 129.646 89.5815C129.328 87.2515 128.532 85.1793 127.545 83.4164C126.395 81.3625 124.992 80.228 123.616 78.9059C120.899 76.2946 115.773 74.5533 110.857 75.2335Z" fill="#B2BAC0"/>
<path fill-rule="evenodd" clip-rule="evenodd" d="M79.9729 184.459C81.1833 184.617 89.619 184.512 91.5732 184.512C96.3297 184.512 99.5438 183.61 99.3762 188.377C99.3026 190.47 98.1752 190.916 96.1073 190.937C94.1695 190.958 92.2186 190.937 90.2794 190.937C77.6977 190.937 77.1368 192.152 77.1389 186.589C77.1397 184.648 77.139 182.707 77.139 180.766C77.139 176.25 76.0178 172.995 81.0596 173.007C88.7573 173.027 96.4953 173.072 104.209 173.005L104.164 168.028C98.5706 167.989 92.9634 168.025 87.3681 168.025C81.3013 168.025 76.8725 167.202 73.5753 171.017C71.803 173.068 71.8667 174.49 71.8668 177.693C71.8668 180.497 71.8668 183.3 71.8668 186.103C71.8667 189.283 71.7327 190.784 73.4195 192.934C74.4431 194.239 76.3725 195.564 78.8968 195.853C80.72 196.062 92.7442 195.921 95.6171 195.921C98.7258 195.92 100.082 195.51 102.059 194.001C105.434 191.423 105.533 184.921 102.476 181.994C101.216 180.787 99.1752 179.603 96.5862 179.534L79.9726 179.558L79.9729 184.459Z" fill="#B03140"/>
<path fill-rule="evenodd" clip-rule="evenodd" d="M115.364 173.013C120.797 172.964 126.251 173.009 131.686 173.009C139.813 173.009 138.87 172.777 138.87 182.06C138.87 183.642 139.114 188.814 138.533 189.882C137.656 191.491 133.645 190.936 131.524 190.936C126.145 190.936 120.747 190.982 115.34 190.932L115.364 173.013ZM136.911 195.786C138.207 195.951 140.098 195.078 140.9 194.513C145.063 191.578 144.14 187.651 144.14 182.06C144.14 179.206 144.573 174.537 143.355 172.33C142.581 170.929 139.745 167.951 137.154 168.218L123.761 168.122C119.239 168.122 114.718 168.122 110.196 168.122V195.802L136.911 195.786Z" fill="#B03140"/>
<path fill-rule="evenodd" clip-rule="evenodd" d="M149.954 168.025C149.772 169.419 149.9 179.887 149.9 182.222C149.9 187.717 149.08 190.895 152.486 193.931C155.492 196.611 160.08 195.919 164.678 195.919C169.334 195.919 174.051 195.993 178.741 195.913L178.738 190.947C174.896 190.856 170.957 190.936 167.104 190.936C154.577 190.936 155.17 191.858 155.17 185.456C155.17 182.92 155.276 169.349 155.122 168.026L149.954 168.025Z" fill="#B03140"/>
</svg>
