<svg width="250" height="250" viewBox="0 0 250 250" fill="none" xmlns="http://www.w3.org/2000/svg">
<mask id="path-1-inside-1_453_577" fill="white">
<path d="M0 125C0 55.9644 55.9644 0 125 0C194.036 0 250 55.9644 250 125C250 194.036 194.036 250 125 250C55.9644 250 0 194.036 0 125Z"/>
</mask>
<path d="M0 125C0 55.9644 55.9644 0 125 0C194.036 0 250 55.9644 250 125C250 194.036 194.036 250 125 250C55.9644 250 0 194.036 0 125Z" fill="white"/>
<path d="M0 125M250 125M250 125M0 125M125 0M250 125M125 250M0 125M125 250V248C57.069 248 2 192.931 2 125H0H-2C-2 195.14 54.8598 252 125 252V250ZM250 125H248C248 192.931 192.931 248 125 248V250V252C195.14 252 252 195.14 252 125H250ZM125 0V2C192.931 2 248 57.069 248 125H250H252C252 54.8598 195.14 -2 125 -2V0ZM125 0V-2C54.8598 -2 -2 54.8598 -2 125H0H2C2 57.069 57.069 2 125 2V0Z" fill="#DDDBDB" mask="url(#path-1-inside-1_453_577)"/>
<path fill-rule="evenodd" clip-rule="evenodd" d="M110.857 75.2321C115.773 74.5519 120.9 76.2932 123.617 78.9045C124.993 80.2266 126.395 81.3611 127.545 83.415C128.533 85.1779 129.328 87.2501 129.647 89.5801C130.998 99.4795 123.702 107.323 115.339 108.46C105.358 109.816 97.5658 102.55 96.3953 94.1583C95.6694 88.9532 97.5727 84.0743 100.075 81.2453C103.022 77.9136 105.905 75.9173 110.857 75.2321ZM134.043 95.6534C134.183 94.9899 136.228 91.9504 136.748 91.077L144.981 77.5279C148.146 72.3868 152.977 63.9585 156.039 59.4868C157.481 61.7562 159.579 65.9561 161.105 68.5997L176.144 95.8996L165.889 95.887C164.8 119.228 148.261 136.911 130.498 142.904C113.452 148.654 96.1262 145.915 81.8769 135.673L77.5583 132.218L71.2825 125.595L71.2617 152.796C71.2617 158.924 75.9988 163.46 82.1412 163.46H167.572C173.977 163.46 178.722 159.034 178.722 152.796V66.6889C178.722 60.4782 173.998 55.9991 167.741 55.9991L146.13 55.999C145.217 55.9996 144.185 58.18 143.259 59.5958L136.208 70.7795C135.55 70.4342 135.094 69.8004 134.531 69.3408C133.98 68.8916 133.426 68.4 132.87 67.96C120.977 58.5449 104.706 58.7567 92.8495 68.2782C89.6744 70.828 89.2568 71.7917 87.0488 74.4621C83.2964 79.0002 81.1549 87.0298 81.1471 93.3651C81.1224 110.335 95.3061 124.234 111.856 124.806C121.602 125.142 129.547 121.148 134.586 116.435C136.24 114.889 136.926 114.124 138.299 112.377C141.405 108.425 145.051 100.567 144.761 95.7643L134.043 95.6534Z" fill="#B03140"/>
<path fill-rule="evenodd" clip-rule="evenodd" d="M110.857 75.233C105.904 75.9182 103.022 77.9145 100.075 81.2462C97.5723 84.0752 95.669 88.9541 96.3949 94.1593C97.5653 102.551 105.357 109.817 115.339 108.461C123.702 107.324 130.997 99.4804 129.646 89.581C129.328 87.251 128.532 85.1788 127.545 83.4159C126.395 81.362 124.992 80.2275 123.616 78.9054C120.899 76.2941 115.773 74.5528 110.857 75.233Z" fill="#B2BAC0"/>
<path fill-rule="evenodd" clip-rule="evenodd" d="M79.9729 184.459C81.1833 184.616 89.619 184.512 91.5732 184.512C96.3297 184.512 99.5438 183.609 99.3762 188.377C99.3026 190.469 98.1752 190.915 96.1073 190.937C94.1695 190.957 92.2186 190.936 90.2794 190.936C77.6977 190.936 77.1368 192.152 77.1389 186.588C77.1397 184.647 77.139 182.706 77.139 180.766C77.139 176.25 76.0178 172.994 81.0596 173.007C88.7573 173.027 96.4953 173.071 104.209 173.005L104.164 168.028C98.5706 167.988 92.9634 168.025 87.3681 168.025C81.3013 168.025 76.8725 167.201 73.5753 171.017C71.803 173.068 71.8667 174.49 71.8668 177.693C71.8668 180.496 71.8668 183.299 71.8668 186.103C71.8667 189.282 71.7327 190.784 73.4195 192.934C74.4431 194.239 76.3725 195.563 78.8968 195.852C80.72 196.061 92.7442 195.92 95.6171 195.92C98.7258 195.92 100.082 195.51 102.059 194C105.434 191.422 105.533 184.921 102.476 181.993C101.216 180.787 99.1752 179.602 96.5862 179.534L79.9726 179.557L79.9729 184.459Z" fill="#B03140"/>
<path fill-rule="evenodd" clip-rule="evenodd" d="M115.364 173.012C120.797 172.964 126.251 173.008 131.686 173.008C139.813 173.008 138.87 172.777 138.87 182.059C138.87 183.642 139.114 188.814 138.533 189.881C137.656 191.491 133.645 190.936 131.524 190.936C126.145 190.936 120.747 190.981 115.34 190.932L115.364 173.012ZM136.911 195.785C138.207 195.951 140.098 195.077 140.9 194.512C145.063 191.578 144.14 187.65 144.14 182.059C144.14 179.205 144.573 174.537 143.355 172.33C142.581 170.929 139.745 167.95 137.154 168.218L123.761 168.121C119.239 168.121 114.718 168.121 110.196 168.121V195.801L136.911 195.785Z" fill="#B03140"/>
<path fill-rule="evenodd" clip-rule="evenodd" d="M149.954 168.024C149.772 169.419 149.9 179.887 149.9 182.221C149.9 187.717 149.08 190.894 152.486 193.93C155.492 196.61 160.08 195.919 164.678 195.919C169.334 195.919 174.051 195.993 178.741 195.912L178.738 190.946C174.896 190.855 170.957 190.936 167.104 190.936C154.577 190.936 155.17 191.857 155.17 185.456C155.17 182.919 155.276 169.348 155.122 168.025L149.954 168.024Z" fill="#B03140"/>
</svg>
