<svg width="250" height="250" viewBox="0 0 250 250" fill="none" xmlns="http://www.w3.org/2000/svg">
<path d="M0 125C0 55.9644 55.9644 0 125 0C194.036 0 250 55.9644 250 125C250 194.036 194.036 250 125 250C55.9644 250 0 194.036 0 125Z" fill="white"/>
<path d="M131.218 57C138.726 58.4844 143.709 61.3589 152.059 61.0112C155.757 61.4132 162.791 59.8882 165.894 61.9571C169.961 64.6698 173.319 68.4525 177.011 71.6226C179.739 73.9648 185.553 76.7135 186.886 79.4776C186.475 80.9761 185.978 83.6647 184.805 84.5667C183.502 84.8472 183.362 83.9409 182.128 83.8889L182.019 84.0723C186.019 91.0582 181.104 95.6006 176.404 100.285C176.1 100.588 173.908 103.502 173.748 103.518C170.357 103.851 166.569 102.203 163.153 101.814C161.628 101.64 159.304 101.344 157.839 101.656C155.476 102.169 154.328 103.662 151.724 102.672C148.762 101.545 147.528 99.8818 146.002 97.2942C145.13 95.8165 144.123 90.2149 143.636 89.8231C143.192 90.4764 143.647 101.168 143.937 102.674C144.226 104.173 144.73 105.573 145.393 106.946C146.391 106.894 147.544 106.808 148.529 106.792C148.419 107.397 148.151 108.791 147.96 109.535C147.769 110.278 142.27 115.774 139.544 118.429L139.282 118.329L139.137 118.603H152.241L78.0679 197L93.2825 155.524H65.1152L91.7725 118.603L67.2195 116.471L82.0544 96.567L81.8196 96.478C83.2666 94.6079 84.5914 92.9586 85.8415 91.4865L91.4699 83.9371C92.6512 82.3527 94.2803 81.1587 96.1469 80.5094L108.159 76.3309C109.258 75.8894 110.419 75.4294 111.654 74.9463C115.283 73.5628 121.227 70.8439 124.629 68.3825L125.36 67.6908L125.498 67.7112C125.52 67.6921 125.545 67.6744 125.567 67.6554C126.751 67.6592 132.784 68.3266 133.165 68.2024C132.798 67.8055 127.582 65.3659 126.926 65.1328L126.924 65.1071C126.643 62.3884 126.558 61.5636 127.365 58.9219C128.761 58.0656 129.63 57.4649 131.218 57Z" fill="#018FF5"/>
<path d="M157.21 66.6095C162.181 66.101 164.178 68.4211 165.567 73.0355C165.796 73.7966 165.882 74.4096 165.476 75.095C164.625 75.1434 163.403 74.3404 162.716 73.8573C162.424 73.5014 162.606 73.6145 162.148 73.5153C160.592 74.9551 159.49 74.5352 157.418 74.4547C155.33 72.6561 153.853 70.6154 153.838 67.7847C155 67.1114 155.931 66.865 157.21 66.6095Z" fill="#FEA433"/>
</svg>
