<svg width="250" height="250" viewBox="0 0 250 250" fill="none" xmlns="http://www.w3.org/2000/svg">
<path d="M0 125C0 55.9644 55.9644 0 125 0C194.036 0 250 55.9644 250 125C250 194.036 194.036 250 125 250C55.9644 250 0 194.036 0 125Z" fill="#4540C1"/>
<path d="M90.8066 99.4559L103.5 95.1101V89.1594C103.5 77.0962 113.279 67.317 125.343 67.317C137.406 67.317 147.185 77.0962 147.185 89.1594V133.878L103.5 102.429L90.8066 106.889V160.441C90.8066 179.528 106.279 195 125.365 195C131.767 195 138.043 193.222 143.493 189.864L144.898 188.998L148.786 194.144H159.193V187.626L153.246 180.421C157.103 175.367 159.193 169.185 159.193 162.826V150.917L147.185 155.263V161.014C147.185 173.077 137.406 182.857 125.343 182.857C113.279 182.857 103.5 173.077 103.5 161.014V115.695L147.185 147.372L159.193 143.141V89.1929C159.193 70.3087 143.884 55 125 55C106.115 55 90.8066 70.3087 90.8066 89.1929V99.4559Z" fill="white"/>
</svg>
