<svg width="250" height="250" viewBox="0 0 250 250" fill="none" xmlns="http://www.w3.org/2000/svg">
<mask id="path-1-inside-1_453_568" fill="white">
<path d="M0 125C0 55.9644 55.9644 0 125 0C194.036 0 250 55.9644 250 125C250 194.036 194.036 250 125 250C55.9644 250 0 194.036 0 125Z"/>
</mask>
<path d="M0 125C0 55.9644 55.9644 0 125 0C194.036 0 250 55.9644 250 125C250 194.036 194.036 250 125 250C55.9644 250 0 194.036 0 125Z" fill="white"/>
<path d="M0 125M250 125M250 125M0 125M125 0M250 125M125 250M0 125M125 250V248C57.069 248 2 192.931 2 125H0H-2C-2 195.14 54.8598 252 125 252V250ZM250 125H248C248 192.931 192.931 248 125 248V250V252C195.14 252 252 195.14 252 125H250ZM125 0V2C192.931 2 248 57.069 248 125H250H252C252 54.8598 195.14 -2 125 -2V0ZM125 0V-2C54.8598 -2 -2 54.8598 -2 125H0H2C2 57.069 57.069 2 125 2V0Z" fill="#DDDBDB" mask="url(#path-1-inside-1_453_568)"/>
<path d="M64.9462 55L185.061 55.0057L185.052 175.11L64.9395 175.106L64.9462 55Z" fill="#002161"/>
<path fill-rule="evenodd" clip-rule="evenodd" d="M74.8555 113.699C78.987 113.942 83.0692 113.891 87.2302 113.89C94.4851 113.903 102.662 112.767 108.426 118.244C114.083 123.621 113.353 133.884 108.051 139.284C102.311 145.129 95.0839 144.499 87.5678 144.482L87.569 153.861C87.5606 156.057 87.4252 158.943 87.9199 161.047C88.5809 163.856 92.5259 163.79 94.9149 163.871L94.9131 165.363C89.1741 165.042 80.5751 164.994 74.8571 165.365L74.8594 163.871C76.7436 163.803 79.8656 163.771 80.3487 161.501C80.9405 158.722 80.7819 155.807 80.7833 152.972L80.7845 127.845C80.7837 125.233 80.8134 122.626 80.7174 120.016C80.5482 115.421 78.7618 115.53 74.8576 115.186L74.8555 113.699ZM104.529 134.103C106.309 123.791 104.103 114.078 91.4411 115.259C88.6983 115.649 87.8628 116.595 87.6686 119.414C87.4784 122.175 87.5631 124.996 87.5634 127.763L87.5697 143.057C91.3962 143.064 96.3103 143.391 99.7313 141.504C102.354 139.855 104.008 137.126 104.529 134.103Z" fill="white"/>
<path d="M117.537 113.698C119.825 113.681 122.241 113.817 124.553 113.828C134.313 113.876 144.172 114.09 153.924 113.696C153.873 115.262 153.669 117.02 153.584 118.628C153.375 122.089 153.406 125.56 153.674 129.016L151.958 129.02C151.436 122.472 150.666 115.232 142.164 115.389C139.723 115.434 132.507 114.705 130.998 116.726C129.996 118.066 130.239 124.724 130.241 126.622L130.24 139.394C140.042 139.421 140.844 139.801 142.36 129.731L144.018 129.748C143.925 133.696 143.82 137.132 143.846 141.136C143.852 144.119 144.063 147.445 144.241 150.444L142.538 150.44C141.488 140.303 139.584 140.826 130.245 140.854L130.236 152.829C130.236 155.191 130.199 157.391 130.386 159.752C130.718 163.972 134.199 163.742 137.598 163.873L137.595 165.364C131.878 165.017 123.243 165.008 117.537 165.361L117.536 163.872C120.987 163.723 123.098 163.713 123.34 159.691C123.483 157.305 123.465 155.044 123.466 152.658L123.468 127.532C123.467 124.991 123.496 122.467 123.392 119.929C123.208 115.409 121.384 115.527 117.539 115.184L117.537 113.698Z" fill="white"/>
<path d="M159.056 113.697C164.724 114.024 171.988 114.001 177.681 113.693V115.189C175.999 115.328 172.681 115.333 172.209 117.447C171.564 120.335 171.755 123.583 171.753 126.549L171.752 151.524C171.753 154.097 171.733 156.648 171.831 159.22C171.999 163.622 173.816 163.69 177.678 163.873L177.676 165.362C172.23 165.045 164.552 165.022 159.05 165.361L159.053 163.872C163.888 163.639 164.848 163.184 164.953 158.067C164.99 156.239 164.973 154.326 164.974 152.493L164.975 127.389C164.974 124.863 164.996 122.359 164.898 119.834C164.727 115.399 162.811 115.511 159.049 115.187L159.056 113.697Z" fill="white"/>
<path d="M172.216 88.4268L175.46 88.428L175.459 105.09L172.216 105.085V88.4268Z" fill="white"/>
<path d="M165.462 92.9072L168.163 92.9186C168.166 96.4874 168.325 101.526 168.142 104.976L167.902 105.088L164.874 105.087C164.863 101.526 164.727 96.5592 164.893 93.0884C165.096 92.8676 165.058 92.9402 165.462 92.9072Z" fill="white"/>
<path d="M157.89 99.4055L161.192 99.4096L161.188 105.088L157.89 105.084V99.4055Z" fill="white"/>
<path d="M145.909 177.43C145.988 178.278 146.071 182.057 145.743 182.679C145.293 182.3 145.046 179.994 144.057 179.223C143.144 178.291 140.956 177.919 139.789 178.455C136.009 180.188 135.977 188.316 138.81 190.886C139.771 191.758 140.811 191.842 142.015 191.778C146.05 190.849 144.815 187.862 145.754 187.202C146.08 187.975 146.003 191.702 145.858 192.63C145.587 192.015 145.525 191.269 145.213 190.857C144.605 190.777 143.354 191.837 142.631 192.003C135.835 193.553 133.211 186.059 135.913 180.91C136.794 179.23 138.108 178.456 139.87 177.959C141.01 177.832 141.821 177.822 142.932 178.129C143.682 178.335 144.639 179.278 145.194 179.197C145.419 178.892 145.677 177.946 145.909 177.43Z" fill="#002161"/>
<path d="M128.729 185.083C129.374 186.076 130.387 187.764 131.052 188.637C131.203 186.088 131.087 183.462 131.127 180.91C131.17 178.308 130.469 178.898 128.622 178.225C129.909 178.125 132.46 178.124 133.773 178.208C133.265 178.363 131.834 178.707 131.76 179.134C131.322 181.66 131.568 186.195 131.54 188.81L131.537 189.056C131.547 190.18 131.532 191.304 131.493 192.426C130.753 191.63 129.165 189.044 128.535 188.065C126.74 185.253 124.928 182.455 123.093 179.671L122.943 179.731L122.48 179.603C122.096 178.243 121.32 178.678 120.204 178.188L124.247 178.146L128.729 185.083Z" fill="#002161"/>
<path d="M104.997 188.708C105.043 187.339 105.314 179.769 104.726 179.038C104.308 178.519 103.145 178.428 102.527 178.24C103.808 178.113 106.298 178.141 107.641 178.186C107.115 178.369 105.87 178.669 105.689 179.114C105.003 180.799 105.871 191.202 105.254 191.991C104.977 191.916 104.83 191.759 104.671 191.519C102.042 187.559 99.5659 183.39 96.8792 179.475L96.3268 179.254C95.7932 178.431 95.2153 178.597 94.1428 178.183L98.1564 178.148L104.997 188.708Z" fill="#002161"/>
<path d="M148.033 178.205C148.975 178.084 152.589 178.173 153.719 178.187C153.074 178.44 152.099 178.526 151.678 179.002C151.383 180.075 151.333 190.123 151.654 191.035C152.084 191.477 152.323 191.44 152.997 191.623L153.12 191.866C151.938 191.963 148.607 191.914 147.393 191.847C147.967 191.633 148.822 191.596 149.312 191.238C149.517 191.088 149.527 190.908 149.57 190.675C149.791 189.475 149.864 179.554 149.46 178.942C149.133 178.448 148.396 178.728 148.033 178.205Z" fill="#002161"/>
<path fill-rule="evenodd" clip-rule="evenodd" d="M113.917 177.742C115.188 180.714 116.274 183.843 117.478 186.848C117.905 187.913 118.708 190.24 119.275 191.155C119.666 191.376 120.06 191.594 120.454 191.809C120.994 191.615 121.711 191.499 122.086 191.118C122.817 190.377 122.413 181.262 122.48 179.603L122.943 179.731C122.816 181.466 122.744 188.936 123.15 191.013C123.22 191.369 124.865 191.673 125.404 191.794C123.882 191.952 122.003 191.899 120.423 191.891C118.908 191.898 116.184 191.964 114.873 191.848C115.437 191.673 116.399 191.474 116.826 191.176C117.153 190.447 115.902 187.605 115.553 186.687C114.281 186.691 112.354 186.751 111.137 186.629C110.367 186.965 109.533 189.987 109.763 190.908C110.111 191.461 111.216 191.587 111.963 191.858C110.62 191.956 108.643 191.901 107.257 191.911C109.396 190.516 109.741 188.462 110.647 186.022L110.776 185.724C111.43 184.2 112.132 182.169 112.761 180.616C113.102 179.726 113.509 178.575 113.917 177.742ZM113.248 180.587C112.917 181.172 111.182 185.642 111.007 186.307C112.009 186.312 113.825 186.265 114.762 186.358L115.173 186.285L115.279 186.126C114.978 184.984 114.047 182.646 113.47 181.164L113.248 180.587Z" fill="#002161"/>
<path fill-rule="evenodd" clip-rule="evenodd" d="M160.024 177.741C161.295 180.713 162.381 183.842 163.585 186.847C164.012 187.912 164.815 190.239 165.383 191.154C165.767 191.371 166.153 191.585 166.54 191.796C167.19 191.568 168.017 191.482 168.347 191.01C168.719 189.612 168.686 180.97 168.348 179.042C168.283 178.672 166.759 178.364 166.255 178.223C167.767 178.082 170.988 178.156 172.583 178.187C171.408 178.656 170.368 178.398 170.352 180.035C170.316 183.47 170.353 186.918 170.365 190.352C170.366 190.689 170.524 190.995 170.735 191.244C171.451 191.673 173.456 191.454 174.41 191.441L174.555 191.392C176.99 190.553 176.014 188.363 176.768 187.839L176.921 187.917C176.998 188.194 176.985 191.154 177.066 191.908L175.884 191.889C172.877 191.886 169.696 191.952 166.692 191.88C166.698 191.883 166.703 191.886 166.709 191.889C165.239 191.891 162.345 191.968 160.981 191.847C161.544 191.672 162.507 191.472 162.933 191.175C163.261 190.445 162.01 187.604 161.661 186.686C160.389 186.689 158.461 186.75 157.244 186.628C156.474 186.964 155.64 189.985 155.87 190.907C156.218 191.46 157.323 191.586 158.07 191.857C156.727 191.955 154.75 191.9 153.364 191.909C155.503 190.514 155.848 188.461 156.754 186.02L156.884 185.722C157.537 184.198 158.24 182.167 158.869 180.615C159.209 179.724 159.616 178.574 160.024 177.741ZM159.355 180.586C159.024 181.171 157.289 185.64 157.114 186.306C158.116 186.311 159.932 186.264 160.869 186.357L161.28 186.284L161.386 186.125C161.086 184.983 160.154 182.645 159.578 181.163L159.355 180.586Z" fill="#002161"/>
<path d="M88.1114 178.213C88.9065 178.093 93.0416 178.162 93.9166 178.242C93.1859 178.458 92.3469 178.465 91.8077 179.007C91.473 180.072 91.5858 189.25 91.7564 190.917C91.8125 191.465 92.8753 191.463 93.2199 191.672C93.2674 191.697 93.3149 191.722 93.3624 191.748C92.8786 192.005 88.5219 191.892 87.5784 191.887C88.323 191.558 89.0699 191.581 89.6155 191.064C90.2657 189.02 89.5225 182.863 89.7967 180.476C90.0606 178.178 88.7041 178.917 88.1114 178.213Z" fill="#002161"/>
<path d="M86.8558 178.146C86.7292 179.206 86.8487 181.308 86.576 182.091L86.4508 182.116C86.0466 181.355 86.2482 180.104 85.7168 179.476C84.81 178.405 81.9324 178.143 80.8121 178.926C80.4725 179.164 80.5258 180.215 80.5213 180.641C80.5206 182.1 80.5289 183.559 80.546 185.018C81.3178 185.016 82.4312 185.128 83.0029 184.604C83.5157 184.135 83.6895 182.53 84.0234 182.335L84.0344 182.372C84.1026 182.625 84.1463 183.231 84.1708 183.974C84.181 184.287 84.1879 184.625 84.1917 184.971C84.1956 185.317 84.1965 185.671 84.1948 186.018C84.193 186.365 84.1887 186.704 84.1822 187.02C84.1659 187.809 84.1359 188.451 84.0985 188.695C84.0522 188.517 84.0107 188.349 83.9726 188.189C83.8963 187.869 83.8339 187.584 83.7758 187.329C83.6886 186.948 83.6109 186.636 83.5104 186.384C83.4937 186.341 83.4762 186.301 83.458 186.262C83.1127 185.522 82.4838 185.35 80.5404 185.383L80.5418 185.832C80.5508 186.989 80.59 188.826 80.5134 189.668C80.555 191.772 81.4674 191.415 83.247 191.766C81.8739 191.962 77.8583 191.939 76.4135 191.84C77.2018 191.552 77.9534 191.628 78.5271 190.999C78.8255 190.117 78.7951 180.37 78.5805 179.173C78.1972 178.529 77.2174 178.465 76.4121 178.241C77.6634 178.1 79.3748 178.162 80.6801 178.166C82.7387 178.177 84.7973 178.171 86.8558 178.146Z" fill="#002161"/>
<path d="M96.8792 179.475C96.7577 180.935 96.5631 190.238 97.0678 190.996C97.4123 191.512 98.7667 191.672 99.3399 191.804C97.9774 191.966 95.6333 191.895 94.1931 191.894C94.7349 191.617 95.6712 191.543 96.0708 191.077C96.6532 190.398 96.3953 180.818 96.3268 179.254L96.8792 179.475Z" fill="#002161"/>
<rect x="69.0137" y="194.592" width="115.963" height="0.408497" fill="#E52214"/>
</svg>
