<svg width="250" height="250" viewBox="0 0 250 250" fill="none" xmlns="http://www.w3.org/2000/svg">
<path d="M0 125C0 55.9644 55.9644 0 125 0C194.036 0 250 55.9644 250 125C250 194.036 194.036 250 125 250C55.9644 250 0 194.036 0 125Z" fill="white"/>
<path d="M125.063 55.0428C133.904 55.0152 142.664 56.7149 150.853 60.0464C151.578 60.34 154.069 61.3069 154.603 61.6254C164.238 65.7025 173.403 73.4981 179.897 81.5526C180.477 82.2711 181.194 83.4357 181.765 84.0435C184.363 87.4725 186.966 92.1123 188.721 96.0225C194.258 108.187 196.191 121.685 194.289 134.915C192.716 146.428 188.399 156.33 181.836 165.805C176.792 173.116 169.483 179.737 161.962 184.43C159.604 185.901 157.16 187.136 154.67 188.36C152.595 189.221 150.123 190.317 148.032 191.042C141.852 193.191 135.401 194.463 128.868 194.825C127.775 194.884 126.062 194.997 125.024 194.944C123.801 194.784 121.787 194.885 120.46 194.776C118.509 194.614 116.505 194.433 114.571 194.137C100.245 191.952 86.9444 185.392 76.4888 175.358C60.5377 159.843 52.7307 138.013 55.5762 115.878C57.6377 100.86 64.411 86.8846 74.9211 75.962C86.9743 63.6918 103.121 56.2862 120.284 55.1568C121.797 55.0511 123.535 55.0602 125.063 55.0428ZM102.158 143.151C103.187 142.647 104.648 141.735 105.679 141.13C112.246 137.275 118.818 132.399 124.228 127.031C124.614 126.647 126.086 125.262 126.289 124.942C125.439 123.898 124.182 122.939 123.182 122.035C122.32 121.256 121.493 120.322 120.606 119.564C116.838 116.345 113.011 113.491 108.868 110.772C107.278 109.732 105.588 108.843 103.96 107.867C103.335 107.493 102.662 107.263 102.307 106.645C109.671 99.8325 115.526 91.5534 119.496 82.3408C122.177 75.9348 123.913 69.173 124.649 62.2677C124.87 60.0483 124.944 57.2881 125.063 55.0428C123.535 55.0602 121.797 55.0511 120.284 55.1568C103.121 56.2862 86.9743 63.6918 74.9211 75.962C64.411 86.8846 57.6377 100.86 55.5762 115.878C52.7307 138.013 60.5377 159.843 76.4888 175.358C86.9444 185.392 100.245 191.952 114.571 194.137C116.505 194.433 118.509 194.614 120.46 194.776C121.787 194.885 123.801 194.784 125.024 194.944C124.757 184.357 123.298 177.623 119.579 167.766C115.643 158.943 110.645 151.307 103.655 144.649C103.15 144.168 102.653 143.646 102.158 143.151Z" fill="#2C407D"/>
<path d="M125.024 194.944C123.801 194.784 121.787 194.885 120.46 194.776C118.509 194.614 116.505 194.433 114.571 194.137C100.245 191.952 86.9444 185.392 76.4888 175.358C60.5377 159.843 52.7307 138.013 55.5762 115.878C57.6377 100.86 64.411 86.8846 74.9211 75.962C86.9743 63.6918 103.121 56.2862 120.284 55.1568C121.797 55.0511 123.535 55.0602 125.063 55.0428C124.944 57.2881 124.87 60.0483 124.649 62.2677C123.913 69.173 122.177 75.9348 119.496 82.3408C115.526 91.5534 109.671 99.8325 102.307 106.645C102.662 107.263 103.335 107.493 103.96 107.867C105.588 108.843 107.278 109.732 108.868 110.772C113.011 113.491 116.838 116.345 120.606 119.564C121.493 120.322 122.32 121.256 123.182 122.035C124.182 122.939 125.439 123.898 126.289 124.942C126.086 125.262 124.614 126.647 124.228 127.031C118.818 132.399 112.246 137.275 105.679 141.13C104.648 141.735 103.187 142.647 102.158 143.151C102.653 143.646 103.15 144.168 103.655 144.649C110.645 151.307 115.643 158.943 119.579 167.766C123.298 177.623 124.757 184.357 125.024 194.944Z" fill="#FABA2E"/>
<path d="M102.307 106.645C102.662 107.263 103.335 107.493 103.96 107.867C105.588 108.843 107.278 109.732 108.868 110.772C113.011 113.491 116.838 116.345 120.606 119.564C121.493 120.322 122.32 121.256 123.182 122.035C124.182 122.939 125.439 123.898 126.289 124.942C126.086 125.262 124.614 126.647 124.228 127.031C118.818 132.399 112.246 137.275 105.679 141.13C104.648 141.735 103.187 142.647 102.158 143.151C88.4858 131.233 75.2678 126.178 57.2954 124.922C58.7367 124.773 60.2157 124.786 61.6675 124.657C77.1326 123.28 90.7426 116.906 102.307 106.645Z" fill="#282F5C"/>
<path d="M125.063 55.0428C133.904 55.0152 142.664 56.7149 150.853 60.0464C151.578 60.34 154.069 61.3069 154.603 61.6254C164.238 65.7025 173.403 73.4981 179.897 81.5526C180.477 82.2711 181.194 83.4357 181.765 84.0435C184.363 87.4725 186.966 92.1123 188.721 96.0225C194.258 108.187 196.191 121.685 194.289 134.915C192.716 146.428 188.399 156.33 181.836 165.805C181.257 164.932 180.877 162.608 180.589 161.487C180.049 159.448 179.464 157.421 178.833 155.407C176.159 147.132 172.671 139.143 168.419 131.556C167.441 129.802 165.684 126.712 164.492 125.122L164.451 124.864C164.146 124.619 160.797 119.546 160.244 118.804C156.103 113.243 151.671 107.935 146.739 103.055C146.094 102.418 144.773 101.001 144.09 100.553L144.14 100.434C143.726 100.005 142.548 99.0979 142.014 98.6225C136.273 93.4241 130.077 88.7514 123.501 84.6607C122.537 84.0678 120.469 82.7464 119.496 82.3408C122.177 75.9348 123.913 69.173 124.649 62.2677C124.87 60.0483 124.944 57.2881 125.063 55.0428Z" fill="#009CDC"/>
<path d="M181.765 84.0435C184.363 87.4725 186.966 92.1123 188.721 96.0225C194.258 108.187 196.191 121.685 194.289 134.915C192.716 146.428 188.399 156.33 181.836 165.805C181.257 164.932 180.877 162.608 180.589 161.487C180.049 159.448 179.464 157.421 178.833 155.407C176.159 147.132 172.671 139.143 168.419 131.556C167.441 129.802 165.684 126.712 164.492 125.122L164.451 124.864C165.12 124.114 166.764 121.283 167.34 120.289C172.197 111.956 176.118 103.11 179.032 93.9148C179.538 92.2692 180.016 90.6153 180.465 88.9538C180.716 88.0006 181.42 84.6155 181.765 84.0435Z" fill="#00B4EF"/>
<path d="M125.063 55.0428C133.904 55.0152 142.664 56.7149 150.853 60.0464C151.578 60.34 154.069 61.3069 154.603 61.6254C154.61 70.598 151.304 83.6009 147.998 91.8705C147.309 93.5637 146.582 95.2413 145.818 96.902C145.588 97.3921 144.196 100.144 144.14 100.434C143.726 100.005 142.548 99.0979 142.014 98.6225C136.273 93.4241 130.077 88.7514 123.501 84.6607C122.537 84.0678 120.469 82.7464 119.496 82.3408C122.177 75.9348 123.913 69.173 124.649 62.2677C124.87 60.0483 124.944 57.2881 125.063 55.0428Z" fill="#006DB2"/>
<path d="M164.492 125.122C165.684 126.712 167.441 129.802 168.419 131.556C172.671 139.143 176.159 147.132 178.833 155.407C179.464 157.421 180.049 159.448 180.589 161.487C180.877 162.608 181.257 164.932 181.836 165.805C176.792 173.116 169.483 179.737 161.962 184.43C159.604 185.901 157.16 187.136 154.67 188.36C152.595 189.221 150.123 190.317 148.032 191.042C141.852 193.191 135.401 194.463 128.868 194.825C127.775 194.884 126.062 194.997 125.024 194.944C124.757 184.357 123.298 177.623 119.579 167.766C119.772 167.482 125.602 164.045 126.579 163.377C130.721 160.549 134.602 157.661 138.481 154.471C140.291 152.982 142.178 151.051 143.931 149.589L144 149.532L144.055 149.388C144.895 148.811 146.452 147.136 147.267 146.338C151.928 141.77 155.98 136.814 159.913 131.624C160.629 130.678 164.075 125.366 164.492 125.122Z" fill="#009CDC"/>
<path d="M144 149.532C144.885 150.847 146.347 154.19 146.977 155.664C151.205 165.554 154.29 177.591 154.67 188.36C152.595 189.221 150.123 190.317 148.032 191.042C141.852 193.191 135.401 194.463 128.868 194.825C127.775 194.884 126.062 194.997 125.024 194.944C124.757 184.357 123.298 177.623 119.579 167.766C119.772 167.482 125.602 164.045 126.579 163.377C130.721 160.549 134.602 157.661 138.481 154.471C140.291 152.982 142.178 151.051 143.931 149.589L144 149.532Z" fill="#006DB2"/>
<path d="M144.09 100.553C144.773 101.001 146.094 102.418 146.739 103.055C151.671 107.935 156.103 113.243 160.244 118.804C160.797 119.546 164.146 124.619 164.451 124.864L164.492 125.122C164.075 125.366 160.629 130.678 159.913 131.624C155.98 136.814 151.928 141.77 147.267 146.338C146.452 147.136 144.895 148.811 144.055 149.388C143.799 149.155 140.576 143.273 139.958 142.309C136.667 137.174 133.155 132.363 129.001 127.881C128.121 126.932 127.171 125.807 126.244 124.936C127.051 124.31 128.54 122.625 129.254 121.827C133.378 117.239 137.09 112.295 140.345 107.054C141.271 105.537 143.18 101.725 144.09 100.553Z" fill="#006DB2"/>
</svg>
