<svg width="250" height="250" viewBox="0 0 250 250" fill="none" xmlns="http://www.w3.org/2000/svg">
<path d="M0 125C0 55.9644 55.9644 0 125 0C194.036 0 250 55.9644 250 125C250 194.036 194.036 250 125 250C55.9644 250 0 194.036 0 125Z" fill="#256AF4"/>
<path fill-rule="evenodd" clip-rule="evenodd" d="M153.048 146.079C153.048 146.791 152.763 147.474 152.253 147.981C151.743 148.487 151.051 148.776 150.326 148.785H149.058C147.435 148.783 145.88 148.15 144.732 147.024C143.585 145.898 142.94 144.371 142.938 142.778V98.9281C142.878 98.5429 142.904 98.1497 143.014 97.7753C143.124 97.4009 143.315 97.0542 143.573 96.7588C143.832 96.4635 144.153 96.2265 144.514 96.064C144.874 95.9015 145.267 95.8174 145.664 95.8174C146.06 95.8174 146.453 95.9015 146.813 96.064C147.174 96.2265 147.495 96.4635 147.754 96.7588C148.012 97.0542 148.203 97.4009 148.313 97.7753C148.423 98.1497 148.449 98.5429 148.389 98.9281V142.751C148.389 142.93 148.462 143.102 148.591 143.229C148.72 143.356 148.896 143.427 149.079 143.427H150.347C150.707 143.426 151.064 143.496 151.397 143.632C151.73 143.768 152.033 143.968 152.286 144.22C152.539 144.472 152.739 144.771 152.874 145.099C153.008 145.428 153.074 145.779 153.069 146.133L153.048 146.079ZM127.437 113.352C127.953 112.852 128.649 112.572 129.375 112.572C130.09 112.581 130.773 112.866 131.275 113.367C131.777 113.867 132.057 114.542 132.055 115.244V146.119C132.074 146.481 132.017 146.842 131.889 147.182C131.761 147.522 131.564 147.832 131.309 148.095C131.055 148.357 130.749 148.566 130.41 148.709C130.071 148.852 129.706 148.925 129.337 148.925C128.967 148.925 128.602 148.852 128.263 148.709C127.924 148.566 127.618 148.357 127.364 148.095C127.109 147.832 126.912 147.522 126.784 147.182C126.656 146.842 126.599 146.481 126.618 146.119V143.508C123.693 146.376 119.869 148.192 115.763 148.662V151.477C115.763 152.194 115.472 152.883 114.955 153.39C114.438 153.898 113.737 154.183 113.006 154.183C112.275 154.183 111.574 153.898 111.057 153.39C110.54 152.883 110.249 152.194 110.249 151.477V148.487C106.013 147.714 102.185 145.511 99.4307 142.259C96.676 139.007 95.1679 134.911 95.1679 130.681C95.1679 126.452 96.676 122.356 99.4307 119.104C102.185 115.852 106.013 113.649 110.249 112.876V109.961C110.249 109.243 110.54 108.555 111.057 108.047C111.574 107.54 112.275 107.255 113.006 107.255C113.737 107.255 114.438 107.54 114.955 108.047C115.472 108.555 115.763 109.243 115.763 109.961V112.714C119.869 113.185 123.693 115.001 126.618 117.869V115.244C126.627 114.532 126.921 113.853 127.437 113.352ZM113.64 143.447C114.363 143.447 115.084 143.388 115.797 143.271H115.77C118.981 142.732 121.869 141.031 123.864 138.503C125.859 135.975 126.815 132.805 126.544 129.619C126.273 126.432 124.794 123.462 122.4 121.294C120.006 119.126 116.87 117.918 113.612 117.909C112.488 117.91 111.369 118.056 110.284 118.342C107.518 119.071 105.074 120.674 103.331 122.905C101.588 125.135 100.644 127.867 100.644 130.678C100.644 133.489 101.588 136.221 103.331 138.452C105.074 140.682 107.518 142.286 110.284 143.014C111.378 143.303 112.507 143.449 113.64 143.447ZM87.3676 116.807C87.3932 116.711 87.4115 116.614 87.4228 116.516C87.4228 116.394 87.4228 116.306 87.4503 116.151C87.4537 116.11 87.4537 116.069 87.4503 116.029V115.894C87.4503 115.862 87.4519 115.83 87.4534 115.8C87.4566 115.739 87.4594 115.681 87.4503 115.623C87.4446 115.587 87.4343 115.551 87.4241 115.515C87.4095 115.464 87.3952 115.414 87.3952 115.366C87.3773 115.285 87.352 115.206 87.3194 115.129C87.2921 115.041 87.2575 114.955 87.216 114.872C87.1811 114.802 87.142 114.734 87.0989 114.669C87.0522 114.59 87.0017 114.513 86.9473 114.439C86.8982 114.373 86.8453 114.31 86.7888 114.25C86.7683 114.23 86.7478 114.209 86.7272 114.188C86.6852 114.145 86.6419 114.101 86.5957 114.06C86.5346 114.005 86.4701 113.953 86.4027 113.905L86.1753 113.749L85.9616 113.641C85.8705 113.596 85.776 113.557 85.6791 113.526C85.6413 113.507 85.6021 113.491 85.5619 113.479H85.4517L85.1622 113.424H84.8934H84.7693H84.6384C84.5413 113.429 84.4445 113.44 84.349 113.458C84.2628 113.467 84.1776 113.483 84.0939 113.506L83.8458 113.58L83.5978 113.681C83.5206 113.715 83.4467 113.756 83.3772 113.803C83.2996 113.844 83.2257 113.892 83.1567 113.945C83.1106 113.977 83.0647 114.014 83.0188 114.052C82.9958 114.071 82.9729 114.09 82.9499 114.108L82.7707 114.283C82.7096 114.348 82.652 114.416 82.5983 114.487L82.4261 114.71L82.302 114.94C82.2857 114.972 82.2727 115.01 82.2598 115.048C82.2401 115.105 82.2209 115.161 82.1918 115.19C82.1435 115.237 82.1435 115.271 82.1435 115.318L74.0316 141.546C73.8447 142.111 73.4734 142.6 72.9752 142.938C72.4769 143.275 71.8794 143.442 71.2748 143.413C70.6702 143.442 70.0727 143.275 69.5744 142.938C69.0761 142.6 68.7049 142.111 68.518 141.546L60.351 115.318C60.256 114.972 60.091 114.648 59.8659 114.366C59.6407 114.084 59.36 113.849 59.0404 113.675C58.7208 113.502 58.3689 113.393 58.0056 113.356C57.6423 113.319 57.2751 113.353 56.9258 113.458C56.5766 113.563 56.2524 113.736 55.9726 113.966C55.6928 114.197 55.4631 114.48 55.2971 114.8C55.1312 115.119 55.0324 115.468 55.0067 115.826C54.981 116.183 55.0289 116.542 55.1475 116.881L63.3007 143.115C63.8121 144.776 64.863 146.226 66.2929 147.245C67.7228 148.263 69.4532 148.795 71.2197 148.757C72.9882 148.797 74.7212 148.266 76.1538 147.247C77.5862 146.228 78.6395 144.777 79.1524 143.115L87.3676 116.915V116.807ZM193.89 131.182C193.962 131.134 194.029 131.079 194.09 131.02C194.174 130.968 194.255 130.912 194.331 130.851C194.388 130.791 194.441 130.727 194.49 130.661C194.545 130.592 194.595 130.519 194.642 130.445C194.656 130.42 194.669 130.396 194.683 130.372C194.711 130.324 194.738 130.276 194.766 130.221L194.869 129.985C194.879 129.955 194.885 129.925 194.89 129.895C194.9 129.841 194.91 129.786 194.945 129.734C195 129.653 195 129.579 195 129.484V129.207V129.071V128.936V128.808C194.077 119.547 186.668 112.572 177.708 112.572C174.5 112.57 171.346 113.39 168.559 114.95C165.772 116.51 163.447 118.757 161.815 121.468C160.183 124.179 159.299 127.262 159.251 130.411C159.203 133.56 159.993 136.666 161.542 139.424C163.091 142.182 165.346 144.496 168.084 146.137C170.822 147.779 173.949 148.691 177.156 148.783C180.363 148.876 183.54 148.146 186.371 146.666C189.204 145.185 191.593 143.006 193.305 140.342C193.514 140.046 193.66 139.711 193.734 139.358C193.808 139.005 193.809 138.641 193.736 138.287C193.663 137.934 193.518 137.599 193.31 137.302C193.101 137.005 192.834 136.753 192.524 136.56C192.213 136.368 191.866 136.238 191.504 136.181C191.141 136.123 190.771 136.138 190.414 136.224C190.058 136.311 189.723 136.467 189.429 136.684C189.136 136.901 188.891 137.174 188.708 137.487C187.497 139.359 185.81 140.889 183.814 141.927C181.818 142.965 179.58 143.475 177.322 143.407C175.064 143.339 172.863 142.695 170.936 141.538C169.008 140.381 167.421 138.752 166.33 136.811C165.238 134.869 164.681 132.682 164.712 130.465C164.743 128.248 165.362 126.077 166.507 124.165C167.652 122.254 169.285 120.668 171.244 119.564C173.203 118.46 175.421 117.876 177.68 117.869C182.843 117.869 187.267 121.359 188.921 126.345H171.554C171.185 126.327 170.816 126.382 170.47 126.508C170.124 126.634 169.808 126.828 169.541 127.077C169.273 127.327 169.06 127.627 168.915 127.96C168.769 128.293 168.694 128.652 168.694 129.014C168.694 129.376 168.769 129.735 168.915 130.067C169.06 130.4 169.273 130.701 169.541 130.95C169.808 131.2 170.124 131.394 170.47 131.519C170.816 131.645 171.185 131.701 171.554 131.683H192.264H192.402H192.533H192.664C192.759 131.672 192.854 131.654 192.946 131.629L193.194 131.554L193.442 131.453L193.67 131.331C193.746 131.285 193.82 131.236 193.89 131.182Z" fill="white"/>
</svg>
