<svg width="250" height="250" viewBox="0 0 250 250" fill="none" xmlns="http://www.w3.org/2000/svg">
<mask id="path-1-inside-1_453_566" fill="white">
<path d="M0 125C0 55.9644 55.9644 0 125 0C194.036 0 250 55.9644 250 125C250 194.036 194.036 250 125 250C55.9644 250 0 194.036 0 125Z"/>
</mask>
<path d="M0 125C0 55.9644 55.9644 0 125 0C194.036 0 250 55.9644 250 125C250 194.036 194.036 250 125 250C55.9644 250 0 194.036 0 125Z" fill="white"/>
<path d="M0 125M250 125M250 125M0 125M125 0M250 125M125 250M0 125M125 250V248C57.069 248 2 192.931 2 125H0H-2C-2 195.14 54.8598 252 125 252V250ZM250 125H248C248 192.931 192.931 248 125 248V250V252C195.14 252 252 195.14 252 125H250ZM125 0V2C192.931 2 248 57.069 248 125H250H252C252 54.8598 195.14 -2 125 -2V0ZM125 0V-2C54.8598 -2 -2 54.8598 -2 125H0H2C2 57.069 57.069 2 125 2V0Z" fill="#DDDBDB" mask="url(#path-1-inside-1_453_566)"/>
<path d="M125.042 136.364C132.33 142.023 140.29 147.718 147.73 153.255C154.028 157.942 161.011 163.365 167.393 167.852L82.5948 167.855C83.3771 167.201 85.0153 166.093 85.9217 165.417L125.042 136.364Z" fill="#263AD5"/>
<path d="M153.499 136.39C160.595 136.297 167.917 136.393 175.03 136.379C175.46 137.235 176.399 138.617 176.955 139.494L181.07 145.911C185.77 153.185 190.414 160.494 195 167.839C186.872 167.943 177.802 167.96 169.69 167.835C168.351 164.729 166.334 161.312 164.811 158.257C161.175 150.966 157.061 143.69 153.499 136.39Z" fill="#263AD5"/>
<path d="M75.0479 136.336C77.5481 136.458 80.4068 136.391 82.9483 136.392L96.5663 136.385C92.3635 144.288 88.3548 152.319 84.177 160.238C82.9252 162.61 81.3375 165.368 80.3752 167.838L76.7598 167.86L55 167.855L75.0479 136.336Z" fill="#263AD5"/>
<path d="M125.007 58.0781C125.33 58.3062 145.474 90.0542 147.055 92.6703C141.664 92.6153 136.174 92.6707 130.774 92.6713C129.077 89.05 126.755 85.2914 125.146 81.6934C124.569 82.0024 119.859 91.4424 119.295 92.673L102.954 92.6696C105.477 88.4499 108.5 83.9203 111.158 79.7402L125.007 58.0781Z" fill="#263AD5"/>
<path d="M134.65 100.041L147.408 103.337C149.415 103.849 153.498 104.776 155.29 105.489C156.122 106.988 157.671 109.248 158.628 110.744L165.123 120.913C166.115 122.468 167.655 124.731 168.464 126.314C163.293 124.749 157.516 123.582 152.279 122.119C150.312 121.57 146.785 120.867 145.098 120.06C144.192 118.776 142.042 114.406 141.195 112.736C139.054 108.512 136.752 104.265 134.65 100.041Z" fill="#263AD5"/>
<path d="M115.03 100.149C115.125 100.147 115.129 100.177 115.24 100.243C115.137 100.715 114.049 102.615 113.76 103.153C110.777 108.711 108.088 114.537 104.98 120.022C103.458 120.754 97.7101 122.15 95.7074 122.629C91.2431 123.697 86.3404 125.189 81.8984 126.122L81.7082 126.108C81.7399 125.75 93.4096 107.569 94.7152 105.561C96.0744 104.893 100.953 103.737 102.665 103.32C106.755 102.324 110.953 101.113 115.03 100.149Z" fill="#263AD5"/>
</svg>
