<svg width="250" height="250" viewBox="0 0 250 250" fill="none" xmlns="http://www.w3.org/2000/svg">
<path d="M0 125C0 55.9644 55.9644 0 125 0C194.036 0 250 55.9644 250 125C250 194.036 194.036 250 125 250C55.9644 250 0 194.036 0 125Z" fill="white"/>
<path d="M194.937 129.361L116.195 50.6194V62.7054L182.851 129.361L182.876 129.387L125.139 187.124L125.07 187.054L67.3704 129.361L67.3198 129.311L95.6448 100.986H83.3502L55 129.336L55.0253 129.361L125.044 199.38L125.07 199.355L195 129.425L194.937 129.361Z" fill="#FE6309"/>
<path d="M116.169 71.0239V83.1099L162.446 129.387L125.164 166.669L87.8508 129.361L87.8003 129.311L116.125 100.986H103.831L75.4804 129.336L75.5057 129.361L118.989 172.844L125.07 178.925L131.252 172.75L174.57 129.425L116.169 71.0239Z" fill="#FE6309"/>
<path d="M154.159 129.362L131.068 106.245L124.924 100.101L118.881 106.144L95.67 129.336L118.894 152.56L124.975 158.641L131.144 152.465L154.223 129.425L154.159 129.362ZM125.082 146.429L108.015 129.362L107.965 129.311L124.987 112.288L142.054 129.355L125.082 146.429Z" fill="#FE6309"/>
</svg>
