<svg width="250" height="250" viewBox="0 0 250 250" fill="none" xmlns="http://www.w3.org/2000/svg">
<path d="M0 125C0 55.9644 55.9644 0 125 0C194.036 0 250 55.9644 250 125C250 194.036 194.036 250 125 250C55.9644 250 0 194.036 0 125Z" fill="white"/>
<path fill-rule="evenodd" clip-rule="evenodd" d="M138.79 60.0005C139.532 60.0005 140.212 60.383 140.583 61.0244L186.118 139.692C186.291 140.001 186.39 140.358 186.39 140.716C186.39 141.851 185.463 142.776 184.325 142.776H146.74C145.998 142.788 145.318 142.393 144.947 141.752L111.787 84.4471C111.602 84.1388 111.342 83.8797 111.033 83.6947C110.044 83.1273 108.783 83.4604 108.214 84.4471L82.4235 129.011C82.2505 129.319 82.1515 129.677 82.1515 130.034C82.1515 131.169 83.0788 132.094 84.2163 132.094C84.2163 132.094 120.988 132.14 121.795 132.146C121.808 132.146 121.822 132.147 121.835 132.149L123.751 132.15C124.492 132.151 125.164 132.548 125.535 133.19L129.178 139.702C129.747 140.687 129.41 141.953 128.427 142.521C128.118 142.7 127.758 142.793 127.405 142.797L97.4774 142.788H65.6707C65.3121 142.788 64.9536 142.689 64.6445 142.517C63.6554 141.949 63.3092 140.691 63.8779 139.705L108.214 63.0841C108.4 62.7758 108.659 62.5167 108.968 62.3317C109.958 61.7643 111.219 62.0974 111.787 63.0841L151.154 131.083C151.512 131.712 152.192 132.107 152.934 132.107H165.792C166.151 132.107 166.509 132.02 166.818 131.835C167.807 131.268 168.154 130.01 167.585 129.023L129.715 63.0841C129.542 62.7758 129.443 62.4182 129.443 62.0604C129.443 60.9257 130.37 60.0007 131.508 60.0005H138.79Z" fill="url(#paint0_linear_3_984)"/>
<path fill-rule="evenodd" clip-rule="evenodd" d="M166.329 159.632V174.536H171.214V159.632H175.934V155.216H161.582V159.632H166.329Z" fill="black" fill-opacity="0.752491"/>
<path fill-rule="evenodd" clip-rule="evenodd" d="M144.343 174.536L143.212 172.107H135.594L134.463 174.536H129.633V173.818L138.327 154.968H140.452L149.173 173.818V174.536H144.343ZM141.611 167.884L139.375 162.806L137.195 167.884H141.611Z" fill="black" fill-opacity="0.752491"/>
<path fill-rule="evenodd" clip-rule="evenodd" d="M110.21 155.216H105.242V174.536H117.22V170.092H110.21V155.216Z" fill="black" fill-opacity="0.752491"/>
<path fill-rule="evenodd" clip-rule="evenodd" d="M88.0032 174.536L86.8716 172.107H79.2543L78.1228 174.536H73.293V173.818L81.9866 154.968H84.1118L92.833 173.818V174.536H88.0032ZM85.2709 167.884L83.0354 162.806L80.8551 167.884H85.2709Z" fill="black" fill-opacity="0.752491"/>
<path fill-rule="evenodd" clip-rule="evenodd" d="M151.12 186.043C151.12 186.42 151.067 186.76 150.961 187.061C150.854 187.363 150.711 187.617 150.53 187.821C150.339 188.034 150.128 188.194 149.899 188.301C149.67 188.407 149.418 188.46 149.143 188.46C148.887 188.46 148.664 188.43 148.472 188.369C148.281 188.309 148.092 188.227 147.906 188.125L147.858 188.335H147.146V182.044H147.906V184.292C148.119 184.117 148.346 183.973 148.585 183.862C148.825 183.75 149.095 183.694 149.394 183.694C149.928 183.694 150.349 183.899 150.657 184.308C150.966 184.718 151.12 185.296 151.12 186.043ZM150.336 186.063C150.336 185.524 150.247 185.115 150.069 184.836C149.891 184.557 149.604 184.417 149.208 184.417C148.987 184.417 148.763 184.465 148.537 184.561C148.311 184.657 148.1 184.78 147.906 184.931V187.518C148.122 187.615 148.307 187.683 148.462 187.72C148.617 187.758 148.793 187.777 148.99 187.777C149.41 187.777 149.74 187.639 149.978 187.363C150.217 187.086 150.336 186.653 150.336 186.063ZM156.21 183.819L153.574 190.001H152.762L153.603 188.117L151.804 183.819H152.628L154.015 187.167L155.414 183.819H156.21ZM167.182 182.315L165.618 188.335H164.716L163.451 183.338L162.214 188.335H161.332L159.74 182.315H160.56L161.826 187.32L163.071 182.315H163.883L165.141 187.369L166.398 182.315H167.182ZM172.329 188.335H168.363V182.315H172.329V183.027H169.163V184.676H172.329V185.388H169.163V187.623H172.329V188.335ZM178.959 188.335H178.159V183.148L176.485 186.677H176.008L174.346 183.148V188.335H173.598V182.315H174.69L176.295 185.667L177.847 182.315H178.959V188.335ZM185.323 188.335H184.469L183.879 186.657H181.276L180.685 188.335H179.873L182.064 182.315H183.131L185.323 188.335ZM183.633 185.97L182.577 183.015L181.518 185.97H183.633Z" fill="black" fill-opacity="0.601053"/>
<defs>
<linearGradient id="paint0_linear_3_984" x1="63.604" y1="101.399" x2="186.39" y2="101.399" gradientUnits="userSpaceOnUse">
<stop stop-color="#CF0923"/>
<stop offset="1" stop-color="#43063C"/>
</linearGradient>
</defs>
</svg>
