<svg width="250" height="250" viewBox="0 0 250 250" fill="none" xmlns="http://www.w3.org/2000/svg">
<path d="M0 125C0 55.9644 55.9644 0 125 0C194.036 0 250 55.9644 250 125C250 194.036 194.036 250 125 250C55.9644 250 0 194.036 0 125Z" fill="white"/>
<path d="M192.004 149.575C192.896 151.361 193.043 153.429 192.411 155.323C191.78 157.218 190.422 158.784 188.636 159.678L128.364 194.205C127.318 194.728 126.165 195 124.996 195C123.827 195 122.674 194.728 121.629 194.205L61.3564 159.678C59.6332 158.749 58.3393 157.185 57.749 155.318C57.1586 153.452 57.3181 151.428 58.1937 149.677C59.0693 147.926 60.5921 146.584 62.4397 145.937C64.2873 145.289 66.3145 145.386 68.0918 146.207L124.996 179.032L181.909 146.199C183.695 145.307 185.763 145.161 187.657 145.792C189.552 146.424 191.118 147.781 192.012 149.567M125.057 54.9999C125.338 54.9999 125.617 55.0175 125.893 55.0526L126.729 55.2033L127.377 55.3841L127.468 55.4293L127.558 55.4444L127.776 55.5499L128.153 55.693L128.274 55.7608L128.364 55.7985L188.636 90.326C189.886 90.9523 190.937 91.9141 191.671 93.1036C192.406 94.2931 192.795 95.6635 192.795 97.0614C192.795 98.4593 192.406 99.8297 191.671 101.019C190.937 102.209 189.886 103.17 188.636 103.797L128.364 138.324C127.318 138.847 126.165 139.119 124.996 139.119C123.827 139.119 122.674 138.847 121.629 138.324L61.3564 103.797C60.1066 103.17 59.0558 102.209 58.3214 101.019C57.5871 99.8297 57.1981 98.4593 57.1981 97.0614C57.1981 95.6635 57.5871 94.2931 58.3214 93.1036C59.0558 91.9141 60.1066 90.9523 61.3564 90.326L121.629 55.7985L121.712 55.7608L121.847 55.6855L122.435 55.4444L122.518 55.4293L122.616 55.3841L123.264 55.2033L124.092 55.0526L124.514 55.0149L125.057 54.9999Z" fill="#509DFD"/>
<path d="M192.012 121.627C192.905 123.414 193.051 125.482 192.419 127.376C191.788 129.27 190.43 130.837 188.645 131.731L128.372 166.258C127.327 166.781 126.174 167.053 125.005 167.053C123.836 167.053 122.683 166.781 121.637 166.258L61.3646 131.731C59.6413 130.801 58.3475 129.238 57.7571 127.371C57.1668 125.504 57.3263 123.481 58.2019 121.73C59.0774 119.979 60.6003 118.637 62.4479 117.989C64.2955 117.342 66.3226 117.439 68.1 118.26L124.997 151.092L181.909 118.26C183.696 117.367 185.763 117.221 187.658 117.853C189.552 118.484 191.118 119.842 192.012 121.627Z" fill="#0079CD"/>
</svg>
