<svg width="250" height="250" viewBox="0 0 250 250" fill="none" xmlns="http://www.w3.org/2000/svg">
<mask id="path-1-inside-1_453_516" fill="white">
<path d="M0 125C0 55.9644 55.9644 0 125 0C194.036 0 250 55.9644 250 125C250 194.036 194.036 250 125 250C55.9644 250 0 194.036 0 125Z"/>
</mask>
<path d="M0 125C0 55.9644 55.9644 0 125 0C194.036 0 250 55.9644 250 125C250 194.036 194.036 250 125 250C55.9644 250 0 194.036 0 125Z" fill="white"/>
<path d="M0 125M250 125M250 125M0 125M125 0M250 125M125 250M0 125M125 250V248C57.069 248 2 192.931 2 125H0H-2C-2 195.14 54.8598 252 125 252V250ZM250 125H248C248 192.931 192.931 248 125 248V250V252C195.14 252 252 195.14 252 125H250ZM125 0V2C192.931 2 248 57.069 248 125H250H252C252 54.8598 195.14 -2 125 -2V0ZM125 0V-2C54.8598 -2 -2 54.8598 -2 125H0H2C2 57.069 57.069 2 125 2V0Z" fill="#DDDBDB" mask="url(#path-1-inside-1_453_516)"/>
<path d="M192.003 149.575C192.895 151.361 193.042 153.429 192.41 155.323C191.779 157.218 190.421 158.784 188.636 159.678L128.363 194.205C127.318 194.728 126.165 195 124.996 195C123.827 195 122.674 194.728 121.628 194.205L61.3555 159.678C59.6323 158.749 58.3385 157.185 57.7481 155.318C57.1578 153.452 57.3173 151.428 58.1929 149.677C59.0684 147.926 60.5913 146.585 62.4389 145.937C64.2864 145.289 66.3136 145.386 68.091 146.207L124.996 179.032L181.908 146.2C183.694 145.307 185.762 145.161 187.656 145.792C189.551 146.424 191.117 147.782 192.011 149.567M125.056 55C125.337 55 125.616 55.0176 125.892 55.0527L126.728 55.2034L127.376 55.3842L127.467 55.4294L127.557 55.4445L127.776 55.55L128.152 55.6931L128.273 55.7609L128.363 55.7986L188.636 90.3261C189.885 90.9525 190.936 91.9142 191.671 93.1037C192.405 94.2932 192.794 95.6636 192.794 97.0615C192.794 98.4595 192.405 99.8298 191.671 101.019C190.936 102.209 189.885 103.171 188.636 103.797L128.363 138.324C127.318 138.847 126.165 139.119 124.996 139.119C123.827 139.119 122.674 138.847 121.628 138.324L61.3555 103.797C60.1058 103.171 59.055 102.209 58.3206 101.019C57.5862 99.8298 57.1973 98.4595 57.1973 97.0615C57.1973 95.6636 57.5862 94.2932 58.3206 93.1037C59.055 91.9142 60.1058 90.9525 61.3555 90.3261L121.628 55.7986L121.711 55.7609L121.846 55.6856L122.434 55.4445L122.517 55.4294L122.615 55.3842L123.263 55.2034L124.091 55.0527L124.513 55.0151L125.056 55Z" fill="#509DFD"/>
<path d="M192.011 121.628C192.904 123.414 193.05 125.482 192.419 127.376C191.787 129.271 190.429 130.837 188.644 131.731L128.371 166.258C127.326 166.781 126.173 167.053 125.004 167.053C123.835 167.053 122.682 166.781 121.636 166.258L61.3637 131.731C59.6405 130.801 58.3466 129.238 57.7563 127.371C57.1659 125.504 57.3254 123.481 58.201 121.73C59.0766 119.979 60.5995 118.637 62.447 117.99C64.2946 117.342 66.3218 117.439 68.0991 118.26L124.996 151.092L181.908 118.26C183.695 117.368 185.762 117.221 187.657 117.853C189.551 118.484 191.118 119.842 192.011 121.628Z" fill="#0079CD"/>
</svg>
