<svg width="250" height="250" viewBox="0 0 250 250" fill="none" xmlns="http://www.w3.org/2000/svg">
<path d="M0 125C0 55.9644 55.9644 0 125 0C194.036 0 250 55.9644 250 125C250 194.036 194.036 250 125 250C55.9644 250 0 194.036 0 125Z" fill="white"/>
<path opacity="0.7" d="M66.4641 89.9994V159.999H105.194L66.4641 89.9994Z" fill="#5D2ECE"/>
<path opacity="0.7" d="M124.998 54.9999L66.464 89.9998H144.363L124.998 54.9999Z" fill="#5D2ECE"/>
<path d="M183.53 89.9996L124.996 54.9998L144.36 89.9996H183.53Z" fill="#5D2ECE"/>
<path opacity="0.7" d="M124.998 195L183.533 160H105.194L124.998 195Z" fill="#5D2ECE"/>
<path opacity="0.7" d="M144.367 89.9994L183.536 159.999V89.9994H144.367Z" fill="#5D2ECE"/>
<path d="M66.4641 160L124.998 195L105.194 160H66.4641Z" fill="#5D2ECE"/>
</svg>
