<svg width="250" height="250" viewBox="0 0 250 250" fill="none" xmlns="http://www.w3.org/2000/svg">
<mask id="path-1-inside-1_453_526" fill="white">
<path d="M0 125C0 55.9644 55.9644 0 125 0C194.036 0 250 55.9644 250 125C250 194.036 194.036 250 125 250C55.9644 250 0 194.036 0 125Z"/>
</mask>
<path d="M0 125C0 55.9644 55.9644 0 125 0C194.036 0 250 55.9644 250 125C250 194.036 194.036 250 125 250C55.9644 250 0 194.036 0 125Z" fill="white"/>
<path d="M0 125M250 125M250 125M0 125M125 0M250 125M125 250M0 125M125 250V248C57.069 248 2 192.931 2 125H0H-2C-2 195.14 54.8598 252 125 252V250ZM250 125H248C248 192.931 192.931 248 125 248V250V252C195.14 252 252 195.14 252 125H250ZM125 0V2C192.931 2 248 57.069 248 125H250H252C252 54.8598 195.14 -2 125 -2V0ZM125 0V-2C54.8598 -2 -2 54.8598 -2 125H0H2C2 57.069 57.069 2 125 2V0Z" fill="#DDDBDB" mask="url(#path-1-inside-1_453_526)"/>
<path opacity="0.7" d="M66.4648 90V160H105.194L66.4648 90Z" fill="#5D2ECE"/>
<path opacity="0.7" d="M124.999 55L66.4648 89.9999H144.364L124.999 55Z" fill="#5D2ECE"/>
<path d="M183.53 89.9999L124.996 55L144.361 89.9999H183.53Z" fill="#5D2ECE"/>
<path opacity="0.7" d="M125 195L183.535 160H105.195L125 195Z" fill="#5D2ECE"/>
<path opacity="0.7" d="M144.367 90L183.537 159.999V90H144.367Z" fill="#5D2ECE"/>
<path d="M66.4648 160L124.999 195L105.194 160H66.4648Z" fill="#5D2ECE"/>
</svg>
