<svg width="250" height="250" viewBox="0 0 250 250" fill="none" xmlns="http://www.w3.org/2000/svg">
<path d="M0 125C0 55.9644 55.9644 0 125 0C194.036 0 250 55.9644 250 125C250 194.036 194.036 250 125 250C55.9644 250 0 194.036 0 125Z" fill="white"/>
<path d="M55 92.3232C55.5969 90.52 60.2559 81.5867 61.8608 81.2042C81.3931 76.5488 102.756 86.8494 111.545 104.89C111.663 105.133 111.747 105.335 111.821 105.584C113.559 109.928 115.091 113.894 115.741 118.554C115.793 118.926 115.9 119.556 115.998 119.908C116.31 121.348 116.215 128.433 116.127 130.212C115.66 130.162 112.644 129.162 112.022 128.916C110.705 128.395 109.205 128.163 108.06 127.786C106.421 127.246 102.95 127.191 101.807 126.78L101.651 126.436C101.565 125.444 101.549 124.448 101.604 123.454C101.092 123.445 100.485 123.514 99.9601 123.529C95.2728 123.665 90.3821 123.176 85.8501 121.871C76.2592 119.184 67.8308 113.391 61.8863 105.4C59.9984 102.825 58.9359 100.848 57.4021 98.0705C56.459 96.1079 55.7663 94.3632 55 92.3232ZM96.748 108.958C96.5156 108.43 95.5049 107.093 95.1244 106.61C90.669 100.927 84.3376 97.0132 77.262 95.5687C75.7387 95.2512 74.2229 95.1421 72.6777 94.9591C72.8727 95.5337 73.8321 96.6261 74.2458 97.1454C77.339 101.029 80.5553 103.608 84.9949 105.811C89.4219 108.007 92.1043 108.192 96.748 108.958Z" fill="#65CCEF"/>
<path d="M57.4021 98.0704C58.2351 97.9212 60.0288 96.9599 60.9599 96.6292C64.0111 95.5459 69.4863 94.3774 72.6777 94.9591C72.8728 95.5337 73.8322 96.626 74.2458 97.1454C77.3391 101.029 80.5553 103.608 84.995 105.811C89.4219 108.007 92.1043 108.192 96.748 108.958C99.6971 112.298 100.984 118.429 101.614 122.702L101.604 123.454C101.092 123.445 100.485 123.514 99.9602 123.529C95.2729 123.665 90.3821 123.176 85.8502 121.871C76.2592 119.184 67.8308 113.391 61.8863 105.399C59.9984 102.825 58.936 100.848 57.4021 98.0704Z" fill="#00AEEA"/>
<path d="M101.614 122.702C102.157 123.009 104.676 122.945 105.352 122.88C103.964 123.169 102.931 123.226 101.604 123.454L101.614 122.702Z" fill="#4DBDE8"/>
<path d="M138.213 105.562C139.611 101.064 145.859 93.6774 149.431 90.7158C158.727 83.0087 170.635 78.9259 182.768 80.0623C184.926 80.2688 187.91 80.2481 189.206 81.9075C190.296 83.3007 194.922 90.749 194.637 92.1344C193.65 96.9385 188.909 104.36 185.892 107.906C184.159 109.926 182.241 111.779 180.163 113.441C173.166 119.033 164.677 122.443 155.756 123.245C153.362 123.448 150.76 123.387 148.359 123.33C145.079 122.848 142.224 122.46 139.032 121.531C137.561 121.102 135.447 120.158 134.08 119.869C133.704 119.636 133.24 119.419 132.836 119.231C130.03 117.92 127.522 116.332 124.97 114.585C129.277 111.059 131.924 108.522 135.199 103.896C136.256 104.427 137.189 104.967 138.213 105.562ZM177.402 94.6344C175.685 94.8326 173.848 95.0179 172.17 95.4018C164.857 97.0753 159.138 101.151 154.515 106.968L153.091 108.793C162.637 107.835 172.412 103.19 177.402 94.6344Z" fill="#65CCEF"/>
<path d="M138.213 105.562C139.611 101.064 145.859 93.6774 149.431 90.7158C158.727 83.0087 170.635 78.9259 182.768 80.0623C182.516 80.1148 182.263 80.106 182.199 80.2808C182.033 80.7389 181.878 81.927 181.836 82.427C181.678 84.3026 181.395 85.4716 180.84 87.2635C180.284 89.0926 179.542 90.8595 178.625 92.5368C178.33 93.0796 177.612 94.1481 177.402 94.6344C175.685 94.8326 173.848 95.0179 172.17 95.4018C164.857 97.0753 159.138 101.151 154.515 106.968L153.091 108.793C148.543 109.199 142.23 107.72 138.213 105.562Z" fill="#00AEEA"/>
<path d="M124.947 135.592C125.448 135.313 126.914 134.177 127.532 133.759C129.603 132.339 131.826 131.154 134.158 130.224C134.632 133.556 135.235 136.369 136.329 139.574C136.884 141.203 137.751 142.955 138.269 144.485C137.481 145.148 136.242 145.596 135.276 146.3C136.392 147.407 137.263 148.947 137.991 150.334C145.985 165.569 144.802 182.652 135.572 197C134.491 198.618 132.769 201.272 131.098 202.271H119.131C118.188 201.484 117.146 200.141 116.399 199.166C104.968 184.252 103.664 161.99 114.751 146.359C114.836 146.158 115.658 145.068 115.842 144.814C118.473 141.181 121.541 138.426 124.947 135.592ZM125.285 185.629C128.605 177.282 129.801 171.195 127.037 162.254C126.508 160.54 125.801 159.159 125.159 157.519C123.981 159.652 123.115 162.519 122.555 164.873C120.835 172.098 121.957 179.019 125.285 185.629Z" fill="#65CCEF"/>
<path d="M125.159 157.519C126.639 153.765 131.718 148.291 135.276 146.3C136.392 147.407 137.264 148.947 137.991 150.334C145.985 165.569 144.802 182.652 135.572 196.999C135.041 196.533 133.608 195.669 132.778 194.977C130.289 192.905 126.337 188.715 125.285 185.629C128.606 177.281 129.801 171.195 127.037 162.254C126.508 160.54 125.801 159.158 125.159 157.519Z" fill="#00AEEA"/>
<path d="M101.651 126.436L101.807 126.78C102.95 127.191 106.421 127.246 108.06 127.786C109.205 128.163 110.705 128.395 112.022 128.916C112.644 129.162 115.66 130.162 116.127 130.212C116.733 131.013 123.423 133.443 124.947 135.592C121.541 138.426 118.473 141.181 115.842 144.814C115.658 145.068 114.836 146.158 114.751 146.359C114.025 145.779 112.688 145.042 111.841 144.551C106.877 155.219 97.8496 163.458 86.7729 167.429C79.6288 170.035 75.3462 170.06 68.0132 170.055C65.7307 169.899 63.8844 169.784 61.7056 169.085C59.2933 166.259 56.8575 161.692 55.2935 158.293C56.8533 152.434 61.3495 144.998 65.5611 140.61C72.6991 133.174 81.9514 128.497 92.175 127.073C95.4579 126.616 98.2557 126.8 101.471 126.732L101.651 126.436ZM97.0038 141.396C96.3446 141.292 95.156 141.577 94.466 141.663C86.111 142.697 78.4083 147.466 73.523 154.29C73.2312 154.698 72.8756 155.102 72.6564 155.551C74.5535 155.219 76.3821 155.094 78.2915 154.634C84.5449 153.129 90.4754 149.428 94.5598 144.455C95.3906 143.444 96.197 142.418 97.0038 141.396Z" fill="#00AEEA"/>
<path d="M97.0038 141.397C102.416 141.046 107.008 142.235 111.841 144.551C106.877 155.219 97.8497 163.458 86.7729 167.429C79.6288 170.035 75.3462 170.06 68.0132 170.055C68.2579 164.896 69.8596 159.893 72.6565 155.551C74.5535 155.219 76.3821 155.094 78.2915 154.634C84.5449 153.129 90.4754 149.429 94.5598 144.455C95.3906 143.444 96.197 142.418 97.0038 141.397Z" fill="#65CCEF"/>
<path d="M134.08 119.869C135.447 120.158 137.561 121.102 139.032 121.531C142.224 122.461 145.079 122.848 148.359 123.33C148.595 124.342 148.533 125.659 148.539 126.726C150.178 126.385 152.607 126.543 154.31 126.612C170.461 127.265 185.738 137.276 192.634 151.982C193.42 153.461 194.607 156.347 195 157.943C194.185 159.906 189.798 168.307 188.243 168.868C184.549 170.201 175.524 169.863 171.734 169.334C169.543 169.007 167.379 168.514 165.262 167.86C155.257 164.708 146.665 158.162 140.971 149.352C139.995 147.847 139.107 146.084 138.269 144.484C137.751 142.955 136.885 141.203 136.329 139.574C135.235 136.369 134.632 133.556 134.158 130.224C133.677 126.777 133.514 123.317 134.08 119.869ZM177.654 155.228C177.042 154.523 176.187 153.25 175.502 152.432C169.387 145.125 162.706 142.139 153.478 141.205C153.31 141.726 154.378 142.625 154.718 143.109C159.479 149.878 169.305 155.198 177.654 155.228Z" fill="#00AEEA"/>
<path d="M148.54 126.726C150.178 126.385 152.608 126.543 154.31 126.612C170.461 127.265 185.738 137.276 192.635 151.982C189.121 153.595 181.343 156.018 177.655 155.228C177.042 154.523 176.187 153.25 175.503 152.432C169.387 145.125 162.706 142.139 153.478 141.205C151.521 139.839 149.549 133.34 149.076 131.034C148.817 129.775 148.671 128.04 148.54 126.726Z" fill="#65CCEF"/>
<path d="M118.777 48.0389C121.276 47.8616 130.339 47.1049 131.998 48.9029C145.069 63.0689 147.002 88.2193 135.199 103.896C131.924 108.523 129.277 111.059 124.97 114.585C122.825 116.28 121.004 117.416 118.575 118.667C118.031 118.947 116.325 119.699 115.998 119.908C115.9 119.556 115.793 118.926 115.741 118.554C115.091 113.894 113.559 109.928 111.821 105.584C112.534 105.172 114.151 104.285 114.718 103.811C111.835 100.37 108.932 92.7842 107.95 88.3108C105.173 75.6635 107.507 64.0256 114.517 53.1462C115.525 51.5607 117.258 49.1373 118.777 48.0389ZM124.869 92.5344C126.378 90.295 127.873 84.3836 128.066 81.643C128.424 76.5631 128.014 71.4916 125.953 66.7723C125.665 66.1134 125.232 65.0857 124.79 64.5495C124.15 66.2158 123.473 67.7049 122.941 69.4264C121.183 75.0544 121.11 81.0744 122.733 86.7432C123.332 88.7784 124.422 90.9851 124.869 92.5344Z" fill="#00AEEA"/>
<path d="M114.517 53.1461C118.016 55.4231 123.544 60.5381 124.79 64.5494C124.15 66.2157 123.473 67.7048 122.941 69.4263C121.183 75.0543 121.11 81.0743 122.733 86.7431C123.332 88.7783 124.422 90.985 124.869 92.5343C124.353 93.6266 123.601 94.9735 122.918 95.9576C121.552 97.9252 116.951 103.125 114.718 103.811C111.835 100.37 108.932 92.7841 107.95 88.3107C105.173 75.6634 107.507 64.0255 114.517 53.1461Z" fill="#65CCEF"/>
</svg>
