<svg width="250" height="250" viewBox="0 0 250 250" fill="none" xmlns="http://www.w3.org/2000/svg">
<mask id="path-1-inside-1_453_519" fill="white">
<path d="M0 125C0 55.9644 55.9644 0 125 0C194.036 0 250 55.9644 250 125C250 194.036 194.036 250 125 250C55.9644 250 0 194.036 0 125Z"/>
</mask>
<path d="M0 125C0 55.9644 55.9644 0 125 0C194.036 0 250 55.9644 250 125C250 194.036 194.036 250 125 250C55.9644 250 0 194.036 0 125Z" fill="white"/>
<path d="M0 125M250 125M250 125M0 125M125 0M250 125M125 250M0 125M125 250V248C57.069 248 2 192.931 2 125H0H-2C-2 195.14 54.8598 252 125 252V250ZM250 125H248C248 192.931 192.931 248 125 248V250V252C195.14 252 252 195.14 252 125H250ZM125 0V2C192.931 2 248 57.069 248 125H250H252C252 54.8598 195.14 -2 125 -2V0ZM125 0V-2C54.8598 -2 -2 54.8598 -2 125H0H2C2 57.069 57.069 2 125 2V0Z" fill="#DDDBDB" mask="url(#path-1-inside-1_453_519)"/>
<path d="M173.187 133.308L165.641 148.091L164.52 133.311H157.399L160.282 157.871H166.571L174.324 142.904L176.194 157.865H182.529L195 133.306H188.018L181.082 148.136L179.249 133.308H173.187Z" fill="#F78B00"/>
<path d="M127.627 126.03L121.494 145.629L112.711 126.03H106.408L96.5037 157.861H103.415L109.533 137.625L118.827 157.862H124.785L134.541 126.03H127.627Z" fill="#F78B00"/>
<path d="M142.035 158.232C134.486 158.232 129.574 152.638 130.427 145.636L130.439 145.545C130.959 142.004 132.741 138.77 135.457 136.439C138.173 134.107 141.639 132.835 145.218 132.857C152.767 132.857 157.679 138.45 156.825 145.453L156.814 145.544C156.294 149.085 154.511 152.319 151.796 154.65C149.08 156.981 145.614 158.253 142.035 158.231M149.997 145.544C150.435 141.955 148.225 138.815 144.405 138.815C142.604 138.835 140.874 139.527 139.555 140.755C138.237 141.983 137.424 143.659 137.275 145.454L137.264 145.545C136.826 149.134 139.036 152.274 142.855 152.274C144.657 152.254 146.387 151.562 147.705 150.334C149.024 149.106 149.837 147.431 149.986 145.635L149.997 145.544Z" fill="#F78B00"/>
<path d="M101.895 123.6L92.6 103.364L86.4791 123.6H79.5675L89.4027 91.7686H95.7771L104.559 111.368L110.69 91.7686H117.602L107.852 123.601L101.895 123.6Z" fill="#24272A"/>
<path d="M125.098 123.971C117.55 123.971 112.638 118.377 113.491 111.375L113.502 111.284C114.023 107.743 115.805 104.509 118.521 102.178C121.236 99.8461 124.703 98.5742 128.282 98.596C135.831 98.596 140.743 104.189 139.889 111.192L139.878 111.283C139.357 114.824 137.575 118.058 134.859 120.389C132.144 122.72 128.677 123.992 125.098 123.97M133.061 111.283C133.499 107.694 131.289 104.554 127.469 104.554C125.667 104.574 123.938 105.266 122.619 106.494C121.3 107.722 120.487 109.398 120.339 111.193L120.328 111.284C119.89 114.873 122.1 118.013 125.919 118.013C127.721 117.993 129.45 117.301 130.769 116.073C132.088 114.845 132.901 113.17 133.049 111.374L133.061 111.283Z" fill="#24272A"/>
<path d="M168.309 123.607H162.079L157.396 108.644L152.621 123.606H146.437L138.934 99.0457H145.937L149.849 113.825L154.447 99.0424H160.404L165.042 113.87L169.044 99.0457H175.9L168.309 123.607Z" fill="#24272A"/>
<path d="M71.3502 99.0603C70.5405 99.0603 69.7639 99.382 69.1913 99.9546C68.6187 100.527 68.297 101.304 68.297 102.113C68.297 102.923 68.6187 103.7 69.1913 104.272C69.7639 104.845 70.5405 105.167 71.3502 105.167H82.0725L83.9632 99.0603H71.3502Z" fill="#F78B00"/>
<path d="M58.0532 108.271C57.2434 108.271 56.4668 108.593 55.8943 109.165C55.3217 109.738 55 110.514 55 111.324C55 112.134 55.3217 112.91 55.8943 113.483C56.4668 114.055 57.2434 114.377 58.0532 114.377H79.2218L81.1092 108.271H58.0532Z" fill="#F78B00"/>
<path d="M61.4949 117.48C60.6851 117.48 59.9085 117.802 59.3359 118.374C58.7634 118.947 58.4417 119.724 58.4417 120.533C58.4417 121.343 58.7634 122.12 59.3359 122.692C59.9085 123.265 60.6851 123.587 61.4949 123.587H76.3788L78.2663 117.48H61.4949Z" fill="#F78B00"/>
</svg>
