<svg width="250" height="250" viewBox="0 0 250 250" fill="none" xmlns="http://www.w3.org/2000/svg">
<path d="M0 125C0 55.9644 55.9644 0 125 0C194.036 0 250 55.9644 250 125C250 194.036 194.036 250 125 250C55.9644 250 0 194.036 0 125Z" fill="white"/>
<path d="M122.929 112.897C129.563 112.117 135.576 116.857 136.368 123.49C137.16 130.122 132.432 136.144 125.8 136.948C119.152 137.755 113.111 133.011 112.317 126.361C111.523 119.711 116.277 113.679 122.929 112.897Z" fill="#05A753"/>
<path d="M151.175 113.393C166.296 112.272 168.728 132.863 154.931 136.445C149.245 137.267 143.216 134.12 142.072 128.125C140.754 121.216 143.799 114.727 151.175 113.393Z" fill="#05A753"/>
<path d="M95.1762 113.277C97.418 113.126 100.735 114.074 102.49 115.478C110.464 121.857 107.753 135.013 97.2098 136.584C93.9921 136.689 91.4199 136.183 88.8891 134.024C86.6724 132.125 85.2937 129.429 85.0518 126.52C84.5312 119.791 88.0576 113.835 95.1762 113.277Z" fill="#05A753"/>
<path d="M123.646 85.481C126.627 85.311 129.567 86.2326 131.918 88.0734C136.841 91.8599 137.399 98.0987 133.652 102.99C131.643 105.611 128.295 107.083 125.063 107.469C115.046 108.143 108.702 97.1349 115.443 89.2239C117.572 86.7261 120.393 85.6702 123.646 85.481Z" fill="#F48728"/>
<path d="M122.026 142.374C128.158 141.107 134.158 145.039 135.445 151.166C136.731 157.294 132.819 163.307 126.696 164.613C120.544 165.925 114.497 161.991 113.205 155.836C111.913 149.68 115.867 143.646 122.026 142.374Z" fill="#F48728"/>
<path d="M149.212 86.5951C158.35 85.7759 166.13 94.795 161.685 103.545C160.644 105.595 157.975 107.344 155.779 107.912C142.466 110.55 135.431 90.3389 149.212 86.5951Z" fill="#F48728"/>
<path d="M153.509 141.783C155.595 141.666 158.426 142.645 159.967 144.01C166.502 149.798 161.762 159.611 154.885 162.569C153.75 163.057 152.819 163.124 151.642 163.21C148.982 163.22 147.143 163.002 145.024 161.188C143.172 159.603 141.988 157.759 141.813 155.281C141.557 151.66 142.341 148.64 144.74 145.866C147.167 143.06 149.908 142.046 153.509 141.783Z" fill="#F48728"/>
<path d="M97.3182 86.761C101.924 86.036 106.57 89.4789 107.076 94.1745C107.834 101.194 103.21 106.966 96.2492 107.899C91.339 108.307 86.9393 105.492 86.3502 100.349C85.9525 97.0679 86.8883 93.7643 88.9477 91.1791C91.2352 88.3405 93.7476 87.1389 97.3182 86.761Z" fill="#05A753"/>
<path d="M93.3979 142.192C108.494 140.919 111.696 159.85 100.464 162.924C86.269 165.739 80.6584 144.767 93.3979 142.192Z" fill="#05A753"/>
<path d="M122.469 64.9426C125.87 64.7186 129.155 65.2753 132.057 67.1534C136.883 70.2779 136.019 76.1563 131.469 78.9253C129.887 79.8876 128.686 80.2163 126.869 80.5366C123.476 81.0391 119.831 80.6067 116.925 78.5972C113.507 76.2341 112.637 72.2884 115.156 68.8113C116.908 66.3941 119.586 65.3937 122.469 64.9426Z" fill="#05A753"/>
<path d="M122.236 169.142L122.351 169.128C125.677 168.731 130.101 169.611 132.631 171.838C138.66 177.144 133.507 183.936 127.039 184.624C109.764 186.184 110.464 170.717 122.236 169.142Z" fill="#05A753"/>
<path d="M70.9616 114.095C81.7442 112.54 83.6255 132.864 73.5131 135.144C68.4028 136.023 64.8411 131.862 64.4207 127.14C63.9555 121.913 65.0654 115.618 70.9616 114.095Z" fill="#F48728"/>
<path d="M175.576 113.958C184.424 113.749 186.131 126.279 182.236 132.105C180.964 134.007 179.411 134.748 177.27 135.169C166.17 136.12 165.469 116.113 175.576 113.958Z" fill="#F48728"/>
<path d="M144.786 66.0819C148.599 65.8319 151.54 67.2758 154.803 69.188C157.065 70.5908 159.264 72.8532 159.835 75.5262C160.506 78.6724 158.156 81.2808 155.193 81.901C151.445 82.3851 148.275 81.6835 144.996 79.5922C141.599 77.493 138.168 72.6266 140.635 68.673C141.509 67.272 143.209 66.3986 144.786 66.0819Z" fill="#05A753"/>
<path d="M152.435 167.727C152.519 167.721 152.603 167.717 152.687 167.715C154.516 167.66 157.115 168.339 158.431 169.623C161.154 172.336 159.091 176.766 156.804 179.062C154.136 181.74 151.003 183.149 147.25 183.24C143.701 183.24 142.649 183.147 140.061 180.643C138.17 175.306 144.158 169.532 148.884 168.274C150.143 167.939 151.139 167.813 152.435 167.727Z" fill="#05A753"/>
<path d="M172.226 90.0248C177.524 89.9809 181.246 95.2011 182.403 99.8165C183.374 103.69 183.144 109.03 178.398 110.063C168.063 110.378 163.93 91.935 172.226 90.0248Z" fill="#F48728"/>
<path d="M95.1465 167.439C98.497 167.074 102.374 168.773 105.001 170.717C109.819 174.283 111.526 182.107 103.534 182.856C98.6494 183.348 90.1816 179.166 89.6728 173.679C89.3156 169.826 91.4188 167.745 95.1465 167.439Z" fill="#05A753"/>
<path d="M102.198 67.0915C109.617 66.3663 111.084 72.8619 106.588 77.5842C103.917 80.39 100.714 82.0395 96.8131 82.173C84.5205 82.7066 88.5765 68.2399 102.198 67.0915Z" fill="#05A753"/>
<path d="M177.384 139.926C186.598 140.099 182.44 155.825 176.742 158.418C175.283 159.082 174.899 159.266 173.269 159.581C163.451 159.383 167.801 140.616 177.384 139.926Z" fill="#F48728"/>
<path d="M75.9915 90.1602C78.3143 89.9151 80.7519 91.546 81.3211 93.8595C82.8766 100.182 79.1923 107.86 72.6721 109.641C69.7915 109.842 67.3296 108.595 66.9212 105.515C66.1165 99.4449 69.3583 91.2753 75.9915 90.1602Z" fill="#F48728"/>
<path d="M70.0347 140.184C76.0164 139.164 80.9907 145.846 81.486 151.132C81.8022 154.505 81.7569 157.541 78.3293 159.215C77.1018 159.517 75.8164 159.489 74.6034 159.134C67.6815 157.12 63.4566 143.717 70.0347 140.184Z" fill="#F48728"/>
<path d="M165.29 71.3518C168.849 70.7399 173.145 74.1554 175.263 76.7167C177.155 79.0048 180.344 83.5077 177.301 86.0267C170.713 87.8199 160.733 74.4474 165.29 71.3518Z" fill="#F48728"/>
<path d="M176.272 163.584C177.881 163.717 177.995 164.084 178.686 165.452C178.509 166.417 178.268 167.491 177.943 168.413C176.346 172.933 171.482 177.501 166.803 178.542C165.508 178.68 164.264 178.518 164.212 176.886C164.028 171.018 170.69 164.164 176.272 163.584Z" fill="#F48728"/>
<path d="M72.2963 163.41C78.2987 163.025 89.2305 174.473 83.5415 178.108C77.0705 178.345 66.6168 165.553 72.2963 163.41Z" fill="#F48728"/>
<path d="M82.5172 71.7677C88.8926 71.7824 82.3427 80.9677 80.1691 82.6354C77.432 84.7354 76.8635 85.5305 73.3781 86.3056C65.7111 86.7562 75.1771 73.0162 82.5172 71.7677Z" fill="#F48728"/>
<path d="M121.723 55.5465C124.003 55.4321 126.937 55.3558 129.176 55.6831C131.587 56.0354 132.778 56.9081 134.149 58.7884C131.952 60.9891 130.215 61.7198 127.182 62.1435C123.203 62.6062 117.648 62.1115 114.968 58.7322C115.174 58.4267 115.395 58.1308 115.628 57.8455C117.193 55.9525 119.477 55.7415 121.723 55.5465Z" fill="#F48728"/>
<path d="M191.172 115.278C195.5 116.196 195.061 123.583 194.913 126.879C194.788 129.642 194.295 132.164 192.107 134.058L191.652 134.148C189.039 133.031 188.464 127.186 188.525 124.763C188.612 121.332 188.612 117.858 191.172 115.278Z" fill="#F48728"/>
<path d="M123.247 187.968C125.584 187.795 133.009 188.381 133.825 190.98C133.814 193.255 128.206 194.389 126.405 194.508C123.703 194.647 118.443 194.55 116.374 192.732C112.302 189.157 121.74 188.09 123.247 187.968Z" fill="#F48728"/>
<path d="M57.9078 115.187C60.5498 116.198 61.2534 120.504 61.2318 122.985C61.1912 127.655 61.6973 130.483 58.2638 134.098L57.9381 134.225C56.6952 133.725 55.3706 130.604 55.2495 129.222C54.9264 125.537 54.3302 117.457 57.9078 115.187Z" fill="#F48728"/>
<path d="M152.744 184.681C154.089 184.607 158.115 184.474 155.655 186.917C152.322 190.231 147.633 191.882 142.977 192.09C141.912 192.069 139.564 192.186 139.215 191.01C139.266 190.817 139.364 190.553 139.5 190.407C142.347 187.321 148.834 185.061 152.744 184.681Z" fill="#F48728"/>
<path d="M140.751 57.5103C145.037 57.2014 150.441 59.2671 154.06 61.4457C155.537 62.3348 157.974 63.7776 155.036 64.9094C151.894 65.5617 149.082 64.2953 146.165 63.3213C144.916 62.9041 135.755 58.8539 140.751 57.5103Z" fill="#F48728"/>
<path d="M184.984 93.6436C189.113 94.2687 193.587 108.113 190.903 110.542C187.643 111.056 182.438 96.6119 184.984 93.6436Z" fill="#F48728"/>
<path d="M189.922 139.14C192.196 139.293 191.965 141.885 191.672 143.552C190.968 147.564 189.225 153.333 185.85 155.887C181.779 157.683 186.517 141.664 189.922 139.14Z" fill="#F48728"/>
<path d="M105.351 58.247C107.164 58.0889 108.099 58.1307 109.796 58.7537C107.851 62.6781 100.92 65.0541 96.841 65.558C95.8634 65.6189 92.6652 65.9645 92.8692 64.8444C93.5903 60.8856 103.055 58.5304 105.351 58.247Z" fill="#F48728"/>
<path d="M94.7564 184.254C98.1827 184.199 101.147 185.018 104.256 186.395C105.732 187.047 108.908 188.58 109.526 190.15C109.413 191.278 108.311 191.312 107.377 191.459C102.889 191.623 98.7892 190.029 94.995 187.682C94.0948 187.124 92.3148 186.215 92.5926 185.019C93.1508 184.399 93.9526 184.359 94.7564 184.254Z" fill="#F48728"/>
<path d="M63.7325 93.7932C64.0599 93.7948 64.2895 93.8494 64.6077 93.909C65.9747 94.8244 65.0732 98.5717 64.7751 99.9307C64.0918 103.046 62.5978 108.24 59.7483 110.083C59.1114 110.181 59.2338 110.255 58.7119 110.034C57.908 108.94 58.3297 107.576 58.3607 106.318C58.4557 102.469 60.7315 96.3125 63.7325 93.7932Z" fill="#F48728"/>
<path d="M58.4279 139.335C62.924 140.309 66.4037 152.482 64.8021 155.788C64.5314 155.967 64.3736 156.152 64.084 156.082C63.4519 155.928 62.6573 155.08 62.314 154.578C59.2898 150.158 57.6372 144.633 58.4279 139.335Z" fill="#F48728"/>
</svg>
