<svg width="250" height="250" viewBox="0 0 250 250" fill="none" xmlns="http://www.w3.org/2000/svg">
<path d="M0 125C0 55.9644 55.9644 0 125 0C194.036 0 250 55.9644 250 125C250 194.036 194.036 250 125 250C55.9644 250 0 194.036 0 125Z" fill="#0082BB"/>
<path fill-rule="evenodd" clip-rule="evenodd" d="M61.7543 91.4411L62.4036 87.7961H46.6584C45.0027 87.8123 43.4282 89.1245 43.1036 90.7607L37.0328 125.121C36.7243 126.773 37.8281 128.134 39.5 128.134H56.6736L57.3229 124.505H42.5517L45.2787 109.083H57.2742L57.9073 105.503H45.9117L48.4115 91.4411H61.7543Z" fill="white"/>
<path fill-rule="evenodd" clip-rule="evenodd" d="M69.5164 128.732C62.569 128.732 58.5597 122.527 60.3614 112.321C62.1957 101.937 68.3639 95.9594 75.4249 95.9594C79.3043 95.9594 81.2035 97.1906 82.0638 98.0654L80.2945 101.062C79.4667 100.35 78.2006 99.5396 75.8469 99.5396C70.0845 99.5396 66.9355 104.756 65.6207 112.143C64.2896 119.709 66.0751 124.925 71.1883 124.925C73.3634 124.925 74.9541 124.212 76.2852 123.402L76.9994 126.626C75.571 127.744 73.0387 128.732 69.5164 128.732Z" fill="white"/>
<path fill-rule="evenodd" clip-rule="evenodd" d="M96.5589 99.248C90.5043 99.248 88.1344 105.987 86.9982 112.37C85.8782 118.769 86.0405 125.168 91.9815 125.168C98.0361 125.168 100.292 118.704 101.412 112.37C102.532 106.036 102.614 99.248 96.5589 99.248ZM91.3484 128.732C82.6967 128.732 80.1969 121.636 81.8201 112.37C83.4921 102.925 88.5565 95.9594 97.0784 95.9594C105.795 95.9594 108.262 102.925 106.59 112.37C104.951 121.636 99.9352 128.732 91.3484 128.732Z" fill="white"/>
<path fill-rule="evenodd" clip-rule="evenodd" d="M154.571 110.198C146.406 111.203 141.342 112.904 140.206 119.287C139.394 123.871 141.894 125.75 146.601 125.75C148.598 125.75 150.594 125.394 152.023 124.681L154.571 110.198ZM145.66 128.731C137.43 128.731 134.232 125.167 135.255 119.416C136.732 111.025 145.043 108.562 155.042 107.558L155.383 105.63C156.243 100.77 153.565 99.3605 149.507 99.3605C146.439 99.3605 143.42 100.478 141.504 101.353L140.806 98.3075C142.803 97.3031 146.569 95.9585 150.919 95.9585C156.811 95.9585 161.535 98.4695 160.171 106.213L156.584 126.512C153.922 127.856 150.075 128.731 145.66 128.731Z" fill="white"/>
<path fill-rule="evenodd" clip-rule="evenodd" d="M178.399 128.149L182.409 105.453C182.928 102.52 182.279 99.2966 176.857 99.2966C173.919 99.2966 172.426 99.7016 170.673 100.414L165.754 128.149H160.576L165.884 98.1788C168.952 96.8342 172.799 95.9594 177.864 95.9594C186.694 95.9594 188.398 100.819 187.619 105.339L183.577 128.149H178.399Z" fill="white"/>
<path fill-rule="evenodd" clip-rule="evenodd" d="M129.201 111.964C127.789 119.935 124.234 125.394 117.709 125.394C116.069 125.394 114.446 125.216 113.375 124.633L117.66 100.414C119.283 99.5875 120.695 99.1825 123.049 99.1825C129.055 99.1825 130.418 105.047 129.201 111.964ZM124.883 96.1369C121.767 96.1369 119.9 96.7687 118.163 97.5949L120.89 82.1887L115.193 85.4773L107.937 126.512C109.593 127.743 112.709 128.731 117.011 128.731C126.409 128.731 132.626 121.927 134.412 111.786C136.1 102.228 132.172 96.1369 124.883 96.1369Z" fill="white"/>
<path fill-rule="evenodd" clip-rule="evenodd" d="M215.019 96.5447H209.614L195.735 111.206H195.605L199.144 91.2311C202.666 71.4509 181.272 67.2875 158.904 70.6895C143.727 73.0061 130.303 79.0487 130.303 79.0487C130.303 79.0487 147.818 72.9413 163.238 72.0665C182.717 70.9649 197.959 73.8971 193.511 94.4711L187.554 128.151H192.619L195.492 111.854H195.605L204.841 128.151H210.734L200.41 111.319L215.019 96.5447Z" fill="white"/>
<path fill-rule="evenodd" clip-rule="evenodd" d="M90.836 147.76C96.5019 147.069 101.658 151.098 102.358 156.763C103.058 162.427 99.0384 167.588 93.375 168.298C87.6982 169.009 82.5214 164.979 81.8192 159.301C81.1173 153.623 85.1569 148.453 90.836 147.76ZM99.6306 157.198C99.1756 153.031 95.424 150.024 91.2572 150.488C87.1031 150.95 84.1063 154.688 84.5595 158.843C85.013 162.999 88.7454 166.002 92.9014 165.557C97.0701 165.112 100.085 161.366 99.6306 157.198Z" fill="#00C58F"/>
<path fill-rule="evenodd" clip-rule="evenodd" d="M122.371 148.083C123.986 148.09 125.661 148.635 126.778 149.839C127.772 150.913 128.228 152.407 128.161 153.861C128.086 155.479 127.394 156.572 126.242 157.645C129.064 159.548 129.885 162.37 128.146 165.373C126.314 168.377 122.693 167.979 119.694 167.967L114.547 167.933L114.542 148.094C117.149 148.088 119.767 148.072 122.371 148.083ZM124.79 159.634C123.318 158.732 119.1 159.184 117.313 159.148C117.361 160.902 117.423 163.592 117.309 165.337C119.689 165.37 123.527 165.851 125.32 164.499C126.571 162.741 126.732 160.824 124.79 159.634ZM120.182 150.63C119.264 150.644 118.239 150.681 117.32 150.657C117.359 152.38 117.413 154.801 117.316 156.53C118.965 156.542 120.617 156.567 122.265 156.552C123.187 156.543 123.874 156.38 124.559 155.733C125.224 154.833 125.332 154.543 125.515 153.436C124.496 150.498 122.931 150.588 120.182 150.63Z" fill="#00C58F"/>
<path d="M66.6655 148.108C67.6875 148.076 68.7685 148.103 69.7953 148.112C69.9427 154.527 69.7923 161.473 69.8114 167.942C68.8974 167.968 67.9062 167.938 66.9859 167.928C66.9263 163.829 66.9878 159.566 66.9909 155.453L67.1178 152.875C65.977 154.305 61.0892 163.103 60.4873 163.32C59.0612 162.34 54.9226 153.423 53.8977 153.222C53.8243 153.45 53.9507 166.765 53.9537 167.944C53.0381 167.968 52.0533 167.938 51.1322 167.929C50.9743 161.527 51.1218 154.559 51.1173 148.098C52.148 148.089 53.1789 148.096 54.2093 148.12C55.0011 149.196 56.4373 151.697 57.1671 152.891C58.0217 154.289 59.7472 156.988 60.3744 158.414C60.9478 157.762 61.8107 156.24 62.3022 155.451C63.8018 153.043 65.153 150.509 66.6655 148.108Z" fill="#00C58F"/>
<path d="M190.488 148.096L202.231 148.11L202.218 150.784C199.2 150.807 196.182 150.811 193.164 150.794C193.192 152.74 193.192 154.685 193.163 156.631C195.435 156.615 199.354 156.484 201.531 156.673L201.584 159.248C200.457 159.279 193.788 159.212 193.239 159.345L193.173 159.586C193.199 161.502 193.196 163.418 193.16 165.334C196.187 165.426 199.373 165.326 202.439 165.387L202.45 167.923C199.102 168.103 193.942 167.972 190.495 167.935L190.488 148.096Z" fill="#00C58F"/>
<path d="M164.12 148.084L166.936 148.092C166.938 153.808 166.998 159.638 166.914 165.345L175.542 165.378C175.548 166.223 175.528 167.103 175.52 167.952L164.13 167.941C164.024 161.409 164.118 154.635 164.12 148.084Z" fill="#00C58F"/>
<path d="M144.641 148.089L147.402 148.086C147.543 154.47 147.447 161.545 147.4 167.955L144.66 167.943C144.576 165.647 144.635 163.058 144.637 160.733L144.641 148.089Z" fill="#00C58F"/>
</svg>
