<svg width="250" height="250" viewBox="0 0 250 250" fill="none" xmlns="http://www.w3.org/2000/svg">
<path d="M0 125C0 55.9644 55.9644 0 125 0C194.036 0 250 55.9644 250 125C250 194.036 194.036 250 125 250C55.9644 250 0 194.036 0 125Z" fill="#0082BB"/>
<path fill-rule="evenodd" clip-rule="evenodd" d="M61.7537 91.4409L62.403 87.7959H46.6578C45.0021 87.8121 43.4276 89.1243 43.103 90.7605L37.0321 125.121C36.7237 126.773 37.8275 128.134 39.4994 128.134H56.673L57.3223 124.505H42.5511L45.2781 109.083H57.2736L57.9067 105.503H45.9111L48.4109 91.4409H61.7537Z" fill="white"/>
<path fill-rule="evenodd" clip-rule="evenodd" d="M69.5158 128.732C62.5684 128.732 58.5591 122.527 60.3608 112.321C62.1951 101.937 68.3633 95.9592 75.4243 95.9592C79.3037 95.9592 81.2029 97.1904 82.0632 98.0652L80.2939 101.062C79.4661 100.349 78.2 99.5394 75.8463 99.5394C70.0839 99.5394 66.9348 104.756 65.62 112.143C64.289 119.708 66.0745 124.925 71.1877 124.925C73.3628 124.925 74.9535 124.212 76.2846 123.402L76.9988 126.626C75.5703 127.744 73.0381 128.732 69.5158 128.732Z" fill="white"/>
<path fill-rule="evenodd" clip-rule="evenodd" d="M96.5583 99.2478C90.5037 99.2478 88.1338 105.987 86.9976 112.37C85.8776 118.769 86.0399 125.168 91.9809 125.168C98.0354 125.168 100.292 118.704 101.412 112.37C102.532 106.036 102.613 99.2478 96.5583 99.2478ZM91.3478 128.732C82.6961 128.732 80.1963 121.636 81.8195 112.37C83.4914 102.925 88.5559 95.9592 97.0778 95.9592C105.794 95.9592 108.262 102.925 106.59 112.37C104.95 121.636 99.9346 128.732 91.3478 128.732Z" fill="white"/>
<path fill-rule="evenodd" clip-rule="evenodd" d="M154.571 110.198C146.406 111.202 141.341 112.903 140.205 119.286C139.394 123.871 141.893 125.75 146.601 125.75C148.597 125.75 150.594 125.394 152.022 124.681L154.571 110.198ZM145.659 128.731C137.429 128.731 134.232 125.167 135.254 119.416C136.731 111.024 145.042 108.562 155.041 107.557L155.382 105.63C156.243 100.77 153.564 99.3603 149.506 99.3603C146.438 99.3603 143.419 100.478 141.504 101.353L140.806 98.3073C142.802 97.3029 146.568 95.9583 150.918 95.9583C156.811 95.9583 161.534 98.4693 160.171 106.213L156.583 126.512C153.921 127.856 150.074 128.731 145.659 128.731Z" fill="white"/>
<path fill-rule="evenodd" clip-rule="evenodd" d="M178.399 128.149L182.408 105.452C182.927 102.52 182.278 99.2964 176.857 99.2964C173.919 99.2964 172.425 99.7014 170.672 100.414L165.754 128.149H160.576L165.884 98.1786C168.952 96.834 172.799 95.9592 177.863 95.9592C186.693 95.9592 188.398 100.819 187.619 105.339L183.577 128.149H178.399Z" fill="white"/>
<path fill-rule="evenodd" clip-rule="evenodd" d="M129.2 111.964C127.788 119.934 124.233 125.394 117.708 125.394C116.069 125.394 114.445 125.216 113.374 124.632L117.659 100.413C119.283 99.5873 120.695 99.1823 123.048 99.1823C129.054 99.1823 130.418 105.047 129.2 111.964ZM124.883 96.1367C121.766 96.1367 119.899 96.7685 118.163 97.5947L120.89 82.1885L115.192 85.4771L107.936 126.512C109.592 127.743 112.709 128.731 117.01 128.731C126.409 128.731 132.625 121.927 134.411 111.786C136.099 102.228 132.171 96.1367 124.883 96.1367Z" fill="white"/>
<path fill-rule="evenodd" clip-rule="evenodd" d="M215.018 96.5445H209.613L195.734 111.205H195.605L199.143 91.2309C202.666 71.4507 181.272 67.2873 158.904 70.6893C143.727 73.0059 130.303 79.0485 130.303 79.0485C130.303 79.0485 147.817 72.9411 163.238 72.0663C182.716 70.9647 197.958 73.8969 193.511 94.4709L187.553 128.151H192.618L195.491 111.853H195.605L204.841 128.151H210.733L200.409 111.319L215.018 96.5445Z" fill="white"/>
<path fill-rule="evenodd" clip-rule="evenodd" d="M90.8354 147.76C96.5013 147.069 101.657 151.097 102.357 156.763C103.057 162.427 99.0378 167.588 93.3744 168.298C87.6976 169.009 82.5208 164.979 81.8186 159.301C81.1167 153.623 85.1563 148.453 90.8354 147.76ZM99.6299 157.198C99.175 153.031 95.4234 150.024 91.2566 150.487C87.1025 150.95 84.1057 154.688 84.5589 158.843C85.0124 162.998 88.7448 166.002 92.9008 165.557C97.0695 165.111 100.085 161.366 99.6299 157.198Z" fill="#00C58F"/>
<path fill-rule="evenodd" clip-rule="evenodd" d="M122.37 148.083C123.985 148.09 125.66 148.634 126.777 149.839C127.772 150.912 128.228 152.407 128.16 153.86C128.086 155.479 127.393 156.572 126.242 157.644C129.063 159.547 129.884 162.369 128.145 165.373C126.313 168.377 122.692 167.979 119.693 167.967L114.546 167.933L114.542 148.094C117.148 148.088 119.767 148.072 122.37 148.083ZM124.79 159.634C123.317 158.732 119.099 159.184 117.312 159.148C117.36 160.901 117.422 163.592 117.309 165.337C119.688 165.37 123.526 165.851 125.319 164.499C126.571 162.741 126.731 160.823 124.79 159.634ZM120.182 150.63C119.264 150.644 118.239 150.681 117.319 150.657C117.359 152.38 117.413 154.801 117.316 156.53C118.964 156.541 120.617 156.567 122.264 156.552C123.187 156.542 123.873 156.379 124.558 155.733C125.223 154.833 125.331 154.542 125.514 153.436C124.496 150.498 122.931 150.588 120.182 150.63Z" fill="#00C58F"/>
<path d="M66.6649 148.108C67.6869 148.076 68.7679 148.103 69.7947 148.112C69.9421 154.526 69.7916 161.473 69.8108 167.942C68.8968 167.967 67.9056 167.938 66.9853 167.927C66.9257 163.829 66.9872 159.566 66.9903 155.453L67.1172 152.875C65.9764 154.305 61.0886 163.103 60.4867 163.319C59.0606 162.34 54.922 153.423 53.8971 153.222C53.8237 153.45 53.95 166.764 53.9531 167.944C53.0375 167.967 52.0527 167.938 51.1316 167.929C50.9737 161.527 51.1211 154.559 51.1167 148.097C52.1473 148.089 53.1782 148.096 54.2087 148.119C55.0005 149.195 56.4367 151.696 57.1665 152.89C58.0211 154.289 59.7466 156.988 60.3738 158.414C60.9471 157.762 61.8101 156.24 62.3016 155.451C63.8012 153.043 65.1524 150.509 66.6649 148.108Z" fill="#00C58F"/>
<path d="M190.487 148.096L202.23 148.11L202.217 150.784C199.199 150.807 196.181 150.811 193.163 150.794C193.191 152.74 193.191 154.685 193.162 156.63C195.434 156.615 199.353 156.483 201.53 156.673L201.583 159.247C200.457 159.279 193.788 159.212 193.238 159.345L193.173 159.586C193.199 161.502 193.195 163.418 193.16 165.334C196.186 165.426 199.372 165.326 202.438 165.387L202.449 167.923C199.102 168.103 193.942 167.972 190.495 167.934L190.487 148.096Z" fill="#00C58F"/>
<path d="M164.12 148.084L166.935 148.092C166.938 153.808 166.998 159.638 166.913 165.345L175.541 165.378C175.547 166.223 175.527 167.103 175.519 167.952L164.129 167.94C164.023 161.409 164.117 154.635 164.12 148.084Z" fill="#00C58F"/>
<path d="M144.64 148.088L147.401 148.085C147.543 154.47 147.446 161.544 147.4 167.955L144.659 167.943C144.575 165.647 144.635 163.058 144.636 160.733L144.64 148.088Z" fill="#00C58F"/>
</svg>
