<svg width="250" height="250" viewBox="0 0 250 250" fill="none" xmlns="http://www.w3.org/2000/svg">
<path d="M0 125C0 55.9644 55.9644 0 125 0C194.036 0 250 55.9644 250 125C250 194.036 194.036 250 125 250C55.9644 250 0 194.036 0 125Z" fill="#0082BB"/>
<path d="M173.822 62.3397C179.904 62.2102 186.492 62.5181 192.497 62.2793L169.87 98.2076L160.088 113.777C159.004 115.494 156.206 120.138 155.112 121.495C155.744 122.357 156.739 124.129 157.32 125.087C158.815 127.508 160.279 129.948 161.713 132.405L170.277 146.697C173.519 152.201 177.034 157.832 180.345 163.321L195 187.631C192.095 187.783 188.606 187.694 185.659 187.691L176.12 187.704C175.749 186.847 173.836 183.842 173.27 182.908L168.078 174.263C164.17 167.889 160.382 161.231 156.478 154.893L149.345 143.059C148.315 141.341 146.633 138.791 145.771 137.09C144.944 138.627 143.917 140.183 143.02 141.694C141.006 145.141 138.954 148.565 136.862 151.966C130.271 162.869 123.754 173.819 117.164 184.723C116.585 185.681 115.923 186.674 115.476 187.696C109.264 187.708 102.963 187.74 96.7568 187.664L122.172 145.547C124.996 140.878 127.818 136.206 130.617 131.523C132.572 128.252 134.532 124.838 136.662 121.684C135.954 120.828 134.786 118.94 134.157 117.962C132.456 115.306 130.783 112.632 129.138 109.94L102.533 67.8353C102.062 67.0848 99.2689 62.8745 99.1315 62.3328L117.704 62.2966C118.282 63.3571 119.506 65.1628 120.19 66.2458C122.202 69.4511 124.254 72.6307 126.347 75.784L142.7 101.328C143.481 102.534 145.169 104.986 145.741 106.181C146.614 104.563 148.255 102.252 149.304 100.629L173.822 62.3397Z" fill="#FEFEFE"/>
<path d="M57.5861 62.3488L76.4419 62.3563C78.0566 64.4939 80.0103 67.7087 81.5268 70.0312L115.485 121.457C114.625 123.179 112.318 126.611 111.199 128.394C108.397 132.921 105.565 137.431 102.706 141.922L86.4475 167.947C82.3147 174.476 78.2165 181.027 74.1533 187.6C73.4859 187.718 69.9893 187.602 69.0069 187.623C64.4286 187.713 59.5557 187.477 55 187.653C56.9951 184.36 59.117 181.131 61.1417 177.859L96.196 121.655C93.3887 117.616 90.7915 113.51 88.098 109.401L75.7327 90.6251L61.3172 68.3432C60.1391 66.4857 58.5706 64.3885 57.4758 62.571L57.5861 62.3488Z" fill="#B6D702"/>
</svg>
