<svg width="250" height="250" viewBox="0 0 250 250" fill="none" xmlns="http://www.w3.org/2000/svg">
<path d="M0 125C0 55.9644 55.9644 0 125 0C194.036 0 250 55.9644 250 125C250 194.036 194.036 250 125 250C55.9644 250 0 194.036 0 125Z" fill="#0082BB"/>
<path d="M173.821 62.3399C179.903 62.2103 186.492 62.5182 192.497 62.2794L169.87 98.2078L160.087 113.778C159.003 115.495 156.206 120.138 155.111 121.495C155.744 122.357 156.739 124.129 157.32 125.087C158.814 127.508 160.279 129.948 161.713 132.405L170.277 146.697C173.518 152.202 177.034 157.832 180.344 163.321L195 187.631C192.094 187.784 188.605 187.694 185.658 187.691L176.119 187.704C175.748 186.847 173.836 183.842 173.269 182.908L168.077 174.264C164.169 167.889 160.382 161.231 156.477 154.893L149.345 143.06C148.314 141.341 146.633 138.791 145.771 137.091C144.943 138.627 143.917 140.183 143.019 141.694C141.006 145.141 138.953 148.566 136.862 151.966C130.271 162.869 123.754 173.819 117.164 184.723C116.584 185.681 115.922 186.674 115.475 187.696C109.264 187.708 102.963 187.741 96.7563 187.664L122.172 145.547C124.996 140.879 127.817 136.206 130.617 131.523C132.572 128.252 134.531 124.838 136.662 121.684C135.953 120.828 134.786 118.94 134.157 117.962C132.456 115.306 130.782 112.632 129.137 109.94L102.533 67.8355C102.062 67.0849 99.2684 62.8747 99.131 62.3329L117.703 62.2967C118.282 63.3572 119.506 65.1629 120.19 66.246C122.202 69.4512 124.254 72.6308 126.346 75.7841L142.7 101.328C143.481 102.534 145.169 104.986 145.74 106.182C146.614 104.564 148.255 102.252 149.304 100.629L173.821 62.3399Z" fill="#FEFEFE"/>
<path d="M57.5856 62.3489L76.4414 62.3565C78.0561 64.494 80.0099 67.7088 81.5263 70.0313L115.485 121.457C114.625 123.179 112.318 126.611 111.198 128.394C108.396 132.921 105.565 137.431 102.705 141.922L86.4471 167.947C82.3142 174.476 78.216 181.027 74.1528 187.6C73.4855 187.718 69.9888 187.603 69.0064 187.623C64.4281 187.713 59.5552 187.477 54.9995 187.653C56.9946 184.36 59.1166 181.132 61.1412 177.859L96.1956 121.655C93.3882 117.616 90.791 113.51 88.0975 109.401L75.7322 90.6253L61.3168 68.3433C60.1386 66.4858 58.5701 64.3886 57.4753 62.5711L57.5856 62.3489Z" fill="#B6D702"/>
</svg>
