<svg width="250" height="250" viewBox="0 0 250 250" fill="none" xmlns="http://www.w3.org/2000/svg">
<path d="M0 125C0 55.9644 55.9644 0 125 0C194.036 0 250 55.9644 250 125C250 194.036 194.036 250 125 250C55.9644 250 0 194.036 0 125Z" fill="white"/>
<path d="M55 119.066L55.032 118.955C55.2905 118.031 55.4931 115.513 55.661 114.397C56.0985 111.552 56.7082 108.736 57.4867 105.965C62.4815 88.3327 74.1774 73.3543 90.073 64.2334C106.329 54.9636 125.609 52.5558 143.645 57.543C160.651 62.0706 176.435 74.2808 185.222 89.4969C191.547 100.31 194.919 112.596 195 125.124C195.016 127.756 194.464 130.787 194.44 133.306C191.377 133.373 188.054 133.292 184.957 133.291L165.183 133.29L151.634 133.292C149.042 133.292 146.044 133.365 143.501 133.22C141.085 137.879 137.44 141.26 132.37 142.853C127.508 144.38 122.238 143.897 117.735 141.513C113.316 139.179 110.01 135.179 108.55 130.4C107.121 125.754 107.697 120.235 109.983 115.936C112.291 111.583 116.235 108.327 120.946 106.885C125.838 105.395 131.122 105.912 135.633 108.322C138.653 109.951 142.55 113.528 143.612 116.848C145.788 116.715 148.249 116.766 150.446 116.767L161.019 116.765L169.225 116.764C170.307 116.764 172.425 116.697 173.436 116.785C172.767 113.894 172.243 111.415 171.242 108.59C167.463 97.9801 160.185 88.9728 150.605 83.0502C139.557 76.2477 126.261 74.1079 113.636 77.1004C100.867 80.1067 89.8238 88.0826 82.9561 99.2599C76.1196 110.392 74.0011 123.79 77.0689 136.488C80.1124 149.086 87.9941 159.979 99.0086 166.808C110.149 173.732 123.602 175.899 136.353 172.824C146.447 170.332 155.511 164.751 162.278 156.858C163.878 158.363 165.315 160.151 166.81 161.765C170.001 165.207 173.129 169.004 176.361 172.388C173.627 175.211 171.401 177.394 168.293 179.863C156.01 189.59 140.821 194.918 125.154 194.997C122.869 195.028 119.676 194.788 117.4 194.543C101.824 192.9 87.2582 186.051 76.057 175.103C66.5944 165.92 59.9249 154.247 56.8205 141.432C56.4033 139.72 56.0563 138.107 55.7613 136.371C55.5232 134.97 55.3681 132.236 55 131.013V119.066Z" fill="#BB2125"/>
</svg>
