<svg width="250" height="250" viewBox="0 0 250 250" fill="none" xmlns="http://www.w3.org/2000/svg">
<path d="M0 125C0 55.9644 55.9644 0 125 0C194.036 0 250 55.9644 250 125C250 194.036 194.036 250 125 250C55.9644 250 0 194.036 0 125Z" fill="#F2761B"/>
<path d="M154.798 88.5016C153.702 90.7391 152.237 92.7766 150.466 94.5289C149.58 95.391 148.629 96.1844 147.622 96.9021C147.114 97.26 146.586 97.599 146.059 97.9192L145.211 98.3902L145.004 98.5032H144.872H144.721L144.458 98.635C143.728 98.9787 143.085 99.4805 142.574 100.104C142.064 100.724 141.704 101.452 141.519 102.233C141.429 102.596 141.385 102.969 141.388 103.344C141.369 103.519 141.369 103.696 141.388 103.871C141.388 103.871 141.388 104.041 141.388 104.135V104.455C141.779 105.985 141.714 107.596 141.199 109.089C140.73 110.507 139.944 111.799 138.9 112.867C137.854 113.934 136.58 114.749 135.172 115.248C134.025 115.652 133.031 116.403 132.328 117.395C132.006 117.825 131.772 118.314 131.64 118.834C131.507 119.354 131.479 119.896 131.556 120.427V120.672C131.565 120.823 131.565 120.974 131.556 121.124C131.583 121.432 131.583 121.74 131.556 122.047C131.579 122.68 131.521 123.313 131.386 123.931C131.148 125.097 130.681 126.205 130.011 127.19C128.732 129.072 126.874 130.487 124.718 131.22L124.229 131.39L123.814 131.559C122.993 131.942 122.276 132.517 121.724 133.236C121.38 133.648 121.125 134.127 120.973 134.641C120.821 135.156 120.775 135.697 120.839 136.23V136.438C120.847 136.594 120.847 136.751 120.839 136.908C120.866 137.221 120.866 137.537 120.839 137.85C120.856 138.481 120.805 139.113 120.687 139.733C120.439 140.923 119.966 142.055 119.294 143.068C118.654 144.05 117.843 144.911 116.902 145.61C116.442 145.964 115.95 146.273 115.432 146.533L114.641 146.891L114.246 147.042L113.907 147.155C112.903 147.54 112.05 148.241 111.478 149.152C111.168 149.583 110.947 150.071 110.828 150.588C110.709 151.106 110.692 151.641 110.78 152.164L110.912 152.786C110.969 153.079 111.006 153.375 111.025 153.672C111.082 154.254 111.082 154.841 111.025 155.424C110.888 156.572 110.551 157.688 110.027 158.719C108.985 160.791 107.224 162.412 105.073 163.277C104.916 163.341 104.751 163.385 104.583 163.409H104.452C104.262 163.489 104.079 163.583 103.905 163.692C103.552 163.928 103.235 164.213 102.964 164.54C102.392 165.25 102.027 166.103 101.909 167.007C101.852 167.476 101.852 167.95 101.909 168.42V168.777C101.918 168.834 101.918 168.891 101.909 168.947V169.192C102.019 169.588 102.101 169.991 102.154 170.397C102.36 172.032 102.172 173.691 101.607 175.238C101.074 176.836 100.086 178.244 98.7633 179.288C98.5886 179.418 98.4061 179.537 98.2171 179.646L97.6708 179.947L97.2565 180.117L96.974 180.286C96.5947 180.532 96.2629 180.845 95.9945 181.209C95.3974 182.07 95.0517 183.081 94.9963 184.128C94.9063 185.252 95.0539 186.381 95.4295 187.443V187.594C95.5322 187.924 95.5032 188.281 95.3487 188.59C95.1942 188.898 94.9262 189.136 94.6007 189.252C94.4315 189.312 94.2512 189.335 94.0724 189.318C93.8936 189.302 93.7204 189.247 93.5648 189.157C93.2822 188.988 92.9997 188.819 92.736 188.63C92.5885 188.48 92.4561 188.316 92.3405 188.14L92.0579 187.745L91.6059 187.048C91.3234 186.577 91.0408 186.106 90.7772 185.597C90.2355 184.607 89.7756 183.574 89.4022 182.508C88.9996 181.372 88.7463 180.188 88.6487 178.987C88.6324 178.301 88.7084 177.617 88.8748 176.952C89.0336 176.143 89.3894 175.386 89.9108 174.748L90.0426 174.597V174.466C90.1059 174.344 90.1625 174.217 90.2121 174.089C90.3049 173.775 90.3742 173.453 90.4192 173.129C90.4944 172.365 90.4944 171.595 90.4192 170.831C90.326 170.037 90.1557 169.255 89.9108 168.495C89.7987 168.117 89.6667 167.747 89.5152 167.384L89.2892 166.857L89.1573 166.592L89.0067 166.291C87.9727 164.297 87.5345 162.048 87.7447 159.812C87.8715 158.541 88.2905 157.315 88.9689 156.233C89.3348 155.66 89.7786 155.14 90.2874 154.689C90.5508 154.459 90.8275 154.245 91.1162 154.048L91.5683 153.803L91.9073 153.615H92.0579C92.9284 152.985 93.554 152.073 93.8284 151.034C94.03 150.472 94.1443 149.88 94.1675 149.283C94.1965 149.001 94.1965 148.717 94.1675 148.435C94.1781 148.297 94.1781 148.159 94.1675 148.021V147.701C94.1675 147.551 94.1675 147.4 94.0734 147.268C93.8688 146.072 93.9201 144.845 94.224 143.67C94.5068 142.509 95.0262 141.419 95.7497 140.468C97.1003 138.648 99.0136 137.324 101.193 136.701L101.532 136.588H101.758L102.229 136.418C102.531 136.287 102.821 136.13 103.095 135.948C103.675 135.606 104.197 135.174 104.64 134.667C105.049 134.227 105.375 133.716 105.601 133.16C105.685 132.927 105.748 132.688 105.789 132.444C105.789 132.331 105.789 132.237 105.789 132.143V131.804C105.779 131.622 105.779 131.439 105.789 131.257C105.872 129.916 106.3 128.618 107.032 127.491C107.677 126.474 108.486 125.57 109.424 124.816C111.121 123.464 113.116 122.533 115.244 122.104H115.432C116.711 121.75 117.89 121.105 118.88 120.22C119.363 119.828 119.777 119.357 120.103 118.826C120.217 118.618 120.306 118.397 120.368 118.167C120.385 118.074 120.385 117.978 120.368 117.884C120.376 117.841 120.376 117.797 120.368 117.753V117.301C120.474 115.955 120.921 114.659 121.667 113.534C122.311 112.555 123.106 111.685 124.021 110.953C125.726 109.575 127.723 108.602 129.86 108.109C131.526 107.773 133.034 106.899 134.155 105.623C134.584 105.136 134.859 104.533 134.946 103.89V103.683V103.513C134.852 102.321 135.033 101.122 135.473 100.01C136.013 98.6627 136.821 97.4389 137.846 96.4125C138.804 95.4285 139.925 94.619 141.161 94.0204L142.103 93.606L142.574 93.4365H142.687C143.082 93.2481 143.535 93.0221 143.949 92.7773C144.801 92.275 145.614 91.7083 146.379 91.082C147.919 89.7878 149.241 88.2553 150.296 86.5427C151.353 84.7908 152.128 82.8842 152.594 80.8922C153.559 76.7131 153.669 72.3818 152.915 68.1595C152.828 67.8994 152.844 67.616 152.959 67.3673C153.075 67.1186 153.282 66.9236 153.536 66.8222C153.781 66.7296 154.053 66.7369 154.293 66.8426C154.532 66.9483 154.72 67.1439 154.817 67.3873V67.538C155.679 69.7007 156.311 71.9482 156.7 74.2433C157.122 76.5861 157.211 78.9766 156.964 81.3442C156.964 81.9469 156.776 82.5497 156.663 83.2278C156.55 83.9058 156.399 84.4332 156.211 85.0171C155.844 86.2182 155.371 87.3843 154.798 88.5016ZM169.867 79.649C167.551 73.6712 164.44 68.0326 160.619 62.8856C159.421 61.1762 158.105 59.5524 156.682 58.0261C155.4 58.6366 154.329 59.6144 153.604 60.8353C152.88 62.0561 152.535 63.4648 152.613 64.8822C152.187 62.8801 151.363 60.9843 150.188 59.308C149.013 57.6316 147.512 56.2092 145.776 55.1255C145.776 55.1255 104.075 50.5863 82.7156 95.9227C65.0105 133.593 81.8304 190.871 90.2498 194.638C98.6691 198.406 152.048 172.281 168.699 134.215C177.909 113.195 176.064 93.7943 169.96 79.5925" fill="white"/>
</svg>
