<svg width="250" height="250" viewBox="0 0 250 250" fill="none" xmlns="http://www.w3.org/2000/svg">
<path d="M0 125C0 55.9644 55.9644 0 125 0C194.036 0 250 55.9644 250 125C250 194.036 194.036 250 125 250C55.9644 250 0 194.036 0 125Z" fill="#F2761B"/>
<path d="M154.798 88.5015C153.702 90.739 152.237 92.7765 150.466 94.5288C149.58 95.3909 148.629 96.1843 147.622 96.902C147.114 97.2599 146.586 97.5989 146.059 97.9191L145.21 98.39L145.004 98.503H144.872H144.721L144.458 98.6349C143.728 98.9785 143.085 99.4804 142.574 100.104C142.064 100.724 141.704 101.452 141.519 102.232C141.429 102.596 141.385 102.969 141.387 103.344C141.369 103.519 141.369 103.696 141.387 103.871C141.387 103.871 141.387 104.041 141.387 104.135V104.455C141.779 105.985 141.713 107.595 141.199 109.089C140.73 110.507 139.944 111.799 138.899 112.867C137.854 113.934 136.579 114.749 135.172 115.248C134.025 115.652 133.031 116.402 132.328 117.395C132.006 117.825 131.772 118.314 131.639 118.834C131.507 119.354 131.479 119.896 131.556 120.427V120.672C131.564 120.823 131.564 120.974 131.556 121.124C131.583 121.432 131.583 121.74 131.556 122.047C131.578 122.68 131.521 123.313 131.386 123.931C131.148 125.097 130.681 126.205 130.011 127.19C128.732 129.072 126.874 130.487 124.718 131.22L124.228 131.39L123.814 131.559C122.992 131.942 122.276 132.517 121.724 133.236C121.38 133.648 121.125 134.127 120.973 134.641C120.821 135.156 120.775 135.697 120.838 136.23V136.437C120.847 136.594 120.847 136.751 120.838 136.908C120.866 137.221 120.866 137.537 120.838 137.85C120.856 138.481 120.805 139.113 120.687 139.733C120.439 140.923 119.966 142.055 119.294 143.067C118.653 144.05 117.843 144.911 116.901 145.61C116.442 145.964 115.95 146.273 115.432 146.533L114.641 146.891L114.245 147.042L113.907 147.155C112.902 147.54 112.05 148.241 111.477 149.151C111.168 149.583 110.947 150.071 110.828 150.588C110.709 151.106 110.692 151.641 110.78 152.164L110.912 152.786C110.968 153.079 111.005 153.375 111.025 153.672C111.081 154.254 111.081 154.841 111.025 155.424C110.888 156.572 110.55 157.688 110.027 158.719C108.985 160.791 107.224 162.411 105.073 163.277C104.916 163.341 104.751 163.385 104.583 163.409H104.451C104.262 163.489 104.079 163.583 103.905 163.692C103.552 163.928 103.235 164.213 102.963 164.54C102.391 165.249 102.026 166.103 101.909 167.007C101.852 167.476 101.852 167.95 101.909 168.42V168.777C101.917 168.834 101.917 168.89 101.909 168.947V169.192C102.019 169.588 102.101 169.99 102.153 170.397C102.359 172.031 102.172 173.691 101.607 175.238C101.074 176.836 100.085 178.243 98.7631 179.288C98.5883 179.418 98.4059 179.537 98.2169 179.646L97.6706 179.947L97.2562 180.117L96.9737 180.286C96.5944 180.532 96.2627 180.845 95.9943 181.209C95.3972 182.07 95.0514 183.081 94.996 184.128C94.906 185.252 95.0537 186.381 95.4292 187.443V187.594C95.5319 187.923 95.5029 188.28 95.3485 188.59C95.194 188.898 94.926 189.136 94.6005 189.251C94.4312 189.311 94.251 189.334 94.0721 189.318C93.8933 189.302 93.7201 189.247 93.5646 189.157C93.282 188.988 92.9994 188.818 92.7358 188.629C92.5883 188.48 92.4558 188.316 92.3402 188.14L92.0577 187.745L91.6057 187.048C91.3231 186.577 91.0406 186.106 90.7769 185.597C90.2352 184.607 89.7754 183.574 89.402 182.508C88.9993 181.372 88.746 180.188 88.6485 178.987C88.6321 178.301 88.7081 177.617 88.8746 176.952C89.0334 176.143 89.3892 175.386 89.9105 174.748L90.0424 174.597V174.465C90.1057 174.344 90.1622 174.217 90.2118 174.089C90.3047 173.775 90.3739 173.453 90.419 173.129C90.4942 172.364 90.4942 171.595 90.419 170.831C90.3258 170.037 90.1554 169.255 89.9105 168.495C89.7984 168.117 89.6664 167.747 89.515 167.384L89.289 166.857L89.1571 166.592L89.0064 166.291C87.9724 164.297 87.5343 162.048 87.7445 159.812C87.8713 158.541 88.2902 157.315 88.9687 156.233C89.3346 155.66 89.7784 155.14 90.2872 154.689C90.5506 154.459 90.8273 154.245 91.1159 154.048L91.568 153.803L91.907 153.615H92.0577C92.9281 152.985 93.5538 152.073 93.8282 151.034C94.0297 150.471 94.1441 149.88 94.1673 149.283C94.1963 149.001 94.1963 148.717 94.1673 148.435C94.1779 148.297 94.1779 148.159 94.1673 148.021V147.701C94.1673 147.55 94.1673 147.399 94.0731 147.268C93.8686 146.071 93.9199 144.845 94.2238 143.67C94.5066 142.509 95.026 141.419 95.7494 140.468C97.1001 138.648 99.0134 137.324 101.193 136.701L101.532 136.588H101.758L102.229 136.418C102.531 136.287 102.821 136.13 103.095 135.948C103.675 135.606 104.197 135.174 104.64 134.667C105.049 134.227 105.374 133.716 105.6 133.16C105.685 132.927 105.748 132.688 105.789 132.444C105.789 132.331 105.789 132.237 105.789 132.143V131.804C105.779 131.622 105.779 131.439 105.789 131.257C105.871 129.916 106.3 128.618 107.032 127.491C107.677 126.474 108.486 125.57 109.424 124.815C111.121 123.464 113.116 122.533 115.244 122.104H115.432C116.71 121.75 117.89 121.105 118.879 120.22C119.363 119.828 119.777 119.357 120.103 118.826C120.217 118.618 120.306 118.397 120.367 118.167C120.385 118.074 120.385 117.978 120.367 117.884C120.375 117.841 120.375 117.797 120.367 117.753V117.301C120.473 115.955 120.92 114.658 121.667 113.534C122.311 112.555 123.105 111.684 124.021 110.953C125.726 109.575 127.723 108.602 129.86 108.109C131.525 107.773 133.034 106.899 134.155 105.623C134.584 105.136 134.859 104.533 134.946 103.89V103.683V103.513C134.852 102.321 135.033 101.122 135.473 100.01C136.013 98.6626 136.82 97.4387 137.846 96.4123C138.804 95.4283 139.925 94.6189 141.161 94.0203L142.103 93.6059L142.574 93.4363H142.687C143.082 93.248 143.534 93.022 143.949 92.7771C144.801 92.2748 145.613 91.7082 146.379 91.0819C147.919 89.7877 149.241 88.2552 150.296 86.5426C151.353 84.7906 152.128 82.8841 152.594 80.8921C153.559 76.7129 153.669 72.3817 152.915 68.1594C152.827 67.8993 152.843 67.6159 152.959 67.3671C153.075 67.1185 153.282 66.9235 153.536 66.8221C153.781 66.7295 154.053 66.7368 154.292 66.8425C154.532 66.9482 154.72 67.1438 154.817 67.3872V67.5378C155.679 69.7005 156.31 71.9481 156.7 74.2432C157.121 76.586 157.211 78.9765 156.964 81.3441C156.964 81.9468 156.776 82.5496 156.663 83.2277C156.55 83.9057 156.399 84.4331 156.21 85.017C155.844 86.2181 155.371 87.3842 154.798 88.5015ZM169.866 79.6489C167.551 73.671 164.44 68.0325 160.618 62.8855C159.42 61.1761 158.105 59.5523 156.681 58.026C155.4 58.6365 154.329 59.6143 153.604 60.8352C152.88 62.056 152.535 63.4647 152.613 64.8821C152.187 62.8799 151.363 60.9842 150.187 59.3078C149.013 57.6315 147.512 56.2091 145.776 55.1254C145.776 55.1254 104.075 50.5861 82.7154 95.9226C65.0102 133.593 81.8302 190.871 90.2495 194.638C98.6689 198.406 152.048 172.281 168.698 134.214C177.909 113.194 176.063 93.7942 169.96 79.5924" fill="white"/>
</svg>
