<svg width="250" height="250" viewBox="0 0 250 250" fill="none" xmlns="http://www.w3.org/2000/svg">
<path d="M0 125C0 55.9644 55.9644 0 125 0C194.036 0 250 55.9644 250 125C250 194.036 194.036 250 125 250C55.9644 250 0 194.036 0 125Z" fill="#5C2682"/>
<path d="M63.778 89.9915V97.2915H79.926V104.013H63.778V117.115H56.332V83.2715H82.1V89.9915H63.778Z" fill="white"/>
<path d="M115.073 114.165C114.125 114.915 113.095 115.556 112.003 116.075C110.84 116.622 109.614 117.025 108.353 117.275C106.889 117.563 105.398 117.701 103.905 117.687C101.533 117.709 99.1806 117.248 96.9914 116.333C94.9291 115.474 93.0562 114.218 91.4794 112.635C89.9165 111.048 88.6841 109.166 87.8534 107.099C86.9758 104.934 86.532 102.618 86.5474 100.281V100.185C86.5297 97.8548 86.9736 95.5437 87.8534 93.3854C88.695 91.3177 89.926 89.4308 91.4794 87.8274C93.0598 86.2085 94.951 84.9255 97.0394 84.0554C99.3101 83.1194 101.748 82.6554 104.203 82.6914C105.654 82.6805 107.103 82.8097 108.529 83.0774C109.747 83.3106 110.938 83.6671 112.083 84.1414C113.124 84.5805 114.113 85.1318 115.033 85.7854C115.928 86.4247 116.769 87.1364 117.547 87.9134L112.803 93.3754C111.592 92.2616 110.233 91.3195 108.765 90.5754C107.326 89.8838 105.745 89.5367 104.147 89.5614C102.79 89.5488 101.446 89.8292 100.207 90.3834C99.0209 90.9148 97.9588 91.6888 97.0894 92.6554C96.209 93.639 95.5205 94.7786 95.0594 96.0154C94.5694 97.3215 94.3233 98.7065 94.3334 100.101V100.197C94.3249 101.6 94.5709 102.993 95.0594 104.307C95.5134 105.548 96.1913 106.695 97.0594 107.691C97.9449 108.693 99.0358 109.492 100.258 110.034C101.48 110.577 102.805 110.849 104.141 110.833C106.076 110.833 107.712 110.479 109.049 109.769C110.499 108.98 111.84 108.006 113.037 106.869L117.775 111.655C116.94 112.559 116.036 113.398 115.073 114.165Z" fill="white"/>
<path d="M150.223 117.115V95.0195L140.697 109.475H140.497L131.069 95.1655V117.115H123.729V83.2715H131.753L140.649 97.5835L149.545 83.2715H157.571V117.115H150.223Z" fill="white"/>
<path d="M193.517 111.893C192.919 113.058 192.04 114.054 190.959 114.793C189.744 115.613 188.388 116.204 186.959 116.535C185.256 116.939 183.51 117.133 181.759 117.115H165.691V83.2715H181.377C184.851 83.2715 187.577 84.0615 189.555 85.6415C191.534 87.2215 192.524 89.3488 192.525 92.0235V92.1295C192.539 92.9971 192.417 93.8616 192.163 94.6915C191.938 95.3996 191.615 96.0727 191.203 96.6915C190.812 97.2778 190.341 97.8068 189.803 98.2635C189.28 98.712 188.709 99.101 188.099 99.4235C190.055 100.166 191.595 101.173 192.719 102.445C193.843 103.717 194.405 105.479 194.403 107.729V107.825C194.438 109.233 194.134 110.628 193.517 111.893ZM185.175 93.2795C185.175 92.1515 184.757 91.2895 183.919 90.6935C183.082 90.0975 181.873 89.7995 180.293 89.7995H172.943V96.9535H179.803C181.447 96.9535 182.753 96.6715 183.719 96.1075C184.686 95.5435 185.169 94.6328 185.169 93.3755L185.175 93.2795ZM187.061 106.817C187.079 106.297 186.969 105.78 186.741 105.312C186.514 104.843 186.175 104.437 185.755 104.129C184.885 103.469 183.485 103.136 181.555 103.129H172.955V110.575H181.803C183.447 110.575 184.737 110.277 185.671 109.681C186.606 109.085 187.073 108.159 187.071 106.901L187.061 106.817Z" fill="white"/>
<path d="M193.848 138.802V155.374H55.5918V146.658C55.5915 145.626 55.7946 144.604 56.1893 143.651C56.584 142.698 57.1626 141.832 57.8922 141.102C58.6217 140.373 59.4879 139.794 60.4411 139.399C61.3944 139.005 62.4161 138.801 63.4478 138.802H193.848Z" fill="#FAB613"/>
<path d="M55.5918 160.739H193.848V177.311H63.4478C62.4159 177.312 61.394 177.108 60.4407 176.714C59.4873 176.319 58.621 175.74 57.8915 175.01C57.1619 174.28 56.5833 173.414 56.1887 172.461C55.7941 171.507 55.5913 170.485 55.5918 169.453V160.739Z" fill="#FAB613"/>
</svg>
