<svg width="250" height="250" viewBox="0 0 250 250" fill="none" xmlns="http://www.w3.org/2000/svg">
<path d="M0 125C0 55.9644 55.9644 0 125 0C194.036 0 250 55.9644 250 125C250 194.036 194.036 250 125 250C55.9644 250 0 194.036 0 125Z" fill="white"/>
<path d="M124.608 103.421C124.847 103.973 124.905 104.237 125.054 104.436C126.802 106.778 128.674 109.039 130.302 111.465C133.846 116.747 137.505 121.972 140.663 127.481C143.454 132.348 145.701 137.531 148.046 142.639C149.749 146.351 151.431 150.1 152.745 153.961C154.689 159.68 156.331 165.502 158.043 171.299C159.996 177.903 161.5 184.608 162.456 191.433C162.562 192.198 162.98 192.921 163.386 194.022C163.904 193.176 164.269 192.741 164.459 192.24C165.314 189.982 166.356 187.757 166.888 185.423C167.821 181.346 168.634 177.222 169.13 173.072C170.293 163.35 169.805 153.594 169.261 143.852C169.138 141.627 168.822 139.417 168.62 137.198C168.463 135.48 168.345 133.757 168.172 131.518C177.367 133.485 186.07 135.348 194.775 137.209C194.851 136.985 194.924 136.76 194.999 136.536C173.593 121.398 149.906 111.084 124.608 103.421ZM76.355 129.986C101.3 106.797 130.974 93.5279 164.49 87.2882C163.834 86.8931 163.596 86.683 163.322 86.5933C161.73 86.0806 160.161 85.4166 158.528 85.1364C152.618 84.1277 146.715 82.8977 140.755 82.4214C134.83 81.9479 128.839 82.2197 122.877 82.2841C116.674 82.3513 110.585 83.5617 104.458 84.3799C102.331 84.6629 101.885 84.2146 102.283 82.0543C102.72 79.6756 103.104 77.2884 103.502 74.9012C104.175 70.8582 104.844 66.8179 105.505 62.772C105.867 60.567 106.206 58.3591 106.556 56.1541C106.343 56.0952 106.127 56.0364 105.914 55.9775C92.9951 79.3758 82.5807 103.785 76.355 129.986ZM147.726 153.636C113.653 153.098 83.1663 141.717 54.9993 123.208C55.0665 123.684 55.1786 123.99 55.3383 124.27C59.9894 132.555 65.6435 140.097 72.2559 146.917C79.5126 154.398 87.5708 160.915 96.1865 166.757C96.7412 167.133 97.2231 167.612 97.8984 168.175C89.9607 174.025 82.208 179.738 74.4553 185.451C74.5338 185.577 74.615 185.7 74.6935 185.826C100.308 178.06 124.911 167.979 147.726 153.636ZM115.158 136.987C119.005 136.954 121.871 134.02 121.804 130.086C121.748 126.755 118.842 123.575 114.799 123.693C110.947 123.805 108.391 127.066 108.31 130.383C108.22 133.964 111.871 137.245 115.158 136.987Z" fill="white"/>
<path d="M124.608 103.421C149.906 111.084 173.593 121.398 194.997 136.534C194.921 136.758 194.848 136.982 194.773 137.206C186.07 135.346 177.365 133.482 168.169 131.515C168.343 133.757 168.461 135.477 168.617 137.195C168.819 139.414 169.136 141.627 169.259 143.849C169.8 153.591 170.29 163.347 169.127 173.07C168.631 177.219 167.816 181.344 166.886 185.42C166.351 187.757 165.311 189.979 164.457 192.237C164.266 192.739 163.902 193.173 163.384 194.019C162.977 192.918 162.563 192.195 162.453 191.43C161.498 184.605 159.993 177.9 158.04 171.296C156.328 165.499 154.687 159.677 152.742 153.958C151.428 150.097 149.747 146.348 148.043 142.636C145.698 137.525 143.451 132.342 140.661 127.478C137.503 121.97 133.844 116.744 130.299 111.463C128.671 109.039 126.8 106.778 125.051 104.433C124.906 104.237 124.844 103.973 124.608 103.421Z" fill="#85C229"/>
<path d="M76.355 129.986C82.5807 103.785 92.9954 79.3758 105.912 55.9775C106.125 56.0364 106.341 56.0952 106.554 56.1541C106.203 58.3591 105.864 60.567 105.503 62.772C104.842 66.8151 104.172 70.8582 103.499 74.9012C103.102 77.2884 102.718 79.6756 102.281 82.0544C101.883 84.2146 102.331 84.6629 104.455 84.3799C110.58 83.5646 116.671 82.3542 122.874 82.2841C128.834 82.2197 134.827 81.9479 140.753 82.4214C146.712 82.8977 152.616 84.1249 158.525 85.1364C160.158 85.4166 161.728 86.0806 163.319 86.5933C163.594 86.683 163.832 86.8903 164.487 87.2882C130.974 93.5251 101.297 106.795 76.355 129.986Z" fill="#E57819"/>
<path d="M147.726 153.636C124.911 167.981 100.308 178.06 74.6935 185.826C74.615 185.7 74.5338 185.577 74.4553 185.451C82.208 179.738 89.9607 174.025 97.8984 168.175C97.2231 167.612 96.7412 167.133 96.1865 166.757C87.568 160.915 79.5098 154.398 72.2559 146.917C65.6435 140.1 59.9894 132.558 55.3383 124.27C55.1814 123.99 55.0665 123.681 54.9993 123.208C83.1663 141.717 113.653 153.098 147.726 153.636Z" fill="#792F83"/>
<path d="M115.158 136.987C111.874 137.242 108.223 133.961 108.31 130.383C108.391 127.069 110.947 123.805 114.799 123.693C118.842 123.575 121.748 126.755 121.804 130.086C121.868 134.02 119.005 136.954 115.158 136.987Z" fill="#E57819"/>
</svg>
