<svg width="250" height="250" viewBox="0 0 250 250" fill="none" xmlns="http://www.w3.org/2000/svg">
<mask id="path-1-inside-1_453_514" fill="white">
<path d="M0 125C0 55.9644 55.9644 0 125 0C194.036 0 250 55.9644 250 125C250 194.036 194.036 250 125 250C55.9644 250 0 194.036 0 125Z"/>
</mask>
<path d="M0 125C0 55.9644 55.9644 0 125 0C194.036 0 250 55.9644 250 125C250 194.036 194.036 250 125 250C55.9644 250 0 194.036 0 125Z" fill="white"/>
<path d="M0 125M250 125M250 125M0 125M125 0M250 125M125 250M0 125M125 250V248C57.069 248 2 192.931 2 125H0H-2C-2 195.14 54.8598 252 125 252V250ZM250 125H248C248 192.931 192.931 248 125 248V250V252C195.14 252 252 195.14 252 125H250ZM125 0V2C192.931 2 248 57.069 248 125H250H252C252 54.8598 195.14 -2 125 -2V0ZM125 0V-2C54.8598 -2 -2 54.8598 -2 125H0H2C2 57.069 57.069 2 125 2V0Z" fill="#DDDBDB" mask="url(#path-1-inside-1_453_514)"/>
<path d="M124.609 103.421C124.847 103.973 124.906 104.237 125.055 104.436C126.803 106.778 128.675 109.039 130.303 111.465C133.847 116.747 137.506 121.972 140.664 127.481C143.454 132.348 145.701 137.531 148.047 142.639C149.75 146.351 151.431 150.1 152.745 153.961C154.69 159.68 156.332 165.502 158.044 171.299C159.996 177.903 161.501 184.608 162.457 191.433C162.563 192.198 162.98 192.921 163.387 194.022C163.905 193.176 164.269 192.741 164.46 192.24C165.314 189.982 166.357 187.757 166.889 185.423C167.822 181.346 168.635 177.222 169.131 173.072C170.293 163.35 169.806 153.594 169.262 143.852C169.139 141.627 168.822 139.417 168.621 137.198C168.464 135.48 168.346 133.757 168.172 131.518C177.368 133.485 186.07 135.348 194.776 137.209C194.852 136.985 194.924 136.76 195 136.536C173.594 121.398 149.907 111.084 124.609 103.421ZM76.3557 129.986C101.301 106.797 130.975 93.5279 164.491 87.2882C163.835 86.8931 163.597 86.683 163.322 86.5933C161.731 86.0806 160.162 85.4166 158.528 85.1364C152.619 84.1277 146.716 82.8977 140.756 82.4214C134.83 81.9479 128.84 82.2197 122.878 82.2841C116.674 82.3513 110.586 83.5617 104.458 84.3799C102.332 84.6629 101.886 84.2146 102.284 82.0543C102.721 79.6756 103.105 77.2884 103.503 74.9012C104.175 70.8582 104.845 66.8179 105.506 62.772C105.868 60.567 106.207 58.3591 106.557 56.1541C106.344 56.0952 106.128 56.0364 105.915 55.9775C92.9959 79.3758 82.5814 103.785 76.3557 129.986ZM147.727 153.636C113.654 153.098 83.167 141.717 55 123.208C55.0672 123.684 55.1793 123.99 55.339 124.27C59.9901 132.555 65.6442 140.097 72.2566 146.917C79.5134 154.398 87.5715 160.915 96.1872 166.757C96.742 167.133 97.2239 167.612 97.8991 168.175C89.9615 174.025 82.2088 179.738 74.456 185.451C74.5345 185.577 74.6157 185.7 74.6942 185.826C100.309 178.06 124.912 167.979 147.727 153.636ZM115.159 136.987C119.005 136.954 121.872 134.02 121.804 130.086C121.748 126.755 118.843 123.575 114.8 123.693C110.947 123.805 108.392 127.066 108.311 130.383C108.221 133.964 111.872 137.245 115.159 136.987Z" fill="white"/>
<path d="M124.609 103.421C149.907 111.084 173.594 121.398 194.998 136.534C194.922 136.758 194.849 136.982 194.773 137.206C186.071 135.346 177.366 133.482 168.17 131.515C168.344 133.757 168.461 135.477 168.618 137.195C168.82 139.414 169.136 141.627 169.26 143.849C169.801 153.591 170.291 163.347 169.128 173.07C168.632 177.219 167.817 181.344 166.887 185.42C166.351 187.757 165.312 189.979 164.457 192.237C164.267 192.739 163.903 193.173 163.384 194.019C162.978 192.918 162.563 192.195 162.454 191.43C161.499 184.605 159.994 177.9 158.041 171.296C156.329 165.499 154.687 159.677 152.743 153.958C151.429 150.097 149.748 146.348 148.044 142.636C145.699 137.525 143.452 132.342 140.661 127.478C137.504 121.97 133.844 116.744 130.3 111.463C128.672 109.039 126.801 106.778 125.052 104.433C124.906 104.237 124.844 103.973 124.609 103.421Z" fill="#85C229"/>
<path d="M76.3557 129.986C82.5814 103.785 92.9961 79.3758 105.913 55.9775C106.126 56.0364 106.341 56.0952 106.554 56.1541C106.204 58.3591 105.865 60.567 105.504 62.772C104.842 66.8151 104.173 70.8582 103.5 74.9012C103.102 77.2884 102.719 79.6756 102.281 82.0544C101.884 84.2146 102.332 84.6629 104.456 84.3799C110.581 83.5646 116.672 82.3542 122.875 82.2841C128.835 82.2197 134.828 81.9479 140.754 82.4214C146.713 82.8977 152.617 84.1249 158.526 85.1364C160.159 85.4166 161.728 86.0806 163.32 86.5933C163.594 86.683 163.832 86.8903 164.488 87.2882C130.975 93.5251 101.298 106.795 76.3557 129.986Z" fill="#E57819"/>
<path d="M147.727 153.636C124.912 167.981 100.309 178.06 74.6942 185.826C74.6157 185.7 74.5345 185.577 74.456 185.451C82.2088 179.738 89.9615 174.025 97.8991 168.175C97.2239 167.612 96.742 167.133 96.1872 166.757C87.5687 160.915 79.5106 154.398 72.2566 146.917C65.6442 140.1 59.9901 132.558 55.339 124.27C55.1821 123.99 55.0672 123.681 55 123.208C83.167 141.717 113.654 153.098 147.727 153.636Z" fill="#792F83"/>
<path d="M115.159 136.987C111.875 137.242 108.224 133.961 108.311 130.383C108.392 127.069 110.947 123.805 114.8 123.693C118.843 123.575 121.748 126.755 121.804 130.086C121.869 134.02 119.005 136.954 115.159 136.987Z" fill="#E57819"/>
</svg>
