<svg width="250" height="250" viewBox="0 0 250 250" fill="none" xmlns="http://www.w3.org/2000/svg">
<mask id="path-1-inside-1_453_511" fill="white">
<path d="M0 125C0 55.9644 55.9644 0 125 0C194.036 0 250 55.9644 250 125C250 194.036 194.036 250 125 250C55.9644 250 0 194.036 0 125Z"/>
</mask>
<path d="M0 125C0 55.9644 55.9644 0 125 0C194.036 0 250 55.9644 250 125C250 194.036 194.036 250 125 250C55.9644 250 0 194.036 0 125Z" fill="white"/>
<path d="M0 125M250 125M250 125M0 125M125 0M250 125M125 250M0 125M125 250V248C57.069 248 2 192.931 2 125H0H-2C-2 195.14 54.8598 252 125 252V250ZM250 125H248C248 192.931 192.931 248 125 248V250V252C195.14 252 252 195.14 252 125H250ZM125 0V2C192.931 2 248 57.069 248 125H250H252C252 54.8598 195.14 -2 125 -2V0ZM125 0V-2C54.8598 -2 -2 54.8598 -2 125H0H2C2 57.069 57.069 2 125 2V0Z" fill="#DDDBDB" mask="url(#path-1-inside-1_453_511)"/>
<path d="M177.178 66.2649C175.949 66.0381 174.703 65.9243 173.454 65.9248H57.0297C56.7526 65.9253 56.487 66.0356 56.2911 66.2315C56.0952 66.4275 55.9849 66.6931 55.9844 66.9701V164.599C55.9827 169.234 57.5507 173.733 60.4328 177.362C94.041 164.353 153.116 118.916 179.762 66.9106C178.916 66.6386 178.052 66.4229 177.178 66.2649Z" fill="#11237D"/>
<path d="M194.011 86.4856V184.111C194.01 184.388 193.9 184.654 193.704 184.849C193.508 185.045 193.242 185.156 192.965 185.156H76.5413C73.4504 185.159 70.3987 184.464 67.6137 183.123C101.844 169.42 161.108 123.337 186.98 71.0054C189.191 72.9319 190.964 75.311 192.177 77.9817C193.39 80.6523 194.015 83.5524 194.011 86.4856Z" fill="#4DC247"/>
</svg>
