<svg width="250" height="250" viewBox="0 0 250 250" fill="none" xmlns="http://www.w3.org/2000/svg">
<path d="M0 125C0 55.9644 55.9644 0 125 0C194.036 0 250 55.9644 250 125C250 194.036 194.036 250 125 250C55.9644 250 0 194.036 0 125Z" fill="white"/>
<path d="M177.177 66.265C175.949 66.0382 174.702 65.9244 173.453 65.9249H57.029C56.7519 65.9254 56.4863 66.0357 56.2904 66.2317C56.0944 66.4276 55.9842 66.6932 55.9836 66.9703V164.599C55.982 169.234 57.55 173.733 60.4321 177.362C94.0403 164.353 153.115 118.916 179.761 66.9107C178.915 66.6387 178.052 66.4231 177.177 66.265Z" fill="#11237D"/>
<path d="M194.01 86.4857V184.111C194.009 184.388 193.899 184.654 193.703 184.85C193.507 185.046 193.242 185.156 192.965 185.156H76.5406C73.4496 185.159 70.3979 184.464 67.6129 183.123C101.844 169.421 161.107 123.338 186.979 71.0056C189.191 72.9321 190.963 75.3111 192.176 77.9818C193.389 80.6525 194.015 83.5525 194.01 86.4857Z" fill="#4DC247"/>
</svg>
