<svg width="250" height="250" viewBox="0 0 250 250" fill="none" xmlns="http://www.w3.org/2000/svg">
<path d="M0 125C0 55.9644 55.9644 0 125 0C194.036 0 250 55.9644 250 125C250 194.036 194.036 250 125 250C55.9644 250 0 194.036 0 125Z" fill="#2A3362"/>
<path d="M54.9998 92.593C54.9998 85.1414 57.1788 78.7793 61.7515 74.2065L69.7042 82.1592C60.8529 90.9786 68.5828 118.399 93.7847 143.625C118.987 168.851 146.423 176.573 155.266 167.737L163.219 175.69C148.3 190.609 114.318 180.024 85.8719 151.57C66.1414 131.831 54.9998 109.437 54.9998 92.593Z" fill="#009A46"/>
<path d="M105.149 182.545C97.6974 182.545 91.3353 180.366 86.7546 175.793L94.7072 167.841C103.543 176.676 130.963 168.946 156.189 143.728C181.415 118.511 189.129 91.09 180.293 82.2546L188.246 74.302C203.173 89.2211 192.58 123.203 164.126 151.649C144.387 171.411 121.993 182.545 105.149 182.545Z" fill="#FF5805"/>
<path d="M166.758 140.269C161.931 126.368 152.07 111.512 138.987 98.4382C110.541 69.9837 76.5593 59.3908 61.6402 74.3179C60.5825 75.3835 61.4971 78.0159 63.692 80.2108C65.8869 82.4057 68.5192 83.3123 69.5769 82.2546C78.4202 73.4192 105.841 81.1492 131.059 106.375C142.988 118.304 151.879 131.625 156.165 143.951C159.919 154.759 159.553 163.475 155.179 167.849C154.113 168.906 155.036 171.547 157.223 173.734C159.41 175.921 162.05 176.843 163.116 175.777C170.758 168.135 172.054 155.506 166.758 140.269Z" fill="#F5AFCB"/>
<path d="M188.23 74.3179C180.572 66.6595 167.959 65.3632 152.706 70.6676C138.812 75.4869 123.949 85.3561 110.875 98.4302C82.4284 126.877 71.8355 160.858 86.7546 175.785C87.8202 176.843 90.4526 175.929 92.6475 173.742C94.8424 171.555 95.757 168.914 94.6913 167.849C85.8321 159.013 93.5859 131.593 118.812 106.367C130.741 94.438 144.061 85.547 156.388 81.2605C167.195 77.5148 175.911 77.8727 180.293 82.2466C181.351 83.3043 183.991 82.3898 186.178 80.1949C188.365 77.9999 189.288 75.3756 188.23 74.3179Z" fill="#FF9B00"/>
</svg>
