<svg width="250" height="250" viewBox="0 0 250 250" fill="none" xmlns="http://www.w3.org/2000/svg">
<g clip-path="url(#clip0_1_1832)">
<path d="M0 125C0 55.9644 55.9644 0 125 0C194.036 0 250 55.9644 250 125C250 194.036 194.036 250 125 250C55.9644 250 0 194.036 0 125Z" fill="#1B5ECE"/>
<path fill-rule="evenodd" clip-rule="evenodd" d="M63.6482 179.124C68.6521 177.975 138.436 205.32 172.205 191.869C191.295 184.34 182.695 92.7281 188.785 91.4967C198.433 89.5477 201.099 114.383 201.562 138.516C201.915 156.685 201.676 174.908 198.582 178.516C198.746 180.638 236.468 167.81 238.162 162.963C239.542 159.006 238.248 140.669 235.091 121.599C231.15 97.8143 223.287 74.9751 226.464 73.1477C231.633 70.1791 241.134 95.8692 242.942 98.2614C244.75 100.65 253.307 111.407 255.452 118.889C257.597 126.379 264.433 148.744 266.636 151.042C266.636 151.042 268.244 146.175 268.927 144.614C272.291 136.94 284.527 115.022 284.527 115.022C284.527 115.022 277.844 97.1634 268.327 80.4889C258.809 63.8065 249.927 48.383 252.327 47.1673C257.021 44.7987 274.68 71.9987 276.742 81.2496C278.813 90.5634 278.754 99.3281 278.754 99.5516C279.06 99.1987 298.44 76.6104 293.291 54.2575C288.095 31.7202 279.134 30.9124 277.264 27.1712C275.389 23.43 267.711 13.2026 263.209 13.4536C258.707 13.7045 242.033 18.3124 242.033 18.3124L63.6482 179.124ZM63.6168 178.999L241.805 18.2143C241.805 18.2143 248.374 1.87317 249.178 -2.66409C249.989 -7.20526 241.06 -16.2876 237.676 -18.6641C234.291 -21.0406 234.636 -30.2327 213.48 -38.3543C192.327 -46.4719 167.793 -29.3111 167.793 -29.3111C167.793 -29.3111 176.393 -28.2798 185.26 -24.9582C193.954 -21.7033 218.06 -0.338593 215.174 4.12416C213.695 6.41043 199.883 -4.55428 184.934 -16.3229C169.989 -28.0876 153.542 -37.1308 153.542 -37.1308C153.542 -37.1308 130.782 -27.4798 122.931 -25.0249C121.334 -24.5308 116.417 -23.5151 116.417 -23.5151C118.366 -20.9857 139.154 -11.2249 146.131 -8.1033C153.103 -4.97781 162.44 5.06532 164.523 7.20259C166.609 9.33592 190.284 22.23 186.758 27.0967C184.585 30.0967 163.472 19.23 140.938 12.2261C122.88 6.61827 105.287 2.98689 101.283 3.88885C96.3776 4.99474 79.2011 41.6692 81.2364 42.1085C85.1149 39.4183 102.785 41.481 120.334 44.1281C143.64 47.6496 167.342 53.4849 164.24 63.034C162.28 69.0614 74.6757 48.7673 64.9776 67.1908C47.6953 99.7751 65.3619 174.069 63.6168 179.003V178.999Z" fill="#164DA8"/>
<path fill-rule="evenodd" clip-rule="evenodd" d="M69.8094 106C69.8094 117.007 76.9257 124.949 86.9167 124.949C88.9022 124.949 90.8175 124.608 92.5641 123.986C89.2783 122.405 86.9835 119.003 86.9835 115.081C86.9835 109.648 91.3657 105.21 96.7706 105.21C99.6452 105.21 102.246 106.45 104.024 108.443C104.129 107.652 104.165 106.826 104.165 106C104.165 95.0993 96.7706 87.1887 86.9167 87.1887C76.9257 87.1887 69.8094 95.0993 69.8094 106ZM55.0285 106C55.0285 87.8107 68.5759 73.434 86.9167 73.434C105.395 73.434 118.942 87.8072 118.942 106C118.942 124.331 105.395 138.672 86.9167 138.672C68.3018 138.672 55.0285 124.334 55.0285 106ZM180.216 106C180.216 95.0993 172.826 87.1887 162.972 87.1887C152.981 87.1887 145.829 95.0993 145.829 106C145.829 117.007 152.981 124.949 162.972 124.949C164.957 124.949 166.873 124.608 168.619 123.986C165.298 122.37 163.042 119.003 163.042 115.081C163.042 109.648 167.421 105.21 172.826 105.21C175.7 105.21 178.301 106.45 180.079 108.443C180.184 107.652 180.22 106.826 180.22 106H180.216ZM195 106C195 124.331 181.45 138.672 162.972 138.672C144.36 138.672 131.084 124.334 131.084 106C131.084 87.8107 144.599 73.434 162.972 73.434C181.45 73.434 195 87.8072 195 106ZM110.782 73.2407C111.892 77.6019 116.31 80.2341 120.643 79.12C124.983 78.0025 127.601 73.5676 126.487 69.2029L110.782 73.2442V73.2407ZM104.168 148.164H118.949C118.949 166.456 105.402 180.797 86.9237 180.797C68.3088 180.797 55.0004 166.459 55.0004 148.161H69.7813C69.7813 159.132 76.9328 167.043 86.9237 167.043C96.7776 167.043 104.168 159.132 104.168 148.161V148.164ZM195 155.035V166.523C195 169.872 192.927 172.096 189.332 172.096C186.331 172.096 184.714 170.423 184.141 168.294L186.809 167.742C187.048 168.912 187.835 169.633 189.332 169.633C191.072 169.633 192.143 168.554 192.143 166.547V165.278L192.119 165.205C191.307 166.185 190.33 166.856 188.52 166.856C185.927 166.856 184.191 165.324 184.191 161.831V155.035H187.048V161.353C187.048 163.507 187.997 164.175 189.427 164.175C190.973 164.175 192.143 163.149 192.143 161.135V155.035H195ZM176.21 157.069C174.281 157.069 173.209 158.384 172.949 159.747H179.281C179.211 158.672 178.255 157.069 176.21 157.069ZM172.924 161.954C173.044 163.458 174.33 164.941 176.21 164.941C177.872 164.941 178.828 163.936 179.113 163.124L181.516 163.866C180.828 165.778 179.113 167.31 176.21 167.31C172.805 167.31 170.186 164.678 170.186 160.995C170.186 157.382 172.805 154.704 176.185 154.704C179.64 154.704 181.801 157.213 181.801 160.854V161.951H172.924V161.954ZM157.208 155.035H159.563L159.971 156.468C160.709 155.488 161.83 154.701 163.59 154.701C166.279 154.701 167.853 156.257 167.853 159.747V166.976H164.996V160.134C164.996 158.025 164.015 157.357 162.684 157.357C161.232 157.357 160.065 158.384 160.065 160.422V166.976H157.208V155.035ZM152.014 160.995C152.014 158.886 150.588 157.357 148.679 157.357C146.754 157.357 145.372 158.886 145.372 160.995C145.372 163.124 146.754 164.653 148.679 164.653C150.588 164.653 152.014 163.124 152.014 160.998V160.995ZM142.515 160.995C142.515 157.48 145.137 154.704 148.679 154.704C152.253 154.704 154.871 157.48 154.871 160.995C154.871 164.533 152.253 167.313 148.679 167.313C145.088 167.313 142.515 164.537 142.515 160.995ZM122.916 155.035H125.271L125.654 156.447C126.367 155.488 127.626 154.701 129.319 154.701C131.108 154.701 132.061 155.562 132.535 156.493C133.273 155.537 134.51 154.701 136.341 154.701C138.555 154.701 140.171 156.015 140.171 159.079V166.976H137.318V159.87C137.318 158.053 136.534 157.357 135.294 157.357C133.983 157.357 132.985 158.313 132.985 160.204V166.976H130.128V159.87C130.128 158.053 129.274 157.357 128.082 157.357C126.796 157.357 125.774 158.289 125.774 160.204V166.976H122.916V155.035Z" fill="white"/>
</g>
<defs>
<clipPath id="clip0_1_1832">
<path d="M0 125C0 55.9644 55.9644 0 125 0C194.036 0 250 55.9644 250 125C250 194.036 194.036 250 125 250C55.9644 250 0 194.036 0 125Z" fill="white"/>
</clipPath>
</defs>
</svg>
