<svg width="250" height="250" viewBox="0 0 250 250" fill="none" xmlns="http://www.w3.org/2000/svg">
<mask id="path-1-inside-1_453_504" fill="white">
<path d="M0 125C0 55.9644 55.9644 0 125 0C194.036 0 250 55.9644 250 125C250 194.036 194.036 250 125 250C55.9644 250 0 194.036 0 125Z"/>
</mask>
<path d="M0 125C0 55.9644 55.9644 0 125 0C194.036 0 250 55.9644 250 125C250 194.036 194.036 250 125 250C55.9644 250 0 194.036 0 125Z" fill="white"/>
<path d="M0 125M250 125M250 125M0 125M125 0M250 125M125 250M0 125M125 250V248C57.069 248 2 192.931 2 125H0H-2C-2 195.14 54.8598 252 125 252V250ZM250 125H248C248 192.931 192.931 248 125 248V250V252C195.14 252 252 195.14 252 125H250ZM125 0V2C192.931 2 248 57.069 248 125H250H252C252 54.8598 195.14 -2 125 -2V0ZM125 0V-2C54.8598 -2 -2 54.8598 -2 125H0H2C2 57.069 57.069 2 125 2V0Z" fill="#DDDBDB" mask="url(#path-1-inside-1_453_504)"/>
<path d="M142.383 113.286C142.636 113.254 142.881 113.245 143.136 113.237C147.805 113.091 152.678 113.779 156.278 117.014C158.09 118.51 159.32 120.506 159.856 122.796C159.952 123.205 160.021 123.625 160.021 125.393C158.494 125.393 151.284 125.514 149.981 125.53C149.753 124.341 149.662 123.093 148.482 121.942C144.639 118.194 136.262 121.76 139.842 126.965C140.969 128.604 147.376 129.495 149.5 130.106C153.437 131.238 157.948 132.952 159.651 137.16C160.269 138.683 160.341 139.784 160.351 141.396C160.39 143.973 159.387 146.456 157.569 148.282C154.164 151.725 149.663 152.837 144.949 152.866C139.887 152.913 135.289 152.189 131.512 148.487C128.886 145.913 127.946 143.591 127.895 139.952C133.824 140.016 134.332 140.016 137.472 140.016C137.757 142.153 137.864 142.992 139.176 144.057C140.755 145.338 143.031 145.876 145.045 145.757C147.337 145.746 150.491 143.968 150.228 141.388C149.64 137.139 142.578 136.804 139.417 135.831C134.12 134.198 129.101 131.835 128.881 125.502C128.788 122.804 129.673 120.098 131.471 118.044C134.25 114.865 138.264 113.514 142.383 113.286Z" fill="#71B003"/>
<path d="M87.1882 128.815C87.3519 127.786 87.5816 126.809 87.9646 125.838C93.28 112.365 112.062 110.242 120.487 121.946C123.524 126.157 124.738 131.414 123.856 136.532C123.265 140.123 121.288 143.635 118.78 146.228C113.572 151.612 105.826 153.026 98.8425 150.678C98.1383 150.466 97.0408 150.534 95.9323 150.148C92.7232 149.07 90.0074 146.664 88.5281 143.591C86.3136 138.99 85.5956 133.704 87.1882 128.815Z" fill="#72B202"/>
<path d="M87.1882 128.815C89.0894 125.223 91.0618 123.197 95.0289 121.94C100.619 120.169 105.892 121.582 108.871 126.902C110.446 129.717 110.725 131.978 111.636 134.97C109.729 135.61 108.084 135.985 106.175 136.51L95.2163 139.469C96.3977 142.655 98.7018 145.023 102.353 144.323C104.753 143.862 106.765 143.027 108.709 141.568C109.235 141.173 109.979 140.587 110.54 140.285C111.591 141.557 112.675 143.324 113.701 144.481C113.195 144.877 112.804 145.35 112.349 145.754C108.955 148.76 104.185 150.652 99.6344 150.643C99.3814 150.642 99.0983 150.655 98.8425 150.678C98.1383 150.466 97.0408 150.534 95.9323 150.148C92.7232 149.07 90.0074 146.664 88.5281 143.591C86.3136 138.99 85.5956 133.704 87.1882 128.815Z" fill="#FEFEFE"/>
<path d="M98.6292 127.375C101.478 127.391 102.253 129.657 103.032 132.004C101.316 132.603 99.2793 132.98 97.4726 133.549C96.413 133.874 95.0761 134.16 93.9819 134.423C93.9292 133.946 93.8935 133.467 93.8748 132.987C93.7473 129.71 95.2083 127.507 98.6292 127.375Z" fill="#72B202"/>
<path d="M59.8887 99.6396H50L50.1064 151.77H59.8677V136.774H62.8799L72.2194 151.77H83.6344L70.6323 131.931L81.9252 115.58H70.6323L62.4526 129.184H59.8887V99.6396Z" fill="#71B003"/>
<path d="M176.995 97.1328H166.621L166.635 152.073H176.995V123.912C178.778 122.253 182.349 120.66 185.707 121.551C188.277 122.233 189.86 126.302 189.617 129.601V152.073H200.001V130.656C200.001 119.948 196.391 116.002 193.37 114.491C184.974 110.675 178.955 115.55 176.995 118.464V97.1328Z" fill="#71B003"/>
</svg>
