<svg width="250" height="250" viewBox="0 0 250 250" fill="none" xmlns="http://www.w3.org/2000/svg">
<path d="M0 125C0 55.9644 55.9644 0 125 0C194.036 0 250 55.9644 250 125C250 194.036 194.036 250 125 250C55.9644 250 0 194.036 0 125Z" fill="white"/>
<path d="M142.382 113.285C142.635 113.254 142.88 113.244 143.135 113.236C147.804 113.091 152.677 113.779 156.278 117.014C158.089 118.509 159.319 120.506 159.855 122.795C159.951 123.205 160.02 123.625 160.02 125.393C158.493 125.393 151.283 125.513 149.98 125.53C149.752 124.341 149.661 123.092 148.481 121.942C144.638 118.193 136.261 121.759 139.841 126.965C140.969 128.604 147.375 129.495 149.499 130.106C153.436 131.238 157.947 132.951 159.65 137.16C160.268 138.683 160.34 139.783 160.35 141.395C160.389 143.972 159.386 146.456 157.568 148.282C154.163 151.724 149.662 152.837 144.948 152.866C139.886 152.913 135.288 152.189 131.511 148.486C128.885 145.913 127.945 143.591 127.894 139.952C133.823 140.015 134.331 140.015 137.471 140.015C137.756 142.152 137.863 142.992 139.175 144.056C140.754 145.338 143.03 145.876 145.044 145.756C147.336 145.745 150.49 143.968 150.227 141.388C149.639 137.139 142.577 136.804 139.416 135.83C134.119 134.198 129.1 131.835 128.88 125.501C128.787 122.804 129.672 120.098 131.47 118.043C134.249 114.865 138.263 113.513 142.382 113.285Z" fill="#71B003"/>
<path d="M87.187 128.815C87.3506 127.785 87.5803 126.808 87.9634 125.837C93.2788 112.364 112.061 110.241 120.485 121.945C123.523 126.156 124.737 131.414 123.854 136.531C123.264 140.122 121.287 143.634 118.779 146.228C113.571 151.612 105.825 153.025 98.8413 150.677C98.1371 150.465 97.0396 150.533 95.931 150.147C92.722 149.069 90.0061 146.664 88.5269 143.59C86.3124 138.989 85.5944 133.703 87.187 128.815Z" fill="#72B202"/>
<path d="M87.187 128.814C89.0882 125.222 91.0606 123.196 95.0276 121.939C100.618 120.168 105.891 121.581 108.869 126.901C110.445 129.716 110.724 131.977 111.635 134.969C109.728 135.609 108.082 135.984 106.174 136.509L95.2151 139.468C96.3965 142.654 98.7006 145.022 102.352 144.322C104.752 143.861 106.764 143.026 108.708 141.567C109.234 141.172 109.978 140.586 110.539 140.284C111.59 141.556 112.674 143.323 113.7 144.48C113.193 144.876 112.803 145.349 112.348 145.753C108.953 148.759 104.184 150.651 99.6332 150.642C99.3802 150.641 99.0971 150.654 98.8413 150.677C98.1371 150.465 97.0396 150.533 95.931 150.147C92.722 149.069 90.0061 146.663 88.5269 143.59C86.3124 138.989 85.5944 133.703 87.187 128.814Z" fill="#FEFEFE"/>
<path d="M98.6272 127.375C101.476 127.391 102.251 129.656 103.03 132.004C101.314 132.603 99.2774 132.98 97.4706 133.548C96.4111 133.874 95.0742 134.159 93.98 134.423C93.9273 133.946 93.8915 133.467 93.8729 132.987C93.7454 129.71 95.2064 127.506 98.6272 127.375Z" fill="#72B202"/>
<path d="M59.8884 99.6394H49.9998L50.1061 151.77H59.8675V136.774H62.8797L72.2192 151.77H83.6342L70.6321 131.931L81.925 115.579H70.6321L62.4524 129.184H59.8884V99.6394Z" fill="#71B003"/>
<path d="M176.994 97.1326H166.62L166.635 152.072H176.994V123.912C178.777 122.253 182.348 120.66 185.707 121.551C188.276 122.232 189.859 126.302 189.616 129.601V152.072H200V130.656C200 119.947 196.39 116.001 193.369 114.491C184.974 110.675 178.954 115.549 176.994 118.464V97.1326Z" fill="#71B003"/>
</svg>
