<svg width="250" height="250" viewBox="0 0 250 250" fill="none" xmlns="http://www.w3.org/2000/svg">
<path d="M0 125C0 55.9644 55.9644 0 125 0C194.036 0 250 55.9644 250 125C250 194.036 194.036 250 125 250C55.9644 250 0 194.036 0 125Z" fill="white"/>
<path d="M124 173.546V90.1432L102.272 104.347V172.518C102.272 175.219 101.746 176.653 100.217 176.271C98.993 175.965 98.6838 169.05 98.6822 165.631H74.5098C73.9004 175.991 77.6004 187.153 81.9776 191.125C86.3549 195.097 105.566 196.896 114.971 192.2C121.281 189.049 123.99 178.089 124 173.546Z" fill="#036426"/>
<path d="M74.5047 162.76H98.8V104.354L124.861 84.6746L151.027 104.354V171.169H175.309V89.9792L125.082 55L74.5047 89.9792V162.76Z" fill="#BD9648"/>
<path d="M126.12 192.267V90.4302L148.035 104.597V174.345L175.556 174.298V192.267H126.12Z" fill="#036426"/>
</svg>
