<svg width="250" height="250" viewBox="0 0 250 250" fill="none" xmlns="http://www.w3.org/2000/svg">
<mask id="path-1-inside-1_453_520" fill="white">
<path d="M0 125C0 55.9644 55.9644 0 125 0C194.036 0 250 55.9644 250 125C250 194.036 194.036 250 125 250C55.9644 250 0 194.036 0 125Z"/>
</mask>
<path d="M0 125C0 55.9644 55.9644 0 125 0C194.036 0 250 55.9644 250 125C250 194.036 194.036 250 125 250C55.9644 250 0 194.036 0 125Z" fill="white"/>
<path d="M0 125M250 125M250 125M0 125M125 0M250 125M125 250M0 125M125 250V248C57.069 248 2 192.931 2 125H0H-2C-2 195.14 54.8598 252 125 252V250ZM250 125H248C248 192.931 192.931 248 125 248V250V252C195.14 252 252 195.14 252 125H250ZM125 0V2C192.931 2 248 57.069 248 125H250H252C252 54.8598 195.14 -2 125 -2V0ZM125 0V-2C54.8598 -2 -2 54.8598 -2 125H0H2C2 57.069 57.069 2 125 2V0Z" fill="#DDDBDB" mask="url(#path-1-inside-1_453_520)"/>
<path d="M46 150.544C64.019 148.857 78.8948 139.617 90.35 125.834C102.434 111.294 109.54 92.9059 113.06 74.469C113.75 70.8068 114.309 67.1214 114.738 63.4196C114.898 62.0241 115.034 60.6258 115.144 59.2254C115.463 55.2285 114.878 52.5276 120.142 52.9788C120.413 53.0022 120.898 52.9809 121.192 52.9819L127.052 52.9903L146.465 52.9892L171.531 52.9892L179.723 52.9917C180.867 52.9929 182.034 52.9464 183.178 52.9693C183.903 52.9839 184.54 53.2529 185.1 53.707C185.718 54.2071 185.974 55.0895 185.992 55.8731C186.029 57.4073 185.931 59.0322 185.839 60.5716C185.679 63.5336 185.417 66.4894 185.054 69.4335C181.099 102.402 163.838 138.894 129.488 149.126C127.07 149.847 124.682 150.239 122.22 150.719C125.661 150.824 129.595 151.31 133.022 151.872C148.608 154.43 165.033 160.418 176.126 172.071C180.269 176.424 183.558 181.866 185.097 187.68C185.267 188.322 185.698 190.171 185.719 190.812C185.818 191.56 185.925 192.429 185.707 193.168C185.368 194.185 184.283 195.044 183.198 195.048C181.622 195.055 180.045 195.042 178.469 195.04L169.012 195.038H139.58L123.979 195.039L119.698 195.047C119.09 195.048 118.169 195.11 117.591 195.021C115.129 194.614 115.204 192.078 114.705 190.227C108.423 166.96 82.5679 155.75 60.8236 152.225C57.9172 151.745 54.9934 151.379 52.0586 151.126C50.4576 150.988 48.4456 150.945 46.9155 150.74C46.6142 150.708 46.3564 150.689 46.0537 150.675L46 150.544Z" fill="#87C21A"/>
</svg>
