<svg width="250" height="250" viewBox="0 0 250 250" fill="none" xmlns="http://www.w3.org/2000/svg">
<path d="M0 125C0 55.9644 55.9644 0 125 0C194.036 0 250 55.9644 250 125C250 194.036 194.036 250 125 250C55.9644 250 0 194.036 0 125Z" fill="black"/>
<path d="M189.777 82.1777H158.985C158.065 82.1773 157.161 82.4197 156.365 82.8806C155.57 83.3414 154.909 84.0044 154.452 84.8023L145.321 100.616H159.521L162.207 95.9568C162.262 95.8433 162.325 95.7341 162.395 95.6299L162.4 95.6233C162.639 95.27 162.961 94.9807 163.338 94.7809C163.715 94.5811 164.136 94.4767 164.562 94.477H172.92V94.5059C173.384 94.5063 173.838 94.6297 174.238 94.8636C174.638 95.0975 174.969 95.4335 175.196 95.8371C175.423 96.2407 175.539 96.6975 175.532 97.1606C175.524 97.6237 175.394 98.0766 175.154 98.4729L175.191 98.4937L163.157 119.334C167.319 120.153 171.067 122.393 173.76 125.67C176.453 128.947 177.925 133.057 177.923 137.299V137.308C177.923 142.167 175.993 146.826 172.558 150.262C169.122 153.697 164.463 155.627 159.604 155.627C154.746 155.627 150.087 153.697 146.651 150.262C143.216 146.826 141.286 142.167 141.286 137.308V137.299H128.951C128.951 139.354 129.158 141.404 129.567 143.418C130.474 147.855 132.362 152.033 135.093 155.646C136.388 157.361 137.858 158.937 139.479 160.347C143.898 164.185 149.327 166.67 155.12 167.508C160.912 168.345 166.823 167.498 172.148 165.069C177.472 162.639 181.985 158.729 185.149 153.805C188.313 148.881 189.993 143.151 189.99 137.299V137.283C189.992 133.035 189.106 128.834 187.39 124.949C185.674 121.063 183.165 117.579 180.023 114.72L194.106 90.3266C194.109 90.3235 194.111 90.3185 194.114 90.3154C194.248 90.1162 194.368 89.9079 194.473 89.6919C194.86 88.8951 195.039 88.0129 194.992 87.1281C194.945 86.2434 194.673 85.3851 194.204 84.6339C193.734 83.8828 193.081 83.2634 192.306 82.8339C191.531 82.4044 190.659 82.179 189.773 82.1787L189.777 82.1777Z" fill="#FCED00"/>
<path d="M152.129 131.193C150.73 132.914 149.967 135.065 149.97 137.282V137.298C149.97 139.862 150.989 142.32 152.801 144.132C154.614 145.945 157.072 146.963 159.635 146.963C162.199 146.963 164.657 145.945 166.469 144.132C168.282 142.32 169.3 139.862 169.3 137.298V137.282C169.3 136.013 169.05 134.756 168.565 133.583C168.079 132.411 167.367 131.345 166.469 130.447C165.572 129.55 164.506 128.838 163.333 128.352C162.16 127.867 160.903 127.617 159.634 127.617C159.197 127.617 158.761 127.647 158.329 127.705C155.893 128.036 153.676 129.283 152.129 131.193Z" fill="#FCED00"/>
<path d="M135.061 118.966C132.341 122.581 130.463 126.759 129.565 131.193H141.868L155.848 106.976L155.984 106.74H116.305C116.254 106.74 116.2 106.74 116.147 106.74C116.094 106.74 116.042 106.74 115.99 106.74C114.978 106.766 113.988 107.043 113.11 107.547C112.232 108.051 111.493 108.766 110.96 109.627L110.763 109.968L105.566 118.967H79.7162C78.6171 118.967 77.5385 119.263 76.5942 119.825C75.6498 120.388 74.8748 121.194 74.351 122.161L74.3399 122.154L55.002 155.646H69.6961L83.0266 132.555L83.0377 132.561C83.2615 132.147 83.593 131.802 83.9972 131.561C84.4014 131.32 84.8632 131.193 85.3338 131.193H98.5055L84.3878 155.645H98.8538L119.298 120.236H119.301C119.534 119.851 119.862 119.534 120.253 119.313C120.644 119.093 121.086 118.977 121.535 118.977V118.965L135.061 118.966Z" fill="#FCED00"/>
</svg>
