<svg width="250" height="250" viewBox="0 0 250 250" fill="none" xmlns="http://www.w3.org/2000/svg">
<path d="M0 125C0 55.9644 55.9644 0 125 0C194.036 0 250 55.9644 250 125C250 194.036 194.036 250 125 250C55.9644 250 0 194.036 0 125Z" fill="black"/>
<path d="M189.776 82.1782H158.984C158.064 82.1777 157.161 82.4202 156.365 82.881C155.569 83.3419 154.909 84.0048 154.451 84.8027L145.32 100.616H159.52L162.207 95.9573C162.261 95.8438 162.324 95.7346 162.395 95.6304L162.399 95.6237C162.639 95.2705 162.961 94.9812 163.338 94.7814C163.715 94.5815 164.135 94.4772 164.562 94.4775H172.92V94.5064C173.383 94.5068 173.838 94.6302 174.238 94.8641C174.637 95.098 174.968 95.4339 175.195 95.8376C175.422 96.2412 175.538 96.6979 175.531 97.1611C175.524 97.6242 175.393 98.0771 175.154 98.4733L175.19 98.4941L163.156 119.335C167.318 120.154 171.066 122.393 173.759 125.67C176.453 128.947 177.924 133.058 177.923 137.299V137.309C177.923 142.167 175.993 146.827 172.557 150.262C169.122 153.698 164.462 155.628 159.604 155.628C154.745 155.628 150.086 153.698 146.651 150.262C143.215 146.827 141.285 142.167 141.285 137.309V137.299H128.95C128.951 139.355 129.157 141.405 129.567 143.419C130.474 147.856 132.362 152.034 135.093 155.647C136.387 157.362 137.857 158.937 139.479 160.347C143.897 164.185 149.327 166.671 155.119 167.508C160.912 168.346 166.823 167.499 172.147 165.069C177.472 162.64 181.985 158.73 185.148 153.806C188.312 148.882 189.992 143.152 189.989 137.299V137.284C189.991 133.036 189.105 128.835 187.389 124.949C185.673 121.064 183.164 117.58 180.023 114.72L194.105 90.3271C194.108 90.324 194.11 90.319 194.113 90.3159C194.247 90.1167 194.367 89.9084 194.472 89.6924C194.86 88.8956 195.038 88.0134 194.991 87.1286C194.944 86.2439 194.673 85.3856 194.203 84.6344C193.733 83.8833 193.08 83.2639 192.305 82.8344C191.53 82.4049 190.659 82.1795 189.773 82.1792L189.776 82.1782Z" fill="#FCED00"/>
<path d="M152.129 131.193C150.729 132.914 149.967 135.065 149.97 137.283V137.299C149.97 139.862 150.988 142.32 152.801 144.133C154.613 145.945 157.072 146.964 159.635 146.964C162.198 146.964 164.656 145.945 166.469 144.133C168.281 142.32 169.3 139.862 169.3 137.299V137.283C169.3 136.014 169.05 134.757 168.564 133.584C168.078 132.411 167.366 131.346 166.469 130.448C165.571 129.55 164.505 128.838 163.333 128.353C162.16 127.867 160.903 127.617 159.633 127.617C159.197 127.618 158.761 127.647 158.328 127.706C155.893 128.036 153.675 129.283 152.129 131.193Z" fill="#FCED00"/>
<path d="M135.06 118.967C132.34 122.582 130.462 126.759 129.564 131.193H141.867L155.847 106.977L155.984 106.741H116.304C116.254 106.741 116.199 106.741 116.147 106.741C116.094 106.741 116.041 106.741 115.989 106.741C114.977 106.767 113.987 107.044 113.109 107.548C112.231 108.052 111.493 108.766 110.96 109.627L110.762 109.968L105.566 118.967H79.7156C78.6166 118.967 77.5379 119.264 76.5936 119.826C75.6492 120.388 74.8742 121.195 74.3504 122.161L74.3393 122.155L55.0014 155.646H69.6955L83.026 132.555L83.0372 132.562C83.2609 132.148 83.5924 131.802 83.9966 131.561C84.4008 131.32 84.8626 131.193 85.3332 131.193H98.505L84.3872 155.645H98.8532L119.298 120.236H119.301C119.533 119.852 119.861 119.534 120.253 119.314C120.644 119.093 121.085 118.978 121.535 118.978V118.965L135.06 118.967Z" fill="#FCED00"/>
</svg>
