<svg width="250" height="250" viewBox="0 0 250 250" fill="none" xmlns="http://www.w3.org/2000/svg">
<path d="M0 125C0 55.9644 55.9644 0 125 0C194.036 0 250 55.9644 250 125C250 194.036 194.036 250 125 250C55.9644 250 0 194.036 0 125Z" fill="white"/>
<path d="M123.572 80.6732L123.874 80.6355C123.939 80.6872 124.004 80.7388 124.068 80.7905C124.494 83.0602 125.943 88.1151 126.776 90.0223C128.441 93.8352 131.775 97.8082 135.11 99.9297C140.625 103.438 148.825 105.392 152.996 110.593C156.456 114.908 157.624 124.448 156.908 129.914C156.514 130.259 156.105 130.581 155.682 130.89C152.689 133.058 149.889 135.545 146.787 137.554C142.639 140.24 138.783 143.288 134.737 146.122C134.783 142.703 134.471 139.288 133.806 135.934C133.588 134.761 133.321 133.599 133.005 132.449C131.051 125.544 126.546 119.318 120.243 115.908C115.765 113.485 111.14 111.026 106.671 108.589C96.1743 102.865 92.9831 94.8278 89.9282 83.9765C93.475 84.1823 97.1118 83.3429 100.613 82.9839L123.572 80.6732Z" fill="#51B749"/>
<path fill-rule="evenodd" clip-rule="evenodd" d="M101.885 119.9C102.115 119.957 102.347 120.014 102.58 120.072C102.411 120.03 102.242 119.989 102.075 119.947C102.011 119.931 101.948 119.916 101.885 119.9Z" fill="#2A9367"/>
<path d="M164.289 141.594L164.502 141.661C163.877 143.296 156.04 149.33 154.2 150.604C152.96 151.462 151.671 152.249 150.341 152.961C146.319 155.096 141.846 157.166 137.592 158.784C134.428 159.988 131.273 160.704 128.063 161.549C121.348 163.316 115.109 164.601 108.112 164.392C106.4 164.341 104.458 164.474 102.729 164.264C98.2761 163.721 93.6509 162.497 89.3675 161.182C88.034 160.762 86.773 160.37 85.4652 159.867C89.9845 159.83 94.1477 159.974 98.7127 159.76C109.998 159.24 121.202 157.578 132.153 154.799C133.974 154.349 135.824 153.917 137.648 153.415C145.05 151.376 151.968 147.892 158.881 144.622C160.72 143.753 162.459 142.525 164.289 141.594Z" fill="#279269"/>
<path d="M77.2408 111.661C77.3733 111.684 80.1186 114.404 80.5833 114.777C83.1551 116.853 85.953 118.633 88.9237 120.082C92.6624 121.896 96.7432 122.846 100.824 123.673C108.513 125.231 117.294 127.772 123.325 132.992C125.414 134.801 127.341 137.426 129.026 139.641C127.079 138.265 125.055 136.618 123.072 135.174C118.458 131.558 114.062 130.398 108.53 128.948C101.992 127.295 95.226 125.932 88.6601 124.448C82.2789 123.007 76.8958 121.575 71.6401 117.489C70.7578 116.804 67.4379 114.166 67.2756 113.036C67.2503 113.051 76.5632 111.703 77.2408 111.661Z" fill="#056D3C"/>
<path d="M168.68 104.137C170.616 103.776 176.56 103.738 178.2 104.583C179.045 104.644 179.536 104.797 180.348 105.014C182.653 105.637 184.843 106.725 187.101 107.419C188.544 107.863 190.364 107.949 191.931 108.325L192.58 108.487C195.953 109.364 201.031 111.221 199.818 115.508C199.257 117.49 198.136 119.076 196.186 119.841C196.252 117.627 196.045 116.14 193.241 116.252C188.805 116.429 183.852 119.177 180.76 122.252C176.29 126.393 176.497 131.791 178.308 137.174C180.827 144.662 181.157 150.062 174.887 155.804C172.016 158.654 170.053 159.618 166.731 161.622C156.68 167.687 147.996 169.4 136.308 169.364C132.205 169.367 128.108 169.082 124.045 168.513C122.853 168.357 121.109 168.163 119.972 167.824C123.033 166.949 126.489 167.011 129.687 166.058C144.019 161.789 161.192 156.381 169.886 143.247C172.749 138.923 171.72 133.522 172.244 128.706C173.46 115.579 185.653 111.855 197.074 115.149C196.876 111.558 195.408 110.013 191.915 109.018C190.173 108.682 188.449 108.659 186.585 108.237C184.292 107.718 182.323 107.039 180.087 106.419C179.163 106.163 177.406 106.016 176.297 105.811C175.778 105.749 175.2 105.705 174.713 105.532C174.72 105.342 174.801 105.28 174.922 105.126L174.971 105.066C174.751 104.721 174.636 104.773 174.175 104.603C173.538 104.545 168.757 104.199 168.68 104.137Z" fill="#4FB845"/>
<path d="M176.936 108.605C173.522 108.521 172.581 109.181 172.538 109.521C176.245 110.024 178.22 111.058 178.743 111.511L179.765 109.076C179.625 108.919 178.864 108.605 176.936 108.605Z" fill="#4FB845"/>
<path d="M50.001 137.827C50.5966 138.019 51.2201 138.25 51.8142 138.458C55.967 139.845 59.724 141.519 63.9816 142.782C69.147 144.314 74.0655 145.392 79.31 146.522C86.067 147.979 92.9114 149.417 99.8021 150.126C105.913 150.754 112.565 150.668 118.701 150.455C120.751 150.384 123.124 150.249 125.149 149.942C127.155 149.639 129.104 148.994 131.181 148.882C125.066 154.613 105.712 154.891 97.4986 154.583C86.3006 154.165 74.4902 152.051 64.4326 146.969C62.0025 145.742 59.8558 144.901 57.4964 143.378C55.3243 141.976 53.6343 140.64 51.6387 139.017L50.001 137.827Z" fill="#066A3D"/>
<path d="M79.6202 101.11C78.1162 101.241 76.6073 101.372 75.1254 101.439C75.2386 101.625 75.348 101.806 75.4543 101.982L75.4588 101.989C77.4253 105.234 78.296 106.671 81.0894 109.729C86.9639 116.16 93.5936 117.936 101.715 119.858C102 119.929 102.289 120 102.58 120.072C107.21 121.219 112.5 122.529 116.727 124.603C118.184 125.318 119.681 126.453 121.031 127.477C121.235 127.631 121.436 127.783 121.632 127.931C125.009 130.468 127.261 133.487 129.444 137.079C130 137.996 130.516 138.937 130.988 139.9L132.202 142.571C132.168 141.767 131.967 140.284 131.824 139.484C130.238 131.513 126.391 124.358 119.454 119.788C116.459 117.814 113.194 116.299 109.928 114.783C105.426 112.693 100.922 110.603 97.1181 107.311C95.3858 105.806 92.8244 102.334 91.6141 100.299C89.7654 100.469 87.9085 100.568 86.052 100.667C84.9311 100.727 83.8103 100.787 82.6915 100.862C81.6767 100.931 80.6495 101.02 79.6202 101.11Z" fill="#2B9468"/>
</svg>
