<svg width="250" height="250" viewBox="0 0 250 250" fill="none" xmlns="http://www.w3.org/2000/svg">
<mask id="path-1-inside-1_453_491" fill="white">
<path d="M0 125C0 55.9644 55.9644 0 125 0C194.036 0 250 55.9644 250 125C250 194.036 194.036 250 125 250C55.9644 250 0 194.036 0 125Z"/>
</mask>
<path d="M0 125C0 55.9644 55.9644 0 125 0C194.036 0 250 55.9644 250 125C250 194.036 194.036 250 125 250C55.9644 250 0 194.036 0 125Z" fill="white"/>
<path d="M0 125M250 125M250 125M0 125M125 0M250 125M125 250M0 125M125 250V248C57.069 248 2 192.931 2 125H0H-2C-2 195.14 54.8598 252 125 252V250ZM250 125H248C248 192.931 192.931 248 125 248V250V252C195.14 252 252 195.14 252 125H250ZM125 0V2C192.931 2 248 57.069 248 125H250H252C252 54.8598 195.14 -2 125 -2V0ZM125 0V-2C54.8598 -2 -2 54.8598 -2 125H0H2C2 57.069 57.069 2 125 2V0Z" fill="#DDDBDB" mask="url(#path-1-inside-1_453_491)"/>
<path d="M123.571 80.6735L123.873 80.6357C123.938 80.6874 124.003 80.7391 124.067 80.7907C124.493 83.0604 125.942 88.1154 126.775 90.0226C128.44 93.8355 131.774 97.8084 135.109 99.93C140.624 103.438 148.824 105.393 152.995 110.594C156.455 114.908 157.623 124.448 156.907 129.914C156.513 130.259 156.104 130.582 155.681 130.891C152.688 133.058 149.888 135.545 146.786 137.554C142.638 140.24 138.782 143.289 134.736 146.123C134.782 142.703 134.47 139.288 133.805 135.934C133.587 134.762 133.32 133.599 133.004 132.449C131.05 125.544 126.545 119.318 120.242 115.908C115.764 113.485 111.139 111.026 106.67 108.589C96.1733 102.865 92.9822 94.828 89.9272 83.9767C93.474 84.1825 97.1108 83.3432 100.612 82.9842L123.571 80.6735Z" fill="#51B749"/>
<path fill-rule="evenodd" clip-rule="evenodd" d="M101.884 119.9C102.114 119.957 102.346 120.015 102.579 120.072C102.41 120.031 102.241 119.989 102.074 119.947C102.01 119.931 101.947 119.916 101.884 119.9Z" fill="#2A9367"/>
<path d="M164.288 141.594L164.501 141.661C163.876 143.296 156.039 149.331 154.199 150.604C152.959 151.462 151.67 152.249 150.34 152.961C146.318 155.096 141.845 157.166 137.591 158.785C134.427 159.988 131.272 160.705 128.063 161.549C121.347 163.317 115.108 164.601 108.111 164.392C106.399 164.341 104.457 164.474 102.728 164.264C98.2751 163.721 93.6499 162.497 89.3665 161.183C88.0331 160.762 86.772 160.37 85.4642 159.867C89.9835 159.83 94.1467 159.975 98.7118 159.761C109.997 159.241 121.201 157.578 132.152 154.8C133.973 154.349 135.823 153.917 137.647 153.415C145.049 151.376 151.967 147.892 158.881 144.623C160.719 143.753 162.458 142.526 164.288 141.594Z" fill="#279269"/>
<path d="M77.2399 111.662C77.3724 111.684 80.1177 114.404 80.5823 114.777C83.1541 116.854 85.952 118.633 88.9227 120.082C92.6614 121.896 96.7422 122.846 100.823 123.673C108.512 125.231 117.293 127.772 123.325 132.993C125.413 134.801 127.34 137.426 129.025 139.642C127.078 138.265 125.054 136.618 123.071 135.174C118.457 131.559 114.061 130.399 108.529 128.948C101.992 127.295 95.225 125.932 88.6591 124.449C82.2779 123.007 76.8948 121.575 71.6392 117.49C70.7568 116.804 67.4369 114.166 67.2747 113.036C67.2493 113.051 76.5623 111.703 77.2399 111.662Z" fill="#056D3C"/>
<path d="M168.679 104.137C170.615 103.777 176.559 103.738 178.199 104.583C179.044 104.644 179.535 104.797 180.347 105.014C182.652 105.638 184.842 106.725 187.1 107.42C188.543 107.863 190.363 107.95 191.93 108.325L192.58 108.488C195.952 109.364 201.03 111.222 199.817 115.509C199.256 117.49 198.135 119.077 196.185 119.841C196.251 117.627 196.044 116.14 193.24 116.252C188.804 116.429 183.851 119.177 180.759 122.253C176.289 126.393 176.496 131.791 178.307 137.174C180.826 144.663 181.156 150.062 174.886 155.804C172.015 158.654 170.052 159.618 166.73 161.622C156.679 167.687 147.995 169.4 136.307 169.364C132.204 169.367 128.107 169.082 124.045 168.513C122.852 168.357 121.108 168.163 119.971 167.825C123.032 166.95 126.488 167.011 129.686 166.058C144.018 161.789 161.191 156.381 169.885 143.247C172.748 138.923 171.719 133.522 172.243 128.706C173.459 115.579 185.652 111.855 197.073 115.149C196.876 111.558 195.407 110.013 191.914 109.019C190.172 108.682 188.448 108.659 186.584 108.238C184.291 107.718 182.322 107.039 180.086 106.419C179.162 106.163 177.405 106.016 176.296 105.811C175.777 105.75 175.199 105.706 174.712 105.532C174.719 105.342 174.8 105.28 174.921 105.127L174.97 105.066C174.75 104.721 174.635 104.774 174.174 104.603C173.537 104.545 168.756 104.199 168.679 104.137Z" fill="#4FB845"/>
<path d="M176.935 108.605C173.521 108.521 172.58 109.181 172.537 109.522C176.244 110.024 178.219 111.058 178.742 111.512L179.764 109.076C179.624 108.919 178.863 108.605 176.935 108.605Z" fill="#4FB845"/>
<path d="M50 137.827C50.5957 138.02 51.2191 138.251 51.8132 138.458C55.9661 139.845 59.723 141.519 63.9806 142.782C69.1461 144.314 74.0646 145.392 79.309 146.523C86.066 147.979 92.9104 149.418 99.8011 150.126C105.912 150.754 112.564 150.668 118.7 150.455C120.75 150.384 123.123 150.249 125.148 149.942C127.154 149.639 129.103 148.994 131.18 148.882C125.065 154.614 105.711 154.891 97.4977 154.584C86.2996 154.165 74.4893 152.051 64.4316 146.97C62.0015 145.742 59.8549 144.901 57.4954 143.378C55.3233 141.976 53.6333 140.641 51.6377 139.018L50 137.827Z" fill="#066A3D"/>
<path d="M79.6192 101.11C78.1152 101.241 76.6063 101.373 75.1244 101.439C75.2376 101.626 75.3471 101.806 75.4534 101.982L75.4578 101.989C77.4243 105.234 78.295 106.671 81.0884 109.729C86.9629 116.16 93.5926 117.936 101.714 119.858C101.999 119.929 102.288 120 102.579 120.072C107.209 121.219 112.499 122.529 116.726 124.604C118.183 125.318 119.68 126.453 121.03 127.477C121.234 127.631 121.435 127.783 121.631 127.931C125.008 130.468 127.26 133.487 129.443 137.079C129.999 137.996 130.515 138.937 130.987 139.9L132.201 142.571C132.167 141.767 131.966 140.284 131.823 139.484C130.237 131.513 126.39 124.358 119.453 119.788C116.458 117.814 113.193 116.299 109.927 114.783C105.425 112.694 100.921 110.603 97.1171 107.311C95.3848 105.806 92.8234 102.335 91.6132 100.299C89.7644 100.469 87.9075 100.568 86.051 100.667C84.9301 100.727 83.8094 100.787 82.6906 100.862C81.6757 100.931 80.6486 101.02 79.6192 101.11Z" fill="#2B9468"/>
</svg>
