<svg width="250" height="250" viewBox="0 0 250 250" fill="none" xmlns="http://www.w3.org/2000/svg">
<path d="M0 125C0 55.9644 55.9644 0 125 0C194.036 0 250 55.9644 250 125C250 194.036 194.036 250 125 250C55.9644 250 0 194.036 0 125Z" fill="#E6E7EA"/>
<path fill-rule="evenodd" clip-rule="evenodd" d="M193.651 92.7224V103.377H56.3498V92.5779L125.072 60.0105L193.651 92.7224ZM125 75.6931C120.582 75.6931 117 79.275 117 83.6931C117 88.1114 120.582 91.6931 125 91.6931C129.419 91.6931 133 88.1114 133 83.6931C133 79.275 129.418 75.6931 125 75.6931Z" fill="white"/>
<path d="M93 168.581H114V110.52H136V168.581H157V110.52H179V168.581H186.713V175.723H193.654V190.01H56.3457V175.723H63.2881V168.581H71V110.52H93V168.581Z" fill="white"/>
</svg>
