<svg width="250" height="250" viewBox="0 0 250 250" fill="none" xmlns="http://www.w3.org/2000/svg">
<path d="M0 125C0 55.9644 55.9644 0 125 0C194.036 0 250 55.9644 250 125C250 194.036 194.036 250 125 250C55.9644 250 0 194.036 0 125Z" fill="white"/>
<path d="M125 195C163.66 195 195 163.66 195 125C195 86.3398 163.66 54.9998 125 54.9998C86.3401 54.9998 55 86.3398 55 125C55 163.66 86.3401 195 125 195Z" fill="#918C8C"/>
<path d="M88.2293 147.015C85.6494 145.608 83.5367 143.479 82.1507 140.888C80.6715 138.06 79.9311 134.904 79.9984 131.713V118.286C79.9311 115.095 80.6715 111.94 82.1507 109.112C83.5368 106.521 85.6495 104.391 88.2293 102.985C91.0426 101.56 94.1517 100.818 97.3051 100.818C100.458 100.818 103.568 101.56 106.381 102.985C108.96 104.392 111.073 106.521 112.459 109.112C113.939 111.94 114.679 115.095 114.612 118.286V131.713C114.679 134.904 113.939 138.06 112.459 140.888C111.073 143.478 108.96 145.608 106.381 147.015C103.568 148.439 100.458 149.182 97.3051 149.182C94.1517 149.182 91.0426 148.439 88.2293 147.015ZM101.542 139.225C102.747 138.55 103.727 137.536 104.361 136.308C105.045 134.956 105.386 133.456 105.355 131.941V118.058C105.386 116.543 105.045 115.043 104.361 113.691C103.728 112.463 102.748 111.448 101.542 110.774C100.231 110.1 98.7788 109.748 97.3051 109.748C95.8314 109.748 94.379 110.1 93.0685 110.774C91.8619 111.447 90.8814 112.462 90.2507 113.691C89.5673 115.043 89.2278 116.543 89.2625 118.058V131.941C89.23 133.457 89.5719 134.957 90.2579 136.308C90.8895 137.537 91.8697 138.551 93.0757 139.225C94.3861 139.899 95.8386 140.251 97.3123 140.251C98.786 140.251 100.238 139.899 101.549 139.225H101.542Z" fill="#252424"/>
<path d="M139.559 101.094H146.206V148.475H139.559V101.094ZM142.788 101.094H169.999V107.422H142.784L142.788 101.094ZM142.788 121.788H166.413V128.108H142.784L142.788 121.788ZM142.788 142.154H169.999V148.475H142.784L142.788 142.154Z" fill="#252424"/>
<path d="M108.22 145.636L102.19 141.191L139.634 101.084L145.664 105.53L108.22 145.636Z" fill="#252424"/>
</svg>
