<svg width="250" height="250" viewBox="0 0 250 250" fill="none" xmlns="http://www.w3.org/2000/svg">
<path d="M0 125C0 55.9644 55.9644 0 125 0C194.036 0 250 55.9644 250 125C250 194.036 194.036 250 125 250C55.9644 250 0 194.036 0 125Z" fill="white"/>
<path d="M140.75 94.5531C152.349 94.5531 161.752 85.1503 161.752 73.5514C161.752 61.9526 152.349 52.5498 140.75 52.5498C129.151 52.5498 119.749 61.9526 119.749 73.5514C119.749 85.1503 129.151 94.5531 140.75 94.5531Z" fill="#F16522"/>
<path d="M170.498 186.949C182.096 186.949 191.499 177.547 191.499 165.948C191.499 154.349 182.096 144.946 170.498 144.946C158.899 144.946 149.496 154.349 149.496 165.948C149.496 177.547 158.899 186.949 170.498 186.949Z" fill="#F16522"/>
<path d="M76.0009 167.353C87.5998 167.353 97.0026 157.951 97.0026 146.352C97.0026 134.753 87.5998 125.35 76.0009 125.35C64.402 125.35 54.9993 134.753 54.9993 146.352C54.9993 157.951 64.402 167.353 76.0009 167.353Z" fill="#F16522"/>
<path d="M78.8009 117.65C86.3402 117.65 92.452 111.538 92.452 103.998C92.452 96.4591 86.3402 90.3474 78.8009 90.3474C71.2616 90.3474 65.1498 96.4591 65.1498 103.998C65.1498 111.538 71.2616 117.65 78.8009 117.65Z" fill="#F6921E"/>
<path d="M176.448 112.055C183.987 112.055 190.099 105.943 190.099 98.4035C190.099 90.8642 183.987 84.7524 176.448 84.7524C168.908 84.7524 162.797 90.8642 162.797 98.4035C162.797 105.943 168.908 112.055 176.448 112.055Z" fill="#F6921E"/>
<path d="M131.65 197.45C139.189 197.45 145.301 191.338 145.301 183.799C145.301 176.26 139.189 170.148 131.65 170.148C124.111 170.148 117.999 176.26 117.999 183.799C117.999 191.338 124.111 197.45 131.65 197.45Z" fill="#F6921E"/>
<path d="M99.4474 185.549C104.667 185.549 108.898 181.318 108.898 176.099C108.898 170.879 104.667 166.648 99.4474 166.648C94.2279 166.648 89.9967 170.879 89.9967 176.099C89.9967 181.318 94.2279 185.549 99.4474 185.549Z" fill="#FFC10E"/>
<path d="M185.549 138.651C190.768 138.651 194.999 134.42 194.999 129.2C194.999 123.981 190.768 119.75 185.549 119.75C180.329 119.75 176.098 123.981 176.098 129.2C176.098 134.42 180.329 138.651 185.549 138.651Z" fill="#FFC10E"/>
<path d="M101.547 89.6527C106.767 89.6527 110.998 85.4215 110.998 80.202C110.998 74.9825 106.767 70.7512 101.547 70.7512C96.328 70.7512 92.0967 74.9825 92.0967 80.202C92.0967 85.4215 96.328 89.6527 101.547 89.6527Z" fill="#FFC10E"/>
</svg>
