<svg width="250" height="250" viewBox="0 0 250 250" fill="none" xmlns="http://www.w3.org/2000/svg">
<mask id="path-1-inside-1_3_107" fill="white">
<path d="M0 125C0 55.9644 55.9644 0 125 0C194.036 0 250 55.9644 250 125C250 194.036 194.036 250 125 250C55.9644 250 0 194.036 0 125Z"/>
</mask>
<path d="M0 125C0 55.9644 55.9644 0 125 0C194.036 0 250 55.9644 250 125C250 194.036 194.036 250 125 250C55.9644 250 0 194.036 0 125Z" fill="white"/>
<path d="M0 125M250 125M250 125M0 125M125 0M250 125M125 250M0 125M125 250V248C57.069 248 2 192.931 2 125H0H-2C-2 195.14 54.8598 252 125 252V250ZM250 125H248C248 192.931 192.931 248 125 248V250V252C195.14 252 252 195.14 252 125H250ZM125 0V2C192.931 2 248 57.069 248 125H250H252C252 54.8598 195.14 -2 125 -2V0ZM125 0V-2C54.8598 -2 -2 54.8598 -2 125H0H2C2 57.069 57.069 2 125 2V0Z" fill="#DDDBDB" mask="url(#path-1-inside-1_3_107)"/>
<path fill-rule="evenodd" clip-rule="evenodd" d="M117.133 50.1094C120.174 49.0139 123.407 48.5491 126.634 48.7432C135.78 49.3477 151.519 59.517 159.732 64.2793L171.998 71.3486C175.833 73.5947 179.474 75.7822 183.06 78.4258C188.135 82.1681 191.585 85.9285 193.313 92.1348C192.54 93.1553 190.877 94.6784 189.915 95.6269L184.165 101.369L159.718 125.827L141.124 144.406L135.999 149.577C135.588 149.993 133.853 151.768 133.469 152.034C131.946 153.594 129.168 156.731 127.304 157.545C123.132 159.292 120.769 156.157 118.153 153.533L112.462 147.819L105.521 140.885C103.83 139.219 101.626 137.121 100.064 135.368C98.3805 137.013 95.9262 139.62 94.2764 141.078C93.3323 142.075 91.6435 143.86 90.6455 144.708C90.4661 144.956 88.8662 146.516 88.5518 146.831C88.8875 147.197 89.2284 147.559 89.5732 147.916C91.6728 150.088 94.0106 152.235 96.1797 154.352L109.595 167.41L115.284 172.95C116.528 174.178 118.374 176.148 119.728 177.082C121.277 178.169 123.124 178.753 125.017 178.754C130.386 178.809 133.293 174.468 136.774 171.008C141.057 166.786 145.317 162.539 149.554 158.27L179.298 128.546C184.485 123.294 189.708 118.077 194.968 112.898C194.839 120.443 195.068 128.175 194.975 135.75C194.932 142.861 195.056 149.931 193.528 156.919C192.065 163.618 188.005 168.099 182.568 171.956C176.266 176.428 169.451 180.11 162.767 183.979L150.769 190.9C144.78 194.372 136.408 199.341 129.671 200.813C126.006 201.581 122.207 201.436 118.611 200.39C113.388 198.896 106.487 195.047 101.767 192.349C98.3142 190.393 94.8742 188.415 91.4473 186.414C84.8617 182.598 78.1015 178.807 71.6572 174.768C65.185 170.71 58.4924 165.712 56.7725 157.796C57.2752 157.074 59.7345 154.713 60.5117 153.941C62.9107 151.566 65.2975 149.178 67.6719 146.777L105.555 108.897L116.052 98.4004C117.767 96.6771 119.651 94.6912 121.476 93.0976C122.502 92.317 123.792 92.0398 125.019 92.0195C127.701 91.9753 129.118 93.711 130.862 95.4658L134.638 99.2685L150.008 114.64L161.122 103.54C154.771 96.9003 147.827 90.2625 141.328 83.7168C139.119 81.466 136.893 79.23 134.65 77.0107C131.652 73.9931 129.878 71.4923 125.301 71.292C120.188 71.0684 117.516 74.688 114.208 78.0137L106.396 85.8408L82.0732 110.137C78.5959 113.599 74.7146 117.732 71.1719 121.024L68.9326 123.274C66.1511 126.207 63.0336 129.125 60.1875 132.034C58.9779 133.27 56.2282 136.157 54.998 137.129C55.1288 135.119 55.0314 132.462 55.0293 130.4L55.0312 115.565C55.0356 109.679 55.023 103.993 55.6367 98.1064C56.3771 91.0063 58.4636 85.5361 64.0303 80.7793C67.6784 77.6619 71.3219 75.3582 75.4326 72.8867C79.7633 70.3175 84.1179 67.789 88.4961 65.3017C93.6779 62.2437 98.8927 59.2418 104.14 56.2969C108.332 53.9907 112.607 51.7089 117.133 50.1094ZM124.936 112.753C124.316 112.91 123.866 113.17 123.371 113.567C122.13 114.563 113.593 123.015 112.998 124.069C112.855 124.324 112.764 124.616 112.674 124.893C112.815 125.388 112.972 125.992 113.333 126.371C116.335 129.524 119.47 132.573 122.542 135.662C123.216 136.339 123.881 137.041 124.849 137.185L124.946 137.199C125.244 137.155 125.674 137.098 125.91 136.897C128.535 134.653 130.854 132.023 133.34 129.619C134.342 128.65 137.009 126.246 137.157 124.924C136.753 123.494 133.68 120.579 132.487 119.506C130.845 118.029 126.802 113.062 124.936 112.753Z" fill="#9300FD"/>
</svg>
