<svg width="250" height="250" viewBox="0 0 250 250" fill="none" xmlns="http://www.w3.org/2000/svg">
<path d="M0 125C0 55.9644 55.9644 0 125 0C194.036 0 250 55.9644 250 125C250 194.036 194.036 250 125 250C55.9644 250 0 194.036 0 125Z" fill="white"/>
<path d="M174.013 81L189.146 84.6068C193.921 85.726 198.642 86.7428 203.418 87.946C202.763 89.0781 202.195 90.3497 201.619 91.5301L198.869 97.1015C194.253 95.6758 189.546 94.4643 184.909 93.1102C183.477 92.6923 181.999 92.3293 180.641 91.702C180.436 92.6099 179.839 94.2243 179.521 95.1407C178.529 98.0287 177.441 100.882 176.257 103.697C169.189 120.883 159.04 137.233 145.946 150.478C144.434 152.006 142.466 153.7 140.853 155.183C139.365 156.374 137.909 157.633 136.394 158.796C132.397 161.921 128.121 164.675 123.622 167.023C122.384 167.673 120.947 168.459 119.673 169C124.728 165.276 130.812 159.022 134.971 154.28C150.478 136.598 162.034 115.213 170.028 93.1645C171.4 89.3793 172.804 84.8651 174.013 81Z" fill="#FA956C"/>
<path d="M139.095 98.7069C141.658 98.734 144.438 98.6094 147.028 98.58L164.716 98.4636C163.486 100.676 162.592 103.674 161.432 106.006C156.771 106.046 152.11 106.144 147.451 106.299C147.328 109.171 146.937 112.549 146.529 115.427C144.445 130.112 139.825 147.493 128.63 157.975C127.725 158.823 126.289 159.924 125.291 160.721C129.363 153.622 132.817 144.472 135.073 136.613L135.114 136.471C135.764 134.205 136.771 130.697 137.115 128.46C137.07 128.481 136.897 128.481 136.546 128.481V122.132C138.455 122.131 136.544 122.052 138.398 122.176C138.924 117.864 139.47 113.87 139.513 109.484C139.55 105.884 139.209 102.316 139.095 98.7069Z" fill="#FA956C"/>
<rect x="36.5818" y="136.576" width="64.5568" height="6.33321" fill="url(#paint0_linear_1_1883)"/>
<rect x="77.8164" y="151.844" width="41.8571" height="6.33321" fill="url(#paint1_linear_1_1883)"/>
<rect x="70.6609" y="122.139" width="69.9844" height="6.33321" fill="url(#paint2_linear_1_1883)"/>
<defs>
<linearGradient id="paint0_linear_1_1883" x1="36.5818" y1="139.743" x2="117.734" y2="139.743" gradientUnits="userSpaceOnUse">
<stop stop-color="#FA956C" stop-opacity="0"/>
<stop offset="1" stop-color="#FA956C"/>
</linearGradient>
<linearGradient id="paint1_linear_1_1883" x1="84.2515" y1="155.01" x2="124.642" y2="155.01" gradientUnits="userSpaceOnUse">
<stop stop-color="#FA956C" stop-opacity="0"/>
<stop offset="1" stop-color="#FA956C"/>
</linearGradient>
<linearGradient id="paint2_linear_1_1883" x1="74.3888" y1="125.306" x2="138.289" y2="125.306" gradientUnits="userSpaceOnUse">
<stop stop-color="#FA956C" stop-opacity="0"/>
<stop offset="1" stop-color="#FA956C"/>
</linearGradient>
</defs>
</svg>
