<svg width="250" height="250" viewBox="0 0 250 250" fill="none" xmlns="http://www.w3.org/2000/svg">
<mask id="path-1-inside-1_453_487" fill="white">
<path d="M0 125C0 55.9644 55.9644 0 125 0C194.036 0 250 55.9644 250 125C250 194.036 194.036 250 125 250C55.9644 250 0 194.036 0 125Z"/>
</mask>
<path d="M0 125C0 55.9644 55.9644 0 125 0C194.036 0 250 55.9644 250 125C250 194.036 194.036 250 125 250C55.9644 250 0 194.036 0 125Z" fill="white"/>
<path d="M0 125M250 125M250 125M0 125M125 0M250 125M125 250M0 125M125 250V248C57.069 248 2 192.931 2 125H0H-2C-2 195.14 54.8598 252 125 252V250ZM250 125H248C248 192.931 192.931 248 125 248V250V252C195.14 252 252 195.14 252 125H250ZM125 0V2C192.931 2 248 57.069 248 125H250H252C252 54.8598 195.14 -2 125 -2V0ZM125 0V-2C54.8598 -2 -2 54.8598 -2 125H0H2C2 57.069 57.069 2 125 2V0Z" fill="#DDDBDB" mask="url(#path-1-inside-1_453_487)"/>
<path d="M114.79 103.677C121.594 103.639 120.644 102.948 120.67 109.716C120.994 109.715 122.104 109.686 122.41 109.757C123.006 109.896 122.984 110.427 123.648 109.952C123.918 109.759 124.37 109.723 124.656 109.697C124.654 108.97 124.442 104.338 125.073 104.045C126.26 103.493 130.805 103.363 131.888 104.198C132.315 104.527 132.159 109.034 132.158 109.72C132.658 109.713 134.176 109.655 134.452 110.04C135.157 111.023 135.125 114.782 134.475 115.777C134.211 116.181 132.599 116.103 132.145 116.099C132.247 122.479 132.082 128.9 132.143 135.282C132.167 137.802 135.127 134.933 134.933 139.234C134.765 142.918 135.285 143.03 131.159 143.13C124.504 143.292 124.647 139.15 124.652 134.052L124.657 129.477L124.652 116.104C124.487 116.091 124.141 116.087 123.996 116.038C123.819 115.979 123.353 115.723 123.2 115.652C123.188 115.647 122.709 116.012 122.513 116.041C121.935 116.129 121.246 116.101 120.663 116.099L120.665 128.466C120.665 130.701 120.638 132.967 120.668 135.194C120.696 137.231 121.977 136.092 122.939 136.91C123.728 137.58 123.349 139.607 123.439 140.589C123.496 141.206 123.438 142.098 122.968 142.586C122.23 143.187 120.399 143.096 119.498 143.129C116.461 143.238 113.699 142.071 113.34 138.684C113.078 136.209 113.211 133.588 113.212 131.076L113.21 116.11C112.109 116.045 111.501 115.85 111.494 114.514C111.487 113.24 111.256 111.362 111.773 110.2C111.951 109.801 112.824 109.732 113.212 109.7C113.223 108.463 112.865 104.968 113.594 104.11C113.917 103.729 114.329 103.716 114.79 103.677Z" fill="#0B96DE"/>
<path d="M51.4121 109.149C52.0499 109.08 52.8174 109.118 53.4383 109.252C57.7744 110.19 57.3726 115.27 57.3697 118.558L57.3657 124.796L57.3702 133.167C57.3712 136.42 57.9213 141.781 54.1239 143.104C51.4577 144.032 49.1169 143.176 47.6628 140.818L47.6779 145.643C47.6799 146.349 47.6863 147.078 47.6745 147.782C47.6498 149.265 47.1336 149.498 45.7828 149.553C44.6119 149.522 40.9383 149.804 40.4632 149.073C40.0609 148.453 40.1986 142.723 40.1983 141.74L40.1973 130.308L40.1993 117.789C40.1998 115.631 40.1887 113.46 40.2119 111.303C40.2448 110.998 40.1916 110.459 40.4423 110.245C41.3579 109.465 43.0264 109.746 44.1566 109.702C44.8906 109.714 46.2631 109.623 46.844 110.15C47.3251 110.587 47.1825 112.38 47.1694 112.981C47.8853 110.651 48.9657 109.494 51.4121 109.149ZM49.8744 117.911C49.8745 116.88 50.1469 115.419 48.6909 115.562C47.964 115.633 47.6812 115.939 47.693 116.661C47.6609 117.974 47.6708 119.286 47.6701 120.6L47.6679 127.728L47.6696 132.976C47.6704 134.015 47.6225 135.079 47.7209 136.113C47.7468 136.385 47.8113 136.602 48.029 136.783C48.2659 136.98 48.6149 137.036 48.914 136.999C49.2184 136.962 49.4889 136.825 49.6815 136.584C50.047 136.125 49.8754 131.901 49.8814 131.092L49.8744 117.911Z" fill="#E67918"/>
<path d="M49.874 117.911C50.7281 118.659 57.0181 123.94 57.0351 124.534C57.0418 124.762 56.6478 125.155 56.4936 125.311C55.493 126.323 54.327 127.23 53.2515 128.167C52.1406 129.135 51.0434 130.192 49.881 131.092L49.874 117.911Z" fill="#FEFEFE"/>
<path d="M50.2397 118.71C50.9288 119.115 56.3335 123.955 56.638 124.512C56.5834 124.988 54.1674 126.927 53.6831 127.344C52.55 128.356 51.377 129.362 50.2314 130.363L50.2397 118.71Z" fill="#0B96DE"/>
<path d="M101.721 109.163C103.669 108.91 106.592 109.356 108.189 110.57C109.57 111.538 110.781 113.756 110.887 115.535C111.312 122.626 110.919 129.863 111.078 136.977C111.112 138.536 111.491 140.971 111.185 142.322C111.021 143.043 106.116 142.738 105.394 142.723C104.15 142.662 104.013 141.108 103.896 140.191C103.768 140.464 103.636 140.736 103.499 141.006C102.97 142.053 102.039 142.84 100.918 143.186C99.6407 143.591 97.724 143.531 96.541 142.874C95.0671 142.055 94.6051 141.028 94.1492 139.536C94.0904 139.244 94.0386 138.951 93.9938 138.657C93.7877 137.258 93.9394 135.916 93.8662 134.557C93.6309 130.401 94.5448 126.204 98.6831 124.288C100.707 123.351 103.811 122.614 103.572 119.783C103.488 118.793 103.699 117.307 103.544 116.379C103.498 116.094 103.339 115.84 103.104 115.672C102.868 115.507 102.575 115.442 102.291 115.492C100.083 115.872 102.901 122.204 100.129 122.458C99.0407 122.558 97.7672 122.425 96.6605 122.445C95.5327 122.466 94.5444 122.441 94.4926 121.033C94.2788 115.154 94.5051 109.83 101.721 109.163ZM101.744 136.931C102.432 137.122 103.034 137.2 103.46 136.48C103.54 135.913 103.65 128.677 103.524 128.379L103.49 128.357C102.603 128.98 101.553 129.918 101.473 131.045C101.387 132.258 101.032 136.162 101.744 136.931Z" fill="#0B96DE"/>
<path d="M66.2019 109.155C68.1393 108.968 70.4574 109.244 72.1489 110.269C73.7312 111.228 74.6831 112.832 75.1155 114.593C75.731 117.1 75.4647 120.292 75.4639 122.905C75.4628 127.392 75.3941 131.889 75.4744 136.374C75.4919 137.353 75.9251 141.832 75.5947 142.322C75.4251 142.573 74.9286 142.676 74.6504 142.724C73.7968 142.869 70.7401 142.868 69.8643 142.734C69.6014 142.694 69.3339 142.601 69.1176 142.444C68.45 141.959 68.3969 140.953 68.2739 140.209C67.6623 141.696 66.661 142.936 65.0328 143.265C61.6792 143.944 59.3725 142.668 58.5356 139.407C58.1075 137.844 58.358 136.066 58.2694 134.511C58.0236 130.324 59.048 126.017 63.2746 124.196C64.535 123.604 66.9795 122.823 67.6323 121.529C68.0476 120.706 68.3516 116.204 67.4725 115.672C65.497 114.475 65.7753 117.83 65.8234 118.695C66.0575 122.907 65.313 122.558 61.5577 122.46C60.4294 122.426 58.9506 122.708 58.8903 120.998C58.6818 115.078 58.9579 109.8 66.2019 109.155ZM66.1062 136.919C67.3456 137.28 68.0336 136.963 67.9615 135.558C67.8468 133.325 68.1712 130.608 67.945 128.416L67.8879 128.355C65.782 129.781 65.7065 131.125 65.7467 133.51C65.7616 134.394 65.559 136.286 66.1062 136.919Z" fill="#E67918"/>
<path d="M157.394 109.724C158.538 109.717 162.492 109.493 163.132 110.111C163.735 110.692 163.52 116.915 163.519 117.814L163.514 130.715C163.514 131.793 163.433 135.273 163.537 136.223C163.562 136.434 163.67 136.627 163.836 136.759C164.436 137.232 165.545 136.943 165.618 136.322C165.784 134.91 165.708 132.922 165.707 131.521L165.698 118.007C165.696 116.433 165.689 114.856 165.695 113.282C165.698 112.341 165.57 110.796 166.147 110.028C166.473 109.804 167.02 109.687 167.413 109.702C168.899 109.761 170.423 109.674 171.9 109.741C172.832 109.784 173.124 110.391 173.182 111.243C173.251 112.267 173.22 113.343 173.22 114.384L173.211 120.274L173.211 131.364C173.211 133.985 173.153 136.608 173.327 139.22C173.363 139.774 173.596 141.984 173.366 142.293C172.827 143.016 169.969 142.725 169.053 142.782C168.292 142.803 167.337 142.826 166.806 142.412C166.165 141.913 166.127 140.887 166.042 140.151C165.344 141.646 164.327 143.054 162.594 143.304C155.765 144.287 156.018 138.455 156.018 133.942L156.021 126.998L156.014 116.887C156.012 115.035 155.995 113.186 156.034 111.335C156.058 110.223 156.254 109.908 157.394 109.724Z" fill="#0B96DE"/>
<path d="M200.584 109.155C200.734 109.136 200.886 109.125 201.039 109.122C203.319 109.064 205.81 109.458 207.522 111.099C209.218 112.725 209.72 115.161 209.773 117.422C209.817 119.36 209.757 121.304 209.765 123.242C209.77 124.442 209.898 125.74 209.763 126.93C209.726 127.256 209.628 127.706 209.386 127.945C208.745 128.58 201.907 128.336 200.638 128.335L200.659 133.184C200.655 133.844 200.412 136.551 201.045 136.777C205.075 138.215 200.616 130.181 204.513 130.279C210.074 130.417 209.841 129.363 209.772 135.03C209.693 139.636 207.724 143.008 202.755 143.38C200.349 143.56 197.635 143.311 195.723 141.676C192.885 139.25 193.126 135.235 193.134 131.858L193.141 125.958L193.133 120.318C193.13 114.559 193.424 109.729 200.584 109.155ZM200.648 122.537L202.416 122.538L202.76 122.526C202.926 122.247 202.863 116.969 202.749 116.18C202.647 115.483 201.763 115.545 201.205 115.608C200.834 115.906 200.688 116.104 200.664 116.608C200.573 118.557 200.66 120.587 200.648 122.537Z" fill="#0B96DE"/>
<path d="M146.888 103.679C153.706 103.641 152.743 102.982 152.755 109.719C154.388 109.695 155.529 109.542 155.5 111.639C155.484 112.741 155.724 114.835 155.076 115.762C154.771 116.198 153.239 116.104 152.747 116.099L152.745 128.881C152.745 130.045 152.623 135.415 152.939 136.168C153.713 137.035 155.91 135.722 155.508 139.421C155.388 140.516 155.892 142.076 154.695 142.841C153.921 143.075 152.6 143.115 151.804 143.133C149.939 143.169 147.662 142.896 146.441 141.305C145.217 139.711 145.239 137.391 145.24 135.48C145.242 134 145.246 132.53 145.247 131.056L145.229 116.103C143.557 116.087 143.53 115.18 143.524 113.715C143.519 112.731 143.381 111.083 143.846 110.202C144.059 109.798 144.85 109.733 145.252 109.696C145.235 108.305 144.929 105.303 145.663 104.104C145.892 103.732 146.474 103.708 146.888 103.679Z" fill="#0B96DE"/>
<path d="M136.808 109.724C138.182 109.714 141.61 109.436 142.66 110.17C143.086 110.468 142.975 114.109 142.976 114.862L142.974 122.08L142.975 134.901C142.975 137.041 142.976 139.201 142.967 141.342C142.967 141.616 142.884 141.999 142.72 142.221C142.416 142.633 142.072 142.688 141.611 142.761C140.69 142.789 136.192 142.994 135.788 142.325C135.331 141.567 135.457 138.484 135.457 137.419L135.457 130.148L135.457 117.65C135.457 115.508 135.441 113.363 135.476 111.222C135.49 110.273 135.914 109.88 136.808 109.724Z" fill="#0B96DE"/>
<path d="M136.494 100.849C137.796 100.746 141.097 100.694 142.382 101.037C143.248 101.268 143.022 105.392 142.911 106.133C142.814 106.785 142.565 107.105 141.882 107.291C140.155 107.365 137.873 107.409 136.196 107.16C135.355 107.035 135.399 104.414 135.432 103.777C135.49 102.641 135.207 101.33 136.494 100.849Z" fill="#0B96DE"/>
<path d="M185.758 100H190.37C191.007 100.124 191.614 100.238 191.723 100.994C191.892 102.166 191.833 103.392 191.833 104.578L191.83 110.527L191.828 133.736C191.829 136.433 191.888 139.032 192.15 141.717C192.2 142.227 191.639 142.685 191.139 142.701C189.474 142.756 187.047 143.019 185.494 142.481C184.938 142.289 184.726 140.696 184.641 140.218C183.358 142.951 181.406 143.876 178.473 143.276C174.218 142.405 174.633 136.965 174.634 133.778L174.636 127.211L174.633 119.483C174.632 114.851 174.063 108.128 181.236 109.27C182.585 109.485 183.654 110.62 184.336 111.737C184.281 108.314 184.319 104.781 184.355 101.352C184.366 100.417 184.945 100.165 185.758 100ZM183.781 136.906C184.122 136.603 184.311 136.439 184.319 135.95C184.338 134.747 184.329 133.53 184.329 132.327L184.331 125.172L184.33 119.557C184.329 118.472 184.362 117.357 184.276 116.279C184.211 115.455 183.192 115.553 182.64 115.608C182.323 115.885 182.162 116.046 182.151 116.499C182.127 117.522 182.137 118.562 182.136 119.585L182.133 125.528L182.134 132.09C182.135 133.282 182.124 134.466 182.154 135.665C182.174 136.428 182.238 136.968 183.18 136.995C183.348 136.999 183.62 136.951 183.781 136.906Z" fill="#0B96DE"/>
<path d="M85.2972 128.396C85.3782 122.84 86.1801 116.678 86.7646 111.112C86.9909 108.957 90.5047 109.917 92.0295 109.719C92.954 109.599 93.967 110.221 93.7423 111.311C93.4593 113.693 93.1175 116.066 92.7937 118.441L90.9284 132.145L89.7527 140.794C89.113 145.492 89.0673 149.009 83.2524 149.826C82.9144 149.874 82.2533 149.928 81.9506 150H80.6649C79.9206 149.791 78.0856 150.084 77.6972 149.312C77.1442 148.213 77.29 146.086 77.4333 144.873C77.6687 142.882 80.1229 144.851 80.7153 143.319C80.8415 142.925 80.6227 141.533 80.553 141.08C80.3729 139.909 80.1742 138.728 79.9985 137.553L77.5897 121.778C77.2905 119.825 75.8213 111.774 76.1031 110.379C76.1401 110.196 76.1847 110.117 76.3443 110.017C77.1079 109.542 81.8927 109.621 82.8653 109.853C83.5259 110.384 83.6512 110.74 83.7364 111.593C84.3087 117.315 85.0313 123.062 85.1166 128.82L85.1392 129.776C85.145 129.973 85.135 130.169 85.2208 130.346C85.3245 129.824 85.31 129.595 85.2908 129.074L85.2972 128.396Z" fill="#E67918"/>
<path d="M85.2978 128.396L85.2914 129.073L85.1397 129.776L85.1172 128.82L85.2978 128.396Z" fill="#E67918" fill-opacity="0.270588"/>
<path d="M85.1396 129.776L85.2913 129.073C85.3104 129.594 85.325 129.823 85.2213 130.346C85.1355 130.169 85.1454 129.973 85.1396 129.776Z" fill="#E67918" fill-opacity="0.807843"/>
</svg>
