<svg width="250" height="250" viewBox="0 0 250 250" fill="none" xmlns="http://www.w3.org/2000/svg">
<path d="M0 125C0 55.9644 55.9644 0 125 0C194.036 0 250 55.9644 250 125C250 194.036 194.036 250 125 250C55.9644 250 0 194.036 0 125Z" fill="white"/>
<path d="M114.79 103.678C121.594 103.639 120.644 102.949 120.67 109.716C120.994 109.715 122.104 109.686 122.41 109.757C123.006 109.896 122.984 110.427 123.647 109.953C123.917 109.759 124.37 109.723 124.656 109.698C124.653 108.97 124.442 104.339 125.073 104.046C126.259 103.494 130.805 103.364 131.887 104.199C132.314 104.528 132.158 109.035 132.158 109.72C132.657 109.714 134.176 109.656 134.451 110.04C135.157 111.024 135.124 114.783 134.475 115.777C134.21 116.182 132.598 116.104 132.145 116.1C132.246 122.48 132.081 128.901 132.143 135.283C132.167 137.803 135.127 134.933 134.932 139.234C134.765 142.919 135.284 143.03 131.159 143.131C124.504 143.293 124.647 139.15 124.652 134.052L124.657 129.478L124.652 116.105C124.487 116.091 124.141 116.087 123.995 116.039C123.819 115.98 123.353 115.723 123.2 115.653C123.188 115.647 122.709 116.012 122.512 116.042C121.935 116.129 121.246 116.102 120.663 116.099L120.665 128.466C120.664 130.702 120.638 132.968 120.668 135.194C120.695 137.231 121.976 136.092 122.939 136.91C123.728 137.581 123.349 139.607 123.439 140.589C123.495 141.206 123.437 142.098 122.968 142.586C122.23 143.187 120.399 143.097 119.498 143.129C116.461 143.238 113.698 142.071 113.34 138.685C113.078 136.21 113.211 133.589 113.212 131.076L113.21 116.11C112.109 116.046 111.501 115.85 111.493 114.514C111.486 113.241 111.256 111.363 111.773 110.201C111.95 109.801 112.824 109.732 113.211 109.7C113.223 108.464 112.865 104.969 113.594 104.11C113.917 103.73 114.329 103.717 114.79 103.678Z" fill="#0B96DE"/>
<path d="M51.4116 109.149C52.0494 109.08 52.817 109.118 53.4379 109.252C57.7739 110.189 57.3722 115.269 57.3693 118.558L57.3652 124.796L57.3698 133.167C57.3708 136.42 57.9208 141.781 54.1234 143.103C51.4572 144.032 49.1165 143.176 47.6624 140.818L47.6774 145.643C47.6794 146.349 47.6858 147.078 47.6741 147.781C47.6493 149.265 47.1331 149.498 45.7823 149.553C44.6114 149.521 40.9379 149.804 40.4627 149.072C40.0604 148.453 40.1981 142.723 40.1978 141.74L40.1968 130.308L40.1988 117.789C40.1993 115.631 40.1883 113.46 40.2114 111.302C40.2443 110.998 40.1911 110.458 40.4418 110.245C41.3574 109.465 43.0259 109.746 44.1561 109.702C44.8901 109.714 46.2627 109.622 46.8435 110.15C47.3246 110.587 47.182 112.38 47.169 112.98C47.8849 110.65 48.9652 109.494 51.4116 109.149ZM49.8739 117.911C49.874 116.88 50.1464 115.419 48.6904 115.561C47.9635 115.632 47.6807 115.939 47.6926 116.66C47.6604 117.974 47.6703 119.286 47.6696 120.6L47.6675 127.728L47.6691 132.976C47.6699 134.015 47.622 135.079 47.7204 136.113C47.7464 136.385 47.8108 136.602 48.0285 136.783C48.2655 136.98 48.6144 137.036 48.9136 136.999C49.218 136.961 49.4885 136.825 49.681 136.583C50.0466 136.125 49.8749 131.901 49.8809 131.092L49.8739 117.911Z" fill="#E67918"/>
<path d="M49.8739 117.911C50.728 118.659 57.018 123.94 57.035 124.534C57.0417 124.762 56.6477 125.155 56.4935 125.311C55.4929 126.323 54.3269 127.23 53.2514 128.167C52.1406 129.135 51.0433 130.192 49.8809 131.092L49.8739 117.911Z" fill="#FEFEFE"/>
<path d="M50.2393 118.71C50.9284 119.115 56.3331 123.955 56.6375 124.512C56.583 124.988 54.167 126.927 53.6826 127.344C52.5496 128.356 51.3766 129.362 50.231 130.363L50.2393 118.71Z" fill="#0B96DE"/>
<path d="M101.72 109.163C103.669 108.91 106.591 109.355 108.188 110.57C109.569 111.538 110.78 113.756 110.887 115.535C111.311 122.625 110.919 129.863 111.077 136.977C111.112 138.536 111.491 140.971 111.184 142.322C111.02 143.043 106.115 142.738 105.393 142.722C104.149 142.662 104.012 141.108 103.895 140.19C103.768 140.464 103.635 140.736 103.499 141.006C102.97 142.053 102.038 142.839 100.918 143.186C99.6401 143.591 97.7235 143.531 96.5404 142.874C95.0665 142.055 94.6046 141.028 94.1487 139.536C94.0898 139.244 94.038 138.951 93.9933 138.657C93.7872 137.258 93.9388 135.916 93.8657 134.557C93.6303 130.4 94.5442 126.204 98.6826 124.288C100.707 123.35 103.811 122.614 103.571 119.783C103.487 118.792 103.698 117.307 103.543 116.379C103.497 116.094 103.339 115.839 103.104 115.672C102.867 115.506 102.575 115.442 102.291 115.492C100.082 115.872 102.9 122.204 100.129 122.458C99.0402 122.558 97.7667 122.425 96.6599 122.445C95.5322 122.466 94.5438 122.441 94.492 121.032C94.2783 115.153 94.5045 109.829 101.72 109.163ZM101.744 136.931C102.431 137.122 103.033 137.2 103.459 136.48C103.539 135.913 103.65 128.676 103.523 128.379L103.489 128.357C102.602 128.98 101.553 129.918 101.473 131.045C101.387 132.257 101.032 136.162 101.744 136.931Z" fill="#0B96DE"/>
<path d="M66.2013 109.155C68.1388 108.968 70.4568 109.244 72.1484 110.269C73.7306 111.228 74.6825 112.832 75.115 114.593C75.7305 117.099 75.4641 120.292 75.4634 122.905C75.4622 127.392 75.3935 131.889 75.4738 136.374C75.4914 137.353 75.9246 141.831 75.5941 142.321C75.4245 142.573 74.9281 142.676 74.6499 142.723C73.7963 142.869 70.7395 142.868 69.8637 142.734C69.6008 142.693 69.3334 142.601 69.117 142.444C68.4495 141.959 68.3963 140.953 68.2733 140.209C67.6617 141.696 66.6604 142.935 65.0322 143.265C61.6786 143.944 59.372 142.668 58.5351 139.406C58.107 137.844 58.3575 136.065 58.2689 134.511C58.0231 130.324 59.0474 126.016 63.274 124.196C64.5345 123.604 66.9789 122.822 67.6317 121.529C68.0471 120.706 68.3511 116.204 67.4719 115.671C65.4965 114.475 65.7748 117.829 65.8228 118.695C66.0569 122.907 65.3124 122.557 61.5571 122.459C60.4289 122.426 58.95 122.707 58.8898 120.997C58.6813 115.077 58.9573 109.8 66.2013 109.155ZM66.1057 136.919C67.3451 137.28 68.0331 136.963 67.961 135.558C67.8463 133.325 68.1707 130.608 67.9445 128.416L67.8874 128.355C65.7815 129.781 65.706 131.124 65.7462 133.51C65.761 134.394 65.5585 136.286 66.1057 136.919Z" fill="#E67918"/>
<path d="M157.394 109.724C158.538 109.717 162.492 109.493 163.132 110.111C163.734 110.692 163.52 116.915 163.519 117.814L163.514 130.715C163.514 131.793 163.433 135.273 163.537 136.223C163.562 136.434 163.67 136.627 163.835 136.759C164.435 137.232 165.545 136.943 165.618 136.322C165.784 134.91 165.707 132.922 165.707 131.521L165.698 118.007C165.696 116.433 165.688 114.856 165.694 113.282C165.698 112.341 165.57 110.796 166.147 110.028C166.472 109.804 167.019 109.687 167.412 109.702C168.899 109.761 170.422 109.674 171.9 109.741C172.831 109.784 173.123 110.391 173.181 111.243C173.251 112.267 173.22 113.343 173.219 114.384L173.211 120.274L173.21 131.364C173.21 133.985 173.153 136.608 173.326 139.22C173.363 139.774 173.595 141.984 173.365 142.293C172.826 143.016 169.968 142.725 169.052 142.782C168.292 142.803 167.337 142.826 166.806 142.412C166.164 141.913 166.127 140.887 166.041 140.151C165.344 141.646 164.327 143.054 162.594 143.304C155.764 144.287 156.018 138.455 156.018 133.942L156.02 126.998L156.014 116.887C156.012 115.035 155.995 113.186 156.034 111.335C156.058 110.223 156.254 109.908 157.394 109.724Z" fill="#0B96DE"/>
<path d="M200.583 109.154C200.734 109.136 200.885 109.125 201.038 109.121C203.318 109.063 205.809 109.458 207.521 111.098C209.217 112.724 209.72 115.16 209.772 117.422C209.816 119.36 209.756 121.303 209.764 123.241C209.769 124.442 209.897 125.74 209.762 126.93C209.726 127.256 209.628 127.706 209.386 127.945C208.744 128.579 201.906 128.335 200.637 128.335L200.658 133.184C200.654 133.844 200.411 136.551 201.044 136.777C205.075 138.214 200.615 130.181 204.513 130.278C210.074 130.417 209.84 129.363 209.771 135.029C209.692 139.636 207.723 143.008 202.754 143.38C200.348 143.56 197.634 143.31 195.722 141.676C192.885 139.25 193.126 135.234 193.133 131.858L193.14 125.958L193.132 120.318C193.129 114.559 193.423 109.729 200.583 109.154ZM200.647 122.537L202.415 122.538L202.759 122.526C202.925 122.247 202.863 116.968 202.748 116.18C202.646 115.483 201.762 115.545 201.204 115.607C200.833 115.906 200.687 116.104 200.663 116.608C200.572 118.557 200.659 120.587 200.647 122.537Z" fill="#0B96DE"/>
<path d="M146.888 103.679C153.706 103.641 152.743 102.982 152.755 109.719C154.388 109.695 155.529 109.542 155.5 111.64C155.484 112.741 155.724 114.835 155.076 115.762C154.771 116.198 153.238 116.104 152.747 116.099L152.744 128.881C152.744 130.045 152.623 135.415 152.939 136.168C153.713 137.035 155.909 135.723 155.507 139.422C155.388 140.516 155.892 142.077 154.694 142.842C153.921 143.075 152.6 143.115 151.804 143.133C149.938 143.169 147.662 142.896 146.441 141.305C145.217 139.711 145.238 137.391 145.24 135.481C145.242 134 145.246 132.531 145.247 131.056L145.228 116.103C143.557 116.087 143.53 115.18 143.524 113.715C143.519 112.731 143.38 111.083 143.845 110.202C144.058 109.798 144.85 109.733 145.252 109.697C145.234 108.305 144.928 105.303 145.663 104.104C145.891 103.732 146.474 103.708 146.888 103.679Z" fill="#0B96DE"/>
<path d="M136.808 109.724C138.182 109.714 141.609 109.436 142.659 110.17C143.085 110.468 142.974 114.109 142.975 114.862L142.973 122.08L142.974 134.901C142.974 137.041 142.975 139.201 142.967 141.342C142.966 141.616 142.883 141.999 142.719 142.221C142.416 142.633 142.072 142.688 141.61 142.761C140.689 142.789 136.192 142.994 135.787 142.325C135.331 141.567 135.457 138.484 135.457 137.419L135.456 130.148L135.457 117.65C135.457 115.508 135.44 113.363 135.475 111.222C135.49 110.273 135.913 109.88 136.808 109.724Z" fill="#0B96DE"/>
<path d="M136.494 100.849C137.796 100.746 141.097 100.694 142.382 101.037C143.248 101.268 143.021 105.392 142.911 106.133C142.814 106.785 142.565 107.105 141.882 107.291C140.155 107.365 137.873 107.409 136.196 107.16C135.355 107.035 135.399 104.414 135.432 103.777C135.49 102.641 135.207 101.33 136.494 100.849Z" fill="#0B96DE"/>
<path d="M185.758 100H190.37C191.007 100.124 191.614 100.238 191.723 100.994C191.892 102.166 191.833 103.392 191.833 104.578L191.83 110.527L191.828 133.736C191.829 136.433 191.888 139.032 192.15 141.717C192.2 142.227 191.639 142.685 191.139 142.701C189.474 142.756 187.047 143.019 185.494 142.481C184.939 142.289 184.726 140.696 184.641 140.218C183.358 142.951 181.406 143.876 178.473 143.276C174.218 142.405 174.633 136.965 174.634 133.778L174.636 127.211L174.633 119.483C174.632 114.851 174.063 108.128 181.237 109.27C182.585 109.485 183.654 110.62 184.336 111.737C184.281 108.314 184.319 104.781 184.355 101.352C184.366 100.417 184.945 100.165 185.758 100ZM183.781 136.906C184.122 136.603 184.311 136.439 184.319 135.95C184.338 134.747 184.329 133.53 184.329 132.327L184.331 125.172L184.33 119.557C184.329 118.472 184.362 117.357 184.276 116.279C184.211 115.455 183.192 115.553 182.64 115.608C182.323 115.885 182.162 116.046 182.152 116.499C182.127 117.522 182.137 118.562 182.136 119.585L182.133 125.528L182.134 132.09C182.135 133.282 182.124 134.466 182.154 135.665C182.174 136.428 182.238 136.968 183.18 136.995C183.348 136.999 183.62 136.951 183.781 136.906Z" fill="#0B96DE"/>
<path d="M85.2971 128.396C85.3781 122.84 86.1799 116.678 86.7645 111.113C86.9908 108.958 90.5046 109.917 92.0294 109.719C92.9539 109.599 93.9669 110.221 93.7422 111.312C93.4592 113.693 93.1174 116.066 92.7936 118.441L90.9283 132.145L89.7526 140.795C89.1129 145.492 89.0671 149.009 83.2522 149.827C82.9143 149.874 82.2532 149.928 81.9504 150H80.6648C79.9205 149.792 78.0855 150.084 77.6971 149.312C77.1441 148.213 77.2898 146.086 77.4332 144.873C77.6686 142.882 80.1227 144.852 80.7152 143.319C80.8413 142.925 80.6226 141.534 80.5529 141.08C80.3728 139.909 80.174 138.728 79.9983 137.553L77.5896 121.778C77.2903 119.825 75.8211 111.774 76.103 110.379C76.1399 110.197 76.1846 110.117 76.3442 110.018C77.1078 109.542 81.8926 109.621 82.8651 109.853C83.5258 110.385 83.651 110.74 83.7363 111.593C84.3086 117.315 85.0312 123.062 85.1165 128.82L85.139 129.776C85.1448 129.974 85.1349 130.169 85.2207 130.346C85.3244 129.824 85.3098 129.595 85.2907 129.074L85.2971 128.396Z" fill="#E67918"/>
<path d="M85.297 128.396L85.2907 129.074L85.139 129.776L85.1165 128.82L85.297 128.396Z" fill="#E67918" fill-opacity="0.270588"/>
<path d="M85.139 129.776L85.2906 129.074C85.3098 129.595 85.3243 129.824 85.2206 130.346C85.1348 130.169 85.1448 129.973 85.139 129.776Z" fill="#E67918" fill-opacity="0.807843"/>
</svg>
