<svg width="250" height="250" viewBox="0 0 250 250" fill="none" xmlns="http://www.w3.org/2000/svg">
<path d="M0 125C0 55.9644 55.9644 0 125 0C194.036 0 250 55.9644 250 125C250 194.036 194.036 250 125 250C55.9644 250 0 194.036 0 125Z" fill="white"/>
<path d="M127.22 57.3153C112.665 57.2661 98.4773 61.8608 86.74 70.4248C75.0026 78.9888 66.3339 91.0711 62.0064 104.898C61.9483 105.087 61.9355 105.286 61.9687 105.481C62.0021 105.675 62.0806 105.859 62.1981 106.018C62.3157 106.177 62.4691 106.307 62.6458 106.396C62.8226 106.486 63.018 106.533 63.2164 106.533H89.3934C89.6268 106.536 89.8561 106.473 90.0559 106.353C90.2558 106.233 90.4184 106.061 90.5258 105.854C94.1345 99.1043 99.5584 93.485 106.192 89.6244C112.825 85.7637 120.406 83.814 128.089 83.9926C150.232 84.3937 167.374 102.513 168.173 123.395C168.526 132.681 165.699 141.812 160.155 149.292C154.611 156.771 146.68 162.156 137.659 164.565C128.638 166.974 119.061 166.264 110.499 162.552C101.936 158.84 94.8941 152.345 90.5258 144.131C90.4196 143.927 90.2594 143.756 90.0625 143.636C89.8656 143.516 89.6396 143.452 89.4089 143.452H63.2164C63.018 143.452 62.8226 143.499 62.6458 143.589C62.4691 143.678 62.3157 143.808 62.1981 143.967C62.0806 144.126 62.0021 144.31 61.9687 144.504C61.9355 144.699 61.9483 144.898 62.0064 145.087C65.7377 157.033 72.7232 167.715 82.1873 175.95C91.6515 184.185 103.224 189.649 115.62 191.736C128.017 193.823 140.752 192.451 152.412 187.773C164.072 183.095 174.202 175.293 181.675 165.235C189.149 155.176 193.675 143.253 194.751 130.789C195.826 118.327 193.409 105.811 187.768 94.6313C182.127 83.4522 173.483 74.047 162.795 67.4598C152.106 60.8727 139.792 57.3612 127.22 57.3153Z" fill="#1DCF9F"/>
<path fill-rule="evenodd" clip-rule="evenodd" d="M88.4509 137.758H56.3584C56.1793 137.758 56.002 137.721 55.8367 137.652C55.6714 137.582 55.5213 137.479 55.3951 137.35C55.2688 137.221 55.1689 137.068 55.1011 136.9C55.0333 136.731 54.9989 136.551 54.9999 136.369V114.393C54.9989 114.211 55.0333 114.031 55.1011 113.862C55.1689 113.694 55.2688 113.541 55.3951 113.412C55.5213 113.283 55.6714 113.18 55.8367 113.11C56.002 113.04 56.1793 113.004 56.3584 113.004H88.4509C88.6299 113.004 88.8072 113.04 88.9725 113.11C89.1378 113.18 89.2879 113.283 89.4141 113.412C89.5404 113.541 89.6403 113.694 89.7081 113.862C89.7759 114.031 89.8103 114.211 89.8093 114.393V136.369C89.8103 136.551 89.7759 136.731 89.7081 136.9C89.6403 137.068 89.5404 137.221 89.4141 137.35C89.2879 137.479 89.1378 137.582 88.9725 137.652C88.8072 137.721 88.6299 137.758 88.4509 137.758Z" fill="#210F60"/>
</svg>
