<svg width="250" height="250" viewBox="0 0 250 250" fill="none" xmlns="http://www.w3.org/2000/svg">
<path d="M0 125C0 55.9644 55.9644 0 125 0C194.036 0 250 55.9644 250 125C250 194.036 194.036 250 125 250C55.9644 250 0 194.036 0 125Z" fill="#0A1F34"/>
<path d="M176.492 61.0623H66.752C63.0377 61.0623 59.9988 64.1068 59.9988 67.8282V80.0068C59.9988 83.7281 63.0377 86.7727 66.752 86.7727H176.155C179.869 86.7727 182.908 83.7281 182.908 80.0068V67.8282C183.246 64.1068 180.207 61.0623 176.492 61.0623ZM176.492 129.06H66.752C63.0377 129.06 59.9988 132.104 59.9988 135.826V148.004C59.9988 151.726 63.0377 154.77 66.752 154.77H176.155C179.869 154.77 182.908 151.726 182.908 148.004V135.826C183.246 132.104 180.207 129.06 176.492 129.06ZM128.544 163.228H66.752C63.0377 163.228 59.9988 166.272 59.9988 169.994V182.172C59.9988 185.893 63.0377 188.938 66.752 188.938H128.544C132.259 188.938 135.298 185.893 135.298 182.172V169.994C135.298 166.272 132.259 163.228 128.544 163.228ZM183.246 95.2302H66.752C63.0377 95.2302 59.9988 98.2748 59.9988 101.996V114.175C59.9988 117.896 63.0377 120.941 66.752 120.941H183.246C186.96 120.941 189.999 117.896 189.999 114.175V101.996C189.999 98.2748 186.96 95.2302 183.246 95.2302Z" fill="#0BA4DB"/>
</svg>
