<svg width="250" height="250" viewBox="0 0 250 250" fill="none" xmlns="http://www.w3.org/2000/svg">
<path d="M0 125C0 55.9644 55.9644 0 125 0C194.036 0 250 55.9644 250 125C250 194.036 194.036 250 125 250C55.9644 250 0 194.036 0 125Z" fill="#753FF6"/>
<path d="M156.639 62.0925C145.812 60.7268 134.887 60.044 123.865 60.044C119.183 59.849 113.037 60.3367 106.795 60.8244C101.43 61.2146 95.9674 61.6047 90.7 62.5802C81.1408 64.4335 72.0692 75.4559 70.8987 86.5759C69.1429 103.646 68.6552 120.716 69.2405 137.884C69.6307 150.369 74.0201 160.514 82.2138 168.61C85.5302 171.829 89.1393 174.658 93.0411 177.096C100.259 181.681 107.965 185.095 115.671 188.216C120.451 190.167 125.816 190.557 130.79 189.192C138.594 187.143 145.715 183.241 152.933 179.437C157.907 176.804 162.59 173.487 166.686 169.585C173.905 162.757 178.879 154.271 180.147 143.444C180.635 139.249 180.733 134.957 180.928 130.665C181.22 116.424 180.538 102.28 179.172 88.039C177.904 74.2854 168.54 63.4581 156.542 61.9949L156.639 62.0925ZM91.4804 78.7724C91.8706 78.2847 92.3583 77.797 92.846 77.5043C93.2362 77.3092 93.6263 77.0166 94.0165 76.9191L94.6018 76.6264C94.992 76.4313 95.5772 76.3338 96.0649 76.1387C96.3576 76.1387 96.6502 75.9436 96.9428 75.9436C97.4305 75.9436 98.1133 75.8461 98.6986 75.7485H100.747C109.038 75.9436 117.134 76.1387 125.035 76.4313C132.936 76.1387 141.13 75.9436 149.324 75.7485H151.372C151.957 75.7485 152.543 75.9436 153.128 75.9436C153.42 75.9436 153.713 76.1387 154.006 76.1387C154.493 76.2363 154.981 76.4313 155.469 76.6264C155.664 76.6264 155.859 76.8215 156.054 76.9191L157.225 77.5043C157.712 77.8945 158.2 78.2847 158.59 78.7724C160.346 81.0159 160.541 84.2348 159.371 88.039C159.176 88.7218 159.078 89.3071 158.883 89.9899C158.59 91.0629 158.395 92.2334 158.298 93.4039C158.103 94.4769 158.005 95.6474 158.005 96.7204V101.402C156.834 101.695 155.566 101.988 154.201 102.28C154.006 100.134 153.908 98.086 154.006 95.94C154.006 94.8671 154.103 93.6965 154.298 92.6236C154.396 91.453 154.689 90.3801 154.884 89.2095C154.884 88.9169 154.981 88.6243 155.079 88.4292C155.762 85.7955 155.469 83.4545 154.103 81.7962C152.738 79.9429 150.299 79.065 147.08 79.1626C139.764 79.3576 132.449 79.6503 125.133 79.9429C117.817 79.6503 110.501 79.3576 103.186 79.1626C99.9667 79.1626 97.5281 79.9429 96.1625 81.7962C94.7969 83.4545 94.5042 85.7955 95.187 88.4292C95.187 88.7218 95.187 88.9169 95.3821 89.2095C95.6748 90.2825 95.8698 91.453 95.9674 92.6236C96.1625 93.6965 96.26 94.8671 96.26 95.94C96.26 98.086 96.26 100.134 96.0649 102.28C94.6993 101.988 93.4312 101.695 92.2607 101.402V96.7204C92.2607 95.6474 92.1632 94.4769 91.9681 93.4039C91.8706 92.2334 91.6755 91.1604 91.3828 89.9899C91.1878 89.3071 91.0902 88.7218 90.8951 88.039C89.6271 84.2348 89.8221 81.0159 91.5779 78.7724H91.4804ZM99.674 95.5499C103.868 95.5499 107.087 94.7695 109.428 93.2088C110.989 92.3309 112.257 90.8678 112.842 89.112C113.33 87.9415 113.428 86.5759 113.233 85.3078C113.233 84.8201 113.037 84.4299 112.94 83.9422L112.355 82.479C116.354 82.6741 120.646 82.7717 124.938 82.9668C129.23 82.7717 133.522 82.6741 137.521 82.479L136.936 83.9422C136.838 84.4299 136.741 84.8201 136.643 85.3078C136.448 86.5759 136.643 87.8439 137.033 89.112C137.618 90.8678 138.886 92.2334 140.447 93.2088C142.788 94.7695 146.105 95.5499 150.202 95.5499C150.202 97.9884 150.202 100.329 150.494 102.768C142.008 104.329 133.424 104.914 124.84 104.621C116.256 104.914 107.673 104.231 99.1863 102.768C99.3814 100.427 99.4789 97.9884 99.3814 95.5499H99.674ZM98.7962 88.3316V87.9415C98.406 86.2832 98.6011 84.9176 99.3814 83.8446C100.259 82.7717 101.82 82.1864 103.868 82.2839H108.648C109.331 83.552 109.721 84.8201 109.721 86.1857C109.721 87.1611 109.428 88.1366 108.843 88.9169C108.55 89.4046 108.063 89.8923 107.575 90.185C105.819 91.453 103.088 92.1358 99.479 92.1358V91.8432C99.2839 90.6727 99.0888 89.5022 98.7962 88.3316ZM150.787 91.8432V92.1358C147.178 92.1358 144.349 91.453 142.691 90.185C142.203 89.8923 141.813 89.4046 141.423 88.9169C140.837 88.1366 140.545 87.1611 140.545 86.1857C140.545 84.8201 141.032 83.552 141.618 82.479H146.397C148.446 82.2839 150.006 82.8692 150.884 83.9422C151.762 84.9176 151.86 86.3808 151.47 88.039V88.4292C151.177 89.5997 150.884 90.7702 150.787 91.9407V91.8432ZM168.637 112.035C168.54 114.376 167.077 116.327 164.833 117.107C138.886 124.715 111.282 124.715 85.3352 117.107C83.1892 116.327 81.6285 114.376 81.531 112.035V106.28C81.531 104.134 83.1892 102.963 85.3352 103.548C111.282 111.157 138.886 111.157 164.833 103.548C166.979 102.963 168.637 104.134 168.637 106.28V112.035Z" fill="white"/>
</svg>
