<svg width="250" height="250" viewBox="0 0 250 250" fill="none" xmlns="http://www.w3.org/2000/svg">
<path d="M0 125C0 55.9644 55.9644 0 125 0C194.036 0 250 55.9644 250 125C250 194.036 194.036 250 125 250C55.9644 250 0 194.036 0 125Z" fill="white"/>
<path d="M81.4306 102.941C94.0347 103.122 106.714 102.831 119.327 102.951C124.787 103.003 129.337 102.769 134.761 104.025C142.226 105.758 149.104 109.427 154.702 114.662C164.191 123.603 168.178 133.859 168.572 146.681L140.456 146.673C123.044 146.681 109.397 148.015 95.5203 135.02C86.0638 126.163 82.0027 115.575 81.4306 102.941Z" fill="url(#paint0_linear_1_1935)"/>
<path d="M125.065 151.021C139.376 151.251 154.254 151.061 168.619 151.06C168.219 163.924 164.565 172.838 155.728 182.261C154.401 183.605 152.632 184.964 151.116 186.122C142.969 192.344 135.051 194.297 125.059 195C124.939 189.176 125.021 183.107 125.022 177.264L125.065 151.021Z" fill="url(#paint1_linear_1_1935)"/>
<path d="M121.515 55.1117L125.042 55C124.943 69.4404 124.919 83.8813 124.969 98.322L84.7907 98.2905L81.3812 98.3007C81.9441 86.8547 84.9258 78.3047 92.487 69.4067C99.4351 61.2304 110.853 55.8307 121.515 55.1117Z" fill="url(#paint2_linear_1_1935)"/>
<defs>
<linearGradient id="paint0_linear_1_1935" x1="125" y1="55" x2="125" y2="195" gradientUnits="userSpaceOnUse">
<stop stop-color="#40AAFE"/>
<stop offset="1" stop-color="#A158FD"/>
</linearGradient>
<linearGradient id="paint1_linear_1_1935" x1="125" y1="55" x2="125" y2="195" gradientUnits="userSpaceOnUse">
<stop stop-color="#40AAFE"/>
<stop offset="1" stop-color="#A158FD"/>
</linearGradient>
<linearGradient id="paint2_linear_1_1935" x1="125" y1="55" x2="125" y2="195" gradientUnits="userSpaceOnUse">
<stop stop-color="#40AAFE"/>
<stop offset="1" stop-color="#A158FD"/>
</linearGradient>
</defs>
</svg>
