<svg width="250" height="250" viewBox="0 0 250 250" fill="none" xmlns="http://www.w3.org/2000/svg">
<mask id="path-1-inside-1_453_498" fill="white">
<path d="M0 125C0 55.9644 55.9644 0 125 0C194.036 0 250 55.9644 250 125C250 194.036 194.036 250 125 250C55.9644 250 0 194.036 0 125Z"/>
</mask>
<path d="M0 125C0 55.9644 55.9644 0 125 0C194.036 0 250 55.9644 250 125C250 194.036 194.036 250 125 250C55.9644 250 0 194.036 0 125Z" fill="white"/>
<path d="M0 125M250 125M250 125M0 125M125 0M250 125M125 250M0 125M125 250V248C57.069 248 2 192.931 2 125H0H-2C-2 195.14 54.8598 252 125 252V250ZM250 125H248C248 192.931 192.931 248 125 248V250V252C195.14 252 252 195.14 252 125H250ZM125 0V2C192.931 2 248 57.069 248 125H250H252C252 54.8598 195.14 -2 125 -2V0ZM125 0V-2C54.8598 -2 -2 54.8598 -2 125H0H2C2 57.069 57.069 2 125 2V0Z" fill="#DDDBDB" mask="url(#path-1-inside-1_453_498)"/>
<path d="M81.4303 102.941C94.0344 103.122 106.714 102.831 119.326 102.951C124.786 103.003 129.336 102.769 134.761 104.025C142.226 105.758 149.104 109.427 154.701 114.662C164.191 123.603 168.178 133.859 168.571 146.681L140.456 146.673C123.043 146.681 109.397 148.015 95.52 135.02C86.0635 126.163 82.0023 115.575 81.4303 102.941Z" fill="url(#paint0_linear_453_498)"/>
<path d="M125.065 151.021C139.376 151.251 154.254 151.061 168.618 151.06C168.219 163.924 164.565 172.838 155.728 182.261C154.401 183.605 152.631 184.964 151.115 186.122C142.969 192.344 135.051 194.297 125.059 195C124.939 189.176 125.02 183.107 125.022 177.264L125.065 151.021Z" fill="url(#paint1_linear_453_498)"/>
<path d="M121.514 55.1117L125.041 55C124.943 69.4404 124.919 83.8813 124.969 98.322L84.7904 98.2905L81.3809 98.3007C81.9438 86.8547 84.9255 78.3047 92.4867 69.4067C99.4348 61.2304 110.852 55.8307 121.514 55.1117Z" fill="url(#paint2_linear_453_498)"/>
<defs>
<linearGradient id="paint0_linear_453_498" x1="125" y1="55" x2="125" y2="195" gradientUnits="userSpaceOnUse">
<stop stop-color="#40AAFE"/>
<stop offset="1" stop-color="#A158FD"/>
</linearGradient>
<linearGradient id="paint1_linear_453_498" x1="125" y1="55" x2="125" y2="195" gradientUnits="userSpaceOnUse">
<stop stop-color="#40AAFE"/>
<stop offset="1" stop-color="#A158FD"/>
</linearGradient>
<linearGradient id="paint2_linear_453_498" x1="125" y1="55" x2="125" y2="195" gradientUnits="userSpaceOnUse">
<stop stop-color="#40AAFE"/>
<stop offset="1" stop-color="#A158FD"/>
</linearGradient>
</defs>
</svg>
