<svg width="250" height="250" viewBox="0 0 250 250" fill="none" xmlns="http://www.w3.org/2000/svg">
<path d="M0 125C0 55.9644 55.9644 0 125 0C194.036 0 250 55.9644 250 125C250 194.036 194.036 250 125 250C55.9644 250 0 194.036 0 125Z" fill="#15233C"/>
<path d="M91.3688 60.7165L153.413 60.705L168.512 60.696C170.95 60.6925 175.35 60.5611 177.584 60.9327C180.597 61.4106 183.377 62.8416 185.517 65.0155C187.824 67.328 189.801 70.8807 189.82 74.201C190.134 76.7186 189.941 83.0836 189.941 85.9413L189.952 109.58L189.949 147.327L189.948 159.409C189.948 161.296 190.024 163.944 189.927 165.755C190.013 168.955 190.055 172.494 189.861 175.654C189.403 183.107 182.558 189.334 175.124 189.245C171.922 189.208 168.067 189.469 164.919 189.222C161.202 189.405 155.74 189.251 151.907 189.253H126.436L92.614 189.248C86.5572 189.248 80.0442 189.363 74.0153 189.198C70.3254 188.976 66.8514 187.384 64.2733 184.735C62.1602 182.589 60.7497 179.852 60.229 176.886C59.9105 175.016 60.0173 169.873 60.0169 167.781L60.0183 151.036L60.0555 92.8372C59.9905 91.7401 60.0199 90.4889 60.0196 89.3798L60.0233 80.4549C60.0229 74.5848 59.8085 69.6936 64.3813 65.1049C69.2255 60.244 74.548 60.7221 80.8034 60.7101L91.3688 60.7165Z" fill="url(#paint0_linear_1_1917)"/>
<path d="M155.38 115.104C141.617 107.305 130.453 91.3718 126.841 76.1293C125.976 72.4772 125.65 68.5962 125.088 65.0408C124.839 66.8941 124.557 68.8726 124.292 70.7622C122.535 80.0856 119.945 87.52 114.676 95.5589C103.094 113.226 84.8155 123.307 63.9791 124.965L64.0745 124.992C68.0185 125.473 71.8663 125.817 75.7428 126.807C88.006 129.837 99.1306 136.351 107.773 145.563C109.865 147.777 112.896 151.414 114.417 154.052C114.955 154.65 116.691 157.638 117.115 158.411C121.684 166.653 124.342 175.816 124.893 185.224C125.41 183.323 125.858 178.314 126.369 175.841C128.519 165.887 133.01 156.588 139.469 148.715C148.187 138.121 160.02 130.541 173.289 127.051C177.731 125.918 181.762 125.434 186.286 125.004C175.581 123.951 164.375 121.302 155.38 115.104Z" fill="#15233C"/>
<defs>
<linearGradient id="paint0_linear_1_1917" x1="63.4382" y1="60.6706" x2="190" y2="198.066" gradientUnits="userSpaceOnUse">
<stop stop-color="#47AF00"/>
<stop offset="0.420869" stop-color="#F0D713"/>
<stop offset="1" stop-color="#FC7D0B"/>
</linearGradient>
</defs>
</svg>
