<svg width="250" height="250" viewBox="0 0 250 250" fill="none" xmlns="http://www.w3.org/2000/svg">
<mask id="path-1-inside-1_453_483" fill="white">
<path d="M0 125C0 55.9644 55.9644 0 125 0C194.036 0 250 55.9644 250 125C250 194.036 194.036 250 125 250C55.9644 250 0 194.036 0 125Z"/>
</mask>
<path d="M0 125C0 55.9644 55.9644 0 125 0C194.036 0 250 55.9644 250 125C250 194.036 194.036 250 125 250C55.9644 250 0 194.036 0 125Z" fill="white"/>
<path d="M0 125M250 125M250 125M0 125M125 0M250 125M125 250M0 125M125 250V248C57.069 248 2 192.931 2 125H0H-2C-2 195.14 54.8598 252 125 252V250ZM250 125H248C248 192.931 192.931 248 125 248V250V252C195.14 252 252 195.14 252 125H250ZM125 0V2C192.931 2 248 57.069 248 125H250H252C252 54.8598 195.14 -2 125 -2V0ZM125 0V-2C54.8598 -2 -2 54.8598 -2 125H0H2C2 57.069 57.069 2 125 2V0Z" fill="#DDDBDB" mask="url(#path-1-inside-1_453_483)"/>
<path fill-rule="evenodd" clip-rule="evenodd" d="M187.501 66.1758C187.154 62.43 184.935 59.274 181.414 58.5342C163.202 54.5506 144.625 52.4791 125.984 52.3535C107.352 52.4806 88.7841 54.552 70.5822 58.5342C67.0611 59.274 64.851 62.4206 64.5139 66.1758C63.0998 81.7681 59.7754 122.102 61.4704 138.284C65.4691 176.586 93.3104 200.597 125.984 211.647C130.2 210.225 134.338 208.584 138.383 206.731L149.012 201.112C170.981 187.898 187.519 167.174 190.516 138.284C192.249 122.074 188.877 81.8055 187.501 66.1758Z" fill="url(#paint0_linear_453_483)"/>
<path fill-rule="evenodd" clip-rule="evenodd" d="M182.927 71.0727C182.618 67.589 180.548 64.6672 177.308 63.9742C160.441 60.2894 143.235 58.3749 125.971 58.2617C108.726 58.3866 91.5423 60.3137 74.6988 64.0117C71.4399 64.7047 69.3984 67.6264 69.08 71.1101C67.7595 85.5224 64.6879 122.888 66.2706 137.834C70.0164 173.279 95.7226 195.511 125.989 205.747C129.902 204.438 133.741 202.919 137.489 201.195L85.9083 97.8557L80.8514 93.9787C80.4604 93.6816 80.1418 93.2997 79.9196 92.8618C79.6974 92.4239 79.5773 91.9413 79.5684 91.4502V75.4085C79.5635 75.1974 79.6003 74.9874 79.6768 74.7907C79.7533 74.5939 79.8679 74.4141 80.0142 74.2618C80.1604 74.1095 80.3353 73.9876 80.5288 73.9032C80.7223 73.8187 80.9306 73.7733 81.1417 73.7697C81.4794 73.7756 81.8069 73.8869 82.0782 74.0881L94.552 83.7244C94.9439 84.0359 95.2586 84.4338 95.4714 84.8871C95.6842 85.3403 95.7894 85.8365 95.7788 86.3371V92.7051C101.904 89.2998 108.884 87.7418 115.875 88.2194C127.244 88.8094 135.054 96.6009 148.652 97.35C159.646 97.9213 167.175 94.0256 172.794 90.7947C173.393 98.9889 173.965 108.063 174.246 116.229L174.433 124.33C168.243 129.508 158.101 134.06 152.323 134.06C142.78 134.06 136.281 127.842 127.244 127.842C122.986 127.84 118.831 129.148 115.342 131.587L147.303 195.988C167.653 183.739 182.974 164.551 185.699 137.806C187.328 122.85 184.219 85.4849 182.927 71.0727ZM119.912 190.435L116.934 189.049C95.7694 178.486 80.5049 160.964 77.939 136.504C77.246 129.789 77.5925 117.512 78.3417 105.01L119.912 190.435ZM148.643 86.7585C135.045 86 127.572 78.8173 116.213 78.2179C112.158 77.9964 108.097 78.4941 104.216 79.6882L93.9152 72.8145L94.1961 72.7489C104.705 71.2058 115.311 70.411 125.933 70.3703C141.22 70.4684 156.461 72.0649 171.436 75.1369L171.97 80.6621C166.445 83.7244 159.168 87.2736 148.643 86.7117V86.7585ZM151.031 178.814L133.603 143.827C132.713 142.091 131.51 140.536 130.054 139.238C135.457 140.999 141.928 145.269 152.313 145.269C162.306 145.269 170.781 139.21 174.143 136.008C172.279 154.25 163.682 168.372 151.031 178.767V178.814Z" fill="white"/>
<defs>
<linearGradient id="paint0_linear_453_483" x1="79.5162" y1="44.2062" x2="182.959" y2="195.034" gradientUnits="userSpaceOnUse">
<stop offset="0.04" stop-color="#179ED9"/>
<stop offset="0.22" stop-color="#1B7AB6"/>
<stop offset="0.46" stop-color="#205491"/>
<stop offset="0.67" stop-color="#233977"/>
<stop offset="0.86" stop-color="#252867"/>
<stop offset="1" stop-color="#262261"/>
</linearGradient>
</defs>
</svg>
