<svg width="250" height="250" viewBox="0 0 250 250" fill="none" xmlns="http://www.w3.org/2000/svg">
<mask id="path-1-inside-1_648_517" fill="white">
<path d="M0 125C0 55.9644 55.9644 0 125 0C194.036 0 250 55.9644 250 125C250 194.036 194.036 250 125 250C55.9644 250 0 194.036 0 125Z"/>
</mask>
<path d="M0 125C0 55.9644 55.9644 0 125 0C194.036 0 250 55.9644 250 125C250 194.036 194.036 250 125 250C55.9644 250 0 194.036 0 125Z" fill="white"/>
<path d="M0 125M250 125M250 125M0 125M125 0M250 125M125 250M0 125M125 250V248C57.069 248 2 192.931 2 125H0H-2C-2 195.14 54.8598 252 125 252V250ZM250 125H248C248 192.931 192.931 248 125 248V250V252C195.14 252 252 195.14 252 125H250ZM125 0V2C192.931 2 248 57.069 248 125H250H252C252 54.8598 195.14 -2 125 -2V0ZM125 0V-2C54.8598 -2 -2 54.8598 -2 125H0H2C2 57.069 57.069 2 125 2V0Z" fill="#DDDBDB" mask="url(#path-1-inside-1_648_517)"/>
<path d="M194.999 125.04C195.167 162.801 164.521 194.971 125.063 195.022C86.5669 195.067 54.97 164.034 55 124.968C55.03 85.3927 87.2568 54.8967 125.129 54.9777C163.903 55.0587 195.188 86.7125 194.999 125.04ZM127.765 97.3938C127.642 108.69 137.112 117.844 148.21 117.841C158.819 117.841 168.636 109.275 168.66 97.3638C168.684 85.3417 158.864 76.8351 148.312 76.8141C137.406 76.7931 127.636 85.8817 127.765 97.3938Z" fill="#DB353A"/>
</svg>
