<svg width="250" height="250" viewBox="0 0 250 250" fill="none" xmlns="http://www.w3.org/2000/svg">
<mask id="path-1-inside-1_453_518" fill="white">
<path d="M0 125C0 55.9644 55.9644 0 125 0C194.036 0 250 55.9644 250 125C250 194.036 194.036 250 125 250C55.9644 250 0 194.036 0 125Z"/>
</mask>
<path d="M0 125C0 55.9644 55.9644 0 125 0C194.036 0 250 55.9644 250 125C250 194.036 194.036 250 125 250C55.9644 250 0 194.036 0 125Z" fill="white"/>
<path d="M0 125M250 125M250 125M0 125M125 0M250 125M125 250M0 125M125 250V248C57.069 248 2 192.931 2 125H0H-2C-2 195.14 54.8598 252 125 252V250ZM250 125H248C248 192.931 192.931 248 125 248V250V252C195.14 252 252 195.14 252 125H250ZM125 0V2C192.931 2 248 57.069 248 125H250H252C252 54.8598 195.14 -2 125 -2V0ZM125 0V-2C54.8598 -2 -2 54.8598 -2 125H0H2C2 57.069 57.069 2 125 2V0Z" fill="#DDDBDB" mask="url(#path-1-inside-1_453_518)"/>
<path d="M82.4335 100.004C89.2772 98.4879 95.7223 98.7979 102.476 100.477C121.721 106.346 130.391 122.793 134.067 141.381C124.545 136.069 114.745 135.32 104.28 138.279C103.498 138.503 102.719 138.74 101.945 138.99C98.4963 140.332 95.6054 141.513 92.3774 143.439C89.6418 144.949 86.2294 147.488 83.7774 149.429C77.7833 138.411 75.962 123.416 79.3109 111.286C79.7052 109.746 80.3045 104.457 81.4383 103.624C81.5431 103.447 81.7024 102.721 81.7641 102.476C81.8957 101.828 82.2475 100.677 82.4335 100.004Z" fill="#147ABE"/>
<path d="M79.3106 111.286C79.7049 109.746 80.3042 104.457 81.438 103.624C81.1131 105.843 80.6844 108.059 80.5356 110.297C79.9745 118.734 82.1543 128.624 86.8326 135.737C94.2541 131.518 104.091 128.26 112.639 128.437C121.074 128.612 129.167 132.746 133.409 140.262C133.599 140.593 133.775 140.933 133.934 141.281C121.803 127.331 98.5931 134.663 84.9514 142.474C81.1137 135.658 79.0546 125.908 78.9879 118.115C78.9696 115.972 79.3783 113.057 79.3106 111.286Z" fill="#86BF43"/>
<path fill-rule="evenodd" clip-rule="evenodd" d="M96.3139 112.417C96.8143 112.37 96.9426 112.273 97.3383 112.467C97.97 113.905 98.8383 117.011 99.3336 118.63C100.103 118.496 100.907 118.488 101.69 118.458L102.184 119.702C101.372 119.786 100.579 119.841 99.7253 119.938L100.079 120.983C101.009 120.957 101.626 120.952 102.702 120.871L103.167 122.053C102.344 122.227 101.372 122.354 100.531 122.485C100.961 123.663 101.371 125.059 101.758 126.268C100.634 126.311 100.022 126.428 98.9332 126.652C97.7419 125.668 96.5249 124.716 95.2832 123.797C93.5307 124.329 92.0468 124.85 90.3842 125.616C90.8082 126.978 91.2653 128.157 91.8131 129.469C90.9264 129.943 90.1861 130.315 89.3717 130.913L88.7245 129.604C88.3785 128.771 88.0723 127.793 87.7795 126.931C87.1721 127.312 86.5427 127.744 85.9409 128.142L85.4073 126.538C85.9381 126.225 86.5551 125.832 87.3369 125.326C87.2031 124.862 87.155 124.7 87.0291 124.352C86.5492 124.695 85.3508 125.433 84.9467 125.716L84.3857 124.109L86.6499 122.898C86.0636 120.732 85.5829 118.488 85.0879 116.295C85.9745 115.749 86.7278 115.356 87.6535 114.881C89.9758 116.474 92.3095 118.05 94.6545 119.61L96.4681 119.126C95.7995 116.985 95.1472 114.84 94.5115 112.689L96.3139 112.417ZM92.4878 121.974C91.6909 122.27 90.5632 122.68 89.6437 123.047C89.774 123.505 89.8413 123.744 89.96 124.109C91.1751 123.642 92.2312 123.188 93.6862 122.68C93.2442 122.372 92.4878 121.974 92.4878 121.974ZM89.3107 121.642L90.8561 120.912C90.041 120.522 89.4567 120.256 88.8505 119.967L89.3107 121.642Z" fill="white"/>
<path d="M145.266 96.1587C147.271 96.1041 148.404 96.9599 149.477 98.5895C148.993 104.191 149.515 111.301 149.644 116.98C150.066 135.641 150.774 154.209 149.596 172.862C148.814 185.237 144.545 199.557 129.903 200.392C123.53 200.753 119.498 199.778 114.595 195.552C112.088 193.173 110.703 191.063 109.138 188.037C116.325 191.664 128.205 195.708 134.903 188.815C138.035 185.591 138.889 180.515 139.401 176.202C140.852 163.997 140.615 151.616 140.446 139.344L139.764 98.9199C141.326 97.4453 143.116 96.4293 145.266 96.1587Z" fill="#147ABE"/>
<path d="M92.1276 84.8358C91.8337 79.3454 91.6654 73.7849 91.8645 68.2893C92.0336 63.6266 92.0985 54.0571 95.681 50.7947C96.5029 50.0463 97.6012 49.4703 98.7412 49.5469C99.6195 49.6059 100.367 50.0997 100.931 50.7502C105.574 56.0998 104.004 74.6698 103.481 81.8513C104.166 81.6444 104.928 81.489 105.628 81.3296C118.286 78.4492 131.261 76.1921 144.26 75.826C157.587 75.4506 172.457 78.0324 182.492 87.4581C187.843 92.484 191.5 100.368 189.4 107.741C188.583 110.582 186.397 113.451 184.346 115.548C175.698 124.388 162.918 125.283 151.279 125.43C153.687 124.172 156.179 122.969 158.428 121.495C165.335 116.966 175.247 109.859 171.947 100.275C168.677 90.7793 159.779 89.6253 151.116 89.0077C138.047 88.0761 125.464 89.6142 112.826 92.919C109.415 93.816 105.938 94.698 102.595 95.8303C102.568 97.3794 102.528 98.9283 102.476 100.477C95.7222 98.7977 89.2771 98.4877 82.4334 100.004C82.2474 100.677 81.8956 101.827 81.764 102.476C77.2149 103.606 66.2756 108.014 62.0419 105.723C61.1162 105.222 60.4076 104.402 60.1251 103.379C59.7029 101.85 60.4431 99.8518 61.1808 98.5309C64.1912 93.1406 85.704 86.6106 92.1276 84.8358Z" fill="#86BF43"/>
<path d="M101.945 138.99C101.903 148.001 102.102 157.012 102.541 166.013C102.834 171.522 103.277 178.461 104.537 183.816C93.0741 180.971 92.7528 153.025 92.3774 143.439C95.6053 141.513 98.4963 140.332 101.945 138.99Z" fill="#86BF43"/>
<path d="M114.258 104.039C118.281 103.78 122.729 104.179 126.787 103.996C127.999 103.942 129.623 104.062 130.755 104.472C136.54 106.564 136.308 110.72 136.294 115.796L136.28 123.388L136.295 131.862C136.299 134.375 136.518 136.774 135.685 139.18C135.55 139.525 135.545 139.607 135.279 139.846C135.03 139.526 134.287 134.724 134.093 133.881C131.378 121.994 124.746 110.621 114.258 104.039Z" fill="#147ABE"/>
<path d="M113.6 139.085C119.996 138.534 127.067 139.889 132.873 142.614C130.315 144.11 129.25 144.121 126.347 144.102L117.983 144.121C113.066 144.131 109.929 144.473 106.847 139.844C109.266 139.439 111.176 139.248 113.6 139.085Z" fill="#147ABE"/>
<path d="M120.381 147.936C122.804 147.526 125.097 149.168 125.489 151.594C125.881 154.02 124.223 156.301 121.795 156.676C119.39 157.047 117.136 155.409 116.748 153.007C116.359 150.606 117.982 148.341 120.381 147.936Z" fill="#147ABE"/>
<path d="M117.113 177.732C117.113 176.325 118.253 175.186 119.659 175.186H122.656C124.062 175.186 125.202 176.325 125.202 177.732C125.202 179.138 124.062 180.278 122.656 180.278H119.659C118.253 180.278 117.113 179.138 117.113 177.732Z" fill="#147ABE"/>
<path d="M117.113 169.814C117.113 168.408 118.253 167.268 119.659 167.268H122.656C124.062 167.268 125.202 168.408 125.202 169.814C125.202 171.22 124.062 172.36 122.656 172.36H119.659C118.253 172.36 117.113 171.22 117.113 169.814Z" fill="#147ABE"/>
<path d="M105.146 169.814C105.146 168.408 106.285 167.268 107.692 167.268H110.688C112.094 167.268 113.234 168.408 113.234 169.814C113.234 171.22 112.094 172.36 110.688 172.36H107.692C106.285 172.36 105.146 171.22 105.146 169.814Z" fill="#147ABE"/>
<path d="M128.487 169.814C128.487 168.408 129.627 167.268 131.033 167.268H134.03C135.436 167.268 136.576 168.408 136.576 169.814C136.576 171.22 135.436 172.36 134.03 172.36H131.033C129.627 172.36 128.487 171.22 128.487 169.814Z" fill="#147ABE"/>
<path d="M117.113 161.12C117.113 159.714 118.253 158.574 119.659 158.574H122.656C124.062 158.574 125.202 159.714 125.202 161.12C125.202 162.527 124.062 163.667 122.656 163.667H119.659C118.253 163.667 117.113 162.527 117.113 161.12Z" fill="#147ABE"/>
<path d="M105.146 161.12C105.146 159.714 106.285 158.574 107.692 158.574H110.688C112.094 158.574 113.234 159.714 113.234 161.12C113.234 162.527 112.094 163.667 110.688 163.667H107.692C106.285 163.667 105.146 162.527 105.146 161.12Z" fill="#147ABE"/>
<path d="M105.082 150.196C105.478 148.719 106.996 147.843 108.472 148.239L112.058 149.199C113.535 149.595 114.411 151.113 114.015 152.589C113.62 154.066 112.102 154.942 110.625 154.547L107.04 153.586C105.563 153.19 104.687 151.672 105.082 150.196Z" fill="#147ABE"/>
<path d="M137.516 150.196C137.121 148.719 135.603 147.843 134.126 148.239L130.541 149.199C129.064 149.595 128.188 151.113 128.583 152.589C128.979 154.066 130.497 154.942 131.973 154.547L135.559 153.586C137.036 153.19 137.912 151.672 137.516 150.196Z" fill="#147ABE"/>
<path d="M128.487 161.12C128.487 159.714 129.627 158.574 131.033 158.574H134.03C135.436 158.574 136.576 159.714 136.576 161.12C136.576 162.527 135.436 163.667 134.03 163.667H131.033C129.627 163.667 128.487 162.527 128.487 161.12Z" fill="#147ABE"/>
</svg>
