<svg width="250" height="250" viewBox="0 0 250 250" fill="none" xmlns="http://www.w3.org/2000/svg">
<path d="M0 125C0 55.9644 55.9644 0 125 0C194.036 0 250 55.9644 250 125C250 194.036 194.036 250 125 250C55.9644 250 0 194.036 0 125Z" fill="white"/>
<path d="M82.4331 100.003C89.2769 98.4874 95.722 98.7975 102.476 100.477C121.721 106.345 130.39 122.793 134.067 141.38C124.544 136.068 114.745 135.32 104.28 138.279C103.497 138.502 102.719 138.739 101.945 138.99C98.496 140.332 95.605 141.513 92.3771 143.439C89.6414 144.948 86.2291 147.487 83.7771 149.428C77.783 138.411 75.9617 123.416 79.3106 111.285C79.7049 109.745 80.3042 104.456 81.4379 103.624C81.5428 103.446 81.7021 102.72 81.7637 102.476C81.8954 101.827 82.2472 100.677 82.4331 100.003Z" fill="#147ABE"/>
<path d="M79.3104 111.285C79.7048 109.745 80.3041 104.456 81.4378 103.624C81.1129 105.843 80.6842 108.058 80.5355 110.296C79.9744 118.734 82.1542 128.624 86.8324 135.736C94.254 131.517 104.091 128.259 112.639 128.436C121.074 128.611 129.166 132.746 133.409 140.261C133.599 140.592 133.774 140.933 133.934 141.28C121.802 127.331 98.5929 134.663 84.9512 142.474C81.1136 135.657 79.0545 125.907 78.9878 118.115C78.9694 115.971 79.3782 113.056 79.3104 111.285Z" fill="#86BF43"/>
<path fill-rule="evenodd" clip-rule="evenodd" d="M96.3142 112.417C96.8147 112.37 96.9429 112.272 97.3387 112.467C97.9704 113.904 98.8387 117.011 99.3339 118.63C100.103 118.496 100.908 118.488 101.69 118.458L102.184 119.702C101.372 119.786 100.58 119.841 99.7257 119.937L100.079 120.983C101.009 120.956 101.627 120.951 102.702 120.871L103.167 122.053C102.344 122.227 101.372 122.353 100.531 122.484C100.961 123.663 101.372 125.059 101.758 126.267C100.634 126.311 100.022 126.428 98.9336 126.651C97.7423 125.668 96.5252 124.716 95.2836 123.796C93.531 124.329 92.0471 124.849 90.3846 125.616C90.8086 126.978 91.2657 128.156 91.8135 129.469C90.9268 129.943 90.1865 130.315 89.3721 130.913L88.7248 129.603C88.3789 128.77 88.0726 127.793 87.7799 126.931C87.1725 127.312 86.5431 127.744 85.9413 128.142L85.4077 126.538C85.9385 126.224 86.5555 125.832 87.3372 125.326C87.2034 124.861 87.1554 124.699 87.0294 124.352C86.5496 124.695 85.3512 125.433 84.9471 125.716L84.3861 124.108L86.6503 122.898C86.064 120.732 85.5833 118.488 85.0883 116.294C85.9749 115.749 86.7282 115.356 87.6538 114.881C89.9762 116.474 92.3098 118.05 94.6549 119.61L96.4685 119.126C95.7999 116.985 95.1476 114.84 94.5119 112.689L96.3142 112.417ZM92.4881 121.974C91.6913 122.27 90.5636 122.68 89.644 123.047C89.7743 123.505 89.8417 123.743 89.9604 124.108C91.1755 123.642 92.2315 123.188 93.6865 122.68C93.2446 122.372 92.4881 121.974 92.4881 121.974ZM89.3111 121.642L90.8565 120.912C90.0414 120.522 89.457 120.255 88.8508 119.967L89.3111 121.642Z" fill="white"/>
<path d="M145.265 96.158C147.271 96.1034 148.404 96.9592 149.477 98.5887C148.993 104.19 149.514 111.3 149.643 116.979C150.066 135.641 150.773 154.208 149.595 172.861C148.813 185.236 144.545 199.556 129.903 200.391C123.53 200.752 119.498 199.777 114.594 195.552C112.087 193.172 110.703 191.062 109.137 188.036C116.324 191.663 128.204 195.708 134.902 188.814C138.034 185.59 138.888 180.514 139.401 176.202C140.851 163.997 140.614 151.615 140.445 139.343L139.764 98.9192C141.326 97.4446 143.115 96.4286 145.265 96.158Z" fill="#147ABE"/>
<path d="M92.1273 84.8356C91.8333 79.3452 91.665 73.7847 91.8642 68.2891C92.0332 63.6264 92.0982 54.0569 95.6806 50.7945C96.5025 50.0461 97.6008 49.47 98.7408 49.5466C99.6191 49.6057 100.366 50.0994 100.931 50.7499C105.573 56.0995 104.003 74.6695 103.481 81.8511C104.165 81.6442 104.927 81.4888 105.628 81.3293C118.286 78.449 131.26 76.1919 144.26 75.8258C157.587 75.4503 172.457 78.0322 182.492 87.4579C187.843 92.4838 191.5 100.368 189.399 107.741C188.583 110.582 186.396 113.451 184.345 115.548C175.698 124.388 162.918 125.283 151.279 125.43C153.686 124.171 156.178 122.969 158.427 121.494C165.335 116.965 175.246 109.858 171.947 100.275C168.677 90.7791 159.778 89.625 151.115 89.0074C138.047 88.0759 125.464 89.614 112.826 92.9188C109.415 93.8157 105.938 94.6977 102.594 95.83C102.568 97.3792 102.528 98.9281 102.476 100.477C95.7219 98.7975 89.2768 98.4875 82.433 100.003C82.2471 100.677 81.8953 101.827 81.7636 102.476C77.2145 103.606 66.2752 108.014 62.0416 105.723C61.1158 105.222 60.4072 104.402 60.1247 103.379C59.7026 101.849 60.4427 99.8516 61.1804 98.5306C64.1908 93.1404 85.7036 86.6104 92.1273 84.8356Z" fill="#86BF43"/>
<path d="M101.945 138.99C101.903 148.001 102.101 157.012 102.54 166.012C102.834 171.522 103.277 178.461 104.537 183.816C93.0737 180.971 92.7525 153.025 92.377 143.439C95.6049 141.513 98.4959 140.332 101.945 138.99Z" fill="#86BF43"/>
<path d="M114.257 104.039C118.28 103.78 122.728 104.179 126.786 103.996C127.998 103.942 129.623 104.062 130.754 104.472C136.539 106.564 136.308 110.72 136.294 115.796L136.279 123.388L136.295 131.862C136.299 134.375 136.517 136.774 135.685 139.18C135.55 139.525 135.544 139.607 135.279 139.846C135.029 139.526 134.287 134.724 134.093 133.881C131.377 121.994 124.746 110.621 114.257 104.039Z" fill="#147ABE"/>
<path d="M113.6 139.085C119.996 138.533 127.067 139.888 132.873 142.614C130.315 144.11 129.25 144.121 126.347 144.102L117.982 144.121C113.066 144.131 109.929 144.472 106.846 139.844C109.265 139.439 111.176 139.248 113.6 139.085Z" fill="#147ABE"/>
<path d="M120.381 147.935C122.804 147.526 125.097 149.168 125.488 151.593C125.881 154.019 124.223 156.3 121.795 156.675C119.39 157.047 117.136 155.408 116.747 153.007C116.359 150.605 117.981 148.34 120.381 147.935Z" fill="#147ABE"/>
<path d="M117.113 177.731C117.113 176.325 118.253 175.185 119.659 175.185H122.655C124.061 175.185 125.201 176.325 125.201 177.731C125.201 179.137 124.061 180.277 122.655 180.277H119.659C118.253 180.277 117.113 179.137 117.113 177.731Z" fill="#147ABE"/>
<path d="M117.113 169.814C117.113 168.408 118.253 167.268 119.659 167.268H122.655C124.061 167.268 125.201 168.408 125.201 169.814C125.201 171.22 124.061 172.36 122.655 172.36H119.659C118.253 172.36 117.113 171.22 117.113 169.814Z" fill="#147ABE"/>
<path d="M105.145 169.814C105.145 168.408 106.285 167.268 107.691 167.268H110.688C112.094 167.268 113.234 168.408 113.234 169.814C113.234 171.22 112.094 172.36 110.688 172.36H107.691C106.285 172.36 105.145 171.22 105.145 169.814Z" fill="#147ABE"/>
<path d="M128.487 169.814C128.487 168.408 129.627 167.268 131.033 167.268H134.029C135.436 167.268 136.575 168.408 136.575 169.814C136.575 171.22 135.436 172.36 134.029 172.36H131.033C129.627 172.36 128.487 171.22 128.487 169.814Z" fill="#147ABE"/>
<path d="M117.113 161.12C117.113 159.714 118.253 158.574 119.659 158.574H122.655C124.061 158.574 125.201 159.714 125.201 161.12C125.201 162.527 124.061 163.667 122.655 163.667H119.659C118.253 163.667 117.113 162.527 117.113 161.12Z" fill="#147ABE"/>
<path d="M105.145 161.12C105.145 159.714 106.285 158.574 107.691 158.574H110.688C112.094 158.574 113.234 159.714 113.234 161.12C113.234 162.527 112.094 163.667 110.688 163.667H107.691C106.285 163.667 105.145 162.527 105.145 161.12Z" fill="#147ABE"/>
<path d="M105.082 150.195C105.477 148.719 106.995 147.842 108.472 148.238L112.057 149.199C113.534 149.594 114.41 151.112 114.015 152.589C113.619 154.065 112.101 154.942 110.625 154.546L107.039 153.585C105.562 153.19 104.686 151.672 105.082 150.195Z" fill="#147ABE"/>
<path d="M137.516 150.195C137.12 148.719 135.603 147.842 134.126 148.238L130.54 149.199C129.064 149.594 128.187 151.112 128.583 152.589C128.979 154.065 130.497 154.942 131.973 154.546L135.559 153.585C137.035 153.19 137.912 151.672 137.516 150.195Z" fill="#147ABE"/>
<path d="M128.487 161.12C128.487 159.714 129.627 158.574 131.033 158.574H134.029C135.436 158.574 136.575 159.714 136.575 161.12C136.575 162.527 135.436 163.667 134.029 163.667H131.033C129.627 163.667 128.487 162.527 128.487 161.12Z" fill="#147ABE"/>
</svg>
