<svg width="250" height="250" viewBox="0 0 250 250" fill="none" xmlns="http://www.w3.org/2000/svg">
<path d="M0 125C0 55.9644 55.9644 0 125 0C194.036 0 250 55.9644 250 125C250 194.036 194.036 250 125 250C55.9644 250 0 194.036 0 125Z" fill="white"/>
<path fill-rule="evenodd" clip-rule="evenodd" d="M140.725 84.3319C139.529 78.0265 140.828 71.5031 144.348 66.137C147.814 61.0776 159.158 57.3653 178.382 55C174.121 57.7212 170.704 61.5784 168.517 66.137C165.045 73.1949 162.029 81.6188 157.343 84.3319C154.232 86.2292 149.47 86.6844 143.058 85.9637C149.572 77.3626 153.581 72.2526 155.086 70.6336C156.338 69.3434 148.351 74.5989 144.291 79.1712C143.005 80.8223 141.815 82.5452 140.725 84.3319Z" fill="#80BC00"/>
<path fill-rule="evenodd" clip-rule="evenodd" d="M134.218 76.0408C134.648 73.9467 134.634 71.7855 134.177 69.6971C133.719 67.6087 132.828 65.6396 131.562 63.9173C129.058 60.5021 120.774 58.0294 106.71 56.4989C109.773 58.2379 112.279 60.8103 113.938 63.9173C116.48 68.6225 118.681 74.2384 122.096 76.0408C124.372 77.2551 127.787 77.6156 132.53 77.1413C127.787 71.4115 124.846 68.0027 123.708 66.9149C122.798 66.0422 128.622 69.5522 131.581 72.6068C132.529 73.6968 133.41 74.8436 134.218 76.0408Z" fill="#80BC00"/>
<path fill-rule="evenodd" clip-rule="evenodd" d="M170.376 111.918C173.262 117.637 174.763 123.954 174.758 130.36C174.816 135.633 173.833 140.866 171.866 145.76C169.899 150.653 166.986 155.11 163.295 158.876C159.603 162.642 155.205 165.643 150.352 167.707C145.5 169.771 140.288 170.857 135.015 170.905C124.437 170.675 114.37 166.312 106.97 158.749C99.5702 151.187 95.4264 141.026 95.4264 130.445C95.4264 119.864 99.5702 109.704 106.97 102.141C114.37 94.5782 124.437 90.2148 135.015 89.9858C141.345 89.9713 147.583 91.5016 153.188 94.4443C144.78 89.0958 135.02 86.2589 125.055 86.2671C95.5178 86.2671 71.6148 110.609 71.6148 140.643C71.6148 170.677 95.5178 195 124.998 195C139.286 194.865 152.935 189.061 162.945 178.865C172.956 168.668 178.508 154.913 178.381 140.624C178.422 130.499 175.65 120.561 170.376 111.918ZM108.683 130.891C108.665 136.173 110.116 141.357 112.876 145.86C111.364 142.866 110.578 139.558 110.58 136.203C110.637 132.088 111.908 128.082 114.235 124.687C116.562 121.293 119.84 118.662 123.658 117.126C127.475 115.59 131.662 115.217 135.691 116.054C139.72 116.891 143.412 118.901 146.301 121.831C149.191 124.761 151.151 128.479 151.933 132.52C152.716 136.56 152.286 140.742 150.699 144.539C149.111 148.336 146.437 151.579 143.012 153.86C139.586 156.14 135.563 157.358 131.448 157.358C128.143 157.365 124.887 156.563 121.963 155.024C126.33 157.822 131.403 159.322 136.589 159.35C142.239 159.459 147.794 157.884 152.546 154.824C157.297 151.764 161.03 147.358 163.268 142.169C165.507 136.979 166.149 131.24 165.114 125.684C164.079 120.128 161.413 115.005 157.456 110.97C153.499 106.935 148.431 104.169 142.896 103.026C137.362 101.882 131.613 102.413 126.381 104.55C121.149 106.687 116.672 110.333 113.52 115.024C110.368 119.715 108.684 125.239 108.683 130.891ZM141.37 136.317C141.332 134.408 140.732 132.553 139.645 130.984C138.557 129.414 137.03 128.201 135.256 127.497C133.482 126.792 131.539 126.627 129.671 127.022C127.803 127.417 126.094 128.355 124.757 129.718C123.42 131.081 122.515 132.809 122.156 134.684C121.798 136.559 122 138.499 122.739 140.26C123.478 142.02 124.721 143.523 126.31 144.58C127.9 145.637 129.767 146.202 131.676 146.202C132.963 146.19 134.235 145.923 135.419 145.419C136.603 144.914 137.676 144.181 138.577 143.261C139.477 142.341 140.187 141.253 140.667 140.058C141.146 138.863 141.385 137.586 141.37 136.298V136.317Z" fill="#F18A00"/>
</svg>
