<svg width="250" height="250" viewBox="0 0 250 250" fill="none" xmlns="http://www.w3.org/2000/svg">
<path d="M0 125C0 55.9644 55.9644 0 125 0C194.036 0 250 55.9644 250 125C250 194.036 194.036 250 125 250C55.9644 250 0 194.036 0 125Z" fill="white"/>
<path d="M85.6884 67.0461L59.0501 81.284L124.499 118.716L190.866 80.1357L159.864 67.0461L139.12 78.2739V58.5246L122.662 50.5117L106.587 58.3196V78.069L85.6884 67.0461Z" fill="#FF4E02"/>
<path d="M96.1636 183.515L121.799 199.488L121.56 124.092L54.9994 85.8459L59.1341 119.243L79.2183 131.612L62.1059 141.471L63.3793 159.732L78.1696 169.763L95.282 159.904L96.1636 183.515Z" fill="#01355C"/>
<path d="M153.835 183.515L128.2 199.488L128.439 124.092L194.999 85.8459L190.865 119.243L170.78 131.612L187.893 141.471L186.62 159.732L171.829 169.763L154.717 159.904L153.835 183.515Z" fill="#6BAC06"/>
</svg>
