<svg width="250" height="250" viewBox="0 0 250 250" fill="none" xmlns="http://www.w3.org/2000/svg">
<mask id="path-1-inside-1_453_481" fill="white">
<path d="M0 125C0 55.9644 55.9644 0 125 0C194.036 0 250 55.9644 250 125C250 194.036 194.036 250 125 250C55.9644 250 0 194.036 0 125Z"/>
</mask>
<path d="M0 125C0 55.9644 55.9644 0 125 0C194.036 0 250 55.9644 250 125C250 194.036 194.036 250 125 250C55.9644 250 0 194.036 0 125Z" fill="white"/>
<path d="M0 125M250 125M250 125M0 125M125 0M250 125M125 250M0 125M125 250V248C57.069 248 2 192.931 2 125H0H-2C-2 195.14 54.8598 252 125 252V250ZM250 125H248C248 192.931 192.931 248 125 248V250V252C195.14 252 252 195.14 252 125H250ZM125 0V2C192.931 2 248 57.069 248 125H250H252C252 54.8598 195.14 -2 125 -2V0ZM125 0V-2C54.8598 -2 -2 54.8598 -2 125H0H2C2 57.069 57.069 2 125 2V0Z" fill="#DDDBDB" mask="url(#path-1-inside-1_453_481)"/>
<path d="M85.688 67.0461L59.0497 81.284L124.499 118.716L190.866 80.1357L159.864 67.0461L139.12 78.2739V58.5246L122.661 50.5117L106.586 58.3196V78.069L85.688 67.0461Z" fill="#FF4E02"/>
<path d="M96.1632 183.515L121.798 199.488L121.559 124.092L54.999 85.8459L59.1337 119.243L79.218 131.612L62.1055 141.471L63.3789 159.732L78.1692 169.763L95.2816 159.904L96.1632 183.515Z" fill="#01355C"/>
<path d="M153.835 183.515L128.2 199.488L128.439 124.092L194.999 85.8459L190.864 119.243L170.78 131.612L187.893 141.471L186.619 159.732L171.829 169.763L154.716 159.904L153.835 183.515Z" fill="#6BAC06"/>
</svg>
