<svg width="250" height="250" viewBox="0 0 250 250" fill="none" xmlns="http://www.w3.org/2000/svg">
<mask id="path-1-inside-1_453_510" fill="white">
<path d="M0 125C0 55.9644 55.9644 0 125 0C194.036 0 250 55.9644 250 125C250 194.036 194.036 250 125 250C55.9644 250 0 194.036 0 125Z"/>
</mask>
<path d="M0 125C0 55.9644 55.9644 0 125 0C194.036 0 250 55.9644 250 125C250 194.036 194.036 250 125 250C55.9644 250 0 194.036 0 125Z" fill="white"/>
<path d="M0 125M250 125M250 125M0 125M125 0M250 125M125 250M0 125M125 250V248C57.069 248 2 192.931 2 125H0H-2C-2 195.14 54.8598 252 125 252V250ZM250 125H248C248 192.931 192.931 248 125 248V250V252C195.14 252 252 195.14 252 125H250ZM125 0V2C192.931 2 248 57.069 248 125H250H252C252 54.8598 195.14 -2 125 -2V0ZM125 0V-2C54.8598 -2 -2 54.8598 -2 125H0H2C2 57.069 57.069 2 125 2V0Z" fill="#DDDBDB" mask="url(#path-1-inside-1_453_510)"/>
<path d="M117.993 117.605V110.222H89.6572V117.605H117.993Z" fill="#2A65FD"/>
<path d="M68.4122 121.259H59.9114V139.778H68.4122V121.259Z" fill="#2A65FD"/>
<path d="M78.3338 117.605V110.222H49.998V117.605H78.3338Z" fill="#2A65FD"/>
<path d="M98.1551 130.463L89.6543 121.259V139.778H117.99V133.094H98.1551V130.463Z" fill="#2A65FD"/>
<path d="M95.1009 121.259L96.5531 122.831C96.5531 122.831 98.7172 125.175 100.658 127.276H117.989V121.259H95.1009Z" fill="#2A65FD"/>
<path d="M137.832 110.222H129.332V139.729H137.832V110.222Z" fill="#2A65FD"/>
<path d="M150.557 110.222V127.968L142.088 118.786V128.836H142.084V130.562L150.557 139.729H159.005V110.222H150.557Z" fill="#2A65FD"/>
<path d="M178.83 110.222H170.329V139.729H178.83V110.222Z" fill="#2A65FD"/>
<path d="M191.554 110.222V127.968L183.085 118.786V128.836H183.078V130.562L191.554 139.729H199.998V110.222H191.554Z" fill="#2A65FD"/>
</svg>
