<svg width="250" height="250" viewBox="0 0 250 250" fill="none" xmlns="http://www.w3.org/2000/svg">
<path d="M0 125C0 55.9644 55.9644 0 125 0C194.036 0 250 55.9644 250 125C250 194.036 194.036 250 125 250C55.9644 250 0 194.036 0 125Z" fill="white"/>
<path d="M117.993 117.605V110.222H89.6569V117.605H117.993Z" fill="#2A65FD"/>
<path d="M68.4119 121.259H59.9111V139.778H68.4119V121.259Z" fill="#2A65FD"/>
<path d="M78.3336 117.605V110.222H49.9978V117.605H78.3336Z" fill="#2A65FD"/>
<path d="M98.1548 130.463L89.654 121.259V139.778H117.99V133.094H98.1548V130.463Z" fill="#2A65FD"/>
<path d="M95.1007 121.259L96.5529 122.831C96.5529 122.831 98.717 125.175 100.658 127.276H117.989V121.259H95.1007Z" fill="#2A65FD"/>
<path d="M137.832 110.222H129.332V139.729H137.832V110.222Z" fill="#2A65FD"/>
<path d="M150.556 110.222V127.968L142.088 118.786V128.836H142.084V130.562L150.556 139.729H159.004V110.222H150.556Z" fill="#2A65FD"/>
<path d="M178.829 110.222H170.329V139.729H178.829V110.222Z" fill="#2A65FD"/>
<path d="M191.553 110.222V127.968L183.085 118.786V128.836H183.078V130.562L191.553 139.729H199.998V110.222H191.553Z" fill="#2A65FD"/>
</svg>
