<svg width="250" height="250" viewBox="0 0 250 250" fill="none" xmlns="http://www.w3.org/2000/svg">
<path d="M0 125C0 55.9644 55.9644 0 125 0C194.036 0 250 55.9644 250 125C250 194.036 194.036 250 125 250C55.9644 250 0 194.036 0 125Z" fill="#CAF93B"/>
<path d="M136.84 91.2516L157.646 91.2441C160.937 91.243 166.107 91.0945 169.239 91.3829C176.776 92.0129 183.746 95.6396 188.587 101.451C191.967 105.567 194.117 110.554 194.788 115.837C195.48 120.959 194.285 128.751 193.718 134.133L191.139 158.845L173.139 158.846C173.427 154.963 173.984 150.611 174.395 146.711L176.814 123.788C176.956 121.924 177.003 120.541 176.584 118.69C175.448 113.668 171.214 109.955 166.113 109.372C164.354 109.171 162.368 109.254 160.569 109.254L152.921 109.261C152.807 111.319 152.438 114.033 152.214 116.163L148.832 148.463C148.476 151.86 148.157 155.47 147.719 158.844L129.749 158.845C130.992 145.528 132.551 131.994 133.944 118.669L135.789 101.02C136.12 97.8496 136.413 94.3947 136.84 91.2516Z" fill="black"/>
<path d="M102.285 91.1588L120.277 91.1531C119.822 96.4598 119.158 102.037 118.599 107.352C116.994 124.427 114.745 141.696 113.246 158.744L92.3073 158.749C88.7823 158.752 83.2521 158.914 79.9207 158.512C72.4483 157.657 65.6271 153.852 60.9748 147.942C57.8616 143.931 55.8826 139.157 55.2441 134.119C54.6822 129.796 55.1967 126.396 55.6451 122.137L56.5949 113.06C57.3463 105.875 58.0131 98.3 58.9083 91.1608L76.9437 91.1581C75.9783 98.2908 75.2931 106.442 74.5237 113.666L73.5663 122.69C73.3727 124.524 73.1475 126.286 73.0877 128.134C72.8812 134.515 77.7357 140.041 84.0884 140.646C85.8691 140.816 87.6722 140.751 89.46 140.75L97.1065 140.738L102.285 91.1588Z" fill="black"/>
</svg>
