<svg width="250" height="250" viewBox="0 0 250 250" fill="none" xmlns="http://www.w3.org/2000/svg">
<mask id="path-1-inside-1_453_479" fill="white">
<path d="M0 125C0 55.9644 55.9644 0 125 0C194.036 0 250 55.9644 250 125C250 194.036 194.036 250 125 250C55.9644 250 0 194.036 0 125Z"/>
</mask>
<path d="M0 125C0 55.9644 55.9644 0 125 0C194.036 0 250 55.9644 250 125C250 194.036 194.036 250 125 250C55.9644 250 0 194.036 0 125Z" fill="white"/>
<path d="M0 125M250 125M250 125M0 125M125 0M250 125M125 250M0 125M125 250V248C57.069 248 2 192.931 2 125H0H-2C-2 195.14 54.8598 252 125 252V250ZM250 125H248C248 192.931 192.931 248 125 248V250V252C195.14 252 252 195.14 252 125H250ZM125 0V2C192.931 2 248 57.069 248 125H250H252C252 54.8598 195.14 -2 125 -2V0ZM125 0V-2C54.8598 -2 -2 54.8598 -2 125H0H2C2 57.069 57.069 2 125 2V0Z" fill="#DDDBDB" mask="url(#path-1-inside-1_453_479)"/>
<path d="M79.995 117.172L76.0185 104.55L171.115 134.635L174.919 147.257L79.995 117.172Z" fill="#019A40"/>
<path d="M70.3755 93.7667L55 88.3702L75.1335 159.655C76.3266 163.879 81.3757 165.606 84.906 162.998L125.011 133.364L110.27 128.228L85.3578 147.008L70.3755 93.7667Z" fill="#0092CE"/>
<path d="M179.624 156.314L195 161.711L174.843 90.344C173.657 86.1423 168.65 84.4049 165.115 86.9686L123.113 117.437L137.854 122.573L164.642 103.073L179.624 156.314Z" fill="#F78E19"/>
</svg>
