<svg width="250" height="250" viewBox="0 0 250 250" fill="none" xmlns="http://www.w3.org/2000/svg">
<path d="M0 125C0 55.9644 55.9644 0 125 0C194.036 0 250 55.9644 250 125C250 194.036 194.036 250 125 250C55.9644 250 0 194.036 0 125Z" fill="white"/>
<path d="M79.995 117.172L76.0185 104.55L171.115 134.636L174.919 147.258L79.995 117.172Z" fill="#019A40"/>
<path d="M70.3755 93.7672L55 88.3707L75.1335 159.656C76.3266 163.88 81.3757 165.607 84.906 162.998L125.011 133.364L110.27 128.228L85.3578 147.008L70.3755 93.7672Z" fill="#0092CE"/>
<path d="M179.624 156.315L195 161.711L174.843 90.3445C173.657 86.1427 168.65 84.4054 165.115 86.9691L123.113 117.437L137.854 122.573L164.642 103.073L179.624 156.315Z" fill="#F78E19"/>
</svg>
