<svg width="250" height="250" viewBox="0 0 250 250" fill="none" xmlns="http://www.w3.org/2000/svg">
<mask id="path-1-inside-1_453_477" fill="white">
<path d="M0 125C0 55.9644 55.9644 0 125 0C194.036 0 250 55.9644 250 125C250 194.036 194.036 250 125 250C55.9644 250 0 194.036 0 125Z"/>
</mask>
<path d="M0 125C0 55.9644 55.9644 0 125 0C194.036 0 250 55.9644 250 125C250 194.036 194.036 250 125 250C55.9644 250 0 194.036 0 125Z" fill="white"/>
<path d="M0 125M250 125M250 125M0 125M125 0M250 125M125 250M0 125M125 250V248C57.069 248 2 192.931 2 125H0H-2C-2 195.14 54.8598 252 125 252V250ZM250 125H248C248 192.931 192.931 248 125 248V250V252C195.14 252 252 195.14 252 125H250ZM125 0V2C192.931 2 248 57.069 248 125H250H252C252 54.8598 195.14 -2 125 -2V0ZM125 0V-2C54.8598 -2 -2 54.8598 -2 125H0H2C2 57.069 57.069 2 125 2V0Z" fill="#DDDBDB" mask="url(#path-1-inside-1_453_477)"/>
<path d="M57.3238 59.8595C56.3165 58.2753 57.4546 56.2031 59.3319 56.2031H107.621C110.906 56.2031 113.96 57.8976 115.698 60.6858L150.692 116.815C151.68 118.4 150.54 120.453 148.673 120.453H100.641C97.6569 120.453 94.8795 118.928 93.2782 116.409L57.3238 59.8595Z" fill="#2D424D"/>
<path d="M101.279 120.413C101.36 120.439 101.444 120.453 101.53 120.453H148.568C150.105 120.453 151.573 119.816 152.623 118.693L189.162 79.6223C189.873 78.862 189.334 77.6198 188.293 77.6198H137.342C135.16 77.6198 133.074 78.5189 131.576 80.1055L95.3652 118.445L101.279 120.413Z" fill="#FAB900"/>
<mask id="mask0_453_477" style="mask-type:alpha" maskUnits="userSpaceOnUse" x="56" y="56" width="97" height="65">
<path d="M57.3228 59.8595C56.3155 58.2753 57.4536 56.2031 59.3309 56.2031H107.62C110.905 56.2031 113.959 57.8976 115.697 60.6858L152.959 120.453H100.64C97.6559 120.453 94.8785 118.928 93.2773 116.409L57.3228 59.8595Z" fill="#7D1111"/>
</mask>
<g mask="url(#mask0_453_477)">
<path d="M94.7313 119.115C94.2536 119.621 94.6122 120.453 95.308 120.453H148.567C150.104 120.453 151.572 119.816 152.622 118.693L189.16 79.6223C189.871 78.862 189.332 77.6198 188.291 77.6198H137.341C135.159 77.6198 133.073 78.5189 131.574 80.1055L94.7313 119.115Z" fill="#FFCC4F"/>
</g>
<path d="M192.674 190.141C193.682 191.726 192.543 193.798 190.666 193.798L142.377 193.798C139.092 193.798 136.038 192.103 134.3 189.315L99.3061 133.186C98.3179 131.601 99.4576 129.548 101.325 129.548L149.357 129.548C152.341 129.548 155.119 131.073 156.72 133.592L192.674 190.141Z" fill="#2D424D"/>
<path d="M148.719 129.588C148.638 129.562 148.554 129.548 148.469 129.548L101.43 129.548C99.8932 129.548 98.4249 130.185 97.375 131.308L60.8364 170.379C60.1254 171.139 60.6645 172.381 61.7054 172.381L112.656 172.381C114.838 172.381 116.924 171.482 118.422 169.895L154.633 131.556L148.719 129.588Z" fill="#FFCC4F"/>
<mask id="mask1_453_477" style="mask-type:alpha" maskUnits="userSpaceOnUse" x="97" y="129" width="97" height="65">
<path d="M192.675 190.141C193.683 191.726 192.544 193.798 190.667 193.798L142.378 193.798C139.093 193.798 136.039 192.103 134.301 189.315L97.0386 129.548L149.358 129.548C152.342 129.548 155.12 131.073 156.721 133.592L192.675 190.141Z" fill="#7D1111"/>
</mask>
<g mask="url(#mask1_453_477)">
<path d="M155.267 130.886C155.744 130.38 155.386 129.548 154.69 129.548L101.432 129.548C99.8944 129.548 98.4261 130.185 97.3761 131.308L60.8376 170.379C60.1266 171.139 60.6657 172.381 61.7066 172.381L112.657 172.381C114.839 172.381 116.925 171.482 118.424 169.895L155.267 130.886Z" fill="#FAB900"/>
</g>
</svg>
