<svg width="250" height="250" viewBox="0 0 250 250" fill="none" xmlns="http://www.w3.org/2000/svg">
<mask id="path-1-inside-1_453_478" fill="white">
<path d="M0 125C0 55.9644 55.9644 0 125 0C194.036 0 250 55.9644 250 125C250 194.036 194.036 250 125 250C55.9644 250 0 194.036 0 125Z"/>
</mask>
<path d="M0 125C0 55.9644 55.9644 0 125 0C194.036 0 250 55.9644 250 125C250 194.036 194.036 250 125 250C55.9644 250 0 194.036 0 125Z" fill="white"/>
<path d="M0 125M250 125M250 125M0 125M125 0M250 125M125 250M0 125M125 250V248C57.069 248 2 192.931 2 125H0H-2C-2 195.14 54.8598 252 125 252V250ZM250 125H248C248 192.931 192.931 248 125 248V250V252C195.14 252 252 195.14 252 125H250ZM125 0V2C192.931 2 248 57.069 248 125H250H252C252 54.8598 195.14 -2 125 -2V0ZM125 0V-2C54.8598 -2 -2 54.8598 -2 125H0H2C2 57.069 57.069 2 125 2V0Z" fill="#DDDBDB" mask="url(#path-1-inside-1_453_478)"/>
<path d="M195 65.9707C195 103.288 195 140.202 195 178.547C171.763 153.959 149.406 130.3 126.585 106.14C102.821 131.903 79.3633 157.324 55 183.724C55 143.763 55 105.112 55 65.9707C101.463 65.9707 147.913 65.9707 195 65.9707Z" fill="#00723C"/>
<path d="M126.572 118.66C147.166 140.618 167.149 161.926 187.89 184.042C146.738 184.042 106.577 184.042 65.2782 184.042C85.9582 161.975 106.002 140.593 126.572 118.66Z" fill="#F26222"/>
</svg>
