<svg width="250" height="250" viewBox="0 0 250 250" fill="none" xmlns="http://www.w3.org/2000/svg">
<path d="M0 125C0 55.9644 55.9644 0 125 0C194.036 0 250 55.9644 250 125C250 194.036 194.036 250 125 250C55.9644 250 0 194.036 0 125Z" fill="white"/>
<path d="M57.3238 59.8593C56.3165 58.2751 57.4546 56.2029 59.3319 56.2029H107.621C110.906 56.2029 113.96 57.8974 115.698 60.6856L150.692 116.814C151.68 118.399 150.54 120.453 148.673 120.453H100.641C97.6569 120.453 94.8795 118.928 93.2782 116.409L57.3238 59.8593Z" fill="#2D424D"/>
<path d="M101.28 120.413C101.36 120.44 101.445 120.453 101.53 120.453H148.568C150.105 120.453 151.574 119.816 152.624 118.693L189.162 79.6225C189.873 78.8623 189.334 77.62 188.293 77.62H137.343C135.16 77.62 133.075 78.5192 131.576 80.1057L95.3657 118.446L101.28 120.413Z" fill="#FAB900"/>
<mask id="mask0_1_1973" style="mask-type:alpha" maskUnits="userSpaceOnUse" x="56" y="56" width="97" height="65">
<path d="M57.3228 59.8593C56.3155 58.2751 57.4536 56.2029 59.3309 56.2029H107.62C110.905 56.2029 113.959 57.8974 115.697 60.6856L152.959 120.453H100.64C97.6559 120.453 94.8785 118.928 93.2773 116.409L57.3228 59.8593Z" fill="#7D1111"/>
</mask>
<g mask="url(#mask0_1_1973)">
<path d="M94.7318 119.115C94.254 119.621 94.6127 120.453 95.3085 120.453H148.567C150.104 120.453 151.572 119.816 152.622 118.693L189.161 79.6223C189.872 78.862 189.333 77.6198 188.292 77.6198H137.342C135.159 77.6198 133.073 78.5189 131.575 80.1055L94.7318 119.115Z" fill="#FFCC4F"/>
</g>
<path d="M192.674 190.141C193.682 191.725 192.543 193.798 190.666 193.798L142.377 193.798C139.092 193.798 136.038 192.103 134.3 189.315L99.3061 133.186C98.3179 131.601 99.4576 129.548 101.325 129.548L149.357 129.548C152.341 129.548 155.119 131.073 156.72 133.591L192.674 190.141Z" fill="#2D424D"/>
<path d="M148.718 129.588C148.638 129.561 148.553 129.547 148.468 129.547L101.43 129.547C99.8928 129.547 98.4244 130.184 97.3745 131.307L60.8359 170.378C60.1249 171.138 60.664 172.38 61.7049 172.38L112.655 172.38C114.838 172.38 116.924 171.481 118.422 169.895L154.632 131.555L148.718 129.588Z" fill="#FFCC4F"/>
<mask id="mask1_1_1973" style="mask-type:alpha" maskUnits="userSpaceOnUse" x="97" y="129" width="97" height="65">
<path d="M192.675 190.141C193.683 191.725 192.544 193.798 190.667 193.798L142.378 193.798C139.093 193.798 136.039 192.103 134.301 189.315L97.0386 129.548L149.358 129.548C152.342 129.548 155.12 131.073 156.721 133.591L192.675 190.141Z" fill="#7D1111"/>
</mask>
<g mask="url(#mask1_1_1973)">
<path d="M155.266 130.885C155.744 130.379 155.385 129.547 154.69 129.547L101.431 129.547C99.8939 129.547 98.4256 130.185 97.3756 131.307L60.8371 170.378C60.1261 171.138 60.6652 172.381 61.7061 172.381L112.656 172.381C114.839 172.381 116.925 171.482 118.423 169.895L155.266 130.885Z" fill="#FAB900"/>
</g>
</svg>
