<svg width="250" height="250" viewBox="0 0 250 250" fill="none" xmlns="http://www.w3.org/2000/svg">
<mask id="path-1-inside-1_651_545" fill="white">
<path d="M0 125C0 55.9644 55.9644 0 125 0V0C194.036 0 250 55.9644 250 125V125C250 194.036 194.036 250 125 250V250C55.9644 250 0 194.036 0 125V125Z"/>
</mask>
<path d="M0 125C0 55.9644 55.9644 0 125 0V0C194.036 0 250 55.9644 250 125V125C250 194.036 194.036 250 125 250V250C55.9644 250 0 194.036 0 125V125Z" fill="white"/>
<path d="M0 125M250 125M250 125M0 125M125 0M250 125M125 250M0 125M125 250V248C57.069 248 2 192.931 2 125H0H-2C-2 195.14 54.8598 252 125 252V250ZM250 125H248C248 192.931 192.931 248 125 248V250V252C195.14 252 252 195.14 252 125H250ZM125 0V2C192.931 2 248 57.069 248 125H250H252C252 54.8598 195.14 -2 125 -2V0ZM125 0V-2C54.8598 -2 -2 54.8598 -2 125H0H2C2 57.069 57.069 2 125 2V0Z" fill="#DDDBDB" mask="url(#path-1-inside-1_651_545)"/>
<path fill-rule="evenodd" clip-rule="evenodd" d="M65.1082 107.185L65.3609 106.174L65.6136 104.91L76.7328 64.9824L195 65.2351L64.3501 171.625L123.989 99.6034H79.2598L76.7328 99.8561C71.4259 100.109 66.6245 103.394 65.1082 107.185Z" fill="#808285"/>
<path fill-rule="evenodd" clip-rule="evenodd" d="M188.682 138.015C188.682 137.509 184.892 160.506 178.574 184.26L55 185.018L188.43 77.1123L128.538 149.639H173.52L176.047 149.387C181.354 149.134 186.913 141.805 188.682 138.015Z" fill="#ED1C24"/>
</svg>
