<svg width="250" height="250" viewBox="0 0 250 250" fill="none" xmlns="http://www.w3.org/2000/svg">
<path d="M0 125C0 55.9644 55.9644 0 125 0C194.036 0 250 55.9644 250 125C250 194.036 194.036 250 125 250C55.9644 250 0 194.036 0 125Z" fill="white"/>
<path fill-rule="evenodd" clip-rule="evenodd" d="M65.1083 107.184L65.361 106.173L65.6137 104.91L76.7329 64.9819L195 65.2346L64.3502 171.625L123.989 99.6029H79.2599L76.7329 99.8556C71.426 100.108 66.6245 103.393 65.1083 107.184Z" fill="#808285"/>
<path fill-rule="evenodd" clip-rule="evenodd" d="M188.682 138.014C188.682 137.509 184.892 160.505 178.574 184.26L55 185.018L188.43 77.1119L128.538 149.639H173.52L176.047 149.386C181.354 149.134 186.913 141.805 188.682 138.014Z" fill="#ED1C24"/>
</svg>
