<svg width="250" height="250" viewBox="0 0 250 250" fill="none" xmlns="http://www.w3.org/2000/svg">
<mask id="path-1-inside-1_453_476" fill="white">
<path d="M0 125C0 55.9644 55.9644 0 125 0C194.036 0 250 55.9644 250 125C250 194.036 194.036 250 125 250C55.9644 250 0 194.036 0 125Z"/>
</mask>
<path d="M0 125C0 55.9644 55.9644 0 125 0C194.036 0 250 55.9644 250 125C250 194.036 194.036 250 125 250C55.9644 250 0 194.036 0 125Z" fill="white"/>
<path d="M0 125M250 125M250 125M0 125M125 0M250 125M125 250M0 125M125 250V248C57.069 248 2 192.931 2 125H0H-2C-2 195.14 54.8598 252 125 252V250ZM250 125H248C248 192.931 192.931 248 125 248V250V252C195.14 252 252 195.14 252 125H250ZM125 0V2C192.931 2 248 57.069 248 125H250H252C252 54.8598 195.14 -2 125 -2V0ZM125 0V-2C54.8598 -2 -2 54.8598 -2 125H0H2C2 57.069 57.069 2 125 2V0Z" fill="#DDDBDB" mask="url(#path-1-inside-1_453_476)"/>
<path d="M145.139 58.5833C144.997 57.3269 144.457 56.712 143.498 55.9263C140.289 54.4911 140.289 54.4911 134.216 57.6014C133.675 57.8785 133.133 58.1531 132.59 58.4254C131.107 59.1654 129.626 59.9102 128.148 60.6616C126.99 61.2502 125.832 61.8364 124.671 62.4189C123.007 63.2528 123.007 63.2528 119.457 65.0376L110.663 69.4856L82.7871 83.5437V167.512L140.892 143.587C143.635 142.458 145.43 139.802 145.439 136.836C145.462 128.89 145.478 111.581 145.316 87.2934C145.297 84.4532 145.278 81.6131 145.264 78.7729C145.251 76.2781 145.237 73.7834 145.219 71.2886C145.21 69.9712 145.199 68.6538 145.194 67.3364C145.189 66.0758 145.182 64.8152 145.173 63.5545L145.161 62.1615L145.159 60.839L145.155 60.5131C145.152 60.2166 145.149 59.9248 145.146 59.6329L145.139 58.5833Z" fill="black"/>
<path d="M145.419 104.818C145.637 104.889 145.855 104.96 146.079 105.034C148.354 105.778 150.626 106.532 152.896 107.29C153.742 107.572 154.589 107.851 155.437 108.128C156.66 108.528 157.879 108.935 159.098 109.345C159.475 109.466 159.851 109.587 160.239 109.712C163.033 110.663 165.144 111.699 166.549 114.383C167.162 115.911 167.215 117.398 167.201 119.029C167.202 119.34 167.204 119.651 167.206 119.972C167.21 121.009 167.207 122.047 167.203 123.084C167.205 123.83 167.207 124.576 167.209 125.322C167.215 127.344 167.213 129.366 167.209 131.388C167.206 133.505 167.209 135.622 167.21 137.738C167.213 141.292 167.21 144.845 167.205 148.399C167.198 152.508 167.2 156.617 167.207 160.726C167.212 164.255 167.213 167.783 167.209 171.312C167.208 173.419 167.208 175.526 167.211 177.633C167.215 179.614 167.212 181.594 167.206 183.574C167.204 184.301 167.205 185.028 167.207 185.755C167.21 186.747 167.206 187.739 167.201 188.731C167.203 189.019 167.206 189.307 167.208 189.604C167.185 191.695 166.675 192.879 165.3 194.414C163.283 195.424 161.033 194.953 158.967 194.306C158.217 194.047 157.469 193.783 156.722 193.514C156.314 193.371 155.905 193.229 155.484 193.081C154.144 192.613 152.806 192.136 151.469 191.66C150.527 191.329 149.585 190.998 148.643 190.668C146.248 189.827 143.855 188.979 141.462 188.129C140.196 187.679 138.928 187.229 137.661 186.781C134.671 185.722 131.681 184.663 128.693 183.599C122.735 181.48 116.762 179.406 110.785 177.343C102.617 174.522 94.4691 171.644 86.329 168.743C85.8763 168.581 85.8763 168.581 85.4145 168.417C85.1529 168.323 84.8913 168.23 84.6217 168.134C84.0123 167.92 83.3999 167.714 82.7871 167.509C82.7871 139.8 82.7871 112.09 82.7871 83.541C133.24 100.8 137.661 102.285 145.419 104.818Z" fill="#EA157F" fill-opacity="0.9"/>
</svg>
