<svg width="250" height="250" viewBox="0 0 250 250" fill="none" xmlns="http://www.w3.org/2000/svg">
<path d="M0 125C0 55.9644 55.9644 0 125 0C194.036 0 250 55.9644 250 125C250 194.036 194.036 250 125 250C55.9644 250 0 194.036 0 125Z" fill="white"/>
<path d="M145.139 58.5833C144.997 57.3269 144.457 56.712 143.498 55.9263C140.289 54.4911 140.289 54.4911 134.216 57.6014C133.675 57.8785 133.133 58.1531 132.59 58.4254C131.106 59.1654 129.625 59.9102 128.147 60.6616C126.99 61.2502 125.832 61.8364 124.671 62.4189C123.007 63.2528 123.007 63.2528 119.457 65.0376L110.663 69.4856L82.787 83.5437V167.512L140.892 143.587C143.635 142.458 145.43 139.802 145.439 136.836C145.462 128.89 145.478 111.581 145.316 87.2934C145.297 84.4532 145.278 81.6131 145.264 78.7729C145.251 76.2781 145.237 73.7834 145.219 71.2886C145.21 69.9712 145.199 68.6538 145.193 67.3364C145.189 66.0758 145.182 64.8152 145.172 63.5545L145.161 62.1615L145.158 60.839L145.155 60.5131C145.152 60.2166 145.149 59.9248 145.146 59.6329L145.139 58.5833Z" fill="black"/>
<path d="M145.419 104.818C145.637 104.889 145.854 104.96 146.079 105.034C148.354 105.778 150.625 106.532 152.896 107.291C153.742 107.572 154.589 107.851 155.437 108.128C156.659 108.528 157.879 108.936 159.098 109.345C159.474 109.466 159.851 109.587 160.239 109.712C163.033 110.664 165.143 111.7 166.549 114.383C167.162 115.911 167.215 117.398 167.2 119.029C167.202 119.34 167.204 119.651 167.206 119.972C167.21 121.009 167.207 122.047 167.203 123.084C167.205 123.83 167.207 124.576 167.209 125.322C167.214 127.344 167.212 129.366 167.209 131.388C167.206 133.505 167.209 135.622 167.21 137.738C167.212 141.292 167.21 144.846 167.204 148.399C167.198 152.509 167.2 156.617 167.207 160.727C167.212 164.255 167.212 167.784 167.209 171.312C167.208 173.419 167.207 175.526 167.211 177.634C167.214 179.614 167.212 181.594 167.205 183.575C167.204 184.302 167.204 185.029 167.207 185.756C167.21 186.748 167.206 187.739 167.2 188.731C167.203 189.019 167.205 189.308 167.208 189.604C167.185 191.695 166.675 192.88 165.3 194.415C163.283 195.424 161.032 194.954 158.967 194.306C158.217 194.047 157.469 193.783 156.722 193.514C156.313 193.371 155.905 193.229 155.484 193.082C154.144 192.613 152.806 192.136 151.469 191.66C150.527 191.329 149.585 190.998 148.643 190.668C146.247 189.827 143.854 188.979 141.462 188.129C140.195 187.679 138.928 187.23 137.661 186.781C134.671 185.723 131.681 184.663 128.693 183.6C122.735 181.48 116.762 179.407 110.784 177.343C102.616 174.522 94.4688 171.644 86.3287 168.743C85.8761 168.582 85.8761 168.582 85.4142 168.417C85.1526 168.324 84.891 168.231 84.6215 168.135C84.0121 167.92 83.3997 167.714 82.7869 167.509C82.7869 139.8 82.7869 112.09 82.7869 83.5413C133.24 100.8 137.661 102.285 145.419 104.818Z" fill="#EA157F" fill-opacity="0.9"/>
</svg>
