<svg width="250" height="250" viewBox="0 0 250 250" fill="none" xmlns="http://www.w3.org/2000/svg">
<rect width="250" height="250" fill="white"/>
<path d="M192.003 149.575C192.895 151.361 193.042 153.429 192.41 155.323C191.779 157.218 190.421 158.784 188.636 159.678L128.363 194.205C127.318 194.728 126.165 195 124.996 195C123.827 195 122.674 194.728 121.628 194.205L61.3555 159.678C59.6323 158.749 58.3385 157.185 57.7481 155.318C57.1578 153.452 57.3173 151.428 58.1929 149.677C59.0684 147.926 60.5913 146.584 62.4389 145.937C64.2864 145.289 66.3136 145.386 68.091 146.207L124.996 179.032L181.908 146.199C183.694 145.307 185.762 145.161 187.656 145.792C189.551 146.424 191.117 147.781 192.011 149.567M125.056 54.9999C125.337 54.9999 125.616 55.0175 125.892 55.0526L126.728 55.2033L127.376 55.3841L127.467 55.4293L127.557 55.4444L127.776 55.5499L128.152 55.693L128.273 55.7608L128.363 55.7985L188.636 90.326C189.885 90.9523 190.936 91.9141 191.671 93.1036C192.405 94.2931 192.794 95.6635 192.794 97.0614C192.794 98.4593 192.405 99.8297 191.671 101.019C190.936 102.209 189.885 103.17 188.636 103.797L128.363 138.324C127.318 138.847 126.165 139.119 124.996 139.119C123.827 139.119 122.674 138.847 121.628 138.324L61.3555 103.797C60.1058 103.17 59.055 102.209 58.3206 101.019C57.5862 99.8297 57.1973 98.4593 57.1973 97.0614C57.1973 95.6635 57.5862 94.2931 58.3206 93.1036C59.055 91.9141 60.1058 90.9523 61.3555 90.326L121.628 55.7985L121.711 55.7608L121.846 55.6855L122.434 55.4444L122.517 55.4293L122.615 55.3841L123.263 55.2033L124.091 55.0526L124.513 55.0149L125.056 54.9999Z" fill="#509DFD"/>
<path d="M192.011 121.627C192.904 123.414 193.05 125.482 192.419 127.376C191.787 129.27 190.429 130.837 188.644 131.731L128.371 166.258C127.326 166.781 126.173 167.053 125.004 167.053C123.835 167.053 122.682 166.781 121.636 166.258L61.3637 131.731C59.6405 130.801 58.3466 129.238 57.7563 127.371C57.1659 125.504 57.3254 123.481 58.201 121.73C59.0766 119.979 60.5995 118.637 62.447 117.989C64.2946 117.342 66.3218 117.439 68.0991 118.26L124.996 151.092L181.908 118.26C183.695 117.367 185.762 117.221 187.657 117.853C189.551 118.484 191.118 119.842 192.011 121.627Z" fill="#0079CD"/>
</svg>
