<svg width="250" height="250" viewBox="0 0 250 250" fill="none" xmlns="http://www.w3.org/2000/svg">
<rect width="250" height="250" fill="white"/>
<path d="M173.187 133.307L165.641 148.091L164.52 133.311H157.399L160.282 157.871H166.571L174.324 142.904L176.194 157.865H182.529L195 133.305H188.018L181.082 148.135L179.249 133.307H173.187Z" fill="#F78B00"/>
<path d="M127.627 126.029L121.494 145.629L112.711 126.029H106.408L96.5037 157.861H103.415L109.533 137.625L118.827 157.862H124.785L134.541 126.029H127.627Z" fill="#F78B00"/>
<path d="M142.035 158.232C134.486 158.232 129.574 152.638 130.427 145.636L130.439 145.545C130.959 142.004 132.741 138.77 135.457 136.438C138.173 134.107 141.639 132.835 145.218 132.857C152.767 132.857 157.679 138.449 156.825 145.453L156.814 145.544C156.294 149.085 154.511 152.318 151.796 154.65C149.08 156.981 145.614 158.253 142.035 158.231M149.997 145.544C150.435 141.955 148.225 138.815 144.405 138.815C142.604 138.835 140.874 139.527 139.555 140.755C138.237 141.983 137.424 143.658 137.275 145.454L137.264 145.545C136.826 149.134 139.036 152.274 142.855 152.274C144.657 152.253 146.387 151.562 147.705 150.334C149.024 149.106 149.837 147.43 149.986 145.635L149.997 145.544Z" fill="#F78B00"/>
<path d="M101.895 123.6L92.6 103.364L86.4791 123.6H79.5675L89.4027 91.7682H95.7771L104.559 111.368L110.69 91.7682H117.602L107.852 123.601L101.895 123.6Z" fill="#24272A"/>
<path d="M125.098 123.971C117.55 123.971 112.638 118.377 113.491 111.375L113.502 111.284C114.023 107.743 115.805 104.509 118.521 102.177C121.236 99.8457 124.703 98.5738 128.282 98.5957C135.831 98.5957 140.743 104.188 139.889 111.192L139.878 111.283C139.357 114.824 137.575 118.057 134.859 120.389C132.144 122.72 128.677 123.992 125.098 123.97M133.061 111.283C133.499 107.694 131.289 104.554 127.469 104.554C125.667 104.574 123.938 105.266 122.619 106.494C121.3 107.722 120.487 109.397 120.339 111.193L120.328 111.284C119.89 114.872 122.1 118.013 125.919 118.013C127.721 117.992 129.45 117.301 130.769 116.073C132.088 114.845 132.901 113.169 133.049 111.374L133.061 111.283Z" fill="#24272A"/>
<path d="M168.309 123.606H162.079L157.396 108.644L152.621 123.605H146.437L138.934 99.0454H145.937L149.849 113.825L154.447 99.042H160.404L165.042 113.87L169.044 99.0454H175.9L168.309 123.606Z" fill="#24272A"/>
<path d="M71.3502 99.0599C70.5405 99.0599 69.7639 99.3816 69.1913 99.9542C68.6187 100.527 68.297 101.303 68.297 102.113C68.297 102.923 68.6187 103.699 69.1913 104.272C69.7639 104.845 70.5405 105.166 71.3502 105.166H82.0725L83.9632 99.0599H71.3502Z" fill="#F78B00"/>
<path d="M58.0532 108.27C57.2434 108.27 56.4668 108.592 55.8943 109.165C55.3217 109.737 55 110.514 55 111.324C55 112.133 55.3217 112.91 55.8943 113.483C56.4668 114.055 57.2434 114.377 58.0532 114.377H79.2218L81.1092 108.27H58.0532Z" fill="#F78B00"/>
<path d="M61.4949 117.48C60.6851 117.48 59.9085 117.802 59.3359 118.374C58.7634 118.947 58.4417 119.723 58.4417 120.533C58.4417 121.343 58.7634 122.119 59.3359 122.692C59.9085 123.264 60.6851 123.586 61.4949 123.586H76.3788L78.2663 117.48H61.4949Z" fill="#F78B00"/>
</svg>
