<svg width="250" height="250" viewBox="0 0 250 250" fill="none" xmlns="http://www.w3.org/2000/svg">
<rect width="250" height="250" fill="white"/>
<path d="M122.731 74.9949C122.731 86.038 113.779 94.9902 102.736 94.9902C91.6924 94.9902 82.7402 86.038 82.7402 74.9949C82.7402 63.9518 91.6924 54.9996 102.736 54.9996C113.779 54.9996 122.731 63.9518 122.731 74.9949Z" fill="#002857"/>
<path d="M122.731 125.761C122.731 136.804 113.779 145.756 102.736 145.756C91.6924 145.756 82.7402 136.804 82.7402 125.761C82.7402 114.718 91.6924 105.766 102.736 105.766C113.779 105.766 122.731 114.718 122.731 125.761Z" fill="#002857"/>
<path d="M122.731 175.004C122.731 186.047 113.779 195 102.736 195C91.6924 195 82.7402 186.047 82.7402 175.004C82.7402 163.961 91.6924 155.009 102.736 155.009C113.779 155.009 122.731 163.961 122.731 175.004Z" fill="#002857"/>
<path d="M167.258 74.9949C167.258 86.038 158.306 94.9902 147.263 94.9902C136.22 94.9902 127.268 86.038 127.268 74.9949C127.268 63.9518 136.22 54.9996 147.263 54.9996C158.306 54.9996 167.258 63.9518 167.258 74.9949Z" fill="#002857"/>
<path d="M167.258 125.761C167.258 136.804 158.306 145.756 147.263 145.756C136.22 145.756 127.268 136.804 127.268 125.761C127.268 114.718 136.22 105.766 147.263 105.766C158.306 105.766 167.258 114.718 167.258 125.761Z" fill="#E4AC24"/>
</svg>
