<svg width="250" height="250" viewBox="0 0 250 250" fill="none" xmlns="http://www.w3.org/2000/svg">
<g clip-path="url(#clip0_83_2052)">
<rect width="250" height="250" fill="#1B5ECE"/>
<path fill-rule="evenodd" clip-rule="evenodd" d="M63.6472 179.124C68.6512 177.975 138.435 205.32 172.204 191.869C191.294 184.34 182.694 92.7281 188.784 91.4967C198.432 89.5477 201.098 114.383 201.561 138.516C201.914 156.685 201.675 174.908 198.581 178.516C198.745 180.638 236.467 167.81 238.161 162.963C239.541 159.006 238.247 140.669 235.09 121.599C231.149 97.8143 223.286 74.9751 226.463 73.1477C231.632 70.1791 241.134 95.8693 242.941 98.2614C244.749 100.65 253.306 111.407 255.451 118.889C257.596 126.379 264.432 148.744 266.635 151.042C266.635 151.042 268.243 146.175 268.926 144.614C272.29 136.94 284.526 115.022 284.526 115.022C284.526 115.022 277.843 97.1634 268.326 80.4889C258.808 63.8065 249.926 48.383 252.326 47.1673C257.02 44.7987 274.679 71.9987 276.741 81.2496C278.812 90.5634 278.753 99.3281 278.753 99.5516C279.059 99.1987 298.439 76.6104 293.29 54.2575C288.094 31.7202 279.133 30.9124 277.263 27.1712C275.388 23.43 267.71 13.2026 263.208 13.4536C258.706 13.7045 242.032 18.3124 242.032 18.3124L63.6472 179.124ZM63.6159 178.999L241.804 18.2143C241.804 18.2143 248.373 1.87316 249.177 -2.66409C249.988 -7.20527 241.059 -16.2876 237.675 -18.6641C234.29 -21.0406 234.635 -30.2327 213.479 -38.3543C192.326 -46.4719 167.792 -29.3111 167.792 -29.3111C167.792 -29.3111 176.392 -28.2798 185.259 -24.9582C193.953 -21.7033 218.059 -0.338592 215.173 4.12415C213.694 6.41043 199.883 -4.55428 184.934 -16.3229C169.988 -28.0876 153.541 -37.1307 153.541 -37.1307C153.541 -37.1307 130.781 -27.4798 122.93 -25.0249C121.334 -24.5308 116.416 -23.5151 116.416 -23.5151C118.365 -20.9857 139.153 -11.2249 146.13 -8.1033C153.102 -4.97781 162.439 5.06533 164.522 7.20258C166.608 9.33592 190.283 22.23 186.757 27.0967C184.584 30.0967 163.471 19.23 140.937 12.2261C122.879 6.61826 105.286 2.98689 101.283 3.88885C96.3766 4.99474 79.2002 41.6692 81.2355 42.1085C85.1139 39.4183 102.784 41.481 120.334 44.1281C143.639 47.6496 167.341 53.4849 164.239 63.034C162.279 69.0614 74.6747 48.7673 64.9766 67.1908C47.6943 99.7751 65.361 174.069 63.6159 179.003V178.999Z" fill="#164DA8"/>
<path fill-rule="evenodd" clip-rule="evenodd" d="M69.809 106C69.809 117.007 76.9253 124.949 86.9163 124.949C88.9018 124.949 90.8171 124.608 92.5636 123.986C89.2778 122.405 86.983 119.003 86.983 115.081C86.983 109.648 91.3653 105.21 96.7702 105.21C99.6448 105.21 102.245 106.45 104.024 108.443C104.129 107.652 104.164 106.826 104.164 106C104.164 95.0993 96.7702 87.1887 86.9163 87.1887C76.9253 87.1887 69.809 95.0993 69.809 106V106ZM55.0281 106C55.0281 87.8107 68.5755 73.434 86.9163 73.434C105.394 73.434 118.941 87.8072 118.941 106C118.941 124.331 105.394 138.672 86.9163 138.672C68.3014 138.672 55.0281 124.334 55.0281 106V106ZM180.216 106C180.216 95.0993 172.825 87.1887 162.971 87.1887C152.98 87.1887 145.829 95.0993 145.829 106C145.829 117.007 152.98 124.949 162.971 124.949C164.957 124.949 166.872 124.608 168.619 123.986C165.298 122.37 163.042 119.003 163.042 115.081C163.042 109.648 167.42 105.21 172.825 105.21C175.7 105.21 178.3 106.45 180.079 108.443C180.184 107.652 180.219 106.826 180.219 106H180.216ZM195 106C195 124.331 181.449 138.672 162.971 138.672C144.36 138.672 131.083 124.334 131.083 106C131.083 87.8107 144.599 73.434 162.971 73.434C181.449 73.434 195 87.8072 195 106V106ZM110.781 73.2407C111.892 77.6019 116.309 80.2341 120.642 79.12C124.982 78.0025 127.601 73.5676 126.487 69.2029L110.781 73.2442V73.2407ZM104.168 148.164H118.948C118.948 166.456 105.401 180.797 86.9233 180.797C68.3084 180.797 55 166.459 55 148.161H69.7809C69.7809 159.132 76.9323 167.043 86.9233 167.043C96.7772 167.043 104.168 159.132 104.168 148.161V148.164ZM195 155.035V166.523C195 169.872 192.927 172.096 189.332 172.096C186.33 172.096 184.714 170.423 184.141 168.294L186.808 167.742C187.047 168.912 187.834 169.633 189.332 169.633C191.071 169.633 192.143 168.554 192.143 166.547V165.278L192.118 165.205C191.307 166.185 190.33 166.856 188.52 166.856C185.926 166.856 184.19 165.324 184.19 161.831V155.035H187.047V161.353C187.047 163.507 187.996 164.175 189.426 164.175C190.973 164.175 192.143 163.149 192.143 161.135V155.035H195V155.035ZM176.209 157.069C174.28 157.069 173.208 158.384 172.948 159.747H179.281C179.211 158.672 178.255 157.069 176.209 157.069ZM172.924 161.954C173.043 163.458 174.329 164.941 176.209 164.941C177.872 164.941 178.828 163.936 179.112 163.124L181.516 163.866C180.827 165.778 179.112 167.31 176.209 167.31C172.804 167.31 170.186 164.678 170.186 160.995C170.186 157.382 172.804 154.704 176.185 154.704C179.639 154.704 181.801 157.213 181.801 160.854V161.951H172.924V161.954ZM157.208 155.035H159.562L159.97 156.468C160.708 155.488 161.829 154.701 163.59 154.701C166.278 154.701 167.853 156.257 167.853 159.747V166.976H164.995V160.134C164.995 158.025 164.015 157.357 162.683 157.357C161.232 157.357 160.065 158.384 160.065 160.422V166.976H157.208V155.035ZM152.014 160.995C152.014 158.886 150.587 157.357 148.679 157.357C146.753 157.357 145.372 158.886 145.372 160.995C145.372 163.124 146.753 164.653 148.679 164.653C150.587 164.653 152.014 163.124 152.014 160.998V160.995ZM142.515 160.995C142.515 157.48 145.137 154.704 148.679 154.704C152.253 154.704 154.871 157.48 154.871 160.995C154.871 164.533 152.253 167.313 148.679 167.313C145.087 167.313 142.515 164.537 142.515 160.995ZM122.916 155.035H125.271L125.654 156.447C126.367 155.488 127.625 154.701 129.319 154.701C131.108 154.701 132.06 155.562 132.535 156.493C133.273 155.537 134.51 154.701 136.34 154.701C138.554 154.701 140.171 156.015 140.171 159.079V166.976H137.317V159.87C137.317 158.053 136.534 157.357 135.293 157.357C133.982 157.357 132.984 158.313 132.984 160.204V166.976H130.127V159.87C130.127 158.053 129.273 157.357 128.082 157.357C126.796 157.357 125.773 158.289 125.773 160.204V166.976H122.916V155.035V155.035Z" fill="white"/>
</g>
<defs>
<clipPath id="clip0_83_2052">
<rect width="250" height="250" fill="white"/>
</clipPath>
</defs>
</svg>
