<svg width="250" height="250" viewBox="0 0 250 250" fill="none" xmlns="http://www.w3.org/2000/svg">
<rect width="250" height="250" fill="white"/>
<path d="M142.383 113.285C142.636 113.254 142.881 113.244 143.136 113.236C147.805 113.091 152.678 113.779 156.278 117.014C158.09 118.509 159.32 120.506 159.856 122.795C159.952 123.205 160.021 123.625 160.021 125.393C158.494 125.393 151.284 125.513 149.981 125.53C149.753 124.341 149.662 123.092 148.482 121.942C144.639 118.193 136.262 121.759 139.842 126.965C140.969 128.604 147.376 129.495 149.5 130.106C153.437 131.238 157.948 132.951 159.651 137.16C160.269 138.683 160.341 139.783 160.351 141.395C160.39 143.972 159.387 146.456 157.569 148.282C154.164 151.724 149.663 152.837 144.949 152.866C139.887 152.913 135.289 152.189 131.512 148.486C128.886 145.913 127.946 143.591 127.895 139.952C133.824 140.015 134.332 140.015 137.472 140.015C137.757 142.152 137.864 142.992 139.176 144.056C140.755 145.338 143.031 145.876 145.045 145.756C147.337 145.745 150.491 143.968 150.228 141.388C149.64 137.139 142.578 136.804 139.417 135.83C134.12 134.198 129.101 131.835 128.881 125.501C128.788 122.804 129.673 120.098 131.471 118.043C134.25 114.865 138.264 113.513 142.383 113.285Z" fill="#71B003"/>
<path d="M87.1882 128.815C87.3519 127.785 87.5816 126.808 87.9646 125.837C93.28 112.364 112.062 110.241 120.487 121.945C123.524 126.156 124.738 131.414 123.856 136.531C123.265 140.122 121.288 143.634 118.78 146.228C113.572 151.612 105.826 153.025 98.8425 150.677C98.1383 150.465 97.0408 150.533 95.9323 150.147C92.7232 149.069 90.0074 146.664 88.5281 143.59C86.3136 138.989 85.5956 133.703 87.1882 128.815Z" fill="#72B202"/>
<path d="M87.1882 128.814C89.0894 125.222 91.0618 123.196 95.0289 121.939C100.619 120.168 105.892 121.581 108.871 126.901C110.446 129.716 110.725 131.977 111.636 134.969C109.729 135.609 108.084 135.984 106.175 136.509L95.2163 139.468C96.3977 142.654 98.7018 145.022 102.353 144.322C104.753 143.861 106.765 143.026 108.709 141.567C109.235 141.172 109.979 140.586 110.54 140.284C111.591 141.556 112.675 143.323 113.701 144.48C113.195 144.876 112.804 145.349 112.349 145.753C108.955 148.759 104.185 150.651 99.6344 150.642C99.3814 150.641 99.0983 150.654 98.8425 150.677C98.1383 150.465 97.0408 150.533 95.9323 150.147C92.7232 149.069 90.0074 146.663 88.5281 143.59C86.3136 138.989 85.5956 133.703 87.1882 128.814Z" fill="#FEFEFE"/>
<path d="M98.6292 127.375C101.478 127.391 102.253 129.656 103.032 132.004C101.316 132.603 99.2793 132.98 97.4726 133.548C96.413 133.874 95.0761 134.159 93.9819 134.423C93.9292 133.946 93.8935 133.467 93.8748 132.987C93.7473 129.71 95.2083 127.506 98.6292 127.375Z" fill="#72B202"/>
<path d="M59.8887 99.6394H50L50.1064 151.77H59.8677V136.774H62.8799L72.2194 151.77H83.6344L70.6323 131.931L81.9252 115.579H70.6323L62.4526 129.184H59.8887V99.6394Z" fill="#71B003"/>
<path d="M176.995 97.1326H166.621L166.635 152.072H176.995V123.912C178.778 122.253 182.349 120.66 185.707 121.551C188.277 122.232 189.86 126.302 189.617 129.601V152.072H200.001V130.656C200.001 119.947 196.391 116.001 193.37 114.491C184.974 110.675 178.955 115.549 176.995 118.464V97.1326Z" fill="#71B003"/>
</svg>
