<svg width="250" height="250" viewBox="0 0 250 250" fill="none" xmlns="http://www.w3.org/2000/svg">
<rect width="250" height="250" fill="white"/>
<path d="M46 150.545C64.019 148.857 78.8948 139.617 90.35 125.834C102.434 111.294 109.54 92.9064 113.06 74.4695C113.75 70.8073 114.309 67.1219 114.738 63.4201C114.898 62.0246 115.034 60.6263 115.144 59.2259C115.463 55.2289 114.878 52.5281 120.142 52.9793C120.413 53.0026 120.898 52.9814 121.192 52.9823L127.052 52.9908L146.465 52.9896L171.531 52.9897L179.723 52.9922C180.867 52.9934 182.034 52.9468 183.178 52.9698C183.903 52.9844 184.54 53.2534 185.1 53.7075C185.718 54.2076 185.974 55.0899 185.992 55.8736C186.029 57.4078 185.931 59.0327 185.839 60.5721C185.679 63.5341 185.417 66.4899 185.054 69.434C181.099 102.403 163.838 138.894 129.488 149.127C127.07 149.847 124.682 150.239 122.22 150.72C125.661 150.825 129.595 151.311 133.022 151.873C148.608 154.431 165.033 160.418 176.126 172.071C180.269 176.424 183.558 181.867 185.097 187.681C185.267 188.323 185.698 190.172 185.719 190.812C185.818 191.56 185.925 192.43 185.707 193.169C185.368 194.185 184.283 195.044 183.198 195.049C181.622 195.056 180.045 195.043 178.469 195.04L169.012 195.039H139.58L123.979 195.04L119.698 195.047C119.09 195.049 118.169 195.111 117.591 195.021C115.129 194.615 115.204 192.079 114.705 190.227C108.423 166.96 82.5679 155.751 60.8236 152.225C57.9172 151.746 54.9934 151.379 52.0586 151.127C50.4576 150.989 48.4456 150.945 46.9155 150.74C46.6142 150.708 46.3564 150.689 46.0537 150.676L46 150.545Z" fill="#87C21A"/>
</svg>
