<svg width="250" height="250" viewBox="0 0 250 250" fill="none" xmlns="http://www.w3.org/2000/svg">
<rect width="250" height="250" fill="black"/>
<path d="M189.777 82.1782H158.985C158.065 82.1777 157.161 82.4202 156.365 82.881C155.57 83.3419 154.909 84.0048 154.452 84.8027L145.321 100.616H159.521L162.207 95.9573C162.262 95.8438 162.325 95.7346 162.395 95.6304L162.4 95.6237C162.639 95.2705 162.961 94.9812 163.338 94.7814C163.715 94.5815 164.136 94.4772 164.562 94.4775H172.92V94.5064C173.384 94.5068 173.838 94.6302 174.238 94.8641C174.638 95.098 174.969 95.4339 175.196 95.8376C175.423 96.2412 175.539 96.6979 175.532 97.1611C175.524 97.6242 175.394 98.0771 175.154 98.4733L175.191 98.4941L163.157 119.335C167.319 120.154 171.067 122.393 173.76 125.67C176.453 128.947 177.925 133.058 177.923 137.299V137.309C177.923 142.167 175.993 146.827 172.558 150.262C169.122 153.698 164.463 155.628 159.604 155.628C154.746 155.628 150.087 153.698 146.651 150.262C143.216 146.827 141.286 142.167 141.286 137.309V137.299H128.951C128.951 139.355 129.158 141.405 129.567 143.419C130.474 147.856 132.362 152.034 135.093 155.647C136.388 157.362 137.858 158.937 139.479 160.347C143.898 164.185 149.327 166.671 155.12 167.508C160.912 168.346 166.823 167.499 172.148 165.069C177.472 162.64 181.985 158.73 185.149 153.806C188.313 148.882 189.993 143.152 189.99 137.299V137.284C189.992 133.036 189.106 128.835 187.39 124.949C185.674 121.064 183.164 117.58 180.023 114.72L194.106 90.3271C194.109 90.324 194.111 90.319 194.114 90.3159C194.248 90.1167 194.368 89.9084 194.473 89.6924C194.86 88.8956 195.039 88.0134 194.992 87.1286C194.945 86.2439 194.673 85.3856 194.204 84.6344C193.734 83.8833 193.081 83.2639 192.306 82.8344C191.531 82.4049 190.659 82.1795 189.773 82.1792L189.777 82.1782Z" fill="#FCED00"/>
<path d="M152.129 131.193C150.73 132.914 149.967 135.065 149.97 137.283V137.299C149.97 139.862 150.989 142.32 152.801 144.133C154.614 145.945 157.072 146.964 159.635 146.964C162.199 146.964 164.657 145.945 166.469 144.133C168.282 142.32 169.3 139.862 169.3 137.299V137.283C169.3 136.014 169.05 134.757 168.565 133.584C168.079 132.411 167.367 131.346 166.469 130.448C165.572 129.55 164.506 128.838 163.333 128.353C162.16 127.867 160.903 127.617 159.634 127.617C159.197 127.618 158.761 127.647 158.329 127.706C155.893 128.036 153.676 129.283 152.129 131.193Z" fill="#FCED00"/>
<path d="M135.061 118.967C132.341 122.582 130.463 126.759 129.565 131.193H141.868L155.848 106.977L155.984 106.741H116.305C116.254 106.741 116.2 106.741 116.147 106.741C116.094 106.741 116.042 106.741 115.99 106.741C114.978 106.767 113.988 107.044 113.11 107.548C112.232 108.052 111.493 108.766 110.96 109.627L110.763 109.968L105.566 118.967H79.7162C78.6171 118.967 77.5385 119.264 76.5942 119.826C75.6498 120.388 74.8748 121.195 74.351 122.161L74.3399 122.155L55.002 155.646H69.6961L83.0266 132.555L83.0377 132.562C83.2615 132.148 83.593 131.802 83.9972 131.561C84.4014 131.32 84.8632 131.193 85.3338 131.193H98.5055L84.3878 155.645H98.8538L119.298 120.236H119.301C119.534 119.852 119.862 119.534 120.253 119.314C120.644 119.093 121.086 118.978 121.535 118.978V118.965L135.061 118.967Z" fill="#FCED00"/>
</svg>
