<svg width="250" height="250" viewBox="0 0 250 250" fill="none" xmlns="http://www.w3.org/2000/svg">
<rect width="250" height="250" fill="white"/>
<path d="M140.751 94.5531C152.35 94.5531 161.753 85.1503 161.753 73.5514C161.753 61.9526 152.35 52.5498 140.751 52.5498C129.152 52.5498 119.749 61.9526 119.749 73.5514C119.749 85.1503 129.152 94.5531 140.751 94.5531Z" fill="#F16522"/>
<path d="M170.498 186.949C182.097 186.949 191.5 177.547 191.5 165.948C191.5 154.349 182.097 144.946 170.498 144.946C158.899 144.946 149.497 154.349 149.497 165.948C149.497 177.547 158.899 186.949 170.498 186.949Z" fill="#F16522"/>
<path d="M76.0016 167.353C87.6005 167.353 97.0033 157.951 97.0033 146.352C97.0033 134.753 87.6005 125.35 76.0016 125.35C64.4028 125.35 55 134.753 55 146.352C55 157.951 64.4028 167.353 76.0016 167.353Z" fill="#F16522"/>
<path d="M78.8016 117.65C86.3409 117.65 92.4527 111.538 92.4527 103.998C92.4527 96.4591 86.3409 90.3474 78.8016 90.3474C71.2624 90.3474 65.1506 96.4591 65.1506 103.998C65.1506 111.538 71.2624 117.65 78.8016 117.65Z" fill="#F6921E"/>
<path d="M176.448 112.055C183.988 112.055 190.099 105.943 190.099 98.4035C190.099 90.8642 183.988 84.7524 176.448 84.7524C168.909 84.7524 162.797 90.8642 162.797 98.4035C162.797 105.943 168.909 112.055 176.448 112.055Z" fill="#F6921E"/>
<path d="M131.651 197.45C139.19 197.45 145.302 191.338 145.302 183.799C145.302 176.26 139.19 170.148 131.651 170.148C124.111 170.148 118 176.26 118 183.799C118 191.338 124.111 197.45 131.651 197.45Z" fill="#F6921E"/>
<path d="M99.4481 185.549C104.668 185.549 108.899 181.318 108.899 176.099C108.899 170.879 104.668 166.648 99.4481 166.648C94.2286 166.648 89.9974 170.879 89.9974 176.099C89.9974 181.318 94.2286 185.549 99.4481 185.549Z" fill="#FFC10E"/>
<path d="M185.549 138.651C190.769 138.651 195 134.42 195 129.2C195 123.981 190.769 119.75 185.549 119.75C180.33 119.75 176.099 123.981 176.099 129.2C176.099 134.42 180.33 138.651 185.549 138.651Z" fill="#FFC10E"/>
<path d="M101.548 89.6527C106.768 89.6527 110.999 85.4215 110.999 80.202C110.999 74.9825 106.768 70.7512 101.548 70.7512C96.3287 70.7512 92.0975 74.9825 92.0975 80.202C92.0975 85.4215 96.3287 89.6527 101.548 89.6527Z" fill="#FFC10E"/>
</svg>
