<svg width="250" height="250" viewBox="0 0 250 250" fill="none" xmlns="http://www.w3.org/2000/svg">
<rect width="250" height="250" fill="white"/>
<path d="M114.789 103.678C121.593 103.639 120.643 102.949 120.67 109.716C120.993 109.715 122.103 109.686 122.409 109.757C123.005 109.896 122.983 110.427 123.647 109.953C123.917 109.759 124.369 109.723 124.655 109.698C124.653 108.97 124.441 104.339 125.072 104.046C126.259 103.494 130.804 103.364 131.887 104.199C132.314 104.528 132.158 109.035 132.157 109.72C132.657 109.714 134.175 109.656 134.451 110.04C135.156 111.024 135.124 114.783 134.474 115.777C134.21 116.182 132.598 116.104 132.144 116.1C132.246 122.48 132.081 128.901 132.142 135.283C132.166 137.803 135.126 134.933 134.932 139.234C134.764 142.919 135.284 143.03 131.158 143.131C124.503 143.293 124.646 139.15 124.651 134.052L124.656 129.478L124.651 116.105C124.486 116.091 124.14 116.087 123.995 116.039C123.818 115.98 123.352 115.723 123.199 115.653C123.187 115.647 122.708 116.012 122.512 116.042C121.934 116.129 121.245 116.102 120.662 116.099L120.664 128.466C120.664 130.702 120.637 132.968 120.667 135.194C120.695 137.231 121.976 136.092 122.938 136.91C123.727 137.581 123.348 139.607 123.439 140.589C123.495 141.206 123.437 142.098 122.967 142.586C122.229 143.187 120.398 143.097 119.497 143.129C116.46 143.238 113.698 142.071 113.339 138.685C113.077 136.21 113.21 133.589 113.211 131.076L113.209 116.11C112.108 116.046 111.5 115.85 111.493 114.514C111.486 113.241 111.255 111.363 111.772 110.201C111.95 109.801 112.823 109.732 113.211 109.7C113.222 108.464 112.864 104.969 113.593 104.11C113.916 103.73 114.328 103.717 114.789 103.678Z" fill="#0B96DE"/>
<path d="M51.4121 109.149C52.0499 109.08 52.8174 109.118 53.4383 109.252C57.7744 110.189 57.3726 115.269 57.3697 118.558L57.3657 124.796L57.3702 133.167C57.3712 136.42 57.9213 141.781 54.1239 143.103C51.4577 144.032 49.1169 143.176 47.6628 140.818L47.6779 145.643C47.6799 146.349 47.6863 147.078 47.6745 147.781C47.6498 149.265 47.1336 149.498 45.7828 149.553C44.6119 149.521 40.9383 149.804 40.4632 149.072C40.0609 148.453 40.1986 142.723 40.1983 141.74L40.1973 130.308L40.1993 117.789C40.1998 115.631 40.1887 113.46 40.2119 111.302C40.2448 110.998 40.1916 110.458 40.4423 110.245C41.3579 109.465 43.0264 109.746 44.1566 109.702C44.8906 109.714 46.2631 109.622 46.844 110.15C47.3251 110.587 47.1825 112.38 47.1694 112.98C47.8853 110.65 48.9657 109.494 51.4121 109.149ZM49.8744 117.911C49.8745 116.88 50.1469 115.419 48.6909 115.561C47.964 115.632 47.6812 115.939 47.693 116.66C47.6609 117.974 47.6708 119.286 47.6701 120.6L47.6679 127.728L47.6696 132.976C47.6704 134.015 47.6225 135.079 47.7209 136.113C47.7468 136.385 47.8113 136.602 48.029 136.783C48.2659 136.98 48.6149 137.036 48.914 136.999C49.2184 136.961 49.4889 136.825 49.6815 136.583C50.047 136.125 49.8754 131.901 49.8814 131.092L49.8744 117.911Z" fill="#E67918"/>
<path d="M49.875 117.911C50.7291 118.659 57.0191 123.94 57.0361 124.534C57.0427 124.762 56.6487 125.155 56.4946 125.311C55.494 126.323 54.3279 127.23 53.2525 128.167C52.1416 129.135 51.0444 130.192 49.882 131.092L49.875 117.911Z" fill="#FEFEFE"/>
<path d="M50.2388 118.71C50.9279 119.115 56.3325 123.955 56.637 124.512C56.5825 124.988 54.1664 126.927 53.6821 127.344C52.549 128.356 51.376 129.362 50.2305 130.363L50.2388 118.71Z" fill="#0B96DE"/>
<path d="M101.721 109.163C103.669 108.91 106.592 109.355 108.189 110.57C109.57 111.538 110.781 113.756 110.887 115.535C111.312 122.625 110.919 129.863 111.078 136.977C111.112 138.536 111.491 140.971 111.185 142.322C111.021 143.043 106.116 142.738 105.394 142.722C104.15 142.662 104.013 141.108 103.896 140.19C103.768 140.464 103.636 140.736 103.499 141.006C102.97 142.053 102.039 142.839 100.918 143.186C99.6407 143.591 97.724 143.531 96.541 142.874C95.0671 142.055 94.6051 141.028 94.1492 139.536C94.0904 139.244 94.0386 138.951 93.9938 138.657C93.7877 137.258 93.9394 135.916 93.8662 134.557C93.6309 130.4 94.5448 126.204 98.6831 124.288C100.707 123.35 103.811 122.614 103.572 119.783C103.488 118.792 103.699 117.307 103.544 116.379C103.498 116.094 103.339 115.839 103.104 115.672C102.868 115.506 102.575 115.442 102.291 115.492C100.083 115.872 102.901 122.204 100.129 122.458C99.0407 122.558 97.7672 122.425 96.6605 122.445C95.5327 122.466 94.5444 122.441 94.4926 121.032C94.2788 115.153 94.5051 109.829 101.721 109.163ZM101.744 136.931C102.432 137.122 103.034 137.2 103.46 136.48C103.54 135.913 103.65 128.676 103.524 128.379L103.49 128.357C102.603 128.98 101.553 129.918 101.473 131.045C101.387 132.257 101.032 136.162 101.744 136.931Z" fill="#0B96DE"/>
<path d="M66.2009 109.155C68.1383 108.968 70.4564 109.244 72.148 110.269C73.7302 111.228 74.6821 112.832 75.1145 114.593C75.7301 117.099 75.4637 120.292 75.4629 122.905C75.4618 127.392 75.3931 131.889 75.4734 136.374C75.491 137.353 75.9241 141.831 75.5937 142.321C75.4241 142.573 74.9277 142.676 74.6495 142.723C73.7958 142.869 70.7391 142.868 69.8633 142.734C69.6004 142.693 69.333 142.601 69.1166 142.444C68.449 141.959 68.3959 140.953 68.2729 140.209C67.6613 141.696 66.66 142.935 65.0318 143.265C61.6782 143.944 59.3715 142.668 58.5347 139.406C58.1065 137.844 58.3571 136.065 58.2685 134.511C58.0227 130.324 59.047 126.016 63.2736 124.196C64.534 123.604 66.9785 122.822 67.6313 121.529C68.0467 120.706 68.3507 116.204 67.4715 115.671C65.496 114.475 65.7743 117.829 65.8224 118.695C66.0565 122.907 65.312 122.557 61.5567 122.459C60.4284 122.426 58.9496 122.707 58.8894 120.997C58.6809 115.077 58.9569 109.8 66.2009 109.155ZM66.1053 136.919C67.3446 137.28 68.0327 136.963 67.9606 135.558C67.8459 133.325 68.1702 130.608 67.9441 128.416L67.887 128.355C65.781 129.781 65.7055 131.124 65.7457 133.51C65.7606 134.394 65.558 136.286 66.1053 136.919Z" fill="#E67918"/>
<path d="M157.393 109.724C158.537 109.717 162.491 109.493 163.131 110.111C163.734 110.692 163.519 116.915 163.518 117.814L163.513 130.715C163.513 131.793 163.432 135.273 163.536 136.223C163.561 136.434 163.669 136.627 163.835 136.759C164.435 137.232 165.545 136.943 165.617 136.322C165.783 134.91 165.707 132.922 165.706 131.521L165.697 118.007C165.695 116.433 165.688 114.856 165.694 113.282C165.697 112.341 165.569 110.796 166.146 110.028C166.472 109.804 167.019 109.687 167.412 109.702C168.898 109.761 170.422 109.674 171.899 109.741C172.831 109.784 173.123 110.391 173.181 111.243C173.25 112.267 173.22 113.343 173.219 114.384L173.21 120.274L173.21 131.364C173.21 133.985 173.152 136.608 173.326 139.22C173.362 139.774 173.595 141.984 173.365 142.293C172.826 143.016 169.968 142.725 169.052 142.782C168.291 142.803 167.336 142.826 166.805 142.412C166.164 141.913 166.126 140.887 166.041 140.151C165.343 141.646 164.326 143.054 162.593 143.304C155.764 144.287 156.017 138.455 156.017 133.942L156.02 126.998L156.013 116.887C156.011 115.035 155.994 113.186 156.033 111.335C156.057 110.223 156.253 109.908 157.393 109.724Z" fill="#0B96DE"/>
<path d="M200.583 109.154C200.733 109.136 200.885 109.125 201.038 109.121C203.318 109.063 205.809 109.458 207.521 111.098C209.217 112.724 209.719 115.16 209.772 117.422C209.816 119.36 209.756 121.303 209.764 123.241C209.769 124.442 209.897 125.74 209.762 126.93C209.725 127.256 209.627 127.706 209.386 127.945C208.744 128.579 201.906 128.335 200.637 128.335L200.658 133.184C200.654 133.844 200.411 136.551 201.044 136.777C205.074 138.214 200.615 130.181 204.512 130.278C210.073 130.417 209.84 129.363 209.771 135.029C209.692 139.636 207.723 143.008 202.754 143.38C200.348 143.56 197.634 143.31 195.722 141.676C192.884 139.25 193.126 135.234 193.133 131.858L193.14 125.958L193.132 120.318C193.129 114.559 193.423 109.729 200.583 109.154ZM200.647 122.537L202.415 122.538L202.759 122.526C202.925 122.247 202.862 116.968 202.748 116.18C202.646 115.483 201.762 115.545 201.204 115.607C200.833 115.906 200.687 116.104 200.663 116.608C200.572 118.557 200.659 120.587 200.647 122.537Z" fill="#0B96DE"/>
<path d="M146.889 103.679C153.707 103.641 152.744 102.982 152.756 109.719C154.389 109.695 155.53 109.542 155.501 111.64C155.485 112.741 155.725 114.835 155.077 115.762C154.772 116.198 153.24 116.104 152.748 116.099L152.746 128.881C152.746 130.045 152.624 135.415 152.94 136.168C153.714 137.035 155.911 135.723 155.509 139.422C155.389 140.516 155.893 142.077 154.696 142.842C153.922 143.075 152.601 143.115 151.805 143.133C149.939 143.169 147.663 142.896 146.442 141.305C145.218 139.711 145.24 137.391 145.241 135.481C145.243 134 145.247 132.531 145.248 131.056L145.23 116.103C143.558 116.087 143.531 115.18 143.525 113.715C143.52 112.731 143.382 111.083 143.847 110.202C144.06 109.798 144.851 109.733 145.253 109.697C145.236 108.305 144.93 105.303 145.664 104.104C145.893 103.732 146.475 103.708 146.889 103.679Z" fill="#0B96DE"/>
<path d="M136.808 109.724C138.182 109.714 141.61 109.436 142.66 110.17C143.086 110.468 142.975 114.109 142.976 114.862L142.974 122.08L142.975 134.901C142.975 137.041 142.976 139.201 142.967 141.342C142.967 141.616 142.884 141.999 142.72 142.221C142.416 142.633 142.072 142.688 141.611 142.761C140.69 142.789 136.192 142.994 135.788 142.325C135.331 141.567 135.457 138.484 135.457 137.419L135.457 130.148L135.457 117.65C135.457 115.508 135.441 113.363 135.476 111.222C135.49 110.273 135.914 109.88 136.808 109.724Z" fill="#0B96DE"/>
<path d="M136.494 100.849C137.796 100.746 141.097 100.694 142.382 101.037C143.248 101.268 143.022 105.392 142.911 106.133C142.814 106.785 142.565 107.105 141.882 107.291C140.155 107.365 137.873 107.409 136.196 107.16C135.355 107.035 135.399 104.414 135.432 103.777C135.49 102.641 135.207 101.33 136.494 100.849Z" fill="#0B96DE"/>
<path d="M185.759 100H190.371C191.008 100.124 191.615 100.238 191.724 100.994C191.893 102.166 191.834 103.392 191.834 104.578L191.83 110.527L191.829 133.736C191.83 136.433 191.889 139.032 192.151 141.717C192.201 142.227 191.64 142.685 191.14 142.701C189.475 142.756 187.048 143.019 185.495 142.481C184.939 142.289 184.726 140.696 184.642 140.218C183.359 142.951 181.407 143.876 178.474 143.276C174.219 142.405 174.634 136.965 174.635 133.778L174.637 127.211L174.634 119.483C174.633 114.851 174.064 108.128 181.237 109.27C182.586 109.485 183.655 110.62 184.337 111.737C184.282 108.314 184.32 104.781 184.356 101.352C184.367 100.417 184.946 100.165 185.759 100ZM183.782 136.906C184.123 136.603 184.312 136.439 184.32 135.949C184.339 134.747 184.33 133.53 184.33 132.327L184.332 125.172L184.331 119.557C184.33 118.472 184.363 117.357 184.277 116.279C184.212 115.455 183.193 115.553 182.641 115.608C182.324 115.885 182.163 116.046 182.152 116.499C182.128 117.522 182.137 118.562 182.137 119.585L182.134 125.528L182.135 132.09C182.136 133.282 182.125 134.466 182.155 135.665C182.175 136.428 182.239 136.968 183.181 136.995C183.349 136.999 183.621 136.951 183.782 136.906Z" fill="#0B96DE"/>
<path d="M85.2982 128.396C85.3792 122.84 86.181 116.678 86.7656 111.113C86.9919 108.958 90.5057 109.917 92.0305 109.719C92.955 109.599 93.968 110.221 93.7433 111.312C93.4602 113.693 93.1185 116.066 92.7947 118.441L90.9294 132.145L89.7537 140.795C89.114 145.492 89.0682 149.009 83.2533 149.827C82.9154 149.874 82.2543 149.928 81.9515 150H80.6659C79.9216 149.792 78.0866 150.084 77.6982 149.312C77.1452 148.213 77.2909 146.086 77.4343 144.873C77.6697 142.882 80.1238 144.852 80.7163 143.319C80.8424 142.925 80.6236 141.534 80.554 141.08C80.3739 139.909 80.1751 138.728 79.9994 137.553L77.5907 121.778C77.2914 119.825 75.8222 111.774 76.1041 110.379C76.141 110.197 76.1857 110.117 76.3453 110.018C77.1089 109.542 81.8937 109.621 82.8662 109.853C83.5269 110.385 83.6521 110.74 83.7374 111.593C84.3097 117.315 85.0323 123.062 85.1176 128.82L85.1401 129.776C85.1459 129.974 85.136 130.169 85.2218 130.346C85.3255 129.824 85.3109 129.595 85.2918 129.074L85.2982 128.396Z" fill="#E67918"/>
<path d="M85.2978 128.396L85.2914 129.074L85.1397 129.776L85.1172 128.82L85.2978 128.396Z" fill="#E67918" fill-opacity="0.270588"/>
<path d="M85.1387 129.776L85.2903 129.074C85.3095 129.595 85.324 129.824 85.2203 130.346C85.1345 130.169 85.1445 129.973 85.1387 129.776Z" fill="#E67918" fill-opacity="0.807843"/>
</svg>
