<svg width="250" height="250" viewBox="0 0 250 250" fill="none" xmlns="http://www.w3.org/2000/svg">
<rect width="250" height="250" fill="white"/>
<path d="M82.1632 92.3133C82.2759 92.0379 82.3987 91.7669 82.5014 91.4887C87.9326 76.9809 97.5475 66.134 111.183 58.8524C117.429 55.5168 124.144 53.5281 131.148 52.6464C142.063 51.2711 152.603 52.7705 162.702 57.1931C163.457 57.5241 163.481 57.6097 163.116 58.3673C162.786 59.0521 162.416 59.7212 162.142 60.4274C161.902 61.0437 161.607 61.1364 161.007 60.8682C157.482 59.2946 153.821 58.1362 150.041 57.3486C145.036 56.3072 139.989 55.9762 134.886 56.3357C127.991 56.8222 121.369 58.393 115.149 61.426C98.9577 69.3212 88.6235 81.9771 84.3542 99.5208C83.2237 104.165 82.7113 108.875 82.9225 113.645C83.502 126.706 87.8256 138.326 96.407 148.28C103.39 156.378 111.928 162.117 122.19 165.23C128.469 167.135 134.892 168.028 141.451 167.701C148.279 167.36 154.82 165.738 161.083 163C161.387 162.867 161.698 162.745 161.994 162.593C162.539 162.314 162.809 162.462 162.939 163.071C163.097 163.813 163.288 164.555 163.56 165.261C163.831 165.968 163.652 166.314 162.959 166.61C159.433 168.109 155.826 169.354 152.091 170.218C146.36 171.543 140.562 172.038 134.694 171.624C122.17 170.74 110.992 166.407 101.204 158.525C92.4817 151.495 86.1784 142.749 82.4429 132.173C82.3616 131.942 82.2488 131.722 82.1517 131.498C82.0889 131.508 82.0276 131.518 81.9648 131.528C81.9476 131.866 81.9176 132.204 81.9176 132.542C81.9148 154.61 81.9162 176.676 81.9162 198.744C81.9162 199.846 81.9162 199.846 80.79 199.846C78.2007 199.846 75.61 199.846 73.0208 199.846C72.0059 199.846 72.0059 199.845 72.0059 198.842C72.0059 175.041 72.0059 151.24 72.0059 127.439C72.0059 103.163 72.0045 78.887 72.0088 54.6109C72.0088 53.1257 71.8261 53.3055 73.3534 53.3012C75.9169 53.2927 78.4834 53.3198 81.0484 53.2827C81.7335 53.2727 81.9291 53.471 81.9291 54.1615C81.9091 66.5364 81.9148 78.9126 81.9148 91.2889C81.9148 91.6128 81.9148 91.9381 81.9148 92.2619C81.9976 92.279 82.0804 92.2962 82.1632 92.3133Z" fill="#A3238E"/>
<path d="M140.047 134.618C128.146 134.786 117.32 125.024 117.336 111.858C117.35 99.602 127.104 89.2573 139.986 89.2602C152.909 89.263 162.67 99.7048 162.648 112.014C162.626 125.159 151.837 134.788 140.047 134.618Z" fill="#A3238E"/>
<path d="M139.954 59.2304C152.359 59.1462 163.239 63.3591 172.849 71.0617C182.907 79.1223 188.971 89.584 191.502 102.157C191.685 103.065 191.811 103.982 191.97 104.894C192.059 105.4 191.959 105.702 191.348 105.725C190.686 105.75 190.026 105.852 189.37 105.952C188.757 106.046 188.502 105.861 188.408 105.196C187.638 99.7176 186.01 94.5017 183.458 89.5883C178.505 80.0582 171.218 72.8664 161.661 67.9772C156.253 65.2109 150.506 63.4947 144.466 62.9611C129.357 61.6286 116.192 66.1083 105.17 76.5657C98.5768 82.8202 94.0906 90.3901 91.7211 99.1797C90.1353 105.06 89.65 111.028 90.2795 117.104C91.4628 128.538 96.0661 138.347 104.037 146.609C106.406 149.064 108.995 151.244 111.832 153.136C112.549 153.615 112.547 153.667 111.943 154.292C111.547 154.701 111.152 155.113 110.77 155.536C110.109 156.266 110.047 156.32 109.259 155.686C107.004 153.871 104.645 152.157 102.572 150.15C94.897 142.717 89.8584 133.773 87.6317 123.293C86.5683 118.291 86.2471 113.22 86.5911 108.136C87.4747 95.0881 92.9087 84.0814 101.924 74.7539C108.417 68.0371 116.209 63.5032 125.233 61.095C129.286 60.0136 133.412 59.3959 137.604 59.2318C138.387 59.2047 139.17 59.2304 139.954 59.2304Z" fill="#A3238E"/>
<path d="M92.4785 112.478C92.6327 103.364 95.1049 94.9883 99.9252 87.29C100.498 86.3755 100.51 86.3784 101.367 87.0018C101.712 87.2529 102.055 87.5169 102.429 87.7194C102.97 88.0133 103.031 88.3115 102.68 88.8437C100.842 91.6328 99.3799 94.6131 98.2666 97.7617C96.2211 103.547 95.3775 109.493 95.86 115.621C96.7036 126.315 100.843 135.543 108.361 143.179C114.993 149.916 123.044 154.085 132.38 155.606C141.365 157.069 150.088 156.011 158.269 151.946C170.364 145.937 178.403 136.488 181.838 123.302C182.887 119.276 183.363 115.188 183.217 111.034C183.1 107.701 182.583 104.424 181.741 101.197C181.501 100.277 181.557 100.23 182.484 100.159C182.98 100.12 183.481 100.087 183.969 99.993C184.493 99.8917 184.716 100.113 184.802 100.592C185.241 103.066 185.815 105.524 186.096 108.015C186.466 111.296 186.41 114.599 186.028 117.892C185.393 123.375 183.892 128.613 181.346 133.498C174.537 146.561 163.995 155.054 149.567 158.147C134.327 161.414 120.565 157.911 108.676 147.713C100.134 140.386 95.1163 131.024 93.2607 119.968C92.8454 117.498 92.7312 114.976 92.4785 112.478Z" fill="#A3238E"/>
<path d="M179.636 112.416C179.612 123.67 175.631 132.773 168.439 140.534C161.674 147.833 153.193 151.859 143.379 152.945C126.859 154.773 111.142 146.465 103.213 131.919C102.622 130.836 102.622 130.836 103.717 130.332C105.074 129.708 105.043 129.726 105.784 131.003C111.666 141.145 120.263 147.564 131.833 149.808C140.144 151.42 148.175 150.532 155.742 146.622C163.984 142.362 170.304 136.205 173.947 127.54C175.665 123.454 176.508 119.164 176.834 114.752C177.163 110.321 176.73 105.981 175.487 101.724C173.823 96.0255 170.762 91.142 166.797 86.765C161.833 81.2852 155.755 77.7 148.634 75.8211C147.746 75.5871 147.747 75.5814 148.124 74.7283C148.855 73.0762 148.866 73.0405 150.563 73.5784C162.889 77.4803 171.656 85.3326 176.696 97.2567C178.306 101.066 179.138 105.086 179.451 109.209C179.548 110.462 179.598 111.719 179.636 112.416Z" fill="#A3238E"/>
<path d="M163.731 87.7679C163.303 88.1745 162.887 88.6368 162.395 88.992C162.261 89.089 161.843 88.9306 161.644 88.7766C160.021 87.5026 158.501 86.0787 156.794 84.9331C152.275 81.9001 147.268 80.2252 141.833 79.6688C125.758 78.0238 112.755 88.3486 108.293 99.6862C104.75 108.69 104.567 117.799 108.921 126.577C113.413 135.637 120.53 141.79 130.48 144.352C133.812 145.21 137.207 145.553 140.65 145.332C140.811 145.322 140.973 145.331 141.227 145.331C141.177 145.999 141.181 146.635 141.05 147.244C141.013 147.417 140.587 147.599 140.33 147.615C137.304 147.805 134.278 147.661 131.347 146.919C117.067 143.302 107.765 134.517 104.373 120.069C100.723 104.514 108.383 88.3942 122.591 81.0911C126.805 78.9255 131.308 77.7542 136.023 77.3447C146.18 76.463 154.891 79.7843 162.468 86.4126C162.86 86.7564 163.223 87.1345 163.594 87.5011C163.641 87.5468 163.658 87.6238 163.731 87.7679Z" fill="#A3238E"/>
</svg>
