<svg width="250" height="250" viewBox="0 0 250 250" fill="none" xmlns="http://www.w3.org/2000/svg">
<rect width="250" height="250" fill="white"/>
<path d="M85.689 67.0461L59.0507 81.284L124.5 118.716L190.867 80.1357L159.865 67.0461L139.121 78.2739V58.5246L122.662 50.5117L106.587 58.3196V78.069L85.689 67.0461Z" fill="#FF4E02"/>
<path d="M96.1642 183.515L121.799 199.488L121.56 124.092L55 85.8459L59.1347 119.243L79.2189 131.612L62.1065 141.471L63.3799 159.732L78.1702 169.763L95.2826 159.904L96.1642 183.515Z" fill="#01355C"/>
<path d="M153.836 183.515L128.201 199.488L128.44 124.092L195 85.8459L190.865 119.243L170.781 131.612L187.893 141.471L186.62 159.732L171.83 169.763L154.717 159.904L153.836 183.515Z" fill="#6BAC06"/>
</svg>
