<svg width="250" height="250" viewBox="0 0 250 250" fill="none" xmlns="http://www.w3.org/2000/svg">
<rect width="250" height="250" fill="white"/>
<path d="M57.3247 59.8593C56.3175 58.2751 57.4555 56.2029 59.3329 56.2029H107.622C110.907 56.2029 113.961 57.8974 115.699 60.6856L150.693 116.814C151.681 118.399 150.541 120.453 148.674 120.453H100.642C97.6579 120.453 94.8805 118.928 93.2792 116.409L57.3247 59.8593Z" fill="#2D424D"/>
<path d="M101.279 120.413C101.36 120.44 101.444 120.453 101.53 120.453H148.568C150.105 120.453 151.573 119.816 152.623 118.693L189.162 79.6225C189.873 78.8623 189.334 77.62 188.293 77.62H137.342C135.16 77.62 133.074 78.5192 131.576 80.1057L95.3652 118.446L101.279 120.413Z" fill="#FAB900"/>
<mask id="mask0_83_2090" style="mask-type:alpha" maskUnits="userSpaceOnUse" x="56" y="56" width="97" height="65">
<path d="M57.3228 59.8593C56.3155 58.2751 57.4536 56.2029 59.3309 56.2029H107.62C110.905 56.2029 113.959 57.8974 115.697 60.6856L152.959 120.453H100.64C97.6559 120.453 94.8785 118.928 93.2773 116.409L57.3228 59.8593Z" fill="#7D1111"/>
</mask>
<g mask="url(#mask0_83_2090)">
<path d="M94.7323 119.115C94.2545 119.621 94.6132 120.453 95.309 120.453H148.567C150.105 120.453 151.573 119.816 152.623 118.693L189.161 79.6223C189.872 78.862 189.333 77.6198 188.292 77.6198H137.342C135.16 77.6198 133.074 78.5189 131.575 80.1055L94.7323 119.115Z" fill="#FFCC4F"/>
</g>
<path d="M192.673 190.141C193.681 191.725 192.543 193.798 190.665 193.798L142.376 193.798C139.091 193.798 136.037 192.103 134.299 189.315L99.3052 133.186C98.317 131.601 99.4566 129.548 101.324 129.548L149.356 129.548C152.34 129.548 155.118 131.073 156.719 133.591L192.673 190.141Z" fill="#2D424D"/>
<path d="M148.719 129.588C148.638 129.561 148.554 129.547 148.469 129.547L101.43 129.547C99.8932 129.547 98.4249 130.184 97.375 131.307L60.8364 170.378C60.1254 171.138 60.6645 172.38 61.7054 172.38L112.656 172.38C114.838 172.38 116.924 171.481 118.422 169.895L154.633 131.555L148.719 129.588Z" fill="#FFCC4F"/>
<mask id="mask1_83_2090" style="mask-type:alpha" maskUnits="userSpaceOnUse" x="97" y="129" width="97" height="65">
<path d="M192.675 190.141C193.683 191.725 192.544 193.798 190.667 193.798L142.378 193.798C139.093 193.798 136.039 192.103 134.301 189.315L97.0386 129.548L149.358 129.548C152.342 129.548 155.12 131.073 156.721 133.591L192.675 190.141Z" fill="#7D1111"/>
</mask>
<g mask="url(#mask1_83_2090)">
<path d="M155.266 130.885C155.744 130.379 155.385 129.547 154.689 129.547L101.431 129.547C99.8934 129.547 98.4251 130.185 97.3752 131.307L60.8366 170.378C60.1256 171.138 60.6647 172.381 61.7056 172.381L112.656 172.381C114.838 172.381 116.924 171.482 118.423 169.895L155.266 130.885Z" fill="#FAB900"/>
</g>
</svg>
