<svg width="250" height="250" viewBox="0 0 250 250" fill="none" xmlns="http://www.w3.org/2000/svg">
<rect width="250" height="250" fill="white"/>
<path d="M177.669 78.4465C166.274 96.4904 146.962 108.301 124.937 108.301C102.913 108.301 83.6879 96.4904 72.2054 78.534L99.4353 57.7781C104.619 67.642 114.133 74.2691 124.959 74.2691C125.418 74.2691 125.922 74.2472 126.381 74.2253C117.151 79.8462 106.412 83.0395 95.1047 83.0395C91.0148 83.0395 87.0123 82.6239 83.0974 81.8584C88.7183 83.5644 94.6017 84.5049 100.704 84.5049C117.348 84.5049 132.527 77.7466 143.812 66.636C143.812 66.636 143.827 66.6214 143.856 66.5922C144.534 65.9579 145.168 65.3018 145.803 64.602C145.365 65.0612 144.906 65.5424 144.446 65.9798C146.808 63.6177 148.865 60.862 150.461 57.7999L177.691 78.4683L177.669 78.4465Z" fill="#14CC52"/>
<path d="M112.129 192.222L80.5467 179.034C86.4957 169.585 87.4799 158.037 82.0777 148.655C81.8371 148.261 81.6184 147.867 81.3341 147.473C90.8044 152.657 98.9405 160.356 104.583 170.154C106.639 173.697 108.236 177.372 109.548 181.133C108.214 175.425 106.093 169.87 103.009 164.577C94.7631 150.273 81.4434 140.54 66.2866 136.275C66.2866 136.275 66.272 136.268 66.2429 136.253C65.543 136.035 64.8431 135.86 64.1432 135.685C64.012 135.641 63.8589 135.619 63.7277 135.597C60.9281 134.963 57.9973 134.7 55.001 134.832L59.2878 100.909C80.6123 101.762 100.515 112.567 111.517 131.661C122.474 150.667 121.905 173.304 112.107 192.222H112.129Z" fill="#14CC52"/>
<path d="M175.295 118.361C177.351 114.84 179.713 111.581 182.338 108.563C178.051 112.565 174.311 117.203 171.227 122.517C162.85 137.018 161.144 153.705 165.278 169.191C165.278 169.191 165.322 169.387 165.344 169.453C165.431 169.869 165.562 170.284 165.694 170.722C165.759 170.984 165.825 171.268 165.934 171.509C165.868 171.268 165.803 171.071 165.759 170.831C166.59 173.63 167.859 176.386 169.499 178.945L137.983 192.199C128.075 173.303 127.484 150.665 138.486 131.594C149.465 112.588 169.368 101.783 190.649 100.799L195.001 134.765C183.869 134.328 173.348 139.249 167.968 148.61C167.706 149.025 167.509 149.463 167.29 149.9C167.006 139.095 169.652 128.182 175.295 118.384V118.361Z" fill="#14CC52"/>
</svg>
