<svg width="250" height="250" viewBox="0 0 250 250" fill="none" xmlns="http://www.w3.org/2000/svg">
<rect width="250" height="250" fill="white"/>
<path d="M161.3 57.9342V58.1837V191.821H195V57.9342H161.3Z" fill="#2054D2"/>
<path d="M194.509 124.875C194.534 138.787 190.463 152.395 182.814 163.975C175.164 175.554 164.278 184.586 151.535 189.927C138.791 195.268 124.762 196.678 111.223 193.98C97.6837 191.28 85.2431 184.593 75.4754 174.765C65.7077 164.936 59.0519 152.407 56.3504 138.764C53.6489 125.12 55.023 110.976 60.2989 98.1199C65.5747 85.2644 74.5152 74.275 85.9889 66.5435C97.4626 58.8114 110.954 54.6843 124.755 54.6842C143.234 54.6842 160.957 62.0756 174.035 75.2352C187.113 88.3949 194.477 106.247 194.509 124.875ZM89.0727 124.875C89.0727 131.989 91.1654 138.943 95.0862 144.859C99.0071 150.774 104.58 155.384 111.1 158.107C117.62 160.829 124.794 161.541 131.716 160.154C138.638 158.766 144.996 155.34 149.986 150.309C154.976 145.279 158.375 138.87 159.752 131.892C161.129 124.915 160.422 117.682 157.721 111.11C155.021 104.538 150.447 98.9195 144.579 94.9676C138.711 91.015 131.813 88.9053 124.755 88.9053C115.292 88.9053 106.216 92.6948 99.5238 99.4405C92.8321 106.186 89.0727 115.335 89.0727 124.875Z" fill="#D8A28F"/>
</svg>
