<svg width="250" height="250" viewBox="0 0 250 250" fill="none" xmlns="http://www.w3.org/2000/svg">
<rect width="250" height="250" fill="white"/>
<path d="M55 59.984H195V151.086V167.284C194.402 173.186 192.812 174.877 190.49 178.308C189.661 179.513 188.52 180.733 187.611 181.889C187.353 182.217 187.026 182.536 186.749 182.852C182.17 187.37 176.94 191.087 171.332 194.212C170.668 194.583 170.02 195.053 169.342 195.409C168.674 195.768 167.939 196.045 167.26 196.387C159.968 200.115 152.333 203.128 144.461 205.382C138.061 207.17 124.904 209.846 124.904 209.846C124.904 209.846 123.632 209.717 123.141 209.581C112.846 206.995 102.812 204.21 92.9524 200.344C84.4722 197.025 76.3167 193.091 68.9879 187.687C61.9289 182.391 55 174.902 55 165.548V59.984ZM163.069 62.1077C162.837 62.1195 162.508 62.106 162.268 62.1039C161.002 62.1627 159.313 62.1157 158.019 62.1159L149.71 62.1156L122.675 62.124C122.705 64.1306 122.641 66.1108 122.647 68.111L122.673 89.071L122.675 98.1756C122.676 99.0745 122.74 101.793 122.653 102.602C122.732 104.609 122.68 106.955 122.68 108.987L122.655 122.743L122.676 164.644C121.586 164.737 120.987 164.741 119.871 164.693C119.085 164.785 117.776 164.752 116.95 164.75L111.973 164.741C107.38 164.738 102.507 164.834 97.9391 164.735C97.6115 164.757 97.2525 164.748 96.9218 164.745C91.3801 164.691 85.8168 164.817 80.2771 164.733C79.592 164.792 78.0729 164.748 77.3446 164.749L71.4468 164.745C66.6482 164.741 61.3827 164.858 56.6267 164.73C56.8499 179.139 71.2924 188.014 82.7151 193.783C93.1235 199.04 104.211 202.951 115.438 206.076L120.504 207.441C121.584 207.742 123.345 208.319 124.415 208.435C124.588 208.439 124.731 208.49 124.901 208.523C125.058 208.272 124.989 177.285 124.988 174.482L124.987 169.191C124.987 168.109 124.956 166.808 125.034 165.743L124.921 127.689L124.922 114.416C124.923 112.27 125.01 109.371 124.892 107.296C124.907 107.12 124.93 107.029 124.967 106.857C125.506 106.783 127.305 106.832 127.919 106.835L133.841 106.85L154.853 106.846L180.839 106.838L188.365 106.842C189.5 106.837 191.677 106.763 192.684 106.868L192.981 106.816C193.176 106.598 193.118 106.307 193.118 105.982C193.049 102.432 193.117 98.6049 193.117 95.0334C193.162 84.0624 193.142 73.0913 193.056 62.1205C192.277 62.0869 191.454 62.1032 190.671 62.1057C187.546 62.198 183.981 62.1154 180.827 62.1156L163.069 62.1077Z" fill="#3195FF"/>
</svg>
