<svg width="250" height="250" viewBox="0 0 250 250" fill="none" xmlns="http://www.w3.org/2000/svg">
<rect width="250" height="250" fill="#E40473"/>
<path d="M132.886 55.0002C136.439 55.4972 140 55.9568 143.546 56.4986C153.269 57.9857 165.349 62.3798 172.067 66.8749C170.909 67.7679 169.795 68.631 168.697 69.4792C174.578 72.0798 180.41 74.658 186.243 77.2362C186.213 77.4828 186.18 77.7257 186.15 77.9723C170.666 86.0469 155.182 94.1214 139.694 102.196C139.593 102.099 139.492 102.005 139.391 101.908C139.731 101.396 140.053 100.866 140.419 100.373C144.981 94.2298 149.554 88.0982 154.098 81.9404C154.419 81.5033 154.509 80.898 154.707 80.3711C154.135 80.5392 153.448 80.5542 153.014 80.8979C146.255 86.1926 139.529 91.5283 132.792 96.8528C132.314 97.2339 131.817 97.5926 131.074 98.1494C130.651 96.4157 130.263 94.8874 129.908 93.3517C128.574 87.6012 127.266 81.847 125.902 76.104C125.779 75.5884 125.327 75.1512 125.028 74.6804C124.722 75.1475 124.258 75.5772 124.139 76.0853C122.54 82.8596 120.989 89.6451 119.423 96.4269C119.311 96.9051 119.162 97.3759 118.967 98.0634C118.426 97.6861 117.981 97.4096 117.57 97.0882C110.732 91.689 103.909 86.2785 97.0528 80.9054C96.6156 80.5654 95.9393 80.528 95.3751 80.3487C95.562 80.8718 95.6329 81.4808 95.9468 81.9068C100.446 88.0197 104.978 94.1065 109.503 100.201C109.906 100.746 110.299 101.296 110.497 102.155C109.977 101.916 109.447 101.699 108.939 101.438C94.6652 94.0019 80.3992 86.555 66.122 79.1268C65.371 78.7345 64.5452 78.4804 63.7568 78.1591C63.7568 78.0358 63.7568 77.9087 63.7568 77.7854C69.5671 74.9532 75.3774 72.1209 81.1316 69.3148C80.2983 68.6534 79.1736 67.7604 78.0004 66.8263C85.2044 62.1893 97.0416 57.9072 106.544 56.4948C110.089 55.968 113.643 55.4972 117.193 55.0002C122.424 55.0002 127.655 55.0002 132.886 55.0002Z" fill="white"/>
<path d="M151.898 195H97.9504C97.9504 193.55 97.9018 192.146 97.9579 190.744C98.8547 167.769 102.591 145.249 109.074 123.196C110.296 119.037 112.074 115.043 113.576 110.963C114.144 109.423 115.258 108.519 116.794 108.138C122.264 106.785 127.745 106.766 133.219 108.138C134.755 108.523 135.775 109.434 136.463 110.929C140.042 118.712 142.262 126.925 144.257 135.205C148.259 151.806 150.908 168.621 151.876 185.678C152.048 188.704 151.902 191.749 151.902 194.997L151.898 195Z" fill="white"/>
</svg>
