<svg width="250" height="250" viewBox="0 0 250 250" fill="none" xmlns="http://www.w3.org/2000/svg">
<rect width="250" height="250" fill="white"/>
<path d="M195.001 55.0002L150.595 195H61.1025L106.188 55.0002H195.001Z" fill="#098221"/>
<path d="M136.104 89.9695C128.097 90.4548 119.93 84.915 116.847 82.0845C122.391 111.328 136.614 143.019 143.033 155.21C144.059 155.147 148.872 155.021 159.911 155.021C144.141 132.276 137.014 100.129 136.104 89.9695Z" fill="#FECE06"/>
<path d="M100.021 151.882L77.4502 150.706C100.021 119.108 103.646 109.774 114.506 83.8945C122.241 118.369 129.855 135.657 140.902 155.414C139.783 155.294 133.657 154.842 117.822 153.595C107.671 142.581 109.107 129.241 109.76 118.369C103.575 130.228 100.021 138.747 100.021 151.882Z" fill="white"/>
</svg>
