<svg width="250" height="250" viewBox="0 0 250 250" fill="none" xmlns="http://www.w3.org/2000/svg">
<rect width="250" height="250" fill="white"/>
<path d="M124.977 55C130.571 58.038 136.503 61.6204 142.061 64.8327L173.502 83.0345L173.497 111.291L149.259 125.046C155.106 128.808 161.953 131.917 167.857 135.695C169.266 136.597 172.525 138.164 173.586 139.237C173.404 142.322 173.506 146.31 173.506 149.464L173.519 167.013C157.899 176.43 141.018 185.861 125.162 195C121.112 192.857 116.604 190.132 112.589 187.821L89.5538 174.589L81.1907 169.775C80.1156 169.155 77.7535 167.722 76.6696 167.263C76.2948 166.73 76.4404 158.375 76.4404 157.085L76.4402 138.874L76.4328 83.1835L124.977 55Z" fill="#BC3638"/>
<path d="M100.876 97.0364C104.303 95.1976 108.145 92.8643 111.567 90.8996L135.408 77.1899C139.897 74.6047 144.625 71.7821 149.166 69.3315L149.185 97.2458C146.651 98.5039 143.195 100.622 140.674 102.073L125.202 110.93L125.215 139.113C130.382 141.842 135.78 145.303 140.958 148.135C142.107 148.762 148.509 152.409 149.25 153.071C150.252 152.768 154.869 149.99 156.037 149.334C161.801 146.097 167.732 142.261 173.586 139.236C173.403 142.322 173.506 146.31 173.506 149.463L173.519 167.012C157.899 176.43 141.018 185.861 125.161 195C121.112 192.857 116.604 190.132 112.588 187.821L89.5536 174.589L81.1905 169.774C80.1154 169.155 77.7533 167.722 76.6694 167.263C76.9033 166.967 100.026 153.452 101.078 153.085C100.722 152.58 100.875 102.318 100.876 97.0364Z" fill="white"/>
<path d="M149.25 153.071C150.252 152.768 154.869 149.99 156.037 149.334C161.801 146.097 167.732 142.261 173.586 139.236C173.403 142.322 173.506 146.31 173.506 149.463L173.519 167.012C157.899 176.43 141.018 185.861 125.161 195C121.112 192.857 116.604 190.132 112.588 187.821L89.5536 174.589L81.1905 169.774C80.1154 169.155 77.7533 167.722 76.6694 167.263C76.9033 166.967 100.026 153.452 101.078 153.085C102.226 153.58 105.062 155.304 106.276 156.007L116.302 161.835L149.12 180.869L149.112 160.935C149.11 159.667 149.013 153.934 149.25 153.071Z" fill="#932C2A"/>
</svg>
