<svg width="250" height="250" viewBox="0 0 250 250" fill="none" xmlns="http://www.w3.org/2000/svg">
<rect width="250" height="250" fill="white"/>
<path d="M120.168 62.7295H129.734L129.839 62.7651C131.134 63.1906 133.409 63.123 134.86 63.3345C143.166 64.5452 151.182 67.3127 158.559 71.3036C159.954 72.0588 161.411 72.7395 162.766 73.5696C164.146 74.419 165.412 75.4426 166.693 76.4303C172.169 80.5023 177.051 85.4158 181.151 90.8661C181.698 91.593 182.258 92.3071 182.799 93.0406C184.526 95.3839 185.875 98.1201 187.201 100.725C191.152 108.488 193.797 116.989 194.609 125.677C194.735 127.042 194.679 128.48 195.001 129.817V135.415C194.529 137.012 194.619 140.347 194.314 142.27C192.157 155.836 186.697 172.306 172.691 177.707C159.736 182.703 144.978 174.523 133.226 169.55C132.892 166.557 133.576 162.296 134.331 159.393C136.158 152.611 140.553 146.807 146.586 143.212C152.823 139.571 163.374 138.404 170.352 140.219C167.414 133.402 160.417 133.443 154.189 134.888C154.636 133.776 155.095 132.544 155.364 131.379C157.208 123.379 155.089 112.992 148.586 107.65C151.15 112.932 151.188 119.462 149.977 125.123C148.775 130.32 145.957 136.762 141.37 139.79C137.327 142.459 132.953 140.471 130.549 136.71C128.1 133.103 131.585 128.911 134.094 126.276C141.775 118.209 143.879 111.561 137.611 101.479C137.229 100.837 136.831 100.205 136.418 99.5828C136.648 100.332 136.802 100.696 137.134 101.408C139.088 105.775 139.914 111.168 138.226 115.849C136.619 120.307 132.347 122.706 127.725 121.229C126.668 120.891 125.661 119.973 125.253 118.914C123.5 113.7 124.953 105.788 127.01 100.799C127.642 99.2671 128.152 98.5585 128.975 97.2829C125.838 99.7239 124.193 101.662 122.644 105.461C121.356 108.617 120.914 111.741 120.457 115.103C119.211 124.27 121.382 139.508 107.343 137.672C101.541 136.891 100.314 131.099 101.012 126.16C101.69 121.363 103.498 116.95 105.485 112.572C106.058 111.317 107.143 109.838 107.828 108.632C102.193 112.999 96.1444 118.282 95.2367 125.737C94.7458 129.769 95.7748 132.375 97.5052 135.946C87.3852 137.363 85.2865 139.339 81.0583 148.506C82.3254 147.072 83.8769 145.245 85.3996 144.173C101.13 133.095 119.836 147.508 120.207 164.876C120.223 165.621 120.259 166.322 120.25 167.05C114.431 169.228 108.771 171.468 102.791 173.438C93.9097 176.363 83.0548 180.658 73.8286 176.711C70.7209 175.382 67.0808 172.215 65.3534 169.385C60.723 161.802 57.5698 153.436 55.9123 144.716C55.6334 143.248 55.4384 138.774 55.001 137.829V127.408C55.2282 126.962 55.592 123.107 55.7081 122.267C55.8915 120.954 56.1161 119.646 56.3814 118.347C57.8183 111.524 60.4767 104.698 63.8077 98.588C64.6047 97.1262 65.3516 95.5915 66.2579 94.1973C75.6908 79.9509 89.9838 69.6219 106.471 65.1369C109.493 64.2861 112.591 63.7468 115.689 63.2561C117.103 63.0321 118.833 63.191 120.168 62.7295Z" fill="#06A306"/>
</svg>
