<svg width="250" height="250" viewBox="0 0 250 250" fill="none" xmlns="http://www.w3.org/2000/svg">
<rect width="250" height="250" fill="white"/>
<path d="M161.932 65.3335C163.522 65.2276 164.936 65.2898 166.453 65.4316C191.728 67.7949 188.45 92.3566 172.837 105.24C167.415 109.988 160.441 114.289 153.024 114.31C152.406 114.252 151.724 114.153 151.156 113.898C146.921 112.004 149.227 108.464 151.222 106.127C155.364 101.274 160.84 96.8385 161.708 90.1846C161.948 88.3445 161.052 86.2729 159.879 84.8879C158.392 83.1267 156.131 82.4919 153.921 82.3387C143.167 81.3241 127.514 91.666 119.631 98.5175C107.322 109.215 91.7386 128.462 90.2321 145.467C89.9345 148.827 90.7952 152.792 93.1048 155.347C95.6554 158.244 98.8664 159.191 102.608 159.439C118.006 160.462 129.424 147.858 139.853 138.635C140.559 138.075 141.277 137.493 142.004 136.972C152.307 129.595 164.742 131.054 152.23 144.85C137.153 161.475 117.724 176.406 94.6661 178.554C80.9842 179.829 66.5916 173.802 65.1062 158.722C63.7953 142.267 74.855 125.014 85.1734 113.012C88.7269 108.811 92.4651 104.769 96.3766 100.899C113.214 84.4163 137.791 67.1486 161.932 65.3335Z" fill="#F12A00"/>
</svg>
