<svg width="250" height="250" viewBox="0 0 250 250" fill="none" xmlns="http://www.w3.org/2000/svg">
<rect width="250" height="250" fill="white"/>
<path d="M84.3356 57.6674C84.8279 56.0811 86.2955 55 87.9565 55L152.69 55.0016C155.233 55.0017 157.055 57.4564 156.319 59.8906L138.29 119.49C137.806 121.09 136.332 122.184 134.661 122.184L69.458 122.182C66.9034 122.182 65.08 119.707 65.8372 117.267L84.3356 57.6674Z" fill="#075AC4"/>
<path d="M112.226 130.484C112.719 128.897 114.186 127.816 115.847 127.816L180.581 127.818C183.124 127.818 184.946 130.273 184.21 132.707L166.181 192.307C165.697 193.906 164.223 195 162.552 195L97.3488 194.998C94.7942 194.998 92.9708 192.523 93.7281 190.083L112.226 130.484Z" fill="#EA3937"/>
<path d="M157.651 86.6352C157.89 85.8286 158.633 85.2766 159.475 85.2798L195.655 85.4169C196.913 85.4216 197.817 86.6274 197.47 87.8361L187.991 120.817C187.758 121.629 187.014 122.189 186.169 122.189H149.622C148.354 122.189 147.444 120.968 147.805 119.753L157.651 86.6352Z" fill="#299F5E"/>
<path d="M62.3814 129.177C62.6212 128.371 63.3641 127.819 64.2056 127.822L100.386 127.959C101.644 127.964 102.548 129.169 102.201 130.378L92.7219 163.359C92.4884 164.171 91.7453 164.731 90.9 164.731H54.3529C53.0851 164.731 52.1746 163.51 52.5359 162.295L62.3814 129.177Z" fill="#299F5E"/>
</svg>
