<svg width="250" height="250" viewBox="0 0 250 250" fill="none" xmlns="http://www.w3.org/2000/svg">
<rect width="250" height="250" fill="white"/>
<path d="M130.711 105.744C133.902 105.843 137.398 105.776 140.603 105.776L164.422 105.777C165.119 105.78 167.094 105.748 167.655 105.895L167.715 106.079C167.185 107.72 158.16 115.769 156.624 117.656C155.547 118.98 152.762 121.285 151.534 122.703C150.995 123.325 150.058 124.064 149.5 124.785L149.452 124.849C148.76 125.421 148.053 126.195 147.408 126.846C141.904 132.401 136.444 138.085 130.759 143.454C130.562 135.904 130.706 127.852 130.706 120.264L130.701 110.982C130.696 109.38 130.622 107.288 130.711 105.744Z" fill="#F63900"/>
<path d="M130.859 54.5107C131.612 54.6172 134.07 54.5742 134.891 54.5744L142.776 54.5736C151.023 54.5736 159.632 54.6973 167.848 54.5744C165.563 57.9041 161.834 60.7529 159.127 63.7766C158.747 64.2002 158.233 64.5869 157.842 65.0075C155.484 67.5399 152.874 69.8287 150.612 72.4516C150.226 72.8993 149.712 73.1734 149.306 73.6641C149.063 74.1982 147.962 75.0415 147.496 75.5056L141.331 81.6522L135.248 87.74C133.808 89.1952 132.48 90.8494 130.76 91.9847C130.548 85.2916 130.704 77.8282 130.705 71.0476L130.7 60.6005C130.699 59.659 130.589 55.0281 130.859 54.5107Z" fill="#F63900"/>
<path d="M82.9023 105.78L116.031 105.778C117.184 105.781 119.14 105.738 120.25 105.801C118.859 106.815 119.142 107.07 118.108 108.131L101.532 124.816C100.389 125.964 99.1472 127.042 98.0364 128.221C94.2536 132.237 90.4164 136.157 86.3859 139.93C85.1975 141.043 84.1691 142.241 82.9023 143.355V105.78Z" fill="#F63900"/>
<path d="M82.9023 54.5761C90.0654 54.4779 97.4618 54.576 104.644 54.5771L113.824 54.5675C114.577 54.566 119.476 54.4449 119.844 54.7577C119.765 55.0484 115.62 59.3644 115.118 59.8745L93.1699 82.025C91.8835 83.3229 90.7176 84.5092 89.3725 85.7477C87.3178 87.6396 85.2374 90.4458 82.9023 91.975V54.5761Z" fill="#F63900"/>
<path d="M82.9023 157.177L108.107 157.18C111.991 157.18 116.047 157.122 119.916 157.197C119.247 157.859 118.732 158.524 118.138 159.243C117.732 159.68 117.278 160.085 116.885 160.531C116.739 160.696 116.057 161.628 115.976 161.668C115.026 162.148 114.706 162.949 114.068 163.573L86.0037 191.505L83.8522 193.69C83.6778 193.865 83.5623 194.038 83.3988 194.213C83.3036 194.315 83.0686 194.417 82.9686 194.511H82.9023V157.177Z" fill="#F63900"/>
</svg>
