<svg width="250" height="250" viewBox="0 0 250 250" fill="none" xmlns="http://www.w3.org/2000/svg">
<rect width="250" height="250" fill="white"/>
<path d="M55.7093 110.328C59.8235 87.0399 74.2191 69.7404 96.1352 60.6759C124.551 48.9231 162.766 56.135 183.717 87.4535C186.426 91.5019 188.72 96.2591 190.353 100.838C190.534 101.347 191.081 102.532 191.133 102.958C191.566 103.913 191.922 105.39 192.194 106.416C193.359 110.815 194.38 116.043 194.767 120.578C195.845 133.763 193.15 147.387 186.981 159.097C185.57 161.774 183.15 164.779 181.248 167.166C173.811 176.494 164.461 183.844 153.596 188.766C145.884 192.171 137.616 194.142 129.197 194.579C119.906 195.013 108.558 193.143 99.8636 189.82C95.0192 187.968 88.9378 185.402 84.5568 182.646C71.531 174.453 62.8918 160.413 58.0597 146.093C57.7452 145.161 57.3526 144.08 57.1706 143.126C56.6902 140.625 55.9682 138.05 55.5119 135.524C55.189 132.743 55.0761 130.619 55.0761 128.126C55.0761 122.181 54.6733 116.192 55.7093 110.328Z" fill="#32834D"/>
<path d="M138.42 102.677C142.314 102.591 146.428 102.662 150.334 102.671L172.123 102.765L184.14 102.857C186.13 102.867 189.216 102.788 191.134 102.957C191.567 103.912 191.922 105.39 192.194 106.416C193.359 110.815 194.381 116.043 194.767 120.578C195.845 133.763 193.15 147.387 186.981 159.097C185.57 161.774 183.151 164.779 181.248 167.166C173.811 176.493 164.462 183.844 153.596 188.766C145.885 192.171 137.616 194.142 129.197 194.579C119.906 195.013 108.558 193.143 99.8639 189.82C95.0195 187.968 88.9381 185.402 84.5571 182.646C71.5313 174.453 62.892 160.413 58.06 146.093C57.7455 145.161 57.3528 144.08 57.1709 143.125C57.7232 143.054 59.0418 143.052 59.6518 143.029C61.0398 142.969 62.4274 142.897 63.8144 142.816C67.2089 142.625 70.5454 142.501 73.9435 142.393C76.6187 142.309 79.2763 142.131 81.9579 142.126C82.1932 143.147 82.6547 144.114 82.9342 145.12C84.9709 152.453 90.135 158.953 97.6852 160.992C99.6688 161.528 104.062 161.317 106.315 161.331L122.045 161.378L122.065 142.27C122.195 142.279 122.326 142.286 122.457 142.291C125.182 142.41 129.129 142.246 131.945 142.201L146.264 142.072C149.659 142.056 153.053 142.02 156.446 141.965C160.886 141.927 161.431 142.612 164.846 139.432C168.914 135.642 171.41 130.741 171.572 125.124C171.705 120.518 169.81 115.458 166.643 112.119C165.602 111.04 162.643 108.356 161.254 108.081C159.594 107.754 155.641 107.902 153.74 107.892C148.979 107.895 144.255 107.847 139.491 107.821C137.748 107.811 136.588 106.838 136.627 105.026C136.651 103.949 137.631 102.677 138.42 102.677Z" fill="#F2563F"/>
<path d="M138.626 146.161C140.3 146.17 141.973 146.166 143.647 146.149C142.886 146.421 142.073 146.626 141.538 147.229C141.222 148.414 142.102 157.238 142.473 158.935C142.54 159.243 143.421 159.488 143.811 159.621C144.461 159.46 145.27 159.395 145.624 158.83C145.891 157.704 146.004 147.973 145.627 147.274C145.261 146.597 144.305 146.404 143.631 146.169C144.686 146.117 146.114 146.169 147.194 146.169C149.362 146.155 151.53 146.162 153.698 146.191C153.765 147.077 153.779 147.832 153.787 148.721C152.897 146.963 152.092 146.983 150.26 147.01C149.769 147.017 149.243 147.025 148.75 147.034L148.758 152.678C149.725 152.635 150.657 152.646 151.659 152.59C152.688 151.825 152.822 151.763 153.349 150.612C153.353 152.107 153.368 153.602 153.391 155.096C153.197 154.768 153.037 154.408 152.872 154.062C151.745 153.045 150.285 153.301 148.761 153.311C148.754 154.681 148.579 157.587 149.025 158.88C149.164 159.285 150.419 159.592 150.895 159.747C149.373 159.846 147.159 159.8 145.596 159.804C142.832 159.81 139.807 159.858 137.056 159.731C137.946 159.397 139.021 159.395 139.028 158.21C139.035 157.001 138.93 155.809 138.855 154.603C138.738 152.686 138.634 150.769 138.544 148.851C137.13 151.956 136.07 155.178 134.701 158.301C134.433 158.914 134.249 159.387 133.892 159.962C133.085 158.621 132.866 157.669 132.265 156.345C131.189 153.974 130.322 151.522 129.17 149.204C129.059 150.839 128.245 157.854 128.899 158.895C129.214 159.397 130.447 159.562 130.983 159.705C129.689 159.875 126.643 159.82 125.305 159.755C125.886 159.516 126.588 159.412 127.023 158.917C127.548 158.319 128.661 149.27 128.521 148.118C128.426 147.333 126.862 146.706 126.263 146.231C126.241 146.214 126.221 146.196 126.199 146.179C127.5 146.103 129.662 146.181 131.026 146.189C131.289 146.925 131.802 147.646 132.074 148.38C132.941 150.71 134.12 152.936 135.006 155.247C135.741 153.518 136.303 151.888 136.973 150.147C137.496 148.788 138.194 147.613 138.626 146.161Z" fill="#FCFCFC"/>
<path fill-rule="evenodd" clip-rule="evenodd" d="M158.391 146.155C159.519 146.144 161.616 146.096 162.667 146.254C163.236 146.336 163.788 146.51 164.301 146.769C165.7 147.476 166.999 149.04 166.128 150.756C165.612 151.773 164.013 152.407 162.942 152.722C166.011 153.283 167.953 154.377 166.815 157.863C165.644 160.261 161.923 159.829 159.668 159.805L154.238 159.759C154.726 159.571 155.735 159.351 156.029 158.91C156.407 158.339 156.453 148.732 156.206 147.505C156.083 146.896 155.145 146.481 154.652 146.18C155.663 146.11 157.341 146.165 158.391 146.155ZM159.283 153.216C159.319 154.342 158.983 157.876 159.691 158.711C160.35 159.488 162.419 159.19 163.228 158.378C163.772 157.42 164.256 156.568 163.946 155.405C163.751 154.694 163.276 154.093 162.632 153.736C161.703 153.214 160.336 153.212 159.283 153.216ZM159.312 146.969C159.281 148.828 159.28 150.687 159.308 152.545C160.722 152.514 161.188 152.502 162.449 151.781C163.158 151.116 163.143 150.615 163.189 149.707C163.322 147.136 161.272 147.019 159.312 146.969Z" fill="#FCFCFC"/>
<path fill-rule="evenodd" clip-rule="evenodd" d="M174.902 87.4223C177.369 87.4148 181.356 87.2684 183.718 87.4538C186.544 91.6792 188.716 96.0349 191.133 102.958C189.216 102.788 186.13 102.867 184.14 102.858L172.123 102.765L150.334 102.671C146.427 102.662 142.313 102.591 138.42 102.677C137.658 102.677 136.651 103.95 136.627 105.027C136.588 106.838 137.748 107.812 139.491 107.821C144.255 107.848 148.979 107.896 153.739 107.892C155.641 107.902 159.594 107.754 161.254 108.082C162.643 108.356 165.601 111.041 166.643 112.12C169.809 115.459 171.705 120.518 171.572 125.124C171.41 130.741 168.914 135.643 164.846 139.432C161.431 142.613 160.886 141.927 156.446 141.965C153.053 142.021 149.658 142.056 146.264 142.072L131.945 142.202C129.129 142.246 125.182 142.411 122.457 142.292C122.326 142.286 122.195 142.279 122.064 142.27L122.045 161.378L106.315 161.332C104.061 161.318 99.6688 161.528 97.6851 160.992C90.135 158.953 84.9707 152.454 82.934 145.12C82.6545 144.114 82.1929 143.147 81.9575 142.126C73.781 142.528 63.7339 142.858 57.1708 143.126C55.6501 138.447 55.0762 133.36 55.0762 128.127C63.1094 127.971 71.3962 128.085 79.464 128.018C79.6734 126.788 80.3321 125.196 80.8189 124.057C82.5095 120.104 84.8773 116.763 88.2366 114.06C91.0161 111.824 94.2905 110.215 97.7367 109.307C98.9365 108.99 100.158 108.583 101.395 108.377C108.148 107.256 114.644 107.836 121.338 108.549C121.401 113.192 121.235 118.398 121.2 123.093L109.121 123.188C106.635 123.196 104.161 123.17 101.677 123.258C98.623 123.365 97.5888 125.578 95.637 127.158L95.5421 127.234C98.9869 127.166 102.564 127.209 106.032 127.169L136.98 126.854L150.223 126.7C151.84 126.677 153.453 126.731 155.068 126.711C156.132 126.697 156.906 125.985 156.978 124.952C157.068 123.672 157.027 122.487 155.467 122.427C154.129 122.375 152.801 122.455 151.487 122.477L143.593 122.597C140.06 122.658 138.856 122.95 135.415 121.714C130.121 119.813 125.529 116.493 123.374 111.116C122.702 109.44 122.061 106.464 122.183 104.732C122.488 99.8779 124.756 95.3575 128.465 92.2115C131.746 89.4034 136.641 87.4887 140.941 87.5419C142.331 87.5591 143.726 87.5318 145.117 87.5285L174.902 87.4223ZM107.741 143.24C105.512 143.238 103.282 143.257 101.054 143.294C99.5837 143.308 97.9357 143.357 96.4809 143.32C98.3422 145.657 99.9103 146.91 102.992 146.887C104.553 146.883 106.171 146.858 107.726 146.884C107.718 145.669 107.723 144.455 107.741 143.24Z" fill="#FCFCFC"/>
</svg>
