<svg width="250" height="250" viewBox="0 0 250 250" fill="none" xmlns="http://www.w3.org/2000/svg">
<rect width="250" height="250" fill="white"/>
<path d="M115.434 187.954C113.005 188.368 110.523 188.584 108.022 188.584C93.741 188.584 80.3844 181.76 70.4169 169.372C60.7212 157.326 55.375 141.391 55.375 124.502C55.375 107.612 60.7212 91.6766 70.3988 79.6488C80.3844 67.2608 93.741 60.4365 108.022 60.4365C122.302 60.4365 135.659 67.2608 145.627 79.6488C147.928 82.4937 149.976 85.5727 151.77 88.8318H172.956C164.981 74.6612 152.567 65.3701 137.036 60.8147C138.921 60.5626 140.824 60.4365 142.745 60.4365C157.026 60.4365 170.382 67.2608 180.349 79.6488C185.497 86.0229 189.411 93.5132 191.948 101.652H142.962C136.438 85.4827 123.227 74.4091 108.003 74.4091C86.3468 74.4091 68.7134 96.8804 68.7134 124.519C68.7134 149.008 80.3663 180.338 115.416 187.954H115.434Z" fill="url(#paint0_linear_83_534)"/>
<path d="M194.85 115.352H124.895V150.536H141.569C138.596 156.748 134.591 162.06 129.879 166.111C148.872 168.163 156.23 151.202 159.002 139.804H137.473V128.172H182.2C180.732 154.101 163.443 174.609 142.747 174.609C122.05 174.609 103.456 152.138 103.456 124.499C103.456 107.682 109.98 92.791 119.966 83.6978C107.788 80.4748 94.8481 90.504 91.0059 112.651C90.4079 116.523 90.1179 120.484 90.1179 124.499C90.1179 141.389 95.4644 157.324 105.142 169.37C115.109 181.758 128.466 188.582 142.747 188.582C157.027 188.582 170.384 181.758 180.351 169.37C190.047 157.324 195.375 141.389 195.375 124.499C195.375 121.402 195.194 118.359 194.85 115.352Z" fill="#3333FF"/>
<defs>
<linearGradient id="paint0_linear_83_534" x1="139.972" y1="61.5169" x2="83.6068" y2="218.077" gradientUnits="userSpaceOnUse">
<stop stop-color="#00FFFF"/>
<stop offset="0.32" stop-color="#10BEFF"/>
<stop offset="1" stop-color="#3333FF"/>
</linearGradient>
</defs>
</svg>
