<svg width="250" height="250" viewBox="0 0 250 250" fill="none" xmlns="http://www.w3.org/2000/svg">
<rect width="250" height="250" fill="white"/>
<g clip-path="url(#clip0_83_567)">
<path d="M119.486 55.0107H131.185C133.084 55.7578 136.976 55.8128 139.153 56.2597C146.023 57.6698 152.445 59.9349 158.613 63.2969C171.952 70.4943 182.61 81.8058 189.003 95.5484C191.408 100.71 192.922 105.493 194.062 111.082C194.955 115.455 195.359 119.827 195.359 124.269C195.359 129.242 195.208 134.059 194.181 138.953C192.454 147.184 189.574 154.751 185.095 161.906C184.616 162.671 183.204 165.075 182.649 165.635C180.314 168.425 178.585 170.867 176.01 173.542C167.23 182.663 156.409 189.252 144.186 192.6C133.588 195.495 121.63 196.343 110.913 193.645C108.176 192.956 104.376 192.069 101.77 191.131C86.3936 185.614 73.2462 174.792 64.9755 160.705C60.9296 153.814 58.348 147.234 56.7075 139.419C55.6847 134.546 55.3594 129.799 55.3594 124.844C55.3594 120.028 55.611 115.416 56.656 110.68C58.7547 101.168 62.6785 91.0997 68.9077 83.5129C69.0623 83.0088 70.9006 80.8018 71.426 80.1494C78.617 71.2639 88.2547 64.4346 98.7919 60.0866C103.032 58.3368 106.893 57.2489 111.365 56.2602C112.89 55.9231 118.542 55.6181 119.486 55.0107Z" fill="#900C22"/>
<path d="M55.3594 124.845C59.4705 125.913 63.9931 127.565 68.0731 128.861L93.6401 137.039L155.68 156.911L176.576 163.599C178.592 164.244 180.642 165.025 182.649 165.635C180.314 168.425 178.585 170.867 176.01 173.542C167.23 182.664 156.409 189.252 144.186 192.601C130.234 196.411 115.4 196.032 101.77 191.132C86.3936 185.615 73.2462 174.792 64.9755 160.706C60.9296 153.814 58.348 147.235 56.7075 139.419C55.6847 134.546 55.3594 129.8 55.3594 124.845Z" fill="#21203B"/>
<path d="M139.153 56.2593C146.023 57.6694 152.445 59.9345 158.613 63.2964C171.952 70.4939 182.61 81.8054 189.003 95.548C191.408 100.71 192.922 105.493 194.062 111.082C194.955 115.455 195.359 119.827 195.359 124.268C193.932 124.016 189.699 122.52 188.1 122.021L168.079 115.573L96.9203 92.7715L77.7272 86.625C76.1582 86.1151 69.7578 84.2668 68.9077 83.5125C69.0623 83.0084 70.9006 80.8014 71.426 80.1489C78.617 71.2634 88.2547 64.4342 98.7919 60.0861C103.032 58.3364 106.893 57.2484 111.365 56.2597C120.266 54.2921 130.265 54.4346 139.153 56.2593Z" fill="#21203B"/>
</g>
<defs>
<clipPath id="clip0_83_567">
<rect width="140" height="140" fill="white" transform="translate(55.3594 55.0107)"/>
</clipPath>
</defs>
</svg>
