<svg width="250" height="250" viewBox="0 0 250 250" fill="none" xmlns="http://www.w3.org/2000/svg">
<rect width="250" height="250" fill="white"/>
<g clip-path="url(#clip0_83_576)">
<path d="M119.01 55.0107H121.182H131.728C132.792 55.2716 133.691 55.3865 134.78 55.5342C136.842 55.7089 139.72 56.3207 141.739 56.7852C156.247 60.2497 169.251 68.3008 178.82 79.7432C186.487 88.8324 191.709 99.7276 193.99 111.398C194.376 113.393 194.666 115.406 194.858 117.429C194.978 118.617 195.096 120.711 195.359 121.787V128.402C195.027 130.021 194.988 131.679 194.808 133.327C194.549 135.941 194.118 138.535 193.519 141.092C189.404 158.751 178.626 174.137 163.436 184.039C155.822 189.056 147.007 192.598 137.992 194.21C137.076 194.374 134.176 194.653 133.528 195.011H128.278H123.278H117.483C116.662 194.621 111.511 193.955 110.017 193.623C105.926 192.684 101.928 191.377 98.0716 189.718C81.0049 182.41 67.5323 168.633 60.6074 151.408C53.6351 133.859 53.9166 114.261 61.3899 96.9197C69.401 78.4849 84.9373 64.3739 104.056 58.1681C106.833 57.2791 109.63 56.6049 112.476 55.9875C114.236 55.6057 117.465 55.6798 119.01 55.0107Z" fill="#F8F8FA"/>
<path d="M119.01 55.0107H121.182C118.868 55.4571 116.862 55.7723 114.588 56.4448C105 59.2214 96.6768 65.245 91.0425 73.4839C84.6342 82.8785 82.2063 94.4284 84.2897 105.608C86.4063 116.913 92.9652 126.898 102.499 133.33C106.794 136.194 111.559 138.278 116.577 139.488C116.338 149.63 116.537 160.508 116.536 170.704L116.532 180.463C116.534 187.593 116.142 191.571 123.278 195.011H117.483C116.662 194.621 111.511 193.955 110.017 193.623C105.926 192.684 101.928 191.377 98.0716 189.718C81.0049 182.41 67.5323 168.633 60.6074 151.408C53.6351 133.859 53.9166 114.261 61.3899 96.9197C69.401 78.4849 84.9373 64.3739 104.056 58.1681C106.833 57.2791 109.63 56.6049 112.476 55.9875C114.236 55.6057 117.465 55.6798 119.01 55.0107Z" fill="#1A564A"/>
<path d="M134.779 55.5342C136.842 55.7089 139.719 56.3207 141.738 56.7852C156.247 60.2497 169.251 68.3008 178.82 79.7432C186.487 88.8324 191.708 99.7276 193.989 111.398C194.376 113.393 194.666 115.406 194.857 117.429C195.397 122.762 195.39 127.972 194.808 133.327C194.548 135.941 194.118 138.535 193.519 141.092C189.403 158.751 178.625 174.137 163.435 184.039C155.822 189.056 147.006 192.598 137.991 194.21C137.075 194.374 134.175 194.653 133.528 195.011H128.277C129.678 194.382 130.999 193.65 132.094 192.555C133.444 191.206 134.354 189.479 134.703 187.603C135.064 185.651 134.963 183.057 134.963 181.024L134.963 172.205L134.941 139.611C138.399 139.199 144.269 136.619 147.242 134.938C156.974 129.369 164.128 120.201 167.166 109.409C170.303 98.255 168.817 86.3077 163.043 76.262C156.662 65.0924 146.95 58.8672 134.779 55.5342Z" fill="#1A564A"/>
<path d="M123.472 74.3851C133.685 73.305 142.846 80.6961 143.949 90.9073C145.052 101.118 137.682 110.295 127.474 111.422C117.232 112.552 108.019 105.153 106.912 94.909C105.805 84.6651 113.225 75.4686 123.472 74.3851Z" fill="#C9C9CA"/>
<path d="M123.618 87.3743C126.444 86.6934 129.282 88.4471 129.938 91.2786C130.594 94.11 128.815 96.933 125.978 97.5635C123.176 98.1863 120.396 96.4345 119.748 93.6383C119.101 90.8423 120.828 88.0467 123.618 87.3743Z" fill="#1A564A"/>
</g>
<defs>
<clipPath id="clip0_83_576">
<rect width="140" height="140" fill="white" transform="translate(55.3594 55.0107)"/>
</clipPath>
</defs>
</svg>
