<svg width="250" height="250" viewBox="0 0 250 250" fill="none" xmlns="http://www.w3.org/2000/svg">
<rect width="250" height="250" fill="white"/>
<g clip-path="url(#clip0_83_579)">
<path d="M59.338 150.274C52.7875 134.226 53.0083 116.211 59.9501 100.329C60.8563 98.2173 61.9143 96.3528 63.0458 94.3622C69.0807 83.6462 77.9679 74.8127 88.7204 68.8429C94.2413 65.707 100.884 62.968 107.062 61.4775C122.432 57.9089 138.541 59.3688 153.018 65.6423C181.444 77.9425 199.238 109.759 191.57 140.423C190.613 144.253 189.886 147.48 188.274 151.163C182.032 165.438 171.144 177.182 157.38 184.482C140.579 193.347 120.948 194.564 102.775 189.548C99.0601 188.523 93.3585 185.926 89.8176 184.196L89.9412 183.795C93.6137 185.752 102.265 188.446 106.372 189.157C130.086 193.261 156.99 182.472 168.98 160.986C175.838 148.812 177.56 134.406 173.763 120.959C173.21 119.038 172.473 117.427 171.716 115.603C163.759 96.4471 145.088 83.972 124.697 81.3496C101.616 78.3813 76.3557 89.3994 64.8412 110.267C58.0224 122.413 56.4056 136.801 60.3584 150.157L59.8217 150.352L59.5638 150.167C59.3849 150.213 59.4341 150.164 59.338 150.274Z" fill="#70309F"/>
<path d="M123.52 119.143C123.352 118.787 112.768 162.439 113.754 165.617C116.206 173.519 130.382 159.119 131.827 157.228C130.873 159.91 131.427 161.263 128.951 163.507C125.466 166.666 122.311 169.428 117.978 171.393C117.109 171.743 116.224 172.035 115.328 172.307C112.444 173.183 109.302 173.676 106.526 172.145C104.671 171.122 103.926 169.262 103.697 167.248C103.372 164.38 104.107 161.141 104.641 158.316C105.688 152.777 110.732 133.214 109.465 129.09C109.217 128.282 108.773 127.529 108 127.129C106.165 126.179 100.384 127.666 98.4238 128.297C98.662 127.482 98.8818 126.627 99.1044 125.805C101.324 125.118 103.765 124.632 105.986 123.944C111.817 122.138 117.568 120.513 123.52 119.143Z" fill="black"/>
<path d="M130.423 94.5734L130.515 94.8345C129.011 97.5215 127.585 102.069 124.919 103.601C121.442 105.599 117.247 106.719 113.948 109.167L113.844 109.074C113.683 108.21 116.206 103.633 117.082 102.873C118.844 101.345 121.094 100.332 123.049 99.0856C125.502 97.5221 127.882 95.9892 130.423 94.5734Z" fill="black"/>
</g>
<defs>
<clipPath id="clip0_83_579">
<rect width="140" height="133.971" fill="white" transform="translate(53.8594 59.0254)"/>
</clipPath>
</defs>
</svg>
