<svg width="250" height="250" viewBox="0 0 250 250" fill="none" xmlns="http://www.w3.org/2000/svg">
<rect width="250" height="250" fill="white"/>
<path d="M194.834 58.761C194.834 58.761 176.664 77.7041 167.516 87.0176L139.103 116.336C135.46 120.105 131.62 123.873 128.04 127.719C129.75 129.466 131.172 130.698 132.919 132.349L140.561 139.605L186.563 183.02C189.315 185.606 192.54 188.883 195.375 191.265C193.15 191.118 190.646 191.191 188.395 191.202L159.208 191.205C155.007 191.2 148.855 191.395 144.831 191.153C142.986 189.551 141.056 187.555 139.313 185.81L130.667 177.169L98.2004 144.803L88.5027 135.178C87.1419 133.809 83.6508 130.149 82.3071 129.129C84.109 127.525 86.6925 124.773 88.4487 123.014C92.1848 119.264 95.9396 115.532 99.7131 111.82L137.427 74.4668L147.911 64.0045C149.525 62.4061 153.299 58.7761 153.299 58.7761L194.834 58.761Z" fill="#ED335B"/>
<path d="M55.375 58.7246L129.566 58.7348L100.048 88.0449L80.8993 107.137C77.4912 110.539 73.9379 113.953 70.6085 117.409C69.2632 115.833 66.7956 113.503 65.2659 111.976L55.4499 102.18L55.4341 73.8153C55.435 68.9897 55.5565 63.4929 55.375 58.7246Z" fill="#FED25A"/>
<path d="M56.4381 125.083C56.7127 125.259 58.3645 126.98 58.6604 127.281L64.1535 132.894L83.0953 152.178L111.645 181.143L118.43 187.961C119.11 188.643 121.096 190.559 121.533 191.202C120.034 191.33 116.856 191.23 115.269 191.226L103.235 191.222C87.7202 191.271 71.9258 191.059 56.4414 191.247L56.4381 125.083Z" fill="#F15D46"/>
</svg>
