<svg width="250" height="250" viewBox="0 0 250 250" fill="none" xmlns="http://www.w3.org/2000/svg">
<rect width="250" height="250" fill="white"/>
<path d="M176.847 170.577H195.008L174.006 135.572L141.741 113.658L176.847 170.577Z" fill="#282A67"/>
<path d="M141.842 113.758L124.798 137.305L147.431 170.577H176.855L141.842 113.758Z" fill="#2856A6"/>
<path d="M124.795 137.297L124.918 170.582H147.443L124.795 137.297Z" fill="#498FCC"/>
<path d="M124.918 170.579H102.577L124.797 137.297L124.918 170.579Z" fill="#60CBF4"/>
<path d="M76.0512 135.39L55.0078 170.578H72.3407L107.638 113.809L76.0512 135.39Z" fill="#282A67"/>
<path d="M102.567 170.58H72.3319L107.64 113.808L124.797 137.297L102.567 170.58Z" fill="#2856A6"/>
<path d="M125.006 53.4367L169.662 128.598L141.487 109.069L125.006 53.4367Z" fill="#7FD1F5"/>
<path d="M141.484 109.066L125.099 131.043L125 53.4199L141.484 109.066Z" fill="#DCF1FD"/>
<path d="M124.994 53.4304L80.1401 128.991L108.069 109.465L124.994 53.4304Z" fill="#7FD1F5"/>
<path d="M108.07 109.462L125.097 131.043L124.998 53.4245L108.07 109.462Z" fill="#BAE5FB"/>
</svg>
