<svg width="250" height="250" viewBox="0 0 250 250" fill="none" xmlns="http://www.w3.org/2000/svg">
<rect width="250" height="250" fill="#002F63"/>
<path fill-rule="evenodd" clip-rule="evenodd" d="M160.084 79.4204C162.69 84.7533 168.085 93.4171 171.216 98.8452L195 140.114C191.362 147.23 186.586 154.542 182.709 161.603C181.288 164.192 178.816 167.985 177.725 170.61L142.484 170.583C141.111 167.83 138.575 163.768 136.967 160.974L124.978 140.34C121.51 146.514 117.76 152.782 114.202 158.931C112.427 162.05 108.858 167.744 107.544 170.647C96.0447 170.402 83.8616 170.58 72.3169 170.585C71.7223 169.272 71.0415 168.181 70.3528 166.932C65.4365 158.017 59.646 149.194 55 140.17C57.5078 135.179 61.7922 128.287 64.6834 123.3L81.3034 94.434C83.455 90.7131 88.2627 82.9797 89.8911 79.4604L101.012 98.627C103.108 102.246 105.419 106.014 107.411 109.665C110.295 105.421 113.89 98.7247 116.547 94.144C118.988 89.9353 122.921 83.5746 125.004 79.3525L160.084 79.4204ZM142.379 110.226C138.701 116.473 135.065 122.745 131.471 129.04C129.463 132.539 127.175 136.773 124.964 140.067C130.924 140.015 136.884 140.005 142.843 140.038L159.91 140.03C158.285 137.224 143.133 110.58 142.379 110.226ZM107.284 110.194C101.964 120.029 95.6664 130.208 90.0995 140.033L107.705 140.052C113.374 140.041 119.229 140.106 124.882 140.014C123.229 137.163 108.063 110.535 107.284 110.194Z" fill="#FEFEFE"/>
</svg>
