<svg width="250" height="250" viewBox="0 0 250 250" fill="none" xmlns="http://www.w3.org/2000/svg">
<rect width="250" height="250" fill="white"/>
<path d="M124.767 55.3213C125.46 56.5367 126.62 57.9696 127.454 59.1419L168.865 117.252L172.451 122.253C172.905 122.895 173.992 124.542 174.493 125.049V125.472C174.212 125.749 173.137 127.323 172.87 127.701L169.868 131.903L159.953 145.839L124.658 195.321C124.163 194.707 123.718 194.024 123.255 193.382C121.335 190.719 119.451 188.029 117.538 185.361L78.1634 130.135C77.4621 129.163 75.1458 126.144 74.8252 125.211C75.0247 124.762 75.5933 124.008 75.8996 123.569C76.8452 122.214 77.826 120.878 78.7882 119.533L120.033 61.6653C121.538 59.5552 123.102 57.4569 124.56 55.3213H124.767Z" fill="#CFCFCE"/>
<path d="M131.895 115.131C132.128 115.125 132.777 115.094 132.976 115.115C132.972 116.01 132.956 116.925 133 117.817L134.954 117.77C134.982 121.487 134.99 125.203 134.977 128.92C134.975 130.234 134.926 131.695 134.95 132.986C134.473 132.982 133.57 132.995 133.127 132.94L132.989 133.021C132.955 133.545 132.885 135.079 133.092 135.512C133.176 135.533 133.285 135.565 133.367 135.58C133.212 135.649 131.715 135.628 131.449 135.552C129.351 135.561 127.17 135.594 125.078 135.516C125.067 134.648 125.08 133.782 125.117 132.915C125.786 132.95 126.456 132.973 127.126 132.981C127.151 130.488 127.159 127.994 127.149 125.5C127.145 123.977 127.159 121.819 127.03 120.309C126.598 121.161 126.354 122.033 126.005 122.905C124.633 126.333 123.642 130.399 122.09 133.704C121.476 133.737 120.861 133.751 120.246 133.745C120.034 133.015 119.714 132.288 119.444 131.57C119.084 130.59 118.731 129.606 118.386 128.62C117.691 126.644 117.062 124.702 116.289 122.75C115.943 121.877 115.697 121.024 115.311 120.139C115.195 121.55 115.218 123.202 115.222 124.625L115.25 130.513C115.256 131.258 115.306 132.263 115.278 132.984L117.314 132.953L117.307 135.569C115.958 135.55 114.585 135.566 113.232 135.555C112.476 135.548 111.003 135.507 110.277 135.593C109.981 135.63 109.686 135.694 109.402 135.61C109.383 134.771 109.482 133.912 109.422 133.061C109.236 132.942 109.095 132.977 108.845 132.964C108.554 133.004 107.75 132.983 107.42 132.983L107.387 117.793C108.043 117.83 108.747 117.795 109.439 117.831C109.379 116.958 109.404 116.043 109.413 115.165C109.776 115.185 109.994 115.1 110.246 115.12C112.043 115.179 115.149 114.984 116.812 115.183C117.306 116.361 117.775 117.883 118.161 119.116C119.119 122.172 120.396 125.25 121.336 128.295C122.894 124.425 124.124 120.245 125.558 116.314C125.697 115.934 125.845 115.484 125.957 115.095C127.018 115.182 128.39 115.135 129.475 115.144C130.046 115.149 131.369 115.179 131.895 115.131Z" fill="#CD9933"/>
<path d="M132.999 117.818L134.953 117.771C134.981 121.487 134.989 125.204 134.976 128.921C134.975 130.235 134.925 131.696 134.95 132.987C134.473 132.983 133.569 132.996 133.127 132.941C132.937 132.828 132.412 132.934 132.196 132.985C131.472 132.964 130.798 132.942 130.074 132.968C130.106 132.42 130.07 131.667 130.067 131.092L130.065 127.315C130.065 124.194 130.126 120.89 130.062 117.787C130.634 117.982 132.389 117.904 132.999 117.818Z" fill="#CFCFCE"/>
<path d="M107.387 117.793C108.043 117.831 108.747 117.796 109.439 117.831C109.728 117.937 109.968 117.883 110.265 117.811C110.924 117.799 111.584 117.794 112.244 117.795C112.284 122.861 112.279 127.926 112.23 132.992L110.994 132.963C110.641 132.847 109.222 132.867 108.845 132.964C108.554 133.005 107.75 132.983 107.42 132.983L107.387 117.793Z" fill="#CFCFCE"/>
<path d="M108.846 132.964C109.223 132.868 110.642 132.847 110.995 132.963C110.754 132.962 110.5 132.926 110.314 133.052C110.236 133.501 110.28 135.042 110.277 135.593C109.982 135.631 109.686 135.695 109.403 135.611C109.384 134.772 109.482 133.913 109.423 133.061C109.237 132.942 109.095 132.977 108.846 132.964Z" fill="#D4CDBC"/>
<path d="M131.895 115.131C132.127 115.126 132.777 115.095 132.975 115.116C132.971 116.011 132.956 116.925 132.999 117.818C132.389 117.904 130.634 117.982 130.062 117.787C130.342 117.749 131.826 117.794 132.195 117.798C132.153 117.03 132.296 116.029 132.166 115.29C132.149 115.193 132.019 115.178 131.895 115.131Z" fill="#D4CDBC"/>
<path d="M109.413 115.165C109.776 115.186 109.995 115.101 110.246 115.12C110.249 115.748 110.214 117.255 110.265 117.81C109.968 117.883 109.728 117.937 109.44 117.831C109.379 116.959 109.405 116.043 109.413 115.165Z" fill="#D4CDBC"/>
<path d="M132.196 132.984C132.412 132.933 132.937 132.827 133.127 132.94L132.989 133.02C132.955 133.544 132.885 135.078 133.092 135.512C133.176 135.533 133.285 135.565 133.367 135.579C133.212 135.649 131.715 135.627 131.449 135.552C131.739 135.554 131.854 135.553 132.147 135.508C132.209 135.377 132.193 133.318 132.196 132.984Z" fill="#D4CDBC"/>
<path d="M132.975 115.115C134.916 115.198 137.254 115.127 139.22 115.118L149.184 115.113C151.839 115.113 154.476 114.993 157.097 115.446C159.807 115.915 161.347 117.861 161.183 120.606C161.065 122.587 160.237 123.54 158.651 124.611C160.272 125.607 161.346 126.269 161.833 128.283C162.201 129.873 161.93 131.544 161.081 132.937C159.007 136.298 154.612 135.425 151.275 135.555C150.087 135.602 148.866 135.514 147.673 135.571C147.674 134.704 147.68 133.836 147.692 132.968C148.425 132.946 149.025 132.945 149.758 132.972L149.725 124.669C149.715 122.521 149.669 119.988 149.739 117.849L148.097 117.751L148.07 121.254C147.116 121.221 146.187 121.245 145.235 121.237C145.188 120.084 145.188 118.93 145.236 117.777C143.113 117.832 140.219 117.857 138.099 117.774L138.112 123.43C140.249 123.452 142.386 123.452 144.523 123.429C144.521 124.403 144.509 125.378 144.49 126.352C142.581 126.262 140.022 126.307 138.1 126.354C138.129 128.403 138.173 130.967 138.102 132.997L140.722 132.953L140.747 135.542C139.156 135.558 137.565 135.561 135.974 135.551C135.369 135.548 133.91 135.508 133.367 135.58C133.285 135.565 133.176 135.533 133.092 135.512C132.884 135.079 132.955 133.545 132.988 133.021L133.127 132.94C133.569 132.995 134.473 132.982 134.95 132.986C134.925 131.695 134.975 130.234 134.976 128.921C134.989 125.203 134.981 121.487 134.953 117.77L132.999 117.817C132.956 116.925 132.971 116.01 132.975 115.115Z" fill="#CD9933"/>
<path d="M152.846 126.059C155.725 126.081 159.308 126.023 158.721 130.304C158.628 130.978 158.26 131.495 157.778 131.961C156.436 133 154.518 132.966 152.879 132.982C152.852 130.674 152.841 128.366 152.846 126.059Z" fill="#CFCFCE"/>
<path d="M152.855 117.763C155.074 117.765 158.059 117.597 158.117 120.714C158.134 121.597 157.736 122.154 157.132 122.758C156.006 123.714 154.332 123.566 152.875 123.6C152.849 121.661 152.859 119.703 152.855 117.763Z" fill="#CFCFCE"/>
<path d="M103.277 115.066C105.125 115.183 107.501 115.118 109.413 115.165C109.404 116.043 109.379 116.958 109.439 117.831C108.747 117.795 108.043 117.83 107.387 117.793L107.42 132.983C107.75 132.983 108.554 133.004 108.845 132.964C109.095 132.977 109.236 132.942 109.422 133.061C109.482 133.912 109.383 134.771 109.402 135.61C108.745 135.515 107.543 135.546 106.835 135.546L102.405 135.551L102.333 132.972C103.043 132.959 103.753 132.954 104.463 132.955C104.394 132.035 104.458 130.69 104.442 129.725C104.39 126.558 104.575 123.23 104.35 120.086C103.712 121.456 102.869 124.025 102.348 125.507C101.387 128.249 100.403 130.982 99.3983 133.709C98.8308 133.742 97.6451 133.97 97.3826 133.367C96.9242 132.313 96.5422 131.21 96.1679 130.124C95.4896 128.165 94.7961 126.212 94.0875 124.265C93.6653 123.082 93.0968 121.302 92.5105 120.24C92.4488 121.495 92.5262 123.508 92.5297 124.833C92.5181 127.548 92.522 130.263 92.5415 132.977C93.2257 132.963 93.9322 132.977 94.6184 132.983C94.6051 133.834 94.6136 134.703 94.6128 135.555C92.5216 135.471 89.5575 135.527 87.4375 135.539C87.4504 134.673 87.4531 133.808 87.4454 132.942C88.0825 132.98 88.889 132.962 89.539 132.963C89.5648 127.921 89.5583 122.88 89.5195 117.839L87.4396 117.769L87.4632 115.127C89.4415 115.113 91.958 115.044 93.9029 115.149C94.5294 116.129 95.1239 118.385 95.5511 119.564C96.5953 122.448 97.5239 125.471 98.583 128.338C99.3553 126.323 99.9756 124.217 100.737 122.197C101.619 119.859 102.3 117.357 103.277 115.066Z" fill="#CD9933"/>
</svg>
