<svg width="250" height="250" viewBox="0 0 250 250" fill="none" xmlns="http://www.w3.org/2000/svg">
<rect width="250" height="250" fill="white"/>
<path d="M107.695 123.806C127.293 122.517 144.24 137.328 145.586 156.922C146.931 176.517 132.169 193.506 112.578 194.908C92.9082 196.315 75.8352 181.479 74.4841 161.805C73.133 142.131 88.0174 125.101 107.695 123.806ZM114.794 167.384C124.09 166.876 131.227 158.949 130.76 149.65C130.294 140.352 122.399 133.179 113.099 133.604C103.738 134.031 96.5098 141.987 96.9794 151.345C97.4488 160.704 105.438 167.897 114.794 167.384Z" fill="#02C85D"/>
<path d="M139.226 55.0084C158.9 54.5843 175.188 70.1991 175.593 89.8734C175.999 109.548 160.37 125.821 140.695 126.209C121.046 126.596 104.799 110.991 104.393 91.3425C103.988 71.694 119.578 55.4321 139.226 55.0084ZM135.092 120.449C144.437 120.034 151.677 112.123 151.264 102.778C150.852 93.4329 142.943 86.1908 133.598 86.6003C124.249 87.0101 117.003 94.9228 117.416 104.272C117.828 113.621 125.743 120.864 135.092 120.449Z" fill="#2940BE"/>
</svg>
