<svg width="250" height="250" viewBox="0 0 250 250" fill="none" xmlns="http://www.w3.org/2000/svg">
<rect width="250" height="250" fill="white"/>
<path d="M153.106 185.151H118.892V150.875C118.892 128.255 137.745 109.746 160.788 109.746H195.002V144.021C195.002 166.642 176.149 185.151 153.106 185.151Z" fill="#6E94E8"/>
<path d="M141.586 161.845H86.4236C68.9672 161.845 55.002 148.135 55.002 130.998V95.6949C55.002 78.5575 68.9672 64.8477 86.4236 64.8477H141.935C159.392 64.8477 173.357 78.5575 173.357 95.6949V131.341C173.008 148.135 159.043 161.845 141.586 161.845Z" fill="#034EA2"/>
<path d="M145.079 142.31C148.742 142.31 151.712 139.394 151.712 135.797C151.712 132.201 148.742 129.285 145.079 129.285C141.415 129.285 138.445 132.201 138.445 135.797C138.445 139.394 141.415 142.31 145.079 142.31Z" fill="white"/>
</svg>
