<svg width="250" height="250" viewBox="0 0 250 250" fill="none" xmlns="http://www.w3.org/2000/svg">
<rect width="250" height="250" fill="white"/>
<path d="M77.4737 169.606C68.4094 165.541 60.3352 158.092 56.8894 148.647C53.4273 139.158 54.759 128.801 59.1434 119.813C68.5653 100.498 87.9629 87.3877 107.706 80.2144C125.381 73.9117 146.289 71.7329 164.442 77.2034C166.159 77.7207 169.693 78.9399 171.309 79.7011C171.809 79.887 172.477 80.1445 172.919 80.4494C182.301 85.1697 189.914 91.9524 193.302 102.152C196.532 111.874 194.674 122.322 190.032 131.305C180.288 150.16 160.232 163.411 140.608 170.086C124.858 175.443 107.212 177.402 90.8988 174.011C88.2144 173.447 85.5687 172.713 82.9776 171.813C82.1132 171.508 79.8171 170.471 79.0795 170.341C78.5012 170.098 78.0268 169.898 77.4737 169.606Z" fill="#FEFEFE"/>
<path d="M77.4737 169.606C68.4094 165.541 60.3352 158.092 56.8894 148.647C53.4273 139.158 54.759 128.801 59.1434 119.813C68.5653 100.498 87.9629 87.3877 107.706 80.2144C125.381 73.9117 146.289 71.7329 164.442 77.2034C166.159 77.7207 169.693 78.9399 171.309 79.7011C169.72 81.4002 167.937 83.0009 166.246 84.5983L160.71 89.9097L145.964 104.002L99.9938 148.007L84.0327 163.258C82.8522 164.384 81.6613 165.563 80.4797 166.691C79.8328 167.309 77.8968 169.015 77.4737 169.606Z" fill="#3E4096"/>
<path d="M140.115 78.9357C141.173 78.8424 142.716 78.8708 143.81 78.8728C151.13 78.8394 158.379 80.3046 165.112 83.1779C159.507 88.2851 153.75 94.0469 148.227 99.3113L105.793 139.872C104.243 141.405 102.664 142.907 101.055 144.377C92.9953 139.633 86.1192 133.144 85.3239 123.234C84.6594 114.956 88.9881 106.677 94.32 100.622C103.592 90.0916 116.812 83.1717 130.43 80.1967C133.666 79.4954 136.837 79.1681 140.115 78.9357Z" fill="#FEFEFE"/>
<path d="M108.398 92.1582L108.449 92.1707C108.512 92.323 108.141 92.7163 108.031 92.8897C100.258 105.071 102.752 120.863 117.027 126.676C111.977 131.515 106.941 136.575 101.929 141.47C101.565 141.853 101.208 142.197 100.827 142.563C97.9907 139.975 96.2623 138.428 94.0141 135.314C82.4765 119.336 94.8628 101.786 108.398 92.1582Z" fill="#CD9A34"/>
<path d="M172.918 80.4492C182.3 85.1695 189.913 91.9522 193.301 102.151C196.531 111.874 194.673 122.321 190.031 131.305C180.287 150.159 160.231 163.41 140.607 170.086C124.857 175.443 107.211 177.402 90.8979 174.01C88.2135 173.447 85.5678 172.713 82.9767 171.813C82.1123 171.508 79.8162 170.471 79.0786 170.341C80.3201 169.105 81.9304 167.411 83.2336 166.32C84.5111 166.929 86.0967 167.444 87.4398 167.899C101.653 172.646 117.316 170.885 131.021 165.094C147.081 158.307 167.534 141.086 161.969 121.364C160.042 114.538 153.333 108.359 147.167 105.087C147.919 104.516 149.413 102.969 150.151 102.262C152.216 100.322 154.264 98.3632 156.294 96.3867C161.867 91.1068 167.408 85.7942 172.918 80.4492Z" fill="#3E4096"/>
<path d="M147.396 106.918C165.194 121.764 160.475 139.214 144.839 153.35C143.539 154.525 142.188 155.544 140.805 156.612L140.392 156.403C143.897 151.028 145.251 144.026 144.056 137.711C142.742 130.769 137.803 125.294 131.232 122.796C134.264 119.882 137.254 116.862 140.268 113.93L144.04 110.219C145.165 109.126 146.328 108.066 147.396 106.918Z" fill="#CD9A34"/>
</svg>
