<svg width="250" height="250" viewBox="0 0 250 250" fill="none" xmlns="http://www.w3.org/2000/svg">
<rect width="250" height="250" fill="white"/>
<path d="M58 102.813L70.3503 122.151C80.5104 122.237 97.6985 123.053 105.84 121.238C110.125 120.282 114.195 118.602 116.329 116.237C119.744 112.452 121.223 109.911 122.227 104.248C123.052 99.5929 122.526 96.7558 120.299 91.9023L112.97 81L89.8062 82.0397L102.274 100.713L58 102.813Z" fill="url(#paint0_linear_83_777)"/>
<path d="M198 102.813L185.649 122.151C175.489 122.237 158.301 123.053 150.16 121.238C145.875 120.282 141.804 118.602 139.67 116.237C136.256 112.452 134.776 109.911 133.773 104.248C132.948 99.5929 133.474 96.7558 135.701 91.9023L143.03 81L166.194 82.0397L153.725 100.713L198 102.813Z" fill="url(#paint1_linear_83_777)"/>
<path d="M126.886 187.003L107.548 174.652C107.463 164.492 106.647 147.304 108.462 139.163C109.418 134.878 111.097 130.807 113.463 128.673C117.248 125.259 119.788 123.779 125.451 122.776C130.107 121.951 132.944 122.477 137.797 124.703L148.7 132.032L147.66 155.196L128.987 142.728L126.886 187.003Z" fill="url(#paint2_linear_83_777)"/>
<defs>
<linearGradient id="paint0_linear_83_777" x1="58" y1="101.704" x2="197.998" y2="101.704" gradientUnits="userSpaceOnUse">
<stop stop-color="#0BA293"/>
<stop offset="1" stop-color="#06FFBF"/>
</linearGradient>
<linearGradient id="paint1_linear_83_777" x1="57.9936" y1="101.704" x2="197.991" y2="101.704" gradientUnits="userSpaceOnUse">
<stop stop-color="#0BA293"/>
<stop offset="1" stop-color="#06FFBF"/>
</linearGradient>
<linearGradient id="paint2_linear_83_777" x1="127.996" y1="187.003" x2="127.996" y2="122.407" gradientUnits="userSpaceOnUse">
<stop stop-color="#0BA293"/>
<stop offset="1" stop-color="#06FFBF"/>
</linearGradient>
</defs>
</svg>
