<svg width="250" height="250" viewBox="0 0 250 250" fill="none" xmlns="http://www.w3.org/2000/svg">
<rect width="250" height="250" fill="url(#paint0_linear_83_797)"/>
<path d="M69.4857 55.6224C71.9625 55.4543 75.322 55.5438 77.8373 55.5432L92.4121 55.5411L137.572 55.5418L165.781 55.5445C169.651 55.5448 177.795 55.298 181.14 55.9394C181.47 56.235 181.982 56.8383 182.008 57.2421C182.412 63.6752 182.202 72.4236 182.21 78.7097L182.206 148.667C182.206 152.353 182.712 175.743 181.75 177.528C180.066 179.034 170.174 181.641 167.341 182.48C162.176 184.357 156.208 185.926 150.91 187.563C142.254 190.238 133.532 193.007 124.828 195.498C121.77 194.734 118.124 193.54 115.058 192.616L98.499 187.642C94.2708 186.373 69.9443 179.536 67.7516 177.955C67.1269 175.403 67.3257 170.345 67.3259 167.488L67.3265 152.081C67.3268 143.016 66.9957 57.8158 67.5614 56.7676C67.9133 56.1154 68.8195 55.8089 69.4857 55.6224ZM72.7081 174.33C75.6417 174.969 79.4956 176.236 82.4347 177.117L98.8321 182.04L115.413 187.026C118.151 187.849 122.206 188.959 124.787 189.935C126.792 189.167 128.88 188.563 130.93 187.92C142.136 184.405 153.443 181.137 164.633 177.582C168.49 176.394 172.992 174.904 176.862 173.891C176.512 170.21 176.718 163.426 176.718 159.507L176.721 132.342L176.719 85.8542C176.719 77.7348 176.571 69.0203 176.766 60.9467L72.7222 60.9679C73.0578 82.0197 72.765 103.91 72.7613 125.055L72.7611 156.388C72.7622 162.238 72.869 168.506 72.7081 174.33Z" fill="white"/>
<path d="M131.151 66.3418C132.355 66.4809 134.456 66.4427 135.728 66.4571C135.824 69.5786 135.681 73.123 135.713 76.3197L135.865 109.289C137.307 107.488 138.552 105.975 140.102 104.264C139.966 99.2592 140.065 93.8425 140.052 88.8088L139.863 66.3714C141.237 66.4793 142.918 66.436 144.318 66.4362C144.133 77.3645 144.359 88.5943 144.324 99.5651C145.587 97.8649 147.268 95.957 148.654 94.3121C148.466 90.7881 148.557 86.7427 148.555 83.1693L148.476 66.3883C149.942 66.4798 151.335 66.4496 152.8 66.375C152.694 74.2336 153.082 81.7609 152.803 89.7707C154.76 87.0278 157.511 84.0001 159.727 81.4296C163.532 76.9543 167.402 72.5353 171.339 68.1746C171.348 70.3094 171.398 72.602 171.272 74.7186C170.48 75.9871 168.659 77.9628 167.621 79.1577L161.355 86.3601L140.51 110.454L104.742 151.759L93.1473 165.158C91.1822 167.426 88.5514 170.629 86.5048 172.682C85.1549 172.112 83.5747 171.729 82.1397 171.454C83.7303 168.808 88.136 164.088 90.2695 161.633C92.0112 159.628 95.1375 155.912 96.9899 154.173C95.1484 154.503 92.2602 154.438 90.3051 154.485C86.2808 154.582 82.2549 154.557 78.2287 154.745C78.2699 153.384 78.2018 151.719 78.1829 150.336C85.2259 150.623 93.5067 149.74 100.518 150.064C101.554 148.763 102.43 147.77 103.547 146.549C101.89 146.843 95.0366 146.875 92.9289 146.861C88.0598 146.831 83.0361 147.177 78.2456 147.177L78.1835 142.702C78.6901 142.761 79.1991 142.794 79.709 142.803C86.391 142.921 99.8337 142.418 106.981 142.348C107.124 142.347 110.126 138.883 110.837 138.201C105.75 138.474 100.459 138.347 95.3498 138.468C89.6376 138.605 83.9743 138.811 78.2601 138.796C78.2165 137.368 78.2359 135.896 78.2369 134.465C80.505 134.652 85.388 134.42 87.7855 134.372L104.117 134.086C106.953 134.021 112.139 133.644 114.605 134.336C113.395 133.343 111.058 130.935 109.84 129.765C107.243 129.697 103.805 129.868 101.144 129.921L78.2645 130.382L78.1944 125.978C84.0555 126.214 91.1226 125.622 97.0677 125.703C99.6003 125.738 102.847 125.401 105.297 125.76C104.043 124.358 102.114 122.549 100.75 121.202C98.963 121.456 95.6355 121.383 93.7611 121.432C88.5947 121.567 83.4062 121.452 78.2376 121.727L78.2326 117.363C81.8909 117.455 85.808 117.229 89.479 117.2C91.9813 117.18 93.9886 116.938 96.497 117.341C94.9858 116.012 93.2801 114.34 91.8714 112.907C88.1471 112.889 81.8662 112.88 78.2537 113.182L78.2308 108.681C81.1601 108.908 84.7575 108.442 87.4143 108.818C84.7225 106.296 80.8148 102.875 78.3917 100.287C78.1933 98.2448 78.2243 96.2903 78.2239 94.2412C79.5293 95.8452 85.4258 101.011 87.3266 102.816C97.2129 112.204 107.236 121.491 117.156 130.85C117.781 129.982 118.88 128.751 119.594 127.902C117.268 126.055 114.426 123.248 112.242 121.183L102.595 112.112L78.3225 89.3021C78.1323 87.3843 78.0984 85.4543 78.2211 83.5311C81.2387 86.054 83.8809 88.6916 86.7388 91.3917L97.2917 101.286C105.573 109.096 114.202 116.924 122.344 124.832C123.18 123.72 123.834 123.061 124.817 122.065L90.9871 90.2944C86.8121 86.3499 82.3374 82.3671 78.302 78.3228C78.124 76.3902 78.0978 74.4466 78.2237 72.5099C89.3142 82.5734 100.68 93.4367 111.601 103.753L121.366 112.903C123.51 114.921 125.409 116.852 127.658 118.782C128.49 117.63 129.082 116.867 130.174 115.962C128.689 114.866 127.018 113.138 125.629 111.837L117.761 104.472L92.4102 80.7007C90.6593 79.0658 78.177 67.5919 78.1507 66.8247C79.2454 66.2649 81.9354 66.4644 83.2528 66.5009C85.1521 67.6937 88.9343 71.6004 90.7672 73.2427C95.8858 77.8289 101.118 83.3526 106.242 87.8187C105.903 81.6387 106.121 72.8028 106.092 66.4218L110.476 66.4506C110.635 69.1688 110.526 73.3501 110.533 76.1288C110.587 81.3403 110.602 86.5519 110.578 91.7636C111.893 93.2702 113.143 94.3783 114.624 95.7074C114.344 93.8892 114.169 67.1286 114.394 66.3525C115.45 66.4836 117.584 66.4297 118.722 66.4323L118.786 88.4167C118.802 92.0914 118.971 95.9851 118.806 99.6337C120.274 100.939 121.823 102.461 123.261 103.822C122.792 101.602 122.963 92.7654 122.959 89.8271L122.729 66.3645C124.011 66.4704 125.831 66.4394 127.152 66.4558C127.324 68.586 127.222 71.7806 127.22 73.9794L127.259 85.6675C127.261 92.801 127.586 100.672 127.343 107.678C128.859 109.008 130.339 110.321 131.715 111.8C131.34 108.978 131.528 103.163 131.505 100.136L131.372 80.3555C131.363 75.897 131.483 70.7289 131.151 66.3418Z" fill="white"/>
<path d="M171.008 103.887L171.196 104.002C171.455 104.592 171.368 112.651 171.372 114.038L169.455 112.131C168.668 113.261 167.906 114.081 166.99 115.094C168.385 116.715 169.874 117.767 171.261 119.316C171.396 120.994 171.351 123.265 171.359 125.001C168.904 122.811 166.467 120.601 164.048 118.371C163.196 119.52 162.538 120.491 161.446 121.422C164.422 123.806 168.401 127.647 171.235 130.325C171.389 131.995 171.363 134.505 171.39 136.243L163.363 128.911C162.136 127.787 159.77 125.721 158.859 124.518C157.953 125.602 157.126 126.514 156.16 127.545C160.866 132.196 166.352 136.81 171.251 141.55C171.403 143.367 171.35 145.333 171.34 147.165C168.533 144.928 161.4 138.363 158.921 135.713C160.387 139.473 161.73 143.705 163.035 147.569C165.555 155.092 168.132 162.595 170.765 170.079C169.315 170.42 167.992 170.865 166.58 171.325C163.888 164.126 161.368 155.931 158.843 148.61L155.082 137.587C154.444 135.695 153.463 133.028 153.063 131.175C151.898 132.58 150.856 133.872 149.562 135.162C154.137 147.298 157.869 160.617 162.455 172.636C161.292 172.868 159.416 173.505 158.233 173.869C157.535 171.164 155.529 165.79 154.596 163.043C151.791 154.97 149.058 146.872 146.399 138.751C145.646 139.941 143.997 141.649 143.02 142.961C144.556 146.638 146.095 151.655 147.415 155.516L151.531 167.689C152.316 170.001 153.206 172.874 154.137 175.093C152.772 175.487 151.307 175.982 149.942 176.413L143.374 157.039C142.423 154.256 140.499 149.088 139.872 146.391C138.794 147.742 137.671 149.055 136.501 150.328C136.912 151.823 137.53 153.366 138.016 154.85C140.519 162.49 143.313 170.052 145.792 177.697L141.626 178.939L133.278 154.062C132.08 155.503 131.201 156.558 129.857 157.87C130.55 160.126 131.596 162.84 132.381 165.139L137.5 180.197C135.956 180.733 134.865 181.037 133.298 181.431C131.277 175.022 128.856 168.007 126.634 161.643C125.162 163.87 120.35 169.014 118.46 171.329C117.091 173.007 112.105 178.847 110.751 179.998C109.229 179.355 107.797 179.04 106.204 178.664C107.691 177.25 111.474 172.599 112.993 170.831L126.434 155.306L171.008 103.887Z" fill="white"/>
<path d="M171.023 80.3594C171.59 80.745 171.338 85.5966 171.329 86.5087C166.825 92.2504 160.433 99.2232 155.568 104.839L126.653 138.25L105.134 163.074C102.334 166.306 97.4991 172.332 94.6317 175.129C93.7128 174.749 92.4767 174.415 91.5003 174.124C91.0137 174.012 90.8986 173.963 90.4491 173.761L90.4355 173.523C91.7422 171.506 96.8817 165.875 98.7537 163.7L117.828 141.672L152.916 101.168C158.831 94.3437 164.937 87.0122 171.023 80.3594Z" fill="white"/>
<path d="M170.923 92.1992L171.229 92.4135C171.481 93.6194 171.332 96.9296 171.284 98.2842C170.481 99.6475 165.877 104.733 164.592 106.213L149.871 123.218L117.256 160.885L108.675 170.781C107.398 172.274 103.955 176.47 102.578 177.542C101.841 177.235 101.067 176.991 100.308 176.738C99.6103 176.615 99.0896 176.637 98.749 176.006C98.8781 174.682 100.879 173.185 101.782 172.143L109.925 162.6L134.527 134.173L157.184 108.005C161.635 102.845 166.35 97.2066 170.923 92.1992Z" fill="white"/>
<defs>
<linearGradient id="paint0_linear_83_797" x1="36.1279" y1="21.9181" x2="125" y2="250" gradientUnits="userSpaceOnUse">
<stop stop-color="#476EE2"/>
<stop offset="1" stop-color="#9308FF"/>
</linearGradient>
</defs>
</svg>
