<svg width="250" height="250" viewBox="0 0 250 250" fill="none" xmlns="http://www.w3.org/2000/svg">
<rect width="250" height="250" fill="white"/>
<path d="M69.2501 55.1559C84.4377 53.8245 102.991 63.1261 102.518 84.548C102.108 103.207 102.419 121.879 102.444 140.545C102.462 152.74 110.961 161.786 123.368 162.912C134.524 163.92 144.703 156.068 146.868 144.701C147.173 143.089 147.154 141.403 147.16 139.748C147.179 126.807 147.173 113.865 147.173 100.152C150.165 103.4 152.735 106.132 155.249 108.919C162.615 117.076 169.969 125.239 179.346 131.237C179.993 131.654 180.578 132.68 180.621 133.452C181.411 147.594 179.184 161.021 170.187 172.475C156.076 190.444 137.33 197.929 115.012 194.022C92.7874 190.127 77.7678 176.874 71.154 154.973C69.9158 150.867 69.3497 146.412 69.3248 142.113C69.1754 113.187 69.2501 84.2555 69.2501 55.1559Z" fill="#010101"/>
<path d="M142.515 75.4702C158.225 82.4885 168.647 95.5295 179.504 108.073C179.896 108.527 180.487 109.062 180.493 109.56C180.562 115.303 180.537 121.045 180.537 127.224C172.641 122.221 166.706 115.906 160.714 109.653C152.507 101.092 144.425 92.3999 135.951 84.1124C131.733 79.9873 126.544 77.1439 120.073 77.8221C128.242 68.3773 139.684 65.4717 150.523 70.81C158.182 74.5867 164.198 80.3855 169.978 86.4767C172.399 89.0276 174.682 91.703 176.966 94.3722C180.786 98.8333 180.767 98.8457 180.412 105.453C169.17 93.2958 158.916 80.3855 142.515 75.4702Z" fill="#12BE08"/>
<path d="M142.515 75.4702C158.225 82.4885 168.647 95.5295 179.504 108.073C179.896 108.527 180.487 109.062 180.493 109.56C180.562 115.303 180.537 121.045 180.537 127.224C172.641 122.221 166.706 115.906 160.714 109.653C152.507 101.092 144.425 92.3999 135.951 84.1124C131.733 79.9873 126.544 77.1439 120.073 77.8221C128.242 68.3773 139.684 65.4717 150.523 70.81C158.182 74.5867 164.198 80.3855 169.978 86.4767C172.399 89.0276 174.682 91.703 176.966 94.3722C180.786 98.8333 180.767 98.8457 180.412 105.453C169.17 93.2958 158.916 80.3855 142.515 75.4702Z" fill="url(#paint0_radial_83_808)"/>
<defs>
<radialGradient id="paint0_radial_83_808" cx="0" cy="0" r="1" gradientUnits="userSpaceOnUse" gradientTransform="translate(184.597 91.1111) rotate(37.1608) scale(59.7836 11.9377)">
<stop offset="0.0445145" stop-color="#119530"/>
<stop offset="1" stop-color="#119530" stop-opacity="0"/>
</radialGradient>
</defs>
</svg>
