<svg width="250" height="250" viewBox="0 0 250 250" fill="none" xmlns="http://www.w3.org/2000/svg">
<rect width="250" height="250" fill="white"/>
<path d="M157.334 149.971C154.93 150.098 151.59 149.991 149.104 149.99L117.824 149.987C115.015 149.988 112.141 150.042 109.341 149.918C106.119 149.774 102.247 148.93 99.9876 146.482C98.1388 144.479 97.08 141.642 95.8666 139.225C95.2455 137.988 94.6347 136.771 94.0543 135.512C92.4554 132.369 90.2199 128.945 86.5417 128.143C83.9981 127.589 80.7869 128.411 78.4008 127.586C77.0373 127.115 75.9193 126.117 75.2967 124.815C74.6817 123.523 74.6686 121.975 75.1527 120.639C75.6249 119.32 76.6123 118.248 77.8888 117.67C78.5546 117.368 79.271 117.192 80.0013 117.153C81.8004 117.049 84.7096 117.141 86.5661 117.142L109.77 117.14C111.842 117.138 114.345 117.051 116.371 117.292C118.713 117.567 120.976 118.305 123.029 119.464C126.248 121.257 128.56 123.818 130.249 127.005C130.515 127.508 131.198 128.942 131.659 129.115C132.152 128.968 133.129 126.346 133.394 125.734L135.918 119.934C136.148 119.403 136.886 117.542 137.19 117.306C137.535 117.037 141.336 117.141 141.889 117.141L168.566 117.152C171.871 117.035 174.445 119.624 174.335 122.839C174.279 124.486 172.584 127.831 171.882 129.46L168.342 137.69L164.763 145.94C164.22 147.183 163.578 148.767 162.984 149.96C161.418 150.032 158.914 150.025 157.334 149.971Z" fill="url(#paint0_linear_83_813)"/>
<path d="M129.724 193.138L129.654 193.118C128.556 192.803 127.416 192.719 126.182 192.327C121.548 190.865 117.651 187.683 115.294 183.434C114.84 182.624 114.462 181.738 114.065 180.894L112.182 176.955C110.269 172.87 109.353 170.674 105.681 167.828C101.871 164.874 98.5812 167.341 95.4476 165.396C94.6952 164.921 94.0742 164.265 93.6419 163.487C92.9337 162.235 92.7628 160.749 93.1678 159.369C93.5729 157.955 94.4323 156.849 95.7312 156.142C97.4633 155.199 99.591 155.461 101.533 155.461L144.964 155.463C146.449 155.463 152.828 155.331 153.941 155.667C155.341 156.102 156.513 157.072 157.2 158.368C158.629 161.048 157.28 163.3 156.23 165.781C155.376 167.809 154.512 169.833 153.637 171.852C152.67 174.128 151.685 176.398 150.683 178.659C148.198 184.277 146.185 188.106 140.452 191.115C138.988 191.883 137.722 192.339 136.098 192.704C135.587 192.818 134.291 193.004 133.885 193.138H129.724Z" fill="url(#paint1_linear_83_813)"/>
<path d="M55.4333 78.8633H99.6626C99.6836 78.8704 99.7046 78.8776 99.7256 78.8848C105.646 79.7332 110.954 83.1327 113.698 88.5238C114.507 90.1133 115.186 91.8023 115.905 93.4356L119.85 102.388L122.58 108.549C122.936 109.354 123.697 110.94 123.925 111.691C117.274 111.604 110.41 111.643 103.742 111.661C101.493 111.685 99.2441 111.693 96.9948 111.687C92.2213 111.68 86.8023 111.734 83.2573 108.015C81.8233 106.511 80.8925 104.688 80.101 102.788C78.2316 98.4444 76.9894 94.3925 72.9211 91.526C71.3077 90.3891 69.7291 89.6773 67.7102 89.6584C65.0903 89.6338 62.4619 89.6739 59.8441 89.6624C59.1564 89.6593 57.028 89.7094 56.4741 89.6126C55.7661 89.7023 54.3536 89.2799 53.7344 88.9016C51.9889 87.8353 51.5083 86.7053 51 84.8767V83.5663C51.8063 80.6244 52.5951 79.8576 55.4333 78.8633Z" fill="url(#paint2_linear_83_813)"/>
<path d="M146.335 78.8633H186.486C187.019 79.1292 187.506 79.1627 188.265 79.594C189.545 80.3293 190.477 81.5476 190.851 82.9759C191.067 83.8285 191.048 84.7235 190.796 85.5661C190.497 86.5676 189.441 88.8286 188.97 89.9297L184.812 99.56L181.351 107.54C180.89 108.609 180.073 110.714 179.518 111.645C178.795 111.719 176.78 111.662 175.984 111.661L148.399 111.668C145.574 111.673 142.315 111.594 139.528 111.668C140.113 109.985 141.237 107.606 141.968 105.904L147.658 92.6711C148.5 90.7246 149.826 87.9831 150.526 86.0703C151.024 84.6921 150.953 83.1722 150.33 81.8457C149.459 79.9862 148.079 79.5076 146.335 78.8633Z" fill="url(#paint3_linear_83_813)"/>
<path d="M51 121.775C52.4801 116.995 55.3756 117.022 59.7473 117.138C61.064 117.173 62.5214 117.063 63.8257 117.156C64.3041 117.189 64.7772 117.277 65.2356 117.418C66.6336 117.866 67.7961 118.852 68.4667 120.158C69.1665 121.508 69.2981 123.081 68.8322 124.528C68.3727 125.927 67.3724 127.084 66.0545 127.741C64.1111 128.721 61.1001 128.229 58.944 128.34C57.7159 128.403 55.8131 128.4 54.6716 128.005C53.2866 127.532 52.1525 126.518 51.528 125.194C51.3112 124.737 51.1528 124.212 51 123.727V121.775Z" fill="url(#paint4_linear_83_813)"/>
<defs>
<linearGradient id="paint0_linear_83_813" x1="58.6208" y1="123.138" x2="200.722" y2="123.138" gradientUnits="userSpaceOnUse">
<stop stop-color="#AC3880"/>
<stop offset="0.564545" stop-color="#DC2E44"/>
<stop offset="1" stop-color="#F79022"/>
</linearGradient>
<linearGradient id="paint1_linear_83_813" x1="58.6208" y1="123.138" x2="200.722" y2="123.138" gradientUnits="userSpaceOnUse">
<stop stop-color="#AC3880"/>
<stop offset="0.564545" stop-color="#DC2E44"/>
<stop offset="1" stop-color="#F79022"/>
</linearGradient>
<linearGradient id="paint2_linear_83_813" x1="58.6208" y1="123.138" x2="200.722" y2="123.138" gradientUnits="userSpaceOnUse">
<stop stop-color="#AC3880"/>
<stop offset="0.564545" stop-color="#DC2E44"/>
<stop offset="1" stop-color="#F79022"/>
</linearGradient>
<linearGradient id="paint3_linear_83_813" x1="58.6208" y1="123.138" x2="200.722" y2="123.138" gradientUnits="userSpaceOnUse">
<stop stop-color="#AC3880"/>
<stop offset="0.564545" stop-color="#DC2E44"/>
<stop offset="1" stop-color="#F79022"/>
</linearGradient>
<linearGradient id="paint4_linear_83_813" x1="58.6208" y1="123.138" x2="200.722" y2="123.138" gradientUnits="userSpaceOnUse">
<stop stop-color="#AC3880"/>
<stop offset="0.564545" stop-color="#DC2E44"/>
<stop offset="1" stop-color="#F79022"/>
</linearGradient>
</defs>
</svg>
