<svg width="250" height="250" viewBox="0 0 250 250" fill="none" xmlns="http://www.w3.org/2000/svg">
<rect width="250" height="250" fill="#006A37"/>
<path d="M85.6804 65.3841C88.904 65.1793 93.8543 65.322 97.1629 65.3191L119.448 65.3176L181.147 65.3282C179.42 67.1348 176.462 71.2445 174.829 73.3603L164.871 86.1043L135.826 123.623C131.077 129.731 125.453 137.463 120.478 143.231C123.815 143.481 127.493 143.312 130.905 143.48C137.563 143.863 144.131 145.206 150.405 147.468C164.139 152.32 176.148 161.092 184.948 172.699C186.78 175.141 188.697 177.877 190 180.622C179.656 180.729 169.31 180.753 158.966 180.693C156.995 179.099 155.226 177.791 153.173 176.313C137.664 165.525 115.993 165.048 99.8074 174.494C96.7052 176.304 93.9664 178.552 91.1108 180.711C80.7401 180.753 70.3696 180.696 60 180.543C63.1226 176.65 66.2553 172.215 69.3677 168.225C82.0182 152.159 94.5596 136.009 106.991 119.774L121.782 100.798C123.919 98.0881 128.902 92.086 130.431 89.4055C115.822 89.6038 101.211 89.6378 86.6011 89.5076C80.757 89.4858 72.9296 89.049 67.3597 89.4213C68.8916 86.66 71.0583 84.2837 72.8835 81.767C76.821 76.3377 81.8405 70.7391 85.6804 65.3841Z" fill="#8BBB1D"/>
</svg>
