<svg width="250" height="250" viewBox="0 0 250 250" fill="none" xmlns="http://www.w3.org/2000/svg">
<rect width="250" height="250" fill="#FECB32"/>
<path fill-rule="evenodd" clip-rule="evenodd" d="M56.7681 93.515L55 100.349L90.2021 85.0724L56.7681 93.515Z" fill="#FF7200"/>
<path d="M56.6758 112.711V117.137H68.1783V102.249L56.6758 112.711Z" fill="#D43264"/>
<path d="M56.6758 112.727V117.137H66.0842V104.959L56.6758 112.727Z" fill="#FF7200"/>
<path d="M144.782 82.8087C145.458 82.6242 146.749 82.4396 148.656 82.4396C153.329 82.4396 155.973 84.7158 155.973 88.53C155.973 92.775 152.899 95.2974 147.918 95.2974C146.565 95.2974 145.581 95.2359 144.782 95.0513V82.8087ZM135.496 117.137H144.782V102.311C145.642 102.434 146.749 102.495 147.979 102.495C153.514 102.495 158.249 101.142 161.446 98.1273C163.906 95.7894 165.259 92.3443 165.259 88.284C165.259 84.2238 163.475 80.7786 160.831 78.687C158.064 76.4722 153.944 75.3647 148.164 75.3647C142.445 75.3647 138.386 75.7339 135.496 76.226V117.137Z" fill="#005EC2"/>
<path d="M192.065 91.9751H176.815V83.3624H192.987V75.6722H167.406V117.137H193.848V109.447H176.815V99.6036H192.065V91.9751Z" fill="#005EC2"/>
<path d="M56.6758 75.6722V98.6246L62.4198 96.2965L90.2325 85.0238C87.328 87.4216 84.4234 89.8195 81.519 92.2173V117.137H90.866V75.6722H81.519C81.519 78.4355 81.519 81.1988 81.519 83.9621C81.519 85.4451 80.7868 87.4216 77.4493 88.0539L66.0843 90.2075V75.6722H56.6758Z" fill="#005EC2"/>
<path fill-rule="evenodd" clip-rule="evenodd" d="M112.98 76.1013C124.802 76.1013 134.386 85.6892 134.386 97.5165C134.386 109.344 124.802 118.932 112.98 118.932C101.158 118.932 91.5742 109.344 91.5742 97.5165C91.5742 85.6892 101.158 76.1013 112.98 76.1013ZM112.98 86.5281C119.046 86.5281 123.963 91.4478 123.963 97.5165C123.963 103.585 119.046 108.505 112.98 108.505C106.914 108.505 101.996 103.585 101.996 97.5165C101.996 91.4478 106.914 86.5281 112.98 86.5281Z" fill="#005EC2"/>
<path d="M57.9062 129.05V123.876H59.8829C60.2302 123.876 60.4958 123.893 60.6799 123.925C60.9371 123.967 61.1528 124.048 61.3271 124.166C61.5014 124.285 61.6415 124.452 61.7476 124.665C61.8536 124.878 61.906 125.113 61.906 125.369C61.906 125.808 61.7646 126.18 61.4807 126.483C61.198 126.788 60.6849 126.94 59.9441 126.94H58.6011V129.05H57.9065H57.9062ZM58.6009 126.333H59.9536C60.4022 126.333 60.7189 126.251 60.9078 126.086C61.0954 125.921 61.1893 125.69 61.1893 125.39C61.1893 125.174 61.1344 124.989 61.0235 124.835C60.9128 124.68 60.7664 124.578 60.5861 124.529C60.469 124.499 60.2534 124.483 59.9401 124.483H58.6008L58.6009 126.333ZM66.5911 129.05L68.5995 123.876H69.3612L71.4927 129.05H70.7041L70.0985 127.482H67.8939L67.3261 129.05H66.5911ZM68.0974 126.926H69.8815L69.3356 125.491C69.1711 125.055 69.0468 124.695 68.9602 124.411C68.8883 124.748 68.7921 125.079 68.6714 125.407L68.0974 126.926ZM77.8999 129.05V126.858L75.8817 123.876H76.7153L77.7499 125.442C77.9425 125.732 78.1216 126.022 78.285 126.312C78.4446 126.041 78.6384 125.738 78.8639 125.401L79.8778 123.876H80.6858L78.5945 126.858V129.05H77.8999ZM86.2107 129.05V123.876H87.2491L88.4872 127.539C88.6018 127.879 88.6847 128.135 88.7371 128.305C88.7968 128.117 88.8905 127.84 89.0173 127.475L90.2774 123.876H91.2049V129.05H90.5395V124.722L89.0112 129.05H88.3873L86.8762 124.642V129.05L86.2107 129.05ZM97.255 129.05V123.876H101.035V124.483H97.9496V126.073H100.838V126.68H97.9496V128.443H101.16V129.05H97.255ZM107.034 129.05V123.876H107.746L110.493 127.937V123.876H111.158V129.05H110.447L107.7 124.989V129.05H107.034ZM118.577 129.05V124.483H116.852V123.876H120.997V124.483H119.272V129.05H118.577ZM130.342 127.388L130.993 127.33C131.023 127.59 131.095 127.804 131.208 127.971C131.322 128.137 131.497 128.272 131.735 128.376C131.972 128.478 132.24 128.53 132.538 128.53C132.802 128.53 133.035 128.491 133.237 128.413C133.44 128.335 133.589 128.228 133.688 128.092C133.787 127.955 133.837 127.807 133.837 127.648C133.837 127.487 133.789 127.346 133.694 127.224C133.599 127.104 133.442 127.003 133.223 126.92C133.083 126.867 132.772 126.782 132.29 126.668C131.809 126.553 131.473 126.446 131.28 126.345C131.03 126.215 130.845 126.054 130.723 125.862C130.6 125.671 130.539 125.455 130.539 125.218C130.539 124.955 130.615 124.711 130.765 124.484C130.914 124.257 131.133 124.084 131.422 123.966C131.709 123.848 132.03 123.789 132.382 123.789C132.769 123.789 133.112 123.851 133.408 123.975C133.704 124.098 133.932 124.279 134.092 124.52C134.251 124.76 134.337 125.032 134.349 125.336L133.683 125.386C133.648 125.06 133.527 124.813 133.321 124.647C133.115 124.479 132.811 124.396 132.409 124.396C131.989 124.396 131.684 124.472 131.492 124.624C131.301 124.776 131.205 124.959 131.205 125.173C131.205 125.359 131.273 125.512 131.408 125.632C131.542 125.751 131.89 125.875 132.453 126.001C133.016 126.127 133.402 126.237 133.612 126.331C133.915 126.469 134.141 126.644 134.285 126.857C134.43 127.069 134.502 127.313 134.502 127.59C134.502 127.866 134.423 128.124 134.264 128.367C134.104 128.611 133.876 128.8 133.577 128.935C133.279 129.07 132.944 129.137 132.57 129.137C132.097 129.137 131.701 129.068 131.381 128.932C131.061 128.796 130.811 128.592 130.629 128.317C130.447 128.043 130.351 127.734 130.342 127.388V127.388ZM140.384 129.05V123.876H144.165V124.483H141.079V126.073H143.967V126.68H141.079V128.443H144.289V129.05H140.384ZM150.186 129.05V123.876H152.506C152.973 123.876 153.328 123.923 153.57 124.016C153.813 124.108 154.006 124.272 154.151 124.507C154.296 124.742 154.368 125.002 154.368 125.286C154.368 125.654 154.248 125.963 154.008 126.215C153.767 126.466 153.397 126.625 152.895 126.694C153.079 126.781 153.218 126.868 153.313 126.952C153.515 127.135 153.707 127.365 153.886 127.641L154.791 129.05H153.926L153.234 127.973C153.033 127.661 152.866 127.424 152.735 127.259C152.604 127.094 152.487 126.98 152.383 126.913C152.281 126.848 152.175 126.803 152.068 126.776C151.99 126.76 151.862 126.752 151.682 126.752H150.881V129.05L150.186 129.05ZM150.88 126.16H152.367C152.684 126.16 152.93 126.127 153.108 126.062C153.286 125.998 153.422 125.894 153.513 125.751C153.605 125.609 153.652 125.455 153.652 125.288C153.652 125.043 153.563 124.841 153.384 124.683C153.204 124.525 152.922 124.447 152.535 124.447H150.881L150.88 126.16ZM161.736 129.05L159.713 123.876H160.464L161.824 127.636C161.932 127.937 162.025 128.219 162.098 128.483C162.178 128.2 162.272 127.918 162.379 127.636L163.79 123.876H164.497L162.456 129.05H161.736ZM170.162 129.05V123.876H171.289V129.05H170.162ZM180.73 127.235L181.425 127.408C181.28 127.971 181.019 128.399 180.642 128.694C180.266 128.989 179.805 129.137 179.261 129.137C178.697 129.137 178.239 129.024 177.886 128.796C177.532 128.57 177.264 128.241 177.08 127.811C176.896 127.38 176.804 126.918 176.804 126.425C176.804 125.886 176.907 125.417 177.116 125.015C177.324 124.614 177.62 124.31 178.004 124.101C178.388 123.893 178.811 123.789 179.271 123.789C179.795 123.789 180.235 123.92 180.591 124.184C180.948 124.448 181.197 124.818 181.337 125.295L180.657 125.454C180.536 125.078 180.36 124.803 180.129 124.632C179.899 124.46 179.609 124.375 179.259 124.375C178.858 124.375 178.522 124.47 178.252 124.66C177.983 124.85 177.793 125.107 177.685 125.427C177.575 125.749 177.52 126.08 177.52 126.421C177.52 126.86 177.585 127.245 177.714 127.572C177.843 127.901 178.044 128.146 178.317 128.308C178.59 128.471 178.885 128.551 179.203 128.551C179.591 128.551 179.917 128.441 180.185 128.22C180.453 127.999 180.635 127.671 180.73 127.235L180.73 127.235ZM187.22 129.05V123.876H191.001V124.483H187.915V126.073H190.803V126.68H187.915V128.443H191.125V129.05H187.22Z" fill="#4B4B4D"/>
<path d="M55.4844 174.635H70.9546C79.4815 174.635 86.5465 171.092 86.5465 162.906C86.5465 157.652 83.7449 154.72 78.1416 153.62V153.376C82.7705 152.154 84.7194 148.244 84.7194 144.823C84.7194 137.004 78.0198 134.927 69.7365 134.927H55.4844V174.635ZM65.9603 150.566V142.991H69.4928C72.9036 142.991 74.4872 143.968 74.4872 146.412C74.4872 148.855 72.9036 150.566 69.4928 150.566H65.9603ZM65.9603 166.571V157.896H70.2238C74.3654 157.896 76.3143 159.118 76.3143 162.05C76.3143 164.983 74.3653 166.571 70.2238 166.571H65.9603ZM100.092 158.08L100.762 155.331C101.688 151.531 102.711 146.778 103.563 142.746H103.807C104.782 146.717 105.805 151.532 106.731 155.331L107.401 158.08H100.092ZM111.238 174.635H122.322L110.263 134.927H97.5945L85.5351 174.635H96.2546L98.2035 166.205H109.288L111.237 174.635H111.238ZM124.978 174.635H134.967V163.15C134.967 158.263 134.114 152.521 133.627 148H133.871L137.647 156.858L146.418 174.635H157.137V134.927H147.148V146.412C147.148 151.296 148.001 157.285 148.488 161.562H148.245L144.468 152.643L135.698 134.927H124.978V174.635ZM160.528 174.635H171.004V164.738L174.78 159.363L183.55 174.635H195.001L180.87 151.054L192.686 134.927H181.236L171.247 149.71H171.004V134.927H160.528V174.635Z" fill="#005EC2"/>
</svg>
