<svg width="250" height="250" viewBox="0 0 250 250" fill="none" xmlns="http://www.w3.org/2000/svg">
<mask id="path-1-inside-1_769_624" fill="white">
<path d="M0 48C0 21.4903 21.4903 0 48 0H202C228.51 0 250 21.4903 250 48V202C250 228.51 228.51 250 202 250H48C21.4903 250 0 228.51 0 202V48Z"/>
</mask>
<path d="M0 48C0 21.4903 21.4903 0 48 0H202C228.51 0 250 21.4903 250 48V202C250 228.51 228.51 250 202 250H48C21.4903 250 0 228.51 0 202V48Z" fill="white"/>
<path d="M48 0V2H202V0V-2H48V0ZM250 48H248V202H250H252V48H250ZM202 250V248H48V250V252H202V250ZM0 202H2V48H0H-2V202H0ZM48 250V248C22.5949 248 2 227.405 2 202H0H-2C-2 229.614 20.3858 252 48 252V250ZM250 202H248C248 227.405 227.405 248 202 248V250V252C229.614 252 252 229.614 252 202H250ZM202 0V2C227.405 2 248 22.5949 248 48H250H252C252 20.3858 229.614 -2 202 -2V0ZM48 0V-2C20.3858 -2 -2 20.3858 -2 48H0H2C2 22.5949 22.5949 2 48 2V0Z" fill="#DDDBDB" mask="url(#path-1-inside-1_769_624)"/>
<g clip-path="url(#clip0_769_624)">
<path d="M28.2955 117.419C26.0984 119.336 24.9999 121.863 24.9999 125.001C24.9999 128.138 26.0984 130.656 28.2955 132.554C30.4192 134.413 33.1154 135.342 36.384 135.342C38.9595 135.342 41.007 134.807 42.5264 133.735V129.565C41.0746 130.862 39.281 131.511 37.1457 131.511C35.215 131.511 33.6087 130.905 32.3267 129.692C31.0448 128.48 30.4057 126.916 30.4096 125.001C30.4096 123.07 31.0486 121.501 32.3267 120.295C33.6048 119.088 35.2111 118.487 37.1457 118.491C39.2868 118.491 41.0803 119.139 42.5264 120.437V116.237C41.007 115.183 38.9595 114.657 36.384 114.659C33.1154 114.659 30.4192 115.579 28.2955 117.419Z" fill="#231F20"/>
<path d="M63.5976 117.526C61.5009 115.595 58.7913 114.63 55.4686 114.63C52.2 114.63 49.5086 115.607 47.3946 117.561C45.2805 119.514 44.2186 121.994 44.209 125C44.209 128.006 45.2612 130.486 47.3656 132.44C49.47 134.394 52.1508 135.371 55.4078 135.371C59.0529 135.371 61.918 134.271 64.0031 132.072C65.8133 130.169 66.7962 127.626 66.7369 125C66.7388 121.948 65.6924 119.457 63.5976 117.526ZM59.6649 129.622C59.1419 130.214 58.4944 130.683 57.7689 130.995C57.0434 131.307 56.2578 131.454 55.4686 131.427C54.6809 131.448 53.8982 131.294 53.1768 130.977C52.4553 130.66 51.8128 130.188 51.2955 129.593C50.2066 128.371 49.6621 126.84 49.6621 125C49.6621 123.12 50.1979 121.575 51.2694 120.367C51.7929 119.775 52.4408 119.306 53.1668 118.994C53.8929 118.682 54.6789 118.535 55.4686 118.563C56.2578 118.535 57.0434 118.683 57.7689 118.995C58.4944 119.307 59.1419 119.775 59.6649 120.367C60.7364 121.568 61.2722 123.112 61.2722 125C61.2722 126.889 60.7364 128.429 59.6649 129.622Z" fill="#231F20"/>
<path d="M83.9072 129.029C82.7025 127.077 81.7632 125.875 81.0894 125.423C81.9787 125.056 82.7317 124.422 83.244 123.607C83.7696 122.814 84.0487 121.883 84.0462 120.931C84.0462 119.146 83.4458 117.731 82.2449 116.689C81.044 115.646 79.4464 115.125 77.452 115.125H67.6752V115.756C68.9147 116.171 69.5344 117.523 69.5344 119.811V126.399V130.164C69.5344 132.456 68.9147 133.807 67.6752 134.218V134.838H74.6255V126.776H75.4943C76.0489 126.766 76.5884 126.956 77.0147 127.311C77.6519 127.856 78.4772 129.003 79.4908 130.752L81.8713 134.835H87.3013L84.5675 130.129L83.9072 129.029ZM78.1587 122.947C77.5936 123.422 76.8685 123.664 76.1315 123.622H74.6371V118.519H76.1315C76.8685 118.477 77.5936 118.719 78.1587 119.194C78.4083 119.438 78.6029 119.733 78.7292 120.059C78.8556 120.384 78.9109 120.733 78.8913 121.082C78.9094 121.427 78.8533 121.771 78.7269 122.093C78.6005 122.414 78.4068 122.704 78.1587 122.944V122.947Z" fill="#231F20"/>
<path d="M106.244 117.526C104.151 115.595 101.441 114.63 98.115 114.63C94.8464 114.63 92.155 115.607 90.0409 117.561C87.9269 119.514 86.865 121.994 86.8553 125C86.8553 128.006 87.9076 130.486 90.012 132.44C92.1164 134.394 94.7933 135.371 98.0426 135.371C101.69 135.371 104.555 134.271 106.638 132.072C108.448 130.169 109.431 127.626 109.372 125C109.381 121.948 108.339 119.457 106.244 117.526ZM102.323 129.622C101.785 130.193 101.135 130.648 100.414 130.958C99.6933 131.267 98.9165 131.426 98.1318 131.423C97.3472 131.42 96.5715 131.257 95.8528 130.942C95.134 130.627 94.4876 130.168 93.9534 129.593C92.8626 128.371 92.3172 126.84 92.3172 125C92.3172 123.12 92.8529 121.575 93.9245 120.367C94.4655 119.797 95.1169 119.344 95.8387 119.034C96.5606 118.724 97.338 118.564 98.1236 118.564C98.9093 118.564 99.6867 118.724 100.409 119.034C101.13 119.344 101.782 119.797 102.323 120.367C103.39 121.568 103.925 123.112 103.927 125C103.929 126.889 103.394 128.429 102.323 129.622Z" fill="#231F20"/>
<path d="M126.423 126.689L116.701 115.137H110.33V115.756C111.57 116.172 112.189 117.523 112.189 119.811V134.835H116.979V122.739L127.159 134.835H131.213V115.143H126.423V126.689Z" fill="#231F20"/>
<path d="M223.161 130.847V115.137H218.371V126.689L208.649 115.137H202.278V115.756C203.517 116.172 204.137 117.523 204.137 119.811V134.835H208.927V122.739L219.109 134.835H224.997V134.216C223.887 133.845 223.275 132.722 223.161 130.847Z" fill="#231F20"/>
<path d="M140.657 115.137L132.794 134.829H137.694L139.215 130.601H146.846L148.465 134.829H154.013L145.905 115.137H140.657ZM140.431 127.283L142.487 121.58C142.671 121.038 142.81 120.482 142.904 119.918H142.959C143.053 120.484 143.193 121.042 143.376 121.586L145.569 127.274L140.431 127.283Z" fill="#231F20"/>
<path d="M151.369 118.684V120.546H151.989C152.402 119.303 153.754 118.682 156.043 118.684H157.225V134.835H162.325V118.684H168.328V115.137H151.369V118.684Z" fill="#231F20"/>
<path d="M170.975 134.835H177.926V134.216C176.798 133.839 176.184 132.688 176.084 130.761V119.814C176.084 117.524 176.703 116.162 177.943 115.728V115.148H170.993L170.975 134.835Z" fill="#231F20"/>
<path d="M198.18 117.526C196.093 115.595 193.39 114.63 190.071 114.63C186.789 114.63 184.095 115.607 181.989 117.561C179.882 119.514 178.82 121.994 178.803 125C178.803 128.006 179.855 130.486 181.96 132.44C184.064 134.394 186.741 135.371 189.99 135.371C193.635 135.371 196.5 134.271 198.586 132.072C200.397 130.17 201.38 127.627 201.319 125C201.329 121.948 200.283 119.457 198.18 117.526ZM194.25 129.631C193.712 130.202 193.063 130.657 192.342 130.966C191.621 131.276 190.844 131.435 190.059 131.432C189.275 131.429 188.499 131.265 187.78 130.951C187.061 130.636 186.415 130.177 185.881 129.602C184.792 128.38 184.248 126.849 184.248 125.009C184.248 123.129 184.782 121.584 185.852 120.376C186.393 119.806 187.044 119.352 187.766 119.043C188.488 118.733 189.266 118.573 190.051 118.573C190.837 118.573 191.614 118.733 192.336 119.043C193.058 119.352 193.709 119.806 194.25 120.376C195.322 121.576 195.858 123.121 195.858 125.009C195.858 126.897 195.326 128.435 194.262 129.622L194.25 129.631Z" fill="#231F20"/>
</g>
<defs>
<clipPath id="clip0_769_624">
<rect width="200" height="20.7411" fill="white" transform="translate(24.9999 114.63)"/>
</clipPath>
</defs>
</svg>
