<svg width="250" height="250" viewBox="0 0 250 250" fill="none" xmlns="http://www.w3.org/2000/svg">
<rect width="250" height="250" fill="white"/>
<path d="M82.8595 106.493V113.263C82.8595 113.263 77.0536 113.122 75.836 113.169C74.1973 113.216 74.5251 115.379 74.5251 115.379L74.4314 124.123H82.7191V131.504H74.291V159.76H60.01V131.504H55V124.123H60.4314V112.229C60.4314 112.229 59.9164 106.822 66.1906 106.681C72.4649 106.54 82.8595 106.493 82.8595 106.493Z" fill="#0D3A94"/>
<path d="M106.878 126.945H117.226C118.162 126.945 118.912 127.274 118.912 126.333L118.771 115.52C118.771 115.379 118.771 115.285 118.724 115.144C118.49 114.157 117.835 108.891 110.39 107.199C110.249 107.152 110.156 107.105 110.015 107.105C108.47 106.916 98.3564 105.741 93.8615 107.152C90.9584 108.045 89.2259 109.361 87.8213 110.772C86.557 112.041 85.3865 114.063 85.293 115.849L85.3865 126.192C85.1992 127.462 86.4166 129.342 88.1023 130.659C90.4902 132.492 94.8447 134.89 100.791 137.664C100.791 137.664 104.116 138.698 104.303 140.814C104.443 142.506 104.818 148.195 104.818 150.311C104.818 150.922 104.49 151.486 103.975 151.768C103.32 152.144 102.29 152.379 101.119 151.815C100.604 151.533 100.229 150.969 100.229 150.358L99.9484 140.062C99.9015 139.168 99.9484 138.369 99.0589 138.369L86.4635 138.228C85.5738 138.228 85.3396 137.899 85.3396 138.792L85.6206 151.58C85.6206 151.768 85.6675 151.909 85.7144 152.097C86.1358 153.367 88.2895 158.914 94.3298 159.431C100.744 159.996 108.096 159.761 109.079 159.713C109.172 159.713 109.219 159.713 109.313 159.713C110.249 159.525 116.664 159.149 118.865 153.367C118.912 153.226 118.959 153.038 119.005 152.896C119.146 151.251 119.333 142.271 119.005 138.839C119.005 138.792 119.005 138.698 119.005 138.651C118.865 137.946 118.162 133.903 111.326 131.082C111.326 131.082 102.851 127.415 100.51 125.346C100.136 125.017 99.6676 124.077 99.6676 123.607L99.7142 115.802C100.089 114.204 101.166 114.674 102.617 114.674C104.069 114.674 104.912 115.896 104.912 117.354L105.052 126.239C105.005 127.086 105.989 126.945 106.878 126.945Z" fill="#0D3A94"/>
<path d="M141.997 158.114C141.997 158.114 135.301 160.606 129.87 159.478C125.281 158.49 123.268 155.435 122.378 153.977C122.097 153.507 122.004 151.532 122.004 150.968L121.91 113.028C121.91 111.711 122.378 110.442 123.268 109.502C124.766 107.903 127.435 105.788 130.76 106.07C136.004 106.493 141.107 107.292 141.107 107.292L140.686 114.579C140.686 114.579 137.081 113.545 136.612 114.908C135.629 117.729 135.957 150.122 135.957 150.122C135.957 150.122 136.753 152.943 139.328 151.485C141.903 150.028 141.997 151.062 141.997 151.062V158.114Z" fill="#0D3A94"/>
<path d="M156.888 81.7157L140.922 93.8454V158.537H156.654L156.888 81.7157Z" fill="#0D3A94"/>
<path d="M157.262 159.197H140.312V93.518L157.543 80.4481L157.262 159.197ZM141.577 157.928H155.998L156.232 82.9869L141.577 94.1293V157.928Z" fill="#0887D6"/>
<path d="M181.281 159.76H195V113.028C195 113.028 194.485 107.715 186.104 106.681C186.104 106.681 181.796 105.929 178.191 107.433L174.351 108.796L174.117 115.472C174.117 115.472 179.034 113.827 180.485 114.673C181.702 115.379 181.515 116.977 181.656 119.798C181.796 122.713 181.281 159.76 181.281 159.76Z" fill="#0D3A94"/>
<path d="M160.445 71.6094L176.365 85.3846V159.15H160.679L160.445 71.6094Z" fill="#0D3A94"/>
<path d="M177.02 159.76H160.07L159.836 70.1984L177.067 85.1019V159.76H177.02ZM161.334 158.491H175.756V85.7131L161.1 73.0192L161.334 158.491Z" fill="#0887D6"/>
</svg>
