<svg width="250" height="250" viewBox="0 0 250 250" fill="none" xmlns="http://www.w3.org/2000/svg">
<mask id="path-1-inside-1_769_626" fill="white">
<path d="M0 48C0 21.4903 21.4903 0 48 0H202C228.51 0 250 21.4903 250 48V202C250 228.51 228.51 250 202 250H48C21.4903 250 0 228.51 0 202V48Z"/>
</mask>
<path d="M0 48C0 21.4903 21.4903 0 48 0H202C228.51 0 250 21.4903 250 48V202C250 228.51 228.51 250 202 250H48C21.4903 250 0 228.51 0 202V48Z" fill="white"/>
<path d="M48 0V2H202V0V-2H48V0ZM250 48H248V202H250H252V48H250ZM202 250V248H48V250V252H202V250ZM0 202H2V48H0H-2V202H0ZM48 250V248C22.5949 248 2 227.405 2 202H0H-2C-2 229.614 20.3858 252 48 252V250ZM250 202H248C248 227.405 227.405 248 202 248V250V252C229.614 252 252 229.614 252 202H250ZM202 0V2C227.405 2 248 22.5949 248 48H250H252C252 20.3858 229.614 -2 202 -2V0ZM48 0V-2C20.3858 -2 -2 20.3858 -2 48H0H2C2 22.5949 22.5949 2 48 2V0Z" fill="#DDDBDB" mask="url(#path-1-inside-1_769_626)"/>
<path d="M82.8595 106.493V113.263C82.8595 113.263 77.0536 113.122 75.836 113.169C74.1973 113.216 74.5251 115.379 74.5251 115.379L74.4314 124.123H82.7191V131.505H74.291V159.76H60.01V131.505H55V124.123H60.4314V112.229C60.4314 112.229 59.9164 106.822 66.1906 106.681C72.4649 106.54 82.8595 106.493 82.8595 106.493Z" fill="#0D3A94"/>
<path d="M106.88 126.944H117.227C118.164 126.944 118.913 127.274 118.913 126.333L118.773 115.52C118.773 115.379 118.773 115.285 118.726 115.144C118.492 114.157 117.836 108.891 110.391 107.199C110.251 107.151 110.157 107.104 110.017 107.104C108.472 106.916 98.3579 105.741 93.8629 107.151C90.9599 108.045 89.2274 109.361 87.8227 110.772C86.5585 112.041 85.388 114.062 85.2944 115.849L85.388 126.192C85.2007 127.462 86.4181 129.342 88.1037 130.659C90.4916 132.492 94.8462 134.89 100.793 137.664C100.793 137.664 104.117 138.698 104.304 140.814C104.445 142.506 104.819 148.195 104.819 150.311C104.819 150.922 104.492 151.486 103.977 151.768C103.321 152.144 102.291 152.379 101.121 151.815C100.605 151.533 100.231 150.969 100.231 150.358L99.9498 140.061C99.903 139.168 99.9498 138.369 99.0603 138.369L86.4649 138.228C85.5752 138.228 85.3411 137.899 85.3411 138.792L85.6221 151.58C85.6221 151.768 85.669 151.909 85.7158 152.097C86.1373 153.367 88.291 158.914 94.3312 159.431C100.746 159.996 108.097 159.76 109.08 159.713C109.174 159.713 109.221 159.713 109.315 159.713C110.251 159.525 116.666 159.149 118.866 153.367C118.913 153.226 118.96 153.037 119.007 152.896C119.147 151.251 119.335 142.271 119.007 138.839C119.007 138.792 119.007 138.698 119.007 138.651C118.866 137.946 118.164 133.903 111.328 131.082C111.328 131.082 102.853 127.415 100.512 125.346C100.137 125.017 99.669 124.077 99.669 123.607L99.7157 115.802C100.09 114.204 101.167 114.674 102.619 114.674C104.07 114.674 104.913 115.896 104.913 117.354L105.053 126.239C105.007 127.086 105.99 126.944 106.88 126.944Z" fill="#0D3A94"/>
<path d="M141.997 158.114C141.997 158.114 135.301 160.606 129.87 159.478C125.281 158.49 123.268 155.434 122.378 153.977C122.097 153.507 122.003 151.532 122.003 150.968L121.91 113.028C121.91 111.711 122.378 110.442 123.268 109.501C124.766 107.903 127.435 105.787 130.759 106.069C136.003 106.493 141.107 107.292 141.107 107.292L140.686 114.579C140.686 114.579 137.08 113.545 136.612 114.908C135.629 117.729 135.957 150.122 135.957 150.122C135.957 150.122 136.753 152.943 139.328 151.485C141.903 150.028 141.997 151.062 141.997 151.062V158.114Z" fill="#0D3A94"/>
<path d="M156.887 81.7158L140.92 93.8455V158.537H156.652L156.887 81.7158Z" fill="#0D3A94"/>
<path d="M157.261 159.197H140.311V93.5182L157.542 80.4482L157.261 159.197ZM141.575 157.928H155.997L156.231 82.987L141.575 94.1294V157.928Z" fill="#0887D6"/>
<path d="M181.281 159.76H195V113.028C195 113.028 194.485 107.715 186.104 106.681C186.104 106.681 181.796 105.929 178.191 107.433L174.351 108.797L174.117 115.473C174.117 115.473 179.034 113.827 180.485 114.674C181.702 115.379 181.515 116.977 181.656 119.798C181.796 122.713 181.281 159.76 181.281 159.76Z" fill="#0D3A94"/>
<path d="M160.445 71.6094L176.365 85.3846V159.15H160.679L160.445 71.6094Z" fill="#0D3A94"/>
<path d="M177.02 159.76H160.07L159.836 70.1982L177.067 85.1018V159.76H177.02ZM161.334 158.491H175.756V85.713L161.1 73.0191L161.334 158.491Z" fill="#0887D6"/>
</svg>
