<svg width="250" height="250" viewBox="0 0 250 250" fill="none" xmlns="http://www.w3.org/2000/svg">
<mask id="path-1-inside-1_769_628" fill="white">
<path d="M0 48C0 21.4903 21.4903 0 48 0H202C228.51 0 250 21.4903 250 48V202C250 228.51 228.51 250 202 250H48C21.4903 250 0 228.51 0 202V48Z"/>
</mask>
<path d="M0 48C0 21.4903 21.4903 0 48 0H202C228.51 0 250 21.4903 250 48V202C250 228.51 228.51 250 202 250H48C21.4903 250 0 228.51 0 202V48Z" fill="white"/>
<path d="M48 0V2H202V0V-2H48V0ZM250 48H248V202H250H252V48H250ZM202 250V248H48V250V252H202V250ZM0 202H2V48H0H-2V202H0ZM48 250V248C22.5949 248 2 227.405 2 202H0H-2C-2 229.614 20.3858 252 48 252V250ZM250 202H248C248 227.405 227.405 248 202 248V250V252C229.614 252 252 229.614 252 202H250ZM202 0V2C227.405 2 248 22.5949 248 48H250H252C252 20.3858 229.614 -2 202 -2V0ZM48 0V-2C20.3858 -2 -2 20.3858 -2 48H0H2C2 22.5949 22.5949 2 48 2V0Z" fill="#DDDBDB" mask="url(#path-1-inside-1_769_628)"/>
<path fill-rule="evenodd" clip-rule="evenodd" d="M154.502 59.8744C162.449 66.196 166.878 78.3776 167.629 88.3539C168.765 103.455 163.771 121.107 153.878 132.804C160.546 140.625 166.69 153.136 169.244 163.071C171.465 171.709 172.512 182.488 168.126 190.564C161.436 202.88 144.756 200.818 134.334 195.01C131.536 193.45 128.568 191.332 126.167 189.191C117.184 179.981 108.542 168.017 105.123 155.627C92.5143 155.031 75.1638 149.596 65.3887 141.481C60.0627 136.95 56.5703 131.814 55.0518 124.957C59.0933 125.295 63.2974 125.788 67.3652 126.166C70.25 138.268 84.4479 147.089 95.9033 149.784C98.3638 150.362 101.19 150.636 103.707 150.891C99.9619 134.982 98.8867 123.887 100.923 107.502C103.263 107.958 105.681 108.342 108.055 108.8C107.749 110.464 107.686 114.374 107.666 116.142C107.527 128.422 109.819 138.836 113.736 150.355C116.487 149.562 119.596 149 122.244 147.963C145.326 138.934 159.935 113.427 159.02 89.1136C158.517 75.7234 152.321 59.5249 136.334 60.2242C136.311 58.0494 136.334 56.4491 136.334 54.7554C143.021 54.1555 149.161 55.6259 154.502 59.8744ZM150.801 136.41C148.988 138.02 146.874 140.077 145 141.535C138.332 146.719 130.575 151.155 122.464 153.614C120.378 154.246 117.806 154.72 115.661 155.141C119.711 163.217 125.672 173.633 132.871 179.089C137.732 182.444 140.815 184.168 146.787 184.892C158.034 186.255 162.07 178.296 161.499 168.133C160.891 157.316 156.983 147.092 151.738 137.659C151.497 137.225 151.235 136.622 150.801 136.41Z" fill="#006627"/>
<path d="M135.435 54.8965C135.5 57.164 135.524 57.8529 135.631 60.2633C131.977 61.3303 131.226 61.9152 129.378 63.2747C118.612 71.1938 111.316 89.8369 108.933 102.404C111.991 103.055 119.266 105.587 121.991 107.021C130.319 111.405 141.32 118.321 147.533 125.472C146.736 126.454 146.031 127.426 145.286 128.448C133.147 115.697 114.994 107.225 97.4271 106.131C97.1497 106.105 96.8718 106.084 96.5935 106.069C88.4679 105.648 79.3046 107.017 73.2305 112.773C69.5053 116.303 67.4445 119.526 67.2007 124.659C63.0331 124.261 58.8719 123.8 54.7188 123.273C55.1997 101.572 85.6622 97.1562 102.128 100.777C103.568 93.8853 105.912 87.2141 109.099 80.9366C113.195 72.7856 117.959 65.8191 125.104 60.0491C127.767 57.8992 131.525 55.7157 135.435 54.8965Z" fill="#86CC22"/>
<path d="M177.621 185.899C179.417 185.446 181.32 185.996 182.595 187.341C183.87 188.686 184.319 190.616 183.769 192.386C183.219 194.156 181.755 195.492 179.942 195.876C177.213 196.456 174.521 194.744 173.889 192.027C173.257 189.309 174.916 186.585 177.621 185.899Z" fill="#86CC22"/>
<path d="M154.151 44.5011C156.917 43.9068 159.641 45.6675 160.234 48.4334C160.827 51.1991 159.066 53.9222 156.299 54.5147C153.535 55.1066 150.813 53.3461 150.22 50.5816C149.627 47.817 151.387 45.0951 154.151 44.5011Z" fill="#86CC22"/>
<path d="M48.6513 94.6031C51.4272 94.3638 53.8794 96.4016 54.1522 99.1744C54.4251 101.947 52.4172 104.424 49.6479 104.73C47.8264 104.932 46.0373 104.138 44.9641 102.653C43.8908 101.167 43.6991 99.2196 44.4623 97.5536C45.2255 95.8874 46.8255 94.7605 48.6513 94.6031Z" fill="#86CC22"/>
</svg>
