<svg width="250" height="250" viewBox="0 0 250 250" fill="none" xmlns="http://www.w3.org/2000/svg">
<rect width="250" height="250" fill="white"/>
<path fill-rule="evenodd" clip-rule="evenodd" d="M154.501 59.8749C162.448 66.1965 166.877 78.378 167.628 88.3544C168.764 103.455 163.77 121.107 153.877 132.804C160.545 140.625 166.689 153.136 169.243 163.071C171.464 171.71 172.511 182.489 168.125 190.564C161.435 202.881 144.755 200.819 134.333 195.01C131.535 193.45 128.567 191.333 126.166 189.191C117.183 179.982 108.541 168.017 105.122 155.628C92.5134 155.032 75.1628 149.597 65.3877 141.481C60.0617 136.95 56.5693 131.814 55.0508 124.958C59.0924 125.296 63.2964 125.788 67.3642 126.167C70.249 138.268 84.4469 147.089 95.9023 149.785C98.3628 150.363 101.189 150.636 103.706 150.891C99.9609 134.982 98.8857 123.888 100.922 107.503C103.262 107.958 105.68 108.343 108.054 108.801C107.748 110.465 107.685 114.374 107.665 116.142C107.526 128.422 109.818 138.837 113.735 150.355C116.486 149.562 119.595 149.001 122.243 147.964C145.325 138.935 159.934 113.428 159.019 89.1141C158.516 75.7239 152.32 59.5254 136.333 60.2247C136.31 58.0498 136.333 56.4496 136.333 54.7559C143.02 54.156 149.16 55.6263 154.501 59.8749ZM150.8 136.411C148.987 138.02 146.873 140.078 144.999 141.536C138.331 146.719 130.574 151.155 122.463 153.614C120.377 154.246 117.805 154.72 115.66 155.141C119.71 163.217 125.671 173.633 132.87 179.09C137.731 182.445 140.814 184.169 146.786 184.892C158.033 186.255 162.069 178.296 161.498 168.134C160.89 157.317 156.982 147.092 151.737 137.659C151.496 137.225 151.234 136.622 150.8 136.411Z" fill="#006627"/>
<path d="M135.435 54.897C135.5 57.1644 135.524 57.8534 135.631 60.2638C131.977 61.3308 131.226 61.9157 129.378 63.2752C118.612 71.1943 111.316 89.8374 108.933 102.404C111.991 103.056 119.266 105.587 121.991 107.022C130.319 111.405 141.32 118.322 147.533 125.473C146.736 126.455 146.031 127.426 145.286 128.448C133.147 115.698 114.994 107.225 97.4271 106.131C97.1497 106.105 96.8718 106.085 96.5935 106.07C88.4679 105.648 79.3046 107.018 73.2305 112.773C69.5053 116.303 67.4445 119.527 67.2007 124.659C63.0331 124.262 58.8719 123.8 54.7188 123.274C55.1997 101.573 85.6622 97.1567 102.128 100.778C103.568 93.8858 105.912 87.2146 109.099 80.937C113.195 72.7861 117.959 65.8196 125.104 60.0496C127.767 57.8996 131.525 55.7162 135.435 54.897Z" fill="#86CC22"/>
<path d="M177.62 185.9C179.417 185.446 181.319 185.996 182.594 187.341C183.87 188.686 184.318 190.616 183.768 192.386C183.218 194.156 181.754 195.492 179.942 195.876C177.212 196.456 174.521 194.745 173.888 192.027C173.256 189.31 174.915 186.585 177.62 185.9Z" fill="#86CC22"/>
<path d="M154.151 44.501C156.917 43.9066 159.641 45.6674 160.234 48.4333C160.827 51.199 159.066 53.9221 156.299 54.5146C153.535 55.1065 150.813 53.346 150.22 50.5815C149.627 47.8169 151.387 45.0949 154.151 44.501Z" fill="#86CC22"/>
<path d="M48.6513 94.6028C51.4272 94.3635 53.8794 96.4013 54.1522 99.1741C54.4251 101.947 52.4172 104.423 49.6479 104.73C47.8264 104.931 46.0373 104.138 44.9641 102.652C43.8908 101.167 43.6991 99.2193 44.4623 97.5533C45.2255 95.8872 46.8255 94.7603 48.6513 94.6028Z" fill="#86CC22"/>
</svg>
