<svg width="250" height="250" viewBox="0 0 250 250" fill="none" xmlns="http://www.w3.org/2000/svg">
<path d="M0 48C0 21.4903 21.4903 0 48 0H202C228.51 0 250 21.4903 250 48V202C250 228.51 228.51 250 202 250H48C21.4903 250 0 228.51 0 202V48Z" fill="black"/>
<path d="M156.797 98.7008C159.384 98.7008 161.79 99.5028 164.067 100.952L172.294 106.1L179.875 103.849L191 90.4475L167.275 66.7227C157.935 57.3828 144.534 52.2084 129.838 52.2084H129.502C122.672 47.2409 112.814 44.3174 102.595 44.3174C98.2999 44.3433 94.031 44.8348 89.8397 45.7662C91.599 50.8372 95.2211 56.736 98.0412 60.8756C74.9114 74.2257 59 101.573 59 133.059C59 139.346 59.6468 142.58 59.6468 142.58C59.6468 142.58 67.2532 134.844 77.2658 134.844C77.2658 150.342 67.4343 165.348 67.4343 165.348C92.4528 165.348 137.134 177.119 153.097 187.934C153.097 180.509 137.134 161.958 121.792 151.946C121.792 151.946 166.809 171.479 173.588 205.682C173.588 205.682 176.977 198.593 176.977 186.977C176.977 135.336 110.33 136.785 109.865 93.8885C109.71 82.4271 114.392 75.3382 114.392 75.3382C113.358 79.7364 112.814 84.2382 112.762 88.74C112.762 121.805 147.457 123.279 169.241 144.081L173.924 118.752L164.895 121.649L158.272 119.709C151.002 117.613 146.81 113.422 146.81 108.092C146.81 102.763 150.976 98.7008 156.797 98.7008ZM129.347 72.2852C129.347 72.2852 134.831 71.6384 138.712 71.6384C146.784 71.6384 154.52 74.3809 159.203 78.5722L154.365 84.3934C150.174 79.5553 136.617 72.932 129.347 72.2852Z" fill="white"/>
</svg>
