<svg width="250" height="250" viewBox="0 0 250 250" fill="none" xmlns="http://www.w3.org/2000/svg">
<path d="M0 48C0 21.4903 21.4903 0 48 0H202C228.51 0 250 21.4903 250 48V202C250 228.51 228.51 250 202 250H48C21.4903 250 0 228.51 0 202V48Z" fill="#033531"/>
<path d="M109.428 56.4763C108.555 62.9524 109.646 69.0646 111.902 74.6675C114.158 80.2704 117.286 85.5822 120.779 90.603C127.764 100.79 135.987 110.322 143.991 120.218C151.995 130.114 160.072 140.301 166.475 151.871C169.604 157.692 172.369 163.877 173.679 170.644C173.897 172.317 174.116 174.064 174.188 175.737C174.116 177.484 174.261 179.157 173.825 180.831C173.461 184.251 171.86 187.307 170.114 189.999C171.787 183.669 170.987 177.556 168.658 172.026C166.33 166.496 163.055 161.33 159.417 156.309C152.141 146.34 143.773 136.881 135.769 126.912C127.764 117.016 119.76 106.611 113.648 94.8961C110.665 89.0021 108.045 82.7444 106.954 76.05C105.79 69.3557 106.299 62.2247 109.428 56.4763Z" fill="#CCAF84"/>
<path d="M123.835 50C122.962 56.4761 124.053 62.5883 126.309 68.1912C128.564 73.794 131.693 79.1059 135.186 84.1266C142.171 94.3137 150.394 103.846 158.398 113.742C166.402 123.638 174.479 133.825 180.882 145.394C184.011 151.216 186.776 157.401 188.086 164.168C188.304 165.841 188.523 167.588 188.595 169.261C188.523 171.008 188.668 172.681 188.231 174.355C187.868 177.775 186.267 180.831 184.52 183.523C186.194 177.193 185.394 171.08 183.065 165.55C180.737 160.02 177.462 154.854 173.824 149.833C166.548 139.864 158.18 130.405 150.176 120.436C142.171 110.54 134.167 100.135 128.055 88.4197C125.072 82.5258 122.452 76.268 121.361 69.5737C120.269 62.9521 120.706 55.7484 123.835 50Z" fill="#CCAF84"/>
<path d="M116.34 109.741C118.669 113.088 119.469 117.599 119.178 121.892C118.887 126.185 117.577 130.333 115.976 134.117C112.629 141.757 107.827 148.16 103.024 154.127C98.2217 160.094 93.0554 165.478 88.4713 171.008C86.2156 173.773 84.0326 176.539 82.4318 179.522C80.7582 182.505 79.6667 185.852 79.7395 190C76.9745 186.944 75.9558 182.287 76.3196 177.921C76.6106 173.482 78.1387 169.408 79.8123 165.697C83.3777 158.202 88.1802 151.871 92.9827 145.977C97.7852 140.083 102.806 134.626 107.172 129.096C109.355 126.331 111.392 123.493 113.066 120.364C114.667 117.235 115.904 113.815 116.34 109.741Z" fill="#CCAF84"/>
<path d="M101.496 101.226C103.824 104.573 104.625 109.085 104.334 113.378C104.043 117.671 102.733 121.819 101.132 125.602C97.7849 133.243 92.9824 139.646 88.1799 145.613C83.3775 151.579 78.2112 156.964 73.627 162.494C71.3713 165.259 69.1884 168.024 67.5875 171.008C65.9139 173.991 64.8225 177.338 64.8952 181.486C62.1302 178.43 61.1115 173.773 61.4753 169.407C61.7664 164.968 63.2944 160.893 64.968 157.182C68.5335 149.688 73.3359 143.357 78.1384 137.463C82.9409 131.569 87.9616 126.112 92.3275 120.582C94.5105 117.817 96.5479 114.979 98.2215 111.85C99.895 108.648 101.059 105.301 101.496 101.226Z" fill="#CCAF84"/>
<path fill-rule="evenodd" clip-rule="evenodd" d="M137.369 67.1722C137.587 71.7563 140.716 76.1222 143.99 79.1783C147.338 82.38 151.631 84.5629 156.142 85.4361C147.774 84.7812 138.897 80.6336 133.949 73.721C130.966 69.6462 129.729 64.1888 132.13 59.5319C134.386 55.0205 140.279 52.1826 145.009 54.7294C147.047 55.8209 148.72 57.8583 148.866 60.1867C148.938 61.0599 148.793 62.588 147.847 62.9518C146.974 63.3156 146.028 61.7876 145.446 61.2782C143.845 59.8957 141.953 59.6046 140.134 60.7689C138.024 62.2242 137.296 64.7709 137.369 67.1722C137.442 68.3364 137.369 66.0079 137.369 67.1722Z" fill="#CCAF84"/>
<path d="M129.074 173.409C137.634 173.409 144.573 166.47 144.573 157.91C144.573 149.35 137.634 142.411 129.074 142.411C120.514 142.411 113.575 149.35 113.575 157.91C113.575 166.47 120.514 173.409 129.074 173.409Z" fill="#CCAF84"/>
</svg>
