<svg width="250" height="250" viewBox="0 0 250 250" fill="none" xmlns="http://www.w3.org/2000/svg">
<mask id="path-1-inside-1_769_595" fill="white">
<path d="M0 48C0 21.4903 21.4903 0 48 0H202C228.51 0 250 21.4903 250 48V202C250 228.51 228.51 250 202 250H48C21.4903 250 0 228.51 0 202V48Z"/>
</mask>
<path d="M0 48C0 21.4903 21.4903 0 48 0H202C228.51 0 250 21.4903 250 48V202C250 228.51 228.51 250 202 250H48C21.4903 250 0 228.51 0 202V48Z" fill="white"/>
<path d="M48 0V2H202V0V-2H48V0ZM250 48H248V202H250H252V48H250ZM202 250V248H48V250V252H202V250ZM0 202H2V48H0H-2V202H0ZM48 250V248C22.5949 248 2 227.405 2 202H0H-2C-2 229.614 20.3858 252 48 252V250ZM250 202H248C248 227.405 227.405 248 202 248V250V252C229.614 252 252 229.614 252 202H250ZM202 0V2C227.405 2 248 22.5949 248 48H250H252C252 20.3858 229.614 -2 202 -2V0ZM48 0V-2C20.3858 -2 -2 20.3858 -2 48H0H2C2 22.5949 22.5949 2 48 2V0Z" fill="#DDDBDB" mask="url(#path-1-inside-1_769_595)"/>
<path d="M124.689 55C86.0532 55 55 86.0532 55 124.689C55 163.325 86.0532 194.378 124.689 194.378C163.325 194.378 194.378 163.325 194.378 124.689C194.378 86.0532 162.964 55 124.689 55ZM128.3 83.8867L118.912 102.302C117.828 100.136 116.745 97.6078 116.023 95.0804C114.94 92.5527 114.218 89.664 113.496 87.4975L128.3 83.8867ZM84.2478 154.298C82.0813 151.409 79.5537 148.521 77.7482 145.271C70.8877 134.438 70.8877 134.438 78.8315 124.689L83.1645 119.634C86.4143 127.578 90.3862 134.8 95.0804 141.299L84.2478 154.298ZM111.329 155.381C103.024 147.437 95.8026 138.771 90.0251 128.3C83.8867 117.468 83.8867 117.468 92.1916 108.079L96.8857 103.024C102.663 119.273 110.968 132.633 122.161 143.104L111.329 155.381ZM164.769 164.769C164.047 165.491 161.881 165.491 160.798 165.131C151.048 161.881 142.382 156.465 134.438 150.326C121.439 140.216 110.968 127.939 103.385 113.135C97.6078 101.941 97.6078 101.941 106.274 92.9138C107.718 91.4695 109.162 89.664 110.968 88.2197C121.078 121.078 142.743 142.743 175.963 153.215C172.352 157.548 168.741 161.159 164.769 164.769Z" fill="#FE6B1B"/>
</svg>
