<svg width="250" height="250" viewBox="0 0 250 250" fill="none" xmlns="http://www.w3.org/2000/svg">
<mask id="path-1-inside-1_769_596" fill="white">
<path d="M0 48C0 21.4903 21.4903 0 48 0H202C228.51 0 250 21.4903 250 48V202C250 228.51 228.51 250 202 250H48C21.4903 250 0 228.51 0 202V48Z"/>
</mask>
<path d="M0 48C0 21.4903 21.4903 0 48 0H202C228.51 0 250 21.4903 250 48V202C250 228.51 228.51 250 202 250H48C21.4903 250 0 228.51 0 202V48Z" fill="white"/>
<path d="M48 0V2H202V0V-2H48V0ZM250 48H248V202H250H252V48H250ZM202 250V248H48V250V252H202V250ZM0 202H2V48H0H-2V202H0ZM48 250V248C22.5949 248 2 227.405 2 202H0H-2C-2 229.614 20.3858 252 48 252V250ZM250 202H248C248 227.405 227.405 248 202 248V250V252C229.614 252 252 229.614 252 202H250ZM202 0V2C227.405 2 248 22.5949 248 48H250H252C252 20.3858 229.614 -2 202 -2V0ZM48 0V-2C20.3858 -2 -2 20.3858 -2 48H0H2C2 22.5949 22.5949 2 48 2V0Z" fill="#DDDBDB" mask="url(#path-1-inside-1_769_596)"/>
<path d="M124.987 55C125.389 55.0693 133.879 63.701 134.879 64.7021L152.751 82.5727L164.995 95.004C166.696 96.7406 169.208 99.0868 171.05 100.774C171.05 111.549 171.05 121.444 171.05 131.779C166.043 126.931 162.185 123.011 157.795 118.622C146.989 107.608 136.101 96.677 125.129 85.8291L124.492 86.5254L88.5302 122.512C85.2676 125.775 82.0106 129.046 78.7227 132.282C78.67 132.291 78.6171 132.3 78.5643 132.309C78.3277 131.536 78.1928 103.527 78.5323 101.787C78.6083 101.398 78.8374 101.146 79.1 100.862C80.6724 99.1614 82.4063 97.5605 84.0469 95.9226L124.987 55Z" fill="url(#paint0_linear_769_596)"/>
<path d="M124.948 148.987C125.245 149.047 125.472 149.203 125.683 149.414C133.539 157.27 141.502 165.035 149.359 172.886L153.436 176.965C154.136 177.666 154.87 178.372 155.54 179.097C155.832 179.411 155.848 179.395 155.825 179.727C154.894 180.903 141.318 194.494 140.441 195C139.763 194.478 138.781 193.431 138.142 192.793L128.462 183.116C127.45 182.104 126.179 180.906 125.25 179.867C124.916 179.709 120.914 184.07 120.376 184.522C119.284 185.437 110.305 194.89 109.772 194.942C108.821 194.301 106.404 191.772 105.508 190.877L98.0903 183.46C96.895 182.263 95.489 180.754 94.2639 179.642C95.7519 177.64 97.475 176.082 99.2444 174.317L105.828 167.733L116.047 157.625C118.954 154.721 121.855 151.673 124.948 148.987Z" fill="url(#paint1_linear_769_596)"/>
<path d="M125.051 97.8123C126.191 98.8001 127.452 100.167 128.539 101.264L155.614 128.346C156.153 128.886 161.143 133.767 161.289 134.065C162.214 134.817 163.013 135.75 163.813 136.628C166.032 139.068 168.545 141.24 170.764 143.686C170.916 146.269 170.858 149.073 170.856 151.684L170.841 164.068L170.846 170.451C170.848 171.362 170.903 173.244 170.761 174.058L170.613 174.14C169.632 173.765 161.637 165.133 160.335 163.846L140.791 144.541C138.34 142.088 135.364 139.258 133.024 136.743C132.774 136.557 130.403 134.172 130.14 133.886C128.647 132.268 126.472 130.381 125.095 128.754C124.499 129.477 123.466 130.468 122.784 131.154C121.497 132.454 120.201 133.745 118.897 135.029C116.96 137.159 114.133 139.838 112.059 141.911L98.8358 155.127C92.2005 161.694 85.0783 168.6 78.3654 174.072C78.3667 164.577 78.3081 155.081 78.3915 145.587C78.3942 145.288 78.4239 144.577 78.5999 144.364C79.8151 142.899 81.5136 141.344 82.8557 139.984C86.2356 136.561 89.6281 133.035 93.1154 129.738C95.4181 127.207 98.8799 123.975 101.363 121.499L122.372 100.513C123.112 99.778 124.409 98.561 125.051 97.8123Z" fill="url(#paint2_linear_769_596)"/>
<defs>
<linearGradient id="paint0_linear_769_596" x1="124.689" y1="55" x2="124.689" y2="211.71" gradientUnits="userSpaceOnUse">
<stop stop-color="#3153A9"/>
<stop offset="0.346941" stop-color="#3153A9"/>
<stop offset="0.621415" stop-color="#21A9E4"/>
</linearGradient>
<linearGradient id="paint1_linear_769_596" x1="124.689" y1="55" x2="124.689" y2="211.71" gradientUnits="userSpaceOnUse">
<stop stop-color="#3153A9"/>
<stop offset="0.346941" stop-color="#3153A9"/>
<stop offset="0.621415" stop-color="#21A9E4"/>
</linearGradient>
<linearGradient id="paint2_linear_769_596" x1="124.689" y1="55" x2="124.689" y2="211.71" gradientUnits="userSpaceOnUse">
<stop stop-color="#3153A9"/>
<stop offset="0.346941" stop-color="#3153A9"/>
<stop offset="0.621415" stop-color="#21A9E4"/>
</linearGradient>
</defs>
</svg>
