<svg width="250" height="250" viewBox="0 0 250 250" fill="none" xmlns="http://www.w3.org/2000/svg">
<mask id="path-1-inside-1_769_597" fill="white">
<path d="M0 48C0 21.4903 21.4903 0 48 0H202C228.51 0 250 21.4903 250 48V202C250 228.51 228.51 250 202 250H48C21.4903 250 0 228.51 0 202V48Z"/>
</mask>
<path d="M0 48C0 21.4903 21.4903 0 48 0H202C228.51 0 250 21.4903 250 48V202C250 228.51 228.51 250 202 250H48C21.4903 250 0 228.51 0 202V48Z" fill="white"/>
<path d="M48 0V2H202V0V-2H48V0ZM250 48H248V202H250H252V48H250ZM202 250V248H48V250V252H202V250ZM0 202H2V48H0H-2V202H0ZM48 250V248C22.5949 248 2 227.405 2 202H0H-2C-2 229.614 20.3858 252 48 252V250ZM250 202H248C248 227.405 227.405 248 202 248V250V252C229.614 252 252 229.614 252 202H250ZM202 0V2C227.405 2 248 22.5949 248 48H250H252C252 20.3858 229.614 -2 202 -2V0ZM48 0V-2C20.3858 -2 -2 20.3858 -2 48H0H2C2 22.5949 22.5949 2 48 2V0Z" fill="#DDDBDB" mask="url(#path-1-inside-1_769_597)"/>
<circle cx="125" cy="125" r="75" fill="#18355D"/>
<path d="M127.372 200.119C125.807 200.119 124.45 200.119 122.816 200.119C122.816 150.019 122.816 100.083 122.816 49.8887C124.372 49.8887 125.721 49.8887 127.372 49.8887C127.372 100.014 127.372 149.95 127.372 200.119Z" fill="#4FCDFF"/>
<path d="M115.118 124.818C114.971 132.918 108.227 139.333 100.032 139.169C91.8621 139.013 85.3436 132.339 85.456 124.238C85.5771 115.809 92.1301 109.628 100.818 109.775C109.031 109.922 115.273 116.484 115.118 124.818Z" fill="#4FCDFF"/>
<path d="M149.537 91.6543C158.234 91.6197 164.597 97.8702 164.545 106.412C164.493 114.616 157.975 121.048 149.727 121.048C141.514 121.048 134.961 114.556 134.927 106.395C134.884 98.1469 141.29 91.6888 149.537 91.6543Z" fill="#4FCDFF"/>
<path d="M149.775 127.905C158.23 127.939 164.497 134.129 164.541 142.481C164.584 150.867 157.91 157.42 149.472 157.29C141.259 157.169 134.87 150.625 134.922 142.394C134.966 134.198 141.458 127.87 149.775 127.905Z" fill="#4FCDFF"/>
</svg>
