<svg width="250" height="250" viewBox="0 0 250 250" fill="none" xmlns="http://www.w3.org/2000/svg">
<rect width="250" height="250" fill="white"/>
<path d="M124.767 135.769C125.408 135.764 126.049 135.754 126.69 135.749C126.898 135.749 127.102 135.744 127.311 135.744C128.945 135.759 130.585 135.769 132.219 135.784C132.219 142.395 132.219 149.001 132.219 155.752C134.648 155.752 136.824 155.752 139.179 155.752C139.179 147.232 139.179 138.88 139.179 130.524C141.494 130.509 143.809 130.499 146.124 130.484C146.124 136.677 146.124 142.869 146.124 149.221C148.727 149.221 150.988 149.221 153.576 149.221C153.576 127.383 153.576 105.68 153.576 83.9772C172.062 93.8341 183.374 120.254 178.714 142.694C173.612 167.274 153.765 185.766 130.331 187.781C104.448 190.004 81.5063 175.232 72.8372 150.766C64.3371 126.76 73.026 99.463 93.7175 85.1688C94.2987 84.77 94.9396 84.4559 95.8537 83.9324C95.8537 104.748 95.8537 125.219 95.8537 145.995C98.3327 145.995 100.613 145.995 102.898 145.995C102.898 153.648 102.898 161.301 102.898 168.944C105.675 168.944 107.921 168.944 110.36 168.944C110.36 159.427 110.36 150.163 110.36 140.9C112.68 140.9 114.995 140.9 117.315 140.9C117.315 147.994 117.315 155.089 117.315 162.244C120.052 162.244 122.313 162.244 124.767 162.244C124.767 153.299 124.767 144.534 124.767 135.769Z" fill="#33387B"/>
<path d="M153.577 83.9772C153.577 105.68 153.577 127.383 153.577 149.221C150.989 149.221 148.728 149.221 146.125 149.221C146.125 142.869 146.125 136.677 146.125 130.484C146.125 104.538 146.125 78.5926 146.125 52.5819C148.525 51.1061 150.81 49.7051 153.577 48C153.577 60.3397 153.577 72.161 153.577 83.9772Z" fill="#AEA8C8"/>
<path d="M124.764 135.769C124.764 144.534 124.764 153.299 124.764 162.249C122.305 162.249 120.05 162.249 117.312 162.249C117.312 155.094 117.312 147.999 117.312 140.905C117.312 117.501 117.312 94.0983 117.312 70.4458C119.608 69.0299 121.903 67.6139 124.764 65.844C124.764 89.4665 124.764 112.62 124.764 135.769Z" fill="#AEA8C8"/>
<path d="M110.352 140.9C110.352 150.163 110.352 159.427 110.352 168.945C107.913 168.945 105.673 168.945 102.891 168.945C102.891 161.296 102.891 153.643 102.891 145.995C102.891 123.759 102.891 101.522 102.891 79.2958C105.315 77.8349 107.556 76.4888 110.352 74.8036C110.352 97.1946 110.352 119.047 110.352 140.9Z" fill="#AEA8C8"/>
<path d="M139.179 130.519C139.179 138.871 139.179 147.227 139.179 155.747C136.819 155.747 134.648 155.747 132.219 155.747C132.219 149.002 132.219 142.39 132.219 135.779C132.219 111.03 132.219 86.2808 132.219 61.2373C134.275 59.9659 136.407 58.6547 139.179 56.9446C139.179 81.9731 139.179 106.249 139.179 130.519Z" fill="#AEA8C8"/>
<path d="M127.308 135.744C127.1 135.744 126.896 135.749 126.688 135.749C126.896 135.744 127.1 135.744 127.308 135.744Z" fill="#AEA8C8"/>
</svg>
