<svg width="250" height="250" viewBox="0 0 250 250" fill="none" xmlns="http://www.w3.org/2000/svg">
<mask id="path-1-inside-1_769_598" fill="white">
<path d="M0 48C0 21.4903 21.4903 0 48 0H202C228.51 0 250 21.4903 250 48V202C250 228.51 228.51 250 202 250H48C21.4903 250 0 228.51 0 202V48Z"/>
</mask>
<path d="M0 48C0 21.4903 21.4903 0 48 0H202C228.51 0 250 21.4903 250 48V202C250 228.51 228.51 250 202 250H48C21.4903 250 0 228.51 0 202V48Z" fill="white"/>
<path d="M48 0V2H202V0V-2H48V0ZM250 48H248V202H250H252V48H250ZM202 250V248H48V250V252H202V250ZM0 202H2V48H0H-2V202H0ZM48 250V248C22.5949 248 2 227.405 2 202H0H-2C-2 229.614 20.3858 252 48 252V250ZM250 202H248C248 227.405 227.405 248 202 248V250V252C229.614 252 252 229.614 252 202H250ZM202 0V2C227.405 2 248 22.5949 248 48H250H252C252 20.3858 229.614 -2 202 -2V0ZM48 0V-2C20.3858 -2 -2 20.3858 -2 48H0H2C2 22.5949 22.5949 2 48 2V0Z" fill="#DDDBDB" mask="url(#path-1-inside-1_769_598)"/>
<path d="M124.77 135.77C125.411 135.765 126.052 135.755 126.693 135.75C126.902 135.75 127.105 135.745 127.314 135.745C128.949 135.76 130.588 135.77 132.222 135.784C132.222 142.396 132.222 149.002 132.222 155.752C134.652 155.752 136.828 155.752 139.182 155.752C139.182 147.232 139.182 138.881 139.182 130.525C141.498 130.51 143.813 130.5 146.128 130.485C146.128 136.677 146.128 142.869 146.128 149.221C148.731 149.221 150.991 149.221 153.58 149.221C153.58 127.383 153.58 105.68 153.58 83.9775C172.065 93.8343 183.377 120.254 178.717 142.695C173.615 167.275 153.768 185.767 130.335 187.781C104.452 190.005 81.5097 175.232 72.8407 150.767C64.3405 126.76 73.0294 99.4632 93.7209 85.1691C94.3021 84.7702 94.943 84.4561 95.8571 83.9326C95.8571 104.748 95.8571 125.22 95.8571 145.995C98.3361 145.995 100.616 145.995 102.902 145.995C102.902 153.648 102.902 161.302 102.902 168.945C105.679 168.945 107.924 168.945 110.363 168.945C110.363 159.427 110.363 150.163 110.363 140.9C112.683 140.9 114.999 140.9 117.319 140.9C117.319 147.995 117.319 155.089 117.319 162.244C120.056 162.244 122.316 162.244 124.77 162.244C124.77 153.299 124.77 144.534 124.77 135.77Z" fill="#33387B"/>
<path d="M153.579 83.9772C153.579 105.68 153.579 127.383 153.579 149.221C150.991 149.221 148.73 149.221 146.127 149.221C146.127 142.869 146.127 136.677 146.127 130.484C146.127 104.538 146.127 78.5926 146.127 52.5819C148.527 51.1061 150.812 49.7051 153.579 48C153.579 60.3397 153.579 72.161 153.579 83.9772Z" fill="#AEA8C8"/>
<path d="M124.771 135.769C124.771 144.534 124.771 153.299 124.771 162.248C122.312 162.248 120.056 162.248 117.319 162.248C117.319 155.094 117.319 147.999 117.319 140.904C117.319 117.501 117.319 94.098 117.319 70.4456C119.614 69.0296 121.909 67.6137 124.771 65.8438C124.771 89.4663 124.771 112.62 124.771 135.769Z" fill="#AEA8C8"/>
<path d="M110.359 140.9C110.359 150.163 110.359 159.427 110.359 168.945C107.92 168.945 105.679 168.945 102.897 168.945C102.897 161.297 102.897 153.643 102.897 145.995C102.897 123.759 102.897 101.522 102.897 79.2959C105.322 77.8351 107.562 76.4889 110.359 74.8037C110.359 97.1947 110.359 119.047 110.359 140.9Z" fill="#AEA8C8"/>
<path d="M139.182 130.519C139.182 138.87 139.182 147.226 139.182 155.747C136.822 155.747 134.651 155.747 132.222 155.747C132.222 149.001 132.222 142.39 132.222 135.779C132.222 111.03 132.222 86.2805 132.222 61.2371C134.279 59.9657 136.41 58.6545 139.182 56.9443C139.182 81.9728 139.182 106.248 139.182 130.519Z" fill="#AEA8C8"/>
<path d="M127.315 135.744C127.106 135.744 126.902 135.749 126.694 135.749C126.902 135.744 127.106 135.744 127.315 135.744Z" fill="#AEA8C8"/>
</svg>
