<svg width="250" height="250" viewBox="0 0 250 250" fill="none" xmlns="http://www.w3.org/2000/svg">
<mask id="path-1-inside-1_769_599" fill="white">
<path d="M0 48C0 21.4903 21.4903 0 48 0H202C228.51 0 250 21.4903 250 48V202C250 228.51 228.51 250 202 250H48C21.4903 250 0 228.51 0 202V48Z"/>
</mask>
<path d="M0 48C0 21.4903 21.4903 0 48 0H202C228.51 0 250 21.4903 250 48V202C250 228.51 228.51 250 202 250H48C21.4903 250 0 228.51 0 202V48Z" fill="white"/>
<path d="M48 0V2H202V0V-2H48V0ZM250 48H248V202H250H252V48H250ZM202 250V248H48V250V252H202V250ZM0 202H2V48H0H-2V202H0ZM48 250V248C22.5949 248 2 227.405 2 202H0H-2C-2 229.614 20.3858 252 48 252V250ZM250 202H248C248 227.405 227.405 248 202 248V250V252C229.614 252 252 229.614 252 202H250ZM202 0V2C227.405 2 248 22.5949 248 48H250H252C252 20.3858 229.614 -2 202 -2V0ZM48 0V-2C20.3858 -2 -2 20.3858 -2 48H0H2C2 22.5949 22.5949 2 48 2V0Z" fill="#DDDBDB" mask="url(#path-1-inside-1_769_599)"/>
<path d="M114.119 92.3924C116.194 92.1762 120.024 92.9541 121.993 93.5656C127.853 95.3851 131.959 99.6712 136.347 103.679L183.834 147.171C187.367 150.415 191.252 153.76 194.686 156.989C186.855 157.396 179.343 157.843 171.616 156.477C170.329 156.234 169.002 156.041 167.691 155.756C157.402 153.518 147.229 148.793 139.586 141.448C137.773 139.705 135.983 138.145 134.196 136.52C128.193 131.09 122.222 125.625 116.283 120.126C113.131 117.235 109.821 114.108 106.572 111.353C102.45 107.858 95.2898 105.32 89.8202 105.95C90.3614 105.418 90.7335 104.878 91.235 104.308C95.3294 99.6619 101.126 95.6411 107.008 93.6509C108.873 93.0196 112.186 92.5342 114.119 92.3924Z" fill="#292C64"/>
<path d="M86.3769 110.077C95.9548 108.998 100.429 114.484 106.82 120.363L120.678 133.066C126.937 138.743 133.165 144.452 139.364 150.195C141.457 152.135 144.809 154.881 146.666 156.868C140.923 156.958 137.637 157.453 131.833 156.775C116.681 154.425 111.894 150.387 101.084 140.422L88.3643 128.753C82.4026 123.297 79.3445 119.712 70.7155 119.732C73.8401 115.251 80.8679 110.606 86.3769 110.077Z" fill="#292C64"/>
<path d="M69.4887 124.926C75.2937 124.398 80.3569 130.269 84.2464 133.826L101.412 149.538C103.6 151.538 108.229 155.99 110.363 157.484C106.278 157.504 103.71 157.937 99.409 157.292C94.4729 156.422 90.3403 155.127 86.1168 152.355C83.5779 150.689 81.3229 148.433 79.0805 146.373L70.352 138.363C65.8104 134.165 64.0018 131.665 57.5155 131.6C58.4547 130.794 59.3418 129.841 60.2861 129.027C62.8698 126.763 66.0777 125.333 69.4887 124.926Z" fill="#6994AC"/>
<path d="M57.5658 137.323C63.7138 136.595 69.4404 146.933 62.9607 149.128C58.4964 149.704 53.489 143.987 54.9422 139.606C55.3262 138.448 56.516 137.782 57.5658 137.323Z" fill="#6994AC"/>
</svg>
