<svg width="250" height="250" viewBox="0 0 250 250" fill="none" xmlns="http://www.w3.org/2000/svg">
<mask id="path-1-inside-1_769_600" fill="white">
<path d="M0 48C0 21.4903 21.4903 0 48 0H202C228.51 0 250 21.4903 250 48V202C250 228.51 228.51 250 202 250H48C21.4903 250 0 228.51 0 202V48Z"/>
</mask>
<path d="M0 48C0 21.4903 21.4903 0 48 0H202C228.51 0 250 21.4903 250 48V202C250 228.51 228.51 250 202 250H48C21.4903 250 0 228.51 0 202V48Z" fill="white"/>
<path d="M48 0V2H202V0V-2H48V0ZM250 48H248V202H250H252V48H250ZM202 250V248H48V250V252H202V250ZM0 202H2V48H0H-2V202H0ZM48 250V248C22.5949 248 2 227.405 2 202H0H-2C-2 229.614 20.3858 252 48 252V250ZM250 202H248C248 227.405 227.405 248 202 248V250V252C229.614 252 252 229.614 252 202H250ZM202 0V2C227.405 2 248 22.5949 248 48H250H252C252 20.3858 229.614 -2 202 -2V0ZM48 0V-2C20.3858 -2 -2 20.3858 -2 48H0H2C2 22.5949 22.5949 2 48 2V0Z" fill="#DDDBDB" mask="url(#path-1-inside-1_769_600)"/>
<path d="M193.629 79.3945C194.398 79.3983 195.153 79.6038 195.818 79.9912C196.483 80.3787 197.035 80.9348 197.418 81.6025C197.8 82.2701 198.001 83.0265 197.999 83.7959C197.997 84.5655 197.793 85.3214 197.407 85.9873L196.294 87.9268L191.38 96.4922L189.632 99.54L139.56 186.846L131.778 200.404C131.399 201.073 130.849 201.629 130.186 202.016C129.522 202.402 128.767 202.606 127.999 202.606C127.231 202.606 126.476 202.402 125.813 202.016C125.149 201.629 124.6 201.073 124.221 200.404L116.444 186.846L96.3086 151.744L86.2998 134.295L66.3721 99.5459L58.5908 85.9873C58.2049 85.321 58.0016 84.5649 58 83.7949C57.9985 83.0249 58.1987 82.2675 58.582 81.5996C58.9654 80.9317 59.5179 80.3764 60.1836 79.9893C60.8492 79.6022 61.605 79.3974 62.375 79.3945H193.629ZM152.159 124.602C153.406 122.416 150.987 119.986 148.823 121.244L117.437 139.482C116.432 140.069 115.7 141.029 115.4 142.153C115.101 143.277 115.258 144.475 115.838 145.483L124.237 160.118L124.227 160.129C124.606 160.797 125.156 161.353 125.82 161.739C126.484 162.126 127.239 162.33 128.008 162.33C128.776 162.33 129.531 162.126 130.195 161.739C130.86 161.353 131.409 160.797 131.789 160.129L152.159 124.602ZM97.0557 99.5469C96.2862 99.5507 95.5311 99.7561 94.8662 100.144C94.2013 100.531 93.6503 101.087 93.2676 101.755C92.885 102.423 92.6838 103.179 92.6856 103.948C92.6873 104.718 92.8916 105.474 93.2774 106.14L101.469 120.423C101.752 120.922 102.132 121.36 102.586 121.711C103.04 122.062 103.558 122.321 104.112 122.471C104.666 122.62 105.245 122.658 105.814 122.583C106.383 122.508 106.932 122.32 107.428 122.032L138.212 104.141C140.37 102.877 139.491 99.5472 136.986 99.5469H97.0557Z" fill="black"/>
</svg>
