<svg width="250" height="250" viewBox="0 0 250 250" fill="none" xmlns="http://www.w3.org/2000/svg">
<mask id="path-1-inside-1_769_601" fill="white">
<path d="M0 48C0 21.4903 21.4903 0 48 0H202C228.51 0 250 21.4903 250 48V202C250 228.51 228.51 250 202 250H48C21.4903 250 0 228.51 0 202V48Z"/>
</mask>
<path d="M0 48C0 21.4903 21.4903 0 48 0H202C228.51 0 250 21.4903 250 48V202C250 228.51 228.51 250 202 250H48C21.4903 250 0 228.51 0 202V48Z" fill="white"/>
<path d="M48 0V2H202V0V-2H48V0ZM250 48H248V202H250H252V48H250ZM202 250V248H48V250V252H202V250ZM0 202H2V48H0H-2V202H0ZM48 250V248C22.5949 248 2 227.405 2 202H0H-2C-2 229.614 20.3858 252 48 252V250ZM250 202H248C248 227.405 227.405 248 202 248V250V252C229.614 252 252 229.614 252 202H250ZM202 0V2C227.405 2 248 22.5949 248 48H250H252C252 20.3858 229.614 -2 202 -2V0ZM48 0V-2C20.3858 -2 -2 20.3858 -2 48H0H2C2 22.5949 22.5949 2 48 2V0Z" fill="#DDDBDB" mask="url(#path-1-inside-1_769_601)"/>
<path d="M128.557 99.1879C139.043 97.1849 149.73 101.505 155.878 110.232C158.134 113.433 159.671 117.083 160.384 120.933C160.916 123.801 160.982 126.735 160.581 129.624C158.674 143.361 146.731 153.46 132.869 153.057C119.006 152.654 107.669 141.88 106.563 128.055C105.456 114.231 114.935 101.79 128.557 99.1879Z" fill="#311B25"/>
<path d="M128.557 99.1879C139.043 97.1849 149.73 101.505 155.878 110.232C158.134 113.433 159.671 117.083 160.384 120.933C160.916 123.801 160.982 126.735 160.581 129.624C158.674 143.361 146.731 153.46 132.869 153.057C119.006 152.654 107.669 141.88 106.563 128.055C105.456 114.231 114.935 101.79 128.557 99.1879Z" fill="url(#paint0_radial_769_601)"/>
<path d="M137.774 100.486C138.32 100.474 138.331 100.387 138.731 100.625C138.804 100.907 138.814 100.946 138.766 101.232C138.28 101.206 138.077 101.283 137.752 101.043C137.706 100.765 137.704 100.756 137.774 100.486Z" fill="black"/>
<path d="M130.102 69.6681C134.493 69.1773 142.183 69.939 146.49 70.9841C152.786 72.5998 158.962 75.1995 164.368 78.8266C165.776 79.7707 171.172 84.7051 173.447 87.2896C172.795 87.8826 169.444 90.5963 168.189 91.6579C166.809 90.4615 165.384 88.9508 163.97 87.7727C158.323 83.0672 150.001 79.0742 142.77 77.7764C131.067 75.5913 118.97 77.8208 108.815 84.0343C106.513 85.4305 105.013 86.8978 102.953 88.3336C102.069 89.235 101.058 90.0901 100.172 90.9763C94.1148 97.0382 90.1433 104.137 87.7872 112.347C87.4648 113.471 87.0349 115.134 86.0883 121.744C84.7543 121.744 80.9864 121.882 79.176 121.882C80.9214 105.235 84.0625 98.1833 91.7626 89.181C92.7141 88.0656 93.7986 87.1198 94.794 86.053C102.521 77.7719 113.247 72.239 124.374 70.3515C126.292 70.0263 128.165 69.8221 130.102 69.6681Z" fill="#987429"/>
<path d="M133.041 82.5207C137.832 82.2752 142.615 83.3038 147.141 84.7338C151.896 86.2359 156.647 88.8476 160.427 92.0943C161.058 92.6367 162.013 93.6709 163.829 95.5165C162.856 96.3191 159.872 98.6853 158.255 99.9216C152.138 94.7208 145.159 90.6535 136.991 90.2237C124.761 89.5799 114.311 94.101 106.553 103.476C102.014 108.959 100.149 115.069 99.1547 122.017C96.7449 122.014 94.3351 121.997 91.9255 121.964C92.7608 111.56 96.2609 103.33 103.346 95.6403C106.954 91.7248 111.547 88.3481 116.409 86.1958C121.739 83.8366 127.21 82.7537 133.041 82.5207Z" fill="#987429"/>
<path d="M183.72 131.213L184.133 131.809L183.997 132.196L183.86 132.258C183.699 131.953 183.727 131.565 183.72 131.213Z" fill="black"/>
<path d="M65.8674 129.496L88.6384 129.498L95.3927 129.495C96.3566 129.495 98.0465 129.44 98.9592 129.526C99.4271 130.254 99.59 130.761 99.6945 131.616C100.188 135.659 101.97 140.851 104.023 144.405C108.056 151.265 114.327 156.528 121.783 159.308C123.952 160.137 125.942 160.833 128.287 161.04C134.893 161.624 141.536 161.389 147.632 158.478C148.724 157.957 149.806 157.548 150.811 156.877C152.661 155.627 154.484 154.26 156.284 152.936C156.941 152.453 158.135 151.39 158.76 151.052C159.575 151.49 160.258 152.131 160.97 152.714C163.626 154.889 166.191 157.17 168.806 159.394L179.182 168.208C180.054 168.954 183.576 171.579 183.836 172.376C183.844 173.263 183.006 174.09 182.402 174.706C172.541 184.566 159.952 191.246 146.258 193.884C144.788 194.166 139.254 194.409 138.396 195H128.11C127.159 194.334 122.502 194.229 121.2 193.908C119.312 193.442 117.097 193.095 115.241 192.595C113.542 191.986 111.761 191.49 110.069 190.879C106.155 189.468 102.332 187.466 98.8043 185.346C87.1619 178.406 77.8707 168.132 72.1336 155.852C70.7129 152.808 69.5655 149.416 68.4364 146.233C67.8723 144.108 67.4265 141.849 66.9282 139.714C66.5875 138.254 66.5022 134.679 65.8674 133.545V129.496Z" fill="#987429"/>
<path d="M111.686 60.113C121.532 56.988 131.443 56.5102 141.715 57.1496C146.581 57.5576 151.415 58.5949 156.003 60.2561C160.429 61.8592 165.709 64.2092 169.652 66.7518C171.727 68.0885 173.738 69.5203 175.68 71.0425C176.646 71.7979 182.247 77.0566 183.389 78.2578C181.652 79.9439 180.002 81.4333 178.333 82.9751C175.623 80.658 172.98 78.2234 170.13 76.0807C159.318 67.9669 146.086 63.7365 132.572 64.0733C126.932 64.24 121.024 64.8765 115.619 66.656C114.805 66.9243 113.964 67.2604 113.158 67.5629C104.322 70.8142 96.3528 76.0568 89.8691 82.8842C81.1273 92.1673 75.8734 103.342 73.8001 115.877C73.4248 118.146 73.4943 119.921 73.2292 121.989C70.9333 121.993 68.1239 122.067 65.8674 121.965C65.8674 94.6893 86.4513 69.0743 111.686 60.113Z" fill="#987429"/>
<defs>
<radialGradient id="paint0_radial_769_601" cx="0" cy="0" r="1" gradientUnits="userSpaceOnUse" gradientTransform="translate(156.363 105.247) rotate(135) scale(38.6453 38.6452)">
<stop offset="0.517907" stop-color="#CD8926"/>
<stop offset="1" stop-color="#CB8727" stop-opacity="0"/>
</radialGradient>
</defs>
</svg>
