<svg width="250" height="250" viewBox="0 0 250 250" fill="none" xmlns="http://www.w3.org/2000/svg">
<path d="M0 48C0 21.4903 21.4903 0 48 0H202C228.51 0 250 21.4903 250 48V202C250 228.51 228.51 250 202 250H48C21.4903 250 0 228.51 0 202V48Z" fill="#107EBC"/>
<path fill-rule="evenodd" clip-rule="evenodd" d="M115.877 116.203C118.864 117.294 121.616 118.967 121.691 123.112C121.691 127.319 121.605 126.208 121.655 128.585C121.71 131.33 120.787 131.983 119.669 132.515C119.485 132.601 119.032 132.698 118.801 132.702L55 132.757V129.101L55.8093 122.908C58.5658 106.272 68.2896 91.3869 81.9781 82.7422C99.4082 71.7359 120.803 69.6168 140.259 78.934C143.121 80.3376 146.123 82.0501 148.438 83.7157L191.317 108.528C186.242 110.561 176.21 111.538 170.028 111.175C152.297 110.135 136.806 100.348 123.622 89.4007C121.042 87.262 117.734 85.9756 114.117 85.9756C105.895 85.9756 99.2284 92.6419 99.2284 100.864C99.2284 112.778 107.517 113.97 115.865 116.199" fill="white"/>
<path fill-rule="evenodd" clip-rule="evenodd" d="M128.309 126.884C128.309 122.677 128.395 123.788 128.345 121.41C128.286 118.666 129.213 118.013 130.331 117.485C130.515 117.399 130.968 117.301 131.199 117.297L195 117.242V120.898L194.191 127.091C191.434 143.728 181.71 158.613 168.022 167.257C150.596 178.264 129.197 180.383 109.741 171.066C106.879 169.666 103.873 167.949 101.558 166.288L58.6787 141.472C63.7537 139.439 73.7825 138.461 79.9679 138.825C97.6991 139.865 113.19 149.651 126.374 160.595C128.951 162.734 132.262 164.024 135.875 164.024C144.097 164.024 150.764 157.358 150.764 149.135C150.764 129.39 128.532 139.177 128.309 126.888" fill="white"/>
</svg>
