<svg width="250" height="250" viewBox="0 0 250 250" fill="none" xmlns="http://www.w3.org/2000/svg">
<mask id="path-1-inside-1_769_604" fill="white">
<path d="M0 48C0 21.4903 21.4903 0 48 0H202C228.51 0 250 21.4903 250 48V202C250 228.51 228.51 250 202 250H48C21.4903 250 0 228.51 0 202V48Z"/>
</mask>
<path d="M0 48C0 21.4903 21.4903 0 48 0H202C228.51 0 250 21.4903 250 48V202C250 228.51 228.51 250 202 250H48C21.4903 250 0 228.51 0 202V48Z" fill="white"/>
<path d="M48 0V2H202V0V-2H48V0ZM250 48H248V202H250H252V48H250ZM202 250V248H48V250V252H202V250ZM0 202H2V48H0H-2V202H0ZM48 250V248C22.5949 248 2 227.405 2 202H0H-2C-2 229.614 20.3858 252 48 252V250ZM250 202H248C248 227.405 227.405 248 202 248V250V252C229.614 252 252 229.614 252 202H250ZM202 0V2C227.405 2 248 22.5949 248 48H250H252C252 20.3858 229.614 -2 202 -2V0ZM48 0V-2C20.3858 -2 -2 20.3858 -2 48H0H2C2 22.5949 22.5949 2 48 2V0Z" fill="#DDDBDB" mask="url(#path-1-inside-1_769_604)"/>
<path d="M86.0225 61.4184L86.3525 61.5121L86.4379 61.7819C86.1454 62.6565 83.8296 64.2149 83.0356 64.8552C57.0589 85.8044 53.6749 126.556 73.8144 152.463C84.5294 166.291 100.365 175.217 117.743 177.225C130.346 178.79 144.555 175.89 155.646 169.734C160.048 167.29 165.256 163.173 169.081 159.785C180.452 149.713 187.015 135.731 188.756 120.775C191.183 99.9248 183.687 79.7522 168.072 65.6976C166.288 64.0928 164.502 63.2003 162.974 61.2441C167.097 62.7072 172.83 68.5963 175.992 71.792C177.745 73.2526 183.011 80.449 184.277 82.6036C189.443 91.3916 192.92 100.959 194.509 111.04C195.084 114.249 194.864 117.457 194.976 120.654C195.19 126.78 193.966 131.587 192.476 137.485C189.112 150.792 181.419 162.997 171.151 172.067C167.847 174.985 163.97 177.267 160.259 179.62C149.164 186.364 137.144 188.653 124.275 188.751C117.835 188.801 112.993 188.451 106.612 186.785C96.9604 184.265 87.0278 178.661 79.3504 172.387C74.0696 168.072 67.8034 160.107 64.3362 154.203C55.1042 138.286 52.5948 119.346 57.3628 101.573C60.6569 88.874 67.4952 77.3739 77.0789 68.4147C80.3315 65.3439 82.129 63.704 86.0225 61.4184Z" fill="#A8D3E2"/>
<path d="M166.765 70.7748L166.89 70.8737C167.149 71.3007 167.073 85.9968 167.077 87.4067L167.208 116.215L167.196 141.869C167.186 144.167 167.498 157.388 166.267 158.281C159.262 163.36 152.331 169.481 143.71 171.483C143.236 171.593 142.68 171.709 142.256 171.422L142.316 118.719C142.306 109.203 142.049 99.6307 142.307 90.122C142.324 89.4754 142.273 87.7438 142.679 87.2493C144.806 84.6572 163.578 72.0596 166.765 70.7748Z" fill="#097046"/>
<path d="M136.574 103.943L136.765 103.992C137.121 104.48 136.963 116.079 136.961 117.613L136.937 140.323C136.925 150.895 137.161 162.366 136.874 172.862C130.151 174.539 120.982 174.16 114.159 173.103L112.704 172.888C112.61 170.464 112.62 167.906 112.651 165.477C112.844 150.564 112.425 135.528 112.764 120.629C112.777 120.608 112.789 120.587 112.803 120.566C113.871 118.949 118.486 116.277 120.298 115.026L136.574 103.943Z" fill="#097046"/>
<path d="M107.001 136.61C107.477 136.687 107.358 136.596 107.631 136.891C107.782 137.934 107.719 140.008 107.719 141.124L107.712 148.574C107.712 153.637 107.685 158.7 107.63 163.762C107.613 166.459 107.689 169.094 107.583 171.796C101.796 170.596 96.7654 167.529 91.8746 164.415C88.8978 162.523 86.2097 160.162 83.383 158.03C83.2981 156.602 83.296 154.951 83.4716 153.535C83.6066 152.447 84.7046 151.867 85.5518 151.284C87.7311 149.783 89.9197 148.284 92.107 146.79L100.972 140.817C103.03 139.404 104.874 138.011 107.001 136.61Z" fill="#097046"/>
</svg>
