<svg width="250" height="250" viewBox="0 0 250 250" fill="none" xmlns="http://www.w3.org/2000/svg">
<mask id="path-1-inside-1_769_606" fill="white">
<path d="M0 48C0 21.4903 21.4903 0 48 0H202C228.51 0 250 21.4903 250 48V202C250 228.51 228.51 250 202 250H48C21.4903 250 0 228.51 0 202V48Z"/>
</mask>
<path d="M0 48C0 21.4903 21.4903 0 48 0H202C228.51 0 250 21.4903 250 48V202C250 228.51 228.51 250 202 250H48C21.4903 250 0 228.51 0 202V48Z" fill="white"/>
<path d="M48 0V2H202V0V-2H48V0ZM250 48H248V202H250H252V48H250ZM202 250V248H48V250V252H202V250ZM0 202H2V48H0H-2V202H0ZM48 250V248C22.5949 248 2 227.405 2 202H0H-2C-2 229.614 20.3858 252 48 252V250ZM250 202H248C248 227.405 227.405 248 202 248V250V252C229.614 252 252 229.614 252 202H250ZM202 0V2C227.405 2 248 22.5949 248 48H250H252C252 20.3858 229.614 -2 202 -2V0ZM48 0V-2C20.3858 -2 -2 20.3858 -2 48H0H2C2 22.5949 22.5949 2 48 2V0Z" fill="#DDDBDB" mask="url(#path-1-inside-1_769_606)"/>
<path d="M190.892 101.82C164.245 94.0202 143.409 108.603 139.851 131.295C130.461 131.295 121.026 131.295 111.326 131.295C111.326 122.17 111.326 113.111 111.326 103.565C124.362 103.565 137.332 103.565 150.546 103.565C150.546 98.5718 150.546 94.0644 150.546 89.5569C146.502 88.7173 104.233 88.5184 97.0083 89.358C97.0083 123.076 97.0083 156.837 97.0083 191.041C80.4809 183.374 69.0575 171.465 61.7219 155.689C56.883 145.304 54.6513 134.278 55.049 122.766C56.198 89.9988 78.1388 60.8991 112.122 54.0937C133.267 49.8735 152.49 55.2869 169.061 69.0523C180.198 78.3324 187.6 89.7999 190.892 101.82Z" fill="#D72F28"/>
<path d="M176.201 173.696C160.778 192.964 131.413 201.492 110.312 195.306C110.312 179.507 110.312 163.643 110.312 147.425C120.387 147.425 130.573 147.425 141.091 147.425C146.482 163.908 157.95 172.989 176.201 173.696Z" fill="#090808"/>
<path d="M194.868 120.446C195.663 134.035 192.967 146.674 186.98 158.473C173.767 164.77 160.443 157.523 156.134 149.59C150.986 140.133 151.494 125.418 161.791 117.331C171.159 109.951 185.521 110.857 194.868 120.446Z" fill="#169348"/>
</svg>
