<svg width="250" height="250" viewBox="0 0 250 250" fill="none" xmlns="http://www.w3.org/2000/svg">
<mask id="path-1-inside-1_769_609" fill="white">
<path d="M0 48C0 21.4903 21.4903 0 48 0H202C228.51 0 250 21.4903 250 48V202C250 228.51 228.51 250 202 250H48C21.4903 250 0 228.51 0 202V48Z"/>
</mask>
<path d="M0 48C0 21.4903 21.4903 0 48 0H202C228.51 0 250 21.4903 250 48V202C250 228.51 228.51 250 202 250H48C21.4903 250 0 228.51 0 202V48Z" fill="white"/>
<path d="M48 0V2H202V0V-2H48V0ZM250 48H248V202H250H252V48H250ZM202 250V248H48V250V252H202V250ZM0 202H2V48H0H-2V202H0ZM48 250V248C22.5949 248 2 227.405 2 202H0H-2C-2 229.614 20.3858 252 48 252V250ZM250 202H248C248 227.405 227.405 248 202 248V250V252C229.614 252 252 229.614 252 202H250ZM202 0V2C227.405 2 248 22.5949 248 48H250H252C252 20.3858 229.614 -2 202 -2V0ZM48 0V-2C20.3858 -2 -2 20.3858 -2 48H0H2C2 22.5949 22.5949 2 48 2V0Z" fill="#DDDBDB" mask="url(#path-1-inside-1_769_609)"/>
<path d="M109.358 163.508C94.5095 171.179 68.6739 174.694 59.6184 156.699C55.994 149.494 56.4582 140.726 59.0269 133.224C65.3906 114.64 80.967 100.266 97.0322 89.5318C119.982 74.3255 149.882 61.0701 177.735 69.0484C184.342 70.9405 191.727 76.4749 194.742 82.6542C202.675 98.9118 188.124 116.034 175.586 124.689L174.917 123.747C181.303 113.468 194.982 92.4331 180.182 83.0095C171.738 77.6337 156.096 79.6555 146.655 81.9233C122.662 87.8543 100.79 100.336 83.4773 117.974C79.2587 122.325 76.5028 125.475 73.2103 130.499C67.3355 139.463 61.8957 153.034 73.8492 159.84C83.9465 165.589 98.0714 164.486 109.358 163.508Z" fill="#0C448E"/>
<path d="M139.619 116.136C143.892 115.486 151.369 116.788 155.557 117.688C155.526 121.554 155.529 125.421 155.568 129.287C152.18 127.889 148.966 127.188 145.288 127.108C142.309 127.043 137.798 127.089 135.528 129.335C131.803 133.019 132.081 143.077 132.066 148.099C132.055 151.892 131.792 165.463 134.357 167.983C136.173 169.768 138.947 169.845 141.338 169.824C143.16 169.808 145.167 169.871 146.526 168.452C149.24 165.615 148.595 157.42 148.546 153.682C146.048 153.637 143.482 153.666 140.979 153.666L140.973 142.084C142.461 142.197 144.979 142.124 146.534 142.123L156.799 142.113L159.815 142.141C159.792 152.342 161.294 167.317 155.037 175.875C152.615 179.188 149.339 180.64 145.328 181.049C140.263 181.566 132.548 181.789 128.291 178.483C124.005 175.154 121.887 167.356 121.379 162.037C120.377 151.549 119.396 132.443 125.698 123.573C128.583 119.511 134.702 116.72 139.619 116.136Z" fill="#0C448E"/>
<path d="M152.441 89.2256C164.013 88.7608 178.731 93.1206 176.465 107.782C175.11 116.556 167.321 123.071 160.389 127.918C164.433 121.682 175.153 106.667 166.494 99.9657C162.764 97.0798 155.461 97.2619 150.986 98.0359C129.482 101.756 106.411 115.091 93.5805 132.88C82.6081 149.618 95.6532 153.834 110.556 153.318C113.219 153.225 115.421 153.08 118.095 152.61C113.495 155.144 106.83 156.845 101.6 157.229C92.2872 157.912 83.4954 152.971 83.179 142.844C82.8973 133.828 88.1564 125.245 94.1622 118.778C104.991 107.118 122.221 96.3085 137.521 91.7671C142.38 90.347 147.386 89.4941 152.441 89.2256Z" fill="#D70F27"/>
</svg>
