<svg width="250" height="250" viewBox="0 0 250 250" fill="none" xmlns="http://www.w3.org/2000/svg">
<rect width="250" height="250" fill="white"/>
<path d="M109.358 163.508C94.5095 171.178 68.6739 174.694 59.6184 156.698C55.994 149.493 56.4582 140.726 59.0269 133.224C65.3906 114.639 80.967 100.265 97.0322 89.5313C119.982 74.325 149.882 61.0696 177.735 69.0479C184.342 70.9401 191.727 76.4744 194.742 82.6537C202.675 98.9113 188.124 116.034 175.586 124.689L174.917 123.746C181.303 113.467 194.982 92.4327 180.182 83.009C171.738 77.6333 156.096 79.655 146.655 81.9228C122.662 87.8538 100.79 100.335 83.4773 117.974C79.2587 122.324 76.5028 125.475 73.2103 130.499C67.3355 139.462 61.8957 153.033 73.8492 159.84C83.9465 165.589 98.0714 164.485 109.358 163.508Z" fill="#0C448E"/>
<path d="M139.619 116.135C143.892 115.486 151.369 116.788 155.557 117.687C155.526 121.554 155.529 125.42 155.568 129.286C152.18 127.888 148.966 127.188 145.288 127.107C142.309 127.042 137.798 127.088 135.528 129.334C131.803 133.018 132.081 143.076 132.066 148.098C132.055 151.891 131.792 165.462 134.357 167.983C136.173 169.767 138.947 169.844 141.338 169.823C143.16 169.807 145.167 169.871 146.526 168.451C149.24 165.614 148.595 157.419 148.546 153.681C146.048 153.637 143.482 153.666 140.979 153.665L140.973 142.084C142.461 142.196 144.979 142.124 146.534 142.123L156.799 142.113L159.815 142.141C159.792 152.341 161.294 167.316 155.037 175.875C152.615 179.188 149.339 180.64 145.328 181.049C140.263 181.566 132.548 181.788 128.291 178.483C124.005 175.154 121.887 167.355 121.379 162.037C120.377 151.549 119.396 132.443 125.698 123.572C128.583 119.51 134.702 116.72 139.619 116.135Z" fill="#0C448E"/>
<path d="M152.441 89.2251C164.013 88.7603 178.731 93.1201 176.465 107.781C175.11 116.555 167.321 123.071 160.389 127.918C164.433 121.682 175.153 106.667 166.494 99.9652C162.764 97.0793 155.461 97.2614 150.986 98.0354C129.482 101.755 106.411 115.09 93.5805 132.88C82.6081 149.618 95.6532 153.834 110.556 153.317C113.219 153.225 115.421 153.08 118.095 152.609C113.495 155.143 106.83 156.844 101.6 157.228C92.2872 157.912 83.4954 152.97 83.179 142.844C82.8973 133.827 88.1564 125.245 94.1622 118.778C104.991 107.118 122.221 96.308 137.521 91.7666C142.38 90.3465 147.386 89.4936 152.441 89.2251Z" fill="#D70F27"/>
</svg>
