<svg width="250" height="250" viewBox="0 0 250 250" fill="none" xmlns="http://www.w3.org/2000/svg">
<rect width="250" height="250" fill="white"/>
<path fill-rule="evenodd" clip-rule="evenodd" d="M110.853 75.2326C115.769 74.5524 120.896 76.2937 123.613 78.905C124.989 80.2271 126.391 81.3616 127.541 83.4155C128.529 85.1784 129.325 87.2506 129.643 89.5806C130.994 99.48 123.698 107.324 115.335 108.46C105.354 109.816 97.5618 102.551 96.3914 94.1588C95.6655 88.9537 97.5688 84.0748 100.071 81.2458C103.018 77.9141 105.901 75.9178 110.853 75.2326ZM134.039 95.6539C134.179 94.9904 136.224 91.9509 136.744 91.0775L144.977 77.5283C148.142 72.3873 152.973 63.959 156.035 59.4873C157.477 61.7567 159.575 65.9566 161.101 68.6002L176.14 95.9001L165.885 95.8875C164.796 119.228 148.257 136.911 130.494 142.904C113.448 148.655 96.1223 145.916 81.873 135.673L77.5544 132.219L71.2786 125.595L71.2578 152.796C71.2578 158.925 75.9949 163.461 82.1373 163.461H167.569C173.973 163.461 178.718 159.035 178.718 152.796V66.6894C178.718 60.4786 173.994 55.9996 167.737 55.9996L146.126 55.9995C145.213 56.0001 144.181 58.1805 143.255 59.5963L136.205 70.78C135.546 70.4346 135.09 69.8009 134.527 69.3413C133.976 68.8921 133.422 68.4005 132.866 67.9605C120.973 58.5454 104.702 58.7572 92.8456 68.2787C89.6704 70.8285 89.2529 71.7922 87.0449 74.4625C83.2925 79.0007 81.151 87.0303 81.1432 93.3656C81.1185 110.336 95.3022 124.235 111.852 124.806C121.599 125.143 129.543 121.149 134.583 116.436C136.236 114.89 136.922 114.125 138.296 112.377C141.401 108.426 145.047 100.568 144.757 95.7647L134.039 95.6539Z" fill="#B03140"/>
<path fill-rule="evenodd" clip-rule="evenodd" d="M110.853 75.2335C105.9 75.9187 103.018 77.915 100.071 81.2467C97.5684 84.0757 95.6651 88.9546 96.391 94.1597C97.5614 102.552 105.353 109.817 115.335 108.461C123.698 107.324 130.994 99.4809 129.642 89.5815C129.324 87.2515 128.528 85.1793 127.541 83.4164C126.391 81.3625 124.988 80.228 123.613 78.9059C120.895 76.2946 115.769 74.5533 110.853 75.2335Z" fill="#B2BAC0"/>
<path fill-rule="evenodd" clip-rule="evenodd" d="M79.969 184.459C81.1794 184.617 89.6151 184.512 91.5693 184.512C96.3258 184.512 99.5399 183.61 99.3723 188.377C99.2987 190.47 98.1713 190.916 96.1034 190.937C94.1656 190.958 92.2147 190.937 90.2754 190.937C77.6938 190.937 77.1329 192.152 77.135 186.589C77.1358 184.648 77.1351 182.707 77.1351 180.766C77.1351 176.25 76.0139 172.995 81.0557 173.007C88.7534 173.027 96.4914 173.072 104.205 173.005L104.16 168.028C98.5667 167.989 92.9595 168.025 87.3642 168.025C81.2974 168.025 76.8686 167.202 73.5714 171.017C71.7991 173.068 71.8628 174.49 71.8629 177.693C71.8629 180.497 71.8629 183.3 71.8629 186.103C71.8628 189.283 71.7288 190.784 73.4156 192.934C74.4392 194.239 76.3686 195.564 78.8929 195.853C80.7161 196.062 92.7403 195.921 95.6132 195.921C98.7219 195.92 100.078 195.51 102.055 194.001C105.431 191.423 105.529 184.921 102.472 181.994C101.213 180.787 99.1713 179.603 96.5823 179.534L79.9687 179.558L79.969 184.459Z" fill="#B03140"/>
<path fill-rule="evenodd" clip-rule="evenodd" d="M115.36 173.013C120.793 172.964 126.247 173.009 131.682 173.009C139.809 173.009 138.866 172.777 138.866 182.06C138.866 183.642 139.11 188.814 138.529 189.882C137.652 191.491 133.641 190.936 131.52 190.936C126.141 190.936 120.743 190.982 115.336 190.932L115.36 173.013ZM136.908 195.786C138.203 195.951 140.094 195.078 140.896 194.513C145.059 191.578 144.136 187.651 144.136 182.06C144.136 179.206 144.569 174.537 143.351 172.33C142.577 170.929 139.741 167.951 137.15 168.218L123.757 168.122C119.235 168.122 114.714 168.122 110.192 168.122V195.802L136.908 195.786Z" fill="#B03140"/>
<path fill-rule="evenodd" clip-rule="evenodd" d="M149.95 168.025C149.769 169.419 149.896 179.887 149.896 182.222C149.896 187.717 149.076 190.895 152.482 193.931C155.488 196.611 160.076 195.919 164.674 195.919C169.331 195.919 174.047 195.993 178.737 195.913L178.734 190.947C174.893 190.856 170.953 190.936 167.1 190.936C154.573 190.936 155.166 191.858 155.166 185.456C155.166 182.92 155.272 169.349 155.118 168.026L149.95 168.025Z" fill="#B03140"/>
</svg>
