<svg width="250" height="250" viewBox="0 0 250 250" fill="none" xmlns="http://www.w3.org/2000/svg">
<mask id="path-1-inside-1_769_610" fill="white">
<path d="M0 48C0 21.4903 21.4903 0 48 0H202C228.51 0 250 21.4903 250 48V202C250 228.51 228.51 250 202 250H48C21.4903 250 0 228.51 0 202V48Z"/>
</mask>
<path d="M0 48C0 21.4903 21.4903 0 48 0H202C228.51 0 250 21.4903 250 48V202C250 228.51 228.51 250 202 250H48C21.4903 250 0 228.51 0 202V48Z" fill="white"/>
<path d="M48 0V2H202V0V-2H48V0ZM250 48H248V202H250H252V48H250ZM202 250V248H48V250V252H202V250ZM0 202H2V48H0H-2V202H0ZM48 250V248C22.5949 248 2 227.405 2 202H0H-2C-2 229.614 20.3858 252 48 252V250ZM250 202H248C248 227.405 227.405 248 202 248V250V252C229.614 252 252 229.614 252 202H250ZM202 0V2C227.405 2 248 22.5949 248 48H250H252C252 20.3858 229.614 -2 202 -2V0ZM48 0V-2C20.3858 -2 -2 20.3858 -2 48H0H2C2 22.5949 22.5949 2 48 2V0Z" fill="#DDDBDB" mask="url(#path-1-inside-1_769_610)"/>
<path fill-rule="evenodd" clip-rule="evenodd" d="M110.856 75.2321C115.772 74.5519 120.899 76.2932 123.616 78.9045C124.992 80.2266 126.394 81.3611 127.544 83.415C128.532 85.1779 129.327 87.2501 129.646 89.5801C130.997 99.4795 123.701 107.323 115.338 108.46C105.357 109.816 97.5648 102.55 96.3944 94.1583C95.6684 88.9532 97.5717 84.0743 100.074 81.2453C103.021 77.9136 105.904 75.9173 110.856 75.2321ZM134.042 95.6534C134.182 94.9899 136.227 91.9504 136.747 91.077L144.98 77.5279C148.145 72.3868 152.976 63.9585 156.038 59.4868C157.48 61.7562 159.578 65.9561 161.104 68.5997L176.143 95.8996L165.888 95.887C164.799 119.228 148.26 136.911 130.497 142.904C113.451 148.654 96.1252 145.915 81.8759 135.673L77.5573 132.218L71.2815 125.595L71.2607 152.796C71.2607 158.924 75.9978 163.46 82.1403 163.46H167.571C173.976 163.46 178.721 159.034 178.721 152.796V66.6889C178.721 60.4782 173.997 55.9991 167.74 55.9991L146.129 55.999C145.216 55.9996 144.184 58.18 143.258 59.5958L136.207 70.7795C135.549 70.4342 135.093 69.8004 134.53 69.3408C133.979 68.8916 133.425 68.4 132.869 67.96C120.976 58.5449 104.705 58.7567 92.8485 68.2782C89.6734 70.828 89.2558 71.7917 87.0478 74.4621C83.2954 79.0002 81.154 87.0298 81.1461 93.3651C81.1215 110.335 95.3051 124.234 111.855 124.806C121.601 125.142 129.546 121.148 134.585 116.435C136.239 114.889 136.925 114.124 138.298 112.377C141.404 108.425 145.05 100.567 144.76 95.7643L134.042 95.6534Z" fill="#B03140"/>
<path fill-rule="evenodd" clip-rule="evenodd" d="M110.856 75.233C105.903 75.9182 103.021 77.9145 100.074 81.2462C97.5713 84.0752 95.668 88.9541 96.394 94.1593C97.5644 102.551 105.356 109.817 115.338 108.461C123.701 107.324 130.997 99.4804 129.645 89.581C129.327 87.251 128.531 85.1788 127.544 83.4159C126.394 81.362 124.991 80.2275 123.616 78.9054C120.898 76.2941 115.772 74.5528 110.856 75.233Z" fill="#B2BAC0"/>
<path fill-rule="evenodd" clip-rule="evenodd" d="M79.972 184.459C81.1823 184.616 89.618 184.512 91.5722 184.512C96.3288 184.512 99.5428 183.609 99.3752 188.377C99.3017 190.469 98.1742 190.915 96.1063 190.937C94.1685 190.957 92.2176 190.936 90.2784 190.936C77.6967 190.936 77.1358 192.152 77.138 186.588C77.1387 184.647 77.138 182.706 77.138 180.766C77.138 176.25 76.0168 172.994 81.0586 173.007C88.7563 173.027 96.4944 173.071 104.208 173.005L104.163 168.028C98.5696 167.988 92.9624 168.025 87.3672 168.025C81.3003 168.025 76.8716 167.201 73.5743 171.017C71.802 173.068 71.8657 174.49 71.8658 177.693C71.8659 180.496 71.8658 183.299 71.8658 186.103C71.8658 189.282 71.7317 190.784 73.4186 192.934C74.4422 194.239 76.3715 195.563 78.8958 195.852C80.719 196.061 92.7432 195.92 95.6161 195.92C98.7249 195.92 100.081 195.51 102.058 194C105.433 191.422 105.532 184.921 102.475 181.993C101.215 180.787 99.1742 179.602 96.5852 179.534L79.9716 179.557L79.972 184.459Z" fill="#B03140"/>
<path fill-rule="evenodd" clip-rule="evenodd" d="M115.363 173.012C120.796 172.964 126.25 173.008 131.685 173.008C139.812 173.008 138.869 172.777 138.869 182.059C138.869 183.642 139.113 188.814 138.532 189.881C137.655 191.491 133.644 190.936 131.523 190.936C126.144 190.936 120.746 190.981 115.339 190.932L115.363 173.012ZM136.911 195.785C138.206 195.951 140.097 195.077 140.899 194.512C145.062 191.578 144.139 187.65 144.139 182.059C144.139 179.205 144.572 174.537 143.354 172.33C142.58 170.929 139.744 167.95 137.153 168.218L123.76 168.121C119.238 168.121 114.717 168.121 110.195 168.121V195.801L136.911 195.785Z" fill="#B03140"/>
<path fill-rule="evenodd" clip-rule="evenodd" d="M149.953 168.024C149.771 169.419 149.899 179.887 149.899 182.221C149.899 187.717 149.079 190.894 152.485 193.93C155.491 196.61 160.079 195.919 164.677 195.919C169.333 195.919 174.05 195.993 178.74 195.912L178.737 190.946C174.896 190.855 170.956 190.936 167.103 190.936C154.576 190.936 155.169 191.857 155.169 185.456C155.169 182.919 155.275 169.348 155.121 168.025L149.953 168.024Z" fill="#B03140"/>
</svg>
