<svg width="250" height="250" viewBox="0 0 250 250" fill="none" xmlns="http://www.w3.org/2000/svg">
<mask id="path-1-inside-1_769_611" fill="white">
<path d="M0 48C0 21.4903 21.4903 0 48 0H202C228.51 0 250 21.4903 250 48V202C250 228.51 228.51 250 202 250H48C21.4903 250 0 228.51 0 202V48Z"/>
</mask>
<path d="M0 48C0 21.4903 21.4903 0 48 0H202C228.51 0 250 21.4903 250 48V202C250 228.51 228.51 250 202 250H48C21.4903 250 0 228.51 0 202V48Z" fill="white"/>
<path d="M48 0V2H202V0V-2H48V0ZM250 48H248V202H250H252V48H250ZM202 250V248H48V250V252H202V250ZM0 202H2V48H0H-2V202H0ZM48 250V248C22.5949 248 2 227.405 2 202H0H-2C-2 229.614 20.3858 252 48 252V250ZM250 202H248C248 227.405 227.405 248 202 248V250V252C229.614 252 252 229.614 252 202H250ZM202 0V2C227.405 2 248 22.5949 248 48H250H252C252 20.3858 229.614 -2 202 -2V0ZM48 0V-2C20.3858 -2 -2 20.3858 -2 48H0H2C2 22.5949 22.5949 2 48 2V0Z" fill="#DDDBDB" mask="url(#path-1-inside-1_769_611)"/>
<path d="M120.578 55.468C120.602 55.4641 120.626 55.4603 120.651 55.4565C139.044 54.0967 159.019 61.3065 172.258 73.8006C184.081 84.9588 191.64 99.6135 193.895 115.283C196.497 133.349 191.5 152.744 180.406 167.099C170.52 179.942 156.53 189.007 140.769 192.782C136.322 193.818 133.947 193.88 129.545 194.442C125.913 194.577 123.122 194.647 119.431 194.353C104.429 193.173 90.2099 187.173 78.8965 177.249C64.5354 164.555 56.497 147.548 55.3214 128.455C54.3703 110.342 60.5328 92.5741 72.4948 78.9398C84.7372 64.9983 102.056 56.5442 120.578 55.468Z" fill="#9E7D41"/>
<path d="M123.198 62.9437C157.473 62.0357 185.98 89.1122 186.837 123.388C187.695 157.664 160.576 186.132 126.298 186.938C92.0929 187.743 63.6981 160.693 62.8427 126.489C61.9874 92.2847 88.9948 63.8497 123.198 62.9437Z" fill="#FEFEFE"/>
<path d="M120.828 68.4082C152.072 66.187 179.193 89.7308 181.385 120.977C183.577 152.223 160.008 179.323 128.76 181.486C97.5535 183.646 70.4971 160.114 68.3081 128.909C66.1189 97.7046 89.6249 70.6264 120.828 68.4082Z" fill="#9E7D41"/>
<path d="M119.11 74.0617C119.604 74.1217 120.096 74.1915 120.587 74.2705C123.654 74.7848 126.763 76.3281 128.605 78.9002C129.152 77.4057 129.939 76.8226 131.087 75.7632C131.374 77.3938 131.455 77.5881 132.524 78.7628C134.964 79.6117 137.843 79.4237 140.234 80.7882C141.182 80.7101 143.114 84.1338 143.114 84.1338C149.327 83.2171 149.922 89.0723 150.419 93.7592L150.358 93.7241C149.329 93.1414 142.769 90.4602 142.198 92.0469C140.391 97.0656 146.927 100.859 149.525 104.169C152.182 107.554 153.345 111.934 153.297 116.185C153.281 118.474 152.906 119.804 151.879 121.799C150.409 120.117 148.617 119.091 146.449 118.551C148.679 125.323 148.756 129.774 143.067 134.842C141.551 131.089 139.771 129.437 136.626 127.163C138.37 136.256 132.447 139.852 124.54 141.831C123.913 138.318 123.004 136.221 120.037 133.955C118.206 132.556 115.931 132.02 113.657 132.41C111.354 132.806 108 134.82 106.662 136.742C109.561 135.346 112.372 134.257 115.631 135.115C119.987 136.231 122.187 141.01 122.648 145.122C123.479 152.542 114.751 157.163 108.447 157.718C112.164 159.93 117.319 161.279 121.577 160.174C123.253 159.739 125.137 159.144 126.866 159.329C128.664 159.522 131.897 162.226 132.983 163.644C132.718 164.054 131.833 165.589 131.399 165.641C129.629 163.214 128.593 163.319 126.517 165.233C125.794 164.407 125.374 164.306 124.364 163.927C123.058 164.304 122.813 164.569 122.082 165.71C114.672 162.723 107.1 163.52 99.5871 165.747C98.2007 163.093 98.3412 161.126 98.632 158.217C91.8006 158.298 87.2529 152.61 85.6089 146.454C85.0388 144.32 85.8215 139.518 86.2582 137.334C86.8074 134.674 87.3764 132.017 87.9652 129.365C89.03 124.591 90.5674 119.686 89.3727 114.793C87.9961 109.155 81.3099 110.555 82.2943 115.79C82.6478 117.67 85.0904 118.684 86.6877 119.507C85.2565 120.121 84.1401 121.027 83.0815 122.144C85.4757 126.294 86.0927 130.65 84.9772 135.308C81.1607 133.419 79.5656 132.196 77.6725 128.293C78.5032 127.822 81.2964 126.196 80.917 125.065C80.3676 125.123 79.5636 125.843 79.093 126.018C77.4643 126.626 75.3239 126.573 73.5417 126.844C78.959 123.441 76.6735 115.673 79.875 110.482C80.7927 108.993 82.22 107.905 83.9395 107.53C85.5747 107.174 87.315 107.562 88.7068 108.472C90.484 109.635 91.4692 111.572 92.0817 113.544C95.8229 125.591 87.8634 135.378 90.0119 145.9C90.322 147.419 90.8157 149.097 92.1994 149.981C92.7785 150.35 93.4627 150.497 94.1359 150.338C95.0761 150.116 95.5203 149.57 96.0017 148.776C96.1239 147.265 96.0158 145.229 96.1224 143.574C96.6361 135.602 98.6387 130.611 103.674 124.565C108.291 125.42 113.642 124.607 118.004 122.949C104.945 121.204 92.6556 114.311 88.8514 100.969C89.5628 101.166 92.1007 101.967 92.6325 101.759C92.6857 101.048 89.9233 97.6128 91.002 94.0951C92.3774 89.6102 94.5087 86.9267 98.4289 84.3955L98.6141 84.4586L98.5937 84.8733C98.6214 85.3587 98.5566 85.7531 98.8125 86.0835L99.469 86.1716C101.431 84.0965 102.994 82.9074 106.025 82.8168C108.094 82.755 109.718 83.1887 111.521 84.1841C106.807 88.6581 104.959 94.5529 109.988 99.7464C112.768 102.617 117.012 104.707 120.849 105.852C127.194 107.229 132.142 108.965 136.553 113.999C136.995 114.503 137.953 115.791 138.46 116.142L138.544 116.008C138.411 115.432 138.228 115.083 137.919 114.585C135.033 109.931 130.413 105.994 124.943 104.85C125.403 104.506 126.013 104.076 126.429 103.701C122.571 101.213 121.09 99.7475 118.433 96.1484L120.327 94.7946C127.64 102.73 129.817 103.095 139.67 106.769L139.919 106.277C135.818 103.569 130.908 102.997 127.035 99.0556C122.386 94.3245 120.79 89.6516 120.636 83.2201C126.664 85.1109 129.162 86.7697 133.217 91.8449C134.273 93.1668 135.46 95.1645 136.589 96.3336C136.304 95.472 135.742 94.5077 135.352 93.677C133.422 89.5715 130.606 86.1086 126.832 83.5676C125.595 82.7349 122.89 81.3801 122.047 80.2637C120.698 78.4776 120.397 76.2402 119.11 74.0617Z" fill="#FEFEFE"/>
<path d="M139.919 106.277C140.539 106.694 143.386 108.651 143.573 109.289C142.224 108.627 141.215 107.488 139.67 106.769L139.919 106.277Z" fill="#743F17"/>
<path d="M97.8362 87.8808C98.1218 86.907 98.3558 85.8648 98.5937 84.8733C98.6214 85.3587 98.5566 85.7531 98.8125 86.0835L99.469 86.1716L97.8362 87.8808Z" fill="#B07528"/>
<path d="M98.2446 103.188C99.7942 103.715 98.9486 108.618 104.316 110.015C110.934 111.737 119.345 113.835 122.396 120.675C122.748 121.465 123.516 123.291 123.213 124.123C122.498 123.577 122.033 121.986 121.579 121.122C117.099 112.592 103.647 116.195 99.1732 107.766C98.6675 106.814 97.8993 104.218 98.2446 103.188Z" fill="#9E7D41"/>
<path d="M108.344 105.211C109.67 105.359 110.938 105.877 112.2 106.273C116.588 107.648 120.692 110.006 123.605 113.627C126.416 117.122 127.269 121.735 126.894 126.117C126.833 126.832 126.602 127.216 125.829 127.212C124.911 126.646 124.971 123.378 124.682 122.073C123.443 116.716 120.131 112.068 115.472 109.147C113.877 108.127 112.161 107.307 110.365 106.706C109.864 106.538 108.302 106.102 107.916 105.939C107.952 105.861 107.978 105.707 107.997 105.616L107.47 105.389L107.313 105.496C107.241 105.422 107.271 105.473 107.271 105.322L107.35 105.385C107.774 105.398 107.94 105.399 108.344 105.211Z" fill="#A28142"/>
<path d="M133.866 82.3321C134.574 82.4035 135.342 82.8988 135.932 82.9777C137.961 83.2488 141.163 83.1039 139.563 86.1828C137.642 87.152 136.97 86.3438 136.394 84.5899C135.927 84.2782 135.464 83.9607 135.005 83.6377C134.503 83.2796 133.971 82.9568 133.866 82.3321Z" fill="#9E7D41"/>
<path d="M107.916 105.939C106.78 105.685 103.078 105.258 102.519 104.592L102.699 104.441C104.094 104.217 106.882 104.893 108.344 105.211C107.94 105.399 107.774 105.398 107.35 105.385L107.271 105.322C107.271 105.473 107.241 105.422 107.313 105.496L107.47 105.389L107.997 105.616C107.978 105.707 107.952 105.861 107.916 105.939Z" fill="#B07528"/>
<path d="M138.964 132.162C139.993 132.673 141.575 137.422 141.564 138.745C141.542 141.464 140.261 142.977 138.537 144.805C140.228 147.233 149.731 160.281 151.896 160.66C153.253 160.897 154.393 159.682 155.408 158.981C155.873 158.659 156.496 158.309 157.084 158.443C157.699 158.583 158.229 159.239 158.547 159.751C159.692 161.593 159.4 163.697 158.924 165.682C156.117 161.196 152.509 162.958 148.907 164.908L147.138 164.284C143.719 162.706 140.459 163.785 137.577 165.812C136.853 161.546 138.464 162.036 140.537 158.929C141.383 159.555 142.749 160.523 143.817 160.296C144.468 159.628 143.498 158.314 143.106 157.626C140.774 153.527 137.463 149.935 134.057 146.7C135.417 143.815 133.943 142.469 131.311 144.522C131.026 143.948 130.423 143.049 130.062 142.478C132.052 141.482 133.345 141.192 135.118 139.581C137.489 137.427 138.748 135.362 138.964 132.162Z" fill="#FEFEFE"/>
<path d="M166.016 102.864C166.673 102.806 167.834 102.835 168.441 103.105C168.218 103.397 166.679 104.021 165.697 104.924C166.243 106.014 166.738 106.694 166.966 107.888C168.72 108.874 170.282 109.148 171.892 109.949C172.958 111.432 172.936 112.002 173.203 113.782C172.001 112.527 170.615 110.935 169.496 113.177C163.616 114.781 167.304 117.827 168.135 121.516C168.34 122.427 167.304 122.776 167.193 123.647C167.473 124.487 168.272 125.19 168.906 125.817C165.433 124.421 165.359 125.057 164.563 121.156C164.145 120.857 163.579 120.592 163.112 120.356C160.475 120.969 158.996 122.856 157.291 124.814C154.73 127.974 153.905 129.114 152.755 133C150.546 134.633 149.314 134.38 146.691 134.271C149.033 131.432 149.401 130.023 149.938 126.387C154.912 122.067 160.247 120.336 161.661 112.867C162.095 110.574 161.589 108.657 162.421 106.655C162.939 105.408 164.776 103.341 166.016 102.864Z" fill="#FEFEFE"/>
<path d="M92.0301 135.217C93.9338 136.24 95.7251 143.745 94.0617 145.412C93.3784 142.751 93.072 142.696 91.1782 140.727C91.5212 138.943 91.5561 137.052 92.0301 135.217Z" fill="#FEFEFE"/>
<path d="M161.114 102.964L161.232 103.012C161.36 103.4 160.368 104.203 160.287 105.14C160.089 107.437 160.831 108.891 160.567 111.27C160.124 111.059 159.496 110.667 159.056 110.41C155.494 108.146 158.133 104.196 161.114 102.964Z" fill="#FEFEFE"/>
</svg>
