<svg width="250" height="250" viewBox="0 0 250 250" fill="none" xmlns="http://www.w3.org/2000/svg">
<rect width="250" height="250" fill="white"/>
<path d="M120.579 55.468C120.603 55.4641 120.627 55.4603 120.652 55.4565C139.045 54.0967 159.02 61.3065 172.259 73.8006C184.082 84.9588 191.641 99.6135 193.896 115.283C196.498 133.349 191.501 152.744 180.407 167.099C170.521 179.942 156.531 189.007 140.77 192.782C136.323 193.818 133.948 193.88 129.546 194.442C125.914 194.577 123.123 194.647 119.432 194.353C104.43 193.173 90.2108 187.173 78.8975 177.249C64.5363 164.555 56.498 147.548 55.3223 128.455C54.3712 110.342 60.5338 92.5741 72.4958 78.9398C84.7381 64.9983 102.057 56.5442 120.579 55.468Z" fill="#9E7D41"/>
<path d="M123.199 62.9437C157.474 62.0357 185.981 89.1122 186.838 123.388C187.696 157.664 160.577 186.132 126.299 186.938C92.0939 187.743 63.699 160.693 62.8437 126.489C61.9884 92.2847 88.9957 63.8497 123.199 62.9437Z" fill="#FEFEFE"/>
<path d="M120.829 68.4082C152.073 66.187 179.194 89.7308 181.386 120.977C183.578 152.223 160.009 179.323 128.761 181.486C97.5544 183.646 70.4981 160.114 68.309 128.909C66.1199 97.7046 89.6258 70.6264 120.829 68.4082Z" fill="#9E7D41"/>
<path d="M119.111 74.0617C119.605 74.1217 120.097 74.1915 120.588 74.2705C123.655 74.7848 126.764 76.3281 128.606 78.9002C129.153 77.4057 129.94 76.8226 131.088 75.7632C131.375 77.3938 131.456 77.5881 132.524 78.7628C134.965 79.6117 137.844 79.4237 140.235 80.7882C141.183 80.7101 143.115 84.1338 143.115 84.1338C149.328 83.2171 149.923 89.0723 150.42 93.7592L150.359 93.7241C149.33 93.1414 142.77 90.4602 142.199 92.0469C140.392 97.0656 146.928 100.859 149.526 104.169C152.183 107.554 153.346 111.934 153.298 116.185C153.282 118.474 152.907 119.804 151.88 121.799C150.409 120.117 148.618 119.091 146.45 118.551C148.68 125.323 148.757 129.774 143.068 134.842C141.552 131.089 139.772 129.437 136.627 127.163C138.371 136.256 132.448 139.852 124.541 141.831C123.914 138.318 123.005 136.221 120.038 133.955C118.207 132.556 115.932 132.02 113.658 132.41C111.355 132.806 108.001 134.82 106.663 136.742C109.562 135.346 112.373 134.257 115.632 135.115C119.988 136.231 122.188 141.01 122.649 145.122C123.48 152.542 114.752 157.163 108.448 157.718C112.165 159.93 117.32 161.279 121.578 160.174C123.254 159.739 125.138 159.144 126.867 159.329C128.665 159.522 131.897 162.226 132.984 163.644C132.719 164.054 131.834 165.589 131.4 165.641C129.63 163.214 128.594 163.319 126.518 165.233C125.795 164.407 125.375 164.306 124.365 163.927C123.059 164.304 122.813 164.569 122.083 165.71C114.673 162.723 107.101 163.52 99.5881 165.747C98.2016 163.093 98.3422 161.126 98.633 158.217C91.8016 158.298 87.2539 152.61 85.6099 146.454C85.0397 144.32 85.8224 139.518 86.2591 137.334C86.8083 134.674 87.3774 132.017 87.9662 129.365C89.031 124.591 90.5684 119.686 89.3737 114.793C87.9971 109.155 81.3109 110.555 82.2952 115.79C82.6488 117.67 85.0914 118.684 86.6887 119.507C85.2575 120.121 84.1411 121.027 83.0825 122.144C85.4767 126.294 86.0937 130.65 84.9782 135.308C81.1617 133.419 79.5666 132.196 77.6735 128.293C78.5042 127.822 81.2973 126.196 80.9179 125.065C80.3686 125.123 79.5646 125.843 79.094 126.018C77.4652 126.626 75.3249 126.573 73.5426 126.844C78.96 123.441 76.6745 115.673 79.876 110.482C80.7937 108.993 82.221 107.905 83.9405 107.53C85.5757 107.174 87.316 107.562 88.7078 108.472C90.485 109.635 91.4702 111.572 92.0827 113.544C95.8238 125.591 87.8643 135.378 90.0129 145.9C90.323 147.419 90.8166 149.097 92.2004 149.981C92.7795 150.35 93.4637 150.497 94.1369 150.338C95.0771 150.116 95.5213 149.57 96.0027 148.776C96.1249 147.265 96.0167 145.229 96.1234 143.574C96.637 135.602 98.6397 130.611 103.675 124.565C108.292 125.42 113.643 124.607 118.005 122.949C104.946 121.204 92.6566 114.311 88.8524 100.969C89.5638 101.166 92.1017 101.967 92.6335 101.759C92.6867 101.048 89.9243 97.6128 91.003 94.0951C92.3784 89.6102 94.5097 86.9267 98.4298 84.3955L98.6151 84.4586L98.5947 84.8733C98.6223 85.3587 98.5575 85.7531 98.8135 86.0835L99.47 86.1716C101.432 84.0965 102.995 82.9074 106.026 82.8168C108.095 82.755 109.719 83.1887 111.522 84.1841C106.808 88.6581 104.96 94.5529 109.989 99.7464C112.769 102.617 117.013 104.707 120.85 105.852C127.195 107.229 132.143 108.965 136.554 113.999C136.996 114.503 137.954 115.791 138.461 116.142L138.545 116.008C138.412 115.432 138.229 115.083 137.92 114.585C135.034 109.931 130.414 105.994 124.944 104.85C125.404 104.506 126.014 104.076 126.43 103.701C122.572 101.213 121.091 99.7475 118.434 96.1484L120.328 94.7946C127.641 102.73 129.818 103.095 139.671 106.769L139.92 106.277C135.819 103.569 130.909 102.997 127.036 99.0556C122.387 94.3245 120.791 89.6516 120.637 83.2201C126.665 85.1109 129.163 86.7697 133.218 91.8449C134.274 93.1668 135.461 95.1645 136.59 96.3336C136.305 95.472 135.743 94.5077 135.353 93.677C133.423 89.5715 130.607 86.1086 126.833 83.5676C125.596 82.7349 122.891 81.3801 122.048 80.2637C120.699 78.4776 120.398 76.2402 119.111 74.0617Z" fill="#FEFEFE"/>
<path d="M139.92 106.277C140.54 106.694 143.387 108.651 143.574 109.289C142.225 108.627 141.216 107.488 139.671 106.769L139.92 106.277Z" fill="#743F17"/>
<path d="M97.8372 87.8808C98.1228 86.907 98.3568 85.8648 98.5947 84.8733C98.6223 85.3587 98.5575 85.7531 98.8135 86.0835L99.47 86.1716L97.8372 87.8808Z" fill="#B07528"/>
<path d="M98.2456 103.188C99.7952 103.715 98.9496 108.618 104.317 110.015C110.935 111.737 119.346 113.835 122.397 120.675C122.749 121.465 123.517 123.291 123.214 124.123C122.499 123.577 122.034 121.986 121.58 121.122C117.1 112.592 103.648 116.195 99.1742 107.766C98.6685 106.814 97.9003 104.218 98.2456 103.188Z" fill="#9E7D41"/>
<path d="M108.345 105.211C109.671 105.359 110.939 105.877 112.201 106.273C116.589 107.648 120.693 110.006 123.606 113.627C126.417 117.122 127.27 121.735 126.895 126.117C126.834 126.832 126.603 127.216 125.83 127.212C124.912 126.646 124.972 123.378 124.683 122.073C123.444 116.716 120.132 112.068 115.473 109.147C113.877 108.127 112.162 107.307 110.366 106.706C109.865 106.538 108.303 106.102 107.917 105.939C107.953 105.861 107.979 105.707 107.998 105.616L107.471 105.389L107.314 105.496C107.242 105.422 107.272 105.473 107.272 105.322L107.351 105.385C107.775 105.398 107.941 105.399 108.345 105.211Z" fill="#A28142"/>
<path d="M133.867 82.3321C134.575 82.4035 135.343 82.8988 135.933 82.9777C137.962 83.2488 141.164 83.1039 139.564 86.1828C137.643 87.152 136.971 86.3438 136.395 84.5899C135.928 84.2782 135.465 83.9607 135.006 83.6377C134.504 83.2796 133.972 82.9568 133.867 82.3321Z" fill="#9E7D41"/>
<path d="M107.917 105.939C106.781 105.685 103.079 105.258 102.52 104.592L102.7 104.441C104.095 104.217 106.883 104.893 108.345 105.211C107.941 105.399 107.775 105.398 107.351 105.385L107.272 105.322C107.272 105.473 107.242 105.422 107.314 105.496L107.471 105.389L107.998 105.616C107.979 105.707 107.953 105.861 107.917 105.939Z" fill="#B07528"/>
<path d="M138.965 132.162C139.994 132.673 141.576 137.422 141.565 138.745C141.543 141.464 140.262 142.977 138.538 144.805C140.229 147.233 149.732 160.281 151.897 160.66C153.254 160.897 154.394 159.682 155.409 158.981C155.874 158.659 156.497 158.309 157.085 158.443C157.7 158.583 158.23 159.239 158.548 159.751C159.693 161.593 159.401 163.697 158.925 165.682C156.118 161.196 152.51 162.958 148.908 164.908L147.139 164.284C143.72 162.706 140.46 163.785 137.578 165.812C136.854 161.546 138.465 162.036 140.538 158.929C141.384 159.555 142.75 160.523 143.818 160.296C144.469 159.628 143.499 158.314 143.107 157.626C140.775 153.527 137.463 149.935 134.058 146.7C135.418 143.815 133.944 142.469 131.312 144.522C131.027 143.948 130.424 143.049 130.063 142.478C132.053 141.482 133.346 141.192 135.119 139.581C137.49 137.427 138.749 135.362 138.965 132.162Z" fill="#FEFEFE"/>
<path d="M166.017 102.864C166.674 102.806 167.835 102.835 168.442 103.105C168.219 103.397 166.68 104.021 165.698 104.924C166.244 106.014 166.739 106.694 166.967 107.888C168.721 108.874 170.283 109.148 171.893 109.949C172.959 111.432 172.937 112.002 173.204 113.782C172.002 112.527 170.616 110.935 169.497 113.177C163.617 114.781 167.305 117.827 168.136 121.516C168.341 122.427 167.305 122.776 167.194 123.647C167.474 124.487 168.273 125.19 168.907 125.817C165.434 124.421 165.36 125.057 164.564 121.156C164.146 120.857 163.58 120.592 163.113 120.356C160.476 120.969 158.997 122.856 157.292 124.814C154.731 127.974 153.906 129.114 152.756 133C150.547 134.633 149.315 134.38 146.692 134.271C149.033 131.432 149.402 130.023 149.939 126.387C154.913 122.067 160.248 120.336 161.662 112.867C162.096 110.574 161.59 108.657 162.422 106.655C162.94 105.408 164.777 103.341 166.017 102.864Z" fill="#FEFEFE"/>
<path d="M92.0311 135.217C93.9347 136.24 95.726 143.745 94.0627 145.412C93.3794 142.751 93.073 142.696 91.1792 140.727C91.5222 138.943 91.5571 137.052 92.0311 135.217Z" fill="#FEFEFE"/>
<path d="M161.115 102.964L161.233 103.012C161.361 103.4 160.369 104.203 160.288 105.14C160.09 107.437 160.832 108.891 160.568 111.27C160.125 111.059 159.497 110.667 159.057 110.41C155.495 108.146 158.134 104.196 161.115 102.964Z" fill="#FEFEFE"/>
</svg>
