<svg width="250" height="250" viewBox="0 0 250 250" fill="none" xmlns="http://www.w3.org/2000/svg">
<mask id="path-1-inside-1_769_612" fill="white">
<path d="M0 48C0 21.4903 21.4903 0 48 0H202C228.51 0 250 21.4903 250 48V202C250 228.51 228.51 250 202 250H48C21.4903 250 0 228.51 0 202V48Z"/>
</mask>
<path d="M0 48C0 21.4903 21.4903 0 48 0H202C228.51 0 250 21.4903 250 48V202C250 228.51 228.51 250 202 250H48C21.4903 250 0 228.51 0 202V48Z" fill="white"/>
<path d="M48 0V2H202V0V-2H48V0ZM250 48H248V202H250H252V48H250ZM202 250V248H48V250V252H202V250ZM0 202H2V48H0H-2V202H0ZM48 250V248C22.5949 248 2 227.405 2 202H0H-2C-2 229.614 20.3858 252 48 252V250ZM250 202H248C248 227.405 227.405 248 202 248V250V252C229.614 252 252 229.614 252 202H250ZM202 0V2C227.405 2 248 22.5949 248 48H250H252C252 20.3858 229.614 -2 202 -2V0ZM48 0V-2C20.3858 -2 -2 20.3858 -2 48H0H2C2 22.5949 22.5949 2 48 2V0Z" fill="#DDDBDB" mask="url(#path-1-inside-1_769_612)"/>
<path d="M131.219 57C138.726 58.4844 143.71 61.3589 152.06 61.0112C155.757 61.4132 162.791 59.8882 165.894 61.9571C169.962 64.6698 173.32 68.4525 177.012 71.6226C179.739 73.9648 185.553 76.7135 186.886 79.4777C186.475 80.9761 185.979 83.6647 184.806 84.5667C183.502 84.8472 183.362 83.9409 182.129 83.8889L182.019 84.0723C186.02 91.0582 181.105 95.6006 176.405 100.285C176.101 100.588 173.909 103.502 173.748 103.518C170.358 103.851 166.57 102.203 163.154 101.814C161.628 101.64 159.304 101.344 157.84 101.656C155.476 102.169 154.328 103.662 151.724 102.672C148.763 101.545 147.529 99.8818 146.002 97.2942C145.13 95.8165 144.123 90.2149 143.636 89.8231C143.193 90.4764 143.647 101.168 143.938 102.674C144.227 104.173 144.73 105.573 145.393 106.946C146.391 106.894 147.545 106.808 148.529 106.792C148.419 107.397 148.152 108.791 147.961 109.535C147.769 110.278 142.271 115.774 139.545 118.429L139.283 118.329L139.137 118.603H152.241L78.0684 197L93.283 155.524H65.1157L91.7729 118.603L67.22 116.471L82.0549 96.567L81.8201 96.478C83.2671 94.6079 84.5919 92.9586 85.842 91.4865L91.4704 83.9371C92.6516 82.3527 94.2807 81.1587 96.1474 80.5094L108.16 76.3309C109.258 75.8894 110.42 75.4294 111.654 74.9463C115.283 73.5628 121.228 70.8439 124.629 68.3825L125.361 67.6908L125.498 67.7112C125.521 67.6921 125.545 67.6744 125.568 67.6554C126.752 67.6592 132.784 68.3266 133.165 68.2024C132.799 67.8055 127.583 65.3659 126.927 65.1328L126.924 65.1071C126.644 62.3884 126.559 61.5636 127.365 58.9219C128.761 58.0656 129.631 57.4649 131.219 57Z" fill="#018FF5"/>
<path d="M157.211 66.609C162.182 66.1005 164.179 68.4206 165.568 73.035C165.797 73.7961 165.883 74.4091 165.477 75.0945C164.626 75.143 163.404 74.3399 162.717 73.8569C162.425 73.5009 162.607 73.614 162.149 73.5148C160.593 74.9546 159.491 74.5347 157.419 74.4542C155.331 72.6556 153.854 70.6149 153.839 67.7842C155.001 67.1109 155.932 66.8645 157.211 66.609Z" fill="#FEA433"/>
</svg>
