<svg width="250" height="250" viewBox="0 0 250 250" fill="none" xmlns="http://www.w3.org/2000/svg">
<path d="M0 48C0 21.4903 21.4903 0 48 0H202C228.51 0 250 21.4903 250 48V202C250 228.51 228.51 250 202 250H48C21.4903 250 0 228.51 0 202V48Z" fill="#4540C1"/>
<path d="M90.8071 99.4559L103.501 95.1101V89.1594C103.501 77.0962 113.28 67.317 125.343 67.317C137.406 67.317 147.185 77.0962 147.185 89.1594V133.878L103.501 102.429L90.8071 106.889V160.441C90.8071 179.528 106.279 195 125.366 195C131.767 195 138.044 193.222 143.494 189.864L144.898 188.998L148.786 194.144H159.193V187.626L153.246 180.421C157.104 175.367 159.193 169.185 159.193 162.826V150.917L147.185 155.263V161.014C147.185 173.077 137.406 182.857 125.343 182.857C113.28 182.857 103.501 173.077 103.501 161.014V115.695L147.185 147.372L159.193 143.141V89.1929C159.193 70.3087 143.884 55 125 55C106.116 55 90.8071 70.3087 90.8071 89.1929V99.4559Z" fill="white"/>
</svg>
