<svg width="250" height="250" viewBox="0 0 250 250" fill="none" xmlns="http://www.w3.org/2000/svg">
<mask id="path-1-inside-1_769_614" fill="white">
<path d="M0 48C0 21.4903 21.4903 0 48 0H202C228.51 0 250 21.4903 250 48V202C250 228.51 228.51 250 202 250H48C21.4903 250 0 228.51 0 202V48Z"/>
</mask>
<path d="M0 48C0 21.4903 21.4903 0 48 0H202C228.51 0 250 21.4903 250 48V202C250 228.51 228.51 250 202 250H48C21.4903 250 0 228.51 0 202V48Z" fill="white"/>
<path d="M48 0V2H202V0V-2H48V0ZM250 48H248V202H250H252V48H250ZM202 250V248H48V250V252H202V250ZM0 202H2V48H0H-2V202H0ZM48 250V248C22.5949 248 2 227.405 2 202H0H-2C-2 229.614 20.3858 252 48 252V250ZM250 202H248C248 227.405 227.405 248 202 248V250V252C229.614 252 252 229.614 252 202H250ZM202 0V2C227.405 2 248 22.5949 248 48H250H252C252 20.3858 229.614 -2 202 -2V0ZM48 0V-2C20.3858 -2 -2 20.3858 -2 48H0H2C2 22.5949 22.5949 2 48 2V0Z" fill="#DDDBDB" mask="url(#path-1-inside-1_769_614)"/>
<path d="M64.9462 55L185.061 55.0057L185.052 175.11L64.9395 175.106L64.9462 55Z" fill="#002161"/>
<path fill-rule="evenodd" clip-rule="evenodd" d="M74.8555 113.699C78.987 113.942 83.0692 113.891 87.2302 113.89C94.4851 113.903 102.662 112.767 108.426 118.244C114.083 123.621 113.353 133.884 108.051 139.284C102.311 145.129 95.0839 144.499 87.5678 144.482L87.569 153.861C87.5606 156.057 87.4252 158.943 87.9199 161.047C88.5809 163.856 92.5259 163.79 94.9149 163.871L94.9131 165.363C89.1741 165.042 80.5751 164.994 74.8571 165.365L74.8594 163.871C76.7436 163.803 79.8656 163.771 80.3487 161.501C80.9405 158.722 80.7819 155.807 80.7833 152.972L80.7845 127.845C80.7837 125.233 80.8134 122.626 80.7174 120.016C80.5482 115.421 78.7618 115.53 74.8576 115.186L74.8555 113.699ZM104.529 134.103C106.309 123.791 104.103 114.078 91.4411 115.259C88.6983 115.649 87.8628 116.595 87.6686 119.414C87.4784 122.175 87.5631 124.996 87.5634 127.763L87.5697 143.057C91.3962 143.065 96.3103 143.391 99.7313 141.504C102.354 139.855 104.008 137.126 104.529 134.103Z" fill="white"/>
<path d="M117.537 113.698C119.825 113.681 122.241 113.817 124.553 113.828C134.313 113.876 144.172 114.09 153.924 113.696C153.873 115.262 153.669 117.02 153.584 118.628C153.375 122.089 153.406 125.56 153.674 129.016L151.958 129.02C151.436 122.472 150.666 115.232 142.164 115.389C139.723 115.434 132.507 114.705 130.998 116.726C129.996 118.066 130.239 124.724 130.241 126.622L130.24 139.394C140.042 139.421 140.844 139.801 142.36 129.731L144.018 129.748C143.925 133.696 143.82 137.132 143.846 141.136C143.852 144.119 144.063 147.445 144.241 150.444L142.538 150.44C141.488 140.303 139.584 140.826 130.245 140.854L130.236 152.829C130.236 155.191 130.199 157.391 130.386 159.752C130.718 163.972 134.199 163.742 137.598 163.873L137.595 165.364C131.878 165.017 123.243 165.008 117.537 165.361L117.536 163.872C120.987 163.723 123.098 163.713 123.34 159.691C123.483 157.305 123.465 155.044 123.466 152.658L123.468 127.532C123.467 124.991 123.496 122.467 123.392 119.929C123.208 115.409 121.384 115.527 117.539 115.184L117.537 113.698Z" fill="white"/>
<path d="M159.056 113.697C164.724 114.024 171.988 114.001 177.681 113.693V115.189C175.999 115.328 172.681 115.333 172.209 117.447C171.564 120.335 171.755 123.583 171.753 126.549L171.752 151.524C171.753 154.097 171.733 156.648 171.831 159.22C171.999 163.622 173.816 163.69 177.678 163.873L177.676 165.362C172.23 165.045 164.552 165.022 159.05 165.361L159.053 163.872C163.888 163.639 164.848 163.184 164.953 158.067C164.99 156.239 164.973 154.326 164.974 152.493L164.975 127.389C164.974 124.863 164.996 122.359 164.898 119.834C164.727 115.399 162.811 115.511 159.049 115.187L159.056 113.697Z" fill="white"/>
<path d="M172.216 88.4268L175.46 88.428L175.459 105.09L172.216 105.085V88.4268Z" fill="white"/>
<path d="M165.462 92.9072L168.163 92.9186C168.166 96.4874 168.325 101.526 168.142 104.976L167.902 105.088L164.874 105.087C164.863 101.526 164.727 96.5592 164.893 93.0884C165.096 92.8676 165.058 92.9402 165.462 92.9072Z" fill="white"/>
<path d="M157.89 99.4055L161.192 99.4096L161.188 105.088L157.89 105.084V99.4055Z" fill="white"/>
<path d="M145.908 177.43C145.987 178.278 146.07 182.057 145.742 182.679C145.292 182.3 145.045 179.994 144.056 179.223C143.143 178.291 140.955 177.919 139.788 178.455C136.008 180.188 135.976 188.316 138.809 190.886C139.77 191.758 140.81 191.842 142.014 191.778C146.049 190.849 144.814 187.862 145.753 187.202C146.079 187.975 146.002 191.702 145.857 192.63C145.586 192.015 145.524 191.269 145.212 190.857C144.604 190.777 143.353 191.837 142.631 192.003C135.834 193.553 133.21 186.059 135.912 180.91C136.793 179.23 138.107 178.456 139.869 177.959C141.009 177.832 141.82 177.822 142.931 178.129C143.681 178.335 144.638 179.278 145.193 179.197C145.418 178.892 145.676 177.946 145.908 177.43Z" fill="#002161"/>
<path d="M128.728 185.083C129.373 186.076 130.386 187.764 131.051 188.637C131.202 186.088 131.086 183.462 131.126 180.91C131.17 178.308 130.468 178.898 128.621 178.225C129.908 178.125 132.459 178.124 133.772 178.208C133.264 178.363 131.833 178.707 131.759 179.134C131.321 181.66 131.567 186.195 131.539 188.81L131.536 189.056C131.546 190.18 131.531 191.304 131.492 192.426C130.752 191.63 129.164 189.044 128.534 188.065C126.739 185.253 124.927 182.455 123.092 179.671L122.942 179.731L122.479 179.603C122.095 178.243 121.319 178.678 120.203 178.188L124.246 178.146L128.728 185.083Z" fill="#002161"/>
<path d="M104.996 188.708C105.042 187.339 105.313 179.769 104.725 179.038C104.307 178.519 103.144 178.428 102.526 178.24C103.807 178.113 106.297 178.141 107.64 178.186C107.114 178.369 105.869 178.669 105.688 179.114C105.002 180.799 105.87 191.202 105.253 191.991C104.976 191.916 104.829 191.759 104.67 191.519C102.042 187.559 99.5649 183.39 96.8782 179.475L96.3258 179.254C95.7922 178.431 95.2143 178.597 94.1418 178.183L98.1554 178.148L104.996 188.708Z" fill="#002161"/>
<path d="M148.032 178.205C148.974 178.084 152.588 178.173 153.718 178.187C153.073 178.44 152.098 178.526 151.677 179.002C151.382 180.075 151.332 190.123 151.653 191.035C152.083 191.477 152.322 191.44 152.996 191.623L153.119 191.866C151.937 191.963 148.606 191.914 147.392 191.847C147.966 191.633 148.821 191.596 149.311 191.238C149.516 191.088 149.526 190.908 149.569 190.675C149.79 189.475 149.863 179.554 149.459 178.942C149.132 178.448 148.395 178.728 148.032 178.205Z" fill="#002161"/>
<path fill-rule="evenodd" clip-rule="evenodd" d="M113.916 177.742C115.187 180.714 116.273 183.843 117.477 186.848C117.904 187.913 118.707 190.24 119.274 191.155C119.665 191.376 120.059 191.594 120.453 191.809C120.993 191.615 121.71 191.499 122.085 191.118C122.816 190.377 122.413 181.262 122.479 179.603L122.942 179.731C122.815 181.466 122.743 188.936 123.15 191.013C123.219 191.369 124.864 191.673 125.403 191.794C123.881 191.952 122.002 191.899 120.422 191.891C118.907 191.898 116.183 191.964 114.872 191.848C115.436 191.673 116.398 191.474 116.825 191.176C117.152 190.447 115.901 187.605 115.552 186.687C114.28 186.691 112.353 186.751 111.136 186.629C110.366 186.965 109.532 189.987 109.762 190.908C110.11 191.461 111.215 191.587 111.962 191.858C110.619 191.956 108.642 191.901 107.256 191.911C109.395 190.516 109.74 188.462 110.646 186.022L110.775 185.724C111.429 184.2 112.131 182.169 112.76 180.616C113.101 179.726 113.508 178.575 113.916 177.742ZM113.247 180.587C112.916 181.172 111.181 185.642 111.006 186.307C112.008 186.312 113.824 186.265 114.761 186.358L115.172 186.285L115.278 186.126C114.977 184.984 114.046 182.646 113.469 181.164L113.247 180.587Z" fill="#002161"/>
<path fill-rule="evenodd" clip-rule="evenodd" d="M160.023 177.741C161.294 180.713 162.38 183.842 163.584 186.847C164.011 187.912 164.814 190.239 165.382 191.154C165.766 191.371 166.152 191.585 166.539 191.796C167.189 191.568 168.016 191.482 168.346 191.01C168.718 189.612 168.685 180.97 168.347 179.042C168.282 178.672 166.758 178.364 166.254 178.223C167.766 178.082 170.987 178.156 172.582 178.187C171.407 178.656 170.367 178.398 170.351 180.035C170.315 183.47 170.352 186.918 170.364 190.352C170.365 190.689 170.524 190.995 170.734 191.244C171.45 191.673 173.455 191.454 174.409 191.441L174.554 191.392C176.989 190.553 176.013 188.363 176.768 187.839L176.92 187.917C176.997 188.194 176.984 191.154 177.065 191.908L175.883 191.889C172.876 191.886 169.695 191.952 166.691 191.88C166.697 191.883 166.702 191.886 166.708 191.889C165.238 191.891 162.344 191.968 160.98 191.847C161.543 191.672 162.506 191.472 162.932 191.175C163.26 190.445 162.009 187.604 161.66 186.686C160.388 186.689 158.46 186.75 157.243 186.628C156.473 186.964 155.639 189.985 155.869 190.907C156.217 191.46 157.322 191.586 158.069 191.857C156.726 191.955 154.749 191.9 153.363 191.909C155.502 190.514 155.847 188.461 156.753 186.02L156.883 185.722C157.536 184.198 158.239 182.167 158.868 180.615C159.208 179.724 159.615 178.574 160.023 177.741ZM159.354 180.586C159.023 181.171 157.288 185.64 157.113 186.306C158.115 186.311 159.931 186.264 160.868 186.357L161.279 186.284L161.385 186.125C161.085 184.983 160.153 182.645 159.577 181.163L159.354 180.586Z" fill="#002161"/>
<path d="M88.1104 178.213C88.9055 178.093 93.0406 178.162 93.9156 178.242C93.1849 178.458 92.3459 178.465 91.8067 179.007C91.472 180.072 91.5849 189.25 91.7554 190.917C91.8116 191.465 92.8744 191.463 93.219 191.672C93.2664 191.697 93.314 191.722 93.3614 191.748C92.8776 192.005 88.5209 191.892 87.5774 191.887C88.322 191.558 89.0689 191.581 89.6145 191.064C90.2647 189.02 89.5215 182.863 89.7957 180.476C90.0596 178.178 88.7031 178.917 88.1104 178.213Z" fill="#002161"/>
<path d="M86.8548 178.146C86.7282 179.206 86.8477 181.308 86.5751 182.091L86.4498 182.116C86.0456 181.355 86.2472 180.104 85.7159 179.476C84.809 178.405 81.9314 178.143 80.8111 178.926C80.4715 179.164 80.5248 180.215 80.5203 180.641C80.5196 182.1 80.5279 183.559 80.5451 185.018C81.3168 185.016 82.4303 185.128 83.0019 184.604C83.5147 184.135 83.6885 182.53 84.0224 182.335L84.0334 182.372C84.1017 182.625 84.1453 183.231 84.1698 183.974C84.1801 184.287 84.1869 184.625 84.1908 184.971C84.1946 185.317 84.1955 185.671 84.1938 186.018C84.1921 186.365 84.1877 186.704 84.1812 187.02C84.1649 187.809 84.1349 188.451 84.0975 188.695C84.0512 188.517 84.0097 188.349 83.9716 188.189C83.8953 187.869 83.8329 187.584 83.7748 187.329C83.6876 186.948 83.61 186.636 83.5095 186.384C83.4927 186.341 83.4752 186.301 83.457 186.262C83.1118 185.522 82.4828 185.35 80.5395 185.383L80.5409 185.832C80.5498 186.989 80.589 188.826 80.5124 189.668C80.554 191.772 81.4664 191.415 83.246 191.766C81.8729 191.962 77.8573 191.939 76.4125 191.84C77.2008 191.552 77.9525 191.628 78.5261 190.999C78.8246 190.117 78.7941 180.37 78.5795 179.173C78.1962 178.529 77.2165 178.465 76.4111 178.241C77.6624 178.1 79.3738 178.162 80.6791 178.166C82.7377 178.177 84.7963 178.171 86.8548 178.146Z" fill="#002161"/>
<path d="M96.8782 179.475C96.7567 180.935 96.5621 190.238 97.0668 190.996C97.4113 191.512 98.7657 191.672 99.3389 191.804C97.9764 191.966 95.6323 191.895 94.1922 191.894C94.7339 191.617 95.6702 191.543 96.0698 191.077C96.6522 190.398 96.3944 180.818 96.3258 179.254L96.8782 179.475Z" fill="#002161"/>
<rect x="69.0137" y="194.592" width="115.963" height="0.408497" fill="#E52214"/>
</svg>
