<svg width="250" height="250" viewBox="0 0 250 250" fill="none" xmlns="http://www.w3.org/2000/svg">
<mask id="path-1-inside-1_769_615" fill="white">
<path d="M0 48C0 21.4903 21.4903 0 48 0H202C228.51 0 250 21.4903 250 48V202C250 228.51 228.51 250 202 250H48C21.4903 250 0 228.51 0 202V48Z"/>
</mask>
<path d="M0 48C0 21.4903 21.4903 0 48 0H202C228.51 0 250 21.4903 250 48V202C250 228.51 228.51 250 202 250H48C21.4903 250 0 228.51 0 202V48Z" fill="white"/>
<path d="M48 0V2H202V0V-2H48V0ZM250 48H248V202H250H252V48H250ZM202 250V248H48V250V252H202V250ZM0 202H2V48H0H-2V202H0ZM48 250V248C22.5949 248 2 227.405 2 202H0H-2C-2 229.614 20.3858 252 48 252V250ZM250 202H248C248 227.405 227.405 248 202 248V250V252C229.614 252 252 229.614 252 202H250ZM202 0V2C227.405 2 248 22.5949 248 48H250H252C252 20.3858 229.614 -2 202 -2V0ZM48 0V-2C20.3858 -2 -2 20.3858 -2 48H0H2C2 22.5949 22.5949 2 48 2V0Z" fill="#DDDBDB" mask="url(#path-1-inside-1_769_615)"/>
<path d="M55.5348 128.832C55.7622 129.163 56.0611 129.512 56.2527 129.91C56.4043 130.222 56.5559 130.525 56.7306 130.826C57.177 131.59 57.5475 132.399 57.9665 133.18C58.2023 133.62 58.4865 134.035 58.7287 134.473C58.9813 134.928 59.2066 135.399 59.4508 135.858C59.6803 136.288 59.9203 136.711 60.1519 137.138C60.434 137.656 60.7099 138.176 60.992 138.696C61.2067 139.094 61.3899 139.513 61.6468 139.882C62.0721 140.494 62.2721 141.151 62.2721 141.894C62.2657 146.242 62.27 150.59 62.2679 154.937C62.2679 155.173 62.2468 155.409 62.2321 155.702C61.7478 155.443 61.4341 155.188 61.2678 154.708C61.0572 154.108 60.7246 153.55 60.4488 152.971C60.3814 152.83 60.3435 152.674 60.2825 152.531C60.1688 152.261 60.0467 151.994 59.9287 151.727C59.8866 151.63 59.8277 151.537 59.8108 151.436C59.7456 151.051 59.5603 150.72 59.4024 150.369C59.1182 149.737 58.9329 149.063 58.7013 148.408C58.615 148.164 58.5076 147.924 58.4171 147.682C58.356 147.52 58.3118 147.352 58.255 147.187C58.1244 146.81 57.9897 146.434 57.8633 146.057C57.8128 145.909 57.7728 145.758 57.7412 145.604C57.6823 145.33 57.7033 145.01 57.5644 144.789C57.257 144.305 57.2296 143.766 57.1265 143.238C57.1159 143.187 57.1244 143.124 57.1012 143.084C56.6001 142.233 56.7664 141.193 56.3243 140.324C56.2548 140.189 56.2422 140.018 56.2275 139.863C56.1496 139.06 55.9874 138.281 55.7664 137.502C55.6064 136.938 55.6253 136.326 55.5474 135.736C55.5095 135.443 55.419 135.157 55.3748 134.864C55.2821 134.26 55.1811 133.656 55.1263 133.05C55.0611 132.336 55.0463 131.618 55 130.902" fill="#890C58"/>
<path d="M55 119.349C55.0463 118.545 55.059 117.739 55.1284 116.939C55.179 116.349 55.299 115.764 55.3895 115.179C55.4695 114.661 55.5853 114.147 55.6274 113.627C55.6779 112.995 55.7495 112.383 55.9727 111.778C56.1032 111.425 56.0969 111.022 56.1664 110.646C56.2296 110.302 56.3054 109.963 56.3833 109.624C56.4801 109.201 56.5875 108.78 56.6864 108.359C56.758 108.056 56.8191 107.749 56.9012 107.445C56.9728 107.178 57.0738 106.917 57.1496 106.65C57.3265 106.031 57.4865 105.407 57.6718 104.79C57.7897 104.393 57.9412 104.003 58.0718 103.609C58.116 103.477 58.1455 103.34 58.1771 103.205C58.2634 102.814 58.3055 102.411 58.5708 102.077C58.6508 101.976 58.6508 101.811 58.6971 101.681C58.8192 101.34 58.9518 101.001 59.0761 100.66C59.1287 100.512 59.1666 100.361 59.2213 100.213C59.3329 99.9228 59.4508 99.6344 59.5666 99.3438C59.6235 99.1985 59.6803 99.0533 59.7393 98.908C59.8487 98.6385 59.9624 98.3669 60.074 98.0974C60.0867 98.0658 60.1161 98.0406 60.1288 98.0069C60.3646 97.4111 60.5962 96.8131 60.8362 96.2194C60.9014 96.0594 60.9878 95.9078 61.0657 95.752C61.1436 95.5983 61.272 95.4509 61.2973 95.2888C61.3773 94.7667 61.7689 94.5582 62.2279 94.2803C62.2468 94.514 62.2721 94.6803 62.2721 94.8467C62.2742 99.2301 62.2826 103.611 62.2615 107.995C62.2594 108.382 62.1247 108.791 61.9689 109.153C61.771 109.614 61.491 110.041 61.2446 110.481C60.973 110.966 60.7035 111.452 60.4256 111.932C60.1667 112.383 59.8951 112.827 59.634 113.277C59.4319 113.623 59.2298 113.966 59.0403 114.317C58.6339 115.065 58.2444 115.823 57.8297 116.566C57.577 117.019 57.2823 117.446 57.0254 117.897C56.777 118.332 56.5664 118.789 56.3159 119.223C56.0759 119.64 55.8064 120.042 55.5495 120.448" fill="#890C58"/>
<path d="M116.878 155.899C116.335 155.587 115.853 155.309 115.373 155.032C114.865 154.737 114.362 154.436 113.852 154.147C113.551 153.977 113.244 153.823 112.937 153.661C112.49 153.425 112.04 153.2 111.602 152.954C111.134 152.69 110.677 152.408 110.214 152.137C110.094 152.067 109.966 152.015 109.844 151.949C109.646 151.842 109.45 151.73 109.254 151.621C109.119 151.545 108.983 151.473 108.848 151.398C108.667 151.297 108.484 151.2 108.307 151.092C108.012 150.916 107.726 150.722 107.423 150.558C106.98 150.315 106.526 150.099 106.084 149.854C105.599 149.587 105.128 149.301 104.65 149.027C104.258 148.802 103.864 148.579 103.471 148.36C103.09 148.149 102.677 147.985 102.334 147.726C102.062 147.522 101.835 147.229 101.66 146.932C101.397 146.488 101.201 146.004 100.965 145.543C100.753 145.124 100.532 144.711 100.306 144.298C100.005 143.751 99.702 143.203 99.3925 142.662C99.1167 142.18 98.8241 141.709 98.5504 141.229C98.3693 140.913 98.2051 140.589 98.0367 140.264C97.8051 139.816 97.5903 139.361 97.3482 138.917C97.0998 138.46 96.8197 138.02 96.5692 137.563C96.3102 137.091 96.0723 136.611 95.8197 136.136C95.6007 135.723 95.3944 135.304 95.1544 134.904C94.7164 134.173 94.268 133.447 94.068 132.605C94.028 132.436 94.028 132.257 94.028 132.083C94.0259 127.367 94.0238 122.65 94.0301 117.934C94.0301 117.28 94.148 116.646 94.6175 116.13C94.6849 116.056 94.7333 115.953 94.7585 115.854C94.8301 115.559 94.9859 115.322 95.1544 115.069C95.4302 114.656 95.6175 114.185 95.8491 113.74C96.066 113.324 96.285 112.909 96.5102 112.498C96.8176 111.936 97.1313 111.374 97.4471 110.816C97.6956 110.378 97.9567 109.946 98.2051 109.509C98.4367 109.102 98.6662 108.696 98.883 108.283C99.1252 107.822 99.3441 107.348 99.5904 106.887C99.8915 106.321 100.201 105.757 100.519 105.199C100.776 104.746 101.06 104.308 101.315 103.856C101.586 103.371 101.841 102.874 102.096 102.394C102.481 102.072 102.862 101.792 103.342 101.617C103.791 101.455 104.184 101.144 104.606 100.904C104.997 100.678 105.391 100.457 105.787 100.236C106.361 99.9142 106.936 99.59 107.517 99.2784C107.7 99.1794 107.903 99.1184 108.077 99.0005C108.355 98.8615 108.635 98.7289 108.909 98.5857C109.292 98.3836 109.671 98.1772 110.05 97.9688C110.614 97.6614 111.181 97.3583 111.739 97.0403C112.191 96.7835 112.625 96.4929 113.08 96.2424C113.566 95.975 114.067 95.735 114.562 95.4823C114.933 95.2928 115.307 95.1076 115.674 94.9118C116.042 94.7139 116.415 94.5223 116.762 94.2949C117.027 94.1201 117.299 94.0612 117.604 94.0612C122.548 94.0654 127.493 94.0633 132.437 94.0633C132.576 94.0633 132.715 94.0633 132.852 94.0633C136.104 95.8866 139.343 97.7035 142.518 99.4847C142.846 99.6784 143.109 99.8447 143.381 99.9942C143.823 100.236 144.273 100.46 144.713 100.706C145.183 100.967 145.642 101.245 146.105 101.516C146.179 101.561 146.25 101.611 146.326 101.653C146.735 101.879 147.154 102.087 147.552 102.331C147.709 102.428 147.851 102.582 147.952 102.742C148.164 103.079 148.368 103.426 148.535 103.788C148.817 104.401 149.137 104.988 149.501 105.559C149.79 106.009 149.981 106.523 150.223 107.003C150.364 107.281 150.522 107.553 150.678 107.824C150.937 108.275 151.202 108.723 151.465 109.174C151.501 109.235 151.55 109.287 151.579 109.349C151.811 109.833 152.021 110.328 152.274 110.801C152.518 111.26 152.807 111.694 153.07 112.145C153.272 112.49 153.472 112.835 153.657 113.189C154.059 113.959 154.44 114.738 154.847 115.507C155.074 115.936 155.344 116.343 155.577 116.768C155.668 116.932 155.737 117.117 155.767 117.301C155.801 117.505 155.782 117.72 155.782 117.93C155.782 122.663 155.782 127.398 155.782 132.131C155.782 132.428 155.782 132.725 155.782 133.02C155.752 133.013 155.723 133.007 155.693 133.001C155.546 133.293 155.403 133.588 155.249 133.876C155.036 134.272 154.817 134.666 154.594 135.056C154.344 135.493 154.08 135.923 153.832 136.361C153.516 136.919 153.196 137.477 152.899 138.043C152.64 138.534 152.417 139.041 152.164 139.534C151.95 139.951 151.72 140.359 151.491 140.77C151.202 141.285 150.91 141.797 150.617 142.311C150.343 142.791 150.059 143.267 149.796 143.751C149.547 144.206 149.32 144.673 149.08 145.132C148.863 145.547 148.642 145.957 148.421 146.37C148.299 146.599 148.171 146.825 148.048 147.054C147.756 147.602 147.28 147.949 146.758 148.244C146.213 148.553 145.665 148.856 145.118 149.158C144.722 149.374 144.322 149.581 143.926 149.8C143.364 150.109 142.808 150.431 142.242 150.732C141.751 150.993 141.244 151.223 140.751 151.48C140.461 151.631 140.178 151.804 139.896 151.97C139.448 152.233 139.004 152.503 138.555 152.762C138.435 152.831 138.298 152.871 138.174 152.932C137.972 153.034 137.774 153.139 137.576 153.246C137.486 153.297 137.406 153.373 137.311 153.415C136.709 153.678 136.142 154.004 135.587 154.356C135.147 154.632 134.656 154.823 134.195 155.067C133.719 155.32 133.254 155.592 132.717 155.893C127.481 155.899 122.173 155.899 116.878 155.899Z" fill="#890C58"/>
<path d="M136.713 174.747C136.501 175.155 136.299 175.557 136.086 175.955C135.776 176.534 135.467 177.113 135.147 177.686C134.901 178.124 134.633 178.547 134.383 178.981C134.199 179.297 134.02 179.614 133.85 179.937C133.606 180.398 133.38 180.867 133.13 181.324C132.839 181.855 132.526 182.373 132.229 182.901C132.035 183.248 131.822 183.589 131.673 183.956C131.486 184.415 131.121 184.56 130.688 184.621C130.532 184.642 130.374 184.638 130.216 184.638C126.607 184.638 122.997 184.636 119.388 184.642C119.047 184.642 118.72 184.615 118.434 184.419C118.308 184.333 118.169 184.23 118.095 184.099C117.859 183.676 117.657 183.232 117.428 182.802C117.181 182.343 116.914 181.897 116.666 181.44C116.409 180.968 116.167 180.488 115.918 180.012C115.855 179.89 115.788 179.768 115.714 179.654C115.657 179.566 115.569 179.499 115.522 179.406C115.297 178.96 115.089 178.505 114.861 178.059C114.663 177.673 114.449 177.299 114.242 176.92C113.943 176.372 113.64 175.827 113.341 175.277C113.192 175.004 113.042 174.73 112.901 174.452C112.872 174.395 112.886 174.315 112.878 174.204C113.152 173.854 113.569 173.662 113.95 173.433C114.482 173.111 115.038 172.825 115.581 172.521C115.916 172.336 116.245 172.142 116.584 171.968C117.047 171.73 117.52 171.511 117.984 171.271C118.367 171.073 118.742 170.856 119.121 170.648C119.651 170.355 120.186 170.064 120.712 169.763C121.192 169.49 121.662 169.199 122.146 168.932C122.586 168.687 123.039 168.466 123.483 168.233C123.62 168.161 123.763 168.094 123.885 168.001C124.361 167.641 124.795 167.645 125.283 167.957C125.75 168.254 126.249 168.5 126.736 168.767C127.161 169.001 127.591 169.231 128.016 169.466C128.546 169.761 129.075 170.058 129.603 170.355C129.936 170.54 130.275 170.719 130.603 170.913C131.353 171.351 132.094 171.803 132.852 172.231C133.334 172.502 133.841 172.732 134.33 172.993C134.589 173.132 134.829 173.302 135.084 173.45C135.431 173.648 135.793 173.82 136.13 174.033C136.397 174.201 136.627 174.42 136.713 174.747Z" fill="#890C58"/>
<path d="M131.522 65.6828C132.017 66.5587 132.527 67.445 133.021 68.3419C133.272 68.7988 133.485 69.2767 133.733 69.7336C133.981 70.1884 134.259 70.6263 134.518 71.0747C134.727 71.4348 134.935 71.7927 135.127 72.1611C135.367 72.6243 135.573 73.1044 135.819 73.5612C136.049 73.9886 136.342 74.3844 136.554 74.8182C136.712 75.1382 136.788 75.4982 136.906 75.8645C136.546 76.1256 136.257 76.3804 135.929 76.5593C135.167 76.9762 134.381 77.3446 133.615 77.7552C133.173 77.9931 132.76 78.2858 132.318 78.5258C131.834 78.7889 131.329 79.0142 130.836 79.2627C130.48 79.4437 130.131 79.6353 129.779 79.8269C129.398 80.0353 129.019 80.248 128.64 80.4585C128.124 80.7449 127.608 81.0312 127.093 81.3196C126.623 81.5828 126.151 81.8397 125.69 82.1176C125.326 82.3366 124.977 82.3239 124.614 82.1071C124.094 81.7976 123.547 81.5302 123.021 81.2291C122.57 80.9744 122.134 80.6943 121.686 80.4354C121.311 80.2185 120.924 80.0227 120.547 79.8059C120.004 79.4943 119.473 79.1616 118.926 78.8584C118.471 78.6058 117.997 78.3868 117.536 78.1426C117.229 77.9805 116.928 77.8078 116.629 77.6289C116.197 77.3699 115.776 77.0941 115.34 76.8393C114.938 76.6035 114.542 76.334 114.109 76.1782C113.62 76.0035 113.325 75.6835 113.094 75.2392C113.565 74.3444 114.035 73.4539 114.509 72.5633C114.841 71.938 115.172 71.3106 115.519 70.6916C115.944 69.9378 116.397 69.1988 116.82 68.443C117.075 67.9882 117.292 67.5124 117.534 67.0513C117.736 66.666 117.917 66.266 118.168 65.9144C118.334 65.6807 118.604 65.5228 118.816 65.3396C119.014 65.3396 119.172 65.3396 119.328 65.3396C123.027 65.3396 126.726 65.3417 130.425 65.3375C130.809 65.3438 131.166 65.3838 131.522 65.6828Z" fill="#890C58"/>
<path d="M174.02 113.297C174.75 113.724 175.403 114.118 176.068 114.49C176.521 114.743 176.994 114.956 177.453 115.198C177.744 115.351 178.022 115.526 178.306 115.692C178.74 115.947 179.169 116.212 179.609 116.459C180.079 116.722 180.557 116.968 181.031 117.225C181.458 117.457 181.887 117.686 182.311 117.924C182.78 118.187 183.239 118.469 183.713 118.72C184.262 119.013 184.61 119.406 184.608 120.074C184.599 123.56 184.599 127.049 184.608 130.536C184.61 131.161 184.376 131.592 183.797 131.875C183.317 132.108 182.881 132.433 182.41 132.685C181.921 132.948 181.412 133.167 180.917 133.418C180.624 133.565 180.346 133.74 180.06 133.902C179.59 134.167 179.121 134.433 178.651 134.698C178.321 134.883 177.99 135.071 177.653 135.25C177.192 135.494 176.725 135.723 176.266 135.97C175.824 136.208 175.361 136.424 174.956 136.717C174.626 136.957 174.304 137.02 173.878 136.942C173.651 136.534 173.411 136.113 173.182 135.685C172.969 135.29 172.771 134.885 172.563 134.487C172.224 133.845 171.893 133.201 171.537 132.567C171.283 132.117 170.988 131.689 170.727 131.243C170.541 130.929 170.379 130.603 170.211 130.281C169.979 129.834 169.767 129.378 169.524 128.935C169.268 128.466 168.981 128.015 168.716 127.55C168.501 127.173 168.301 126.788 168.091 126.409C167.941 126.137 167.792 125.864 167.63 125.598C167.417 125.247 167.457 124.777 167.682 124.409C167.99 123.906 168.257 123.381 168.541 122.863C168.767 122.453 168.99 122.04 169.213 121.628C169.51 121.08 169.798 120.526 170.106 119.983C170.36 119.533 170.649 119.101 170.901 118.648C171.146 118.213 171.36 117.76 171.592 117.316C171.832 116.853 172.072 116.389 172.318 115.93C172.628 115.351 172.923 114.762 173.266 114.202C173.453 113.894 173.725 113.642 174.02 113.297Z" fill="#890C58"/>
<path d="M75.5486 112.953C75.9823 113.269 76.2497 113.56 76.4371 113.96C76.6855 114.49 77.0203 114.983 77.3087 115.494C77.4961 115.827 77.6751 116.162 77.8456 116.503C78.0877 116.983 78.313 117.471 78.5594 117.951C78.7636 118.351 78.9846 118.743 79.2015 119.139C79.492 119.669 79.7847 120.2 80.0816 120.726C80.3363 121.179 80.6016 121.627 80.8606 122.078C80.9385 122.213 81.0058 122.356 81.0795 122.493C81.1679 122.659 81.2648 122.821 81.349 122.988C81.6311 123.541 81.9512 124.078 82.1806 124.653C82.3786 125.146 82.1364 125.607 81.8838 126.036C81.7701 126.23 81.6585 126.424 81.5532 126.619C81.3322 127.03 81.1174 127.445 80.8942 127.855C80.5953 128.403 80.2984 128.952 79.991 129.495C79.7342 129.948 79.4584 130.39 79.1994 130.841C79.0162 131.157 78.8415 131.474 78.6709 131.797C78.4288 132.258 78.1972 132.725 77.9572 133.186C77.7593 133.569 77.5593 133.952 77.353 134.334C77.0287 134.927 76.7024 135.521 76.3718 136.111C76.3129 136.216 76.2308 136.306 76.1781 136.378C75.6771 136.601 75.2812 136.485 74.8728 136.197C74.4643 135.906 74.0054 135.689 73.5674 135.441C73.039 135.142 72.5105 134.845 71.9821 134.548C71.6031 134.336 71.2241 134.123 70.8473 133.91C70.3188 133.614 69.7903 133.31 69.2598 133.018C68.8029 132.767 68.3334 132.536 67.8786 132.279C67.3986 132.009 66.9312 131.717 66.4554 131.441C66.3206 131.363 66.1691 131.312 66.0322 131.239C65.6069 131.007 65.3269 130.689 65.3269 130.163C65.3332 126.537 65.329 122.91 65.3353 119.284C65.3353 119.078 65.3627 118.859 65.4343 118.665C65.4911 118.516 65.6132 118.37 65.7438 118.271C65.9627 118.105 66.2048 117.964 66.4491 117.836C66.8786 117.61 67.3207 117.412 67.7481 117.183C68.2218 116.928 68.6829 116.652 69.1482 116.385C69.4935 116.187 69.8367 115.983 70.1883 115.795C70.6304 115.558 71.0852 115.343 71.5273 115.105C71.9989 114.848 72.4579 114.566 72.9316 114.313C73.4222 114.05 73.9233 113.812 74.418 113.56C74.557 113.488 74.6854 113.402 74.8223 113.328C75.0602 113.204 75.3023 113.082 75.5486 112.953Z" fill="#890C58"/>
<path d="M147.139 162.254C151.045 162.254 154.843 162.254 158.618 162.254C159.016 162.466 159.131 162.807 159.144 163.19C159.157 163.593 159.148 163.997 159.148 164.399C159.148 167.325 159.155 170.252 159.14 173.178C159.138 173.503 159.064 173.837 158.961 174.147C158.906 174.309 158.738 174.463 158.582 174.553C158.192 174.781 157.774 174.958 157.38 175.177C156.94 175.423 156.517 175.699 156.081 175.951C155.931 176.038 155.759 176.086 155.603 176.164C155.432 176.248 155.268 176.345 155.106 176.442C155.015 176.494 154.94 176.57 154.849 176.619C154.255 176.943 153.66 177.261 153.066 177.583C152.441 177.924 151.822 178.274 151.192 178.606C150.868 178.777 150.554 178.699 150.247 178.522C149.735 178.229 149.213 177.956 148.701 177.663C148.236 177.398 147.779 177.118 147.316 176.85C146.924 176.625 146.529 176.406 146.137 176.185C145.625 175.897 145.116 175.604 144.6 175.32C144.128 175.061 143.646 174.825 143.179 174.558C142.549 174.197 141.928 173.823 141.307 173.446C141.252 173.414 141.227 173.334 141.185 173.271C141.208 172.915 141.284 172.604 141.528 172.309C141.756 172.035 141.886 171.682 142.057 171.362C142.292 170.917 142.524 170.469 142.758 170.025C142.977 169.61 143.198 169.195 143.417 168.782C143.733 168.187 144.042 167.589 144.371 166.999C144.623 166.544 144.901 166.104 145.162 165.654C145.345 165.338 145.52 165.02 145.691 164.698C145.933 164.239 146.145 163.763 146.409 163.317C146.621 162.946 146.891 162.607 147.139 162.254Z" fill="#890C58"/>
<path d="M108.641 76.749C108.452 77.3006 108.33 77.8038 107.982 78.2291C107.768 78.4922 107.652 78.8354 107.492 79.1428C107.088 79.9113 106.694 80.6861 106.277 81.4482C106.029 81.9051 105.744 82.3409 105.483 82.7915C105.258 83.1831 105.041 83.5789 104.822 83.9747C104.513 84.5347 104.197 85.0906 103.896 85.6569C103.652 86.1159 103.412 86.5749 103.201 87.0486C103.007 87.4865 102.641 87.6507 102.22 87.7476C102.104 87.775 101.976 87.7581 101.854 87.7581C98.4365 87.7581 95.0216 87.7581 91.6045 87.7581C91.4129 87.7581 91.2234 87.7581 91.1076 87.7581C90.7686 87.5413 90.6718 87.2907 90.6718 86.9918C90.6718 86.7644 90.6697 86.537 90.6697 86.3075C90.6697 83.0841 90.6655 79.8608 90.6739 76.6353C90.6739 76.311 90.7434 75.9868 90.7792 75.6878C91.335 75.3952 91.8277 75.1404 92.3161 74.8794C92.714 74.6667 93.1078 74.4457 93.5057 74.2288C94.0552 73.9319 94.6089 73.6456 95.1521 73.3382C95.6048 73.0835 96.0385 72.7929 96.4911 72.5382C96.7164 72.4118 96.967 72.3276 97.1817 72.2371C97.6681 71.9613 98.1334 71.6981 98.7039 71.376C98.8597 71.376 99.1355 71.376 99.3313 71.376C99.9861 71.736 100.578 72.0581 101.165 72.3887C101.635 72.654 102.096 72.9319 102.565 73.1972C102.988 73.4372 103.42 73.6603 103.843 73.8983C104.311 74.1614 104.774 74.4372 105.239 74.7067C105.584 74.9067 105.928 75.1089 106.277 75.3004C106.688 75.5278 107.107 75.7384 107.515 75.9679C107.919 76.1952 108.309 76.4458 108.641 76.749Z" fill="#890C58"/>
<path d="M73.5373 147.568C74.689 145.44 75.8554 143.319 77.007 141.174C77.5839 141.294 78.085 141.345 78.4955 141.696C78.5987 141.785 78.7334 141.837 78.8535 141.907C79.0619 142.027 79.2724 142.147 79.4809 142.269C79.5714 142.321 79.6535 142.387 79.7461 142.433C80.1778 142.654 80.6136 142.865 81.041 143.094C81.6179 143.406 82.1884 143.73 82.7611 144.052C83.138 144.265 83.5127 144.486 83.8896 144.701C84.4159 145 84.9465 145.292 85.4707 145.595C86.0876 145.951 86.7066 146.305 87.3109 146.684C87.4456 146.768 87.5614 146.934 87.6098 147.086C87.6814 147.315 87.713 147.566 87.713 147.808C87.7193 151.33 87.7172 154.853 87.7172 158.375C87.7172 158.514 87.7046 158.653 87.6983 158.769C87.5509 159.057 87.3172 159.154 87.0414 159.177C86.9024 159.19 86.7614 159.188 86.6203 159.188C83.239 159.188 79.8556 159.188 76.4743 159.188C75.6743 159.188 75.5206 159.053 75.1753 158.31C74.95 157.828 74.6426 157.384 74.3753 156.92C74.1774 156.577 73.9752 156.234 73.79 155.882C73.5499 155.421 73.3415 154.945 73.0952 154.489C72.8573 154.046 72.5836 153.621 72.3351 153.185C72.112 152.794 71.8761 152.406 71.6846 151.998C71.4677 151.535 71.5751 151.082 71.8172 150.648C72.1056 150.135 72.3793 149.612 72.6657 149.097C72.952 148.585 73.2468 148.078 73.5373 147.568Z" fill="#890C58"/>
<path d="M162.324 103.268C162.278 102.873 162.209 102.544 162.209 102.218C162.2 98.7145 162.204 95.209 162.204 91.7035C162.204 91.634 162.202 91.5624 162.207 91.493C162.23 91.0234 162.419 90.8234 162.887 90.8108C163.377 90.7982 163.868 90.8066 164.358 90.8066C167.268 90.8066 170.176 90.8066 173.085 90.8066C173.313 90.8066 173.54 90.8171 173.769 90.815C174.045 90.8129 174.231 90.9498 174.361 91.1814C174.677 91.7393 175.007 92.2909 175.311 92.8573C175.555 93.3141 175.759 93.79 175.995 94.251C176.193 94.6342 176.412 95.009 176.62 95.3858C176.913 95.9185 177.205 96.4491 177.5 96.9817C177.77 97.4681 178.041 97.9523 178.317 98.4471C178.037 98.9629 177.98 99.5419 177.601 100.02C177.283 100.42 177.128 100.942 176.879 101.399C176.631 101.854 176.349 102.289 176.098 102.742C175.854 103.18 175.637 103.633 175.395 104.073C175.13 104.557 174.852 105.035 174.578 105.513C174.544 105.574 174.487 105.622 174.456 105.683C174.052 106.469 173.668 107.267 173.241 108.039C173.068 108.351 172.801 108.612 172.534 108.953C171.458 108.364 170.426 107.797 169.394 107.231C167.051 105.917 164.708 104.605 162.324 103.268Z" fill="#890C58"/>
<path d="M141.37 77.2707C141.621 76.9022 141.916 76.6454 142.322 76.4643C142.84 76.2327 143.314 75.9064 143.808 75.6243C144.124 75.4432 144.44 75.26 144.762 75.0895C145.192 74.8621 145.627 74.6474 146.061 74.4263C146.2 74.3547 146.335 74.2768 146.47 74.201C146.636 74.1084 146.798 74.0094 146.964 73.9189C147.177 73.8031 147.392 73.6936 147.604 73.5757C147.68 73.5336 147.748 73.4725 147.826 73.4367C148.756 73.0115 149.632 72.483 150.514 71.9651C150.752 71.8261 151.034 71.7651 151.222 71.6935C152.062 71.7145 152.609 72.2325 153.245 72.5398C153.807 72.8114 154.352 73.1167 154.898 73.4199C155.365 73.6789 155.824 73.9547 156.289 74.22C156.635 74.4179 156.984 74.6095 157.331 74.8011C157.681 74.9947 158.014 75.239 158.386 75.3632C158.963 75.5569 159.081 75.999 159.144 76.5001C159.157 76.6033 159.148 76.7107 159.148 76.8159C159.148 80.0751 159.148 83.3342 159.148 86.5934C159.148 86.6987 159.153 86.804 159.146 86.9092C159.113 87.425 158.828 87.7135 158.323 87.7493C158.201 87.7577 158.079 87.7514 157.955 87.7514C154.695 87.7514 151.436 87.7514 148.177 87.7493C147.95 87.7493 147.72 87.7388 147.499 87.7009C147.177 87.6461 146.924 87.5008 146.762 87.1787C146.455 86.5766 146.112 85.9913 145.777 85.4039C145.512 84.9386 145.23 84.4838 144.964 84.0185C144.785 83.7048 144.617 83.3827 144.451 83.0605C144.211 82.5974 143.989 82.1257 143.739 81.6689C143.49 81.212 143.213 80.772 142.954 80.3193C142.745 79.9572 142.535 79.5993 142.345 79.2287C142.019 78.5992 141.709 77.9592 141.37 77.2707Z" fill="#890C58"/>
<path d="M102.33 162.268C102.887 162.483 103.195 162.835 103.332 163.38C103.403 163.668 103.639 163.917 103.795 164.186C104.064 164.654 104.34 165.117 104.595 165.59C104.85 166.06 105.081 166.544 105.328 167.018C105.528 167.403 105.734 167.784 105.942 168.165C106.277 168.772 106.61 169.38 106.953 169.982C107.193 170.406 107.463 170.812 107.696 171.237C107.951 171.709 108.18 172.193 108.423 172.677C108.199 173.14 107.81 173.362 107.41 173.574C106.905 173.844 106.408 174.128 105.905 174.4C105.431 174.654 104.951 174.896 104.475 175.147C104.062 175.364 103.65 175.585 103.241 175.808C102.679 176.118 102.117 176.427 101.557 176.745C101.119 176.993 100.71 177.303 100.249 177.492C99.6894 177.724 99.2514 178.191 98.6114 178.271C98.2135 178.322 97.8977 178.208 97.5692 178.025C97.0092 177.716 96.4386 177.429 95.8744 177.126C95.4617 176.905 95.0512 176.678 94.6448 176.444C94.1522 176.158 93.689 175.825 93.1521 175.61C92.7836 175.463 92.4447 175.242 92.0952 175.046C91.6867 174.816 91.2825 174.578 90.8025 174.303C90.7646 174.086 90.6761 173.816 90.674 173.547C90.6635 170.079 90.6677 166.61 90.6656 163.142C90.6656 162.816 90.7056 162.51 91.0425 162.266C94.7775 162.268 98.5567 162.268 102.33 162.268Z" fill="#890C58"/>
<path d="M87.6905 91.1706C87.6905 95.0151 87.6905 98.8322 87.6905 102.668C87.2884 102.955 86.9663 103.308 86.4862 103.498C86.0083 103.685 85.5809 104.005 85.1325 104.268C85.0567 104.313 84.9893 104.369 84.9114 104.407C84.1071 104.818 83.2902 105.205 82.4986 105.637C81.7217 106.06 80.9743 106.536 80.2016 106.965C79.749 107.216 79.2668 107.412 78.8078 107.654C78.3952 107.871 77.9973 108.119 77.5888 108.342C77.4246 108.433 77.2477 108.496 77.0414 108.589C76.8519 108.317 76.6666 108.09 76.5214 107.837C76.2456 107.357 75.995 106.862 75.7318 106.374C75.6666 106.252 75.6055 106.13 75.5339 106.012C75.4708 105.908 75.3676 105.822 75.3276 105.713C75.0665 105.024 74.6644 104.416 74.2939 103.788C74.0475 103.369 73.8622 102.915 73.6285 102.489C73.3612 102.005 73.0601 101.538 72.7906 101.053C72.5548 100.628 72.3421 100.19 72.1148 99.7607C72.0263 99.5922 71.9421 99.4196 71.8347 99.2638C71.4979 98.7753 71.521 98.19 71.8432 97.6932C72.1527 97.2131 72.4095 96.6994 72.6874 96.2004C72.8727 95.8657 73.0453 95.5246 73.2412 95.1961C73.498 94.7624 73.7843 94.3477 74.0307 93.9097C74.2749 93.476 74.4791 93.0192 74.7128 92.577C74.9402 92.1475 75.1571 91.7096 75.4223 91.3033C75.6413 90.9685 75.9676 90.798 76.4035 90.8001C79.8395 90.8106 83.2734 90.8064 86.7094 90.8064C87.0631 90.8085 87.4063 90.8464 87.6905 91.1706Z" fill="#890C58"/>
<path d="M178.287 151.564C177.986 152.17 177.71 152.747 177.416 153.314C177.256 153.621 177.068 153.912 176.891 154.211C176.626 154.659 176.352 155.101 176.091 155.554C175.866 155.945 175.66 156.348 175.439 156.741C175.156 157.24 174.866 157.731 174.586 158.23C174.502 158.381 174.43 158.541 174.369 158.706C174.26 159.007 174.043 159.15 173.735 159.173C173.596 159.184 173.455 159.188 173.316 159.188C169.901 159.188 166.484 159.188 163.069 159.188C162.93 159.188 162.783 159.198 162.652 159.162C162.417 159.099 162.255 158.939 162.221 158.687C162.2 158.531 162.206 158.373 162.206 158.215C162.206 154.834 162.223 151.452 162.191 148.073C162.185 147.347 162.513 146.865 163.219 146.551C163.722 146.328 164.183 146.012 164.663 145.738C164.994 145.551 165.32 145.357 165.657 145.18C166.116 144.938 166.583 144.713 167.044 144.475C167.369 144.309 167.693 144.145 168.011 143.966C168.449 143.717 168.876 143.454 169.312 143.201C169.447 143.124 169.592 143.065 169.731 142.993C169.882 142.913 170.034 142.833 170.181 142.745C170.255 142.7 170.312 142.625 170.39 142.587C170.855 142.357 171.327 142.14 171.79 141.907C171.992 141.806 172.179 141.677 172.428 141.528C172.845 141.435 173.072 141.761 173.268 142.096C173.609 142.679 173.935 143.273 174.251 143.869C174.487 144.311 174.689 144.77 174.923 145.21C175.19 145.713 175.479 146.206 175.759 146.701C175.954 147.048 176.159 147.393 176.346 147.745C176.567 148.16 176.767 148.583 176.992 148.995C177.264 149.497 177.567 149.981 177.83 150.486C178.003 150.825 178.129 151.189 178.287 151.564Z" fill="#890C58"/>
<path d="M188.051 94.2427C188.093 94.3269 188.126 94.3901 188.156 94.4554C188.343 94.8449 188.533 95.2344 188.716 95.626C188.878 95.9713 189.049 96.3123 189.192 96.666C189.432 97.2619 189.646 97.8661 189.88 98.462C189.956 98.6556 190.053 98.8388 190.145 99.0262C190.169 99.0725 190.215 99.1104 190.232 99.1567C190.457 99.7947 190.678 100.435 190.905 101.073C190.988 101.302 191.087 101.523 191.173 101.751C191.234 101.913 191.289 102.077 191.346 102.241C191.468 102.584 191.594 102.925 191.712 103.269C191.769 103.433 191.834 103.599 191.857 103.77C191.916 104.189 192.011 104.584 192.23 104.961C192.354 105.178 192.358 105.465 192.413 105.719C192.442 105.856 192.44 106.006 192.497 106.13C192.817 106.839 192.851 107.627 193.085 108.345C193.276 108.934 193.396 109.513 193.495 110.115C193.584 110.663 193.769 111.195 193.887 111.741C193.941 111.995 193.931 112.263 193.975 112.522C194.043 112.916 194.135 113.307 194.207 113.701C194.304 114.234 194.462 114.766 194.47 115.301C194.485 116.324 194.68 117.314 194.838 118.316C194.948 119.021 194.979 119.743 194.998 120.459C195.007 120.775 194.994 121.131 194.659 121.369C194.249 121.061 193.866 120.786 193.68 120.255C193.518 119.788 193.175 119.388 192.933 118.945C192.68 118.489 192.457 118.019 192.213 117.558C191.986 117.131 191.752 116.707 191.518 116.282C191.242 115.781 190.962 115.28 190.689 114.777C190.463 114.364 190.255 113.945 190.021 113.537C189.781 113.116 189.503 112.713 189.274 112.286C189.013 111.798 188.79 111.29 188.55 110.791C188.52 110.728 188.48 110.669 188.444 110.61C188.196 110.195 187.905 109.8 187.716 109.36C187.589 109.067 187.571 108.711 187.571 108.383C187.562 104.719 187.564 101.054 187.564 97.3903C187.564 96.6534 187.56 95.9165 187.571 95.1817C187.575 94.8512 187.606 94.5164 188.051 94.2427Z" fill="#890C58"/>
<path d="M155.444 188.146C155.376 188.221 155.33 188.312 155.261 188.343C154.705 188.59 154.145 188.826 153.587 189.066C153.475 189.114 153.364 189.158 153.258 189.217C153.168 189.268 153.094 189.356 152.999 189.394C152.389 189.638 151.774 189.87 151.161 190.11C150.999 190.173 150.843 190.251 150.686 190.32C150.511 190.396 150.336 190.472 150.159 190.544C149.839 190.674 149.517 190.805 149.195 190.929C149.064 190.979 148.934 191.028 148.799 191.062C148.41 191.158 148.01 191.207 147.677 191.47C147.576 191.55 147.414 191.554 147.279 191.586C146.925 191.67 146.546 191.681 146.262 191.956C146.239 191.979 146.199 191.988 146.165 191.996C145.361 192.211 144.555 192.42 143.75 192.641C143.401 192.737 143.06 192.864 142.71 192.958C142.407 193.041 142.098 193.089 141.792 193.161C141.439 193.245 141.087 193.342 140.731 193.426C140.359 193.514 139.99 193.63 139.611 193.67C139.123 193.721 138.655 193.792 138.188 193.971C137.79 194.125 137.337 194.163 136.904 194.194C136.308 194.236 135.735 194.34 135.154 194.485C134.516 194.645 133.842 194.693 133.181 194.719C132.392 194.75 131.615 194.824 130.84 194.992C130.385 195.091 129.912 195.15 129.478 194.938C129.341 194.371 129.575 193.83 130.088 193.546C130.8 193.152 131.528 192.788 132.242 192.394C132.68 192.152 133.097 191.874 133.533 191.626C133.941 191.394 134.362 191.186 134.773 190.958C135.303 190.664 135.826 190.356 136.356 190.059C136.476 189.992 136.613 189.95 136.739 189.897C136.883 189.836 137.032 189.786 137.169 189.712C137.733 189.407 138.293 189.095 138.853 188.786C139.234 188.575 139.643 188.407 139.986 188.148C140.449 187.796 140.963 187.695 141.512 187.693C143.508 187.687 145.506 187.689 147.502 187.689C149.867 187.689 152.231 187.691 154.597 187.689C154.941 187.693 155.271 187.699 155.444 188.146Z" fill="#890C58"/>
<path d="M120.349 55.1052C120.391 55.8463 120.038 56.28 119.465 56.5811C118.76 56.9516 118.052 57.318 117.36 57.7075C116.602 58.1327 115.865 58.5917 115.105 59.0128C114.65 59.2655 114.164 59.4549 113.707 59.7034C113.267 59.9413 112.848 60.2171 112.418 60.4761C112.359 60.5119 112.305 60.5603 112.243 60.5919C111.473 60.9877 110.643 61.2993 109.947 61.7961C109.283 62.2699 108.597 62.3036 107.858 62.3014C103.738 62.2972 99.6174 62.2993 95.4992 62.2951C95.2382 62.2951 94.9708 62.2804 94.7202 62.2172C94.556 62.1772 94.4128 62.0383 94.2234 61.9204C94.3349 61.8025 94.3813 61.7098 94.4507 61.6867C94.9266 61.5182 95.375 61.2951 95.8235 61.0656C96.4993 60.7203 97.2046 60.4318 97.9015 60.1266C98.0615 60.0571 98.2405 60.0339 98.4026 59.9708C98.611 59.8887 98.8131 59.7897 99.0174 59.695C99.0637 59.6739 99.1016 59.6255 99.1479 59.6107C99.8048 59.3834 100.464 59.1644 101.121 58.9349C101.365 58.8507 101.603 58.7454 101.843 58.6507C101.954 58.6065 102.062 58.5412 102.178 58.5159C102.622 58.4233 103.072 58.3686 103.456 58.078C103.557 58.0001 103.723 58.0127 103.858 57.9706C104.272 57.8443 104.685 57.7096 105.1 57.5811C105.233 57.539 105.367 57.4927 105.504 57.4674C106.037 57.3706 106.563 57.2906 107.064 57.0464C107.367 56.899 107.744 56.9032 108.087 56.84C108.224 56.8148 108.378 56.819 108.496 56.7558C109.155 56.4168 109.883 56.4232 110.584 56.2968C110.926 56.2358 111.248 56.0673 111.587 56.0021C112.033 55.9179 112.492 55.9094 112.938 55.8315C113.644 55.7094 114.343 55.5536 115.044 55.4189C115.214 55.3852 115.391 55.3641 115.564 55.3641C116.652 55.3599 117.728 55.2441 118.793 55.0146C119.132 54.9431 119.488 54.9367 119.838 54.9452C120.017 54.9515 120.191 55.0525 120.349 55.1052Z" fill="#890C58"/>
<path d="M129.518 55.7094C129.518 55.4841 129.518 55.2799 129.518 55.0588C129.923 54.8483 130.331 54.9241 130.718 54.9683C131.464 55.0525 132.205 55.1936 132.95 55.282C133.626 55.362 134.308 55.3999 134.988 55.4631C135.161 55.4799 135.34 55.501 135.5 55.5641C136.1 55.7957 136.731 55.8021 137.355 55.8884C137.801 55.9515 138.239 56.0737 138.681 56.1621C139.108 56.2484 139.54 56.3158 139.967 56.4084C140.34 56.4905 140.706 56.6 141.079 56.6863C141.469 56.7769 141.864 56.84 142.254 56.9348C142.523 57 142.782 57.1053 143.05 57.1748C143.437 57.2758 143.831 57.3516 144.218 57.459C144.469 57.5285 144.709 57.6295 144.953 57.7201C145.067 57.7622 145.174 57.8422 145.292 57.8569C145.783 57.9159 146.229 58.0885 146.686 58.2801C147.37 58.5686 148.107 58.7328 148.819 58.9623C149.05 59.036 149.271 59.1412 149.496 59.2339C149.545 59.2528 149.583 59.3033 149.631 59.3139C150.212 59.4444 150.741 59.7055 151.286 59.9308C151.989 60.2192 152.707 60.4718 153.368 60.8571C153.486 60.9245 153.636 60.935 153.764 60.9898C153.985 61.0866 154.2 61.2045 154.421 61.3035C154.625 61.3961 154.838 61.4761 155.044 61.5645C155.213 61.6382 155.379 61.7182 155.556 61.8004C155.448 62.152 155.213 62.253 154.943 62.2825C154.718 62.3078 154.488 62.2993 154.261 62.2993C150.071 62.2993 145.881 62.2993 141.69 62.2993C141.109 62.2993 140.567 62.2635 140.068 61.8509C139.704 61.5498 139.205 61.4172 138.774 61.194C138.31 60.954 137.854 60.6992 137.395 60.4487C136.891 60.1729 136.39 59.895 135.889 59.6149C135.407 59.3433 134.927 59.0675 134.445 58.7938C134.066 58.5812 133.687 58.3685 133.308 58.1601C132.426 57.6738 131.544 57.1895 130.662 56.7053C130.434 56.5789 130.181 56.4821 129.988 56.3179C129.805 56.1621 129.687 55.9347 129.518 55.7094Z" fill="#890C58"/>
<path d="M120.127 195.03C119.805 195.03 119.483 195.089 119.19 195.02C117.955 194.723 116.687 194.758 115.437 194.63C115.142 194.601 114.851 194.529 114.561 194.474C114.1 194.388 113.641 194.272 113.175 194.217C112.533 194.142 111.891 194.123 111.278 193.859C110.998 193.737 110.666 193.718 110.354 193.693C109.861 193.653 109.39 193.575 108.933 193.367C108.67 193.247 108.358 193.232 108.07 193.163C107.682 193.068 107.295 192.967 106.91 192.864C106.859 192.851 106.817 192.811 106.766 192.798C105.874 192.567 104.981 192.335 104.088 192.106C104.072 192.101 104.053 192.106 104.036 192.099C103.32 191.84 102.604 191.579 101.888 191.318C101.823 191.295 101.766 191.24 101.701 191.226C101.16 191.093 100.636 190.925 100.126 190.682C99.7408 190.499 99.2839 190.472 98.9175 190.202C98.8144 190.127 98.646 190.143 98.5175 190.093C98.307 190.015 98.1028 189.92 97.8985 189.826C97.8354 189.796 97.7848 189.739 97.7217 189.714C97.109 189.47 96.4963 189.232 95.8837 188.988C95.77 188.943 95.6626 188.884 95.5531 188.832C95.3363 188.726 95.1257 188.606 94.9004 188.52C94.6857 188.436 94.4772 188.362 94.3783 188.12C94.4941 187.838 94.6899 187.699 94.9868 187.699C95.1447 187.699 95.3026 187.695 95.4605 187.695C99.6671 187.695 103.876 187.691 108.082 187.701C108.463 187.701 108.847 187.779 109.226 187.84C109.36 187.861 109.493 187.926 109.613 187.996C110.125 188.286 110.63 188.592 111.144 188.882C111.973 189.354 112.803 189.823 113.639 190.282C114.095 190.533 114.571 190.748 115.03 190.994C115.46 191.224 115.874 191.478 116.3 191.714C116.784 191.981 117.287 192.219 117.759 192.504C118.468 192.931 119.256 193.228 119.883 193.801C120.241 194.129 120.315 194.491 120.127 195.03Z" fill="#890C58"/>
<path d="M194.755 129.586C194.809 129.748 194.919 129.919 194.913 130.085C194.894 130.695 194.896 131.317 194.776 131.91C194.605 132.755 194.521 133.601 194.475 134.458C194.441 135.1 194.376 135.74 194.148 136.363C194.014 136.732 194.035 137.155 193.965 137.551C193.872 138.064 193.759 138.574 193.656 139.085C193.584 139.443 193.523 139.806 193.443 140.161C193.352 140.568 193.241 140.97 193.148 141.374C193.066 141.73 193.001 142.09 192.917 142.446C192.845 142.749 192.763 143.052 192.679 143.351C192.618 143.568 192.525 143.776 192.477 143.997C192.373 144.473 192.199 144.932 192.074 145.393C191.862 146.166 191.54 146.901 191.352 147.68C191.3 147.897 191.203 148.103 191.123 148.311C191.104 148.36 191.064 148.4 191.047 148.448C190.811 149.12 190.58 149.794 190.34 150.463C190.251 150.707 190.14 150.941 190.041 151.181C189.98 151.326 189.927 151.474 189.866 151.617C189.763 151.853 189.653 152.088 189.544 152.322C189.514 152.385 189.445 152.44 189.438 152.501C189.388 153.114 188.99 153.59 188.786 154.141C188.592 154.672 188.31 155.171 188.017 155.783C187.859 155.586 187.714 155.478 187.672 155.337C187.603 155.108 187.571 154.857 187.571 154.615C187.565 150.358 187.567 146.099 187.567 141.841C187.567 141.448 187.651 141.105 187.891 140.763C188.188 140.342 188.388 139.852 188.634 139.391C188.708 139.254 188.794 139.121 188.87 138.984C188.969 138.805 189.066 138.622 189.163 138.443C189.386 138.031 189.603 137.614 189.834 137.207C190.133 136.681 190.443 136.159 190.752 135.637C191.026 135.176 191.314 134.723 191.573 134.254C191.824 133.799 192.037 133.325 192.287 132.87C192.536 132.416 192.813 131.978 193.074 131.531C193.31 131.127 193.58 130.733 193.755 130.304C193.931 129.862 194.211 129.628 194.755 129.586Z" fill="#890C58"/>
<path d="M128.188 166.047C128.419 165.618 128.682 165.348 129.061 165.163C129.59 164.904 130.099 164.607 130.615 164.323C130.95 164.14 131.276 163.942 131.613 163.763C132.089 163.512 132.571 163.272 133.051 163.03C133.483 162.811 133.91 162.582 134.352 162.386C134.554 162.297 134.788 162.241 135.007 162.238C137.496 162.228 139.984 162.23 142.473 162.236C142.675 162.236 142.877 162.295 143.085 162.327C143.271 162.906 142.959 163.314 142.746 163.742C142.466 164.3 142.165 164.847 141.873 165.397C141.652 165.809 141.428 166.224 141.203 166.635C140.894 167.197 140.586 167.759 140.268 168.317C140.02 168.753 139.755 169.18 139.51 169.618C139.266 170.056 139.011 170.49 138.809 170.949C138.567 171.502 138.152 171.704 137.599 171.439C137.192 171.243 136.807 171.005 136.415 170.778C135.923 170.492 135.458 170.165 134.927 169.934C134.472 169.736 134.062 169.433 133.63 169.182C133.209 168.938 132.784 168.702 132.363 168.46C131.868 168.176 131.379 167.875 130.878 167.601C130.392 167.336 129.882 167.113 129.4 166.837C128.992 166.601 128.604 166.321 128.188 166.047Z" fill="#890C58"/>
<path d="M111.689 78.4288C112.024 78.5215 112.391 78.5762 112.656 78.8731C112.711 78.9341 112.801 78.9657 112.877 79.0078C113.403 79.3068 113.925 79.6121 114.454 79.9047C114.894 80.1489 115.342 80.3763 115.787 80.6142C116.109 80.7848 116.433 80.9532 116.749 81.1343C117.231 81.4101 117.702 81.7027 118.185 81.9785C118.606 82.2207 119.037 82.4438 119.46 82.6817C120.143 83.067 120.821 83.4544 121.496 83.846C121.553 83.8776 121.587 83.9471 121.673 84.0439C121.305 84.3703 121.061 84.8103 120.53 84.924C120.402 84.9514 120.288 85.0503 120.17 85.1219C120.052 85.1935 119.943 85.2798 119.821 85.3472C119.214 85.6798 118.608 86.0188 117.993 86.3367C117.145 86.7746 116.294 87.2062 115.433 87.6189C115.237 87.7137 114.995 87.7494 114.776 87.7494C112.306 87.7579 109.837 87.7579 107.367 87.7537C106.7 87.7537 106.436 87.2926 106.769 86.7031C107.188 85.9641 107.634 85.2398 108.047 84.4987C108.302 84.0439 108.506 83.5639 108.755 83.107C109.001 82.6523 109.279 82.2143 109.534 81.7638C109.757 81.3722 109.976 80.9785 110.184 80.5805C110.418 80.1342 110.605 79.6605 110.877 79.2394C111.083 78.9299 111.241 78.5404 111.689 78.4288Z" fill="#890C58"/>
<path d="M78.616 111.28C79.1045 110.991 79.5129 110.736 79.9361 110.507C80.3741 110.267 80.833 110.063 81.2731 109.825C81.8205 109.53 82.3595 109.221 82.8984 108.915C83.3364 108.667 83.768 108.41 84.2101 108.168C84.6964 107.903 85.1912 107.648 85.6839 107.393C85.7913 107.336 85.9428 107.33 86.0165 107.25C86.4018 106.831 86.9513 106.816 87.4419 106.62C87.6672 106.873 87.7051 107.17 87.7072 107.46C87.7156 109.93 87.7156 112.402 87.7051 114.871C87.703 115.202 87.6187 115.509 87.4166 115.804C87.164 116.175 86.9892 116.598 86.7829 116.998C86.5513 117.444 86.3281 117.897 86.0881 118.339C85.7744 118.918 85.4544 119.493 85.1302 120.068C84.8838 120.501 84.627 120.929 84.3638 121.377C83.928 121.209 83.6058 121.011 83.4437 120.562C83.2921 120.141 83.05 119.75 82.8353 119.354C82.5152 118.758 82.1868 118.169 81.8563 117.579C81.4078 116.777 80.9467 115.983 80.5025 115.177C80.2519 114.72 80.0351 114.244 79.7866 113.787C79.5466 113.345 79.2603 112.926 79.0413 112.473C78.875 112.118 78.7739 111.73 78.616 111.28Z" fill="#890C58"/>
<path d="M171.121 138.239C171.121 138.322 171.121 138.513 171.121 138.78C168.334 140.307 165.527 141.842 162.78 143.347C162.376 143.301 162.262 143.076 162.218 142.8C162.197 142.663 162.205 142.52 162.205 142.381C162.205 140.033 162.199 137.686 162.211 135.338C162.213 134.974 162.272 134.605 162.342 134.248C162.378 134.066 162.494 133.9 162.582 133.732C162.679 133.549 162.788 133.374 162.887 133.193C163.127 132.753 163.361 132.308 163.601 131.868C163.875 131.367 164.125 130.847 164.437 130.372C164.837 129.761 164.997 128.961 165.791 128.611C165.845 128.649 165.942 128.681 165.978 128.748C166.224 129.205 166.454 129.67 166.7 130.127C166.938 130.569 167.186 131.007 167.435 131.445C167.673 131.868 167.917 132.29 168.155 132.713C168.458 133.254 168.755 133.799 169.054 134.344C169.079 134.391 169.109 134.433 169.13 134.481C169.57 135.462 170.094 136.399 170.656 137.317C170.812 137.578 170.934 137.869 171.121 138.239Z" fill="#890C58"/>
<path d="M121.117 166.06C120.053 166.66 119.028 167.254 117.988 167.82C116.921 168.399 115.832 168.936 114.765 169.515C113.716 170.086 112.684 170.686 111.674 171.256C111.449 171.206 111.278 171.17 111.103 171.13C111.032 171.052 110.943 170.985 110.897 170.896C110.489 170.111 110.101 169.315 109.682 168.536C109.436 168.081 109.133 167.658 108.869 167.214C108.684 166.9 108.524 166.574 108.356 166.252C108.124 165.805 107.909 165.348 107.667 164.908C107.419 164.451 107.145 164.009 106.888 163.557C106.804 163.407 106.699 163.251 106.674 163.087C106.598 162.565 106.669 162.222 107.375 162.228C109.758 162.247 112.139 162.237 114.523 162.234C115.089 162.234 115.554 162.525 116.041 162.75C116.259 162.851 116.462 162.986 116.674 163.104C116.767 163.155 116.864 163.195 116.954 163.247C117.478 163.546 118.005 163.841 118.525 164.148C118.973 164.411 119.413 164.691 119.858 164.959C119.946 165.012 120.039 165.073 120.138 165.094C120.622 165.197 120.864 165.544 121.117 166.06Z" fill="#890C58"/>
<path d="M138.474 78.6836C138.573 78.7763 138.685 78.8436 138.739 78.9405C139.133 79.6353 139.51 80.3406 139.904 81.0375C140.177 81.5196 140.472 81.987 140.748 82.4671C140.929 82.7829 141.093 83.1071 141.259 83.4292C141.491 83.8777 141.706 84.3324 141.946 84.7746C142.194 85.2314 142.474 85.6715 142.725 86.1262C142.91 86.461 143.07 86.8084 143.266 87.1958C143.232 87.3053 143.186 87.4484 143.125 87.6358C142.86 87.6758 142.605 87.7474 142.35 87.7495C139.986 87.7579 137.623 87.7642 135.259 87.7474C134.697 87.7432 134.179 87.5327 133.712 87.2042C133.427 87.0063 133.128 86.8294 132.825 86.6631C132.368 86.4126 131.901 86.1831 131.444 85.9368C131.017 85.7073 130.594 85.4651 130.168 85.2293C129.956 85.1114 129.747 84.9872 129.532 84.8798C129.164 84.6946 128.869 84.4482 128.734 84.044C128.785 83.9619 128.808 83.8798 128.861 83.8482C129.282 83.6082 129.705 83.3766 130.13 83.1471C130.511 82.9408 130.897 82.7408 131.28 82.5365C131.905 82.2039 132.533 81.8733 133.154 81.5344C133.518 81.3343 133.872 81.1133 134.236 80.9133C134.781 80.6143 135.339 80.3364 135.88 80.0311C136.345 79.77 136.79 79.4669 137.261 79.2184C137.647 79.0142 138.055 78.8647 138.474 78.6836Z" fill="#890C58"/>
<path d="M84.3131 128.567C84.4415 128.731 84.5615 128.855 84.6478 129.001C84.8057 129.268 84.9468 129.548 85.09 129.824C85.3195 130.272 85.5363 130.729 85.7763 131.171C86.0164 131.613 86.2879 132.039 86.5301 132.481C86.7975 132.967 87.0459 133.462 87.3028 133.953C87.3259 133.999 87.3217 134.068 87.3554 134.1C87.7996 134.515 87.7154 135.058 87.7154 135.578C87.7175 137.787 87.7175 139.995 87.7133 142.202C87.7133 142.425 87.688 142.648 87.6712 142.922C87.3996 142.951 87.1659 142.976 87.0122 142.993C86.368 142.652 85.7953 142.362 85.2374 142.046C84.7847 141.791 84.3573 141.492 83.9025 141.237C83.4478 140.983 82.974 140.766 82.5151 140.521C82.2245 140.368 81.9403 140.197 81.6582 140.027C81.2139 139.761 80.7739 139.486 80.3276 139.222C80.1928 139.142 80.037 139.102 79.9044 139.022C79.578 138.827 79.2538 138.627 78.9443 138.408C78.8706 138.355 78.8475 138.229 78.8074 138.147C78.8559 137.814 78.9001 137.502 79.1696 137.281C79.2201 137.239 79.2517 137.17 79.2854 137.109C79.6054 136.517 79.9275 135.925 80.2391 135.33C80.4812 134.868 80.7002 134.395 80.9508 133.938C81.1908 133.496 81.4666 133.073 81.7087 132.632C81.9613 132.178 82.1929 131.71 82.4372 131.251C82.673 130.809 82.913 130.369 83.1551 129.929C83.2646 129.731 83.4057 129.546 83.4836 129.335C83.6225 128.965 83.8857 128.744 84.3131 128.567Z" fill="#890C58"/>
<path d="M165.781 121.467C165.36 121.194 165.074 120.926 164.893 120.518C164.667 120.012 164.368 119.541 164.101 119.055C163.865 118.629 163.629 118.204 163.394 117.779C163.101 117.25 162.779 116.736 162.526 116.189C162.368 115.848 162.229 115.458 162.225 115.088C162.2 112.547 162.212 110.005 162.214 107.464C162.214 107.395 162.238 107.327 162.257 107.21C162.385 107.121 162.537 107.016 162.688 106.911C163.193 107.22 163.655 107.523 164.135 107.793C164.587 108.045 165.069 108.245 165.524 108.494C165.964 108.734 166.385 109.005 166.815 109.264C167.112 109.443 167.404 109.631 167.71 109.799C168.152 110.041 168.6 110.267 169.047 110.5C169.171 110.566 169.301 110.62 169.413 110.7C169.958 111.092 170.666 111.258 171.068 111.888C170.609 112.768 170.154 113.665 169.676 114.547C169.43 115.004 169.139 115.44 168.872 115.884C168.836 115.943 168.8 116.006 168.775 116.069C168.524 116.718 168.156 117.303 167.806 117.901C167.543 118.349 167.341 118.833 167.093 119.29C166.853 119.732 166.583 120.16 166.333 120.596C166.263 120.716 166.221 120.853 166.147 120.968C166.038 121.135 165.914 121.288 165.781 121.467Z" fill="#890C58"/>
<path d="M158.609 101.138C158.276 100.95 157.919 100.74 157.554 100.544C157.095 100.298 156.624 100.075 156.167 99.824C155.71 99.5735 155.266 99.3019 154.813 99.045C154.36 98.7882 153.895 98.5482 153.449 98.2829C152.988 98.0092 152.499 97.7586 152.213 97.2723C151.992 96.8975 151.79 96.5122 151.579 96.1333C151.259 95.5585 150.937 94.9858 150.619 94.4089C150.444 94.091 150.276 93.7689 150.108 93.4447C149.876 92.9962 149.659 92.5414 149.419 92.0993C149.272 91.8256 149.097 91.5687 148.926 91.2908C149.011 91.1329 149.082 91.0003 149.166 90.8445C149.354 90.8318 149.526 90.8129 149.697 90.8129C152.537 90.8108 155.377 90.8087 158.215 90.8108C158.946 90.8108 159.142 91.0129 159.142 91.7561C159.144 94.5963 159.14 97.4365 159.146 100.275C159.15 100.63 159.1 100.94 158.609 101.138Z" fill="#890C58"/>
<path d="M91.0006 148.711C91.7922 149.175 92.5333 149.613 93.2807 150.044C93.5965 150.225 93.9208 150.392 94.2429 150.56C94.7187 150.808 95.2072 151.036 95.6725 151.305C96.2262 151.625 96.761 151.977 97.2978 152.324C97.382 152.379 97.4515 152.472 97.4978 152.562C97.8979 153.314 98.2811 154.076 98.6895 154.823C98.9464 155.295 99.2432 155.744 99.5106 156.211C99.7001 156.541 99.8727 156.883 100.047 157.222C100.271 157.653 100.49 158.089 100.7 158.527C100.744 158.617 100.744 158.729 100.761 158.805C100.673 159.093 100.481 159.182 100.231 159.188C100.125 159.19 100.02 159.19 99.9148 159.19C97.1273 159.19 94.3397 159.19 91.5522 159.19C91.4301 159.19 91.3058 159.194 91.1837 159.186C90.8237 159.154 90.6995 159.026 90.6721 158.655C90.6658 158.569 90.67 158.481 90.67 158.392C90.67 155.516 90.6679 152.642 90.6742 149.766C90.6742 149.541 90.7079 149.311 90.7605 149.095C90.7921 148.97 90.8974 148.869 91.0006 148.711Z" fill="#890C58"/>
<path d="M67.9276 84.4143C67.9992 84.1069 67.9929 83.9196 68.0792 83.8017C68.6477 83.0311 69.2351 82.2731 69.8225 81.5152C70.2393 80.9783 70.6478 80.433 71.0899 79.9172C71.6963 79.2077 72.33 78.5192 72.9553 77.8265C73.5659 77.1528 74.1596 76.4622 74.8017 75.818C75.7534 74.8621 76.7156 73.9147 77.7177 73.0136C78.9094 71.9419 80.1305 70.904 81.3748 69.8934C82.1433 69.2681 82.977 68.7228 83.7834 68.1417C84.1434 67.8806 84.5056 67.6195 84.8593 67.3648C85.1645 67.5311 85.0782 67.7711 85.0761 67.908C84.7245 68.5733 84.4171 69.1754 84.0887 69.7691C83.8445 70.2092 83.5729 70.6345 83.3181 71.0703C83.1244 71.4008 82.9349 71.7314 82.7539 72.0682C82.337 72.8325 81.9349 73.6031 81.5096 74.361C81.2569 74.8137 80.9664 75.2453 80.7032 75.6938C80.52 76.0075 80.3579 76.3317 80.1853 76.6496C79.9768 77.0307 79.7347 77.397 79.5684 77.7971C79.2778 78.4939 78.6967 78.8645 78.0862 79.2056C77.6314 79.4603 77.1577 79.6793 76.6966 79.9235C76.1282 80.2225 75.5618 80.5235 75.0018 80.8373C74.5617 81.0836 74.1343 81.351 73.7027 81.6078C73.6417 81.6436 73.5848 81.6836 73.5217 81.7152C73.0395 81.9489 72.5511 82.1721 72.0753 82.4163C71.7679 82.5742 71.4752 82.7616 71.1762 82.9363C70.7257 83.1974 70.2751 83.4606 69.8225 83.7153C69.4603 83.9217 69.1024 84.1406 68.7213 84.3091C68.5298 84.387 68.2939 84.368 67.9276 84.4143Z" fill="#890C58"/>
<path d="M164.622 182.541C164.79 182.116 164.931 181.676 165.136 181.269C165.369 180.806 165.664 180.375 165.927 179.924C166.226 179.417 166.523 178.907 166.811 178.393C167.041 177.987 167.26 177.574 167.479 177.162C167.729 176.688 167.969 176.208 168.228 175.739C168.498 175.252 168.78 174.772 169.062 174.292C169.344 173.812 169.635 173.338 169.915 172.858C170.125 172.498 170.336 172.138 170.527 171.768C170.767 171.302 171.189 171.069 171.631 170.852C171.862 170.738 172.085 170.606 172.311 170.481C172.372 170.448 172.424 170.401 172.486 170.368C173.397 169.869 174.307 169.368 175.225 168.877C175.684 168.631 176.162 168.422 176.618 168.172C177.073 167.923 177.505 167.635 177.957 167.384C178.395 167.14 178.846 166.921 179.292 166.687C179.707 166.471 180.12 166.252 180.534 166.035C180.945 165.822 181.358 165.612 181.779 165.395C181.937 165.706 181.878 165.927 181.726 166.14C181.288 166.748 180.861 167.363 180.408 167.959C179.966 168.542 179.503 169.113 179.04 169.679C178.579 170.243 178.109 170.799 177.635 171.353C177.225 171.831 176.812 172.307 176.383 172.766C175.98 173.197 175.553 173.606 175.138 174.025C174.517 174.654 173.911 175.298 173.271 175.909C172.614 176.536 171.93 177.137 171.245 177.734C170.567 178.328 169.885 178.92 169.184 179.486C168.591 179.968 167.965 180.413 167.357 180.876C166.818 181.284 166.289 181.707 165.736 182.099C165.432 182.314 165.089 182.476 164.765 182.661C164.719 182.621 164.67 182.581 164.622 182.541Z" fill="#890C58"/>
<path d="M159.129 158.754C158.952 159.112 158.689 159.192 158.365 159.19C155.44 159.184 152.516 159.186 149.594 159.186C149.316 159.186 149.063 159.156 148.954 158.805C148.968 158.733 148.968 158.62 149.017 158.533C149.255 158.11 149.514 157.697 149.747 157.272C150.006 156.803 150.246 156.325 150.497 155.851C150.724 155.424 150.954 154.998 151.185 154.575C151.461 154.072 151.735 153.569 152.026 153.074C152.148 152.865 152.266 152.623 152.453 152.495C152.88 152.202 153.346 151.964 153.8 151.714C154.194 151.497 154.596 151.297 154.99 151.082C155.565 150.768 156.137 150.451 156.708 150.126C157.144 149.878 157.571 149.608 158.007 149.362C158.156 149.278 158.321 149.198 158.489 149.166C158.847 149.103 159.102 149.312 159.142 149.669C159.15 149.739 159.146 149.808 159.146 149.88C159.146 152.752 159.146 155.624 159.144 158.493C159.146 158.582 159.135 158.668 159.129 158.754Z" fill="#890C58"/>
<path d="M90.9906 90.8085C91.1296 90.8085 91.319 90.8085 91.5085 90.8085C94.3277 90.8085 97.1468 90.8085 99.9659 90.8085C100.071 90.8085 100.176 90.8021 100.282 90.8148C100.678 90.859 100.825 91.0758 100.732 91.4717C100.709 91.5727 100.692 91.6906 100.631 91.7685C100.336 92.1412 100.176 92.5812 99.9659 92.9981C99.6754 93.5686 99.3533 94.1224 99.0375 94.6803C98.789 95.1182 98.5301 95.5477 98.2774 95.9835C98.0353 96.4025 97.7911 96.8215 97.5574 97.2468C97.4163 97.5015 97.2163 97.6615 96.951 97.7942C96.3952 98.0721 95.8667 98.4048 95.3256 98.7121C94.9803 98.9079 94.6351 99.108 94.2813 99.289C93.8497 99.5101 93.3992 99.6975 92.9718 99.9291C92.5149 100.178 92.0791 100.462 91.6285 100.723C91.5085 100.792 91.3801 100.86 91.2475 100.889C90.9401 100.957 90.7358 100.809 90.6853 100.498C90.6664 100.378 90.6727 100.253 90.6727 100.131C90.6727 97.3121 90.6727 94.4929 90.6727 91.6738C90.6727 91.3896 90.6516 91.1032 90.9906 90.8085Z" fill="#890C58"/>
<path d="M80.9189 168.864C80.5315 168.146 80.1546 167.424 79.7588 166.71C79.3377 165.953 78.8998 165.205 78.4745 164.451C78.2787 164.104 78.085 163.755 77.8997 163.401C77.8365 163.279 77.7944 163.14 77.765 163.005C77.6492 162.481 77.8344 162.239 78.3734 162.237C79.8788 162.23 81.3841 162.234 82.8895 162.234C84.1317 162.234 85.376 162.232 86.6182 162.234C87.4309 162.237 87.7109 162.495 87.713 163.289C87.7193 165.984 87.7193 168.681 87.7088 171.376C87.7067 171.641 87.6098 171.907 87.5551 172.193C86.9782 172.123 86.5108 172.029 86.0729 171.711C85.6434 171.399 85.1276 171.208 84.6517 170.959C84.3149 170.784 83.978 170.61 83.6475 170.424C83.2243 170.187 82.8095 169.932 82.3884 169.69C81.921 169.424 81.4515 169.163 80.9189 168.864Z" fill="#890C58"/>
<path d="M77.9373 86.8716C78.0741 86.6127 78.2026 86.3474 78.3478 86.0926C78.6131 85.6294 78.891 85.1726 79.1584 84.7094C79.3858 84.3199 79.6048 83.9262 79.8279 83.5346C79.9395 83.3388 80.0532 83.1451 80.1627 82.9493C80.3985 82.524 80.6638 82.1113 80.8596 81.6671C81.0891 81.1428 81.4323 80.7786 81.9523 80.5323C82.4049 80.3196 82.8176 80.0185 83.2597 79.7785C83.7461 79.5153 84.2451 79.2753 84.7377 79.0227C84.8914 78.9427 85.0367 78.8437 85.1904 78.7658C85.7904 78.4584 86.3884 78.151 86.9947 77.8584C87.1274 77.7931 87.2916 77.791 87.4327 77.7615C87.679 78.01 87.7169 78.2858 87.719 78.5658C87.7211 81.3344 87.7232 84.103 87.7169 86.8695C87.7148 87.3538 87.58 87.5222 87.1084 87.659C86.8937 87.7201 86.6621 87.7496 86.4389 87.7496C83.8282 87.7559 81.2175 87.7538 78.6068 87.7517C77.9036 87.7538 77.7899 87.6169 77.9373 86.8716Z" fill="#890C58"/>
<path d="M162.596 77.6837C163.242 78.0185 163.836 78.3111 164.415 78.6311C164.855 78.8732 165.27 79.1596 165.71 79.4038C166.165 79.6565 166.645 79.8628 167.095 80.1196C167.668 80.446 168.238 80.7807 168.777 81.1597C168.977 81.2987 169.102 81.5597 169.232 81.7829C169.521 82.2735 169.79 82.7746 170.068 83.2714C170.281 83.6504 170.495 84.0273 170.706 84.4084C171.022 84.9831 171.335 85.56 171.641 86.139C171.809 86.4611 171.963 86.7917 172.169 87.2127C172.117 87.3201 172.022 87.5138 171.921 87.718C168.817 87.718 165.758 87.718 162.693 87.718C162.337 87.518 162.204 87.2064 162.206 86.8043C162.213 84.0715 162.209 81.3408 162.211 78.608C162.206 78.2522 162.257 77.9132 162.596 77.6837Z" fill="#890C58"/>
<path d="M84.3907 182.185C83.3885 181.684 82.6095 181.046 81.8305 180.402C80.8936 179.625 79.883 178.935 78.984 178.12C77.4071 176.69 75.868 175.214 74.3542 173.715C73.5394 172.907 72.8089 172.012 72.0425 171.153C71.6719 170.738 71.2951 170.328 70.9393 169.898C70.4719 169.334 70.0171 168.759 69.5644 168.184C69.0802 167.57 68.5959 166.955 68.1328 166.323C67.9601 166.087 67.8548 165.805 67.6906 165.494C67.798 165.462 67.9264 165.38 68.0001 165.414C68.4107 165.597 68.8823 165.637 69.2318 165.972C69.3602 166.094 69.5834 166.111 69.7497 166.201C70.1876 166.445 70.615 166.706 71.0487 166.955C71.4719 167.197 71.8951 167.433 72.3204 167.671C72.851 167.967 73.3836 168.26 73.9142 168.555C73.99 168.597 74.0721 168.631 74.1479 168.671C74.7416 168.993 75.3353 169.317 75.9312 169.635C76.3754 169.873 76.8302 170.09 77.266 170.34C77.7755 170.635 78.3608 170.822 78.7419 171.302C78.9566 171.572 79.1293 171.877 79.2977 172.178C79.5588 172.648 79.7967 173.13 80.0472 173.606C80.1104 173.728 80.1778 173.85 80.2515 173.964C80.3083 174.052 80.3988 174.119 80.4431 174.212C80.6789 174.69 80.8978 175.178 81.1378 175.654C81.3336 176.042 81.5505 176.419 81.7589 176.8C82.0684 177.362 82.3737 177.928 82.6916 178.486C82.9569 178.951 83.2622 179.398 83.5106 179.874C83.8391 180.505 84.1317 181.156 84.4244 181.804C84.4686 181.893 84.4096 182.025 84.3907 182.185Z" fill="#890C58"/>
<path d="M165.539 68.0239C165.943 67.9565 166.204 68.2302 166.469 68.4239C167.299 69.0302 168.11 69.6598 168.914 70.2977C169.375 70.664 169.811 71.062 170.255 71.4494C171.23 72.2978 172.217 73.1337 173.169 74.0074C173.794 74.5801 174.367 75.2096 174.961 75.816C175.495 76.3634 176.038 76.9024 176.559 77.4645C177.045 77.9887 177.512 78.534 177.978 79.0772C178.55 79.7468 179.114 80.4247 179.679 81.1047C179.98 81.4669 180.275 81.8353 180.559 82.2101C181.011 82.8059 181.451 83.4102 181.936 84.0607C181.967 84.2334 182.049 84.4713 181.786 84.6776C180.879 84.2018 179.976 83.7323 179.074 83.2544C178.447 82.9217 177.822 82.5912 177.203 82.2438C176.449 81.8185 175.71 81.3658 174.954 80.9426C174.499 80.6879 174.022 80.4794 173.565 80.2289C173.049 79.9468 172.546 79.6394 172.038 79.3446C171.994 79.3194 171.95 79.2836 171.899 79.2709C171.196 79.0941 170.88 78.5404 170.592 77.9508C170.417 77.5929 170.221 77.2434 170.028 76.896C169.758 76.4118 169.476 75.9339 169.211 75.4496C168.969 75.0075 168.745 74.5569 168.505 74.1148C168.248 73.6432 167.981 73.1758 167.716 72.7063C167.501 72.3294 167.278 71.9568 167.069 71.5757C166.57 70.6661 166.076 69.7524 165.581 68.8387C165.442 68.5818 165.417 68.3144 165.539 68.0239Z" fill="#890C58"/>
<path d="M162.618 172.328C162.494 172.172 162.359 172.058 162.298 171.913C162.231 171.757 162.21 171.574 162.21 171.401C162.206 168.667 162.208 165.932 162.203 163.197C162.203 162.795 162.332 162.479 162.751 162.234C162.862 162.234 163.037 162.234 163.21 162.234C165.823 162.234 168.435 162.232 171.046 162.239C171.299 162.239 171.553 162.289 171.81 162.317C171.945 162.853 171.888 163.279 171.568 163.66C171.501 163.74 171.427 163.818 171.379 163.91C170.968 164.694 170.585 165.492 170.153 166.262C169.749 166.986 169.294 167.681 168.869 168.393C168.77 168.557 168.734 168.772 168.606 168.9C168.402 169.107 168.157 169.281 167.909 169.433C167.406 169.74 166.89 170.022 166.376 170.315C166.016 170.519 165.658 170.734 165.29 170.926C164.827 171.166 164.351 171.378 163.888 171.62C163.475 171.831 163.073 172.071 162.618 172.328Z" fill="#890C58"/>
<path d="M175.423 110.37C175.73 109.772 175.997 109.227 176.286 108.694C176.532 108.239 176.802 107.795 177.061 107.349C177.105 107.273 177.168 107.21 177.208 107.134C177.539 106.528 177.869 105.921 178.193 105.313C178.608 104.53 179.017 103.744 179.423 102.959C179.581 102.654 179.886 102.348 180.212 102.201C180.282 102.254 180.389 102.3 180.436 102.382C180.676 102.805 180.89 103.243 181.13 103.666C181.385 104.117 181.661 104.557 181.918 105.005C182.107 105.336 182.29 105.669 182.467 106.005C182.703 106.452 182.926 106.902 183.162 107.349C183.339 107.686 183.526 108.018 183.705 108.357C183.941 108.801 184.183 109.241 184.396 109.694C184.497 109.909 184.587 110.153 184.59 110.383C184.609 111.802 184.602 113.221 184.598 114.64C184.596 115.275 184.143 115.534 183.568 115.212C182.825 114.798 182.101 114.349 181.362 113.928C180.924 113.677 180.471 113.459 180.031 113.214C179.606 112.979 179.191 112.722 178.766 112.486C178.284 112.218 177.793 111.964 177.307 111.701C177.185 111.635 177.067 111.559 176.947 111.49C176.768 111.389 176.597 111.263 176.408 111.195C175.968 111.042 175.728 110.667 175.423 110.37Z" fill="#890C58"/>
<path d="M69.9923 147.739C69.4407 147.772 69.1859 147.509 69.0091 147.065C68.8301 146.619 68.588 146.195 68.3543 145.772C68.0869 145.288 67.7943 144.816 67.5184 144.336C67.2174 143.81 66.9184 143.282 66.6321 142.745C66.3878 142.286 66.1626 141.816 65.931 141.351C65.8931 141.273 65.8699 141.178 65.811 141.121C65.4025 140.715 65.3351 140.193 65.3288 139.664C65.3141 138.245 65.3246 136.824 65.3225 135.405C65.3225 135.155 65.3394 134.913 65.5688 134.727C65.8678 134.593 66.1394 134.734 66.3963 134.879C66.8616 135.142 67.3142 135.43 67.7774 135.7C68.6175 136.188 69.4554 136.681 70.3039 137.153C70.7587 137.405 71.2366 137.612 71.6977 137.852C72.0809 138.054 72.4535 138.277 72.8304 138.49C73.0872 138.635 73.3441 138.78 73.6031 138.921C73.9357 139.102 74.1968 139.344 74.3505 139.726C72.8935 142.406 71.4387 145.082 69.9923 147.739Z" fill="#890C58"/>
<path d="M181.253 146.406C180.947 146.919 180.642 147.431 180.333 147.951C179.83 147.842 179.596 147.526 179.404 147.168C179.095 146.589 178.794 146.006 178.484 145.429C178.272 145.031 178.048 144.637 177.829 144.241C177.528 143.694 177.219 143.151 176.928 142.597C176.695 142.155 176.484 141.698 176.255 141.254C176.175 141.1 176.076 140.957 175.975 140.814C175.543 140.205 175.726 139.628 176.402 139.346C176.848 139.159 177.271 138.91 177.699 138.679C178.248 138.382 178.796 138.081 179.339 137.774C179.792 137.517 180.234 137.241 180.684 136.982C180.998 136.801 181.314 136.626 181.634 136.458C182.11 136.209 182.592 135.973 183.068 135.727C183.284 135.616 183.495 135.496 183.695 135.308C183.851 135.308 184.007 135.3 184.16 135.31C184.428 135.329 184.575 135.483 184.594 135.748C184.605 135.887 184.6 136.028 184.6 136.169C184.6 137.308 184.56 138.449 184.615 139.586C184.651 140.344 184.289 140.93 183.977 141.549C183.706 142.09 183.396 142.614 183.097 143.142C182.84 143.595 182.571 144.041 182.31 144.492C182.076 144.898 181.846 145.309 181.615 145.717C181.486 145.943 181.358 146.168 181.23 146.391C181.24 146.397 181.246 146.402 181.253 146.406Z" fill="#890C58"/>
<path d="M69.3282 102.199C69.5577 102.199 69.7641 102.199 69.9893 102.199C70.0504 102.277 70.1241 102.351 70.1746 102.437C70.4967 103.012 70.8168 103.589 71.1284 104.17C71.3663 104.614 71.5789 105.071 71.8147 105.515C72.0905 106.031 72.3895 106.538 72.6674 107.052C72.9074 107.492 73.1306 107.94 73.3664 108.383C73.6191 108.856 73.8759 109.326 74.1328 109.802C73.9454 110.271 73.6885 110.6 73.1769 110.768C72.7095 110.922 72.2905 111.229 71.8526 111.473C71.4273 111.711 71.0105 111.962 70.5852 112.2C70.0293 112.513 69.4714 112.825 68.9093 113.126C68.4524 113.37 67.9808 113.587 67.5218 113.829C67.0944 114.055 66.6754 114.297 66.2543 114.535C66.1049 114.619 65.9617 114.711 65.8333 114.789C65.4564 114.678 65.3259 114.448 65.3259 114.109C65.3301 112.692 65.3132 111.273 65.3364 109.856C65.3448 109.408 65.4375 108.976 65.7491 108.587C66.0375 108.227 66.208 107.774 66.4417 107.366C66.7239 106.871 67.0186 106.385 67.3049 105.892C67.505 105.549 67.7071 105.206 67.8924 104.856C68.1261 104.412 68.3345 103.951 68.5745 103.509C68.8124 103.071 69.0735 102.643 69.3282 102.199Z" fill="#890C58"/>
<path d="M147.663 69.5124C147.667 70.0114 147.503 70.3482 147.008 70.4767C146.846 70.5188 146.705 70.6388 146.558 70.7251C146.438 70.7946 146.324 70.8746 146.204 70.9399C145.686 71.222 145.166 71.502 144.648 71.782C144.219 72.0157 143.793 72.2515 143.364 72.4831C142.785 72.7989 142.208 73.119 141.623 73.4242C141.088 73.7043 140.543 73.9695 140.004 74.239C139.587 73.9506 139.277 73.6916 139.121 73.2369C138.976 72.8158 138.717 72.4326 138.5 72.0347C138.168 71.4262 137.837 70.8178 137.494 70.2156C137.254 69.7924 136.984 69.3861 136.749 68.9629C136.498 68.5081 136.277 68.0386 136.031 67.5817C135.759 67.0764 135.475 66.5796 135.163 66.0195C135.174 65.8764 135.189 65.6721 135.208 65.4216C135.41 65.3942 135.576 65.35 135.742 65.35C137.039 65.3437 138.336 65.3395 139.633 65.35C140.174 65.3542 140.629 65.6385 141.09 65.8764C141.522 66.0995 141.93 66.3648 142.351 66.6048C142.922 66.9291 143.49 67.2533 144.069 67.5628C144.509 67.7986 144.968 68.0028 145.412 68.2323C145.829 68.4471 146.24 68.6744 146.648 68.9039C146.994 69.1018 147.328 69.3124 147.663 69.5124Z" fill="#890C58"/>
<path d="M114.613 183.948C114.476 184.575 114.413 184.634 113.853 184.636C112.731 184.64 111.609 184.668 110.489 184.626C109.83 184.602 109.188 184.485 108.621 184.047C108.232 183.746 107.739 183.583 107.293 183.352C106.893 183.145 106.493 182.935 106.097 182.718C105.518 182.402 104.941 182.082 104.368 181.756C103.916 181.497 103.478 181.215 103.021 180.962C102.751 180.813 102.461 180.701 102.168 180.566C102.168 180.337 102.168 180.149 102.168 179.941C102.25 179.867 102.328 179.764 102.431 179.709C102.893 179.467 103.366 179.25 103.823 179C104.28 178.749 104.718 178.467 105.166 178.206C105.482 178.023 105.8 177.844 106.124 177.676C106.588 177.436 107.059 177.215 107.518 176.968C107.96 176.732 108.388 176.469 108.826 176.225C109.023 176.116 109.221 175.968 109.436 175.937C110.076 175.84 110.337 175.894 110.537 176.499C110.693 176.966 111.007 177.379 111.253 177.815C111.485 178.223 111.723 178.627 111.95 179.036C112.272 179.611 112.596 180.183 112.904 180.766C113.148 181.227 113.358 181.705 113.605 182.164C113.841 182.604 114.108 183.03 114.356 183.463C114.453 183.632 114.538 183.804 114.613 183.948Z" fill="#890C58"/>
<path d="M114.393 65.3732C114.761 65.8027 114.652 66.1774 114.441 66.5438C114.176 67.0091 113.888 67.4617 113.622 67.927C113.304 68.485 112.991 69.045 112.688 69.6093C112.441 70.0682 112.224 70.5419 111.976 70.9988C111.727 71.4557 111.454 71.8978 111.195 72.3484C111.125 72.4684 111.033 72.5863 111.001 72.7168C110.875 73.2474 110.492 73.5716 110.106 73.9253C107.561 72.5421 105.053 71.1273 102.499 69.6787C102.784 69.2387 103.072 68.9418 103.478 68.7418C103.992 68.4892 104.485 68.1944 104.988 67.9249C105.46 67.6723 105.938 67.4281 106.409 67.1733C106.851 66.9354 107.291 66.6912 107.729 66.4469C108.167 66.2006 108.586 65.9122 109.045 65.7122C109.605 65.4679 110.188 65.3121 110.826 65.3395C111.822 65.3816 112.822 65.35 113.82 65.3521C114.008 65.35 114.199 65.3648 114.393 65.3732Z" fill="#890C58"/>
<path d="M139.475 176.084C139.858 176.233 140.162 176.32 140.433 176.465C140.936 176.737 141.416 177.046 141.911 177.33C142.225 177.511 142.545 177.68 142.865 177.85C143.309 178.086 143.758 178.316 144.2 178.556C144.505 178.72 144.806 178.892 145.105 179.067C145.789 179.467 146.472 179.869 147.105 180.242C147.211 180.564 147.063 180.726 146.886 180.844C146.408 181.16 145.924 181.469 145.427 181.754C144.842 182.088 144.242 182.396 143.646 182.707C143.185 182.95 142.718 183.175 142.256 183.419C141.842 183.638 141.404 183.828 141.033 184.11C140.557 184.472 140.012 184.598 139.463 184.617C138.22 184.663 136.976 184.638 135.734 184.63C135.307 184.628 135.199 184.514 135.081 184.051C136.515 181.408 137.93 178.756 139.475 176.084Z" fill="#890C58"/>
<path d="M122.246 58.5665C123.145 58.0823 123.979 57.4254 125.143 57.1685C125.863 57.5707 126.667 58.0128 127.461 58.4718C127.608 58.556 127.743 58.6928 127.831 58.836C128.059 59.2045 128.265 59.5876 128.467 59.9708C128.789 60.5793 129.101 61.192 129.472 61.9078C129.482 62.1099 129.314 62.2657 129.002 62.2889C128.88 62.2973 128.758 62.2973 128.636 62.2973C126.185 62.2973 123.734 62.2952 121.286 62.3015C120.955 62.3015 120.65 62.2826 120.458 61.8425C120.983 60.7646 121.568 59.655 122.246 58.5665Z" fill="#890C58"/>
<path d="M129.369 188.156C128.866 189.108 128.379 190.047 127.87 190.975C127.765 191.169 127.6 191.354 127.417 191.478C127.059 191.723 126.672 191.923 126.297 192.142C126.162 192.219 126.019 192.289 125.895 192.382C125.242 192.866 124.476 192.851 123.802 192.377C123.421 192.11 123 191.895 122.592 191.668C122.112 191.4 121.842 190.965 121.606 190.491C121.375 190.03 121.156 189.554 120.865 189.131C120.627 188.786 120.505 188.426 120.446 188.051C120.613 187.718 120.89 187.695 121.177 187.695C121.912 187.693 122.648 187.695 123.383 187.695C125.082 187.695 126.781 187.695 128.48 187.695C128.861 187.695 129.222 187.731 129.369 188.156Z" fill="#890C58"/>
<path d="M56.8867 124.752C57.0299 124.259 57.1078 123.771 57.4783 123.404C57.5268 123.356 57.5878 123.297 57.5984 123.236C57.7226 122.413 58.5037 122.28 59.0342 121.905C59.4532 121.611 59.9543 121.432 60.4112 121.19C60.8238 120.971 61.226 120.733 61.6828 120.476C61.826 120.514 62.0071 120.56 62.1713 120.602C62.2997 121.053 62.3187 128.017 62.1902 128.594C61.986 128.641 61.7565 128.693 61.6218 128.723C60.8744 128.327 60.2048 127.994 59.5585 127.626C59.0342 127.327 58.5332 126.992 58.03 126.655C57.9057 126.571 57.7984 126.44 57.7247 126.308C57.4341 125.794 57.1625 125.27 56.8867 124.752Z" fill="#890C58"/>
<path d="M187.891 121.217C187.981 121.231 188.076 121.223 188.148 121.261C188.712 121.562 189.272 121.872 189.83 122.183C190.192 122.385 190.529 122.646 190.91 122.792C191.672 123.082 192.11 123.653 192.443 124.35C192.51 124.491 192.577 124.636 192.664 124.766C192.952 125.204 192.956 125.202 192.887 125.64C192.674 126.063 192.563 126.383 192.371 126.642C192.049 127.076 191.857 127.613 191.238 127.809C190.786 127.952 190.396 128.287 189.969 128.523C189.499 128.781 189.021 129.024 188.548 129.274C188.364 129.371 188.183 129.472 187.935 129.607C187.859 129.516 187.72 129.419 187.682 129.291C187.613 129.061 187.571 128.813 187.569 128.571C187.56 126.398 187.564 124.223 187.564 122.05C187.564 121.754 187.543 121.446 187.891 121.217Z" fill="#890C58"/>
<path d="M95.512 69.6641C94.0046 70.4704 92.5518 71.3252 91.097 72.0516C90.7496 71.8853 90.6696 71.6726 90.6717 71.4073C90.6759 70.0767 90.6738 68.744 90.6759 67.4134C90.6759 67.146 90.7117 66.887 90.9981 66.7397C91.3412 66.9102 91.6886 67.0618 92.0192 67.2471C92.4592 67.4934 92.8782 67.7755 93.3161 68.024C93.7688 68.2787 94.2299 68.525 94.6994 68.7482C95.0657 68.923 95.3352 69.1672 95.512 69.6641Z" fill="#890C58"/>
<path d="M158.623 178.008C158.785 178.111 158.943 178.212 159.103 178.313C159.12 178.478 159.146 178.615 159.146 178.751C159.148 179.958 159.156 181.164 159.141 182.371C159.139 182.617 159.049 182.863 158.994 183.147C158.769 183.137 158.594 183.177 158.474 183.114C157.834 182.766 157.213 182.387 156.579 182.03C156.158 181.792 155.739 181.549 155.303 181.343C154.768 181.093 154.661 181.015 154.328 180.381C154.956 179.882 155.712 179.573 156.394 179.154C157.084 178.732 157.834 178.408 158.623 178.008Z" fill="#890C58"/>
<path d="M183.713 102.018C183.318 101.31 182.996 100.738 182.676 100.163C182.463 99.7839 182.223 99.4176 182.05 99.0218C181.899 98.6744 181.937 98.3144 182.143 97.967C182.452 97.4469 182.682 96.8764 183.025 96.3816C183.431 95.7963 183.545 94.9836 184.383 94.6783C184.526 94.7099 184.581 94.8678 184.589 95.051C184.598 95.2426 184.598 95.4363 184.598 95.63C184.598 97.628 184.598 99.626 184.6 101.624C184.6 101.94 184.581 102.247 184.364 102.561C184.105 102.342 183.869 102.146 183.713 102.018Z" fill="#890C58"/>
<path d="M183.659 148.238C183.868 148.061 184.093 147.871 184.331 147.671C184.624 147.863 184.603 148.149 184.603 148.423C184.605 150.349 184.605 152.276 184.605 154.202C184.605 154.465 184.626 154.731 184.594 154.99C184.573 155.16 184.472 155.32 184.386 155.535C183.95 155.238 183.64 154.966 183.457 154.541C183.259 154.08 183.002 153.642 182.758 153.2C182.533 152.792 182.278 152.398 182.065 151.981C181.916 151.688 181.91 151.362 182.072 151.071C182.306 150.648 182.579 150.246 182.815 149.825C183.099 149.322 183.358 148.81 183.659 148.238Z" fill="#890C58"/>
<path d="M147.526 65.4807C147.97 65.3039 154.81 65.2954 155.284 65.4681C155.221 65.6597 155.158 65.8534 155.084 66.0787C154.055 66.6324 153.006 67.1966 151.958 67.7588C151.438 67.9777 150.955 67.9398 150.459 67.5777C150.019 67.2556 149.482 67.064 148.991 66.8092C148.608 66.6092 148.223 66.4134 147.856 66.1881C147.623 66.0408 147.528 65.7923 147.526 65.4807Z" fill="#890C58"/>
<path d="M102.146 184.598C99.6641 184.598 97.1713 184.598 94.6806 184.598C94.4996 184.139 94.5648 183.952 94.967 183.76C95.5586 183.478 96.1334 183.166 96.6934 182.821C97.0134 182.625 97.3608 182.463 97.6913 182.278C98.203 181.989 98.7609 182.038 99.283 182.368C99.7083 182.638 100.146 182.884 100.588 183.124C101.031 183.362 101.487 183.573 101.93 183.811C102.226 183.971 102.26 184.112 102.146 184.598Z" fill="#890C58"/>
<path d="M65.7395 147.44C65.8869 147.657 65.9838 147.789 66.068 147.928C66.2027 148.152 66.3312 148.379 66.4533 148.608C66.6954 149.067 66.9333 149.529 67.1712 149.987C67.2344 150.11 67.2912 150.24 67.3712 150.352C67.8913 151.08 67.8892 151.769 67.3586 152.466C67.3165 152.52 67.2723 152.577 67.2407 152.638C66.8386 153.424 66.4428 154.211 66.0364 154.992C65.9838 155.095 65.8827 155.173 65.8048 155.262C65.5101 155.217 65.4153 155.011 65.3606 154.788C65.3269 154.655 65.329 154.51 65.329 154.371C65.3269 152.428 65.3248 150.484 65.3311 148.541C65.3311 148.335 65.3543 148.118 65.4174 147.922C65.4616 147.775 65.5901 147.653 65.7395 147.44Z" fill="#890C58"/>
<path d="M65.444 94.6552C65.6545 94.6405 65.783 94.63 65.8924 94.6236C66.1746 95.171 66.4356 95.6805 66.7009 96.1858C66.9114 96.5859 67.1346 96.9796 67.3431 97.3796C67.5241 97.7291 67.6926 98.087 67.8294 98.367C67.6568 99.1755 67.2378 99.7377 66.8904 100.338C66.8125 100.47 66.7409 100.607 66.6714 100.746C66.6104 100.87 66.5851 101.028 66.4946 101.121C66.2798 101.342 66.1598 101.601 66.0672 101.887C66.023 102.024 65.8945 102.134 65.7451 102.336C65.5998 102.129 65.4587 101.997 65.4082 101.837C65.3429 101.624 65.3261 101.39 65.3261 101.165C65.3198 99.344 65.3177 97.5228 65.3282 95.6995C65.3324 95.3753 65.3998 95.0489 65.444 94.6552Z" fill="#890C58"/>
<path d="M182.378 91.2274C181.759 92.5181 181.028 93.7623 180.278 95.0361C179.851 94.7793 179.573 94.495 179.375 94.1097C179.104 93.5729 178.796 93.0528 178.504 92.5244C178.31 92.1749 178.104 91.8317 177.925 91.4759C177.775 91.1769 177.954 90.8653 178.299 90.8253C178.541 90.7958 178.79 90.8106 179.034 90.8106C179.874 90.8085 180.716 90.8127 181.556 90.8106C181.887 90.8064 182.184 90.8716 182.378 91.2274Z" fill="#890C58"/>
<path d="M71.4242 157.767C71.599 158.102 71.7737 158.434 71.9274 158.727C71.7822 159.047 71.599 159.186 71.3232 159.184C70.1484 159.18 68.9757 159.173 67.8008 159.165C67.7672 159.165 67.7335 159.146 67.6472 159.116C67.5882 159.026 67.5061 158.9 67.405 158.744C67.5082 158.531 67.5987 158.327 67.7061 158.131C67.9861 157.613 68.2746 157.097 68.5546 156.579C68.7693 156.184 68.9462 155.763 69.2051 155.398C69.3294 155.226 69.6052 155.163 69.7778 155.068C70.1357 155.291 71.199 157.314 71.4242 157.767Z" fill="#890C58"/>
<path d="M155.045 69.6009C155.18 69.4978 155.294 69.3883 155.426 69.3167C156.159 68.923 156.896 68.5419 157.629 68.1461C157.843 68.0303 158.027 67.8555 158.248 67.7587C158.749 67.5376 159.134 67.7776 159.142 68.3251C159.157 69.3567 159.157 70.3905 159.142 71.4221C159.134 71.9316 158.705 72.1274 158.258 71.8706C157.702 71.5505 157.136 71.2495 156.57 70.9463C156.203 70.7505 155.835 70.5568 155.462 70.3736C155.165 70.2304 155.123 69.9546 155.045 69.6009Z" fill="#890C58"/>
<path d="M91.1172 182.415C90.7445 182.284 90.6729 182.059 90.6729 181.8C90.6708 180.718 90.6624 179.633 90.6772 178.551C90.6835 178.08 90.9993 177.88 91.4204 178.09C91.9278 178.345 92.4057 178.659 92.9047 178.932C93.3279 179.164 93.7616 179.377 94.1932 179.596C94.33 179.665 94.469 179.73 94.629 179.808C94.629 180.05 94.629 180.271 94.629 180.545C93.4331 181.147 92.2857 181.874 91.1172 182.415Z" fill="#890C58"/>
<path d="M69.9544 94.847C69.4049 94.7502 69.1333 94.4975 68.9775 94.0133C68.8322 93.5585 68.5459 93.1458 68.308 92.7248C68.0764 92.3184 67.8174 91.9268 67.59 91.5184C67.4132 91.2004 67.5879 90.8783 67.9522 90.8173C68.0195 90.8067 68.0911 90.8088 68.1606 90.8088C69.1754 90.8088 70.1881 90.8131 71.2029 90.8046C71.5335 90.8025 71.7819 90.8994 71.9503 91.3141C71.8156 91.5584 71.6514 91.8573 71.4829 92.1521C71.4408 92.2279 71.3756 92.291 71.3377 92.3689C71.1061 92.8321 70.8976 93.3058 70.6471 93.7585C70.4429 94.1354 70.1881 94.4849 69.9544 94.847Z" fill="#890C58"/>
<path d="M182.29 158.7C182.151 159.1 181.93 159.184 181.667 159.186C180.475 159.19 179.286 159.188 178.067 159.188C177.97 159.062 177.877 158.944 177.774 158.809C177.844 158.664 177.898 158.538 177.964 158.42C178.258 157.889 178.557 157.361 178.852 156.83C179.071 156.434 179.256 156.017 179.509 155.647C179.661 155.426 179.918 155.276 180.181 155.051C180.684 155.611 180.96 156.257 181.286 156.87C181.621 157.495 181.97 158.114 182.29 158.7Z" fill="#890C58"/>
<path d="M174.128 165.546C174.177 165.163 174.314 164.866 174.524 164.567C174.819 164.146 175.004 163.649 175.274 163.209C175.48 162.873 175.745 162.569 175.943 162.306C176.897 162.15 179.613 162.214 180.011 162.395C179.91 162.803 179.68 163.079 179.285 163.268C178.754 163.521 178.253 163.837 177.735 164.115C177.522 164.231 177.297 164.323 177.091 164.456C176.813 164.593 176.531 164.721 176.261 164.871C175.823 165.113 175.385 165.357 174.96 165.622C174.579 165.856 174.48 165.864 174.128 165.546Z" fill="#890C58"/>
<path d="M69.8846 87.663C69.8741 87.5935 69.851 87.5388 69.8636 87.4924C69.8994 87.3408 69.9499 87.1914 69.9899 87.0545C70.4299 86.8019 70.8489 86.5576 71.2721 86.3197C71.8132 86.0144 72.3543 85.7113 72.8996 85.4123C73.1859 85.2544 73.4659 85.0775 73.7691 84.9617C74.3628 84.7322 74.8597 84.2859 75.5292 84.168C75.6282 84.2922 75.7103 84.3954 75.7692 84.4712C75.7629 84.5364 75.7671 84.5575 75.7608 84.5722C75.5798 84.9091 75.405 85.2481 75.2176 85.5786C74.9439 86.0608 74.6239 86.5218 74.3923 87.0229C74.1797 87.4819 73.8154 87.7219 73.3754 87.7367C72.2553 87.7746 71.1352 87.7388 70.0131 87.7303C69.9815 87.7282 69.952 87.6988 69.8846 87.663Z" fill="#890C58"/>
<path d="M91.0888 109.079C90.7351 108.9 90.6909 108.606 90.6867 108.338C90.6677 107.271 90.6656 106.203 90.6867 105.136C90.693 104.746 90.872 104.466 91.2888 104.313C91.7541 104.14 92.2257 103.919 92.611 103.616C93.0279 103.287 93.5311 103.205 93.9711 102.961C94.0469 102.919 94.1838 102.986 94.3796 103.018C93.8216 104.094 93.3142 105.106 92.7731 106.102C92.2299 107.1 91.6552 108.081 91.0888 109.079Z" fill="#890C58"/>
<path d="M155.746 146.93C155.647 146.663 155.645 146.41 155.775 146.166C156.108 145.543 156.434 144.913 156.782 144.299C157.205 143.549 157.651 142.81 158.081 142.063C158.15 141.943 158.188 141.806 158.241 141.677C158.424 141.241 158.536 141.18 159.1 141.258C159.115 141.395 159.144 141.547 159.146 141.696C159.15 142.639 159.155 143.583 159.146 144.528C159.142 145.2 158.877 145.524 158.264 145.798C157.794 146.008 157.363 146.303 156.904 146.543C156.596 146.703 156.274 146.833 155.954 146.966C155.902 146.985 155.824 146.945 155.746 146.93Z" fill="#890C58"/>
<path d="M87.7152 176.246C87.7152 177.248 87.7152 178.21 87.7152 179.174C87.7152 179.349 87.7362 179.53 87.7046 179.699C87.6731 179.871 87.5867 180.035 87.5067 180.244C87.0772 180.002 86.8098 179.722 86.614 179.364C86.3045 178.802 85.9908 178.244 85.6813 177.682C85.4813 177.315 85.2792 176.951 85.0897 176.578C84.8434 176.1 84.6118 175.618 84.3676 175.14C84.3276 175.065 84.2349 175.01 84.2139 174.932C84.1802 174.81 84.1865 174.677 84.176 174.553C84.5486 174.376 84.8223 174.452 85.1171 174.623C85.6413 174.928 86.1951 175.183 86.713 175.496C87.0498 175.7 87.3509 175.97 87.7152 176.246Z" fill="#890C58"/>
<path d="M141.018 91.2593C141.203 90.8761 141.437 90.8172 141.687 90.8151C142.721 90.8109 143.755 90.8172 144.789 90.813C145.153 90.8109 145.357 91.0088 145.521 91.3098C145.812 91.8425 146.138 92.3562 146.427 92.8889C146.591 93.19 146.713 93.5163 146.959 93.8195C146.924 94.0279 146.89 94.2343 146.839 94.5374C145.782 93.9584 144.806 93.4384 143.841 92.8931C142.9 92.3626 141.925 91.8846 141.018 91.2593Z" fill="#890C58"/>
<path d="M102.761 155.615C103.31 155.657 103.712 155.845 104.104 156.057C104.315 156.171 104.525 156.282 104.736 156.398C105.131 156.615 105.527 156.83 105.919 157.051C106.475 157.365 107.026 157.687 107.582 158C107.913 158.186 108.252 158.356 108.576 158.548C108.673 158.605 108.738 158.716 108.814 158.798C108.685 159.078 108.481 159.182 108.214 159.182C107.165 159.184 106.117 159.194 105.068 159.184C104.595 159.177 104.323 158.872 104.119 158.474C103.843 157.937 103.529 157.421 103.266 156.88C103.081 156.497 102.948 156.089 102.761 155.615Z" fill="#890C58"/>
<path d="M108.839 91.2444C108.778 91.3181 108.74 91.4108 108.67 91.4444C108.176 91.695 107.675 91.9287 107.18 92.1792C106.858 92.3434 106.546 92.5287 106.228 92.7035C105.832 92.9224 105.434 93.1351 105.041 93.3561C104.62 93.5941 104.209 93.8488 103.784 94.0783C103.546 94.2067 103.287 94.2509 103.034 94.0425C102.937 93.6783 103.114 93.3814 103.291 93.0782C103.58 92.5856 103.879 92.0971 104.123 91.5813C104.382 91.0297 104.641 90.8107 105.239 90.8086C106.184 90.8044 107.127 90.8128 108.073 90.8065C108.39 90.8065 108.664 90.8633 108.839 91.2444Z" fill="#890C58"/>
<path d="M146.74 155.651C146.879 155.952 146.864 156.169 146.734 156.409C146.306 157.186 145.896 157.971 145.479 158.754C145.336 159.024 145.131 159.184 144.811 159.181C143.725 159.179 142.639 159.186 141.552 159.177C141.281 159.175 141.045 159.074 140.899 158.803C140.954 158.739 140.988 158.668 141.045 158.638C141.521 158.39 142.001 158.15 142.481 157.908C142.559 157.868 142.636 157.832 142.712 157.79C143.27 157.476 143.828 157.158 144.386 156.844C144.87 156.573 145.35 156.293 145.843 156.036C146.117 155.893 146.411 155.79 146.74 155.651Z" fill="#890C58"/>
<path d="M95.9141 65.4597C96.3499 65.306 101.936 65.3039 102.401 65.4597C102.213 65.9039 101.99 66.2597 101.468 66.4176C101.047 66.5439 100.674 66.8324 100.281 67.0471C100.053 67.1714 99.8239 67.2956 99.5944 67.4177C99.0154 67.7209 98.5143 67.4872 98.0216 67.1882C97.83 67.0724 97.6342 66.9629 97.4384 66.8555C97.0279 66.6324 96.6068 66.4303 96.2068 66.1902C95.9436 66.0281 95.8825 65.7523 95.9141 65.4597Z" fill="#890C58"/>
<path d="M75.494 165.519C75.3193 165.603 75.1846 165.666 75.1109 165.702C74.4266 165.355 73.8034 165.05 73.1949 164.723C72.7844 164.502 72.3928 164.245 71.9886 164.016C71.5654 163.774 71.159 163.487 70.7064 163.325C70.2242 163.15 69.9779 162.826 69.7779 162.363C69.8874 162.317 69.9779 162.247 70.0684 162.245C71.2222 162.237 72.3781 162.241 73.4876 162.241C73.9739 162.515 74.2729 162.849 74.4624 163.344C74.6582 163.856 75.0098 164.306 75.2667 164.797C75.374 165.007 75.4119 165.254 75.494 165.519Z" fill="#890C58"/>
<path d="M162.68 69.8683C162.79 70.0177 162.891 70.1335 162.969 70.2641C163.127 70.5315 163.28 70.8031 163.423 71.0768C163.663 71.5357 163.893 72.0031 164.133 72.4621C164.293 72.7695 164.463 73.0706 164.632 73.3738C164.887 73.8264 165.135 74.2812 165.402 74.7254C165.626 75.096 165.624 75.2707 165.312 75.616C165.211 75.595 165.08 75.5992 164.981 75.5444C164.556 75.3107 164.141 75.0623 163.722 74.8181C163.348 74.6012 162.971 74.3886 162.598 74.1696C162.314 74.0033 162.204 73.7401 162.206 73.4201C162.209 72.4937 162.204 71.5673 162.209 70.6431C162.209 70.3293 162.295 70.0599 162.68 69.8683Z" fill="#890C58"/>
<path d="M147.675 184.556C147.545 184.076 147.6 183.958 147.955 183.766C148.551 183.446 149.132 183.101 149.732 182.791C150.071 182.617 150.438 182.497 150.829 182.337C151.81 182.871 152.815 183.419 153.821 183.966C153.865 184.175 153.905 184.358 153.943 184.541C153.52 184.665 148.2 184.678 147.675 184.556Z" fill="#890C58"/>
<path d="M179.765 87.72C179.578 87.7327 179.405 87.7516 179.235 87.7516C178.464 87.7558 177.694 87.76 176.923 87.7474C176.681 87.7432 176.435 87.7074 176.201 87.6442C176.058 87.6063 175.891 87.52 175.814 87.4042C175.576 87.0442 175.374 86.6589 175.163 86.282C174.925 85.8589 174.702 85.4251 174.447 85.0104C174.306 84.7809 174.222 84.5767 174.445 84.3282C174.515 84.3219 174.616 84.2756 174.679 84.3093C175.125 84.5388 175.563 84.783 176.003 85.023C176.064 85.0567 176.119 85.1009 176.18 85.1325C176.803 85.4736 177.424 85.8189 178.052 86.1515C178.511 86.3957 178.978 86.6273 179.447 86.8526C179.837 87.0505 179.9 87.179 179.765 87.72Z" fill="#890C58"/>
<path d="M155.708 103.654C155.977 103.302 156.104 103.241 156.459 103.437C157.232 103.864 157.988 104.327 158.746 104.782C158.99 104.927 159.116 105.178 159.121 105.443C159.137 106.559 159.127 107.675 159.127 108.85C158.908 108.818 158.729 108.791 158.495 108.755C157.569 107.058 156.636 105.351 155.708 103.654Z" fill="#890C58"/>
<path d="M90.705 144.97C90.6944 144.789 90.6776 144.617 90.6755 144.444C90.6734 143.568 90.6671 142.692 90.6776 141.816C90.6818 141.488 90.6986 141.149 91.0481 140.928C91.1176 140.993 91.2018 141.04 91.2397 141.109C91.4861 141.568 91.7177 142.033 91.964 142.492C92.1851 142.905 92.4188 143.313 92.644 143.724C92.9325 144.254 93.2146 144.789 93.5009 145.322C93.5578 145.429 93.6188 145.535 93.6925 145.629C93.9368 145.947 93.9494 145.975 93.9831 146.507C93.8104 146.705 93.6125 146.705 93.383 146.581C92.8209 146.276 92.2461 145.996 91.6945 145.674C91.3513 145.476 91.0439 145.217 90.705 144.97Z" fill="#890C58"/>
<path d="M84.85 75.4266C84.5974 75.1908 84.6374 74.936 84.77 74.6981C85.1469 74.0328 85.5532 73.3843 85.928 72.719C86.1827 72.2643 86.3701 71.7716 86.6438 71.3316C86.8501 71.001 87.1512 70.7294 87.4228 70.4136C87.7513 70.9252 87.8481 72.4264 87.6649 73.757C86.8965 74.5592 85.8417 74.9318 84.85 75.4266Z" fill="#890C58"/>
<path d="M164.823 174.612C164.886 174.646 164.975 174.696 165.074 174.749C165.057 174.972 165.042 175.18 165.03 175.387C165.013 175.38 164.998 175.374 164.981 175.368C164.661 175.976 164.352 176.591 164.019 177.193C163.777 177.633 163.505 178.056 163.251 178.49C163.171 178.625 163.097 178.764 163.038 178.909C162.945 179.128 162.825 179.309 162.566 179.36C162.274 179.273 162.217 179.031 162.215 178.781C162.204 178.027 162.196 177.273 162.215 176.521C162.232 175.907 162.754 175.713 163.185 175.471C163.697 175.182 164.227 174.921 164.823 174.612Z" fill="#890C58"/>
<path d="M122.233 162.361C122.388 162.302 122.466 162.245 122.544 162.245C123.94 162.241 125.336 162.239 126.732 162.245C126.846 162.245 126.959 162.31 127.109 162.354C126.945 162.799 126.751 163.163 126.269 163.277C126.17 163.3 126.046 163.321 125.982 163.39C125.595 163.801 125.054 163.839 124.538 164.026C123.976 163.742 123.382 163.487 122.843 163.146C122.601 162.995 122.466 162.672 122.233 162.361Z" fill="#890C58"/>
<path d="M127.265 87.7136C125.821 87.7136 124.398 87.7136 122.991 87.7136C122.806 87.2378 122.882 87.0315 123.271 86.8336C123.869 86.5304 124.467 86.223 125.086 85.9051C125.686 86.2104 126.299 86.5262 126.916 86.8357C127.36 87.0589 127.415 87.1747 127.265 87.7136Z" fill="#890C58"/>
<path d="M87.4495 122.699C87.6706 122.945 87.7127 123.215 87.7127 123.497C87.7148 124.493 87.7232 125.489 87.7064 126.485C87.7021 126.733 87.6179 126.981 87.5611 127.272C87.2053 127.15 87.0095 126.925 86.8768 126.71C86.5294 126.143 86.0494 125.63 86.0389 124.905C86.0368 124.802 86.041 124.695 86.0641 124.594C86.1694 124.148 86.9989 123 87.4495 122.699Z" fill="#890C58"/>
<path d="M162.807 122.908C163.093 123.474 163.418 124.011 163.635 124.588C163.805 125.042 163.679 125.525 163.449 125.958C163.287 126.266 163.121 126.569 162.944 126.866C162.877 126.979 162.773 127.074 162.685 127.179C162.338 127.07 162.209 126.851 162.209 126.537C162.209 125.537 162.201 124.539 162.213 123.539C162.22 123.084 162.317 122.99 162.807 122.908Z" fill="#890C58"/>
</svg>
