<svg width="250" height="250" viewBox="0 0 250 250" fill="none" xmlns="http://www.w3.org/2000/svg">
<rect width="250" height="250" fill="white"/>
<path d="M177.265 75.6554C173.372 76.4915 170.182 78.6274 167.157 81.0476C162.614 84.6826 158.73 88.9655 155.217 93.5691C148.813 101.962 142.323 110.288 135.817 118.601C133.945 120.992 131.423 122.612 128.652 123.824C126.135 124.926 123.499 125.387 120.743 125.373C115.623 125.348 110.503 125.424 105.382 125.448C94.9786 125.496 84.5749 125.515 74.1712 125.588C68.2936 125.63 62.4159 125.669 56.5375 125.67C56.3403 125.67 56.1432 125.67 55.8203 125.67C56.0288 125.46 56.1695 125.316 56.3125 125.174C70.6958 110.814 85.0866 96.462 99.4579 82.09C102.535 79.0127 106.145 76.9491 110.409 76.0445C111.501 75.8127 112.605 75.6569 113.724 75.6562C134.731 75.6539 155.74 75.6547 176.747 75.6547C176.919 75.6554 177.092 75.6554 177.265 75.6554Z" fill="#17CDDB"/>
<path d="M194.994 103.755C194.828 101.146 194.531 98.5542 194.022 95.9887C193.22 91.9458 191.972 88.064 189.789 84.5329C187.566 80.9348 184.633 78.1375 180.646 76.536C180.01 76.2808 179.427 76.2688 178.77 76.4712C176.053 77.3074 173.677 78.7636 171.42 80.4343C166.75 83.8924 162.848 88.1265 159.265 92.6562C156.096 96.6615 153.023 100.741 149.908 104.789C149.554 105.248 149.202 105.708 148.805 106.225C164.269 106.225 179.631 106.225 194.994 106.225V103.755Z" fill="#17CDDB"/>
<g opacity="0.05">
<path d="M145.014 75.6532C142.47 76.0084 140.055 76.7324 137.774 77.9057C135.743 78.9503 133.926 80.274 132.309 81.8898C117.858 96.3296 103.399 110.762 88.9488 125.202C88.6997 125.451 88.4506 125.552 88.1006 125.553C83.2329 125.56 78.366 125.576 73.4983 125.596C67.8382 125.619 62.178 125.647 56.5171 125.673C56.3192 125.673 56.1212 125.673 55.7969 125.673C56.0031 125.464 56.1431 125.321 56.2838 125.18C70.6761 110.809 85.0752 96.4455 99.4555 82.0622C102.397 79.1211 105.84 77.1125 109.889 76.1477C111.15 75.8474 112.429 75.6547 113.729 75.6547C124.005 75.6517 134.281 75.6532 144.558 75.6532C144.71 75.6532 144.862 75.6532 145.014 75.6532Z" fill="url(#paint0_linear_83_3182)"/>
</g>
<g opacity="0.05">
<path d="M177.396 75.6689C175.263 76.0708 173.304 76.9092 171.445 78.0102C168.423 79.7999 165.752 82.0343 163.24 84.4681C159.146 88.2355 155.866 92.4492 152.674 96.7901C148.952 101.615 145.255 106.388 141.575 111.182C139.917 113.332 138.209 115.444 136.587 117.62C134.491 120.433 131.784 122.44 128.605 123.841C126.092 124.949 123.456 125.403 120.702 125.39C115.568 125.365 110.434 125.448 105.3 125.463C99.7871 125.478 94.2744 125.466 88.7422 125.466C88.7648 125.31 88.9657 125.205 89.1049 125.065C103.461 110.718 117.826 96.3784 132.174 82.023C134.979 79.2174 138.265 77.278 142.1 76.2718C143.036 76.0264 143.984 75.8262 144.955 75.7713C145.04 75.7668 145.138 75.7826 145.172 75.6689C155.913 75.6689 166.655 75.6689 177.396 75.6689Z" fill="url(#paint1_linear_83_3182)"/>
</g>
<path d="M73.6016 174.343C77.0378 173.619 79.93 171.814 82.6754 169.742C86.8997 166.552 90.5625 162.775 93.8332 158.644C98.956 152.171 103.964 145.609 109.022 139.085C111.039 136.485 112.993 133.831 115.1 131.304C117.27 128.701 120.078 126.929 123.249 125.751C125.459 124.931 127.75 124.619 130.114 124.628C135.217 124.646 140.319 124.575 145.421 124.552C155.843 124.503 166.265 124.483 176.687 124.41C182.565 124.369 188.443 124.33 194.321 124.328C194.516 124.328 194.711 124.328 195.002 124.328C194.806 124.537 194.67 124.689 194.526 124.833C180.156 139.18 165.778 153.518 151.421 167.878C148.33 170.969 144.711 173.049 140.428 173.956C139.336 174.187 138.232 174.342 137.112 174.342C116.104 174.343 95.0952 174.343 74.087 174.343C73.9252 174.343 73.7634 174.343 73.6016 174.343Z" fill="#00D8BC"/>
<path d="M55.0008 139.766C55.2024 144.97 55.7345 150.132 57.032 155.196C58.1097 159.398 59.6479 163.403 62.2142 166.951C64.3583 169.915 67.0262 172.23 70.4979 173.538C70.9171 173.696 71.3084 173.735 71.7539 173.611C72.8113 173.318 73.8228 172.919 74.8004 172.43C78.4963 170.586 81.6391 167.995 84.5771 165.142C88.632 161.206 92.0811 156.759 95.4843 152.263C99.7921 146.572 104.225 140.974 108.603 135.336C109.257 134.494 109.91 133.65 110.61 132.746C110.384 132.746 110.26 132.746 110.135 132.746C91.9073 132.748 73.6798 132.749 55.4523 132.751C55.3266 132.751 55.1994 132.748 55.0745 132.76C55.0361 132.764 55.0151 132.78 55 132.8V139.766H55.0008Z" fill="#00D8BC"/>
<g opacity="0.1">
<path d="M73.6016 174.343C74.2473 174.205 75.1745 173.971 76.2469 173.563C77.7791 172.98 78.9562 172.293 79.9473 171.644C83.4468 169.351 86.2216 166.861 87.7034 165.438C88.1008 165.057 89.5058 163.698 91.2353 161.77C92.5267 160.332 94.0574 158.378 97.0663 154.529C99.1923 151.81 100.255 150.451 100.683 149.876C100.964 149.5 102.075 148.014 103.315 146.471C103.469 146.279 103.501 146.242 103.639 146.069C104.499 144.996 104.962 144.354 105.659 143.433C105.737 143.33 106.162 142.781 107.006 141.689C108.867 139.283 108.763 139.421 109.351 138.659C110.291 137.44 110.807 136.756 112.644 134.375C113.827 132.841 112.496 134.493 114.174 132.432C115.636 130.636 116.231 130.067 116.509 129.807C117.171 129.191 119.236 127.36 122.482 126.05C124.574 125.205 126.288 124.927 126.777 124.854C127.881 124.689 128.779 124.664 130.529 124.621C132.679 124.568 134.284 124.623 134.408 124.622C138.249 124.608 142.09 124.559 145.931 124.547C148.403 124.541 147.724 124.559 151.895 124.539C153.844 124.53 155.159 124.515 158.375 124.498C160.153 124.489 161.595 124.485 162.506 124.483C162.472 124.571 162.423 124.664 162.351 124.751C162.249 124.873 162.14 124.934 162.126 124.945C159.845 126.631 142.125 144.488 142.125 144.488C136.167 150.493 121.5 164.856 118.872 167.726C118.871 167.727 118.865 167.733 118.858 167.741C117.86 168.747 116.165 170.303 114.028 171.544C113.08 172.094 112.195 172.496 112.046 172.563C110.937 173.063 109.938 173.402 109.131 173.634C109.131 173.634 107.568 174.094 106.315 174.269C106.314 174.269 106.311 174.27 106.306 174.27C106.286 174.273 106.242 174.281 106.188 174.296C106.132 174.311 106.088 174.328 106.06 174.341C95.2397 174.343 84.4207 174.343 73.6016 174.343Z" fill="url(#paint2_linear_83_3182)"/>
</g>
<g opacity="0.1">
<path d="M105.781 174.346C108.326 173.991 110.741 173.267 113.022 172.093C115.052 171.049 116.87 169.725 118.487 168.109C132.938 153.669 147.397 139.237 161.847 124.797C162.096 124.548 162.345 124.447 162.695 124.446C167.563 124.439 172.43 124.423 177.297 124.403C182.958 124.38 188.618 124.352 194.279 124.326C194.477 124.326 194.675 124.326 194.999 124.326C194.793 124.535 194.653 124.678 194.512 124.818C180.12 139.19 165.72 153.553 151.34 167.937C148.399 170.878 144.955 172.886 140.907 173.851C139.646 174.152 138.366 174.344 137.067 174.344C126.79 174.347 116.515 174.346 106.238 174.346C106.085 174.346 105.933 174.346 105.781 174.346Z" fill="url(#paint3_linear_83_3182)"/>
</g>
<defs>
<linearGradient id="paint0_linear_83_3182" x1="-85.911" y1="100.663" x2="-86.1366" y2="100.663" gradientUnits="userSpaceOnUse">
<stop stop-color="#3DDEED" stop-opacity="0"/>
<stop offset="1" stop-color="#01545A"/>
</linearGradient>
<linearGradient id="paint1_linear_83_3182" x1="88.7423" y1="100.57" x2="177.396" y2="100.57" gradientUnits="userSpaceOnUse">
<stop stop-color="#01545A"/>
<stop offset="1" stop-color="#3DDEED" stop-opacity="0"/>
</linearGradient>
<linearGradient id="paint2_linear_83_3182" x1="162.505" y1="149.414" x2="73.6015" y2="149.414" gradientUnits="userSpaceOnUse">
<stop stop-color="#01545A"/>
<stop offset="1" stop-color="#3DDEED" stop-opacity="0"/>
</linearGradient>
<linearGradient id="paint3_linear_83_3182" x1="105.781" y1="149.336" x2="194.999" y2="149.336" gradientUnits="userSpaceOnUse">
<stop stop-color="#01545A"/>
<stop offset="1" stop-color="#3DDEED" stop-opacity="0"/>
</linearGradient>
</defs>
</svg>
