<svg width="250" height="250" viewBox="0 0 250 250" fill="none" xmlns="http://www.w3.org/2000/svg">
<mask id="path-1-inside-1_769_617" fill="white">
<path d="M0 48C0 21.4903 21.4903 0 48 0H202C228.51 0 250 21.4903 250 48V202C250 228.51 228.51 250 202 250H48C21.4903 250 0 228.51 0 202V48Z"/>
</mask>
<path d="M0 48C0 21.4903 21.4903 0 48 0H202C228.51 0 250 21.4903 250 48V202C250 228.51 228.51 250 202 250H48C21.4903 250 0 228.51 0 202V48Z" fill="white"/>
<path d="M48 0V2H202V0V-2H48V0ZM250 48H248V202H250H252V48H250ZM202 250V248H48V250V252H202V250ZM0 202H2V48H0H-2V202H0ZM48 250V248C22.5949 248 2 227.405 2 202H0H-2C-2 229.614 20.3858 252 48 252V250ZM250 202H248C248 227.405 227.405 248 202 248V250V252C229.614 252 252 229.614 252 202H250ZM202 0V2C227.405 2 248 22.5949 248 48H250H252C252 20.3858 229.614 -2 202 -2V0ZM48 0V-2C20.3858 -2 -2 20.3858 -2 48H0H2C2 22.5949 22.5949 2 48 2V0Z" fill="#DDDBDB" mask="url(#path-1-inside-1_769_617)"/>
<path d="M177.266 75.6561C173.373 76.4923 170.183 78.6281 167.158 81.0484C162.615 84.6833 158.731 88.9663 155.218 93.5698C148.814 101.963 142.324 110.289 135.818 118.602C133.946 120.993 131.424 122.613 128.653 123.825C126.136 124.927 123.5 125.387 120.744 125.374C115.624 125.349 110.504 125.425 105.383 125.448C94.9795 125.497 84.5759 125.516 74.1722 125.589C68.2946 125.63 62.4169 125.67 56.5385 125.671C56.3413 125.671 56.1441 125.671 55.8213 125.671C56.0298 125.46 56.1705 125.317 56.3135 125.174C70.6968 110.815 85.0876 96.4627 99.4589 82.0907C102.536 79.0134 106.146 76.9498 110.41 76.0452C111.502 75.8134 112.606 75.6577 113.725 75.6569C134.732 75.6546 155.741 75.6554 176.748 75.6554C176.92 75.6561 177.093 75.6561 177.266 75.6561Z" fill="#17CDDB"/>
<path d="M194.999 103.755C194.834 101.146 194.537 98.5545 194.028 95.9889C193.226 91.946 191.978 88.0642 189.795 84.5331C187.571 80.935 184.639 78.1377 180.651 76.5362C180.016 76.2811 179.433 76.269 178.776 76.4715C176.059 77.3076 173.683 78.7639 171.426 80.4346C166.756 83.8927 162.854 88.1267 159.271 92.6565C156.102 96.6617 153.029 100.741 149.914 104.789C149.56 105.248 149.208 105.708 148.811 106.225C164.275 106.225 179.637 106.225 194.999 106.225V103.755Z" fill="#17CDDB"/>
<g opacity="0.05">
<path d="M145.018 75.6537C142.474 76.0089 140.059 76.7329 137.778 77.9062C135.747 78.9507 133.93 80.2745 132.313 81.8903C117.862 96.3301 103.403 110.762 88.9527 125.202C88.7036 125.451 88.4545 125.553 88.1045 125.554C83.2368 125.56 78.3699 125.577 73.5022 125.596C67.8421 125.619 62.1819 125.648 56.521 125.673C56.3231 125.674 56.1251 125.673 55.8008 125.673C56.007 125.465 56.147 125.322 56.2877 125.181C70.68 110.81 85.0792 96.446 99.4595 82.0627C102.401 79.1216 105.844 77.1129 109.892 76.1481C111.154 75.8479 112.433 75.6552 113.733 75.6552C124.009 75.6522 134.285 75.6537 144.562 75.6537C144.714 75.6537 144.866 75.6537 145.018 75.6537Z" fill="url(#paint0_linear_769_617)"/>
</g>
<g opacity="0.05">
<path d="M177.4 75.6699C175.267 76.0718 173.307 76.9102 171.449 78.0112C168.427 79.8008 165.756 82.0352 163.244 84.4691C159.15 88.2365 155.869 92.4502 152.678 96.7911C148.956 101.616 145.259 106.389 141.579 111.183C139.921 113.333 138.212 115.445 136.591 117.621C134.495 120.434 131.788 122.441 128.609 123.842C126.096 124.95 123.46 125.404 120.706 125.391C115.572 125.366 110.438 125.449 105.304 125.464C99.791 125.479 94.2783 125.467 88.7461 125.467C88.7687 125.311 88.9696 125.205 89.1088 125.066C103.465 110.719 117.83 96.3794 132.178 82.024C134.983 79.2183 138.269 77.2789 142.104 76.2727C143.039 76.0274 143.988 75.8272 144.959 75.7723C145.044 75.7678 145.141 75.7836 145.176 75.6699C155.917 75.6699 166.658 75.6699 177.4 75.6699Z" fill="url(#paint1_linear_769_617)"/>
</g>
<path d="M73.5996 174.343C77.0359 173.619 79.9281 171.814 82.6735 169.742C86.8977 166.552 90.5605 162.775 93.8312 158.644C98.954 152.171 103.962 145.609 109.021 139.085C111.037 136.485 112.991 133.831 115.098 131.304C117.268 128.701 120.076 126.929 123.247 125.751C125.457 124.931 127.748 124.619 130.112 124.628C135.215 124.646 140.317 124.575 145.419 124.552C155.841 124.503 166.263 124.483 176.685 124.41C182.563 124.369 188.441 124.33 194.319 124.328C194.514 124.328 194.709 124.328 195 124.328C194.804 124.537 194.668 124.689 194.524 124.833C180.154 139.18 165.776 153.518 151.419 167.878C148.328 170.969 144.709 173.049 140.426 173.956C139.334 174.187 138.23 174.342 137.11 174.342C116.102 174.343 95.0933 174.343 74.085 174.343C73.9232 174.343 73.7614 174.343 73.5996 174.343Z" fill="#00D8BC"/>
<path d="M55.0008 139.766C55.2024 144.97 55.7345 150.132 57.032 155.196C58.1097 159.398 59.6479 163.403 62.2142 166.951C64.3583 169.915 67.0262 172.23 70.4979 173.538C70.9171 173.696 71.3084 173.735 71.7539 173.611C72.8113 173.318 73.8228 172.919 74.8004 172.43C78.4963 170.586 81.6391 167.995 84.5771 165.142C88.632 161.206 92.0811 156.759 95.4843 152.263C99.7921 146.572 104.225 140.974 108.603 135.336C109.257 134.494 109.91 133.65 110.61 132.746C110.384 132.746 110.26 132.746 110.135 132.746C91.9073 132.748 73.6798 132.749 55.4523 132.751C55.3266 132.751 55.1994 132.748 55.0745 132.76C55.0361 132.764 55.0151 132.78 55 132.8V139.766H55.0008Z" fill="#00D8BC"/>
<g opacity="0.1">
<path d="M73.5996 174.342C74.2453 174.205 75.1725 173.971 76.2449 173.563C77.7772 172.98 78.9542 172.293 79.9454 171.644C83.4449 169.35 86.2196 166.861 87.7015 165.438C88.0988 165.056 89.5039 163.698 91.2333 161.77C92.5247 160.332 94.0555 158.378 97.0643 154.529C99.1903 151.81 100.253 150.451 100.681 149.876C100.962 149.5 102.073 148.014 103.313 146.471C103.467 146.279 103.499 146.242 103.637 146.069C104.497 144.995 104.96 144.354 105.657 143.433C105.736 143.329 106.16 142.781 107.004 141.689C108.866 139.283 108.761 139.421 109.349 138.659C110.289 137.44 110.805 136.756 112.642 134.375C113.825 132.841 112.494 134.492 114.172 132.432C115.634 130.636 116.229 130.067 116.507 129.807C117.169 129.191 119.234 127.36 122.48 126.049C124.572 125.205 126.286 124.927 126.775 124.854C127.879 124.689 128.777 124.664 130.527 124.621C132.677 124.568 134.282 124.622 134.406 124.622C138.247 124.608 142.088 124.558 145.929 124.547C148.401 124.54 147.722 124.559 151.893 124.539C153.842 124.53 155.157 124.515 158.373 124.498C160.151 124.489 161.594 124.485 162.504 124.482C162.47 124.571 162.421 124.664 162.349 124.75C162.247 124.873 162.138 124.934 162.124 124.945C159.843 126.63 142.123 144.488 142.123 144.488C136.165 150.492 121.498 164.856 118.87 167.726C118.869 167.727 118.864 167.733 118.856 167.741C117.858 168.747 116.163 170.303 114.026 171.544C113.078 172.094 112.193 172.496 112.044 172.563C110.935 173.063 109.936 173.402 109.129 173.634C109.129 173.634 107.566 174.094 106.313 174.269C106.312 174.269 106.309 174.269 106.304 174.27C106.284 174.273 106.241 174.281 106.186 174.296C106.13 174.311 106.086 174.328 106.058 174.341C95.2378 174.342 84.4187 174.342 73.5996 174.342Z" fill="url(#paint2_linear_769_617)"/>
</g>
<g opacity="0.1">
<path d="M105.782 174.346C108.327 173.991 110.742 173.267 113.023 172.094C115.053 171.049 116.871 169.725 118.488 168.109C132.939 153.67 147.398 139.237 161.848 124.798C162.097 124.549 162.346 124.447 162.696 124.446C167.564 124.439 172.431 124.423 177.298 124.403C182.959 124.381 188.619 124.352 194.28 124.327C194.478 124.326 194.675 124.327 195 124.327C194.794 124.535 194.654 124.678 194.513 124.819C180.121 139.19 165.721 153.554 151.341 167.937C148.4 170.878 144.956 172.887 140.908 173.852C139.647 174.152 138.367 174.344 137.068 174.344C126.791 174.347 116.516 174.346 106.239 174.346C106.086 174.346 105.934 174.346 105.782 174.346Z" fill="url(#paint3_linear_769_617)"/>
</g>
<defs>
<linearGradient id="paint0_linear_769_617" x1="-85.9071" y1="100.663" x2="-86.1327" y2="100.663" gradientUnits="userSpaceOnUse">
<stop stop-color="#3DDEED" stop-opacity="0"/>
<stop offset="1" stop-color="#01545A"/>
</linearGradient>
<linearGradient id="paint1_linear_769_617" x1="88.7463" y1="100.571" x2="177.4" y2="100.571" gradientUnits="userSpaceOnUse">
<stop stop-color="#01545A"/>
<stop offset="1" stop-color="#3DDEED" stop-opacity="0"/>
</linearGradient>
<linearGradient id="paint2_linear_769_617" x1="162.503" y1="149.414" x2="73.5995" y2="149.414" gradientUnits="userSpaceOnUse">
<stop stop-color="#01545A"/>
<stop offset="1" stop-color="#3DDEED" stop-opacity="0"/>
</linearGradient>
<linearGradient id="paint3_linear_769_617" x1="105.782" y1="149.336" x2="195" y2="149.336" gradientUnits="userSpaceOnUse">
<stop stop-color="#01545A"/>
<stop offset="1" stop-color="#3DDEED" stop-opacity="0"/>
</linearGradient>
</defs>
</svg>
