<svg width="250" height="250" viewBox="0 0 250 250" fill="none" xmlns="http://www.w3.org/2000/svg">
<mask id="path-1-inside-1_769_619" fill="white">
<path d="M0 48C0 21.4903 21.4903 0 48 0H202C228.51 0 250 21.4903 250 48V202C250 228.51 228.51 250 202 250H48C21.4903 250 0 228.51 0 202V48Z"/>
</mask>
<path d="M0 48C0 21.4903 21.4903 0 48 0H202C228.51 0 250 21.4903 250 48V202C250 228.51 228.51 250 202 250H48C21.4903 250 0 228.51 0 202V48Z" fill="white"/>
<path d="M48 0V2H202V0V-2H48V0ZM250 48H248V202H250H252V48H250ZM202 250V248H48V250V252H202V250ZM0 202H2V48H0H-2V202H0ZM48 250V248C22.5949 248 2 227.405 2 202H0H-2C-2 229.614 20.3858 252 48 252V250ZM250 202H248C248 227.405 227.405 248 202 248V250V252C229.614 252 252 229.614 252 202H250ZM202 0V2C227.405 2 248 22.5949 248 48H250H252C252 20.3858 229.614 -2 202 -2V0ZM48 0V-2C20.3858 -2 -2 20.3858 -2 48H0H2C2 22.5949 22.5949 2 48 2V0Z" fill="#DDDBDB" mask="url(#path-1-inside-1_769_619)"/>
<path d="M125.063 55.0423C133.904 55.0147 142.664 56.7144 150.853 60.0459C151.578 60.3396 154.069 61.3064 154.603 61.6249C164.238 65.702 173.403 73.4976 179.897 81.5521C180.477 82.2707 181.194 83.4352 181.765 84.043C184.363 87.4721 186.966 92.1118 188.721 96.022C194.258 108.187 196.191 121.684 194.289 134.914C192.716 146.428 188.399 156.329 181.836 165.805C176.792 173.115 169.483 179.737 161.962 184.429C159.604 185.901 157.16 187.136 154.67 188.36C152.595 189.22 150.123 190.316 148.032 191.042C141.852 193.19 135.401 194.462 128.868 194.824C127.775 194.884 126.062 194.997 125.024 194.944C123.801 194.784 121.787 194.885 120.46 194.775C118.509 194.614 116.505 194.432 114.571 194.137C100.245 191.951 86.9444 185.392 76.4888 175.358C60.5377 159.843 52.7307 138.012 55.5762 115.877C57.6377 100.86 64.411 86.8841 74.9211 75.9615C86.9743 63.6914 103.121 56.2857 120.284 55.1563C121.797 55.0506 123.535 55.0597 125.063 55.0423ZM102.158 143.151C103.187 142.646 104.648 141.735 105.679 141.129C112.246 137.275 118.818 132.398 124.228 127.03C124.614 126.647 126.086 125.261 126.289 124.942C125.439 123.897 124.182 122.938 123.182 122.034C122.32 121.255 121.493 120.321 120.606 119.564C116.838 116.345 113.011 113.491 108.868 110.771C107.278 109.732 105.588 108.843 103.96 107.867C103.335 107.492 102.662 107.262 102.307 106.645C109.671 99.8321 115.526 91.553 119.496 82.3403C122.177 75.9344 123.913 69.1726 124.649 62.2672C124.87 60.0478 124.944 57.2876 125.063 55.0423C123.535 55.0597 121.797 55.0506 120.284 55.1563C103.121 56.2857 86.9743 63.6914 74.9211 75.9615C64.411 86.8841 57.6377 100.86 55.5762 115.877C52.7307 138.012 60.5377 159.843 76.4888 175.358C86.9444 185.392 100.245 191.951 114.571 194.137C116.505 194.432 118.509 194.614 120.46 194.775C121.787 194.885 123.801 194.784 125.024 194.944C124.757 184.357 123.298 177.622 119.579 167.765C115.643 158.943 110.645 151.307 103.655 144.648C103.15 144.168 102.653 143.645 102.158 143.151Z" fill="#2C407D"/>
<path d="M125.024 194.944C123.801 194.784 121.787 194.885 120.46 194.775C118.509 194.614 116.505 194.432 114.571 194.137C100.245 191.951 86.9444 185.392 76.4888 175.358C60.5377 159.843 52.7307 138.012 55.5762 115.877C57.6377 100.86 64.411 86.8841 74.9211 75.9615C86.9743 63.6914 103.121 56.2857 120.284 55.1563C121.797 55.0506 123.535 55.0597 125.063 55.0423C124.944 57.2876 124.87 60.0478 124.649 62.2672C123.913 69.1726 122.177 75.9344 119.496 82.3403C115.526 91.553 109.671 99.8321 102.307 106.645C102.662 107.262 103.335 107.492 103.96 107.867C105.588 108.843 107.278 109.732 108.868 110.771C113.011 113.491 116.838 116.345 120.606 119.564C121.493 120.321 122.32 121.255 123.182 122.034C124.182 122.938 125.439 123.897 126.289 124.942C126.086 125.261 124.614 126.647 124.228 127.03C118.818 132.398 112.246 137.275 105.679 141.129C104.648 141.735 103.187 142.646 102.158 143.151C102.653 143.645 103.15 144.168 103.655 144.648C110.645 151.307 115.643 158.943 119.579 167.765C123.298 177.622 124.757 184.357 125.024 194.944Z" fill="#FABA2E"/>
<path d="M102.307 106.645C102.662 107.262 103.335 107.492 103.96 107.867C105.588 108.843 107.278 109.732 108.868 110.771C113.011 113.491 116.838 116.345 120.606 119.564C121.493 120.321 122.32 121.255 123.182 122.034C124.182 122.938 125.439 123.897 126.289 124.942C126.086 125.261 124.614 126.647 124.228 127.03C118.818 132.398 112.246 137.275 105.679 141.129C104.648 141.735 103.187 142.646 102.158 143.151C88.4858 131.232 75.2678 126.177 57.2954 124.921C58.7367 124.772 60.2157 124.786 61.6675 124.656C77.1326 123.279 90.7426 116.905 102.307 106.645Z" fill="#282F5C"/>
<path d="M125.063 55.0423C133.904 55.0147 142.664 56.7144 150.853 60.0459C151.578 60.3396 154.069 61.3064 154.603 61.6249C164.238 65.702 173.403 73.4976 179.897 81.5521C180.477 82.2707 181.194 83.4352 181.765 84.043C184.363 87.4721 186.966 92.1118 188.721 96.022C194.258 108.187 196.191 121.684 194.289 134.914C192.716 146.428 188.399 156.329 181.836 165.805C181.257 164.932 180.877 162.607 180.589 161.487C180.049 159.448 179.464 157.42 178.833 155.407C176.159 147.132 172.671 139.142 168.419 131.556C167.441 129.802 165.684 126.711 164.492 125.121L164.451 124.864C164.146 124.619 160.797 119.546 160.244 118.803C156.103 113.242 151.671 107.935 146.739 103.055C146.094 102.418 144.773 101 144.09 100.553L144.14 100.434C143.726 100.005 142.548 99.0974 142.014 98.622C136.273 93.4236 130.077 88.7509 123.501 84.6602C122.537 84.0674 120.469 82.7459 119.496 82.3403C122.177 75.9344 123.913 69.1726 124.649 62.2672C124.87 60.0478 124.944 57.2876 125.063 55.0423Z" fill="#009CDC"/>
<path d="M181.765 84.043C184.363 87.4721 186.966 92.1118 188.721 96.022C194.258 108.187 196.191 121.684 194.289 134.914C192.716 146.428 188.399 156.329 181.836 165.805C181.257 164.932 180.877 162.607 180.589 161.487C180.049 159.448 179.464 157.42 178.833 155.407C176.159 147.132 172.671 139.142 168.419 131.556C167.441 129.802 165.684 126.711 164.492 125.121L164.451 124.864C165.12 124.113 166.764 121.282 167.34 120.289C172.197 111.955 176.118 103.11 179.032 93.9143C179.538 92.2687 180.016 90.6148 180.465 88.9533C180.716 88.0001 181.42 84.6151 181.765 84.043Z" fill="#00B4EF"/>
<path d="M125.063 55.0423C133.904 55.0147 142.664 56.7144 150.853 60.0459C151.578 60.3396 154.069 61.3064 154.603 61.6249C154.61 70.5975 151.304 83.6004 147.998 91.87C147.309 93.5632 146.582 95.2408 145.818 96.9015C145.588 97.3916 144.196 100.143 144.14 100.434C143.726 100.005 142.548 99.0974 142.014 98.622C136.273 93.4236 130.077 88.7509 123.501 84.6602C122.537 84.0674 120.469 82.7459 119.496 82.3403C122.177 75.9344 123.913 69.1726 124.649 62.2672C124.87 60.0478 124.944 57.2876 125.063 55.0423Z" fill="#006DB2"/>
<path d="M164.492 125.121C165.684 126.711 167.441 129.802 168.419 131.556C172.671 139.142 176.159 147.132 178.833 155.407C179.464 157.42 180.049 159.448 180.589 161.487C180.877 162.607 181.257 164.932 181.836 165.805C176.792 173.115 169.483 179.737 161.962 184.429C159.604 185.901 157.16 187.136 154.67 188.36C152.595 189.22 150.123 190.316 148.032 191.042C141.852 193.19 135.401 194.462 128.868 194.824C127.775 194.884 126.062 194.997 125.024 194.944C124.757 184.357 123.298 177.622 119.579 167.765C119.772 167.481 125.602 164.045 126.579 163.377C130.721 160.548 134.602 157.661 138.481 154.471C140.291 152.982 142.178 151.051 143.931 149.589L144 149.532L144.055 149.388C144.895 148.81 146.452 147.136 147.267 146.338C151.928 141.769 155.98 136.813 159.913 131.623C160.629 130.678 164.075 125.365 164.492 125.121Z" fill="#009CDC"/>
<path d="M144 149.532C144.885 150.846 146.347 154.189 146.977 155.664C151.205 165.554 154.29 177.59 154.67 188.36C152.595 189.22 150.123 190.316 148.032 191.042C141.852 193.19 135.401 194.462 128.868 194.824C127.775 194.884 126.062 194.997 125.024 194.944C124.757 184.357 123.298 177.622 119.579 167.765C119.772 167.481 125.602 164.045 126.579 163.377C130.721 160.548 134.602 157.661 138.481 154.471C140.291 152.982 142.178 151.051 143.931 149.589L144 149.532Z" fill="#006DB2"/>
<path d="M144.09 100.553C144.773 101 146.094 102.418 146.739 103.055C151.671 107.935 156.103 113.242 160.244 118.803C160.797 119.546 164.146 124.619 164.451 124.864L164.492 125.121C164.075 125.365 160.629 130.678 159.913 131.623C155.98 136.813 151.928 141.769 147.267 146.338C146.452 147.136 144.895 148.81 144.055 149.388C143.799 149.154 140.576 143.272 139.958 142.309C136.667 137.174 133.155 132.363 129.001 127.881C128.121 126.932 127.171 125.807 126.244 124.936C127.051 124.309 128.54 122.624 129.254 121.827C133.378 117.238 137.09 112.295 140.345 107.053C141.271 105.536 143.18 101.724 144.09 100.553Z" fill="#006DB2"/>
</svg>
