<svg width="250" height="250" viewBox="0 0 250 250" fill="none" xmlns="http://www.w3.org/2000/svg">
<path d="M0 48C0 21.4903 21.4903 0 48 0H202C228.51 0 250 21.4903 250 48V202C250 228.51 228.51 250 202 250H48C21.4903 250 0 228.51 0 202V48Z" fill="#F87E14"/>
<path fill-rule="evenodd" clip-rule="evenodd" d="M195 163.222L164.237 86.543H148.691L179.801 163.456L195 163.222Z" fill="#D1D1D1"/>
<path fill-rule="evenodd" clip-rule="evenodd" d="M117.918 163.222L148.681 86.543H164.227L133.118 163.456L117.918 163.222Z" fill="white"/>
<path fill-rule="evenodd" clip-rule="evenodd" d="M132.853 86.543L101.671 163.456H86.1074L117.235 86.543H132.853Z" fill="#D1D1D1"/>
<path fill-rule="evenodd" clip-rule="evenodd" d="M101.673 163.456L70.5636 86.543H55L86.1456 163.456H101.673Z" fill="white"/>
</svg>
