<svg width="250" height="250" viewBox="0 0 250 250" fill="none" xmlns="http://www.w3.org/2000/svg">
<mask id="path-1-inside-1_453_270" fill="white">
<path d="M0 125C0 55.9644 55.9644 0 125 0C194.036 0 250 55.9644 250 125C250 194.036 194.036 250 125 250C55.9644 250 0 194.036 0 125Z"/>
</mask>
<path d="M0 125C0 55.9644 55.9644 0 125 0C194.036 0 250 55.9644 250 125C250 194.036 194.036 250 125 250C55.9644 250 0 194.036 0 125Z" fill="white"/>
<path d="M0 125M250 125M250 125M0 125M125 0M250 125M125 250M0 125M125 250V248C57.069 248 2 192.931 2 125H0H-2C-2 195.14 54.8598 252 125 252V250ZM250 125H248C248 192.931 192.931 248 125 248V250V252C195.14 252 252 195.14 252 125H250ZM125 0V2C192.931 2 248 57.069 248 125H250H252C252 54.8598 195.14 -2 125 -2V0ZM125 0V-2C54.8598 -2 -2 54.8598 -2 125H0H2C2 57.069 57.069 2 125 2V0Z" fill="#DDDBDB" mask="url(#path-1-inside-1_453_270)"/>
<path d="M149.751 59.533C148.517 58.6468 144.591 55.9716 143.685 55.0544C143.212 55.7692 142.643 56.4655 142.134 57.1585C136.63 64.667 131.156 72.2444 125.671 79.7646L114.961 94.5058C113.154 96.991 111.298 99.7449 109.371 102.119C109.569 102.449 109.745 102.808 109.931 103.147C111.757 106.479 113.441 109.883 115.189 113.255L117.785 118.171C118.949 120.382 120.513 122.777 121.313 125.117C120.813 124.551 118.934 121.818 118.453 121.066C117.209 119.56 115.844 117.513 114.692 115.907L109.877 109.33L83.8437 73.5193C83.1489 72.5499 80.8512 69.5481 80.4482 68.6896C75.7589 72.1492 71.0473 75.5787 66.3138 78.9777C65.3391 79.6656 64.3751 80.3685 63.4218 81.0859C62.9351 81.4496 62.0751 82.131 61.5841 82.4144C62.443 83.4849 63.399 84.9251 64.22 86.0577C65.8989 88.3424 67.5653 90.6363 69.2194 92.9391L90.2564 121.904C91.7999 124.017 94.4576 127.424 95.7086 129.52C98.298 128.974 101.124 128.543 103.737 128.111L113.059 126.537C114.07 126.369 119.542 125.399 120.65 125.376L120.62 125.523C119.351 125.991 117.938 126.339 116.638 126.757L105.16 130.448L65.7432 143.304C62.1602 144.487 58.5674 145.54 55 146.769C56.4005 150.21 57.6326 154.795 58.7901 158.379C59.8682 161.717 61.3393 165.554 62.2235 168.877L111.038 153.003C112.771 152.44 115.931 151.542 117.531 150.857C117.659 149.526 118.007 147.708 118.218 146.329L119.856 135.8C120.191 133.521 120.509 131.238 120.809 128.954C120.933 128.022 121.123 126.218 121.33 125.363C121.539 126.486 121.401 129.685 121.397 131.022L121.385 143.088L121.404 194.945L144.629 194.943L144.627 143.965C144.628 141.642 144.687 139.11 144.635 136.81C143.551 136.319 142.485 135.732 141.412 135.203L131.58 130.289C129.161 129.122 126.753 127.932 124.357 126.718C123.524 126.3 122.237 125.761 121.504 125.299C122.793 125.529 124.675 126.194 125.95 126.61L132.928 128.923L151.913 135.124C160.86 138.06 169.95 140.858 178.874 143.847C180.554 144.426 182.241 144.984 183.934 145.52C185.089 145.88 186.653 146.3 187.733 146.74L192.271 132.834L193.9 127.734C194.17 126.9 194.622 125.406 195 124.641C193.717 124.325 192.107 123.76 190.823 123.344C188.415 122.566 186.011 121.775 183.61 120.972L164.856 114.852L148.442 109.526L142.607 107.685C141.898 107.454 140.303 106.95 139.652 106.634C138.297 108.133 136.888 109.439 135.503 110.88C131.275 115.277 126.912 119.518 122.729 123.959C122.542 124.162 122.242 124.555 121.96 124.511C121.992 124.207 122.263 123.921 122.455 123.664C124.626 120.613 127.013 117.48 129.22 114.435L158.795 73.698C159.621 72.5736 161.674 69.558 162.471 68.7447C158.231 65.8473 153.944 62.5454 149.751 59.533Z" fill="#4F28FE"/>
</svg>
