<svg width="250" height="250" viewBox="0 0 250 250" fill="none" xmlns="http://www.w3.org/2000/svg">
<mask id="path-1-inside-1_453_436" fill="white">
<path d="M0 125C0 55.9644 55.9644 0 125 0C194.036 0 250 55.9644 250 125C250 194.036 194.036 250 125 250C55.9644 250 0 194.036 0 125Z"/>
</mask>
<path d="M0 125C0 55.9644 55.9644 0 125 0C194.036 0 250 55.9644 250 125C250 194.036 194.036 250 125 250C55.9644 250 0 194.036 0 125Z" fill="white"/>
<path d="M0 125M250 125M250 125M0 125M125 0M250 125M125 250M0 125M125 250V248C57.069 248 2 192.931 2 125H0H-2C-2 195.14 54.8598 252 125 252V250ZM250 125H248C248 192.931 192.931 248 125 248V250V252C195.14 252 252 195.14 252 125H250ZM125 0V2C192.931 2 248 57.069 248 125H250H252C252 54.8598 195.14 -2 125 -2V0ZM125 0V-2C54.8598 -2 -2 54.8598 -2 125H0H2C2 57.069 57.069 2 125 2V0Z" fill="#DDDBDB" mask="url(#path-1-inside-1_453_436)"/>
<path d="M177.67 78.4465C166.275 96.4904 146.963 108.301 124.938 108.301C102.914 108.301 83.6889 96.4904 72.2064 78.534L99.4362 57.7781C104.62 67.642 114.134 74.2691 124.96 74.2691C125.419 74.2691 125.923 74.2472 126.382 74.2253C117.152 79.8462 106.413 83.0395 95.1057 83.0395C91.0158 83.0395 87.0133 82.6239 83.0983 81.8584C88.7193 83.5644 94.6027 84.5049 100.705 84.5049C117.349 84.5049 132.528 77.7466 143.813 66.636C143.813 66.636 143.828 66.6214 143.857 66.5922C144.535 65.9579 145.169 65.3018 145.804 64.602C145.366 65.0612 144.907 65.5424 144.447 65.9798C146.809 63.6177 148.865 60.862 150.462 57.7999L177.692 78.4683L177.67 78.4465Z" fill="#14CC52"/>
<path d="M112.13 192.222L80.5477 179.034C86.4967 169.585 87.4809 158.037 82.0787 148.655C81.8381 148.261 81.6194 147.867 81.3351 147.473C90.8053 152.657 98.9415 160.356 104.584 170.154C106.64 173.697 108.237 177.372 109.549 181.133C108.215 175.425 106.094 169.87 103.01 164.577C94.7641 150.273 81.4444 140.54 66.2876 136.275C66.2876 136.275 66.273 136.268 66.2438 136.253C65.544 136.035 64.844 135.86 64.1442 135.685C64.013 135.641 63.8598 135.619 63.7286 135.597C60.9291 134.963 57.9983 134.7 55.002 134.832L59.2887 100.909C80.6133 101.762 100.516 112.567 111.518 131.661C122.475 150.667 121.906 173.304 112.108 192.222H112.13Z" fill="#14CC52"/>
<path d="M175.296 118.361C177.352 114.84 179.714 111.581 182.339 108.563C178.052 112.565 174.312 117.203 171.228 122.517C162.851 137.018 161.145 153.705 165.279 169.191C165.279 169.191 165.323 169.387 165.345 169.453C165.432 169.869 165.563 170.284 165.695 170.722C165.76 170.984 165.826 171.268 165.935 171.509C165.869 171.268 165.804 171.071 165.76 170.831C166.591 173.63 167.86 176.386 169.5 178.945L137.984 192.199C128.076 173.303 127.485 150.665 138.487 131.594C149.466 112.588 169.369 101.783 190.65 100.799L195.002 134.765C183.87 134.328 173.349 139.249 167.969 148.61C167.707 149.025 167.51 149.463 167.291 149.9C167.007 139.095 169.653 128.182 175.296 118.384V118.361Z" fill="#14CC52"/>
</svg>
