<svg width="250" height="250" viewBox="0 0 250 250" fill="none" xmlns="http://www.w3.org/2000/svg">
<path d="M0 125C0 55.9644 55.9644 0 125 0C194.036 0 250 55.9644 250 125C250 194.036 194.036 250 125 250C55.9644 250 0 194.036 0 125Z" fill="white"/>
<mask id="mask0_1_131" style="mask-type:luminance" maskUnits="userSpaceOnUse" x="73" y="74" width="103" height="99">
<path d="M124.467 74.4731C152.489 74.4731 175.181 96.4687 175.181 123.62C175.181 150.772 152.467 172.767 124.467 172.767C96.4674 172.767 73.7539 150.75 73.7539 123.62C73.7539 96.4903 96.4674 74.4731 124.467 74.4731Z" fill="white"/>
</mask>
<g mask="url(#mask0_1_131)">
<path fill-rule="evenodd" clip-rule="evenodd" d="M166.413 58.3735L190.714 163.956L82.5213 188.867L58.2197 83.2843L166.413 58.3735Z" fill="#0090CC"/>
<path fill-rule="evenodd" clip-rule="evenodd" d="M118.462 105.215C118.767 105.149 118.984 104.823 118.897 104.519C118.832 104.214 118.506 104.018 118.201 104.084C117.896 104.149 117.679 104.475 117.766 104.78C117.831 105.084 118.158 105.28 118.462 105.215Z" fill="white"/>
<path fill-rule="evenodd" clip-rule="evenodd" d="M118.419 105.042C118.636 104.998 118.767 104.781 118.723 104.585C118.68 104.389 118.462 104.258 118.267 104.302C118.049 104.345 117.918 104.563 117.984 104.759C118.027 104.955 118.245 105.085 118.441 105.042H118.419ZM118.549 105.607C119.071 105.477 119.398 104.976 119.289 104.454C119.18 103.932 118.658 103.628 118.136 103.736C117.614 103.867 117.288 104.367 117.396 104.89C117.505 105.411 118.027 105.716 118.549 105.607Z" fill="#FCFDFD"/>
<path fill-rule="evenodd" clip-rule="evenodd" d="M118.506 105.41C118.919 105.323 119.18 104.91 119.093 104.496C119.006 104.083 118.571 103.822 118.158 103.931C117.744 104.018 117.483 104.431 117.57 104.844C117.657 105.258 118.071 105.519 118.506 105.41ZM118.636 105.976C119.376 105.802 119.833 105.084 119.659 104.366C119.485 103.648 118.767 103.191 118.027 103.365C117.287 103.539 116.831 104.257 117.005 104.975C117.179 105.693 117.897 106.15 118.636 105.976Z" fill="#FAFCFD"/>
<path fill-rule="evenodd" clip-rule="evenodd" d="M118.593 105.78C119.224 105.628 119.615 105.019 119.463 104.41C119.311 103.801 118.702 103.409 118.071 103.561C117.44 103.714 117.048 104.323 117.201 104.932C117.353 105.541 117.962 105.933 118.593 105.78ZM118.723 106.346C119.659 106.128 120.268 105.193 120.051 104.279C119.833 103.344 118.897 102.778 117.962 102.996C117.027 103.213 116.417 104.149 116.635 105.063C116.853 105.998 117.788 106.564 118.723 106.346Z" fill="#F8FAFC"/>
<path fill-rule="evenodd" clip-rule="evenodd" d="M118.68 106.15C119.528 105.954 120.051 105.128 119.855 104.301C119.659 103.474 118.832 102.973 117.984 103.169C117.135 103.365 116.613 104.192 116.809 105.019C117.005 105.845 117.831 106.346 118.68 106.15ZM118.81 106.716C119.964 106.455 120.681 105.323 120.42 104.192C120.159 103.061 119.006 102.365 117.853 102.625C116.7 102.886 115.982 104.018 116.243 105.149C116.504 106.281 117.657 106.977 118.81 106.716Z" fill="#F6F9FC"/>
<path fill-rule="evenodd" clip-rule="evenodd" d="M118.767 106.521C119.811 106.281 120.464 105.259 120.225 104.214C119.985 103.192 118.941 102.539 117.897 102.778C116.853 103.018 116.2 104.04 116.439 105.085C116.679 106.107 117.723 106.76 118.767 106.521ZM118.897 107.086C120.268 106.782 121.117 105.433 120.812 104.105C120.507 102.778 119.158 101.93 117.788 102.256C116.418 102.561 115.569 103.91 115.873 105.237C116.178 106.564 117.527 107.412 118.897 107.086Z" fill="#F6F9FC"/>
<path fill-rule="evenodd" clip-rule="evenodd" d="M118.832 106.89C120.094 106.608 120.877 105.368 120.594 104.127C120.312 102.888 119.071 102.126 117.809 102.409C116.548 102.692 115.765 103.932 116.047 105.172C116.33 106.412 117.57 107.173 118.832 106.89ZM118.963 107.456C120.529 107.086 121.53 105.542 121.16 103.997C120.812 102.452 119.245 101.495 117.679 101.865C116.113 102.235 115.112 103.779 115.482 105.324C115.83 106.869 117.396 107.826 118.963 107.456Z" fill="#F4F8FB"/>
<path fill-rule="evenodd" clip-rule="evenodd" d="M118.919 107.282C120.377 106.934 121.312 105.498 120.986 104.062C120.66 102.626 119.202 101.734 117.723 102.06C116.265 102.409 115.329 103.845 115.656 105.28C115.982 106.716 117.44 107.608 118.919 107.282ZM119.05 107.848C120.834 107.434 121.943 105.694 121.552 103.932C121.138 102.191 119.376 101.103 117.592 101.517C115.808 101.93 114.699 103.67 115.09 105.433C115.503 107.173 117.266 108.261 119.05 107.848Z" fill="#F3F7FB"/>
<path fill-rule="evenodd" clip-rule="evenodd" d="M119.007 107.653C120.682 107.261 121.726 105.629 121.356 103.976C120.986 102.322 119.311 101.3 117.636 101.691C115.961 102.083 114.916 103.715 115.286 105.368C115.656 107.022 117.331 108.044 119.007 107.653ZM119.137 108.218C121.139 107.761 122.379 105.803 121.922 103.845C121.465 101.887 119.485 100.669 117.505 101.126C115.504 101.582 114.264 103.541 114.721 105.499C115.177 107.457 117.157 108.675 119.137 108.218Z" fill="#F0F6FA"/>
<path fill-rule="evenodd" clip-rule="evenodd" d="M119.094 108.022C120.986 107.587 122.161 105.737 121.726 103.888C121.291 102.039 119.42 100.886 117.549 101.321C115.656 101.756 114.481 103.605 114.916 105.455C115.351 107.304 117.222 108.457 119.094 108.022ZM119.224 108.587C121.421 108.087 122.814 105.911 122.313 103.758C121.813 101.604 119.637 100.255 117.418 100.755C115.221 101.256 113.828 103.431 114.329 105.585C114.829 107.739 117.005 109.088 119.224 108.587Z" fill="#EFF5FA"/>
<path fill-rule="evenodd" clip-rule="evenodd" d="M119.181 108.392C121.269 107.913 122.596 105.847 122.118 103.802C121.639 101.735 119.55 100.473 117.462 100.952C115.373 101.43 114.046 103.497 114.525 105.542C115.003 107.609 117.092 108.871 119.181 108.392ZM119.311 108.958C121.726 108.414 123.227 106.043 122.683 103.671C122.139 101.3 119.746 99.8423 117.331 100.386C114.916 100.93 113.415 103.301 113.959 105.673C114.503 108.044 116.896 109.502 119.311 108.958Z" fill="#EFF5FA"/>
<path fill-rule="evenodd" clip-rule="evenodd" d="M119.268 108.761C121.574 108.239 123.009 105.976 122.509 103.692C121.987 101.429 119.703 100.015 117.397 100.559C115.09 101.081 113.654 103.344 114.155 105.628C114.677 107.891 116.961 109.305 119.268 108.761ZM119.398 109.327C122.009 108.717 123.662 106.15 123.075 103.583C122.488 101.016 119.877 99.406 117.266 100.015C114.655 100.624 113.002 103.191 113.589 105.759C114.177 108.326 116.787 109.936 119.398 109.327Z" fill="#ECF4F9"/>
<path fill-rule="evenodd" clip-rule="evenodd" d="M119.354 109.131C121.878 108.544 123.444 106.085 122.879 103.605C122.313 101.125 119.811 99.6023 117.287 100.19C114.764 100.777 113.197 103.235 113.763 105.716C114.328 108.174 116.831 109.719 119.354 109.131ZM119.485 109.697C122.313 109.044 124.097 106.259 123.444 103.497C122.814 100.712 119.985 98.9931 117.157 99.6458C114.328 100.299 112.545 103.083 113.197 105.846C113.828 108.631 116.657 110.35 119.485 109.697Z" fill="#EAF2F9"/>
<path fill-rule="evenodd" clip-rule="evenodd" d="M119.442 109.502C122.161 108.871 123.88 106.195 123.249 103.519C122.64 100.843 119.92 99.1896 117.201 99.8207C114.481 100.451 112.763 103.128 113.372 105.804C113.981 108.48 116.7 110.133 119.42 109.502H119.442ZM119.572 110.068C122.618 109.372 124.511 106.391 123.836 103.389C123.14 100.408 120.138 98.5588 117.092 99.2551C114.046 99.9513 112.153 102.932 112.828 105.934C113.524 108.915 116.526 110.764 119.572 110.068Z" fill="#E9F1F9"/>
<path fill-rule="evenodd" clip-rule="evenodd" d="M119.528 109.872C122.466 109.198 124.293 106.304 123.641 103.433C122.988 100.561 120.051 98.7547 117.135 99.4293C114.198 100.104 112.371 102.997 113.023 105.869C113.676 108.741 116.613 110.547 119.528 109.872ZM119.659 110.438C122.901 109.698 124.946 106.5 124.206 103.302C123.467 100.104 120.247 98.1239 117.005 98.8852C113.763 99.6249 111.718 102.823 112.458 106.021C113.197 109.219 116.417 111.199 119.659 110.438Z" fill="#E6F0F8"/>
<path fill-rule="evenodd" clip-rule="evenodd" d="M119.616 110.264C122.77 109.545 124.728 106.456 124.032 103.367C123.314 100.277 120.203 98.3628 117.048 99.0805C113.894 99.7987 111.936 102.888 112.632 105.977C113.35 109.067 116.461 110.981 119.616 110.264ZM119.746 110.829C123.205 110.024 125.381 106.63 124.598 103.236C123.815 99.8422 120.377 97.732 116.918 98.5368C113.459 99.3416 111.283 102.736 112.066 106.13C112.85 109.524 116.287 111.634 119.746 110.829Z" fill="#E6F0F8"/>
<path fill-rule="evenodd" clip-rule="evenodd" d="M119.702 110.632C123.053 109.87 125.163 106.563 124.401 103.278C123.64 99.9932 120.311 97.9481 116.961 98.7097C113.611 99.471 111.5 102.778 112.262 106.063C113.023 109.348 116.352 111.393 119.702 110.632ZM119.833 111.198C123.51 110.349 125.794 106.759 124.967 103.148C124.14 99.5365 120.485 97.3173 116.831 98.1656C113.153 99.0143 110.869 102.604 111.696 106.215C112.523 109.805 116.178 112.046 119.833 111.198Z" fill="#E5EFF8"/>
<path fill-rule="evenodd" clip-rule="evenodd" d="M119.789 111.003C123.358 110.177 125.598 106.674 124.794 103.193C123.989 99.6902 120.442 97.5146 116.874 98.3413C113.306 99.1681 111.066 102.671 111.87 106.152C112.676 109.654 116.222 111.83 119.789 111.003ZM119.92 111.569C123.793 110.677 126.229 106.87 125.359 103.062C124.489 99.2551 120.638 96.8838 116.744 97.7757C112.871 98.6679 110.434 102.475 111.305 106.282C112.175 110.09 116.026 112.461 119.92 111.569Z" fill="#E3EEF7"/>
<path fill-rule="evenodd" clip-rule="evenodd" d="M119.876 111.373C123.64 110.502 126.012 106.804 125.163 103.105C124.314 99.4068 120.551 97.1006 116.787 97.9709C113.023 98.8411 110.652 102.54 111.5 106.238C112.349 109.937 116.091 112.243 119.876 111.373ZM120.007 111.938C124.097 111.003 126.664 106.978 125.729 102.975C124.815 98.9717 120.747 96.4698 116.656 97.4052C112.566 98.3409 109.999 102.366 110.935 106.369C111.848 110.372 115.917 112.874 120.007 111.938Z" fill="#E1EDF7"/>
<path fill-rule="evenodd" clip-rule="evenodd" d="M119.963 111.743C123.945 110.829 126.447 106.913 125.555 102.997C124.663 99.081 120.703 96.6662 116.722 97.58C112.74 98.4934 110.238 102.41 111.152 106.326C112.044 110.242 116.004 112.657 119.985 111.743H119.963ZM120.094 112.309C124.38 111.329 127.077 107.109 126.12 102.888C125.141 98.6674 120.877 96.057 116.591 97.0359C112.305 98.0151 109.607 102.236 110.565 106.456C111.544 110.677 115.808 113.288 120.094 112.309Z" fill="#E1EDF7"/>
<path fill-rule="evenodd" clip-rule="evenodd" d="M120.051 112.111C124.25 111.154 126.882 107.021 125.925 102.909C124.967 98.7966 120.812 96.2297 116.613 97.2085C112.414 98.1658 109.782 102.3 110.739 106.411C111.696 110.523 115.852 113.091 120.051 112.111ZM120.181 112.677C124.685 111.633 127.513 107.216 126.49 102.778C125.468 98.3615 120.986 95.5985 116.483 96.6429C111.979 97.6872 109.151 102.104 110.173 106.52C111.196 110.936 115.678 113.7 120.181 112.655V112.677Z" fill="#DFECF6"/>
<path fill-rule="evenodd" clip-rule="evenodd" d="M120.137 112.482C124.532 111.459 127.295 107.151 126.294 102.822C125.293 98.4926 120.92 95.8167 116.526 96.8391C112.131 97.8615 109.368 102.169 110.369 106.499C111.37 110.828 115.743 113.504 120.137 112.482ZM120.268 113.047C124.989 111.959 127.948 107.325 126.882 102.691C125.816 98.0575 121.138 95.1856 116.417 96.2734C111.696 97.3612 108.737 101.995 109.803 106.629C110.869 111.263 115.547 114.135 120.268 113.047Z" fill="#DDEBF6"/>
<path fill-rule="evenodd" clip-rule="evenodd" d="M120.225 112.851C124.837 111.785 127.731 107.26 126.686 102.734C125.642 98.2093 121.073 95.4028 116.461 96.4687C111.849 97.5346 108.955 102.06 109.999 106.585C111.044 111.11 115.612 113.917 120.225 112.851ZM120.355 113.417C125.272 112.285 128.361 107.434 127.252 102.604C126.142 97.7741 121.247 94.7717 116.33 95.9031C111.413 97.0344 108.324 101.886 109.434 106.716C110.543 111.546 115.438 114.548 120.355 113.417Z" fill="#DBE9F5"/>
<path fill-rule="evenodd" clip-rule="evenodd" d="M120.29 113.243C125.12 112.134 128.144 107.391 127.056 102.67C125.968 97.927 121.182 94.9896 116.352 96.0994C111.522 97.2088 108.498 101.952 109.586 106.673C110.674 111.415 115.46 114.353 120.29 113.243ZM120.42 113.809C125.555 112.634 128.775 107.587 127.622 102.539C126.469 97.4918 121.356 94.3589 116.221 95.5553C111.087 96.7301 107.867 101.778 109.02 106.825C110.173 111.872 115.286 115.005 120.42 113.809Z" fill="#DAE8F5"/>
<path fill-rule="evenodd" clip-rule="evenodd" d="M120.377 113.612C125.402 112.459 128.557 107.521 127.426 102.582C126.295 97.6432 121.291 94.5757 116.265 95.729C111.239 96.8819 108.085 101.821 109.216 106.759C110.348 111.698 115.351 114.766 120.377 113.612ZM120.507 114.178C125.86 112.938 129.21 107.695 127.992 102.452C126.773 97.2085 121.465 93.945 116.134 95.1849C110.783 96.4252 107.432 101.668 108.651 106.912C109.869 112.155 115.177 115.418 120.507 114.178Z" fill="#DAE8F5"/>
<path fill-rule="evenodd" clip-rule="evenodd" d="M120.464 113.983C125.707 112.786 128.992 107.63 127.796 102.474C126.621 97.3394 121.399 94.1413 116.156 95.3378C110.913 96.5346 107.628 101.691 108.824 106.825C110.021 111.96 115.221 115.158 120.464 113.961V113.983ZM120.594 114.548C126.142 113.265 129.623 107.804 128.383 102.365C127.121 96.9042 121.617 93.5321 116.047 94.8156C110.5 96.0994 107.018 101.56 108.258 106.999C109.52 112.46 115.025 115.832 120.594 114.548Z" fill="#D7E7F4"/>
<path fill-rule="evenodd" clip-rule="evenodd" d="M120.551 114.353C125.99 113.091 129.427 107.739 128.187 102.387C126.947 97.035 121.53 93.728 116.091 94.968C110.652 96.2298 107.214 101.582 108.455 106.934C109.694 112.286 115.112 115.593 120.551 114.353ZM120.681 114.918C126.447 113.591 130.058 107.935 128.753 102.278C127.448 96.6215 121.726 93.1188 115.96 94.4242C110.195 95.7512 106.583 101.408 107.889 107.064C109.194 112.721 114.916 116.224 120.681 114.918Z" fill="#D5E6F3"/>
<path fill-rule="evenodd" clip-rule="evenodd" d="M120.638 114.723C126.295 113.417 129.841 107.87 128.579 102.3C127.296 96.7522 121.682 93.293 116.026 94.5984C110.369 95.9038 106.823 101.452 108.085 107.021C109.368 112.569 114.982 116.028 120.638 114.723ZM120.769 115.289C126.751 113.918 130.494 108.044 129.145 102.191C127.796 96.317 121.856 92.6838 115.895 94.0543C109.912 95.4252 106.17 101.299 107.519 107.152C108.868 113.026 114.808 116.659 120.769 115.289Z" fill="#D3E5F3"/>
<path fill-rule="evenodd" clip-rule="evenodd" d="M120.725 115.093C126.599 113.744 130.276 107.979 128.949 102.214C127.622 96.4482 121.791 92.8805 115.917 94.229C110.043 95.5779 106.366 101.343 107.693 107.109C109.02 112.874 114.851 116.442 120.725 115.093ZM120.856 115.659C127.035 114.245 130.929 108.153 129.514 102.083C128.122 96.0131 121.965 92.2494 115.787 93.6637C109.608 95.0777 105.735 101.169 107.128 107.239C108.52 113.309 114.677 117.073 120.856 115.659Z" fill="#D1E4F3"/>
<path fill-rule="evenodd" clip-rule="evenodd" d="M120.812 115.462C126.882 114.07 130.711 108.087 129.319 102.126C127.948 96.1647 121.9 92.4663 115.83 93.8589C109.76 95.251 105.931 101.234 107.302 107.195C108.672 113.156 114.72 116.877 120.79 115.462H120.812ZM120.942 116.028C127.339 114.549 131.342 108.283 129.906 101.996C128.47 95.7296 122.117 91.8354 115.721 93.2932C109.325 94.7723 105.322 101.038 106.757 107.326C108.193 113.591 114.546 117.486 120.942 116.028Z" fill="#D1E4F3"/>
<path fill-rule="evenodd" clip-rule="evenodd" d="M120.899 115.833C127.186 114.397 131.124 108.218 129.71 102.039C128.296 95.8602 122.03 92.0312 115.743 93.4889C109.455 94.9464 105.517 101.103 106.931 107.282C108.346 113.461 114.611 117.29 120.899 115.833ZM121.029 116.398C127.622 114.875 131.777 108.392 130.276 101.909C128.775 95.4251 122.226 91.4003 115.612 92.9232C109.02 94.4462 104.865 100.929 106.366 107.413C107.867 113.896 114.416 117.921 121.029 116.398Z" fill="#D0E3F2"/>
<path fill-rule="evenodd" clip-rule="evenodd" d="M120.986 116.224C127.491 114.723 131.56 108.348 130.102 101.974C128.644 95.5991 122.183 91.6394 115.678 93.1408C109.173 94.6418 105.104 101.016 106.562 107.391C108.02 113.765 114.481 117.725 120.986 116.224ZM121.117 116.789C127.926 115.223 132.191 108.522 130.668 101.843C129.123 95.164 122.357 91.0085 115.547 92.575C108.737 94.1416 104.473 100.842 105.996 107.521C107.541 114.201 114.307 118.356 121.117 116.789Z" fill="#CDE1F2"/>
<path fill-rule="evenodd" clip-rule="evenodd" d="M121.073 116.594C127.774 115.05 131.995 108.458 130.472 101.887C128.949 95.295 122.292 91.2267 115.59 92.7714C108.89 94.3161 104.669 100.908 106.192 107.478C107.715 114.07 114.372 118.139 121.073 116.616V116.594ZM121.204 117.16C128.231 115.55 132.626 108.653 131.037 101.757C129.449 94.8598 122.466 90.5958 115.46 92.2058C108.433 93.8159 104.038 100.712 105.626 107.609C107.215 114.506 114.198 118.77 121.204 117.16Z" fill="#CCE1F1"/>
<path fill-rule="evenodd" clip-rule="evenodd" d="M121.16 116.963C128.079 115.375 132.408 108.587 130.863 101.777C129.297 94.9893 122.422 90.7688 115.504 92.357C108.585 93.9453 104.256 100.755 105.8 107.543C107.345 114.33 114.242 118.551 121.16 116.963ZM121.291 117.529C128.513 115.853 133.061 108.761 131.429 101.668C129.797 94.5761 122.618 90.1596 115.373 91.8348C108.15 93.5102 103.603 100.603 105.235 107.695C106.866 114.788 114.046 119.204 121.291 117.529Z" fill="#CCE1F1"/>
<path fill-rule="evenodd" clip-rule="evenodd" d="M121.247 117.334C128.383 115.702 132.843 108.696 131.233 101.691C129.623 94.6854 122.531 90.3559 115.417 91.9876C108.281 93.6195 103.821 100.625 105.431 107.63C107.041 114.636 114.133 118.965 121.247 117.334ZM121.378 117.899C128.819 116.18 133.496 108.87 131.799 101.582C130.124 94.2718 122.727 89.7468 115.286 91.4655C107.845 93.1844 103.168 100.494 104.865 107.783C106.54 115.092 113.937 119.618 121.378 117.899Z" fill="#C9DFF1"/>
<path fill-rule="evenodd" clip-rule="evenodd" d="M121.334 117.703C128.666 116.006 133.278 108.805 131.625 101.604C129.972 94.4024 122.683 89.9424 115.351 91.6176C108.02 93.3146 103.407 100.516 105.061 107.717C106.714 114.918 114.002 119.378 121.334 117.703ZM121.465 118.269C129.123 116.507 133.909 109.001 132.191 101.473C130.472 93.9673 122.857 89.3114 115.221 91.0519C107.562 92.8142 102.776 100.32 104.495 107.848C106.214 115.354 113.828 120.009 121.465 118.247V118.269Z" fill="#C8DEF0"/>
<path fill-rule="evenodd" clip-rule="evenodd" d="M121.421 118.073C128.971 116.332 133.692 108.913 131.995 101.517C130.298 94.1193 122.792 89.5071 115.242 91.2476C107.693 92.9883 102.972 100.407 104.669 107.804C106.366 115.201 113.872 119.813 121.421 118.073ZM121.552 118.639C129.406 116.833 134.344 109.109 132.56 101.386C130.776 93.6626 122.966 88.8762 115.112 90.682C107.258 92.4877 102.319 100.211 104.103 107.935C105.887 115.658 113.698 120.444 121.552 118.639Z" fill="#C6DDF0"/>
<path fill-rule="evenodd" clip-rule="evenodd" d="M121.508 118.442C129.253 116.658 134.127 109.044 132.386 101.429C130.624 93.8144 122.922 89.0933 115.177 90.8773C107.432 92.6613 102.559 100.276 104.299 107.89C106.061 115.505 113.763 120.226 121.508 118.442ZM121.639 119.008C129.71 117.159 134.78 109.218 132.952 101.298C131.124 93.3793 123.118 88.4624 115.047 90.3116C106.975 92.1609 101.906 100.102 103.734 108.021C105.561 115.94 113.567 120.857 121.639 119.008Z" fill="#C3DCEF"/>
<path fill-rule="evenodd" clip-rule="evenodd" d="M121.595 118.813C129.558 116.985 134.562 109.153 132.756 101.343C130.95 93.5321 123.031 88.6804 115.068 90.508C107.106 92.3355 102.102 100.168 103.908 107.978C105.713 115.789 113.633 120.64 121.595 118.813ZM121.726 119.378C129.993 117.464 135.193 109.349 133.322 101.212C131.451 93.075 123.227 88.0495 114.938 89.9423C106.671 91.8569 101.471 99.9717 103.342 108.109C105.213 116.245 113.437 121.271 121.726 119.378Z" fill="#C3DCEF"/>
<path fill-rule="evenodd" clip-rule="evenodd" d="M121.661 119.205C129.841 117.334 134.954 109.285 133.126 101.278C131.277 93.2501 123.162 88.2681 114.981 90.1609C106.801 92.0319 101.689 100.082 103.516 108.088C105.365 116.116 113.48 121.098 121.661 119.205ZM121.791 119.771C130.276 117.813 135.606 109.48 133.692 101.148C131.777 92.8152 123.336 87.6372 114.851 89.5953C106.366 91.5533 101.036 99.8858 102.951 108.218C104.865 116.551 113.306 121.729 121.791 119.771Z" fill="#C2DBEF"/>
<path fill-rule="evenodd" clip-rule="evenodd" d="M121.747 119.574C130.124 117.638 135.389 109.414 133.496 101.168C131.603 92.9445 123.27 87.8319 114.894 89.7681C106.519 91.7044 101.253 99.9282 103.146 108.174C105.039 116.398 113.372 121.51 121.747 119.574ZM121.878 120.14C130.581 118.138 136.041 109.588 134.061 101.06C132.104 92.5094 123.445 87.2227 114.764 89.2242C106.061 91.2258 100.601 99.7761 102.58 108.304C104.538 116.833 113.198 122.141 121.878 120.14Z" fill="#BFD9EE"/>
<path fill-rule="evenodd" clip-rule="evenodd" d="M121.835 119.945C130.428 117.965 135.824 109.524 133.866 101.083C131.93 92.6411 123.379 87.4197 114.786 89.3995C106.192 91.3793 100.797 99.8207 102.754 108.262C104.691 116.704 113.241 121.925 121.835 119.967V119.945ZM121.965 120.511C130.863 118.466 136.455 109.72 134.453 100.974C132.452 92.2278 123.597 86.8105 114.677 88.8556C105.779 90.9006 100.187 99.6467 102.189 108.393C104.212 117.138 113.045 122.556 121.965 120.511Z" fill="#BED9EE"/>
<path fill-rule="evenodd" clip-rule="evenodd" d="M121.922 120.313C130.733 118.29 136.237 109.631 134.258 100.994C132.278 92.3569 123.51 86.9831 114.721 89.0064C105.909 91.0298 100.405 99.6888 102.385 108.326C104.365 116.963 113.132 122.337 121.922 120.313ZM122.053 120.879C131.168 118.79 136.89 109.827 134.823 100.864C132.757 91.9218 123.706 86.3522 114.59 88.4625C105.474 90.5511 99.7525 99.5147 101.819 108.478C103.886 117.42 112.937 122.989 122.053 120.879Z" fill="#BBD7ED"/>
<path fill-rule="evenodd" clip-rule="evenodd" d="M122.008 120.684C131.016 118.617 136.672 109.762 134.649 100.907C132.604 92.0528 123.662 86.5703 114.633 88.6371C105.626 90.704 99.9696 99.5586 101.993 108.413C104.038 117.268 112.98 122.751 122.008 120.684ZM122.139 121.249C131.472 119.096 137.325 109.936 135.214 100.777C133.104 91.6177 123.836 85.9393 114.502 88.0932C105.169 90.2471 99.3169 99.4065 101.427 108.566C103.537 117.725 112.806 123.403 122.139 121.249Z" fill="#BBD7ED"/>
<path fill-rule="evenodd" clip-rule="evenodd" d="M122.096 121.053C131.32 118.921 137.107 109.87 135.019 100.82C132.93 91.7693 123.771 86.1563 114.546 88.2666C105.322 90.3987 99.5345 99.4492 101.623 108.5C103.712 117.55 112.871 123.163 122.096 121.053ZM122.226 121.619C131.755 119.421 137.738 110.066 135.585 100.689C133.43 91.3342 123.945 85.5253 114.416 87.7227C104.887 89.9201 98.9038 99.2971 101.057 108.652C103.211 118.007 112.697 123.816 122.226 121.619Z" fill="#BAD6ED"/>
<path fill-rule="evenodd" clip-rule="evenodd" d="M122.182 121.424C131.603 119.248 137.521 109.98 135.388 100.734C133.256 91.4656 123.879 85.722 114.459 87.8976C105.039 90.0732 99.1209 99.3414 101.231 108.588C103.363 117.856 112.74 123.599 122.161 121.424H122.182ZM122.313 121.99C132.06 119.748 138.173 110.176 135.976 100.603C133.778 91.0305 124.097 85.091 114.35 87.3319C104.604 89.5728 98.4901 99.1454 100.687 108.718C102.885 118.291 112.566 124.23 122.313 121.99Z" fill="#B8D5EC"/>
<path fill-rule="evenodd" clip-rule="evenodd" d="M122.27 121.793C131.907 119.574 137.956 110.11 135.78 100.646C133.604 91.1821 124.01 85.308 114.372 87.5271C104.734 89.7462 98.6861 99.21 100.861 108.674C103.037 118.138 112.632 124.012 122.27 121.793ZM122.4 122.358C132.364 120.074 138.608 110.284 136.346 100.515C134.105 90.747 124.206 84.677 114.242 86.9615C104.277 89.2459 98.0334 99.036 100.296 108.805C102.537 118.573 112.436 124.643 122.4 122.358Z" fill="#B6D4EC"/>
<path fill-rule="evenodd" clip-rule="evenodd" d="M122.357 122.186C132.212 119.923 138.391 110.241 136.172 100.56C133.953 90.8786 124.162 84.8956 114.307 87.1583C104.451 89.4209 98.2727 99.1022 100.492 108.784C102.711 118.443 112.501 124.448 122.357 122.186ZM122.487 122.751C132.647 120.402 139.022 110.415 136.738 100.451C134.431 90.4652 124.337 84.2864 114.176 86.6143C104.016 88.964 97.6419 98.9501 99.9262 108.914C102.232 118.9 112.327 125.079 122.487 122.751Z" fill="#B4D3EB"/>
<path fill-rule="evenodd" clip-rule="evenodd" d="M122.444 122.555C132.495 120.248 138.826 110.349 136.542 100.472C134.279 90.5946 124.272 84.4594 114.22 86.7873C104.169 89.0935 97.8377 98.9925 100.122 108.87C102.385 118.747 112.393 124.882 122.444 122.555ZM122.575 123.12C132.952 120.727 139.457 110.545 137.108 100.363C134.758 90.1812 124.446 83.8502 114.089 86.2434C103.712 88.6366 97.2069 98.8185 99.5566 109C101.906 119.182 112.219 125.513 122.575 123.12Z" fill="#B4D3EB"/>
<path fill-rule="evenodd" clip-rule="evenodd" d="M122.531 122.924C132.8 120.553 139.239 110.48 136.934 100.385C134.605 90.3119 124.402 84.0462 114.133 86.4176C103.864 88.789 97.4244 98.862 99.7306 108.957C102.058 119.03 112.262 125.296 122.531 122.924ZM122.662 123.49C133.235 121.054 139.892 110.654 137.499 100.254C135.106 89.8551 124.598 83.4153 114.002 85.852C103.429 88.2886 96.7717 98.688 99.165 109.066C101.558 119.465 112.066 125.905 122.662 123.468V123.49Z" fill="#B2D2EB"/>
<path fill-rule="evenodd" clip-rule="evenodd" d="M122.618 123.295C133.104 120.881 139.675 110.59 137.303 100.299C134.932 90.0086 124.511 83.634 114.046 86.049C103.56 88.4639 96.989 98.7545 99.3607 109.045C101.732 119.336 112.153 125.71 122.618 123.295ZM122.748 123.861C133.539 121.381 140.305 110.764 137.869 100.169C135.432 89.5734 124.706 83.0031 113.915 85.4833C103.124 87.9635 96.3582 98.5804 98.795 109.176C101.231 119.771 111.957 126.341 122.748 123.861Z" fill="#B0D1EA"/>
<path fill-rule="evenodd" clip-rule="evenodd" d="M122.705 123.665C133.387 121.207 140.11 110.699 137.695 100.212C135.28 89.7258 124.663 83.199 113.959 85.6574C103.277 88.1158 96.5543 98.624 98.9691 109.11C101.384 119.597 112.001 126.124 122.705 123.665ZM122.836 124.231C133.844 121.707 140.741 110.894 138.261 100.082C135.78 89.2689 124.837 82.5681 113.828 85.1135C102.82 87.6372 95.9231 98.4499 98.4034 109.263C100.884 120.076 111.827 126.776 122.836 124.231Z" fill="#ADCFEA"/>
<path fill-rule="evenodd" clip-rule="evenodd" d="M122.792 124.035C133.691 121.533 140.523 110.829 138.064 100.125C135.606 89.4206 124.772 82.785 113.872 85.287C102.972 87.7889 96.1405 98.493 98.5988 109.197C101.057 119.901 111.892 126.537 122.792 124.035ZM122.922 124.6C134.127 122.011 141.175 111.003 138.63 99.9941C136.106 88.9855 124.946 82.1541 113.741 84.743C102.537 87.332 95.4877 98.3406 98.0331 109.349C100.557 120.358 111.718 127.189 122.922 124.6Z" fill="#ADCFEA"/>
<path fill-rule="evenodd" clip-rule="evenodd" d="M122.879 124.404C133.996 121.837 140.959 110.937 138.456 100.037C135.954 89.1371 124.902 82.371 113.807 84.9165C102.689 87.4837 95.7275 98.3836 98.2294 109.283C100.731 120.183 111.784 126.949 122.879 124.404ZM123.01 124.97C134.431 122.337 141.589 111.111 139.022 99.9062C136.433 88.702 125.098 81.7401 113.676 84.3726C102.254 87.0051 95.0964 98.2312 97.6637 109.436C100.231 120.64 111.588 127.602 123.01 124.97Z" fill="#ACCFE9"/>
<path fill-rule="evenodd" clip-rule="evenodd" d="M122.966 124.774C134.279 122.164 141.393 111.046 138.826 99.929C136.259 88.8116 125.011 81.9149 113.698 84.5257C102.385 87.1364 95.2704 98.2539 97.8377 109.371C100.405 120.489 111.653 127.385 122.966 124.774ZM123.096 125.34C134.736 122.664 142.024 111.242 139.392 99.8204C136.759 88.3983 125.207 81.3058 113.567 83.9818C101.928 86.6578 94.6396 98.0798 97.272 109.502C99.9044 120.924 111.457 128.016 123.096 125.34Z" fill="#A9CDE9"/>
<path fill-rule="evenodd" clip-rule="evenodd" d="M123.053 125.166C134.583 122.512 141.807 111.199 139.217 99.8635C136.607 88.5504 125.163 81.5232 113.632 84.1774C102.102 86.8317 94.8786 98.1449 97.4675 109.48C100.078 120.793 111.522 127.82 123.053 125.166ZM123.183 125.732C135.019 123.012 142.459 111.373 139.783 99.7549C137.107 88.137 125.337 80.914 113.502 83.6335C101.666 86.353 94.2259 97.9924 96.9018 109.61C99.5781 121.228 111.348 128.451 123.183 125.732Z" fill="#A8CCE8"/>
<path fill-rule="evenodd" clip-rule="evenodd" d="M123.14 125.536C134.866 122.839 142.242 111.308 139.587 99.7772C136.933 88.2463 125.272 81.1103 113.545 83.8081C101.819 86.5058 94.4434 98.0367 97.0977 109.567C99.7521 121.098 111.413 128.234 123.14 125.536ZM123.271 126.102C135.323 123.339 142.872 111.482 140.153 99.6682C137.434 87.8329 125.446 80.5011 113.393 83.2642C101.34 86.0272 93.7907 97.8842 96.5105 109.698C99.2299 121.533 111.217 128.865 123.271 126.102Z" fill="#A5CBE8"/>
<path fill-rule="evenodd" clip-rule="evenodd" d="M123.205 125.905C135.149 123.163 142.655 111.415 139.957 99.6888C137.26 87.9621 125.381 80.6737 113.437 83.4368C101.493 86.178 93.987 97.9263 96.6844 109.653C99.3823 121.379 111.261 128.668 123.205 125.905ZM123.336 126.47C135.606 123.642 143.286 111.611 140.523 99.5582C137.76 87.5269 125.577 80.0428 113.306 82.8711C101.036 85.6994 93.3558 97.7307 96.1188 109.784C98.8821 121.814 111.065 129.299 123.336 126.47Z" fill="#A5CBE8"/>
<path fill-rule="evenodd" clip-rule="evenodd" d="M123.292 126.275C135.454 123.469 143.069 111.524 140.327 99.6021C137.586 87.658 125.49 80.2609 113.35 83.0674C101.188 85.874 93.5734 97.818 96.3148 109.74C99.0561 121.685 111.153 129.082 123.292 126.275ZM123.423 126.841C135.889 123.969 143.721 111.72 140.893 99.4715C138.065 87.2229 125.685 79.63 113.219 82.5018C100.753 85.3736 92.9207 97.6224 95.7491 109.871C98.5775 122.12 110.957 129.713 123.423 126.841Z" fill="#A4CAE7"/>
<path fill-rule="evenodd" clip-rule="evenodd" d="M123.38 126.644C135.737 123.794 143.504 111.654 140.719 99.5143C137.934 87.3745 125.642 79.8469 113.263 82.697C100.905 85.547 93.1384 97.6871 95.9233 109.827C98.7081 121.967 111 129.494 123.38 126.644ZM123.51 127.21C136.194 124.295 144.135 111.828 141.285 99.3837C138.413 86.9394 125.816 79.216 113.132 82.1313C100.449 85.0466 92.5076 97.513 95.3576 109.958C98.2295 122.402 110.826 130.125 123.51 127.21Z" fill="#A1C9E7"/>
<path fill-rule="evenodd" clip-rule="evenodd" d="M123.466 127.014C136.041 124.121 143.939 111.763 141.088 99.4277C138.238 87.0918 125.75 79.4119 113.175 82.3054C100.6 85.199 92.7029 97.5566 95.5528 109.892C98.4031 122.228 110.891 129.908 123.466 127.014ZM123.597 127.58C136.476 124.621 144.569 111.959 141.654 99.2971C138.739 86.6349 125.924 78.7809 113.045 81.7615C100.165 84.7203 92.072 97.3825 94.9875 110.045C97.9025 122.707 110.717 130.561 123.597 127.58Z" fill="#A0C8E6"/>
<path fill-rule="evenodd" clip-rule="evenodd" d="M123.553 127.385C136.346 124.448 144.352 111.873 141.459 99.3417C138.565 86.7884 125.86 78.9997 113.089 81.9368C100.296 84.8738 92.29 97.4491 95.1619 110.002C98.0553 122.556 110.761 130.344 123.532 127.407L123.553 127.385ZM123.684 127.951C136.781 124.927 145.005 112.069 142.046 99.2112C139.087 86.3533 126.077 78.3688 112.98 81.3929C99.8829 84.4169 91.659 97.275 94.6178 110.133C97.5767 122.99 110.587 130.975 123.684 127.951Z" fill="#9DC7E6"/>
<path fill-rule="evenodd" clip-rule="evenodd" d="M123.64 127.754C136.628 124.773 144.787 112.002 141.85 99.2316C138.913 86.4825 125.99 78.5633 113.001 81.5439C100.013 84.5244 91.8544 97.2954 94.7915 110.066C97.7285 122.815 110.652 130.734 123.64 127.754ZM123.771 128.319C137.086 125.252 145.418 112.176 142.416 99.1226C139.413 86.0474 126.186 77.9541 112.871 81.0217C99.5561 84.0893 91.2235 97.1649 94.2258 110.219C97.2283 123.294 110.456 131.387 123.771 128.319Z" fill="#9DC7E6"/>
<path fill-rule="evenodd" clip-rule="evenodd" d="M123.728 128.145C136.933 125.1 145.222 112.133 142.242 99.1666C139.261 86.1998 126.142 78.15 112.936 81.1959C99.7304 84.2417 91.4413 97.2085 94.4217 110.175C97.4026 123.142 110.521 131.191 123.728 128.145ZM123.858 128.711C137.368 125.6 145.853 112.329 142.808 99.0576C139.762 85.7864 126.316 77.5408 112.806 80.652C99.2953 83.7631 90.8104 97.0344 93.8561 110.306C96.902 123.577 110.347 131.823 123.858 128.711Z" fill="#9BC6E5"/>
<path fill-rule="evenodd" clip-rule="evenodd" d="M123.814 128.516C137.238 125.427 145.636 112.243 142.611 99.0803C139.587 85.9178 126.251 77.7375 112.827 80.8269C99.404 83.9163 91.006 97.1006 94.0302 110.263C97.0542 123.425 110.391 131.606 123.814 128.516ZM123.945 129.082C137.673 125.927 146.288 112.439 143.177 98.9498C140.066 85.4827 126.425 77.1066 112.697 80.2612C98.9688 83.4159 90.3533 96.9046 93.4646 110.393C96.5756 123.86 110.217 132.236 123.945 129.082Z" fill="#99C5E5"/>
<path fill-rule="evenodd" clip-rule="evenodd" d="M123.901 128.887C137.521 125.754 146.071 112.374 143.003 98.9936C139.914 85.6138 126.382 77.3247 112.762 80.4576C99.143 83.5904 90.5928 96.9704 93.6606 110.35C96.7497 123.73 110.282 132.02 123.901 128.887ZM124.032 129.452C137.977 126.254 146.724 112.548 143.569 98.8631C140.414 85.1786 126.577 76.6937 112.632 79.8919C98.6863 83.09 89.9401 96.7964 93.095 110.481C96.2495 124.166 110.086 132.65 124.032 129.452Z" fill="#97C3E4"/>
<path fill-rule="evenodd" clip-rule="evenodd" d="M123.988 129.255C137.825 126.079 146.506 112.481 143.373 98.9055C140.24 85.3298 126.49 76.8885 112.675 80.0866C98.8383 83.263 90.1576 96.8607 93.2906 110.436C96.4235 124.012 110.173 132.454 123.988 129.255ZM124.119 129.821C138.26 126.558 147.137 112.655 143.939 98.775C140.741 84.8947 126.686 76.2575 112.545 79.5209C98.4032 82.7843 89.5267 96.6647 92.7248 110.567C95.9229 124.447 109.977 133.084 124.119 129.821Z" fill="#97C3E4"/>
<path fill-rule="evenodd" clip-rule="evenodd" d="M124.076 129.626C138.108 126.384 146.919 112.591 143.765 98.8192C140.588 85.0257 126.642 76.4756 112.588 79.7173C98.5554 82.9589 89.7443 96.7525 92.899 110.524C96.0751 124.317 110.021 132.868 124.076 129.626ZM124.206 130.191C138.565 126.885 147.572 112.787 144.33 98.6887C141.089 84.5907 126.816 75.8447 112.458 79.1516C98.0987 82.4585 89.0916 96.5565 92.3332 110.654C95.5749 124.752 109.847 133.498 124.206 130.191Z" fill="#95C3E4"/>
<path fill-rule="evenodd" clip-rule="evenodd" d="M124.163 129.995C138.413 126.71 147.354 112.721 144.134 98.7314C140.915 84.7423 126.751 76.0616 112.501 79.3468C98.2512 82.632 89.3093 96.6211 92.5292 110.61C95.749 124.6 109.912 133.28 124.163 129.995ZM124.293 130.561C138.848 127.21 148.007 112.895 144.7 98.6008C141.415 84.3072 126.925 75.4307 112.371 78.7811C97.816 82.1316 88.6566 96.4471 91.9635 110.741C95.2487 125.035 109.738 133.911 124.293 130.561Z" fill="#93C1E3"/>
<path fill-rule="evenodd" clip-rule="evenodd" d="M124.25 130.365C138.717 127.036 147.79 112.829 144.526 98.6228C141.263 84.416 126.882 75.6048 112.436 78.9335C97.9684 82.2622 88.8961 96.4691 92.1595 110.676C95.4231 124.882 109.804 133.694 124.25 130.365ZM124.38 130.931C139.153 127.537 148.421 113.003 145.092 98.5138C141.763 84.0026 127.078 74.9956 112.284 78.4113C97.5113 81.8053 88.2434 96.3385 91.5721 110.828C94.9009 125.339 109.586 134.346 124.38 130.931Z" fill="#91C0E3"/>
<path fill-rule="evenodd" clip-rule="evenodd" d="M124.336 130.736C139 127.364 148.203 112.939 144.896 98.5369C141.589 84.1344 126.991 75.1927 112.327 78.5649C97.6635 81.937 88.4607 96.3612 91.7676 110.764C95.0746 125.166 109.673 134.108 124.336 130.736ZM124.467 131.302C139.457 127.842 148.856 113.135 145.462 98.4283C142.068 83.721 127.186 74.5835 112.197 78.0427C97.2068 81.5019 87.808 96.2091 91.2019 110.916C94.596 125.623 109.477 134.761 124.467 131.302Z" fill="#8EBFE2"/>
<path fill-rule="evenodd" clip-rule="evenodd" d="M124.424 131.126C139.305 127.711 148.638 113.091 145.288 98.4704C141.916 83.8721 127.143 74.7998 112.262 78.2155C97.381 81.6312 88.0475 96.2512 91.3979 110.871C94.7702 125.47 109.542 134.542 124.424 131.126ZM124.554 131.692C139.74 128.189 149.291 113.265 145.854 98.3398C142.416 83.4153 127.317 74.1689 112.131 77.6717C96.9459 81.1744 87.3948 96.0991 90.8322 111.024C94.2696 125.949 109.368 135.195 124.554 131.692Z" fill="#8EBFE2"/>
<path fill-rule="evenodd" clip-rule="evenodd" d="M124.51 131.496C139.609 128.015 149.073 113.199 145.657 98.383C142.242 83.5672 127.251 74.3644 112.153 77.8454C97.0542 81.3263 87.5902 96.1422 91.0059 110.958C94.4215 125.774 109.412 134.977 124.51 131.496ZM124.641 132.062C140.044 128.515 149.704 113.373 146.223 98.2525C142.742 83.1321 127.426 73.7335 112.022 77.2797C96.6191 80.826 86.9593 95.9682 90.4403 111.089C93.9213 126.209 109.238 135.608 124.641 132.062Z" fill="#8DBEE2"/>
<path fill-rule="evenodd" clip-rule="evenodd" d="M124.598 131.866C139.892 128.342 149.487 113.308 146.049 98.2967C142.59 83.2849 127.383 73.9516 112.088 77.476C96.7933 81.0005 87.1988 96.034 90.6363 111.046C94.0954 126.058 109.303 135.391 124.598 131.866ZM124.728 132.432C140.349 128.842 150.139 113.504 146.615 98.1662C143.09 82.8281 127.578 73.3206 111.957 76.9104C96.3366 80.5002 86.5461 95.8384 90.0707 111.176C93.5952 126.514 109.107 136.022 124.728 132.432Z" fill="#8ABDE1"/>
<path fill-rule="evenodd" clip-rule="evenodd" d="M124.663 132.236C140.175 128.668 149.9 113.438 146.397 98.2089C142.894 82.9797 127.47 73.5376 111.979 77.1056C96.4667 80.6736 86.7419 95.903 90.2446 111.132C93.7473 126.361 109.172 135.803 124.663 132.236ZM124.793 132.801C140.61 129.168 150.552 113.612 146.963 98.0783C143.395 82.5446 127.665 72.9066 111.849 76.5399C96.0316 80.1732 86.0892 95.729 89.679 111.263C93.2471 126.796 108.977 136.435 124.793 132.801Z" fill="#88BCE1"/>
<path fill-rule="evenodd" clip-rule="evenodd" d="M124.75 132.606C140.458 128.995 150.335 113.548 146.789 98.1233C143.243 82.6981 127.622 73.1037 111.892 76.7369C96.1843 80.3484 86.307 95.7951 89.8532 111.22C93.3994 126.645 109.02 136.24 124.75 132.606ZM124.881 133.172C140.915 129.474 150.966 113.722 147.355 97.9928C143.721 82.263 127.796 72.4945 111.762 76.1713C95.7272 79.8698 85.676 95.6211 89.2875 111.351C92.9208 127.081 108.846 136.849 124.881 133.172Z" fill="#86BBE0"/>
<path fill-rule="evenodd" clip-rule="evenodd" d="M124.837 132.977C140.762 129.3 150.748 113.657 147.158 98.0143C143.569 82.3718 127.73 72.6685 111.805 76.3453C95.8794 80.0003 85.8933 95.6646 89.4831 111.308C93.0729 126.95 108.911 136.653 124.837 132.977ZM124.967 133.542C141.219 129.8 151.401 113.853 147.724 97.9057C144.047 81.9584 127.904 72.0594 111.674 75.8014C95.4223 79.5435 85.2406 95.4906 88.9174 111.438C92.5942 127.385 108.737 137.284 124.967 133.542Z" fill="#86BBE0"/>
<path fill-rule="evenodd" clip-rule="evenodd" d="M124.924 133.346C141.067 129.626 151.184 113.787 147.55 97.9269C143.896 82.0884 127.861 72.2546 111.718 75.9749C95.5752 79.6952 85.4586 95.5337 89.1136 111.394C92.7686 127.232 108.803 137.066 124.946 133.346H124.924ZM125.055 133.911C141.502 130.126 151.837 113.961 148.116 97.818C144.396 81.675 128.057 71.6454 111.588 75.431C95.14 79.2165 84.8059 95.3812 88.5262 111.524C92.2465 127.667 108.585 137.697 125.055 133.911Z" fill="#83BAE0"/>
<path fill-rule="evenodd" clip-rule="evenodd" d="M125.011 133.715C141.35 129.951 151.619 113.895 147.92 97.8395C144.222 81.7834 127.97 71.8191 111.631 75.5829C95.2923 79.3467 85.0233 95.4027 88.7219 111.459C92.4204 127.515 108.672 137.479 125.011 133.715ZM125.141 134.281C141.807 130.452 152.25 114.069 148.486 97.709C144.722 81.3482 128.166 71.1881 111.501 75.039C94.8352 78.868 84.3924 95.2503 88.1562 111.611C91.92 127.972 108.477 138.11 125.141 134.281Z" fill="#82B9DF"/>
<path fill-rule="evenodd" clip-rule="evenodd" d="M125.098 134.107C141.654 130.3 152.032 114.026 148.312 97.7742C144.57 81.5222 128.122 71.4274 111.566 75.2347C95.0095 79.0421 84.6318 95.3155 88.3521 111.568C92.0942 127.819 108.542 137.914 125.098 134.107ZM125.229 134.672C142.09 130.8 152.685 114.222 148.878 97.6436C145.07 81.0871 128.296 70.7965 111.435 74.6908C94.5743 78.5634 83.9792 95.1414 87.7865 111.72C91.5938 128.298 108.368 138.567 125.229 134.672Z" fill="#7FB7DF"/>
<path fill-rule="evenodd" clip-rule="evenodd" d="M125.185 134.477C141.959 130.626 152.467 114.135 148.682 97.6875C144.896 81.2182 128.231 71.0146 111.457 74.8654C94.6832 78.7162 84.175 95.2072 87.9605 111.655C91.7461 128.124 108.411 138.328 125.185 134.477ZM125.316 135.043C142.394 131.105 153.12 114.331 149.248 97.5569C145.397 80.783 128.405 70.3836 111.327 74.3215C94.2481 78.2593 83.5223 95.0332 87.3949 111.807C91.2457 128.581 108.237 138.981 125.316 135.043Z" fill="#7FB7DF"/>
<path fill-rule="evenodd" clip-rule="evenodd" d="M125.272 134.847C142.242 130.931 152.902 114.266 149.073 97.6008C145.244 80.9355 128.362 70.6013 111.392 74.4957C94.4222 78.4118 83.7615 95.077 87.5906 111.742C91.4196 128.407 108.303 138.741 125.272 134.847ZM125.403 135.413C142.699 131.432 153.533 114.44 149.639 97.4702C145.723 80.5003 128.557 69.9704 111.261 73.93C93.9651 77.9114 83.1306 94.9029 87.0249 111.873C90.941 128.842 108.107 139.372 125.403 135.413Z" fill="#7DB7DE"/>
<path fill-rule="evenodd" clip-rule="evenodd" d="M125.359 135.217C142.547 131.258 153.338 114.375 149.443 97.5138C145.571 80.6309 128.47 70.1663 111.305 74.1259C94.1175 78.0855 83.3263 94.9681 87.2207 111.829C91.0933 128.712 108.194 139.177 125.359 135.217ZM125.49 135.783C142.982 131.758 153.968 114.57 150.009 97.3832C146.049 80.1958 128.666 69.5353 111.152 73.5602C93.6604 77.5851 82.6736 94.7724 86.6332 111.96C90.5928 129.147 107.976 139.807 125.49 135.783Z" fill="#7BB5DE"/>
<path fill-rule="evenodd" clip-rule="evenodd" d="M125.446 135.586C142.851 131.583 153.751 114.483 149.835 97.4044C145.897 80.3257 128.623 69.7305 111.218 73.7336C93.813 77.7367 82.9132 94.8371 86.8293 111.916C90.7671 128.994 108.042 139.589 125.446 135.586ZM125.577 136.152C143.286 132.084 154.404 114.679 150.401 97.2954C146.397 79.9124 128.797 69.1213 111.087 73.1897C93.3779 77.2581 82.2605 94.663 86.2636 112.046C90.2667 129.429 107.868 140.22 125.577 136.152Z" fill="#79B4DD"/>
<path fill-rule="evenodd" clip-rule="evenodd" d="M125.533 135.957C143.134 131.91 154.186 114.614 150.205 97.3178C146.223 80.0435 128.732 69.3178 111.131 73.3644C93.5302 77.411 82.4779 94.707 86.4593 112.003C90.4407 129.278 107.932 140.003 125.533 135.957ZM125.664 136.522C143.591 132.389 154.817 114.788 150.771 97.2092C146.724 79.6084 128.906 68.7086 111 72.8205C93.0731 76.9542 81.847 94.5549 85.8936 112.134C89.9403 129.735 107.758 140.634 125.664 136.522Z" fill="#76B3DD"/>
<path fill-rule="evenodd" clip-rule="evenodd" d="M125.62 136.326C143.438 132.236 154.621 114.722 150.596 97.2303C146.571 79.7384 128.862 68.8821 111.044 72.994C93.2254 77.0842 82.0427 94.5979 86.0676 112.09C90.0925 129.582 107.802 140.438 125.62 136.326ZM125.751 136.892C143.874 132.715 155.252 114.918 151.162 97.0997C147.072 79.2815 129.058 68.2512 110.913 72.4284C92.7902 76.6055 81.4118 94.4019 85.5019 112.22C89.5921 130.017 107.606 141.069 125.751 136.892Z" fill="#76B3DD"/>
<path fill-rule="evenodd" clip-rule="evenodd" d="M125.707 136.697C143.721 132.542 155.034 114.833 150.966 97.1445C146.897 79.4569 128.97 68.4701 110.956 72.6255C92.9424 76.7809 81.6291 94.4905 85.6975 112.178C89.7659 129.866 107.693 140.852 125.707 136.697ZM125.837 137.263C144.178 133.042 155.687 115.028 151.531 97.0139C147.398 79.0001 129.166 67.8392 110.826 72.0598C92.4854 76.2805 80.9764 94.2945 85.1318 112.309C89.2655 130.323 107.497 141.484 125.837 137.263Z" fill="#74B2DC"/>
<path fill-rule="evenodd" clip-rule="evenodd" d="M125.794 137.089C144.026 132.89 155.47 114.985 151.358 97.0794C147.246 79.1739 129.123 68.0783 110.891 72.2555C92.6597 76.4544 81.216 94.3596 85.3279 112.265C89.4398 130.17 107.563 141.266 125.794 137.089ZM125.925 137.654C144.483 133.39 156.101 115.159 151.923 96.9489C147.724 78.7388 129.297 67.4474 110.761 71.7116C92.2246 75.9758 80.5851 94.2075 84.7623 112.417C88.9612 130.627 107.388 141.918 125.925 137.654Z" fill="#71B1DC"/>
<path fill-rule="evenodd" clip-rule="evenodd" d="M125.881 137.457C144.331 133.215 155.905 115.092 151.727 96.9913C147.55 78.89 129.232 67.6421 110.782 71.8845C92.3334 76.127 80.7591 94.2499 84.9363 112.351C89.1135 130.452 107.432 141.7 125.881 137.457ZM126.012 138.023C144.766 133.716 156.536 115.288 152.293 96.8607C148.051 78.4549 129.406 67.0112 110.652 71.3406C91.8983 75.6483 80.1282 94.0974 84.3706 112.503C88.6131 130.909 107.258 142.352 126.012 138.023Z" fill="#70B0DB"/>
<path fill-rule="evenodd" clip-rule="evenodd" d="M125.968 137.828C144.613 133.542 156.318 115.201 152.119 96.9046C147.898 78.5859 129.362 67.2293 110.717 71.5152C92.072 75.8012 80.3673 94.1417 84.5662 112.439C88.7651 130.735 107.323 142.114 125.968 137.828ZM126.099 138.393C145.07 134.02 156.971 115.397 152.685 96.774C148.399 78.1508 129.558 66.5983 110.587 70.9713C91.6152 75.3443 79.7146 93.9676 84.0005 112.591C88.2865 131.214 107.127 142.766 126.099 138.393Z" fill="#6DAFDB"/>
<path fill-rule="evenodd" clip-rule="evenodd" d="M126.055 138.198C144.918 133.847 156.753 115.332 152.489 96.7959C148.225 78.2815 129.471 66.7943 110.63 71.1238C91.7675 75.475 79.9322 93.9895 84.1964 112.526C88.4606 131.04 107.214 142.527 126.077 138.198H126.055ZM126.186 138.763C145.353 134.347 157.384 115.506 153.055 96.6873C148.725 77.8681 129.667 66.1851 110.478 70.5798C91.3106 74.9964 79.2795 93.837 83.609 112.656C87.9385 131.475 106.997 143.158 126.186 138.763Z" fill="#6DAFDB"/>
<path fill-rule="evenodd" clip-rule="evenodd" d="M126.121 138.568C145.201 134.173 157.166 115.441 152.859 96.709C148.551 77.977 129.601 66.3592 110.521 70.7539C91.4412 75.1487 79.4753 93.8806 83.783 112.613C88.0908 131.345 107.04 142.962 126.121 138.568ZM126.251 139.133C145.636 134.674 157.797 115.615 153.424 96.6004C149.051 77.5636 129.775 65.75 110.391 70.21C91.006 74.67 78.8444 93.7285 83.2174 112.743C87.5903 131.78 106.866 143.593 126.251 139.133Z" fill="#6AAEDA"/>
<path fill-rule="evenodd" clip-rule="evenodd" d="M126.208 138.937C145.483 134.499 157.58 115.549 153.229 96.6215C148.878 77.6935 129.71 65.9452 110.435 70.3835C91.1586 74.8217 79.0622 93.7712 83.4134 112.699C87.7647 131.627 106.932 143.375 126.208 138.937ZM126.338 139.503C145.941 134.999 158.233 115.745 153.795 96.5125C149.356 77.2801 129.884 65.3361 110.304 69.8396C90.7017 74.3431 78.4095 93.5971 82.8477 112.83C87.286 132.062 106.758 144.006 126.338 139.503Z" fill="#68ADDA"/>
<path fill-rule="evenodd" clip-rule="evenodd" d="M126.295 139.307C145.788 134.825 158.015 115.68 153.621 96.5345C149.226 77.3891 129.841 65.5321 110.348 70.0138C90.8541 74.4955 78.6271 93.6411 83.0219 112.786C87.4166 131.932 106.801 143.789 126.295 139.307ZM126.425 139.872C146.223 135.304 158.668 115.854 154.186 96.404C149.704 76.954 130.037 64.9011 110.217 69.4481C90.419 74.0169 77.9962 93.467 82.4562 112.917C86.938 132.367 106.606 144.42 126.425 139.872Z" fill="#65ACD9"/>
<path fill-rule="evenodd" clip-rule="evenodd" d="M126.381 139.678C146.071 135.152 158.45 115.789 153.99 96.4483C149.53 77.107 129.949 65.0976 110.26 69.6447C90.571 74.1699 78.1918 93.5329 82.6517 112.874C87.1118 132.215 106.692 144.225 126.381 139.678ZM126.512 140.243C146.528 135.631 159.081 115.964 154.556 96.3177C150.03 76.6719 130.145 64.4667 110.13 69.079C90.1141 73.6913 77.5608 93.3588 82.0861 113.005C86.6114 132.65 106.496 144.855 126.512 140.243Z" fill="#63ABD9"/>
<path fill-rule="evenodd" clip-rule="evenodd" d="M126.469 140.069C146.376 135.478 158.864 115.919 154.382 96.3821C149.878 76.8451 130.102 64.7052 110.195 69.2957C90.2881 73.8863 77.8001 93.4451 82.2819 112.982C86.7854 132.519 106.562 144.659 126.469 140.069ZM126.599 140.634C146.832 135.978 159.516 116.115 154.947 96.2515C150.378 76.3882 130.276 64.0743 110.043 68.7301C89.8095 73.3859 77.1257 93.2491 81.6945 113.112C86.2633 132.976 106.366 145.29 126.599 140.634Z" fill="#63ABD9"/>
<path fill-rule="evenodd" clip-rule="evenodd" d="M126.556 140.437C146.68 135.803 159.298 116.049 154.752 96.2942C150.205 76.5399 130.211 64.2912 110.086 68.9035C89.9619 73.5376 77.3434 93.2922 81.8904 113.047C86.4374 132.801 106.431 145.05 126.556 140.437ZM126.686 141.003C147.115 136.304 159.951 116.223 155.317 96.1637C150.705 76.1048 130.385 63.6603 109.956 68.3596C89.5268 73.0589 76.6907 93.1397 81.3248 113.199C85.937 133.258 106.257 145.703 126.686 141.003Z" fill="#60A9D8"/>
<path fill-rule="evenodd" clip-rule="evenodd" d="M126.643 140.807C146.963 136.13 159.734 116.158 155.143 96.2076C150.552 76.2571 130.341 63.8561 110.021 68.5337C89.7007 73.2112 76.9299 93.1832 81.5205 113.156C86.111 133.106 106.322 145.507 126.643 140.829V140.807ZM126.773 141.373C147.42 136.63 160.365 116.332 155.709 96.0771C151.053 75.8002 130.537 63.2252 109.89 67.9898C89.2439 72.7326 76.299 93.0311 80.9548 113.286C85.6106 133.563 106.127 146.138 126.773 141.373Z" fill="#5EA9D8"/>
<path fill-rule="evenodd" clip-rule="evenodd" d="M126.73 141.179C147.267 136.458 160.147 116.268 155.513 96.0997C150.879 75.9319 130.45 63.4222 109.912 68.1433C89.3744 72.8644 76.4947 93.0542 81.1288 113.222C85.7628 133.39 106.192 145.9 126.73 141.179ZM126.86 141.744C147.702 136.936 160.8 116.464 156.079 95.9911C151.358 75.5186 130.646 62.813 109.782 67.6211C88.9392 72.4292 75.842 92.9017 80.5631 113.374C85.2842 133.847 105.996 146.552 126.86 141.744Z" fill="#5BA7D7"/>
<path fill-rule="evenodd" clip-rule="evenodd" d="M126.817 141.549C147.572 136.762 160.582 116.399 155.905 96.013C151.205 75.6493 130.602 63.009 109.847 67.7736C89.0917 72.5599 76.0816 92.9236 80.7591 113.309C85.4367 133.673 106.062 146.313 126.817 141.549ZM126.947 142.114C148.007 137.263 161.235 116.573 156.471 95.9041C151.706 75.2359 130.776 62.3998 109.717 67.2297C88.6566 72.0813 75.4289 92.7713 80.1935 113.44C84.9581 134.108 105.887 146.944 126.947 142.114Z" fill="#5BA7D7"/>
<path fill-rule="evenodd" clip-rule="evenodd" d="M126.904 141.918C147.855 137.088 161.017 116.507 156.274 95.9258C151.532 75.3444 130.711 62.5736 109.76 67.4034C88.8088 72.2333 75.6464 92.8146 80.3892 113.396C85.132 133.977 105.953 146.748 126.904 141.918ZM127.034 142.484C148.312 137.589 161.648 116.681 156.84 95.7952C152.032 74.9093 130.885 61.9426 109.629 66.8378C88.3519 71.7329 75.0154 92.6405 79.8235 113.526C84.6316 134.412 105.779 147.379 127.034 142.484Z" fill="#59A6D7"/>
<path fill-rule="evenodd" clip-rule="evenodd" d="M126.991 142.287C148.159 137.414 161.43 116.615 156.666 95.8379C151.88 75.0609 130.842 62.1596 109.673 67.033C88.5041 71.9063 75.2329 92.7051 79.9975 113.482C84.7838 134.259 105.822 147.161 126.991 142.287ZM127.121 142.853C148.594 137.914 162.083 116.811 157.232 95.7074C152.38 74.6258 131.037 61.5287 109.542 66.4673C88.069 71.4059 74.5802 92.5093 79.4318 113.613C84.2834 134.694 105.626 147.792 127.121 142.853Z" fill="#55A5D6"/>
<path fill-rule="evenodd" clip-rule="evenodd" d="M127.078 142.658C148.464 137.741 161.866 116.724 157.036 95.7517C152.206 74.757 130.95 61.7468 109.586 66.6638C88.1997 71.5806 74.798 92.597 79.6278 113.57C84.4577 134.565 105.713 147.575 127.078 142.658ZM127.209 143.223C148.899 138.241 162.518 116.92 157.602 95.6212C152.707 74.3219 131.146 61.1159 109.455 66.0981C87.7646 71.0802 74.1453 92.4012 79.0622 113.7C83.9573 135 105.518 148.206 127.209 143.223Z" fill="#52A4D5"/>
<path fill-rule="evenodd" clip-rule="evenodd" d="M127.164 143.049C148.747 138.088 162.301 116.876 157.428 95.6855C152.554 74.4952 131.103 61.3328 109.52 66.3149C87.9384 71.2753 74.3843 92.4875 79.2577 113.678C84.131 134.868 105.582 148.031 127.186 143.049H127.164ZM127.295 143.614C149.203 138.567 162.932 117.05 157.993 95.555C153.054 74.0601 131.277 60.7018 109.368 65.7492C87.4597 70.7966 73.7316 92.3134 78.6702 113.808C83.6306 135.304 105.387 148.662 127.295 143.614Z" fill="#50A3D5"/>
<path fill-rule="evenodd" clip-rule="evenodd" d="M127.252 143.419C149.051 138.393 162.714 116.986 157.797 95.5992C152.881 74.1911 131.212 60.9199 109.412 65.9456C87.6121 70.9712 73.9493 92.3792 78.8662 113.766C83.7831 135.173 105.452 148.445 127.252 143.419ZM127.382 143.985C149.486 138.894 163.367 117.181 158.363 95.4687C153.359 73.756 131.386 60.289 109.281 65.3799C87.177 70.4708 73.2966 92.1834 78.3005 113.896C83.3044 135.609 105.278 149.076 127.382 143.985Z" fill="#50A3D5"/>
<path fill-rule="evenodd" clip-rule="evenodd" d="M127.339 143.788C149.334 138.719 163.15 117.094 158.189 95.4898C153.207 73.8859 131.342 60.4842 109.347 65.5316C87.3513 70.6008 73.5361 92.2263 78.4966 113.83C83.4787 135.434 105.344 148.836 127.339 143.788ZM127.469 144.354C149.791 139.219 163.802 117.289 158.755 95.3808C153.707 73.4726 131.538 59.875 109.216 65.0094C86.8944 70.1439 72.8835 92.074 77.9309 113.982C82.9783 135.891 105.148 149.489 127.469 144.354Z" fill="#4CA2D4"/>
<path fill-rule="evenodd" clip-rule="evenodd" d="M127.426 144.158C149.639 139.045 163.585 117.224 158.559 95.4028C153.534 73.6031 131.451 60.0491 109.238 65.1618C87.0251 70.2745 73.0795 92.0958 78.1051 113.917C83.1308 135.717 105.213 149.271 127.426 144.158ZM127.557 144.724C150.096 139.546 164.216 117.398 159.125 95.2938C154.034 73.168 131.647 59.4399 109.107 64.6396C86.5682 69.8176 72.4485 91.9653 77.5394 114.069C82.6304 136.195 105.018 149.924 127.557 144.724Z" fill="#4AA1D4"/>
<path fill-rule="evenodd" clip-rule="evenodd" d="M127.513 144.529C149.943 139.373 163.998 117.334 158.951 95.3165C153.882 73.2994 131.603 59.6366 109.173 64.7928C86.7422 69.949 72.6877 91.9879 77.7351 114.005C82.8043 136.022 105.083 149.685 127.513 144.529ZM127.644 145.094C150.379 139.851 164.651 117.53 159.516 95.186C154.382 72.8643 131.777 59.0056 109.042 64.2489C86.2853 69.4703 72.0132 91.8139 77.1477 114.136C82.2821 136.457 104.887 150.316 127.622 145.073L127.644 145.094Z" fill="#46A0D3"/>
<path fill-rule="evenodd" clip-rule="evenodd" d="M127.578 144.898C150.205 139.698 164.412 117.442 159.299 95.2291C154.186 73.016 131.69 59.2227 109.064 64.4224C86.4376 69.6439 72.2308 91.8786 77.3435 114.092C82.4562 136.305 104.952 150.098 127.578 144.898ZM127.709 145.464C150.662 140.177 165.064 117.638 159.864 95.0986C154.687 72.5592 131.864 58.5917 108.911 63.8567C85.9807 69.1435 71.5999 91.7045 76.7778 114.222C81.9558 136.761 104.778 150.729 127.731 145.442L127.709 145.464Z" fill="#449FD3"/>
<path fill-rule="evenodd" clip-rule="evenodd" d="M127.665 145.269C150.509 140.004 164.847 117.573 159.69 95.1428C154.534 72.7122 131.821 58.7883 108.977 64.0532C86.1329 69.3182 71.7957 91.7488 76.9736 114.179C82.1298 136.61 104.843 150.534 127.687 145.269H127.665ZM127.796 145.835C150.944 140.504 165.477 117.747 160.256 95.0123C155.034 72.2771 132.017 58.1573 108.846 63.4876C85.676 68.8178 71.1647 91.5747 76.3862 114.31C81.6294 137.045 104.626 151.165 127.796 145.835Z" fill="#449FD3"/>
<path fill-rule="evenodd" clip-rule="evenodd" d="M127.752 145.638C150.814 140.33 165.26 117.681 160.06 95.055C154.861 72.4287 131.951 58.3743 108.89 63.6828C85.8285 68.9913 71.3824 91.6394 76.5821 114.266C81.7818 136.892 104.713 150.946 127.752 145.638ZM127.883 146.204C151.249 140.83 165.913 117.877 160.626 94.9245C155.361 71.9936 132.125 57.7434 108.759 63.1171C85.3934 68.5126 70.7297 91.4653 76.0165 114.396C81.3032 137.349 104.517 151.578 127.883 146.204Z" fill="#409ED2"/>
<path fill-rule="evenodd" clip-rule="evenodd" d="M127.839 146.009C151.096 140.657 165.695 117.791 160.452 94.9688C155.187 72.1248 132.082 57.9616 108.803 63.3136C85.5454 68.6656 70.9471 91.5312 76.2121 114.354C81.477 137.197 104.582 151.36 127.861 146.009H127.839ZM127.97 146.574C151.553 141.157 166.348 117.987 161.017 94.8383C155.687 71.6896 132.256 57.3306 108.672 62.7479C85.1103 68.1869 70.3162 91.3354 75.6464 114.484C80.9766 137.633 104.408 151.992 127.991 146.574H127.97Z" fill="#3D9DD2"/>
<path fill-rule="evenodd" clip-rule="evenodd" d="M127.926 146.399C151.401 141.004 166.13 117.942 160.822 94.8803C155.513 71.8408 132.191 57.5253 108.716 62.9426C85.2409 68.3381 70.5121 91.3995 75.8206 114.439C81.129 137.479 104.451 151.795 127.926 146.377V146.399ZM128.057 146.965C151.837 141.482 166.761 118.116 161.387 94.7718C156.013 71.4057 132.386 56.8944 108.585 62.3769C84.7841 67.8594 69.8811 91.2255 75.2549 114.57C80.6286 137.914 104.277 152.425 128.057 146.943V146.965Z" fill="#389CD1"/>
<path fill-rule="evenodd" clip-rule="evenodd" d="M128.013 146.769C151.706 141.308 166.565 118.051 161.213 94.794C155.861 71.5367 132.321 57.1124 108.629 62.5732C84.9582 68.0123 70.0987 91.2913 75.4507 114.527C80.8027 137.784 104.343 152.208 128.013 146.748V146.769ZM128.144 147.335C152.141 141.809 167.196 118.225 161.779 94.6851C156.362 71.1016 132.495 56.4815 108.498 62.0076C84.523 67.5336 69.446 91.0955 74.8851 114.657C80.3023 138.219 104.147 152.839 128.144 147.313V147.335Z" fill="#389CD1"/>
<path fill-rule="evenodd" clip-rule="evenodd" d="M128.101 147.138C151.989 141.634 166.979 118.16 161.583 94.7066C156.188 71.2533 132.452 56.6985 108.542 62.2028C84.6537 67.6853 69.6637 91.1602 75.0592 114.613C80.4547 138.066 104.212 152.621 128.101 147.138ZM128.231 147.704C152.446 142.135 167.632 118.355 162.149 94.576C156.688 70.8182 132.626 56.0676 108.433 61.6371C84.2185 67.2067 69.0328 90.9861 74.4936 114.744C79.9543 138.502 104.017 153.252 128.231 147.683V147.704Z" fill="#359BD1"/>
<path fill-rule="evenodd" clip-rule="evenodd" d="M128.187 147.509C152.293 141.961 167.414 118.29 161.975 94.6196C156.514 70.9488 132.56 56.2634 108.476 61.8112C84.3706 67.3591 69.2501 91.0514 74.6891 114.701C80.1281 138.371 104.082 153.056 128.187 147.509ZM128.318 148.074C152.728 142.461 168.045 118.464 162.54 94.489C157.014 70.5137 132.756 55.6325 108.346 61.2673C83.9137 66.8804 68.5974 90.8774 74.1234 114.831C79.6495 138.806 103.908 153.687 128.318 148.052V148.074Z" fill="#309AD0"/>
<path fill-rule="evenodd" clip-rule="evenodd" d="M128.275 147.88C152.576 142.288 167.849 118.4 162.344 94.5337C156.862 70.6672 132.691 55.8513 108.389 61.4426C84.0661 67.0339 68.815 90.9221 74.3193 114.789C79.8236 138.655 103.973 153.471 128.275 147.88ZM128.405 148.445C153.033 142.767 168.48 118.574 162.91 94.4031C157.341 70.2321 132.887 55.2204 108.259 60.8987C83.6309 66.5553 68.1841 90.7481 73.7319 114.919C79.3015 139.09 103.777 154.102 128.405 148.423V148.445Z" fill="#2B98D0"/>
<path fill-rule="evenodd" clip-rule="evenodd" d="M128.361 148.249C152.881 142.614 168.262 118.509 162.736 94.4463C157.188 70.3622 132.821 55.4375 108.302 61.0723C83.783 66.7289 68.3796 90.8129 73.9274 114.875C79.4752 138.959 103.842 153.884 128.361 148.249ZM128.492 148.815C153.337 143.093 168.915 118.704 163.301 94.3158C157.689 69.927 132.995 54.8066 108.172 60.5067C83.3261 66.2285 67.7487 90.6389 73.3618 115.006C78.9748 139.394 103.646 154.515 128.492 148.793V148.815Z" fill="#2797CF"/>
<path fill-rule="evenodd" clip-rule="evenodd" d="M128.449 148.619C153.185 142.92 168.698 118.64 163.106 94.36C157.515 70.08 132.931 55.003 108.216 60.7031C83.4788 66.4032 67.9667 90.683 73.558 114.963C79.1493 139.242 103.734 154.32 128.449 148.619ZM128.579 149.185C153.62 143.42 169.328 118.814 163.672 94.2294C158.015 69.6449 133.126 54.3721 108.085 60.1374C83.0436 65.9028 67.314 90.5089 72.9706 115.093C78.6272 139.678 103.516 154.95 128.557 149.185H128.579Z" fill="#2797CF"/>
<path fill-rule="evenodd" clip-rule="evenodd" d="M128.536 148.988C153.468 143.245 169.132 118.747 163.498 94.25C157.841 69.7742 133.061 54.5884 108.128 60.332C83.1741 66.0756 67.5314 90.573 73.1663 115.049C78.8011 139.524 103.581 154.732 128.536 148.988ZM128.666 149.554C153.925 143.745 169.763 118.921 164.063 94.141C158.342 69.3391 133.257 53.9575 107.998 59.7664C82.7389 65.5753 66.9005 90.399 72.6006 115.179C78.3007 139.981 103.407 155.363 128.666 149.554Z" fill="#2096CF"/>
<path fill-rule="evenodd" clip-rule="evenodd" d="M128.622 149.381C153.773 143.594 169.546 118.879 163.867 94.1856C158.189 69.4925 133.191 54.1762 108.041 59.9633C82.891 65.7505 67.1178 90.4654 72.7962 115.137C78.4745 139.83 103.472 155.146 128.622 149.359V149.381ZM128.753 149.946C154.208 144.094 170.198 119.075 164.433 94.077C158.668 69.0574 133.365 53.5453 107.91 59.3977C82.4341 65.2501 66.4651 90.2696 72.2305 115.267C77.9959 140.265 103.298 155.777 128.753 149.925V149.946Z" fill="#1A95CE"/>
<path fill-rule="evenodd" clip-rule="evenodd" d="M128.71 149.751C154.077 143.92 169.981 119.009 164.259 94.099C158.516 69.2098 133.3 53.7412 107.954 59.5936C82.5868 65.4242 66.6831 90.335 72.4049 115.224C78.1268 140.113 103.342 155.582 128.688 149.729L128.71 149.751ZM128.84 150.317C154.512 144.399 170.612 119.184 164.825 93.9684C159.016 68.7529 133.496 53.1103 107.824 59.0279C82.1517 64.9456 66.0304 90.1609 71.8393 115.354C77.6482 140.57 103.146 156.212 128.819 150.295L128.84 150.317Z" fill="#1094CE"/>
<path fill-rule="evenodd" clip-rule="evenodd" d="M128.797 150.12C154.36 144.224 170.416 119.118 164.629 94.0111C158.842 68.9046 133.431 53.3272 107.867 59.2231C82.3038 65.0972 66.2479 90.2256 72.035 115.31C77.8221 140.417 103.233 155.994 128.797 150.099V150.12ZM128.927 150.686C154.817 144.724 171.047 119.292 165.194 93.8806C159.342 68.4695 133.626 52.6963 107.737 58.6575C81.847 64.6186 65.6169 90.0515 71.4693 115.441C77.3217 140.852 103.037 156.625 128.927 150.664V150.686Z" fill="#0593CD"/>
<path fill-rule="evenodd" clip-rule="evenodd" d="M128.884 150.491C154.664 144.551 170.83 119.227 165.02 93.9245C159.168 68.6223 133.561 52.9144 107.78 58.832C81.9992 64.7714 65.8344 90.0956 71.6433 115.42C77.4739 140.722 103.081 156.43 128.862 150.491H128.884ZM129.014 151.056C155.1 145.051 171.482 119.423 165.586 93.7939C159.669 68.1654 133.735 52.2834 107.65 58.2881C81.5641 64.2928 65.1817 89.9215 71.0776 115.55C76.9735 141.157 102.907 157.061 128.992 151.056H129.014Z" fill="#0593CD"/>
<path fill-rule="evenodd" clip-rule="evenodd" d="M128.971 150.859C154.947 144.876 171.265 119.334 165.39 93.8363C159.516 68.3166 133.692 52.4781 107.693 58.4611C81.7162 64.444 65.3992 89.9857 71.2733 115.506C77.1475 141.025 102.972 156.864 128.971 150.881V150.859ZM129.101 151.425C155.404 145.377 171.917 119.53 165.956 93.7058C160.016 67.8815 133.866 51.8472 107.563 57.9172C81.2594 63.9654 64.7682 89.8116 70.7076 115.636C76.6471 141.461 102.798 157.495 129.101 151.425Z" fill="#0092CD"/>
<path fill-rule="evenodd" clip-rule="evenodd" d="M129.036 151.23C155.23 145.204 171.678 119.466 165.76 93.7508C159.842 68.035 133.8 52.0661 107.606 58.0925C81.4116 64.1189 64.964 89.8564 70.9034 115.594C76.821 141.31 102.863 157.279 129.057 151.252L129.036 151.23ZM129.166 151.796C155.687 145.704 172.309 119.641 166.326 93.6202C160.343 67.5782 133.996 51.4351 107.475 57.5268C80.9764 63.6403 64.333 89.6824 70.316 115.724C76.2989 141.745 102.645 157.909 129.166 151.796Z" fill="#0091CC"/>
<path fill-rule="evenodd" clip-rule="evenodd" d="M129.123 151.6C155.535 145.53 172.091 119.575 166.13 93.6415C160.169 67.73 133.931 51.6522 107.519 57.7222C81.1072 63.7921 64.5508 89.7472 70.512 115.681C76.4732 141.614 102.733 157.692 129.123 151.622V151.6ZM129.254 152.165C155.97 146.008 172.744 119.77 166.696 93.5325C160.669 67.2948 134.105 51.0213 107.389 57.1565C80.6721 63.3135 63.8981 89.5731 69.9463 115.811C75.9946 142.049 102.537 158.322 129.254 152.165Z" fill="#0090CC"/>
<path fill-rule="evenodd" clip-rule="evenodd" d="M129.21 151.969C155.818 145.834 172.526 119.683 166.522 93.5541C160.495 67.4468 134.062 51.2167 107.432 57.3519C80.8243 63.4654 64.1156 89.6162 70.142 115.767C76.1467 141.896 102.602 158.126 129.232 151.991L129.21 151.969ZM129.297 152.339C156.122 146.16 172.962 119.814 166.892 93.467C160.843 67.1422 134.17 50.8033 107.345 56.9821C80.5197 63.1608 63.7022 89.5074 69.7504 115.854C75.7986 142.201 102.472 158.539 129.297 152.361V152.339Z" fill="#0090CC"/>
</g>
<path d="M139.087 189.236C134.431 190.215 129.58 190.737 124.619 190.737C86.9813 190.737 56.501 160.997 56.501 124.316C56.501 101.494 68.271 81.3909 86.2416 69.4251H65.5733C64.0286 69.4251 62.745 68.1632 62.745 66.5968C62.745 65.0303 64.0068 63.7685 65.5733 63.7685H95.7489C95.7489 63.7685 95.9014 63.7685 95.9884 63.7685C96.3581 63.7467 96.7282 63.7685 97.0978 63.899C98.5773 64.3994 99.3821 66.0093 98.8819 67.467L89.3527 96.098C88.8523 97.5774 87.2424 98.3822 85.7847 97.882C84.3053 97.3818 83.5003 95.7718 84.0007 94.3139L91.0714 73.0801C73.7536 83.8929 62.2881 102.799 62.2881 124.316C62.2881 157.885 90.2012 185.102 124.619 185.102C128.884 185.102 133.039 184.689 137.064 183.884C139.087 183.688 140.588 183.579 141.415 185.733C141.981 187.169 141.372 188.714 139.087 189.236Z" fill="#0090CC" stroke="#0090CC" stroke-width="2.98058" stroke-miterlimit="2.61"/>
<path fill-rule="evenodd" clip-rule="evenodd" d="M109.847 58.0032C114.502 57.0242 119.354 56.5021 124.315 56.5021C161.931 56.5021 192.433 86.2427 192.433 122.923C192.433 145.724 180.641 165.848 162.692 177.814H183.339C184.884 177.814 186.167 179.076 186.167 180.642C186.167 182.209 184.905 183.471 183.339 183.471H153.163C153.163 183.471 153.011 183.471 152.924 183.471C152.554 183.492 152.184 183.471 151.814 183.34C150.335 182.84 149.53 181.252 150.03 179.772L159.559 151.141C160.06 149.662 161.648 148.857 163.127 149.357C164.607 149.858 165.412 151.468 164.912 152.925L157.841 174.159C175.137 163.346 186.602 144.462 186.602 122.945C186.602 89.3755 158.689 62.1587 124.271 62.1587C120.007 62.1587 115.851 62.572 111.827 63.377C109.803 63.5728 108.302 63.6816 107.476 61.5277C106.91 60.0918 107.519 58.5471 109.803 58.025L109.847 58.0032Z" fill="#808285" stroke="#808285" stroke-width="2.98058" stroke-miterlimit="2.61"/>
</svg>
