<svg width="250" height="250" viewBox="0 0 250 250" fill="none" xmlns="http://www.w3.org/2000/svg">
<mask id="path-1-inside-1_93_570" fill="white">
<path d="M0 125C0 55.9644 55.9644 0 125 0C194.036 0 250 55.9644 250 125C250 194.036 194.036 250 125 250C55.9644 250 0 194.036 0 125Z"/>
</mask>
<path d="M0 125C0 55.9644 55.9644 0 125 0C194.036 0 250 55.9644 250 125C250 194.036 194.036 250 125 250C55.9644 250 0 194.036 0 125Z" fill="white"/>
<path d="M0 125M250 125M250 125M0 125M125 0M250 125M125 250M0 125M125 250V248C57.069 248 2 192.931 2 125H0H-2C-2 195.14 54.8598 252 125 252V250ZM250 125H248C248 192.931 192.931 248 125 248V250V252C195.14 252 252 195.14 252 125H250ZM125 0V2C192.931 2 248 57.069 248 125H250H252C252 54.8598 195.14 -2 125 -2V0ZM125 0V-2C54.8598 -2 -2 54.8598 -2 125H0H2C2 57.069 57.069 2 125 2V0Z" fill="#DDDBDB" mask="url(#path-1-inside-1_93_570)"/>
<mask id="mask0_93_570" style="mask-type:luminance" maskUnits="userSpaceOnUse" x="73" y="74" width="103" height="99">
<path d="M124.467 74.4731C152.489 74.4731 175.181 96.4687 175.181 123.62C175.181 150.772 152.467 172.767 124.467 172.767C96.4674 172.767 73.7539 150.75 73.7539 123.62C73.7539 96.4903 96.4674 74.4731 124.467 74.4731Z" fill="white"/>
</mask>
<g mask="url(#mask0_93_570)">
<path fill-rule="evenodd" clip-rule="evenodd" d="M166.414 58.3735L190.715 163.956L82.5223 188.867L58.2207 83.2843L166.414 58.3735Z" fill="#0090CC"/>
<path fill-rule="evenodd" clip-rule="evenodd" d="M118.464 105.215C118.768 105.149 118.986 104.823 118.899 104.519C118.834 104.214 118.507 104.018 118.203 104.083C117.898 104.148 117.68 104.475 117.767 104.78C117.833 105.084 118.159 105.28 118.464 105.215Z" fill="white"/>
<path fill-rule="evenodd" clip-rule="evenodd" d="M118.42 105.041C118.638 104.998 118.768 104.78 118.725 104.585C118.681 104.389 118.464 104.258 118.268 104.302C118.05 104.345 117.92 104.563 117.985 104.759C118.029 104.954 118.246 105.085 118.442 105.041H118.42ZM118.551 105.607C119.073 105.477 119.399 104.976 119.29 104.454C119.182 103.932 118.66 103.627 118.138 103.736C117.615 103.867 117.289 104.367 117.398 104.889C117.507 105.411 118.029 105.716 118.551 105.607Z" fill="#FCFDFD"/>
<path fill-rule="evenodd" clip-rule="evenodd" d="M118.507 105.41C118.92 105.323 119.181 104.91 119.094 104.496C119.007 104.083 118.572 103.822 118.159 103.93C117.745 104.018 117.484 104.431 117.571 104.844C117.658 105.258 118.072 105.519 118.507 105.41ZM118.637 105.976C119.377 105.802 119.834 105.084 119.66 104.366C119.486 103.648 118.768 103.191 118.028 103.365C117.288 103.539 116.832 104.257 117.006 104.975C117.18 105.693 117.898 106.15 118.637 105.976Z" fill="#FAFCFD"/>
<path fill-rule="evenodd" clip-rule="evenodd" d="M118.594 105.78C119.225 105.628 119.616 105.019 119.464 104.41C119.312 103.801 118.703 103.409 118.072 103.561C117.441 103.714 117.049 104.323 117.202 104.932C117.354 105.541 117.963 105.933 118.594 105.78ZM118.724 106.346C119.66 106.128 120.269 105.193 120.052 104.279C119.834 103.343 118.898 102.778 117.963 102.996C117.028 103.213 116.418 104.149 116.636 105.062C116.854 105.998 117.789 106.563 118.724 106.346Z" fill="#F8FAFC"/>
<path fill-rule="evenodd" clip-rule="evenodd" d="M118.682 106.15C119.53 105.954 120.053 105.127 119.857 104.301C119.661 103.474 118.834 102.973 117.986 103.169C117.137 103.365 116.615 104.192 116.811 105.018C117.007 105.845 117.833 106.346 118.682 106.15ZM118.812 106.716C119.966 106.454 120.683 105.323 120.422 104.192C120.161 103.06 119.008 102.365 117.855 102.625C116.702 102.886 115.984 104.018 116.245 105.149C116.506 106.28 117.659 106.977 118.812 106.716Z" fill="#F6F9FC"/>
<path fill-rule="evenodd" clip-rule="evenodd" d="M118.768 106.521C119.812 106.281 120.465 105.259 120.226 104.214C119.986 103.192 118.942 102.539 117.898 102.778C116.854 103.017 116.201 104.04 116.44 105.085C116.68 106.107 117.724 106.76 118.768 106.521ZM118.898 107.086C120.269 106.782 121.118 105.433 120.813 104.105C120.508 102.778 119.159 101.93 117.789 102.256C116.418 102.561 115.57 103.91 115.874 105.237C116.179 106.564 117.528 107.412 118.898 107.086Z" fill="#F6F9FC"/>
<path fill-rule="evenodd" clip-rule="evenodd" d="M118.834 106.89C120.096 106.608 120.879 105.368 120.596 104.127C120.313 102.888 119.073 102.126 117.811 102.409C116.549 102.692 115.766 103.932 116.049 105.172C116.332 106.412 117.572 107.173 118.834 106.89ZM118.964 107.456C120.531 107.086 121.532 105.542 121.161 103.997C120.813 102.452 119.247 101.495 117.68 101.865C116.114 102.235 115.113 103.779 115.483 105.324C115.831 106.869 117.398 107.826 118.964 107.456Z" fill="#F4F8FB"/>
<path fill-rule="evenodd" clip-rule="evenodd" d="M118.919 107.282C120.377 106.934 121.312 105.498 120.986 104.062C120.66 102.626 119.202 101.734 117.723 102.06C116.265 102.408 115.329 103.844 115.656 105.28C115.982 106.716 117.44 107.608 118.919 107.282ZM119.05 107.848C120.834 107.434 121.943 105.694 121.552 103.931C121.138 102.191 119.376 101.103 117.592 101.517C115.808 101.93 114.699 103.67 115.09 105.433C115.503 107.173 117.266 108.261 119.05 107.848Z" fill="#F3F7FB"/>
<path fill-rule="evenodd" clip-rule="evenodd" d="M119.008 107.653C120.683 107.261 121.727 105.629 121.357 103.976C120.987 102.322 119.312 101.3 117.637 101.691C115.962 102.083 114.917 103.715 115.287 105.368C115.657 107.022 117.332 108.044 119.008 107.653ZM119.138 108.218C121.14 107.761 122.38 105.803 121.923 103.845C121.466 101.887 119.486 100.669 117.506 101.126C115.505 101.582 114.265 103.541 114.722 105.499C115.178 107.457 117.158 108.675 119.138 108.218Z" fill="#F0F6FA"/>
<path fill-rule="evenodd" clip-rule="evenodd" d="M119.095 108.022C120.988 107.587 122.163 105.737 121.727 103.888C121.292 102.039 119.421 100.886 117.55 101.321C115.657 101.756 114.483 103.605 114.918 105.455C115.353 107.304 117.224 108.457 119.095 108.022ZM119.226 108.587C121.423 108.087 122.815 105.911 122.315 103.758C121.814 101.603 119.639 100.255 117.42 100.755C115.222 101.256 113.83 103.431 114.33 105.585C114.831 107.739 117.006 109.088 119.226 108.587Z" fill="#EFF5FA"/>
<path fill-rule="evenodd" clip-rule="evenodd" d="M119.181 108.392C121.269 107.913 122.596 105.847 122.118 103.802C121.639 101.735 119.55 100.473 117.462 100.952C115.373 101.43 114.046 103.497 114.525 105.542C115.003 107.609 117.092 108.871 119.181 108.392ZM119.311 108.958C121.726 108.414 123.227 106.043 122.683 103.671C122.139 101.3 119.746 99.8422 117.331 100.386C114.916 100.93 113.415 103.301 113.959 105.673C114.503 108.044 116.896 109.502 119.311 108.958Z" fill="#EFF5FA"/>
<path fill-rule="evenodd" clip-rule="evenodd" d="M119.268 108.761C121.574 108.239 123.009 105.976 122.509 103.692C121.987 101.429 119.703 100.015 117.397 100.559C115.09 101.081 113.654 103.343 114.155 105.628C114.677 107.89 116.961 109.304 119.268 108.761ZM119.398 109.326C122.009 108.717 123.662 106.15 123.075 103.583C122.488 101.015 119.877 99.4057 117.266 100.015C114.655 100.624 113.002 103.191 113.589 105.758C114.177 108.326 116.787 109.936 119.398 109.326Z" fill="#ECF4F9"/>
<path fill-rule="evenodd" clip-rule="evenodd" d="M119.356 109.131C121.88 108.544 123.446 106.085 122.881 103.605C122.315 101.125 119.813 99.6022 117.289 100.189C114.765 100.777 113.199 103.235 113.765 105.716C114.33 108.174 116.833 109.718 119.356 109.131ZM119.487 109.697C122.315 109.044 124.099 106.259 123.446 103.496C122.815 100.712 119.987 98.993 117.159 99.6457C114.33 100.298 112.547 103.083 113.199 105.846C113.83 108.631 116.659 110.35 119.487 109.697Z" fill="#EAF2F9"/>
<path fill-rule="evenodd" clip-rule="evenodd" d="M119.442 109.502C122.161 108.871 123.88 106.195 123.249 103.519C122.64 100.843 119.92 99.1894 117.201 99.8205C114.481 100.451 112.763 103.128 113.372 105.803C113.981 108.479 116.7 110.133 119.42 109.502H119.442ZM119.572 110.067C122.618 109.372 124.511 106.391 123.836 103.389C123.14 100.408 120.138 98.5586 117.092 99.2548C114.046 99.951 112.153 102.932 112.828 105.934C113.524 108.914 116.526 110.764 119.572 110.067Z" fill="#E9F1F9"/>
<path fill-rule="evenodd" clip-rule="evenodd" d="M119.528 109.872C122.466 109.198 124.293 106.304 123.641 103.432C122.988 100.561 120.051 98.7545 117.135 99.4292C114.198 100.103 112.371 102.997 113.023 105.869C113.676 108.741 116.613 110.547 119.528 109.872ZM119.659 110.438C122.901 109.698 124.946 106.5 124.206 103.302C123.467 100.103 120.247 98.1238 117.005 98.8851C113.763 99.6248 111.718 102.823 112.458 106.021C113.197 109.219 116.417 111.199 119.659 110.438Z" fill="#E6F0F8"/>
<path fill-rule="evenodd" clip-rule="evenodd" d="M119.617 110.263C122.772 109.545 124.73 106.456 124.034 103.367C123.316 100.277 120.204 98.3626 117.05 99.0804C113.895 99.7986 111.937 102.888 112.633 105.977C113.351 109.067 116.463 110.981 119.617 110.263ZM119.748 110.829C123.207 110.024 125.383 106.63 124.599 103.236C123.816 99.8421 120.379 97.7319 116.919 98.5367C113.46 99.3415 111.285 102.736 112.068 106.13C112.851 109.524 116.289 111.634 119.748 110.829Z" fill="#E6F0F8"/>
<path fill-rule="evenodd" clip-rule="evenodd" d="M119.703 110.632C123.053 109.87 125.163 106.563 124.402 103.278C123.641 99.9931 120.312 97.948 116.962 98.7096C113.611 99.4709 111.501 102.778 112.262 106.063C113.023 109.348 116.352 111.393 119.703 110.632ZM119.833 111.198C123.51 110.349 125.794 106.759 124.968 103.148C124.141 99.5364 120.486 97.3172 116.831 98.1655C113.154 99.0142 110.87 102.604 111.696 106.215C112.523 109.805 116.178 112.046 119.833 111.198Z" fill="#E5EFF8"/>
<path fill-rule="evenodd" clip-rule="evenodd" d="M119.79 111.003C123.358 110.176 125.599 106.674 124.794 103.193C123.989 99.69 120.443 97.5143 116.875 98.3411C113.307 99.1678 111.066 102.67 111.871 106.152C112.676 109.654 116.222 111.83 119.79 111.003ZM119.92 111.569C123.793 110.677 126.23 106.869 125.36 103.062C124.489 99.2549 120.639 96.8836 116.744 97.7754C112.872 98.6676 110.435 102.475 111.305 106.282C112.175 110.089 116.026 112.461 119.92 111.569Z" fill="#E3EEF7"/>
<path fill-rule="evenodd" clip-rule="evenodd" d="M119.878 111.373C123.642 110.502 126.013 106.804 125.165 103.105C124.316 99.4067 120.553 97.1005 116.789 97.9707C113.025 98.841 110.654 102.54 111.502 106.238C112.351 109.937 116.093 112.243 119.878 111.373ZM120.009 111.938C124.099 111.003 126.666 106.978 125.731 102.975C124.817 98.9716 120.749 96.4697 116.658 97.4051C112.568 98.3408 110.001 102.366 110.937 106.368C111.85 110.372 115.919 112.874 120.009 111.938Z" fill="#E1EDF7"/>
<path fill-rule="evenodd" clip-rule="evenodd" d="M119.965 111.743C123.946 110.829 126.448 106.913 125.556 102.997C124.664 99.0808 120.704 96.6659 116.723 97.5797C112.742 98.4931 110.24 102.409 111.154 106.326C112.045 110.242 116.005 112.657 119.986 111.743H119.965ZM120.095 112.308C124.381 111.329 127.079 107.109 126.122 102.888C125.143 98.6672 120.878 96.0568 116.592 97.0356C112.307 98.0149 109.609 102.235 110.566 106.456C111.545 110.677 115.809 113.287 120.095 112.308Z" fill="#E1EDF7"/>
<path fill-rule="evenodd" clip-rule="evenodd" d="M120.051 112.111C124.25 111.154 126.882 107.02 125.925 102.909C124.968 98.7964 120.812 96.2294 116.614 97.2083C112.415 98.1656 109.782 102.299 110.739 106.411C111.697 110.523 115.852 113.09 120.051 112.111ZM120.182 112.677C124.685 111.632 127.514 107.216 126.491 102.778C125.468 98.3612 120.987 95.5983 116.483 96.6426C111.98 97.6869 109.151 102.103 110.174 106.52C111.196 110.936 115.678 113.7 120.182 112.655V112.677Z" fill="#DFECF6"/>
<path fill-rule="evenodd" clip-rule="evenodd" d="M120.139 112.482C124.534 111.459 127.297 107.151 126.296 102.822C125.295 98.4926 120.922 95.8167 116.528 96.8391C112.133 97.8615 109.37 102.169 110.371 106.499C111.372 110.828 115.745 113.504 120.139 112.482ZM120.27 113.047C124.991 111.959 127.95 107.325 126.884 102.691C125.818 98.0575 121.14 95.1856 116.419 96.2734C111.698 97.3612 108.739 101.995 109.805 106.629C110.871 111.263 115.549 114.135 120.27 113.047Z" fill="#DDEBF6"/>
<path fill-rule="evenodd" clip-rule="evenodd" d="M120.226 112.851C124.838 111.785 127.732 107.259 126.687 102.734C125.643 98.209 121.074 95.4026 116.462 96.4685C111.85 97.5344 108.956 102.06 110 106.585C111.045 111.11 115.613 113.917 120.226 112.851ZM120.356 113.416C125.273 112.285 128.362 107.434 127.253 102.604C126.143 97.7739 121.248 94.7715 116.331 95.9028C111.414 97.0342 108.325 101.886 109.435 106.716C110.544 111.545 115.439 114.548 120.356 113.416Z" fill="#DBE9F5"/>
<path fill-rule="evenodd" clip-rule="evenodd" d="M120.291 113.243C125.121 112.133 128.145 107.39 127.057 102.669C125.969 97.9267 121.183 94.9894 116.353 96.0992C111.523 97.2086 108.499 101.952 109.587 106.673C110.675 111.415 115.461 114.353 120.291 113.243ZM120.421 113.808C125.556 112.634 128.776 107.586 127.623 102.539C126.47 97.4916 121.357 94.3586 116.222 95.555C111.088 96.7299 107.868 101.777 109.021 106.825C110.174 111.872 115.287 115.005 120.421 113.808Z" fill="#DAE8F5"/>
<path fill-rule="evenodd" clip-rule="evenodd" d="M120.379 113.612C125.404 112.459 128.559 107.521 127.428 102.582C126.297 97.643 121.293 94.5755 116.267 95.7288C111.241 96.8817 108.087 101.82 109.218 106.759C110.35 111.697 115.353 114.765 120.379 113.612ZM120.509 114.178C125.862 112.938 129.212 107.695 127.994 102.451C126.775 97.2082 121.467 93.9447 116.136 95.1847C110.785 96.425 107.434 101.668 108.652 106.911C109.871 112.155 115.179 115.418 120.509 114.178Z" fill="#DAE8F5"/>
<path fill-rule="evenodd" clip-rule="evenodd" d="M120.466 113.983C125.709 112.786 128.994 107.63 127.798 102.474C126.623 97.3393 121.401 94.1412 116.158 95.3376C110.915 96.5344 107.63 101.691 108.826 106.825C110.023 111.959 115.223 115.157 120.466 113.961V113.983ZM120.596 114.548C126.144 113.265 129.625 107.804 128.385 102.365C127.123 96.9041 121.619 93.532 116.049 94.8155C110.502 96.0993 107.02 101.56 108.26 106.999C109.522 112.46 115.027 115.832 120.596 114.548Z" fill="#D7E7F4"/>
<path fill-rule="evenodd" clip-rule="evenodd" d="M120.552 114.353C125.991 113.091 129.428 107.739 128.188 102.387C126.948 97.035 121.531 93.728 116.092 94.968C110.653 96.2298 107.215 101.582 108.456 106.934C109.695 112.286 115.113 115.593 120.552 114.353ZM120.682 114.918C126.448 113.591 130.059 107.935 128.754 102.278C127.449 96.6215 121.727 93.1188 115.961 94.4242C110.196 95.7512 106.584 101.408 107.89 107.064C109.195 112.721 114.917 116.224 120.682 114.918Z" fill="#D5E6F3"/>
<path fill-rule="evenodd" clip-rule="evenodd" d="M120.638 114.723C126.295 113.417 129.841 107.87 128.579 102.3C127.296 96.752 121.682 93.2929 116.026 94.5983C110.369 95.9037 106.823 101.452 108.085 107.021C109.368 112.569 114.982 116.028 120.638 114.723ZM120.769 115.288C126.751 113.918 130.494 108.044 129.145 102.191C127.796 96.3169 121.856 92.6837 115.895 94.0542C109.912 95.4251 106.17 101.299 107.519 107.151C108.868 113.026 114.808 116.659 120.769 115.288Z" fill="#D3E5F3"/>
<path fill-rule="evenodd" clip-rule="evenodd" d="M120.727 115.093C126.601 113.744 130.278 107.979 128.95 102.213C127.623 96.448 121.793 92.8802 115.919 94.2288C110.044 95.5777 106.367 101.343 107.695 107.108C109.022 112.874 114.853 116.442 120.727 115.093ZM120.857 115.659C127.036 114.245 130.93 108.153 129.516 102.083C128.124 96.0128 121.967 92.2491 115.788 93.6635C109.609 95.0775 105.737 101.169 107.129 107.239C108.522 113.309 114.679 117.073 120.857 115.659Z" fill="#D1E4F3"/>
<path fill-rule="evenodd" clip-rule="evenodd" d="M120.813 115.462C126.883 114.07 130.712 108.087 129.32 102.126C127.949 96.1646 121.901 92.4662 115.831 93.8588C109.761 95.2508 105.932 101.234 107.303 107.195C108.673 113.156 114.721 116.877 120.791 115.462H120.813ZM120.943 116.028C127.34 114.549 131.343 108.283 129.907 101.995C128.471 95.7295 122.118 91.8353 115.722 93.2931C109.326 94.7722 105.323 101.038 106.758 107.326C108.194 113.591 114.547 117.486 120.943 116.028Z" fill="#D1E4F3"/>
<path fill-rule="evenodd" clip-rule="evenodd" d="M120.9 115.832C127.188 114.396 131.126 108.218 129.712 102.039C128.298 95.8601 122.032 92.0311 115.744 93.4888C109.457 94.9463 105.519 101.103 106.933 107.282C108.347 113.461 114.613 117.29 120.9 115.832ZM121.031 116.398C127.623 114.875 131.778 108.392 130.277 101.908C128.776 95.4249 122.228 91.4002 115.614 92.9231C109.022 94.4461 104.866 100.929 106.367 107.413C107.869 113.896 114.417 117.921 121.031 116.398Z" fill="#D0E3F2"/>
<path fill-rule="evenodd" clip-rule="evenodd" d="M120.988 116.224C127.493 114.723 131.561 108.348 130.104 101.974C128.646 95.5991 122.184 91.6394 115.679 93.1408C109.174 94.6418 105.106 101.016 106.564 107.391C108.021 113.765 114.483 117.725 120.988 116.224ZM121.118 116.789C127.928 115.223 132.192 108.522 130.669 101.843C129.124 95.164 122.358 91.0085 115.549 92.575C108.739 94.1416 104.475 100.842 105.998 107.521C107.542 114.201 114.309 118.356 121.118 116.789Z" fill="#CDE1F2"/>
<path fill-rule="evenodd" clip-rule="evenodd" d="M121.074 116.594C127.775 115.05 131.996 108.458 130.473 101.887C128.95 95.295 122.292 91.2267 115.591 92.7714C108.891 94.3161 104.67 100.908 106.193 107.478C107.716 114.07 114.373 118.139 121.074 116.616V116.594ZM121.205 117.16C128.232 115.55 132.627 108.653 131.038 101.757C129.45 94.8598 122.467 90.5958 115.461 92.2058C108.434 93.8159 104.039 100.712 105.627 107.609C107.216 114.506 114.199 118.77 121.205 117.16Z" fill="#CCE1F1"/>
<path fill-rule="evenodd" clip-rule="evenodd" d="M121.162 116.963C128.08 115.375 132.41 108.587 130.865 101.777C129.298 94.9892 122.423 90.7686 115.505 92.3569C108.587 93.9452 104.257 100.755 105.802 107.543C107.347 114.33 114.243 118.551 121.162 116.963ZM121.292 117.529C128.515 115.853 133.062 108.761 131.43 101.668C129.799 94.576 122.619 90.1595 115.375 91.8347C108.151 93.5101 103.604 100.602 105.236 107.695C106.868 114.787 114.047 119.204 121.292 117.529Z" fill="#CCE1F1"/>
<path fill-rule="evenodd" clip-rule="evenodd" d="M121.248 117.334C128.384 115.702 132.844 108.696 131.234 101.691C129.624 94.6854 122.532 90.3559 115.417 91.9876C108.281 93.6195 103.821 100.625 105.431 107.63C107.041 114.636 114.133 118.965 121.248 117.334ZM121.378 117.899C128.819 116.18 133.497 108.87 131.8 101.582C130.124 94.2718 122.727 89.7468 115.287 91.4655C107.846 93.1844 103.168 100.494 104.865 107.783C106.541 115.092 113.938 119.618 121.378 117.899Z" fill="#C9DFF1"/>
<path fill-rule="evenodd" clip-rule="evenodd" d="M121.335 117.703C128.667 116.006 133.279 108.805 131.626 101.603C129.973 94.4022 122.684 89.9421 115.352 91.6174C108.021 93.3143 103.408 100.516 105.062 107.717C106.715 114.918 114.003 119.378 121.335 117.703ZM121.466 118.269C129.124 116.506 133.91 109 132.192 101.473C130.473 93.967 122.858 89.3112 115.222 91.0517C107.563 92.814 102.777 100.32 104.496 107.847C106.215 115.353 113.829 120.009 121.466 118.247V118.269Z" fill="#C8DEF0"/>
<path fill-rule="evenodd" clip-rule="evenodd" d="M121.423 118.073C128.972 116.332 133.693 108.913 131.996 101.517C130.299 94.1193 122.793 89.5071 115.244 91.2476C107.694 92.9883 102.973 100.407 104.67 107.804C106.367 115.201 113.873 119.813 121.423 118.073ZM121.553 118.639C129.407 116.833 134.346 109.109 132.562 101.386C130.778 93.6626 122.967 88.8762 115.113 90.682C107.259 92.4877 102.321 100.211 104.105 107.935C105.889 115.658 113.699 120.444 121.553 118.639Z" fill="#C6DDF0"/>
<path fill-rule="evenodd" clip-rule="evenodd" d="M121.509 118.442C129.254 116.658 134.127 109.043 132.387 101.429C130.625 93.8141 122.923 89.093 115.178 90.8771C107.433 92.661 102.559 100.276 104.3 107.89C106.062 115.505 113.764 120.226 121.509 118.442ZM121.639 119.008C129.711 117.159 134.78 109.218 132.953 101.298C131.125 93.379 123.119 88.4621 115.047 90.3114C106.976 92.1607 101.907 100.102 103.734 108.021C105.562 115.94 113.568 120.857 121.639 119.008Z" fill="#C3DCEF"/>
<path fill-rule="evenodd" clip-rule="evenodd" d="M121.595 118.813C129.558 116.985 134.562 109.153 132.756 101.342C130.95 93.532 123.031 88.6803 115.068 90.5079C107.106 92.3353 102.102 100.168 103.908 107.978C105.713 115.789 113.633 120.64 121.595 118.813ZM121.726 119.378C129.993 117.464 135.193 109.349 133.322 101.212C131.451 93.0749 123.227 88.0494 114.938 89.9422C106.671 91.8567 101.471 99.9716 103.342 108.109C105.213 116.245 113.437 121.271 121.726 119.378Z" fill="#C3DCEF"/>
<path fill-rule="evenodd" clip-rule="evenodd" d="M121.662 119.205C129.843 117.334 134.955 109.285 133.128 101.278C131.278 93.2501 123.163 88.2681 114.983 90.1609C106.803 92.0319 101.69 100.082 103.518 108.088C105.367 116.116 113.482 121.098 121.662 119.205ZM121.793 119.771C130.278 117.813 135.608 109.48 133.693 101.148C131.779 92.8152 123.338 87.6372 114.852 89.5953C106.368 91.5533 101.037 99.8858 102.952 108.218C104.867 116.551 113.308 121.729 121.793 119.771Z" fill="#C2DBEF"/>
<path fill-rule="evenodd" clip-rule="evenodd" d="M121.748 119.574C130.125 117.638 135.39 109.414 133.497 101.168C131.604 92.9444 123.271 87.8317 114.895 89.768C106.519 91.7043 101.254 99.9281 103.147 108.174C105.04 116.397 113.373 121.51 121.748 119.574ZM121.879 120.14C130.582 118.138 136.042 109.588 134.062 101.059C132.105 92.5093 123.445 87.2226 114.765 89.2241C106.062 91.2257 100.602 99.776 102.581 108.304C104.539 116.833 113.199 122.141 121.879 120.14Z" fill="#BFD9EE"/>
<path fill-rule="evenodd" clip-rule="evenodd" d="M121.835 119.945C130.429 117.965 135.824 109.524 133.866 101.082C131.93 92.641 123.38 87.4196 114.786 89.3994C106.192 91.3792 100.797 99.8206 102.755 108.262C104.691 116.703 113.242 121.925 121.835 119.967V119.945ZM121.966 120.511C130.864 118.466 136.455 109.72 134.454 100.974C132.452 92.2276 123.597 86.8104 114.677 88.8555C105.779 90.9005 100.188 99.6465 102.189 108.392C104.213 117.138 113.046 122.556 121.966 120.511Z" fill="#BED9EE"/>
<path fill-rule="evenodd" clip-rule="evenodd" d="M121.923 120.313C130.734 118.29 136.239 109.631 134.259 100.994C132.279 92.3568 123.512 86.983 114.722 89.0063C105.911 91.0296 100.407 99.6886 102.386 108.326C104.366 116.963 113.134 122.337 121.923 120.313ZM122.054 120.879C131.17 118.79 136.891 109.827 134.825 100.864C132.758 91.9216 123.707 86.3521 114.592 88.4624C105.476 90.551 99.7539 99.5146 101.821 108.478C103.887 117.42 112.938 122.989 122.054 120.879Z" fill="#BBD7ED"/>
<path fill-rule="evenodd" clip-rule="evenodd" d="M122.01 120.684C131.017 118.617 136.673 109.762 134.65 100.907C132.605 92.0526 123.663 86.57 114.634 88.6369C105.627 90.7037 99.971 99.5583 101.994 108.413C104.039 117.268 112.981 122.75 122.01 120.684ZM122.14 121.249C131.474 119.096 137.326 109.936 135.216 100.777C133.105 91.6175 123.837 85.9391 114.504 88.093C105.171 90.2468 99.3183 99.4062 101.429 108.566C103.539 117.725 112.807 123.403 122.14 121.249Z" fill="#BBD7ED"/>
<path fill-rule="evenodd" clip-rule="evenodd" d="M122.096 121.053C131.321 118.921 137.108 109.87 135.019 100.82C132.931 91.7692 123.771 86.1562 114.547 88.2665C105.322 90.3986 99.535 99.4491 101.624 108.5C103.712 117.55 112.871 123.163 122.096 121.053ZM122.227 121.619C131.756 119.421 137.739 110.066 135.585 100.689C133.431 91.3341 123.945 85.5252 114.416 87.7226C104.887 89.92 98.9043 99.2969 101.058 108.652C103.212 118.007 112.697 123.816 122.227 121.619Z" fill="#BAD6ED"/>
<path fill-rule="evenodd" clip-rule="evenodd" d="M122.184 121.424C131.605 119.248 137.523 109.98 135.39 100.734C133.258 91.4653 123.881 85.7217 114.461 87.8973C105.041 90.0729 99.1229 99.3411 101.233 108.588C103.365 117.856 112.742 123.599 122.163 121.424H122.184ZM122.315 121.989C132.062 119.748 138.175 110.176 135.978 100.603C133.78 91.0302 124.099 85.0908 114.352 87.3317C104.606 89.5726 98.4921 99.1451 100.689 108.718C102.887 118.291 112.568 124.23 122.315 121.989Z" fill="#B8D5EC"/>
<path fill-rule="evenodd" clip-rule="evenodd" d="M122.271 121.793C131.909 119.574 137.957 110.11 135.782 100.646C133.606 91.182 124.012 85.3079 114.374 87.527C104.736 89.7461 98.6876 99.2099 100.863 108.674C103.039 118.138 112.633 124.012 122.271 121.793ZM122.402 122.358C132.366 120.074 138.61 110.284 136.347 100.515C134.106 90.7469 124.207 84.6769 114.243 86.9613C104.279 89.2457 98.0349 99.0359 100.297 108.804C102.538 118.573 112.437 124.643 122.402 122.358Z" fill="#B6D4EC"/>
<path fill-rule="evenodd" clip-rule="evenodd" d="M122.357 122.186C132.213 119.923 138.392 110.241 136.172 100.56C133.953 90.8786 124.163 84.8956 114.307 87.1583C104.452 89.4209 98.2732 99.1022 100.492 108.784C102.712 118.443 112.502 124.448 122.357 122.186ZM122.488 122.751C132.648 120.402 139.022 110.415 136.738 100.451C134.432 90.4652 124.337 84.2864 114.177 86.6143C104.017 88.964 97.6424 98.9501 99.9267 108.914C102.233 118.9 112.328 125.079 122.488 122.751Z" fill="#B4D3EB"/>
<path fill-rule="evenodd" clip-rule="evenodd" d="M122.445 122.554C132.497 120.248 138.828 110.349 136.543 100.472C134.281 90.5945 124.273 84.4593 114.221 86.7871C104.17 89.0933 97.8391 98.9924 100.123 108.87C102.386 118.747 112.394 124.882 122.445 122.554ZM122.576 123.12C132.953 120.727 139.458 110.545 137.109 100.363C134.759 90.1811 124.447 83.8501 114.091 86.2433C103.713 88.6364 97.2084 98.8183 99.5581 109C101.907 119.182 112.22 125.513 122.576 123.12Z" fill="#B4D3EB"/>
<path fill-rule="evenodd" clip-rule="evenodd" d="M122.531 122.924C132.8 120.553 139.239 110.48 136.934 100.385C134.605 90.3118 124.402 84.0461 114.133 86.4175C103.864 88.7889 97.4244 98.8619 99.7306 108.957C102.058 119.03 112.262 125.296 122.531 122.924ZM122.662 123.49C133.235 121.053 139.892 110.654 137.499 100.254C135.106 89.855 124.598 83.4152 114.002 85.8518C103.429 88.2885 96.7717 98.6878 99.165 109.066C101.558 119.465 112.066 125.905 122.662 123.468V123.49Z" fill="#B2D2EB"/>
<path fill-rule="evenodd" clip-rule="evenodd" d="M122.618 123.295C133.105 120.88 139.675 110.59 137.304 100.299C134.932 90.0084 124.511 83.6339 114.046 86.0488C103.56 88.4638 96.9895 98.7544 99.3611 109.045C101.732 119.335 112.154 125.71 122.618 123.295ZM122.749 123.861C133.54 121.381 140.306 110.764 137.869 100.169C135.433 89.5733 124.707 83.003 113.916 85.4832C103.125 87.9634 96.3587 98.5803 98.7955 109.176C101.232 119.771 111.958 126.341 122.749 123.861Z" fill="#B0D1EA"/>
<path fill-rule="evenodd" clip-rule="evenodd" d="M122.705 123.665C133.387 121.206 140.11 110.699 137.695 100.212C135.28 89.7256 124.663 83.1987 113.959 85.6572C103.277 88.1156 96.5543 98.6237 98.9691 109.11C101.384 119.597 112.001 126.124 122.705 123.665ZM122.836 124.231C133.844 121.707 140.741 110.894 138.261 100.082C135.78 89.2687 124.837 82.5678 113.828 85.1133C102.82 87.637 95.9231 98.4497 98.4034 109.263C100.884 120.076 111.827 126.776 122.836 124.231Z" fill="#ADCFEA"/>
<path fill-rule="evenodd" clip-rule="evenodd" d="M122.792 124.035C133.692 121.532 140.524 110.828 138.065 100.124C135.607 89.4205 124.772 82.7849 113.872 85.2868C102.972 87.7888 96.1409 98.4929 98.5993 109.197C101.058 119.901 111.892 126.536 122.792 124.035ZM122.923 124.6C134.127 122.011 141.176 111.002 138.631 99.9939C136.107 88.9854 124.946 82.1539 113.742 84.7429C102.537 87.3319 95.4882 98.3404 98.0336 109.349C100.557 120.358 111.718 127.189 122.923 124.6Z" fill="#ADCFEA"/>
<path fill-rule="evenodd" clip-rule="evenodd" d="M122.88 124.404C133.997 121.837 140.959 110.937 138.457 100.037C135.955 89.1371 124.903 82.371 113.807 84.9165C102.69 87.4837 95.728 98.3836 98.2299 109.283C100.732 120.183 111.784 126.949 122.88 124.404ZM123.01 124.97C134.432 122.337 141.59 111.111 139.022 99.9062C136.434 88.702 125.099 81.7401 113.677 84.3726C102.255 87.0051 95.0969 98.2312 97.6642 109.436C100.231 120.64 111.588 127.602 123.01 124.97Z" fill="#ACCFE9"/>
<path fill-rule="evenodd" clip-rule="evenodd" d="M122.966 124.774C134.279 122.163 141.393 111.046 138.826 99.9288C136.259 88.8115 125.011 81.9148 113.698 84.5256C102.385 87.1363 95.2704 98.2538 97.8377 109.371C100.405 120.488 111.653 127.385 122.966 124.774ZM123.096 125.34C134.736 122.664 142.024 111.242 139.392 99.8203C136.759 88.3981 125.207 81.3056 113.567 83.9816C101.928 86.6576 94.6396 98.0797 97.272 109.501C99.9044 120.924 111.457 128.016 123.096 125.34Z" fill="#A9CDE9"/>
<path fill-rule="evenodd" clip-rule="evenodd" d="M123.053 125.166C134.584 122.512 141.807 111.199 139.218 99.8635C136.607 88.5504 125.164 81.5232 113.633 84.1774C102.102 86.8317 94.8791 98.1449 97.468 109.48C100.079 120.793 111.522 127.82 123.053 125.166ZM123.184 125.732C135.019 123.012 142.46 111.373 139.784 99.7549C137.108 88.137 125.338 80.914 113.502 83.6335C101.667 86.353 94.2264 97.9924 96.9023 109.61C99.5786 121.228 111.348 128.451 123.184 125.732Z" fill="#A8CCE8"/>
<path fill-rule="evenodd" clip-rule="evenodd" d="M123.141 125.536C134.867 122.838 142.243 111.308 139.588 99.7771C136.934 88.2462 125.273 81.1102 113.546 83.808C101.82 86.5057 94.4444 98.0365 97.0987 109.567C99.753 121.098 111.414 128.234 123.141 125.536ZM123.272 126.102C135.324 123.339 142.873 111.482 140.154 99.6681C137.435 87.8328 125.447 80.501 113.394 83.2641C101.341 86.0271 93.7917 97.8841 96.5115 109.698C99.2309 121.533 111.218 128.865 123.272 126.102Z" fill="#A5CBE8"/>
<path fill-rule="evenodd" clip-rule="evenodd" d="M123.206 125.905C135.15 123.163 142.656 111.415 139.958 99.6886C137.26 87.9619 125.382 80.6736 113.437 83.4366C101.493 86.1779 93.9875 97.9262 96.6849 109.653C99.3828 121.379 111.262 128.667 123.206 125.905ZM123.336 126.47C135.607 123.642 143.287 111.611 140.523 99.5581C137.761 87.5268 125.577 80.0427 113.307 82.871C101.036 85.6993 93.3563 97.7305 96.1193 109.783C98.8825 121.814 111.066 129.299 123.336 126.47Z" fill="#A5CBE8"/>
<path fill-rule="evenodd" clip-rule="evenodd" d="M123.293 126.275C135.454 123.468 143.069 111.524 140.328 99.6018C137.587 87.6577 125.49 80.2606 113.35 83.0672C101.188 85.8737 93.5739 97.8178 96.3153 109.74C99.0566 121.684 111.153 129.081 123.293 126.275ZM123.423 126.841C135.89 123.969 143.722 111.72 140.894 99.4713C138.065 87.2226 125.686 79.6297 113.22 82.5015C100.753 85.3733 92.9212 97.6222 95.7496 109.871C98.578 122.12 110.957 129.712 123.423 126.841Z" fill="#A4CAE7"/>
<path fill-rule="evenodd" clip-rule="evenodd" d="M123.381 126.644C135.738 123.794 143.505 111.654 140.72 99.5142C137.935 87.3744 125.643 79.8468 113.264 82.6969C100.906 85.5469 93.1394 97.687 95.9243 109.827C98.7091 121.967 111.001 129.494 123.381 126.644ZM123.511 127.21C136.195 124.295 144.136 111.828 141.286 99.3836C138.414 86.9393 125.817 79.2159 113.133 82.1312C100.45 85.0465 92.5086 97.5129 95.3586 109.957C98.2305 122.402 110.827 130.125 123.511 127.21Z" fill="#A1C9E7"/>
<path fill-rule="evenodd" clip-rule="evenodd" d="M123.468 127.014C136.043 124.12 143.94 111.763 141.09 99.4274C138.24 87.0915 125.752 79.4116 113.177 82.3052C100.602 85.1988 92.7044 97.5563 95.5543 109.892C98.4046 122.228 110.893 129.908 123.468 127.014ZM123.598 127.58C136.478 124.621 144.571 111.959 141.656 99.2969C138.74 86.6346 125.926 78.7807 113.046 81.7613C100.167 84.7201 92.0734 97.3823 94.989 110.044C97.904 122.706 110.719 130.56 123.598 127.58Z" fill="#A0C8E6"/>
<path fill-rule="evenodd" clip-rule="evenodd" d="M123.554 127.385C136.347 124.448 144.353 111.873 141.459 99.3417C138.566 86.7884 125.86 78.9997 113.089 81.9368C100.297 84.8738 92.2905 97.4491 95.1623 110.002C98.0558 122.556 110.761 130.344 123.532 127.407L123.554 127.385ZM123.685 127.951C136.782 124.927 145.005 112.069 142.047 99.2112C139.088 86.3533 126.078 78.3688 112.981 81.3929C99.8834 84.4169 91.6595 97.275 94.6182 110.133C97.5772 122.99 110.587 130.975 123.685 127.951Z" fill="#9DC7E6"/>
<path fill-rule="evenodd" clip-rule="evenodd" d="M123.642 127.754C136.63 124.773 144.788 112.002 141.852 99.2316C138.914 86.4825 125.991 78.5633 113.003 81.5439C100.015 84.5244 91.8559 97.2954 94.793 110.066C97.73 122.815 110.653 130.734 123.642 127.754ZM123.772 128.319C137.087 125.252 145.419 112.176 142.417 99.1226C139.415 86.0474 126.187 77.9541 112.872 81.0217C99.5575 84.0893 91.225 97.1649 94.2273 110.219C97.2297 123.294 110.457 131.387 123.772 128.319Z" fill="#9DC7E6"/>
<path fill-rule="evenodd" clip-rule="evenodd" d="M123.729 128.145C136.935 125.1 145.224 112.133 142.243 99.1664C139.263 86.1996 126.144 78.1499 112.938 81.1957C99.7319 84.2416 91.4428 97.2083 94.4232 110.175C97.4041 123.142 110.523 131.191 123.729 128.145ZM123.86 128.711C137.37 125.6 145.855 112.329 142.809 99.0575C139.763 85.7863 126.318 77.5407 112.807 80.6519C99.2967 83.763 90.8119 97.0343 93.8575 110.306C96.9035 123.577 110.349 131.822 123.86 128.711Z" fill="#9BC6E5"/>
<path fill-rule="evenodd" clip-rule="evenodd" d="M123.815 128.516C137.239 125.427 145.637 112.242 142.612 99.0801C139.588 85.9176 126.252 77.7373 112.828 80.8266C99.4049 83.916 91.007 97.1004 94.0312 110.263C97.0552 123.425 110.392 131.605 123.815 128.516ZM123.946 129.082C137.674 125.927 146.289 112.438 143.178 98.9495C140.067 85.4825 126.426 77.1063 112.698 80.261C98.9698 83.4156 90.3543 96.9044 93.4655 110.393C96.5766 123.86 110.217 132.236 123.946 129.082Z" fill="#99C5E5"/>
<path fill-rule="evenodd" clip-rule="evenodd" d="M123.903 128.887C137.523 125.754 146.073 112.374 143.005 98.9935C139.916 85.6136 126.384 77.3246 112.764 80.4574C99.1449 83.5903 90.5948 96.9703 93.6626 110.35C96.7517 123.73 110.284 132.02 123.903 128.887ZM124.034 129.452C137.979 126.254 146.726 112.548 143.571 98.863C140.416 85.1785 126.579 76.6936 112.634 79.8918C98.6882 83.0899 89.9421 96.7963 93.0969 110.481C96.2514 124.166 110.088 132.65 124.034 129.452Z" fill="#97C3E4"/>
<path fill-rule="evenodd" clip-rule="evenodd" d="M123.99 129.255C137.827 126.079 146.508 112.481 143.375 98.9053C140.242 85.3296 126.492 76.8882 112.677 80.0864C98.8398 83.2628 90.1591 96.8605 93.292 110.436C96.425 124.012 110.175 132.453 123.99 129.255ZM124.12 129.821C138.262 126.558 147.138 112.655 143.94 98.7747C140.742 84.8945 126.688 76.2573 112.546 79.5207C98.4047 82.7841 89.5281 96.6645 92.7263 110.566C95.9244 124.447 109.979 133.084 124.12 129.821Z" fill="#97C3E4"/>
<path fill-rule="evenodd" clip-rule="evenodd" d="M124.076 129.625C138.109 126.384 146.92 112.591 143.766 98.8191C140.589 85.0256 126.643 76.4755 112.589 79.7172C98.5564 82.9588 89.7452 96.7524 92.9 110.524C96.0761 124.317 110.022 132.867 124.076 129.625ZM124.207 130.191C138.566 126.885 147.573 112.787 144.331 98.6885C141.09 84.5905 126.817 75.8446 112.459 79.1515C98.0997 82.4584 89.0925 96.5564 92.3342 110.654C95.5759 124.752 109.848 133.498 124.207 130.191Z" fill="#95C3E4"/>
<path fill-rule="evenodd" clip-rule="evenodd" d="M124.163 129.995C138.414 126.71 147.355 112.721 144.135 98.7314C140.916 84.7423 126.752 76.0616 112.502 79.3468C98.2521 82.632 89.3102 96.6211 92.5302 110.61C95.7499 124.6 109.913 133.28 124.163 129.995ZM124.294 130.561C138.849 127.21 148.008 112.895 144.701 98.6008C141.416 84.3072 126.926 75.4307 112.372 78.7811C97.817 82.1316 88.6576 96.4471 91.9645 110.741C95.2497 125.035 109.739 133.911 124.294 130.561Z" fill="#93C1E3"/>
<path fill-rule="evenodd" clip-rule="evenodd" d="M124.251 130.365C138.719 127.036 147.791 112.829 144.528 98.6227C141.265 84.4159 126.884 75.6047 112.438 78.9334C97.9699 82.2621 88.8976 96.469 92.161 110.676C95.4245 124.882 109.805 133.693 124.251 130.365ZM124.382 130.931C139.154 127.536 148.422 113.003 145.093 98.5137C141.765 84.0025 127.08 74.9955 112.285 78.4112C97.5128 81.8052 88.2449 96.3384 91.5735 110.828C94.9024 125.339 109.588 134.346 124.382 130.931Z" fill="#91C0E3"/>
<path fill-rule="evenodd" clip-rule="evenodd" d="M124.337 130.736C139.001 127.364 148.204 112.939 144.897 98.5367C141.59 84.1343 126.992 75.1925 112.328 78.5647C97.6644 81.9369 88.4616 96.3611 91.7686 110.764C95.0756 125.166 109.674 134.108 124.337 130.736ZM124.468 131.302C139.458 127.842 148.857 113.135 145.463 98.4282C142.069 83.7209 127.187 74.5834 112.198 78.0426C97.2077 81.5018 87.809 96.209 91.2029 110.916C94.5969 125.623 109.478 134.761 124.468 131.302Z" fill="#8EBFE2"/>
<path fill-rule="evenodd" clip-rule="evenodd" d="M124.425 131.126C139.306 127.71 148.639 113.09 145.289 98.4701C141.917 83.8719 127.144 74.7996 112.263 78.2153C97.382 81.631 88.0484 96.2509 91.3989 110.871C94.7712 125.47 109.543 134.542 124.425 131.126ZM124.555 131.692C139.741 128.189 149.292 113.264 145.855 98.3396C142.417 83.415 127.318 74.1687 112.132 77.6714C96.9468 81.1741 87.3957 96.0988 90.8332 111.024C94.2706 125.948 109.369 135.194 124.555 131.692Z" fill="#8EBFE2"/>
<path fill-rule="evenodd" clip-rule="evenodd" d="M124.512 131.496C139.611 128.015 149.075 113.199 145.659 98.3829C142.244 83.5671 127.253 74.3643 112.155 77.8453C97.0562 81.3262 87.5922 96.1421 91.0079 110.958C94.4234 125.774 109.414 134.977 124.512 131.496ZM124.643 132.062C140.046 128.515 149.706 113.373 146.225 98.2523C142.744 83.132 127.427 73.7333 112.024 77.2796C96.621 80.8259 86.9612 95.9681 90.4422 111.088C93.9232 126.209 109.24 135.608 124.643 132.062Z" fill="#8DBEE2"/>
<path fill-rule="evenodd" clip-rule="evenodd" d="M124.599 131.866C139.893 128.342 149.488 113.308 146.05 98.2965C142.591 83.2847 127.383 73.9513 112.089 77.4758C96.7942 81.0003 87.1998 96.0337 90.6373 111.046C94.0964 126.057 109.304 135.39 124.599 131.866ZM124.729 132.432C140.35 128.842 150.14 113.504 146.616 98.1659C143.091 82.8278 127.579 73.3204 111.958 76.9101C96.3375 80.4999 86.5471 95.8381 90.0716 111.176C93.5962 126.514 109.108 136.022 124.729 132.432Z" fill="#8ABDE1"/>
<path fill-rule="evenodd" clip-rule="evenodd" d="M124.664 132.236C140.177 128.667 149.901 113.438 146.399 98.2087C142.896 82.9796 127.471 73.5375 111.981 77.1055C96.4682 80.6734 86.7433 95.9029 90.2461 111.132C93.7488 126.361 109.174 135.803 124.664 132.236ZM124.795 132.801C140.611 129.168 150.554 113.612 146.964 98.0782C143.396 82.5445 127.667 72.9065 111.85 76.5398C96.033 80.173 86.0907 95.7289 89.6804 111.262C93.2485 126.796 108.978 136.434 124.795 132.801Z" fill="#88BCE1"/>
<path fill-rule="evenodd" clip-rule="evenodd" d="M124.75 132.606C140.458 128.995 150.335 113.548 146.789 98.1232C143.243 82.698 127.622 73.1035 111.892 76.7368C96.1843 80.3483 86.307 95.795 89.8532 111.22C93.3994 126.645 109.02 136.24 124.75 132.606ZM124.881 133.172C140.915 129.474 150.966 113.722 147.355 97.9926C143.721 82.2628 127.796 72.4944 111.762 76.1711C95.7272 79.8697 85.676 95.621 89.2875 111.351C92.9208 127.08 108.846 136.849 124.881 133.172Z" fill="#86BBE0"/>
<path fill-rule="evenodd" clip-rule="evenodd" d="M124.838 132.977C140.764 129.3 150.75 113.657 147.16 98.0143C143.57 82.3718 127.732 72.6685 111.806 76.3453C95.8808 80.0003 85.8948 95.6646 89.4845 111.308C93.0744 126.95 108.913 136.653 124.838 132.977ZM124.969 133.542C141.22 129.8 151.403 113.853 147.725 97.9057C144.049 81.9584 127.906 72.0594 111.676 75.8014C95.4238 79.5435 85.2421 95.4906 88.9189 111.438C92.5956 127.385 108.739 137.284 124.969 133.542Z" fill="#86BBE0"/>
<path fill-rule="evenodd" clip-rule="evenodd" d="M124.926 133.346C141.069 129.625 151.185 113.787 147.552 97.9268C143.897 82.0882 127.863 72.2545 111.72 75.9748C95.5766 79.6951 85.4601 95.5336 89.1151 111.394C92.7701 127.232 108.804 137.066 124.948 133.346H124.926ZM125.056 133.911C141.504 130.126 151.838 113.961 148.118 97.8178C144.397 81.6749 128.059 71.6453 111.589 75.4308C95.1415 79.2164 84.8074 95.3811 88.5276 111.524C92.248 127.667 108.587 137.697 125.056 133.911Z" fill="#83BAE0"/>
<path fill-rule="evenodd" clip-rule="evenodd" d="M125.011 133.715C141.35 129.951 151.619 113.895 147.92 97.8395C144.222 81.7834 127.97 71.8191 111.631 75.5829C95.2923 79.3467 85.0233 95.4027 88.7219 111.459C92.4204 127.515 108.672 137.479 125.011 133.715ZM125.141 134.281C141.807 130.452 152.25 114.069 148.486 97.709C144.722 81.3482 128.166 71.1881 111.501 75.039C94.8352 78.868 84.3924 95.2503 88.1562 111.611C91.92 127.972 108.477 138.11 125.141 134.281Z" fill="#82B9DF"/>
<path fill-rule="evenodd" clip-rule="evenodd" d="M125.098 134.107C141.654 130.299 152.032 114.026 148.312 97.7739C144.57 81.522 128.122 71.4272 111.566 75.2345C95.0095 79.0418 84.6318 95.3152 88.3521 111.567C92.0942 127.819 108.542 137.914 125.098 134.107ZM125.229 134.672C142.09 130.8 152.685 114.221 148.878 97.6434C145.07 81.0869 128.296 70.7962 111.435 74.6906C94.5743 78.5632 83.9792 95.1412 87.7865 111.719C91.5938 128.298 108.368 138.567 125.229 134.672Z" fill="#7FB7DF"/>
<path fill-rule="evenodd" clip-rule="evenodd" d="M125.187 134.477C141.961 130.626 152.469 114.135 148.683 97.6874C144.898 81.2181 128.232 71.0144 111.459 74.8653C94.6847 78.7161 84.1764 95.2071 87.962 111.655C91.7476 128.124 108.413 138.328 125.187 134.477ZM125.317 135.043C142.396 131.105 153.121 114.331 149.249 97.5568C145.398 80.7829 128.407 70.3835 111.328 74.3214C94.2495 78.2592 83.5238 95.033 87.3964 111.807C91.2472 128.581 108.239 138.981 125.317 135.043Z" fill="#7FB7DF"/>
<path fill-rule="evenodd" clip-rule="evenodd" d="M125.272 134.847C142.242 130.931 152.902 114.266 149.073 97.6008C145.244 80.9355 128.362 70.6013 111.392 74.4957C94.4222 78.4118 83.7615 95.077 87.5906 111.742C91.4196 128.407 108.303 138.741 125.272 134.847ZM125.403 135.413C142.699 131.432 153.533 114.44 149.639 97.4702C145.723 80.5003 128.557 69.9704 111.261 73.93C93.9651 77.9114 83.1306 94.9029 87.0249 111.873C90.941 128.842 108.107 139.372 125.403 135.413Z" fill="#7DB7DE"/>
<path fill-rule="evenodd" clip-rule="evenodd" d="M125.36 135.217C142.547 131.257 153.338 114.375 149.444 97.5137C145.571 80.6308 128.471 70.1661 111.305 74.1258C94.118 78.0853 83.3268 94.9679 87.2211 111.829C91.0937 128.712 108.194 139.177 125.36 135.217ZM125.49 135.782C142.982 131.758 153.969 114.57 150.009 97.3831C146.05 80.1957 128.667 69.5352 111.153 73.5601C93.6609 77.585 82.6741 94.7723 86.6337 111.96C90.5933 129.147 107.976 139.807 125.49 135.782Z" fill="#7BB5DE"/>
<path fill-rule="evenodd" clip-rule="evenodd" d="M125.448 135.586C142.853 131.583 153.753 114.483 149.836 97.4044C145.899 80.3257 128.624 69.7305 111.219 73.7336C93.8145 77.7367 82.9146 94.8371 86.8307 111.916C90.7686 128.994 108.043 139.589 125.448 135.586ZM125.578 136.152C143.288 132.084 154.405 114.679 150.402 97.2954C146.399 79.9124 128.798 69.1213 111.089 73.1897C93.3794 77.2581 82.2619 94.663 86.2651 112.046C90.2682 129.429 107.869 140.22 125.578 136.152Z" fill="#79B4DD"/>
<path fill-rule="evenodd" clip-rule="evenodd" d="M125.533 135.956C143.134 131.91 154.186 114.614 150.205 97.3176C146.223 80.0433 128.732 69.3176 111.131 73.3642C93.5302 77.4108 82.4779 94.7068 86.4593 112.003C90.4407 129.277 107.932 140.003 125.533 135.956ZM125.664 136.522C143.591 132.388 154.817 114.788 150.771 97.209C146.724 79.6082 128.906 68.7084 111 72.8203C93.0731 76.9539 81.847 94.5547 85.8936 112.133C89.9403 129.734 107.758 140.634 125.664 136.522Z" fill="#76B3DD"/>
<path fill-rule="evenodd" clip-rule="evenodd" d="M125.621 136.326C143.439 132.236 154.622 114.722 150.597 97.2303C146.572 79.7384 128.862 68.8821 111.044 72.994C93.2259 77.0842 82.0432 94.5979 86.0681 112.09C90.093 129.582 107.803 140.438 125.621 136.326ZM125.751 136.892C143.874 132.715 155.253 114.918 151.162 97.0997C147.072 79.2815 129.058 68.2512 110.914 72.4284C92.7907 76.6055 81.4123 94.4019 85.5024 112.22C89.5926 130.017 107.607 141.069 125.751 136.892Z" fill="#76B3DD"/>
<path fill-rule="evenodd" clip-rule="evenodd" d="M125.709 136.697C143.723 132.542 155.036 114.832 150.968 97.1444C146.899 79.4568 128.972 68.47 110.958 72.6254C92.9444 76.7808 81.631 94.4904 85.6994 112.178C89.7678 129.866 107.695 140.852 125.709 136.697ZM125.839 137.263C144.18 133.042 155.689 115.028 151.533 97.0138C147.4 78.9999 129.168 67.8391 110.828 72.0597C92.4874 76.2804 80.9784 94.2944 85.1338 112.309C89.2674 130.322 107.499 141.483 125.839 137.263Z" fill="#74B2DC"/>
<path fill-rule="evenodd" clip-rule="evenodd" d="M125.795 137.089C144.027 132.89 155.471 114.985 151.359 97.0794C147.247 79.1739 129.124 68.0783 110.892 72.2555C92.6607 76.4544 81.217 94.3596 85.3289 112.265C89.4408 130.17 107.563 141.266 125.795 137.089ZM125.926 137.654C144.484 133.39 156.101 115.159 151.924 96.9489C147.725 78.7388 129.298 67.4474 110.762 71.7116C92.2256 75.9758 80.5861 94.2075 84.7632 112.417C88.9622 130.627 107.389 141.918 125.926 137.654Z" fill="#71B1DC"/>
<path fill-rule="evenodd" clip-rule="evenodd" d="M125.882 137.457C144.331 133.215 155.905 115.092 151.728 96.9911C147.551 78.8899 129.232 67.6419 110.783 71.8844C92.3339 76.1269 80.7596 94.2498 84.9368 112.351C89.114 130.452 107.433 141.7 125.882 137.457ZM126.012 138.023C144.766 133.715 156.536 115.288 152.294 96.8606C148.051 78.4548 129.406 67.011 110.652 71.3405C91.8987 75.6482 80.1287 94.0973 84.3711 112.503C88.6136 130.909 107.259 142.352 126.012 138.023Z" fill="#70B0DB"/>
<path fill-rule="evenodd" clip-rule="evenodd" d="M125.97 137.828C144.615 133.542 156.32 115.201 152.121 96.9046C147.9 78.5859 129.364 67.2293 110.719 71.5152C92.074 75.8012 80.3692 94.1417 84.5681 112.439C88.7671 130.735 107.325 142.114 125.97 137.828ZM126.101 138.393C145.072 134.02 156.972 115.397 152.687 96.774C148.401 78.1508 129.56 66.5983 110.589 70.9713C91.6171 75.3443 79.7165 93.9676 84.0025 112.591C88.2884 131.214 107.129 142.766 126.101 138.393Z" fill="#6DAFDB"/>
<path fill-rule="evenodd" clip-rule="evenodd" d="M126.056 138.198C144.919 133.847 156.754 115.332 152.49 96.7958C148.226 78.2814 129.472 66.7942 110.632 71.1236C91.769 75.4748 79.9337 93.9894 84.1979 112.525C88.4621 131.04 107.216 142.527 126.078 138.198H126.056ZM126.187 138.763C145.354 134.347 157.385 115.506 153.056 96.6872C148.727 77.868 129.668 66.185 110.479 70.5797C91.3121 74.9962 79.281 93.8369 83.6104 112.656C87.9399 131.475 106.998 143.158 126.187 138.763Z" fill="#6DAFDB"/>
<path fill-rule="evenodd" clip-rule="evenodd" d="M126.122 138.568C145.202 134.173 157.167 115.441 152.86 96.709C148.552 77.977 129.602 66.3592 110.522 70.7539C91.4422 75.1487 79.4763 93.8806 83.784 112.613C88.0917 131.345 107.041 142.962 126.122 138.568ZM126.252 139.133C145.637 134.674 157.798 115.615 153.425 96.6004C149.052 77.5636 129.776 65.75 110.392 70.21C91.007 74.67 78.8454 93.7285 83.2184 112.743C87.5913 131.78 106.867 143.593 126.252 139.133Z" fill="#6AAEDA"/>
<path fill-rule="evenodd" clip-rule="evenodd" d="M126.208 138.937C145.483 134.499 157.58 115.549 153.229 96.6214C148.878 77.6934 129.71 65.9451 110.435 70.3834C91.1586 74.8216 79.0622 93.7711 83.4134 112.699C87.7647 131.627 106.932 143.375 126.208 138.937ZM126.338 139.503C145.941 134.999 158.233 115.745 153.795 96.5124C149.356 77.28 129.884 65.3359 110.304 69.8394C90.7017 74.343 78.4095 93.597 82.8477 112.83C87.286 132.062 106.758 144.006 126.338 139.503Z" fill="#68ADDA"/>
<path fill-rule="evenodd" clip-rule="evenodd" d="M126.296 139.307C145.79 134.825 158.017 115.68 153.622 96.5344C149.227 77.389 129.842 65.5319 110.349 70.0137C90.8556 74.4954 78.6286 93.6409 83.0233 112.786C87.4181 131.932 106.803 143.789 126.296 139.307ZM126.427 139.872C146.225 135.304 158.669 115.854 154.188 96.4039C149.706 76.9539 130.038 64.901 110.219 69.448C90.4204 74.0168 77.9977 93.4669 82.4577 112.917C86.9395 132.367 106.607 144.42 126.427 139.872Z" fill="#65ACD9"/>
<path fill-rule="evenodd" clip-rule="evenodd" d="M126.382 139.677C146.072 135.152 158.451 115.789 153.991 96.4481C149.531 77.1069 129.95 65.0975 110.261 69.6445C90.5719 74.1698 78.1927 93.5327 82.6527 112.874C87.1127 132.215 106.693 144.224 126.382 139.677ZM126.513 140.243C146.529 135.631 159.082 115.963 154.557 96.3176C150.031 76.6718 130.146 64.4666 110.131 69.0789C90.1151 73.6912 77.5618 93.3587 82.0871 113.004C86.6123 132.65 106.497 144.855 126.513 140.243Z" fill="#63ABD9"/>
<path fill-rule="evenodd" clip-rule="evenodd" d="M126.469 140.068C146.376 135.478 158.864 115.919 154.382 96.3819C149.879 76.845 130.102 64.705 110.195 69.2956C90.2886 73.8861 77.8006 93.445 82.2824 112.982C86.7859 132.519 106.562 144.659 126.469 140.068ZM126.6 140.634C146.833 135.978 159.517 116.115 154.948 96.2514C150.379 76.3881 130.276 64.0741 110.043 68.7299C89.81 73.3857 77.1262 93.249 81.695 113.112C86.2637 132.976 106.366 145.29 126.6 140.634Z" fill="#63ABD9"/>
<path fill-rule="evenodd" clip-rule="evenodd" d="M126.556 140.437C146.68 135.803 159.299 116.049 154.752 96.2942C150.205 76.5399 130.211 64.2912 110.087 68.9035C89.9624 73.5376 77.3439 93.2922 81.8909 113.047C86.4379 132.801 106.432 145.05 126.556 140.437ZM126.687 141.003C147.116 136.304 159.952 116.223 155.318 96.1637C150.706 76.1048 130.385 63.6603 109.956 68.3596C89.5273 73.0589 76.6912 93.1397 81.3253 113.199C85.9375 133.258 106.258 145.703 126.687 141.003Z" fill="#60A9D8"/>
<path fill-rule="evenodd" clip-rule="evenodd" d="M126.644 140.807C146.964 136.13 159.735 116.158 155.144 96.2075C150.553 76.257 130.342 63.856 110.022 68.5336C89.7017 73.2111 76.9309 93.1831 81.5214 113.155C86.112 133.106 106.323 145.507 126.644 140.829V140.807ZM126.774 141.373C147.421 136.63 160.366 116.332 155.71 96.077C151.054 75.8001 130.538 63.2251 109.891 67.9897C89.2449 72.7325 76.3 93.031 80.9558 113.286C85.6116 133.563 106.128 146.138 126.774 141.373Z" fill="#5EA9D8"/>
<path fill-rule="evenodd" clip-rule="evenodd" d="M126.731 141.178C147.269 136.457 160.148 116.268 155.514 96.0996C150.88 75.9318 130.451 63.4221 109.914 68.1432C89.3758 72.8642 76.4962 93.0541 81.1302 113.222C85.7643 133.39 106.193 145.9 126.731 141.178ZM126.862 141.744C147.704 136.936 160.801 116.464 156.08 95.991C151.359 75.5185 130.647 62.8129 109.783 67.621C88.9407 72.4291 75.8435 92.9016 80.5646 113.374C85.2857 133.847 105.998 146.552 126.862 141.744Z" fill="#5BA7D7"/>
<path fill-rule="evenodd" clip-rule="evenodd" d="M126.817 141.549C147.573 136.762 160.583 116.399 155.905 96.013C151.206 75.6493 130.603 63.009 109.848 67.7736C89.0922 72.5599 76.0821 92.9236 80.7596 113.309C85.4372 133.673 106.062 146.313 126.817 141.549ZM126.948 142.114C148.008 137.263 161.236 116.573 156.471 95.9041C151.706 75.2359 130.777 62.3998 109.717 67.2297C88.6571 72.0813 75.4294 92.7713 80.194 113.44C84.9586 134.108 105.888 146.944 126.948 142.114Z" fill="#5BA7D7"/>
<path fill-rule="evenodd" clip-rule="evenodd" d="M126.905 141.918C147.856 137.088 161.018 116.507 156.275 95.9255C151.533 75.3441 130.712 62.5733 109.761 67.4032C88.8098 72.233 75.6473 92.8143 80.3902 113.396C85.133 133.977 105.954 146.748 126.905 141.918ZM127.035 142.483C148.313 137.588 161.649 116.681 156.841 95.795C152.033 74.909 130.886 61.9424 109.63 66.8375C88.3529 71.7326 75.0164 92.6403 79.8245 113.526C84.6326 134.412 105.78 147.379 127.035 142.483Z" fill="#59A6D7"/>
<path fill-rule="evenodd" clip-rule="evenodd" d="M126.992 142.287C148.161 137.414 161.432 116.615 156.667 95.8378C151.881 75.0608 130.843 62.1594 109.674 67.0328C88.5056 71.9062 75.2343 92.705 79.9989 113.482C84.7853 134.259 105.824 147.161 126.992 142.287ZM127.123 142.853C148.596 137.914 162.085 116.811 157.233 95.7073C152.381 74.6257 131.039 61.5285 109.544 66.4672C88.0704 71.4058 74.5817 92.5092 79.4333 113.613C84.2849 134.694 105.628 147.791 127.123 142.853Z" fill="#55A5D6"/>
<path fill-rule="evenodd" clip-rule="evenodd" d="M127.079 142.658C148.465 137.741 161.866 116.724 157.037 95.7516C152.207 74.7569 130.951 61.7467 109.586 66.6636C88.2002 71.5805 74.7985 92.5969 79.6283 113.57C84.4582 134.565 105.714 147.575 127.079 142.658ZM127.209 143.223C148.9 138.241 162.519 116.92 157.602 95.6211C152.707 74.3218 131.147 61.1158 109.456 66.098C87.7651 71.0801 74.1458 92.4011 79.0627 113.7C83.9578 135 105.518 148.205 127.209 143.223Z" fill="#52A4D5"/>
<path fill-rule="evenodd" clip-rule="evenodd" d="M127.166 143.049C148.748 138.088 162.302 116.876 157.429 95.6854C152.555 74.4951 131.104 61.3326 109.522 66.3148C87.9398 71.2752 74.3857 92.4874 79.2591 113.678C84.1325 134.868 105.584 148.031 127.188 143.049H127.166ZM127.296 143.614C149.205 138.567 162.933 117.05 157.995 95.5548C153.056 74.06 131.278 60.7017 109.37 65.7491C87.4612 70.7965 73.7331 92.3133 78.6717 113.808C83.6321 135.303 105.388 148.662 127.296 143.614Z" fill="#50A3D5"/>
<path fill-rule="evenodd" clip-rule="evenodd" d="M127.253 143.419C149.053 138.393 162.716 116.986 157.799 95.5992C152.882 74.1911 131.213 60.9199 109.413 65.9456C87.6136 70.9712 73.9508 92.3792 78.8677 113.766C83.7845 135.173 105.454 148.445 127.253 143.419ZM127.384 143.985C149.488 138.894 163.368 117.181 158.364 95.4687C153.361 73.756 131.387 60.289 109.283 65.3799C87.1785 70.4708 73.2981 92.1834 78.302 113.896C83.3059 135.609 105.28 149.076 127.384 143.985Z" fill="#50A3D5"/>
<path fill-rule="evenodd" clip-rule="evenodd" d="M127.339 143.788C149.335 138.719 163.15 117.094 158.19 95.4897C153.208 73.8858 131.343 60.484 109.347 65.5315C87.3518 70.6006 73.5366 92.2262 78.4971 113.83C83.4792 135.434 105.344 148.836 127.339 143.788ZM127.47 144.354C149.792 139.219 163.803 117.289 158.755 95.3807C153.708 73.4724 131.539 59.8748 109.216 65.0093C86.8949 70.1437 72.884 92.0739 77.9314 113.982C82.9788 135.891 105.148 149.488 127.47 144.354Z" fill="#4CA2D4"/>
<path fill-rule="evenodd" clip-rule="evenodd" d="M127.427 144.158C149.64 139.045 163.586 117.224 158.56 95.4028C153.535 73.6031 131.452 60.0491 109.239 65.1618C87.0261 70.2745 73.0804 92.0958 78.1061 113.917C83.1318 135.717 105.214 149.271 127.427 144.158ZM127.558 144.724C150.097 139.546 164.217 117.398 159.126 95.2938C154.035 73.168 131.648 59.4399 109.108 64.6396C86.5692 69.8176 72.4495 91.9653 77.5404 114.069C82.6313 136.195 105.019 149.924 127.558 144.724Z" fill="#4AA1D4"/>
<path fill-rule="evenodd" clip-rule="evenodd" d="M127.515 144.529C149.945 139.373 163.999 117.333 158.952 95.3164C153.883 73.2993 131.605 59.6364 109.174 64.7926C86.7436 69.9488 72.6892 91.9878 77.7366 114.005C82.8058 136.022 105.084 149.685 127.515 144.529ZM127.645 145.094C150.38 139.851 164.652 117.529 159.518 95.1859C154.383 72.8642 131.779 59.0055 109.044 64.2487C86.2867 69.4702 72.0147 91.8137 77.1492 114.135C82.2836 136.457 104.888 150.316 127.623 145.073L127.645 145.094Z" fill="#46A0D3"/>
<path fill-rule="evenodd" clip-rule="evenodd" d="M127.578 144.898C150.205 139.698 164.412 117.442 159.299 95.229C154.186 73.0159 131.69 59.2226 109.064 64.4223C86.4376 69.6437 72.2308 91.8785 77.3435 114.092C82.4562 136.305 104.952 150.098 127.578 144.898ZM127.709 145.464C150.662 140.177 165.064 117.638 159.864 95.0985C154.687 72.5591 131.864 58.5916 108.911 63.8566C85.9807 69.1433 71.5999 91.7044 76.7778 114.222C81.9558 136.761 104.778 150.729 127.731 145.442L127.709 145.464Z" fill="#449FD3"/>
<path fill-rule="evenodd" clip-rule="evenodd" d="M127.667 145.269C150.511 140.004 164.848 117.573 159.692 95.1427C154.536 72.712 131.822 58.7881 108.978 64.0531C86.1344 69.3181 71.7971 91.7486 76.9751 114.179C82.1313 136.61 104.845 150.534 127.689 145.269H127.667ZM127.797 145.834C150.946 140.504 165.479 117.747 160.258 95.0122C155.036 72.2769 132.018 58.1572 108.848 63.4875C85.6775 68.8177 71.1662 91.5746 76.3876 114.31C81.6309 137.045 104.627 151.165 127.797 145.834Z" fill="#449FD3"/>
<path fill-rule="evenodd" clip-rule="evenodd" d="M127.754 145.638C150.815 140.33 165.261 117.681 160.062 95.055C154.862 72.4287 131.953 58.3743 108.891 63.6828C85.8299 68.9913 71.3839 91.6394 76.5836 114.266C81.7833 136.892 104.714 150.946 127.754 145.638ZM127.884 146.204C151.25 140.83 165.914 117.877 160.627 94.9245C155.362 71.9936 132.127 57.7434 108.761 63.1171C85.3948 68.5126 70.7312 91.4653 76.0179 114.396C81.3047 137.349 104.518 151.578 127.884 146.204Z" fill="#409ED2"/>
<path fill-rule="evenodd" clip-rule="evenodd" d="M127.84 146.008C151.097 140.656 165.696 117.79 160.453 94.9686C155.188 72.1245 132.083 57.9613 108.804 63.3133C85.5464 68.6653 70.9481 91.531 76.213 114.353C81.478 137.197 104.583 151.36 127.862 146.008H127.84ZM127.971 146.574C151.554 141.156 166.349 117.986 161.018 94.8381C155.688 71.6894 132.257 57.3304 108.673 62.7477C85.1113 68.1867 70.3171 91.3352 75.6474 114.484C80.9776 137.632 104.409 151.991 127.992 146.574H127.971Z" fill="#3D9DD2"/>
<path fill-rule="evenodd" clip-rule="evenodd" d="M127.928 146.399C151.403 141.003 166.132 117.942 160.823 94.8802C155.515 71.8407 132.192 57.5252 108.717 62.9424C85.2424 68.338 70.5135 91.3994 75.822 114.439C81.1305 137.479 104.453 151.794 127.928 146.377V146.399ZM128.058 146.964C151.838 141.482 166.762 118.116 161.389 94.7716C156.015 71.4056 132.388 56.8942 108.587 62.3768C84.7855 67.8593 69.8826 91.2254 75.2563 114.57C80.6301 137.914 104.279 152.425 128.058 146.943V146.964Z" fill="#389CD1"/>
<path fill-rule="evenodd" clip-rule="evenodd" d="M128.014 146.769C151.707 141.308 166.566 118.051 161.214 94.7938C155.862 71.5365 132.322 57.1122 108.629 62.573C84.9586 68.012 70.0992 91.291 75.4512 114.527C80.8032 137.784 104.343 152.208 128.014 146.747V146.769ZM128.145 147.335C152.142 141.809 167.197 118.225 161.779 94.6848C156.362 71.1014 132.496 56.4813 108.499 62.0073C84.5235 67.5334 69.4465 91.0952 74.8856 114.657C80.3028 138.219 104.147 152.839 128.145 147.313V147.335Z" fill="#389CD1"/>
<path fill-rule="evenodd" clip-rule="evenodd" d="M128.101 147.138C151.99 141.634 166.98 118.159 161.584 94.7065C156.189 71.2532 132.453 56.6984 108.543 62.2027C84.6546 67.6852 69.6647 91.1601 75.0602 114.613C80.4557 138.066 104.213 152.621 128.101 147.138ZM128.232 147.704C152.447 142.135 167.633 118.355 162.15 94.5759C156.689 70.8181 132.627 56.0675 108.434 61.637C84.2195 67.2066 69.0338 90.986 74.4945 114.743C79.9553 138.501 104.018 153.252 128.232 147.682V147.704Z" fill="#359BD1"/>
<path fill-rule="evenodd" clip-rule="evenodd" d="M128.188 147.508C152.294 141.961 167.414 118.29 161.975 94.6193C156.514 70.9486 132.561 56.2632 108.477 61.811C84.3711 67.3588 69.2506 91.0512 74.6896 114.7C80.1286 138.371 104.082 153.056 128.188 147.508ZM128.318 148.074C152.729 142.461 168.045 118.464 162.541 94.4888C157.015 70.5134 132.756 55.6323 108.346 61.2671C83.9142 66.8802 68.5979 90.8771 74.1239 114.831C79.65 138.806 103.908 153.687 128.318 148.052V148.074Z" fill="#309AD0"/>
<path fill-rule="evenodd" clip-rule="evenodd" d="M128.275 147.88C152.576 142.288 167.849 118.4 162.344 94.5337C156.862 70.6672 132.691 55.8513 108.389 61.4426C84.0661 67.0339 68.815 90.9221 74.3193 114.789C79.8236 138.655 103.973 153.471 128.275 147.88ZM128.405 148.445C153.033 142.767 168.48 118.574 162.91 94.4031C157.341 70.2321 132.887 55.2204 108.259 60.8987C83.6309 66.5553 68.1841 90.7481 73.7319 114.919C79.3015 139.09 103.777 154.102 128.405 148.423V148.445Z" fill="#2B98D0"/>
<path fill-rule="evenodd" clip-rule="evenodd" d="M128.363 148.249C152.882 142.614 168.263 118.508 162.737 94.4462C157.189 70.3621 132.823 55.4374 108.304 61.0722C83.7844 66.7288 68.3811 90.8128 73.9289 114.875C79.4767 138.959 103.843 153.884 128.363 148.249ZM128.493 148.815C153.339 143.093 168.916 118.704 163.303 94.3157C157.69 69.9269 132.997 54.8064 108.173 60.5065C83.3275 66.2284 67.7502 90.6387 73.3633 115.005C78.9763 139.394 103.648 154.515 128.493 148.793V148.815Z" fill="#2797CF"/>
<path fill-rule="evenodd" clip-rule="evenodd" d="M128.45 148.619C153.187 142.92 168.699 118.64 163.108 94.36C157.516 70.08 132.932 55.003 108.217 60.7031C83.4802 66.4032 67.9681 90.683 73.5595 114.963C79.1508 139.242 103.735 154.32 128.45 148.619ZM128.581 149.185C153.622 143.42 169.33 118.814 163.673 94.2294C158.017 69.6449 133.128 54.3721 108.087 60.1374C83.0451 65.9028 67.3155 90.5089 72.972 115.093C78.6286 139.678 103.518 154.95 128.559 149.185H128.581Z" fill="#2797CF"/>
<path fill-rule="evenodd" clip-rule="evenodd" d="M128.536 148.988C153.468 143.245 169.132 118.747 163.498 94.2498C157.841 69.7741 133.061 54.5883 108.128 60.3319C83.1741 66.0755 67.5314 90.5729 73.1663 115.049C78.8011 139.524 103.581 154.732 128.536 148.988ZM128.666 149.554C153.925 143.745 169.763 118.921 164.063 94.1409C158.342 69.339 133.257 53.9574 107.998 59.7663C82.7389 65.5752 66.9005 90.3989 72.6006 115.179C78.3007 139.981 103.407 155.362 128.666 149.554Z" fill="#2096CF"/>
<path fill-rule="evenodd" clip-rule="evenodd" d="M128.624 149.381C153.774 143.594 169.547 118.879 163.869 94.1855C158.19 69.4924 133.192 54.1761 108.042 59.9632C82.8925 65.7503 67.1193 90.4653 72.7976 115.137C78.476 139.83 103.474 155.146 128.624 149.359V149.381ZM128.754 149.946C154.209 144.094 170.2 119.074 164.434 94.0769C158.669 69.0573 133.367 53.5452 107.912 59.3975C82.4356 65.25 66.4666 90.2695 72.232 115.267C77.9973 140.265 103.3 155.777 128.754 149.925V149.946Z" fill="#1A95CE"/>
<path fill-rule="evenodd" clip-rule="evenodd" d="M128.711 149.751C154.079 143.92 169.982 119.009 164.261 94.0987C158.517 69.2095 133.302 53.7409 107.956 59.5933C82.5883 65.424 66.6846 90.3347 72.4064 115.224C78.1283 140.113 103.343 155.581 128.69 149.729L128.711 149.751ZM128.842 150.316C154.514 144.399 170.613 119.183 164.826 93.9682C159.017 68.7527 133.498 53.11 107.825 59.0277C82.1531 64.9453 66.0319 90.1607 71.8408 115.354C77.6496 140.57 103.148 156.212 128.82 150.295L128.842 150.316Z" fill="#1094CE"/>
<path fill-rule="evenodd" clip-rule="evenodd" d="M128.797 150.12C154.36 144.224 170.416 119.118 164.629 94.011C158.842 68.9044 133.431 53.3271 107.867 59.223C82.3038 65.0971 66.2479 90.2255 72.035 115.31C77.8221 140.417 103.233 155.994 128.797 150.098V150.12ZM128.927 150.686C154.817 144.724 171.047 119.292 165.194 93.8805C159.342 68.4693 133.626 52.6962 107.737 58.6573C81.847 64.6185 65.6169 90.0514 71.4693 115.441C77.3217 140.852 103.037 156.625 128.927 150.664V150.686Z" fill="#0593CD"/>
<path fill-rule="evenodd" clip-rule="evenodd" d="M128.884 150.491C154.665 144.551 170.83 119.227 165.021 93.9245C159.168 68.6223 133.562 52.9144 107.78 58.832C81.9997 64.7714 65.8349 90.0956 71.6438 115.42C77.4744 140.722 103.081 156.43 128.862 150.491H128.884ZM129.015 151.056C155.1 145.051 171.482 119.423 165.586 93.7939C159.669 68.1654 133.736 52.2834 107.65 58.2881C81.5646 64.2928 65.1822 89.9215 71.0781 115.55C76.974 141.157 102.907 157.061 128.993 151.056H129.015Z" fill="#0593CD"/>
<path fill-rule="evenodd" clip-rule="evenodd" d="M128.971 150.859C154.948 144.876 171.265 119.334 165.391 93.8362C159.517 68.3165 133.693 52.478 107.694 58.461C81.7172 64.4439 65.4001 89.9856 71.2743 115.506C77.1484 141.025 102.973 156.864 128.971 150.881V150.859ZM129.102 151.425C155.405 145.377 171.918 119.53 165.957 93.7057C160.017 67.8813 133.867 51.8471 107.564 57.917C81.2604 63.9652 64.7692 89.8115 70.7086 115.636C76.648 141.46 102.799 157.495 129.102 151.425Z" fill="#0092CD"/>
<path fill-rule="evenodd" clip-rule="evenodd" d="M129.037 151.23C155.231 145.204 171.679 119.466 165.762 93.7508C159.844 68.035 133.802 52.0661 107.607 58.0925C81.413 64.1189 64.9654 89.8564 70.9048 115.594C76.8225 141.31 102.865 157.279 129.059 151.252L129.037 151.23ZM129.168 151.796C155.688 145.704 172.31 119.641 166.327 93.6202C160.344 67.5782 133.997 51.4351 107.477 57.5268C80.9779 63.6403 64.3345 89.6824 70.3174 115.724C76.3004 141.745 102.647 157.909 129.168 151.796Z" fill="#0091CC"/>
<path fill-rule="evenodd" clip-rule="evenodd" d="M129.124 151.599C155.536 145.529 172.092 119.575 166.13 93.6413C160.17 67.7297 133.932 51.652 107.52 57.7219C81.1077 63.7919 64.5513 89.7469 70.5125 115.68C76.4737 141.614 102.733 157.691 129.124 151.621V151.599ZM129.254 152.165C155.971 146.008 172.745 119.77 166.696 93.5323C160.67 67.2946 134.106 51.021 107.389 57.1563C80.6726 63.3133 63.8986 89.5729 69.9468 115.811C75.995 142.049 102.538 158.322 129.254 152.165Z" fill="#0090CC"/>
<path fill-rule="evenodd" clip-rule="evenodd" d="M129.211 151.969C155.818 145.834 172.527 119.683 166.522 93.5539C160.496 67.4467 134.062 51.2166 107.433 57.3518C80.8248 63.4653 64.1161 89.6161 70.1425 115.767C76.1472 141.896 102.603 158.126 129.232 151.991L129.211 151.969ZM129.298 152.339C156.123 146.16 172.962 119.814 166.892 93.4669C160.844 67.1421 134.171 50.8032 107.346 56.982C80.5202 63.1607 63.7027 89.5073 69.7509 115.854C75.7991 142.201 102.472 158.539 129.298 152.361V152.339Z" fill="#0090CC"/>
</g>
<path d="M139.088 189.236C134.432 190.215 129.581 190.737 124.62 190.737C86.9823 190.737 56.502 160.997 56.502 124.316C56.502 101.494 68.272 81.391 86.2425 69.4252H65.5743C64.0296 69.4252 62.746 68.1633 62.746 66.5969C62.746 65.0304 64.0078 63.7686 65.5743 63.7686H95.7499C95.7499 63.7686 95.9024 63.7686 95.9894 63.7686C96.3591 63.7468 96.7291 63.7686 97.0988 63.8991C98.5783 64.3995 99.3831 66.0095 98.8829 67.4671L89.3537 96.0981C88.8533 97.5776 87.2433 98.3824 85.7857 97.8822C84.3063 97.3819 83.5013 95.7719 84.0017 94.314L91.0724 73.0802C73.7545 83.893 62.2891 102.799 62.2891 124.316C62.2891 157.885 90.2022 185.103 124.62 185.103C128.884 185.103 133.04 184.689 137.065 183.884C139.088 183.688 140.589 183.58 141.416 185.733C141.982 187.169 141.372 188.714 139.088 189.236Z" fill="#0090CC" stroke="#0090CC" stroke-width="2.98058" stroke-miterlimit="2.61"/>
<path fill-rule="evenodd" clip-rule="evenodd" d="M109.846 58.0034C114.502 57.0243 119.354 56.5022 124.314 56.5022C161.931 56.5022 192.432 86.2428 192.432 122.924C192.432 145.724 180.641 165.848 162.692 177.814H183.338C184.883 177.814 186.167 179.076 186.167 180.643C186.167 182.209 184.905 183.471 183.338 183.471H153.163C153.163 183.471 153.01 183.471 152.923 183.471C152.554 183.493 152.184 183.471 151.814 183.34C150.334 182.84 149.53 181.252 150.03 179.772L159.559 151.141C160.06 149.662 161.648 148.857 163.127 149.357C164.606 149.858 165.411 151.468 164.911 152.925L157.84 174.159C175.136 163.347 186.602 144.462 186.602 122.945C186.602 89.3757 158.689 62.1588 124.271 62.1588C120.007 62.1588 115.851 62.5721 111.826 63.3771C109.803 63.5729 108.302 63.6817 107.475 61.5278C106.909 60.0919 107.519 58.5473 109.803 58.0251L109.846 58.0034Z" fill="#808285" stroke="#808285" stroke-width="2.98058" stroke-miterlimit="2.61"/>
</svg>
