<svg width="250" height="250" viewBox="0 0 250 250" fill="none" xmlns="http://www.w3.org/2000/svg">
<path d="M0 125C0 55.9644 55.9644 0 125 0C194.036 0 250 55.9644 250 125C250 194.036 194.036 250 125 250C55.9644 250 0 194.036 0 125Z" fill="#EB7500"/>
<path d="M49.17 118.034C49.9441 118.189 59.4422 123.787 60.6826 124.499L91.7996 142.576C97.8575 146.13 104.463 149.896 110.381 153.643C108.735 153.864 106.435 153.868 104.742 153.894L96.1587 153.964L69.0582 154L50.9456 153.973C47.1251 153.964 43.1714 153.991 39.3631 153.88C39.3044 152.756 39.3669 151.421 39.4396 150.295C39.578 148.153 39.7045 147.507 41.2889 146.112L63.6944 146.109C66.2063 146.109 68.7181 146.095 71.2298 146.067C72.7799 146.051 74.3439 146.044 75.8892 145.925C76.3665 145.854 76.8764 145.815 77.1896 145.426C77.7808 144.692 77.7286 143.853 76.944 143.287C76.3242 142.839 75.5491 142.41 74.8748 142.015L71.045 139.777L54.4549 130.14C52.892 129.22 51.3349 128.291 49.7836 127.352C47.207 125.789 45.3097 125.242 46.984 121.855C47.6706 120.466 48.1428 119.264 49.17 118.034Z" fill="white"/>
<path d="M200.958 118.142C201.54 118.254 203.262 122.47 203.453 123.129C203.755 124.164 203.583 124.526 203.198 125.473C200.696 127.069 197.973 128.633 195.41 130.132L181.36 138.289L175.959 141.477C174.954 142.075 173.91 142.688 172.943 143.346C172.569 143.6 172.335 144.038 172.1 144.428C172.31 144.885 172.754 145.657 173.255 145.764C175.236 146.191 178.227 146.078 180.278 146.095L197.653 146.101C199.214 146.099 207.951 145.856 209.443 146.701C210.61 147.361 210.614 152.294 210.658 154H180.757L154.336 153.96L145.517 153.894C143.545 153.869 141.412 153.859 139.458 153.709C142.406 151.677 146.4 149.44 149.522 147.607L166.593 137.674L188.324 125.208C192.347 122.919 196.881 120.231 200.958 118.142Z" fill="white"/>
<path d="M171.019 85.4511C172.047 85.4936 175.043 87.9397 175.924 88.675C177.473 89.9686 175.648 92.4636 174.906 93.8374C173.818 95.8377 172.712 97.8273 171.587 99.8061C167.583 106.873 163.389 113.832 159.571 121.002C158.895 122.272 159.399 122.893 160.575 123.442C163.106 122.204 165.987 120.512 168.451 119.115L183.309 110.565C185.061 109.561 186.82 108.569 188.585 107.588C189.54 107.052 190.568 106.432 191.563 105.989C191.902 105.838 192.694 105.917 193.033 106.092C194.524 106.858 196.625 110.197 197.151 111.675C189.707 116.094 181.958 120.44 174.443 124.771L149.259 139.25C144.703 141.891 140.119 144.486 135.509 147.032C136.022 145.921 136.857 144.496 137.468 143.404L141.448 136.371C147.272 126.103 153.16 115.872 159.112 105.678L166.939 92.1254C167.613 90.9591 170.229 86.2182 171.019 85.4511Z" fill="white"/>
<path d="M78.774 85.2414C79.0059 85.509 79.6804 86.6875 79.8911 87.0438L82.2534 91.0774L91.0036 106.171L106.566 133.149L111.41 141.672C112.349 143.339 113.492 145.291 114.32 146.998C112.811 146.276 110.911 145.161 109.433 144.331L100.873 139.47L75.3734 124.767L61.378 116.634C60.465 116.104 53.0142 111.895 52.8204 111.496C52.8543 110.494 55.3605 107.373 56.1331 106.553C56.3344 106.339 57.1589 106 57.4826 105.87C58.8084 106.25 60.5178 107.22 61.7682 107.893C63.9804 109.078 66.1672 110.31 68.3269 111.588L81.2838 119.063C83.5792 120.377 85.8781 121.687 88.1863 122.979C89.5218 123.726 90.2193 123.241 90.8295 121.927C89.6503 119.498 87.8051 116.385 86.459 114.009L77.212 97.919C76.654 96.9397 73.066 90.9392 73.1368 90.083C73.2496 88.7197 77.3887 86.1294 78.774 85.2414Z" fill="white"/>
<path d="M131.612 72C133.104 72.2056 135.9 72.0315 136.234 74.053C136.412 75.1227 136.422 76.4305 136.447 77.5227C136.482 79.3486 136.503 81.1747 136.513 83.0008L136.531 99.3469C136.541 102.394 136.526 105.502 136.698 108.545C136.716 108.859 136.787 109.662 137.033 109.825C137.357 110.039 137.8 110.088 138.173 110.07C138.673 110.047 139.219 109.331 139.518 108.92C140.513 107.559 141.37 106.024 142.207 104.559L144.391 100.815L153.003 85.996L155.312 82.097C155.727 81.4018 156.631 79.8135 157.161 79.3499C158.686 78.0162 163.387 80.7834 164.513 81.6486L143.108 118.793C140.095 124.104 137.046 129.394 133.963 134.664C132.352 137.432 130.676 140.408 128.976 143.102C128.681 141.14 128.728 136.793 128.713 134.73C128.67 129.872 128.651 125.014 128.656 120.156L128.655 72H131.612Z" fill="white"/>
<path d="M121.392 118.689L121.333 133.593C121.313 136.299 121.361 140.358 121.04 142.966C119.352 140.444 117.514 137.164 115.952 134.513L107.203 119.533C99.8627 106.95 92.592 94.3257 85.3908 81.6621C86.6087 80.7831 91.7879 77.8191 92.8578 79.4824C98.9976 89.0281 104.308 99.1483 110.169 108.876C110.656 109.611 111.076 110.239 112.037 110.114C113.493 109.926 113.352 108.436 113.402 107.247C113.462 105.794 113.469 104.248 113.485 102.759L113.507 84.4585C113.507 81.2143 113.43 77.9506 113.652 74.7143C113.882 71.37 117.265 72.3332 119.461 72.0115L119.536 72H121.397L121.392 118.689Z" fill="white"/>
</svg>
