<svg width="250" height="250" viewBox="0 0 250 250" fill="none" xmlns="http://www.w3.org/2000/svg">
<path d="M0 125C0 55.9644 55.9644 0 125 0C194.036 0 250 55.9644 250 125C250 194.036 194.036 250 125 250C55.9644 250 0 194.036 0 125Z" fill="#0800A5"/>
<path fill-rule="evenodd" clip-rule="evenodd" d="M122.41 41.5318L201.306 179.283C201.479 179.585 201.571 179.928 201.571 180.277V187C201.571 188.105 200.675 189 199.571 189H60.0429C59.5563 189 59.0955 188.781 58.7888 188.403C58.5553 188.115 58.4277 187.755 58.4277 187.385V178.007C58.4278 175.796 59.0183 173.624 60.1383 171.717L89.557 121.622C89.9746 120.911 90.7376 120.474 91.5623 120.474H124.649C125.168 120.474 125.653 120.217 125.944 119.788C126.285 119.285 126.305 118.631 125.995 118.109L79.0012 39L118.397 39.1926H121.06L122.41 41.5318ZM108.195 158.89C108.195 158.548 108.285 158.212 108.454 157.914L128.518 122.676L148.715 157.366C149.618 158.916 148.499 160.861 146.705 160.861H110.167C109.078 160.861 108.196 159.979 108.195 158.89Z" fill="#FDE428"/>
</svg>
