<svg width="250" height="250" viewBox="0 0 250 250" fill="none" xmlns="http://www.w3.org/2000/svg">
<path d="M0 125C0 55.9644 55.9644 0 125 0C194.036 0 250 55.9644 250 125C250 194.036 194.036 250 125 250C55.9644 250 0 194.036 0 125Z" fill="#036639"/>
<path d="M131.593 95C131.792 95.215 131.81 95.3089 131.809 95.6202C131.792 99.9663 131.764 104.308 131.927 108.652C131.936 108.871 131.896 109.19 131.745 109.356L131.586 109.343C130.792 108.789 129.922 105.395 129.482 104.236C129.16 103.376 128.773 102.542 128.325 101.742C126.719 98.9038 123.22 95.701 119.398 97.4002C118.11 97.9725 116.894 99.9679 116.53 101.328C115.36 105.704 117.479 109.117 121.217 111.333C123.031 112.462 124.896 113.272 126.627 114.5C128.455 115.788 129.992 117.447 131.135 119.367C133.158 122.831 134.03 126.502 132.957 130.464C132.067 133.628 130.559 137.184 127.6 138.917C126.077 139.761 122.916 140.62 121.186 140.318C118.559 139.86 115.528 138.649 112.915 137.945C112.425 138.746 112.136 139.829 111.599 140.439C111.294 140.575 111.39 140.583 111.095 140.532C110.89 140.332 110.902 140.22 110.87 139.935C110.871 136.382 110.89 132.829 110.929 129.276C110.937 128.152 110.726 126.222 111.034 125.115C111.09 124.919 111.317 124.867 111.502 124.824C111.672 124.886 111.818 124.905 111.878 125.071C112.528 126.858 112.674 128.854 113.315 130.692C113.757 131.984 114.363 133.213 115.117 134.351C116.275 136.076 118.611 138.342 120.699 138.597C124.956 139.117 127.296 136.489 127.938 132.657C129.117 125.633 121.768 123.316 117.276 119.931C112.368 116.234 110.627 110.466 111.56 104.572C112.57 98.3572 118.635 93.2707 124.965 95.9205C126.45 96.5421 127.437 97.3338 129.095 97.6449C129.589 97.4661 129.755 97.3534 130.189 97.0775C130.735 96.1159 130.524 95.5573 131.593 95Z" fill="#FEFDFD"/>
<path d="M91.5347 95.3443C96.8736 94.9649 97.6831 96.7499 101.983 98.2102C103.843 97.3362 104.229 95.5783 105.03 95.2942L105.209 95.3898C105.791 96.5083 105.191 106.712 105.467 108.671C105.518 109.036 105.446 109.981 105.139 110.24C104.344 110.152 103.729 108.059 103.471 107.328C101.635 102.139 98.6807 96.9097 92.4619 96.8423C91.0968 96.8275 89.34 97.4909 88.4085 98.5877C84.0355 103.737 83.7591 111.769 83.6996 118.198C83.7622 123.262 84.1931 131.897 87.9923 135.674C89.6831 137.355 91.6014 137.749 93.8508 137.734C97.9184 137.567 101.263 134.919 103.546 131.732C103.913 131.221 104.219 130.645 104.678 130.215C105.067 130.108 105.873 130.093 106.075 130.498C105.987 131.785 104.659 133.879 103.84 134.85C101.187 137.995 98.1933 139.917 94.027 140.322C90.3717 140.677 85.9422 138.877 83.1804 136.6C78.8836 133.056 76.5968 126.989 76.0442 121.572C75.3336 114.604 76.4457 106.683 80.9782 101.099C83.4549 98.0479 87.5805 95.7209 91.5347 95.3443Z" fill="#FEFDFD"/>
<path d="M168.287 95.7951C169.568 95.7937 179.807 95.6623 180.197 95.9571C180.299 97.1228 176.96 97.6844 176.433 99.9854C175.8 102.754 176.008 104.947 176.021 107.753L176.037 116.723L176.029 125.908C176.025 128.924 175.825 132.269 176.503 135.228C177.037 137.559 179.803 137.941 180.002 138.409C180.091 138.625 180.085 138.87 179.986 139.082C179.507 139.234 164.621 139.131 164.192 138.959L164.142 138.833C164.412 138.065 165.594 137.87 166.227 137.43C167.232 136.732 168.074 135.466 168.282 134.253C168.649 132.114 168.563 102.567 168.344 101.993C168.324 101.941 168.257 101.87 168.223 101.822C167.62 102.86 167.133 104.597 166.753 105.784L165.115 110.895C163.103 117.27 161.02 123.623 158.866 129.952C157.777 133.248 156.89 136.821 155.43 139.938L148.64 118.654L145.36 108.24C145.019 107.17 143.623 102.361 143.025 101.879L142.861 101.899C142.52 102.41 142.689 105.75 142.701 106.535C142.757 109.265 142.794 111.995 142.812 114.726L142.854 125.702C142.857 128.08 142.843 130.468 142.928 132.839C142.992 134.596 143.334 136.378 144.925 137.374C145.547 137.765 146.915 138.118 146.852 138.972C146.428 139.275 137.799 139.108 136.633 138.976C138.321 137.259 140.716 137.543 140.986 134.193C141.118 132.549 141.153 131.008 141.17 129.351L141.194 120.962L141.209 108.352C141.206 106.005 141.212 103.675 141.148 101.317C141.126 99.5295 140.76 98.1419 138.913 97.4456C138.152 97.1587 136.534 97.0708 136.748 96.0039C137.199 95.7436 139.567 95.8265 140.243 95.829C142.86 95.7691 146.135 95.7438 148.737 95.8317C149.871 98.8178 150.767 101.991 151.719 105.052L155.709 117.632C156.222 119.238 157.666 124.108 158.394 125.42L165.256 104.578C165.744 103.128 166.217 101.674 166.674 100.215C167.167 98.6414 167.503 97.2555 168.287 95.7951Z" fill="#FEFDFD"/>
<path fill-rule="evenodd" clip-rule="evenodd" d="M183.04 95.8222C185.609 95.6815 188.346 95.7726 190.923 95.77C194.324 95.7667 197.887 95.6901 201.236 96.2059C203.735 96.5909 206.309 97.8419 207.708 99.9976C209.26 102.28 209.963 104.876 209.482 107.613C209.042 110.121 207.521 112.644 205.404 114.082C204.502 114.694 203.532 115.183 202.617 115.817C203.967 116.604 205.661 117.174 206.857 118.09C209.232 119.91 210.774 122.61 211.136 125.58C211.556 128.783 210.551 132.091 208.59 134.631C206.48 137.142 203.804 139.011 200.407 139.13C197.891 139.114 194.704 139.251 192.27 139.11C190.518 139.008 183.512 139.408 182.442 138.915C182.501 138.524 183.222 138.207 183.576 138.061C185.704 137.183 186.708 135.309 186.82 133.048C186.93 130.834 186.929 128.53 186.931 126.28L186.924 107.318C186.922 105.24 187.132 102.277 186.592 100.31C185.859 97.6425 183.376 97.4805 182.866 96.2079C182.881 95.9128 182.832 96.0143 183.04 95.8222ZM200.841 118.778C199.306 117.396 196.834 117.524 194.896 117.639C194.843 117.642 194.789 117.646 194.736 117.652C194.61 117.697 194.493 117.705 194.431 117.829C194.259 118.185 194.394 133.089 194.465 134.595C194.486 135.045 194.517 135.557 194.679 135.982C194.905 136.579 195.332 137.071 195.921 137.33C196.977 137.795 198.419 137.504 199.446 137.083C200.134 136.801 200.696 136.434 201.242 135.931C203.466 133.443 203.337 129.643 203.199 126.482C203.094 124.066 202.732 120.481 200.841 118.778ZM201.89 104.338C202.079 100.192 201.021 97.1457 196.343 97.6137C195.559 97.8838 195.008 98.176 194.495 98.8677C194.386 101.049 194.428 103.483 194.428 105.681L194.453 115.893C196.09 115.816 197.641 115.75 199.148 115.01C202.506 112.926 201.734 107.746 201.89 104.338Z" fill="#FEFDFD"/>
<path fill-rule="evenodd" clip-rule="evenodd" d="M55.9046 95.4386C56.4092 95.5279 56.5035 95.8171 56.6658 96.2452C57.7035 98.9828 58.4496 101.817 59.3608 104.597L65.8809 125.031L67.9903 131.864C68.533 133.616 68.9687 135.75 70.2041 137.143C70.7275 137.734 72.3679 138.25 72.752 138.858L72.6558 139.009C71.688 139.201 57.5749 139.165 56.9322 138.915C56.782 138.624 56.8147 138.267 56.9857 137.992C57.5991 137.787 58.4187 137.92 59.1094 137.751C62.8177 136.84 61.1 133.208 60.366 130.762C59.9612 129.413 59.2252 128.023 58.8945 126.68L57.2582 126.726C54.1531 126.759 50.9432 126.694 47.8282 126.678C46.9448 129.03 46.155 131.286 45.7012 133.796C45.2959 136.037 46.1829 137.626 48.542 137.961C48.8773 138.009 49.0991 138.015 49.3052 138.288C49.3551 138.575 49.4264 138.799 49.2998 139.059C48.5423 139.248 40.2497 139.138 39.2754 139.039C40.154 138.109 41.5981 137.517 42.1487 136.56C43.1906 134.651 43.872 132.454 44.5265 130.384C47.2469 121.779 49.8647 113.131 52.6944 104.561C53.3857 102.467 54.6308 97.0575 55.9046 95.4386ZM53.1594 108.761C52.3302 110.055 51.33 114.3 50.8595 115.947C50.0986 118.609 49.0244 121.657 48.622 124.362L53.5247 124.33C54.988 124.331 56.5426 124.359 57.9984 124.326C57.6804 122.651 53.8081 109.428 53.1594 108.761Z" fill="#FEFDFD"/>
<rect x="34.5762" y="148.006" width="180.848" height="6.99367" fill="#FAEB01"/>
</svg>
