<svg width="250" height="250" viewBox="0 0 250 250" fill="none" xmlns="http://www.w3.org/2000/svg">
<path d="M0 125C0 55.9644 55.9644 0 125 0C194.036 0 250 55.9644 250 125C250 194.036 194.036 250 125 250C55.9644 250 0 194.036 0 125Z" fill="#036639"/>
<path d="M131.592 95C131.792 95.215 131.809 95.3089 131.809 95.6202C131.791 99.9663 131.763 104.308 131.926 108.652C131.935 108.871 131.895 109.19 131.744 109.356L131.585 109.343C130.791 108.789 129.921 105.395 129.482 104.236C129.16 103.376 128.773 102.542 128.324 101.742C126.718 98.9038 123.219 95.701 119.397 97.4002C118.109 97.9725 116.893 99.9679 116.53 101.328C115.359 105.704 117.478 109.117 121.216 111.333C123.03 112.462 124.895 113.272 126.627 114.5C128.454 115.788 129.991 117.447 131.135 119.367C133.157 122.831 134.03 126.502 132.956 130.464C132.066 133.628 130.559 137.184 127.599 138.917C126.076 139.761 122.915 140.62 121.186 140.318C118.558 139.86 115.527 138.649 112.914 137.945C112.424 138.746 112.136 139.829 111.598 140.439C111.293 140.575 111.389 140.583 111.094 140.532C110.889 140.332 110.902 140.22 110.87 139.935C110.87 136.382 110.89 132.829 110.929 129.276C110.936 128.152 110.725 126.222 111.034 125.115C111.089 124.919 111.317 124.867 111.501 124.824C111.671 124.886 111.817 124.905 111.878 125.071C112.527 126.858 112.673 128.854 113.314 130.692C113.756 131.984 114.362 133.213 115.116 134.351C116.274 136.076 118.611 138.342 120.698 138.597C124.955 139.117 127.295 136.489 127.937 132.657C129.116 125.633 121.768 123.316 117.275 119.931C112.368 116.234 110.627 110.466 111.559 104.572C112.569 98.3572 118.635 93.2707 124.964 95.9205C126.449 96.5421 127.436 97.3338 129.094 97.6449C129.588 97.4661 129.754 97.3534 130.188 97.0775C130.734 96.1159 130.523 95.5573 131.592 95Z" fill="#FEFDFD"/>
<path d="M91.5339 95.3443C96.8729 94.9649 97.6823 96.7499 101.982 98.2102C103.843 97.3362 104.228 95.5783 105.029 95.2942L105.208 95.3898C105.79 96.5083 105.191 106.712 105.466 108.671C105.517 109.036 105.446 109.981 105.139 110.24C104.343 110.152 103.728 108.059 103.47 107.328C101.635 102.139 98.68 96.9097 92.4612 96.8423C91.0961 96.8275 89.3393 97.4909 88.4078 98.5877C84.0347 103.737 83.7584 111.769 83.6989 118.198C83.7615 123.262 84.1923 131.897 87.9916 135.674C89.6824 137.355 91.6006 137.749 93.8501 137.734C97.9176 137.567 101.262 134.919 103.546 131.732C103.912 131.221 104.218 130.645 104.678 130.215C105.066 130.108 105.872 130.093 106.074 130.498C105.987 131.785 104.658 133.879 103.839 134.85C101.186 137.995 98.1925 139.917 94.0263 140.322C90.3709 140.677 85.9415 138.877 83.1797 136.6C78.8828 133.056 76.5961 126.989 76.0435 121.572C75.3329 114.604 76.445 106.683 80.9774 101.099C83.4542 98.0479 87.5798 95.7209 91.5339 95.3443Z" fill="#FEFDFD"/>
<path d="M168.287 95.7951C169.568 95.7937 179.806 95.6623 180.196 95.9571C180.299 97.1228 176.959 97.6844 176.432 99.9854C175.799 102.754 176.008 104.947 176.02 107.753L176.036 116.723L176.029 125.908C176.024 128.924 175.824 132.269 176.503 135.228C177.036 137.559 179.802 137.941 180.001 138.409C180.09 138.625 180.084 138.87 179.985 139.082C179.507 139.234 164.62 139.131 164.191 138.959L164.141 138.833C164.412 138.065 165.593 137.87 166.226 137.43C167.231 136.732 168.073 135.466 168.281 134.253C168.648 132.114 168.562 102.567 168.343 101.993C168.323 101.941 168.256 101.87 168.222 101.822C167.62 102.86 167.133 104.597 166.752 105.784L165.114 110.895C163.102 117.27 161.019 123.623 158.865 129.952C157.776 133.248 156.889 136.821 155.43 139.938L148.639 118.654L145.36 108.24C145.018 107.17 143.623 102.361 143.025 101.879L142.861 101.899C142.519 102.41 142.688 105.75 142.7 106.535C142.756 109.265 142.794 111.995 142.812 114.726L142.853 125.702C142.856 128.08 142.842 130.468 142.928 132.839C142.991 134.596 143.333 136.378 144.924 137.374C145.546 137.765 146.914 138.118 146.852 138.972C146.427 139.275 137.799 139.108 136.633 138.976C138.32 137.259 140.715 137.543 140.985 134.193C141.117 132.549 141.152 131.008 141.169 129.351L141.194 120.962L141.209 108.352C141.205 106.005 141.212 103.675 141.147 101.317C141.125 99.5295 140.759 98.1419 138.912 97.4456C138.151 97.1587 136.534 97.0708 136.747 96.0039C137.198 95.7436 139.566 95.8265 140.243 95.829C142.859 95.7691 146.134 95.7438 148.737 95.8317C149.87 98.8178 150.766 101.991 151.718 105.052L155.708 117.632C156.222 119.238 157.665 124.108 158.393 125.42L165.255 104.578C165.743 103.128 166.216 101.674 166.673 100.215C167.166 98.6414 167.503 97.2555 168.287 95.7951Z" fill="#FEFDFD"/>
<path fill-rule="evenodd" clip-rule="evenodd" d="M183.04 95.8222C185.608 95.6815 188.345 95.7726 190.922 95.77C194.324 95.7667 197.887 95.6901 201.235 96.2059C203.734 96.5909 206.309 97.8419 207.708 99.9976C209.259 102.28 209.962 104.876 209.482 107.613C209.041 110.121 207.521 112.644 205.403 114.082C204.502 114.694 203.531 115.183 202.617 115.817C203.966 116.604 205.661 117.174 206.856 118.09C209.231 119.91 210.773 122.61 211.135 125.58C211.555 128.783 210.551 132.091 208.589 134.631C206.479 137.142 203.803 139.011 200.406 139.13C197.89 139.114 194.703 139.251 192.269 139.11C190.517 139.008 183.512 139.408 182.441 138.915C182.5 138.524 183.222 138.207 183.576 138.061C185.704 137.183 186.707 135.309 186.819 133.048C186.929 130.834 186.928 128.53 186.93 126.28L186.923 107.318C186.922 105.24 187.131 102.277 186.591 100.31C185.859 97.6425 183.375 97.4805 182.865 96.2079C182.88 95.9128 182.832 96.0143 183.04 95.8222ZM200.841 118.778C199.305 117.396 196.833 117.524 194.895 117.639C194.842 117.642 194.788 117.646 194.735 117.652C194.61 117.697 194.492 117.705 194.43 117.829C194.258 118.185 194.393 133.089 194.464 134.595C194.485 135.045 194.517 135.557 194.678 135.982C194.905 136.579 195.331 137.071 195.92 137.33C196.977 137.795 198.418 137.504 199.446 137.083C200.134 136.801 200.696 136.434 201.241 135.931C203.466 133.443 203.336 129.643 203.198 126.482C203.093 124.066 202.731 120.481 200.841 118.778ZM201.889 104.338C202.078 100.192 201.02 97.1457 196.343 97.6137C195.558 97.8838 195.008 98.176 194.494 98.8677C194.385 101.049 194.427 103.483 194.428 105.681L194.452 115.893C196.089 115.816 197.641 115.75 199.147 115.01C202.505 112.926 201.734 107.746 201.889 104.338Z" fill="#FEFDFD"/>
<path fill-rule="evenodd" clip-rule="evenodd" d="M55.9038 95.4386C56.4085 95.5279 56.5028 95.8171 56.665 96.2452C57.7027 98.9828 58.4488 101.817 59.3601 104.597L65.8801 125.031L67.9895 131.864C68.5322 133.616 68.968 135.75 70.2033 137.143C70.7268 137.734 72.3672 138.25 72.7513 138.858L72.655 139.009C71.6873 139.201 57.5742 139.165 56.9314 138.915C56.7812 138.624 56.814 138.267 56.985 137.992C57.5984 137.787 58.418 137.92 59.1086 137.751C62.817 136.84 61.0993 133.208 60.3653 130.762C59.9605 129.413 59.2245 128.023 58.8937 126.68L57.2575 126.726C54.1524 126.759 50.9425 126.694 47.8275 126.678C46.9441 129.03 46.1543 131.286 45.7005 133.796C45.2952 136.037 46.1822 137.626 48.5413 137.961C48.8766 138.009 49.0983 138.015 49.3045 138.288C49.3543 138.575 49.4257 138.799 49.2991 139.059C48.5415 139.248 40.249 139.138 39.2747 139.039C40.1533 138.109 41.5973 137.517 42.148 136.56C43.1899 134.651 43.8713 132.454 44.5258 130.384C47.2462 121.779 49.8639 113.131 52.6936 104.561C53.385 102.467 54.6301 97.0575 55.9038 95.4386ZM53.1586 108.761C52.3295 110.055 51.3293 114.3 50.8588 115.947C50.0978 118.609 49.0237 121.657 48.6212 124.362L53.524 124.33C54.9872 124.331 56.5419 124.359 57.9977 124.326C57.6797 122.651 53.8074 109.428 53.1586 108.761Z" fill="#FEFDFD"/>
<rect x="34.5763" y="148.006" width="180.848" height="6.99367" fill="#FAEB01"/>
</svg>
