<svg width="250" height="250" viewBox="0 0 250 250" fill="none" xmlns="http://www.w3.org/2000/svg">
<mask id="path-1-inside-1_453_473" fill="white">
<path d="M0 125C0 55.9644 55.9644 0 125 0C194.036 0 250 55.9644 250 125C250 194.036 194.036 250 125 250C55.9644 250 0 194.036 0 125Z"/>
</mask>
<path d="M0 125C0 55.9644 55.9644 0 125 0C194.036 0 250 55.9644 250 125C250 194.036 194.036 250 125 250C55.9644 250 0 194.036 0 125Z" fill="white"/>
<path d="M0 125M250 125M250 125M0 125M125 0M250 125M125 250M0 125M125 250V248C57.069 248 2 192.931 2 125H0H-2C-2 195.14 54.8598 252 125 252V250ZM250 125H248C248 192.931 192.931 248 125 248V250V252C195.14 252 252 195.14 252 125H250ZM125 0V2C192.931 2 248 57.069 248 125H250H252C252 54.8598 195.14 -2 125 -2V0ZM125 0V-2C54.8598 -2 -2 54.8598 -2 125H0H2C2 57.069 57.069 2 125 2V0Z" fill="#DDDBDB" mask="url(#path-1-inside-1_453_473)"/>
<path d="M141.969 180.084C138.707 184.355 133.862 187.29 128.178 188.16C118.642 189.604 109.495 185.007 104.883 176.45L97.3662 160.78C95.5802 157.473 92.5053 155.065 88.8712 154.118L72.0365 148.962C62.6098 146.524 55.9629 138.759 55.0932 129.161C54.2701 120.061 59.0689 111.721 67.2999 107.9L127.572 79.9462C135.135 76.4364 144.003 77.5235 150.712 82.7883C157.405 88.0374 160.574 96.3926 158.974 104.561L145.913 171.232C145.261 174.556 143.894 177.553 141.953 180.084H141.969ZM70.4991 122.871C69.4275 124.269 69.3499 125.884 69.443 126.925C69.6605 129.301 71.1824 132.189 74.832 133.122L98.2203 139.97C101.854 140.902 104.929 143.324 106.715 146.633L117.447 168.25C119.232 171.558 122.401 172.351 124.777 171.993C126.299 171.76 128.97 170.859 129.638 167.412L142.699 100.741C143.413 97.0915 140.866 94.7775 140.074 94.1563C139.266 93.5351 136.409 91.6093 133.008 93.1779L72.7354 121.132C71.7104 121.614 70.996 122.219 70.4991 122.871Z" fill="#713FFF"/>
<path d="M186.316 66.4539C179.607 61.1892 170.739 60.1021 163.176 63.6119L102.904 91.5661C94.6571 95.3865 89.8739 103.726 90.6969 112.827C91.5667 122.425 98.2135 130.205 107.64 132.643L119.521 136.277L122.642 120.374L110.451 116.802C106.802 115.855 105.28 112.982 105.062 110.606C104.969 109.566 105.062 107.935 106.118 106.537C106.615 105.885 107.345 105.279 108.355 104.798L168.611 76.8436C171.997 75.275 174.87 77.2008 175.678 77.822C176.47 78.4432 179.017 80.7572 178.302 84.4067L165.241 151.077C164.574 154.525 161.903 155.426 160.381 155.659C158.005 156.016 154.836 155.224 153.05 151.916L142.319 130.298C141.387 128.574 140.114 127.115 138.576 125.95L134.383 147.366L140.486 160.101C145.099 168.658 154.246 173.255 163.782 171.81C169.45 170.956 174.311 168.005 177.573 163.735C179.498 161.203 180.88 158.19 181.532 154.883L194.593 88.2116C196.193 80.0428 193.025 71.7031 186.331 66.4384" fill="#713FFF"/>
</svg>
