<svg width="250" height="250" viewBox="0 0 250 250" fill="none" xmlns="http://www.w3.org/2000/svg">
<path d="M0 125C0 55.9644 55.9644 0 125 0C194.036 0 250 55.9644 250 125C250 194.036 194.036 250 125 250C55.9644 250 0 194.036 0 125Z" fill="white"/>
<path d="M161.3 57.9342V58.1837V191.821H195V57.9342H161.3Z" fill="#2054D2"/>
<path d="M194.509 124.875C194.534 138.787 190.464 152.395 182.814 163.975C175.164 175.554 164.279 184.586 151.535 189.927C138.791 195.268 124.762 196.678 111.223 193.98C97.6839 191.28 85.2434 184.593 75.4757 174.765C65.7079 164.936 59.0522 152.407 56.3507 138.764C53.6491 125.12 55.0232 110.976 60.2991 98.1199C65.5749 85.2644 74.5155 74.275 85.9892 66.5435C97.4628 58.8114 110.954 54.6843 124.755 54.6842C143.234 54.6842 160.957 62.0756 174.036 75.2352C187.113 88.3949 194.477 106.247 194.509 124.875ZM89.0729 124.875C89.0729 131.989 91.1656 138.943 95.0865 144.859C99.0073 150.774 104.58 155.384 111.1 158.107C117.62 160.829 124.795 161.541 131.717 160.154C138.638 158.766 144.996 155.34 149.986 150.309C154.977 145.279 158.375 138.87 159.752 131.892C161.129 124.915 160.422 117.682 157.722 111.11C155.021 104.538 150.447 98.9195 144.579 94.9676C138.712 91.015 131.813 88.9053 124.755 88.9053C115.292 88.9053 106.216 92.6948 99.524 99.4405C92.8323 106.186 89.0729 115.335 89.0729 124.875Z" fill="#D8A28F"/>
</svg>
