<svg width="250" height="250" viewBox="0 0 250 250" fill="none" xmlns="http://www.w3.org/2000/svg">
<mask id="path-1-inside-1_453_399" fill="white">
<path d="M0 125C0 55.9644 55.9644 0 125 0C194.036 0 250 55.9644 250 125C250 194.036 194.036 250 125 250C55.9644 250 0 194.036 0 125Z"/>
</mask>
<path d="M0 125C0 55.9644 55.9644 0 125 0C194.036 0 250 55.9644 250 125C250 194.036 194.036 250 125 250C55.9644 250 0 194.036 0 125Z" fill="white"/>
<path d="M0 125M250 125M250 125M0 125M125 0M250 125M125 250M0 125M125 250V248C57.069 248 2 192.931 2 125H0H-2C-2 195.14 54.8598 252 125 252V250ZM250 125H248C248 192.931 192.931 248 125 248V250V252C195.14 252 252 195.14 252 125H250ZM125 0V2C192.931 2 248 57.069 248 125H250H252C252 54.8598 195.14 -2 125 -2V0ZM125 0V-2C54.8598 -2 -2 54.8598 -2 125H0H2C2 57.069 57.069 2 125 2V0Z" fill="#DDDBDB" mask="url(#path-1-inside-1_453_399)"/>
<path d="M161.301 57.9341V58.1836V191.821H195.001V57.9341H161.301Z" fill="#2054D2"/>
<path d="M194.51 124.875C194.535 138.787 190.464 152.395 182.815 163.974C175.165 175.554 164.279 184.586 151.536 189.927C138.792 195.268 124.763 196.678 111.224 193.98C97.6847 191.28 85.2441 184.593 75.4764 174.765C65.7087 164.936 59.0529 152.407 56.3514 138.764C53.6498 125.12 55.024 110.976 60.2998 98.1198C65.5757 85.2643 74.5162 74.2749 85.9899 66.5434C97.4636 58.8113 110.955 54.6841 124.756 54.6841C143.235 54.6841 160.958 62.0754 174.036 75.2351C187.114 88.3948 194.478 106.247 194.51 124.875ZM89.0737 124.875C89.0737 131.989 91.1664 138.943 95.0872 144.859C99.0081 150.773 104.581 155.384 111.101 158.106C117.621 160.829 124.795 161.541 131.717 160.154C138.639 158.765 144.997 155.34 149.987 150.309C154.977 145.279 158.376 138.869 159.753 131.892C161.13 124.915 160.423 117.682 157.722 111.11C155.022 104.537 150.448 98.9194 144.58 94.9674C138.712 91.0149 131.813 88.9052 124.756 88.9052C115.293 88.9052 106.217 92.6947 99.5248 99.4404C92.833 106.186 89.0737 115.335 89.0737 124.875Z" fill="#D8A28F"/>
</svg>
