<svg width="250" height="250" viewBox="0 0 250 250" fill="none" xmlns="http://www.w3.org/2000/svg">
<path d="M0 125C0 55.9644 55.9644 0 125 0C194.036 0 250 55.9644 250 125C250 194.036 194.036 250 125 250C55.9644 250 0 194.036 0 125Z" fill="white"/>
<path d="M124.744 66.1073C126.006 66.7488 134.921 82.4938 136.527 85.1912L185.435 167.407C188.631 172.817 191.89 178.041 195 183.565L157.77 183.765C156.716 183.66 156.356 183.606 155.782 182.63C154.692 180.779 153.667 178.894 152.602 177.03L146.399 166.33L124.134 128.612C112.018 128.665 99.8991 128.624 87.7817 128.49C89.9138 125.287 91.7194 121.707 93.675 118.401C97.0972 112.616 100.595 106.859 104.034 101.088L121.351 71.8829C122.508 69.8983 123.449 68.0295 124.744 66.1073Z" fill="#0B370F"/>
<path d="M80.1685 141.305C92.6739 141.152 105.181 141.164 117.685 141.34C122.357 148.468 126.425 156.03 130.787 163.275L137.339 174.261C139.609 178.047 142.566 183.893 142.566 183.893H112.322L99.0077 162.805C99.0077 162.805 89.3122 176.447 85.8085 183.893H54.9995C54.9995 183.893 56.9412 180.162 57.8322 178.631L64.024 168.137C65.283 165.979 66.7099 163.828 68.0091 161.66C72.0697 154.884 76.0452 148.037 80.1685 141.305Z" fill="#E69702"/>
</svg>
