<svg width="250" height="250" viewBox="0 0 250 250" fill="none" xmlns="http://www.w3.org/2000/svg">
<mask id="path-1-inside-1_453_153" fill="white">
<path d="M0 125C0 55.9644 55.9644 0 125 0C194.036 0 250 55.9644 250 125C250 194.036 194.036 250 125 250C55.9644 250 0 194.036 0 125Z"/>
</mask>
<path d="M0 125C0 55.9644 55.9644 0 125 0C194.036 0 250 55.9644 250 125C250 194.036 194.036 250 125 250C55.9644 250 0 194.036 0 125Z" fill="white"/>
<path d="M0 125M250 125M250 125M0 125M125 0M250 125M125 250M0 125M125 250V248C57.069 248 2 192.931 2 125H0H-2C-2 195.14 54.8598 252 125 252V250ZM250 125H248C248 192.931 192.931 248 125 248V250V252C195.14 252 252 195.14 252 125H250ZM125 0V2C192.931 2 248 57.069 248 125H250H252C252 54.8598 195.14 -2 125 -2V0ZM125 0V-2C54.8598 -2 -2 54.8598 -2 125H0H2C2 57.069 57.069 2 125 2V0Z" fill="#DDDBDB" mask="url(#path-1-inside-1_453_153)"/>
<path d="M124.744 66.1074C126.006 66.7489 134.922 82.4939 136.527 85.1913L185.436 167.407C188.631 172.818 191.891 178.042 195 183.566L157.771 183.765C156.716 183.66 156.357 183.606 155.782 182.63C154.693 180.779 153.667 178.894 152.603 177.03L146.4 166.33L124.135 128.612C112.018 128.665 99.8996 128.624 87.7822 128.49C89.9143 125.287 91.7199 121.707 93.6755 118.401C97.0977 112.616 100.596 106.859 104.035 101.088L121.352 71.883C122.508 69.8984 123.449 68.0296 124.744 66.1074Z" fill="#0B370F"/>
<path d="M80.1689 141.305C92.6744 141.152 105.181 141.164 117.686 141.34C122.358 148.468 126.426 156.03 130.787 163.275L137.34 174.262C139.609 178.047 142.566 183.893 142.566 183.893H112.323L99.0082 162.805C99.0082 162.805 89.3127 176.447 85.809 183.893H55C55 183.893 56.9417 180.162 57.8327 178.631L64.0245 168.137C65.2835 165.979 66.7104 163.828 68.0096 161.66C72.0702 154.884 76.0456 148.038 80.1689 141.305Z" fill="#E69702"/>
</svg>
