<svg width="250" height="250" viewBox="0 0 250 250" fill="none" xmlns="http://www.w3.org/2000/svg">
<mask id="path-1-inside-1_453_470" fill="white">
<path d="M0 125C0 55.9644 55.9644 0 125 0C194.036 0 250 55.9644 250 125C250 194.036 194.036 250 125 250C55.9644 250 0 194.036 0 125Z"/>
</mask>
<path d="M0 125C0 55.9644 55.9644 0 125 0C194.036 0 250 55.9644 250 125C250 194.036 194.036 250 125 250C55.9644 250 0 194.036 0 125Z" fill="white"/>
<path d="M0 125M250 125M250 125M0 125M125 0M250 125M125 250M0 125M125 250V248C57.069 248 2 192.931 2 125H0H-2C-2 195.14 54.8598 252 125 252V250ZM250 125H248C248 192.931 192.931 248 125 248V250V252C195.14 252 252 195.14 252 125H250ZM125 0V2C192.931 2 248 57.069 248 125H250H252C252 54.8598 195.14 -2 125 -2V0ZM125 0V-2C54.8598 -2 -2 54.8598 -2 125H0H2C2 57.069 57.069 2 125 2V0Z" fill="#DDDBDB" mask="url(#path-1-inside-1_453_470)"/>
<path d="M122.704 153.761C124.91 151.455 127.052 149.214 129.186 146.973C132.82 143.176 136.454 139.372 140.088 135.574C141.076 134.544 142.215 133.78 143.679 133.629C146.924 133.297 149.267 135.582 149.592 138.255C149.729 139.372 149.642 140.452 149.166 141.49C148.921 142.03 148.568 142.499 148.149 142.917C144.14 146.908 140.139 150.9 136.13 154.885C135.913 155.101 135.892 155.202 136.115 155.432C140.68 160.13 145.244 164.843 149.801 169.555C151.452 171.263 151.985 173.778 151.026 175.838C150.067 177.906 148.395 179.001 146.094 179.102C144.234 179.189 142.792 178.425 141.573 177.078C135.401 170.261 129.222 163.452 123.043 156.643C122.956 156.542 122.862 156.448 122.761 156.34C122.668 156.47 122.711 156.6 122.711 156.722C122.711 162.112 122.711 167.502 122.704 172.891C122.704 175.564 121.153 177.913 118.745 178.764C114.707 180.19 111.355 177.265 110.814 174.123C110.742 173.698 110.727 173.266 110.727 172.834C110.727 153.148 110.727 133.47 110.727 113.785C110.727 110.867 112.516 108.395 115.183 107.704C119.351 106.623 122.365 109.945 122.646 112.784C122.682 113.166 122.704 113.547 122.704 113.929C122.704 127.043 122.704 140.164 122.704 153.278C122.704 153.415 122.704 153.545 122.704 153.761Z" fill="black"/>
<path d="M183.009 173.092C182.649 173.503 182.324 173.899 181.978 174.267C178.978 177.487 175.265 179.051 170.867 179.101C167.86 179.137 165.055 178.474 162.553 176.781C158.998 174.382 156.893 171.031 156.136 166.823C155.905 165.555 155.819 164.28 155.819 162.99C155.819 155.288 155.819 147.578 155.819 139.875C155.819 137.137 157.383 134.81 159.791 133.931C163.389 132.619 167.377 135.134 167.759 138.953C167.795 139.328 167.809 139.695 167.809 140.07C167.809 146.778 167.809 153.486 167.809 160.194C167.809 162.061 168.17 163.819 169.266 165.368C170.795 167.522 172.929 168.481 175.539 168.466C179.815 168.445 182.569 165.281 182.959 161.614C183.016 161.074 183.031 160.54 183.031 160C183.031 153.292 183.031 146.583 183.031 139.875C183.031 137.202 184.242 135.192 186.658 134.111C190.623 132.331 194.265 135.206 194.906 138.47C194.979 138.838 194.986 139.205 194.986 139.58C194.986 150.762 194.964 161.953 195 173.135C195.007 175.859 192.75 178.698 189.809 179.08C186.773 179.476 183.701 177.278 183.16 174.259C183.103 173.892 183.067 173.51 183.009 173.092Z" fill="black"/>
<path d="M177.478 96.9328C178.855 97.4589 180.225 97.9922 181.602 98.511C185.445 99.9591 189.296 101.408 193.139 102.856C193.86 103.13 194.43 103.576 194.783 104.283C194.92 104.563 194.999 104.859 194.999 105.183C194.999 111.005 194.999 116.82 194.992 122.642C194.992 123.679 194.163 124.602 193.031 124.875C192.411 125.027 191.798 124.984 191.192 124.76C186.044 122.822 180.895 120.891 175.754 118.953C166.403 115.436 157.058 111.913 147.706 108.39C147.418 108.281 147.115 108.209 146.855 108.029C146.963 107.928 147.079 107.979 147.194 108.008C147.735 108.145 148.261 108.094 148.78 107.892C152.767 106.336 156.769 104.794 160.764 103.252C166.114 101.184 171.457 99.1017 176.807 97.0482C176.951 96.9905 177.096 96.9328 177.233 96.8538C177.334 96.8104 177.413 96.8538 177.478 96.9328Z" fill="#6F3A96"/>
<path d="M177.479 96.9311C177.407 96.9095 177.335 96.8951 177.263 96.8735C177.097 96.9528 176.96 96.8591 176.816 96.8087C171.242 94.7263 165.669 92.615 160.095 90.5256C156.497 89.1782 152.906 87.8235 149.315 86.4617C148.695 86.2239 148.083 86.1951 147.441 86.2528C147.311 86.2672 147.181 86.3176 147.066 86.2023C147.729 85.8492 148.457 85.6259 149.157 85.3521C156.519 82.4987 163.888 79.6454 171.25 76.7992C176.203 74.8826 181.149 72.9731 186.103 71.0565C187.855 70.3792 189.593 71.5681 189.593 73.4559C189.6 79.0834 189.593 84.7108 189.593 90.3382C189.593 91.5848 189.038 92.4277 187.862 92.889C185.216 93.9265 182.563 94.9425 179.916 95.9657C179.102 96.2827 178.287 96.6141 177.479 96.9311Z" fill="#00C3FF"/>
<path d="M147.06 86.2024C148.3 85.8781 149.389 86.3897 150.499 86.8076C157.184 89.3295 163.875 91.8371 170.559 94.359C172.794 95.2019 175.022 96.0449 177.257 96.888C177.185 97.0754 176.991 97.0754 176.854 97.133C173.89 98.2859 170.927 99.4316 167.956 100.577C164.754 101.817 161.553 103.041 158.352 104.281C155.597 105.347 152.843 106.421 150.089 107.487C149.641 107.66 149.194 107.833 148.747 108.006C148.12 108.244 147.485 108.208 146.851 108.028C145.798 107.538 145.279 106.695 145.279 105.542C145.272 102.688 145.279 99.835 145.279 96.9817C145.279 94.3301 145.301 91.6858 145.272 89.0341C145.25 87.6723 145.755 86.6996 147.06 86.2024Z" fill="#581689"/>
<path d="M103.379 139.848C103.379 139.402 103.343 138.962 103.264 138.522C102.774 135.835 100.329 133.702 97.64 133.594C94.2727 133.457 92.1023 136.044 91.5833 138.126C91.4101 138.818 91.3814 139.524 91.3814 140.324C91.2514 140.165 91.1794 140.079 91.1145 140C89.3625 137.852 87.2209 136.21 84.6612 135.129C82.462 134.199 80.1548 133.76 77.7753 133.63C74.7901 133.472 71.8699 133.789 69.0794 134.862C63.5707 136.988 59.677 140.871 57.1462 146.139C55.0479 150.52 54.6658 155.189 55.2426 159.944C55.7762 164.325 57.4851 168.216 60.3548 171.581C62.9433 174.622 66.0583 176.906 69.8942 178.131C73.312 179.219 76.8018 179.348 80.3204 178.801C84.6755 178.124 88.3097 176.128 91.1218 172.705C91.1867 172.626 91.2298 172.496 91.367 172.482C91.3884 172.871 91.403 173.238 91.4247 173.613C91.6193 176.675 94.7774 180.04 99.0027 178.887C101.599 178.181 103.379 175.717 103.379 172.885C103.379 161.875 103.379 150.858 103.379 139.848ZM81.6328 167.697C78.4531 168.231 75.3741 167.928 72.5549 166.256C68.7838 164.022 66.9668 160.665 66.9884 156.291C67.0028 153.157 67.9618 150.404 70.2619 148.199C72.2881 146.254 74.7108 145.159 77.5084 144.885C80.1691 144.625 82.7289 144.957 85.1154 146.218C89.0092 148.271 91.1291 151.867 91.1291 156.363C91.1651 163.194 86.2042 166.926 81.6328 167.697Z" fill="black"/>
</svg>
