<svg width="250" height="250" viewBox="0 0 250 250" fill="none" xmlns="http://www.w3.org/2000/svg">
<mask id="path-1-inside-1_453_419" fill="white">
<path d="M0 125C0 55.9644 55.9644 0 125 0C194.036 0 250 55.9644 250 125C250 194.036 194.036 250 125 250C55.9644 250 0 194.036 0 125Z"/>
</mask>
<path d="M0 125C0 55.9644 55.9644 0 125 0C194.036 0 250 55.9644 250 125C250 194.036 194.036 250 125 250C55.9644 250 0 194.036 0 125Z" fill="white"/>
<path d="M0 125M250 125M250 125M0 125M125 0M250 125M125 250M0 125M125 250V248C57.069 248 2 192.931 2 125H0H-2C-2 195.14 54.8598 252 125 252V250ZM250 125H248C248 192.931 192.931 248 125 248V250V252C195.14 252 252 195.14 252 125H250ZM125 0V2C192.931 2 248 57.069 248 125H250H252C252 54.8598 195.14 -2 125 -2V0ZM125 0V-2C54.8598 -2 -2 54.8598 -2 125H0H2C2 57.069 57.069 2 125 2V0Z" fill="#DDDBDB" mask="url(#path-1-inside-1_453_419)"/>
<path d="M149.132 175.947H174.368C174.56 175.947 174.692 175.755 174.623 175.576L166.854 155.402C166.819 155.311 166.738 155.246 166.642 155.231C159.232 154.075 151.473 153.247 143.547 152.758C143.363 152.747 143.221 152.917 143.265 153.096L148.867 175.74C148.897 175.862 149.006 175.947 149.132 175.947Z" fill="#164B3B"/>
<path d="M73.9314 175.947H98.6703C98.7945 175.947 98.903 175.864 98.9344 175.743L104.768 153.432C104.815 153.251 104.669 153.076 104.482 153.091C96.4907 153.726 88.6259 154.715 81.0688 156.069C80.9738 156.086 80.895 156.152 80.8614 156.242L73.6755 175.579C73.6093 175.758 73.7412 175.947 73.9314 175.947Z" fill="#164B3B"/>
<path d="M124.849 78.6516L138.089 132.174C138.118 132.288 138.216 132.372 138.333 132.381C145.91 133.002 152.743 134.248 158.879 135.906C159.096 135.964 159.287 135.752 159.207 135.543L123.509 42.8441C123.419 42.6094 123.086 42.6114 122.999 42.8471L87.403 138.638C87.3206 138.86 87.5404 139.074 87.7607 138.988C94.6831 136.263 102.145 134.09 109.95 132.949C110.059 132.933 110.148 132.854 110.176 132.748L124.32 78.6481C124.392 78.3744 124.781 78.377 124.849 78.6516Z" fill="#164B3B"/>
<path d="M136.293 177.331H111.345C111.173 177.331 111.044 177.174 111.077 177.005L115.875 152.639C115.899 152.515 116.006 152.424 116.132 152.419C121.4 152.227 126.684 152.184 131.935 152.288C132.065 152.29 132.175 152.385 132.198 152.513L136.561 177.01C136.591 177.178 136.463 177.331 136.293 177.331Z" fill="#164B3B"/>
<path d="M124.711 110.484L128.477 131.622C128.507 131.79 128.376 131.944 128.206 131.943C125.905 131.929 123.544 131.971 121.122 132.074C120.834 132.076 120.547 132.08 120.26 132.086C120.085 132.09 119.951 131.931 119.985 131.76L124.175 110.479C124.233 110.182 124.658 110.186 124.711 110.484Z" fill="#164B3B"/>
<path d="M204.64 162.672C165.075 145.07 88.4161 143.665 45.3629 162.971C45.0825 163.097 44.866 162.767 45.0983 162.566C50.8673 157.572 77.6503 136.762 123.404 136.762C178.309 136.762 200.761 157.807 204.925 162.296C205.12 162.507 204.902 162.788 204.64 162.672Z" fill="#952929"/>
</svg>
