<svg width="250" height="250" viewBox="0 0 250 250" fill="none" xmlns="http://www.w3.org/2000/svg">
<path d="M0 125C0 55.9644 55.9644 0 125 0C194.036 0 250 55.9644 250 125C250 194.036 194.036 250 125 250C55.9644 250 0 194.036 0 125Z" fill="white"/>
<path d="M180.865 153.948L198.287 189.071C199.084 190.677 197.939 192.567 196.146 192.604L162.955 193.29C162.015 193.309 161.146 192.788 160.721 191.948L148.009 166.802C147.234 165.269 147.978 163.404 149.596 162.826L177.85 152.731C179.018 152.314 180.314 152.837 180.865 153.948Z" fill="url(#paint0_linear_1_309)"/>
<path d="M161.164 121.523L65.5099 169.991C63.4733 171.023 61.2583 168.95 62.1534 166.849L63.7755 163.043C63.9658 162.596 64.2847 162.217 64.6916 161.952L152.391 104.87C154.022 103.809 156.214 104.402 157.087 106.142L162.606 117.151C163.411 118.756 162.767 120.711 161.164 121.523Z" fill="#D2A543"/>
<path d="M161.164 121.523L65.5099 169.991C63.4733 171.023 61.2583 168.95 62.1534 166.849L63.7755 163.043C63.9658 162.596 64.2847 162.217 64.6916 161.952L152.391 104.87C154.022 103.809 156.214 104.402 157.087 106.142L162.606 117.151C163.411 118.756 162.767 120.711 161.164 121.523Z" fill="url(#paint1_linear_1_309)"/>
<path d="M141.006 78.0408L83.4941 127.744C82.1641 128.894 80.2071 127.415 80.949 125.822L121.02 39.7467C121.596 38.5082 123.349 38.4849 123.958 39.7076L141.596 75.0984C142.095 76.0988 141.852 77.3099 141.006 78.0408Z" fill="url(#paint2_linear_1_309)"/>
<path d="M150.939 98.8758L71.7719 151.509C70.7694 152.175 69.5083 151.145 69.9612 150.03L71.4353 146.399C71.5815 146.039 71.8114 145.719 72.106 145.466L143.627 83.8959C144.434 83.2012 145.68 83.4535 146.153 84.4076L151.776 95.7519C152.323 96.8555 151.964 98.1938 150.939 98.8758Z" fill="#D2A542"/>
<path d="M150.939 98.8758L71.7719 151.509C70.7694 152.175 69.5083 151.145 69.9612 150.03L71.4353 146.399C71.5815 146.039 71.8114 145.719 72.106 145.466L143.627 83.8959C144.434 83.2012 145.68 83.4535 146.153 84.4076L151.776 95.7519C152.323 96.8555 151.964 98.1938 150.939 98.8758Z" fill="url(#paint3_linear_1_309)"/>
<path d="M168.072 128.767L175.194 142.943C176.072 144.69 175.227 146.811 173.388 147.475L57.7827 189.241C54.9982 190.247 52.4215 187.322 53.7705 184.687L55.3592 181.583C55.598 181.116 55.9804 180.739 56.45 180.506L163.708 127.309C165.316 126.512 167.266 127.163 168.072 128.767Z" fill="url(#paint4_linear_1_309)"/>
<defs>
<linearGradient id="paint0_linear_1_309" x1="142.24" y1="176.118" x2="193.001" y2="164.101" gradientUnits="userSpaceOnUse">
<stop stop-color="#0D0E51"/>
<stop offset="1" stop-color="#0F0E6C"/>
</linearGradient>
<linearGradient id="paint1_linear_1_309" x1="167.206" y1="111.896" x2="44.7142" y2="151.107" gradientUnits="userSpaceOnUse">
<stop stop-color="#DDB754"/>
<stop offset="1" stop-color="#C4832F"/>
</linearGradient>
<linearGradient id="paint2_linear_1_309" x1="128.316" y1="28.5796" x2="83.8215" y2="123.049" gradientUnits="userSpaceOnUse">
<stop stop-color="#15156B"/>
<stop offset="1" stop-color="#0E074B"/>
</linearGradient>
<linearGradient id="paint3_linear_1_309" x1="155.267" y1="91.675" x2="53.0272" y2="117.672" gradientUnits="userSpaceOnUse">
<stop stop-color="#DDB754"/>
<stop offset="1" stop-color="#C4832F"/>
</linearGradient>
<linearGradient id="paint4_linear_1_309" x1="180.659" y1="134.375" x2="40.5468" y2="192.053" gradientUnits="userSpaceOnUse">
<stop stop-color="#DDB754"/>
<stop offset="1" stop-color="#C4832F"/>
</linearGradient>
</defs>
</svg>
