<svg width="250" height="250" viewBox="0 0 250 250" fill="none" xmlns="http://www.w3.org/2000/svg">
<mask id="path-1-inside-1_453_317" fill="white">
<path d="M0 125C0 55.9644 55.9644 0 125 0C194.036 0 250 55.9644 250 125C250 194.036 194.036 250 125 250C55.9644 250 0 194.036 0 125Z"/>
</mask>
<path d="M0 125C0 55.9644 55.9644 0 125 0C194.036 0 250 55.9644 250 125C250 194.036 194.036 250 125 250C55.9644 250 0 194.036 0 125Z" fill="white"/>
<path d="M0 125M250 125M250 125M0 125M125 0M250 125M125 250M0 125M125 250V248C57.069 248 2 192.931 2 125H0H-2C-2 195.14 54.8598 252 125 252V250ZM250 125H248C248 192.931 192.931 248 125 248V250V252C195.14 252 252 195.14 252 125H250ZM125 0V2C192.931 2 248 57.069 248 125H250H252C252 54.8598 195.14 -2 125 -2V0ZM125 0V-2C54.8598 -2 -2 54.8598 -2 125H0H2C2 57.069 57.069 2 125 2V0Z" fill="#DDDBDB" mask="url(#path-1-inside-1_453_317)"/>
<path d="M180.865 153.948L198.286 189.071C199.083 190.677 197.938 192.567 196.145 192.604L162.955 193.29C162.014 193.31 161.146 192.788 160.721 191.948L148.008 166.802C147.234 165.27 147.978 163.404 149.595 162.827L177.85 152.731C179.018 152.314 180.314 152.837 180.865 153.948Z" fill="url(#paint0_linear_453_317)"/>
<path d="M161.164 121.523L65.5099 169.991C63.4733 171.023 61.2583 168.95 62.1534 166.85L63.7755 163.043C63.9658 162.597 64.2847 162.217 64.6916 161.952L152.391 104.87C154.022 103.809 156.214 104.403 157.087 106.142L162.606 117.151C163.411 118.757 162.767 120.711 161.164 121.523Z" fill="#D2A543"/>
<path d="M161.164 121.523L65.5099 169.991C63.4733 171.023 61.2583 168.95 62.1534 166.85L63.7755 163.043C63.9658 162.597 64.2847 162.217 64.6916 161.952L152.391 104.87C154.022 103.809 156.214 104.403 157.087 106.142L162.606 117.151C163.411 118.757 162.767 120.711 161.164 121.523Z" fill="url(#paint1_linear_453_317)"/>
<path d="M141.006 78.041L83.4941 127.744C82.1641 128.894 80.2071 127.416 80.949 125.822L121.02 39.747C121.596 38.5085 123.349 38.4851 123.958 39.7078L141.596 75.0987C142.095 76.0991 141.852 77.3102 141.006 78.041Z" fill="url(#paint2_linear_453_317)"/>
<path d="M150.938 98.8761L71.7714 151.509C70.7689 152.176 69.5078 151.146 69.9607 150.03L71.4348 146.4C71.581 146.04 71.8109 145.719 72.1055 145.466L143.627 83.8962C144.434 83.2014 145.679 83.4538 146.152 84.4079L151.776 95.7521C152.323 96.8558 151.964 98.1941 150.938 98.8761Z" fill="#D2A542"/>
<path d="M150.938 98.8761L71.7714 151.509C70.7689 152.176 69.5078 151.146 69.9607 150.03L71.4348 146.4C71.581 146.04 71.8109 145.719 72.1055 145.466L143.627 83.8962C144.434 83.2014 145.679 83.4538 146.152 84.4079L151.776 95.7521C152.323 96.8558 151.964 98.1941 150.938 98.8761Z" fill="url(#paint3_linear_453_317)"/>
<path d="M168.072 128.767L175.194 142.943C176.072 144.69 175.227 146.811 173.388 147.476L57.7827 189.241C54.9982 190.247 52.4215 187.322 53.7705 184.687L55.3592 181.583C55.598 181.117 55.9804 180.739 56.45 180.506L163.708 127.31C165.316 126.512 167.266 127.164 168.072 128.767Z" fill="url(#paint4_linear_453_317)"/>
<defs>
<linearGradient id="paint0_linear_453_317" x1="142.239" y1="176.118" x2="193.001" y2="164.101" gradientUnits="userSpaceOnUse">
<stop stop-color="#0D0E51"/>
<stop offset="1" stop-color="#0F0E6C"/>
</linearGradient>
<linearGradient id="paint1_linear_453_317" x1="167.206" y1="111.896" x2="44.7142" y2="151.107" gradientUnits="userSpaceOnUse">
<stop stop-color="#DDB754"/>
<stop offset="1" stop-color="#C4832F"/>
</linearGradient>
<linearGradient id="paint2_linear_453_317" x1="128.316" y1="28.5798" x2="83.8215" y2="123.049" gradientUnits="userSpaceOnUse">
<stop stop-color="#15156B"/>
<stop offset="1" stop-color="#0E074B"/>
</linearGradient>
<linearGradient id="paint3_linear_453_317" x1="155.266" y1="91.6753" x2="53.0267" y2="117.673" gradientUnits="userSpaceOnUse">
<stop stop-color="#DDB754"/>
<stop offset="1" stop-color="#C4832F"/>
</linearGradient>
<linearGradient id="paint4_linear_453_317" x1="180.659" y1="134.376" x2="40.5468" y2="192.053" gradientUnits="userSpaceOnUse">
<stop stop-color="#DDB754"/>
<stop offset="1" stop-color="#C4832F"/>
</linearGradient>
</defs>
</svg>
