<svg width="250" height="250" viewBox="0 0 250 250" fill="none" xmlns="http://www.w3.org/2000/svg">
<path d="M0 125C0 55.9644 55.9644 0 125 0C194.036 0 250 55.9644 250 125C250 194.036 194.036 250 125 250C55.9644 250 0 194.036 0 125Z" fill="white"/>
<path d="M49.9624 159.508L92.1371 161.06L127.119 116.685L107.681 84.3545L49.9624 159.508Z" fill="#0967B1"/>
<path d="M108.839 139.879L57.3989 54H89.8005L127.171 116.762L108.839 139.879Z" fill="#3E4095"/>
<path d="M152.471 85.8315L190.037 86.1369L127.336 170.053L110.438 141.324L152.471 85.8315Z" fill="#D7261D"/>
<path d="M128.305 117.697L180.114 204H147.712L110.342 141.238L128.305 117.697Z" fill="#9C2828"/>
</svg>
