<svg width="250" height="250" viewBox="0 0 250 250" fill="none" xmlns="http://www.w3.org/2000/svg">
<mask id="path-1-inside-1_453_438" fill="white">
<path d="M0 125C0 55.9644 55.9644 0 125 0C194.036 0 250 55.9644 250 125C250 194.036 194.036 250 125 250C55.9644 250 0 194.036 0 125Z"/>
</mask>
<path d="M0 125C0 55.9644 55.9644 0 125 0C194.036 0 250 55.9644 250 125C250 194.036 194.036 250 125 250C55.9644 250 0 194.036 0 125Z" fill="white"/>
<path d="M0 125M250 125M250 125M0 125M125 0M250 125M125 250M0 125M125 250V248C57.069 248 2 192.931 2 125H0H-2C-2 195.14 54.8598 252 125 252V250ZM250 125H248C248 192.931 192.931 248 125 248V250V252C195.14 252 252 195.14 252 125H250ZM125 0V2C192.931 2 248 57.069 248 125H250H252C252 54.8598 195.14 -2 125 -2V0ZM125 0V-2C54.8598 -2 -2 54.8598 -2 125H0H2C2 57.069 57.069 2 125 2V0Z" fill="#DDDBDB" mask="url(#path-1-inside-1_453_438)"/>
<path d="M49.9629 159.508L92.1376 161.06L127.119 116.685L107.681 84.3545L49.9629 159.508Z" fill="#0967B1"/>
<path d="M108.84 139.879L57.4004 54H89.8019L127.173 116.762L108.84 139.879Z" fill="#3E4095"/>
<path d="M152.47 85.8315L190.036 86.1369L127.335 170.053L110.438 141.324L152.47 85.8315Z" fill="#D7261D"/>
<path d="M128.305 117.697L180.113 204H147.712L110.341 141.238L128.305 117.697Z" fill="#9C2828"/>
</svg>
