<svg width="250" height="250" viewBox="0 0 250 250" fill="none" xmlns="http://www.w3.org/2000/svg">
<path d="M0 125C0 55.9644 55.9644 0 125 0C194.036 0 250 55.9644 250 125C250 194.036 194.036 250 125 250C55.9644 250 0 194.036 0 125Z" fill="white"/>
<path d="M97.6443 107.436C71.0375 90.301 44.6422 109.112 34 119.012C71.032 108.89 99.6287 160.056 109.298 186.904L149.725 171.474C126.136 136.975 119.139 121.279 97.6443 107.436Z" fill="#6AD466"/>
<path d="M109.187 134.886V186.866C181.548 143.219 190.769 115.828 193.524 103.156C196.279 90.4838 186.66 62.0491 175.403 55.0964C187.587 95.3556 136.336 125.064 109.187 134.886Z" fill="#0D7A11"/>
</svg>
