<svg width="250" height="250" viewBox="0 0 250 250" fill="none" xmlns="http://www.w3.org/2000/svg">
<mask id="path-1-inside-1_453_228" fill="white">
<path d="M0 125C0 55.9644 55.9644 0 125 0C194.036 0 250 55.9644 250 125C250 194.036 194.036 250 125 250C55.9644 250 0 194.036 0 125Z"/>
</mask>
<path d="M0 125C0 55.9644 55.9644 0 125 0C194.036 0 250 55.9644 250 125C250 194.036 194.036 250 125 250C55.9644 250 0 194.036 0 125Z" fill="white"/>
<path d="M0 125M250 125M250 125M0 125M125 0M250 125M125 250M0 125M125 250V248C57.069 248 2 192.931 2 125H0H-2C-2 195.14 54.8598 252 125 252V250ZM250 125H248C248 192.931 192.931 248 125 248V250V252C195.14 252 252 195.14 252 125H250ZM125 0V2C192.931 2 248 57.069 248 125H250H252C252 54.8598 195.14 -2 125 -2V0ZM125 0V-2C54.8598 -2 -2 54.8598 -2 125H0H2C2 57.069 57.069 2 125 2V0Z" fill="#DDDBDB" mask="url(#path-1-inside-1_453_228)"/>
<path d="M97.6443 107.436C71.0375 90.3007 44.6422 109.112 34 119.012C71.032 108.89 99.6287 160.055 109.298 186.904L149.725 171.474C126.136 136.974 119.139 121.279 97.6443 107.436Z" fill="#6AD466"/>
<path d="M109.188 134.886V186.866C181.548 143.219 190.77 115.828 193.524 103.156C196.279 90.4835 186.66 62.0488 175.403 55.0962C187.587 95.3554 136.336 125.064 109.188 134.886Z" fill="#0D7A11"/>
</svg>
