<svg width="250" height="250" viewBox="0 0 250 250" fill="none" xmlns="http://www.w3.org/2000/svg">
<mask id="path-1-inside-1_453_261" fill="white">
<path d="M0 125C0 55.9644 55.9644 0 125 0C194.036 0 250 55.9644 250 125C250 194.036 194.036 250 125 250C55.9644 250 0 194.036 0 125Z"/>
</mask>
<path d="M0 125C0 55.9644 55.9644 0 125 0C194.036 0 250 55.9644 250 125C250 194.036 194.036 250 125 250C55.9644 250 0 194.036 0 125Z" fill="white"/>
<path d="M0 125M250 125M250 125M0 125M125 0M250 125M125 250M0 125M125 250V248C57.069 248 2 192.931 2 125H0H-2C-2 195.14 54.8598 252 125 252V250ZM250 125H248C248 192.931 192.931 248 125 248V250V252C195.14 252 252 195.14 252 125H250ZM125 0V2C192.931 2 248 57.069 248 125H250H252C252 54.8598 195.14 -2 125 -2V0ZM125 0V-2C54.8598 -2 -2 54.8598 -2 125H0H2C2 57.069 57.069 2 125 2V0Z" fill="#DDDBDB" mask="url(#path-1-inside-1_453_261)"/>
<path d="M112.148 144.974V143.284C112.181 137.484 112.695 132.86 113.689 129.413C114.716 125.966 116.208 123.182 118.163 121.061C120.119 118.94 122.472 117.018 125.223 115.294C127.278 113.968 129.117 112.593 130.741 111.168C132.366 109.742 133.658 108.168 134.619 106.445C135.58 104.688 136.061 102.732 136.061 100.578C136.061 98.2912 135.514 96.286 134.42 94.5625C133.327 92.839 131.852 91.5133 129.996 90.5852C128.173 89.6572 126.151 89.1932 123.93 89.1932C121.776 89.1932 119.738 89.6738 117.815 90.6349C115.893 91.563 114.319 92.955 113.092 94.8111C111.866 96.634 111.203 98.9044 111.104 101.622H90.8196C90.9853 94.9934 92.5762 89.5246 95.5923 85.2159C98.6084 80.8741 102.602 77.6425 107.574 75.5213C112.545 73.3669 118.031 72.2898 124.03 72.2898C130.625 72.2898 136.459 73.3835 141.53 75.571C146.601 77.7254 150.578 80.8575 153.462 84.9673C156.345 89.0772 157.787 94.0322 157.787 99.8324C157.787 103.71 157.141 107.157 155.848 110.173C154.589 113.156 152.815 115.808 150.528 118.128C148.241 120.415 145.54 122.486 142.425 124.342C139.806 125.9 137.652 127.524 135.962 129.214C134.304 130.905 133.062 132.86 132.233 135.081C131.438 137.302 131.023 140.036 130.99 143.284V144.974H112.148ZM121.991 176.793C118.677 176.793 115.843 175.633 113.49 173.312C111.17 170.959 110.027 168.142 110.06 164.861C110.027 161.613 111.17 158.829 113.49 156.509C115.843 154.188 118.677 153.028 121.991 153.028C125.14 153.028 127.908 154.188 130.294 156.509C132.68 158.829 133.89 161.613 133.923 164.861C133.89 167.048 133.31 169.054 132.183 170.876C131.089 172.666 129.648 174.108 127.858 175.202C126.068 176.262 124.113 176.793 121.991 176.793Z" fill="#FF0000"/>
</svg>
