<svg width="250" height="250" viewBox="0 0 250 250" fill="none" xmlns="http://www.w3.org/2000/svg">
<path d="M0 125C0 55.9644 55.9644 0 125 0C194.036 0 250 55.9644 250 125C250 194.036 194.036 250 125 250C55.9644 250 0 194.036 0 125Z" fill="white"/>
<path d="M181.899 104.012C184.229 104.025 186.338 103.849 188.54 104.712C188.818 104.821 189.412 105.007 189.611 105.216C193.209 107.091 195.049 110.607 194.991 114.592C194.974 115.733 194.991 116.897 194.991 118.04L194.988 126.225L194.991 132.814C194.994 135.535 195.168 138.039 193.856 140.546C192.91 142.352 191.44 143.828 189.639 144.781C187.026 146.278 183.522 145.972 180.605 145.967L172.292 145.988L165.725 145.986C164.829 145.986 163.044 146.032 162.239 145.937C159.422 145.886 156.555 144.391 154.785 142.197C152.415 139.26 152.612 136.554 152.618 133.033L152.617 127.555C152.615 125.657 152.505 121.825 152.695 120.129C152.51 119.367 152.636 117.892 152.615 117.062C152.525 113.534 152.475 111.222 154.472 108.163C156.133 105.714 159.404 104.076 162.334 104.022C164.235 103.986 166.208 104.027 168.114 104.03L181.899 104.012Z" fill="#050506"/>
<path d="M154.471 108.163C156.133 105.714 159.404 104.076 162.334 104.022C164.235 103.986 166.208 104.027 168.114 104.03L181.899 104.012C180.491 107.055 179.141 110.319 177.81 113.411L171.098 129.018L168.588 134.869C168.191 135.796 167.711 137.02 167.279 137.903C166.45 135.699 165.337 133.263 164.405 131.077L157.686 115.484L155.361 110.138C155.097 109.531 154.703 108.742 154.471 108.163Z" fill="#C9C0B7"/>
<path d="M189.611 105.216C193.209 107.091 195.049 110.607 194.991 114.592C194.974 115.733 194.991 116.897 194.991 118.04L194.988 126.225L194.991 132.814C194.994 135.535 195.168 138.039 193.856 140.546C192.91 142.352 191.44 143.828 189.639 144.78C189.275 144.298 188.621 143.091 188.568 142.521C188.405 140.76 188.452 138.814 188.454 137.047L188.453 127.215L188.449 114.576C188.449 112.278 188.399 109.858 188.557 107.57C188.603 106.923 189.223 105.75 189.611 105.216Z" fill="#C9C0B7"/>
<path d="M152.695 120.129C153.157 121.002 154.141 123.447 154.574 124.452L158.345 133.189L161.935 141.431C162.491 142.697 163.434 144.669 163.881 145.928L162.239 145.937C159.422 145.886 156.555 144.39 154.785 142.197C152.415 139.26 152.612 136.554 152.619 133.033L152.617 127.555C152.615 125.657 152.505 121.825 152.695 120.129Z" fill="#C9C0B7"/>
<path d="M181.988 109.601C182.149 109.766 182.084 115.709 182.084 116.685L182.085 130.271L182.082 137.342C182.082 139.136 182.142 140.981 181.857 142.756C181.742 143.471 181.175 144.349 180.684 144.855C180.385 145.143 179.595 145.805 179.172 145.854C177.915 146.001 176.406 145.94 175.143 145.939L166.515 145.93L166.436 145.806C168.042 142.436 169.659 138.506 171.139 135.054L177.697 119.756L180.585 113.026C180.948 112.184 181.787 110.41 181.988 109.601Z" fill="#C9C0B7"/>
<path d="M112.266 104.096C112.906 103.935 120.172 103.976 120.529 104.146C121.739 103.987 123.075 104.026 124.304 104.026L129.338 104.027L133.873 104.023C137.084 104.012 139.552 104.003 142.26 106.085C144.375 107.713 145.755 110.116 146.095 112.764C146.254 114.004 146.187 116.022 146.186 117.342L146.177 125.118V132.663C146.18 134.055 146.261 136.249 146.048 137.545C145.785 139.197 145.11 140.756 144.084 142.077C142.426 144.179 140.007 145.542 137.351 145.87C136.737 145.947 135.663 145.929 135.022 145.922C133.878 146.039 130.941 145.971 129.715 145.976C128.347 145.983 125.16 146.072 123.895 145.906C123.777 145.915 123.659 145.92 123.541 145.922C121.539 145.953 119.49 145.902 117.482 145.925C113.411 145.989 110.012 146.177 106.857 143.124C103.556 139.929 103.799 136.767 103.803 132.59C103.816 130.439 103.813 128.287 103.794 126.136C103.821 125.582 103.807 124.977 103.805 124.418L103.8 117.277C103.8 114.39 103.555 111.95 104.989 109.297C106.823 105.904 108.867 105.151 112.266 104.096Z" fill="#C9C0B7"/>
<path d="M112.266 104.096C112.906 103.935 120.172 103.976 120.529 104.146C123.482 105.895 125.377 107.173 126.342 110.751C128.321 118.083 122.902 123.43 116.196 124.949C115.392 125.132 114.756 125.299 113.915 125.344C120.924 128.514 126.017 140.59 132.77 144.859C133.363 145.234 134.354 145.809 135.022 145.922C133.878 146.039 130.941 145.971 129.715 145.976C128.347 145.983 125.16 146.072 123.895 145.906C123.777 145.915 123.659 145.92 123.541 145.922C121.539 145.953 119.49 145.902 117.482 145.925C113.411 145.989 110.012 146.177 106.857 143.124C103.556 139.929 103.799 136.767 103.803 132.59C103.816 130.439 103.813 128.287 103.794 126.136C103.821 125.582 103.807 124.977 103.805 124.418L103.8 117.277C103.8 114.39 103.555 111.95 104.989 109.297C106.823 105.904 108.867 105.151 112.266 104.096Z" fill="#050506"/>
<path d="M112.266 104.096C115.735 104.988 118.107 106.895 119.09 110.437C120.268 114.681 119.417 120.469 115.316 122.844C111.771 124.896 107.67 124.254 103.805 124.418L103.8 117.277C103.8 114.389 103.555 111.95 104.989 109.297C106.823 105.904 108.867 105.151 112.266 104.096Z" fill="#C9C0B7"/>
<path d="M103.794 126.136C105.752 126.13 108.378 125.882 109.693 127.36C111.114 128.957 112.466 130.922 113.733 132.664C116.007 135.841 118.346 138.971 120.749 142.051C121.084 142.475 123.872 145.769 123.895 145.906C123.777 145.915 123.659 145.92 123.541 145.922C121.539 145.953 119.49 145.902 117.482 145.925C113.411 145.989 110.012 146.177 106.857 143.124C103.557 139.929 103.799 136.767 103.803 132.59C103.816 130.439 103.813 128.287 103.794 126.136Z" fill="#C9C0B7"/>
<path d="M64.4885 104.002C65.5468 104.01 67.546 104.09 68.5281 104.025C72.6291 103.963 76.8688 104.061 80.9889 104.026C82.772 104.012 87.9199 103.906 89.4324 104.243C91.3185 104.657 93.053 105.586 94.4434 106.927C96.5288 108.95 97.4281 111.652 97.429 114.492C97.4305 119.398 97.4369 124.306 97.4355 129.212L97.4335 133.668C97.4326 135.083 97.505 136.545 97.2054 137.926C96.8134 139.8 95.9044 141.526 94.5816 142.91C92.4591 145.097 91.1876 145.086 88.7556 145.905C87.9925 145.985 86.5828 145.948 85.7611 145.949L80.3655 145.95L77.2188 145.95C76.9293 145.949 76.0404 145.972 75.8064 145.935C74.8432 145.837 73.6381 145.977 72.6349 145.925C67.4271 145.652 61.8027 147.17 57.797 142.845C54.6358 139.431 54.9937 136.385 55.0868 132.178C55.0807 131.241 55.003 126.434 55.1461 125.812C55.1339 125.739 55.1231 125.667 55.114 125.594C54.9797 124.557 55.0338 121.555 55.0509 120.307C55.2367 117.629 54.697 114.364 55.2798 111.75C56.3221 107.075 60.0954 104.551 64.4885 104.002Z" fill="#C9C0B7"/>
<path d="M68.5283 104.025C72.6293 103.963 76.869 104.061 80.9891 104.026C82.7722 104.012 87.9201 103.906 89.4326 104.243C91.3187 104.657 93.0532 105.586 94.4435 106.927C96.5289 108.95 97.4283 111.652 97.4292 114.492C97.4307 119.398 97.437 124.306 97.4357 129.212L97.4337 133.668C97.4328 135.083 97.5052 136.545 97.2056 137.926C96.8136 139.8 95.9046 141.526 94.5818 142.91C92.4593 145.097 91.1878 145.086 88.7557 145.905C84.8926 143.309 84.3606 140.93 82.6094 136.841L78.7317 127.796L72.3447 112.911L69.7461 106.855C69.3735 105.983 68.8569 104.884 68.5283 104.025Z" fill="#C9C0B7"/>
<path d="M64.4885 104.003C65.5468 104.011 67.546 104.09 68.5281 104.025C68.8567 104.885 69.3733 105.983 69.7459 106.856L72.3446 112.911L78.7315 127.796L82.6092 136.842C84.3604 140.931 84.8924 143.309 88.7556 145.905C87.9925 145.986 86.5828 145.949 85.7611 145.949L80.3655 145.951L77.2188 145.95C76.9293 145.95 76.0404 145.972 75.8064 145.935C78.5755 144.384 77.816 142.024 76.7412 139.59C76.3468 138.697 75.9587 137.757 75.5733 136.856L72.0034 128.512L67.216 117.372C66.3559 115.36 65.2944 112.653 64.3191 110.747C62.9762 113.543 61.5633 117.022 60.3354 119.929C58.62 123.99 56.7668 128.126 55.0868 132.179C55.0807 131.241 55.003 126.434 55.1461 125.812C55.1339 125.74 55.1231 125.667 55.114 125.594C54.9797 124.558 55.0338 121.555 55.0509 120.308C55.2367 117.629 54.697 114.364 55.2798 111.75C56.3221 107.075 60.0954 104.552 64.4885 104.003Z" fill="#050506"/>
<path d="M55.1461 125.812C55.1339 125.74 55.1231 125.667 55.114 125.594C54.9797 124.558 55.0338 121.555 55.0509 120.308C55.2367 117.629 54.697 114.364 55.2798 111.75C56.3221 107.075 60.0954 104.552 64.4885 104.003C64.1539 105.055 63.5129 106.419 63.0659 107.456L60.7129 112.948L57.2262 121.103C56.58 122.606 55.861 124.37 55.1461 125.812Z" fill="#C9C0B7"/>
</svg>
