<svg width="250" height="250" viewBox="0 0 250 250" fill="none" xmlns="http://www.w3.org/2000/svg">
<mask id="path-1-inside-1_453_451" fill="white">
<path d="M0 125C0 55.9644 55.9644 0 125 0C194.036 0 250 55.9644 250 125C250 194.036 194.036 250 125 250C55.9644 250 0 194.036 0 125Z"/>
</mask>
<path d="M0 125C0 55.9644 55.9644 0 125 0C194.036 0 250 55.9644 250 125C250 194.036 194.036 250 125 250C55.9644 250 0 194.036 0 125Z" fill="white"/>
<path d="M0 125M250 125M250 125M0 125M125 0M250 125M125 250M0 125M125 250V248C57.069 248 2 192.931 2 125H0H-2C-2 195.14 54.8598 252 125 252V250ZM250 125H248C248 192.931 192.931 248 125 248V250V252C195.14 252 252 195.14 252 125H250ZM125 0V2C192.931 2 248 57.069 248 125H250H252C252 54.8598 195.14 -2 125 -2V0ZM125 0V-2C54.8598 -2 -2 54.8598 -2 125H0H2C2 57.069 57.069 2 125 2V0Z" fill="#DDDBDB" mask="url(#path-1-inside-1_453_451)"/>
<path d="M181.898 104.012C184.228 104.025 186.337 103.849 188.539 104.712C188.818 104.821 189.412 105.007 189.611 105.216C193.209 107.091 195.048 110.607 194.99 114.592C194.974 115.733 194.991 116.897 194.991 118.04L194.988 126.225L194.991 132.814C194.993 135.535 195.168 138.039 193.855 140.546C192.909 142.352 191.439 143.828 189.639 144.781C187.026 146.278 183.522 145.972 180.604 145.967L172.291 145.988L165.725 145.986C164.828 145.986 163.043 146.032 162.239 145.937C159.422 145.886 156.554 144.391 154.784 142.197C152.414 139.26 152.612 136.554 152.618 133.033L152.616 127.555C152.615 125.657 152.504 121.825 152.694 120.129C152.51 119.367 152.636 117.892 152.614 117.062C152.525 113.534 152.474 111.222 154.471 108.163C156.133 105.714 159.403 104.076 162.333 104.022C164.234 103.986 166.207 104.027 168.114 104.03L181.898 104.012Z" fill="#050506"/>
<path d="M154.472 108.163C156.133 105.714 159.404 104.076 162.334 104.022C164.235 103.986 166.208 104.027 168.114 104.03L181.899 104.012C180.491 107.055 179.141 110.319 177.81 113.411L171.098 129.018L168.588 134.869C168.191 135.796 167.711 137.02 167.279 137.903C166.45 135.699 165.338 133.263 164.405 131.077L157.686 115.484L155.361 110.138C155.097 109.531 154.703 108.742 154.472 108.163Z" fill="#C9C0B7"/>
<path d="M189.611 105.216C193.209 107.091 195.049 110.607 194.991 114.592C194.974 115.733 194.991 116.897 194.991 118.04L194.988 126.225L194.991 132.814C194.994 135.535 195.168 138.039 193.856 140.546C192.91 142.352 191.44 143.828 189.639 144.78C189.275 144.298 188.621 143.091 188.568 142.521C188.405 140.76 188.452 138.814 188.454 137.047L188.453 127.215L188.449 114.576C188.449 112.278 188.399 109.858 188.557 107.57C188.603 106.923 189.223 105.75 189.611 105.216Z" fill="#C9C0B7"/>
<path d="M152.695 120.129C153.157 121.002 154.141 123.447 154.575 124.452L158.346 133.189L161.935 141.431C162.491 142.697 163.435 144.669 163.882 145.928L162.239 145.937C159.423 145.886 156.555 144.39 154.785 142.197C152.415 139.26 152.613 136.554 152.619 133.033L152.617 127.555C152.616 125.657 152.505 121.825 152.695 120.129Z" fill="#C9C0B7"/>
<path d="M181.988 109.601C182.149 109.766 182.084 115.709 182.084 116.685L182.085 130.271L182.082 137.342C182.082 139.136 182.142 140.981 181.857 142.756C181.742 143.471 181.175 144.349 180.684 144.855C180.385 145.143 179.595 145.805 179.172 145.854C177.915 146.001 176.406 145.94 175.143 145.939L166.515 145.93L166.436 145.806C168.042 142.436 169.659 138.506 171.139 135.054L177.697 119.756L180.585 113.026C180.948 112.184 181.787 110.41 181.988 109.601Z" fill="#C9C0B7"/>
<path d="M112.265 104.096C112.905 103.935 120.171 103.976 120.528 104.146C121.738 103.987 123.074 104.026 124.303 104.026L129.337 104.027L133.872 104.023C137.083 104.012 139.551 104.003 142.259 106.085C144.374 107.713 145.754 110.116 146.094 112.764C146.253 114.004 146.186 116.022 146.185 117.342L146.176 125.118V132.663C146.179 134.055 146.26 136.249 146.047 137.545C145.784 139.197 145.109 140.756 144.083 142.077C142.425 144.179 140.006 145.542 137.35 145.87C136.736 145.947 135.662 145.929 135.021 145.922C133.877 146.039 130.94 145.971 129.714 145.976C128.346 145.983 125.159 146.072 123.894 145.906C123.776 145.915 123.658 145.92 123.54 145.922C121.538 145.953 119.489 145.902 117.481 145.925C113.41 145.989 110.011 146.177 106.856 143.124C103.555 139.929 103.798 136.767 103.802 132.59C103.815 130.439 103.812 128.287 103.793 126.136C103.82 125.582 103.806 124.977 103.804 124.418L103.799 117.277C103.799 114.39 103.554 111.95 104.988 109.297C106.822 105.904 108.866 105.151 112.265 104.096Z" fill="#C9C0B7"/>
<path d="M112.265 104.096C112.905 103.935 120.171 103.976 120.528 104.146C123.481 105.895 125.376 107.173 126.342 110.751C128.32 118.083 122.901 123.43 116.195 124.949C115.391 125.132 114.755 125.299 113.914 125.344C120.923 128.514 126.016 140.59 132.769 144.859C133.362 145.234 134.353 145.809 135.021 145.922C133.877 146.039 130.94 145.971 129.714 145.976C128.346 145.983 125.159 146.072 123.894 145.906C123.776 145.915 123.658 145.92 123.54 145.922C121.538 145.953 119.489 145.902 117.481 145.925C113.41 145.989 110.011 146.177 106.856 143.124C103.555 139.929 103.798 136.767 103.802 132.59C103.815 130.439 103.812 128.287 103.793 126.136C103.82 125.582 103.806 124.977 103.804 124.418L103.799 117.277C103.799 114.39 103.554 111.95 104.988 109.297C106.822 105.904 108.866 105.151 112.265 104.096Z" fill="#050506"/>
<path d="M112.265 104.096C115.735 104.988 118.106 106.895 119.089 110.437C120.267 114.681 119.416 120.469 115.315 122.844C111.77 124.896 107.669 124.254 103.804 124.418L103.799 117.277C103.799 114.389 103.554 111.95 104.988 109.297C106.822 105.904 108.866 105.151 112.265 104.096Z" fill="#C9C0B7"/>
<path d="M103.793 126.136C105.751 126.13 108.377 125.882 109.692 127.36C111.113 128.957 112.465 130.922 113.732 132.664C116.006 135.841 118.345 138.971 120.748 142.051C121.083 142.475 123.871 145.769 123.894 145.906C123.776 145.915 123.658 145.92 123.54 145.922C121.538 145.953 119.489 145.902 117.481 145.925C113.41 145.989 110.012 146.177 106.856 143.124C103.556 139.929 103.798 136.767 103.802 132.59C103.815 130.439 103.812 128.287 103.793 126.136Z" fill="#C9C0B7"/>
<path d="M64.4883 104.002C65.5465 104.01 67.5458 104.09 68.5279 104.025C72.6288 103.963 76.8686 104.061 80.9887 104.026C82.7717 104.012 87.9197 103.906 89.4322 104.243C91.3183 104.657 93.0528 105.586 94.4431 106.927C96.5285 108.95 97.4279 111.652 97.4287 114.492C97.4303 119.398 97.4366 124.306 97.4353 129.212L97.4333 133.668C97.4324 135.083 97.5048 136.545 97.2052 137.926C96.8132 139.8 95.9042 141.526 94.5814 142.91C92.4589 145.097 91.1874 145.086 88.7553 145.905C87.9922 145.985 86.5826 145.948 85.7609 145.949L80.3653 145.95L77.2185 145.95C76.9291 145.949 76.0402 145.972 75.8062 145.935C74.843 145.837 73.6378 145.977 72.6346 145.925C67.4269 145.652 61.8025 147.17 57.7967 142.845C54.6355 139.431 54.9935 136.385 55.0865 132.178C55.0804 131.241 55.0027 126.434 55.1458 125.812C55.1336 125.739 55.1229 125.667 55.1138 125.594C54.9794 124.557 55.0335 121.555 55.0506 120.307C55.2365 117.629 54.6968 114.364 55.2795 111.75C56.3218 107.075 60.0952 104.551 64.4883 104.002Z" fill="#C9C0B7"/>
<path d="M68.5273 104.025C72.6283 103.963 76.868 104.061 80.9881 104.026C82.7712 104.012 87.9191 103.906 89.4316 104.243C91.3177 104.657 93.0522 105.586 94.4426 106.927C96.528 108.95 97.4273 111.652 97.4282 114.492C97.4297 119.398 97.4361 124.306 97.4347 129.212L97.4327 133.668C97.4318 135.083 97.5042 136.545 97.2047 137.926C96.8126 139.8 95.9036 141.526 94.5808 142.91C92.4583 145.097 91.1869 145.086 88.7548 145.905C84.8916 143.309 84.3596 140.93 82.6084 136.841L78.7307 127.796L72.3438 112.911L69.7451 106.855C69.3725 105.983 68.8559 104.884 68.5273 104.025Z" fill="#C9C0B7"/>
<path d="M64.4883 104.003C65.5465 104.011 67.5458 104.09 68.5279 104.025C68.8564 104.885 69.3731 105.983 69.7457 106.856L72.3443 112.911L78.7312 127.796L82.609 136.842C84.3601 140.931 84.8922 143.309 88.7553 145.905C87.9922 145.986 86.5826 145.949 85.7609 145.949L80.3653 145.951L77.2185 145.95C76.9291 145.95 76.0402 145.972 75.8062 145.935C78.5753 144.384 77.8158 142.024 76.741 139.59C76.3466 138.697 75.9585 137.757 75.5731 136.856L72.0031 128.512L67.2158 117.372C66.3557 115.36 65.2942 112.653 64.3189 110.747C62.9759 113.543 61.563 117.022 60.3351 119.929C58.6198 123.99 56.7666 128.126 55.0865 132.179C55.0804 131.241 55.0027 126.434 55.1458 125.812C55.1336 125.74 55.1229 125.667 55.1138 125.594C54.9794 124.558 55.0335 121.555 55.0506 120.308C55.2365 117.629 54.6968 114.364 55.2795 111.75C56.3218 107.075 60.0952 104.552 64.4883 104.003Z" fill="#050506"/>
<path d="M55.1458 125.812C55.1336 125.74 55.1229 125.667 55.1138 125.594C54.9794 124.558 55.0335 121.555 55.0506 120.308C55.2365 117.629 54.6968 114.364 55.2795 111.75C56.3218 107.075 60.0952 104.552 64.4883 104.003C64.1537 105.055 63.5126 106.419 63.0656 107.456L60.7126 112.948L57.226 121.103C56.5798 122.606 55.8608 124.37 55.1458 125.812Z" fill="#C9C0B7"/>
</svg>
