<svg width="250" height="250" viewBox="0 0 250 250" fill="none" xmlns="http://www.w3.org/2000/svg">
<path d="M0 125C0 55.9644 55.9644 0 125 0C194.036 0 250 55.9644 250 125C250 194.036 194.036 250 125 250C55.9644 250 0 194.036 0 125Z" fill="white"/>
<path d="M167.866 178.224H155.798L150.361 162.451H111.724V173.048H143.771L145.7 178.224H82.0192L122.578 71.2998H123.894L167.866 178.224Z" fill="#16243E"/>
<path d="M178.64 165.598L135.307 71.2998H178.64V165.598Z" fill="#16243E"/>
<path d="M71.3606 156.63V71.2998H110.807L71.3606 156.63Z" fill="#16243E"/>
<path d="M153.812 200H71.3606V180.809H146.662L153.812 200Z" fill="#F36C3C"/>
<path d="M178.64 200H163.304L156.689 180.809H178.64V200Z" fill="#F36C3C"/>
<path d="M111.782 69.1913H71.3605V50H120.653L111.782 69.1913Z" fill="#F36C3C"/>
<path d="M178.64 69.1913H134.338L125.519 50H178.64V69.1913Z" fill="#F36C3C"/>
</svg>
