<svg width="250" height="250" viewBox="0 0 250 250" fill="none" xmlns="http://www.w3.org/2000/svg">
<mask id="path-1-inside-1_453_440" fill="white">
<path d="M0 125C0 55.9644 55.9644 0 125 0C194.036 0 250 55.9644 250 125C250 194.036 194.036 250 125 250C55.9644 250 0 194.036 0 125Z"/>
</mask>
<path d="M0 125C0 55.9644 55.9644 0 125 0C194.036 0 250 55.9644 250 125C250 194.036 194.036 250 125 250C55.9644 250 0 194.036 0 125Z" fill="white"/>
<path d="M0 125M250 125M250 125M0 125M125 0M250 125M125 250M0 125M125 250V248C57.069 248 2 192.931 2 125H0H-2C-2 195.14 54.8598 252 125 252V250ZM250 125H248C248 192.931 192.931 248 125 248V250V252C195.14 252 252 195.14 252 125H250ZM125 0V2C192.931 2 248 57.069 248 125H250H252C252 54.8598 195.14 -2 125 -2V0ZM125 0V-2C54.8598 -2 -2 54.8598 -2 125H0H2C2 57.069 57.069 2 125 2V0Z" fill="#DDDBDB" mask="url(#path-1-inside-1_453_440)"/>
<path d="M167.866 178.224H155.798L150.361 162.451H111.723V173.048H143.771L145.699 178.224H82.019L122.578 71.2998H123.893L167.866 178.224Z" fill="#16243E"/>
<path d="M178.639 165.598L135.307 71.2998H178.639V165.598Z" fill="#16243E"/>
<path d="M71.3604 156.63V71.2998H110.807L71.3604 156.63Z" fill="#16243E"/>
<path d="M153.812 200H71.3604V180.809H146.662L153.812 200Z" fill="#F36C3C"/>
<path d="M178.639 200H163.304L156.689 180.809H178.639V200Z" fill="#F36C3C"/>
<path d="M111.782 69.1913H71.3604V50H120.653L111.782 69.1913Z" fill="#F36C3C"/>
<path d="M178.639 69.1913H134.338L125.519 50H178.639V69.1913Z" fill="#F36C3C"/>
</svg>
