<svg width="250" height="250" viewBox="0 0 250 250" fill="none" xmlns="http://www.w3.org/2000/svg">
<mask id="path-1-inside-1_453_284" fill="white">
<path d="M0 125C0 55.9644 55.9644 0 125 0C194.036 0 250 55.9644 250 125C250 194.036 194.036 250 125 250C55.9644 250 0 194.036 0 125Z"/>
</mask>
<path d="M0 125C0 55.9644 55.9644 0 125 0C194.036 0 250 55.9644 250 125C250 194.036 194.036 250 125 250C55.9644 250 0 194.036 0 125Z" fill="white"/>
<path d="M0 125M250 125M250 125M0 125M125 0M250 125M125 250M0 125M125 250V248C57.069 248 2 192.931 2 125H0H-2C-2 195.14 54.8598 252 125 252V250ZM250 125H248C248 192.931 192.931 248 125 248V250V252C195.14 252 252 195.14 252 125H250ZM125 0V2C192.931 2 248 57.069 248 125H250H252C252 54.8598 195.14 -2 125 -2V0ZM125 0V-2C54.8598 -2 -2 54.8598 -2 125H0H2C2 57.069 57.069 2 125 2V0Z" fill="#DDDBDB" mask="url(#path-1-inside-1_453_284)"/>
<path d="M159.697 59.0002C162.93 60.0109 166.136 61.0476 168.787 63.2993C175.072 68.6388 177.44 75.4348 175.526 83.3306C173.642 91.1001 168.467 96.1498 160.569 97.8293C149.115 100.263 138.48 93.0397 136.768 81.5397C135.159 70.7307 142.1 61.6978 152.005 59.3941C152.362 59.3124 152.753 59.3532 152.995 59.0002C155.229 59.0002 157.463 59.0002 159.697 59.0002Z" fill="#2E8CCB"/>
<path d="M150.002 199C137.144 198.997 126.938 188.801 126.945 175.97C126.957 163.203 137.23 153.056 150.132 153.071C162.945 153.085 173.118 163.33 173.096 176.193C173.073 188.856 162.796 199.004 150.002 199Z" fill="#00AD6F"/>
<path d="M112.669 117.89C102.355 118.228 92.9117 109.069 92.9974 98.0819C93.0756 87.6631 102.139 78.4482 113.03 78.5485C123.3 78.6451 132.747 87.5145 132.609 98.5353C132.479 108.869 123.508 118.318 112.669 117.89Z" fill="#2E8CCB"/>
<path d="M89.3557 117.593C89.6499 128.25 80.1882 137.383 69.3228 137.231C59.0084 137.082 49.6473 128.183 49.8298 117.169C50.0048 106.81 59.0196 97.6138 70.0303 97.8144C80.2999 98.0002 89.7281 106.84 89.3557 117.593Z" fill="#2E8CCB"/>
<path d="M173.095 127.005C173.114 138.052 164.441 146.769 153.42 146.776C142.439 146.783 133.666 138.141 133.644 127.283C133.621 116.237 142.297 107.523 153.323 107.516C164.307 107.509 173.076 116.151 173.095 127.005Z" fill="#00AD6F"/>
<path d="M128.434 146.074C128.434 156.972 119.714 165.659 108.766 165.667C97.6997 165.674 88.9791 157.006 88.9865 146.003C88.9902 135.031 97.7444 126.388 108.841 126.407C119.751 126.425 128.438 135.139 128.434 146.074Z" fill="#00AD6F"/>
</svg>
