<svg width="250" height="250" viewBox="0 0 250 250" fill="none" xmlns="http://www.w3.org/2000/svg">
<path d="M0 125C0 55.9644 55.9644 0 125 0C194.036 0 250 55.9644 250 125C250 194.036 194.036 250 125 250C55.9644 250 0 194.036 0 125Z" fill="#EF3237"/>
<path d="M55.0457 55.5949L132.276 55.603C141.167 55.6034 164.331 55.0624 171.864 56.6311C177.161 57.7895 182.018 60.4349 185.869 64.2574C195.172 73.4131 195.137 82.9352 194.958 95.0751C194.856 101.975 194.919 109.063 194.915 115.977L194.977 194.432L91.1837 194.486C79.9829 194.502 72.1891 194.012 63.8002 185.633C54.7657 176.605 54.8941 167.157 55.0341 155.351C55.1197 148.257 55.0341 141.049 55.0341 133.985L55.0457 55.5949Z" fill="#FEFEFE"/>
<path d="M123.841 84.6786C130.25 84.2289 136.278 95.7577 139.6 100.731L151.909 119.182C162.125 134.502 173.011 149.995 182.862 165.441C176.025 165.55 169.184 165.562 162.347 165.469C158.664 159.303 153.103 151.462 149.039 145.366L125.35 109.921L124.681 109.913C121.5 114.19 118.458 118.966 115.572 123.482C106.55 137.603 96.6829 151.314 87.7106 165.453C81.173 165.799 73.8342 165.36 67.106 165.543C69.2683 161.805 73.352 156.067 75.841 152.384L92.2182 128.082L108.269 103.997C111.971 98.437 118.03 87.6818 123.841 84.6786Z" fill="#EF3237"/>
<path d="M111.73 150.645C120.729 150.548 129.729 150.579 138.725 150.738L131.397 159.101C129.243 161.645 127.442 163.691 125.12 166.095C122.557 163.477 113.087 153.158 111.73 150.645Z" fill="#EF3237"/>
</svg>
