<svg width="250" height="250" viewBox="0 0 250 250" fill="none" xmlns="http://www.w3.org/2000/svg">
<path d="M0 125C0 55.9644 55.9644 0 125 0C194.036 0 250 55.9644 250 125C250 194.036 194.036 250 125 250C55.9644 250 0 194.036 0 125Z" fill="white"/>
<path d="M60.0413 102.813L149.217 102.809L149.243 147.995C149.245 162.676 149.371 177.579 149.19 192.245L60.063 192.229C59.9285 182.164 60.0513 171.813 60.0508 161.729L60.0413 102.813Z" fill="#283B93"/>
<path d="M102.837 57.7554C131.626 58.1411 161.151 57.7792 190 57.8123C189.764 60.5508 189.9 65.5407 189.9 68.3832L189.898 87.9271L189.925 149.774C185.878 149.948 181.387 149.849 177.288 149.847L155.647 149.827C155.875 131.123 155.676 112.03 155.683 93.2928L102.846 93.2997L102.837 57.7554Z" fill="#1274BC"/>
</svg>
