<svg width="250" height="250" viewBox="0 0 250 250" fill="none" xmlns="http://www.w3.org/2000/svg">
<path d="M0 125C0 55.9644 55.9644 0 125 0C194.036 0 250 55.9644 250 125C250 194.036 194.036 250 125 250C55.9644 250 0 194.036 0 125Z" fill="#141414"/>
<path d="M178.314 126.122C184.769 119.032 186.886 108.239 183.711 99.2439C180.431 90.2491 171.966 83.3709 162.441 81.9951C163.5 77.974 163.817 73.6353 162.97 69.72C162.653 68.2385 162.23 66.8629 161.595 65.593C161.277 64.8523 160.854 64.2174 160.43 63.5824C157.574 59.5613 152.812 57.0216 148.05 55.9634C144.557 55.1168 141.065 55.011 137.467 55.011H92.0706C90.1657 55.011 89.5308 57.4449 91.1182 58.3972L106.674 68.3443H106.78C107.626 69.1909 108.684 69.6142 109.848 69.6142H145.298C145.298 69.6142 145.721 69.6142 145.933 69.72C146.674 69.9317 147.415 70.1433 147.944 70.6724C149.425 71.7306 149.848 73.8471 149.531 75.5402C149.213 77.3391 148.261 78.9263 147.203 80.4078C143.287 86.0164 137.997 90.5666 133.87 96.0692C129.531 101.784 126.674 108.45 125.192 115.329C124.134 108.662 121.806 102.207 118.208 96.4926C113.658 89.4026 107.203 83.3709 99.2663 80.8312C94.6102 79.2438 89.5308 79.0322 84.769 80.1963C82.4409 80.7254 80.1128 81.6778 78.1022 83.0534C70.9065 87.8153 65.6154 94.6936 64.663 103.477C63.9223 110.355 66.1445 117.445 70.4832 122.736C70.8006 123.159 71.1181 123.583 71.5414 123.9C65.0863 130.99 62.9699 141.784 66.1445 150.778C69.425 159.774 77.8906 166.652 87.4144 168.027C86.3562 172.048 85.9329 176.387 86.8853 180.302C87.2028 181.784 87.6261 183.159 88.261 184.429C88.5785 185.17 89.0017 185.805 89.425 186.44C92.2822 190.462 97.0441 193.001 101.806 194.059C105.298 194.906 108.79 195.011 112.388 195.011H158.42C160.113 195.011 160.748 192.789 159.266 191.942L143.182 181.678H142.97C142.123 180.832 141.065 180.409 139.901 180.409H104.452C104.452 180.409 104.028 180.409 103.817 180.302C103.076 180.091 102.335 179.774 101.806 179.35C100.325 178.292 99.9013 176.175 100.219 174.483C100.536 172.683 101.489 171.096 102.547 169.615C106.462 164.006 111.753 159.456 115.88 153.953C120.219 148.238 123.076 141.572 124.557 134.588C125.51 141.255 127.944 147.71 131.541 153.529C136.092 160.62 142.547 166.652 150.483 169.191C155.139 170.779 160.218 170.991 164.98 169.826C167.309 169.297 169.636 168.344 171.648 166.969C178.843 162.313 184.134 155.329 185.086 146.546C185.828 139.667 183.605 132.578 179.266 127.286C178.949 126.863 178.525 126.44 178.208 126.122M100.219 150.038C96.6208 155.329 89.5308 156.811 84.134 153.529C80.2186 151.202 77.8906 147.075 77.8906 142.63V142.101C77.9964 139.667 79.0546 137.445 80.6419 135.858C82.2293 134.27 84.4515 133.212 86.8853 133.212L112.176 132.577L100.219 150.143V150.038ZM87.097 115.54C84.6631 115.54 82.5467 114.482 80.8536 112.895C79.2663 111.307 78.208 109.085 78.1022 106.651C78.1022 106.44 78.1022 106.334 78.1022 106.122C78.1022 101.678 80.4303 97.4449 84.2399 95.1169C89.7425 91.8365 96.8325 93.318 100.43 98.6089L112.388 116.175L87.097 115.434V115.54ZM171.754 144.006C171.754 148.45 169.426 152.683 165.615 155.012C160.113 158.291 153.129 156.811 149.425 151.519L137.467 133.953L162.758 134.694C165.192 134.694 167.415 135.753 169.002 137.34C170.589 138.926 171.648 141.149 171.754 143.582V144.112V144.006ZM173.023 108.239C173.023 110.673 171.966 112.789 170.271 114.376C168.684 115.964 166.463 117.022 164.028 117.022L138.737 117.762H137.573L149.531 100.196C152.071 96.4926 156.198 94.6936 160.325 95.0111C162.547 95.0111 164.769 95.5402 166.78 96.7042C170.589 99.0323 172.918 103.159 172.918 107.71C172.918 107.921 172.918 108.027 172.918 108.239" fill="#A9FFF2"/>
</svg>
