<svg width="250" height="250" viewBox="0 0 250 250" fill="none" xmlns="http://www.w3.org/2000/svg">
<path d="M0 125C0 55.9644 55.9644 0 125 0C194.036 0 250 55.9644 250 125C250 194.036 194.036 250 125 250C55.9644 250 0 194.036 0 125Z" fill="#296CEF"/>
<path d="M170.618 132.282C170.432 131.738 170.08 131.267 169.613 130.932C169.145 130.598 168.585 130.418 168.01 130.417C167.355 130.396 166.713 130.616 166.208 131.035C159.682 137.989 142.737 144.579 122.881 144.579C103.025 144.579 85.8651 137.876 79.427 131.01C79.2189 130.737 78.9574 130.51 78.6585 130.342C78.2949 130.067 77.8543 129.913 77.3986 129.901C77.0878 129.891 76.7782 129.943 76.4882 130.055C76.1981 130.167 75.9336 130.336 75.7103 130.553C75.4869 130.769 75.3094 131.028 75.1882 131.314C75.067 131.601 75.0046 131.909 75.0048 132.219C74.9919 132.273 74.9919 132.329 75.0048 132.383C74.9981 132.395 74.9946 132.408 74.9946 132.421C74.9946 132.434 74.9981 132.447 75.0048 132.459V178.898C75.0048 183.169 76.7012 187.264 79.7208 190.284C82.7404 193.304 86.8359 195 91.1062 195H133.665C156.041 195 174.864 177.286 175.003 154.91C175.056 149.189 174.206 143.496 172.483 138.04L170.618 132.282Z" fill="white"/>
<path d="M175.002 95.0899C175.061 100.811 174.211 106.506 172.482 111.96L170.617 117.718C170.512 118.017 170.358 118.298 170.164 118.549C169.694 119.129 169.015 119.499 168.274 119.579C167.533 119.66 166.79 119.443 166.207 118.978C159.681 112.023 142.736 105.396 122.88 105.396C103.024 105.396 85.864 112.124 79.426 118.99C79.2167 119.265 78.9556 119.496 78.6574 119.67C78.2901 119.937 77.851 120.086 77.3975 120.099C77.0874 120.111 76.7781 120.06 76.4881 119.949C76.1981 119.839 75.9334 119.671 75.7099 119.456C75.4864 119.24 75.3086 118.982 75.1873 118.696C75.0659 118.411 75.0035 118.103 75.0037 117.793V71.1015C75.0037 68.9859 75.4206 66.8912 76.2306 64.9368C77.0406 62.9824 78.2277 61.2069 79.7242 59.7115C81.2207 58.2162 82.9972 57.0305 84.9522 56.222C86.9072 55.4136 89.0023 54.9983 91.1178 55H133.664C156.04 55 174.863 72.7141 175.002 95.0899Z" fill="white"/>
</svg>
