<svg width="250" height="250" viewBox="0 0 250 250" fill="none" xmlns="http://www.w3.org/2000/svg">
<path d="M0 125C0 55.9644 55.9644 0 125 0C194.036 0 250 55.9644 250 125C250 194.036 194.036 250 125 250C55.9644 250 0 194.036 0 125Z" fill="#141414"/>
<path d="M178.314 126.122C184.77 119.032 186.886 108.239 183.711 99.2439C180.432 90.2491 171.966 83.3709 162.441 81.9951C163.5 77.974 163.817 73.6353 162.97 69.72C162.653 68.2385 162.23 66.8629 161.595 65.593C161.278 64.8523 160.854 64.2174 160.431 63.5824C157.574 59.5613 152.812 57.0216 148.05 55.9634C144.557 55.1168 141.066 55.011 137.468 55.011H92.0708C90.1659 55.011 89.5311 57.4449 91.1184 58.3972L106.674 68.3443H106.78C107.626 69.1909 108.685 69.6142 109.849 69.6142H145.299C145.299 69.6142 145.722 69.6142 145.934 69.72C146.674 69.9317 147.415 70.1433 147.944 70.6724C149.425 71.7306 149.849 73.8471 149.531 75.5402C149.213 77.3391 148.261 78.9263 147.203 80.4078C143.287 86.0164 137.997 90.5666 133.87 96.0692C129.531 101.784 126.674 108.45 125.193 115.329C124.134 108.662 121.806 102.207 118.208 96.4926C113.658 89.4026 107.203 83.3709 99.2666 80.8312C94.6104 79.2438 89.5311 79.0322 84.7692 80.1963C82.4411 80.7254 80.1131 81.6778 78.1025 83.0534C70.9067 87.8153 65.6157 94.6936 64.6633 103.477C63.9226 110.355 66.1448 117.445 70.4834 122.736C70.8009 123.159 71.1183 123.583 71.5416 123.9C65.0866 130.99 62.9702 141.784 66.1448 150.778C69.4252 159.774 77.8908 166.652 87.4147 168.027C86.3565 172.048 85.9332 176.387 86.8856 180.302C87.203 181.784 87.6263 183.159 88.2612 184.429C88.5787 185.17 89.002 185.805 89.4253 186.44C92.2825 190.462 97.0443 193.001 101.806 194.059C105.298 194.906 108.79 195.011 112.388 195.011H158.42C160.113 195.011 160.749 192.789 159.266 191.942L143.182 181.678H142.97C142.124 180.832 141.066 180.409 139.902 180.409H104.452C104.452 180.409 104.028 180.409 103.817 180.302C103.076 180.091 102.335 179.774 101.806 179.35C100.325 178.292 99.9015 176.175 100.219 174.483C100.536 172.683 101.489 171.096 102.547 169.615C106.462 164.006 111.753 159.456 115.88 153.953C120.219 148.238 123.076 141.572 124.558 134.588C125.51 141.255 127.944 147.71 131.542 153.529C136.092 160.62 142.547 166.652 150.484 169.191C155.14 170.779 160.219 170.991 164.981 169.826C167.309 169.297 169.637 168.344 171.648 166.969C178.843 162.313 184.134 155.329 185.087 146.546C185.828 139.667 183.605 132.578 179.267 127.286C178.949 126.863 178.525 126.44 178.208 126.122M100.219 150.038C96.621 155.329 89.5311 156.811 84.1343 153.529C80.2189 151.202 77.8908 147.075 77.8908 142.63V142.101C77.9966 139.667 79.0549 137.445 80.6422 135.858C82.2295 134.27 84.4517 133.212 86.8856 133.212L112.177 132.577L100.219 150.143V150.038ZM87.0972 115.54C84.6633 115.54 82.547 114.482 80.8538 112.895C79.2665 111.307 78.2083 109.085 78.1025 106.651C78.1025 106.44 78.1025 106.334 78.1025 106.122C78.1025 101.678 80.4305 97.4449 84.2401 95.1169C89.7427 91.8365 96.8327 93.318 100.431 98.6089L112.388 116.175L87.0972 115.434V115.54ZM171.754 144.006C171.754 148.45 169.426 152.683 165.616 155.012C160.113 158.291 153.129 156.811 149.425 151.519L137.468 133.953L162.758 134.694C165.193 134.694 167.415 135.753 169.002 137.34C170.59 138.926 171.648 141.149 171.754 143.582V144.112V144.006ZM173.023 108.239C173.023 110.673 171.966 112.789 170.272 114.376C168.684 115.964 166.463 117.022 164.028 117.022L138.738 117.762H137.574L149.531 100.196C152.071 96.4926 156.198 94.6936 160.325 95.0111C162.547 95.0111 164.769 95.5402 166.78 96.7042C170.59 99.0323 172.918 103.159 172.918 107.71C172.918 107.921 172.918 108.027 172.918 108.239" fill="#A9FFF2"/>
</svg>
