<svg width="250" height="250" viewBox="0 0 250 250" fill="none" xmlns="http://www.w3.org/2000/svg">
<path d="M0 125C0 55.9644 55.9644 0 125 0C194.036 0 250 55.9644 250 125C250 194.036 194.036 250 125 250C55.9644 250 0 194.036 0 125Z" fill="#E40473"/>
<path d="M132.886 55C136.439 55.497 140 55.9565 143.546 56.4983C153.269 57.9855 165.349 62.3796 172.067 66.8746C170.909 67.7676 169.795 68.6308 168.697 69.479C174.578 72.0796 180.41 74.6577 186.243 77.2359C186.213 77.4825 186.18 77.7254 186.15 77.972C170.666 86.0466 155.182 94.1212 139.694 102.196C139.593 102.099 139.492 102.005 139.391 101.908C139.731 101.396 140.052 100.866 140.419 100.372C144.981 94.2295 149.554 88.0979 154.098 81.9402C154.419 81.503 154.509 80.8977 154.707 80.3709C154.135 80.539 153.448 80.5539 153.014 80.8977C146.255 86.1923 139.529 91.5281 132.792 96.8526C132.314 97.2337 131.817 97.5924 131.074 98.1491C130.651 96.4154 130.263 94.8872 129.908 93.3515C128.574 87.601 127.266 81.8468 125.902 76.1038C125.779 75.5881 125.327 75.151 125.028 74.6802C124.722 75.1472 124.258 75.5769 124.139 76.0851C122.54 82.8594 120.989 89.6449 119.423 96.4266C119.311 96.9049 119.162 97.3757 118.967 98.0632C118.426 97.6858 117.981 97.4093 117.57 97.088C110.732 91.6887 103.909 86.2783 97.0528 80.9052C96.6156 80.5652 95.9393 80.5278 95.3751 80.3484C95.562 80.8715 95.6329 81.4806 95.9468 81.9066C100.446 88.0195 104.978 94.1062 109.503 100.2C109.906 100.746 110.299 101.295 110.497 102.155C109.977 101.916 109.447 101.699 108.939 101.437C94.6652 94.0016 80.3992 86.5548 66.122 79.1266C65.371 78.7343 64.5452 78.4802 63.7568 78.1588C63.7568 78.0355 63.7568 77.9085 63.7568 77.7852C69.5671 74.9529 75.3774 72.1207 81.1316 69.3145C80.2983 68.6532 79.1736 67.7602 78.0004 66.826C85.2044 62.189 97.0416 57.907 106.544 56.4946C110.089 55.9678 113.643 55.497 117.193 55C122.424 55 127.655 55 132.886 55Z" fill="white"/>
<path d="M151.898 195H97.9504C97.9504 193.55 97.9018 192.145 97.9579 190.744C98.8547 167.768 102.591 145.248 109.074 123.196C110.296 119.037 112.074 115.043 113.576 110.962C114.144 109.423 115.258 108.519 116.794 108.138C122.264 106.785 127.745 106.766 133.219 108.138C134.755 108.522 135.775 109.434 136.463 110.929C140.042 118.712 142.262 126.925 144.257 135.205C148.259 151.806 150.908 168.62 151.876 185.677C152.048 188.704 151.902 191.749 151.902 194.996L151.898 195Z" fill="white"/>
</svg>
