<svg width="250" height="250" viewBox="0 0 250 250" fill="none" xmlns="http://www.w3.org/2000/svg">
<path d="M0 125C0 55.9644 55.9644 0 125 0C194.036 0 250 55.9644 250 125C250 194.036 194.036 250 125 250C55.9644 250 0 194.036 0 125Z" fill="#E6E7EA"/>
<path fill-rule="evenodd" clip-rule="evenodd" d="M193.651 92.2229V102.877H56.3498V92.0784L125.072 59.511L193.651 92.2229ZM125 75.1936C120.582 75.1936 117 78.7755 117 83.1936C117 87.6119 120.582 91.1936 125 91.1936C129.419 91.1936 133 87.6119 133 83.1936C133 78.7755 129.418 75.1936 125 75.1936Z" fill="white"/>
<path d="M93 168.081H114V110.021H136V168.081H157V110.021H179V168.081H186.713V175.224H193.654V189.511H56.3457V175.224H63.2881V168.081H71V110.021H93V168.081Z" fill="white"/>
</svg>
