<svg width="250" height="250" viewBox="0 0 250 250" fill="none" xmlns="http://www.w3.org/2000/svg">
<mask id="path-1-inside-1_453_346" fill="white">
<path d="M0 125C0 55.9644 55.9644 0 125 0C194.036 0 250 55.9644 250 125C250 194.036 194.036 250 125 250C55.9644 250 0 194.036 0 125Z"/>
</mask>
<path d="M0 125C0 55.9644 55.9644 0 125 0C194.036 0 250 55.9644 250 125C250 194.036 194.036 250 125 250C55.9644 250 0 194.036 0 125Z" fill="white"/>
<path d="M0 125M250 125M250 125M0 125M125 0M250 125M125 250M0 125M125 250V248C57.069 248 2 192.931 2 125H0H-2C-2 195.14 54.8598 252 125 252V250ZM250 125H248C248 192.931 192.931 248 125 248V250V252C195.14 252 252 195.14 252 125H250ZM125 0V2C192.931 2 248 57.069 248 125H250H252C252 54.8598 195.14 -2 125 -2V0ZM125 0V-2C54.8598 -2 -2 54.8598 -2 125H0H2C2 57.069 57.069 2 125 2V0Z" fill="#DDDBDB" mask="url(#path-1-inside-1_453_346)"/>
<rect width="71.7949" height="139.59" transform="translate(58.3877 56.2161)" fill="#1A5745"/>
<rect x="63.3877" y="61.2161" width="61.7949" height="61.7949" fill="#EF6A00"/>
<rect x="63.3877" y="129.011" width="61.7949" height="61.7949" fill="#EF6A00"/>
<rect width="69.1795" height="73.1795" transform="translate(130.183 56.2161)" fill="#1A5745"/>
<rect x="131.183" y="61.2161" width="63.1795" height="63.1795" fill="#EF6A00"/>
</svg>
