<svg width="250" height="250" viewBox="0 0 250 250" fill="none" xmlns="http://www.w3.org/2000/svg">
<mask id="path-1-inside-1_453_398" fill="white">
<path d="M0 125C0 55.9644 55.9644 0 125 0C194.036 0 250 55.9644 250 125C250 194.036 194.036 250 125 250C55.9644 250 0 194.036 0 125Z"/>
</mask>
<path d="M0 125C0 55.9644 55.9644 0 125 0C194.036 0 250 55.9644 250 125C250 194.036 194.036 250 125 250C55.9644 250 0 194.036 0 125Z" fill="white"/>
<path d="M0 125M250 125M250 125M0 125M125 0M250 125M125 250M0 125M125 250V248C57.069 248 2 192.931 2 125H0H-2C-2 195.14 54.8598 252 125 252V250ZM250 125H248C248 192.931 192.931 248 125 248V250V252C195.14 252 252 195.14 252 125H250ZM125 0V2C192.931 2 248 57.069 248 125H250H252C252 54.8598 195.14 -2 125 -2V0ZM125 0V-2C54.8598 -2 -2 54.8598 -2 125H0H2C2 57.069 57.069 2 125 2V0Z" fill="#DDDBDB" mask="url(#path-1-inside-1_453_398)"/>
<path d="M94.5663 55.0008C94.6216 66.6963 100.569 76.1768 110.659 81.8123C117.861 85.835 122.059 85.0793 129.659 85.6235C132.655 85.8447 135.625 86.3374 138.532 87.0958C155.271 91.4335 169.008 103.367 175.644 119.335C178.273 125.832 179.395 131.937 179.744 138.875C179.937 139.771 179.716 143.033 179.639 144.018C179.005 153.359 175.974 162.379 170.838 170.208C163.035 182.225 150.8 190.675 136.798 193.715C122.383 196.891 107.297 194.122 94.9488 186.036C82.8746 178.065 74.4289 165.657 71.4435 151.5C70.6293 147.674 70.3917 144.453 70.2373 140.58C78.2493 140.44 86.5053 140.595 94.5535 140.552C94.5601 140.974 94.5768 141.395 94.6032 141.817C95.0605 150.054 98.4635 157.405 104.647 162.928C110.705 168.4 118.703 171.216 126.853 170.746C135.069 170.198 142.729 166.403 148.143 160.198C152.731 154.975 155.873 146.873 155.411 139.868C155.506 137.7 154.973 133.962 154.368 131.89C151.111 120.74 141.65 112.026 130.111 110.173C127.322 109.725 124.671 109.754 121.881 109.561C119.895 109.423 117.833 109.077 115.899 108.666C110.432 107.536 105.126 105.733 100.102 103.299C98.7503 102.629 97.3062 101.81 95.9236 101.023L94.5671 100.254C94.4273 100.085 91.8439 98.4206 91.4209 98.1176C83.4169 92.3829 77.1453 84.5752 73.7414 75.3075C72.0519 70.7078 71.1914 66.647 70.4347 61.8183C70.2785 59.4453 70.2946 57.2998 70.1777 55L94.5663 55.0008Z" fill="#212830"/>
<path d="M70.1777 55L94.5663 55.0008C94.6216 66.6963 100.569 76.1768 110.659 81.8123C117.861 85.835 122.059 85.0793 129.659 85.6235C132.655 85.8447 135.625 86.3374 138.532 87.0958C155.271 91.4335 169.008 103.367 175.644 119.335C178.273 125.832 179.395 131.937 179.744 138.875L179.751 140.165L163.156 140.17C162.422 140.17 155.717 140.239 155.513 140.087L155.411 139.868C155.506 137.7 154.973 133.962 154.368 131.89C151.111 120.74 141.65 112.026 130.111 110.173C127.322 109.725 124.671 109.754 121.881 109.561C119.895 109.423 117.833 109.077 115.899 108.666C110.432 107.536 105.126 105.733 100.102 103.299C98.2997 102.405 96.333 101.248 94.5671 100.254C94.4273 100.085 91.8436 98.4204 91.4209 98.1176C83.4169 92.3829 77.1453 84.5752 73.7414 75.3075C72.0519 70.7078 71.1914 66.647 70.4347 61.8183C70.2785 59.4453 70.2946 57.2998 70.1777 55Z" fill="#0AACB2"/>
<path d="M70.4347 61.8183C71.1914 66.647 72.0519 70.7078 73.7414 75.3075C77.1453 84.5752 83.4169 92.3829 91.4209 98.1176C91.8436 98.4204 94.4273 100.085 94.5671 100.254C94.485 100.57 94.5431 102.472 94.544 102.963L94.5485 109.911C94.5508 120.056 94.4315 130.428 94.5535 140.552C86.5053 140.595 78.2493 140.44 70.2373 140.58C70.1253 134.726 70.2296 128.473 70.2293 122.587L70.2291 70.7937C70.2291 68.2531 70.1437 65.4381 70.352 62.9147C70.3894 62.4608 70.425 62.3152 70.4347 61.8183Z" fill="#3A3F46"/>
</svg>
