<svg width="250" height="250" viewBox="0 0 250 250" fill="none" xmlns="http://www.w3.org/2000/svg">
<path d="M0 125C0 55.9644 55.9644 0 125 0C194.036 0 250 55.9644 250 125C250 194.036 194.036 250 125 250C55.9644 250 0 194.036 0 125Z" fill="white"/>
<path d="M188.139 189.844L153.382 189.547L188.139 162.229V189.844Z" fill="#00AFF0"/>
<path d="M171.999 135.194L125.378 91.7834L142.742 76.6958L188.336 119.572L171.999 135.194Z" fill="#00AFF0"/>
<path d="M140.537 193H101.914L188.485 119.328V151.027L140.537 193Z" fill="#506789"/>
<path d="M54.1554 151.127L72.2666 135.034L120.369 177.335L102.038 192.94L54.1554 151.127Z" fill="#00AFF0"/>
<path d="M51.5137 120.519V150.211L174.79 53H137.909L51.5137 120.519Z" fill="#506789"/>
</svg>
