<svg width="250" height="250" viewBox="0 0 250 250" fill="none" xmlns="http://www.w3.org/2000/svg">
<mask id="path-1-inside-1_453_389" fill="white">
<path d="M0 125C0 55.9644 55.9644 0 125 0C194.036 0 250 55.9644 250 125C250 194.036 194.036 250 125 250C55.9644 250 0 194.036 0 125Z"/>
</mask>
<path d="M0 125C0 55.9644 55.9644 0 125 0C194.036 0 250 55.9644 250 125C250 194.036 194.036 250 125 250C55.9644 250 0 194.036 0 125Z" fill="white"/>
<path d="M0 125M250 125M250 125M0 125M125 0M250 125M125 250M0 125M125 250V248C57.069 248 2 192.931 2 125H0H-2C-2 195.14 54.8598 252 125 252V250ZM250 125H248C248 192.931 192.931 248 125 248V250V252C195.14 252 252 195.14 252 125H250ZM125 0V2C192.931 2 248 57.069 248 125H250H252C252 54.8598 195.14 -2 125 -2V0ZM125 0V-2C54.8598 -2 -2 54.8598 -2 125H0H2C2 57.069 57.069 2 125 2V0Z" fill="#DDDBDB" mask="url(#path-1-inside-1_453_389)"/>
<path d="M188.139 189.844L153.382 189.547L188.139 162.229V189.844Z" fill="#00AFF0"/>
<path d="M171.999 135.194L125.378 91.7834L142.742 76.6958L188.336 119.572L171.999 135.194Z" fill="#00AFF0"/>
<path d="M140.537 193H101.914L188.485 119.328V151.027L140.537 193Z" fill="#506789"/>
<path d="M54.1554 151.127L72.2666 135.034L120.369 177.335L102.038 192.94L54.1554 151.127Z" fill="#00AFF0"/>
<path d="M51.5137 120.519V150.211L174.79 53H137.909L51.5137 120.519Z" fill="#506789"/>
</svg>
