<svg width="250" height="250" viewBox="0 0 250 250" fill="none" xmlns="http://www.w3.org/2000/svg">
<mask id="path-1-inside-1_453_441" fill="white">
<path d="M0 125C0 55.9644 55.9644 0 125 0C194.036 0 250 55.9644 250 125C250 194.036 194.036 250 125 250C55.9644 250 0 194.036 0 125Z"/>
</mask>
<path d="M0 125C0 55.9644 55.9644 0 125 0C194.036 0 250 55.9644 250 125C250 194.036 194.036 250 125 250C55.9644 250 0 194.036 0 125Z" fill="white"/>
<path d="M0 125M250 125M250 125M0 125M125 0M250 125M125 250M0 125M125 250V248C57.069 248 2 192.931 2 125H0H-2C-2 195.14 54.8598 252 125 252V250ZM250 125H248C248 192.931 192.931 248 125 248V250V252C195.14 252 252 195.14 252 125H250ZM125 0V2C192.931 2 248 57.069 248 125H250H252C252 54.8598 195.14 -2 125 -2V0ZM125 0V-2C54.8598 -2 -2 54.8598 -2 125H0H2C2 57.069 57.069 2 125 2V0Z" fill="#DDDBDB" mask="url(#path-1-inside-1_453_441)"/>
<path d="M178.764 129.688C183.953 127.05 188.606 124.687 194.606 121.623C188.514 119.001 183.539 116.851 176.667 113.894C181.764 109.777 186.019 106.362 191.346 102.063C184.121 101.179 178.917 100.538 172.764 99.7914C175.794 94.5316 178.396 90.0189 181.641 84.4086C175.228 85.2471 169.901 85.9484 163.626 86.7564C164.452 83.3719 165.034 80.9936 165.6 78.6153C166.212 76.0388 166.825 73.4623 167.697 69.7881C161.62 72.7305 156.753 75.0935 150.737 78.0207C150.737 71.4194 150.737 66.2054 150.737 59.1162C145.487 64.0862 141.569 67.8214 136.854 72.2884C134.773 66.1901 133.074 61.1743 130.977 55.0151C127.242 60.8847 124.333 65.4279 121.134 70.4436C117.568 65.4431 114.66 61.3573 110.956 56.189C109.088 62.5617 107.588 67.7299 105.889 73.4775C101.159 69.8643 96.9959 66.678 91.7304 62.6684C91.7304 69.6509 91.7304 74.8039 91.7304 80.6429C86.1588 78.4323 81.322 76.5266 75.4136 74.1941C77.3728 80.4295 78.98 85.5672 80.8168 91.4825C74.6024 90.8879 69.245 90.3848 63.1377 89.8055C66.6582 95.2177 69.7042 99.9286 73.2707 105.417C66.8266 106.301 61.806 106.987 56.7855 107.673C58.0406 109.32 59.0968 111.195 60.6121 112.567C63.3214 115.037 66.3062 117.217 69.9798 120.159C64.5765 122.888 59.9846 125.206 55.3926 127.523C55.3926 128.026 55.3926 128.544 55.3926 129.048C60.2448 131.182 65.0817 133.316 70.7145 135.786C66.5664 139.613 62.7551 143.119 57.8876 147.601C57.8876 147.784 57.8876 147.967 57.9182 148.166C64.5 148.76 69.5665 149.217 75.8575 149.782C73.0411 154.797 70.5155 159.325 67.3011 165.058C67.347 165.241 67.3929 165.423 67.4695 165.606C73.5615 164.6 78.6586 163.746 84.8425 162.725C83.5567 168.229 82.4393 173.016 81.077 178.794C81.3066 179.129 81.5822 179.465 81.9342 179.785C87.4446 177.025 91.8835 174.815 97.3173 172.101C97.3173 177.91 97.3173 182.788 97.3173 188.551C97.4857 188.825 97.6847 189.085 97.9143 189.344C100.149 188.17 101.465 187.469 102.766 186.783C105.369 183.779 107.986 180.791 111.568 176.659C113.864 183.672 115.517 188.719 117.583 195C121.134 189.207 123.966 184.602 127.119 179.48C130.701 184.404 133.793 188.642 137.574 193.841C139.365 187.499 140.834 182.285 142.518 176.294C147.278 180.135 151.426 183.474 156.569 187.606C156.569 180.547 156.569 175.272 156.569 169.281C162.156 171.491 167.284 173.504 173.33 175.897C171.08 169.342 169.32 164.204 167.33 158.426C173.315 159.005 178.473 159.493 185.147 160.133C181.488 154.401 178.687 150.041 175.35 144.812C181.351 143.699 186.432 142.753 192.739 141.579C187.642 137.234 183.493 133.713 178.764 129.688Z" fill="#FDC012"/>
<path d="M83.5258 108.024C82.1941 103.892 81.1686 100.676 79.9594 96.8946C84.1228 96.7117 87.6586 96.544 91.4546 96.3763C91.1638 92.1533 90.9342 88.8145 90.6434 84.561C95.0058 85.7044 98.3273 86.5734 102.031 87.5491C103.072 83.692 104.098 79.9263 105.322 75.3527C108.338 77.7157 110.817 79.6824 114.032 82.1979C116.404 79.0878 118.609 76.1759 121.394 72.5322C123.797 75.4899 126.216 78.4475 128.94 81.8015C131.849 79.347 134.635 76.9839 138.033 74.1025C139.15 78.0054 140.068 81.207 141.17 85.0488C145.043 83.4633 148.212 82.1522 152.406 80.4294C152.972 84.5457 153.446 88.1132 154.043 92.3972C157.64 92.1685 161.054 91.9398 165.171 91.6807C164.329 94.8975 163.472 98.1448 162.385 102.337C165.86 103.465 169.273 104.578 173.131 105.829C171.095 108.954 169.12 112.018 166.962 115.342C170.207 117.552 173.039 119.489 177.508 122.522C175.228 123.94 173.743 124.809 172.319 125.77C171.095 126.593 169.932 127.508 167.942 128.971C170.238 132.142 172.35 135.07 174.86 138.546C171.508 139.887 168.37 141.153 164.59 142.677C165.891 145.909 167.146 149.05 168.707 152.983C164.498 153.303 160.87 153.593 157.273 153.867C157.457 157.862 157.625 161.49 157.839 166.003C153.538 164.646 150.293 163.64 146.757 162.527C145.609 166.216 144.569 169.509 143.298 173.58C140.359 171.933 137.788 170.5 134.267 168.518C132.002 171.293 129.599 174.251 126.966 177.483C124.792 174.647 122.573 171.735 119.956 168.305C117.047 170.851 114.43 173.122 111.277 175.882C109.654 172.406 108.154 169.159 106.455 165.515C102.965 166.628 99.7202 167.665 95.8017 168.915C95.4037 165.134 95.067 161.993 94.6843 158.426C90.9954 158.182 87.5208 157.938 83.8473 157.694C84.6432 153.928 85.3932 150.391 86.1279 146.87C82.0105 145.894 78.7655 145.132 74.2959 144.064C77.1736 140.497 79.1634 138.027 81.689 134.887C78.49 132.569 75.4133 130.359 72.0918 127.95C75.0154 125.175 77.495 122.812 80.2961 120.144C77.6022 117.08 75.3062 114.473 72.6275 111.424C76.2552 110.295 79.4696 109.289 83.5258 108.024Z" fill="#FBE000"/>
<path d="M144.539 120.724C145.978 121.577 147.249 122.34 149.101 123.453C147.555 124.718 146.315 125.74 144.769 127.02C145.994 128.484 147.218 129.932 148.565 131.518C146.514 131.96 144.83 132.326 142.687 132.783C143.682 134.887 144.494 136.655 145.642 139.079C143.483 138.866 141.861 138.713 139.657 138.5C139.84 140.238 140.024 141.854 140.269 144.08C138.279 143.745 136.458 143.424 134.406 143.074C134.039 144.614 133.702 146.047 133.228 148.059C131.529 146.977 129.998 146.001 128.269 144.888C127.427 146.595 126.707 148.105 125.666 150.224C124.411 148.486 123.493 147.205 122.33 145.604C120.83 146.702 119.513 147.663 117.768 148.928C117.11 147.144 116.559 145.665 115.901 143.927C114.248 144.537 112.855 145.056 111.003 145.742C110.742 144.034 110.513 142.433 110.191 140.314C108.63 140.467 107.023 140.619 104.65 140.863C105.339 139.018 105.906 137.509 106.671 135.481C104.727 135.146 102.89 134.826 100.564 134.414C101.773 132.783 102.89 131.289 104.298 129.398C102.906 128.484 101.513 127.584 99.584 126.334C100.916 125.191 102.11 124.169 103.732 122.782C102.645 121.577 101.559 120.373 100.135 118.788C101.803 118.101 103.319 117.492 105.492 116.607C104.727 114.9 103.977 113.192 103.028 111.043C104.926 111.18 106.61 111.302 108.661 111.439C108.814 109.854 108.967 108.222 109.151 106.286C110.681 106.606 112.044 106.896 113.942 107.292C114.401 105.753 114.86 104.182 115.457 102.2C116.926 103.039 118.304 103.832 120.095 104.868C120.906 103.237 121.625 101.819 122.605 99.8525C123.921 101.545 124.932 102.841 126.34 104.64C127.748 103.42 129.141 102.231 131.177 100.478C131.621 102.566 131.988 104.319 132.432 106.423C134.376 105.509 135.907 104.792 137.728 103.938C137.835 105.875 137.942 107.582 138.065 109.701C139.764 109.594 141.371 109.488 143.483 109.351C143.07 111.165 142.703 112.735 142.243 114.763C144.08 115.113 145.749 115.434 147.861 115.83C146.698 117.537 145.642 119.108 144.539 120.724Z" fill="#FFFFFD"/>
</svg>
