<svg width="250" height="250" viewBox="0 0 250 250" fill="none" xmlns="http://www.w3.org/2000/svg">
<mask id="path-1-inside-1_453_384" fill="white">
<path d="M0 125C0 55.9644 55.9644 0 125 0C194.036 0 250 55.9644 250 125C250 194.036 194.036 250 125 250C55.9644 250 0 194.036 0 125Z"/>
</mask>
<path d="M0 125C0 55.9644 55.9644 0 125 0C194.036 0 250 55.9644 250 125C250 194.036 194.036 250 125 250C55.9644 250 0 194.036 0 125Z" fill="white"/>
<path d="M0 125M250 125M250 125M0 125M125 0M250 125M125 250M0 125M125 250V248C57.069 248 2 192.931 2 125H0H-2C-2 195.14 54.8598 252 125 252V250ZM250 125H248C248 192.931 192.931 248 125 248V250V252C195.14 252 252 195.14 252 125H250ZM125 0V2C192.931 2 248 57.069 248 125H250H252C252 54.8598 195.14 -2 125 -2V0ZM125 0V-2C54.8598 -2 -2 54.8598 -2 125H0H2C2 57.069 57.069 2 125 2V0Z" fill="#DDDBDB" mask="url(#path-1-inside-1_453_384)"/>
<path d="M195 55L150.594 195H61.1016L106.187 55H195Z" fill="#098221"/>
<path d="M136.103 89.9695C128.096 90.4548 119.929 84.915 116.846 82.0845C122.39 111.328 136.613 143.019 143.032 155.21C144.058 155.147 148.871 155.021 159.91 155.021C144.14 132.276 137.013 100.129 136.103 89.9695Z" fill="#FECE06"/>
<path d="M100.02 151.881L77.4492 150.705C100.02 119.108 103.645 109.774 114.505 83.8943C122.24 118.368 129.854 135.657 140.901 155.414C139.782 155.294 133.656 154.842 117.821 153.594C107.67 142.581 109.106 129.241 109.759 118.368C103.574 130.228 100.02 138.747 100.02 151.881Z" fill="white"/>
</svg>
