<svg width="250" height="250" viewBox="0 0 250 250" fill="none" xmlns="http://www.w3.org/2000/svg">
<path d="M0 125C0 55.9644 55.9644 0 125 0C194.036 0 250 55.9644 250 125C250 194.036 194.036 250 125 250C55.9644 250 0 194.036 0 125Z" fill="white"/>
<path d="M195.001 55.0002L150.595 195H61.1023L106.188 55.0002H195.001Z" fill="#098221"/>
<path d="M136.103 89.9695C128.097 90.4548 119.929 84.915 116.846 82.0845C122.391 111.328 136.614 143.019 143.032 155.21C144.059 155.147 148.871 155.021 159.91 155.021C144.14 132.276 137.013 100.129 136.103 89.9695Z" fill="#FECE06"/>
<path d="M100.02 151.882L77.45 150.706C100.02 119.108 103.646 109.774 114.505 83.8945C122.241 118.369 129.855 135.657 140.902 155.414C139.783 155.294 133.657 154.842 117.822 153.595C107.67 142.581 109.107 129.241 109.76 118.369C103.575 130.228 100.02 138.747 100.02 151.882Z" fill="white"/>
</svg>
