<svg width="250" height="250" viewBox="0 0 250 250" fill="none" xmlns="http://www.w3.org/2000/svg">
<mask id="path-1-inside-1_453_382" fill="white">
<path d="M0 125C0 55.9644 55.9644 0 125 0C194.036 0 250 55.9644 250 125C250 194.036 194.036 250 125 250C55.9644 250 0 194.036 0 125Z"/>
</mask>
<path d="M0 125C0 55.9644 55.9644 0 125 0C194.036 0 250 55.9644 250 125C250 194.036 194.036 250 125 250C55.9644 250 0 194.036 0 125Z" fill="white"/>
<path d="M0 125M250 125M250 125M0 125M125 0M250 125M125 250M0 125M125 250V248C57.069 248 2 192.931 2 125H0H-2C-2 195.14 54.8598 252 125 252V250ZM250 125H248C248 192.931 192.931 248 125 248V250V252C195.14 252 252 195.14 252 125H250ZM125 0V2C192.931 2 248 57.069 248 125H250H252C252 54.8598 195.14 -2 125 -2V0ZM125 0V-2C54.8598 -2 -2 54.8598 -2 125H0H2C2 57.069 57.069 2 125 2V0Z" fill="#DDDBDB" mask="url(#path-1-inside-1_453_382)"/>
<path d="M142.696 45.6333C147.118 45.7962 151.683 45.7951 156.132 45.9019L157.797 168.781C158.92 168.067 161.839 166.695 163.167 166.007C167.364 163.836 170.154 161.776 173.686 158.738C181.473 152.039 186.9 141.552 187.611 131.268C188.514 118.209 182.774 104.973 174.926 94.779C173.629 93.0954 172.129 91.5568 170.702 89.9601C175.728 92.0989 181.495 97.8332 184.911 102.018C191.23 110.377 194.591 119.196 194.967 129.83C195.851 154.804 178.643 181.037 153.262 185.773C150.214 186.341 146.165 186.281 143.034 186.367L142.697 62.2948C142.669 56.8289 142.55 51.0699 142.696 45.6333Z" fill="#84312E"/>
<path d="M102.197 84.1972C103.919 84.1523 105.676 84.1438 107.402 84.1177L107.066 171.954C107.064 176.679 107.163 181.629 107.04 186.333C102.249 186.247 97.974 186.287 93.281 185.023C60.9219 176.308 44.0041 132.92 62.9032 104.956C66.6991 99.4454 73.2123 92.8141 79.2042 89.8053C77.9458 91.3429 76.6605 92.8552 75.4134 94.4076C63.78 108.949 57.5454 129.018 66.6475 146.517C72.5365 157.84 81.3467 163.184 92.1406 168.852C92.1663 155.481 92.6651 141.713 93.0128 128.339L93.5192 101.17C93.6983 95.5337 93.8296 89.8963 93.9129 84.2582C96.6743 84.2661 99.4357 84.2458 102.197 84.1972Z" fill="#84312E"/>
<path d="M115.99 70.9561C117.83 71.0529 120.389 70.9812 122.262 70.9815L133.952 70.9812L133.929 186.029C133.033 186.212 128.468 186.243 127.383 186.229C123.819 186.181 119.727 186.361 116.204 186.087C116.082 172.48 116.036 158.873 116.065 145.266L115.99 70.9561Z" fill="#84312E"/>
</svg>
