<svg width="250" height="250" viewBox="0 0 250 250" fill="none" xmlns="http://www.w3.org/2000/svg">
<mask id="path-1-inside-1_453_354" fill="white">
<path d="M0 125C0 55.9644 55.9644 0 125 0C194.036 0 250 55.9644 250 125C250 194.036 194.036 250 125 250C55.9644 250 0 194.036 0 125Z"/>
</mask>
<path d="M0 125C0 55.9644 55.9644 0 125 0C194.036 0 250 55.9644 250 125C250 194.036 194.036 250 125 250C55.9644 250 0 194.036 0 125Z" fill="white"/>
<path d="M0 125M250 125M250 125M0 125M125 0M250 125M125 250M0 125M125 250V248C57.069 248 2 192.931 2 125H0H-2C-2 195.14 54.8598 252 125 252V250ZM250 125H248C248 192.931 192.931 248 125 248V250V252C195.14 252 252 195.14 252 125H250ZM125 0V2C192.931 2 248 57.069 248 125H250H252C252 54.8598 195.14 -2 125 -2V0ZM125 0V-2C54.8598 -2 -2 54.8598 -2 125H0H2C2 57.069 57.069 2 125 2V0Z" fill="#DDDBDB" mask="url(#path-1-inside-1_453_354)"/>
<g clip-path="url(#clip0_453_354)">
<path d="M66.3286 64.9993H123.664C124.407 64.9993 124.992 65.6003 124.992 66.3279V125.007H66.3286C65.5852 125.007 65 124.406 65 123.679V66.3279C65 65.6003 65.601 64.9993 66.3286 64.9993Z" fill="#1B1A23"/>
<path d="M167.504 106.831V83.1538C167.504 82.7869 167.207 82.4895 166.84 82.4895H143.163C142.795 82.4895 142.498 82.7869 142.498 83.1538V106.831C142.498 107.198 142.795 107.495 143.163 107.495H166.84C167.207 107.495 167.504 107.198 167.504 106.831Z" fill="#1B1A23"/>
<path d="M114.996 175.004V183.672C114.996 184.415 114.395 185 113.667 185H66.3286C65.5852 185 65 184.399 65 183.672V136.333C65 135.59 65.601 135.004 66.3286 135.004H74.996C97.0759 135.004 114.996 152.924 114.996 175.004Z" fill="#1B1A23"/>
<path d="M185 126.335V183.67C185 184.413 184.399 184.999 183.671 184.999H126.336C125.593 184.999 125.008 184.398 125.008 183.67V125.007H183.671C184.415 125.007 185 125.608 185 126.335Z" fill="#1B1A23"/>
</g>
<defs>
<clipPath id="clip0_453_354">
<rect width="120" height="120" fill="white" transform="translate(65 64.9993)"/>
</clipPath>
</defs>
</svg>
