<svg width="250" height="250" viewBox="0 0 250 250" fill="none" xmlns="http://www.w3.org/2000/svg">
<path d="M0 125C0 55.9644 55.9644 0 125 0C194.036 0 250 55.9644 250 125C250 194.036 194.036 250 125 250C55.9644 250 0 194.036 0 125Z" fill="white"/>
<g clip-path="url(#clip0_1_476)">
<path d="M66.3286 64.9993H123.664C124.407 64.9993 124.992 65.6003 124.992 66.3279V125.007H66.3286C65.5852 125.007 65 124.406 65 123.679V66.3279C65 65.6003 65.601 64.9993 66.3286 64.9993Z" fill="#1B1A23"/>
<path d="M167.504 106.831V83.1538C167.504 82.7869 167.206 82.4895 166.839 82.4895H143.162C142.795 82.4895 142.498 82.7869 142.498 83.1538V106.831C142.498 107.198 142.795 107.495 143.162 107.495H166.839C167.206 107.495 167.504 107.198 167.504 106.831Z" fill="#1B1A23"/>
<path d="M114.996 175.004V183.672C114.996 184.415 114.395 185 113.667 185H66.3286C65.5852 185 65 184.399 65 183.672V136.333C65 135.59 65.601 135.004 66.3286 135.004H74.996C97.0759 135.004 114.996 152.924 114.996 175.004Z" fill="#1B1A23"/>
<path d="M185 126.335V183.67C185 184.413 184.398 184.999 183.671 184.999H126.336C125.593 184.999 125.007 184.398 125.007 183.67V125.007H183.671C184.414 125.007 185 125.608 185 126.335Z" fill="#1B1A23"/>
</g>
<defs>
<clipPath id="clip0_1_476">
<rect width="120" height="120" fill="white" transform="translate(65 64.9993)"/>
</clipPath>
</defs>
</svg>
