<svg width="250" height="250" viewBox="0 0 250 250" fill="none" xmlns="http://www.w3.org/2000/svg">
<path d="M0 125C0 55.9644 55.9644 0 125 0C194.036 0 250 55.9644 250 125C250 194.036 194.036 250 125 250C55.9644 250 0 194.036 0 125Z" fill="white"/>
<path d="M75.3153 55.2905C80.8654 54.6542 89.5743 55.1714 95.424 55.1714L133.104 55.1621L160.642 55.1574C165.579 55.159 172.507 54.8321 177.229 55.6251C186.135 57.1209 194.086 65.8636 194.569 74.8814C194.915 81.3413 194.833 87.41 194.835 93.7381L194.841 127.067L194.838 157.931C194.835 167.862 196.458 179.007 189.508 186.846C185.201 191.704 181.111 194.094 174.626 194.741C169.886 195.29 162.056 194.875 157.126 194.871L123.344 194.865L91.6803 194.874C85.7892 194.875 78.5167 195.207 72.7887 194.407C64.0761 193.191 55.9588 184.028 55.4162 175.318C54.9901 168.475 55.1413 161.633 55.1422 154.861L55.1554 118.682L55.1239 90.2777C55.1104 78.7543 53.3645 67.8747 63.44 60.077C67.4053 57.0082 70.3498 55.7574 75.3153 55.2905Z" fill="#0D19D6"/>
<path d="M160.743 75.9116L164.15 138.53C164.15 138.53 156.472 138.87 153.243 139.297C151.456 122.438 136.793 113.364 120.733 117.601C116.639 118.681 114.004 121.288 110.846 123.914C110.868 123.061 110.804 122.319 110.75 121.474C110.27 113.955 109.633 106.359 109.488 98.8277L97.8679 99.4072C99.026 113.959 99.6295 128.077 100.46 142.622C96.8159 142.664 89.2634 143.074 89.2634 143.074L85.7836 80.4376L160.743 75.9116Z" fill="#F8F8F8"/>
<path d="M102.79 147.388C105.01 147.304 107.23 147.236 109.451 147.184C109.778 151.692 110.203 154.497 112.83 158.418C117.078 164.76 126.943 165.999 132.995 161.611C137.799 158.127 138.905 152.991 139.727 147.407C143.341 147.407 147.406 147.261 151.028 147.221C150.913 153.693 150.667 157.248 147.352 162.775C146.885 163.55 146.367 164.295 145.803 165.004C141.725 170.056 135.799 173.272 129.34 173.936C121.166 174.852 115.757 172.651 109.514 167.674L109.45 173.501L98.5122 173.477C98.7042 164.95 98.5603 156.097 98.5209 147.544L102.79 147.388Z" fill="#F8F8F8"/>
<path d="M125.457 126.818C134.13 125.744 140.32 131.918 141.175 140.213C137.108 140.196 131.757 140.451 127.686 140.739C122.432 140.793 117.037 141.288 111.687 141.361C112.748 132.832 116.46 127.823 125.457 126.818Z" fill="#F8F8F8"/>
</svg>
