<svg width="250" height="250" viewBox="0 0 250 250" fill="none" xmlns="http://www.w3.org/2000/svg">
<path d="M0 125C0 55.9644 55.9644 0 125 0C194.036 0 250 55.9644 250 125C250 194.036 194.036 250 125 250C55.9644 250 0 194.036 0 125Z" fill="#2B63E4"/>
<path d="M87.3477 60.0265C91.7214 59.968 96.2155 60.0228 100.599 60.0226H126.745L140.293 60.0197C143.027 60.0194 146.32 59.9237 148.974 60.1886C152.217 60.5019 155.398 61.2922 158.411 62.5353C166.659 65.9279 173.225 72.4533 176.67 80.6798C180.118 88.9452 180.136 98.2436 176.718 106.522C173.105 115.264 166.52 121.424 157.854 125.017C161.582 126.169 166.517 129.665 169.294 132.409C175.655 138.711 179.244 147.288 179.268 156.242C179.3 165.201 175.748 173.802 169.403 180.127C165.031 184.509 159.531 187.595 153.513 189.043C148.582 190.225 144.374 189.979 139.354 189.977L127.068 189.976H85.8516C85.7456 180.182 85.8291 170.129 85.8516 160.324C92.8934 161.256 98.1866 160.314 104.683 157.789C104.764 162.143 104.695 166.714 104.696 171.085L140.423 171.084C144.158 171.089 147.78 171.43 151.267 169.983C154.932 168.468 157.836 165.546 159.326 161.87C160.793 158.224 160.754 154.146 159.219 150.529C157.977 147.616 155.822 145.166 153.085 143.585C151.791 142.837 150.58 142.454 149.21 141.888L145.059 140.151C141.159 138.516 137.225 136.822 133.312 135.232L100.723 148.993C94.4411 151.679 87.3443 151.728 81.0254 149.132C74.6212 146.56 69.4992 141.552 66.7842 135.207C64.0999 128.8 64.0462 121.594 66.6348 115.148C69.2503 108.773 74.2838 103.694 80.6338 101.021C85.0622 99.1294 89.9327 98.5204 94.6904 99.2629C98.6143 99.883 100.058 100.764 103.515 102.249L109.896 104.929C117.654 108.186 125.523 111.583 133.309 114.743C134.591 114.29 136.194 113.565 137.469 113.029L144.786 109.955C146.248 109.342 147.716 108.722 149.184 108.123C150.382 107.634 151.528 107.262 152.68 106.642C153.905 105.979 155.03 105.145 156.02 104.166C158.82 101.388 160.399 97.609 160.407 93.6642C160.408 89.7387 158.844 85.9746 156.062 83.2052C153.952 81.0979 151.253 79.6804 148.32 79.1408C146.492 78.8093 143.104 78.9147 141.137 78.9152L129.894 78.9172H87.3467L87.3477 60.0265ZM97.7354 120.292C95.559 119.377 92.4292 117.616 90.1133 117.884C88.0417 118.139 86.3901 118.947 85.085 120.623C83.9172 122.139 83.4075 124.06 83.669 125.956C83.9164 127.839 84.9066 129.544 86.419 130.692C87.9162 131.823 89.7992 132.317 91.6592 132.069C93.1549 131.854 94.2394 131.181 95.6055 130.606C96.8002 130.102 98.0232 129.559 99.2246 129.076L108.938 124.995L97.7354 120.292Z" fill="#FEFEFE"/>
</svg>
