<svg width="250" height="250" viewBox="0 0 250 250" fill="none" xmlns="http://www.w3.org/2000/svg">
<path d="M0 125C0 55.9644 55.9644 0 125 0C194.036 0 250 55.9644 250 125C250 194.036 194.036 250 125 250C55.9644 250 0 194.036 0 125Z" fill="#2B63E4"/>
<path fill-rule="evenodd" clip-rule="evenodd" d="M87.3486 60.0268C91.7223 59.9683 96.2164 60.023 100.6 60.0229L126.746 60.0219L140.294 60.0199C143.028 60.0197 146.321 59.923 148.975 60.1879C152.218 60.5012 155.399 61.2924 158.412 62.5356C166.66 65.9281 173.226 72.4527 176.671 80.6791C180.119 88.9444 180.137 98.2429 176.719 106.521C173.106 115.263 166.521 121.425 157.854 125.017C161.583 126.169 166.517 129.665 169.295 132.41C175.656 138.712 179.245 147.287 179.268 156.242C179.301 165.201 175.749 173.801 169.404 180.126C165.032 184.508 159.532 187.595 153.514 189.043C148.583 190.225 144.374 189.98 139.354 189.977L127.069 189.975L85.8525 189.976C85.7465 180.182 85.83 170.129 85.8525 160.324C92.8943 161.256 98.1874 160.314 104.684 157.789C104.765 162.144 104.696 166.714 104.697 171.085L140.424 171.083C144.159 171.089 147.782 171.43 151.268 169.983C154.933 168.468 157.837 165.546 159.327 161.871C160.794 158.225 160.755 154.146 159.22 150.53C157.977 147.616 155.823 145.167 153.086 143.585C151.792 142.837 150.581 142.453 149.211 141.887L145.059 140.151C141.16 138.516 137.225 136.823 133.312 135.232L100.724 148.994C94.4421 151.679 87.3451 151.728 81.0263 149.132C74.622 146.56 69.5 141.552 66.7851 135.206C64.1009 128.8 64.0472 121.594 66.6357 115.148C69.2512 108.774 74.2846 103.694 80.6347 101.021C85.0631 99.1296 89.9336 98.5197 94.6913 99.2621C98.6152 99.8823 100.059 100.764 103.516 102.248L109.896 104.929C117.655 108.186 125.524 111.584 133.309 114.744C134.592 114.29 136.195 113.566 137.47 113.03L144.787 109.955C146.249 109.343 147.717 108.722 149.184 108.123C150.382 107.634 151.529 107.263 152.681 106.642C153.905 105.979 155.03 105.145 156.02 104.166C158.821 101.389 160.4 97.6093 160.408 93.6645C160.409 89.7389 158.845 85.9749 156.062 83.2055C153.953 81.0981 151.254 79.6807 148.321 79.141C146.493 78.8095 143.104 78.9139 141.138 78.9145L129.894 78.9174H87.3476L87.3486 60.0268ZM97.7362 120.292C95.5599 119.377 92.4301 117.617 90.1142 117.884C88.0426 118.139 86.391 118.947 85.0859 120.623C83.9182 122.139 83.4084 124.061 83.6698 125.956C83.9174 127.839 84.9076 129.543 86.4198 130.691C87.9172 131.822 89.8 132.318 91.6601 132.069C93.1559 131.855 94.2403 131.18 95.6064 130.605C96.801 130.101 98.0242 129.559 99.2255 129.077L108.938 124.995L97.7362 120.292Z" fill="#FEFEFE"/>
</svg>
