<svg width="250" height="250" viewBox="0 0 250 250" fill="none" xmlns="http://www.w3.org/2000/svg">
<mask id="path-1-inside-1_453_360" fill="white">
<path d="M0 125C0 55.9644 55.9644 0 125 0C194.036 0 250 55.9644 250 125C250 194.036 194.036 250 125 250C55.9644 250 0 194.036 0 125Z"/>
</mask>
<path d="M0 125C0 55.9644 55.9644 0 125 0C194.036 0 250 55.9644 250 125C250 194.036 194.036 250 125 250C55.9644 250 0 194.036 0 125Z" fill="white"/>
<path d="M0 125M250 125M250 125M0 125M125 0M250 125M125 250M0 125M125 250V248C57.069 248 2 192.931 2 125H0H-2C-2 195.14 54.8598 252 125 252V250ZM250 125H248C248 192.931 192.931 248 125 248V250V252C195.14 252 252 195.14 252 125H250ZM125 0V2C192.931 2 248 57.069 248 125H250H252C252 54.8598 195.14 -2 125 -2V0ZM125 0V-2C54.8598 -2 -2 54.8598 -2 125H0H2C2 57.069 57.069 2 125 2V0Z" fill="#DDDBDB" mask="url(#path-1-inside-1_453_360)"/>
<path d="M193.281 88.6431C194.07 89.3093 194.049 90.3086 194.266 91.1464C196.457 99.6254 197.738 108.276 197.668 117.018C197.497 139.003 190.713 158.424 174.636 173.923C163.912 184.264 150.962 190.361 136.473 193.339C128.297 195.02 120.03 195.262 111.748 194.782C105.17 194.404 98.6773 193.278 91.7422 191.482C94.0991 191.356 95.9334 191.366 97.7425 191.133C104.346 190.291 108.864 186.495 111.954 180.767C114.603 175.856 116.06 170.521 117.462 165.166C119.352 157.959 121.02 150.697 123.915 143.782C127.051 136.297 131.945 130.564 139.227 126.819C146.459 123.099 154.052 120.278 161.52 117.144C168.395 114.262 175.164 111.193 181.104 106.57C186.969 102.003 191.145 96.3045 192.929 88.9762C192.959 88.8651 193.125 88.7844 193.281 88.6431ZM172.968 138.321C158.791 161.361 139.946 179.142 115.377 190.609C117.306 191.007 119.236 191.411 121.081 191.795C125.488 189.665 129.649 187.353 133.735 184.9C137.036 182.922 140.242 180.802 143.353 178.536C156.133 169.219 166.234 157.737 171.938 142.727C172.46 141.365 173.254 140.047 172.968 138.321Z" fill="#10538E"/>
<path d="M131.403 115.993C137.132 108.569 140.891 100.725 141.479 91.5499C135.996 101.225 130.302 110.658 119.688 115.887C112.613 107.882 106.627 99.2971 102.039 89.7127C102.361 99.3375 106.004 107.811 111.085 116.149C106.426 115.064 102.507 113.156 98.9084 110.572C92.2598 105.808 87.7319 99.5848 86.2343 91.3934C84.591 82.4097 86.8323 74.395 92.7473 67.5411C99.9386 59.2134 109.226 55.2868 120.136 55.0143C129.88 54.772 138.584 57.6034 145.986 64.0081C152.942 70.0242 156.746 77.726 156.495 86.9873C156.248 96.2487 151.942 103.673 144.811 109.416C140.519 112.889 136.363 114.837 131.403 115.993Z" fill="#C27F2A"/>
<path d="M67.4151 95.0273C66.792 98.2827 66.1487 101.195 66.1336 104.258C66.1085 109.881 68.6413 113.868 73.4758 116.477C77.5665 118.683 82.0642 119.662 86.5519 120.641C91.115 121.64 95.7182 122.428 100.226 123.684C103.292 124.542 106.241 125.668 109.036 127.212C115.302 130.67 118.373 136.12 118.941 143.126C119.267 147.178 118.619 151.161 117.795 155.107C117.629 155.91 117.227 156.687 116.805 157.404C114.634 161.083 112.428 164.742 110.061 168.689C91.3763 171.066 74.2145 168.098 61.4801 152.518C48.5598 136.721 49.4995 114.549 63.1787 99.2719C64.5104 97.783 65.998 96.4405 67.4151 95.0273ZM76.5915 136.872C84.7779 149.334 96.9093 154.502 111.186 155.981C111.759 154.502 112.242 153.205 112.367 151.61C107.824 151.514 103.482 150.797 99.231 149.541C95.0448 148.304 91.12 146.492 87.3359 144.312C83.5417 142.126 80.3304 139.108 76.5915 136.872Z" fill="#10538E"/>
</svg>
