<svg width="250" height="250" viewBox="0 0 250 250" fill="none" xmlns="http://www.w3.org/2000/svg">
<mask id="path-1-inside-1_453_379" fill="white">
<path d="M0 125C0 55.9644 55.9644 0 125 0C194.036 0 250 55.9644 250 125C250 194.036 194.036 250 125 250C55.9644 250 0 194.036 0 125Z"/>
</mask>
<path d="M0 125C0 55.9644 55.9644 0 125 0C194.036 0 250 55.9644 250 125C250 194.036 194.036 250 125 250C55.9644 250 0 194.036 0 125Z" fill="white"/>
<path d="M0 125M250 125M250 125M0 125M125 0M250 125M125 250M0 125M125 250V248C57.069 248 2 192.931 2 125H0H-2C-2 195.14 54.8598 252 125 252V250ZM250 125H248C248 192.931 192.931 248 125 248V250V252C195.14 252 252 195.14 252 125H250ZM125 0V2C192.931 2 248 57.069 248 125H250H252C252 54.8598 195.14 -2 125 -2V0ZM125 0V-2C54.8598 -2 -2 54.8598 -2 125H0H2C2 57.069 57.069 2 125 2V0Z" fill="#DDDBDB" mask="url(#path-1-inside-1_453_379)"/>
<path d="M112.906 123.662C113.69 121.105 114.806 119.733 117.183 118.486C120.154 116.927 123.611 116.791 126.794 117.727C132.292 119.345 135 124.839 130.961 129.478C128.021 129.037 125 128.603 122.185 127.626C119.121 126.563 115.964 125.558 113.049 124.135C112.892 124.058 112.687 124.375 112.906 123.662Z" fill="#174529"/>
<path d="M105.226 119.614C104.992 118.793 104.919 117.889 104.889 117.039C104.786 114.118 105.463 111.568 106.873 109.025C109.451 104.38 114.953 100.966 119.964 99.5336C126.808 97.5773 135.579 98.0541 141.871 101.571C146.124 103.948 149.96 107.572 151.306 112.382C152.342 116.118 151.863 120.112 149.971 123.497C148.682 125.776 145.873 128.856 143.536 130.047C143.216 130.124 142.997 130.202 142.714 130.044C146.57 126.966 149.026 122.474 148.136 117.462C147.262 112.543 143.104 108.541 138.715 106.571C134.162 104.58 129.125 103.969 124.229 104.814C119.174 105.645 114.223 108.059 111.191 112.302C109.261 114.998 108.481 118.349 109.019 121.62C109.059 121.862 109.21 122.384 109.155 122.516C108.764 122.52 105.655 119.984 105.226 119.614Z" fill="#174529"/>
<path d="M60.0762 127.068C59.0407 129.439 56.3848 134.066 56.3848 134.066H193.417C185.715 128.625 179.609 124.293 172.359 118.738C164.408 124.503 155.618 128.977 145.663 129.939C134.827 130.989 122.81 128.806 113.071 124.049C110.695 122.889 107.755 121.097 105.228 119.614C102.376 117.941 99.8082 115.99 97.2433 113.905C93.496 110.859 90.0177 107.493 86.8754 103.823C83.9622 100.42 80.9357 96.7064 79.0313 92.6504H78.9808C78.6736 93.2302 77.9995 94.3746 77.9995 94.3746C77.9995 94.3746 76.1757 97.7453 75.7124 98.5847L70.6577 107.791L63.9191 120.012C62.7413 122.17 61.705 124.274 60.4279 126.427L60.0762 127.068Z" fill="#88323E"/>
<path d="M168.582 137.684C174.102 137.684 179.627 137.746 185.141 137.684C189.363 137.637 194.271 137.685 197.529 140.8C198.802 142.017 198.479 143.4 197.284 144.484C196.725 144.991 196.15 145.318 195.556 145.657C195.26 145.825 194.959 145.996 194.654 146.194C196.533 147.006 198.963 148.223 199.732 150.227C200.816 153.053 198.42 155.338 196.004 156.261C193.509 157.214 191.17 157.196 188.661 157.177C188.312 157.175 187.959 157.172 187.602 157.172L182.031 157.168C182.015 155.162 182.035 151.15 182.035 151.15C182.035 151.15 184.295 151.15 185.318 151.15C186.553 151.15 186.511 149.347 185.413 149.347C184.634 149.347 183.763 149.339 182.902 149.347C182.511 149.35 181.787 149.347 181.787 149.347C181.787 149.347 181.786 148.448 181.784 147.989C181.779 146.915 181.801 144.786 181.801 144.786C181.801 144.786 183.409 144.786 184.439 144.786C186.512 144.786 186.496 142.838 184.439 142.838L179.439 142.858C179.439 142.858 179.442 146.218 179.452 147.924C179.469 151.024 179.413 157.246 179.413 157.246H168.571C168.58 150.725 168.58 144.205 168.582 137.684Z" fill="#174529"/>
<path d="M98.2657 137.476C100.979 137.267 104.179 137.72 106.804 138.409C107.447 138.577 109.695 139.4 110.175 139.363C111.201 139.285 113.073 138.624 114.237 138.364C116.29 137.906 118.384 137.658 120.487 137.625C124.042 137.59 129.3 138.504 132.071 140.876C133.614 142.197 133.224 144.907 133.224 148.011C133.224 151.595 133.224 157.214 133.224 157.214H120.342C120.338 152.962 120.342 149.616 120.342 145.119C120.342 143.764 120.16 142.986 118.676 142.993C117.254 142.999 117.068 143.891 117.068 145.119C117.07 146.161 117.068 153.882 117.068 156.395C117.068 156.833 116.718 157.184 116.28 157.186C114.09 157.192 107.845 157.209 104.168 157.194C103.73 157.192 103.379 156.842 103.379 156.404C103.379 153.896 103.379 146.147 103.379 144.404C103.379 143.278 102.657 143.005 101.673 142.98C100.77 142.957 99.9481 143.45 99.9481 144.404C99.9481 148.693 99.9539 152.982 99.9481 157.271L86.5945 157.278C86.5945 157.278 86.6356 150.293 86.5933 146.809C86.6431 145.529 86.4709 144.12 86.6493 142.854C86.957 140.67 89.7858 139.466 91.5393 138.826C93.8334 137.988 95.8746 137.654 98.2657 137.476Z" fill="#174529"/>
<path d="M149.274 137.841C154.335 137.51 162.321 138.33 166.576 141.274C165.149 141.57 163.716 142.096 162.32 142.536L156.306 144.41C153.884 142.703 152.198 143.141 149.628 144.279C149.643 144.904 149.636 145.571 149.64 146.2C151.122 146.216 154.085 146.21 154.085 146.21L153.991 151.132L149.649 151.145C149.61 153.106 149.632 157.123 149.632 157.123L136.814 157.125V149.706C136.813 148.284 136.726 145.9 137.02 144.576C137.235 143.604 137.681 142.697 138.319 141.933C138.985 141.136 139.655 140.706 140.521 140.167C143.278 138.45 146.115 138.118 149.274 137.841Z" fill="#174529"/>
<path d="M50.0106 137.789C55.531 137.789 61.0554 137.85 66.5694 137.789C70.7912 137.741 75.6992 137.789 78.9579 140.904C80.2308 142.121 79.9072 143.504 78.7123 144.588C78.1537 145.095 77.5785 145.422 76.9845 145.761C76.6886 145.929 76.388 146.101 76.0825 146.298C77.9613 147.111 80.3912 148.327 81.1605 150.332C82.2445 153.157 79.8482 155.442 77.4321 156.365C74.9381 157.318 72.5989 157.3 70.0894 157.281C69.7401 157.279 69.3876 157.276 69.0308 157.276L63.4592 157.272C63.444 155.266 63.464 151.254 63.464 151.254C63.464 151.254 65.7239 151.254 66.7467 151.254C67.9818 151.254 67.9399 149.451 66.8414 149.451C66.0624 149.451 65.1913 149.443 64.331 149.451C63.9396 149.454 63.2157 149.451 63.2157 149.451C63.2157 149.451 63.2142 148.552 63.2122 148.093C63.2074 147.019 63.2298 144.89 63.2298 144.89C63.2298 144.89 64.8374 144.89 65.8674 144.89C67.9407 144.89 67.9246 142.942 65.8674 142.942L60.8674 142.962C60.8674 142.962 60.871 146.322 60.8804 148.028C60.8975 151.128 60.8419 157.35 60.8419 157.35H50C50.0085 150.83 50.0085 144.309 50.0106 137.789Z" fill="#174529"/>
</svg>
