<svg width="250" height="250" viewBox="0 0 250 250" fill="none" xmlns="http://www.w3.org/2000/svg">
<mask id="path-1-inside-1_453_329" fill="white">
<path d="M0 125C0 55.9644 55.9644 0 125 0C194.036 0 250 55.9644 250 125C250 194.036 194.036 250 125 250C55.9644 250 0 194.036 0 125Z"/>
</mask>
<path d="M0 125C0 55.9644 55.9644 0 125 0C194.036 0 250 55.9644 250 125C250 194.036 194.036 250 125 250C55.9644 250 0 194.036 0 125Z" fill="white"/>
<path d="M0 125M250 125M250 125M0 125M125 0M250 125M125 250M0 125M125 250V248C57.069 248 2 192.931 2 125H0H-2C-2 195.14 54.8598 252 125 252V250ZM250 125H248C248 192.931 192.931 248 125 248V250V252C195.14 252 252 195.14 252 125H250ZM125 0V2C192.931 2 248 57.069 248 125H250H252C252 54.8598 195.14 -2 125 -2V0ZM125 0V-2C54.8598 -2 -2 54.8598 -2 125H0H2C2 57.069 57.069 2 125 2V0Z" fill="#DDDBDB" mask="url(#path-1-inside-1_453_329)"/>
<path d="M177.612 113.831L177.617 141.899C177.619 145.487 177.838 151.813 177.632 155.242C171.136 159.372 164.129 163.098 157.461 166.935L127.65 184.174L115.762 191.014C114.169 191.947 110.102 194.444 108.591 195C106.684 194.25 102.97 191.995 101.068 190.901L87.1104 182.817L77.1348 177.097C76.0459 176.469 73.2064 174.912 72.3917 174.229C72.3281 161.707 72.154 148.373 72.4225 135.894C74.0112 135.84 104.285 117.356 108.557 115.502C108.892 118.182 108.783 121.568 108.78 124.328L108.768 137.571L108.77 147.382C108.769 148.909 108.828 151.857 108.617 153.282C110.034 152.595 111.951 151.256 113.373 150.404L123.365 144.519C129.34 141.004 135.742 137.725 141.616 134.184C143.727 133.576 146.947 131.395 148.932 130.273C154.995 126.841 161.032 123.364 167.043 119.842C169.401 118.452 175.423 114.681 177.612 113.831Z" fill="#4785FE"/>
<path d="M72.4225 135.894C74.0112 135.84 104.285 117.356 108.557 115.502C108.892 118.182 108.783 121.568 108.78 124.328L108.768 137.571L108.77 147.382C108.769 148.909 108.828 151.857 108.617 153.282C105.268 155.493 100.853 157.872 97.3252 159.921L72.3917 174.229C72.3281 161.707 72.154 148.373 72.4225 135.894Z" fill="#0055FE"/>
<path d="M141.337 55.0024C141.601 56.1677 141.519 60.9676 141.52 62.5043L141.522 77.9478L141.517 90.2741C141.516 91.8101 141.601 95.1734 141.45 96.5867C139.271 98.0092 136.967 99.3232 134.712 100.625C126.538 105.347 118.443 110.219 110.145 114.72C109.614 115.008 109.135 115.309 108.557 115.501C104.285 117.356 74.0119 135.839 72.4233 135.894C72.2069 122.344 72.5645 108.624 72.332 95.0476C74.436 92.7978 90.0954 84.4797 93.6927 82.3753C104.45 75.9591 115.281 69.6652 126.181 63.4946C130.311 61.1326 137.21 56.8328 141.337 55.0024Z" fill="#4785FE"/>
<path d="M141.336 55.0026C142.413 54.8577 151.959 60.8875 153.732 61.8323C161.043 65.7275 168.215 70.1164 175.378 74.2969C175.955 74.6369 177.508 75.5193 177.567 76.1911C177.69 77.5859 177.658 79.0208 177.656 80.4215L177.635 88.4293C177.614 96.8004 177.761 105.497 177.611 113.831C175.423 114.681 169.4 118.452 167.042 119.842C161.031 123.364 154.994 126.841 148.932 130.273C146.947 131.395 143.726 133.576 141.615 134.184C141.67 133.712 141.542 131.235 141.528 130.576C141.492 128.287 141.479 125.998 141.487 123.709L141.448 96.5868C141.599 95.1735 141.514 91.8102 141.516 90.2742L141.521 77.9479L141.518 62.5044C141.517 60.9677 141.6 56.1678 141.336 55.0026Z" fill="#0055FE"/>
</svg>
