<svg width="250" height="250" viewBox="0 0 250 250" fill="none" xmlns="http://www.w3.org/2000/svg">
<path d="M0 125C0 55.9644 55.9644 0 125 0C194.036 0 250 55.9644 250 125C250 194.036 194.036 250 125 250C55.9644 250 0 194.036 0 125Z" fill="white"/>
<path d="M71.9167 152.417C71.9167 175.934 90.9824 195 114.5 195H135.5C159.018 195 178.083 175.934 178.083 152.417C178.083 128.899 159.018 109.833 135.5 109.833H114.5C90.9824 109.833 71.9167 128.899 71.9167 152.417Z" fill="#83AFF7"/>
<path d="M71.9167 156.5H107.5C135.528 156.5 158.25 133.778 158.25 105.75V98.1667C158.25 74.327 138.923 55 115.083 55C91.2437 55 71.9167 74.327 71.9167 98.1667V156.5Z" fill="#307AF2"/>
</svg>
