<svg width="250" height="250" viewBox="0 0 250 250" fill="none" xmlns="http://www.w3.org/2000/svg">
<mask id="path-1-inside-1_453_369" fill="white">
<path d="M0 125C0 55.9644 55.9644 0 125 0C194.036 0 250 55.9644 250 125C250 194.036 194.036 250 125 250C55.9644 250 0 194.036 0 125Z"/>
</mask>
<path d="M0 125C0 55.9644 55.9644 0 125 0C194.036 0 250 55.9644 250 125C250 194.036 194.036 250 125 250C55.9644 250 0 194.036 0 125Z" fill="white"/>
<path d="M0 125M250 125M250 125M0 125M125 0M250 125M125 250M0 125M125 250V248C57.069 248 2 192.931 2 125H0H-2C-2 195.14 54.8598 252 125 252V250ZM250 125H248C248 192.931 192.931 248 125 248V250V252C195.14 252 252 195.14 252 125H250ZM125 0V2C192.931 2 248 57.069 248 125H250H252C252 54.8598 195.14 -2 125 -2V0ZM125 0V-2C54.8598 -2 -2 54.8598 -2 125H0H2C2 57.069 57.069 2 125 2V0Z" fill="#DDDBDB" mask="url(#path-1-inside-1_453_369)"/>
<path d="M55.0578 87.5696C57.905 87.713 61.537 87.6163 64.4254 87.6163L187.455 87.619C189.664 87.6191 192.824 87.7058 194.972 87.5325L194.981 154.039L194.986 159.306C194.988 160.281 195.026 161.505 194.966 162.466C188.217 162.309 180.997 162.437 174.225 162.437H83.682C74.1891 162.436 64.5675 162.348 55.0856 162.465C54.9723 161.339 55.0132 159.695 55.0133 158.54L55.0122 93.2637C55.0116 91.4476 54.9651 89.3654 55.0578 87.5696Z" fill="#FEFEFE"/>
<path d="M57.084 89.5168C59.0134 89.449 61.1335 89.4873 63.0801 89.4873L193.07 89.4933L193.064 160.722L57.0718 160.73C57.0025 155.872 57.0626 150.862 57.0623 145.994L57.0607 99.1932C57.061 96.1621 56.9623 92.4949 57.084 89.5168Z" fill="#291870"/>
<path d="M59.4694 91.2987C61.7622 91.2726 64.1512 91.3271 66.4531 91.3401L191.293 91.9123C190.934 92.134 190.523 92.3427 190.143 92.5334C185.578 94.8275 180.997 97.1056 176.432 99.3974L169.857 102.693C169.339 102.953 167.314 104.017 166.949 104.138L166.941 100.973C164.637 101.023 162.317 100.976 160.012 100.994C159.544 100.997 158.258 100.93 157.941 100.989L157.92 101.028C157.842 101.166 157.839 101.186 157.717 101.277C156.735 101.063 155.757 100.646 154.792 100.47C149.461 99.4966 144.187 101.092 143.076 107.022C142.732 108.852 142.774 110.568 142.742 112.447C141.582 112.443 140.131 112.479 138.995 112.418C139.006 114.119 139.081 116.566 138.985 118.216C138.398 118.47 137.846 118.705 137.277 119.003C138.005 122.781 137.719 125.789 137.774 129.596C137.85 134.844 137.67 140.266 137.798 145.495C134.842 145.479 131.608 145.414 128.678 145.501C128.851 140.933 128.653 136.006 128.725 131.398C128.745 130.132 128.78 124.346 128.556 123.389C127.605 123.8 123.52 126.059 122.865 126.168C122.813 126.067 122.784 126.032 122.781 125.917C122.644 126.512 122.614 128.963 122.613 129.626L122.608 134.35L122.616 141.553C122.621 142.709 122.594 144.36 122.678 145.487L113.483 145.486L113.502 136.019C113.503 134.459 113.556 132.533 113.49 130.996C112.303 131.351 107.989 133.856 107.417 133.885L107.443 140.609C107.443 142.027 107.407 144.102 107.516 145.501C104.431 145.475 101.346 145.471 98.2603 145.487C98.3249 144.066 98.3036 142.534 98.308 141.105C98.3102 140.404 98.3454 139.128 98.2871 138.495C97.909 138.777 92.936 141.192 92.6919 141.209C92.2826 141.757 91.8513 142.409 91.3871 142.902C89.0112 145.429 86.3982 146.291 82.988 146.084C82.6645 146.407 80.2149 147.549 79.6927 147.812L64.174 155.582C62.5545 156.404 60.4546 157.535 58.8195 158.242C58.7727 155.753 58.8687 153.089 58.8861 150.578C58.9128 144.804 58.9787 139.029 59.0837 133.255C59.303 119.271 59.4315 105.285 59.4694 91.2987Z" fill="#0093DD"/>
<path d="M106.933 114.468C107.641 113.833 108.128 113.398 108.972 112.929C111.127 111.709 113.679 111.394 116.067 112.054C117.953 112.594 119.809 113.956 120.769 115.677C121.917 114.069 124.336 112.355 126.281 111.958C131.706 110.849 136.009 113.719 137.277 119.003C138.005 122.781 137.719 125.789 137.774 129.596C137.85 134.844 137.67 140.266 137.798 145.495C134.842 145.479 131.608 145.414 128.678 145.501C128.851 140.933 128.653 136.006 128.725 131.398C128.745 130.132 128.78 124.346 128.556 123.389C127.605 123.8 123.52 126.059 122.865 126.168C122.813 126.067 122.784 126.032 122.781 125.917C122.644 126.512 122.614 128.963 122.613 129.626L122.608 134.35L122.616 141.553C122.621 142.709 122.594 144.36 122.678 145.487L113.483 145.486L113.502 136.019C113.503 134.459 113.556 132.533 113.49 130.996C112.303 131.351 107.989 133.856 107.417 133.885L107.443 140.609C107.443 142.027 107.407 144.102 107.516 145.501C104.431 145.475 101.346 145.471 98.2603 145.487C98.3249 144.066 98.3036 142.534 98.308 141.105C98.3102 140.404 98.3454 139.128 98.2871 138.495C98.1082 129.845 98.4907 121.076 98.2482 112.44L106.902 112.432L106.933 114.468Z" fill="#1D1A18"/>
<path d="M107.417 133.885C107.606 130.855 106.759 124.004 108.895 121.78C109.536 121.113 110.31 120.784 111.233 120.777C111.684 120.774 112.262 120.796 112.599 121.137C112.998 121.54 113.203 122.118 113.314 122.663C113.545 123.801 113.485 125.128 113.489 126.289L113.49 130.996C112.303 131.351 107.989 133.856 107.417 133.885Z" fill="#0093DD"/>
<path d="M122.781 125.917C122.968 124.742 123.079 123.389 123.744 122.343C124.501 121.154 126.149 120.197 127.5 121.072C128.267 121.568 128.403 122.541 128.556 123.389C127.605 123.8 123.52 126.059 122.865 126.168C122.813 126.067 122.784 126.032 122.781 125.917Z" fill="#0093DD"/>
<path d="M120.657 118.029C121.133 117.255 121.699 116.54 122.343 115.899C127.321 110.914 134.992 112.939 136.264 119.993C136.8 122.972 136.592 126.521 136.592 129.577L136.583 143.972C134.457 144.035 132.085 143.984 129.949 143.973C129.893 139.911 129.989 135.823 129.944 131.732C129.908 128.344 130.155 124.617 129.323 121.297C129.218 120.899 128.937 120.515 128.658 120.228C127.288 118.803 124.778 119.205 123.509 120.542C121.78 122.365 121.552 124.899 121.47 127.286C121.418 128.817 121.404 130.341 121.404 131.88L121.404 143.969C119.224 144.021 116.908 143.985 114.723 143.971C114.672 139.37 114.759 134.735 114.719 130.126C114.649 127.553 114.88 124.859 114.467 122.311C114.161 120.419 113.18 119.338 111.219 119.335C110.058 119.324 108.942 119.788 108.13 120.618C105.713 123.091 106.177 129.243 106.175 132.55L106.18 143.978C103.96 143.988 101.74 143.986 99.5201 143.971L99.527 113.851C101.595 113.838 103.662 113.839 105.73 113.856C105.724 115.244 105.735 116.633 105.763 118.021C105.889 117.772 106.056 117.444 106.215 117.223C107.742 115.061 110.073 113.602 112.686 113.173C114.015 113.024 115.36 113.231 116.582 113.772C118.368 114.549 119.953 116.235 120.657 118.029Z" fill="#FEFEFE"/>
<path d="M68.837 100.993C71.505 100.994 75.3528 101.1 77.9642 100.957L77.984 114.053C79.2503 112.971 80.7847 112.113 82.428 111.859C89.7305 110.728 94.3984 116.807 95.4438 123.362C96.3485 129.034 96.0795 136.433 92.6919 141.209C92.2826 141.757 91.8513 142.409 91.3871 142.902C89.0112 145.429 86.3982 146.291 82.988 146.084C80.537 145.731 79.2812 144.788 77.4185 143.318C77.416 144.044 77.4488 144.763 77.4774 145.487C74.7578 145.577 71.5932 145.496 68.8388 145.494C68.876 143.614 68.87 141.699 68.8577 139.817C68.7738 126.884 68.9795 113.923 68.837 100.993Z" fill="#1D1A18"/>
<path d="M70.069 102.376C72.2689 102.332 74.5479 102.361 76.7536 102.36L76.7604 111.995C76.7626 113.472 76.8355 115.899 76.7257 117.304C76.7428 117.282 76.7603 117.259 76.7781 117.237C80.1572 113.019 85.1562 111.586 89.7164 115.162C93.9151 118.455 94.6793 124.116 94.6109 129.105C94.5477 133.713 93.9596 137.613 90.9303 141.365C90.3562 142.046 89.6989 142.652 88.9741 143.17C87.1713 144.45 84.9325 144.961 82.7523 144.589C79.6326 144.035 77.8763 141.962 76.2034 139.552C76.2281 140.994 76.2049 142.521 76.2043 143.969C74.1997 144.02 72.0688 143.982 70.0614 143.965L70.069 102.376Z" fill="#FEFEFE"/>
<path d="M82.0139 119.327C85.5596 118.946 87.3588 122.919 87.6261 125.834C88.0005 129.917 88.2107 137.728 82.7431 138.346C78.8879 138.363 77.2091 134.878 76.8819 131.481C76.4699 127.204 76.3558 119.978 82.0139 119.327Z" fill="#1D1A18"/>
<path d="M81.3328 120.836C82.1173 120.774 82.9939 120.697 83.7241 121.051C84.7762 121.561 85.8426 123.109 86.0726 124.242C86.7842 127.747 87.4801 135.578 83.0646 136.904C77.9317 137.623 77.6382 129.548 78.0114 126.262C78.2588 124.085 79.0459 121.559 81.3328 120.836Z" fill="#0093DD"/>
<path d="M142.742 112.447C142.774 110.568 142.732 108.852 143.076 107.022C144.187 101.092 149.461 99.4966 154.792 100.47C155.757 100.646 156.735 101.063 157.717 101.277C157.839 101.186 157.842 101.166 157.92 101.028L157.941 100.989C158.258 100.93 159.544 100.997 160.012 100.994C162.317 100.976 164.637 101.023 166.941 100.973L166.949 104.138C166.882 107.277 166.91 110.872 166.973 114.015C171.363 110.347 177.57 111.229 181.227 115.702C187.797 123.737 186.268 147.004 172.189 146.084C169.819 145.929 168.412 144.734 166.56 143.442C166.566 144.107 166.558 144.824 166.592 145.484C163.726 145.53 160.685 145.426 157.855 145.528C157.773 145.173 157.798 143.056 157.798 142.574L157.806 136.132L157.809 109.995C157.515 110.001 157.274 110.097 156.995 109.993C156.622 109.872 156.245 109.731 155.876 109.598C155.579 109.964 152.49 111.369 151.877 111.647C151.875 111.901 151.837 112.132 151.999 112.316C152.523 112.572 156.1 112.439 156.877 112.405C156.876 115.354 156.769 118.724 156.876 121.626C155.34 121.616 153.402 121.663 151.9 121.595L151.903 142.242C151.904 143.231 151.878 144.52 151.97 145.489C148.92 145.58 145.78 145.435 142.719 145.523L142.739 129.767C142.74 127.104 142.789 124.267 142.735 121.617L139.003 121.6C139.011 120.953 139.084 118.728 138.985 118.216C139.081 116.566 139.006 114.119 138.995 112.418C140.131 112.479 141.582 112.443 142.742 112.447Z" fill="#1D1A18"/>
<path d="M151.877 111.647C151.914 110.997 151.916 109.705 152.539 109.368C153.246 108.985 155.124 109.423 155.876 109.598C155.579 109.964 152.49 111.369 151.877 111.647Z" fill="#0093DD"/>
<path d="M156.995 109.993C157.096 109.975 157.352 109.958 157.38 109.875C157.679 108.997 157.442 108.392 157.815 107.469C157.916 110.412 157.887 113.375 157.894 116.322L157.877 132.785V141.515C157.877 142.336 157.94 144.839 157.855 145.528C157.773 145.173 157.798 143.056 157.798 142.574L157.806 136.132L157.809 109.995C157.515 110.001 157.274 110.097 156.995 109.993Z" fill="#2D1E4F"/>
<path d="M159.077 102.375C161.26 102.324 163.583 102.362 165.777 102.36L165.78 112.363C165.78 113.535 165.861 116.302 165.725 117.335C165.744 117.31 165.763 117.285 165.783 117.261C169.321 112.899 174.194 111.589 178.9 115.29C181.903 117.766 183.265 121.787 183.526 125.554C183.902 130.946 183.641 136.952 180.045 141.276C179.238 142.133 178.512 142.908 177.493 143.51C172.783 146.292 167.841 143.961 165.269 139.583C165.401 140.7 165.341 142.775 165.337 143.965C163.34 144.032 161.096 143.982 159.089 143.975C159.007 139.394 159.082 134.58 159.082 129.983L159.077 102.375Z" fill="#FEFEFE"/>
<path d="M171.013 119.328C172.138 119.255 173.25 119.606 174.13 120.311C175.924 121.732 176.544 124.338 176.752 126.505C177.129 130.437 176.974 137.793 171.769 138.353C168.12 138.348 166.333 135.134 165.938 131.85C165.423 127.567 165.335 119.998 171.013 119.328Z" fill="#1D1A18"/>
<path d="M170.919 120.765C174.029 120.567 175.246 123.636 175.49 126.213C175.795 129.434 176.085 136.421 171.663 136.959C168.724 137.044 167.513 133.957 167.174 131.549C166.707 128.246 166.5 121.447 170.919 120.765Z" fill="#291870"/>
<path d="M150.457 101.716C152.578 101.516 155.308 101.916 157.315 102.679C157.26 102.909 157.224 103.14 157.193 103.374C156.984 104.982 156.697 106.574 156.426 108.172C154.749 107.945 153.34 107.607 151.727 108.163C150.338 109.554 150.601 111.949 150.599 113.839L155.708 113.844L155.702 120.205L150.617 120.2C150.529 122.565 150.601 125.337 150.601 127.736L150.604 142.027L150.598 143.974C148.406 143.987 146.212 143.988 144.019 143.975L144.009 120.209L140.306 120.205L140.299 113.852L144.016 113.834C144.027 107.982 143.482 103.026 150.457 101.716Z" fill="#FEFEFE"/>
</svg>
