<svg width="250" height="250" viewBox="0 0 250 250" fill="none" xmlns="http://www.w3.org/2000/svg">
<mask id="path-1-inside-1_453_362" fill="white">
<path d="M0 125C0 55.9644 55.9644 0 125 0C194.036 0 250 55.9644 250 125C250 194.036 194.036 250 125 250C55.9644 250 0 194.036 0 125Z"/>
</mask>
<path d="M0 125C0 55.9644 55.9644 0 125 0C194.036 0 250 55.9644 250 125C250 194.036 194.036 250 125 250C55.9644 250 0 194.036 0 125Z" fill="white"/>
<path d="M0 125M250 125M250 125M0 125M125 0M250 125M125 250M0 125M125 250V248C57.069 248 2 192.931 2 125H0H-2C-2 195.14 54.8598 252 125 252V250ZM250 125H248C248 192.931 192.931 248 125 248V250V252C195.14 252 252 195.14 252 125H250ZM125 0V2C192.931 2 248 57.069 248 125H250H252C252 54.8598 195.14 -2 125 -2V0ZM125 0V-2C54.8598 -2 -2 54.8598 -2 125H0H2C2 57.069 57.069 2 125 2V0Z" fill="#DDDBDB" mask="url(#path-1-inside-1_453_362)"/>
<path fill-rule="evenodd" clip-rule="evenodd" d="M113.281 61.3982C127.398 60.872 143.345 62.4696 152.722 74.4955C155.077 77.5171 154.597 78.5981 154.31 82.305C153.552 92.0824 146.647 97.0325 139.719 102.641C141.096 103.132 142.58 103.433 143.997 103.863C165.244 110.306 187.457 124.435 193.664 147.046C194.478 150.01 194.976 152.81 194.997 155.844C195.11 163.861 192.012 171.59 186.393 177.31C177.407 186.401 163.62 188.601 151.401 188.688C146.628 188.665 141.864 188.249 137.159 187.445C131.632 186.488 125.327 184.827 119.786 183.687L75.6706 174.245L64.776 171.947C61.5404 171.232 58.3113 170.32 55 170.023C55.9551 168.222 56.9251 166.09 57.8579 164.233L92.8199 93.8612L104.067 71.2914C105.016 69.3986 108.437 63.0611 108.891 61.5263C110.355 61.506 111.818 61.4635 113.281 61.3982ZM149.093 78.2885C141.885 66.0491 123.215 65.022 111.39 65.4738C111.254 71.131 111.369 77.2112 111.369 82.9075L111.367 157.213C111.367 164.067 111.269 171.176 111.372 178.009C112.851 178.229 114.276 178.665 115.728 178.922C125.05 180.569 134.915 183.578 144.293 184.581C151.151 185.287 158.077 184.931 164.827 183.526C174.995 181.318 184.546 176.095 188.249 165.769C188.888 163.571 189.707 160.828 189.852 158.576C190.255 152.317 188.052 144.203 184.899 138.796C173.977 120.071 152.255 109.338 131.634 105.498C136.204 96.9253 147.807 94.1433 149.122 83.4173C149.26 82.2966 149.637 79.2125 149.093 78.2885Z" fill="#580F7E"/>
<path fill-rule="evenodd" clip-rule="evenodd" d="M163.942 145.403C167.708 145.38 171.521 145.29 175.279 145.469C176.823 145.583 178.827 146.536 179.409 148.079C180.823 151.839 178.37 153.089 175.618 154.307C180.822 154.765 181.867 159.895 179.963 164.001C177.643 167.561 173.837 167.033 170.144 167.025C168.102 167.021 166.06 167.037 164.018 167.075C163.998 166.735 163.92 165.713 164.01 165.438C164.36 164.371 164.806 164.989 165.354 164.672C165.466 164.144 165.416 162.173 165.38 161.549C165.129 157.183 165.662 152.252 165.318 147.939C164.999 147.699 164.467 147.712 164.043 147.678C163.996 146.921 163.962 146.162 163.942 145.403ZM171.151 155.266C171.12 156.966 171.004 162.875 171.315 164.274C171.874 164.41 172.502 164.578 173.064 164.673C173.536 164.39 174.031 164.127 174.421 163.742C175.319 162.579 175.5 160.549 175.294 159.124C174.932 156.609 173.587 155.443 171.151 155.266ZM171.148 147.697C171.103 149.412 171.099 151.128 171.136 152.843C172.021 152.846 173.051 152.969 173.723 152.392C175.292 149.77 174.114 147.927 171.148 147.697Z" fill="#FB008C"/>
<path d="M137.454 145.369C139.249 145.369 142.3 145.287 143.982 145.5L143.986 147.585C143.296 147.66 142.625 147.702 141.933 147.747C142.787 152.849 142.817 158.372 143.267 163.536C143.299 163.909 143.358 164.489 143.599 164.762C144.945 165.227 144.678 165.785 144.643 167.061C141.851 167.032 139.031 167.059 136.237 167.065L136.223 166.878C136.169 166.1 136.005 165.548 136.49 164.992C136.92 164.792 137.468 164.892 137.952 164.934C137.536 162.352 137.467 157.789 137.377 155.06C137.313 153.983 137.255 152.984 137.126 151.913C135.065 156.624 134.354 162.38 133.012 167.174L130.699 167.133C129.569 161.68 129.326 157.323 127.116 152.142C126.584 155.988 126.428 160.898 126.235 164.809C126.763 164.868 127.311 164.91 127.842 164.958L127.797 167.065C125.942 167.059 124.164 167.136 122.311 167.214C122.188 163.546 122.614 165.46 123.644 164.681C123.918 160.618 124.429 156.538 124.673 152.471C124.747 151.246 125 148.86 124.859 147.755L124.695 147.652C124.337 147.712 124.162 147.78 123.836 147.633C123.675 147.182 123.723 145.922 123.722 145.383L130.143 145.383C130.807 148.23 132.601 153.2 133.561 156.184C134.566 154.241 137.021 147.484 137.454 145.369Z" fill="#FB008C"/>
<path d="M146.996 145.411C151.417 145.325 156.892 145.283 161.281 145.429L161.296 149.87C159.398 149.929 160.035 150.004 159.026 148.735C158.312 147.836 155.326 147.91 154.22 147.888L154.238 152.752C155.66 152.74 157.333 152.894 158.74 152.744C159.855 152.625 159.068 152.119 159.592 151.352C160.078 151.072 160.704 151.166 161.277 151.191C161.315 153.139 161.28 155.088 161.171 157.034L159.513 157.083C159.497 156.637 159.52 156.052 159.325 155.668C158.849 155.383 158.739 155.477 158.105 155.453C156.81 155.448 155.516 155.434 154.222 155.409C154.347 158.338 154.275 161.858 154.314 164.853L156.233 164.844C156.248 165.555 156.206 166.422 156.189 167.144C154.589 166.891 149.013 167.059 147.16 167.083C147.131 166.464 147.062 165.607 147.138 165.011C147.404 164.725 147.876 164.837 148.43 164.78C148.501 164.674 148.544 148.806 148.364 147.818C148.049 147.591 147.515 147.643 147.099 147.639C147.016 146.885 147.012 146.167 146.996 145.411Z" fill="#FB008C"/>
</svg>
