<svg width="250" height="250" viewBox="0 0 250 250" fill="none" xmlns="http://www.w3.org/2000/svg">
<path d="M0 125C0 55.9644 55.9644 0 125 0C194.036 0 250 55.9644 250 125C250 194.036 194.036 250 125 250C55.9644 250 0 194.036 0 125Z" fill="white"/>
<path fill-rule="evenodd" clip-rule="evenodd" d="M113.28 61.3984C127.398 60.8723 143.345 62.4698 152.721 74.4958C155.077 77.5173 154.597 78.5983 154.31 82.3053C153.552 92.0827 146.647 97.0327 139.719 102.641C141.095 103.132 142.58 103.433 143.997 103.863C165.244 110.306 187.457 124.436 193.664 147.046C194.478 150.011 194.976 152.811 194.997 155.844C195.11 163.861 192.012 171.591 186.393 177.31C177.406 186.402 163.62 188.601 151.401 188.688C146.628 188.666 141.864 188.249 137.159 187.445C131.632 186.488 125.326 184.827 119.786 183.687L75.6704 174.245L64.7757 171.948C61.5401 171.233 58.311 170.321 54.9998 170.023C55.9549 168.222 56.9249 166.09 57.8577 164.233L92.8197 93.8614L104.067 71.2916C105.016 69.3988 108.436 63.0613 108.891 61.5265C110.355 61.5062 111.818 61.4637 113.28 61.3984ZM149.093 78.2887C141.884 66.0493 123.215 65.0222 111.389 65.474C111.254 71.1313 111.369 77.2115 111.368 82.9077L111.367 157.214C111.367 164.067 111.269 171.176 111.372 178.01C112.851 178.23 114.276 178.665 115.728 178.922C125.049 180.569 134.915 183.578 144.293 184.581C151.151 185.287 158.077 184.931 164.826 183.526C174.995 181.318 184.546 176.095 188.249 165.769C188.888 163.571 189.707 160.828 189.852 158.576C190.255 152.318 188.052 144.203 184.899 138.797C173.977 120.071 152.255 109.338 131.634 105.498C136.204 96.9255 147.806 94.1435 149.122 83.4175C149.26 82.2969 149.637 79.2127 149.093 78.2887Z" fill="#580F7E"/>
<path fill-rule="evenodd" clip-rule="evenodd" d="M163.941 145.403C167.708 145.38 171.521 145.291 175.279 145.469C176.823 145.583 178.827 146.536 179.409 148.079C180.823 151.839 178.37 153.089 175.617 154.308C180.822 154.765 181.867 159.896 179.963 164.002C177.643 167.562 173.837 167.033 170.143 167.025C168.102 167.021 166.06 167.037 164.018 167.075C163.998 166.735 163.92 165.713 164.01 165.438C164.359 164.371 164.806 164.989 165.354 164.672C165.466 164.144 165.416 162.173 165.38 161.549C165.129 157.184 165.661 152.252 165.318 147.939C164.998 147.699 164.467 147.712 164.043 147.678C163.995 146.921 163.962 146.162 163.941 145.403ZM171.151 155.266C171.12 156.966 171.003 162.876 171.315 164.274C171.874 164.41 172.502 164.578 173.064 164.673C173.535 164.391 174.031 164.127 174.421 163.742C175.319 162.58 175.5 160.55 175.294 159.125C174.932 156.609 173.587 155.444 171.151 155.266ZM171.147 147.698C171.103 149.412 171.099 151.128 171.136 152.844C172.021 152.846 173.051 152.969 173.723 152.392C175.292 149.77 174.114 147.927 171.147 147.698Z" fill="#FB008C"/>
<path d="M137.454 145.369C139.249 145.369 142.3 145.287 143.982 145.5L143.986 147.585C143.296 147.66 142.625 147.702 141.933 147.747C142.787 152.849 142.816 158.372 143.266 163.537C143.299 163.909 143.358 164.489 143.599 164.762C144.945 165.227 144.678 165.785 144.643 167.061C141.851 167.032 139.03 167.059 136.236 167.066L136.223 166.878C136.169 166.101 136.005 165.548 136.489 164.992C136.919 164.792 137.467 164.892 137.952 164.935C137.536 162.352 137.467 157.789 137.377 155.061C137.313 153.984 137.254 152.984 137.126 151.914C135.065 156.624 134.354 162.38 133.012 167.175L130.699 167.133C129.569 161.68 129.326 157.324 127.116 152.142C126.584 155.988 126.427 160.898 126.234 164.81C126.763 164.868 127.311 164.91 127.842 164.959L127.797 167.066C125.942 167.059 124.164 167.136 122.311 167.214C122.188 163.547 122.614 165.46 123.644 164.681C123.918 160.618 124.428 156.538 124.673 152.471C124.747 151.246 125 148.86 124.859 147.755L124.695 147.652C124.337 147.712 124.162 147.781 123.836 147.633C123.675 147.182 123.723 145.922 123.722 145.383L130.142 145.383C130.807 148.23 132.601 153.2 133.561 156.184C134.566 154.242 137.021 147.484 137.454 145.369Z" fill="#FB008C"/>
<path d="M146.996 145.412C151.417 145.325 156.891 145.283 161.281 145.429L161.295 149.871C159.398 149.929 160.035 150.004 159.026 148.735C158.311 147.836 155.326 147.91 154.22 147.888L154.238 152.752C155.659 152.741 157.332 152.894 158.74 152.744C159.855 152.625 159.068 152.119 159.592 151.352C160.078 151.072 160.704 151.167 161.277 151.191C161.315 153.14 161.279 155.089 161.171 157.034L159.513 157.083C159.496 156.637 159.519 156.052 159.325 155.668C158.849 155.383 158.739 155.478 158.105 155.454C156.81 155.449 155.516 155.434 154.222 155.409C154.347 158.338 154.275 161.858 154.314 164.853L156.233 164.845C156.248 165.555 156.206 166.422 156.189 167.144C154.589 166.891 149.013 167.059 147.16 167.083C147.131 166.464 147.061 165.607 147.138 165.012C147.404 164.725 147.875 164.838 148.429 164.78C148.501 164.674 148.544 148.806 148.363 147.818C148.049 147.591 147.514 147.644 147.098 147.639C147.016 146.886 147.012 146.168 146.996 145.412Z" fill="#FB008C"/>
</svg>
