<svg width="250" height="250" viewBox="0 0 250 250" fill="none" xmlns="http://www.w3.org/2000/svg">
<mask id="path-1-inside-1_453_127" fill="white">
<path d="M0 125C0 55.9644 55.9644 0 125 0C194.036 0 250 55.9644 250 125C250 194.036 194.036 250 125 250C55.9644 250 0 194.036 0 125Z"/>
</mask>
<path d="M0 125C0 55.9644 55.9644 0 125 0C194.036 0 250 55.9644 250 125C250 194.036 194.036 250 125 250C55.9644 250 0 194.036 0 125Z" fill="white"/>
<path d="M0 125M250 125M250 125M0 125M125 0M250 125M125 250M0 125M125 250V248C57.069 248 2 192.931 2 125H0H-2C-2 195.14 54.8598 252 125 252V250ZM250 125H248C248 192.931 192.931 248 125 248V250V252C195.14 252 252 195.14 252 125H250ZM125 0V2C192.931 2 248 57.069 248 125H250H252C252 54.8598 195.14 -2 125 -2V0ZM125 0V-2C54.8598 -2 -2 54.8598 -2 125H0H2C2 57.069 57.069 2 125 2V0Z" fill="#DDDBDB" mask="url(#path-1-inside-1_453_127)"/>
<path fill-rule="evenodd" clip-rule="evenodd" d="M84.1023 80.8851C87.8683 80.7854 91.9638 80.8617 95.7517 80.8621L133.634 80.8469C141.557 80.8623 147.55 80.7605 155.107 83.8964C166.815 88.7549 171.607 101.96 167.329 113.52C164.696 120.635 159.276 123.869 152.593 126.518C161.04 127.552 169.752 133.27 172.083 141.744C173.853 148.18 173.724 153.811 171.6 160.131C169.348 166.242 163.831 172.245 157.624 174.41C153.822 175.737 150.041 176.474 146.029 176.758C144.211 176.887 142.334 177.367 140.496 177.428C135.359 177.701 130.159 177.647 125.016 177.649L98.0597 177.649C94.0684 177.651 87.9982 177.465 84.1906 177.718C83.9333 166.491 84.1348 154.557 84.1347 143.269L84.1023 80.8851ZM123.156 137.154C120.289 137.14 116.973 137.18 114.124 137.239C114.068 141.121 114.047 145.004 114.063 148.887C114.059 151.503 113.996 154.398 114.086 156.998L126.188 156.979C131.135 156.965 136.683 157.435 140.646 153.93C144.264 150.205 144.751 144.288 140.889 140.552C136.62 136.421 128.622 137.289 123.156 137.154ZM139.132 106.23C136.737 99.9217 129.806 100.663 124.399 100.667L114.918 100.685L114.123 100.697C113.962 106.401 113.99 113.184 114.098 118.907L124.265 118.899C128.958 118.892 133.162 119.457 137.037 116.366C138.962 114.455 139.648 112.683 139.626 109.976C139.615 108.706 139.591 107.438 139.132 106.23Z" fill="black"/>
<path d="M129.488 51.4834C132.615 51.6733 136.744 51.8072 139.821 52.1853C155.287 54.0861 170.896 58.4078 182.316 69.6477C187.775 75.021 193.007 83.1943 195.085 90.5788C195.523 92.1333 195.335 98.2244 195.335 100.153L195.332 194.445C185.145 194.631 174.491 194.491 164.27 194.493L152.497 194.496C150.248 194.499 147.492 194.575 145.28 194.434C144.43 193.805 143.594 192.987 142.813 192.26C139.255 188.713 136.77 185.174 134.754 180.592C142.757 180.52 152.264 180.115 159.616 176.85C166.647 173.727 172.921 167.79 175.825 160.575C178.712 153.406 178.793 146.824 175.875 139.67C173.864 134.738 169.692 130.106 165.013 127.643C163.82 127.015 161.981 126.315 160.691 125.791C162.628 124.52 164.543 122.998 166.204 121.338C175.592 111.917 174.243 94.6578 164.929 85.678C161.327 82.2047 155.706 79.8042 150.817 79.0018C147.506 78.4583 143.497 78.4353 140.122 78.4052C136.573 78.3634 133.023 78.3729 129.474 78.4337C129.359 69.5662 129.484 60.3785 129.488 51.4834Z" fill="#414295"/>
<path d="M119.66 51.6151L121.414 51.4805C121.486 60.2823 121.167 69.6955 121.419 78.4413C116.789 78.2561 111.466 78.3891 106.762 78.3936L79.2802 78.4348C79.2049 83.9148 79.2875 89.6043 79.2834 95.1056L79.2656 130.86C79.2651 147.273 79.0283 164.181 79.3112 180.549L102.445 180.472C106.824 180.469 111.714 180.583 116.054 180.475C114.017 185.32 111.053 189.162 107.337 192.832C106.135 194.07 105.418 194.501 103.69 194.492C100.539 194.474 97.3749 194.481 94.2286 194.476L55.4641 194.509L55.4056 117.559L55.4402 99.8731C55.4368 98.4229 55.2362 92.0965 55.5561 91.0453C57.5017 84.6519 61.5358 77.7217 65.7658 72.8005C75.052 61.8517 88.2799 56.2545 102.099 53.6413C108.45 52.4402 113.194 52.0305 119.66 51.6151Z" fill="#EB3538"/>
</svg>
