<svg width="250" height="250" viewBox="0 0 250 250" fill="none" xmlns="http://www.w3.org/2000/svg">
<path d="M0 125C0 55.9644 55.9644 0 125 0C194.036 0 250 55.9644 250 125C250 194.036 194.036 250 125 250C55.9644 250 0 194.036 0 125Z" fill="#181A40"/>
<path d="M90.6479 60.4237C91.5059 59.611 93.0726 58.1076 94.1299 57.0828C96.1387 55.1355 97.4546 54.7708 99.1664 55.687C99.6468 55.944 105.304 61.4651 111.738 67.9561C122.497 78.811 123.549 79.7576 124.851 79.7576C126.15 79.7576 127.273 78.7549 138.58 67.4886C150.508 55.6043 150.946 55.2195 152.518 55.2195C154.048 55.2195 154.465 55.5419 159.67 60.7473C164.879 65.9564 165.198 66.3686 165.198 67.902C165.198 69.4924 164.772 69.9565 146.379 88.3984C136.028 98.7767 127.024 107.55 126.37 107.895C125.668 108.265 124.753 108.414 124.132 108.259C122.908 107.951 113.804 99.082 96.9434 81.7706C85.4966 70.0177 84.9293 69.361 84.9293 67.8633C84.9293 66.5104 85.2192 66.0234 87.0088 64.3693C88.1525 63.3125 89.0883 62.3248 89.0883 62.1746C89.0883 62.0245 89.7904 61.2368 90.6479 60.4237Z" fill="#FEE06E"/>
<path d="M56.2422 99.945C54.4987 97.1235 55.0739 96.0039 61.5383 89.6353C66.1585 85.0837 66.6102 84.748 68.1241 84.7434C69.7161 84.7389 70.1378 85.1294 88.9843 104.079C107.557 122.754 108.22 123.475 108.22 124.994C108.22 126.515 107.589 127.197 89.4002 145.355C70.9771 163.747 68.4231 166.001 66.9233 165.188C66.3648 164.885 64.3664 162.995 61.8469 160.386C60.9319 159.439 59.0138 157.503 57.5839 156.084C56.1544 154.665 54.9912 153.241 54.9991 152.918C55.0323 151.601 56.6361 149.818 68.0309 138.432C78.7216 127.75 79.9385 126.397 79.9385 125.19C79.9385 124.079 79.291 123.133 76.2204 119.756C74.1758 117.508 69.0336 112.437 64.7935 108.488C60.5534 104.539 56.7055 100.694 56.2422 99.945Z" fill="#FEE06E"/>
<path d="M142.153 124.024C142.599 122.858 177.319 87.8082 179.827 85.9911C181.799 84.5629 181.829 84.5575 183.615 85.3182C185.081 85.9429 193.752 94.52 194.651 96.2352C195.1 97.0923 195.111 97.5465 194.706 98.5222C194.429 99.1918 189.991 103.806 184.843 108.776C173.429 119.796 170.189 123.401 170.189 125.077C170.189 126.106 171.956 128.035 182.214 138.198C188.827 144.751 194.457 150.64 194.723 151.284C195.113 152.226 195.085 152.687 194.58 153.641C193.71 155.286 184.359 164.471 183.064 164.953C182.331 165.226 181.628 165.182 180.776 164.811C178.971 164.024 143.026 128.109 142.336 126.403C141.956 125.463 141.897 124.693 142.153 124.024Z" fill="#FEE06E"/>
<path d="M84.9293 182.029C84.9293 180.774 86.5892 178.995 104.373 161.191C125.147 140.392 124.745 140.724 126.983 142.525C129.572 144.608 164.62 180.095 164.946 180.962C165.15 181.507 165.197 182.433 165.05 183.02C164.684 184.476 154.875 194.333 153.43 194.695C152.7 194.879 151.819 194.736 150.95 194.292C150.209 193.914 144.361 188.29 137.957 181.794C127.854 171.548 126.148 169.985 125.08 169.995C124.028 170.006 122.082 171.765 111.771 182.023C105.129 188.631 99.2766 194.25 98.7667 194.51C98.2564 194.769 97.3838 194.868 96.8274 194.728C96.2713 194.588 93.3663 191.983 90.3726 188.938C85.6114 184.094 84.9293 183.229 84.9293 182.029Z" fill="#FEE06E"/>
</svg>
