<svg width="250" height="250" viewBox="0 0 250 250" fill="none" xmlns="http://www.w3.org/2000/svg">
<path d="M0 125C0 55.9644 55.9644 0 125 0C194.036 0 250 55.9644 250 125C250 194.036 194.036 250 125 250C55.9644 250 0 194.036 0 125Z" fill="#181A40"/>
<path d="M90.6489 60.4235C91.5069 59.6108 93.0736 58.1073 94.1308 57.0825C96.1396 55.1353 97.4555 54.7705 99.1674 55.6868C99.6477 55.9438 105.305 61.4649 111.739 67.9558C122.498 78.8108 123.55 79.7574 124.852 79.7574C126.151 79.7574 127.274 78.7547 138.581 67.4883C150.509 55.604 150.947 55.2193 152.519 55.2193C154.049 55.2193 154.466 55.5416 159.671 60.747C164.88 65.9562 165.199 66.3683 165.199 67.9017C165.199 69.4921 164.773 69.9563 146.38 88.3981C136.029 98.7765 127.025 107.55 126.371 107.895C125.669 108.265 124.754 108.414 124.133 108.259C122.909 107.951 113.805 99.0818 96.9444 81.7703C85.4976 70.0174 84.9303 69.3607 84.9303 67.8631C84.9303 66.5101 85.2202 66.0231 87.0098 64.3691C88.1535 63.3123 89.0893 62.3245 89.0893 62.1744C89.0893 62.0242 89.7913 61.2365 90.6489 60.4235Z" fill="#FEE06E"/>
<path d="M56.2432 99.9448C54.4997 97.1233 55.0749 96.0037 61.5392 89.635C66.1595 85.0834 66.6112 84.7478 68.125 84.7432C69.7171 84.7386 70.1388 85.1292 88.9853 104.079C107.558 122.754 108.221 123.474 108.221 124.994C108.221 126.515 107.59 127.197 89.4012 145.355C70.9781 163.747 68.4241 166 66.9243 165.187C66.3658 164.885 64.3674 162.994 61.8478 160.386C60.9329 159.438 59.0147 157.502 57.5849 156.084C56.1554 154.665 54.9921 153.24 55 152.918C55.0333 151.6 56.637 149.818 68.0319 138.432C78.7226 127.75 79.9395 126.397 79.9395 125.189C79.9395 124.079 79.2919 123.132 76.2213 119.756C74.1768 117.507 69.0346 112.436 64.7945 108.487C60.5544 104.538 56.7065 100.694 56.2432 99.9448Z" fill="#FEE06E"/>
<path d="M142.154 124.024C142.6 122.858 177.32 87.808 179.828 85.9909C181.8 84.5627 181.83 84.5573 183.616 85.318C185.082 85.9427 193.753 94.5198 194.652 96.2349C195.101 97.0921 195.112 97.5463 194.707 98.522C194.43 99.1916 189.992 103.806 184.844 108.776C173.43 119.796 170.19 123.4 170.19 125.076C170.19 126.106 171.957 128.035 182.215 138.198C188.828 144.751 194.458 150.64 194.724 151.283C195.114 152.225 195.086 152.687 194.581 153.641C193.711 155.286 184.36 164.471 183.065 164.953C182.332 165.226 181.629 165.182 180.777 164.811C178.971 164.023 143.027 128.109 142.337 126.403C141.957 125.462 141.898 124.693 142.154 124.024Z" fill="#FEE06E"/>
<path d="M84.9303 182.028C84.9303 180.774 86.5901 178.995 104.374 161.191C125.148 140.391 124.746 140.723 126.984 142.525C129.573 144.608 164.621 180.095 164.947 180.962C165.151 181.506 165.198 182.433 165.05 183.02C164.685 184.476 154.876 194.333 153.431 194.695C152.701 194.878 151.82 194.735 150.951 194.292C150.21 193.914 144.362 188.29 137.958 181.794C127.855 171.547 126.149 169.985 125.081 169.995C124.029 170.006 122.083 171.765 111.772 182.023C105.13 188.63 99.2776 194.25 98.7677 194.51C98.2574 194.769 97.3848 194.868 96.8283 194.728C96.2723 194.588 93.3672 191.983 90.3736 188.937C85.6124 184.094 84.9303 183.229 84.9303 182.028Z" fill="#FEE06E"/>
</svg>
