<svg width="250" height="250" viewBox="0 0 250 250" fill="none" xmlns="http://www.w3.org/2000/svg">
<mask id="path-1-inside-1_453_356" fill="white">
<path d="M0 125C0 55.9644 55.9644 0 125 0C194.036 0 250 55.9644 250 125C250 194.036 194.036 250 125 250C55.9644 250 0 194.036 0 125Z"/>
</mask>
<path d="M0 125C0 55.9644 55.9644 0 125 0C194.036 0 250 55.9644 250 125C250 194.036 194.036 250 125 250C55.9644 250 0 194.036 0 125Z" fill="white"/>
<path d="M0 125M250 125M250 125M0 125M125 0M250 125M125 250M0 125M125 250V248C57.069 248 2 192.931 2 125H0H-2C-2 195.14 54.8598 252 125 252V250ZM250 125H248C248 192.931 192.931 248 125 248V250V252C195.14 252 252 195.14 252 125H250ZM125 0V2C192.931 2 248 57.069 248 125H250H252C252 54.8598 195.14 -2 125 -2V0ZM125 0V-2C54.8598 -2 -2 54.8598 -2 125H0H2C2 57.069 57.069 2 125 2V0Z" fill="#DDDBDB" mask="url(#path-1-inside-1_453_356)"/>
<path d="M55.5664 59.9688H85.6462V88.4907H55.5664V59.9688Z" fill="#91D7F6"/>
<path d="M55.5664 92.2662H85.6462V120.788H55.5664V92.2662Z" fill="#91D7F6"/>
<path d="M55.5664 123.714H85.6462V152.236H55.5664V123.714Z" fill="#91D7F6"/>
<path d="M89.0789 59.9688H119.159V88.4907H89.0789V59.9688Z" fill="#0096DC"/>
<path d="M89.0789 92.2662H119.159V120.788H89.0789V92.2662Z" fill="#0096DC"/>
<path d="M89.0789 123.714H119.159V152.236H89.0789V123.714Z" fill="#0096DC"/>
<path d="M89.0789 155.162H119.159V190.031H89.0789V155.162Z" fill="#0096DC"/>
<path d="M121.909 155.162H157.233V190.031H121.909V155.162Z" fill="#3E4299"/>
<path d="M159.115 155.162H198.432V190.031H159.115V155.162Z" fill="#3E4299"/>
<path d="M121.909 59.9688H151.989V88.4907H121.909V59.9688Z" fill="#3E4299"/>
<path d="M121.909 92.2662H151.989V120.788H121.909V92.2662Z" fill="#3E4299"/>
<path d="M121.909 123.714H151.989V152.236H121.909V123.714Z" fill="#CD3339"/>
<path d="M154.739 123.714H198.432V152.236H154.739V123.714Z" fill="#3E4299"/>
</svg>
