<svg width="250" height="250" viewBox="0 0 250 250" fill="none" xmlns="http://www.w3.org/2000/svg">
<mask id="path-1-inside-1_453_344" fill="white">
<path d="M0 125C0 55.9644 55.9644 0 125 0C194.036 0 250 55.9644 250 125C250 194.036 194.036 250 125 250C55.9644 250 0 194.036 0 125Z"/>
</mask>
<path d="M0 125C0 55.9644 55.9644 0 125 0C194.036 0 250 55.9644 250 125C250 194.036 194.036 250 125 250C55.9644 250 0 194.036 0 125Z" fill="white"/>
<path d="M0 125M250 125M250 125M0 125M125 0M250 125M125 250M0 125M125 250V248C57.069 248 2 192.931 2 125H0H-2C-2 195.14 54.8598 252 125 252V250ZM250 125H248C248 192.931 192.931 248 125 248V250V252C195.14 252 252 195.14 252 125H250ZM125 0V2C192.931 2 248 57.069 248 125H250H252C252 54.8598 195.14 -2 125 -2V0ZM125 0V-2C54.8598 -2 -2 54.8598 -2 125H0H2C2 57.069 57.069 2 125 2V0Z" fill="#DDDBDB" mask="url(#path-1-inside-1_453_344)"/>
<path d="M166.339 100.584L113.748 86.9571V107.154C113.748 114.889 118.961 121.63 126.453 123.569L141.365 127.425V153.175L124.78 149.368C118.719 147.986 112.827 150.022 108.875 154.047V55L75.584 72.1181V195L107.347 178.658L152.179 189.229C163.43 192.139 174.413 183.653 174.413 172.014V110.986C174.413 106.064 171.091 101.772 166.339 100.559V100.584Z" fill="url(#paint0_linear_453_344)"/>
<defs>
<linearGradient id="paint0_linear_453_344" x1="169.976" y1="83.3686" x2="88.5559" y2="160.4" gradientUnits="userSpaceOnUse">
<stop stop-color="#24B2FF"/>
<stop offset="1" stop-color="#003DCA"/>
</linearGradient>
</defs>
</svg>
