<svg width="250" height="250" viewBox="0 0 250 250" fill="none" xmlns="http://www.w3.org/2000/svg">
<path d="M0 125C0 55.9644 55.9644 0 125 0C194.036 0 250 55.9644 250 125C250 194.036 194.036 250 125 250C55.9644 250 0 194.036 0 125Z" fill="white"/>
<path d="M166.339 100.584L113.748 86.9571V107.154C113.748 114.889 118.961 121.63 126.454 123.569L141.365 127.425V153.175L124.781 149.368C118.719 147.986 112.827 150.022 108.875 154.047V55L75.5842 72.1181V195L107.347 178.658L152.179 189.229C163.43 192.139 174.414 183.653 174.414 172.014V110.986C174.414 106.064 171.091 101.772 166.339 100.559V100.584Z" fill="url(#paint0_linear_1_526)"/>
<defs>
<linearGradient id="paint0_linear_1_526" x1="169.976" y1="83.3686" x2="88.5562" y2="160.4" gradientUnits="userSpaceOnUse">
<stop stop-color="#24B2FF"/>
<stop offset="1" stop-color="#003DCA"/>
</linearGradient>
</defs>
</svg>
