<svg width="250" height="250" viewBox="0 0 250 250" fill="none" xmlns="http://www.w3.org/2000/svg">
<path d="M0 125C0 55.9644 55.9644 0 125 0C194.036 0 250 55.9644 250 125C250 194.036 194.036 250 125 250C55.9644 250 0 194.036 0 125Z" fill="white"/>
<path d="M61.9158 99.135C63.6812 99.7994 67.7803 102.137 69.5995 103.144C74.4772 105.838 79.3229 108.589 84.1354 111.397C84.26 123.049 84.469 134.699 84.7621 146.348C84.8411 148.732 84.9005 151.116 84.9401 153.5C85.059 159.443 84.4326 164.458 92.3065 164.531C99.6074 164.598 99.1996 158.886 99.2182 153.353L99.1979 145.536C99.1595 137.009 99.0771 128.482 98.9508 119.956C102.001 121.37 105.129 123.198 108.063 124.862C111.277 126.666 114.477 128.497 117.662 130.354C117.63 131.374 117.77 133.081 117.813 134.149C117.896 136.321 117.948 138.495 117.969 140.669L118.08 151.46C118.108 154.788 118.151 158.18 118.366 161.5C118.493 163.322 118.888 164.941 120.4 166.089C124.089 168.89 132.416 167.882 132.825 162.25C132.988 160.02 133.045 158.191 133.043 156.015L133.026 147.917C133.021 145.761 133.005 143.605 133.042 141.449C133.054 140.74 133.077 140.032 133.006 139.324C135.412 140.056 142.455 144.294 144.965 145.72C147.447 147.175 150.118 148.491 152.588 150.001C153.588 150.612 154.708 151.079 155.573 151.866C155.983 160.819 156.099 168.524 155.189 177.403C153.762 191.331 144.895 194.686 132.045 194.983C125.932 195.124 118.413 194.448 113.526 190.225C110.612 187.708 108.991 182.537 108.838 178.772C107.421 182.193 107.661 184.012 104.807 186.974C100.75 191.386 94.1646 191.901 88.4906 192.2C83.9014 192.442 76.2784 191.666 72.1251 189.458C63.8494 185.06 63.2931 174.808 63.0177 166.54C62.8837 162.195 62.7846 157.849 62.7204 153.503L62.1881 121.55C62.1654 114.078 62.0746 106.606 61.9158 99.135Z" fill="#E7353A"/>
<path d="M138.558 55.1392C143.004 54.3858 148.321 56.7845 151.248 60.0529C155.696 65.0176 160.775 72.7685 162.272 79.3016C162.558 80.595 162.684 81.9188 162.645 83.2427C162.561 87.6533 160.603 90.3437 157.593 93.2493C162.27 92.2964 166.462 90.7062 171.106 92.7424C178.055 95.7888 183.078 104.98 186.068 111.615C188.009 115.916 188.952 121.392 187.037 125.858C183.755 133.513 173.402 138.6 166.557 142.891C164.955 143.896 159.781 147.1 158.366 147.675C156.339 146.918 153.244 144.912 151.223 143.816C146.031 141.003 141.02 137.856 135.725 135.246C138.181 134.14 140.562 132.422 142.884 131.047C146.812 128.723 150.987 126.573 154.665 123.87C155.554 123.216 156.428 122.448 157.053 121.533C157.895 120.304 158.045 118.686 157.771 117.252C157.319 114.877 155.49 112.202 153.505 110.88C152.613 110.286 151.401 109.724 150.298 109.861C147.709 110.182 128.066 121.952 124.319 124.095C123.724 124.435 120.657 126.286 120.206 126.337C120.178 126.341 120.15 126.337 120.122 126.336C117.358 124.551 113.573 122.561 110.682 120.908C109.286 120.109 102.66 116.146 101.523 115.893C102.731 115.227 104.149 114.332 105.406 113.617C110.558 110.719 115.677 107.759 120.759 104.739C125.663 101.863 130.797 98.9811 135.372 95.59C136.263 94.9296 137.015 94.2242 137.461 93.2024C139.182 89.2598 134.732 81.731 130.064 82.9375C128.685 83.3071 126.434 84.6801 125.064 85.4533L119.974 88.3114L96.2517 102.006C93.5566 103.536 89.5968 106.016 86.9063 107.264C85.4194 106.679 82.8084 105.13 81.3359 104.295L71.6229 98.7777C69.2887 97.4513 66.8745 95.9592 64.3989 94.9628C66.232 94.1874 68.3644 92.8932 70.1216 91.8825C72.8599 90.3127 75.5895 88.7279 78.3104 87.1284L109.013 69.3453C113.549 66.6619 118.123 64.0434 122.734 61.4905C127.552 58.8498 133.028 55.7697 138.558 55.1392Z" fill="#353360"/>
</svg>
