<svg width="250" height="250" viewBox="0 0 250 250" fill="none" xmlns="http://www.w3.org/2000/svg">
<mask id="path-1-inside-1_453_339" fill="white">
<path d="M0 125C0 55.9644 55.9644 0 125 0C194.036 0 250 55.9644 250 125C250 194.036 194.036 250 125 250C55.9644 250 0 194.036 0 125Z"/>
</mask>
<path d="M0 125C0 55.9644 55.9644 0 125 0C194.036 0 250 55.9644 250 125C250 194.036 194.036 250 125 250C55.9644 250 0 194.036 0 125Z" fill="white"/>
<path d="M0 125M250 125M250 125M0 125M125 0M250 125M125 250M0 125M125 250V248C57.069 248 2 192.931 2 125H0H-2C-2 195.14 54.8598 252 125 252V250ZM250 125H248C248 192.931 192.931 248 125 248V250V252C195.14 252 252 195.14 252 125H250ZM125 0V2C192.931 2 248 57.069 248 125H250H252C252 54.8598 195.14 -2 125 -2V0ZM125 0V-2C54.8598 -2 -2 54.8598 -2 125H0H2C2 57.069 57.069 2 125 2V0Z" fill="#DDDBDB" mask="url(#path-1-inside-1_453_339)"/>
<path fill-rule="evenodd" clip-rule="evenodd" d="M125.765 55.0008C128.131 54.9511 131.539 57.1917 133.733 58.326L151.347 67.6375C154.23 69.1689 158.669 70.436 160.913 72.7567C161.426 73.2875 161.805 76.0177 161.84 76.8436C162.342 88.8168 161.78 100.811 161.848 112.79C161.699 116.345 162.157 120.142 161.352 123.618C160.771 125.882 158.477 126.952 156.576 127.926C146.307 133.184 135.444 137.703 125.238 143.029C121.696 143.336 100.176 132.186 95.7958 129.816C94.1314 128.916 90.933 127.086 89.0585 126.277C88.8763 116.032 89.0768 104.873 89.1611 94.5955L89.2558 83.201C89.2804 80.0074 88.569 74.1145 91.8261 72.3787C94.549 70.9281 97.4226 69.5629 100.176 68.116C105.822 65.1131 111.49 62.1518 117.18 59.2332C119.355 58.0986 123.644 55.509 125.765 55.0008ZM128.415 82.9696C112.901 81.3986 107.929 95.3333 107.93 100.669C107.931 115.655 116.186 120.091 125.512 120.546C134.836 121 139.531 112.657 140.003 111.687C140.474 110.719 139.455 110.463 138.935 111.271C135.06 116.933 131.002 118.076 128.721 118.076C118.882 118.416 112.557 112.007 114.429 97.9989C116.3 83.9903 125.564 84.0888 131.002 85.617C135.352 86.8397 137.853 92.4313 138.559 95.0741L139.455 95.2528L138.559 82.8895H137.52C137.472 83.038 137.305 83.5352 137.027 84.3338C136.539 85.4626 135.076 85.3081 134.597 85.0721C133.847 84.7031 131.758 83.3082 128.415 82.9696Z" fill="#FD0000"/>
<path d="M98.7849 164.515L87.9512 169.69L88.5801 195C88.5801 195 94.9902 191.812 98.1247 190.259C106.878 186.017 124.2 177.162 124.2 177.162L150.423 164.445C153.61 162.81 160.021 159.614 160.021 159.614L161.23 133.535C161.23 133.535 157.657 135.211 155.91 136.102C145.61 141.346 124.787 151.563 124.787 151.563L98.7849 164.515Z" fill="#020168"/>
<path d="M124.429 151.62C114.018 146.541 97.854 138.53 87.9805 133.498C88.2928 142.214 88.6836 150.927 89.153 159.634C90.2395 160.076 98.0624 163.955 98.7845 164.515L124.199 177.162C124.758 177.039 134.838 182.196 135.969 182.756L160.581 194.922C160.786 192.501 160.769 188.8 160.821 186.271L161.188 169.768C158.48 168.361 155.739 167.07 153.023 165.688C152.27 165.306 151.029 164.822 150.422 164.445L124.429 151.62Z" fill="#00339B"/>
</svg>
