<svg width="250" height="250" viewBox="0 0 250 250" fill="none" xmlns="http://www.w3.org/2000/svg">
<path d="M0 125C0 55.9644 55.9644 0 125 0C194.036 0 250 55.9644 250 125C250 194.036 194.036 250 125 250C55.9644 250 0 194.036 0 125Z" fill="white"/>
<path d="M89.1275 97.5621C88.2765 96.4743 87.2651 95.5339 86.3233 94.5303C84.6752 92.7744 82.989 91.0526 81.3541 89.2849C80.966 88.864 80.7964 88.8745 80.4465 89.3177C76.1941 94.7158 72.9164 100.64 70.6908 107.148C68.3062 114.124 67.417 121.301 67.8998 128.635C68.585 139.047 71.8575 148.604 77.7593 157.217C84.6002 167.2 93.7311 174.314 105.049 178.576C112.764 181.48 120.765 182.619 128.989 182.035C137.297 181.446 145.126 179.169 152.436 175.161C160.598 170.688 167.292 164.594 172.487 156.875C177.188 149.888 180.213 142.227 181.508 133.9C183.292 122.44 181.752 111.432 176.914 100.892C173.937 94.408 169.865 88.6864 164.72 83.7527C156.143 75.5294 145.95 70.4707 134.255 68.4543C123.762 66.6444 113.574 67.7164 103.738 71.8544C102.064 72.5594 100.417 73.3275 98.8385 74.2311C98.436 74.4613 98.219 74.4311 97.9164 74.0733C95.2135 70.881 92.4961 67.7019 89.7642 64.5334C89.4314 64.148 89.438 63.9862 89.9036 63.7363C94.9596 61.0175 100.276 58.9643 105.824 57.5083C110.795 56.2035 115.845 55.4064 120.976 55.1184C121.083 55.1118 121.199 55.1276 121.254 55H129.54C129.598 55.1697 129.748 55.1263 129.871 55.1368C132.097 55.3104 134.316 55.5445 136.526 55.8957C144.476 57.1597 151.945 59.8114 158.976 63.6981C164.956 67.0048 170.324 71.1244 175.107 76.016C180.139 81.1628 184.28 86.9462 187.515 93.3663C192.012 102.288 194.494 111.748 194.961 121.736C195.326 129.535 194.404 137.177 192.21 144.659C189.382 154.305 184.672 162.94 178.141 170.579C176.631 172.344 175.03 174.024 173.348 175.63C167.833 180.892 161.622 185.138 154.726 188.372C146.997 191.999 138.865 194.14 130.355 194.792C124.275 195.258 118.226 194.944 112.227 193.816C105.802 192.609 99.6592 190.569 93.8035 187.653C86.1326 183.832 79.3837 178.782 73.5714 172.491C67.7288 166.169 63.1923 159.012 59.9947 151.014C57.3589 144.42 55.7437 137.59 55.1873 130.507C55.1452 129.979 55.2202 129.423 54.9611 128.922V120.898C55.211 120.42 55.1465 119.887 55.186 119.383C55.9107 110.257 58.344 101.613 62.457 93.4412C66.8265 84.7602 72.7638 77.3247 80.2176 71.0915C80.5636 70.8021 80.7306 70.7824 81.0423 71.1362C85.3289 76.0042 89.8694 80.6314 94.4164 85.2547C99.3935 90.3147 104.363 95.3813 109.332 100.448C114.285 105.499 119.238 110.551 124.177 115.619C124.517 115.969 124.675 115.974 125.033 115.634C128.942 111.928 132.875 108.245 136.798 104.553C141.806 99.8389 146.812 95.1235 151.811 90.4016C152.105 90.1253 152.406 90.0109 152.807 90.0122C157.191 90.0201 161.575 90.0188 165.959 90.0004C166.394 89.9991 166.509 90.1267 166.507 90.5541C166.468 100.198 166.44 109.842 166.414 119.486C166.395 126.587 166.382 133.688 166.366 140.791C166.366 141.008 166.366 141.225 166.366 141.443C166.063 141.495 165.882 141.312 165.681 141.196C161.829 138.981 157.983 136.756 154.122 134.555C153.628 134.274 153.458 133.953 153.459 133.374C153.482 123.971 153.476 114.568 153.478 105.163C153.478 104.813 153.478 104.464 153.478 103.948C152.641 104.833 151.898 105.613 151.161 106.4C145.379 112.567 139.599 118.736 133.818 124.906C130.914 128.006 127.998 131.095 125.12 134.22C124.679 134.699 124.471 134.612 124.085 134.204C119.444 129.306 114.793 124.418 110.137 119.534C105.877 115.065 101.607 110.605 97.3417 106.141C97.2206 105.83 97.0207 105.578 96.7905 105.341C95.1004 103.603 93.422 101.854 91.7213 100.128C90.8677 99.2628 90.114 98.2947 89.1249 97.566L89.1275 97.5621Z" fill="#EB1C25"/>
<path d="M89.1275 97.5621C90.1167 98.2895 90.8702 99.2585 91.7238 100.124C93.4258 101.85 95.1029 103.599 96.793 105.336C97.0232 105.573 97.2231 105.826 97.3442 106.136C95.65 110.796 93.8099 115.416 93.0234 120.347C92.5051 123.597 92.9694 126.805 93.6034 130C94.9595 136.839 98.1123 142.715 103.137 147.536C108.541 152.722 115.009 155.709 122.461 156.572C126.293 157.016 130.062 156.644 133.82 155.898C137.966 155.075 142.062 154.083 145.979 152.46C148.91 151.246 151.648 149.718 154.008 147.565C154.706 146.928 155.324 146.218 155.915 145.485C156.116 145.236 156.22 145.19 156.444 145.471C158.635 148.205 160.832 150.936 163.048 153.649C163.35 154.019 163.091 154.203 162.922 154.428C160.584 157.524 157.738 160.057 154.426 162.07C150.078 164.711 145.324 166.314 140.402 167.455C136.694 168.314 132.965 169.067 129.154 169.33C123.115 169.746 117.222 169.009 111.494 167.064C101.641 163.717 93.8033 157.696 87.991 149.078C84.4475 143.825 82.1458 138.039 81.0435 131.799C80.2991 127.581 80.3582 123.346 80.9725 119.109C82.0629 111.595 84.704 104.656 88.675 98.2075C88.8117 97.9852 88.9748 97.7787 89.1248 97.5643L89.1275 97.5621Z" fill="#2F3191"/>
<path d="M145.609 81.5507C145.492 81.6888 145.417 81.7927 145.326 81.8821C142.55 84.6167 139.769 87.3472 137 90.0897C136.735 90.3527 136.545 90.2804 136.259 90.1502C134.012 89.1242 131.768 88.0759 129.324 87.5971C124.622 86.6764 120.051 86.9961 115.686 89.1242C114.84 89.5359 113.986 89.9292 113.147 90.3527C112.83 90.5132 112.633 90.4987 112.37 90.212C109.681 87.271 106.978 84.3418 104.264 81.4244C103.956 81.0929 103.926 80.9732 104.381 80.7654C110.014 78.1953 115.904 76.5538 122.048 75.7975C127.583 75.1162 132.843 76.1974 137.971 78.2019C140.416 79.1568 142.802 80.2472 145.196 81.3179C145.329 81.3771 145.45 81.4612 145.608 81.5507H145.609Z" fill="#2F3191"/>
</svg>
