<svg width="250" height="250" viewBox="0 0 250 250" fill="none" xmlns="http://www.w3.org/2000/svg">
<mask id="path-1-inside-1_453_353" fill="white">
<path d="M0 125C0 55.9644 55.9644 0 125 0C194.036 0 250 55.9644 250 125C250 194.036 194.036 250 125 250C55.9644 250 0 194.036 0 125Z"/>
</mask>
<path d="M0 125C0 55.9644 55.9644 0 125 0C194.036 0 250 55.9644 250 125C250 194.036 194.036 250 125 250C55.9644 250 0 194.036 0 125Z" fill="white"/>
<path d="M0 125M250 125M250 125M0 125M125 0M250 125M125 250M0 125M125 250V248C57.069 248 2 192.931 2 125H0H-2C-2 195.14 54.8598 252 125 252V250ZM250 125H248C248 192.931 192.931 248 125 248V250V252C195.14 252 252 195.14 252 125H250ZM125 0V2C192.931 2 248 57.069 248 125H250H252C252 54.8598 195.14 -2 125 -2V0ZM125 0V-2C54.8598 -2 -2 54.8598 -2 125H0H2C2 57.069 57.069 2 125 2V0Z" fill="#DDDBDB" mask="url(#path-1-inside-1_453_353)"/>
<path d="M177.82 64.513C178.057 66.9631 176.811 68.5761 174.945 69.951C157.765 82.6167 142.518 97.4177 128.403 113.371C115.573 127.872 103.874 143.295 93.7965 159.894C92.9248 161.33 92.2214 163.058 90.2487 162.882C88.4748 162.72 88.0083 160.938 87.3966 159.579C85.1869 154.709 82.8089 149.932 79.9569 145.408C75.2316 137.911 69.8563 131.244 60.0692 130.568C60.0692 109.446 60.115 88.3236 60.0004 67.2013C59.9851 64.9124 60.4591 64.4438 62.7453 64.4515C101.099 64.5437 139.46 64.513 177.82 64.513Z" fill="#0EB257"/>
<path d="M60.0696 152.075C61.8741 151.445 62.4475 152.789 63.2657 153.949C68.4651 161.345 71.2865 169.887 74.8114 178.09C75.0637 178.674 75.2702 179.273 75.5302 179.856C77.7628 184.926 77.0212 185.909 71.5465 185.44C69.0309 185.225 66.4847 185.302 63.9538 185.325C62.3634 185.34 60.8954 185.202 60.0696 183.566C60.0696 173.074 60.0696 162.574 60.0696 152.075Z" fill="#0EB257"/>
<path d="M189.848 128.64C189.848 145.907 189.733 163.166 189.94 180.425C189.978 183.827 188.915 185.033 185.757 184.918C184.488 184.872 183.219 185.056 181.949 185.056C156.748 185.049 131.538 185.033 106.336 184.995C101.68 184.987 101.611 184.841 103.431 180.548C111.796 160.816 123.25 143.004 136.332 126.113C148.704 110.137 162.077 95.1673 177.4 81.9946C180.298 79.506 183.158 76.9636 186.185 74.6517C187.08 73.9758 188.074 72.4089 189.412 73.2538C190.421 73.8913 189.825 75.3814 189.825 76.4797C189.856 93.8538 189.848 111.251 189.848 128.64Z" fill="#F15D22"/>
</svg>
