<svg width="250" height="250" viewBox="0 0 250 250" fill="none" xmlns="http://www.w3.org/2000/svg">
<mask id="path-1-inside-1_453_420" fill="white">
<path d="M0 125C0 55.9644 55.9644 0 125 0C194.036 0 250 55.9644 250 125C250 194.036 194.036 250 125 250C55.9644 250 0 194.036 0 125Z"/>
</mask>
<path d="M0 125C0 55.9644 55.9644 0 125 0C194.036 0 250 55.9644 250 125C250 194.036 194.036 250 125 250C55.9644 250 0 194.036 0 125Z" fill="white"/>
<path d="M0 125M250 125M250 125M0 125M125 0M250 125M125 250M0 125M125 250V248C57.069 248 2 192.931 2 125H0H-2C-2 195.14 54.8598 252 125 252V250ZM250 125H248C248 192.931 192.931 248 125 248V250V252C195.14 252 252 195.14 252 125H250ZM125 0V2C192.931 2 248 57.069 248 125H250H252C252 54.8598 195.14 -2 125 -2V0ZM125 0V-2C54.8598 -2 -2 54.8598 -2 125H0H2C2 57.069 57.069 2 125 2V0Z" fill="#DDDBDB" mask="url(#path-1-inside-1_453_420)"/>
<path d="M124.978 55C130.571 58.038 136.503 61.6204 142.061 64.8327L173.503 83.0345L173.497 111.291L149.26 125.046C155.107 128.808 161.953 131.917 167.857 135.695C169.267 136.597 172.525 138.164 173.587 139.237C173.404 142.322 173.507 146.31 173.507 149.464L173.52 167.013C157.899 176.43 141.019 185.861 125.162 195C121.112 192.857 116.605 190.132 112.589 187.821L89.5543 174.589L81.1912 169.775C80.1161 169.155 77.754 167.722 76.6701 167.263C76.2953 166.73 76.4409 158.375 76.4409 157.085L76.4407 138.874L76.4333 83.1835L124.978 55Z" fill="#BC3638"/>
<path d="M100.877 97.0367C104.304 95.1978 108.146 92.8646 111.567 90.8999L135.408 77.1901C139.898 74.605 144.625 71.7823 149.167 69.3318L149.185 97.2461C146.651 98.5041 143.195 100.622 140.674 102.073L125.203 110.93L125.216 139.114C130.383 141.842 135.781 145.303 140.959 148.135C142.108 148.763 148.509 152.409 149.25 153.071C150.252 152.769 154.87 149.99 156.037 149.335C161.802 146.097 167.732 142.261 173.586 139.237C173.404 142.322 173.506 146.31 173.506 149.464L173.519 167.013C157.899 176.43 141.019 185.861 125.162 195C121.112 192.857 116.604 190.132 112.589 187.822L89.5541 174.589L81.191 169.775C80.1159 169.155 77.7538 167.722 76.6699 167.263C76.9038 166.967 100.027 153.452 101.078 153.085C100.723 152.58 100.876 102.318 100.877 97.0367Z" fill="white"/>
<path d="M149.25 153.071C150.252 152.769 154.87 149.99 156.037 149.335C161.802 146.097 167.732 142.261 173.586 139.237C173.404 142.322 173.506 146.31 173.506 149.464L173.519 167.013C157.899 176.43 141.019 185.861 125.162 195C121.112 192.857 116.604 190.132 112.589 187.821L89.5541 174.589L81.191 169.775C80.1159 169.155 77.7538 167.722 76.6699 167.263C76.9038 166.967 100.027 153.452 101.078 153.085C102.226 153.58 105.062 155.305 106.276 156.007L116.303 161.835L149.12 180.869L149.113 160.936C149.111 159.667 149.014 153.934 149.25 153.071Z" fill="#932C2A"/>
</svg>
