<svg width="250" height="250" viewBox="0 0 250 250" fill="none" xmlns="http://www.w3.org/2000/svg">
<path d="M0 125C0 55.9644 55.9644 0 125 0C194.036 0 250 55.9644 250 125C250 194.036 194.036 250 125 250C55.9644 250 0 194.036 0 125Z" fill="white"/>
<path d="M177.82 64.5127C178.057 66.9629 176.811 68.5759 174.945 69.9508C157.764 82.6165 142.518 97.4175 128.403 113.371C115.573 127.872 103.874 143.295 93.7963 159.894C92.9246 161.33 92.2211 163.058 90.2484 162.881C88.4745 162.72 88.0081 160.938 87.3964 159.579C85.1866 154.709 82.8087 149.931 79.9567 145.407C75.2313 137.911 69.856 131.244 60.0689 130.568C60.0689 109.446 60.1148 88.3234 60.0001 67.201C59.9848 64.9121 60.4589 64.4436 62.7451 64.4513C101.098 64.5434 139.459 64.5127 177.82 64.5127Z" fill="#0EB257"/>
<path d="M60.0693 152.074C61.8738 151.445 62.4473 152.789 63.2654 153.949C68.4648 161.345 71.2863 169.886 74.8112 178.09C75.0635 178.673 75.2699 179.272 75.5299 179.856C77.7626 184.925 77.0209 185.909 71.5462 185.44C69.0307 185.225 66.4845 185.302 63.9536 185.325C62.3632 185.34 60.8951 185.202 60.0693 183.566C60.0693 173.074 60.0693 162.574 60.0693 152.074Z" fill="#0EB257"/>
<path d="M189.848 128.64C189.848 145.907 189.733 163.166 189.939 180.424C189.978 183.827 188.915 185.033 185.757 184.918C184.488 184.872 183.218 185.056 181.949 185.056C156.747 185.048 131.538 185.033 106.336 184.995C101.68 184.987 101.611 184.841 103.431 180.547C111.795 160.815 123.249 143.003 136.332 126.113C148.704 110.137 162.077 95.167 177.4 81.9943C180.298 79.5058 183.157 76.9634 186.185 74.6515C187.08 73.9755 188.074 72.4086 189.412 73.2535C190.421 73.891 189.825 75.3811 189.825 76.4795C189.855 93.8536 189.848 111.251 189.848 128.64Z" fill="#F15D22"/>
</svg>
