<svg width="250" height="250" viewBox="0 0 250 250" fill="none" xmlns="http://www.w3.org/2000/svg">
<path d="M0 125C0 55.9644 55.9644 0 125 0C194.036 0 250 55.9644 250 125C250 194.036 194.036 250 125 250C55.9644 250 0 194.036 0 125Z" fill="white"/>
<path d="M54.875 109.511L58.875 111.011L142.875 94.5107L54.875 64.0107V109.511Z" fill="#0373BA"/>
<path d="M54.875 161.511L58.875 163.011L142.875 146.511L54.875 116.011V161.511Z" fill="#971A32"/>
<path d="M194.375 66.0107L58.875 111.011L124.375 134.511L194.375 111.011V66.0107Z" fill="#169CD8"/>
<path d="M194.375 118.011L58.875 163.011L124.375 186.511L194.375 163.011V118.011Z" fill="#E21D38"/>
</svg>
