<svg width="250" height="250" viewBox="0 0 250 250" fill="none" xmlns="http://www.w3.org/2000/svg">
<mask id="path-1-inside-1_453_363" fill="white">
<path d="M0 125C0 55.9644 55.9644 0 125 0C194.036 0 250 55.9644 250 125C250 194.036 194.036 250 125 250C55.9644 250 0 194.036 0 125Z"/>
</mask>
<path d="M0 125C0 55.9644 55.9644 0 125 0C194.036 0 250 55.9644 250 125C250 194.036 194.036 250 125 250C55.9644 250 0 194.036 0 125Z" fill="white"/>
<path d="M0 125M250 125M250 125M0 125M125 0M250 125M125 250M0 125M125 250V248C57.069 248 2 192.931 2 125H0H-2C-2 195.14 54.8598 252 125 252V250ZM250 125H248C248 192.931 192.931 248 125 248V250V252C195.14 252 252 195.14 252 125H250ZM125 0V2C192.931 2 248 57.069 248 125H250H252C252 54.8598 195.14 -2 125 -2V0ZM125 0V-2C54.8598 -2 -2 54.8598 -2 125H0H2C2 57.069 57.069 2 125 2V0Z" fill="#DDDBDB" mask="url(#path-1-inside-1_453_363)"/>
<path d="M54.875 109.511L58.875 111.011L142.875 94.511L54.875 64.011V109.511Z" fill="#0373BA"/>
<path d="M54.875 161.511L58.875 163.011L142.875 146.511L54.875 116.011V161.511Z" fill="#971A32"/>
<path d="M194.375 66.011L58.875 111.011L124.375 134.511L194.375 111.011V66.011Z" fill="#169CD8"/>
<path d="M194.375 118.011L58.875 163.011L124.375 186.511L194.375 163.011V118.011Z" fill="#E21D38"/>
</svg>
