<svg width="250" height="250" viewBox="0 0 250 250" fill="none" xmlns="http://www.w3.org/2000/svg">
<mask id="path-1-inside-1_453_330" fill="white">
<path d="M0 125C0 55.9644 55.9644 0 125 0C194.036 0 250 55.9644 250 125C250 194.036 194.036 250 125 250C55.9644 250 0 194.036 0 125Z"/>
</mask>
<path d="M0 125C0 55.9644 55.9644 0 125 0C194.036 0 250 55.9644 250 125C250 194.036 194.036 250 125 250C55.9644 250 0 194.036 0 125Z" fill="white"/>
<path d="M0 125M250 125M250 125M0 125M125 0M250 125M125 250M0 125M125 250V248C57.069 248 2 192.931 2 125H0H-2C-2 195.14 54.8598 252 125 252V250ZM250 125H248C248 192.931 192.931 248 125 248V250V252C195.14 252 252 195.14 252 125H250ZM125 0V2C192.931 2 248 57.069 248 125H250H252C252 54.8598 195.14 -2 125 -2V0ZM125 0V-2C54.8598 -2 -2 54.8598 -2 125H0H2C2 57.069 57.069 2 125 2V0Z" fill="#DDDBDB" mask="url(#path-1-inside-1_453_330)"/>
<path d="M161.932 65.3335C163.522 65.2276 164.936 65.2898 166.453 65.4316C191.728 67.7949 188.45 92.3566 172.837 105.24C167.415 109.988 160.44 114.289 153.024 114.31C152.406 114.252 151.724 114.153 151.156 113.898C146.921 112.004 149.227 108.464 151.222 106.127C155.364 101.274 160.84 96.8385 161.708 90.1846C161.948 88.3445 161.052 86.2729 159.879 84.8879C158.392 83.1267 156.131 82.4919 153.921 82.3387C143.167 81.3241 127.514 91.666 119.631 98.5175C107.322 109.215 91.7386 128.462 90.2321 145.467C89.9345 148.827 90.7952 152.792 93.1048 155.347C95.6554 158.244 98.8664 159.191 102.608 159.439C118.006 160.462 129.424 147.858 139.853 138.635C140.559 138.075 141.277 137.493 142.004 136.972C152.307 129.595 164.742 131.054 152.23 144.85C137.153 161.475 117.724 176.406 94.6661 178.554C80.9842 179.829 66.5916 173.802 65.1062 158.722C63.7953 142.267 74.855 125.014 85.1734 113.012C88.7269 108.811 92.4651 104.769 96.3766 100.899C113.214 84.4163 137.791 67.1486 161.932 65.3335Z" fill="#F12A00"/>
</svg>
