<svg width="250" height="250" viewBox="0 0 250 250" fill="none" xmlns="http://www.w3.org/2000/svg">
<path d="M0 125C0 55.9644 55.9644 0 125 0C194.036 0 250 55.9644 250 125C250 194.036 194.036 250 125 250C55.9644 250 0 194.036 0 125Z" fill="white"/>
<path fill-rule="evenodd" clip-rule="evenodd" d="M128.51 127.412C128.392 127.5 128.171 127.659 128.02 127.765C127.87 127.87 127.746 128.032 127.746 128.124C127.746 128.216 127.687 128.291 127.616 128.291C127.544 128.291 127.485 128.409 127.485 128.553C127.485 128.697 127.426 128.814 127.354 128.814C127.184 128.814 127.172 170.276 127.343 170.453C127.408 170.522 127.493 170.901 127.531 171.297C127.633 172.363 127.761 172.989 127.891 173.07C127.955 173.11 128.008 173.312 128.008 173.519C128.008 173.726 128.067 173.932 128.138 173.976C128.21 174.021 128.269 174.171 128.269 174.311C128.269 174.45 128.328 174.564 128.4 174.564C128.472 174.564 128.531 174.682 128.531 174.826C128.531 174.97 128.589 175.087 128.661 175.087C128.733 175.087 128.792 175.205 128.792 175.349C128.792 175.493 128.851 175.61 128.923 175.61C128.995 175.61 129.053 175.728 129.053 175.872C129.053 176.015 129.112 176.133 129.184 176.133C129.256 176.133 129.315 176.21 129.315 176.304C129.315 176.399 129.433 176.602 129.576 176.757C129.72 176.911 129.838 177.09 129.838 177.154C129.838 177.218 130.014 177.455 130.23 177.681C130.446 177.907 130.622 178.148 130.622 178.217C130.622 178.376 133.456 181.231 133.614 181.231C133.679 181.231 133.917 181.404 134.144 181.616C134.371 181.828 134.671 182.038 134.812 182.083C134.952 182.127 135.066 182.211 135.066 182.27C135.066 182.328 135.243 182.449 135.458 182.538C135.674 182.627 135.851 182.752 135.851 182.815C135.851 182.879 135.968 182.93 136.112 182.93C136.256 182.93 136.373 182.989 136.373 183.061C136.373 183.133 136.491 183.192 136.635 183.192C136.779 183.192 136.896 183.25 136.896 183.322C136.896 183.394 137.014 183.453 137.158 183.453C137.302 183.453 137.419 183.501 137.419 183.56C137.419 183.619 137.717 183.748 138.081 183.847C138.445 183.947 138.772 184.075 138.808 184.133C138.843 184.19 139.075 184.237 139.322 184.237C139.57 184.237 139.772 184.291 139.772 184.356C139.772 184.601 141.521 184.659 150.485 184.711C159.573 184.763 159.702 184.76 160.268 184.494C160.919 184.188 161.471 183.688 161.471 183.405C161.471 183.299 161.542 183.19 161.628 183.161C161.825 183.096 161.79 173.349 161.593 173.279C161.526 173.255 161.471 173.149 161.471 173.044C161.471 172.792 160.883 172.212 160.627 172.212C160.516 172.212 160.425 172.159 160.425 172.095C160.425 171.833 159.09 171.778 151.606 171.732C146.704 171.702 143.72 171.636 143.639 171.556C143.568 171.485 143.375 171.427 143.21 171.427C143.045 171.427 142.909 171.372 142.909 171.305C142.909 171.238 142.793 171.147 142.65 171.101C142.283 170.985 141.341 170.051 141.341 169.804C141.341 169.69 141.282 169.597 141.21 169.597C141.138 169.597 141.079 169.483 141.079 169.344C141.079 169.204 141.02 169.054 140.949 169.009C140.863 168.956 140.818 164.522 140.818 156.134C140.818 147.745 140.863 143.311 140.949 143.258C141.02 143.214 141.079 143.063 141.079 142.924C141.079 142.784 141.138 142.67 141.21 142.67C141.282 142.67 141.341 142.58 141.341 142.47C141.341 142.359 141.545 142.065 141.794 141.816C142.043 141.567 142.337 141.363 142.447 141.363C142.558 141.363 142.648 141.317 142.648 141.261C142.648 140.927 144.128 140.853 152.713 140.759C166.972 140.602 169.038 140.631 169.26 140.989C169.298 141.051 169.443 141.101 169.583 141.101C169.722 141.101 169.837 141.145 169.837 141.199C169.838 141.253 170.014 141.398 170.229 141.52C170.445 141.643 170.621 141.834 170.621 141.945C170.621 142.056 170.665 142.148 170.719 142.148C170.863 142.15 171.144 142.808 171.144 143.146C171.144 143.307 171.203 143.475 171.274 143.52C171.361 143.573 171.405 150.296 171.405 163.265C171.405 176.288 171.449 182.93 171.536 182.93C171.608 182.93 171.667 183.026 171.667 183.144C171.667 183.456 172.704 184.413 173.244 184.6C173.91 184.828 182.244 184.826 182.899 184.597C183.607 184.349 184.738 183.124 184.738 182.605C184.738 182.496 184.797 182.407 184.869 182.407C184.955 182.407 185 175.504 185 161.958C185 148.466 184.955 141.482 184.869 141.428C184.797 141.384 184.738 141.001 184.738 140.579C184.738 140.156 184.679 139.773 184.607 139.729C184.535 139.684 184.477 139.387 184.477 139.068C184.477 138.748 184.418 138.487 184.346 138.487C184.274 138.487 184.215 138.314 184.215 138.103C184.215 137.891 184.156 137.682 184.084 137.637C184.013 137.593 183.954 137.417 183.954 137.245C183.954 137.074 183.895 136.898 183.823 136.853C183.751 136.809 183.692 136.629 183.692 136.453C183.692 136.278 183.634 136.134 183.562 136.134C183.49 136.134 183.431 136.017 183.431 135.873C183.431 135.729 183.372 135.611 183.3 135.611C183.228 135.611 183.169 135.494 183.169 135.35C183.169 135.206 183.111 135.088 183.039 135.088C182.967 135.088 182.908 134.971 182.908 134.827C182.908 134.683 182.849 134.566 182.777 134.566C182.705 134.566 182.647 134.461 182.647 134.333C182.647 134.205 182.529 134.016 182.385 133.912C182.241 133.808 182.124 133.649 182.124 133.559C182.124 133.218 179.028 130.121 178.688 130.121C178.631 130.121 178.457 130.004 178.303 129.86C178.149 129.716 177.945 129.598 177.851 129.598C177.757 129.598 177.679 129.54 177.679 129.468C177.679 129.396 177.574 129.337 177.444 129.337C177.315 129.337 177.153 129.284 177.085 129.22C176.908 129.052 174.63 128.291 174.306 128.291C174.157 128.291 174.002 128.239 173.963 128.174C173.923 128.11 173.669 128.024 173.399 127.982C173.129 127.941 172.526 127.843 172.059 127.765C169.718 127.376 168.308 127.348 148.791 127.3C133.094 127.262 128.68 127.287 128.51 127.412Z" fill="#38EF92"/>
<path d="M77.3902 127.65C77.515 127.584 77.9112 127.475 78.2707 127.406C78.6636 127.332 87.3724 127.275 100.112 127.264L121.3 127.246L121.909 127.822C122.244 128.138 122.518 128.508 122.518 128.645C122.518 128.782 122.577 128.953 122.65 129.025C122.827 129.203 122.716 165.123 122.53 167.899C122.293 171.419 122.239 171.951 122.115 171.951C122.049 171.951 121.995 172.245 121.995 172.604C121.995 172.964 121.936 173.258 121.864 173.258C121.792 173.258 121.733 173.493 121.733 173.781C121.733 174.068 121.675 174.304 121.603 174.304C121.531 174.304 121.472 174.51 121.472 174.761C121.472 175.013 121.413 175.219 121.341 175.219C121.269 175.219 121.211 175.362 121.211 175.538C121.211 175.713 121.152 175.893 121.08 175.938C121.008 175.982 120.949 176.162 120.949 176.338C120.949 176.513 120.89 176.657 120.818 176.657C120.747 176.657 120.688 176.774 120.688 176.918C120.688 177.062 120.629 177.179 120.557 177.179C120.485 177.179 120.426 177.297 120.426 177.441C120.426 177.585 120.367 177.702 120.296 177.702C120.224 177.702 120.165 177.82 120.165 177.964C120.165 178.108 120.106 178.225 120.034 178.225C119.962 178.225 119.903 178.313 119.903 178.421C119.903 178.529 119.845 178.617 119.773 178.617C119.701 178.617 119.642 178.675 119.642 178.746C119.642 179.091 116.944 181.75 116.294 182.047C116.122 182.125 115.982 182.231 115.982 182.282C115.982 182.334 115.806 182.45 115.59 182.539C115.374 182.628 115.198 182.753 115.198 182.816C115.198 182.879 115.08 182.931 114.936 182.931C114.792 182.931 114.675 182.99 114.675 183.062C114.675 183.134 114.557 183.192 114.413 183.192C114.27 183.192 114.152 183.238 114.152 183.295C114.152 183.351 113.873 183.477 113.531 183.575C113.19 183.673 112.851 183.796 112.779 183.847C112.708 183.899 112.472 183.981 112.257 184.03C112.041 184.079 111.629 184.179 111.342 184.252C108.648 184.937 108.498 184.942 87.6168 184.938C76.8688 184.936 67.8543 184.889 67.5847 184.833C67.3151 184.778 67.0945 184.68 67.0945 184.616C67.0945 184.552 66.9769 184.5 66.8331 184.5C66.6893 184.5 66.5716 184.455 66.5713 184.401C66.5712 184.347 66.3948 184.186 66.1795 184.042C65.9643 183.898 65.7879 183.734 65.7878 183.677C65.7875 183.62 65.6698 183.447 65.526 183.293C65.3822 183.139 65.2645 182.876 65.2645 182.71C65.2645 182.544 65.2057 182.408 65.1338 182.408C64.9547 182.408 64.9547 174.088 65.1338 173.977C65.2057 173.933 65.2645 173.675 65.2645 173.406C65.2645 173.096 65.3609 172.812 65.526 172.635C65.6698 172.48 65.7887 172.307 65.7901 172.25C65.7946 172.087 66.7279 171.477 67.1599 171.355C67.3756 171.295 76.4047 171.212 87.2247 171.171C98.5983 171.128 107.035 171.047 107.224 170.978C107.404 170.912 107.617 170.795 107.698 170.718C107.779 170.641 107.97 170.492 108.123 170.386C108.276 170.28 108.401 170.119 108.401 170.027C108.401 169.935 108.445 169.859 108.499 169.858C108.643 169.857 108.923 169.199 108.923 168.861C108.923 168.7 108.982 168.531 109.054 168.487C109.139 168.434 109.183 165.125 109.18 158.97C109.175 148.99 109.034 143.034 108.799 142.956C108.724 142.931 108.662 142.798 108.662 142.66C108.662 142.522 108.603 142.409 108.531 142.409C108.459 142.409 108.4 142.336 108.4 142.246C108.4 141.993 107.807 141.364 107.568 141.364C107.451 141.364 107.355 141.305 107.355 141.233C107.355 141.161 107.237 141.102 107.093 141.102C106.95 141.102 106.832 141.049 106.832 140.985C106.832 140.726 105.136 140.677 94.1526 140.62C82.6828 140.561 81.5208 140.595 80.5255 141.014C80.3278 141.098 80.1661 141.21 80.1661 141.265C80.1661 141.319 80.0759 141.364 79.9657 141.364C79.7054 141.364 78.8589 142.21 78.8589 142.47C78.8589 142.58 78.8147 142.671 78.7609 142.672C78.604 142.673 78.336 143.344 78.336 143.735C78.336 143.932 78.2772 144.129 78.2053 144.174C78.1206 144.226 78.0746 146.964 78.0746 151.961C78.0746 156.199 78.0227 159.769 77.9592 159.894C77.8957 160.019 77.7633 160.298 77.6651 160.513C77.4178 161.056 77.0458 161.4 76.4968 161.592C75.9067 161.798 67.0246 161.828 66.8985 161.624C66.854 161.552 66.731 161.494 66.625 161.494C66.4067 161.494 65.526 160.659 65.526 160.452C65.526 160.378 65.4738 160.317 65.41 160.317C65.1324 160.317 65.0877 158.99 65.093 150.906C65.0987 142.593 65.1631 140.386 65.4081 140.128C65.4729 140.06 65.526 139.781 65.526 139.507C65.526 139.234 65.5848 139.011 65.6567 139.011C65.7286 139.011 65.7874 138.834 65.7874 138.619C65.7874 138.403 65.8462 138.226 65.9181 138.226C65.99 138.226 66.0488 138.079 66.0488 137.9C66.0488 137.72 66.1076 137.573 66.1795 137.573C66.2514 137.573 66.3103 137.49 66.3103 137.389C66.3103 137.171 66.8553 136.089 66.9965 136.026C67.0505 136.002 67.0945 135.899 67.0945 135.797C67.0945 135.695 67.1534 135.612 67.2253 135.612C67.2972 135.612 67.356 135.494 67.356 135.351C67.356 135.207 67.4049 135.089 67.4646 135.089C67.5243 135.089 67.6564 134.928 67.7578 134.73C67.8594 134.532 68.0458 134.275 68.172 134.159C68.2983 134.043 68.4017 133.911 68.4017 133.866C68.4017 133.652 71.4666 130.514 71.6757 130.514C71.7377 130.514 71.9234 130.382 72.0885 130.22C72.2535 130.058 72.5503 129.842 72.748 129.74C72.9457 129.639 73.1074 129.506 73.1074 129.446C73.1074 129.387 73.2251 129.338 73.3689 129.338C73.5127 129.338 73.6303 129.29 73.6303 129.231C73.6303 129.172 74.1451 128.886 74.7741 128.595C76.3165 127.881 76.6054 127.769 76.9062 127.769C77.0475 127.769 77.2654 127.715 77.3902 127.65Z" fill="#40239A"/>
<path d="M139.306 65.6926C139.39 65.5564 140.051 65.4431 141.602 65.299C142.213 65.2422 146.596 65.2015 151.341 65.2086C158.51 65.2192 160.023 65.2524 160.295 65.4058C160.708 65.6392 161.471 66.3942 161.471 66.5698C161.471 66.6429 161.545 66.7272 161.634 66.7573C161.86 66.8328 161.785 76.6201 161.557 76.8613C161.474 76.9495 161.307 77.1314 161.186 77.2651C160.391 78.1464 160.565 78.1288 151.667 78.2244C142.596 78.3218 143.141 78.2567 142.025 79.3767C141.36 80.044 141.079 80.4592 141.079 80.7745C141.079 80.8834 141.021 80.9724 140.949 80.9724C140.862 80.9724 140.818 85.3296 140.818 93.7825C140.818 102.235 140.862 106.593 140.949 106.593C141.021 106.593 141.079 106.756 141.079 106.956C141.079 107.169 141.187 107.397 141.341 107.508C141.485 107.611 141.602 107.758 141.602 107.834C141.602 107.91 141.727 108.059 141.88 108.165C142.032 108.271 142.234 108.431 142.328 108.521C142.422 108.611 142.591 108.684 142.704 108.684C142.817 108.684 142.909 108.737 142.909 108.801C142.909 108.865 143.159 108.962 143.465 109.015C144.365 109.172 168.556 109.233 168.711 109.078C168.784 109.005 169.008 108.945 169.209 108.945C169.411 108.945 169.575 108.887 169.575 108.815C169.575 108.743 169.665 108.684 169.776 108.684C170.036 108.684 170.882 107.838 170.882 107.577C170.882 107.467 170.941 107.377 171.013 107.377C171.085 107.377 171.144 107.175 171.144 106.927C171.144 106.68 171.203 106.441 171.275 106.397C171.361 106.343 171.405 99.6429 171.405 86.7201C171.405 67.1996 171.406 67.1228 171.674 66.6468C172.008 66.0517 172.16 65.8994 172.794 65.5223C173.298 65.2228 173.326 65.2213 178.072 65.2213H182.843L183.366 65.544C183.992 65.9308 184.215 66.1352 184.215 66.3231C184.215 66.4 184.274 66.4631 184.346 66.4631C184.418 66.4631 184.477 66.5513 184.477 66.6591C184.477 66.767 184.536 66.8552 184.608 66.8552C184.679 66.8552 184.738 66.9905 184.738 67.1558C184.738 67.3212 184.797 67.5157 184.87 67.588C185.019 67.7369 184.957 107.881 184.806 109.37C184.756 109.855 184.662 110.253 184.596 110.253C184.531 110.253 184.477 110.514 184.477 110.833C184.477 111.152 184.418 111.45 184.346 111.494C184.274 111.539 184.215 111.748 184.215 111.96C184.215 112.171 184.157 112.344 184.085 112.344C184.013 112.344 183.954 112.521 183.954 112.736C183.954 112.952 183.895 113.128 183.823 113.128C183.751 113.128 183.693 113.272 183.693 113.447C183.693 113.623 183.634 113.803 183.562 113.847C183.49 113.892 183.431 114.042 183.431 114.182C183.431 114.321 183.372 114.435 183.3 114.435C183.228 114.435 183.17 114.553 183.17 114.697C183.17 114.841 183.111 114.958 183.039 114.958C182.967 114.958 182.908 115.076 182.908 115.22C182.908 115.364 182.859 115.481 182.8 115.481C182.74 115.481 182.608 115.643 182.506 115.841C182.405 116.038 182.218 116.295 182.092 116.412C181.966 116.528 181.863 116.685 181.863 116.76C181.863 116.92 179.445 119.403 179.288 119.403C179.23 119.403 178.977 119.58 178.725 119.795C178.474 120.01 178.194 120.186 178.104 120.187C178.015 120.187 177.941 120.246 177.941 120.318C177.941 120.39 177.823 120.448 177.68 120.448C177.536 120.448 177.418 120.507 177.418 120.579C177.418 120.651 177.329 120.71 177.22 120.71C177.112 120.71 176.92 120.762 176.795 120.825C176.671 120.889 176.422 120.999 176.242 121.07C176.062 121.142 175.75 121.266 175.549 121.347C175.348 121.428 175.039 121.494 174.863 121.494C174.687 121.494 174.542 121.553 174.542 121.625C174.542 121.697 174.34 121.756 174.093 121.756C173.845 121.756 173.607 121.814 173.562 121.886C173.518 121.958 173.232 122.017 172.927 122.017C172.622 122.017 172.317 122.07 172.248 122.134C172.125 122.251 171.645 122.309 168.791 122.558C167.92 122.634 159.318 122.715 148.334 122.752C133.127 122.802 129.277 122.781 128.858 122.647C128.294 122.466 127.485 121.755 127.485 121.441C127.485 121.335 127.426 121.212 127.354 121.167C127.268 121.114 127.224 114.023 127.224 100.318C127.224 86.6137 127.268 79.5225 127.354 79.4692C127.426 79.4248 127.485 79.039 127.485 78.6118C127.485 78.1813 127.543 77.8353 127.616 77.8353C127.688 77.8353 127.746 77.6 127.746 77.3124C127.746 77.0248 127.805 76.7895 127.877 76.7895C127.949 76.7895 128.008 76.6131 128.008 76.3974C128.008 76.1817 128.067 76.0053 128.139 76.0053C128.211 76.0053 128.269 75.8582 128.269 75.6785C128.269 75.4987 128.328 75.3517 128.4 75.3517C128.472 75.3517 128.531 75.265 128.531 75.1591C128.531 75.0533 128.68 74.715 128.863 74.4075C129.046 74.1001 129.23 73.7456 129.271 73.6197C129.312 73.4938 129.398 73.391 129.461 73.391C129.524 73.391 129.577 73.3175 129.577 73.2276C129.577 73.1378 129.753 72.8583 129.969 72.6067C130.184 72.355 130.36 72.106 130.361 72.0533C130.361 71.7574 133.526 68.6277 134.176 68.2799C134.333 68.1958 134.58 68.0173 134.724 67.8833C134.867 67.7492 135.062 67.6395 135.157 67.6395C135.251 67.6395 135.328 67.5879 135.328 67.5246C135.328 67.4615 135.504 67.3366 135.72 67.2473C135.936 67.1581 136.112 67.0332 136.112 66.9701C136.112 66.9068 136.23 66.8552 136.374 66.8552C136.517 66.8552 136.635 66.7964 136.635 66.7245C136.635 66.6526 136.753 66.5938 136.897 66.5938C137.04 66.5938 137.158 66.5349 137.158 66.4631C137.158 66.3912 137.272 66.3323 137.412 66.3323C137.551 66.3323 137.702 66.2735 137.746 66.2016C137.791 66.1297 137.97 66.0709 138.146 66.0709C138.322 66.0709 138.465 66.0121 138.465 65.9402C138.465 65.8683 138.638 65.8095 138.85 65.8095C139.061 65.8095 139.267 65.7569 139.306 65.6926Z" fill="#40239A"/>
<path d="M67.7194 65.284C67.915 65.2828 68.1632 65.2245 68.271 65.1542C68.5487 64.9734 106.506 65.0818 108.074 65.2678C110.314 65.5338 110.558 65.5733 110.682 65.6908C110.75 65.7558 111.029 65.8088 111.302 65.8088C111.576 65.8088 111.799 65.8677 111.799 65.9396C111.799 66.0114 111.972 66.0703 112.184 66.0703C112.395 66.0703 112.604 66.1291 112.649 66.201C112.693 66.2729 112.873 66.3317 113.049 66.3317C113.224 66.3317 113.368 66.3905 113.368 66.4624C113.368 66.5343 113.458 66.5931 113.568 66.5931C113.819 66.5931 115.379 67.3701 115.437 67.5245C115.461 67.5873 115.581 67.6388 115.703 67.6388C115.825 67.6388 116.009 67.7565 116.113 67.9003C116.216 68.0441 116.38 68.1617 116.477 68.1617C116.686 68.1617 119.381 70.8177 119.381 71.0244C119.381 71.1035 119.439 71.1682 119.511 71.1682C119.583 71.1682 119.642 71.2434 119.642 71.3353C119.642 71.4274 119.76 71.5874 119.904 71.691C120.047 71.7947 120.165 71.9841 120.165 72.112C120.165 72.2399 120.224 72.3446 120.296 72.3446C120.368 72.3446 120.426 72.4622 120.426 72.606C120.426 72.7498 120.485 72.8675 120.557 72.8675C120.629 72.8675 120.688 72.9816 120.688 73.1212C120.688 73.2608 120.747 73.4112 120.819 73.4557C120.89 73.5001 120.949 73.68 120.949 73.8555C120.949 74.0311 121.008 74.1746 121.08 74.1746C121.152 74.1746 121.211 74.3511 121.211 74.5667C121.211 74.7824 121.269 74.9589 121.341 74.9589C121.413 74.9589 121.472 75.1354 121.472 75.351C121.472 75.5667 121.531 75.7432 121.603 75.7432C121.675 75.7432 121.734 75.9749 121.734 76.2583C121.734 76.5417 121.792 76.8098 121.864 76.8543C121.936 76.8987 121.995 77.2222 121.995 77.5732C121.995 77.9242 122.054 78.2477 122.126 78.2921C122.198 78.3366 122.256 78.7811 122.256 79.2802C122.256 79.7793 122.312 80.1875 122.381 80.1875C122.6 80.1875 122.657 83.8975 122.722 102.474C122.786 120.684 122.766 121.755 122.359 121.755C122.302 121.755 122.256 121.843 122.256 121.951C122.256 122.059 122.212 122.147 122.157 122.147C122.102 122.147 121.899 122.294 121.704 122.475L121.351 122.802L99.9416 122.759C83.7655 122.726 78.3565 122.676 77.8132 122.556C77.4178 122.469 76.9031 122.364 76.6695 122.323C76.4359 122.283 76.2447 122.207 76.2447 122.156C76.2447 122.105 75.9506 121.984 75.5911 121.886C75.2316 121.788 74.9375 121.659 74.9375 121.601C74.9375 121.542 74.8199 121.493 74.6761 121.493C74.5323 121.493 74.4147 121.441 74.4147 121.378C74.4147 121.315 74.3117 121.23 74.1859 121.19C73.9084 121.102 73.2466 120.705 73.0041 120.48C72.9069 120.391 72.7755 120.317 72.712 120.317C72.6484 120.317 72.4495 120.17 72.2698 119.99C72.09 119.811 71.8832 119.663 71.8102 119.663C71.6177 119.663 68.4018 116.419 68.4018 116.224C68.4018 116.135 68.2841 115.976 68.1403 115.873C67.9965 115.769 67.8789 115.609 67.8789 115.517C67.8789 115.425 67.8201 115.35 67.7482 115.35C67.6763 115.35 67.6175 115.262 67.6175 115.154C67.6175 115.046 67.5587 114.958 67.4868 114.958C67.4149 114.958 67.356 114.881 67.356 114.786C67.356 114.692 67.2384 114.489 67.0946 114.334C66.9508 114.18 66.8332 113.963 66.8332 113.852C66.8332 113.741 66.7744 113.651 66.7025 113.651C66.6306 113.651 66.5718 113.533 66.5718 113.389C66.5718 113.245 66.5129 113.128 66.441 113.128C66.3691 113.128 66.3103 113.014 66.3103 112.874C66.3103 112.734 66.2515 112.584 66.1796 112.539C66.1077 112.495 66.0489 112.315 66.0489 112.14C66.0489 111.964 65.9901 111.821 65.9182 111.821C65.8463 111.821 65.7875 111.644 65.7875 111.428C65.7875 111.213 65.7286 111.036 65.6567 111.036C65.5849 111.036 65.526 110.813 65.526 110.54C65.526 110.266 65.4718 109.987 65.4055 109.919C65.1755 109.682 65.1127 107.789 65.0553 99.3465C65.0166 93.668 65.0417 90.8153 65.1311 90.7259C65.2045 90.6525 65.2646 90.4277 65.2646 90.2264C65.2646 90.0251 65.3234 89.8604 65.3953 89.8604C65.4672 89.8604 65.526 89.7696 65.526 89.6585C65.526 89.3692 66.0535 88.8817 66.7097 88.5648C67.2486 88.3042 67.4792 88.2918 71.7596 88.2918C74.2353 88.2918 76.2447 88.3431 76.2447 88.4062C76.2447 88.4691 76.4073 88.5531 76.606 88.5929C77.053 88.6823 77.5518 89.1003 77.5518 89.3855C77.5518 89.5029 77.6106 89.599 77.6825 89.599C77.7544 89.599 77.8132 89.7343 77.8132 89.8996C77.8132 90.065 77.8712 90.2582 77.9419 90.3289C78.0223 90.4093 78.0879 93.3479 78.1168 98.1653C78.1444 102.771 78.2162 106.083 78.2953 106.396C78.5046 107.223 78.6194 107.507 78.7435 107.507C78.8069 107.507 78.859 107.568 78.859 107.642C78.859 107.864 79.6787 108.615 80.2351 108.902C81.3415 109.474 81.1937 109.468 93.6 109.468C106.165 109.468 106.222 109.465 107.359 108.877C107.925 108.585 108.272 108.214 108.633 107.519C108.897 107.01 108.946 106.651 109.056 104.383C109.226 100.873 109.225 81.6655 109.054 81.56C108.982 81.5156 108.923 81.3063 108.923 81.0948C108.923 80.8833 108.865 80.7104 108.793 80.7104C108.721 80.7104 108.662 80.6156 108.662 80.4999C108.662 80.1905 107.624 79.2328 107.084 79.0437C106.719 78.9159 102.381 78.8803 87.1153 78.8803C67.7776 78.8803 66.5718 78.8564 66.5718 78.4723C66.5718 78.4265 66.3953 78.316 66.1796 78.2268C65.9639 78.1375 65.7875 77.9832 65.7875 77.8842C65.7875 77.785 65.7286 77.7039 65.6567 77.7039C65.5849 77.7039 65.526 77.6157 65.526 77.5078C65.526 77.4 65.4672 77.3118 65.3953 77.3118C65.3234 77.3118 65.2646 77.0506 65.2646 76.7313C65.2646 76.4119 65.2058 76.1144 65.1339 76.07C64.9691 75.9681 64.9545 67.9923 65.1186 67.6697C65.1821 67.5449 65.3145 67.2667 65.4127 67.0515C65.789 66.2275 67.0153 65.2879 67.7194 65.284Z" fill="#38EF92"/>
</svg>
