<svg width="250" height="250" viewBox="0 0 250 250" fill="none" xmlns="http://www.w3.org/2000/svg">
<mask id="path-1-inside-1_453_413" fill="white">
<path d="M0 125C0 55.9644 55.9644 0 125 0C194.036 0 250 55.9644 250 125C250 194.036 194.036 250 125 250C55.9644 250 0 194.036 0 125Z"/>
</mask>
<path d="M0 125C0 55.9644 55.9644 0 125 0C194.036 0 250 55.9644 250 125C250 194.036 194.036 250 125 250C55.9644 250 0 194.036 0 125Z" fill="white"/>
<path d="M0 125M250 125M250 125M0 125M125 0M250 125M125 250M0 125M125 250V248C57.069 248 2 192.931 2 125H0H-2C-2 195.14 54.8598 252 125 252V250ZM250 125H248C248 192.931 192.931 248 125 248V250V252C195.14 252 252 195.14 252 125H250ZM125 0V2C192.931 2 248 57.069 248 125H250H252C252 54.8598 195.14 -2 125 -2V0ZM125 0V-2C54.8598 -2 -2 54.8598 -2 125H0H2C2 57.069 57.069 2 125 2V0Z" fill="#DDDBDB" mask="url(#path-1-inside-1_453_413)"/>
<path d="M137.336 108.494C140.527 108.593 144.023 108.527 147.228 108.527L171.047 108.527C171.744 108.53 173.719 108.498 174.28 108.645L174.34 108.829C173.81 110.471 164.785 118.519 163.249 120.406C162.172 121.731 159.387 124.036 158.159 125.453C157.62 126.076 156.683 126.814 156.125 127.535L156.077 127.599C155.385 128.171 154.678 128.945 154.033 129.596C148.529 135.151 143.069 140.835 137.384 146.205C137.187 138.655 137.331 130.602 137.331 123.014L137.326 113.733C137.321 112.13 137.247 110.038 137.336 108.494Z" fill="#F63900"/>
<path d="M137.484 57.261C138.237 57.3674 140.695 57.3245 141.516 57.3246L149.401 57.3238C157.648 57.3238 166.257 57.4475 174.473 57.3246C172.188 60.6543 168.459 63.5031 165.752 66.5268C165.372 66.9505 164.858 67.3372 164.467 67.7577C162.109 70.2902 159.499 72.5789 157.237 75.2019C156.851 75.6495 156.337 75.9237 155.931 76.4144C155.688 76.9485 154.587 77.7917 154.121 78.2558L147.956 84.4024L141.873 90.4903C140.433 91.9454 139.105 93.5996 137.385 94.7349C137.173 88.0419 137.329 80.5784 137.33 73.7979L137.325 63.3507C137.324 62.4092 137.214 57.7783 137.484 57.261Z" fill="#F63900"/>
<path d="M89.5273 108.53L122.656 108.528C123.809 108.531 125.765 108.489 126.875 108.552C125.484 109.566 125.767 109.821 124.733 110.881L108.157 127.566C107.014 128.715 105.772 129.792 104.661 130.971C100.879 134.988 97.0414 138.908 93.0109 142.68C91.8225 143.793 90.7941 144.991 89.5273 146.105V108.53Z" fill="#F63900"/>
<path d="M89.5273 57.3263C96.6904 57.2281 104.087 57.3262 111.269 57.3273L120.449 57.3177C121.202 57.3162 126.101 57.1951 126.469 57.5079C126.39 57.7986 122.245 62.1147 121.743 62.6247L99.7949 84.7753C98.5085 86.0731 97.3426 87.2594 95.9975 88.498C93.9428 90.3899 91.8624 93.196 89.5273 94.7253V57.3263Z" fill="#F63900"/>
<path d="M89.5273 159.928L114.732 159.93C118.616 159.93 122.672 159.873 126.541 159.947C125.872 160.609 125.357 161.274 124.763 161.993C124.357 162.43 123.903 162.835 123.51 163.281C123.364 163.446 122.682 164.378 122.601 164.418C121.651 164.898 121.331 165.699 120.693 166.323L92.6287 194.256L90.4772 196.441C90.3028 196.615 90.1873 196.788 90.0238 196.964C89.9286 197.066 89.6936 197.168 89.5936 197.261H89.5273V159.928Z" fill="#F63900"/>
</svg>
