<svg width="250" height="250" viewBox="0 0 250 250" fill="none" xmlns="http://www.w3.org/2000/svg">
<path d="M0 125C0 55.9644 55.9644 0 125 0C194.036 0 250 55.9644 250 125C250 194.036 194.036 250 125 250C55.9644 250 0 194.036 0 125Z" fill="#003C85"/>
<path d="M183 64.478C178.761 69.8615 174.594 75.1581 170.383 80.5126C149.244 64.8977 126.389 60.9759 102.351 71.9599C78.3571 82.9149 66.2591 102.683 64.2836 128.949C57.2757 128.949 50.2822 128.949 43.0002 128.949C42.8993 117.603 45.2064 106.808 49.6333 96.4893C57.0882 79.0799 68.9988 65.549 85.3218 55.9977C117.405 37.2135 157.175 42.2351 183 64.478Z" fill="#EC2300"/>
<path d="M155.675 99.239C157.636 96.7499 159.583 94.2608 161.544 91.7716C147.889 80.2088 123.88 77.7197 106.447 86.4027C89.8352 94.666 78.9772 112.003 79.1646 128.949C82.3946 128.949 85.6246 128.949 88.8546 128.949C92.3586 93.0741 131.566 81.0337 155.675 99.239Z" fill="white"/>
<path d="M79.5972 141.265C81.7746 155.186 88.4076 166.445 99.7991 174.738C107.773 180.555 116.915 183.001 126.648 183.464C138.083 184.014 148.869 181.829 158.689 175.649C162.784 173.073 166.374 169.919 169.59 166.084C167.067 164.101 164.687 162.22 162.178 160.237C139.914 185.765 93.988 175.722 89.0421 138.573C85.7832 138.573 82.5244 138.573 79.2079 138.573C79.28 139.166 79.3233 139.586 79.3809 140.02C79.4386 140.425 79.5251 140.845 79.5972 141.265Z" fill="white"/>
</svg>
