<svg width="250" height="250" viewBox="0 0 250 250" fill="none" xmlns="http://www.w3.org/2000/svg">
<path d="M0 125C0 55.9644 55.9644 0 125 0C194.036 0 250 55.9644 250 125C250 194.036 194.036 250 125 250C55.9644 250 0 194.036 0 125Z" fill="#003C85"/>
<path d="M183 64.4778C178.76 69.8613 174.593 75.1579 170.383 80.5124C149.243 64.8975 126.388 60.9757 102.351 71.9596C78.3566 82.9147 66.2586 102.683 64.2831 128.949C57.2752 128.949 50.2817 128.949 42.9998 128.949C42.8988 117.603 45.206 106.807 49.6328 96.4891C57.0877 79.0797 68.9983 65.5487 85.3213 55.9974C117.405 37.2132 157.174 42.2349 183 64.4778Z" fill="#EC2300"/>
<path d="M155.675 99.2388C157.636 96.7496 159.582 94.2605 161.543 91.7714C147.888 80.2085 123.879 77.7194 106.446 86.4024C89.8347 94.6657 78.9767 112.003 79.1642 128.949C82.3942 128.949 85.6241 128.949 88.8541 128.949C92.3581 93.0738 131.565 81.0334 155.675 99.2388Z" fill="white"/>
<path d="M79.5967 141.264C81.7741 155.186 88.4071 166.445 99.7986 174.737C107.773 180.555 116.915 183.001 126.648 183.464C138.083 184.014 148.869 181.828 158.688 175.649C162.783 173.073 166.374 169.918 169.59 166.083C167.066 164.101 164.687 162.219 162.178 160.237C139.914 185.765 93.9875 175.721 89.0416 138.573C85.7828 138.573 82.5239 138.573 79.2074 138.573C79.2795 139.166 79.3228 139.586 79.3804 140.02C79.4381 140.425 79.5246 140.845 79.5967 141.264Z" fill="white"/>
</svg>
