<svg width="250" height="250" viewBox="0 0 250 250" fill="none" xmlns="http://www.w3.org/2000/svg">
<mask id="path-1-inside-1_453_258" fill="white">
<path d="M0 125C0 55.9644 55.9644 0 125 0C194.036 0 250 55.9644 250 125C250 194.036 194.036 250 125 250C55.9644 250 0 194.036 0 125Z"/>
</mask>
<path d="M0 125C0 55.9644 55.9644 0 125 0C194.036 0 250 55.9644 250 125C250 194.036 194.036 250 125 250C55.9644 250 0 194.036 0 125Z" fill="white"/>
<path d="M0 125M250 125M250 125M0 125M125 0M250 125M125 250M0 125M125 250V248C57.069 248 2 192.931 2 125H0H-2C-2 195.14 54.8598 252 125 252V250ZM250 125H248C248 192.931 192.931 248 125 248V250V252C195.14 252 252 195.14 252 125H250ZM125 0V2C192.931 2 248 57.069 248 125H250H252C252 54.8598 195.14 -2 125 -2V0ZM125 0V-2C54.8598 -2 -2 54.8598 -2 125H0H2C2 57.069 57.069 2 125 2V0Z" fill="#DDDBDB" mask="url(#path-1-inside-1_453_258)"/>
<path d="M125.959 125.46C126.863 124.49 127.855 123.684 129.158 123.375C131.29 122.871 133.372 122.906 135.287 124.128C137.113 125.294 137.924 127.076 138.282 129.076C138.668 131.223 138.614 133.371 138.014 135.49C137.053 138.878 134.18 140.748 130.617 140.382C128.864 140.204 127.39 139.591 126.249 138.266C125.981 137.956 125.813 137.888 125.71 138.369C125.624 138.775 125.468 139.169 125.414 139.579C125.353 140.048 125.116 140.166 124.666 140.154C123.172 140.113 123.441 140.304 123.441 138.966C123.431 131.68 123.447 124.39 123.418 117.104C123.415 116.401 123.613 116.232 124.306 116.254C126.017 116.301 126.03 116.267 126.014 117.914C125.988 120.411 126.112 122.909 125.959 125.46ZM135.823 131.442C135.808 131.136 135.801 130.561 135.747 129.992C135.457 126.951 134.129 125.403 131.408 125.225C128.673 125.047 126.83 125.969 126.275 128.848C125.886 130.861 125.889 132.88 126.345 134.887C126.77 136.753 127.92 137.885 129.866 138.235C132.74 138.75 134.757 137.497 135.488 134.721C135.747 133.73 135.814 132.724 135.823 131.442Z" fill="#F99D33"/>
<path d="M192.37 140.104C192.223 140.129 192.197 140.138 192.172 140.138C191.217 140.126 190.135 140.385 189.344 140.022C188.619 139.691 188.204 138.7 187.664 137.991C186.31 136.222 184.948 134.455 183.616 132.671C183.329 132.286 183.179 132.286 182.771 132.558C181.618 133.321 181.063 134.246 181.228 135.671C181.375 136.956 181.245 138.272 181.267 139.572C181.276 140.007 181.149 140.144 180.689 140.157C178.7 140.204 178.704 140.223 178.704 138.303C178.704 131.248 178.71 124.194 178.691 117.139C178.687 116.507 178.764 116.22 179.533 116.248C181.261 116.31 181.267 116.263 181.261 117.973C181.245 122.346 181.219 126.719 181.203 131.092C181.203 131.186 181.158 131.302 181.353 131.383C181.877 130.767 182.388 130.114 182.955 129.514C184.801 127.569 186.672 125.647 188.523 123.706C188.775 123.44 189.033 123.296 189.42 123.309C190.183 123.334 190.946 123.315 191.706 123.315C191.792 123.64 191.549 123.734 191.422 123.868C189.449 125.913 187.482 127.96 185.481 129.973C185.069 130.386 185.091 130.63 185.43 131.061C187.597 133.827 189.733 136.615 191.878 139.4C192.025 139.61 192.169 139.822 192.37 140.104Z" fill="#F99D33"/>
<path d="M113.643 132.195C111.888 132.195 110.135 132.211 108.379 132.186C107.878 132.177 107.763 132.321 107.789 132.805C107.974 136.265 110.132 138.316 113.541 138.219C115.118 138.175 116.663 137.938 118.132 137.359C118.735 137.122 118.876 137.228 118.863 137.866C118.828 139.457 118.86 139.457 117.244 139.926C115.192 140.523 113.107 140.632 111.026 140.188C108.181 139.582 106.282 137.866 105.544 135.121C104.67 131.864 104.801 128.663 106.853 125.785C108.319 123.731 110.448 122.996 112.941 123.059C117.113 123.165 119.457 126.244 119.594 130.261C119.661 132.199 119.658 132.199 117.71 132.199C116.357 132.195 115 132.195 113.643 132.195ZM112.303 130.145C113.602 130.145 114.904 130.151 116.204 130.142C116.44 130.139 116.721 130.251 116.791 129.826C117.101 127.973 115.667 125.725 113.797 125.319C110.55 124.612 108.319 126.407 107.849 129.742C107.782 130.226 108.117 130.145 108.398 130.145C109.701 130.145 111.003 130.145 112.303 130.145Z" fill="#596B6D"/>
<path d="M55.0097 129.001C54.9363 126.991 55.3258 125.116 56.1175 123.328C57.6817 119.799 60.5261 117.958 64.3441 117.517C66.8246 117.233 69.2699 117.486 71.6291 118.373C72.1526 118.57 72.376 118.758 72.0217 119.302C71.7089 119.78 71.6003 120.505 71.1758 120.755C70.7703 120.996 70.1701 120.477 69.6466 120.315C67.8142 119.743 65.9403 119.524 64.0664 119.924C60.5484 120.674 58.7416 123.043 58.0839 126.357C57.6849 128.37 57.7519 130.398 58.2531 132.396C59.2077 136.184 62.0744 138.235 66.2531 138.119C67.827 138.075 69.3721 137.838 70.8884 137.431C71.3162 137.316 71.463 137.375 71.4439 137.828C71.3577 139.919 71.91 139.529 69.637 140.051C67.5173 140.538 65.3465 140.635 63.2204 140.257C58.8086 139.466 56.1494 136.731 55.329 132.358C55.1151 131.23 54.9587 130.098 55.0097 129.001Z" fill="#596B6D"/>
<path d="M152.462 137.691C152.207 137.963 152.054 138.103 151.925 138.263C149.998 140.651 146.454 140.813 144.19 140.041C142.301 139.397 141.26 137.91 141.183 135.953C141.094 133.649 141.995 132.114 143.967 131.223C145.742 130.42 147.641 130.245 149.557 130.161C150.301 130.129 151.045 130.083 151.788 130.095C152.299 130.104 152.446 129.886 152.385 129.436C152.373 129.332 152.383 129.226 152.383 129.123C152.376 126.013 150.888 124.769 147.731 125.225C146.594 125.391 145.506 125.716 144.466 126.185C144.047 126.375 143.859 126.388 143.658 125.9C143.042 124.397 143.019 124.419 144.589 123.844C146.598 123.109 148.666 122.865 150.77 123.237C153.439 123.709 154.84 125.253 154.889 127.894C154.959 131.796 154.907 135.7 154.924 139.604C154.924 139.991 154.83 140.141 154.396 140.154C153.034 140.194 153.034 140.213 152.73 138.882C152.653 138.538 152.574 138.188 152.462 137.691ZM152.347 133.18C152.347 133.024 152.324 132.864 152.35 132.714C152.475 132.024 152.203 131.805 151.491 131.88C150.227 132.017 148.954 132.071 147.683 132.174C146.936 132.233 146.224 132.443 145.554 132.768C144.286 133.383 143.689 134.621 143.916 136.1C144.095 137.266 144.931 138.106 146.202 138.263C149.787 138.7 152.43 136.981 152.347 133.18Z" fill="#F99D33"/>
<path d="M74.4764 131.683C74.5083 129.429 74.901 127.288 76.4333 125.481C77.6177 124.084 79.1724 123.375 80.9632 123.134C82.0423 122.99 83.1436 122.971 84.2131 123.206C87.4948 123.928 89.6464 126.378 90.1157 129.854C90.3679 131.711 90.2689 133.54 89.7167 135.337C88.826 138.235 86.4573 140.063 83.3895 140.357C81.5027 140.538 79.7214 140.319 78.1093 139.316C75.5874 137.744 74.735 135.287 74.4796 132.539C74.4541 132.258 74.4764 131.97 74.4764 131.683ZM87.5587 131.742C87.5746 130.617 87.4341 129.507 87.0766 128.435C86.3615 126.294 84.561 125.103 82.2019 125.181C79.7726 125.263 78.1412 126.432 77.5538 128.613C77.0016 130.664 76.9984 132.736 77.5507 134.787C78.1508 137.009 79.8045 138.244 82.1348 138.294C84.7015 138.347 86.3551 137.25 87.0957 134.974C87.4341 133.927 87.565 132.843 87.5587 131.742Z" fill="#596B6D"/>
<path d="M162.32 125.628C163.242 124.334 164.488 123.54 166.03 123.234C167.587 122.924 169.145 122.959 170.662 123.471C172.823 124.206 173.7 125.86 173.905 127.954C174.074 129.692 173.962 131.439 173.978 133.183C173.994 135.29 173.969 137.4 173.994 139.507C174.001 140.019 173.838 140.157 173.317 140.16C171.374 140.16 171.374 140.182 171.374 138.26C171.374 135.343 171.374 132.43 171.374 129.514C171.374 129.148 171.376 128.782 171.341 128.423C171.157 126.519 170.16 125.416 168.248 125.256C163.968 124.906 162.416 126.797 162.288 130.786C162.195 133.646 162.253 136.512 162.282 139.375C162.288 139.972 162.151 140.176 161.503 140.16C159.699 140.122 159.696 140.154 159.696 138.363C159.696 133.599 159.702 128.835 159.686 124.072C159.683 123.54 159.747 123.278 160.401 123.3C161.774 123.34 161.767 123.3 162.039 124.603C162.103 124.931 162.055 125.284 162.32 125.628Z" fill="#F99D33"/>
<path d="M195 104.242C195.004 106.73 193.011 108.705 190.477 108.737C187.955 108.768 185.857 106.711 185.87 104.226C185.883 101.763 187.916 99.8 190.454 99.8C193.014 99.8032 195 101.741 195 104.242Z" fill="#F99D33"/>
<path d="M96.7304 126.46C97.2795 125.469 98.0042 124.756 98.8023 124.112C100.268 122.931 101.985 122.965 103.731 123.137C104.028 123.165 104.035 123.387 104.003 123.603C103.936 124.094 103.849 124.578 103.792 125.069C103.75 125.435 103.575 125.513 103.208 125.478C102.63 125.425 102.058 125.281 101.465 125.356C98.8821 125.678 96.9028 127.795 96.8326 130.505C96.756 133.446 96.7847 136.387 96.8134 139.329C96.8198 139.96 96.6794 140.179 95.993 140.16C94.1894 140.116 94.1894 140.151 94.1894 138.357C94.1894 133.643 94.2021 128.932 94.1734 124.219C94.1702 123.531 94.3139 123.259 95.08 123.3C96.3027 123.365 96.2995 123.315 96.4559 124.525C96.5358 125.135 96.4559 125.76 96.7304 126.46Z" fill="#596B6D"/>
<path d="M183.323 144.93C182.936 145.912 182.57 146.902 182.155 147.871C182.036 148.143 182.09 148.615 181.583 148.593C181.136 148.575 181.187 148.159 181.075 147.9C180.68 146.956 180.312 145.999 179.782 145.083C179.782 146.062 179.789 147.037 179.776 148.015C179.773 148.243 179.904 148.587 179.463 148.593C178.994 148.6 179.173 148.234 179.173 148.025C179.157 146.802 179.157 145.577 179.173 144.355C179.176 144.114 179.003 143.752 179.514 143.733C179.894 143.72 180.146 143.773 180.296 144.189C180.692 145.286 181.142 146.368 181.627 147.603C182.09 146.437 182.519 145.418 182.898 144.383C183.058 143.949 183.233 143.642 183.786 143.736C184.376 143.836 184.086 144.271 184.092 144.539C184.127 145.708 184.111 146.884 184.102 148.053C184.098 148.281 184.229 148.615 183.769 148.603C183.31 148.59 183.473 148.246 183.466 148.031C183.45 147.015 183.46 145.999 183.46 144.986C183.419 144.964 183.37 144.949 183.323 144.93Z" fill="#596B6D"/>
<path d="M120.848 147.393C121.068 146.73 121.301 146.071 121.509 145.402C121.592 145.136 121.662 144.921 122.017 144.914C122.393 144.911 122.428 145.183 122.508 145.421C122.735 146.108 122.952 146.796 123.236 147.69C123.475 146.79 123.661 146.096 123.846 145.402C123.922 145.114 124.015 144.805 124.414 144.943C124.781 145.071 124.523 145.333 124.471 145.53C124.248 146.384 124.012 147.234 123.769 148.084C123.696 148.347 123.664 148.618 123.236 148.618C122.799 148.618 122.795 148.315 122.709 148.068C122.476 147.384 122.269 146.693 121.997 145.837C121.707 146.724 121.467 147.44 121.238 148.159C121.155 148.425 121.062 148.625 120.708 148.609C120.395 148.597 120.321 148.443 120.254 148.187C120.012 147.259 119.737 146.337 119.485 145.411C119.437 145.233 119.29 144.983 119.648 144.93C119.887 144.896 120.05 144.986 120.114 145.239C120.296 145.958 120.491 146.674 120.679 147.39C120.736 147.39 120.791 147.39 120.848 147.393Z" fill="#596B6D"/>
<path d="M191.166 146.024C191.83 146.327 192.156 146.759 192.015 147.465C191.868 148.206 191.342 148.475 190.665 148.571C188.631 148.862 188.58 148.818 188.58 146.808C188.58 146.005 188.619 145.199 188.568 144.395C188.529 143.823 188.75 143.67 189.286 143.73C189.653 143.77 190.026 143.739 190.397 143.752C191.003 143.77 191.571 143.867 191.801 144.533C192.028 145.189 191.798 145.68 191.166 146.024ZM189.225 147.159C189.235 147.627 189.055 148.137 189.879 148.078C190.917 148.003 191.383 147.774 191.322 147.14C191.239 146.227 190.464 146.402 189.87 146.305C189.046 146.171 189.244 146.755 189.225 147.159ZM189.235 145.008C189.167 145.486 189.184 145.883 189.886 145.79C190.448 145.711 191.182 145.852 191.166 145.011C191.15 144.173 190.384 144.352 189.844 144.258C189.184 144.145 189.174 144.552 189.235 145.008Z" fill="#596B6D"/>
<path d="M173.333 147.584C173.333 146.881 173.321 146.177 173.337 145.474C173.349 144.883 173.423 144.827 173.898 145.152C174.135 145.311 174.16 145.118 174.259 145.068C174.955 144.718 175.61 144.783 176.171 145.302C176.727 145.818 176.794 147.209 176.357 147.953C175.935 148.669 175.246 148.778 174.559 148.559C173.988 148.378 173.924 148.534 173.959 149.006C173.982 149.291 173.956 149.578 173.962 149.866C173.969 150.088 173.886 150.206 173.643 150.203C173.397 150.197 173.33 150.066 173.333 149.85C173.337 149.094 173.333 148.337 173.333 147.584ZM175.964 146.712C175.964 146.655 175.977 146.552 175.96 146.449C175.874 145.896 175.664 145.449 174.987 145.436C174.311 145.424 174.074 145.821 174.004 146.409C173.959 146.777 173.994 147.137 174.09 147.484C174.189 147.834 174.457 148.043 174.831 148.103C175.211 148.165 175.508 148.012 175.721 147.715C175.923 147.434 176.005 147.109 175.964 146.712Z" fill="#596B6D"/>
<path d="M141.407 145.108C141.844 145.08 142.151 144.821 142.531 144.858C143.188 144.924 143.728 145.164 143.922 145.824C144.172 146.671 144.242 147.537 143.568 148.24C143.08 148.75 142.438 148.731 141.8 148.496C141.659 148.443 141.509 148.318 141.385 148.34C140.775 148.45 140.775 148.465 140.775 147.887C140.772 146.59 140.769 145.292 140.778 143.995C140.781 143.764 140.66 143.423 141.101 143.433C141.544 143.442 141.385 143.792 141.397 144.014C141.426 144.37 141.407 144.727 141.407 145.108ZM143.421 146.612C143.427 146.283 143.386 145.818 142.949 145.571C142.534 145.333 142.071 145.343 141.71 145.715C141.34 146.096 141.337 147.377 141.698 147.787C142.013 148.143 142.422 148.234 142.846 148.018C143.37 147.752 143.418 147.246 143.421 146.612Z" fill="#596B6D"/>
<path d="M137.513 145.158C137.513 144.655 137.516 144.211 137.513 143.77C137.509 143.564 137.558 143.423 137.819 143.427C138.059 143.43 138.151 143.533 138.151 143.755C138.148 145.264 138.148 146.774 138.154 148.284C138.154 148.518 137.979 148.706 137.842 148.575C137.449 148.203 137.149 148.534 136.807 148.606C135.833 148.806 135.138 148.362 134.921 147.406C134.841 147.046 134.812 146.693 134.879 146.324C135.128 144.983 135.98 144.567 137.513 145.158ZM137.509 146.799C137.509 145.865 137.174 145.424 136.475 145.436C135.856 145.449 135.476 145.955 135.476 146.781C135.476 147.59 135.878 148.118 136.501 148.118C137.155 148.118 137.513 147.653 137.509 146.799Z" fill="#596B6D"/>
<path d="M151.964 148.647C150.837 148.672 150.16 148.29 149.787 147.428C149.343 146.405 149.554 144.952 150.24 144.28C150.844 143.692 152.175 143.461 152.999 143.814C153.123 143.867 153.356 143.877 153.27 144.102C153.212 144.258 153.158 144.471 152.897 144.421C152.82 144.405 152.74 144.389 152.666 144.364C151.862 144.099 151.141 144.174 150.62 144.905C150.129 145.596 150.139 146.812 150.64 147.478C151.09 148.078 151.728 148.134 152.421 148.046C152.66 148.015 153.056 147.74 153.123 148.184C153.19 148.643 152.727 148.556 152.437 148.606C152.283 148.637 152.121 148.634 151.964 148.647Z" fill="#596B6D"/>
<path d="M145.982 147.774C146.333 146.834 146.62 146.112 146.869 145.377C146.974 145.064 147.138 144.814 147.479 144.942C147.887 145.096 147.549 145.38 147.479 145.565C147.016 146.805 146.531 148.04 146.042 149.272C145.784 149.928 145.308 150.272 144.561 150.175C144.408 150.156 144.233 150.163 144.226 149.937C144.219 149.734 144.344 149.712 144.52 149.669C145.525 149.425 145.787 148.915 145.407 147.984C145.072 147.165 144.718 146.355 144.411 145.527C144.35 145.361 144.016 145.102 144.392 144.946C144.724 144.808 144.912 145.021 145.027 145.339C145.305 146.093 145.608 146.827 145.982 147.774Z" fill="#596B6D"/>
<path d="M111.98 146.127C111.98 145.502 112.003 144.877 111.971 144.255C111.948 143.836 112.105 143.701 112.517 143.733C112.941 143.764 113.369 143.727 113.79 143.767C114.627 143.842 115.093 144.286 115.16 145.024C115.23 145.799 114.831 146.518 114.027 146.555C112.791 146.615 112.386 147.112 112.619 148.243C112.657 148.431 112.609 148.597 112.341 148.606C112.054 148.615 111.977 148.493 111.98 148.237C111.987 147.531 111.98 146.83 111.98 146.127ZM113.136 146.13C114.049 146.105 114.486 145.799 114.493 145.208C114.499 144.624 113.963 144.199 113.117 144.274C112.127 144.361 112.794 145.146 112.641 145.589C112.51 145.977 112.695 146.246 113.136 146.13Z" fill="#596B6D"/>
<path d="M119.137 146.781C119.124 147.95 118.457 148.647 117.362 148.643C116.347 148.64 115.657 147.878 115.673 146.774C115.689 145.574 116.388 144.836 117.493 144.855C118.473 144.871 119.15 145.661 119.137 146.781ZM117.404 145.433C116.727 145.433 116.325 145.946 116.337 146.787C116.35 147.574 116.756 148.093 117.375 148.115C118.026 148.137 118.473 147.599 118.489 146.781C118.499 145.965 118.071 145.43 117.404 145.433Z" fill="#596B6D"/>
<path d="M157.116 146.74C157.129 147.906 156.472 148.628 155.386 148.643C154.358 148.659 153.665 147.925 153.656 146.818C153.647 145.618 154.329 144.864 155.434 144.858C156.423 144.846 157.104 145.608 157.116 146.74ZM154.32 146.668C154.278 147.474 154.684 148.065 155.313 148.112C155.964 148.159 156.43 147.637 156.465 146.818C156.5 146.008 156.082 145.452 155.425 145.43C154.757 145.411 154.365 145.852 154.32 146.668Z" fill="#596B6D"/>
<path d="M126.633 148.64C125.87 148.665 125.25 148.393 124.966 147.681C124.641 146.859 124.695 146.027 125.292 145.327C125.704 144.842 126.278 144.752 126.891 144.939C127.581 145.149 128.034 145.877 127.961 146.577C127.929 146.887 127.76 146.89 127.536 146.887C127.003 146.887 126.473 146.909 125.943 146.88C125.404 146.852 125.439 147.156 125.586 147.465C125.866 148.056 126.39 148.134 126.997 148.084C127.252 148.062 127.677 147.628 127.76 148.143C127.843 148.656 127.287 148.556 126.949 148.615C126.844 148.637 126.738 148.634 126.633 148.64ZM126.457 146.462C126.646 146.165 127.198 146.702 127.233 146.133C127.259 145.715 126.923 145.43 126.441 145.43C125.953 145.433 125.537 145.665 125.57 146.14C125.605 146.674 126.138 146.246 126.457 146.462Z" fill="#596B6D"/>
<path d="M133.008 148.64C132.241 148.665 131.625 148.39 131.345 147.678C131.022 146.855 131.076 146.024 131.674 145.327C132.089 144.846 132.663 144.755 133.276 144.943C133.965 145.152 134.419 145.89 134.342 146.584C134.307 146.896 134.131 146.89 133.911 146.89C133.407 146.89 132.899 146.915 132.398 146.884C131.779 146.846 131.795 147.149 132.009 147.543C132.283 148.056 132.765 148.118 133.305 148.1C133.589 148.09 134.058 147.64 134.135 148.153C134.215 148.684 133.608 148.562 133.247 148.625C133.171 148.637 133.088 148.634 133.008 148.64ZM132.791 146.474C132.979 146.127 133.589 146.771 133.611 146.105C133.624 145.686 133.272 145.418 132.794 145.43C132.337 145.44 131.958 145.661 131.951 146.093C131.938 146.693 132.488 146.237 132.791 146.474Z" fill="#596B6D"/>
<path d="M162.1 148.637C161.19 148.64 160.58 148.275 160.341 147.578C160.053 146.749 160.283 145.64 160.852 145.19C161.384 144.768 161.988 144.749 162.575 145.033C163.191 145.33 163.364 145.899 163.383 146.537C163.393 146.893 163.182 146.893 162.923 146.89C162.419 146.884 161.912 146.912 161.41 146.884C160.842 146.849 160.845 147.14 161.027 147.503C161.305 148.053 161.806 148.131 162.377 148.093C162.652 148.075 163.111 147.649 163.179 148.184C163.242 148.675 162.671 148.559 162.336 148.625C162.262 148.637 162.18 148.634 162.1 148.637ZM161.851 146.434C162.103 146.237 162.636 146.693 162.658 146.121C162.675 145.702 162.336 145.421 161.857 145.43C161.368 145.44 160.953 145.677 160.998 146.152C161.046 146.668 161.57 146.252 161.851 146.434Z" fill="#596B6D"/>
<path d="M171.156 148.646C170.4 148.74 169.959 148.346 169.665 147.728C169.295 146.946 169.471 145.802 170.068 145.18C170.467 144.767 170.955 144.811 171.46 144.952C171.84 145.058 172.101 145.299 172.28 145.636C172.746 146.512 172.523 146.89 171.539 146.89C171.274 146.89 171.006 146.862 170.744 146.899C170.518 146.93 170.17 146.708 170.083 147.096C170.001 147.465 170.192 147.756 170.518 147.937C170.911 148.156 171.322 148.128 171.75 148.024C171.926 147.984 172.223 147.718 172.306 148.143C172.369 148.478 172.079 148.521 171.862 148.575C171.638 148.628 171.396 148.625 171.156 148.646ZM170.955 146.443C171.207 146.233 171.746 146.699 171.756 146.115C171.763 145.696 171.424 145.424 170.949 145.43C170.498 145.436 170.099 145.643 170.103 146.077C170.106 146.702 170.69 146.218 170.955 146.443Z" fill="#596B6D"/>
<path d="M186.7 143.736C187.019 143.736 187.338 143.733 187.654 143.736C187.842 143.739 188.047 143.73 188.034 144.005C188.024 144.258 187.84 144.28 187.642 144.28C187.348 144.283 187.051 144.317 186.767 144.277C186.042 144.173 185.857 144.449 185.838 145.158C185.816 145.918 186.125 145.986 186.754 145.98C187.134 145.977 187.849 145.674 187.859 146.274C187.868 146.849 187.159 146.565 186.821 146.527C185.966 146.433 185.803 146.777 185.841 147.524C185.86 147.865 186.211 148.562 185.518 148.556C184.893 148.55 185.264 147.89 185.244 147.546C185.187 146.562 185.266 145.568 185.209 144.583C185.171 143.923 185.321 143.595 186.062 143.73C186.269 143.767 186.489 143.736 186.7 143.736Z" fill="#596B6D"/>
<path d="M165.053 148.65C164.817 148.618 164.577 148.603 164.347 148.55C164.076 148.487 163.929 148.312 164.028 148.034C164.136 147.731 164.331 148.003 164.484 147.996C164.584 147.993 164.682 148.071 164.788 148.084C165.235 148.131 165.799 148.268 165.981 147.762C166.173 147.221 165.573 147.137 165.216 146.977C164.58 146.693 163.852 146.48 164.05 145.574C164.175 144.999 165.078 144.699 165.969 144.917C166.18 144.971 166.604 144.889 166.527 145.299C166.441 145.774 166.081 145.477 165.828 145.461C165.669 145.452 165.512 145.402 165.356 145.408C165.094 145.421 164.768 145.414 164.679 145.708C164.567 146.071 164.903 146.19 165.165 146.308C165.429 146.427 165.701 146.527 165.965 146.643C166.444 146.855 166.757 147.193 166.668 147.737C166.575 148.309 166.161 148.553 165.605 148.609C165.426 148.628 165.241 148.637 165.053 148.65Z" fill="#596B6D"/>
<path d="M168.481 148.64C167.741 148.653 167.345 148.337 167.336 147.628C167.329 147.134 167.329 146.643 167.323 146.149C167.323 145.993 167.38 145.743 167.303 145.696C166.253 145.043 167.68 144.758 167.524 144.239C167.492 144.136 167.642 144.083 167.753 144.092C167.875 144.102 167.955 144.186 167.942 144.299C167.872 144.836 168.15 144.98 168.635 144.921C168.798 144.902 168.967 144.93 168.983 145.139C169.002 145.393 168.823 145.455 168.622 145.424C167.913 145.305 167.933 145.746 167.955 146.218C167.974 146.634 167.968 147.046 167.974 147.462C167.98 147.85 168.134 148.109 168.577 148.125C168.769 148.131 169.06 148.034 169.018 148.384C168.976 148.734 168.651 148.584 168.481 148.64Z" fill="#596B6D"/>
<path d="M128.81 146.771C128.81 146.28 128.81 145.786 128.813 145.296C128.816 144.996 129.126 144.774 129.228 144.983C129.512 145.561 129.71 145.124 129.943 145.011C130.16 144.905 130.384 144.846 130.629 144.855C130.844 144.864 130.991 144.914 130.975 145.164C130.965 145.336 130.901 145.421 130.706 145.474C129.598 145.768 129.465 145.949 129.445 147.043C129.439 147.381 129.458 147.715 129.439 148.053C129.426 148.278 129.57 148.622 129.113 148.6C128.669 148.578 128.833 148.237 128.82 148.015C128.791 147.599 128.81 147.187 128.81 146.771Z" fill="#596B6D"/>
<path d="M157.854 146.727C157.854 146.262 157.854 145.796 157.854 145.33C157.854 145.099 158.055 144.799 158.173 144.955C158.614 145.536 158.895 144.967 159.246 144.908C159.504 144.864 159.875 144.692 159.993 145.061C160.136 145.511 159.744 145.443 159.459 145.474C158.862 145.54 158.591 145.94 158.54 146.474C158.486 147.04 158.498 147.609 158.483 148.178C158.477 148.381 158.514 148.603 158.186 148.606C157.88 148.612 157.851 148.431 157.854 148.203C157.857 147.709 157.854 147.218 157.854 146.727Z" fill="#596B6D"/>
<path d="M135.823 131.442C135.814 132.724 135.747 133.73 135.486 134.721C134.755 137.494 132.737 138.75 129.864 138.235C127.917 137.884 126.764 136.753 126.343 134.887C125.887 132.88 125.883 130.861 126.272 128.848C126.831 125.972 128.673 125.047 131.406 125.225C134.129 125.403 135.457 126.951 135.744 129.992C135.799 130.561 135.808 131.136 135.823 131.442Z" fill="#FEFEFE"/>
<path d="M112.303 130.145C111.003 130.145 109.701 130.145 108.402 130.145C108.121 130.145 107.785 130.226 107.853 129.742C108.322 126.407 110.55 124.612 113.8 125.319C115.671 125.725 117.107 127.976 116.794 129.826C116.724 130.248 116.443 130.139 116.207 130.142C114.904 130.148 113.605 130.145 112.303 130.145Z" fill="#FEFEFE"/>
<path d="M152.347 133.18C152.427 136.981 149.784 138.7 146.205 138.26C144.935 138.103 144.098 137.263 143.92 136.097C143.693 134.621 144.29 133.38 145.557 132.765C146.224 132.439 146.94 132.23 147.687 132.171C148.957 132.068 150.231 132.014 151.495 131.877C152.207 131.799 152.478 132.017 152.354 132.711C152.325 132.865 152.347 133.024 152.347 133.18Z" fill="#FEFEFE"/>
<path d="M87.5587 131.742C87.565 132.843 87.434 133.924 87.0924 134.974C86.3518 137.25 84.6982 138.35 82.1315 138.294C79.8012 138.244 78.1476 137.009 77.5474 134.787C76.9951 132.736 76.9983 130.661 77.5506 128.613C78.138 126.435 79.7693 125.263 82.1986 125.181C84.5577 125.103 86.3582 126.294 87.0733 128.435C87.434 129.507 87.5714 130.617 87.5587 131.742Z" fill="#FEFEFE"/>
<path d="M189.225 147.159C189.244 146.755 189.046 146.171 189.87 146.305C190.464 146.402 191.239 146.227 191.322 147.14C191.379 147.774 190.917 148.003 189.879 148.078C189.055 148.137 189.237 147.624 189.225 147.159Z" fill="#FEFEFE"/>
<path d="M189.235 145.008C189.174 144.552 189.184 144.145 189.844 144.258C190.384 144.352 191.15 144.173 191.166 145.011C191.182 145.852 190.448 145.711 189.886 145.79C189.184 145.883 189.167 145.486 189.235 145.008Z" fill="#FEFEFE"/>
<path d="M175.964 146.712C176.002 147.109 175.923 147.434 175.721 147.718C175.511 148.015 175.214 148.168 174.831 148.106C174.457 148.046 174.189 147.837 174.09 147.487C173.994 147.14 173.959 146.78 174.004 146.412C174.074 145.821 174.311 145.424 174.987 145.439C175.664 145.452 175.872 145.899 175.961 146.452C175.98 146.552 175.964 146.655 175.964 146.712Z" fill="#FEFEFE"/>
<path d="M143.421 146.612C143.418 147.246 143.37 147.753 142.846 148.015C142.422 148.231 142.013 148.14 141.698 147.784C141.336 147.374 141.34 146.096 141.71 145.711C142.071 145.339 142.531 145.333 142.948 145.568C143.386 145.818 143.431 146.283 143.421 146.612Z" fill="#FEFEFE"/>
<path d="M137.509 146.799C137.509 147.653 137.155 148.118 136.501 148.118C135.881 148.118 135.476 147.593 135.476 146.781C135.476 145.958 135.852 145.449 136.475 145.436C137.174 145.424 137.509 145.865 137.509 146.799Z" fill="#FEFEFE"/>
<path d="M113.136 146.13C112.695 146.249 112.51 145.977 112.641 145.589C112.791 145.146 112.124 144.361 113.117 144.274C113.966 144.199 114.502 144.624 114.493 145.208C114.486 145.796 114.049 146.105 113.136 146.13Z" fill="#FEFEFE"/>
<path d="M117.404 145.433C118.071 145.433 118.502 145.965 118.486 146.78C118.473 147.602 118.026 148.137 117.372 148.115C116.752 148.093 116.347 147.574 116.334 146.787C116.325 145.946 116.727 145.433 117.404 145.433Z" fill="#FEFEFE"/>
<path d="M154.32 146.668C154.365 145.849 154.757 145.411 155.425 145.43C156.079 145.452 156.497 146.008 156.465 146.818C156.43 147.637 155.967 148.162 155.313 148.112C154.684 148.068 154.278 147.477 154.32 146.668Z" fill="#FEFEFE"/>
<path d="M126.457 146.462C126.138 146.246 125.608 146.674 125.57 146.14C125.537 145.665 125.95 145.433 126.441 145.43C126.923 145.427 127.255 145.715 127.233 146.133C127.198 146.705 126.642 146.165 126.457 146.462Z" fill="#FEFEFE"/>
<path d="M132.791 146.474C132.488 146.237 131.938 146.693 131.951 146.093C131.961 145.661 132.341 145.44 132.794 145.43C133.272 145.418 133.624 145.69 133.611 146.105C133.592 146.771 132.979 146.127 132.791 146.474Z" fill="#FEFEFE"/>
<path d="M161.851 146.434C161.57 146.252 161.046 146.668 160.998 146.149C160.953 145.677 161.368 145.436 161.857 145.427C162.336 145.418 162.674 145.699 162.658 146.118C162.636 146.693 162.103 146.237 161.851 146.434Z" fill="#FEFEFE"/>
<path d="M170.955 146.443C170.69 146.221 170.106 146.705 170.103 146.077C170.099 145.643 170.498 145.436 170.949 145.43C171.424 145.424 171.763 145.696 171.756 146.115C171.746 146.699 171.207 146.233 170.955 146.443Z" fill="#FEFEFE"/>
</svg>
