<svg width="250" height="250" viewBox="0 0 250 250" fill="none" xmlns="http://www.w3.org/2000/svg">
<path d="M0 125C0 55.9644 55.9644 0 125 0C194.036 0 250 55.9644 250 125C250 194.036 194.036 250 125 250C55.9644 250 0 194.036 0 125Z" fill="white"/>
<path d="M138.009 57.2642C149.532 57.698 162.762 64.3483 170.557 72.7453C177.258 79.9172 181.243 89.2052 181.823 99.0037C181.942 101.279 181.388 104.249 182.429 106.32C183.425 108.299 184.596 110.198 185.796 112.058C188.265 115.886 195.126 125.246 194.998 129.641C194.979 130.298 194.783 130.923 194.279 131.371C193.071 132.446 187.747 132.271 187.649 133.674C187.482 136.06 192.289 140.834 189.174 143.6C188.129 144.529 186.306 144.658 185.595 145.332C186.435 146.678 190.686 146.524 190.015 149.59C189.392 152.425 186.492 154.357 185.933 157.238C185.537 159.276 186.64 161.461 187.195 163.393C188.177 166.804 188.667 171.226 185.15 173.38C178.564 177.415 168.292 169.886 158.313 177.817C155.14 180.338 152.975 183.569 150.383 186.604C151.884 186.686 153.862 187.033 155.399 187.254L163.904 188.467L189.894 192.096L189.5 192.339L189.514 192.492L190.01 192.615L155.851 192.632C148.919 192.63 141.523 192.508 134.628 192.697C135.673 187.713 137.478 182.866 140.467 178.702C142.596 175.737 145.553 172.813 149.283 172.116C151.154 171.766 153.121 171.829 155.017 171.817C159.151 171.791 163.494 171.922 167.581 171.237C170.237 170.791 173.011 169.926 174.632 167.619C178.393 162.264 173.019 156.741 174.079 153.275C174.959 150.397 178.475 148.119 177.882 144.834C177.686 143.754 177.041 142.864 176.154 142.242C179.452 138.632 177.627 135.602 175.901 131.786C176.986 131.672 179.113 131.448 180.004 130.986C180.965 130.494 181.69 129.64 182.022 128.613C183.473 123.983 175.94 113.327 173.384 109.183C169.596 103.042 170.093 103.679 170.221 96.6279C170.297 90.5059 168.887 84.4568 166.114 78.9989C160.209 67.5175 150.008 61.5906 138.175 57.8075L138.714 57.6264L138.734 57.5139L138.009 57.2642Z" fill="#676765"/>
<path d="M86.9431 79.2697C87.0476 79.4431 87.1407 79.5893 87.2303 79.772C87.0176 80.1277 85.257 82.1282 84.8273 82.6962C83.0462 85.0804 81.5231 87.647 80.2838 90.3527C74.1987 103.387 76.608 120.369 83.4924 132.637C86.0591 137.211 89.1731 141.05 92.7063 144.924C96.418 148.993 102.461 152.152 104.457 157.487C105.935 161.637 104.699 166.724 103.27 170.716C100.653 178.027 97.7916 185.671 94.45 192.685C81.3456 192.552 68.1049 192.823 55 192.705C57.8138 191.937 60.8042 191.508 63.6562 190.882C69.8971 189.512 76.2596 188.365 82.4811 186.938C84.8181 176.59 87.3233 163.5 87.9461 153.007C89.1582 154.49 92.657 158.578 93.9962 159.477C93.5854 158.534 92.9229 157.569 92.3885 156.667C90.1648 152.916 87.4914 149.64 85.0298 146.008C76.9741 134.125 70.5144 118.779 72.2468 104.204C73.4257 94.2878 79.0759 85.2678 86.9431 79.2697Z" fill="#2CB2E3"/>
<path d="M72.2717 89.7249C73.6347 86.3424 75.248 82.9155 77.2988 79.8782C91.2132 59.2708 119.704 53.069 142.178 61.9718C151.722 65.7526 159.821 72.5792 163.878 82.1242C165.966 87.1255 166.936 92.5233 166.716 97.9385C166.662 99.2443 166.196 102.352 166.548 103.47C167.295 105.695 168.744 107.759 169.938 109.765C172.807 114.586 176.233 119.239 178.233 124.513C178.889 126.241 179.41 128.528 177.28 129.32C175.77 129.881 173.303 129.415 172.289 130.797C172.068 131.2 172.168 131.712 172.33 132.113C173.152 134.16 175.199 137.007 174.381 139.294C173.75 141.055 171.315 141.508 169.728 141.859C170.373 142.242 171.355 142.763 172.031 143.018C175.071 144.166 174.888 145.909 173.29 148.391C172.11 150.285 169.904 152.64 170.449 155.054C171.116 158.006 173.709 163.556 171.656 166.332C168.741 170.27 158.666 169.758 154.257 169.799C148.667 169.851 144.689 169.58 140.466 173.756C139.368 174.81 138.239 175.993 137.373 177.282C136.437 178.677 135.846 180.561 135.154 182.077C133.753 185.147 132.088 189.815 130.44 192.672C128.804 192.67 126.68 192.624 125.081 192.725C126.871 189.314 128.627 185.886 130.351 182.44C133.895 175.464 136.027 170.411 144.206 168.037C146.538 167.36 148.697 167.095 151.119 166.983C154.646 166.624 165.986 167.743 167.933 164.424C169.386 161.95 166.042 156.25 166.241 153.479C166.424 150.921 171.369 148.299 170.771 145.875C170.396 144.361 166.365 143.05 164.838 141.798C166.785 140.471 170.156 140.177 170.776 137.367C171.056 136.096 170.211 134.707 169.542 133.701C169.081 132.715 165.612 129.793 167.421 128.78C169.04 127.875 173.793 128.164 174.332 125.919C174.79 124.016 172.005 119.485 171.103 117.947C168.443 113.411 165.202 109.164 163.169 104.315C162.452 102.016 162.887 99.5048 162.773 97.1339C161.092 61.7635 117.474 54.7365 91.9918 69.4868C83.205 74.5731 77.18 80.6576 72.6805 89.806L72.2717 89.7249Z" fill="#2DAFDF"/>
</svg>
