<svg width="250" height="250" viewBox="0 0 250 250" fill="none" xmlns="http://www.w3.org/2000/svg">
<mask id="path-1-inside-1_453_424" fill="white">
<path d="M0 125C0 55.9644 55.9644 0 125 0C194.036 0 250 55.9644 250 125C250 194.036 194.036 250 125 250C55.9644 250 0 194.036 0 125Z"/>
</mask>
<path d="M0 125C0 55.9644 55.9644 0 125 0C194.036 0 250 55.9644 250 125C250 194.036 194.036 250 125 250C55.9644 250 0 194.036 0 125Z" fill="white"/>
<path d="M0 125M250 125M250 125M0 125M125 0M250 125M125 250M0 125M125 250V248C57.069 248 2 192.931 2 125H0H-2C-2 195.14 54.8598 252 125 252V250ZM250 125H248C248 192.931 192.931 248 125 248V250V252C195.14 252 252 195.14 252 125H250ZM125 0V2C192.931 2 248 57.069 248 125H250H252C252 54.8598 195.14 -2 125 -2V0ZM125 0V-2C54.8598 -2 -2 54.8598 -2 125H0H2C2 57.069 57.069 2 125 2V0Z" fill="#DDDBDB" mask="url(#path-1-inside-1_453_424)"/>
<path d="M138.009 57.2644C149.532 57.6983 162.762 64.3486 170.557 72.7455C177.258 79.9175 181.243 89.2055 181.823 99.0039C181.942 101.279 181.388 104.249 182.429 106.321C183.425 108.3 184.596 110.198 185.796 112.058C188.265 115.886 195.126 125.246 194.998 129.641C194.979 130.298 194.783 130.923 194.279 131.371C193.071 132.447 187.747 132.271 187.649 133.675C187.482 136.06 192.289 140.834 189.174 143.6C188.129 144.529 186.306 144.658 185.595 145.333C186.435 146.678 190.686 146.524 190.015 149.59C189.392 152.426 186.492 154.357 185.933 157.238C185.537 159.276 186.64 161.462 187.195 163.393C188.177 166.804 188.667 171.226 185.15 173.38C178.564 177.415 168.292 169.886 158.313 177.817C155.14 180.339 152.975 183.569 150.383 186.604C151.884 186.686 153.862 187.033 155.399 187.254L163.904 188.467L189.894 192.096L189.5 192.339L189.514 192.492L190.01 192.615L155.851 192.632C148.919 192.63 141.523 192.509 134.628 192.697C135.673 187.714 137.478 182.866 140.467 178.702C142.596 175.737 145.553 172.813 149.283 172.117C151.154 171.766 153.121 171.829 155.017 171.817C159.151 171.791 163.494 171.922 167.581 171.237C170.237 170.791 173.011 169.926 174.632 167.619C178.393 162.264 173.019 156.741 174.079 153.276C174.959 150.397 178.475 148.119 177.882 144.834C177.686 143.754 177.041 142.864 176.154 142.242C179.452 138.633 177.627 135.603 175.901 131.786C176.986 131.672 179.113 131.448 180.004 130.986C180.965 130.494 181.69 129.64 182.022 128.613C183.473 123.984 175.94 113.328 173.384 109.184C169.596 103.043 170.093 103.68 170.221 96.6281C170.297 90.5061 168.887 84.4571 166.114 78.9991C160.209 67.5178 150.008 61.5908 138.175 57.8078L138.714 57.6266L138.734 57.5141L138.009 57.2644Z" fill="#676765"/>
<path d="M86.9431 79.27C87.0476 79.4434 87.1407 79.5895 87.2303 79.7722C87.0176 80.128 85.257 82.1284 84.8273 82.6964C83.0462 85.0807 81.5231 87.6472 80.2838 90.3529C74.1987 103.387 76.608 120.37 83.4924 132.637C86.0591 137.211 89.1731 141.05 92.7063 144.924C96.418 148.993 102.461 152.152 104.457 157.487C105.935 161.637 104.699 166.725 103.27 170.716C100.653 178.027 97.7916 185.672 94.45 192.685C81.3456 192.552 68.1049 192.823 55 192.705C57.8138 191.937 60.8042 191.508 63.6562 190.882C69.8971 189.512 76.2596 188.365 82.4811 186.939C84.8181 176.59 87.3233 163.5 87.9461 153.007C89.1582 154.491 92.657 158.578 93.9962 159.477C93.5854 158.534 92.9229 157.569 92.3885 156.668C90.1648 152.916 87.4914 149.64 85.0298 146.008C76.9741 134.125 70.5144 118.779 72.2468 104.205C73.4257 94.288 79.0759 85.268 86.9431 79.27Z" fill="#2CB2E3"/>
<path d="M72.2717 89.7252C73.6347 86.3426 75.248 82.9158 77.2988 79.8784C91.2132 59.271 119.704 53.0692 142.178 61.972C151.722 65.7529 159.821 72.5794 163.878 82.1245C165.966 87.1257 166.936 92.5235 166.716 97.9388C166.662 99.2445 166.196 102.353 166.548 103.471C167.295 105.695 168.744 107.759 169.938 109.765C172.807 114.587 176.233 119.239 178.233 124.513C178.889 126.241 179.41 128.529 177.28 129.32C175.77 129.881 173.303 129.415 172.289 130.797C172.068 131.2 172.168 131.712 172.33 132.114C173.152 134.16 175.199 137.007 174.381 139.294C173.75 141.055 171.315 141.508 169.728 141.859C170.373 142.242 171.355 142.763 172.031 143.018C175.071 144.166 174.888 145.909 173.29 148.391C172.11 150.285 169.904 152.64 170.449 155.054C171.116 158.006 173.709 163.557 171.656 166.332C168.741 170.27 158.666 169.758 154.257 169.799C148.667 169.851 144.689 169.58 140.466 173.757C139.368 174.81 138.239 175.993 137.373 177.282C136.437 178.677 135.846 180.561 135.154 182.077C133.753 185.147 132.088 189.815 130.44 192.673C128.804 192.67 126.68 192.624 125.081 192.725C126.871 189.314 128.627 185.886 130.351 182.44C133.895 175.464 136.027 170.412 144.206 168.037C146.538 167.36 148.697 167.095 151.119 166.983C154.646 166.624 165.986 167.743 167.933 164.425C169.386 161.95 166.042 156.251 166.241 153.48C166.424 150.921 171.369 148.299 170.771 145.876C170.396 144.361 166.365 143.05 164.838 141.799C166.785 140.471 170.156 140.177 170.776 137.367C171.056 136.097 170.211 134.707 169.542 133.701C169.081 132.715 165.612 129.793 167.421 128.781C169.04 127.875 173.793 128.164 174.332 125.92C174.79 124.016 172.005 119.486 171.103 117.947C168.443 113.412 165.202 109.164 163.169 104.315C162.452 102.017 162.887 99.505 162.773 97.1341C161.092 61.7638 117.474 54.7368 91.9918 69.4871C83.205 74.5733 77.18 80.6578 72.6805 89.8063L72.2717 89.7252Z" fill="#2DAFDF"/>
</svg>
