<svg width="250" height="250" viewBox="0 0 250 250" fill="none" xmlns="http://www.w3.org/2000/svg">
<mask id="path-1-inside-1_453_325" fill="white">
<path d="M0 125C0 55.9644 55.9644 0 125 0C194.036 0 250 55.9644 250 125C250 194.036 194.036 250 125 250C55.9644 250 0 194.036 0 125Z"/>
</mask>
<path d="M0 125C0 55.9644 55.9644 0 125 0C194.036 0 250 55.9644 250 125C250 194.036 194.036 250 125 250C55.9644 250 0 194.036 0 125Z" fill="white"/>
<path d="M0 125M250 125M250 125M0 125M125 0M250 125M125 250M0 125M125 250V248C57.069 248 2 192.931 2 125H0H-2C-2 195.14 54.8598 252 125 252V250ZM250 125H248C248 192.931 192.931 248 125 248V250V252C195.14 252 252 195.14 252 125H250ZM125 0V2C192.931 2 248 57.069 248 125H250H252C252 54.8598 195.14 -2 125 -2V0ZM125 0V-2C54.8598 -2 -2 54.8598 -2 125H0H2C2 57.069 57.069 2 125 2V0Z" fill="#DDDBDB" mask="url(#path-1-inside-1_453_325)"/>
<path fill-rule="evenodd" clip-rule="evenodd" d="M75.6172 184.071C75.6172 187.345 78.2716 190 81.546 190H125.637C138.84 190 150.287 187.418 159.978 182.256C169.668 177.051 177.158 169.603 182.448 159.912C187.738 150.179 190.383 138.542 190.383 125C190.383 111.458 187.717 99.8421 182.385 90.1514C177.095 80.4183 169.562 72.9704 159.787 67.8076C150.054 62.6025 138.501 60 125.129 60H81.546C78.2716 60 75.6172 62.6544 75.6172 65.9288V102.472C75.6172 105.746 78.2716 108.4 81.546 108.4H101.964C104.893 108.4 107.268 106.025 107.268 103.096C107.268 98.6544 112.401 96.1796 115.876 98.9454L142.416 120.066C145.399 122.44 145.399 126.971 142.416 129.344L115.876 150.466C112.401 153.231 107.268 150.757 107.268 146.315C107.268 143.385 104.893 141.011 101.964 141.011H81.546C78.2716 141.011 75.6172 143.665 75.6172 146.939V184.071Z" fill="#0040F7"/>
</svg>
