<svg width="250" height="250" viewBox="0 0 250 250" fill="none" xmlns="http://www.w3.org/2000/svg">
<mask id="path-1-inside-1_453_147" fill="white">
<path d="M0 125C0 55.9644 55.9644 0 125 0C194.036 0 250 55.9644 250 125C250 194.036 194.036 250 125 250C55.9644 250 0 194.036 0 125Z"/>
</mask>
<path d="M0 125C0 55.9644 55.9644 0 125 0C194.036 0 250 55.9644 250 125C250 194.036 194.036 250 125 250C55.9644 250 0 194.036 0 125Z" fill="white"/>
<path d="M0 125M250 125M250 125M0 125M125 0M250 125M125 250M0 125M125 250V248C57.069 248 2 192.931 2 125H0H-2C-2 195.14 54.8598 252 125 252V250ZM250 125H248C248 192.931 192.931 248 125 248V250V252C195.14 252 252 195.14 252 125H250ZM125 0V2C192.931 2 248 57.069 248 125H250H252C252 54.8598 195.14 -2 125 -2V0ZM125 0V-2C54.8598 -2 -2 54.8598 -2 125H0H2C2 57.069 57.069 2 125 2V0Z" fill="#DDDBDB" mask="url(#path-1-inside-1_453_147)"/>
<path d="M72.6455 65.6185C75.8073 65.4985 79.5686 65.5982 82.7914 65.5982L123.417 65.5927C124.893 65.5897 126.974 65.3934 128.254 66.1198C129.135 66.626 129.773 67.4674 130.024 68.4521C130.546 70.4838 129.029 72.3101 128.027 74.0083L111.038 102.756C110.73 103.321 110.379 103.892 110.047 104.448C107.604 108.537 105.237 112.676 102.753 116.739C102.244 117.572 101.297 118.153 100.345 118.327C99.3255 118.517 98.273 118.288 97.4246 117.692C96.9701 117.37 96.5665 116.857 96.282 116.381C94.9362 114.131 93.6082 111.857 92.2757 109.6L74.3828 79.3087C72.83 76.6798 71.2505 74.059 69.7131 71.422C68.1974 68.8221 69.7233 66.0283 72.6455 65.6185ZM99.6509 99.8147C101.031 97.2627 103.091 93.8488 104.627 91.3399C107.433 86.5716 110.273 81.6407 113.146 76.9255L86.1016 76.9207C86.7833 77.9149 87.5933 79.3806 88.223 80.4463L97.0471 95.3936C97.8723 96.7915 98.8821 98.405 99.6509 99.8147Z" fill="#501B63"/>
<path d="M152.697 61.8821C152.836 61.8699 152.976 61.8613 153.115 61.8562C155.405 61.7823 156.322 63.2532 157.319 65.0322C157.894 66.0588 158.544 67.1119 159.143 68.1299L180.994 105.126C181.844 106.554 183.754 109.269 183.77 110.826C183.772 111.84 183.369 112.812 182.648 113.526C181.251 114.915 179.427 114.631 177.605 114.631L135.265 114.626L129.478 114.633C128.483 114.634 127.035 114.675 126.078 114.581C125.494 114.522 124.932 114.324 124.439 114.005C122.929 113.044 122.276 110.858 123.122 109.278C123.568 108.445 124.026 107.661 124.506 106.849L148.207 66.7292C148.796 65.7317 149.379 64.7275 149.983 63.7389C150.681 62.5975 151.43 62.1506 152.697 61.8821ZM139.75 103.316L153.325 103.319C157.722 103.318 162.386 103.234 166.758 103.322L154.691 82.8778C154.383 82.356 153.583 80.9241 153.238 80.4715L144.948 94.5321C143.263 97.3851 141.491 100.52 139.75 103.316Z" fill="#501B63"/>
<path d="M67.8461 133.449C69.5361 133.302 72.9051 133.406 74.7041 133.406L100.605 133.403C102.7 133.403 104.929 133.356 107.016 133.462C108.021 133.512 109.32 134.08 110.147 134.655C111.644 135.69 112.658 137.288 112.958 139.084C113.637 143.099 110.972 146.402 107.034 147.048C106.52 147.118 105.439 147.093 104.89 147.092L101.37 147.087L70.3103 147.092C69.6183 147.092 68.4248 147.119 67.7654 147.046C66.5507 146.904 65.3968 146.438 64.4261 145.694C62.9703 144.588 62.0189 142.945 61.7848 141.131C61.5492 139.317 62.0494 137.484 63.1738 136.041C64.3604 134.516 65.9517 133.695 67.8461 133.449Z" fill="#501B63"/>
<path d="M67.9774 153.946C68.6388 153.878 69.742 153.906 70.4314 153.908L74.3172 153.916L104.393 153.91C106.667 153.91 108.3 153.817 110.256 155.236C111.733 156.307 112.715 157.928 112.98 159.733C113.258 161.566 112.785 163.432 111.668 164.91C110.453 166.515 108.83 167.295 106.879 167.576C104.164 167.677 100.948 167.595 98.2058 167.595L72.3707 167.597C71.2646 167.597 68.6149 167.666 67.6552 167.543C66.4655 167.382 65.3393 166.909 64.3907 166.174C62.9351 165.05 61.9925 163.389 61.7751 161.564C61.5591 159.74 62.085 157.905 63.2346 156.472C64.4483 154.952 66.0676 154.158 67.9774 153.946Z" fill="#501B63"/>
<path d="M150.348 147.542C150.33 146.038 150.324 144.534 150.33 143.029C150.328 140.135 150.079 137.843 152.28 135.549C153.574 134.205 155.353 133.435 157.22 133.412C159.099 133.378 160.914 134.098 162.26 135.411C163.626 136.736 164.374 138.608 164.349 140.495C164.329 141.998 164.379 143.575 164.335 145.073L168.942 144.249C170.445 143.978 172.484 143.506 173.942 143.653C175.095 143.78 176.195 144.198 177.142 144.866C178.665 145.924 179.696 147.555 179.999 149.385C180.299 151.177 179.873 153.014 178.814 154.49C178.128 155.44 177.203 156.192 176.134 156.671C174.908 157.218 172.501 157.548 171.101 157.795L164.333 158.993C164.392 164.205 164.345 169.489 164.344 174.707L164.348 179.078C164.349 180.106 164.399 181.56 164.204 182.528C163.942 183.833 163.312 185.034 162.389 185.99C161.514 186.895 160.416 187.5 159.22 187.858C158.888 187.958 158.457 188.043 158.159 188.146H156.501C154.849 187.689 153.663 187.349 152.41 186.103C150.287 183.99 150.327 181.981 150.333 179.231L150.338 161.473L143.356 162.714L143.354 175.351L143.362 179.443C143.364 180.18 143.392 181.221 143.313 181.928C143.213 182.839 142.933 183.721 142.489 184.523C141.204 186.836 139.546 187.479 137.181 188.146H135.526C133.217 187.52 131.554 186.825 130.286 184.615C129.814 183.794 129.511 182.886 129.397 181.945C129.306 181.221 129.334 180.157 129.335 179.401L129.339 175.477C129.344 172.201 129.25 168.429 129.353 165.198C126.55 165.718 124.402 166.265 121.819 164.513C120.288 163.46 119.244 161.837 118.92 160.008C118.609 158.217 119.026 156.376 120.078 154.893C120.895 153.737 122.28 152.673 123.655 152.338C125.505 151.888 127.48 151.623 129.352 151.271L129.337 144.22C129.337 141.029 128.884 138.038 131.306 135.532C132.607 134.201 134.381 133.439 136.242 133.413C138.141 133.379 139.974 134.115 141.324 135.452C142.192 136.317 142.815 137.397 143.127 138.582C143.461 139.881 143.363 142.008 143.362 143.397L143.358 148.804C145.667 148.338 148.053 148.007 150.348 147.542Z" fill="#501B63"/>
<path d="M67.7581 188.146C65.5052 187.529 63.8262 186.789 62.5962 184.617C61.7116 183.032 61.491 181.162 61.9828 179.415C62.4777 177.652 63.6587 176.16 65.2617 175.274C66.1048 174.81 67.0368 174.529 67.9962 174.451C69.6445 174.331 72.5016 174.417 74.2375 174.417L103.608 174.418C104.964 174.418 106.826 174.322 108.094 174.69C109.853 175.194 111.339 176.378 112.223 177.981C113.13 179.637 113.292 181.447 112.762 183.25C112.257 184.988 111.064 186.444 109.461 187.284C108.389 187.858 108.01 187.807 107.03 188.146H67.7581Z" fill="#501B63"/>
<path d="M179.672 188.146C176.573 187.404 174.414 186.556 172.628 183.665C171.375 181.64 170.99 179.194 171.562 176.882C172.149 174.487 173.679 172.43 175.806 171.18C177.984 169.901 180.579 169.533 183.027 170.159C185.439 170.78 187.508 172.33 188.782 174.47C189.989 176.548 190.315 179.021 189.688 181.34C189.048 183.671 187.509 185.652 185.408 186.847C184.512 187.351 183.854 187.644 182.85 187.854C182.621 187.901 181.792 188.081 181.628 188.146H179.672Z" fill="#501B63"/>
<path d="M60 104.943C60.6707 102.062 61.7257 99.9497 64.3447 98.337C66.5033 97.0227 69.0947 96.6173 71.5514 97.2097C73.9893 97.7863 76.0949 99.315 77.3983 101.454C78.6336 103.514 78.9904 105.984 78.3889 108.309C77.7649 110.702 76.1956 112.739 74.0409 113.953C71.8424 115.2 69.2396 115.525 66.8018 114.858C63.6691 113.999 61.1122 111.544 60.2967 108.399C60.2009 108.029 60.1129 107.597 60 107.241V104.943Z" fill="#501B63"/>
</svg>
