<svg width="250" height="250" viewBox="0 0 250 250" fill="none" xmlns="http://www.w3.org/2000/svg">
<mask id="path-1-inside-1_453_449" fill="white">
<path d="M0 125C0 55.9644 55.9644 0 125 0C194.036 0 250 55.9644 250 125C250 194.036 194.036 250 125 250C55.9644 250 0 194.036 0 125Z"/>
</mask>
<path d="M0 125C0 55.9644 55.9644 0 125 0C194.036 0 250 55.9644 250 125C250 194.036 194.036 250 125 250C55.9644 250 0 194.036 0 125Z" fill="white"/>
<path d="M0 125M250 125M250 125M0 125M125 0M250 125M125 250M0 125M125 250V248C57.069 248 2 192.931 2 125H0H-2C-2 195.14 54.8598 252 125 252V250ZM250 125H248C248 192.931 192.931 248 125 248V250V252C195.14 252 252 195.14 252 125H250ZM125 0V2C192.931 2 248 57.069 248 125H250H252C252 54.8598 195.14 -2 125 -2V0ZM125 0V-2C54.8598 -2 -2 54.8598 -2 125H0H2C2 57.069 57.069 2 125 2V0Z" fill="#DDDBDB" mask="url(#path-1-inside-1_453_449)"/>
<path d="M125.37 55.0071C127.31 54.8527 128.31 57.3314 129.462 58.596C132.009 61.3908 134.003 64.5904 135.661 67.9759C136.236 69.1515 137 70.2768 137.42 71.5333C138.624 75.3047 139.334 79.2421 139.246 83.2133C139.219 84.4933 139.11 85.8611 138.898 87.1191C138.826 87.6929 138.425 88.5458 138.369 89.0864C138.126 91.4412 137.498 93.4876 136.439 95.6029C136.191 96.0969 135.948 96.9094 135.543 97.3082C134.847 97.5967 133.574 97.4339 132.846 97.277C130.788 96.8337 128.842 96.6216 126.744 96.4806C124.557 96.3386 122.119 96.5588 119.928 96.7203C118.958 96.8515 117.945 96.8655 116.979 96.9813C115.395 97.1713 114.83 95.7609 114.357 94.423C112.405 88.9783 111.804 83.1408 112.608 77.4127C112.885 75.353 113.302 73.0711 114.152 71.1535C116.185 66.5666 118.582 62.0455 121.934 58.2764C123.029 57.0451 123.709 55.5873 125.37 55.0071Z" fill="#F9BF12"/>
<path d="M94.2674 130.159C97.3754 129.762 96.4452 131.678 97.3755 133.548C98.3572 135.522 99.0133 136.858 99.6439 139.025C99.8632 139.778 101.942 142.363 102.535 143.107C103.118 143.841 106.428 146.828 106.34 147.586C106.017 150.348 100.319 154.879 98.1588 156.142C96.5974 156.975 95.0118 157.932 93.424 158.708C87.9343 161.393 82.1371 161.858 76.145 162.034C73.948 162.062 65.4835 161.912 64.0501 160.799C63.8499 160.643 63.766 160.401 63.7425 160.156C63.6654 159.351 63.9724 158.307 64.2498 157.553C64.4262 157.073 64.6688 156.624 64.8799 156.16C65.5793 154.62 66.3387 153.172 67.1309 151.681C68.0938 149.871 68.9952 148.071 70.1026 146.337C70.8521 145.164 71.7287 143.998 72.5906 142.904C74.7606 140.149 76.9593 138.21 79.7368 136.096C80.6072 135.434 81.4631 134.746 82.4044 134.185C82.9853 133.838 83.626 133.605 84.2349 133.313C87.5048 131.746 90.6474 130.591 94.2674 130.159Z" fill="#F9BF12"/>
<path d="M154.014 130.291C157.931 129.943 165.414 133.032 168.655 135.3C169.307 135.755 169.887 136.306 170.507 136.803C171.904 137.923 173.365 138.964 174.571 140.307C175.312 141.132 175.928 142.109 176.59 142.999C177.746 144.553 178.911 146.087 179.942 147.729C180.706 148.946 181.317 150.231 181.973 151.508C182.617 152.762 183.338 153.989 183.925 155.272C184.245 155.974 184.491 156.711 184.783 157.425C185.121 158.25 185.659 159.121 185.8 159.999C185.84 160.248 185.843 160.499 185.673 160.704C184.753 161.813 176.285 161.962 174.53 162.024C169.912 162.145 164.399 161.729 159.98 160.363C158.803 160 157.234 159.245 156.077 158.777C151.765 157.03 148.35 154.416 145.168 151.058C144.339 150.178 143.348 149.353 142.86 148.221C142.444 147.256 143.565 146.801 144.146 146.302C148.885 142.236 151.596 136.905 153.065 130.913C153.152 130.557 153.715 130.385 154.014 130.291Z" fill="#F9BF12"/>
<path d="M74.6321 88.8038C78.0204 88.4999 83.0451 89.1947 86.3662 89.9015C87.289 90.0623 88.4334 90.5959 89.3164 90.7542C92.0691 91.2477 94.1803 92.4624 96.4693 94.0006C97.08 94.411 97.9953 94.598 98.6266 95.125C99.2424 95.6392 99.8036 96.1951 100.382 96.7548C101.764 98.0388 105.526 100.825 105.802 102.685C105.907 103.398 103.064 106.169 102.466 106.932C101.639 107.988 100.174 109.689 99.6381 110.948C99.2489 111.861 99.078 112.993 98.5715 113.989C98.3406 114.442 97.6034 115.475 97.5027 115.843C97.1181 117.249 97.0545 119.441 96.2166 120.681C96.0925 120.865 95.3409 120.843 95.0822 120.844C88.7825 120.499 83.2161 117.614 78.2513 113.887C76.3027 112.425 75.6124 111.42 74.0321 109.686C72.1331 107.728 70.5746 105.794 69.3407 103.327C67.7269 100.101 65.4973 96.4411 64.2571 93.07C64.0355 92.4506 63.881 91.8093 63.7962 91.1569C63.7525 90.7993 63.7245 90.3791 63.9804 90.0909C64.8265 89.138 72.888 88.9935 74.6321 88.8038Z" fill="#F9BF12"/>
<path d="M129.952 153.224C131.027 153.017 132.099 152.678 133.143 152.421C135.508 151.838 135.964 151.094 136.914 153.611C139.108 159.424 140.064 165.974 138.361 172.039C137.933 173.561 137.752 175.311 137.131 176.828C135.284 181.799 132.858 186.295 129.53 190.434C129.038 191.008 126.651 195.269 125.827 194.987C124.093 194.393 122.523 191.536 121.435 190.079C115.787 182.518 111.897 173.571 112.439 163.963C112.69 159.515 113.081 157.226 114.65 152.886C114.991 152.658 115.092 152.613 115.474 152.459C116.946 152.646 118.464 153.168 119.578 153.273C122.376 153.673 127.036 153.483 129.952 153.224Z" fill="#F9BF12"/>
<path d="M170.458 88.952C173.305 88.8887 176.179 88.9276 179.019 89.1935C181.025 89.3931 183.221 89.2973 185.121 90.02C186.26 90.4533 185.498 91.0939 185.292 91.9685C184.726 94.3653 183.562 96.5118 182.446 98.6847C182.028 99.4989 181.684 100.364 181.256 101.176C179.802 103.782 178.162 106.351 176.162 108.576C175.201 109.652 174.303 110.984 173.265 112.003C172.45 112.802 171.397 113.567 170.483 114.26C169.486 114.945 168.476 115.833 167.424 116.43C166.012 117.233 164.38 118.031 162.909 118.725C161.468 119.405 159.766 119.885 158.262 120.372C157.273 120.617 156.084 120.67 155.069 120.848C154.535 120.941 154.017 120.941 153.537 120.66C152.807 119.554 152.303 116.566 151.811 115.06C150.608 111.37 148.725 108.879 146.407 105.847C146.094 105.443 145.755 105.059 145.393 104.698C145.016 104.326 143.294 102.961 143.419 102.487C143.69 101.454 145.032 100.505 145.727 99.7046C147.205 98.0044 148.915 96.2617 150.853 95.0927C151.356 94.7969 151.848 94.5062 152.332 94.1782C156.012 91.6864 160.424 90.1571 164.782 89.4061C165.546 89.2745 166.317 89.2908 167.081 89.2123C168.216 89.0956 169.317 88.9922 170.458 88.952Z" fill="#F9BF12"/>
<path d="M91.1654 64.1609C95.0671 64.3061 100.023 66.7322 103.618 68.287C104.431 68.639 105.288 69.5618 106.033 70.0504C107.809 71.2163 110.047 72.5682 110.938 74.5788C111.281 75.3636 111.003 76.9631 110.905 77.8838C110.8 78.8964 110.722 79.9116 110.672 80.9284C110.507 84.1386 110.859 88.6896 111.52 91.8557C111.709 92.7626 112.365 93.8313 112.625 94.6104C112.92 95.4957 113.851 97.0881 113.486 97.8659C113.023 98.8536 110.734 99.9845 109.747 100.371C108.752 100.759 108.046 101.546 107.026 100.708C106.081 99.931 105.592 98.9439 104.855 98.0237C104.419 97.4838 103.42 96.8804 103.004 96.3938C99.4702 92.2554 94.4076 91.1484 89.9458 88.6469C87.7939 87.4405 87.4104 78.581 87.6784 76.2838C87.9562 73.904 88.4908 64.4653 91.1654 64.1609Z" fill="#F9BF12"/>
<path d="M108.075 149.122C109.127 149.053 112.544 150.774 112.847 151.883C113.098 152.799 111.853 154.959 111.651 155.965C111.51 156.666 111.407 157.423 111.301 158.138C110.957 160.236 110.486 162.331 110.55 164.47C110.538 164.854 110.57 165.251 110.556 165.634C110.44 168.711 111.288 171.713 111.229 174.778C111.22 175.268 110.878 176.095 110.647 176.52C110.374 177.026 110.028 177.49 109.622 177.897C108.911 178.601 107.868 179.266 107.042 179.868C106.121 180.522 105.242 181.29 104.276 181.874C103.492 182.384 102.475 182.688 101.687 183.15C99.8317 184.238 98.3877 184.834 96.3175 185.42L93.0731 186.349C91.9376 186.59 90.7059 186.864 90.0169 185.688C89.2009 184.295 88.9422 182.78 88.6385 181.223C87.5751 175.77 87.2207 170.214 88.3589 164.739C88.7952 162.337 90.4417 162.074 92.4007 161.172C96.5006 159.284 100.513 157.122 103.79 153.955C105.159 152.632 106.404 150.169 108.075 149.122Z" fill="#F9BF12"/>
<path d="M160.172 64.0867C160.477 64.0718 160.838 64.0346 161.133 64.1319C161.501 64.2535 161.714 64.6042 161.868 64.9382C162.583 66.4927 163.336 70.1647 163.556 71.9296C163.991 75.4186 164.29 82.9169 163.135 86.1223C162.891 86.8016 162.52 87.6846 161.894 88.1014C160.881 88.7762 159.203 88.9956 158.034 89.3931C154.568 90.5727 150.493 92.5847 147.695 94.9604C147.047 95.5116 146.506 96.1757 145.896 96.7677C145.209 97.435 144.461 98.0444 143.787 98.7248C143.243 99.2749 142.431 100.686 141.725 100.934C141.372 101.058 140.996 100.841 140.684 100.693C140.29 100.502 137.89 99.2874 137.697 99.0875C136.433 97.7763 139.38 94.632 139.523 93.0749C139.71 91.8928 140.137 90.6078 140.368 89.4573C141.253 85.0411 141.238 80.8047 140.502 76.3666C140.179 74.4212 140.845 73.976 142.121 72.7099C146.22 68.6427 151.584 66.226 157.102 64.7357C157.969 64.5012 159.293 64.1373 160.172 64.0867Z" fill="#F9BF12"/>
<path d="M176.006 112.441C178.745 112.259 183.844 115.194 186.243 116.522C187.984 117.605 189.489 118.998 191.072 120.32C192.407 121.433 194.213 122.659 194.796 124.392C194.991 124.972 194.524 125.809 194.224 126.313C193.042 128.298 191.039 129.801 189.252 131.222C188.767 131.603 187.543 132.635 187.081 132.89C184.178 134.488 181.185 136.194 177.956 137.028C175.979 137.538 175.096 137.721 173.318 136.66C172.701 136.165 171.618 135.503 170.92 134.995C170.25 134.507 169.207 133.62 168.565 133.231C165.834 131.588 162.983 130.333 159.9 129.488C159.069 129.261 154.241 128.558 153.954 127.966C153.636 127.307 153.599 123.844 153.873 123.11C154.551 122.377 159.491 121.898 160.88 121.429C163.08 120.717 165.3 119.992 167.26 118.725C169.378 117.336 171.319 115.718 173.406 114.277C174.306 113.656 174.784 112.697 176.006 112.441Z" fill="#F9BF12"/>
<path d="M140.856 149.209C140.931 149.211 141.004 149.217 141.078 149.229C142.043 149.371 145.196 153.64 146.091 154.605C148.683 157.4 153.665 160.245 157.203 161.507C158.591 162.002 160.13 162.177 161.47 162.775C162.045 163.032 162.519 163.362 162.88 163.89C164.365 166.059 163.93 176.915 163.441 179.633C163.181 181.078 162.297 185.913 161.138 186.638C160.827 186.832 160.513 186.719 160.183 186.648C153.576 185.471 144.33 181.595 140.372 175.719C139.403 174.281 140.684 170.644 140.888 168.956C141.385 164.817 140.881 160.691 139.878 156.651C139.72 156.008 139.521 155.374 139.283 154.755C138.841 153.588 138.003 152.087 138.175 150.811C138.269 150.116 140.236 149.424 140.856 149.209Z" fill="#F9BF12"/>
<path d="M55.1582 123.52L55.2274 123.462C55.7935 122.977 56.305 122.429 56.8524 121.927C57.3173 121.501 57.9106 121.115 58.3564 120.683C61.7229 117.421 65.8615 114.837 70.2728 113.252C71.3365 112.945 72.4372 112.523 73.5585 112.568C74.6941 112.614 75.3074 114.069 76.0754 114.573C77.9947 115.832 80.0357 117.502 81.9512 118.685C84.4277 120.215 87.5441 121.228 90.3597 121.859C91.6687 122.131 95.0101 122.4 96.0013 122.915C96.6391 123.983 96.8988 127.289 95.6343 127.954C94.5366 128.532 93.1253 128.646 91.9113 128.856C90.8289 129.135 89.5027 129.296 88.4756 129.629C87.0946 130.078 85.3605 130.831 84.0177 131.396C82.5932 131.994 81.0649 132.984 79.7595 133.792C78.3639 134.665 76.4497 136.715 74.9996 137.16C72.8925 137.806 69.1801 136.223 67.3273 135.353C64.0692 133.822 61.0927 132.13 58.5538 129.561C56.9377 127.979 56.4754 127.651 55.1582 125.669V123.52Z" fill="#F9BF12"/>
<path d="M119.068 101.028C121.975 100.147 127.42 100.261 130.388 100.951C130.96 101.164 131.549 101.192 132.115 101.364C132.74 101.554 133.423 101.854 134.033 102.087C138.612 103.837 142.34 107.023 145.156 110.999C145.946 112.116 146.567 113.627 147.218 114.843C148.235 117.025 149.035 119.864 149.27 122.262C149.361 123.19 149.307 124.565 149.332 125.541C149.357 126.51 149.367 127.954 149.238 128.891C149.101 129.886 148.696 131.039 148.483 132.062C147.943 133.503 147.261 135.455 146.517 136.753C144.888 140.032 141.46 143.504 138.344 145.458C136.904 146.361 135.435 147.211 133.83 147.786C132.304 148.355 130.867 148.811 129.284 149.191L128.803 149.281C128.214 149.41 127.449 149.454 126.834 149.496C121.852 149.844 117.451 148.899 113.113 146.453C93.615 135.461 97.2183 107.044 119.068 101.028Z" fill="#980629"/>
</svg>
