<svg width="250" height="250" viewBox="0 0 250 250" fill="none" xmlns="http://www.w3.org/2000/svg">
<mask id="path-1-inside-1_453_75" fill="white">
<path d="M0 125C0 55.9644 55.9644 0 125 0C194.036 0 250 55.9644 250 125C250 194.036 194.036 250 125 250C55.9644 250 0 194.036 0 125Z"/>
</mask>
<path d="M0 125C0 55.9644 55.9644 0 125 0C194.036 0 250 55.9644 250 125C250 194.036 194.036 250 125 250C55.9644 250 0 194.036 0 125Z" fill="white"/>
<path d="M0 125M250 125M250 125M0 125M125 0M250 125M125 250M0 125M125 250V248C57.069 248 2 192.931 2 125H0H-2C-2 195.14 54.8598 252 125 252V250ZM250 125H248C248 192.931 192.931 248 125 248V250V252C195.14 252 252 195.14 252 125H250ZM125 0V2C192.931 2 248 57.069 248 125H250H252C252 54.8598 195.14 -2 125 -2V0ZM125 0V-2C54.8598 -2 -2 54.8598 -2 125H0H2C2 57.069 57.069 2 125 2V0Z" fill="#DDDBDB" mask="url(#path-1-inside-1_453_75)"/>
<path d="M73.4128 65.0007H134.314C134.998 65.1469 135.797 65.0799 136.504 65.1391C138.186 65.2831 139.863 65.4857 141.531 65.7467C147.146 66.6548 152.602 68.3625 157.732 70.8176C159.257 71.5455 160.55 72.3206 161.998 73.0557C158.641 74.2942 158.719 76.6247 158.722 79.6713L158.728 83.7981L158.723 88.1249C158.722 89.4149 158.61 91.097 159.073 92.2915C159.502 93.4025 160.36 94.2943 161.453 94.7659C161.825 94.928 162.217 95.0399 162.618 95.0985C163.286 95.1964 166.92 95.2057 167.647 95.1439C167.333 96.3504 167.438 99.0752 167.438 100.452L167.442 107.992L167.439 112.991C167.439 113.753 167.399 114.985 167.464 115.704C167.523 116.389 167.735 117.053 168.084 117.645C168.687 118.664 169.671 119.401 170.818 119.692C171.165 119.779 171.519 119.829 171.877 119.841C173.159 119.895 174.745 119.85 176.055 119.849L188.412 119.85C189.466 119.85 190.795 119.909 191.798 119.717C191.849 120.439 191.89 121.933 192 122.555V127.446L191.99 127.51C191.866 128.358 191.828 129.968 191.735 130.923C191.508 133.187 191.152 135.437 190.67 137.661C187.573 151.776 179.513 164.312 167.956 172.988C160.539 178.578 151.921 182.361 142.786 184.039C141.114 184.34 139.43 184.577 137.74 184.746C137.287 184.789 135.008 184.933 134.729 185.001H73.3231C72.5186 184.581 72.3491 184.402 72 183.607V66.4049C72.0354 66.311 72.0731 66.218 72.113 66.126C72.4014 65.4727 72.7928 65.246 73.4128 65.0007ZM123.866 164.999C124.216 164.315 124.773 163.451 125.181 162.781L127.652 158.72L131.689 152.101C132.325 151.057 133.091 149.723 133.757 148.735C132.087 145.797 129.967 142.526 128.184 139.608L116.432 120.419L108.622 107.556L106.185 103.505C103.823 99.5764 104.205 99.7837 99.6628 99.7827L95.3674 99.7825C91.7521 99.7828 87.7075 99.6987 84.1252 99.8058L122.195 162.232C122.696 163.053 123.423 164.172 123.866 164.999ZM138.751 140.543C140.001 138.45 141.265 136.366 142.545 134.29L148.652 124.273C145.32 118.968 142.019 113.442 138.76 108.083L135.966 103.486C135.229 102.277 134.273 100.249 132.743 99.9123C131.917 99.7309 130.718 99.7836 129.854 99.7833L125.93 99.7829C122.084 99.783 117.729 99.6875 113.922 99.8035C115.463 102.505 117.4 105.524 119.042 108.211L137.621 138.688C137.957 139.24 138.399 140.024 138.751 140.543ZM153.63 116.119L157.366 109.97L163.563 99.799L151.723 99.7847C149.121 99.7848 146.258 99.7291 143.676 99.8038C145.305 102.323 146.913 105.093 148.477 107.668C150.163 110.446 152.004 113.317 153.63 116.119Z" fill="#0EAAA2"/>
<path d="M192 115.665C191.73 116.161 191.451 116.576 190.824 116.611C190.007 116.657 189.178 116.636 188.359 116.635L183.824 116.628L176.04 116.629C174.744 116.63 173.449 116.631 172.151 116.631C171.41 116.632 170.678 116.226 170.641 115.412C170.589 114.284 170.616 113.122 170.616 111.989L170.615 99.5045C170.615 98.6369 170.613 97.7704 170.623 96.9018C170.629 96.4224 170.681 95.8773 171.097 95.5593C171.386 95.3386 171.812 95.2648 172.168 95.2429C173.404 95.2358 174.642 95.2535 175.879 95.2532L188.539 95.2485C189.288 95.2472 190.268 95.2113 191.003 95.3023C191.466 95.3598 191.771 95.8177 192 96.1791V115.665Z" fill="#F8B033"/>
<path d="M178.031 65.0007H187.337C187.561 65.0565 187.809 65.1277 188.006 65.2487C188.28 65.4163 188.474 65.6889 188.542 66.0031C188.649 66.4878 188.61 67.6497 188.607 68.1947L188.596 71.6561C188.597 72.5466 188.769 75.6157 188.375 76.2146C188.205 76.4664 187.952 76.6498 187.661 76.732C187.222 76.8568 186.297 76.8107 185.794 76.8088L181.511 76.7965C180.626 76.7931 179.477 76.7354 178.615 76.8934C178.224 76.9651 178.018 77.3579 177.827 77.6802C177.731 80.7073 177.879 83.9369 177.82 86.9847C177.786 88.2511 177.889 89.6392 177.772 90.8923C177.64 92.2868 175.252 91.9482 174.263 91.9474L169.914 91.9454L165.45 91.9481C164.666 91.9482 163.008 92.1216 162.381 91.5967C161.968 91.251 161.933 90.6957 161.931 90.1844C161.917 86.2919 161.926 82.3956 161.927 78.503C161.927 77.7938 161.815 76.9684 162.378 76.4423C162.626 76.2108 162.872 76.1347 163.213 76.1076C167.438 76.0214 171.763 76.1366 175.979 76.0764C176.204 75.9347 176.618 75.6492 176.698 75.3932C176.89 74.7775 176.821 73.7431 176.818 73.0808L176.805 68.6838C176.804 68.2148 176.808 67.7227 176.802 67.256C176.786 66.1662 176.786 65.3225 178.031 65.0007Z" fill="#F8B033"/>
</svg>
