<svg width="250" height="250" viewBox="0 0 250 250" fill="none" xmlns="http://www.w3.org/2000/svg">
<mask id="path-1-inside-1_453_97" fill="white">
<path d="M0 125C0 55.9644 55.9644 0 125 0C194.036 0 250 55.9644 250 125C250 194.036 194.036 250 125 250C55.9644 250 0 194.036 0 125Z"/>
</mask>
<path d="M0 125C0 55.9644 55.9644 0 125 0C194.036 0 250 55.9644 250 125C250 194.036 194.036 250 125 250C55.9644 250 0 194.036 0 125Z" fill="white"/>
<path d="M0 125M250 125M250 125M0 125M125 0M250 125M125 250M0 125M125 250V248C57.069 248 2 192.931 2 125H0H-2C-2 195.14 54.8598 252 125 252V250ZM250 125H248C248 192.931 192.931 248 125 248V250V252C195.14 252 252 195.14 252 125H250ZM125 0V2C192.931 2 248 57.069 248 125H250H252C252 54.8598 195.14 -2 125 -2V0ZM125 0V-2C54.8598 -2 -2 54.8598 -2 125H0H2C2 57.069 57.069 2 125 2V0Z" fill="#DDDBDB" mask="url(#path-1-inside-1_453_97)"/>
<path fill-rule="evenodd" clip-rule="evenodd" d="M186.479 134.442C186.338 141.631 186.44 149.166 186.439 156.372L186.461 194.993L126 195C125.787 174.968 125.943 154.466 125.965 134.406L186.479 134.442ZM147.968 148.861C147.943 157.697 148.06 166.716 147.939 175.521C154.064 175.515 160.56 175.41 166.658 175.514L166.677 172.454C161.536 172.454 156.282 172.511 151.148 172.444C151.124 171.046 150.94 164.542 151.11 163.591C151.387 163.414 151.449 163.447 151.797 163.473C156.056 163.455 160.314 163.46 164.572 163.488L164.568 160.516L151.143 160.52C151.095 157.661 151.022 154.661 151.065 151.805L166.137 151.817L166.194 148.842L147.968 148.861Z" fill="#12668C"/>
<path fill-rule="evenodd" clip-rule="evenodd" d="M125.957 71.6703C127.668 71.7921 130.695 71.685 132.515 71.6838L186.445 71.6879L186.431 132.027L125.983 132.039L125.957 71.6703ZM170.034 102.707C168.974 95.17 161.998 89.9246 154.463 90.9992C146.948 92.0711 141.72 99.0252 142.777 106.542C143.835 114.058 150.779 119.3 158.298 118.257C165.837 117.211 171.094 110.244 170.034 102.707Z" fill="#34006C"/>
<path d="M155.074 94.027C160.906 93.3078 166.221 97.4429 166.958 103.273C167.695 109.103 163.575 114.43 157.747 115.185C151.896 115.943 146.54 111.802 145.8 105.947C145.06 100.092 149.217 94.7492 155.074 94.027Z" fill="#34006C"/>
<path fill-rule="evenodd" clip-rule="evenodd" d="M63.5625 55C65.4979 55.15 68.964 55.0545 71.0222 55.0575L123.711 55.0476L123.733 115.465L63.5729 115.452C63.4728 107.982 63.5559 100.328 63.5542 92.8378L63.5625 55ZM100.981 80.2064C101.488 80.9594 102.324 81.9376 102.658 82.778C104.165 86.578 103.638 92.3245 99.9438 94.6809C97.3275 96.3499 93.4259 95.9989 90.4572 95.9903C90.4925 93.3861 90.7209 91.1121 88.7104 89.036C87.3884 87.6707 85.7583 87.2507 83.9135 87.2228C83.6864 90.9438 83.8421 96.2399 83.8477 100.062L83.855 102.589L91.6651 102.598C96.9798 102.597 101.643 102.641 105.706 98.5562C109.384 94.8585 111.757 87.7345 107.512 83.5764C106.326 82.4161 102.685 80.3402 100.981 80.2064ZM104.632 74.6023C99.7068 70.7021 93.8997 71.6545 88.0042 71.5849C84.6755 71.5455 80.89 71.5247 77.5747 71.618C80.2981 77.6662 84.1405 78.3252 90.1212 78.1219C96.1846 77.9158 103.812 78.2056 108.41 82.6734C108.745 82.9988 109.416 83.7754 109.774 83.9683C109.324 80.3411 107.533 76.8999 104.632 74.6023Z" fill="#12668C"/>
<path fill-rule="evenodd" clip-rule="evenodd" d="M123.766 117.876C123.484 137.834 123.769 158.241 123.725 178.237C122.729 178.364 119.015 178.285 117.788 178.285L63.5631 178.284L63.5672 117.901C66.5296 118.086 71.4427 117.921 74.5543 117.921L114.572 117.935C116.954 117.937 121.635 118.07 123.766 117.876ZM86.5147 133.233L86.4872 136.304C88.8655 136.311 93.5569 136.463 95.7693 136.285L95.7756 146.824C95.7764 149.303 96.2348 153.954 94.4284 155.724C93.6064 156.531 92.4932 156.971 91.3416 156.945C89.3279 156.901 87.5439 155.82 86.1994 154.382C86.01 154.18 85.8286 153.971 85.6557 153.755C85.1214 154.62 84.6286 155.45 84.0062 156.256C84.6874 157.036 85.2873 157.725 86.1098 158.367C87.3167 159.206 88.0007 159.523 89.414 159.904C93.4514 160.991 98.4918 158.491 98.7614 153.957C99.1664 147.146 98.7838 140.063 98.9281 133.218L86.5147 133.233Z" fill="#34006C"/>
</svg>
