<svg width="250" height="250" viewBox="0 0 250 250" fill="none" xmlns="http://www.w3.org/2000/svg">
<path d="M0 125C0 55.9644 55.9644 0 125 0C194.036 0 250 55.9644 250 125C250 194.036 194.036 250 125 250C55.9644 250 0 194.036 0 125Z" fill="white"/>
<path fill-rule="evenodd" clip-rule="evenodd" d="M186.478 134.442C186.337 141.631 186.439 149.166 186.438 156.372L186.46 194.993L126 195C125.786 174.968 125.943 154.466 125.964 134.406L186.478 134.442ZM147.967 148.861C147.942 157.697 148.059 166.716 147.938 175.521C154.063 175.515 160.559 175.41 166.658 175.514L166.676 172.454C161.535 172.454 156.281 172.511 151.147 172.444C151.124 171.046 150.939 164.542 151.109 163.591C151.386 163.414 151.448 163.447 151.797 163.473C156.055 163.455 160.313 163.46 164.572 163.488L164.567 160.516L151.142 160.52C151.095 157.661 151.022 154.661 151.064 151.805L166.137 151.817L166.194 148.842L147.967 148.861Z" fill="#12668C"/>
<path fill-rule="evenodd" clip-rule="evenodd" d="M125.956 71.6703C127.667 71.7921 130.695 71.685 132.514 71.6838L186.445 71.6879L186.43 132.027L125.983 132.039L125.956 71.6703ZM170.033 102.707C168.973 95.17 161.998 89.9246 154.463 90.9992C146.947 92.0711 141.72 99.0252 142.776 106.542C143.834 114.058 150.778 119.3 158.297 118.257C165.836 117.211 171.094 110.244 170.033 102.707Z" fill="#34006C"/>
<path d="M155.073 94.027C160.905 93.3078 166.22 97.4429 166.957 103.273C167.694 109.103 163.575 114.43 157.747 115.185C151.895 115.943 146.539 111.802 145.799 105.947C145.06 100.092 149.216 94.7492 155.073 94.027Z" fill="#34006C"/>
<path fill-rule="evenodd" clip-rule="evenodd" d="M63.5618 55C65.4972 55.15 68.9632 55.0545 71.0214 55.0575L123.71 55.0476L123.732 115.465L63.5721 115.452C63.4721 107.982 63.5552 100.328 63.5535 92.8378L63.5618 55ZM100.98 80.2064C101.488 80.9594 102.324 81.9376 102.657 82.778C104.164 86.578 103.637 92.3245 99.9431 94.6809C97.3268 96.3499 93.4251 95.9989 90.4565 95.9903C90.4917 93.3861 90.7201 91.1121 88.7096 89.036C87.3877 87.6707 85.7575 87.2507 83.9127 87.2228C83.6857 90.9438 83.8414 96.2399 83.847 100.062L83.8542 102.589L91.6644 102.598C96.9791 102.597 101.642 102.641 105.706 98.5562C109.384 94.8585 111.756 87.7345 107.511 83.5764C106.326 82.4161 102.684 80.3402 100.98 80.2064ZM104.631 74.6023C99.7061 70.7021 93.899 71.6545 88.0034 71.5849C84.6747 71.5455 80.8893 71.5247 77.574 71.618C80.2973 77.6662 84.1398 78.3252 90.1205 78.1219C96.1839 77.9158 103.811 78.2056 108.409 82.6734C108.744 82.9988 109.416 83.7754 109.774 83.9683C109.324 80.3411 107.533 76.8999 104.631 74.6023Z" fill="#12668C"/>
<path fill-rule="evenodd" clip-rule="evenodd" d="M123.766 117.876C123.483 137.834 123.768 158.241 123.724 178.237C122.729 178.364 119.014 178.285 117.787 178.285L63.5624 178.284L63.5665 117.901C66.5288 118.086 71.442 117.921 74.5535 117.921L114.572 117.935C116.953 117.937 121.634 118.07 123.766 117.876ZM86.5139 133.233L86.4865 136.304C88.8648 136.311 93.5562 136.463 95.7686 136.285L95.7748 146.824C95.7756 149.303 96.2341 153.954 94.4277 155.724C93.6057 156.531 92.4924 156.971 91.3409 156.945C89.3272 156.901 87.5431 155.82 86.1986 154.382C86.0093 154.18 85.8278 153.971 85.655 153.755C85.1206 154.62 84.6278 155.45 84.0055 156.256C84.6867 157.036 85.2866 157.725 86.1091 158.367C87.316 159.206 88 159.523 89.4133 159.904C93.4506 160.991 98.4911 158.491 98.7607 153.957C99.1657 147.146 98.783 140.063 98.9274 133.218L86.5139 133.233Z" fill="#34006C"/>
</svg>
