<svg width="250" height="250" viewBox="0 0 250 250" fill="none" xmlns="http://www.w3.org/2000/svg">
<mask id="path-1-inside-1_453_455" fill="white">
<path d="M0 125C0 55.9644 55.9644 0 125 0C194.036 0 250 55.9644 250 125C250 194.036 194.036 250 125 250C55.9644 250 0 194.036 0 125Z"/>
</mask>
<path d="M0 125C0 55.9644 55.9644 0 125 0C194.036 0 250 55.9644 250 125C250 194.036 194.036 250 125 250C55.9644 250 0 194.036 0 125Z" fill="white"/>
<path d="M0 125M250 125M250 125M0 125M125 0M250 125M125 250M0 125M125 250V248C57.069 248 2 192.931 2 125H0H-2C-2 195.14 54.8598 252 125 252V250ZM250 125H248C248 192.931 192.931 248 125 248V250V252C195.14 252 252 195.14 252 125H250ZM125 0V2C192.931 2 248 57.069 248 125H250H252C252 54.8598 195.14 -2 125 -2V0ZM125 0V-2C54.8598 -2 -2 54.8598 -2 125H0H2C2 57.069 57.069 2 125 2V0Z" fill="#DDDBDB" mask="url(#path-1-inside-1_453_455)"/>
<path d="M77.4119 130.644C79.4191 128.489 80.4883 125.625 80.3843 122.682C80.4883 119.739 79.4191 116.875 77.4119 114.72C76.4099 113.679 75.199 112.862 73.8588 112.322C72.5187 111.783 71.0795 111.533 69.6358 111.589H65.6548V133.709H69.6358C71.0746 133.774 72.5108 133.534 73.8506 133.006C75.1907 132.478 76.4041 131.673 77.4119 130.644Z" fill="#005445"/>
<path d="M126.828 112.318C125.539 112.277 124.256 112.516 123.067 113.017C121.878 113.519 120.812 114.272 119.941 115.224C118.219 117.248 117.272 119.819 117.272 122.476C117.272 125.134 118.219 127.705 119.941 129.728C120.838 130.643 121.909 131.371 123.09 131.867C124.272 132.363 125.54 132.619 126.822 132.619C128.103 132.619 129.372 132.363 130.553 131.867C131.735 131.371 132.805 130.643 133.702 129.728C135.433 127.708 136.384 125.136 136.384 122.476C136.384 119.816 135.433 117.244 133.702 115.224C132.834 114.272 131.771 113.519 130.584 113.018C129.397 112.516 128.116 112.277 126.828 112.318Z" fill="#EF204A"/>
<path d="M152.088 111.734V98.2122H189.429C184.131 85.4215 175.16 74.4888 163.648 66.7972C152.137 59.1054 138.603 55 124.759 55C110.914 55 97.3805 59.1054 85.8693 66.7972C74.358 74.4888 65.3862 85.4215 60.0883 98.2122H73.9951C81.3022 98.2122 87.1808 100.468 91.6307 104.98C96.0805 109.492 98.2921 115.357 98.2655 122.576C98.2655 129.803 96.0539 135.673 91.6307 140.185C87.2074 144.697 81.3288 146.952 73.9951 146.952H58.2969C61.7441 157.405 67.6089 166.897 75.4148 174.657C83.2206 182.416 92.7473 188.224 103.22 191.609C113.693 194.994 124.817 195.86 135.688 194.137C146.559 192.414 156.869 188.15 165.782 181.693V111.734H152.088ZM143.423 139.707C141.263 141.992 138.649 143.801 135.749 145.017C132.849 146.232 129.727 146.828 126.583 146.767C123.437 146.83 120.313 146.235 117.41 145.019C114.508 143.804 111.892 141.994 109.731 139.707C107.496 137.434 105.739 134.736 104.563 131.774C103.387 128.811 102.816 125.643 102.883 122.456C102.816 119.269 103.387 116.101 104.563 113.139C105.739 110.176 107.496 107.478 109.731 105.205C111.893 102.921 114.51 101.114 117.412 99.9003C120.314 98.6867 123.438 98.0936 126.583 98.1592C129.726 98.0956 132.848 98.6896 135.748 99.9029C138.647 101.116 141.262 102.922 143.423 105.205C145.66 107.477 147.419 110.174 148.598 113.137C149.776 116.1 150.349 119.268 150.283 122.456C150.354 125.645 149.784 128.815 148.605 131.778C147.426 134.742 145.664 137.438 143.423 139.707Z" fill="#005445"/>
<path d="M190.444 111.735H177.453V167.295C183.399 159.466 187.628 150.472 189.867 140.899C192.105 131.326 192.302 121.389 190.444 111.735Z" fill="#005445"/>
</svg>
