<svg width="250" height="250" viewBox="0 0 250 250" fill="none" xmlns="http://www.w3.org/2000/svg">
<path d="M0 125C0 55.9644 55.9644 0 125 0C194.036 0 250 55.9644 250 125C250 194.036 194.036 250 125 250C55.9644 250 0 194.036 0 125Z" fill="white"/>
<path d="M77.4117 130.644C79.4189 128.489 80.4881 125.625 80.3841 122.682C80.4881 119.739 79.4189 116.875 77.4117 114.72C76.4097 113.679 75.1988 112.862 73.8586 112.322C72.5184 111.783 71.0792 111.533 69.6355 111.589H65.6546V133.709H69.6355C71.0743 133.774 72.5106 133.534 73.8504 133.006C75.1904 132.478 76.4039 131.673 77.4117 130.644Z" fill="#005445"/>
<path d="M126.828 112.318C125.538 112.277 124.255 112.516 123.066 113.017C121.878 113.519 120.811 114.272 119.941 115.224C118.218 117.248 117.272 119.819 117.272 122.476C117.272 125.134 118.218 127.705 119.941 129.728C120.838 130.643 121.909 131.371 123.09 131.867C124.271 132.363 125.54 132.619 126.821 132.619C128.103 132.619 129.372 132.363 130.553 131.867C131.734 131.371 132.805 130.643 133.702 129.728C135.432 127.708 136.384 125.136 136.384 122.476C136.384 119.816 135.432 117.244 133.702 115.224C132.834 114.272 131.77 113.519 130.584 113.018C129.397 112.516 128.116 112.277 126.828 112.318Z" fill="#EF204A"/>
<path d="M152.088 111.734V98.2122H189.429C184.131 85.4215 175.159 74.4888 163.648 66.7972C152.137 59.1054 138.603 55 124.759 55C110.914 55 97.3802 59.1054 85.8691 66.7972C74.3578 74.4888 65.3859 85.4215 60.0881 98.2122H73.9948C81.302 98.2122 87.1805 100.468 91.6305 104.98C96.0803 109.492 98.2919 115.357 98.2653 122.576C98.2653 129.803 96.0537 135.673 91.6305 140.185C87.2071 144.697 81.3286 146.952 73.9948 146.952H58.2966C61.7438 157.405 67.6087 166.897 75.4145 174.657C83.2203 182.416 92.747 188.224 103.22 191.609C113.693 194.994 124.817 195.86 135.688 194.137C146.558 192.414 156.869 188.15 165.782 181.693V111.734H152.088ZM143.422 139.707C141.263 141.992 138.649 143.801 135.749 145.017C132.849 146.232 129.727 146.828 126.583 146.767C123.437 146.83 120.312 146.235 117.41 145.019C114.508 143.804 111.892 141.994 109.731 139.707C107.496 137.434 105.739 134.736 104.563 131.774C103.387 128.811 102.816 125.643 102.883 122.456C102.816 119.269 103.387 116.101 104.563 113.139C105.739 110.176 107.496 107.478 109.731 105.205C111.893 102.921 114.509 101.114 117.412 99.9003C120.314 98.6867 123.438 98.0936 126.583 98.1592C129.726 98.0956 132.848 98.6896 135.747 99.9029C138.647 101.116 141.262 102.922 143.422 105.205C145.66 107.477 147.419 110.174 148.597 113.137C149.776 116.1 150.349 119.268 150.283 122.456C150.354 125.645 149.783 128.815 148.605 131.778C147.426 134.742 145.664 137.438 143.422 139.707Z" fill="#005445"/>
<path d="M190.444 111.735H177.453V167.295C183.398 159.466 187.628 150.472 189.866 140.899C192.105 131.326 192.302 121.389 190.444 111.735Z" fill="#005445"/>
</svg>
