<svg width="250" height="250" viewBox="0 0 250 250" fill="none" xmlns="http://www.w3.org/2000/svg">
<path d="M0 125C0 55.9644 55.9644 0 125 0C194.036 0 250 55.9644 250 125C250 194.036 194.036 250 125 250C55.9644 250 0 194.036 0 125Z" fill="#FAC625"/>
<path d="M118.472 85.6571L154.1 85.6673L164.882 85.6657C169.638 85.6653 173.717 85.4404 178.247 87.2972C183.353 89.3759 187.419 93.4054 189.543 98.4925C193.351 107.799 189.221 117.88 180.38 122.491C179.368 123.019 178.378 123.439 177.323 123.875C187.42 126.419 194.848 132.726 194.998 143.739C195.195 158.202 179.332 163.331 167.446 163.995C164.622 164.153 161.694 164.066 158.875 164.065H146.623L118.124 164.062L118.144 161.666C126.296 157.321 132.472 152.037 136.675 143.654L136.708 151.149H155.825L161.492 151.152C163.454 151.152 165.318 151.221 167.255 150.81C169.54 150.349 171.648 149.249 173.333 147.638C179.339 141.834 175.56 132.479 168.048 130.724C165.616 130.156 160.433 130.419 157.794 130.422L140.63 130.423C141.088 126.012 141.073 122.849 140.511 118.465L154.278 118.469C157.645 118.47 161.268 118.69 164.567 118.075C172.245 116.643 175.537 107.347 169.887 101.733C168.455 100.335 166.653 99.3758 164.695 98.9674C162.613 98.5289 157.02 98.6849 154.578 98.6859L136.691 98.685L136.689 109.517C136.684 113.158 136.632 116.763 136.869 120.4C136.894 121.478 136.735 122.652 136.755 123.717C136.94 134.261 133.927 143.884 126.319 151.467C118.387 159.372 107.238 163.206 96.199 164.055C90.6611 164.48 84.9663 164.309 79.3865 164.308H55L55.5817 85.9096L78.0771 85.9074C91.562 85.9068 101.511 85.1579 114.343 90.2009C114.45 96.7085 114.362 103.606 114.333 110.132C113.536 108.991 112.641 107.923 111.659 106.937C109.869 105.17 107.816 103.69 105.573 102.551C98.9896 99.1834 92.8792 99.2598 85.7142 99.2652L74.1103 99.2658C74.1647 104.9 74.0083 110.838 73.9331 116.491L73.5533 150.954L85.3632 150.95C92.6879 150.948 99.0412 151.033 105.669 147.236C107.57 146.156 109.322 144.832 110.88 143.297C113.998 140.156 116.19 136.216 117.215 131.909C117.96 128.834 118.073 126.072 117.927 122.926C117.824 120.716 117.954 118.247 118.002 116.019C118.284 105.901 118.441 95.7793 118.472 85.6571Z" fill="#1E1D1D"/>
</svg>
