<svg width="250" height="250" viewBox="0 0 250 250" fill="none" xmlns="http://www.w3.org/2000/svg">
<path d="M0 125C0 55.9644 55.9644 0 125 0C194.036 0 250 55.9644 250 125C250 194.036 194.036 250 125 250C55.9644 250 0 194.036 0 125Z" fill="#FAC625"/>
<path d="M118.472 85.6573L154.1 85.6676L164.882 85.666C169.638 85.6655 173.717 85.4406 178.247 87.2974C183.353 89.3761 187.419 93.4056 189.543 98.4927C193.351 107.799 189.221 117.881 180.38 122.491C179.368 123.02 178.378 123.44 177.323 123.875C187.42 126.419 194.848 132.726 194.998 143.739C195.195 158.203 179.332 163.331 167.446 163.996C164.622 164.153 161.694 164.066 158.875 164.065H146.623L118.124 164.062L118.144 161.666C126.296 157.322 132.472 152.037 136.675 143.654L136.708 151.149H155.825L161.492 151.152C163.454 151.152 165.318 151.221 167.255 150.811C169.54 150.349 171.648 149.249 173.333 147.638C179.339 141.834 175.56 132.479 168.048 130.725C165.616 130.156 160.433 130.419 157.794 130.422L140.63 130.423C141.088 126.012 141.073 122.849 140.511 118.465L154.278 118.47C157.645 118.47 161.268 118.69 164.567 118.075C172.245 116.643 175.537 107.347 169.887 101.733C168.455 100.336 166.653 99.3761 164.695 98.9677C162.613 98.5292 157.02 98.6852 154.578 98.6861L136.691 98.6853L136.689 109.517C136.684 113.159 136.632 116.763 136.869 120.401C136.894 121.478 136.735 122.652 136.755 123.717C136.94 134.261 133.927 143.884 126.319 151.467C118.387 159.373 107.238 163.206 96.199 164.055C90.6611 164.48 84.9663 164.31 79.3865 164.309H55L55.5817 85.9098L78.0771 85.9076C91.562 85.907 101.511 85.1582 114.343 90.2011C114.45 96.7088 114.362 103.606 114.333 110.132C113.536 108.992 112.641 107.923 111.659 106.938C109.869 105.17 107.816 103.69 105.573 102.551C98.9896 99.1836 92.8792 99.26 85.7142 99.2654L74.1103 99.2661C74.1647 104.9 74.0083 110.838 73.9331 116.492L73.5533 150.954L85.3632 150.95C92.6879 150.949 99.0412 151.034 105.669 147.237C107.57 146.156 109.322 144.832 110.88 143.297C113.998 140.156 116.19 136.216 117.215 131.91C117.96 128.835 118.073 126.073 117.927 122.927C117.824 120.717 117.954 118.248 118.002 116.019C118.284 105.901 118.441 95.7795 118.472 85.6573Z" fill="#1E1D1D"/>
</svg>
