<svg width="250" height="250" viewBox="0 0 250 250" fill="none" xmlns="http://www.w3.org/2000/svg">
<path d="M0 125C0 55.9644 55.9644 0 125 0C194.036 0 250 55.9644 250 125C250 194.036 194.036 250 125 250C55.9644 250 0 194.036 0 125Z" fill="white"/>
<path d="M124.945 145.923C123.08 148.819 120.796 151.522 118.857 154.381C118.174 155.389 117.382 156.375 116.664 157.365C115.042 159.649 113.395 161.915 111.721 164.161C110.965 165.196 110.192 166.407 109.368 167.364C107.758 169.235 104.623 168.885 102.424 168.882L96.1652 168.875L90.9679 168.886C88.6417 168.89 85.5698 169.167 84.1908 166.889C83.0667 165.032 82.288 162.532 81.482 160.485L77.0849 149.213L67.9588 125.934L59.4614 104.238L57.0216 98.1314C56.2084 96.0903 54.7492 93.154 55.0364 90.9492C55.2305 89.4585 56.4762 87.6227 57.9678 87.1485C60.4224 86.3683 63.0039 85.7444 65.5095 85.0569C68.879 84.1077 72.2601 83.2 75.6518 82.3337C77.3108 81.8957 79.228 81.2714 80.9029 81.1072C82.7189 80.9291 84.2147 82.1943 85.4491 83.3038L88.1756 85.7373L98.9504 95.3192L112.596 107.466C116.628 111.014 121.044 114.83 124.946 118.484C126.907 120.387 129.086 122.137 131.077 123.997C132.894 125.694 135.274 127.065 135.258 129.856C135.254 130.518 135.203 131.185 134.919 131.803C134.095 133.487 132.658 135.201 131.541 136.725L126.964 143.02C126.515 143.634 125.224 145.324 124.945 145.923Z" fill="#00377C"/>
<path d="M124.946 118.484C126 117.356 127.223 116.297 128.379 115.269L132.295 111.803L142.441 102.827L157.565 89.3485L163.15 84.3763C164.608 83.0948 166.314 81.1844 168.415 81.1193C168.972 81.103 169.53 81.1512 170.075 81.2628C171.32 81.5142 173.072 82.0438 174.343 82.3835L182.192 84.4773L187.905 86.0361C189.153 86.3698 190.43 86.6576 191.652 87.0793C193.607 87.7545 194.904 89.7934 194.998 91.8152C195.03 92.4968 194.693 93.3343 194.481 93.9731C193.702 96.0513 192.831 98.105 192.012 100.169L188.406 109.413L178.69 134.166L170.036 156.295C168.877 159.239 167.75 162.242 166.566 165.183C164.871 169.395 161.906 168.852 158.07 168.852C153.625 168.852 149.2 168.831 144.758 168.851C141.189 168.866 140.144 166.907 138.272 164.289C137.38 163.038 136.479 161.793 135.568 160.554C131.993 155.702 128.451 150.825 124.945 145.923C125.224 145.324 126.515 143.634 126.964 143.02L131.541 136.725C132.658 135.201 134.095 133.487 134.919 131.803C135.203 131.185 135.254 130.517 135.258 129.855C135.274 127.065 132.894 125.694 131.077 123.997C129.086 122.136 126.907 120.386 124.946 118.484Z" fill="#7DD348"/>
</svg>
