<svg width="250" height="250" viewBox="0 0 250 250" fill="none" xmlns="http://www.w3.org/2000/svg">
<mask id="path-1-inside-1_453_66" fill="white">
<path d="M0 125C0 55.9644 55.9644 0 125 0C194.036 0 250 55.9644 250 125C250 194.036 194.036 250 125 250C55.9644 250 0 194.036 0 125Z"/>
</mask>
<path d="M0 125C0 55.9644 55.9644 0 125 0C194.036 0 250 55.9644 250 125C250 194.036 194.036 250 125 250C55.9644 250 0 194.036 0 125Z" fill="white"/>
<path d="M0 125M250 125M250 125M0 125M125 0M250 125M125 250M0 125M125 250V248C57.069 248 2 192.931 2 125H0H-2C-2 195.14 54.8598 252 125 252V250ZM250 125H248C248 192.931 192.931 248 125 248V250V252C195.14 252 252 195.14 252 125H250ZM125 0V2C192.931 2 248 57.069 248 125H250H252C252 54.8598 195.14 -2 125 -2V0ZM125 0V-2C54.8598 -2 -2 54.8598 -2 125H0H2C2 57.069 57.069 2 125 2V0Z" fill="#DDDBDB" mask="url(#path-1-inside-1_453_66)"/>
<path d="M124.945 145.923C123.08 148.819 120.797 151.522 118.857 154.381C118.174 155.389 117.382 156.375 116.665 157.365C115.043 159.649 113.395 161.915 111.722 164.161C110.965 165.196 110.193 166.407 109.369 167.364C107.759 169.235 104.624 168.885 102.424 168.882L96.1657 168.875L90.9684 168.886C88.6422 168.89 85.5703 169.167 84.1913 166.889C83.0672 165.032 82.2885 162.532 81.4825 160.485L77.0854 149.213L67.9592 125.934L59.4619 104.238L57.022 98.1314C56.2089 96.0903 54.7497 93.154 55.0369 90.9492C55.231 89.4585 56.4767 87.6227 57.9683 87.1485C60.4229 86.3683 63.0044 85.7444 65.51 85.0569C68.8795 84.1077 72.2606 83.2 75.6523 82.3337C77.3112 81.8957 79.2285 81.2714 80.9034 81.1072C82.7194 80.9291 84.2152 82.1943 85.4496 83.3038L88.1761 85.7373L98.9509 95.3192L112.596 107.466C116.628 111.014 121.045 114.83 124.946 118.484C126.907 120.387 129.087 122.137 131.078 123.997C132.895 125.694 135.275 127.065 135.258 129.856C135.255 130.518 135.204 131.185 134.919 131.803C134.095 133.487 132.659 135.201 131.542 136.725L126.965 143.02C126.516 143.634 125.224 145.324 124.945 145.923Z" fill="#00377C"/>
<path d="M124.946 118.484C126.001 117.356 127.223 116.298 128.379 115.269L132.296 111.803L142.442 102.827L157.566 89.3487L163.15 84.3766C164.608 83.0951 166.315 81.1846 168.416 81.1195C168.973 81.1033 169.53 81.1514 170.076 81.263C171.32 81.5145 173.073 82.0441 174.343 82.3837L182.193 84.4776L187.905 86.0363C189.153 86.3701 190.431 86.6578 191.652 87.0795C193.608 87.7547 194.904 89.7936 194.998 91.8155C195.03 92.4971 194.694 93.3345 194.482 93.9733C193.703 96.0515 192.832 98.1053 192.013 100.169L188.406 109.413L178.69 134.166L170.036 156.295C168.878 159.239 167.75 162.243 166.566 165.183C164.871 169.395 161.907 168.852 158.07 168.852C153.626 168.852 149.201 168.832 144.758 168.851C141.189 168.866 140.144 166.907 138.273 164.29C137.38 163.038 136.479 161.793 135.568 160.554C131.993 155.702 128.452 150.825 124.945 145.923C125.224 145.324 126.516 143.635 126.965 143.02L131.542 136.725C132.659 135.201 134.095 133.487 134.919 131.803C135.204 131.185 135.255 130.518 135.258 129.856C135.275 127.065 132.895 125.694 131.078 123.997C129.087 122.137 126.907 120.387 124.946 118.484Z" fill="#7DD348"/>
</svg>
