<svg width="250" height="250" viewBox="0 0 250 250" fill="none" xmlns="http://www.w3.org/2000/svg">
<mask id="path-1-inside-1_453_300" fill="white">
<path d="M0 125C0 55.9644 55.9644 0 125 0C194.036 0 250 55.9644 250 125C250 194.036 194.036 250 125 250C55.9644 250 0 194.036 0 125Z"/>
</mask>
<path d="M0 125C0 55.9644 55.9644 0 125 0C194.036 0 250 55.9644 250 125C250 194.036 194.036 250 125 250C55.9644 250 0 194.036 0 125Z" fill="white"/>
<path d="M0 125M250 125M250 125M0 125M125 0M250 125M125 250M0 125M125 250V248C57.069 248 2 192.931 2 125H0H-2C-2 195.14 54.8598 252 125 252V250ZM250 125H248C248 192.931 192.931 248 125 248V250V252C195.14 252 252 195.14 252 125H250ZM125 0V2C192.931 2 248 57.069 248 125H250H252C252 54.8598 195.14 -2 125 -2V0ZM125 0V-2C54.8598 -2 -2 54.8598 -2 125H0H2C2 57.069 57.069 2 125 2V0Z" fill="#DDDBDB" mask="url(#path-1-inside-1_453_300)"/>
<path d="M150.038 55C150.1 55.0589 150.211 55.1823 150.234 55.2607C152.813 64.0622 155.785 73.7444 151.303 82.507C147.784 89.3884 141.268 94.176 135.414 99.1059C132.264 101.798 129.132 104.511 126.017 107.245C110.915 120.616 97.3918 135.499 93.1098 155.82C92.6761 157.877 92.2138 159.973 91.9031 162.031C91.8758 162.212 91.679 162.239 91.5268 162.304C88.9078 155.975 87.5909 146.703 87.8481 139.909C88.7285 116.654 102.853 95.3101 118.848 79.4136C123.302 75.0667 127.977 70.953 132.855 67.0888C135.935 64.5917 139.128 62.2384 142.424 60.0367C143.962 59.0198 145.505 58.0118 147.054 57.0125C147.884 56.4822 149.37 55.6642 150.038 55Z" fill="#4A3E72"/>
<path d="M157.798 93.2201C157.848 93.2433 158.019 93.3358 158.039 93.3784C160.551 98.8099 162.063 104.452 162.181 110.442C162.484 125.935 148.336 134.905 137.043 142.74C125.301 150.885 113.588 160.602 109.553 174.974C108.723 178.036 108.147 181.159 107.829 184.316C107.776 184.863 107.69 186.641 107.391 186.957C106.811 186.853 105.849 185.707 105.432 185.253C88.2865 166.067 108.574 138.713 122.093 123.85C127.95 117.344 134.282 111.282 141.038 105.716C145.349 102.17 149.794 98.7257 154.415 95.5934C155.562 94.8153 156.753 94.1373 157.798 93.2201Z" fill="#EA278E"/>
<path d="M150.121 140.785L150.409 140.885C151.984 143.008 153.073 148.934 152.907 151.555C152.561 159.094 146.161 163.895 140.387 167.839C129.86 175.03 122.299 181.233 121.512 195C121.062 194.615 120.605 194.143 120.18 193.724C119.715 193.254 119.168 192.536 118.792 192C116.573 188.846 115.87 184.082 116.702 180.334C120.148 164.805 137.516 149.254 150.121 140.785Z" fill="#4A3E72"/>
</svg>
