<svg width="250" height="250" viewBox="0 0 250 250" fill="none" xmlns="http://www.w3.org/2000/svg">
<path d="M0 125C0 55.9644 55.9644 0 125 0C194.036 0 250 55.9644 250 125C250 194.036 194.036 250 125 250C55.9644 250 0 194.036 0 125Z" fill="white"/>
<path d="M67.9053 107.414C67.9053 91.2051 67.9053 74.9958 67.9053 58.7866C67.9053 58.0122 67.945 57.2378 67.8986 56.47C67.8258 55.2787 68.4281 54.9213 69.5136 55.0139C70.063 55.0602 70.6123 55.0205 71.1683 55.0205C102.369 55.0205 133.576 55.0272 164.777 55.0073C168.258 55.0073 171.587 55.4772 174.592 57.3371C178.656 59.8588 181.138 63.4462 181.846 68.2249C182.171 70.409 182.29 72.5932 182.283 74.7973C182.263 101.702 182.27 128.607 182.27 155.506C182.27 159.557 182.25 159.59 178.63 157.544C161.752 148.027 144.861 138.542 128.056 128.905C125.726 127.568 124.085 127.661 121.788 128.978C104.421 138.946 86.9606 148.748 69.5202 158.597C68.031 159.437 67.9251 159.384 67.9185 157.677C67.8986 147.53 67.9053 137.39 67.9053 127.244C67.9053 120.645 67.9053 114.033 67.9053 107.414Z" fill="#17B24C"/>
<path d="M181.835 190.599C181.835 192.227 181.835 193.524 181.835 195C143.856 195 106.024 195 67.9727 195C67.5293 193.67 67.8139 192.273 67.7344 190.698C69.4355 190.42 71.024 190.155 72.7978 189.864C72.9765 187.534 73.1552 185.257 73.3471 182.815C76.9345 181.551 80.6873 181.385 84.3276 180.737C93.6269 179.089 102.966 177.692 112.278 176.15C117.097 175.356 121.399 177.302 124.377 181.783C127.356 176.825 131.81 175.481 137.264 176.375C148.853 178.268 160.463 180.101 172.059 181.968C173.138 182.14 174.197 182.391 175.236 182.603C176.103 185.032 175.282 187.594 176.533 189.95C178.188 190.149 179.915 190.36 181.835 190.599Z" fill="#4A4A4A"/>
</svg>
