<svg width="250" height="250" viewBox="0 0 250 250" fill="none" xmlns="http://www.w3.org/2000/svg">
<path d="M0 125C0 55.9644 55.9644 0 125 0C194.036 0 250 55.9644 250 125C250 194.036 194.036 250 125 250C55.9644 250 0 194.036 0 125Z" fill="white"/>
<path d="M84.3359 57.6674C84.8283 56.0811 86.2959 55 87.9568 55L152.691 55.0016C155.234 55.0017 157.056 57.4564 156.319 59.8906L138.29 119.49C137.806 121.09 136.332 122.184 134.661 122.184L69.4583 122.182C66.9037 122.182 65.0804 119.707 65.8376 117.267L84.3359 57.6674Z" fill="#075AC4"/>
<path d="M112.227 130.484C112.719 128.897 114.187 127.816 115.848 127.816L180.581 127.818C183.125 127.818 184.946 130.273 184.21 132.707L166.181 192.307C165.697 193.906 164.223 195 162.552 195L97.3492 194.998C94.7946 194.998 92.9712 192.523 93.7284 190.083L112.227 130.484Z" fill="#EA3937"/>
<path d="M157.651 86.6352C157.891 85.8286 158.634 85.2766 159.475 85.2798L195.656 85.4169C196.913 85.4216 197.818 86.6274 197.47 87.8361L187.991 120.817C187.758 121.629 187.015 122.189 186.17 122.189H149.622C148.355 122.189 147.444 120.968 147.805 119.753L157.651 86.6352Z" fill="#299F5E"/>
<path d="M62.3818 129.177C62.6216 128.371 63.3644 127.819 64.206 127.822L100.387 127.959C101.644 127.964 102.549 129.169 102.201 130.378L92.7222 163.359C92.4887 164.171 91.7456 164.731 90.9004 164.731H54.3533C53.0854 164.731 52.175 163.51 52.5362 162.295L62.3818 129.177Z" fill="#299F5E"/>
</svg>
