<svg width="250" height="250" viewBox="0 0 250 250" fill="none" xmlns="http://www.w3.org/2000/svg">
<mask id="path-1-inside-1_453_285" fill="white">
<path d="M0 125C0 55.9644 55.9644 0 125 0C194.036 0 250 55.9644 250 125C250 194.036 194.036 250 125 250C55.9644 250 0 194.036 0 125Z"/>
</mask>
<path d="M0 125C0 55.9644 55.9644 0 125 0C194.036 0 250 55.9644 250 125C250 194.036 194.036 250 125 250C55.9644 250 0 194.036 0 125Z" fill="white"/>
<path d="M0 125M250 125M250 125M0 125M125 0M250 125M125 250M0 125M125 250V248C57.069 248 2 192.931 2 125H0H-2C-2 195.14 54.8598 252 125 252V250ZM250 125H248C248 192.931 192.931 248 125 248V250V252C195.14 252 252 195.14 252 125H250ZM125 0V2C192.931 2 248 57.069 248 125H250H252C252 54.8598 195.14 -2 125 -2V0ZM125 0V-2C54.8598 -2 -2 54.8598 -2 125H0H2C2 57.069 57.069 2 125 2V0Z" fill="#DDDBDB" mask="url(#path-1-inside-1_453_285)"/>
<path d="M84.3365 57.6674C84.8289 56.0811 86.2965 55 87.9575 55L152.691 55.0016C155.234 55.0017 157.056 57.4564 156.32 59.8906L138.291 119.49C137.807 121.09 136.333 122.184 134.662 122.184L69.459 122.182C66.9044 122.182 65.081 119.707 65.8382 117.267L84.3365 57.6674Z" fill="#075AC4"/>
<path d="M112.227 130.484C112.72 128.897 114.187 127.816 115.848 127.816L180.582 127.818C183.125 127.818 184.947 130.273 184.211 132.707L166.182 192.307C165.698 193.906 164.224 195 162.553 195L97.3498 194.998C94.7952 194.998 92.9718 192.523 93.729 190.083L112.227 130.484Z" fill="#EA3937"/>
<path d="M157.652 86.6352C157.891 85.8286 158.634 85.2766 159.476 85.2798L195.656 85.4169C196.914 85.4216 197.818 86.6274 197.471 87.8361L187.992 120.817C187.759 121.629 187.015 122.189 186.17 122.189H149.623C148.355 122.189 147.445 120.968 147.806 119.753L157.652 86.6352Z" fill="#299F5E"/>
<path d="M62.3824 129.177C62.6222 128.371 63.365 127.819 64.2066 127.822L100.387 127.959C101.645 127.964 102.549 129.169 102.202 130.378L92.7228 163.359C92.4893 164.171 91.7462 164.731 90.901 164.731H54.3539C53.086 164.731 52.1756 163.51 52.5369 162.295L62.3824 129.177Z" fill="#299F5E"/>
</svg>
