<svg width="250" height="250" viewBox="0 0 250 250" fill="none" xmlns="http://www.w3.org/2000/svg">
<path d="M0 125C0 55.9644 55.9644 0 125 0C194.036 0 250 55.9644 250 125C250 194.036 194.036 250 125 250C55.9644 250 0 194.036 0 125Z" fill="white"/>
<path d="M56.9882 116.618L120.75 116.632C123.414 116.632 126.995 116.739 129.585 116.57C129.47 119.964 129.609 123.7 129.556 127.128C129.534 128.512 129.472 132.544 129.625 133.767C128.009 133.643 124.991 133.733 123.287 133.734L111.236 133.733C99.5591 133.732 87.7678 133.645 76.0994 133.78C76.1959 135.872 76.135 138.414 76.1347 140.54L76.1176 150.82C78.1887 150.74 80.707 150.805 82.8037 150.806L117.732 150.809C121.718 150.807 126.023 150.712 129.967 150.828C130.027 156.279 129.925 161.743 129.962 167.195C129.966 167.77 129.955 168.281 130.036 168.856L81.1479 169.1L65.0813 169.222C62.5388 169.25 59.462 169.191 56.9685 169.336L56.9882 116.618Z" fill="#165916"/>
<path d="M196.733 81.2148C196.748 81.2313 196.765 81.2465 196.779 81.2644C196.97 81.5055 196.83 98.1427 196.752 99.8473C196.431 100.069 195.614 100.486 195.226 100.707L182.628 107.816L162.786 119.068C158.553 121.465 153.935 123.946 149.801 126.438C152.376 127.529 156.668 129.883 159.236 131.223L187.942 145.981L193.261 148.68C194.376 149.248 195.665 149.862 196.715 150.519C196.857 152.004 196.722 154.712 196.714 156.268L196.631 168.523C195.362 167.603 193.684 166.761 192.309 166.008L187.193 163.178C185.377 162.242 183.132 160.914 181.332 159.905L172.35 154.91L148.298 141.576L139.156 136.497C137.844 135.776 136.593 135.009 135.249 134.342C135.148 132.546 135.268 129.776 135.291 127.919L135.36 117.424C139.117 115.294 142.949 112.957 146.683 110.76L188.16 86.2987C190.894 84.6845 194.1 82.9181 196.733 81.2148Z" fill="#165916"/>
<path d="M56.9049 80.6641H129.611C129.499 81.4564 129.56 85.2099 129.559 86.1884C129.523 90.2463 129.555 94.3044 129.654 98.3612L81.0285 98.3052H66.0805C63.2213 98.3055 59.7326 98.2139 56.9336 98.4164C56.8149 97.2561 56.9126 94.0072 56.914 92.6458L56.9049 80.6641Z" fill="#9ACE34"/>
</svg>
