<svg width="250" height="250" viewBox="0 0 250 250" fill="none" xmlns="http://www.w3.org/2000/svg">
<mask id="path-1-inside-1_453_281" fill="white">
<path d="M0 125C0 55.9644 55.9644 0 125 0C194.036 0 250 55.9644 250 125C250 194.036 194.036 250 125 250C55.9644 250 0 194.036 0 125Z"/>
</mask>
<path d="M0 125C0 55.9644 55.9644 0 125 0C194.036 0 250 55.9644 250 125C250 194.036 194.036 250 125 250C55.9644 250 0 194.036 0 125Z" fill="white"/>
<path d="M0 125M250 125M250 125M0 125M125 0M250 125M125 250M0 125M125 250V248C57.069 248 2 192.931 2 125H0H-2C-2 195.14 54.8598 252 125 252V250ZM250 125H248C248 192.931 192.931 248 125 248V250V252C195.14 252 252 195.14 252 125H250ZM125 0V2C192.931 2 248 57.069 248 125H250H252C252 54.8598 195.14 -2 125 -2V0ZM125 0V-2C54.8598 -2 -2 54.8598 -2 125H0H2C2 57.069 57.069 2 125 2V0Z" fill="#DDDBDB" mask="url(#path-1-inside-1_453_281)"/>
<path d="M56.9883 116.618L120.751 116.632C123.414 116.632 126.995 116.739 129.585 116.57C129.471 119.964 129.609 123.7 129.556 127.128C129.534 128.512 129.472 132.544 129.625 133.767C128.009 133.643 124.991 133.733 123.287 133.734L111.236 133.733C99.5592 133.732 87.7679 133.645 76.0995 133.78C76.196 135.872 76.1351 138.414 76.1348 140.54L76.1177 150.82C78.1888 150.74 80.7071 150.805 82.8038 150.806L117.732 150.809C121.718 150.807 126.023 150.712 129.968 150.828C130.027 156.279 129.925 161.743 129.962 167.195C129.966 167.77 129.955 168.281 130.037 168.856L81.148 169.1L65.0814 169.222C62.5389 169.25 59.4621 169.191 56.9686 169.336L56.9883 116.618Z" fill="#165916"/>
<path d="M196.733 81.2148C196.749 81.2313 196.765 81.2465 196.779 81.2644C196.97 81.5055 196.83 98.1427 196.752 99.8473C196.431 100.069 195.614 100.486 195.226 100.707L182.628 107.816L162.786 119.068C158.553 121.465 153.935 123.946 149.801 126.438C152.376 127.529 156.668 129.883 159.236 131.223L187.942 145.981L193.261 148.68C194.377 149.248 195.665 149.862 196.715 150.519C196.857 152.004 196.722 154.712 196.714 156.268L196.631 168.523C195.362 167.603 193.684 166.761 192.309 166.008L187.193 163.178C185.377 162.242 183.133 160.914 181.332 159.905L172.35 154.91L148.298 141.576L139.156 136.497C137.844 135.776 136.593 135.009 135.249 134.342C135.149 132.546 135.268 129.776 135.291 127.919L135.36 117.424C139.117 115.294 142.949 112.957 146.683 110.76L188.161 86.2987C190.894 84.6845 194.1 82.9181 196.733 81.2148Z" fill="#165916"/>
<path d="M56.9051 80.6641H129.611C129.499 81.4564 129.56 85.2099 129.56 86.1884C129.523 90.2463 129.555 94.3044 129.654 98.3612L81.0286 98.3052H66.0806C63.2214 98.3055 59.7327 98.2139 56.9337 98.4164C56.815 97.2561 56.9128 94.0072 56.9142 92.6458L56.9051 80.6641Z" fill="#9ACE34"/>
</svg>
