<svg width="250" height="250" viewBox="0 0 250 250" fill="none" xmlns="http://www.w3.org/2000/svg">
<mask id="path-1-inside-1_615_22" fill="white">
<path d="M0 125C0 55.9644 55.9644 0 125 0V0C194.036 0 250 55.9644 250 125V125C250 194.036 194.036 250 125 250V250C55.9644 250 0 194.036 0 125V125Z"/>
</mask>
<path d="M0 125C0 55.9644 55.9644 0 125 0V0C194.036 0 250 55.9644 250 125V125C250 194.036 194.036 250 125 250V250C55.9644 250 0 194.036 0 125V125Z" fill="white"/>
<path d="M0 125M250 125M250 125M0 125M125 0M250 125M125 250M0 125M125 250V248C57.069 248 2 192.931 2 125H0H-2C-2 195.14 54.8598 252 125 252V250ZM250 125H248C248 192.931 192.931 248 125 248V250V252C195.14 252 252 195.14 252 125H250ZM125 0V2C192.931 2 248 57.069 248 125H250H252C252 54.8598 195.14 -2 125 -2V0ZM125 0V-2C54.8598 -2 -2 54.8598 -2 125H0H2C2 57.069 57.069 2 125 2V0Z" fill="#DDDBDB" mask="url(#path-1-inside-1_615_22)"/>
<rect x="55" y="57.8679" width="140" height="134.264" rx="28.0505" fill="#969942"/>
<path d="M106.487 80.1416C113.378 79.8659 120.886 80.437 127.864 80.4692C127.423 81.5721 126.726 84.0792 126.359 85.2867C125.865 86.9113 124.993 89.4456 124.639 91.0417C121.835 90.9256 118.82 90.9625 115.934 90.8603C112.88 90.7483 109.824 90.6813 106.767 90.6594C104.182 90.6305 101.841 90.6179 99.3239 90.8936C91.8502 91.7229 91.6614 96.9892 91.6296 103.066C91.6078 107.254 91.4033 110.533 92.0038 114.779L112.405 114.778C112.392 118.287 112.304 122.151 112.403 125.632L91.6633 125.678C91.7526 132.312 91.4706 138.959 91.5225 145.596C91.5473 148.773 91.465 152.171 92.5583 155.198C93.1204 156.755 94.2971 157.615 95.7513 158.243C97.8026 158.868 99.7373 158.923 101.856 158.982C106.261 159.102 110.682 158.916 115.085 159.04C114.886 159.532 114.687 160.076 114.513 160.58C113.488 163.55 112.222 166.514 111.26 169.499C103.571 170.099 91.899 170.153 85.9369 164.622C79.6841 158.822 80.1224 146.633 80.2353 138.752C80.2661 135.199 80.3386 131.647 80.4528 128.096C80.6946 121.686 80.6835 115.269 80.4198 108.86C80.0658 99.5691 79.7913 88.4047 88.9852 83.2605C93.8646 80.5305 101.02 80.3087 106.487 80.1416Z" fill="black"/>
<path d="M140.458 114.641C143.26 114.541 146.829 114.495 149.598 114.706C155.518 115.159 160.687 116.193 164.709 120.893C170.343 127.322 169.657 135.986 169.455 143.917C169.247 152.111 170.074 159.482 162.937 165.153C159.486 167.895 156.896 169.035 152.412 169.44C147.777 169.858 143.299 169.913 138.655 169.924C133.726 169.95 128.797 169.864 123.873 169.669C122.207 169.604 120.387 169.585 118.74 169.462L118.46 169.439C118.355 169.142 121.579 160.071 121.935 159.042C130.451 158.867 139.166 159.397 147.646 159.207C158.525 158.965 158.048 154.447 158.194 145.288C158.248 141.943 158.632 138.507 158.41 135.168C158.073 130.141 157.243 125.94 151.429 125.537C145.498 125.125 139.738 125.184 133.797 125.291C132.503 125.315 131.22 125.315 129.933 125.389L132.644 114.86C135.204 114.857 137.89 114.728 140.458 114.641Z" fill="#F6F6F6"/>
<path d="M141.244 80.4295C141.942 80.4033 142.639 80.3886 143.337 80.3855C149.898 80.3447 159.162 80.3663 163.997 85.3558C169.92 91.467 169.291 102.888 169.201 110.733L169.108 122.861C167.156 120.468 167.901 119.337 164.643 117.172C163.057 116.177 159.612 114.556 158.573 113.157C157.236 111.357 160.073 98.7869 156.649 93.6988C156.051 92.8109 155.236 92.1259 154.236 91.7373C152.417 91.0311 150.361 91.0111 148.439 90.9625C146.049 90.902 143.681 90.9397 141.292 91.005C138.123 91.0917 134.84 91.2852 131.715 90.6586C132.949 87.4713 134.056 83.8023 135.211 80.5268L141.244 80.4295Z" fill="#F6F6F6"/>
</svg>
