<svg width="250" height="250" viewBox="0 0 250 250" fill="none" xmlns="http://www.w3.org/2000/svg">
<mask id="path-1-inside-1_453_272" fill="white">
<path d="M0 125C0 55.9644 55.9644 0 125 0C194.036 0 250 55.9644 250 125C250 194.036 194.036 250 125 250C55.9644 250 0 194.036 0 125Z"/>
</mask>
<path d="M0 125C0 55.9644 55.9644 0 125 0C194.036 0 250 55.9644 250 125C250 194.036 194.036 250 125 250C55.9644 250 0 194.036 0 125Z" fill="white"/>
<path d="M0 125M250 125M250 125M0 125M125 0M250 125M125 250M0 125M125 250V248C57.069 248 2 192.931 2 125H0H-2C-2 195.14 54.8598 252 125 252V250ZM250 125H248C248 192.931 192.931 248 125 248V250V252C195.14 252 252 195.14 252 125H250ZM125 0V2C192.931 2 248 57.069 248 125H250H252C252 54.8598 195.14 -2 125 -2V0ZM125 0V-2C54.8598 -2 -2 54.8598 -2 125H0H2C2 57.069 57.069 2 125 2V0Z" fill="#DDDBDB" mask="url(#path-1-inside-1_453_272)"/>
<path d="M110.278 160.351C110.88 160.702 122.455 183.447 123.403 185.473C114.451 188.647 105.221 191.539 96.191 194.538L95.9013 194.451C95.1015 193.103 93.522 189.455 92.6946 187.815L83.1635 168.842C92.1118 166.247 101.297 162.958 110.278 160.351Z" fill="#1C6802"/>
<path d="M80.7746 83.4471L80.864 83.4671C81.2997 83.7931 88.7501 107.814 89.6061 110.526C88.8726 110.841 88.2078 111.199 87.4951 111.552C79.7165 115.406 72.1031 119.646 64.31 123.456C63.9007 122.851 62.9035 119.259 62.5464 118.302C59.8984 111.205 57.7899 103.123 55.002 96.1499C63.4504 92.2869 72.4062 87.579 80.7746 83.4471Z" fill="#1C6802"/>
<path d="M185.604 126.656C185.996 126.77 187.632 132.265 187.885 132.965C190.368 139.837 192.289 147.16 194.991 153.932L169.73 166.36C169.286 166.608 169.461 166.596 169.045 166.494C168.548 165.832 161.194 141.898 160.503 139.63C168.486 135.227 177.466 130.883 185.604 126.656Z" fill="#1C6802"/>
<path d="M153.816 55.5017L153.996 55.5454C154.5 56.2292 156.593 60.8073 157.192 61.9303C160.495 68.1245 163.51 74.9791 166.864 81.1059C164.585 81.9947 161.974 82.7206 159.632 83.5021C153.046 85.699 146.277 87.5509 139.713 89.7857C136.31 83.5451 133.232 76.9904 129.784 70.7528C128.687 68.7699 127.694 66.4606 126.544 64.5604C135.455 61.3827 144.805 58.5283 153.816 55.5017Z" fill="#1C6802"/>
<path d="M64.1792 126.517C68.0614 128.316 72.1293 130.614 75.9585 132.586C80.4642 134.907 85.1619 137.193 89.5616 139.672L81.1038 166.408L80.795 166.521C75.5158 163.957 70.2494 161.366 64.9961 158.75C62.0726 157.289 58.0006 155.1 55.0537 153.898C55.5989 152.757 56.3948 150.252 56.8086 149.011L59.5496 140.759C60.7496 137.152 63.4293 129.977 64.1792 126.517Z" fill="#1C6802"/>
<path d="M169.005 83.3324C169.427 83.4719 170.1 83.8634 170.518 84.0706C176.605 87.0744 182.65 90.1763 188.744 93.1634C190.701 94.1227 192.98 95.2928 195.002 96.0631C191.884 104.783 188.987 113.974 185.999 122.805C185.945 123.055 185.918 123.036 185.746 123.246C184.833 123.271 183.084 122.076 182.21 121.626C179.961 120.489 177.72 119.337 175.487 118.168C170.487 115.559 165.507 113.055 160.528 110.392C161.061 108.466 161.854 106.437 162.416 104.497C164.449 97.4763 167.059 90.3519 169.005 83.3324Z" fill="#1C6802"/>
<path d="M139.772 160.232C140.969 160.684 142.375 161.154 143.599 161.514C151.398 163.809 159.116 166.541 166.891 168.877C165.354 171.655 163.798 175.005 162.368 177.892L157.126 188.287C156.148 190.261 155.068 192.725 154.024 194.598C146.759 192.061 139.363 189.863 132.102 187.306C130.351 186.689 128.482 186.031 126.7 185.554C130.991 177.079 135.349 168.638 139.772 160.232Z" fill="#1C6802"/>
<path d="M96.0398 55.4031C98.1856 56.3487 103.795 58.0486 106.212 58.8394L123.399 64.5058C120.968 69.4623 118.353 74.4103 115.777 79.2941C114.008 82.6475 112.232 86.407 110.352 89.6657C107.525 88.9592 103.886 87.7128 101.027 86.8177C95.0755 84.9682 89.1391 83.0707 83.2183 81.1252C83.7959 80.1756 84.6274 78.3594 85.1413 77.3219L88.7074 70.172C90.9339 65.7565 94.2093 59.8741 96.0398 55.4031Z" fill="#1C6802"/>
<path d="M125.25 65.5492C125.561 65.6774 125.734 65.9713 125.877 66.2696C129.849 74.5391 134.437 82.5941 138.363 90.8734C138.07 92.1694 136.935 94.683 136.383 95.983L132.916 104.125L128.428 114.781C127.508 116.991 126.522 119.546 125.487 121.67C124.46 121.051 113.75 94.8381 112.15 91.0113C113.892 87.8186 115.382 84.4025 117.145 81.2025C119.977 76.0596 122.484 70.722 125.25 65.5492Z" fill="#834303"/>
<path d="M125.349 128.648C126.068 129.234 137.334 156.433 138.516 159.415C137.34 162.259 134.382 167.667 132.898 170.49C130.37 175.3 127.951 180.271 125.428 185.046C124.891 184.361 121.946 178.346 121.365 177.188C118.461 171.406 114.987 165.34 112.29 159.505C115.376 151.311 119.385 143.243 122.566 135.062C123.365 133.008 124.362 130.606 125.349 128.648Z" fill="#834303"/>
<path d="M159.374 112.173C160.765 112.05 182.137 123.572 185.363 125.117C178.809 128.697 171.939 131.924 165.356 135.473C163.565 136.439 161.558 137.51 159.708 138.303L156.125 136.814C149.077 134.104 142.145 130.665 135.09 127.921C132.983 127.102 130.638 126.173 128.648 125.149C138.66 120.894 149.513 116.647 159.374 112.173Z" fill="#834303"/>
<path d="M91.0582 112.175C92.2187 112.62 93.3416 113.114 94.4864 113.593C103.69 117.444 112.839 121.647 122.174 125.172C119.637 126.521 114.815 128.377 112.047 129.534L94.8309 136.817C93.5651 137.352 92.2901 137.865 91.0063 138.355C86.0621 136.083 80.7151 133.121 75.8195 130.632C73.3085 129.355 67.4878 126.579 65.357 125.185C66.9911 124.559 71.3972 122.166 73.2815 121.219L91.0582 112.175Z" fill="#834303"/>
<path d="M83.1327 83.1234C87.7839 84.3716 93.3729 86.443 98.0814 87.861C100.86 88.6978 107.862 90.803 110.337 91.8855C111.216 93.5799 112.168 96.1642 112.904 98.0057L117.029 108.328C118.601 112.224 121.736 118.967 122.854 122.755C122.42 122.647 121.894 122.474 121.481 122.302C111.61 118.18 101.44 114.476 91.6251 110.248C88.9728 102.483 86.7417 94.5455 84.0775 86.7801C83.7244 85.7511 83.1603 84.1784 83.1327 83.1234Z" fill="#834303"/>
<path d="M122.767 127.625L122.898 127.833C121.834 130.209 120.734 133.285 119.745 135.746L114.271 149.231C113.178 151.969 111.636 156.094 110.346 158.63C108.746 159.413 101.386 161.693 99.2956 162.313C94.1463 163.841 88.3786 166.032 83.295 167.401L83.1507 167.148C83.3451 165.926 85.6084 159.3 86.1944 157.586C88.0916 152.038 89.7164 145.691 91.7085 140.261L110.3 132.72C114.334 131.08 118.813 129.373 122.767 127.625Z" fill="#834303"/>
<path d="M127.751 127.606C131.871 128.952 137.785 131.667 141.904 133.332C147.283 135.506 153.859 137.866 159.054 140.291C160.537 144.17 161.836 149.287 163.189 153.282C163.739 154.907 167.639 166.546 167.537 167.277C166.222 167.127 160.333 165.115 158.718 164.575C152.778 162.587 146.239 160.857 140.424 158.698C137.515 152.366 135.047 145.307 132.298 138.866C131.806 137.713 127.884 128.395 127.751 127.606Z" fill="#834303"/>
<path d="M167.151 83.1405C167.335 83.1669 167.247 83.1471 167.419 83.3586C167.227 84.502 166.994 84.8573 166.683 85.8869C166.004 88.1733 165.293 90.4503 164.551 92.7172C162.756 98.3721 160.921 104.573 159.016 110.125C156.106 111.67 149.882 113.91 146.517 115.258C140.484 117.676 134.217 120.375 128.167 122.658C128.113 122.633 128.012 122.497 127.965 122.441C128.23 121.387 129.116 119.368 129.546 118.307L132.431 111.15L137.325 98.96C138.203 96.7861 139.345 93.7295 140.422 91.7297C142.334 90.8523 148.436 89.0807 150.664 88.3877L167.151 83.1405Z" fill="#834303"/>
</svg>
