<svg width="250" height="250" viewBox="0 0 250 250" fill="none" xmlns="http://www.w3.org/2000/svg">
<path d="M0 125C0 55.9644 55.9644 0 125 0C194.036 0 250 55.9644 250 125C250 194.036 194.036 250 125 250C55.9644 250 0 194.036 0 125Z" fill="white"/>
<path d="M110.277 160.351C110.879 160.702 122.454 183.447 123.402 185.472C114.45 188.647 105.22 191.539 96.1901 194.538L95.9003 194.451C95.1006 193.103 93.5211 189.455 92.6936 187.815L83.1625 168.842C92.1109 166.247 101.296 162.958 110.277 160.351Z" fill="#1C6802"/>
<path d="M80.7736 83.4469L80.863 83.4669C81.2987 83.7928 88.7491 107.814 89.6051 110.525C88.8716 110.841 88.2069 111.198 87.4941 111.551C79.7155 115.406 72.1021 119.645 64.3091 123.456C63.8997 122.851 62.9025 119.259 62.5455 118.302C59.8974 111.205 57.789 103.123 55.001 96.1497C63.4494 92.2867 72.4052 87.5788 80.7736 83.4469Z" fill="#1C6802"/>
<path d="M185.603 126.656C185.995 126.77 187.631 132.265 187.884 132.965C190.367 139.837 192.288 147.16 194.99 153.931L169.729 166.359C169.285 166.607 169.46 166.595 169.044 166.494C168.547 165.832 161.193 141.898 160.502 139.63C168.485 135.227 177.465 130.883 185.603 126.656Z" fill="#1C6802"/>
<path d="M153.815 55.5015L153.995 55.5452C154.499 56.229 156.592 60.8071 157.191 61.9301C160.494 68.1243 163.509 74.9789 166.863 81.1057C164.584 81.9944 161.973 82.7203 159.631 83.5018C153.045 85.6988 146.276 87.5507 139.712 89.7854C136.309 83.5449 133.231 76.9901 129.783 70.7526C128.686 68.7696 127.693 66.4604 126.543 64.5602C135.454 61.3824 144.804 58.528 153.815 55.5015Z" fill="#1C6802"/>
<path d="M64.1782 126.517C68.0604 128.316 72.1283 130.613 75.9575 132.586C80.4632 134.906 85.1609 137.192 89.5607 139.672L81.1029 166.408L80.7941 166.521C75.5148 163.957 70.2484 161.366 64.9951 158.749C62.0716 157.289 57.9996 155.1 55.0528 153.898C55.5979 152.757 56.3939 150.252 56.8076 149.01L59.5486 140.759C60.7486 137.151 63.4283 129.977 64.1782 126.517Z" fill="#1C6802"/>
<path d="M169.004 83.3322C169.426 83.4716 170.099 83.8632 170.517 84.0703C176.604 87.0742 182.649 90.176 188.743 93.1632C190.7 94.1224 192.979 95.2926 195.001 96.0628C191.883 104.783 188.986 113.974 185.998 122.805C185.944 123.055 185.917 123.036 185.745 123.245C184.832 123.271 183.083 122.076 182.209 121.625C179.96 120.489 177.719 119.337 175.486 118.168C170.486 115.558 165.506 113.055 160.527 110.391C161.06 108.466 161.853 106.437 162.415 104.496C164.449 97.476 167.058 90.3517 169.004 83.3322Z" fill="#1C6802"/>
<path d="M139.771 160.232C140.968 160.684 142.374 161.154 143.598 161.514C151.397 163.809 159.115 166.541 166.89 168.877C165.353 171.655 163.797 175.004 162.367 177.892L157.125 188.287C156.147 190.261 155.067 192.724 154.023 194.597C146.758 192.061 139.362 189.863 132.101 187.305C130.35 186.689 128.481 186.031 126.699 185.553C130.99 177.079 135.348 168.638 139.771 160.232Z" fill="#1C6802"/>
<path d="M96.0388 55.4028C98.1846 56.3484 103.794 58.0483 106.211 58.8392L123.398 64.5055C120.967 69.462 118.353 74.4101 115.776 79.2938C114.007 82.6473 112.231 86.4067 110.351 89.6655C107.524 88.959 103.885 87.7125 101.026 86.8175C95.0745 84.9679 89.1382 83.0704 83.2174 81.1249C83.7949 80.1754 84.6264 78.3592 85.1403 77.3216L88.7064 70.1717C90.9329 65.7563 94.2084 59.8739 96.0388 55.4028Z" fill="#1C6802"/>
<path d="M125.249 65.549C125.56 65.6771 125.733 65.971 125.876 66.2693C129.848 74.5389 134.436 82.5939 138.362 90.8732C138.069 92.1691 136.934 94.6828 136.382 95.9828L132.915 104.125L128.427 114.781C127.507 116.99 126.521 119.546 125.486 121.67C124.459 121.051 113.749 94.8378 112.149 91.011C113.891 87.8183 115.381 84.4023 117.144 81.2023C119.976 76.0593 122.483 70.7218 125.249 65.549Z" fill="#834303"/>
<path d="M125.348 128.648C126.067 129.234 137.333 156.433 138.515 159.414C137.339 162.259 134.381 167.666 132.897 170.49C130.369 175.299 127.95 180.271 125.427 185.045C124.89 184.36 121.945 178.345 121.364 177.188C118.46 171.406 114.986 165.34 112.289 159.505C115.375 151.31 119.384 143.243 122.565 135.062C123.364 133.008 124.361 130.606 125.348 128.648Z" fill="#834303"/>
<path d="M159.373 112.173C160.764 112.05 182.136 123.571 185.362 125.117C178.808 128.697 171.938 131.923 165.355 135.473C163.564 136.438 161.557 137.51 159.707 138.303L156.124 136.814C149.076 134.104 142.144 130.664 135.089 127.921C132.982 127.101 130.637 126.172 128.647 125.149C138.659 120.894 149.512 116.647 159.373 112.173Z" fill="#834303"/>
<path d="M91.0573 112.175C92.2178 112.62 93.3406 113.113 94.4854 113.592C103.689 117.444 112.838 121.647 122.173 125.172C119.636 126.52 114.814 128.376 112.046 129.534L94.8299 136.817C93.5641 137.352 92.2891 137.865 91.0053 138.355C86.0611 136.083 80.7142 133.12 75.8185 130.632C73.3076 129.355 67.4868 126.579 65.356 125.185C66.9901 124.559 71.3962 122.166 73.2806 121.219L91.0573 112.175Z" fill="#834303"/>
<path d="M83.1317 83.1231C87.7829 84.3713 93.3719 86.4428 98.0804 87.8607C100.859 88.6975 107.861 90.8028 110.336 91.8853C111.215 93.5797 112.167 96.164 112.903 98.0054L117.028 108.328C118.6 112.223 121.735 118.967 122.853 122.755C122.419 122.646 121.893 122.474 121.48 122.302C111.609 118.179 101.439 114.476 91.6242 110.248C88.9718 102.483 86.7408 94.5452 84.0765 86.7798C83.7234 85.7509 83.1594 84.1782 83.1317 83.1231Z" fill="#834303"/>
<path d="M122.766 127.624L122.897 127.833C121.833 130.209 120.733 133.285 119.744 135.746L114.27 149.23C113.177 151.969 111.635 156.094 110.345 158.63C108.745 159.413 101.385 161.692 99.2946 162.313C94.1453 163.841 88.3776 166.032 83.2941 167.401L83.1497 167.148C83.3441 165.926 85.6074 159.299 86.1934 157.586C88.0906 152.038 89.7154 145.691 91.7076 140.261L110.299 132.719C114.334 131.08 118.812 129.373 122.766 127.624Z" fill="#834303"/>
<path d="M127.75 127.606C131.87 128.952 137.784 131.667 141.903 133.332C147.282 135.505 153.858 137.866 159.053 140.29C160.536 144.17 161.835 149.287 163.188 153.282C163.738 154.907 167.638 166.546 167.536 167.277C166.221 167.127 160.332 165.115 158.717 164.574C152.778 162.586 146.238 160.856 140.423 158.698C137.514 152.365 135.046 145.307 132.297 138.865C131.805 137.713 127.883 128.394 127.75 127.606Z" fill="#834303"/>
<path d="M167.15 83.1403C167.334 83.1667 167.246 83.1468 167.418 83.3584C167.226 84.5017 166.993 84.8571 166.682 85.8867C166.003 88.173 165.292 90.45 164.55 92.717C162.755 98.3719 160.92 104.572 159.015 110.124C156.105 111.67 149.881 113.91 146.516 115.258C140.483 117.676 134.216 120.375 128.166 122.658C128.112 122.633 128.011 122.497 127.964 122.441C128.229 121.387 129.115 119.368 129.545 118.306L132.43 111.15L137.324 98.9598C138.202 96.7859 139.344 93.7293 140.421 91.7295C142.333 90.852 148.435 89.0805 150.663 88.3875L167.15 83.1403Z" fill="#834303"/>
</svg>
