<svg width="250" height="250" viewBox="0 0 250 250" fill="none" xmlns="http://www.w3.org/2000/svg">
<path d="M0 125C0 55.9644 55.9644 0 125 0C194.036 0 250 55.9644 250 125C250 194.036 194.036 250 125 250C55.9644 250 0 194.036 0 125Z" fill="white"/>
<rect x="54.875" y="125.012" width="78.2841" height="78.2841" transform="rotate(-45 54.875 125.012)" fill="#FFFE5C"/>
<path d="M156.875 73.6562L118.875 111.656L133.875 126.156L156.875 102.656L180.375 126.156L195.375 112.656L156.875 73.6562Z" fill="#09613B"/>
<path d="M156.875 180.156L118.875 142.156L133.875 127.656L156.875 151.156L180.375 127.656L195.375 141.156L156.875 180.156Z" fill="#09613B"/>
<rect x="93.875" y="128.012" width="23.13" height="23.13" transform="rotate(-45 93.875 128.012)" fill="#09613B"/>
</svg>
