<svg width="250" height="250" viewBox="0 0 250 250" fill="none" xmlns="http://www.w3.org/2000/svg">
<mask id="path-1-inside-1_453_234" fill="white">
<path d="M0 125C0 55.9644 55.9644 0 125 0C194.036 0 250 55.9644 250 125C250 194.036 194.036 250 125 250C55.9644 250 0 194.036 0 125Z"/>
</mask>
<path d="M0 125C0 55.9644 55.9644 0 125 0C194.036 0 250 55.9644 250 125C250 194.036 194.036 250 125 250C55.9644 250 0 194.036 0 125Z" fill="white"/>
<path d="M0 125M250 125M250 125M0 125M125 0M250 125M125 250M0 125M125 250V248C57.069 248 2 192.931 2 125H0H-2C-2 195.14 54.8598 252 125 252V250ZM250 125H248C248 192.931 192.931 248 125 248V250V252C195.14 252 252 195.14 252 125H250ZM125 0V2C192.931 2 248 57.069 248 125H250H252C252 54.8598 195.14 -2 125 -2V0ZM125 0V-2C54.8598 -2 -2 54.8598 -2 125H0H2C2 57.069 57.069 2 125 2V0Z" fill="#DDDBDB" mask="url(#path-1-inside-1_453_234)"/>
<rect x="54.875" y="125.011" width="78.2841" height="78.2841" transform="rotate(-45 54.875 125.011)" fill="#FFFE5C"/>
<path d="M156.875 73.656L118.875 111.656L133.875 126.156L156.875 102.656L180.375 126.156L195.375 112.656L156.875 73.656Z" fill="#09613B"/>
<path d="M156.875 180.156L118.875 142.156L133.875 127.656L156.875 151.156L180.375 127.656L195.375 141.156L156.875 180.156Z" fill="#09613B"/>
<rect x="93.875" y="128.011" width="23.13" height="23.13" transform="rotate(-45 93.875 128.011)" fill="#09613B"/>
</svg>
