<svg width="250" height="250" viewBox="0 0 250 250" fill="none" xmlns="http://www.w3.org/2000/svg">
<path d="M0 125C0 55.9644 55.9644 0 125 0C194.036 0 250 55.9644 250 125C250 194.036 194.036 250 125 250C55.9644 250 0 194.036 0 125Z" fill="white"/>
<path d="M125.346 43.4692L195 83.6842L186.246 95.4861L125.477 60.4013L70.8762 91.9254V157.186L128.874 189.64L194.745 149.979V166.978L126.238 206.53L55 165.401V84.0833L125.346 43.4692Z" fill="#0B4873"/>
<path d="M124.79 168.783L125.384 124.456L194.905 83.5757V127.546L124.79 168.783Z" fill="#0192B3"/>
</svg>
