<svg width="250" height="250" viewBox="0 0 250 250" fill="none" xmlns="http://www.w3.org/2000/svg">
<mask id="path-1-inside-1_566_44" fill="white">
<path d="M0 125C0 55.9644 55.9644 0 125 0V0C194.036 0 250 55.9644 250 125V125C250 194.036 194.036 250 125 250V250C55.9644 250 0 194.036 0 125V125Z"/>
</mask>
<path d="M0 125C0 55.9644 55.9644 0 125 0V0C194.036 0 250 55.9644 250 125V125C250 194.036 194.036 250 125 250V250C55.9644 250 0 194.036 0 125V125Z" fill="white"/>
<path d="M0 125M250 125M250 125M0 125M125 0M250 125M125 250M0 125M125 250V248C57.069 248 2 192.931 2 125H0H-2C-2 195.14 54.8598 252 125 252V250ZM250 125H248C248 192.931 192.931 248 125 248V250V252C195.14 252 252 195.14 252 125H250ZM125 0V2C192.931 2 248 57.069 248 125H250H252C252 54.8598 195.14 -2 125 -2V0ZM125 0V-2C54.8598 -2 -2 54.8598 -2 125H0H2C2 57.069 57.069 2 125 2V0Z" fill="#DDDBDB" mask="url(#path-1-inside-1_566_44)"/>
<path d="M125.346 43.4692L195 83.6842L186.246 95.4861L125.477 60.4013L70.8762 91.9254V157.186L128.874 189.64L194.745 149.979V166.978L126.238 206.53L55 165.401V84.0833L125.346 43.4692Z" fill="#0B4873"/>
<path d="M124.791 168.783L125.385 124.456L194.905 83.5757V127.546L124.791 168.783Z" fill="#0192B3"/>
</svg>
