<svg width="250" height="250" viewBox="0 0 250 250" fill="none" xmlns="http://www.w3.org/2000/svg">
<path d="M0 125C0 55.9644 55.9644 0 125 0C194.036 0 250 55.9644 250 125C250 194.036 194.036 250 125 250C55.9644 250 0 194.036 0 125Z" fill="white"/>
<path d="M125 55V195L57.6282 162.195V86.5988L125 55Z" fill="#E67816"/>
<path d="M125 55V195L192.372 162.195V86.5988L125 55Z" fill="#E6922F"/>
<path d="M168.992 100.454V153.35L154.49 157.412V105.987L124.501 90.8965L94.5107 105.987V157.412L80.0088 153.35V100.454L124.501 76.8896L168.992 100.454Z" fill="white"/>
</svg>
