<svg width="250" height="250" viewBox="0 0 250 250" fill="none" xmlns="http://www.w3.org/2000/svg">
<mask id="path-1-inside-1_453_279" fill="white">
<path d="M0 125C0 55.9644 55.9644 0 125 0C194.036 0 250 55.9644 250 125C250 194.036 194.036 250 125 250C55.9644 250 0 194.036 0 125Z"/>
</mask>
<path d="M0 125C0 55.9644 55.9644 0 125 0C194.036 0 250 55.9644 250 125C250 194.036 194.036 250 125 250C55.9644 250 0 194.036 0 125Z" fill="white"/>
<path d="M0 125M250 125M250 125M0 125M125 0M250 125M125 250M0 125M125 250V248C57.069 248 2 192.931 2 125H0H-2C-2 195.14 54.8598 252 125 252V250ZM250 125H248C248 192.931 192.931 248 125 248V250V252C195.14 252 252 195.14 252 125H250ZM125 0V2C192.931 2 248 57.069 248 125H250H252C252 54.8598 195.14 -2 125 -2V0ZM125 0V-2C54.8598 -2 -2 54.8598 -2 125H0H2C2 57.069 57.069 2 125 2V0Z" fill="#DDDBDB" mask="url(#path-1-inside-1_453_279)"/>
<path d="M189.891 55L190.265 55.3264C191.519 59.8608 192.358 68.689 192.357 73.3713C192.355 81.3715 189.287 90.2594 186.536 97.6939C185.713 99.9191 181.733 109.026 183.726 110.773C187.922 112.418 194.005 100.867 195.186 98.0041C196.193 95.5627 197.449 91.1887 198.838 89.1546L199.104 89.2758C200.082 90.9011 199.929 100.982 199.842 103.479C199.013 127.244 193.737 152.178 176.663 169.855C160.128 186.974 117.705 196.571 104.801 170.475C103.926 168.658 103.769 161.868 103.802 159.432C104.561 152.022 105.551 149.038 110.759 143.094C117.505 135.395 127.093 138.449 136.564 138.148C137.066 135.705 136.609 134.006 135.447 131.855C133.544 128.328 129.229 126.192 125.815 124.121C120.85 121.108 114.326 117.307 108.719 115.736C105.7 114.89 99.7042 115.056 96.2742 114.889C90.3777 114.603 84.802 113.922 79.0649 112.401C75.6098 111.485 71.9961 109.749 70.0985 106.583C68.759 104.347 68.5818 100.35 69.3925 97.996C74.1881 84.069 102.029 84.8298 113.723 84.5039C118.564 84.3691 122.439 84.3135 127.283 83.8257C143.385 82.204 161.122 80.9912 175.687 73.3533C184.62 68.6689 187.158 64.1872 189.891 55Z" fill="#2C3396"/>
<path d="M94.3287 66.6284C96.7879 66.3704 101.21 66.5701 103.712 66.8072C116.648 68.0329 126.168 72.8818 136.085 80.8321C129.828 81.619 123.538 82.1175 117.236 82.3259C106.088 82.6661 95.399 82.3458 84.3721 84.9845C74.7893 87.2777 64.45 93.1848 67.1861 104.752C69.1985 113.26 80.3253 115.24 87.6648 116.152C90.6513 116.54 93.6514 116.815 96.6588 116.977C99.755 117.124 105.75 117.013 108.518 117.854C115.459 119.965 122.635 124.794 128.912 128.446C132.303 130.419 133.941 132.148 134.863 135.972C126.23 136.261 117.88 133.657 110.742 140.186C102.487 147.735 100.246 157.448 102.138 168.234C102.908 172.625 104.763 175.336 107.755 178.547C107.811 178.606 107.868 178.664 107.925 178.722C116.775 187.502 127.539 189.199 139.444 188.297C142.53 188.063 146.057 187.365 149.028 187.345C141.524 191.863 135.959 194.101 127.124 194.796C84.7292 198.129 52.4554 160.168 50.2122 120.052C49.0076 98.5086 56.8912 77.7857 78.4392 69.6228C83.8347 67.584 88.679 67.0087 94.3287 66.6284Z" fill="#01A14F"/>
</svg>
