<svg width="250" height="250" viewBox="0 0 250 250" fill="none" xmlns="http://www.w3.org/2000/svg">
<mask id="path-1-inside-1_453_336" fill="white">
<path d="M0 125C0 55.9644 55.9644 0 125 0C194.036 0 250 55.9644 250 125C250 194.036 194.036 250 125 250C55.9644 250 0 194.036 0 125Z"/>
</mask>
<path d="M0 125C0 55.9644 55.9644 0 125 0C194.036 0 250 55.9644 250 125C250 194.036 194.036 250 125 250C55.9644 250 0 194.036 0 125Z" fill="white"/>
<path d="M0 125M250 125M250 125M0 125M125 0M250 125M125 250M0 125M125 250V248C57.069 248 2 192.931 2 125H0H-2C-2 195.14 54.8598 252 125 252V250ZM250 125H248C248 192.931 192.931 248 125 248V250V252C195.14 252 252 195.14 252 125H250ZM125 0V2C192.931 2 248 57.069 248 125H250H252C252 54.8598 195.14 -2 125 -2V0ZM125 0V-2C54.8598 -2 -2 54.8598 -2 125H0H2C2 57.069 57.069 2 125 2V0Z" fill="#DDDBDB" mask="url(#path-1-inside-1_453_336)"/>
<path d="M77.5103 77.8925V194.931H55V55.0693H195V194.931C195 194.931 149.777 194.677 127.513 194.677C116.98 194.677 107.999 190.116 104.158 183.249C100.9 177.424 101.747 173.024 102.89 171.196C105.764 171.966 110.233 172.246 110.233 172.246H171.216V77.8925H77.5103Z" fill="#008F46"/>
<path d="M171.215 172.246V77.8925L194.999 55.0693V194.931C194.999 194.931 149.776 194.677 127.513 194.677C116.979 194.677 107.999 190.116 104.157 183.249C100.899 177.424 101.747 173.024 102.889 171.196C105.763 171.966 110.232 172.246 110.232 172.246H171.215Z" fill="url(#paint0_linear_453_336)"/>
<path d="M189.596 79.552L169.372 59.8975L97.1855 132.169C97.1855 132.169 85.2214 142.616 84.7617 151.102C84.3468 158.762 86.8051 160.244 87.4697 161.16C93.9296 169.993 104.976 184.525 104.976 184.525C104.976 184.525 99.5753 177.388 104.198 167.669C107.026 162.066 112.435 156.956 112.435 156.956L189.596 79.552Z" fill="url(#paint1_linear_453_336)"/>
<defs>
<linearGradient id="paint0_linear_453_336" x1="88.0523" y1="182.846" x2="171.298" y2="182.846" gradientUnits="userSpaceOnUse">
<stop/>
<stop offset="1" stop-opacity="0"/>
</linearGradient>
<linearGradient id="paint1_linear_453_336" x1="175.553" y1="76.0654" x2="90.1366" y2="164.329" gradientUnits="userSpaceOnUse">
<stop stop-color="#3D4292"/>
<stop offset="1" stop-color="#0198D9"/>
</linearGradient>
</defs>
</svg>
