<svg width="250" height="250" viewBox="0 0 250 250" fill="none" xmlns="http://www.w3.org/2000/svg">
<path d="M0 125C0 55.9644 55.9644 0 125 0C194.036 0 250 55.9644 250 125C250 194.036 194.036 250 125 250C55.9644 250 0 194.036 0 125Z" fill="white"/>
<path d="M77.5086 77.8925V194.931H54.9983V55.0693H194.998V194.931C194.998 194.931 149.775 194.677 127.512 194.677C116.978 194.677 107.998 190.116 104.157 183.249C100.899 177.424 101.746 173.024 102.888 171.196C105.762 171.966 110.231 172.246 110.231 172.246H171.214V77.8925H77.5086Z" fill="#008F46"/>
<path d="M171.214 172.246V77.8925L194.998 55.0693V194.931C194.998 194.931 149.775 194.677 127.512 194.677C116.978 194.677 107.998 190.116 104.157 183.249C100.898 177.424 101.746 173.024 102.888 171.196C105.762 171.966 110.231 172.246 110.231 172.246H171.214Z" fill="url(#paint0_linear_1_703)"/>
<path d="M189.595 79.552L169.371 59.8975L97.1851 132.169C97.1851 132.169 85.221 142.616 84.7613 151.102C84.3464 158.762 86.8047 160.244 87.4693 161.16C93.9293 169.993 104.976 184.525 104.976 184.525C104.976 184.525 99.5749 177.388 104.198 167.669C107.025 162.066 112.435 156.956 112.435 156.956L189.595 79.552Z" fill="url(#paint1_linear_1_703)"/>
<defs>
<linearGradient id="paint0_linear_1_703" x1="88.0515" y1="182.846" x2="171.297" y2="182.846" gradientUnits="userSpaceOnUse">
<stop/>
<stop offset="1" stop-opacity="0"/>
</linearGradient>
<linearGradient id="paint1_linear_1_703" x1="175.553" y1="76.0654" x2="90.1362" y2="164.329" gradientUnits="userSpaceOnUse">
<stop stop-color="#3D4292"/>
<stop offset="1" stop-color="#0198D9"/>
</linearGradient>
</defs>
</svg>
