<svg width="250" height="250" viewBox="0 0 250 250" fill="none" xmlns="http://www.w3.org/2000/svg">
<mask id="path-1-inside-1_453_332" fill="white">
<path d="M0 125C0 55.9644 55.9644 0 125 0C194.036 0 250 55.9644 250 125C250 194.036 194.036 250 125 250C55.9644 250 0 194.036 0 125Z"/>
</mask>
<path d="M0 125C0 55.9644 55.9644 0 125 0C194.036 0 250 55.9644 250 125C250 194.036 194.036 250 125 250C55.9644 250 0 194.036 0 125Z" fill="white"/>
<path d="M0 125M250 125M250 125M0 125M125 0M250 125M125 250M0 125M125 250V248C57.069 248 2 192.931 2 125H0H-2C-2 195.14 54.8598 252 125 252V250ZM250 125H248C248 192.931 192.931 248 125 248V250V252C195.14 252 252 195.14 252 125H250ZM125 0V2C192.931 2 248 57.069 248 125H250H252C252 54.8598 195.14 -2 125 -2V0ZM125 0V-2C54.8598 -2 -2 54.8598 -2 125H0H2C2 57.069 57.069 2 125 2V0Z" fill="#DDDBDB" mask="url(#path-1-inside-1_453_332)"/>
<path d="M114.306 111.039H73.4566V139.785H114.306L104.22 153.401H52.2754V96.9177H104.22L114.306 111.039Z" fill="#009434"/>
<path fill-rule="evenodd" clip-rule="evenodd" d="M169.781 96.9177C175.908 96.9177 180.876 101.885 180.876 108.013V124.655L187.108 130.108C192.787 135.078 193.937 143.473 189.801 149.786L187.432 153.401H121.871V114.064H142.044V122.133H163.729V112.551C163.729 110.323 161.923 108.517 159.695 108.517H121.871V96.9177H169.781ZM142.548 143.315H173.815V140.289C173.815 134.718 169.3 130.203 163.729 130.203H142.548V143.315Z" fill="#009434"/>
<path d="M95.6465 132.724H76.9868V118.099H104.22L95.6465 132.724Z" fill="#009434"/>
</svg>
