<svg width="250" height="250" viewBox="0 0 250 250" fill="none" xmlns="http://www.w3.org/2000/svg">
<path d="M0 125C0 55.9644 55.9644 0 125 0C194.036 0 250 55.9644 250 125C250 194.036 194.036 250 125 250C55.9644 250 0 194.036 0 125Z" fill="white"/>
<path d="M114.307 111.039H73.4572V139.785H114.307L104.22 153.401H52.276V96.918H104.22L114.307 111.039Z" fill="#009434"/>
<path fill-rule="evenodd" clip-rule="evenodd" d="M169.781 96.918C175.909 96.918 180.876 101.885 180.876 108.013V124.655L187.108 130.108C192.788 135.078 193.937 143.474 189.801 149.786L187.432 153.401H121.872V114.065H142.044V122.134H163.73V112.552C163.73 110.324 161.923 108.517 159.695 108.517H121.872V96.918H169.781ZM142.548 143.315H173.816V140.289C173.816 134.719 169.3 130.203 163.73 130.203H142.548V143.315Z" fill="#009434"/>
<path d="M95.6471 132.724H76.9874V118.099H104.22L95.6471 132.724Z" fill="#009434"/>
</svg>
