<svg width="250" height="250" viewBox="0 0 250 250" fill="none" xmlns="http://www.w3.org/2000/svg">
<path d="M0 125C0 55.9644 55.9644 0 125 0C194.036 0 250 55.9644 250 125C250 194.036 194.036 250 125 250C55.9644 250 0 194.036 0 125Z" fill="white"/>
<path d="M136.924 103.521C141.026 103.476 145.183 103.513 149.292 103.513L171.677 103.51L184.091 103.527C186.728 103.548 189.629 103.499 192.234 103.842C190.931 104.098 189.571 104.005 188.195 104.264C186.958 104.496 186.307 104.807 185.162 105.187C181.981 106.24 179.268 107.657 176.612 109.757C172.77 112.794 169.596 117.324 168.871 122.249C168.71 123.341 168.773 124.264 168.759 125.287C168.717 128.225 169.096 130.143 170.419 132.766C170.939 133.998 171.509 134.928 172.306 136.015C175.701 140.647 180.797 143.617 186.148 145.454C188 146.09 190.624 146.41 192.592 146.676C191.537 146.862 189.26 146.813 188.159 146.797C186.684 146.774 185.209 146.774 183.733 146.795C182.019 146.848 180.278 146.812 178.56 146.811L170.364 146.819L145.338 146.81C141.568 146.818 137.798 146.807 134.028 146.776C132.26 146.775 129.965 146.993 128.311 146.669C130.293 146.388 132.246 146.162 134.188 145.583C138.379 144.334 141.9 142.53 145.186 139.674C156.319 130.001 153.805 115.216 141.694 107.852C138.855 106.126 135.4 104.885 132.17 104.136C131.529 103.987 129.961 104.163 129.484 103.888C130.243 103.452 135.763 103.552 136.924 103.521Z" fill="#CC9933"/>
<path d="M67.6351 103.523C71.6935 103.447 75.9604 103.509 80.0338 103.51L103.185 103.511C107.259 103.496 111.332 103.507 115.406 103.542C117.477 103.562 120.584 103.483 122.537 103.88C121.386 104.074 119.943 103.953 118.814 104.211C114.797 105.126 110.568 106.825 107.33 109.401C106.953 109.778 106.603 110.402 106.17 110.703C98.8162 115.91 96.7468 126.02 101.157 133.821C104.646 139.992 110.288 143.456 116.888 145.593C118.757 146.198 120.815 146.248 122.698 146.726C120.911 146.889 119.119 146.819 117.333 146.792C115.91 146.783 114.486 146.784 113.062 146.795C111.545 146.858 109.973 146.815 108.447 146.813L79.0994 146.811C74.5194 146.838 69.9393 146.826 65.3596 146.773C63.2291 146.76 61.1025 146.952 59.0057 146.683C65.1203 145.892 69.5618 144.415 74.5334 140.706C83.4816 134.032 85.968 122.182 78.5184 113.287C74.564 108.565 69.4385 105.834 63.5321 104.298C62.312 103.988 60.9151 104.033 59.6306 103.901L59.6178 103.848C60.3763 103.507 66.3309 103.548 67.6351 103.523Z" fill="#CC9933"/>
<path d="M128.713 150.993C132.86 150.845 137.788 150.96 142.005 150.961L184.7 150.964C187.95 150.961 192.143 150.84 195.338 151.025C195.229 152.972 195.329 155.062 195.299 157.022C195.286 157.895 195.363 158.966 195.237 159.817C194.915 159.83 194.661 159.827 194.34 159.815C192.882 159.704 190.175 159.792 188.636 159.793L177.975 159.786L134.293 159.791C133.377 159.789 128.218 159.919 127.847 159.516C127.771 158.977 127.823 157.952 127.825 157.37C127.819 156.001 127.826 154.631 127.846 153.261C127.854 152.701 127.688 151.598 127.97 151.202C128.166 151.026 128.445 151.025 128.713 150.993Z" fill="#009742"/>
<path d="M56.065 159.784C55.9575 159.139 55.915 151.839 56.0129 151.155C56.6098 150.853 63.5009 150.964 64.6351 150.964L121.843 150.965C122.079 151.001 122.37 151.014 122.534 151.167C122.576 151.346 122.61 151.819 122.588 151.983C122.434 153.149 122.913 159.391 122.216 159.909C120.943 159.692 118.272 159.781 116.854 159.785L107.702 159.792L72.65 159.777C68.6793 159.8 64.7085 159.8 60.7378 159.778C59.5635 159.772 57.1016 159.875 56.065 159.784Z" fill="#009742"/>
<path d="M55.9924 90.6666C57.4953 90.5891 59.2339 90.6231 60.7484 90.6245L190.455 90.6307C191.462 90.6238 195.244 90.4848 195.944 90.7701V99.5798C195.033 99.7145 193.079 99.6457 192.068 99.6439L184.739 99.6292L68.1411 99.6339C64.269 99.6365 59.827 99.5374 56.0047 99.6701C55.8823 96.9337 55.9814 93.4743 55.9924 90.6666Z" fill="#009742"/>
</svg>
