<svg width="250" height="250" viewBox="0 0 250 250" fill="none" xmlns="http://www.w3.org/2000/svg">
<mask id="path-1-inside-1_453_264" fill="white">
<path d="M0 125C0 55.9644 55.9644 0 125 0C194.036 0 250 55.9644 250 125C250 194.036 194.036 250 125 250C55.9644 250 0 194.036 0 125Z"/>
</mask>
<path d="M0 125C0 55.9644 55.9644 0 125 0C194.036 0 250 55.9644 250 125C250 194.036 194.036 250 125 250C55.9644 250 0 194.036 0 125Z" fill="white"/>
<path d="M0 125M250 125M250 125M0 125M125 0M250 125M125 250M0 125M125 250V248C57.069 248 2 192.931 2 125H0H-2C-2 195.14 54.8598 252 125 252V250ZM250 125H248C248 192.931 192.931 248 125 248V250V252C195.14 252 252 195.14 252 125H250ZM125 0V2C192.931 2 248 57.069 248 125H250H252C252 54.8598 195.14 -2 125 -2V0ZM125 0V-2C54.8598 -2 -2 54.8598 -2 125H0H2C2 57.069 57.069 2 125 2V0Z" fill="#DDDBDB" mask="url(#path-1-inside-1_453_264)"/>
<path d="M136.924 103.521C141.027 103.476 145.184 103.513 149.292 103.513L171.677 103.511L184.091 103.528C186.728 103.548 189.629 103.5 192.235 103.843C190.932 104.098 189.572 104.005 188.196 104.264C186.958 104.497 186.308 104.807 185.162 105.187C181.982 106.24 179.268 107.658 176.612 109.757C172.771 112.795 169.596 117.324 168.871 122.25C168.71 123.341 168.774 124.265 168.759 125.288C168.717 128.225 169.096 130.143 170.419 132.766C170.939 133.998 171.509 134.928 172.306 136.016C175.701 140.647 180.798 143.618 186.148 145.455C188 146.09 190.624 146.41 192.592 146.676C191.537 146.863 189.261 146.813 188.159 146.798C186.684 146.775 185.209 146.774 183.733 146.796C182.019 146.848 180.278 146.812 178.56 146.812L170.364 146.819L145.338 146.811C141.568 146.819 137.798 146.807 134.028 146.776C132.26 146.775 129.965 146.994 128.311 146.669C130.293 146.389 132.246 146.162 134.188 145.583C138.38 144.335 141.9 142.53 145.187 139.674C156.319 130.001 153.805 115.216 141.694 107.852C138.855 106.127 135.4 104.885 132.171 104.136C131.529 103.987 129.961 104.163 129.484 103.888C130.243 103.452 135.763 103.552 136.924 103.521Z" fill="#CC9933"/>
<path d="M67.6353 103.523C71.6938 103.448 75.9607 103.509 80.034 103.51L103.185 103.511C107.259 103.497 111.333 103.507 115.406 103.542C117.477 103.562 120.584 103.483 122.537 103.881C121.386 104.074 119.943 103.953 118.815 104.211C114.797 105.127 110.568 106.826 107.33 109.401C106.953 109.779 106.603 110.402 106.17 110.704C98.8165 115.91 96.7471 126.02 101.158 133.821C104.647 139.992 110.288 143.456 116.888 145.593C118.757 146.198 120.816 146.248 122.699 146.726C120.912 146.89 119.119 146.819 117.333 146.792C115.91 146.783 114.486 146.784 113.063 146.795C111.545 146.858 109.973 146.815 108.447 146.813L79.0997 146.811C74.5197 146.839 69.9396 146.826 65.3598 146.773C63.2293 146.761 61.1028 146.952 59.0059 146.683C65.1206 145.892 69.562 144.415 74.5337 140.707C83.4818 134.032 85.9682 122.182 78.5187 113.287C74.5642 108.565 69.4388 105.835 63.5324 104.298C62.3122 103.988 60.9154 104.033 59.6308 103.901L59.618 103.848C60.3766 103.507 66.3311 103.548 67.6353 103.523Z" fill="#CC9933"/>
<path d="M128.713 150.993C132.86 150.845 137.788 150.96 142.006 150.961L184.7 150.964C187.95 150.962 192.144 150.841 195.338 151.025C195.229 152.972 195.33 155.063 195.299 157.022C195.286 157.896 195.363 158.966 195.237 159.817C194.915 159.83 194.662 159.827 194.34 159.815C192.882 159.704 190.175 159.792 188.637 159.793L177.975 159.786L134.293 159.791C133.377 159.79 128.218 159.919 127.847 159.516C127.771 158.977 127.823 157.952 127.825 157.37C127.819 156.001 127.827 154.631 127.847 153.262C127.854 152.701 127.689 151.598 127.97 151.202C128.166 151.026 128.446 151.025 128.713 150.993Z" fill="#009742"/>
<path d="M56.0653 159.785C55.9577 159.139 55.9152 151.839 56.0132 151.155C56.61 150.853 63.5011 150.964 64.6354 150.964L121.844 150.965C122.08 151.001 122.371 151.014 122.534 151.167C122.576 151.346 122.61 151.819 122.589 151.983C122.434 153.149 122.913 159.391 122.217 159.909C120.944 159.693 118.272 159.781 116.854 159.785L107.702 159.792L72.6503 159.777C68.6795 159.8 64.7087 159.801 60.738 159.778C59.5637 159.772 57.1019 159.876 56.0653 159.785Z" fill="#009742"/>
<path d="M55.9927 90.6669C57.4956 90.5893 59.2342 90.6233 60.7486 90.6247L190.455 90.631C191.462 90.624 195.245 90.4851 195.944 90.7703V99.58C195.033 99.7147 193.079 99.6459 192.069 99.6442L184.739 99.6294L68.1414 99.6342C64.2692 99.6368 59.8272 99.5376 56.0049 99.6703C55.8825 96.9339 55.9816 93.4745 55.9927 90.6669Z" fill="#009742"/>
</svg>
