<svg width="250" height="250" viewBox="0 0 250 250" fill="none" xmlns="http://www.w3.org/2000/svg">
<mask id="path-1-inside-1_453_223" fill="white">
<path d="M0 125C0 55.9644 55.9644 0 125 0C194.036 0 250 55.9644 250 125C250 194.036 194.036 250 125 250C55.9644 250 0 194.036 0 125Z"/>
</mask>
<path d="M0 125C0 55.9644 55.9644 0 125 0C194.036 0 250 55.9644 250 125C250 194.036 194.036 250 125 250C55.9644 250 0 194.036 0 125Z" fill="white"/>
<path d="M0 125M250 125M250 125M0 125M125 0M250 125M125 250M0 125M125 250V248C57.069 248 2 192.931 2 125H0H-2C-2 195.14 54.8598 252 125 252V250ZM250 125H248C248 192.931 192.931 248 125 248V250V252C195.14 252 252 195.14 252 125H250ZM125 0V2C192.931 2 248 57.069 248 125H250H252C252 54.8598 195.14 -2 125 -2V0ZM125 0V-2C54.8598 -2 -2 54.8598 -2 125H0H2C2 57.069 57.069 2 125 2V0Z" fill="#DDDBDB" mask="url(#path-1-inside-1_453_223)"/>
<path d="M123.486 103.954C123.886 104 125.626 104.608 126.157 104.773C128.872 105.595 131.575 106.457 134.265 107.358C153.473 113.83 172.79 122.764 189.665 134.132C191.452 135.336 193.203 136.614 195 137.824C188.607 136.833 182.288 134.984 175.941 133.74C172.97 133.157 169.931 132.417 166.969 131.752C168.127 141.27 168.713 150.848 168.723 160.436C168.778 169.385 167.206 186.601 162.141 194.244C161.84 192.993 161.662 191.597 161.43 190.319C157.391 168.108 150.418 145.826 139.041 126.151C135.671 120.415 131.987 114.869 128.006 109.54C126.972 108.132 124.101 105.248 123.486 103.954Z" fill="#86C327"/>
<path d="M76.1597 131.216C76.5049 129.94 76.7398 128.568 77.0945 127.253C78.6074 121.765 80.2281 116.306 81.9555 110.881C86.38 97.6966 91.6972 84.8283 97.8704 72.3659C99.7317 68.5343 101.672 64.7416 103.69 60.9903C104.459 59.529 105.626 57.0982 106.44 55.7566C106.302 57.0631 106.088 58.3594 105.902 59.6596C104.646 68.4158 103.093 77.0967 101.89 85.8629C105.253 84.9958 108.853 84.6432 112.295 84.211C127.266 82.331 142.932 82.3905 157.606 86.2103C159.363 86.6676 161.102 87.1047 162.871 87.5165C163.329 87.6113 163.536 87.5613 163.776 87.8551C163.429 88.179 162.896 88.2314 162.416 88.3355C158.367 89.2229 154.252 89.9407 150.242 90.9897C130.746 96.0898 111.559 104.002 95.0046 115.633C88.3483 120.357 82.0495 125.565 76.1597 131.216Z" fill="#E67817"/>
<path d="M55 123.135C76.8392 137.699 101.434 148.575 127.578 152.101C133.925 152.957 141.339 153.328 147.749 153.578C145.9 155.012 142.311 156.836 140.232 158.131C136.713 160.323 132.732 162.296 129.039 164.2C114.772 171.535 99.9262 177.683 84.651 182.581C83.059 183.101 78.5435 184.794 77.1215 185.025L73.0852 186.378C74.0689 185.539 75.9569 184.203 77.045 183.43C79.0543 181.663 81.8664 179.96 84.0281 178.297C88.5508 174.818 93.2548 171.495 97.7908 168.042C95.4519 166.593 92.8509 164.594 90.6162 162.957C78.8692 154.35 68.0563 143.953 60.0333 131.742C58.617 129.586 55.9085 125.485 55 123.135Z" fill="#7B2F7E"/>
<path d="M113.308 124.353C115.62 123.817 118.041 124.566 119.646 126.313C121.251 128.061 121.792 130.537 121.062 132.794C120.332 135.052 118.444 136.742 116.119 137.219C112.589 137.943 109.132 135.695 108.362 132.174C107.593 128.653 109.797 125.167 113.308 124.353Z" fill="#E67817"/>
</svg>
