<svg width="250" height="250" viewBox="0 0 250 250" fill="none" xmlns="http://www.w3.org/2000/svg">
<mask id="path-1-inside-1_453_169" fill="white">
<path d="M0 125C0 55.9644 55.9644 0 125 0C194.036 0 250 55.9644 250 125C250 194.036 194.036 250 125 250C55.9644 250 0 194.036 0 125Z"/>
</mask>
<path d="M0 125C0 55.9644 55.9644 0 125 0C194.036 0 250 55.9644 250 125C250 194.036 194.036 250 125 250C55.9644 250 0 194.036 0 125Z" fill="white"/>
<path d="M0 125M250 125M250 125M0 125M125 0M250 125M125 250M0 125M125 250V248C57.069 248 2 192.931 2 125H0H-2C-2 195.14 54.8598 252 125 252V250ZM250 125H248C248 192.931 192.931 248 125 248V250V252C195.14 252 252 195.14 252 125H250ZM125 0V2C192.931 2 248 57.069 248 125H250H252C252 54.8598 195.14 -2 125 -2V0ZM125 0V-2C54.8598 -2 -2 54.8598 -2 125H0H2C2 57.069 57.069 2 125 2V0Z" fill="#DDDBDB" mask="url(#path-1-inside-1_453_169)"/>
<path d="M124.875 50.011L79.9209 125.149H124.875V50.011Z" fill="#0187BC"/>
<path d="M124.875 50.011L169.829 125.149H124.875V50.011Z" fill="#01B3F1"/>
<path d="M77.3524 130.286L67.0771 147.304H124.875V130.286H77.3524Z" fill="#202159"/>
<path d="M172.398 130.286L182.673 147.304H124.875V130.286H172.398Z" fill="#202159"/>
<path d="M172.398 130.286L182.673 147.304H124.875V130.286H172.398Z" fill="url(#paint0_linear_453_169)" fill-opacity="0.2"/>
<path d="M65.1502 152.763L54.875 169.46H125.196V152.763H65.1502Z" fill="#202159"/>
<path d="M184.6 152.763L194.875 169.46H125.196V152.763H184.6Z" fill="#202159"/>
<path d="M184.6 152.763L194.875 169.46H125.196V152.763H184.6Z" fill="url(#paint1_linear_453_169)" fill-opacity="0.2"/>
<defs>
<linearGradient id="paint0_linear_453_169" x1="182.673" y1="138.795" x2="124.875" y2="138.795" gradientUnits="userSpaceOnUse">
<stop stop-color="white" stop-opacity="0"/>
<stop offset="0.5" stop-color="white" stop-opacity="0.2"/>
<stop offset="1" stop-color="white"/>
</linearGradient>
<linearGradient id="paint1_linear_453_169" x1="194.875" y1="161.112" x2="125.196" y2="161.112" gradientUnits="userSpaceOnUse">
<stop stop-color="white" stop-opacity="0"/>
<stop offset="0.5" stop-color="white" stop-opacity="0.2"/>
<stop offset="1" stop-color="white"/>
</linearGradient>
</defs>
</svg>
