<svg width="250" height="250" viewBox="0 0 250 250" fill="none" xmlns="http://www.w3.org/2000/svg">
<mask id="path-1-inside-1_453_255" fill="white">
<path d="M0 125C0 55.9644 55.9644 0 125 0C194.036 0 250 55.9644 250 125C250 194.036 194.036 250 125 250C55.9644 250 0 194.036 0 125Z"/>
</mask>
<path d="M0 125C0 55.9644 55.9644 0 125 0C194.036 0 250 55.9644 250 125C250 194.036 194.036 250 125 250C55.9644 250 0 194.036 0 125Z" fill="white"/>
<path d="M0 125M250 125M250 125M0 125M125 0M250 125M125 250M0 125M125 250V248C57.069 248 2 192.931 2 125H0H-2C-2 195.14 54.8598 252 125 252V250ZM250 125H248C248 192.931 192.931 248 125 248V250V252C195.14 252 252 195.14 252 125H250ZM125 0V2C192.931 2 248 57.069 248 125H250H252C252 54.8598 195.14 -2 125 -2V0ZM125 0V-2C54.8598 -2 -2 54.8598 -2 125H0H2C2 57.069 57.069 2 125 2V0Z" fill="#DDDBDB" mask="url(#path-1-inside-1_453_255)"/>
<path fill-rule="evenodd" clip-rule="evenodd" d="M174.392 63.9163L174.35 103.287L115.123 103.28L115.182 122.97C107.741 123.084 99.0169 123.196 91.601 122.925C95.959 128.034 100.067 133.467 104.318 138.674C106.878 141.811 109.787 145.421 113.79 141.671C115.207 139.917 115.258 138.465 115.287 136.285C115.344 131.862 115.155 127.39 115.251 122.971L174.359 122.948L174.355 162.676C167.241 162.828 159.837 162.727 152.698 162.724L115.142 162.729L115.189 186.088C115.196 189.716 115.252 193.398 115.192 197.025C115.163 198.779 114.902 200.35 113.508 201.577C112.58 202.383 111.367 202.78 110.142 202.681C106.691 202.428 105.212 199.227 103.205 196.894C100.862 194.169 98.638 191.348 96.4145 188.526C91.526 182.362 86.586 176.239 81.5951 170.158C79.5856 167.706 77.8127 165.313 75.7172 162.894C75.4967 149.673 75.8119 136.225 75.6488 122.946C80.9898 122.974 86.3308 122.96 91.6713 122.905C89.2797 120.523 86.0299 115.956 83.7445 113.238C81.0584 110.042 78.2883 106.611 75.7299 103.309C75.4323 93.1135 75.9168 82.7431 75.6811 72.5295C75.6167 69.7416 75.5599 66.7261 75.6733 63.9573L75.7699 63.3088C82.4772 63.6326 89.9588 63.4796 96.7318 63.4807L131.031 63.4827L158.386 63.4788C163.113 63.4777 169.791 63.6494 174.383 63.304L174.392 63.9163Z" fill="#0EC16E"/>
</svg>
