<svg width="250" height="250" viewBox="0 0 250 250" fill="none" xmlns="http://www.w3.org/2000/svg">
<mask id="path-1-inside-1_453_257" fill="white">
<path d="M0 125C0 55.9644 55.9644 0 125 0C194.036 0 250 55.9644 250 125C250 194.036 194.036 250 125 250C55.9644 250 0 194.036 0 125Z"/>
</mask>
<path d="M0 125C0 55.9644 55.9644 0 125 0C194.036 0 250 55.9644 250 125C250 194.036 194.036 250 125 250C55.9644 250 0 194.036 0 125Z" fill="white"/>
<path d="M0 125M250 125M250 125M0 125M125 0M250 125M125 250M0 125M125 250V248C57.069 248 2 192.931 2 125H0H-2C-2 195.14 54.8598 252 125 252V250ZM250 125H248C248 192.931 192.931 248 125 248V250V252C195.14 252 252 195.14 252 125H250ZM125 0V2C192.931 2 248 57.069 248 125H250H252C252 54.8598 195.14 -2 125 -2V0ZM125 0V-2C54.8598 -2 -2 54.8598 -2 125H0H2C2 57.069 57.069 2 125 2V0Z" fill="#DDDBDB" mask="url(#path-1-inside-1_453_257)"/>
<path d="M112.023 144.985V143.295C112.056 137.495 112.57 132.871 113.564 129.424C114.591 125.977 116.083 123.193 118.038 121.072C119.994 118.951 122.347 117.029 125.098 115.305C127.153 113.979 128.992 112.604 130.616 111.179C132.241 109.753 133.533 108.179 134.494 106.456C135.455 104.699 135.936 102.743 135.936 100.589C135.936 98.3022 135.389 96.297 134.295 94.5735C133.202 92.85 131.727 91.5242 129.871 90.5962C128.048 89.6682 126.026 89.2042 123.805 89.2042C121.651 89.2042 119.613 89.6848 117.69 90.6459C115.768 91.574 114.194 92.966 112.967 94.8221C111.741 96.645 111.078 98.9153 110.979 101.633H90.6946C90.8603 95.0044 92.4512 89.5356 95.4673 85.2269C98.4834 80.885 102.477 77.6535 107.449 75.5323C112.42 73.3779 117.906 72.3008 123.905 72.3008C130.5 72.3008 136.334 73.3945 141.405 75.582C146.476 77.7364 150.453 80.8685 153.337 84.9783C156.22 89.0882 157.662 94.0432 157.662 99.8434C157.662 103.721 157.016 107.168 155.723 110.184C154.464 113.167 152.69 115.819 150.403 118.139C148.116 120.426 145.415 122.497 142.3 124.353C139.681 125.911 137.527 127.535 135.837 129.225C134.179 130.916 132.937 132.871 132.108 135.092C131.313 137.313 130.898 140.047 130.865 143.295V144.985H112.023ZM121.866 176.804C118.552 176.804 115.718 175.644 113.365 173.323C111.045 170.97 109.902 168.153 109.935 164.872C109.902 161.624 111.045 158.84 113.365 156.52C115.718 154.199 118.552 153.039 121.866 153.039C125.015 153.039 127.783 154.199 130.169 156.52C132.555 158.84 133.765 161.624 133.798 164.872C133.765 167.059 133.185 169.064 132.058 170.887C130.964 172.677 129.523 174.119 127.733 175.213C125.943 176.273 123.988 176.804 121.866 176.804Z" fill="#FF0000"/>
</svg>
