<svg width="250" height="250" viewBox="0 0 250 250" fill="none" xmlns="http://www.w3.org/2000/svg">
<path d="M0 125C0 55.9644 55.9644 0 125 0C194.036 0 250 55.9644 250 125C250 194.036 194.036 250 125 250C55.9644 250 0 194.036 0 125Z" fill="white"/>
<path d="M174.392 63.916L174.35 103.287L115.124 103.279L115.182 122.97C107.741 123.084 99.0171 123.196 91.6011 122.925C95.9591 128.033 100.068 133.467 104.318 138.674C106.878 141.811 109.787 145.42 113.791 141.671C115.207 139.917 115.258 138.465 115.287 136.285C115.345 131.862 115.155 127.389 115.252 122.971L174.358 122.947L174.355 162.676C167.241 162.828 159.837 162.727 152.698 162.724L115.142 162.729L115.189 186.088C115.196 189.716 115.252 193.398 115.192 197.024C115.163 198.779 114.902 200.35 113.508 201.577C112.581 202.383 111.367 202.78 110.142 202.681C106.691 202.428 105.212 199.226 103.206 196.894C100.862 194.169 98.6381 191.348 96.4146 188.525C91.5261 182.362 86.5861 176.239 81.5953 170.158C79.5857 167.706 77.8128 165.313 75.7173 162.894C75.4968 149.673 75.812 136.225 75.649 122.945C80.9898 122.974 86.3309 122.96 91.6714 122.904C89.2799 120.523 86.0301 115.956 83.7447 113.237C81.0586 110.042 78.2884 106.611 75.73 103.309C75.4324 93.1132 75.916 82.7429 75.6802 72.5293C75.6158 69.7414 75.56 66.7258 75.6734 63.957L75.7701 63.3086C82.4773 63.6323 89.959 63.4794 96.732 63.4805L131.03 63.4824L158.386 63.4785C163.113 63.4774 169.791 63.6492 174.383 63.3037L174.392 63.916Z" fill="#0EC16E"/>
</svg>
