<svg width="250" height="250" viewBox="0 0 250 250" fill="none" xmlns="http://www.w3.org/2000/svg">
<path d="M0 125C0 55.9644 55.9644 0 125 0C194.036 0 250 55.9644 250 125C250 194.036 194.036 250 125 250C55.9644 250 0 194.036 0 125Z" fill="white"/>
<g clip-path="url(#clip0_1_775)">
<path d="M103.192 142.429C103.559 142.449 103.852 142.623 104.113 142.88C111.203 149.864 118.129 157.019 125.285 163.936C125.983 164.612 126.622 165.354 127.312 166.043L135.996 174.716C138.022 176.74 140.163 178.687 142.069 180.818C142.485 181.387 141.162 182.198 140.834 182.489C138.274 184.765 135.195 186.501 132.101 187.934C131.113 188.361 130.057 188.585 129.035 188.897C123.406 190.621 117.744 190.127 112.323 187.789C106.496 184.992 102.457 180.492 97.9925 175.98L90.1785 168.204L77.3397 155.405C76.6718 154.731 72.6944 150.992 72.6729 150.426L72.7563 150.366C73.2452 150.408 74.0147 150.683 74.5297 150.812C75.506 151.056 76.546 151.338 77.5306 151.509C80.717 152.06 83.4431 152.178 86.6238 151.549C87.6544 151.342 88.9002 151.223 89.8902 150.868C94.1731 149.335 98.2589 147.139 101.533 143.937C101.996 143.484 102.689 142.775 103.192 142.429Z" fill="#000082"/>
<path d="M115.066 94.7617C115.692 94.9379 118.503 97.9384 119.147 98.5926L126.043 105.484C126.995 106.442 128.745 108.32 129.735 109.165C129.299 109.789 128.297 110.744 127.743 111.285C126.927 112.083 126.121 112.89 125.323 113.707C122.227 116.902 119.158 120.139 115.887 123.16C113.321 125.53 111.019 128.626 107.687 129.906C106.227 130.428 104.663 130.596 103.126 130.396C97.2997 129.598 92.9105 123.893 93.8249 118.07C94.3557 114.69 97.0301 112.567 99.3423 110.306L105.357 104.366L111.676 98.0424C112.593 97.1243 114.092 95.4826 115.066 94.7617Z" fill="#DAA621"/>
<path d="M150.89 73.9361C150.733 73.4261 150.412 72.5899 150.533 72.1064L150.627 72.0117C151.166 72.2318 153.138 74.1631 153.424 74.6341C154.102 75.4564 154.855 76.0957 155.597 76.8597L160.192 81.6055L175.497 97.3656C177.818 99.7297 180.284 101.984 182.375 104.541C183.306 105.678 184.291 106.719 185.195 107.899C188.902 112.74 191.504 118.411 190.989 124.635C190.686 128.316 189.335 131.72 187.285 134.804C186.759 135.614 185.701 136.818 185.045 137.592C182.56 140.523 179.885 143.278 177.187 146.011C176.684 146.521 176.217 147.1 175.696 147.617C173.182 150.117 170.752 152.664 168.127 155.048C166.827 156.229 165.476 157.738 164.109 158.857C163.304 159.499 162.563 160.225 161.814 160.931C161.381 161.339 160.75 161.761 160.361 162.175C159.224 163.388 158.051 164.219 156.727 165.192C154.743 166.697 152.664 167.701 150.281 168.398C148.392 168.95 146.336 169.44 144.378 169.209C140.859 168.793 137.767 167.828 134.745 165.97C132.977 164.882 131.222 163.954 129.663 162.493C125.89 159.449 122.505 155.992 119.061 152.587L112.237 145.857C111.216 144.854 110.118 143.838 109.122 142.828L105.202 138.876C104.488 138.167 103.161 136.867 102.383 136.256C102.066 135.744 101.756 135.412 101.359 134.963C102.536 134.784 103.383 135.08 104.444 135.163C106.061 135.241 107.7 134.886 109.216 134.4C112.502 133.346 114.339 131.17 116.693 128.843L123.959 121.646C127.444 118.239 130.939 114.895 134.34 111.389C135.65 110.105 136.842 108.691 138.138 107.396C142.549 102.985 146.806 99.2199 149.607 93.5044C152.582 87.4014 153.042 80.3751 150.89 73.9361Z" fill="#DAA621"/>
<path d="M119.85 56.5957H124.329C124.537 56.8984 124.623 56.8924 124.993 56.9431C138.977 58.8154 150.151 72.7535 147.036 86.9406C145.301 94.8437 139.374 99.3474 134.124 104.936C133.514 105.586 133.302 105.953 132.482 106.404C130.761 104.485 128.688 102.491 126.845 100.654L116.199 90.0277C115.68 89.505 115.097 89.0268 114.616 88.5371C113.94 89.3123 113.217 89.9789 112.499 90.7121C110.993 92.2563 109.466 93.78 107.918 95.2826L97.1297 105.988C94.832 108.293 92.7428 109.932 91.0003 112.769C86.8779 119.481 89.4423 127.826 95.5948 132.278C97.6228 133.745 98.9113 134.204 101.317 134.929C101.714 135.379 102.024 135.711 102.341 136.223C102.132 137.112 99.1296 139.757 98.2744 140.486C96.8807 141.698 95.5696 142.822 94.0116 143.811C90.8853 145.792 88.3354 146.569 84.6815 147.002C78.4307 147.692 72.1607 145.882 67.2392 141.968C57.2598 134.076 53.3296 121.012 60.4148 109.862C62.282 106.924 64.3565 104.936 66.8139 102.523C68.1731 101.184 69.5256 99.8376 70.8711 98.4847L89.6038 79.8014L102.139 67.2894C103.945 65.5213 106.055 63.1958 108.039 61.72C110.178 60.1287 113.167 58.5168 115.718 57.6564C116.845 57.2762 118.492 57.0588 119.684 56.8024C119.74 56.7335 119.795 56.6646 119.85 56.5957Z" fill="#000082"/>
</g>
<defs>
<clipPath id="clip0_1_775">
<rect width="140" height="136.831" fill="white" transform="translate(54.875 56.5957)"/>
</clipPath>
</defs>
</svg>
