<svg width="250" height="250" viewBox="0 0 250 250" fill="none" xmlns="http://www.w3.org/2000/svg">
<path d="M0 125C0 55.9644 55.9644 0 125 0C194.036 0 250 55.9644 250 125C250 194.036 194.036 250 125 250C55.9644 250 0 194.036 0 125Z" fill="white"/>
<path d="M77.3594 143.011C77.3594 137.488 81.8365 133.011 87.3594 133.011H105.359V161.011C105.359 175.37 93.7188 187.011 79.3594 187.011H77.3594V143.011Z" fill="url(#paint0_linear_1_790)"/>
<path d="M77.3594 99.0107V118.511L78.5465 115.147C81.5895 106.525 88.3766 99.7479 97.0026 96.7172C100.217 95.5877 103.6 95.0107 107.007 95.0107H142.359C158.928 95.0107 172.359 81.5793 172.359 65.0107V63.0107H113.359C93.4771 63.0107 77.3594 79.1285 77.3594 99.0107Z" fill="url(#paint1_linear_1_790)"/>
<path d="M77.3594 135.011V152.011C81.2011 144.007 88.0809 137.852 96.4568 134.909C100.028 133.654 103.793 133.011 107.579 133.011H127.359C140.062 133.011 150.359 122.713 150.359 110.011V108.011H104.359C89.4477 108.011 77.3594 120.099 77.3594 135.011Z" fill="url(#paint2_linear_1_790)"/>
<defs>
<linearGradient id="paint0_linear_1_790" x1="91.3594" y1="187.011" x2="91.3594" y2="133.011" gradientUnits="userSpaceOnUse">
<stop stop-color="#E98C24"/>
<stop offset="0.5" stop-color="#DC6926"/>
<stop offset="1" stop-color="#CD5B27"/>
</linearGradient>
<linearGradient id="paint1_linear_1_790" x1="172.359" y1="90.7607" x2="77.3594" y2="90.7607" gradientUnits="userSpaceOnUse">
<stop stop-color="#A74497"/>
<stop offset="0.25" stop-color="#973693"/>
<stop offset="0.5" stop-color="#823693"/>
<stop offset="1" stop-color="#693E97"/>
</linearGradient>
<linearGradient id="paint2_linear_1_790" x1="150.359" y1="130.011" x2="77.3594" y2="130.011" gradientUnits="userSpaceOnUse">
<stop stop-color="#40B56E"/>
<stop offset="0.25" stop-color="#59BC8E"/>
<stop offset="0.5" stop-color="#68C1AD"/>
<stop offset="1" stop-color="#6BC5C6"/>
</linearGradient>
</defs>
</svg>
