<svg width="250" height="250" viewBox="0 0 250 250" fill="none" xmlns="http://www.w3.org/2000/svg">
<mask id="path-1-inside-1_453_244" fill="white">
<path d="M0 125C0 55.9644 55.9644 0 125 0C194.036 0 250 55.9644 250 125C250 194.036 194.036 250 125 250C55.9644 250 0 194.036 0 125Z"/>
</mask>
<path d="M0 125C0 55.9644 55.9644 0 125 0C194.036 0 250 55.9644 250 125C250 194.036 194.036 250 125 250C55.9644 250 0 194.036 0 125Z" fill="white"/>
<path d="M0 125M250 125M250 125M0 125M125 0M250 125M125 250M0 125M125 250V248C57.069 248 2 192.931 2 125H0H-2C-2 195.14 54.8598 252 125 252V250ZM250 125H248C248 192.931 192.931 248 125 248V250V252C195.14 252 252 195.14 252 125H250ZM125 0V2C192.931 2 248 57.069 248 125H250H252C252 54.8598 195.14 -2 125 -2V0ZM125 0V-2C54.8598 -2 -2 54.8598 -2 125H0H2C2 57.069 57.069 2 125 2V0Z" fill="#DDDBDB" mask="url(#path-1-inside-1_453_244)"/>
<path fill-rule="evenodd" clip-rule="evenodd" d="M190.987 56.9931C193.197 56.9931 194.988 58.7751 194.987 60.9847C194.976 101.404 194.994 171.538 194.999 188.958C194.999 191.17 193.206 192.96 190.994 192.958L114.679 192.874C114.679 192.874 114.512 139.279 114.49 112.72L114.447 94.002C114.427 85.2637 113.722 74.8715 120.613 68.2538C123.817 65.2118 128.093 63.5579 132.51 63.6517C135.544 63.7184 139.503 64.7793 141.659 67.029C143.138 68.5733 144.256 71.4723 144.084 73.6288C143.288 83.6581 132.969 89.5891 129.47 98.4431C128.077 101.814 127.794 105.304 127.859 108.911C127.912 111.824 128.006 114.367 130.107 116.664C132.605 119.394 137.183 119.542 139.821 116.944C141.68 115.113 142.033 113.522 141.991 111.003C142.056 109 141.815 104.618 142.639 103.017C144.313 99.8911 147.148 97.467 149.279 94.619C155.961 85.6879 161.322 73.5575 155.682 62.7705C154.769 61.0248 153.177 57.5044 151.149 56.9931H190.987Z" fill="#089D3C"/>
<path d="M55.0044 60.9943C55.002 58.7835 56.7935 56.99 59.0044 56.99H112.134C106.318 61.9355 101.703 71.0782 100.983 78.6197C100.342 85.3322 100.677 92.4152 100.707 99.186C100.736 130.46 100.876 193.009 100.876 193.009L59.1426 192.999C56.9355 192.998 55.146 191.21 55.1436 189.003L55.0044 60.9943Z" fill="#089D3C"/>
</svg>
