<svg width="250" height="250" viewBox="0 0 250 250" fill="none" xmlns="http://www.w3.org/2000/svg">
<mask id="path-1-inside-1_453_236" fill="white">
<path d="M0 125C0 55.9644 55.9644 0 125 0C194.036 0 250 55.9644 250 125C250 194.036 194.036 250 125 250C55.9644 250 0 194.036 0 125Z"/>
</mask>
<path d="M0 125C0 55.9644 55.9644 0 125 0C194.036 0 250 55.9644 250 125C250 194.036 194.036 250 125 250C55.9644 250 0 194.036 0 125Z" fill="white"/>
<path d="M0 125M250 125M250 125M0 125M125 0M250 125M125 250M0 125M125 250V248C57.069 248 2 192.931 2 125H0H-2C-2 195.14 54.8598 252 125 252V250ZM250 125H248C248 192.931 192.931 248 125 248V250V252C195.14 252 252 195.14 252 125H250ZM125 0V2C192.931 2 248 57.069 248 125H250H252C252 54.8598 195.14 -2 125 -2V0ZM125 0V-2C54.8598 -2 -2 54.8598 -2 125H0H2C2 57.069 57.069 2 125 2V0Z" fill="#DDDBDB" mask="url(#path-1-inside-1_453_236)"/>
<path fill-rule="evenodd" clip-rule="evenodd" d="M99.93 86.9234V84.1076C99.93 77.8056 111.758 73.9287 116.507 80.3533C123.065 77.5028 133.089 78.8968 138.63 82.8363C142.194 85.369 144.091 87.1837 146.039 91.1429C155.867 111.135 129.52 128.447 111.761 116.567C109.04 114.747 108.073 113.763 106.134 111.338C105.347 110.352 104.651 109.236 104.065 108.05C101.101 102.038 101.999 98.1333 103.554 92.0841C101.971 91.1255 99.9272 89.271 99.9272 86.9207L99.93 86.9234ZM75.5828 99.5951C75.5828 111.311 80.8644 122.251 89.1735 130.462C90.2176 131.493 91.0187 132.124 92.1596 132.92C104.281 141.377 110.007 144.183 127.904 144.183C141.078 144.183 154.105 136.924 160.682 130.697C174.024 118.068 178.449 98.0533 170.378 81.76C162.861 66.588 146.08 55 127.904 55H122.205C109.032 55 96.0047 62.2581 89.4276 68.4851C81.0384 76.4266 75.5801 88.0494 75.5801 99.59L75.5828 99.5951Z" fill="#EC0C27"/>
<path fill-rule="evenodd" clip-rule="evenodd" d="M75.5856 153.105C75.5856 163.908 82.0936 174.73 89.7011 181.62C94.2755 185.762 96.7146 187.549 102.866 190.342C116.369 196.474 132.981 196.577 146.384 190.5C162.069 183.39 174.01 169.066 174.01 150.758H147.072C147.072 156.845 144.373 160.824 141.227 164.238C136.396 169.479 129.909 170.473 122.722 170.473C112.786 170.473 102.518 161.973 102.518 150.758H75.5801V153.105H75.5856Z" fill="#EC0C27"/>
</svg>
