<svg width="250" height="250" viewBox="0 0 250 250" fill="none" xmlns="http://www.w3.org/2000/svg">
<path d="M0 125C0 55.9644 55.9644 0 125 0C194.036 0 250 55.9644 250 125C250 194.036 194.036 250 125 250C55.9644 250 0 194.036 0 125Z" fill="white"/>
<path fill-rule="evenodd" clip-rule="evenodd" d="M99.9305 86.9234V84.1076C99.9305 77.8056 111.759 73.9287 116.507 80.3533C123.065 77.5028 133.089 78.8968 138.631 82.8363C142.194 85.369 144.092 87.1837 146.039 91.1429C155.868 111.135 129.521 128.447 111.762 116.567C109.041 114.747 108.074 113.763 106.135 111.338C105.347 110.352 104.651 109.236 104.066 108.05C101.102 102.038 101.999 98.1333 103.555 92.0841C101.972 91.1255 99.9277 89.271 99.9277 86.9207L99.9305 86.9234ZM75.5833 99.5951C75.5833 111.311 80.8649 122.251 89.174 130.462C90.2181 131.493 91.0192 132.124 92.1601 132.92C104.281 141.377 110.008 144.183 127.905 144.183C141.078 144.183 154.105 136.924 160.682 130.697C174.024 118.068 178.45 98.0533 170.378 81.76C162.862 66.588 146.081 55 127.905 55H122.206C109.032 55 96.0052 62.2581 89.4281 68.4851C81.0389 76.4266 75.5806 88.0494 75.5806 99.59L75.5833 99.5951Z" fill="#EC0C27"/>
<path fill-rule="evenodd" clip-rule="evenodd" d="M75.5861 153.105C75.5861 163.908 82.0941 174.73 89.7016 181.62C94.276 185.762 96.7151 187.549 102.867 190.342C116.369 196.474 132.982 196.577 146.385 190.5C162.069 183.39 174.011 169.066 174.011 150.758H147.072C147.072 156.845 144.373 160.824 141.227 164.238C136.396 169.479 129.91 170.473 122.723 170.473C112.786 170.473 102.519 161.973 102.519 150.758H75.5806V153.105H75.5861Z" fill="#EC0C27"/>
</svg>
