<svg width="250" height="250" viewBox="0 0 250 250" fill="none" xmlns="http://www.w3.org/2000/svg">
<path d="M0 125C0 55.9644 55.9644 0 125 0C194.036 0 250 55.9644 250 125C250 194.036 194.036 250 125 250C55.9644 250 0 194.036 0 125Z" fill="white"/>
<path d="M175.602 89.9669C177.521 90.4808 177.882 91.0515 177.675 88.4081C177.32 83.8482 178.007 79.3933 179.324 74.9442C179.79 76.4972 180.301 78.0361 180.715 79.6034C181.476 82.4683 182.439 85.2849 182.459 88.3144C182.476 91.077 182.002 93.6807 180.355 95.9436C179.696 96.8465 179.665 97.5819 180.071 98.6324C180.775 100.467 181.181 102.414 181.769 104.297C181.905 104.734 182.28 105.095 182.547 105.489C182.822 105.143 183.22 104.839 183.353 104.444C183.623 103.647 183.779 102.806 183.93 101.974C184.214 100.387 184.591 98.851 185.534 97.4967C186.635 95.918 187.697 94.311 188.949 92.4569C189.02 93.1838 189.106 93.6579 189.111 94.1349C189.143 97.0623 189.165 99.9896 189.174 102.917C189.182 105.058 188.913 107.164 188.024 109.124C187.277 110.77 186.295 112.218 184.228 112.42C184.069 112.437 183.836 112.999 183.847 113.3C183.941 115.563 184.08 117.823 184.228 120.083C184.276 120.816 184.392 121.543 184.634 122.346C187.149 118.371 190.562 115.239 193.793 111.605C193.884 112.045 193.989 112.252 193.955 112.437C193.41 115.444 192.95 118.473 192.254 121.446C191.604 124.223 190.318 126.73 188.37 128.871C187.229 130.126 185.9 130.901 184.157 130.657C183.603 130.58 183.345 130.711 183.308 131.259C183.135 133.976 182.964 136.693 182.797 139.413C182.794 139.447 182.853 139.484 183.072 139.731C183.873 139.078 184.71 138.442 185.497 137.749C187.964 135.569 190.207 133.104 193.191 131.582C193.737 131.304 194.392 131.242 195 131.08C194.841 131.639 194.753 132.235 194.512 132.755C193.123 135.745 191.786 138.76 190.267 141.682C188.342 145.384 185.119 147.497 181.139 148.479C180.324 148.681 179.85 149.044 179.492 149.782C178.322 152.193 177.09 154.575 175.889 156.971C175.767 157.216 175.698 157.488 175.605 157.747C175.679 157.837 175.755 157.928 175.829 158.019C176.587 157.48 177.337 156.929 178.101 156.401C178.714 155.978 179.293 155.444 179.974 155.191C183.237 153.979 186.53 152.846 189.938 151.639C189.997 152.707 189.892 153.647 189.225 154.322C186.547 157.037 183.944 159.845 181.059 162.321C179.304 163.825 177.172 165.08 174.659 164.947C173.697 164.896 172.729 164.592 171.811 164.266C171.232 164.058 170.886 164.07 170.474 164.555C168.441 166.957 166.377 169.331 164.327 171.719C164.242 171.818 164.208 171.96 164.035 172.329C169.617 171.191 175.026 170.032 180.889 170.12C180.497 170.64 180.355 170.921 180.131 171.114C178.137 172.832 176.147 174.552 174.125 176.236C172.067 177.948 169.463 178.224 166.99 178.652C165.173 178.967 163.245 178.908 161.4 178.706C160.236 178.578 159.148 177.843 158.001 177.448C157.609 177.312 157.022 177.201 156.729 177.392C153.966 179.2 150.982 180.569 147.97 181.883C147.811 181.952 147.697 182.116 147.24 182.522C153.782 183.462 160.014 184.359 166.246 185.256C166.278 185.396 166.306 185.535 166.337 185.671C165.982 185.884 165.653 186.162 165.27 186.296C160.897 187.806 156.491 189.166 151.794 189.138C149.29 189.124 146.919 188.587 144.869 187.096C144.165 186.582 143.484 185.904 143.081 185.146C142.672 184.379 142.257 184.263 141.53 184.484C139.37 185.143 137.203 185.773 135.043 186.435C134.855 186.492 134.594 186.693 134.58 186.849C134.563 187.037 134.727 187.301 134.892 187.429C135.148 187.627 135.46 187.766 135.767 187.886C139.938 189.513 143.859 191.656 147.825 193.706C148.464 194.036 148.981 194.595 149.821 195.256C149.256 195.359 149.046 195.452 148.853 195.427C144.702 194.896 140.514 194.584 136.505 193.232C133.654 192.272 131.17 190.662 128.739 188.956C128.495 188.783 128.137 188.371 128.197 188.226C128.68 187.094 127.862 187.304 127.283 187.292C126.576 187.278 125.866 187.287 125.159 187.312C123.685 187.366 122.465 187.664 121.164 188.718C117.612 191.597 113.478 193.439 108.884 194.064C106.181 194.43 103.475 194.768 100.769 195.12C100.704 195.009 100.642 194.896 100.576 194.785C101.068 194.371 101.499 193.84 102.058 193.564C106.184 191.514 110.335 189.515 114.472 187.494C114.767 187.349 115.142 187.221 115.287 186.971C115.395 186.787 115.25 186.21 115.105 186.162C112.771 185.424 110.426 184.726 108.064 184.075C107.811 184.007 107.288 184.223 107.181 184.447C105.806 187.301 103.191 188.09 100.4 188.632C96.2039 189.45 92.28 188.124 88.3248 187.102C86.7944 186.707 85.318 186.108 83.8274 185.37C90.017 183.743 96.3657 183.312 102.658 181.966C102.362 181.784 102.076 181.582 101.769 181.423C99.0545 180.026 96.326 178.658 93.6286 177.227C93.0267 176.906 92.5951 176.821 91.9676 177.204C89.6082 178.647 87.0159 178.945 84.3299 178.519C82.5639 178.241 80.7467 178.067 79.0659 177.508C76.4367 176.634 74.2703 174.899 72.2601 173.03C71.201 172.048 70.318 170.875 69.3867 169.822C74.8069 169.663 80.2896 170.81 85.9455 172.011C85.7836 171.636 85.7325 171.367 85.5764 171.182C83.6087 168.848 81.6383 166.517 79.6281 164.22C79.4094 163.97 78.8132 163.732 78.5889 163.851C75.4117 165.58 72.5554 164.47 70 162.641C67.7144 161.003 65.6956 158.987 63.6144 157.076C62.7172 156.253 61.9364 155.296 61.1329 154.373C60.4373 153.578 59.9546 152.69 60.1164 151.457C60.4685 151.54 60.7751 151.58 61.0619 151.682C64.0801 152.747 67.1266 153.737 70.0909 154.933C71.2805 155.413 72.2885 156.35 73.3759 157.082C73.6769 157.284 73.9693 157.491 74.4549 157.823C74.4066 157.355 74.4492 157.068 74.3441 156.855C73.1204 154.416 71.8342 152.008 70.6559 149.549C70.2896 148.786 69.7984 148.417 69.0176 148.215C65.5764 147.321 62.598 145.637 60.5792 142.647C59.5344 141.1 58.7479 139.365 57.95 137.667C56.9137 135.461 55.9796 133.201 55 130.961C55.0568 130.858 55.1136 130.756 55.1675 130.654C55.866 130.924 56.6752 131.046 57.243 131.483C59.7359 133.405 62.1607 135.418 64.6053 137.403C65.4259 138.07 66.2323 138.754 67.0443 139.43C67.1266 139.359 67.2118 139.288 67.2942 139.217C67.0755 136.299 66.8597 133.38 66.6525 130.611C65.6161 130.444 64.4293 130.58 63.711 130.063C62.3595 129.095 61.0165 127.914 60.1363 126.528C57.95 123.087 57.1777 119.141 56.6979 115.137C56.5588 113.976 56.3231 112.823 56.0875 111.392C58.1999 112.92 59.4889 114.885 61.0307 116.594C62.561 118.292 63.9665 120.103 65.5707 122.037C65.7013 121 65.8688 120.026 65.9398 119.047C66.0789 117.116 66.1755 115.185 66.2606 113.252C66.2862 112.667 66.3203 112.329 65.3947 112.096C63.5009 111.622 62.385 110.001 61.8484 108.175C61.4026 106.653 61.0534 105.052 61.0023 103.473C60.8887 100.078 60.9909 96.6761 61.0108 93.2775C61.0136 93.0078 61.0818 92.7352 61.1442 92.2724C63.5974 95.6937 66.1329 98.8453 66.4679 103.099C66.5048 103.556 66.6411 104.036 66.8541 104.442C67.0045 104.726 67.3623 104.902 67.6263 105.123C67.8478 104.845 68.1715 104.598 68.2737 104.283C69.0006 102.003 69.6934 99.7113 70.3634 97.4143C70.4458 97.1361 70.46 96.7102 70.3066 96.5058C67.0471 92.2184 67.1834 87.474 68.4497 82.6046C69.134 79.9697 69.9716 77.3746 70.971 74.7284C71.1244 75.2763 71.3401 75.8158 71.4253 76.3752C72.0244 80.3814 72.8677 84.3621 72.4532 88.4592C72.2856 90.1259 72.3651 90.1315 73.9949 89.8164C74.1766 89.7823 74.3668 89.7823 74.5514 89.7681C74.5769 89.7511 74.6025 89.734 74.6252 89.717C77.0443 87.1758 80.0227 85.4779 83.2567 84.2656C84.8524 83.6665 86.5957 83.462 88.2709 83.0787C88.3135 83.1781 88.3589 83.2803 88.4015 83.3797C85.5707 85.8272 82.7882 88.3371 79.8864 90.6994C78.0097 92.2269 75.8773 93.3485 73.3816 93.5898C73.0721 93.621 72.6292 93.905 72.5298 94.1775C71.4253 97.2156 70.3748 100.271 69.3101 103.323C69.452 103.417 69.5911 103.513 69.7331 103.607C70.3947 102.891 71.0846 102.201 71.7093 101.455C72.8876 100.046 73.9892 98.5756 75.1959 97.1929C76.3884 95.8272 79.8325 94.0611 81.9222 93.7176C80.1931 96.4234 78.6343 99.0413 76.8967 101.534C74.9205 104.368 72.632 107 69.8183 108.993C68.2822 110.08 67.5327 111.157 67.4759 113.022C67.3992 115.6 67.0528 118.17 66.837 120.745C66.8171 120.995 66.9137 121.256 66.979 121.668C68.3078 119.104 69.5145 116.699 70.7922 114.331C72.0954 111.92 73.7081 109.751 76.2039 108.207C75.6417 110.461 75.1988 112.755 74.4946 114.964C73.0068 119.632 71.4338 124.28 68.2453 128.153C68.0466 128.394 67.8592 128.737 67.8592 129.033C67.8648 132.607 67.8904 136.182 68.9779 139.64C69.0176 139.768 69.1085 139.882 69.4634 140.041C69.6479 138.749 69.8722 137.463 70.0114 136.165C70.5224 131.364 72.314 127.111 75.4997 123.153C75.389 125.208 75.3123 127.011 75.1902 128.814C75.0454 130.975 74.8552 133.133 74.699 135.293C74.5855 136.844 74.523 138.4 74.3896 139.947C74.2476 141.574 73.4043 142.869 72.3197 144.03C71.4026 145.009 70.8859 146.015 71.6922 147.372C73.1005 149.751 74.4236 152.182 76.0193 154.567C76.1244 148.97 76.0619 143.405 78.3986 137.957C78.9835 141.157 79.54 144.152 80.0767 147.147C80.3748 148.814 80.9171 150.489 80.8717 152.15C80.795 154.816 80.2981 157.471 80.0398 160.134C79.9801 160.739 79.9915 161.486 80.2924 161.966C81.289 163.553 82.4304 165.046 83.7223 166.528C84.3668 162.048 84.0318 157.57 84.2959 152.786C88.1459 158.314 91.2379 163.789 91.9847 170.302C92.0585 170.955 92.2913 171.634 92.1919 172.258C91.9307 173.908 92.7371 174.879 93.9949 175.725C94.8467 176.299 95.5764 177.051 96.3941 177.684C96.6184 177.857 96.9534 177.886 97.2374 177.979C97.2459 177.718 97.3169 177.44 97.2544 177.196C97.0244 176.281 96.7944 175.364 96.4821 174.479C95.4742 171.622 94.9631 168.666 94.5202 165.447C98.87 169.396 103.083 173.136 105.301 178.507C105.71 179.496 105.9 180.574 106.249 181.591C106.371 181.946 106.607 182.429 106.902 182.525C109.074 183.246 111.275 183.885 113.467 184.549C113.538 184.433 113.612 184.317 113.683 184.2C113.552 183.948 113.464 183.655 113.279 183.448C111.641 181.622 109.991 179.808 108.336 178.002C107.203 176.767 106.899 175.222 106.559 173.723C108.859 174.72 111.104 175.68 113.339 176.67C114.756 177.298 116.246 177.829 117.533 178.666C119.503 179.95 120.676 181.858 120.886 184.251C120.999 185.555 120.957 185.563 122.291 185.521C124.086 185.464 125.877 185.39 127.672 185.347C128.126 185.336 128.583 185.407 129.148 185.45C129.185 183.692 129.617 181.96 130.9 180.617C131.695 179.785 132.567 178.916 133.58 178.419C136.201 177.139 138.924 176.069 141.593 174.887C142.226 174.606 142.814 174.217 143.563 173.8C143.26 176.063 142.311 177.863 140.809 179.425C139.438 180.853 138.106 182.323 136.769 183.783C136.593 183.976 136.479 184.226 136.178 184.697C136.831 184.626 137.235 184.638 137.606 184.535C139.33 184.058 141.062 183.598 142.754 183.022C143.208 182.869 143.785 182.369 143.867 181.946C144.688 177.71 147.033 174.342 149.847 171.245C151.522 169.399 153.285 167.63 155.006 165.827C155.15 165.898 155.295 165.969 155.44 166.037C155.406 166.599 155.457 167.182 155.327 167.718C154.571 170.779 153.762 173.825 153.004 176.886C152.902 177.301 152.981 177.761 152.976 178.198C153.39 178.019 153.819 177.869 154.211 177.653C154.407 177.545 154.526 177.304 154.705 177.153C155.715 176.307 157.067 175.654 157.655 174.581C158.211 173.564 157.959 172.113 158.083 170.853C158.578 165.813 160.673 161.358 163.191 157.071C163.947 155.785 164.801 154.555 165.61 153.3C165.716 153.329 165.821 153.354 165.923 153.383C165.923 157.818 165.923 162.253 165.923 166.69C166.022 166.736 166.119 166.781 166.218 166.829C166.621 166.472 167.05 166.142 167.419 165.753C167.774 165.379 168.069 164.944 168.384 164.532C169.637 162.908 170.508 161.389 169.844 159.036C168.83 155.43 169.001 151.702 169.926 147.991C170.707 144.856 171.099 141.625 171.687 138.295C174.072 143.635 173.887 149.149 173.91 154.638C174.057 154.726 174.205 154.811 174.353 154.899C174.497 154.618 174.637 154.334 174.787 154.058C176.141 151.585 177.516 149.118 178.833 146.625C178.955 146.395 178.819 145.924 178.651 145.66C178.066 144.751 177.323 143.936 176.817 142.988C176.34 142.091 175.86 141.094 175.775 140.106C175.397 135.739 175.165 131.358 174.867 126.983C174.793 125.907 174.673 124.836 174.551 123.496C176.783 126.015 178.194 128.74 179.04 131.653C179.867 134.501 180.207 137.491 180.758 140.418C180.869 140.435 180.977 140.45 181.087 140.467C181.369 139.169 181.772 137.883 181.902 136.571C182.127 134.322 182.212 132.057 182.28 129.794C182.294 129.328 182.107 128.754 181.811 128.394C178.532 124.399 176.968 119.603 175.468 114.788C174.909 112.999 174.551 111.148 174.117 109.32C174.055 109.061 174.074 108.786 174.032 108.204C178.376 112.076 180.906 116.775 182.942 121.864C183.526 120.64 183.376 119.388 183.26 118.17C183.058 116.063 182.757 113.965 182.504 111.864C182.411 111.077 182.027 110.617 181.346 110.115C179.761 108.948 178.294 107.602 176.894 106.213C174.06 103.405 171.899 100.083 169.872 96.6704C169.37 95.8272 168.844 94.9981 168.419 94.0356C170.582 94.893 172.919 95.407 174.577 97.1673C175.801 98.4649 176.848 99.9271 177.998 101.298C178.745 102.19 179.534 103.045 180.307 103.916C180.395 103.874 180.483 103.831 180.574 103.786C180.556 103.502 180.602 103.198 180.514 102.94C179.634 100.308 178.728 97.6812 177.834 95.0549C177.604 94.3791 177.186 94.1548 176.451 93.9277C174.625 93.3598 172.791 92.6528 171.15 91.6846C167.672 89.6347 165.04 86.5625 161.948 83.6693C164.458 83.7204 166.587 84.2514 168.609 85.2991C171.082 86.5824 173.475 87.968 175.503 89.9129C175.539 89.9328 175.571 89.9498 175.602 89.9669Z" fill="#00923F"/>
<path d="M123.966 163.82C119.548 164.075 115.454 163.047 111.783 160.563C110.94 159.992 110.19 159.22 109.548 158.419C108.521 157.139 108.66 155.81 109.761 154.6C111.692 152.477 114.009 150.892 116.55 149.589C117.586 149.058 118.31 149.288 119.032 150.094C120.13 151.324 121.229 152.562 122.419 153.703C123.364 154.609 124.44 155.378 125.46 156.205C126.045 156.679 126.314 156.273 126.496 155.79C127.044 154.336 127.68 152.903 128.08 151.409C129.054 147.78 129.917 144.121 130.818 140.472C130.886 140.2 130.996 139.87 130.9 139.649C130.818 139.461 130.38 139.234 130.244 139.305C129.832 139.512 129.463 139.83 129.125 140.157C126.198 142.971 122.873 145.265 118.975 146.335C113.929 147.721 109.247 147.105 105.394 142.948C102.572 139.904 101.49 136.273 100.942 132.346C99.8067 124.206 102.603 117.028 106.4 110.109C109.125 105.14 112.777 100.887 116.928 97.0791C120.553 93.7543 124.679 91.1223 129.034 88.8196C132.657 86.9059 136.493 85.9633 140.539 85.8099C143.151 85.7106 145.764 85.9434 148.052 87.3375C151.153 89.2256 151.962 92.3233 151.857 95.6566C151.672 101.48 149 105.878 143.907 108.797C142.132 109.813 140.36 110.742 138.248 110.733C136.448 110.725 135.988 110.182 136.82 108.615C138.333 105.762 139.029 102.709 139.296 99.5578C139.446 97.7946 139.242 96.0002 139.191 94.2199C139.165 93.2943 138.552 93.1069 137.825 93.2716C137.189 93.4164 136.584 93.7032 135.977 93.953C132.603 95.3471 130.093 97.7975 127.916 100.628C124.903 104.541 122.447 108.76 120.999 113.513C120.284 115.853 119.304 118.169 119.017 120.566C118.645 123.675 118.682 126.86 118.861 129.998C118.978 132.045 120.176 133.74 122.109 134.64C124.006 135.52 125.715 134.896 127.18 133.561C129.262 131.665 130.732 129.345 131.916 126.798C132.788 124.924 133.816 123.113 134.878 121.335C135.27 120.677 135.86 119.987 136.527 119.666C139.875 118.05 143.194 116.33 146.891 115.608C147.765 115.438 148.657 115.282 149.543 115.245C151.314 115.171 152.209 116.065 152.058 117.857C151.953 119.118 151.729 120.39 151.371 121.599C149.864 126.69 148.404 131.801 146.695 136.826C145.426 140.563 143.645 144.123 142.382 147.863C141.121 151.599 139.083 154.85 136.723 157.9C133.924 161.514 129.991 163.209 125.511 163.72C125.005 163.766 124.486 163.783 123.966 163.82Z" fill="#00923F"/>
<path d="M175.602 89.9669C175.571 89.9498 175.543 89.9327 175.512 89.9157C174.379 88.303 173.283 86.6619 172.102 85.0832C171.142 83.8055 170.114 82.5733 169.041 81.3893C168.728 81.0429 168.178 80.7959 167.703 80.7306C163.479 80.14 159.475 78.8424 155.642 77.0026C154.39 76.4006 153.198 75.6738 151.676 74.8419C155.849 74.7425 159.682 74.5267 163.76 75.6568C163.467 75.1173 163.374 74.8277 163.186 74.6232C160.236 71.4234 160.111 71.412 155.73 71.3779C151.011 71.3439 146.29 71.2246 141.571 71.1394C141.395 71.1366 141.219 71.0968 140.903 71.0571C142.76 69.5863 144.546 68.4506 146.951 68.5472C149.115 68.6323 151.292 68.4762 153.462 68.374C153.873 68.3541 154.271 68.09 154.677 67.9395C154.441 67.6159 154.259 67.2184 153.956 66.977C152.848 66.0968 151.696 65.2791 150.571 64.4217C149.736 63.7857 148.885 63.4194 147.76 63.3484C146.043 63.2434 144.41 62.4682 143.237 61.2331C141.565 59.4728 140.131 57.4881 138.606 55.5914C138.464 55.4154 138.396 55.1797 138.186 54.7482C140.58 55.1996 142.684 55.8669 144.691 56.8606C146.565 57.7891 148.294 59.098 148.993 60.9889C149.702 62.9026 151.193 63.7743 152.536 64.9299C153.249 65.5432 154.004 66.1082 154.705 66.7328C155.216 67.1843 155.679 67.7238 156.386 67.0821C157.053 66.4773 156.369 66.1025 156.111 65.6568C154.523 62.9112 153.473 59.9441 152.559 56.9259C152.527 56.8237 152.644 56.6761 152.701 56.5227C152.851 56.5398 153.021 56.5085 153.11 56.5795C154.907 58.0219 156.84 59.3308 158.447 60.9577C161.074 63.6153 162.442 66.8294 161.806 70.688C161.764 70.952 161.934 71.324 162.124 71.5369C163.791 73.3796 165.48 75.1996 167.173 77.0168C167.42 77.2808 167.723 77.4966 167.951 77.6897C167.434 75.4949 166.715 73.3257 166.457 71.1054C166.199 68.885 166.4 66.6108 166.4 64.0071C167.039 64.575 167.522 64.8759 167.828 65.3018C169.555 67.7096 171.417 70.0463 172.877 72.6073C174.061 74.6886 173.998 77.1644 173.74 79.5239C173.533 81.4205 173.445 81.412 171.15 81.6335C171.593 82.3348 171.974 82.9253 172.343 83.5244C173.524 85.4438 174.708 87.3603 175.855 89.2996C175.929 89.4245 175.693 89.7397 175.602 89.9669Z" fill="#00923F"/>
<path d="M74.6277 89.717C74.605 89.734 74.5795 89.751 74.5539 89.7681C73.8043 89.6602 74.0684 89.2087 74.2813 88.851C75.3432 87.0793 76.4193 85.3189 77.5068 83.5642C77.7794 83.1241 78.1399 82.738 78.4012 82.2922C78.5715 81.9969 78.634 81.6392 78.7476 81.3098C78.4352 81.253 78.1059 81.1026 77.8163 81.1593C76.9503 81.3212 76.6777 81.1139 76.479 80.1429C75.5164 75.4467 77.1462 71.5285 79.889 67.9112C80.9083 66.5654 82.0184 65.2934 83.3586 64.0838C83.3955 64.4189 83.4608 64.7511 83.4636 65.0861C83.4807 66.9742 83.3728 68.8709 83.5147 70.7505C83.6908 73.1156 82.8589 75.1769 81.8396 77.2212C81.9134 77.2922 81.9872 77.3604 82.061 77.4313C82.3677 77.173 82.7084 76.943 82.9809 76.6477C84.5397 74.9583 86.0701 73.2462 87.6317 71.5625C88.0974 71.0628 88.2336 70.6312 88.1825 69.8675C87.9497 66.3638 89.0258 63.2292 91.5698 60.759C93.086 59.2854 94.7924 58.0049 96.4335 56.6619C96.6976 56.4461 97.0724 56.3723 97.3961 56.2332C97.4046 56.5767 97.5125 56.96 97.4017 57.261C96.3342 60.1173 95.4227 63.0418 93.7504 65.6426C93.5744 65.9152 93.5744 66.642 93.7106 66.7045C94.0627 66.872 94.676 66.9799 94.9401 66.7811C96.7487 65.4296 98.4977 63.9958 100.258 62.5818C100.4 62.4683 100.582 62.3064 100.599 62.1503C100.826 60.2564 102.143 59.0469 103.415 57.8913C105.727 55.7931 108.671 55.1429 111.678 54.5693C110.815 56.4461 109.784 58.1781 108.319 59.5438C107.169 60.617 105.826 61.5029 104.486 62.3376C103.875 62.7181 103.06 62.9424 102.339 62.9396C101.204 62.9367 100.392 63.4336 99.5624 64.0923C98.3813 65.0293 97.1235 65.8726 95.931 66.7953C95.6698 66.9969 95.542 67.3717 95.3518 67.667C95.6698 67.8147 95.9821 68.073 96.3058 68.0901C98.333 68.1894 100.369 68.3428 102.39 68.2661C104.932 68.1696 107.16 68.7289 108.972 70.742C108.66 70.7704 108.333 70.8186 108.004 70.8243C102.623 70.918 97.2399 70.9861 91.8594 71.1139C91.195 71.1309 90.4483 71.3269 89.8975 71.6875C88.58 72.5478 87.4244 73.6182 86.5528 75.0605C90.3546 74.2655 94.1252 74.4018 98.2251 74.5267C94.5937 76.7329 91.0985 78.4024 87.2938 79.3592C85.613 79.7823 83.8895 80.0293 82.2087 80.4524C81.7033 80.5801 81.1524 80.9265 80.8401 81.3382C78.7362 84.1009 76.6919 86.9174 74.6277 89.717Z" fill="#00923F"/>
</svg>
