<svg width="250" height="250" viewBox="0 0 250 250" fill="none" xmlns="http://www.w3.org/2000/svg">
<path d="M0 125C0 55.9644 55.9644 0 125 0C194.036 0 250 55.9644 250 125C250 194.036 194.036 250 125 250C55.9644 250 0 194.036 0 125Z" fill="white"/>
<path d="M120.636 55.1307C159.213 52.7902 192.387 82.1559 194.744 120.731C197.101 159.307 167.748 192.493 129.174 194.866C90.5762 197.24 57.3658 167.867 55.0076 129.268C52.6494 90.6701 82.0371 57.4728 120.636 55.1307ZM140.231 62.5565C134.832 61.307 127.325 60.1995 121.768 60.7108C104.63 61.8182 89.3583 68.7372 77.6091 81.3319C66.0155 93.7597 59.3412 111.673 60.4714 128.676C61.6333 146.027 69.6437 162.204 82.738 173.647C89.8078 179.741 98.098 184.253 107.053 186.882C107.719 187.078 110.465 187.991 111.03 187.764L111.064 187.587C110.632 187.193 110.039 186.946 109.542 186.601C100.89 180.597 96.8519 170.496 96.3435 160.193C95.7562 148.29 100.348 136.827 104.296 125.789C107.284 117.524 110.442 108.873 114.074 100.854C115.806 97.0065 117.578 93.1765 119.389 89.3651C120.382 87.2907 122.173 83.8111 122.964 81.7382C123.149 91.4583 122.985 101.639 122.976 111.39L122.987 163.039L122.998 180.933C122.994 182.216 122.892 188.392 123.082 189.244C123.451 189.412 123.75 189.367 124.151 189.353L130.101 189.32L130.04 81.7577C133.208 87.647 135.966 93.7408 138.646 99.8661C143.247 110.343 147.398 121.011 151.087 131.843C152.831 136.977 154.792 142.415 155.835 147.697C158.232 159.843 156.742 173.657 147.741 182.909C146.495 184.19 145.172 185.277 143.963 186.499C160.13 181.464 173.67 170.273 181.658 155.342C189.809 140.017 191.47 122.063 186.267 105.504C179.915 84.6566 161.33 67.4391 140.231 62.5565Z" fill="#03AF60"/>
</svg>
