<svg width="250" height="250" viewBox="0 0 250 250" fill="none" xmlns="http://www.w3.org/2000/svg">
<path d="M0 125C0 55.9644 55.9644 0 125 0C194.036 0 250 55.9644 250 125C250 194.036 194.036 250 125 250C55.9644 250 0 194.036 0 125Z" fill="white"/>
<path d="M91.4502 170.287C84.9752 176.616 70.5095 178.651 63.7939 178.287C70.2432 182.296 82.2562 185.083 90.0877 185.442C129.966 187.271 128.717 134.396 145.963 106.804C162.058 81.0505 182.753 82.4303 199.998 83.8099C154.622 54.8685 133.945 97.2591 128.427 108.986C116.7 131.29 102.145 159.833 91.4502 170.287Z" fill="#FD7B3F"/>
<path d="M83.132 142.481C77.5139 156.66 64.4132 172.753 59.998 175.411C68.8522 175.411 73.5311 176.848 86.6626 167.401C99.2529 158.345 108.195 126.554 121.745 101.985C141.501 66.1628 166.95 70.6711 184.844 72.7902C158.003 62.1952 146.156 62.0782 127.16 70.6711C107.877 79.3937 97.8858 105.246 83.132 142.481Z" fill="#93D43A"/>
</svg>
