<svg width="250" height="250" viewBox="0 0 250 250" fill="none" xmlns="http://www.w3.org/2000/svg">
<mask id="path-1-inside-1_453_233" fill="white">
<path d="M0 125C0 55.9644 55.9644 0 125 0C194.036 0 250 55.9644 250 125C250 194.036 194.036 250 125 250C55.9644 250 0 194.036 0 125Z"/>
</mask>
<path d="M0 125C0 55.9644 55.9644 0 125 0C194.036 0 250 55.9644 250 125C250 194.036 194.036 250 125 250C55.9644 250 0 194.036 0 125Z" fill="white"/>
<path d="M0 125M250 125M250 125M0 125M125 0M250 125M125 250M0 125M125 250V248C57.069 248 2 192.931 2 125H0H-2C-2 195.14 54.8598 252 125 252V250ZM250 125H248C248 192.931 192.931 248 125 248V250V252C195.14 252 252 195.14 252 125H250ZM125 0V2C192.931 2 248 57.069 248 125H250H252C252 54.8598 195.14 -2 125 -2V0ZM125 0V-2C54.8598 -2 -2 54.8598 -2 125H0H2C2 57.069 57.069 2 125 2V0Z" fill="#DDDBDB" mask="url(#path-1-inside-1_453_233)"/>
<path fill-rule="evenodd" clip-rule="evenodd" d="M120.636 55.1305C159.213 52.7901 192.386 82.1559 194.743 120.731C197.1 159.306 167.748 192.493 129.174 194.866C90.5761 197.24 57.3658 167.866 55.0075 129.268C52.6495 90.6699 82.0371 57.4724 120.636 55.1305ZM140.231 62.5563C134.832 61.3067 127.325 60.1993 121.768 60.7106C104.63 61.8179 89.3584 68.737 77.6091 81.3316C66.0154 93.7595 59.3412 111.672 60.4714 128.675C61.6333 146.026 69.6427 162.204 82.737 173.647C89.8069 179.741 98.0979 184.253 107.053 186.882C107.72 187.079 110.464 187.99 111.029 187.763L111.064 187.588C110.632 187.194 110.038 186.947 109.541 186.602C100.889 180.597 96.8518 170.496 96.3435 160.193C95.7563 148.29 100.347 136.827 104.295 125.789C107.283 117.524 110.442 108.873 114.074 100.854C115.806 97.0063 117.578 93.1761 119.389 89.3648C120.382 87.2904 122.173 83.8107 122.964 81.7379C123.149 91.458 122.985 101.639 122.976 111.389L122.986 163.039L122.997 180.933C122.993 182.218 122.891 188.39 123.081 189.244C123.45 189.412 123.749 189.367 124.15 189.353L130.101 189.321L130.039 81.7574C133.207 87.6469 135.966 93.7412 138.646 99.8668C143.246 110.343 147.397 121.012 151.086 131.843C152.83 136.978 154.791 142.416 155.834 147.698C158.231 159.844 156.742 173.657 147.741 182.909C146.495 184.189 145.172 185.277 143.963 186.499C160.13 181.464 173.67 170.273 181.658 155.342C189.81 140.018 191.47 122.063 186.267 105.504C179.915 84.6564 161.33 67.4388 140.231 62.5563Z" fill="#03AF60"/>
</svg>
