<svg width="250" height="250" viewBox="0 0 250 250" fill="none" xmlns="http://www.w3.org/2000/svg">
<mask id="path-1-inside-1_453_230" fill="white">
<path d="M0 125C0 55.9644 55.9644 0 125 0C194.036 0 250 55.9644 250 125C250 194.036 194.036 250 125 250C55.9644 250 0 194.036 0 125Z"/>
</mask>
<path d="M0 125C0 55.9644 55.9644 0 125 0C194.036 0 250 55.9644 250 125C250 194.036 194.036 250 125 250C55.9644 250 0 194.036 0 125Z" fill="white"/>
<path d="M0 125M250 125M250 125M0 125M125 0M250 125M125 250M0 125M125 250V248C57.069 248 2 192.931 2 125H0H-2C-2 195.14 54.8598 252 125 252V250ZM250 125H248C248 192.931 192.931 248 125 248V250V252C195.14 252 252 195.14 252 125H250ZM125 0V2C192.931 2 248 57.069 248 125H250H252C252 54.8598 195.14 -2 125 -2V0ZM125 0V-2C54.8598 -2 -2 54.8598 -2 125H0H2C2 57.069 57.069 2 125 2V0Z" fill="#DDDBDB" mask="url(#path-1-inside-1_453_230)"/>
<path d="M83.1989 97.2313C84.2399 97.1963 85.3004 97.1851 86.3421 97.2041C96.0608 97.3816 105.861 96.977 115.57 97.2833C115.209 98.6131 115.035 100.417 114.802 101.808C114.481 103.728 114.127 105.661 113.835 107.583C111.725 107.652 109.507 107.614 107.387 107.621C103.237 107.658 99.0869 107.666 94.9366 107.645C92.2302 107.647 86.0089 107.394 83.626 108.157C75.2441 110.844 69.1733 121.885 69.1237 130.392L69.1184 133.498C69.1221 135.605 69.1094 137.188 70.7421 138.801C74.0108 142.032 80.8375 141.61 85.2034 141.609L93.1813 141.612C93.5546 137.831 94.2809 134.132 94.6535 130.266C91.384 130.355 88.0764 130.26 84.8034 130.27C83.1565 130.275 81.4854 130.274 79.8424 130.179C79.9883 127.479 80.9578 122.468 81.4246 119.718L87.0918 119.779L109.226 119.712C109.143 122.728 108.809 124.298 108.334 127.214L107.393 133.004C106.491 138.248 105.748 143.548 104.863 148.798C104.645 150.094 104.306 151.461 104.215 152.765C99.654 152.946 94.1297 152.787 89.4666 152.785L81.984 152.802C78.5528 152.808 74.8582 152.851 71.4944 152.101C67.7007 151.255 63.9278 149.511 61.018 146.913C57.3089 143.602 55.3131 139.075 55.0427 134.136C54.5286 124.744 58.6995 113.435 64.9757 106.422C69.9806 100.83 75.6105 97.648 83.1989 97.2313Z" fill="#048FD2"/>
<path d="M151.988 97.1519C155.919 97.1284 159.853 97.2258 163.783 97.2115C168.145 97.1955 172.418 97.17 176.779 97.3038C176.781 97.4632 176.779 97.6225 176.772 97.7817C176.665 100.568 176.283 105.579 174.187 107.522C172.885 107.792 168.692 107.682 167.156 107.68C162.644 107.661 158.133 107.667 153.622 107.698C153.524 108.513 153.279 109.67 153.135 110.516L151.939 117.456L147.816 142.391L146.721 148.966C146.531 150.046 146.279 151.093 146.132 152.181C142.832 152.271 139.409 152.211 136.097 152.19L133.284 152.176C133.447 150.725 133.783 149.375 133.999 147.958C134.3 145.984 134.643 144.042 134.964 142.077L138.022 124.233C138.233 123.024 138.363 121.804 138.578 120.599L139.634 114.454C140.011 112.357 140.518 109.745 140.723 107.619L118.956 107.641C118.984 107.299 119.012 106.926 119.063 106.587C119.537 103.464 119.986 100.31 120.365 97.1749C124.047 97.2056 127.729 97.2099 131.412 97.1876C138.271 97.2209 145.129 97.209 151.988 97.1519Z" fill="#048FD2"/>
<path d="M182.639 97.1956C186.76 97.2222 190.88 97.22 195 97.1888C194.148 103.922 193.05 110.28 191.954 116.953L189.929 129.691L188.615 138.083C188.395 139.434 188.116 140.76 187.911 142.12L187.027 147.777C186.833 149.092 186.649 150.733 186.387 152.009C186.229 152.14 186.152 152.101 185.912 152.116C181.772 152.2 177.631 152.201 173.49 152.118C173.542 150.925 174.021 148.767 174.22 147.462C174.929 142.82 175.7 138.187 176.532 133.565L180.218 111.64C181.022 106.839 181.898 102.008 182.639 97.1956Z" fill="#048FD2"/>
</svg>
