<svg width="250" height="250" viewBox="0 0 250 250" fill="none" xmlns="http://www.w3.org/2000/svg">
<path d="M0 125C0 55.9644 55.9644 0 125 0C194.036 0 250 55.9644 250 125C250 194.036 194.036 250 125 250C55.9644 250 0 194.036 0 125Z" fill="white"/>
<path d="M83.1992 97.2315C84.2403 97.1966 85.3008 97.1853 86.3425 97.2043C96.0612 97.3818 105.861 96.9773 115.571 97.2835C115.209 98.6133 115.035 100.417 114.803 101.808C114.482 103.728 114.128 105.662 113.836 107.583C111.725 107.653 109.507 107.614 107.388 107.622C103.238 107.658 99.0873 107.666 94.9369 107.645C92.2306 107.647 86.0093 107.394 83.6264 108.158C75.2445 110.844 69.1737 121.885 69.124 130.392L69.1187 133.498C69.1225 135.605 69.1098 137.188 70.7425 138.802C74.0112 142.032 80.8379 141.611 85.2038 141.61L93.1816 141.613C93.555 137.832 94.2812 134.132 94.6539 130.266C91.3843 130.355 88.0768 130.261 84.8038 130.271C83.1569 130.276 81.4858 130.274 79.8428 130.18C79.9887 127.479 80.9582 122.469 81.4249 119.718L87.0922 119.779L109.226 119.713C109.143 122.728 108.81 124.298 108.335 127.215L107.394 133.004C106.492 138.248 105.748 143.548 104.863 148.798C104.645 150.095 104.306 151.461 104.215 152.765C99.6544 152.946 94.1301 152.787 89.467 152.785L81.9844 152.802C78.5532 152.809 74.8585 152.851 71.4948 152.101C67.701 151.256 63.9282 149.511 61.0183 146.914C57.3092 143.603 55.3134 139.075 55.0431 134.136C54.529 124.745 58.6999 113.435 64.976 106.422C69.981 100.83 75.6109 97.6482 83.1992 97.2315Z" fill="#048FD2"/>
<path d="M151.988 97.1521C155.919 97.1286 159.853 97.2261 163.783 97.2117C168.145 97.1958 172.418 97.1702 176.78 97.304C176.781 97.4634 176.779 97.6227 176.773 97.7819C176.665 100.568 176.283 105.579 174.187 107.522C172.886 107.792 168.692 107.683 167.156 107.68C162.645 107.662 158.134 107.668 153.623 107.699C153.525 108.513 153.28 109.67 153.135 110.517L151.939 117.456L147.817 142.391L146.721 148.966C146.531 150.046 146.279 151.093 146.132 152.182C142.832 152.272 139.409 152.211 136.097 152.191L133.285 152.176C133.447 150.725 133.784 149.375 134 147.959C134.3 145.984 134.643 144.043 134.964 142.077L138.023 124.233C138.233 123.024 138.363 121.805 138.579 120.599L139.635 114.454C140.011 112.357 140.518 109.745 140.723 107.619L118.957 107.641C118.985 107.299 119.012 106.927 119.064 106.587C119.538 103.465 119.986 100.31 120.365 97.1751C124.047 97.2059 127.73 97.2101 131.412 97.1878C138.271 97.2212 145.13 97.2092 151.988 97.1521Z" fill="#048FD2"/>
<path d="M182.64 97.1958C186.76 97.2225 190.88 97.2202 195 97.1891C194.148 103.923 193.051 110.281 191.954 116.954L189.929 129.691L188.615 138.083C188.395 139.434 188.116 140.761 187.911 142.12L187.027 147.777C186.833 149.093 186.649 150.733 186.387 152.009C186.229 152.14 186.153 152.102 185.913 152.116C181.773 152.2 177.631 152.201 173.49 152.118C173.542 150.925 174.021 148.767 174.22 147.463C174.93 142.82 175.7 138.187 176.532 133.566L180.218 111.64C181.023 106.839 181.898 102.008 182.64 97.1958Z" fill="#048FD2"/>
</svg>
