<svg width="250" height="250" viewBox="0 0 250 250" fill="none" xmlns="http://www.w3.org/2000/svg">
<path d="M0 125C0 55.9644 55.9644 0 125 0C194.036 0 250 55.9644 250 125C250 194.036 194.036 250 125 250C55.9644 250 0 194.036 0 125Z" fill="white"/>
<path d="M122.275 105.675C122.432 105.591 122.384 105.619 122.568 105.641C122.662 105.826 122.663 105.859 122.807 106.003C122.964 105.906 122.978 105.879 123.157 105.845L123.176 105.963C123.034 106.166 122.885 106.311 122.897 106.544C123.648 107.436 122.767 107.28 122.648 107.894L122.744 108.031C122.964 108.065 122.854 108.066 123.072 107.983C123.981 109.33 124.844 107.861 125.727 109.55C126.347 109.681 127.403 110.28 127.817 110.139C128.242 109.662 128 107.704 130.019 108.95C130.854 109.464 132.032 109.601 133.011 109.874C133.717 109.51 134.015 109.205 134.713 109.713L135.9 109.68C136.028 110.225 136.36 111.512 135.722 111.795L135.669 111.733C135.357 111.366 135.148 110.903 134.863 110.658C134.937 111.105 135.216 111.495 135.462 111.871C135.851 112.737 136.278 113.592 136.622 114.482C136.776 114.882 136.879 114.922 137.222 115.2C137.408 115.808 137.472 116.369 137.554 116.998L137.804 117.244C138.433 117.853 138.457 118.076 138.717 118.909C139.501 119.531 140.246 119.982 140.799 120.816C140.77 120.935 140.746 121.027 140.713 121.143C140.824 121.459 141.115 121.655 141.379 121.885C142.321 121.513 143.706 121.486 145.076 120.952C145.107 121.937 144.906 122.238 144.508 123.119C143.682 124.944 142.744 125.786 141.198 126.991C140.358 127.647 138.56 129.588 138.407 130.747C138.344 130.897 138.666 131.221 138.666 131.269C138.664 132.322 138.542 132.474 139.257 133.28C139.235 134.184 139.333 134.927 139.422 135.822C138.758 136.937 138.422 136.753 137.392 137.542C136.994 137.846 136.486 138.305 136.102 138.648C136.478 139.79 136.593 140.052 136.481 141.251C136.132 141.447 135.66 141.57 135.286 141.789C134.765 142.095 135.264 142.937 134.887 143.483C134.025 144.731 132.727 146.937 131.077 147.139C129.74 147.303 129.206 147.315 127.891 147.689C127.665 147.54 127.426 147.359 127.204 147.2C126.944 146.607 126.854 146.617 127.198 146.033C126.621 145.018 126.068 143.873 125.468 142.853C125.069 142.156 125.228 140.658 124.888 140.011C123.624 137.606 122.72 136.398 124.715 133.948C124.351 132.642 124.249 131.428 123.596 130.231C123.367 129.811 122.075 128.563 122.048 128.222C121.936 126.815 123.374 126.17 121.776 125.038C121.295 125.102 120.78 125.15 120.295 125.203C120.069 124.713 119.956 124.508 119.619 124.096C118.182 124.006 117.44 124.348 116.129 124.934C114.66 124.593 114.531 124.733 113.155 125.081C112.445 125.262 110.753 123.774 110.073 123.268C109.716 122.127 108.98 121.545 108.053 120.843C107.777 120.231 108.234 120.259 107.729 119.477C107.735 119.467 108.271 117.923 108.364 117.547C108.022 116.552 108.435 116.395 107.715 115.758C108.158 114.766 109.32 112.624 110.08 111.81C110.341 111.531 111.162 111.376 111.544 110.784C111.948 110.157 111.669 109.288 112.133 108.784C113.331 107.481 113.293 108.262 113.979 106.52L114.51 107.072C115.092 107.07 115.466 107.077 116.041 107.139C117.763 105.94 118.788 105.971 120.814 105.921C121.403 105.907 121.743 105.963 122.275 105.675Z" fill="#1F1F1F"/>
<path d="M104.385 149.847C106.588 148.367 109.773 148.163 112.348 148.29C112.507 148.39 112.669 148.49 112.812 148.613C116.171 151.503 118.745 174.242 119.285 179.548C119.397 180.94 119.499 182.348 119.626 183.737C119.792 185.688 120.418 193.54 119.706 194.954C119.297 195.246 112.138 194.457 111.02 194.454C110.513 194.452 108.347 194.264 107.783 194.189C108.192 193.116 108.821 191.299 109.275 190.318C111.387 190.233 113.761 190.279 115.892 190.276L114.65 175.424C114.472 173.416 114.341 170.628 114.042 168.716C112.581 170.944 110.527 173.554 108.934 175.752L100.417 187.591L99.9864 188.214C99.9403 188.283 99.744 188.568 99.7179 188.624C98.5579 190.011 98.4298 190.85 96.4298 189.763C95.6177 188.921 95.4093 188.989 94.5136 187.802C98.8612 181.636 103.52 175.601 107.944 169.498C108.751 168.382 109.566 167.271 110.391 166.167C110.791 165.627 111.705 164.453 111.956 163.89C111.739 161.124 111.307 155.982 110.461 153.456C108.334 153.688 105.822 154.103 103.698 154.445C103.73 153.076 103.909 151.094 104.385 149.847Z" fill="url(#paint0_radial_1_849)"/>
<path d="M93.8054 118.764C94.6303 119.317 95.567 120.092 96.1901 120.735C96.9148 121.482 99.1129 124.399 98.9288 125.432C98.5382 127.624 94.453 131.151 92.6062 132.785L92.2685 133.085C91.508 133.712 90.7542 134.346 90.0077 134.989C88.6699 136.187 86.9346 137.477 85.4961 138.588C81.0852 142.01 76.5514 145.269 71.9036 148.361C69.3092 150.11 64.6164 153.372 61.7009 154.225C61.2365 153.342 60.8002 152.37 60.3957 151.456C59.1964 148.746 57.8166 146.059 56.6648 143.33C57.9201 143.164 59.5657 142.898 60.8005 142.819C61.6952 144.34 62.5366 145.952 63.4371 147.441C63.5685 147.755 63.8728 148.248 64.0543 148.562C65.0155 147.878 66.0198 147.24 66.9943 146.556L67.1888 146.418L67.5622 146.173C71.4185 143.629 75.2002 140.902 79.0701 138.373C80.0677 137.721 81.0723 136.995 82.0985 136.399C80.3336 136.139 78.1244 135.96 76.3093 135.745L63.4844 134.245L59.2519 133.755C58.3234 133.654 56.548 133.56 55.7625 133.258C54.2087 132.659 55.4499 129.528 55.8219 128.625C57.9535 128.837 60.3831 129.216 62.536 129.482C70.0444 130.461 77.5582 131.398 85.0771 132.293C86.8454 131.159 92.4539 127.328 93.5321 125.84C92.315 124.013 90.6386 122.211 89.4196 120.408C91.0841 119.63 91.9939 119.188 93.8054 118.764Z" fill="url(#paint1_radial_1_849)"/>
<path d="M125.542 150.746C126.227 150.948 126.802 151.242 127.392 151.646C134.027 156.194 150.627 178.037 154.569 185.333C154.882 185.912 155.27 186.576 155.276 187.251C154.942 187.65 153.515 188.27 152.984 188.526C152.254 188.872 151.087 189.405 150.411 189.825C148.762 190.544 146.273 191.837 144.656 192.682C144.425 191.478 144.143 189.671 144.038 188.476C145.796 187.368 147.831 186.21 149.637 185.12C149.215 184.498 148.657 183.719 148.195 183.132C147.542 182.068 146.89 181.211 146.135 180.221C143.162 175.912 139.929 171.716 137.01 167.395C136.936 168.856 136.762 170.337 136.634 171.797L135.766 181.54L135.15 188.571C135.022 190.13 134.883 191.702 134.721 193.258C134.492 195.439 131.272 194.422 130.008 193.891C130.725 184.935 131.825 175.98 132.602 167.028C132.674 166.203 132.782 165.333 132.808 164.508C131.593 162.634 127.807 157.575 126.204 156.218C124.426 157.529 122.604 159.138 120.854 160.525C120.154 159.104 119.452 157.842 119.132 156.284C120.243 154.013 123.134 151.504 125.542 150.746Z" fill="url(#paint2_radial_1_849)"/>
<path d="M86.9823 111.227C89.5636 111.044 95.2525 110.664 97.5334 109.88C97.2794 107.672 96.8315 105.108 96.6563 102.993L96.7997 103.023C98.1195 103.286 100.681 103.134 101.493 104.305C102.508 105.77 103.008 109.839 102.666 111.529C102.547 112.12 102.308 112.444 101.805 112.772C96.4304 116.274 72.007 118.337 64.912 118.712C62.5673 118.836 58.7145 119.201 56.4949 118.694C56.2339 118.634 56.0426 118.572 55.8362 118.4C55.7657 117.685 56.0426 115.223 56.1196 114.373L56.8042 106.598C57.9666 106.964 59.5327 107.667 60.6971 108.143L60.6451 114.734C65.9667 114.534 71.4775 113.93 76.8105 113.648C78.6171 113.552 80.472 113.356 82.2796 113.308C81.2601 112.437 79.7879 111.442 78.6875 110.609C75.7428 108.38 72.7074 106.252 69.8124 103.955C69.2987 103.549 68.8893 103.25 68.3458 102.885C66.8333 101.739 65.3105 100.606 63.7779 99.4876C63.144 99.0207 61.0025 97.635 60.8876 96.89C60.7042 95.6996 62.5536 94.0079 63.4581 93.4027L86.9823 111.227Z" fill="url(#paint3_radial_1_849)"/>
<path d="M85.4858 68.1864C87.2005 72.0366 89.19 76.0123 90.9681 79.8538L93.4189 85.0265C93.7087 85.6397 94.4214 87.2868 94.7466 87.8197C94.776 87.6024 94.8553 87.9329 94.7466 87.8197C94.987 88.4295 95.5002 89.6568 95.8437 90.1824C96.2232 90.9968 97.72 94.3841 98.143 94.9496C100.241 95.8948 105.957 98.3544 107.993 98.6193C108.46 97.4332 109.506 94.8466 109.803 93.6908C110.029 93.1945 110.224 92.6566 110.419 92.145C111.275 92.9862 113.268 93.7786 114.093 95.0819C113.982 97.5197 113.616 99.1489 112.458 101.334C112.179 101.86 111.804 102.528 111.371 102.936C108.613 103.708 103.243 102.022 100.549 101.17C92.0107 98.4689 83.5662 95.0922 75.422 91.3702C73.2829 90.3926 68.6752 88.3098 67.0766 86.6585C68.0306 85.0277 69.1606 83.5298 70.1463 81.9292C71.2113 80.1995 72.2809 78.3727 73.4913 76.7418C74.0931 77.2965 75.5272 79.1574 76.1554 79.9079C75.4374 81.1678 74.63 82.6544 73.8866 84.0386L73.1702 85.3766L73.0659 85.5998C73.4269 85.9501 75.2245 86.6675 75.7638 86.8556L87.0304 91.8684C88.9716 92.7291 90.9824 93.534 92.8653 94.5034C92.0731 92.5788 90.9248 90.3194 90.0115 88.4065L84.6532 77.2906L82.934 73.7454C82.5098 72.8885 82.0875 72.0393 81.709 71.1615C80.7926 69.0363 84.0363 68.438 85.4858 68.1864Z" fill="url(#paint4_radial_1_849)"/>
<path d="M138.758 146.795C143.234 145.826 158.512 152.086 163.217 154.045C167.617 155.837 171.953 157.782 176.216 159.877C177.914 160.72 181.37 162.412 182.634 163.694C182.321 164.385 181.593 165.385 181.15 166.051C180.244 167.421 179.33 168.786 178.408 170.146C177.824 171.007 176.607 172.958 176.005 173.644C175.69 173.344 175.252 172.769 174.963 172.412C174.595 171.914 174.167 171.412 173.772 170.932C173.647 170.767 173.413 170.532 173.497 170.36C174.314 168.688 175.724 166.248 176.58 164.705C174.184 163.517 171.525 162.361 169.074 161.234C165.006 159.387 160.95 157.511 156.908 155.606L166.609 176.64L166.609 176.64C166.817 177.134 167.246 178.207 167.522 178.617C167.713 179.001 167.835 179.391 167.973 179.796C167.205 181.465 165.59 181.789 163.903 181.983L155.741 163.88C154.631 161.418 153.557 158.943 152.412 156.496C152.19 156.022 152.005 155.575 151.74 155.122C149.271 153.941 144.497 151.829 141.929 151.259C140.937 153.478 140.297 155.499 139.386 157.665C138.226 156.884 136.575 155.855 135.759 154.764C135.758 154.139 135.806 153.515 135.903 152.898C136.162 151.214 137.358 147.81 138.758 146.795Z" fill="url(#paint5_radial_1_849)"/>
<path d="M174.405 172.122C174.445 172.14 174.487 172.159 174.531 172.179L174.666 172.245C174.572 172.198 174.486 172.158 174.405 172.122Z" fill="url(#paint6_radial_1_849)"/>
<path d="M187.742 93.6844C189.448 97.15 191.262 100.984 193.054 104.385C191.834 104.604 190.072 104.84 188.914 105.108C188.192 103.857 187.452 102.616 186.696 101.386C186.362 100.832 185.865 99.9238 185.519 99.4213L172.882 108.411C171.259 109.56 169.383 110.987 167.75 112.042L186.353 113.683C188.685 113.901 191.027 114.033 193.356 114.276C193.686 114.31 194.424 114.481 194.61 114.726C195.446 115.835 194.745 117.955 194.294 119.084L176.348 117.364C173.997 117.116 171.643 116.882 169.288 116.661C167.95 116.529 166.123 116.302 164.799 116.297C163.712 116.98 156.994 121.882 156.815 122.853C156.723 123.352 160.358 127.484 160.844 128.222C160.054 128.712 157.26 130.176 156.488 129.839C154.301 128.886 152.056 125.835 151.195 123.702C151.755 121.381 153.999 119.28 155.661 117.63C160.173 113.152 165.163 109.15 170.188 105.268C170.622 104.933 171.065 104.59 171.511 104.275L172.696 103.363H172.696C175.767 101.154 184.529 94.4821 187.742 93.6844Z" fill="url(#paint7_radial_1_849)"/>
<path d="M116.807 55.3313C117.806 54.5693 120.044 55.2201 121.101 55.6969C121.004 57.7265 120.566 60.7486 120.339 62.8501L118.817 76.7309C118.514 79.437 118.111 82.368 117.915 85.0633C118.548 86.0737 119.484 87.2989 120.207 88.2857C121.328 89.8167 122.797 91.9447 124.224 93.2052L124.458 93.4127C125.714 92.4509 128.765 90.1803 129.774 89.1766C130.304 90.1176 131.729 92.785 131.334 93.6911C130.359 95.9277 127.261 98.0491 125.113 98.8702C124.605 98.7379 123.96 98.5277 123.534 98.2182C118.687 94.7027 114.246 88.6963 110.485 84.128C108.365 81.5532 95.6227 64.6467 95.7479 61.9948C95.9706 61.727 101.991 58.8625 104.123 57.8551L104.771 57.55C105.274 57.3448 106.058 56.809 106.516 56.9336C106.582 58.1972 106.929 59.609 107.023 60.9146C105.181 62.0323 103.24 63.1025 101.371 64.2313L109.812 76.4295L112.421 80.2198C112.84 80.8285 113.381 81.5426 113.747 82.1689L115.522 64.6761L116.048 59.3235C116.124 58.5338 116.223 55.7769 116.807 55.3313Z" fill="url(#paint8_radial_1_849)"/>
<path d="M164.738 67.4181C165.606 67.8793 166.533 68.5363 167.36 69.0871L171.205 71.6641C171.932 72.1572 174.152 73.5805 174.702 74.0728L171.541 76.6497C169.823 75.9178 167.53 74.377 165.711 73.4921L159.691 86.7055C158.75 88.7789 157.624 91.0413 156.772 93.1242C158.674 92.3149 160.782 91.2504 162.681 90.3658L173.475 85.3835C175.13 84.6192 176.781 83.8231 178.461 83.1205C179.076 82.864 180.681 81.988 181.277 82.2421C182.58 82.7973 182.947 84.8256 183.099 86.0832L166.124 93.7815C163.67 94.8888 161.197 95.9413 158.779 97.1288C157.992 97.5152 157.009 97.8785 156.26 98.2703C155.575 99.6602 152.322 106.788 152.542 108.029C152.956 108.656 157.675 110.17 158.743 110.626C158.093 111.741 156.938 113.908 155.649 114.252C154.03 114.685 150.432 113.133 149.055 112.288C148.502 111.949 148.013 111.581 147.866 110.912C147.126 107.537 151.387 96.3719 152.863 92.5372C153.132 91.8372 154.337 89.0273 154.485 88.3688L154.496 88.3119C154.702 87.9637 155.54 85.8697 155.744 85.3743C156.351 83.9023 157.036 82.4546 157.653 80.9957L157.776 80.7039C159.01 78.043 162.858 69.1085 164.738 67.4181Z" fill="url(#paint9_radial_1_849)"/>
<path d="M190.026 129.567C191.016 129.519 193.821 129.375 194.502 129.985C194.556 130.52 194.387 132.685 194.344 133.372L193.744 141.798C192.488 141.334 191.061 140.795 189.836 140.266C189.701 138.489 189.773 135.554 189.758 133.685C187.842 133.889 185.804 134.026 183.872 134.196L168.032 135.61C168.983 136.143 170.432 137.252 171.386 137.931L178.1 142.743L185.422 147.929C186.725 148.849 188.517 149.996 189.64 151.092C189.833 151.28 189.858 151.694 189.821 151.955C189.651 153.152 188.265 154.341 187.383 155.057C186.483 154.487 185.301 153.577 184.417 152.938L168.629 141.484C167.061 140.35 164.945 138.706 163.371 137.734C161.787 137.785 154.039 138.561 153.115 139.339C152.896 139.838 153.843 145.142 153.983 145.997C152.476 145.932 150.712 145.881 149.334 145.284C148.378 143.78 146.848 138.193 148.266 136.762C149.482 135.535 153.158 134.614 154.913 134.186C162.341 132.377 170.045 131.341 177.641 130.5C181.659 130.062 186.01 129.644 190.026 129.567Z" fill="url(#paint10_radial_1_849)"/>
<path d="M130.411 55.4543C133.083 55.5966 135.755 55.7635 138.424 55.9551C139.551 56.0262 140.953 56.085 142.089 56.2379C142.25 56.2596 142.271 56.339 142.329 56.4399C141.843 57.6883 141.37 58.8423 140.936 60.1124C138.72 60.1641 136.505 60.1982 134.289 60.2146L135.637 74.3121C135.877 76.7613 136.065 79.5122 136.374 81.9121C136.409 81.8521 136.445 81.7925 136.482 81.7334C137.124 80.6899 138.132 79.3398 138.865 78.294L143.699 71.4489L148.837 64.1147C149.294 63.4624 151.311 60.3096 151.938 60.0666C153.187 59.5826 154.927 61.4657 155.7 62.4195C154.796 63.8163 153.64 65.3666 152.665 66.735L147.551 73.9447C145.191 77.1531 142.945 80.443 140.571 83.6409C139.902 84.5417 139.06 85.5792 138.511 86.5463C139.068 89.9962 138.983 93.4881 140.138 96.9641C142.189 96.7294 144.867 96.301 146.9 95.8786C146.895 97.0844 146.89 100.362 145.615 100.938C143.509 101.889 140.811 102.455 138.502 102.133C137.415 101.982 136.77 100.315 136.427 99.4369C133.775 91.62 132.453 82.632 131.461 74.4647C130.986 70.7896 130.614 67.102 130.347 63.406C130.206 61.3305 129.93 57.3816 130.411 55.4543Z" fill="url(#paint11_radial_1_849)"/>
<path d="M94.8537 135.83C96.9661 135.822 101.412 137.048 102.677 138.818C103.461 139.913 102.19 144.543 101.775 145.956C100.596 149.974 99.0436 154.012 97.4755 157.913C94.8472 164.53 91.8766 171.006 88.5757 177.314C87.9932 178.419 86.2044 181.921 85.2188 182.467C84.3985 182.217 76.3492 176.579 75.319 175.753C76.2638 175.067 77.6716 173.836 78.5934 173.297C79.5317 173.638 80.6752 174.385 81.553 174.889C82.478 175.421 83.4507 175.946 84.3475 176.512L89.9711 164.806C91.1532 162.209 92.4789 159.585 93.6949 156.98L76.3177 164.693C75.0518 165.253 73.7891 165.82 72.5299 166.395C71.8626 166.698 70.1698 167.537 69.491 167.615C67.861 167.804 67.3887 164.849 67.2274 163.656C67.8085 163.345 68.6277 163.025 69.2447 162.748C70.7282 162.074 72.221 161.419 73.7226 160.786L87.2775 154.897C89.3047 154.017 92.3629 152.842 94.2521 151.862C94.6788 151.138 95.4302 149.444 95.7824 148.651C96.7734 146.422 97.7327 144.357 98.3074 141.981C96.3487 141.291 93.9498 140.233 91.9476 139.45C92.7987 138.12 93.6812 136.893 94.8537 135.83Z" fill="url(#paint12_radial_1_849)"/>
<defs>
<radialGradient id="paint0_radial_1_849" cx="0" cy="0" r="1" gradientUnits="userSpaceOnUse" gradientTransform="translate(125 125) rotate(90) scale(62.001 62.001)">
<stop offset="0.425734" stop-color="#FDCE02"/>
<stop offset="1" stop-color="#FA7703"/>
</radialGradient>
<radialGradient id="paint1_radial_1_849" cx="0" cy="0" r="1" gradientUnits="userSpaceOnUse" gradientTransform="translate(125 125) rotate(90) scale(62.001 62.001)">
<stop offset="0.425734" stop-color="#FDCE02"/>
<stop offset="1" stop-color="#FA7703"/>
</radialGradient>
<radialGradient id="paint2_radial_1_849" cx="0" cy="0" r="1" gradientUnits="userSpaceOnUse" gradientTransform="translate(125 125) rotate(90) scale(62.001 62.001)">
<stop offset="0.425734" stop-color="#FDCE02"/>
<stop offset="1" stop-color="#FA7703"/>
</radialGradient>
<radialGradient id="paint3_radial_1_849" cx="0" cy="0" r="1" gradientUnits="userSpaceOnUse" gradientTransform="translate(125 125) rotate(90) scale(62.001 62.001)">
<stop offset="0.425734" stop-color="#FDCE02"/>
<stop offset="1" stop-color="#FA7703"/>
</radialGradient>
<radialGradient id="paint4_radial_1_849" cx="0" cy="0" r="1" gradientUnits="userSpaceOnUse" gradientTransform="translate(125 125) rotate(90) scale(62.001 62.001)">
<stop offset="0.425734" stop-color="#FDCE02"/>
<stop offset="1" stop-color="#FA7703"/>
</radialGradient>
<radialGradient id="paint5_radial_1_849" cx="0" cy="0" r="1" gradientUnits="userSpaceOnUse" gradientTransform="translate(125 125) rotate(90) scale(62.001 62.001)">
<stop offset="0.425734" stop-color="#FDCE02"/>
<stop offset="1" stop-color="#FA7703"/>
</radialGradient>
<radialGradient id="paint6_radial_1_849" cx="0" cy="0" r="1" gradientUnits="userSpaceOnUse" gradientTransform="translate(125 125) rotate(90) scale(62.001 62.001)">
<stop offset="0.425734" stop-color="#FDCE02"/>
<stop offset="1" stop-color="#FA7703"/>
</radialGradient>
<radialGradient id="paint7_radial_1_849" cx="0" cy="0" r="1" gradientUnits="userSpaceOnUse" gradientTransform="translate(125 125) rotate(90) scale(62.001 62.001)">
<stop offset="0.425734" stop-color="#FDCE02"/>
<stop offset="1" stop-color="#FA7703"/>
</radialGradient>
<radialGradient id="paint8_radial_1_849" cx="0" cy="0" r="1" gradientUnits="userSpaceOnUse" gradientTransform="translate(125 125) rotate(90) scale(62.001 62.001)">
<stop offset="0.425734" stop-color="#FDCE02"/>
<stop offset="1" stop-color="#FA7703"/>
</radialGradient>
<radialGradient id="paint9_radial_1_849" cx="0" cy="0" r="1" gradientUnits="userSpaceOnUse" gradientTransform="translate(125 125) rotate(90) scale(62.001 62.001)">
<stop offset="0.425734" stop-color="#FDCE02"/>
<stop offset="1" stop-color="#FA7703"/>
</radialGradient>
<radialGradient id="paint10_radial_1_849" cx="0" cy="0" r="1" gradientUnits="userSpaceOnUse" gradientTransform="translate(125 125) rotate(90) scale(62.001 62.001)">
<stop offset="0.425734" stop-color="#FDCE02"/>
<stop offset="1" stop-color="#FA7703"/>
</radialGradient>
<radialGradient id="paint11_radial_1_849" cx="0" cy="0" r="1" gradientUnits="userSpaceOnUse" gradientTransform="translate(125 125) rotate(90) scale(62.001 62.001)">
<stop offset="0.425734" stop-color="#FDCE02"/>
<stop offset="1" stop-color="#FA7703"/>
</radialGradient>
<radialGradient id="paint12_radial_1_849" cx="0" cy="0" r="1" gradientUnits="userSpaceOnUse" gradientTransform="translate(125 125) rotate(90) scale(62.001 62.001)">
<stop offset="0.425734" stop-color="#FDCE02"/>
<stop offset="1" stop-color="#FA7703"/>
</radialGradient>
</defs>
</svg>
