<svg width="250" height="250" viewBox="0 0 250 250" fill="none" xmlns="http://www.w3.org/2000/svg">
<mask id="path-1-inside-1_453_387" fill="white">
<path d="M0 125C0 55.9644 55.9644 0 125 0C194.036 0 250 55.9644 250 125C250 194.036 194.036 250 125 250C55.9644 250 0 194.036 0 125Z"/>
</mask>
<path d="M0 125C0 55.9644 55.9644 0 125 0C194.036 0 250 55.9644 250 125C250 194.036 194.036 250 125 250C55.9644 250 0 194.036 0 125Z" fill="white"/>
<path d="M0 125M250 125M250 125M0 125M125 0M250 125M125 250M0 125M125 250V248C57.069 248 2 192.931 2 125H0H-2C-2 195.14 54.8598 252 125 252V250ZM250 125H248C248 192.931 192.931 248 125 248V250V252C195.14 252 252 195.14 252 125H250ZM125 0V2C192.931 2 248 57.069 248 125H250H252C252 54.8598 195.14 -2 125 -2V0ZM125 0V-2C54.8598 -2 -2 54.8598 -2 125H0H2C2 57.069 57.069 2 125 2V0Z" fill="#DDDBDB" mask="url(#path-1-inside-1_453_387)"/>
<path d="M122.275 105.675C122.432 105.59 122.384 105.618 122.568 105.641C122.662 105.826 122.663 105.859 122.807 106.003C122.964 105.905 122.978 105.878 123.157 105.845L123.176 105.963C123.034 106.165 122.885 106.311 122.897 106.544C123.648 107.436 122.767 107.28 122.648 107.893L122.744 108.031C122.964 108.065 122.854 108.066 123.072 107.983C123.981 109.329 124.844 107.861 125.727 109.549C126.347 109.681 127.403 110.28 127.817 110.139C128.242 109.662 128 107.704 130.019 108.949C130.854 109.464 132.032 109.601 133.011 109.874C133.717 109.51 134.015 109.205 134.713 109.712L135.9 109.68C136.028 110.225 136.36 111.512 135.722 111.795L135.669 111.733C135.357 111.366 135.148 110.903 134.863 110.658C134.937 111.104 135.216 111.495 135.462 111.871C135.851 112.737 136.278 113.592 136.622 114.482C136.776 114.882 136.879 114.922 137.222 115.2C137.408 115.808 137.472 116.369 137.554 116.998L137.804 117.244C138.433 117.853 138.457 118.075 138.717 118.908C139.501 119.531 140.246 119.982 140.799 120.816C140.77 120.935 140.746 121.027 140.713 121.143C140.824 121.459 141.115 121.655 141.379 121.885C142.321 121.513 143.706 121.485 145.076 120.952C145.107 121.937 144.906 122.238 144.508 123.118C143.682 124.943 142.744 125.786 141.198 126.991C140.358 127.647 138.56 129.587 138.407 130.747C138.344 130.897 138.666 131.221 138.666 131.268C138.664 132.322 138.542 132.474 139.257 133.28C139.235 134.183 139.333 134.927 139.422 135.822C138.758 136.937 138.422 136.752 137.392 137.542C136.994 137.846 136.486 138.304 136.102 138.648C136.478 139.79 136.593 140.051 136.481 141.251C136.132 141.447 135.66 141.57 135.286 141.789C134.765 142.095 135.264 142.936 134.887 143.483C134.025 144.731 132.727 146.937 131.077 147.139C129.74 147.303 129.206 147.315 127.891 147.688C127.665 147.54 127.426 147.359 127.204 147.2C126.944 146.607 126.854 146.617 127.198 146.033C126.621 145.018 126.068 143.873 125.468 142.853C125.069 142.156 125.228 140.658 124.888 140.011C123.624 137.606 122.72 136.398 124.715 133.947C124.351 132.642 124.249 131.428 123.596 130.231C123.367 129.811 122.075 128.563 122.048 128.222C121.936 126.815 123.374 126.17 121.776 125.038C121.295 125.102 120.78 125.15 120.295 125.203C120.069 124.713 119.956 124.508 119.619 124.096C118.182 124.006 117.44 124.348 116.129 124.934C114.66 124.593 114.531 124.733 113.155 125.081C112.445 125.261 110.753 123.774 110.073 123.268C109.716 122.127 108.98 121.544 108.053 120.842C107.777 120.231 108.234 120.258 107.729 119.477C107.735 119.467 108.271 117.923 108.364 117.547C108.022 116.551 108.435 116.395 107.715 115.758C108.158 114.765 109.32 112.624 110.08 111.81C110.341 111.531 111.162 111.376 111.544 110.784C111.948 110.156 111.669 109.288 112.133 108.784C113.331 107.481 113.293 108.261 113.979 106.52L114.51 107.071C115.092 107.07 115.466 107.077 116.041 107.139C117.763 105.94 118.788 105.971 120.814 105.921C121.403 105.907 121.743 105.962 122.275 105.675Z" fill="#1F1F1F"/>
<path d="M104.385 149.847C106.588 148.367 109.773 148.163 112.348 148.289C112.507 148.39 112.669 148.49 112.812 148.612C116.171 151.502 118.745 174.241 119.285 179.548C119.397 180.939 119.499 182.347 119.626 183.736C119.792 185.687 120.418 193.54 119.706 194.954C119.297 195.245 112.138 194.457 111.02 194.454C110.513 194.452 108.347 194.264 107.783 194.189C108.192 193.116 108.821 191.299 109.275 190.317C111.387 190.232 113.761 190.279 115.892 190.276L114.65 175.423C114.472 173.416 114.341 170.627 114.042 168.716C112.581 170.944 110.527 173.554 108.934 175.752L100.417 187.591L99.9864 188.214C99.9403 188.283 99.744 188.568 99.7179 188.624C98.5579 190.011 98.4298 190.849 96.4298 189.762C95.6177 188.921 95.4093 188.989 94.5136 187.802C98.8612 181.636 103.52 175.6 107.944 169.497C108.751 168.381 109.566 167.271 110.391 166.167C110.791 165.627 111.705 164.453 111.956 163.89C111.739 161.124 111.307 155.982 110.461 153.456C108.334 153.687 105.822 154.103 103.698 154.445C103.73 153.076 103.909 151.094 104.385 149.847Z" fill="url(#paint0_radial_453_387)"/>
<path d="M93.8054 118.764C94.6303 119.317 95.567 120.092 96.1901 120.734C96.9148 121.482 99.1129 124.399 98.9288 125.432C98.5382 127.623 94.453 131.151 92.6062 132.784L92.2685 133.085C91.508 133.711 90.7542 134.346 90.0077 134.989C88.6699 136.186 86.9346 137.476 85.4961 138.588C81.0852 142.009 76.5514 145.269 71.9036 148.361C69.3092 150.11 64.6164 153.372 61.7009 154.225C61.2365 153.342 60.8002 152.369 60.3957 151.456C59.1964 148.745 57.8166 146.058 56.6648 143.33C57.9201 143.164 59.5657 142.898 60.8005 142.819C61.6952 144.34 62.5366 145.952 63.4371 147.44C63.5685 147.754 63.8728 148.248 64.0543 148.562C65.0155 147.878 66.0198 147.24 66.9943 146.556L67.1888 146.418L67.5622 146.173C71.4185 143.628 75.2002 140.902 79.0701 138.373C80.0677 137.721 81.0723 136.995 82.0985 136.399C80.3336 136.138 78.1244 135.96 76.3093 135.745L63.4844 134.245L59.2519 133.755C58.3234 133.654 56.548 133.559 55.7625 133.257C54.2087 132.659 55.4499 129.528 55.8219 128.625C57.9535 128.837 60.3831 129.216 62.536 129.482C70.0444 130.461 77.5582 131.398 85.0771 132.292C86.8454 131.158 92.4539 127.327 93.5321 125.84C92.315 124.013 90.6386 122.21 89.4196 120.408C91.0841 119.63 91.9939 119.187 93.8054 118.764Z" fill="url(#paint1_radial_453_387)"/>
<path d="M125.542 150.746C126.227 150.948 126.802 151.242 127.392 151.645C134.027 156.194 150.627 178.036 154.569 185.333C154.882 185.912 155.27 186.576 155.276 187.25C154.942 187.65 153.515 188.27 152.984 188.525C152.254 188.872 151.087 189.405 150.411 189.825C148.762 190.544 146.273 191.837 144.656 192.682C144.425 191.478 144.143 189.671 144.038 188.476C145.796 187.368 147.831 186.209 149.637 185.119C149.215 184.498 148.657 183.718 148.195 183.131C147.542 182.067 146.89 181.21 146.135 180.221C143.162 175.912 139.929 171.716 137.01 167.395C136.936 168.856 136.762 170.336 136.634 171.797L135.766 181.539L135.15 188.57C135.022 190.13 134.883 191.702 134.721 193.258C134.492 195.438 131.272 194.422 130.008 193.89C130.725 184.934 131.825 175.98 132.602 167.028C132.674 166.203 132.782 165.333 132.808 164.508C131.593 162.633 127.807 157.575 126.204 156.218C124.426 157.529 122.604 159.138 120.854 160.525C120.154 159.104 119.452 157.842 119.132 156.284C120.243 154.013 123.134 151.504 125.542 150.746Z" fill="url(#paint2_radial_453_387)"/>
<path d="M86.9823 111.227C89.5636 111.044 95.2525 110.664 97.5334 109.88C97.2794 107.671 96.8315 105.108 96.6563 102.993L96.7997 103.022C98.1195 103.286 100.681 103.134 101.493 104.305C102.508 105.77 103.008 109.839 102.666 111.529C102.547 112.12 102.308 112.444 101.805 112.772C96.4304 116.274 72.007 118.337 64.912 118.712C62.5673 118.836 58.7145 119.201 56.4949 118.693C56.2339 118.634 56.0426 118.572 55.8362 118.4C55.7657 117.685 56.0426 115.223 56.1196 114.373L56.8042 106.598C57.9666 106.963 59.5327 107.666 60.6971 108.143L60.6451 114.734C65.9667 114.534 71.4775 113.93 76.8105 113.648C78.6171 113.552 80.472 113.356 82.2796 113.308C81.2601 112.437 79.7879 111.442 78.6875 110.609C75.7428 108.38 72.7074 106.252 69.8124 103.955C69.2987 103.548 68.8893 103.25 68.3458 102.885C66.8333 101.739 65.3105 100.606 63.7779 99.4874C63.144 99.0205 61.0025 97.6348 60.8876 96.8898C60.7042 95.6993 62.5536 94.0076 63.4581 93.4024L86.9823 111.227Z" fill="url(#paint3_radial_453_387)"/>
<path d="M85.4858 68.1862C87.2005 72.0364 89.19 76.0121 90.9681 79.8535L93.4189 85.0263C93.7087 85.6394 94.4214 87.2866 94.7466 87.8195C94.776 87.6022 94.8553 87.9327 94.7466 87.8195C94.987 88.4293 95.5002 89.6565 95.8437 90.1821C96.2232 90.9965 97.72 94.3838 98.143 94.9493C100.241 95.8946 105.957 98.3541 107.993 98.619C108.46 97.433 109.506 94.8463 109.803 93.6906C110.029 93.1942 110.224 92.6564 110.419 92.1448C111.275 92.986 113.268 93.7784 114.093 95.0816C113.982 97.5195 113.616 99.1487 112.458 101.334C112.179 101.86 111.804 102.528 111.371 102.936C108.613 103.708 103.243 102.021 100.549 101.169C92.0107 98.4687 83.5662 95.0919 75.422 91.3699C73.2829 90.3924 68.6752 88.3095 67.0766 86.6583C68.0306 85.0275 69.1606 83.5296 70.1463 81.9289C71.2113 80.1992 72.2809 78.3724 73.4913 76.7416C74.0931 77.2962 75.5272 79.1571 76.1554 79.9077C75.4374 81.1676 74.63 82.6541 73.8866 84.0384L73.1702 85.3763L73.0659 85.5996C73.4269 85.9499 75.2245 86.6673 75.7638 86.8554L87.0304 91.8681C88.9716 92.7288 90.9824 93.5338 92.8653 94.5031C92.0731 92.5786 90.9248 90.3191 90.0115 88.4063L84.6532 77.2904L82.934 73.7452C82.5098 72.8882 82.0875 72.0391 81.709 71.1612C80.7926 69.036 84.0363 68.4377 85.4858 68.1862Z" fill="url(#paint4_radial_453_387)"/>
<path d="M138.758 146.794C143.234 145.826 158.512 152.086 163.217 154.045C167.617 155.837 171.953 157.782 176.216 159.876C177.914 160.719 181.37 162.411 182.634 163.693C182.321 164.384 181.593 165.385 181.15 166.051C180.244 167.421 179.33 168.786 178.408 170.146C177.824 171.007 176.607 172.958 176.005 173.644C175.69 173.343 175.252 172.769 174.963 172.412C174.595 171.914 174.167 171.412 173.772 170.932C173.647 170.767 173.413 170.532 173.497 170.36C174.314 168.688 175.724 166.248 176.58 164.705C174.184 163.517 171.525 162.36 169.074 161.234C165.006 159.386 160.95 157.511 156.908 155.606L166.609 176.639L166.609 176.64C166.817 177.134 167.246 178.207 167.522 178.617C167.713 179.001 167.835 179.391 167.973 179.796C167.205 181.465 165.59 181.789 163.903 181.982L155.741 163.88C154.631 161.417 153.557 158.942 152.412 156.496C152.19 156.022 152.005 155.575 151.74 155.122C149.271 153.94 144.497 151.829 141.929 151.259C140.937 153.478 140.297 155.498 139.386 157.665C138.226 156.884 136.575 155.855 135.759 154.763C135.758 154.139 135.806 153.515 135.903 152.898C136.162 151.213 137.358 147.81 138.758 146.794Z" fill="url(#paint5_radial_453_387)"/>
<path d="M174.405 172.122C174.445 172.14 174.487 172.159 174.531 172.179L174.666 172.245C174.572 172.198 174.486 172.158 174.405 172.122Z" fill="url(#paint6_radial_453_387)"/>
<path d="M187.742 93.6841C189.448 97.1498 191.262 100.984 193.054 104.384C191.834 104.604 190.072 104.839 188.914 105.108C188.192 103.857 187.452 102.616 186.696 101.385C186.362 100.832 185.865 99.9236 185.519 99.4211L172.882 108.411C171.259 109.559 169.383 110.987 167.75 112.042L186.353 113.682C188.685 113.901 191.027 114.033 193.356 114.275C193.686 114.31 194.424 114.48 194.61 114.726C195.446 115.835 194.745 117.955 194.294 119.084L176.348 117.364C173.997 117.116 171.643 116.881 169.288 116.661C167.95 116.529 166.123 116.302 164.799 116.297C163.712 116.98 156.994 121.882 156.815 122.853C156.723 123.352 160.358 127.484 160.844 128.221C160.054 128.712 157.26 130.175 156.488 129.839C154.301 128.886 152.056 125.834 151.195 123.702C151.755 121.381 153.999 119.28 155.661 117.629C160.173 113.152 165.163 109.15 170.188 105.268C170.622 104.933 171.065 104.59 171.511 104.275L172.696 103.363H172.696C175.767 101.153 184.529 94.4818 187.742 93.6841Z" fill="url(#paint7_radial_453_387)"/>
<path d="M116.807 55.3311C117.806 54.569 120.044 55.2199 121.101 55.6966C121.004 57.7262 120.566 60.7484 120.339 62.8499L118.817 76.7306C118.514 79.4368 118.111 82.3678 117.915 85.0631C118.548 86.0735 119.484 87.2987 120.207 88.2855C121.328 89.8164 122.797 91.9444 124.224 93.205L124.458 93.4124C125.714 92.4506 128.765 90.1801 129.774 89.1763C130.304 90.1174 131.729 92.7848 131.334 93.6909C130.359 95.9275 127.261 98.0488 125.113 98.87C124.605 98.7377 123.96 98.5274 123.534 98.2179C118.687 94.7024 114.246 88.6961 110.485 84.1278C108.365 81.553 95.6227 64.6465 95.7479 61.9946C95.9706 61.7267 101.991 58.8622 104.123 57.8548L104.771 57.5497C105.274 57.3446 106.058 56.8087 106.516 56.9334C106.582 58.197 106.929 59.6087 107.023 60.9143C105.181 62.0321 103.24 63.1023 101.371 64.2311L109.812 76.4292L112.421 80.2196C112.84 80.8283 113.381 81.5424 113.747 82.1687L115.522 64.6759L116.048 59.3233C116.124 58.5336 116.223 55.7767 116.807 55.3311Z" fill="url(#paint8_radial_453_387)"/>
<path d="M164.738 67.4178C165.606 67.8791 166.533 68.536 167.36 69.0869L171.205 71.6639C171.932 72.1569 174.152 73.5803 174.702 74.0726L171.541 76.6494C169.823 75.9176 167.53 74.3767 165.711 73.4919L159.691 86.7052C158.75 88.7786 157.624 91.0411 156.772 93.1239C158.674 92.3147 160.782 91.2502 162.681 90.3655L173.475 85.3832C175.13 84.6189 176.781 83.8228 178.461 83.1203C179.076 82.8637 180.681 81.9878 181.277 82.2419C182.58 82.7971 182.947 84.8253 183.099 86.083L166.124 93.7812C163.67 94.8886 161.197 95.9411 158.779 97.1286C157.992 97.515 157.009 97.8782 156.26 98.2701C155.575 99.6599 152.322 106.788 152.542 108.028C152.956 108.656 157.675 110.169 158.743 110.626C158.093 111.741 156.938 113.908 155.649 114.252C154.03 114.684 150.432 113.133 149.055 112.288C148.502 111.949 148.013 111.581 147.866 110.912C147.126 107.537 151.387 96.3716 152.863 92.5369C153.132 91.8369 154.337 89.0271 154.485 88.3686L154.496 88.3117C154.702 87.9634 155.54 85.8695 155.744 85.374C156.351 83.9021 157.036 82.4543 157.653 80.9955L157.776 80.7036C159.01 78.0428 162.858 69.1082 164.738 67.4178Z" fill="url(#paint9_radial_453_387)"/>
<path d="M190.026 129.567C191.016 129.518 193.821 129.375 194.502 129.985C194.556 130.52 194.387 132.684 194.344 133.371L193.744 141.798C192.488 141.333 191.061 140.794 189.836 140.266C189.701 138.489 189.773 135.554 189.758 133.685C187.842 133.889 185.804 134.025 183.872 134.195L168.032 135.61C168.983 136.143 170.432 137.252 171.386 137.93L178.1 142.743L185.422 147.929C186.725 148.848 188.517 149.996 189.64 151.092C189.833 151.28 189.858 151.693 189.821 151.955C189.651 153.152 188.265 154.341 187.383 155.057C186.483 154.487 185.301 153.577 184.417 152.938L168.629 141.484C167.061 140.35 164.945 138.706 163.371 137.734C161.787 137.785 154.039 138.561 153.115 139.338C152.896 139.837 153.843 145.142 153.983 145.997C152.476 145.932 150.712 145.881 149.334 145.283C148.378 143.78 146.848 138.192 148.266 136.762C149.482 135.535 153.158 134.613 154.913 134.186C162.341 132.377 170.045 131.341 177.641 130.5C181.659 130.062 186.01 129.644 190.026 129.567Z" fill="url(#paint10_radial_453_387)"/>
<path d="M130.411 55.4541C133.083 55.5964 135.755 55.7633 138.424 55.9548C139.551 56.026 140.953 56.0848 142.089 56.2377C142.25 56.2593 142.271 56.3387 142.329 56.4397C141.843 57.6881 141.37 58.8421 140.936 60.1121C138.72 60.1639 136.505 60.198 134.289 60.2143L135.637 74.3119C135.877 76.761 136.065 79.5119 136.374 81.9119C136.409 81.8518 136.445 81.7922 136.482 81.7331C137.124 80.6897 138.132 79.3395 138.865 78.2938L143.699 71.4487L148.837 64.1144C149.294 63.4622 151.311 60.3093 151.938 60.0663C153.187 59.5823 154.927 61.4654 155.7 62.4193C154.796 63.8161 153.64 65.3664 152.665 66.7347L147.551 73.9444C145.191 77.1529 142.945 80.4428 140.571 83.6407C139.902 84.5414 139.06 85.5789 138.511 86.5461C139.068 89.9959 138.983 93.4879 140.138 96.9639C142.189 96.7291 144.867 96.3008 146.9 95.8784C146.895 97.0841 146.89 100.361 145.615 100.937C143.509 101.889 140.811 102.455 138.502 102.133C137.415 101.982 136.77 100.315 136.427 99.4367C133.775 91.6197 132.453 82.6317 131.461 74.4644C130.986 70.7894 130.614 67.1017 130.347 63.4058C130.206 61.3302 129.93 57.3813 130.411 55.4541Z" fill="url(#paint11_radial_453_387)"/>
<path d="M94.8537 135.83C96.9661 135.822 101.412 137.048 102.677 138.817C103.461 139.913 102.19 144.543 101.775 145.956C100.596 149.974 99.0436 154.012 97.4755 157.913C94.8472 164.53 91.8766 171.005 88.5757 177.314C87.9932 178.419 86.2044 181.921 85.2188 182.467C84.3985 182.217 76.3492 176.579 75.319 175.752C76.2638 175.067 77.6716 173.836 78.5934 173.297C79.5317 173.638 80.6752 174.385 81.553 174.889C82.478 175.42 83.4507 175.946 84.3475 176.512L89.9711 164.806C91.1532 162.209 92.4789 159.585 93.6949 156.98L76.3177 164.693C75.0518 165.252 73.7891 165.82 72.5299 166.394C71.8626 166.698 70.1698 167.536 69.491 167.615C67.861 167.804 67.3887 164.849 67.2274 163.656C67.8085 163.345 68.6277 163.025 69.2447 162.748C70.7282 162.074 72.221 161.419 73.7226 160.786L87.2775 154.896C89.3047 154.017 92.3629 152.842 94.2521 151.862C94.6788 151.138 95.4302 149.443 95.7824 148.651C96.7734 146.421 97.7327 144.357 98.3074 141.98C96.3487 141.291 93.9498 140.232 91.9476 139.45C92.7987 138.12 93.6812 136.893 94.8537 135.83Z" fill="url(#paint12_radial_453_387)"/>
<defs>
<radialGradient id="paint0_radial_453_387" cx="0" cy="0" r="1" gradientUnits="userSpaceOnUse" gradientTransform="translate(125 125) rotate(90) scale(62.001 62.001)">
<stop offset="0.425734" stop-color="#FDCE02"/>
<stop offset="1" stop-color="#FA7703"/>
</radialGradient>
<radialGradient id="paint1_radial_453_387" cx="0" cy="0" r="1" gradientUnits="userSpaceOnUse" gradientTransform="translate(125 125) rotate(90) scale(62.001 62.001)">
<stop offset="0.425734" stop-color="#FDCE02"/>
<stop offset="1" stop-color="#FA7703"/>
</radialGradient>
<radialGradient id="paint2_radial_453_387" cx="0" cy="0" r="1" gradientUnits="userSpaceOnUse" gradientTransform="translate(125 125) rotate(90) scale(62.001 62.001)">
<stop offset="0.425734" stop-color="#FDCE02"/>
<stop offset="1" stop-color="#FA7703"/>
</radialGradient>
<radialGradient id="paint3_radial_453_387" cx="0" cy="0" r="1" gradientUnits="userSpaceOnUse" gradientTransform="translate(125 125) rotate(90) scale(62.001 62.001)">
<stop offset="0.425734" stop-color="#FDCE02"/>
<stop offset="1" stop-color="#FA7703"/>
</radialGradient>
<radialGradient id="paint4_radial_453_387" cx="0" cy="0" r="1" gradientUnits="userSpaceOnUse" gradientTransform="translate(125 125) rotate(90) scale(62.001 62.001)">
<stop offset="0.425734" stop-color="#FDCE02"/>
<stop offset="1" stop-color="#FA7703"/>
</radialGradient>
<radialGradient id="paint5_radial_453_387" cx="0" cy="0" r="1" gradientUnits="userSpaceOnUse" gradientTransform="translate(125 125) rotate(90) scale(62.001 62.001)">
<stop offset="0.425734" stop-color="#FDCE02"/>
<stop offset="1" stop-color="#FA7703"/>
</radialGradient>
<radialGradient id="paint6_radial_453_387" cx="0" cy="0" r="1" gradientUnits="userSpaceOnUse" gradientTransform="translate(125 125) rotate(90) scale(62.001 62.001)">
<stop offset="0.425734" stop-color="#FDCE02"/>
<stop offset="1" stop-color="#FA7703"/>
</radialGradient>
<radialGradient id="paint7_radial_453_387" cx="0" cy="0" r="1" gradientUnits="userSpaceOnUse" gradientTransform="translate(125 125) rotate(90) scale(62.001 62.001)">
<stop offset="0.425734" stop-color="#FDCE02"/>
<stop offset="1" stop-color="#FA7703"/>
</radialGradient>
<radialGradient id="paint8_radial_453_387" cx="0" cy="0" r="1" gradientUnits="userSpaceOnUse" gradientTransform="translate(125 125) rotate(90) scale(62.001 62.001)">
<stop offset="0.425734" stop-color="#FDCE02"/>
<stop offset="1" stop-color="#FA7703"/>
</radialGradient>
<radialGradient id="paint9_radial_453_387" cx="0" cy="0" r="1" gradientUnits="userSpaceOnUse" gradientTransform="translate(125 125) rotate(90) scale(62.001 62.001)">
<stop offset="0.425734" stop-color="#FDCE02"/>
<stop offset="1" stop-color="#FA7703"/>
</radialGradient>
<radialGradient id="paint10_radial_453_387" cx="0" cy="0" r="1" gradientUnits="userSpaceOnUse" gradientTransform="translate(125 125) rotate(90) scale(62.001 62.001)">
<stop offset="0.425734" stop-color="#FDCE02"/>
<stop offset="1" stop-color="#FA7703"/>
</radialGradient>
<radialGradient id="paint11_radial_453_387" cx="0" cy="0" r="1" gradientUnits="userSpaceOnUse" gradientTransform="translate(125 125) rotate(90) scale(62.001 62.001)">
<stop offset="0.425734" stop-color="#FDCE02"/>
<stop offset="1" stop-color="#FA7703"/>
</radialGradient>
<radialGradient id="paint12_radial_453_387" cx="0" cy="0" r="1" gradientUnits="userSpaceOnUse" gradientTransform="translate(125 125) rotate(90) scale(62.001 62.001)">
<stop offset="0.425734" stop-color="#FDCE02"/>
<stop offset="1" stop-color="#FA7703"/>
</radialGradient>
</defs>
</svg>
