<svg width="250" height="250" viewBox="0 0 250 250" fill="none" xmlns="http://www.w3.org/2000/svg">
<mask id="path-1-inside-1_453_222" fill="white">
<path d="M0 125C0 55.9644 55.9644 0 125 0C194.036 0 250 55.9644 250 125C250 194.036 194.036 250 125 250C55.9644 250 0 194.036 0 125Z"/>
</mask>
<path d="M0 125C0 55.9644 55.9644 0 125 0C194.036 0 250 55.9644 250 125C250 194.036 194.036 250 125 250C55.9644 250 0 194.036 0 125Z" fill="white"/>
<path d="M0 125M250 125M250 125M0 125M125 0M250 125M125 250M0 125M125 250V248C57.069 248 2 192.931 2 125H0H-2C-2 195.14 54.8598 252 125 252V250ZM250 125H248C248 192.931 192.931 248 125 248V250V252C195.14 252 252 195.14 252 125H250ZM125 0V2C192.931 2 248 57.069 248 125H250H252C252 54.8598 195.14 -2 125 -2V0ZM125 0V-2C54.8598 -2 -2 54.8598 -2 125H0H2C2 57.069 57.069 2 125 2V0Z" fill="#DDDBDB" mask="url(#path-1-inside-1_453_222)"/>
<path d="M112.523 144.485V142.795C112.556 136.995 113.07 132.371 114.064 128.924C115.091 125.477 116.583 122.693 118.538 120.572C120.494 118.451 122.847 116.529 125.598 114.805C127.653 113.479 129.492 112.104 131.116 110.679C132.741 109.253 134.033 107.679 134.994 105.956C135.955 104.199 136.436 102.243 136.436 100.089C136.436 97.8022 135.889 95.797 134.795 94.0735C133.702 92.35 132.227 91.0242 130.371 90.0962C128.548 89.1682 126.526 88.7042 124.305 88.7042C122.151 88.7042 120.113 89.1848 118.19 90.1459C116.268 91.074 114.694 92.466 113.467 94.3221C112.241 96.145 111.578 98.4153 111.479 101.133H91.1946C91.3603 94.5044 92.9512 89.0356 95.9673 84.7269C98.9834 80.385 102.977 77.1535 107.949 75.0323C112.92 72.8779 118.406 71.8008 124.405 71.8008C131 71.8008 136.834 72.8945 141.905 75.082C146.976 77.2364 150.953 80.3685 153.837 84.4783C156.72 88.5882 158.162 93.5432 158.162 99.3434C158.162 103.221 157.516 106.668 156.223 109.684C154.964 112.667 153.19 115.319 150.903 117.639C148.616 119.926 145.915 121.997 142.8 123.853C140.181 125.411 138.027 127.035 136.337 128.725C134.679 130.416 133.437 132.371 132.608 134.592C131.813 136.813 131.398 139.547 131.365 142.795V144.485H112.523ZM122.366 176.304C119.052 176.304 116.218 175.144 113.865 172.823C111.545 170.47 110.402 167.653 110.435 164.372C110.402 161.124 111.545 158.34 113.865 156.02C116.218 153.699 119.052 152.539 122.366 152.539C125.515 152.539 128.283 153.699 130.669 156.02C133.055 158.34 134.265 161.124 134.298 164.372C134.265 166.559 133.685 168.564 132.558 170.387C131.464 172.177 130.023 173.619 128.233 174.713C126.443 175.773 124.488 176.304 122.366 176.304Z" fill="#FF0000"/>
</svg>
