<svg width="250" height="250" viewBox="0 0 250 250" fill="none" xmlns="http://www.w3.org/2000/svg">
<path d="M0 125C0 55.9644 55.9644 0 125 0C194.036 0 250 55.9644 250 125C250 194.036 194.036 250 125 250C55.9644 250 0 194.036 0 125Z" fill="white"/>
<path d="M59.3594 76.0107H199.176V173.011H59.3594V76.0107Z" fill="white"/>
<path fill-rule="evenodd" clip-rule="evenodd" d="M116.203 101.437C117.063 101.353 118.472 101.439 119.33 101.519C123.287 101.889 126.934 103.818 129.468 106.88C129.451 105.437 129.463 103.974 129.462 102.53L139.017 102.526C139.087 107.719 139.039 113.013 139.04 118.213L139.024 139.37C135.916 139.421 132.569 139.398 129.461 139.365L129.464 134.889C128.938 135.632 127.971 136.564 127.312 137.189C124.238 139.734 120.81 140.217 116.988 140.327C107.473 140.601 99.7676 132.01 99.0123 122.945C98.513 117.382 100.243 111.847 103.822 107.558C105.878 105.13 109.447 102.939 112.496 102.033C113.632 101.695 115.024 101.534 116.203 101.437ZM129.409 119.183C128.437 113.45 123.004 109.587 117.269 110.553C111.528 111.521 107.66 116.963 108.632 122.704C109.605 128.444 115.049 132.308 120.789 131.331C126.522 130.355 130.38 124.917 129.409 119.183Z" fill="#153286"/>
<path fill-rule="evenodd" clip-rule="evenodd" d="M177.355 101.314C188.284 100.715 197.617 109.117 198.167 120.049C198.717 130.981 190.273 140.277 179.339 140.778C168.473 141.275 159.25 132.896 158.703 122.033C158.158 111.17 166.494 101.909 177.355 101.314ZM188.657 119.591C187.874 113.923 182.636 109.969 176.972 110.769C171.329 111.565 167.395 116.777 168.175 122.422C168.955 128.067 174.157 132.017 179.804 131.252C185.473 130.484 189.441 125.258 188.657 119.591Z" fill="#153286"/>
<path d="M60.5795 87.4979C63.7673 87.5166 66.9551 87.5127 70.1428 87.4863L70.1572 106.538C76.8622 97.4158 92.6765 100.538 95.0364 111.733C95.8411 115.55 95.5534 119.902 95.5541 123.83L95.5446 139.369L85.8346 139.37C85.7716 134.631 85.8237 129.779 85.8254 125.032C85.819 123.352 85.8254 121.672 85.8449 119.992C85.8667 117.146 86.1495 114.45 83.985 112.26C82.5035 110.709 80.7701 110.26 78.7299 110.186C75.0401 110.053 71.2047 112.094 70.4766 115.968C69.9508 118.765 70.1352 122.176 70.1359 125.109L70.1265 139.365C67.0452 139.428 63.6743 139.386 60.5888 139.365C60.4938 133.302 60.5736 127.036 60.5733 120.96L60.5795 87.4979Z" fill="#153286"/>
<path d="M144.868 87.4901C145.812 87.5486 147.285 87.5077 148.25 87.5075L154.642 87.4965C154.517 89.2834 154.593 91.9882 154.593 93.846L154.609 139.339C151.966 139.514 147.646 139.376 144.866 139.368L144.868 87.4901Z" fill="#153286"/>
<path d="M127.31 81.3351C129.458 81.2944 131.367 83.8676 130.075 85.6932C128.515 87.8985 126.292 89.8196 124.412 91.7551C123.944 92.2541 123.474 92.8013 122.73 92.6178C122.326 92.2366 122.308 91.4467 122.443 90.9467C123.103 88.4885 123.842 86.0442 124.637 83.6257C125.079 82.2783 125.941 81.6619 127.31 81.3351Z" fill="#FE9728"/>
<path d="M105.537 81.2487C106.562 81.2022 107.836 81.4939 108.314 82.5362C109.506 85.1354 110.1 88.1279 110.907 90.8743C111.051 91.3656 110.982 92.0697 110.685 92.5004C110.102 92.8299 109.615 92.3646 109.197 91.9614C107.98 90.6609 103.295 86.2036 102.986 84.8747C102.813 84.1338 102.98 83.404 103.391 82.7713C103.905 81.9796 104.611 81.44 105.537 81.2487Z" fill="#FE9728"/>
<path d="M97.6202 89.2042C98.1785 89.1768 99.4065 89.3503 99.7866 89.742C101.445 91.4517 105.272 94.3378 106.439 96.2244C106.569 96.9896 105.951 97.1145 105.379 97.34L104.301 97.0545C101.907 96.2201 98.5198 95.5645 96.3484 94.395C94.2324 93.2553 94.793 89.7166 97.6202 89.2042Z" fill="#FE9728"/>
<path d="M116.424 78.4983C118.449 78.3863 120.461 80.4076 119.649 82.2381C118.959 83.7955 117.96 89.9328 117.195 90.7926C116.683 90.9393 116.005 90.9223 115.834 90.2948C115.141 87.7547 114.646 85.1311 114.007 82.5774C113.479 80.468 114.185 78.9614 116.424 78.4983Z" fill="#FE9728"/>
<path d="M134.89 89.2031C137.189 89.0121 139.029 91.0163 138.019 93.2795C137.456 94.5404 135.495 95.0494 134.248 95.4608C132.834 95.9273 131.279 96.3392 129.81 96.7465C121.804 99.1744 133.366 89.5951 134.89 89.2031Z" fill="#FE9728"/>
<path fill-rule="evenodd" clip-rule="evenodd" d="M106.212 152.017C109.097 151.684 111.885 153.018 113.543 155.38C114.784 157.149 114.712 158.897 114.681 160.946C113.349 161.003 111.684 160.957 110.332 160.955C107.428 160.942 104.524 160.95 101.62 160.978C102.433 163.431 104.114 165.162 106.855 165.355C108.736 165.487 109.571 165.068 110.965 163.835C111.226 163.587 111.5 163.25 111.738 162.973C112.331 163.387 113.276 163.769 114.037 164.264C112.167 168.079 104.924 168.676 101.871 165.968C96.5077 161.211 98.7865 152.729 106.212 152.017ZM111.982 158.785C111.625 155.797 109.338 153.949 106.354 154.287C103.613 154.667 102.217 156.155 101.637 158.766C103.595 158.79 105.554 158.798 107.513 158.789L111.982 158.785Z" fill="#153286"/>
<path d="M74.2862 152.012C76.2397 151.857 77.9645 152.295 79.3555 153.736C79.9956 154.386 80.4614 155.187 80.7098 156.066C81.1245 157.528 81.0463 160.083 81.0453 161.646C81.0496 163.567 81.0386 165.487 81.0123 167.408C80.1018 167.422 79.1912 167.42 78.2809 167.402L78.2946 161.325C78.3006 159.133 78.7195 156.076 76.5292 154.807C75.3504 154.125 73.9789 154.281 72.7253 154.602C72.1888 154.813 71.7287 155.079 71.3191 155.49C70.7735 156.044 70.3909 156.738 70.2126 157.495C69.9695 158.489 70.0471 160.468 70.0511 161.537C70.0667 163.493 70.068 165.449 70.055 167.406C69.2211 167.424 68.3569 167.415 67.5202 167.418L67.5142 152.367L70.0609 152.38C70.0725 153.079 70.0562 153.714 70.0311 154.413C71.378 152.866 72.1648 152.253 74.2862 152.012Z" fill="#153286"/>
<path d="M121.763 152.016C124.373 151.674 126.508 152.937 128.066 154.916C127.223 155.391 126.582 155.745 125.692 156.144C125.535 155.864 125.313 155.554 125.091 155.322C124.436 154.63 123.525 154.237 122.571 154.236C121.541 154.226 119.499 154.839 119.693 156.088C120.341 159.223 125.362 158.45 127.312 160.487C128.622 161.855 128.657 164.705 127.251 166.036C125.874 167.339 123.878 167.624 122.006 167.617C119.559 167.503 117.375 166.511 116.38 164.152L118.557 162.862C119.665 165.131 123.336 166.383 125.024 164.382C127.672 161.243 120.158 160.653 118.385 159.346C117.601 158.769 117.086 157.896 116.96 156.93C116.529 153.812 119.095 152.35 121.763 152.016Z" fill="#153286"/>
<path d="M95.2544 152.237C96.0475 152.293 97.1495 152.265 97.9653 152.268C97.6689 153.055 97.3583 153.836 97.0335 154.612L91.8679 167.383C90.859 167.446 89.7867 167.418 88.7716 167.411C88.0301 164.861 86.7688 162.512 85.8156 160.126C84.7695 157.508 83.7668 154.872 82.7056 152.241C83.4176 152.302 84.6908 152.264 85.4436 152.266C85.7689 153.451 86.5438 154.676 87.0024 155.84C87.5388 157.202 88.0509 158.575 88.5667 159.945C89.1404 161.469 89.8271 163.066 90.3302 164.605C91.7991 160.438 93.8525 156.309 95.2544 152.237Z" fill="#153286"/>
<path d="M134.877 148.114L134.989 148.225C135.072 149.456 135.022 151.107 135.016 152.371C136.321 152.413 137.718 152.398 139.03 152.406C139.039 153.206 139.024 154.028 139.019 154.829L135.023 154.838C134.993 157.343 134.995 159.875 135.003 162.376C135.014 165.762 136.344 165.348 139.03 165.277C139.043 166.003 139.023 166.757 139.013 167.485C138.636 167.531 138.259 167.574 137.881 167.614C137.719 167.618 137.557 167.62 137.395 167.618C131.892 167.574 132.481 164.146 132.427 159.884C132.405 158.217 132.402 156.512 132.454 154.842L129.458 154.831L129.458 152.404L132.413 152.369L132.407 148.867C133.229 148.612 134.052 148.361 134.877 148.114Z" fill="#153286"/>
<path d="M60.7639 152.339H63.3303V167.407H60.758L60.7639 152.339Z" fill="#153286"/>
<path d="M61.8428 145.959C62.7559 145.858 63.5851 146.497 63.7201 147.406C63.8552 148.315 63.2477 149.168 62.3448 149.337C61.7296 149.452 61.1005 149.222 60.7052 148.737C60.3098 148.252 60.2113 147.589 60.4485 147.01C60.6857 146.43 61.2206 146.027 61.8428 145.959Z" fill="#153286"/>
</svg>
