<svg width="250" height="250" viewBox="0 0 250 250" fill="none" xmlns="http://www.w3.org/2000/svg">
<mask id="path-1-inside-1_453_68" fill="white">
<path d="M0 125C0 55.9644 55.9644 0 125 0C194.036 0 250 55.9644 250 125C250 194.036 194.036 250 125 250C55.9644 250 0 194.036 0 125Z"/>
</mask>
<path d="M0 125C0 55.9644 55.9644 0 125 0C194.036 0 250 55.9644 250 125C250 194.036 194.036 250 125 250C55.9644 250 0 194.036 0 125Z" fill="white"/>
<path d="M0 125M250 125M250 125M0 125M125 0M250 125M125 250M0 125M125 250V248C57.069 248 2 192.931 2 125H0H-2C-2 195.14 54.8598 252 125 252V250ZM250 125H248C248 192.931 192.931 248 125 248V250V252C195.14 252 252 195.14 252 125H250ZM125 0V2C192.931 2 248 57.069 248 125H250H252C252 54.8598 195.14 -2 125 -2V0ZM125 0V-2C54.8598 -2 -2 54.8598 -2 125H0H2C2 57.069 57.069 2 125 2V0Z" fill="#DDDBDB" mask="url(#path-1-inside-1_453_68)"/>
<path d="M112.007 144.485V142.795C112.04 136.995 112.554 132.371 113.548 128.924C114.576 125.477 116.067 122.693 118.023 120.572C119.978 118.451 122.331 116.529 125.082 114.805C127.137 113.479 128.977 112.104 130.601 110.679C132.225 109.253 133.518 107.679 134.479 105.956C135.44 104.199 135.92 102.243 135.92 100.089C135.92 97.8022 135.374 95.797 134.28 94.0735C133.186 92.35 131.711 91.0242 129.855 90.0962C128.032 89.1682 126.01 88.7042 123.79 88.7042C121.635 88.7042 119.597 89.1848 117.675 90.1459C115.752 91.074 114.178 92.466 112.952 94.3221C111.725 96.145 111.063 98.4153 110.963 101.133H90.679C90.8447 94.5044 92.4356 89.0356 95.4517 84.7269C98.4678 80.385 102.462 77.1535 107.433 75.0323C112.405 72.8779 117.89 71.8008 123.889 71.8008C130.485 71.8008 136.318 72.8945 141.389 75.082C146.46 77.2364 150.438 80.3685 153.321 84.4783C156.205 88.5882 157.646 93.5432 157.646 99.3434C157.646 103.221 157 106.668 155.707 109.684C154.448 112.667 152.675 115.319 150.388 117.639C148.101 119.926 145.4 121.997 142.284 123.853C139.666 125.411 137.511 127.035 135.821 128.725C134.164 130.416 132.921 132.371 132.092 134.592C131.297 136.813 130.883 139.547 130.849 142.795V144.485H112.007ZM121.851 176.304C118.536 176.304 115.703 175.144 113.349 172.823C111.029 170.47 109.886 167.653 109.919 164.372C109.886 161.124 111.029 158.34 113.349 156.02C115.703 153.699 118.536 152.539 121.851 152.539C125 152.539 127.767 153.699 130.153 156.02C132.54 158.34 133.75 161.124 133.783 164.372C133.75 166.559 133.17 168.564 132.043 170.387C130.949 172.177 129.507 173.619 127.717 174.713C125.928 175.773 123.972 176.304 121.851 176.304Z" fill="#FF0000"/>
</svg>
