<svg width="250" height="250" viewBox="0 0 250 250" fill="none" xmlns="http://www.w3.org/2000/svg">
<path d="M0 125C0 55.9644 55.9644 0 125 0C194.036 0 250 55.9644 250 125C250 194.036 194.036 250 125 250C55.9644 250 0 194.036 0 125Z" fill="white"/>
<path d="M122.5 55.0637C124.757 54.8333 127.168 55.0518 129.428 55.1847C140.482 55.8345 151.066 59.4642 160.478 65.3465C212.564 97.901 204.808 176.027 143.317 192.673C143.27 185.207 143.385 177.674 143.227 170.218C144.849 169.359 146.525 168.592 148.134 167.739C171.127 155.279 180.005 127.038 168.598 103.614C149.648 64.7007 92.0258 68.4942 78.9115 110.132C78.8191 110.393 78.7311 110.655 78.6473 110.919C76.8179 116.559 76.681 120.31 76.6563 126.137C76.5737 145.63 89.6259 163.565 107.723 170.444C109.738 171.21 111.921 171.768 114.006 172.442C114.289 160.665 114.075 147.99 114.063 136.124L114.032 127.43C114.026 125.874 113.942 123.082 114.214 121.633C116.258 121.378 134.44 121.396 135.695 121.864C136.01 123.043 135.918 127.554 135.919 129.057L135.925 194.257C133.879 194.409 131.747 194.74 129.625 194.894C111.281 196.068 93.2083 190.004 79.2842 178.004C65.1988 165.75 56.5237 148.428 55.1473 129.809C53.9562 111.393 60.0249 93.2437 72.0533 79.2486C82.3231 67.4146 96.2218 59.3135 111.58 56.2094C114.805 55.5892 119.193 55.2912 122.5 55.0637Z" fill="#A1DA63"/>
<path d="M123.296 93.241C129.869 92.3727 135.896 97.0113 136.74 103.588C137.583 110.164 132.922 116.174 126.343 116.993C119.798 117.807 113.827 113.176 112.988 106.635C112.149 100.093 116.758 94.1046 123.296 93.241Z" fill="#F4833D"/>
</svg>
