<svg width="250" height="250" viewBox="0 0 250 250" fill="none" xmlns="http://www.w3.org/2000/svg">
<mask id="path-1-inside-1_453_72" fill="white">
<path d="M0 125C0 55.9644 55.9644 0 125 0C194.036 0 250 55.9644 250 125C250 194.036 194.036 250 125 250C55.9644 250 0 194.036 0 125Z"/>
</mask>
<path d="M0 125C0 55.9644 55.9644 0 125 0C194.036 0 250 55.9644 250 125C250 194.036 194.036 250 125 250C55.9644 250 0 194.036 0 125Z" fill="white"/>
<path d="M0 125M250 125M250 125M0 125M125 0M250 125M125 250M0 125M125 250V248C57.069 248 2 192.931 2 125H0H-2C-2 195.14 54.8598 252 125 252V250ZM250 125H248C248 192.931 192.931 248 125 248V250V252C195.14 252 252 195.14 252 125H250ZM125 0V2C192.931 2 248 57.069 248 125H250H252C252 54.8598 195.14 -2 125 -2V0ZM125 0V-2C54.8598 -2 -2 54.8598 -2 125H0H2C2 57.069 57.069 2 125 2V0Z" fill="#DDDBDB" mask="url(#path-1-inside-1_453_72)"/>
<path d="M122.5 55.0634C124.757 54.8331 127.168 55.0515 129.428 55.1844C140.482 55.8343 151.066 59.464 160.478 65.3463C212.564 97.9007 204.808 176.027 143.317 192.673C143.27 185.206 143.385 177.674 143.227 170.218C144.849 169.358 146.525 168.592 148.134 167.738C171.127 155.278 180.005 127.038 168.598 103.613C149.648 64.7005 92.0258 68.4939 78.9115 110.132C78.8191 110.393 78.7311 110.655 78.6473 110.919C76.8179 116.558 76.681 120.31 76.6563 126.136C76.5737 145.629 89.6259 163.564 107.723 170.444C109.738 171.21 111.921 171.767 114.006 172.442C114.289 160.664 114.075 147.99 114.063 136.124L114.032 127.43C114.026 125.873 113.942 123.082 114.214 121.633C116.258 121.377 134.44 121.396 135.695 121.864C136.01 123.043 135.918 127.554 135.919 129.056L135.925 194.256C133.879 194.409 131.747 194.74 129.625 194.894C111.281 196.067 93.2083 190.004 79.2842 178.004C65.1988 165.749 56.5237 148.428 55.1473 129.809C53.9562 111.393 60.0249 93.2434 72.0533 79.2483C82.3231 67.4143 96.2218 59.3133 111.58 56.2092C114.805 55.5889 119.193 55.291 122.5 55.0634Z" fill="#A1DA63"/>
<path d="M123.296 93.2408C129.869 92.3725 135.896 97.0111 136.74 103.587C137.583 110.164 132.922 116.173 126.343 116.992C119.798 117.807 113.827 113.176 112.988 106.634C112.149 100.093 116.758 94.1044 123.296 93.2408Z" fill="#F4833D"/>
</svg>
