<svg width="250" height="250" viewBox="0 0 250 250" fill="none" xmlns="http://www.w3.org/2000/svg">
<mask id="path-1-inside-1_453_423" fill="white">
<path d="M0 125C0 55.9644 55.9644 0 125 0C194.036 0 250 55.9644 250 125C250 194.036 194.036 250 125 250C55.9644 250 0 194.036 0 125Z"/>
</mask>
<path d="M0 125C0 55.9644 55.9644 0 125 0C194.036 0 250 55.9644 250 125C250 194.036 194.036 250 125 250C55.9644 250 0 194.036 0 125Z" fill="white"/>
<path d="M0 125M250 125M250 125M0 125M125 0M250 125M125 250M0 125M125 250V248C57.069 248 2 192.931 2 125H0H-2C-2 195.14 54.8598 252 125 252V250ZM250 125H248C248 192.931 192.931 248 125 248V250V252C195.14 252 252 195.14 252 125H250ZM125 0V2C192.931 2 248 57.069 248 125H250H252C252 54.8598 195.14 -2 125 -2V0ZM125 0V-2C54.8598 -2 -2 54.8598 -2 125H0H2C2 57.069 57.069 2 125 2V0Z" fill="#DDDBDB" mask="url(#path-1-inside-1_453_423)"/>
<g clip-path="url(#clip0_453_423)">
<path d="M119.486 55.011H131.185C133.084 55.758 136.976 55.813 139.153 56.2599C146.023 57.67 152.445 59.9351 158.613 63.2971C171.952 70.4945 182.61 81.8061 189.003 95.5486C191.408 100.71 192.922 105.493 194.062 111.082C194.955 115.456 195.359 119.827 195.359 124.269C195.359 129.242 195.208 134.059 194.181 138.953C192.454 147.185 189.574 154.751 185.095 161.906C184.616 162.671 183.204 165.075 182.649 165.635C180.314 168.425 178.585 170.867 176.01 173.542C167.23 182.664 156.409 189.252 144.186 192.601C133.588 195.495 121.63 196.343 110.913 193.645C108.176 192.956 104.376 192.069 101.77 191.132C86.3936 185.615 73.2462 174.792 64.9755 160.706C60.9296 153.814 58.348 147.235 56.7075 139.419C55.6847 134.546 55.3594 129.8 55.3594 124.845C55.3594 120.029 55.611 115.417 56.656 110.681C58.7547 101.169 62.6785 91.1 68.9077 83.5132C69.0623 83.0091 70.9006 80.802 71.426 80.1496C78.617 71.2641 88.2547 64.4348 98.7919 60.0868C103.032 58.337 106.893 57.2491 111.365 56.2604C112.89 55.9234 118.542 55.6183 119.486 55.011Z" fill="#900C22"/>
<path d="M55.3594 124.845C59.4705 125.913 63.9931 127.565 68.0731 128.861L93.6401 137.039L155.68 156.911L176.576 163.599C178.592 164.244 180.642 165.025 182.649 165.635C180.314 168.425 178.585 170.867 176.01 173.542C167.23 182.664 156.409 189.252 144.186 192.601C130.234 196.411 115.4 196.032 101.77 191.132C86.3936 185.615 73.2462 174.792 64.9755 160.706C60.9296 153.814 58.348 147.235 56.7075 139.419C55.6847 134.546 55.3594 129.8 55.3594 124.845Z" fill="#21203B"/>
<path d="M139.154 56.26C146.023 57.6701 152.445 59.9352 158.613 63.2972C171.952 70.4946 182.611 81.8062 189.004 95.5487C191.409 100.71 192.922 105.493 194.062 111.082C194.956 115.456 195.36 119.827 195.36 124.269C193.932 124.016 189.7 122.52 188.1 122.021L168.08 115.574L96.9208 92.7722L77.7277 86.6258C76.1587 86.1158 69.7582 84.2675 68.9082 83.5132C69.0627 83.0091 70.9011 80.8021 71.4265 80.1497C78.6175 71.2642 88.2552 64.4349 98.7924 60.0869C103.033 58.3371 106.893 57.2492 111.366 56.2605C120.267 54.2928 130.265 54.4354 139.154 56.26Z" fill="#21203B"/>
</g>
<defs>
<clipPath id="clip0_453_423">
<rect width="140" height="140" fill="white" transform="translate(55.3594 55.011)"/>
</clipPath>
</defs>
</svg>
