<svg width="250" height="250" viewBox="0 0 250 250" fill="none" xmlns="http://www.w3.org/2000/svg">
<mask id="path-1-inside-1_453_269" fill="white">
<path d="M0 125C0 55.9644 55.9644 0 125 0C194.036 0 250 55.9644 250 125C250 194.036 194.036 250 125 250C55.9644 250 0 194.036 0 125Z"/>
</mask>
<path d="M0 125C0 55.9644 55.9644 0 125 0C194.036 0 250 55.9644 250 125C250 194.036 194.036 250 125 250C55.9644 250 0 194.036 0 125Z" fill="white"/>
<path d="M0 125M250 125M250 125M0 125M125 0M250 125M125 250M0 125M125 250V248C57.069 248 2 192.931 2 125H0H-2C-2 195.14 54.8598 252 125 252V250ZM250 125H248C248 192.931 192.931 248 125 248V250V252C195.14 252 252 195.14 252 125H250ZM125 0V2C192.931 2 248 57.069 248 125H250H252C252 54.8598 195.14 -2 125 -2V0ZM125 0V-2C54.8598 -2 -2 54.8598 -2 125H0H2C2 57.069 57.069 2 125 2V0Z" fill="#DDDBDB" mask="url(#path-1-inside-1_453_269)"/>
<path d="M112.507 144.985V143.295C112.54 137.495 113.054 132.871 114.048 129.424C115.076 125.977 116.567 123.193 118.523 121.072C120.478 118.951 122.831 117.029 125.582 115.305C127.637 113.979 129.477 112.604 131.101 111.179C132.725 109.753 134.018 108.179 134.979 106.456C135.94 104.699 136.42 102.743 136.42 100.589C136.42 98.3022 135.874 96.297 134.78 94.5735C133.686 92.85 132.211 91.5242 130.355 90.5962C128.532 89.6682 126.51 89.2042 124.29 89.2042C122.135 89.2042 120.097 89.6848 118.175 90.6459C116.252 91.574 114.678 92.966 113.452 94.8221C112.225 96.645 111.563 98.9153 111.463 101.633H91.179C91.3447 95.0044 92.9356 89.5356 95.9517 85.2269C98.9678 80.885 102.962 77.6535 107.933 75.5323C112.905 73.3779 118.39 72.3008 124.389 72.3008C130.985 72.3008 136.818 73.3945 141.889 75.582C146.96 77.7364 150.938 80.8685 153.821 84.9783C156.705 89.0882 158.146 94.0432 158.146 99.8434C158.146 103.721 157.5 107.168 156.207 110.184C154.948 113.167 153.175 115.819 150.888 118.139C148.601 120.426 145.9 122.497 142.784 124.353C140.166 125.911 138.011 127.535 136.321 129.225C134.664 130.916 133.421 132.871 132.592 135.092C131.797 137.313 131.383 140.047 131.349 143.295V144.985H112.507ZM122.351 176.804C119.036 176.804 116.203 175.644 113.849 173.323C111.529 170.97 110.386 168.153 110.419 164.872C110.386 161.624 111.529 158.84 113.849 156.52C116.203 154.199 119.036 153.039 122.351 153.039C125.5 153.039 128.267 154.199 130.653 156.52C133.04 158.84 134.25 161.624 134.283 164.872C134.25 167.059 133.67 169.064 132.543 170.887C131.449 172.677 130.007 174.119 128.217 175.213C126.428 176.273 124.472 176.804 122.351 176.804Z" fill="#FF0000"/>
</svg>
