<svg width="250" height="250" viewBox="0 0 250 250" fill="none" xmlns="http://www.w3.org/2000/svg">
<mask id="path-1-inside-1_453_307" fill="white">
<path d="M0 125C0 55.9644 55.9644 0 125 0C194.036 0 250 55.9644 250 125C250 194.036 194.036 250 125 250C55.9644 250 0 194.036 0 125Z"/>
</mask>
<path d="M0 125C0 55.9644 55.9644 0 125 0C194.036 0 250 55.9644 250 125C250 194.036 194.036 250 125 250C55.9644 250 0 194.036 0 125Z" fill="white"/>
<path d="M0 125M250 125M250 125M0 125M125 0M250 125M125 250M0 125M125 250V248C57.069 248 2 192.931 2 125H0H-2C-2 195.14 54.8598 252 125 252V250ZM250 125H248C248 192.931 192.931 248 125 248V250V252C195.14 252 252 195.14 252 125H250ZM125 0V2C192.931 2 248 57.069 248 125H250H252C252 54.8598 195.14 -2 125 -2V0ZM125 0V-2C54.8598 -2 -2 54.8598 -2 125H0H2C2 57.069 57.069 2 125 2V0Z" fill="#DDDBDB" mask="url(#path-1-inside-1_453_307)"/>
<path d="M148.52 94.9148C150.601 94.8233 152.401 94.7072 154.203 94.6755C157.253 94.6227 160.305 94.5945 163.354 94.6156C168.907 94.6508 174.34 95.316 179.428 97.7795C183.372 99.6905 186.474 102.439 187.998 106.624C189.153 109.794 188.991 113.085 188.192 116.323C187.502 119.124 186.371 121.757 184.773 124.181C184.195 125.058 183.671 125.966 183.055 126.972C183.41 127.3 183.706 127.648 184.072 127.905C186.886 129.883 189.209 132.367 191.248 135.095C193.125 137.608 194.516 140.423 194.885 143.569C195.523 148.968 193.449 153.195 188.878 156.13C185.572 158.256 181.833 159.357 178.016 159.991C174.442 160.582 170.805 161.022 167.185 161.099C155.636 161.353 144.084 161.416 132.531 161.543C122.972 161.645 113.416 161.74 103.856 161.817C98.4055 161.863 92.9514 161.856 87.5009 161.902C78.8884 161.976 70.2725 162.074 61.66 162.159C61.1319 162.162 60.6002 162.183 60.0791 162.113C58.1777 161.859 56.7552 160.431 56.7517 158.815C56.7482 157.26 58.0651 155.905 59.9664 155.63C60.8889 155.496 61.8361 155.507 62.7762 155.503C70.1668 155.461 77.561 155.447 84.9517 155.387C96.8563 155.296 108.761 155.169 120.662 155.071C124.179 155.042 127.701 155.085 131.222 155.046C140.014 154.944 148.806 154.902 157.591 154.666C162.682 154.529 167.766 154.092 172.847 153.726C175.094 153.564 177.175 152.857 179.136 151.681C183.227 149.229 184.456 144.361 182.551 140.001C181.22 136.95 178.935 134.708 176.425 132.642C175.249 131.674 174.069 130.713 172.918 129.717C171.094 128.148 170.756 125.646 172.111 123.516C172.9 122.281 173.78 121.102 174.502 119.828C175.594 117.899 176.784 116.024 177.206 113.771C177.829 110.446 176.784 107.746 174.27 105.617C172.164 103.833 169.692 102.791 166.907 102.633C164.865 102.517 162.816 102.425 160.77 102.404C158.918 102.383 158.802 102.524 158.833 104.438C158.914 108.943 159.02 113.444 159.126 117.945C159.193 120.757 159.302 123.566 159.341 126.378C159.404 130.886 159.443 135.391 159.46 139.899C159.467 142.215 158.682 143.21 156.425 143.745C154.735 144.147 153.038 144.104 151.429 143.379C150.045 142.756 149.122 141.775 149.207 140.128C149.214 140.011 149.207 139.892 149.203 139.776C149.084 131.804 148.971 123.837 148.844 115.865C148.742 109.538 148.626 103.206 148.52 96.8786C148.513 96.3049 148.52 95.7278 148.52 94.9148Z" fill="#45554B"/>
<path d="M115.719 102.4C116.05 103.097 116.248 103.516 116.452 103.935C119.033 109.259 119.184 114.711 117.395 120.303C116.202 124.037 115.135 127.81 113.973 131.554C113.628 132.67 113.234 133.786 112.727 134.834C111.956 136.429 110.882 136.492 109.787 135.084C109.607 134.855 109.445 134.606 109.329 134.338C107.192 129.397 104.991 124.484 102.959 119.501C101.266 115.337 101.072 111.068 102.762 106.82C103.061 106.064 103.48 105.353 103.875 104.638C104.234 103.984 104.635 103.35 105.04 102.664C103.847 101.443 102.325 101.288 100.952 101.017C96.6003 100.169 92.3117 100.56 88.1815 102.203C85.9738 103.083 84.0231 104.392 82.5056 106.233C79.9599 109.323 79.6219 112.814 80.988 116.474C81.576 118.051 82.2838 119.61 83.7591 120.662C85.1111 121.626 86.5689 122.006 88.2167 121.971C90.6251 121.922 90.8716 122.221 90.0828 124.452C88.8998 127.813 87.6146 131.142 86.3189 134.461C86.0372 135.179 85.7872 136.147 84.7062 136.041C83.7872 135.953 83.6006 135.088 83.3013 134.405C81.4704 130.227 79.6078 126.064 77.8543 121.859C76.4705 118.54 75.541 115.094 75.6501 111.448C75.7945 106.581 77.7205 102.713 81.7415 99.7783C87.171 95.812 93.1567 94.7351 99.7058 95.4425C103.079 95.805 106.23 96.8009 109.357 97.9623C110.142 98.2544 110.801 98.2439 111.544 97.9166C114.885 96.4384 118.35 95.3932 122.008 95.0659C128.959 94.4465 135.293 95.9422 140.68 100.57C143.458 102.96 145.007 106.022 145.469 109.675C145.912 113.19 145.419 116.58 144.155 119.838C142.229 124.801 140.198 129.717 138.177 134.641C138.018 135.024 137.638 135.496 137.282 135.58C136.659 135.725 136.18 135.25 135.913 134.69C135.05 132.899 134.159 131.114 133.385 129.281C132.723 127.722 132.198 126.106 131.624 124.509C131.466 124.069 131.325 123.618 131.233 123.161C131.004 121.996 131.247 121.651 132.458 121.623C133.814 121.595 135.152 121.577 136.409 120.965C137.43 120.468 138.3 119.856 138.909 118.85C140.472 116.27 141.377 113.56 140.779 110.516C140.374 108.45 139.405 106.659 137.888 105.198C135.775 103.164 133.307 101.76 130.423 101.123C126.11 100.169 121.825 100.049 117.6 101.541C117.008 101.756 116.452 102.062 115.719 102.4ZM110.734 121.039C112.484 119.156 113.477 116.974 113.646 114.464C113.839 111.582 112.758 109.09 110.984 106.873C110.022 105.673 109.607 105.666 108.737 106.887C106.308 110.298 106.262 113.937 107.85 117.663C108.417 118.994 109.188 120.236 110.734 121.039Z" fill="#45554B"/>
<path d="M102.068 138.421C109.455 138.364 116.842 138.297 124.229 138.252C130.623 138.213 137.021 138.209 143.415 138.164C144.5 138.157 145.51 138.294 146.433 138.906C148.253 140.11 148.151 142.327 146.137 143.217C145.257 143.608 144.222 143.798 143.253 143.812C136.915 143.897 130.581 143.89 124.243 143.942C114.448 144.023 104.652 144.129 94.8567 144.217C91.3955 144.249 87.9343 144.249 84.4732 144.284C76.7304 144.358 68.9912 144.456 61.2484 144.513C60.3823 144.52 59.4879 144.393 58.6534 144.164C57.3471 143.802 56.6007 142.799 56.5972 141.641C56.5901 140.367 57.1852 139.596 58.6429 139.149C59.2485 138.963 59.9034 138.864 60.5372 138.861C73.9699 138.734 87.4062 138.628 100.839 138.516C101.251 138.512 101.659 138.516 102.071 138.516C102.068 138.48 102.068 138.449 102.068 138.421Z" fill="#45554B"/>
<path d="M78.0166 135.971C77.6223 136.108 77.4075 136.235 77.1857 136.253C72.2633 136.59 67.3338 136.844 62.5417 135.309C61.4431 134.957 60.3692 134.398 59.4256 133.736C57.313 132.251 56.7179 129.999 56.6827 127.56C56.6299 123.632 56.644 119.701 56.5876 115.774C56.5137 110.326 56.394 104.878 56.3059 99.4263C56.2672 97.1317 56.2848 97.1177 58.6087 97.1036C61.01 97.0895 63.4079 97.1001 66.0205 97.1001C66.0662 97.7934 66.1402 98.4092 66.1437 99.0251C66.1789 102.368 66.1754 105.708 66.2247 109.052C66.3127 115.027 66.4183 121.003 66.5345 126.979C66.5803 129.425 67.4993 130.657 69.8619 131.297C71.4464 131.723 73.0696 131.941 74.7315 131.713C75.7104 131.579 76.7033 131.554 77.7631 131.473C78.2701 132.994 78.0131 134.43 78.0166 135.971Z" fill="#45554B"/>
<path d="M60.8895 87.8937C62.5092 87.7705 63.9247 88.0485 65.1817 88.9073C66.8119 90.0229 67.3365 91.7896 66.2767 93.1093C65.7169 93.8062 64.8789 94.4467 64.0409 94.7212C61.467 95.5553 58.9002 95.7031 56.5129 94.0068C54.4496 92.5392 54.4883 90.2446 56.6643 88.9389C57.9952 88.14 59.4213 87.6649 60.8895 87.8937Z" fill="#F8605B"/>
</svg>
