<svg width="250" height="250" viewBox="0 0 250 250" fill="none" xmlns="http://www.w3.org/2000/svg">
<path d="M0 125C0 55.9644 55.9644 0 125 0C194.036 0 250 55.9644 250 125C250 194.036 194.036 250 125 250C55.9644 250 0 194.036 0 125Z" fill="white"/>
<path d="M148.521 94.9145C150.602 94.823 152.401 94.7069 154.204 94.6752C157.253 94.6224 160.306 94.5943 163.355 94.6154C168.908 94.6506 174.341 95.3158 179.428 97.7793C183.372 99.6903 186.474 102.439 187.999 106.623C189.154 109.794 188.992 113.085 188.192 116.323C187.502 119.124 186.372 121.756 184.773 124.181C184.196 125.058 183.671 125.966 183.055 126.972C183.411 127.299 183.707 127.648 184.073 127.905C186.886 129.883 189.21 132.367 191.249 135.095C193.125 137.607 194.516 140.423 194.886 143.569C195.523 148.968 193.449 153.195 188.879 156.13C185.573 158.255 181.833 159.357 178.017 159.99C174.443 160.582 170.805 161.022 167.186 161.099C155.637 161.352 144.084 161.416 132.532 161.542C122.972 161.644 113.416 161.739 103.857 161.817C98.406 161.863 92.9519 161.856 87.5014 161.901C78.8889 161.975 70.273 162.074 61.6605 162.158C61.1324 162.162 60.6007 162.183 60.0796 162.113C58.1782 161.859 56.7557 160.43 56.7522 158.815C56.7487 157.259 58.0655 155.904 59.9669 155.63C60.8894 155.496 61.8366 155.507 62.7767 155.503C70.1673 155.461 77.5615 155.447 84.9522 155.387C96.8568 155.296 108.761 155.169 120.662 155.07C124.18 155.042 127.701 155.084 131.222 155.046C140.014 154.944 148.806 154.901 157.591 154.666C162.682 154.528 167.767 154.092 172.848 153.726C175.094 153.564 177.175 152.857 179.136 151.681C183.228 149.228 184.457 144.361 182.552 140.001C181.221 136.949 178.936 134.708 176.425 132.642C175.249 131.674 174.069 130.713 172.918 129.717C171.094 128.148 170.756 125.645 172.112 123.516C172.9 122.281 173.781 121.102 174.503 119.828C175.594 117.899 176.784 116.023 177.207 113.771C177.83 110.445 176.784 107.746 174.27 105.617C172.165 103.833 169.693 102.791 166.908 102.632C164.866 102.516 162.816 102.425 160.771 102.404C158.918 102.383 158.802 102.523 158.834 104.438C158.915 108.943 159.021 113.444 159.126 117.945C159.193 120.757 159.302 123.565 159.341 126.377C159.404 130.886 159.443 135.39 159.461 139.899C159.468 142.214 158.683 143.21 156.426 143.745C154.735 144.146 153.038 144.104 151.429 143.379C150.045 142.756 149.123 141.774 149.207 140.127C149.215 140.011 149.207 139.892 149.204 139.775C149.084 131.804 148.972 123.836 148.845 115.865C148.743 109.537 148.626 103.206 148.521 96.8783C148.514 96.3047 148.521 95.7275 148.521 94.9145Z" fill="#45554B"/>
<path d="M115.72 102.4C116.051 103.097 116.248 103.516 116.452 103.934C119.033 109.259 119.185 114.711 117.396 120.303C116.202 124.037 115.135 127.809 113.974 131.554C113.628 132.67 113.234 133.785 112.727 134.834C111.956 136.428 110.882 136.492 109.787 135.084C109.607 134.855 109.445 134.605 109.329 134.338C107.192 129.397 104.991 124.484 102.96 119.5C101.266 115.337 101.072 111.068 102.763 106.82C103.062 106.064 103.481 105.353 103.875 104.638C104.234 103.984 104.636 103.35 105.041 102.664C103.847 101.443 102.326 101.288 100.953 101.017C96.6008 100.169 92.3121 100.559 88.182 102.203C85.9743 103.083 84.0236 104.392 82.5061 106.232C79.9604 109.322 79.6223 112.814 80.9885 116.474C81.5765 118.05 82.2842 119.609 83.7596 120.662C85.1116 121.626 86.5693 122.006 88.2172 121.971C90.6256 121.922 90.872 122.221 90.0833 124.452C88.9003 127.813 87.6151 131.142 86.3193 134.461C86.0377 135.179 85.7877 136.147 84.7067 136.041C83.7877 135.953 83.6011 135.087 83.3018 134.405C81.4709 130.227 79.6083 126.064 77.8548 121.858C76.471 118.54 75.5415 115.094 75.6506 111.448C75.795 106.581 77.721 102.713 81.742 99.778C87.1714 95.8118 93.1572 94.7348 99.7063 95.4422C103.079 95.8047 106.231 96.8007 109.357 97.9621C110.143 98.2542 110.801 98.2436 111.544 97.9163C114.885 96.4382 118.35 95.393 122.009 95.0657C128.959 94.4463 135.293 95.942 140.681 100.57C143.459 102.96 145.008 106.021 145.469 109.674C145.913 113.19 145.42 116.579 144.156 119.838C142.23 124.8 140.198 129.717 138.177 134.64C138.019 135.024 137.638 135.496 137.283 135.58C136.66 135.724 136.181 135.249 135.913 134.69C135.05 132.898 134.16 131.114 133.385 129.281C132.723 127.721 132.198 126.106 131.624 124.508C131.466 124.068 131.325 123.618 131.234 123.16C131.005 121.996 131.248 121.651 132.459 121.622C133.815 121.594 135.153 121.577 136.41 120.964C137.431 120.468 138.3 119.856 138.91 118.849C140.473 116.27 141.378 113.56 140.779 110.515C140.374 108.45 139.406 106.658 137.888 105.198C135.776 103.164 133.308 101.759 130.424 101.122C126.111 100.169 121.825 100.049 117.6 101.541C117.009 101.756 116.452 102.062 115.72 102.4ZM110.734 121.038C112.484 119.155 113.477 116.973 113.646 114.464C113.84 111.582 112.759 109.09 110.984 106.873C110.023 105.673 109.607 105.666 108.738 106.887C106.308 110.297 106.262 113.936 107.85 117.663C108.417 118.994 109.188 120.236 110.734 121.038Z" fill="#45554B"/>
<path d="M102.068 138.42C109.455 138.364 116.843 138.297 124.23 138.251C130.624 138.213 137.022 138.209 143.416 138.163C144.5 138.156 145.511 138.294 146.433 138.906C148.254 140.11 148.152 142.327 146.138 143.217C145.257 143.608 144.222 143.798 143.254 143.812C136.916 143.896 130.582 143.889 124.244 143.942C114.448 144.023 104.653 144.129 94.8572 144.217C91.396 144.248 87.9348 144.248 84.4737 144.284C76.7309 144.357 68.9917 144.456 61.2489 144.512C60.3828 144.519 59.4884 144.393 58.6539 144.164C57.3476 143.801 56.6012 142.798 56.5976 141.641C56.5906 140.367 57.1857 139.596 58.6434 139.149C59.249 138.962 59.9039 138.864 60.5377 138.86C73.9704 138.734 87.4067 138.628 100.839 138.515C101.251 138.512 101.66 138.515 102.072 138.515C102.068 138.48 102.068 138.449 102.068 138.42Z" fill="#45554B"/>
<path d="M78.0171 135.971C77.6228 136.108 77.408 136.235 77.1862 136.252C72.2638 136.59 67.3343 136.844 62.5422 135.309C61.4436 134.957 60.3697 134.398 59.4261 133.736C57.3134 132.251 56.7184 129.998 56.6832 127.56C56.6304 123.632 56.6444 119.701 56.5881 115.773C56.5142 110.325 56.3945 104.878 56.3064 99.4261C56.2677 97.1315 56.2853 97.1174 58.6092 97.1033C61.0105 97.0893 63.4084 97.0998 66.021 97.0998C66.0667 97.7931 66.1407 98.409 66.1442 99.0249C66.1794 102.368 66.1759 105.708 66.2252 109.051C66.3132 115.027 66.4188 121.003 66.535 126.979C66.5808 129.425 67.4998 130.657 69.8624 131.297C71.4469 131.723 73.0701 131.941 74.732 131.712C75.7108 131.579 76.7038 131.554 77.7636 131.473C78.2706 132.993 78.0136 134.429 78.0171 135.971Z" fill="#45554B"/>
<path d="M60.89 87.8934C62.5097 87.7703 63.9252 88.0483 65.1822 88.907C66.8124 90.0226 67.337 91.7893 66.2772 93.1091C65.7174 93.8059 64.8794 94.4464 64.0413 94.7209C61.4675 95.555 58.9006 95.7028 56.5134 94.0065C54.4501 92.539 54.4888 90.2444 56.6648 88.9387C57.9957 88.1398 59.4218 87.6647 60.89 87.8934Z" fill="#F8605B"/>
</svg>
