<svg width="250" height="250" viewBox="0 0 250 250" fill="none" xmlns="http://www.w3.org/2000/svg">
<g clip-path="url(#clip0_1_957)">
<path d="M0 125C0 55.9644 55.9644 0 125 0C194.036 0 250 55.9644 250 125C250 194.036 194.036 250 125 250C55.9644 250 0 194.036 0 125Z" fill="white"/>
<path d="M220.859 220.011L36.3594 36.5107V-23.9893H266.859V220.011H220.859Z" fill="#2A176F"/>
<path d="M35.3594 35.0107L219.859 218.511V279.011H-10.6406V35.0107H35.3594Z" fill="#01923F"/>
<path d="M118.859 82.0107L129.748 115.178H164.986L136.478 135.676L147.367 168.844L118.859 148.345L90.3518 168.844L101.241 135.676L72.7331 115.178H107.97L118.859 82.0107Z" fill="white"/>
</g>
<defs>
<clipPath id="clip0_1_957">
<path d="M0 125C0 55.9644 55.9644 0 125 0C194.036 0 250 55.9644 250 125C250 194.036 194.036 250 125 250C55.9644 250 0 194.036 0 125Z" fill="white"/>
</clipPath>
</defs>
</svg>
