<svg width="250" height="250" viewBox="0 0 250 250" fill="none" xmlns="http://www.w3.org/2000/svg">
<mask id="path-1-inside-1_453_167" fill="white">
<path d="M0 125C0 55.9644 55.9644 0 125 0C194.036 0 250 55.9644 250 125C250 194.036 194.036 250 125 250C55.9644 250 0 194.036 0 125Z"/>
</mask>
<path d="M0 125C0 55.9644 55.9644 0 125 0C194.036 0 250 55.9644 250 125C250 194.036 194.036 250 125 250C55.9644 250 0 194.036 0 125Z" fill="white"/>
<path d="M0 125M250 125M250 125M0 125M125 0M250 125M125 250M0 125M125 250V248C57.069 248 2 192.931 2 125H0H-2C-2 195.14 54.8598 252 125 252V250ZM250 125H248C248 192.931 192.931 248 125 248V250V252C195.14 252 252 195.14 252 125H250ZM125 0V2C192.931 2 248 57.069 248 125H250H252C252 54.8598 195.14 -2 125 -2V0ZM125 0V-2C54.8598 -2 -2 54.8598 -2 125H0H2C2 57.069 57.069 2 125 2V0Z" fill="#DDDBDB" mask="url(#path-1-inside-1_453_167)"/>
<g clip-path="url(#clip0_453_167)">
<path d="M119.01 55.011H121.182H131.728C132.792 55.2719 133.691 55.3868 134.78 55.5344C136.842 55.7092 139.72 56.3209 141.739 56.7854C156.247 60.25 169.251 68.3011 178.82 79.7434C186.487 88.8326 191.709 99.7279 193.99 111.398C194.376 113.393 194.666 115.406 194.858 117.43C194.978 118.617 195.096 120.711 195.359 121.788V128.403C195.027 130.021 194.988 131.68 194.809 133.328C194.549 135.941 194.118 138.535 193.519 141.092C189.404 158.751 178.626 174.137 163.436 184.039C155.822 189.056 147.007 192.598 137.992 194.21C137.076 194.374 134.176 194.653 133.528 195.011H128.278H123.278H117.483C116.662 194.621 111.511 193.956 110.017 193.623C105.926 192.684 101.928 191.377 98.0716 189.719C81.0049 182.411 67.5323 168.634 60.6074 151.408C53.6351 133.86 53.9166 114.261 61.3899 96.9199C69.401 78.4852 84.9373 64.3741 104.056 58.1684C106.833 57.2794 109.63 56.6052 112.476 55.9878C114.236 55.606 117.465 55.6801 119.01 55.011Z" fill="#F8F8FA"/>
<path d="M119.01 55.011H121.182C118.868 55.4574 116.862 55.7726 114.588 56.4451C105 59.2217 96.6768 65.2452 91.0425 73.4841C84.6342 82.8788 82.2063 94.4286 84.2897 105.608C86.4063 116.913 92.9652 126.898 102.499 133.33C106.794 136.194 111.559 138.278 116.577 139.488C116.338 149.63 116.537 160.508 116.536 170.704L116.532 180.463C116.534 187.593 116.142 191.572 123.278 195.011H117.483C116.662 194.621 111.511 193.956 110.017 193.623C105.926 192.684 101.928 191.377 98.0716 189.719C81.0049 182.411 67.5323 168.634 60.6074 151.408C53.6351 133.86 53.9166 114.261 61.3899 96.9199C69.401 78.4852 84.9373 64.3741 104.056 58.1684C106.833 57.2794 109.63 56.6052 112.476 55.9878C114.236 55.606 117.465 55.6801 119.01 55.011Z" fill="#1A564A"/>
<path d="M134.779 55.5344C136.842 55.7092 139.719 56.3209 141.738 56.7854C156.247 60.25 169.251 68.3011 178.82 79.7434C186.487 88.8326 191.708 99.7279 193.989 111.398C194.376 113.393 194.666 115.406 194.857 117.43C195.397 122.762 195.39 127.972 194.808 133.328C194.548 135.941 194.118 138.535 193.519 141.092C189.403 158.751 178.625 174.137 163.435 184.039C155.822 189.056 147.006 192.598 137.991 194.21C137.075 194.374 134.175 194.653 133.528 195.011H128.277C129.678 194.382 130.999 193.651 132.094 192.556C133.444 191.206 134.354 189.479 134.703 187.603C135.064 185.651 134.963 183.058 134.963 181.024L134.963 172.206L134.941 139.612C138.399 139.199 144.269 136.62 147.242 134.938C156.974 129.369 164.128 120.202 167.166 109.409C170.303 98.2553 168.817 86.308 163.043 76.2623C156.662 65.0926 146.95 58.8674 134.779 55.5344Z" fill="#1A564A"/>
<path d="M123.472 74.3848C133.685 73.3047 142.846 80.6959 143.949 90.907C145.052 101.118 137.682 110.295 127.474 111.422C117.232 112.552 108.019 105.153 106.912 94.9088C105.805 84.6648 113.225 75.4683 123.472 74.3848Z" fill="#C9C9CA"/>
<path d="M123.618 87.3748C126.444 86.6939 129.282 88.4476 129.938 91.2791C130.594 94.1105 128.815 96.9335 125.978 97.564C123.176 98.1868 120.396 96.435 119.748 93.6388C119.101 90.8428 120.828 88.0472 123.618 87.3748Z" fill="#1A564A"/>
</g>
<defs>
<clipPath id="clip0_453_167">
<rect width="140" height="140" fill="white" transform="translate(55.3594 55.011)"/>
</clipPath>
</defs>
</svg>
