<svg width="250" height="250" viewBox="0 0 250 250" fill="none" xmlns="http://www.w3.org/2000/svg">
<mask id="path-1-inside-1_453_198" fill="white">
<path d="M0 125C0 55.9644 55.9644 0 125 0C194.036 0 250 55.9644 250 125C250 194.036 194.036 250 125 250C55.9644 250 0 194.036 0 125Z"/>
</mask>
<path d="M0 125C0 55.9644 55.9644 0 125 0C194.036 0 250 55.9644 250 125C250 194.036 194.036 250 125 250C55.9644 250 0 194.036 0 125Z" fill="white"/>
<path d="M0 125M250 125M250 125M0 125M125 0M250 125M125 250M0 125M125 250V248C57.069 248 2 192.931 2 125H0H-2C-2 195.14 54.8598 252 125 252V250ZM250 125H248C248 192.931 192.931 248 125 248V250V252C195.14 252 252 195.14 252 125H250ZM125 0V2C192.931 2 248 57.069 248 125H250H252C252 54.8598 195.14 -2 125 -2V0ZM125 0V-2C54.8598 -2 -2 54.8598 -2 125H0H2C2 57.069 57.069 2 125 2V0Z" fill="#DDDBDB" mask="url(#path-1-inside-1_453_198)"/>
<path d="M112.03 103.409C112.806 103.436 114.382 103.606 115.089 103.858C120.935 105.938 128.755 113.328 131.627 118.679C128.137 125.006 124.204 130.503 117.754 134.168C113.77 135.952 109.362 136.867 105.85 133.799C99.4246 128.188 97.8014 114.59 103.311 107.861C105.854 104.755 108.263 103.787 112.03 103.409Z" fill="#289719"/>
<path fill-rule="evenodd" clip-rule="evenodd" d="M130.929 55.162C134.276 54.5437 140.198 56.1728 142.902 58.174C146.009 60.4732 149.224 64.116 151.939 66.9308L182.062 98.1052C187.27 103.491 193.411 108.388 194.696 116.181C196.566 127.518 189.474 133.254 182.424 140.528L166.142 157.358L151.449 172.615C146.09 178.137 142.956 182.504 134.814 183.813C124.29 185.052 119.326 178.211 112.886 171.56L81.018 138.583C74.1416 131.468 69.476 127.737 70.639 116.888C71.3914 109.87 74.6819 106.891 79.266 102.148L88.9497 92.1456C96.3302 84.4249 103.75 76.7411 111.208 69.0948C113.314 66.9347 115.567 64.6873 117.604 62.473C121.558 58.176 125.017 55.9497 130.929 55.162ZM129.991 107.168C125.985 101.979 117.791 94.1944 110.622 95.2686C106.157 95.7245 102.066 97.9654 99.2778 101.483C89.2916 113.86 92.4757 144.822 113.09 143.773C119.161 143.464 125.515 137.028 128.905 132.516C130.28 130.786 133.96 125.598 135.353 124.533C137.714 129.043 145.074 136.885 148.814 140.102C153.429 144.071 160.551 145.175 165.801 142.061C169.243 140.308 169.029 139.475 171.474 137.365C169.717 135.067 167.962 133.984 166.091 131.517C165.418 132.369 164.445 133.511 163.593 134.189C160.881 135.696 158.941 136.31 155.775 135.448C150.197 133.929 145.836 128.709 142.609 124.167C141.467 122.559 140.348 120.235 139.269 118.696C142.005 113.752 149.47 105.583 155.066 103.827C157.083 103.194 160.353 103.357 162.264 104.361C163.362 104.937 165.186 106.715 166.248 106.73C166.875 106.387 170.543 103.256 171.314 102.556C165.938 94.9007 156.791 92.8136 149.095 98.3813C144.154 101.957 138.039 108.928 135.244 114.322C133.336 112.322 131.753 109.449 129.991 107.168Z" fill="#289719"/>
<path d="M114.8 60.1965C114.909 60.2302 114.893 60.254 114.993 60.3688C114.564 61.4411 109.217 66.6671 108.023 67.8964L84.6357 92.1198L77.3357 99.6372C73.9218 103.151 70.0086 106.994 68.4801 111.855C67.2495 116.248 67.0442 121.129 68.0686 125.569C69.5542 132.007 74.3825 136.304 78.7408 140.815L90.866 153.334L108.927 172.022C111.847 175.05 117.588 181.652 121.08 183.79C125.841 186.706 131.743 187.853 137.184 186.596C132.977 191.116 130.775 192.873 124.992 194.419C120.99 195.507 115.252 194.942 111.592 193.108C106.414 190.513 101.209 184.254 97.1668 180.082L80.2632 162.62L66.9574 148.807C63.0283 144.743 58.1763 140.567 56.2173 135.205C54.5945 130.762 54.5149 123.14 56.46 118.821C57.4444 116.633 58.7323 114.595 60.2857 112.766C62.4311 110.22 65.9663 106.843 68.3489 104.393L98.5891 73.073C104.103 67.3637 107.081 63.1252 114.8 60.1965Z" fill="#F45518"/>
</svg>
