<svg width="250" height="250" viewBox="0 0 250 250" fill="none" xmlns="http://www.w3.org/2000/svg">
<path d="M0 125C0 55.9644 55.9644 0 125 0C194.036 0 250 55.9644 250 125C250 194.036 194.036 250 125 250C55.9644 250 0 194.036 0 125Z" fill="white"/>
<path d="M112.03 103.409C112.805 103.436 114.381 103.607 115.088 103.858C120.934 105.939 128.755 113.328 131.627 118.68C128.137 125.006 124.204 130.503 117.754 134.168C113.769 135.952 109.362 136.867 105.849 133.799C99.4241 128.188 97.8009 114.591 103.31 107.861C105.853 104.755 108.263 103.788 112.03 103.409Z" fill="#289719"/>
<path fill-rule="evenodd" clip-rule="evenodd" d="M130.928 55.1622C134.276 54.544 140.197 56.173 142.901 58.1742C146.008 60.4735 149.224 64.1163 151.938 66.931L182.062 98.1055C187.269 103.491 193.411 108.389 194.696 116.182C196.565 127.518 189.474 133.254 182.424 140.529L166.141 157.358L151.449 172.615C146.09 178.137 142.956 182.504 134.813 183.813C124.29 185.053 119.325 178.212 112.885 171.56L81.0175 138.584C74.1411 131.468 69.4755 127.738 70.6385 116.888C71.3909 109.87 74.6814 106.891 79.2655 102.148L88.9492 92.1458C96.3297 84.4251 103.749 76.7413 111.207 69.095C113.314 66.9349 115.566 64.6875 117.604 62.4732C121.557 58.1762 125.016 55.9499 130.928 55.1622ZM129.991 107.168C125.985 101.98 117.79 94.1947 110.622 95.2689C106.157 95.7247 102.065 97.9657 99.2774 101.483C89.2911 113.86 92.4752 144.822 113.09 143.773C119.16 143.464 125.514 137.029 128.904 132.516C130.279 130.787 133.96 125.598 135.353 124.534C137.713 129.043 145.073 136.886 148.813 140.102C153.428 144.071 160.551 145.175 165.801 142.062C169.243 140.308 169.029 139.475 171.474 137.365C169.716 135.068 167.961 133.984 166.09 131.518C165.418 132.369 164.445 133.511 163.592 134.189C160.88 135.697 158.94 136.31 155.775 135.448C150.196 133.929 145.835 128.709 142.609 124.167C141.466 122.559 140.348 120.235 139.269 118.696C142.005 113.752 149.47 105.584 155.066 103.827C157.082 103.195 160.352 103.358 162.264 104.361C163.361 104.937 165.185 106.715 166.247 106.73C166.874 106.387 170.543 103.257 171.313 102.556C165.937 94.901 156.79 92.8138 149.095 98.3815C144.153 101.957 138.038 108.928 135.244 114.323C133.336 112.322 131.752 109.45 129.991 107.168Z" fill="#289719"/>
<path d="M114.799 60.1967C114.909 60.2304 114.892 60.2542 114.993 60.369C114.563 61.4414 109.216 66.6674 108.023 67.8967L84.6352 92.12L77.3352 99.6374C73.9214 103.151 70.0081 106.994 68.4796 111.856C67.249 116.248 67.0437 121.13 68.0681 125.569C69.5537 132.007 74.382 136.304 78.7403 140.816L90.8655 153.334L108.926 172.022C111.847 175.05 117.588 181.653 121.079 183.79C125.84 186.706 131.743 187.853 137.184 186.596C132.976 191.116 130.774 192.873 124.991 194.419C120.989 195.507 115.251 194.942 111.592 193.108C106.413 190.514 101.208 184.254 97.1663 180.083L80.2627 162.62L66.957 148.808C63.0278 144.743 58.1758 140.567 56.2168 135.205C54.594 130.762 54.5144 123.14 56.4595 118.822C57.4439 116.633 58.7318 114.595 60.2853 112.766C62.4306 110.22 65.9658 106.843 68.3484 104.393L98.5886 73.0732C104.103 67.364 107.08 63.1254 114.799 60.1967Z" fill="#F45518"/>
</svg>
