<svg width="250" height="250" viewBox="0 0 250 250" fill="none" xmlns="http://www.w3.org/2000/svg">
<mask id="path-1-inside-1_453_197" fill="white">
<path d="M0 125C0 55.9644 55.9644 0 125 0C194.036 0 250 55.9644 250 125C250 194.036 194.036 250 125 250C55.9644 250 0 194.036 0 125Z"/>
</mask>
<path d="M0 125C0 55.9644 55.9644 0 125 0C194.036 0 250 55.9644 250 125C250 194.036 194.036 250 125 250C55.9644 250 0 194.036 0 125Z" fill="white"/>
<path d="M0 125M250 125M250 125M0 125M125 0M250 125M125 250M0 125M125 250V248C57.069 248 2 192.931 2 125H0H-2C-2 195.14 54.8598 252 125 252V250ZM250 125H248C248 192.931 192.931 248 125 248V250V252C195.14 252 252 195.14 252 125H250ZM125 0V2C192.931 2 248 57.069 248 125H250H252C252 54.8598 195.14 -2 125 -2V0ZM125 0V-2C54.8598 -2 -2 54.8598 -2 125H0H2C2 57.069 57.069 2 125 2V0Z" fill="#DDDBDB" mask="url(#path-1-inside-1_453_197)"/>
<g clip-path="url(#clip0_453_197)">
<path d="M59.3385 150.274C52.788 134.227 53.0087 116.211 59.9506 100.329C60.8568 98.2175 61.9148 96.353 63.0462 94.3625C69.0812 83.6464 77.9684 74.813 88.7209 68.8431C94.2418 65.7073 100.885 62.9683 107.063 61.4777C122.432 57.9091 138.541 59.369 153.019 65.6426C181.445 77.9427 199.239 109.76 191.571 140.423C190.613 144.254 189.887 147.48 188.275 151.163C182.033 165.439 171.144 177.182 157.38 184.483C140.579 193.348 120.948 194.564 102.776 189.549C99.0606 188.523 93.359 185.926 89.8181 184.197L89.9417 183.796C93.6142 185.752 102.266 188.447 106.373 189.157C130.086 193.261 156.991 182.472 168.98 160.986C175.839 148.812 177.561 134.406 173.764 120.959C173.21 119.038 172.474 117.427 171.716 115.603C163.76 96.4474 145.088 83.9722 124.698 81.3499C101.617 78.3815 76.3562 89.3996 64.8417 110.268C58.0229 122.414 56.4061 136.801 60.3589 150.157L59.8222 150.352L59.5643 150.167C59.3854 150.214 59.4345 150.164 59.3385 150.274Z" fill="#70309F"/>
<path d="M123.521 119.144C123.353 118.788 112.769 162.439 113.755 165.618C116.206 173.52 130.383 159.119 131.828 157.228C130.874 159.911 131.427 161.263 128.952 163.507C125.466 166.666 122.311 169.428 117.978 171.393C117.11 171.743 116.224 172.035 115.329 172.307C112.445 173.183 109.302 173.676 106.526 172.145C104.672 171.122 103.927 169.262 103.698 167.248C103.372 164.38 104.107 161.141 104.642 158.316C105.689 152.777 110.732 133.214 109.466 129.091C109.217 128.282 108.774 127.529 108.001 127.129C106.166 126.179 100.384 127.666 98.4243 128.297C98.6624 127.483 98.8822 126.627 99.1049 125.805C101.324 125.118 103.766 124.633 105.987 123.945C111.817 122.138 117.568 120.514 123.521 119.144Z" fill="black"/>
<path d="M130.424 94.5736L130.515 94.8347C129.011 97.5217 127.586 102.069 124.919 103.601C121.442 105.599 117.248 106.719 113.949 109.168L113.845 109.074C113.683 108.21 116.207 103.633 117.082 102.874C118.844 101.345 121.094 100.332 123.049 99.0859C125.503 97.5224 127.882 95.9894 130.424 94.5736Z" fill="black"/>
</g>
<defs>
<clipPath id="clip0_453_197">
<rect width="140" height="133.971" fill="white" transform="translate(53.8594 59.0254)"/>
</clipPath>
</defs>
</svg>
