<svg width="250" height="250" viewBox="0 0 250 250" fill="none" xmlns="http://www.w3.org/2000/svg">
<path d="M0 125C0 55.9644 55.9644 0 125 0V0C194.036 0 250 55.9644 250 125V125C250 194.036 194.036 250 125 250V250C55.9644 250 0 194.036 0 125V125Z" fill="#154F5D"/>
<path d="M108.347 97.7294H71.4258L85.217 111.973C88.5299 115.395 90.3822 119.971 90.3822 124.733V178.374C90.3822 187.556 97.8259 195 107.008 195C116.19 195 123.634 187.556 123.634 178.374V113.016C123.634 104.574 116.79 97.7294 108.347 97.7294Z" fill="white"/>
<path d="M163.284 97.7294H126.363L140.154 111.973C143.467 115.395 145.319 119.971 145.319 124.733V178.374C145.319 187.556 152.763 195 161.945 195C171.128 195 178.571 187.556 178.571 178.374V113.016C178.571 104.574 171.727 97.7294 163.284 97.7294Z" fill="white"/>
<path d="M125.473 73.3443C125.473 83.4755 117.26 91.6885 107.129 91.6885C96.9978 91.6885 88.7848 83.4755 88.7848 73.3443C88.7848 63.213 96.9978 55 107.129 55C117.26 55 125.473 63.213 125.473 73.3443Z" fill="white"/>
</svg>
