<svg width="250" height="250" viewBox="0 0 250 250" fill="none" xmlns="http://www.w3.org/2000/svg">
<path d="M0 125C0 55.9644 55.9644 0 125 0C194.036 0 250 55.9644 250 125C250 194.036 194.036 250 125 250C55.9644 250 0 194.036 0 125Z" fill="#E6E7EA"/>
<path fill-rule="evenodd" clip-rule="evenodd" d="M193.651 92.7227V103.377H56.3498V92.5781L125.072 60.0107L193.651 92.7227ZM125 75.6934C120.582 75.6934 117 79.2752 117 83.6934C117 88.1116 120.582 91.6934 125 91.6934C129.419 91.6934 133 88.1116 133 83.6934C133 79.2752 129.418 75.6934 125 75.6934Z" fill="white"/>
<path d="M93 168.581H114V110.521H136V168.581H157V110.521H179V168.581H186.713V175.724H193.654V190.011H56.3457V175.724H63.2881V168.581H71V110.521H93V168.581Z" fill="white"/>
</svg>
