<svg width="250" height="250" viewBox="0 0 250 250" fill="none" xmlns="http://www.w3.org/2000/svg">
<mask id="path-1-inside-1_453_190" fill="white">
<path d="M0 125C0 55.9644 55.9644 0 125 0C194.036 0 250 55.9644 250 125C250 194.036 194.036 250 125 250C55.9644 250 0 194.036 0 125Z"/>
</mask>
<path d="M0 125C0 55.9644 55.9644 0 125 0C194.036 0 250 55.9644 250 125C250 194.036 194.036 250 125 250C55.9644 250 0 194.036 0 125Z" fill="white"/>
<path d="M0 125M250 125M250 125M0 125M125 0M250 125M125 250M0 125M125 250V248C57.069 248 2 192.931 2 125H0H-2C-2 195.14 54.8598 252 125 252V250ZM250 125H248C248 192.931 192.931 248 125 248V250V252C195.14 252 252 195.14 252 125H250ZM125 0V2C192.931 2 248 57.069 248 125H250H252C252 54.8598 195.14 -2 125 -2V0ZM125 0V-2C54.8598 -2 -2 54.8598 -2 125H0H2C2 57.069 57.069 2 125 2V0Z" fill="#DDDBDB" mask="url(#path-1-inside-1_453_190)"/>
<path d="M99.122 90.4046C101.255 90.1596 103.59 91.5483 105.568 92.363C108.753 93.6555 111.93 94.9645 115.102 96.2897L156.996 113.574C159.886 114.759 163.309 116.024 166.02 117.561C166.618 117.9 166.715 118.378 166.845 119.02C166.515 120.844 158.694 126.354 156.69 127.889C151.657 131.744 146.654 135.635 141.679 139.562C130.965 147.303 120.835 156.234 110.032 163.865C109.384 164.323 108.761 164.172 108.069 163.963C107.493 163.505 107.336 162.612 107.222 161.89C106.03 154.334 105.193 146.624 104.22 139.041L98.7883 96.9666C98.4963 94.626 97.7746 92.1369 99.122 90.4046Z" fill="#D7A42A"/>
<path d="M168.717 125.058C169.48 125.103 170.105 125.413 170.695 125.871C171.329 128.205 170.637 136.952 170.538 139.938L169.91 161.984C169.763 167.706 169.987 173.689 169.527 179.404C169.479 179.991 169.21 180.282 168.749 180.584C165.958 180.912 155.102 178.272 151.672 177.554L125.784 172.098C123.379 171.609 115.814 170.402 114.391 169.025C113.727 167.68 114.838 166.659 115.769 165.89C120.008 162.387 124.447 159.115 128.798 155.749C136.347 149.814 143.93 143.921 151.544 138.071L162.614 129.437C164.055 128.323 167.328 125.679 168.717 125.058Z" fill="#D7A42A"/>
<path d="M150.862 58.1326C152.566 58.1258 153.228 59.7937 153.635 61.2485C154.943 65.9348 156.398 70.5689 157.839 75.2156L164.537 96.6944C165.557 99.9756 168.271 107.303 168.322 111.077C168.328 111.455 167.831 111.738 167.506 111.921C164.944 111.998 156.381 108.076 153.725 106.973L134.321 98.9247C130.9 97.5458 104.997 87.1516 104.171 86.1251C103.741 84.9211 103.879 83.9808 105.05 83.2662C107.516 81.7615 110.076 80.3985 112.613 79.015L142.524 62.7041C145.158 61.2637 148.225 59.4412 150.862 58.1326Z" fill="#D7A42A"/>
<path d="M91.3982 93.9389C91.7885 93.9854 92.2305 94.0104 92.6033 94.1339C92.943 94.2466 93.0641 94.3086 93.2199 94.6235C94.6389 97.4935 97.0212 120.636 97.7095 125.994C99.1046 136.85 100.84 147.754 101.853 158.648C101.957 159.766 102.25 161.562 101.857 162.633C101.679 163.116 101.537 163.201 101.097 163.41C98.8879 163.389 94.4067 160.09 92.2938 158.738L78.8689 150.061L63.1813 139.95C61.6546 138.966 56.0483 135.498 55.0555 134.383C54.8752 133.537 55.1446 132.805 55.7142 132.166C58.2419 129.331 60.844 126.558 63.4362 123.781L75.4554 110.8C77.6652 108.412 89.5384 95.0414 91.3982 93.9389Z" fill="#D7A42A"/>
<path d="M107.567 173.633C108.299 173.531 109.261 173.584 109.987 173.732C122.558 176.294 135.099 179.023 147.66 181.636C148.17 181.742 150.961 182.385 151.239 182.66C153.142 184.546 151.927 186.144 149.777 186.418C146.794 186.798 144.044 187.01 141.255 187.454C138.072 187.755 134.688 188.278 131.492 188.674L116.228 190.531C113.654 190.865 103.12 192.577 101.708 191.536C100.8 188.92 105.159 180.115 105.929 177.221C106.136 176.444 107.057 174.273 107.567 173.633Z" fill="#D7A42A"/>
<path d="M78.8075 71.5902C80.7736 71.9914 82.445 74.5014 83.6711 76.0288C85.8689 78.7665 88.3177 81.1835 90.4493 83.969C91.6786 85.5751 91.1953 86.3996 89.9935 87.8347C87.3877 90.7418 84.6561 93.5978 81.9988 96.452L66.2271 113.522C64.7296 115.142 62.2455 118.33 59.9986 118.346C59.1203 117.961 58.6577 117.139 58.9614 116.189C60.0143 112.894 61.5007 109.682 62.8686 106.499C65.1362 101.187 67.4362 95.8894 69.7681 90.6059C72.3466 84.7456 74.7652 78.6538 77.5503 72.8797C77.8596 72.2384 78.2109 71.9567 78.8075 71.5902Z" fill="#D7A42A"/>
<path d="M163.971 70.6956C164.37 70.7157 164.79 70.7877 165.146 70.9808C165.611 71.234 165.932 71.6382 166.252 72.0491C169.113 75.7126 193.601 109.164 193.869 110.297C193.966 110.7 193.916 111.319 193.689 111.672C193.184 112.459 191.689 112.59 190.839 112.772C187.988 113.102 177.273 115.314 175.421 114.444C174.231 112.261 173.355 109.013 172.598 106.562L169.554 96.7182L165.167 82.596C164.35 79.9593 162.4 74.7376 162.479 71.8751C162.494 71.3418 163.474 70.9212 163.971 70.6956Z" fill="#D7A42A"/>
<path d="M191.93 117.659C193.014 117.494 194.894 117.387 194.997 118.957C195.048 119.72 194.395 121.683 194.131 122.421C191.317 130.304 188.299 138.118 185.457 145.991C184.374 148.93 179.363 163.092 178.167 164.721C176.999 165.144 175.091 165.24 175.061 163.698C174.815 150.22 175.768 136.743 175.861 123.264C176.096 120.837 176.032 119.89 178.739 119.459C183.084 118.767 187.557 118.057 191.93 117.659Z" fill="#D7A42A"/>
<path d="M130.708 58.4185C130.913 58.3845 131.119 58.3572 131.325 58.3364C132.223 58.2436 133.385 58.0719 134.133 58.7051C134.795 59.167 134.853 60.9878 134.186 61.4615C132.073 62.9596 129.404 64.2876 127.132 65.5257C121.8 68.4536 116.451 71.3516 111.087 74.2195C106.662 76.6234 102.247 79.1671 97.7828 81.511C97.3899 81.7174 96.4875 82.0805 96.0694 82.031C94.7803 81.8788 92.9546 79.2825 92.002 78.2091C89.9529 75.365 86.4853 72.227 84.606 69.1427C84.2266 68.5202 84.217 68.143 84.4062 67.5102C85.7219 66.0304 90.0511 65.6691 92.0248 65.3304L130.708 58.4185Z" fill="#D7A42A"/>
<path d="M65.3672 147.876C65.567 147.892 65.7624 147.915 65.9588 147.957C67.502 148.284 96.5184 167.163 100.318 169.813C100.864 170.194 102.015 170.921 102.315 171.492C103.022 172.84 98.6517 183.084 97.9056 185.064C96.9559 187.64 95.6846 190.359 93.0943 187.125C83.6871 175.378 74.2941 163.613 64.9359 151.826C63.4684 149.977 63.3854 149.299 65.3672 147.876Z" fill="#D7A42A"/>
</svg>
