<svg width="250" height="250" viewBox="0 0 250 250" fill="none" xmlns="http://www.w3.org/2000/svg">
<mask id="path-1-inside-1_453_464" fill="white">
<path d="M0 125C0 55.9644 55.9644 0 125 0C194.036 0 250 55.9644 250 125C250 194.036 194.036 250 125 250C55.9644 250 0 194.036 0 125Z"/>
</mask>
<path d="M0 125C0 55.9644 55.9644 0 125 0C194.036 0 250 55.9644 250 125C250 194.036 194.036 250 125 250C55.9644 250 0 194.036 0 125Z" fill="white"/>
<path d="M0 125M250 125M250 125M0 125M125 0M250 125M125 250M0 125M125 250V248C57.069 248 2 192.931 2 125H0H-2C-2 195.14 54.8598 252 125 252V250ZM250 125H248C248 192.931 192.931 248 125 248V250V252C195.14 252 252 195.14 252 125H250ZM125 0V2C192.931 2 248 57.069 248 125H250H252C252 54.8598 195.14 -2 125 -2V0ZM125 0V-2C54.8598 -2 -2 54.8598 -2 125H0H2C2 57.069 57.069 2 125 2V0Z" fill="#DDDBDB" mask="url(#path-1-inside-1_453_464)"/>
<path d="M60.955 145.019V151.116H59.5936V147.571L58.0542 150.157H57.9007L56.3613 147.571V151.116H55V145.019H56.3613L57.978 147.727L59.5947 145.019H60.955Z" fill="#2D9FC8"/>
<path d="M63.9748 145.019H65.336V151.116H63.9748V145.019Z" fill="#2D9FC8"/>
<path d="M68.9303 150.332C68.3431 149.722 68.0543 148.965 68.0543 148.068C68.0543 147.171 68.3431 146.412 68.9303 145.812C69.5176 145.202 70.2573 144.898 71.1504 144.898C72.2143 144.898 73.1837 145.437 73.7022 146.309L72.5278 147.006C72.2637 146.527 71.7537 146.256 71.1493 146.256C70.6223 146.256 70.196 146.421 69.8815 146.753C69.5669 147.084 69.4135 147.519 69.4135 148.069C69.4135 148.619 69.5669 149.053 69.8815 149.385C70.196 149.716 70.6212 149.882 71.1493 149.882C71.7537 149.882 72.2808 149.594 72.5278 149.132L73.7022 149.829C73.1923 150.699 72.2304 151.24 71.1504 151.24C70.2573 151.24 69.5176 150.936 68.9303 150.334V150.332Z" fill="#2D9FC8"/>
<path d="M79.4328 151.116L78.3099 149.112H77.6636V151.116H76.3023V145.019H78.6845C79.2545 145.019 79.7312 145.219 80.1306 145.629C80.531 146.038 80.7264 146.526 80.7264 147.109C80.7264 147.85 80.284 148.53 79.6292 148.878L80.8971 151.116H79.4328ZM77.6636 146.326V147.893H78.6845C79.0592 147.893 79.3652 147.553 79.3652 147.109C79.3652 146.665 79.0592 146.326 78.6845 146.326H77.6636Z" fill="#2D9FC8"/>
<path d="M86.2228 151.238C85.364 151.238 84.6318 150.934 84.0274 150.323C83.423 149.713 83.1256 148.965 83.1256 148.068C83.1256 147.171 83.423 146.421 84.0274 145.812C84.6318 145.202 85.3629 144.898 86.2228 144.898C87.0828 144.898 87.8138 145.202 88.4182 145.812C89.0215 146.422 89.32 147.171 89.32 148.068C89.32 148.965 89.0226 149.714 88.4182 150.323C87.8138 150.934 87.0828 151.238 86.2228 151.238ZM86.2228 149.879C86.7167 149.879 87.1245 149.713 87.4564 149.374C87.7881 149.034 87.9587 148.599 87.9587 148.067C87.9587 147.535 87.7881 147.099 87.4564 146.76C87.1245 146.42 86.7167 146.254 86.2228 146.254C85.7289 146.254 85.3124 146.419 84.9807 146.76C84.649 147.099 84.4869 147.535 84.4869 148.067C84.4869 148.599 84.649 149.034 84.9807 149.374C85.3124 149.713 85.7289 149.879 86.2228 149.879Z" fill="#2D9FC8"/>
<path d="M95.6582 146.36H93.4038V147.536H95.6152V148.878H93.4038V151.116H92.0424V145.019H95.6582V146.36Z" fill="#2D9FC8"/>
<path d="M98.4525 145.019H99.8138V151.116H98.4525V145.019Z" fill="#2D9FC8"/>
<path d="M106.134 145.019H107.495V151.116H106.474L104.178 147.806V151.116H102.817V145.019H103.837L106.135 148.328L106.134 145.019Z" fill="#2D9FC8"/>
<path d="M114.196 151.116L113.899 150.157H111.687L111.39 151.116H109.901L111.926 145.019H113.661L115.686 151.116H114.196ZM112.095 148.852H113.491L112.793 146.614L112.095 148.852Z" fill="#2D9FC8"/>
<path d="M121.405 145.019H122.766V151.116H121.745L119.449 147.806V151.116H118.088V145.019H119.109L121.406 148.328L121.405 145.019Z" fill="#2D9FC8"/>
<path d="M126.361 150.332C125.774 149.722 125.485 148.965 125.485 148.068C125.485 147.171 125.774 146.412 126.361 145.812C126.949 145.202 127.688 144.898 128.581 144.898C129.645 144.898 130.615 145.437 131.133 146.309L129.959 147.006C129.695 146.527 129.185 146.256 128.58 146.256C128.053 146.256 127.627 146.421 127.313 146.753C126.998 147.084 126.845 147.519 126.845 148.069C126.845 148.619 126.998 149.053 127.313 149.385C127.627 149.716 128.052 149.882 128.58 149.882C129.185 149.882 129.712 149.594 129.959 149.132L131.133 149.829C130.623 150.699 129.661 151.24 128.581 151.24C127.688 151.24 126.949 150.936 126.361 150.334V150.332Z" fill="#2D9FC8"/>
<path d="M135.094 149.775H137.476V151.116H133.732V145.019H137.433V146.36H135.094V147.37H137.22V148.693H135.094V149.775Z" fill="#2D9FC8"/>
<path d="M148.69 149.331C148.69 149.862 148.503 150.289 148.137 150.62C147.771 150.951 147.312 151.117 146.767 151.117H144.266V145.02H146.597C147.132 145.02 147.575 145.185 147.932 145.508C148.298 145.83 148.477 146.249 148.477 146.762C148.477 147.275 148.306 147.65 147.958 147.956C148.443 148.278 148.69 148.73 148.69 149.331ZM145.627 146.326V147.406H146.597C146.903 147.406 147.115 147.18 147.115 146.866C147.115 146.553 146.903 146.327 146.597 146.327L145.627 146.326ZM146.767 149.81C147.108 149.81 147.329 149.575 147.329 149.226C147.329 148.878 147.108 148.643 146.767 148.643H145.627V149.81H146.767Z" fill="#2D9FC8"/>
<path d="M155.003 151.116L154.705 150.157H152.494L152.196 151.116H150.707L152.732 145.019H154.468L156.493 151.116H155.003ZM152.902 148.852H154.297L153.6 146.614L152.902 148.852Z" fill="#2D9FC8"/>
<path d="M162.211 145.019H163.573V151.116H162.552L160.256 147.806V151.116H158.894V145.019H159.915L162.212 148.328L162.211 145.019Z" fill="#2D9FC8"/>
<path d="M171.406 151.116H169.858L167.952 148.293V151.116H166.591V145.019H167.952V147.667L169.773 145.019H171.322L169.314 147.989L171.406 151.116Z" fill="#2D9FC8"/>
<path d="M179.302 149.775H181.428V151.116H177.941V145.019H179.302V149.775Z" fill="#2D9FC8"/>
<path d="M187.286 145.019V146.36H185.756V151.116H184.394V146.36H182.863V145.019H187.286Z" fill="#2D9FC8"/>
<path d="M192.106 145.019C192.932 145.019 193.613 145.314 194.166 145.898C194.718 146.482 195 147.205 195 148.067C195 148.928 194.718 149.661 194.166 150.244C193.613 150.828 192.932 151.115 192.106 151.115H189.724V145.017L192.106 145.019ZM192.106 149.775C192.574 149.775 192.956 149.618 193.247 149.313C193.543 149 193.689 148.581 193.689 148.068C193.689 147.555 193.543 147.136 193.247 146.831C192.957 146.518 192.574 146.361 192.106 146.361H191.085V149.775H192.106Z" fill="#2D9FC8"/>
<path d="M85.9416 139.305H76.9475L62.8057 120.307V139.305H55V98.7598H62.8057V116.657L76.3817 98.7598H85.3759L70.7253 118.452L85.9416 139.304V139.305Z" fill="#001D2E"/>
<path d="M108.397 110.345H115.694V139.305H108.397V135.887C106.191 138.725 103.137 140.115 99.1763 140.115C95.2159 140.115 92.1617 138.667 89.4467 135.712C86.7886 132.759 85.4306 129.109 85.4306 124.824C85.4306 120.538 86.7875 116.946 89.4467 113.993C92.1617 111.039 95.3866 109.533 99.1763 109.533C102.966 109.533 106.191 110.923 108.397 113.761V110.345ZM100.534 132.991C102.797 132.991 104.663 132.238 106.134 130.732C107.661 129.168 108.397 127.199 108.397 124.824C108.397 122.448 107.661 120.479 106.134 118.973C104.663 117.409 102.796 116.656 100.534 116.656C98.2723 116.656 96.4054 117.409 94.9336 118.973C93.4629 120.479 92.7275 122.448 92.7275 124.824C92.7275 127.199 93.4629 129.168 94.9336 130.732C96.4043 132.238 98.2712 132.991 100.534 132.991Z" fill="#001D2E"/>
<path d="M138.489 117.527H132.097V129.574C132.097 132.702 134.304 132.76 138.489 132.528V139.305C128.478 140.463 124.801 137.51 124.801 129.574V117.527H119.879V110.345H124.801V104.494L132.097 102.236V110.345H138.489V117.527Z" fill="#001D2E"/>
<path d="M154.893 121.754C159.022 122.623 164.396 124.651 164.341 130.848C164.341 133.802 163.265 136.119 161.06 137.741C158.91 139.305 156.194 140.115 152.97 140.115C147.144 140.115 143.184 137.798 141.092 133.223L147.427 129.574C148.275 132.065 150.086 133.339 152.97 133.339C155.573 133.339 156.874 132.528 156.874 130.848C156.874 129.284 154.611 128.416 151.726 127.663C147.54 126.563 142.279 124.766 142.279 118.743C142.279 115.904 143.297 113.646 145.333 112.024C147.427 110.345 149.972 109.533 153.026 109.533C157.608 109.533 161.568 111.734 163.773 115.672L157.551 119.148C156.646 117.18 155.119 116.195 153.026 116.195C151.159 116.195 149.745 117.121 149.745 118.569C149.745 120.133 152.008 121.002 154.893 121.754Z" fill="#001D2E"/>
<path d="M187.702 125.983C187.702 130.79 185.269 133.166 181.479 133.166C178.085 133.166 175.878 131.08 175.878 127.2V110.346H168.582V128.127C168.582 131.892 169.6 134.788 171.579 136.93C173.616 139.074 176.161 140.116 179.272 140.116C183.119 140.116 185.947 138.784 187.701 136.061V139.305H194.998V119.357H187.701L187.702 125.983Z" fill="#001D2E"/>
<path d="M194.999 110.345H187.702V117.059H194.999V110.345Z" fill="#2D9FC8"/>
</svg>
