<svg width="250" height="250" viewBox="0 0 250 250" fill="none" xmlns="http://www.w3.org/2000/svg">
<path d="M0 125C0 55.9644 55.9644 0 125 0C194.036 0 250 55.9644 250 125C250 194.036 194.036 250 125 250C55.9644 250 0 194.036 0 125Z" fill="white"/>
<path d="M80.4294 67.4923V140.534L85.1957 136.297L154.313 67.4922H179.328L109.726 135.109C143.928 130.522 163.131 140.51 169.806 182.507H154.218C147.616 146.187 131.593 149.133 91.442 151.362L90.9346 151.39L90.7649 151.4L90.5953 151.409L90.4251 151.419L90.0843 151.437L89.5716 151.466L89.4003 151.476L88.8848 151.505L88.7126 151.514L88.5401 151.524L88.3675 151.534L88.1946 151.543L88.0215 151.553L87.2819 151.595L87.0778 151.606L86.8956 151.617L86.6675 151.63L86.149 151.658L85.6224 151.688L85.4089 151.7L85.1937 151.712L84.7571 151.736L84.5355 151.748L84.3202 151.76L84.0851 151.774L83.507 151.806L83.3058 151.816L83.175 151.824L83.031 151.831L82.5416 151.859L82.1653 151.879L81.5226 151.914L81.3864 151.921L80.8463 151.95L80.6314 151.962L80.478 151.97L80.4292 154.579V182.507H65.0015V67.4922L80.4294 67.4923Z" fill="#00A900"/>
<path fill-rule="evenodd" clip-rule="evenodd" d="M93.5403 109.538L135.776 67.4922H93.5403V109.538Z" fill="#00A900"/>
<path fill-rule="evenodd" clip-rule="evenodd" d="M185.001 80.2143L140.983 122.978C147.121 124.536 152.705 127.066 157.775 130.735C170.592 140.013 178.787 155.733 182.717 180.457L183.042 182.506H185.001V80.2143Z" fill="#FC0404"/>
<path fill-rule="evenodd" clip-rule="evenodd" d="M140.898 182.508C136.371 161.855 124.852 162.526 98.2254 164.077L97.5349 164.117L93.5403 164.357V182.508H140.898Z" fill="#00A900"/>
</svg>
