<svg width="250" height="250" viewBox="0 0 250 250" fill="none" xmlns="http://www.w3.org/2000/svg">
<mask id="path-1-inside-1_453_188" fill="white">
<path d="M0 125C0 55.9644 55.9644 0 125 0C194.036 0 250 55.9644 250 125C250 194.036 194.036 250 125 250C55.9644 250 0 194.036 0 125Z"/>
</mask>
<path d="M0 125C0 55.9644 55.9644 0 125 0C194.036 0 250 55.9644 250 125C250 194.036 194.036 250 125 250C55.9644 250 0 194.036 0 125Z" fill="white"/>
<path d="M0 125M250 125M250 125M0 125M125 0M250 125M125 250M0 125M125 250V248C57.069 248 2 192.931 2 125H0H-2C-2 195.14 54.8598 252 125 252V250ZM250 125H248C248 192.931 192.931 248 125 248V250V252C195.14 252 252 195.14 252 125H250ZM125 0V2C192.931 2 248 57.069 248 125H250H252C252 54.8598 195.14 -2 125 -2V0ZM125 0V-2C54.8598 -2 -2 54.8598 -2 125H0H2C2 57.069 57.069 2 125 2V0Z" fill="#DDDBDB" mask="url(#path-1-inside-1_453_188)"/>
<path d="M80.4298 67.4926V140.534L85.1962 136.298L154.313 67.4925H179.329L109.726 135.11C143.928 130.522 163.132 140.51 169.807 182.507H154.218C147.617 146.187 131.593 149.134 91.4425 151.362L90.935 151.39L90.7654 151.4L90.5957 151.409L90.4256 151.419L90.0848 151.438L89.5721 151.467L89.4008 151.476L88.8853 151.505L88.7131 151.514L88.5406 151.525L88.368 151.534L88.1951 151.544L88.022 151.554L87.2824 151.595L87.0783 151.607L86.8961 151.617L86.668 151.63L86.1495 151.658L85.6229 151.688L85.4094 151.7L85.1942 151.712L84.7576 151.736L84.536 151.749L84.3207 151.76L84.0856 151.774L83.5075 151.806L83.3063 151.817L83.1754 151.824L83.0315 151.832L82.5421 151.859L82.1658 151.879L81.5231 151.914L81.3869 151.922L80.8468 151.951L80.6319 151.962L80.4785 151.97L80.4297 154.579V182.507H65.002V67.4924L80.4298 67.4926Z" fill="#00A900"/>
<path fill-rule="evenodd" clip-rule="evenodd" d="M93.5407 109.538L135.777 67.4924H93.5407V109.538Z" fill="#00A900"/>
<path fill-rule="evenodd" clip-rule="evenodd" d="M185.002 80.2146L140.983 122.978C147.122 124.536 152.706 127.066 157.775 130.736C170.593 140.013 178.788 155.733 182.717 180.457L183.043 182.506H185.002V80.2146Z" fill="#FC0404"/>
<path fill-rule="evenodd" clip-rule="evenodd" d="M140.898 182.508C136.371 161.855 124.852 162.526 98.2258 164.077L97.5354 164.117L93.5407 164.357V182.508H140.898Z" fill="#00A900"/>
</svg>
