<svg width="250" height="250" viewBox="0 0 250 250" fill="none" xmlns="http://www.w3.org/2000/svg">
<mask id="path-1-inside-1_453_475" fill="white">
<path d="M0 125C0 55.9644 55.9644 0 125 0C194.036 0 250 55.9644 250 125C250 194.036 194.036 250 125 250C55.9644 250 0 194.036 0 125Z"/>
</mask>
<path d="M0 125C0 55.9644 55.9644 0 125 0C194.036 0 250 55.9644 250 125C250 194.036 194.036 250 125 250C55.9644 250 0 194.036 0 125Z" fill="white"/>
<path d="M0 125M250 125M250 125M0 125M125 0M250 125M125 250M0 125M125 250V248C57.069 248 2 192.931 2 125H0H-2C-2 195.14 54.8598 252 125 252V250ZM250 125H248C248 192.931 192.931 248 125 248V250V252C195.14 252 252 195.14 252 125H250ZM125 0V2C192.931 2 248 57.069 248 125H250H252C252 54.8598 195.14 -2 125 -2V0ZM125 0V-2C54.8598 -2 -2 54.8598 -2 125H0H2C2 57.069 57.069 2 125 2V0Z" fill="#DDDBDB" mask="url(#path-1-inside-1_453_475)"/>
<path fill-rule="evenodd" clip-rule="evenodd" d="M60.0906 60.8735C60.0906 60.8735 132.904 60.9418 169.648 60.9416C172.037 60.9994 175.045 61.2439 177.259 62.0848C191.661 67.5547 189.943 83.8886 189.93 96.369C189.899 127.288 190.011 158.207 189.896 189.126H92.6191L76.8079 188.913C72.3394 188.176 69.441 187.149 66.0725 183.976C59.793 178.062 60.2011 170.488 60.1151 162.805C59.8734 128.83 60.0869 94.8491 60.0906 60.8735ZM167.763 74.9141L87.0382 74.9535C82.7474 74.9537 78.2788 74.8951 74.0015 75.0045L74.0047 157.563C74.0043 161.54 73.8735 165.546 74.195 169.509C74.5452 173.825 76.9376 175.178 80.9702 175.195C112.157 175.162 175.668 175.222 175.668 175.222C175.668 175.222 175.653 161.888 175.654 155.49L175.693 94.0231C175.693 89.8084 175.782 85.4125 175.521 81.2086C175.421 79.6037 174.957 77.5921 173.822 76.4019C172.229 74.7307 169.933 74.9187 167.763 74.9141Z" fill="#00933F"/>
<path d="M151.927 81.444L113.655 121.602L152.912 167.2C152.912 167.2 134.202 167.252 124.848 167.283L89.2847 121.94C101.651 108.774 125.589 81.539 125.589 81.539L151.927 81.444Z" fill="#00933F"/>
</svg>
