<svg width="250" height="250" viewBox="0 0 250 250" fill="none" xmlns="http://www.w3.org/2000/svg">
<path d="M0 125C0 55.9644 55.9644 0 125 0C194.036 0 250 55.9644 250 125C250 194.036 194.036 250 125 250C55.9644 250 0 194.036 0 125Z" fill="white"/>
<path fill-rule="evenodd" clip-rule="evenodd" d="M60.0911 60.874C60.0911 60.874 132.904 60.9423 169.649 60.9421C172.037 60.9999 175.046 61.2444 177.26 62.0853C191.662 67.5552 189.943 83.8891 189.931 96.3695C189.899 127.289 190.011 158.208 189.897 189.127H92.6196L76.8084 188.913C72.3399 188.177 69.4414 187.15 66.0729 183.977C59.7935 178.062 60.2016 170.488 60.1156 162.806C59.8739 128.831 60.0874 94.8496 60.0911 60.874ZM167.763 74.9146L87.0387 74.954C82.7479 74.9542 78.2793 74.8955 74.0019 75.005L74.0051 157.563C74.0048 161.54 73.8739 165.546 74.1955 169.51C74.5456 173.825 76.9381 175.178 80.9707 175.196C112.157 175.162 175.669 175.222 175.669 175.222C175.669 175.222 175.654 161.888 175.654 155.49L175.693 94.0236C175.694 89.8089 175.782 85.413 175.521 81.2091C175.421 79.6042 174.957 77.5926 173.823 76.4024C172.23 74.7312 169.933 74.9192 167.763 74.9146Z" fill="#00933F"/>
<path d="M151.928 81.4445L113.656 121.603L152.912 167.2C152.912 167.2 134.203 167.252 124.848 167.283L89.2852 121.94C101.651 108.775 125.59 81.5394 125.59 81.5394L151.928 81.4445Z" fill="#00933F"/>
</svg>
