<svg width="250" height="250" viewBox="0 0 250 250" fill="none" xmlns="http://www.w3.org/2000/svg">
<path d="M0 125C0 55.9644 55.9644 0 125 0C194.036 0 250 55.9644 250 125C250 194.036 194.036 250 125 250C55.9644 250 0 194.036 0 125Z" fill="white"/>
<path d="M143.754 190.011L81.4513 125.564L110.566 104.749L193.149 189.868L143.754 190.011Z" fill="url(#paint0_linear_1_1010)"/>
<path d="M66.8153 138.615L115.126 187.879L66.9582 188.022L66.8153 138.615Z" fill="url(#paint1_linear_1_1010)"/>
<path d="M66.7323 108.786L66.6013 60.3557L114.781 60.2248L66.7323 108.786Z" fill="url(#paint2_linear_1_1010)"/>
<path d="M80.7839 124.707L143.706 60.1417L192.791 60.0107L104.398 149.309L80.7839 124.707Z" fill="url(#paint3_linear_1_1010)"/>
<path d="M84.4519 136.022C108.399 103.49 150.792 57.5364 177.43 62.5973L84.4519 136.022Z" fill="url(#paint4_linear_1_1010)"/>
<path d="M111.116 120.065C118.606 125.412 126.096 130.759 133.586 136.117C139.54 140.369 145.744 144.917 148.817 151.55C151.317 156.945 151.448 163.196 150.293 169.019C149.138 174.854 146.78 180.356 144.435 185.822" fill="url(#paint5_linear_1_1010)"/>
<path d="M71.0564 88.9737C71.6876 83.7937 72.3068 78.6137 72.9379 73.4456C73.1165 71.9929 73.3071 70.4805 74.1406 69.2778C75.2124 67.7417 77.0938 67.0272 78.8681 66.4556C84.9889 64.4789 91.324 63.1333 97.7186 62.4426" fill="url(#paint6_linear_1_1010)"/>
<defs>
<linearGradient id="paint0_linear_1_1010" x1="124.362" y1="170.729" x2="150.498" y2="144.446" gradientUnits="userSpaceOnUse">
<stop stop-color="#F05040"/>
<stop offset="0.71" stop-color="#A71F24"/>
<stop offset="1" stop-color="#710000"/>
</linearGradient>
<linearGradient id="paint1_linear_1_1010" x1="66.8829" y1="163.315" x2="115.063" y2="163.181" gradientUnits="userSpaceOnUse">
<stop stop-color="#F05040"/>
<stop offset="0.71" stop-color="#A71F24"/>
<stop offset="1" stop-color="#710000"/>
</linearGradient>
<linearGradient id="paint2_linear_1_1010" x1="66.6645" y1="84.5678" x2="114.844" y2="84.4333" gradientUnits="userSpaceOnUse">
<stop stop-color="#F05040"/>
<stop offset="0.71" stop-color="#A71F24"/>
<stop offset="1" stop-color="#710000"/>
</linearGradient>
<linearGradient id="paint3_linear_1_1010" x1="80.7242" y1="104.844" x2="192.909" y2="104.531" gradientUnits="userSpaceOnUse">
<stop stop-color="#F05040"/>
<stop offset="0.71" stop-color="#A71F24"/>
<stop offset="1" stop-color="#710000"/>
</linearGradient>
<linearGradient id="paint4_linear_1_1010" x1="121.865" y1="87.2388" x2="130.208" y2="98.3377" gradientUnits="userSpaceOnUse">
<stop stop-color="#F68C59"/>
<stop offset="1" stop-color="#A71F24" stop-opacity="0"/>
</linearGradient>
<linearGradient id="paint5_linear_1_1010" x1="146.148" y1="144.609" x2="130.837" y2="151.423" gradientUnits="userSpaceOnUse">
<stop stop-color="#941A1D"/>
<stop offset="1" stop-color="#A71F24" stop-opacity="0"/>
</linearGradient>
<linearGradient id="paint6_linear_1_1010" x1="76.9768" y1="67.3059" x2="84.115" y2="75.2667" gradientUnits="userSpaceOnUse">
<stop stop-color="#650D0D"/>
<stop offset="1" stop-color="#A71F24" stop-opacity="0"/>
</linearGradient>
</defs>
</svg>
