<svg width="250" height="250" viewBox="0 0 250 250" fill="none" xmlns="http://www.w3.org/2000/svg">
<path d="M0 125C0 55.9644 55.9644 0 125 0C194.036 0 250 55.9644 250 125C250 194.036 194.036 250 125 250C55.9644 250 0 194.036 0 125Z" fill="white"/>
<path d="M124.033 69.4985L137.607 69.3643C134.208 75.0567 130.158 79.4224 126.34 84.7641C116.689 98.2675 106.327 111.532 96.6814 125.026C98.4624 128.346 104.31 135.978 106.799 139.342L127.428 166.673C130.827 171.26 134.299 175.795 137.358 180.615L109.474 180.61L96.1966 180.637C95.3743 179.331 93.4595 177.013 92.4481 175.707L85.2744 166.376C77.7676 156.479 70.3776 146.493 63.1059 136.421C60.8634 133.288 56.7018 128.27 55.0005 124.965C56.0484 122.837 59.2117 118.786 60.7108 116.749L70.5341 103.402C76.3052 95.5881 82.1464 87.8257 88.0567 80.116C90.3463 77.181 93.873 72.4788 96.3485 69.9468C98.9741 69.7347 103.956 69.8563 106.785 69.8316C112.535 69.7596 118.284 69.6486 124.033 69.4985Z" fill="#81CB50"/>
<path d="M159.425 89.8564C178.723 89.5601 194.626 104.926 194.994 124.222C195.362 143.519 180.056 159.479 160.761 159.919C141.364 160.361 125.301 144.956 124.931 125.558C124.561 106.16 140.025 90.1539 159.425 89.8564Z" fill="#81CB50"/>
</svg>
