<svg width="250" height="250" viewBox="0 0 250 250" fill="none" xmlns="http://www.w3.org/2000/svg">
<path d="M0 125C0 55.9644 55.9644 0 125 0C194.036 0 250 55.9644 250 125C250 194.036 194.036 250 125 250C55.9644 250 0 194.036 0 125Z" fill="white"/>
<path fill-rule="evenodd" clip-rule="evenodd" d="M69.8194 64.373C61.6349 64.373 55 71.0079 55 79.1925V154.226C55 162.136 61.1985 168.599 69.0037 169.023C70.941 169.952 73.1115 170.472 75.4035 170.472H168.616C176.801 170.472 183.436 163.837 183.436 155.653V84.7766C183.436 84.0551 183.384 83.3456 183.285 82.6516V79.1925C183.285 71.0079 176.65 64.373 168.465 64.373H69.8194ZM183.285 82.6516C182.254 75.4738 176.079 69.9572 168.616 69.9572H75.4035C67.219 69.9572 60.5841 76.5921 60.5841 84.7766V155.653C60.5841 161.545 64.0232 166.635 69.0037 169.023C69.2737 169.038 69.5457 169.045 69.8194 169.045H168.465C176.65 169.045 183.285 162.41 183.285 154.226V82.6516Z" fill="#FF7A00"/>
<path d="M76.1517 75.3346C71.963 76.3705 67.2788 80.6943 65.4773 85.1983L64.4413 87.7655L64.3062 127.265C64.1711 171.134 64.1261 170.458 67.0987 175.052C68.63 177.485 70.9721 179.601 73.4493 180.907C76.4669 182.439 79.7999 182.574 112.724 182.574H145.288V192.258C145.288 201.401 145.333 201.941 146.098 201.536C146.504 201.265 149.521 198.833 152.719 196.041C155.962 193.293 160.826 189.105 163.619 186.808L168.618 182.574H173.753C182.49 182.574 186.499 181.358 190.192 177.53C191.228 176.494 192.669 174.377 193.345 172.89L194.606 170.188V86.8648L193.12 83.8471C191.498 80.5142 188.706 77.7217 185.373 76.1453L183.346 75.1544L130.424 75.0643C101.329 75.0643 76.9173 75.1544 76.1517 75.3346ZM121.056 101.503L121.191 116.366L130.199 106.367C140.333 95.1069 143.261 91.8642 146.188 88.7564L148.215 86.5945L158.799 86.8648L154.656 91.5939C149.431 97.5391 130.199 119.338 128.758 120.915L127.677 122.086L135.199 132.4C148.981 151.271 160.421 167.035 160.781 167.576C161.052 168.026 159.88 168.161 155.512 168.161H149.927L143.08 159.063C139.297 154.019 132.812 145.416 128.668 139.921L121.191 129.923L121.056 149.02L120.966 168.161H111.958V139.786H97.9958V130.328H111.958V120.87H97.9958V110.961H111.958V86.6395H120.966L121.056 101.503Z" fill="#001E89"/>
</svg>
