<svg width="250" height="250" viewBox="0 0 250 250" fill="none" xmlns="http://www.w3.org/2000/svg">
<mask id="path-1-inside-1_453_178" fill="white">
<path d="M0 125C0 55.9644 55.9644 0 125 0V0C194.036 0 250 55.9644 250 125V125C250 194.036 194.036 250 125 250V250C55.9644 250 0 194.036 0 125V125Z"/>
</mask>
<path d="M0 125C0 55.9644 55.9644 0 125 0V0C194.036 0 250 55.9644 250 125V125C250 194.036 194.036 250 125 250V250C55.9644 250 0 194.036 0 125V125Z" fill="white"/>
<path d="M0 125M250 125M250 125M0 125M125 0M250 125M125 250M0 125M125 250V248C57.069 248 2 192.931 2 125H0H-2C-2 195.14 54.8598 252 125 252V250ZM250 125H248C248 192.931 192.931 248 125 248V250V252C195.14 252 252 195.14 252 125H250ZM125 0V2C192.931 2 248 57.069 248 125H250H252C252 54.8598 195.14 -2 125 -2V0ZM125 0V-2C54.8598 -2 -2 54.8598 -2 125H0H2C2 57.069 57.069 2 125 2V0Z" fill="#DDDBDB" mask="url(#path-1-inside-1_453_178)"/>
<path d="M194.834 58.7613C194.834 58.7613 176.664 77.7043 167.516 87.0179L139.103 116.336C135.46 120.105 131.62 123.873 128.04 127.72C129.75 129.466 131.172 130.699 132.919 132.349L140.561 139.605L186.563 183.02C189.315 185.607 192.54 188.883 195.375 191.265C193.15 191.118 190.646 191.191 188.395 191.202L159.208 191.206C155.007 191.201 148.855 191.396 144.831 191.153C142.986 189.552 141.056 187.555 139.313 185.81L130.667 177.169L98.2004 144.803L88.5027 135.178C87.1419 133.809 83.6508 130.149 82.3071 129.129C84.109 127.526 86.6925 124.773 88.4487 123.014C92.1848 119.264 95.9396 115.533 99.7131 111.82L137.427 74.467L147.911 64.0047C149.525 62.4063 153.299 58.7764 153.299 58.7764L194.834 58.7613Z" fill="#ED335B"/>
<path d="M55.375 58.7249L129.566 58.7351L100.048 88.0452L80.8993 107.138C77.4912 110.539 73.9379 113.954 70.6084 117.409C69.2632 115.834 66.7956 113.503 65.2659 111.976L55.4499 102.18L55.4341 73.8156C55.435 68.99 55.5565 63.4932 55.375 58.7249Z" fill="#FED25A"/>
<path d="M56.4381 125.083C56.7127 125.259 58.3645 126.981 58.6604 127.282L64.1535 132.894L83.0953 152.178L111.645 181.143L118.43 187.961C119.11 188.643 121.096 190.559 121.533 191.202C120.034 191.33 116.856 191.23 115.269 191.226L103.235 191.223C87.7202 191.271 71.9258 191.059 56.4414 191.247L56.4381 125.083Z" fill="#F15D46"/>
</svg>
