<svg width="250" height="250" viewBox="0 0 250 250" fill="none" xmlns="http://www.w3.org/2000/svg">
<path d="M0 125C0 55.9644 55.9644 0 125 0C194.036 0 250 55.9644 250 125C250 194.036 194.036 250 125 250C55.9644 250 0 194.036 0 125Z" fill="white"/>
<path d="M194.834 58.761C194.834 58.761 176.664 77.7041 167.516 87.0176L139.103 116.336C135.46 120.105 131.62 123.873 128.041 127.719C129.75 129.466 131.172 130.698 132.92 132.349L140.561 139.605L186.563 183.02C189.315 185.606 192.54 188.883 195.375 191.265C193.15 191.118 190.646 191.191 188.395 191.202L159.209 191.205C155.007 191.2 148.855 191.395 144.831 191.153C142.986 189.551 141.057 187.555 139.314 185.81L130.668 177.169L98.2007 144.803L88.503 135.178C87.1422 133.809 83.6511 130.149 82.3073 129.129C84.1093 127.525 86.6928 124.773 88.4489 123.014C92.185 119.264 95.9398 115.532 99.7133 111.82L137.427 74.4668L147.911 64.0045C149.525 62.4061 153.299 58.7761 153.299 58.7761L194.834 58.761Z" fill="#ED335B"/>
<path d="M55.3752 58.7246L129.566 58.7348L100.048 88.0449L80.8995 107.137C77.4915 110.539 73.9382 113.953 70.6087 117.409C69.2635 115.833 66.7958 113.503 65.2661 111.976L55.4501 102.18L55.4343 73.8153C55.4353 68.9897 55.5567 63.4929 55.3752 58.7246Z" fill="#FED25A"/>
<path d="M56.4384 125.083C56.7129 125.259 58.3648 126.98 58.6606 127.281L64.1538 132.894L83.0956 152.178L111.646 181.143L118.43 187.961C119.11 188.643 121.096 190.559 121.534 191.202C120.034 191.33 116.856 191.23 115.269 191.226L103.235 191.222C87.7204 191.271 71.926 191.059 56.4417 191.247L56.4384 125.083Z" fill="#F15D46"/>
</svg>
