<svg width="250" height="250" viewBox="0 0 250 250" fill="none" xmlns="http://www.w3.org/2000/svg">
<path d="M0 125C0 55.9644 55.9644 0 125 0C194.036 0 250 55.9644 250 125C250 194.036 194.036 250 125 250C55.9644 250 0 194.036 0 125Z" fill="white"/>
<path d="M170.258 103.56V114.557C170.258 115.604 170.258 116.756 170.258 118.537H170.155C168.406 116.652 166.863 115.185 165.217 113.719C162.851 111.519 159.457 108.482 153.491 103.35H152.668V131.105H158.634V119.584C158.634 118.746 158.634 117.804 158.531 116.337H158.634C160.794 118.537 162.028 119.794 163.88 121.469C166.246 123.669 169.641 126.601 175.298 131.419H176.121V103.56H170.258Z" fill="#95C11F"/>
<path d="M191.14 116.652C189.7 115.29 188.465 114.347 187.951 113.614C187.334 112.986 187.025 112.357 187.025 111.415C187.025 109.948 188.363 109.006 190.214 109.006C190.831 109.006 191.346 109.111 191.86 109.215C192.271 109.32 192.889 109.529 193.197 109.634H193.3C193.403 106.597 193.403 105.968 193.506 103.874C192.58 103.56 190.934 103.35 189.7 103.35C183.116 103.35 180.442 107.33 180.442 111.519C180.442 114.557 181.985 116.756 183.528 118.223C184.248 118.956 185.174 119.794 186.202 120.736C187.334 121.679 187.951 122.517 187.951 123.459C187.951 125.03 186.717 125.868 185.071 125.868C183.836 125.868 182.808 125.659 181.985 125.449C181.471 125.24 181.059 125.135 180.648 124.821H180.545C180.442 127.858 180.442 128.591 180.339 130.686C181.676 131.314 183.836 131.629 185.791 131.629C191.037 131.629 194.843 128.487 194.843 123.983C194.74 120.736 193.3 118.641 191.14 116.652Z" fill="#FFCC00"/>
<path d="M145.055 118.747L138.471 103.455L135.488 109.949C136.723 113.405 139.706 121.993 139.706 121.993L130.036 121.889L127.568 127.125H141.66C142.483 129.22 143.1 130.686 143.1 131.001V131.105H150.301V131.001C150.198 130.791 149.581 129.22 145.055 118.747Z" fill="#008237"/>
<path d="M99.0741 105.654C96.811 104.293 93.8279 103.35 89.7133 103.35C88.4789 103.35 87.1417 103.35 85.4958 103.455C83.85 103.56 83.0271 103.664 82.307 103.664V130.896C83.0271 131 84.0557 131 84.7758 131.105C85.9073 131.105 87.5531 131.21 89.3018 131.21C92.9021 131.21 96.091 130.477 98.4569 128.801C102.366 126.182 104.629 122.098 104.629 116.756C104.629 112.776 103.292 108.273 99.0741 105.654ZM97.9425 116.966C97.9425 120.213 96.6053 122.517 94.7537 123.878C93.5193 124.821 91.9763 125.24 90.4334 125.24C89.919 125.24 89.4047 125.24 88.8904 125.135C88.8904 125.135 88.7875 125.135 88.7875 125.03V109.32C89.199 109.32 89.919 109.215 90.5362 109.215C92.5935 109.215 94.2394 109.739 95.4738 110.682C97.1196 112.148 97.9425 114.452 97.9425 116.966Z" fill="#666564"/>
<path d="M124.585 103.56C124.482 103.874 123.762 105.55 120.984 111.834C119.647 114.976 119.03 116.547 118.207 118.851H118.104C117.281 116.547 116.664 114.976 115.224 111.834C112.344 105.445 111.726 103.874 111.624 103.664V103.56H104.32V103.664C104.423 103.874 105.143 105.55 109.772 115.29L117.487 131.734H118.31L126.025 115.29C130.551 105.55 131.271 103.979 131.374 103.664V103.56H124.585Z" fill="#666564"/>
<path d="M74.6956 118.746L68.0093 103.036H67.0836L60.2944 118.746C55.6655 129.22 55.0483 130.791 54.9454 131.001V131.105H61.5288V131.001C61.6317 130.791 62.2489 129.22 63.0718 127.125H71.301C72.124 129.22 72.7411 130.686 72.7411 131.001V131.105H79.9417V131.001C79.8389 130.791 79.2217 129.22 74.6956 118.746ZM69.3466 121.889H64.9234C66.3635 118.328 66.8778 116.652 67.1864 115.814C67.495 116.652 68.0093 118.328 69.3466 121.889Z" fill="#666564"/>
<path d="M56.3864 145.663V140.845H55.0491V146.815H59.0609V145.663H56.3864Z" fill="#008237"/>
<path d="M64.9241 145.035C64.7183 144.511 64.5126 143.987 64.3069 143.464C64.1011 142.94 63.8954 142.521 63.6897 142.102C63.484 141.683 63.2782 141.264 63.0725 140.845H61.941C61.7352 141.264 61.5295 141.683 61.3238 142.102C61.118 142.521 60.9123 143.045 60.8095 143.464C60.6037 143.987 60.398 144.511 60.1923 145.035C59.9865 145.558 59.7808 146.187 59.5751 146.815H60.9123C61.0152 146.606 61.0152 146.396 61.118 146.187C61.2209 145.977 61.2209 145.768 61.3238 145.558H63.5868C63.6897 145.768 63.6897 145.977 63.7925 146.187C63.8954 146.396 63.8954 146.606 63.9983 146.815H65.4384C65.3355 146.187 65.1298 145.663 64.9241 145.035ZM61.7352 144.511C61.8381 144.302 61.941 143.987 62.0438 143.778C62.1467 143.464 62.1467 143.254 62.2496 143.045C62.3524 142.835 62.3524 142.626 62.4553 142.521C62.5582 142.416 62.5582 142.207 62.5582 142.207C62.5582 142.312 62.661 142.416 62.661 142.521C62.7639 142.626 62.7639 142.835 62.8668 143.045C62.9696 143.254 63.0725 143.464 63.0725 143.673C63.1754 143.883 63.2782 144.197 63.3811 144.406H61.7352V144.511Z" fill="#008237"/>
<path d="M72.5358 141.997V140.845H68.6269V146.815H69.9642V144.302H72.3301V143.149H69.9642V141.893H72.5358V141.997Z" fill="#008237"/>
<path d="M77.8859 145.035C77.6802 144.511 77.4745 143.987 77.2687 143.464C77.063 142.94 76.8573 142.521 76.6515 142.102C76.4458 141.683 76.2401 141.264 76.0343 140.845H74.8C74.5942 141.264 74.3885 141.683 74.1828 142.102C73.977 142.521 73.7713 143.045 73.6684 143.464C73.4627 143.987 73.257 144.511 73.0512 145.035C72.8455 145.558 72.6398 146.187 72.4341 146.815H73.7713C73.8742 146.606 73.8742 146.396 73.977 146.187C74.0799 145.977 74.0799 145.768 74.1828 145.558H76.4458C76.5487 145.768 76.5487 145.977 76.6515 146.187C76.7544 146.396 76.7544 146.606 76.8573 146.815H78.2974C78.2974 146.187 78.0916 145.663 77.8859 145.035ZM74.6971 144.511C74.8 144.302 74.9028 143.987 75.0057 143.778C75.1086 143.568 75.2114 143.359 75.2114 143.149C75.3143 142.94 75.3143 142.731 75.4171 142.626C75.52 142.521 75.52 142.312 75.52 142.312C75.52 142.416 75.6229 142.521 75.6229 142.626C75.7257 142.731 75.7257 142.94 75.8286 143.149C75.9315 143.359 76.0343 143.568 76.0343 143.778C76.1372 143.987 76.2401 144.302 76.3429 144.511H74.6971Z" fill="#008237"/>
<path d="M82 140.845C81.7942 141.264 81.5885 141.683 81.3828 142.102C81.177 142.521 80.9713 142.94 80.6627 143.359C80.457 142.94 80.2513 142.521 79.9427 142.102C79.7369 141.683 79.5312 141.264 79.3255 140.845H77.7825C78.0911 141.474 78.3997 142.102 78.8111 142.731C79.1197 143.359 79.5312 143.987 79.9427 144.616V146.92H81.2799V144.616C81.6914 143.987 82 143.359 82.4114 142.835C82.72 142.207 83.1315 141.578 83.4401 140.95H82V140.845Z" fill="#008237"/>
<path d="M85.6004 145.768V144.302H87.9663V143.149H85.6004V141.997H88.2749V140.845H84.2631V146.815H88.4806V145.663H85.6004V145.768Z" fill="#008237"/>
<path d="M88.995 140.845V141.997H90.7437V146.815H92.081V141.997H93.8297V140.845H88.995Z" fill="#008237"/>
<path d="M94.5495 140.845V141.997H96.2982V146.815H97.6354V141.997H99.3841V140.845H94.5495Z" fill="#008237"/>
<path d="M101.647 145.768V144.302H104.013V143.149H101.647V141.997H104.322V140.845H100.31V146.815H104.527V145.663H101.647V145.768Z" fill="#008237"/>
<path d="M113.373 140.845H112.653C112.551 141.055 112.345 141.369 112.139 141.788C111.933 142.102 111.83 142.521 111.625 142.835C111.419 143.254 111.316 143.568 111.11 143.987C110.905 144.406 110.802 144.72 110.699 145.035C110.596 144.72 110.39 144.406 110.288 143.987C110.082 143.568 109.979 143.254 109.773 142.835C109.567 142.416 109.465 142.102 109.259 141.788C109.053 141.474 108.95 141.159 108.745 140.845H108.024C108.024 141.264 107.922 141.788 107.922 142.207C107.922 142.731 107.819 143.149 107.819 143.673C107.819 144.197 107.716 144.72 107.716 145.244C107.716 145.768 107.613 146.292 107.613 146.815H108.436C108.436 145.977 108.539 145.244 108.539 144.406C108.539 143.568 108.642 142.835 108.642 142.207C108.745 142.312 108.745 142.416 108.847 142.626C108.95 142.835 109.053 143.045 109.156 143.254C109.259 143.464 109.362 143.778 109.465 143.987C109.567 144.302 109.67 144.511 109.773 144.72C109.876 144.93 109.979 145.244 110.082 145.454C110.185 145.663 110.288 145.873 110.288 145.977H110.905C111.008 145.873 111.008 145.663 111.11 145.454C111.213 145.244 111.316 145.035 111.419 144.72C111.522 144.511 111.625 144.197 111.728 143.987C111.83 143.673 111.933 143.464 112.036 143.254C112.139 143.045 112.242 142.835 112.345 142.626C112.448 142.416 112.551 142.312 112.551 142.207C112.653 142.94 112.653 143.673 112.653 144.406C112.653 145.244 112.756 145.977 112.756 146.815H113.579C113.682 144.825 113.579 142.835 113.373 140.845Z" fill="#666564"/>
<path d="M115.226 140.845V146.815H116.049V140.845H115.226Z" fill="#666564"/>
<path d="M121.706 145.873C121.603 145.978 121.397 145.978 121.192 146.082C120.986 146.187 120.574 146.187 120.266 146.187C119.957 146.187 119.649 146.082 119.443 145.978C119.237 145.873 119.031 145.663 118.826 145.454C118.62 145.244 118.517 145.035 118.414 144.721C118.311 144.407 118.311 144.092 118.311 143.778C118.311 143.359 118.311 143.045 118.414 142.731C118.517 142.417 118.62 142.207 118.826 141.998C119.031 141.788 119.237 141.579 119.443 141.474C119.649 141.369 119.957 141.264 120.266 141.264C120.369 141.264 120.574 141.264 120.677 141.264C120.78 141.264 120.986 141.369 121.089 141.369C121.192 141.369 121.294 141.474 121.397 141.474C121.5 141.474 121.603 141.579 121.603 141.579L121.809 140.846C121.809 140.846 121.706 140.741 121.603 140.741C121.5 140.741 121.397 140.636 121.294 140.636C121.192 140.636 120.986 140.531 120.78 140.531C120.574 140.531 120.369 140.531 120.163 140.531C119.751 140.531 119.443 140.636 119.031 140.741C118.723 140.846 118.414 141.055 118.106 141.369C117.9 141.683 117.694 141.998 117.488 142.312C117.386 142.731 117.283 143.15 117.283 143.673C117.283 144.197 117.386 144.616 117.488 145.035C117.591 145.454 117.797 145.768 118.106 145.978C118.311 146.292 118.62 146.397 119.031 146.606C119.34 146.711 119.751 146.815 120.163 146.815C120.369 146.815 120.574 146.815 120.78 146.815C120.986 146.815 121.192 146.711 121.294 146.711C121.397 146.711 121.603 146.606 121.706 146.606C121.809 146.606 121.912 146.501 121.912 146.501L121.706 145.873Z" fill="#666564"/>
<path d="M127.055 146.187C126.952 145.978 126.746 145.663 126.643 145.454C126.541 145.244 126.335 145.035 126.232 144.825C126.129 144.616 126.026 144.511 125.923 144.407C126.335 144.302 126.643 144.092 126.849 143.778C127.055 143.464 127.158 143.15 127.158 142.731C127.158 142.102 126.952 141.579 126.541 141.264C126.129 140.95 125.512 140.741 124.689 140.741C124.483 140.741 124.175 140.741 123.866 140.741C123.557 140.741 123.352 140.846 123.043 140.846V146.815H123.866V144.511H124.792C124.895 144.511 124.895 144.511 124.998 144.511C125.1 144.616 125.203 144.825 125.409 144.93C125.512 145.14 125.718 145.349 125.821 145.559C125.923 145.768 126.129 145.978 126.232 146.187C126.335 146.397 126.438 146.606 126.643 146.815H127.569C127.364 146.606 127.158 146.397 127.055 146.187ZM125.718 143.569C125.512 143.673 125.409 143.673 125.1 143.778C124.895 143.778 124.586 143.778 124.38 143.778H123.763V141.474C123.969 141.474 124.175 141.474 124.586 141.474C124.792 141.474 124.998 141.474 125.203 141.474C125.409 141.474 125.615 141.579 125.718 141.683C125.821 141.788 126.026 141.893 126.026 141.998C126.129 142.102 126.129 142.312 126.129 142.521C126.129 142.731 126.129 142.94 126.026 143.15C126.026 143.359 125.821 143.569 125.718 143.569Z" fill="#666564"/>
<path d="M133.433 142.521C133.33 142.102 133.124 141.788 132.816 141.579C132.61 141.265 132.301 141.16 131.89 140.95C131.581 140.846 131.17 140.741 130.861 140.741C130.45 140.741 130.141 140.846 129.73 140.95C129.421 141.055 129.113 141.265 128.804 141.579C128.495 141.893 128.29 142.207 128.187 142.521C128.084 142.836 127.981 143.359 127.981 143.883C127.981 144.407 128.084 144.826 128.187 145.244C128.29 145.663 128.495 145.978 128.804 146.187C129.113 146.501 129.318 146.606 129.73 146.816C130.038 146.92 130.45 147.025 130.861 147.025C131.273 147.025 131.581 146.92 131.89 146.816C132.199 146.711 132.507 146.501 132.816 146.187C133.022 145.873 133.227 145.559 133.433 145.244C133.536 144.826 133.639 144.407 133.639 143.883C133.742 143.359 133.639 142.836 133.433 142.521ZM132.713 144.826C132.61 145.14 132.507 145.349 132.301 145.559C132.096 145.768 131.89 145.978 131.684 146.082C131.479 146.187 131.17 146.292 130.861 146.292C130.553 146.292 130.244 146.187 130.038 146.082C129.833 145.978 129.627 145.768 129.421 145.559C129.215 145.349 129.113 145.14 129.01 144.826C128.907 144.511 128.907 144.197 128.907 143.883C128.907 143.569 128.907 143.15 129.01 142.94C129.113 142.626 129.215 142.417 129.421 142.207C129.627 141.998 129.833 141.788 130.038 141.683C130.244 141.579 130.553 141.474 130.861 141.474C131.17 141.474 131.479 141.579 131.684 141.683C131.89 141.788 132.096 141.998 132.301 142.207C132.507 142.417 132.61 142.626 132.713 142.94C132.816 143.255 132.816 143.569 132.816 143.883C132.816 144.197 132.816 144.511 132.713 144.826Z" fill="#666564"/>
<path d="M138.576 141.578V140.845H134.976V146.815H135.799V144.092H138.268V143.359H135.799V141.578H138.576Z" fill="#666564"/>
<path d="M139.708 140.845V146.815H140.531V140.845H139.708Z" fill="#666564"/>
<path d="M145.981 145.244C145.776 144.93 145.57 144.616 145.364 144.197C145.056 143.778 144.85 143.359 144.541 143.045C144.233 142.626 143.924 142.207 143.616 141.893C143.307 141.474 142.998 141.16 142.793 140.846H142.175V146.816H142.998V142.102C143.204 142.312 143.307 142.521 143.513 142.731C143.718 142.94 143.924 143.255 144.13 143.464C144.336 143.778 144.541 143.988 144.747 144.302C144.953 144.616 145.159 144.93 145.364 145.14C145.57 145.454 145.776 145.663 145.879 145.978C146.084 146.292 146.187 146.501 146.29 146.711H147.01V140.741H145.981V145.244Z" fill="#666564"/>
<path d="M152.566 145.139C152.36 144.616 152.154 144.092 151.949 143.568C151.743 143.045 151.537 142.626 151.331 142.207C151.126 141.788 150.92 141.369 150.714 140.845H149.994C149.788 141.264 149.583 141.683 149.377 142.207C149.171 142.626 148.965 143.149 148.76 143.568C148.554 144.092 148.348 144.616 148.142 145.139C147.937 145.663 147.731 146.292 147.525 146.92H148.554L149.068 145.349H151.743C151.846 145.558 151.949 145.873 152.051 146.082C152.154 146.292 152.257 146.606 152.36 146.815H153.286C152.977 146.187 152.771 145.663 152.566 145.139ZM149.274 144.616C149.48 144.092 149.583 143.673 149.788 143.149C149.994 142.626 150.2 142.207 150.406 141.788C150.611 142.207 150.817 142.626 150.92 143.149C151.126 143.568 151.228 144.092 151.434 144.616H149.274Z" fill="#666564"/>
<path d="M158.018 145.244C157.812 144.93 157.606 144.616 157.401 144.197C157.092 143.778 156.886 143.359 156.578 143.045C156.269 142.626 155.961 142.207 155.652 141.893C155.343 141.474 155.035 141.16 154.829 140.846H154.212V146.816H155.035V142.102C155.241 142.312 155.343 142.521 155.549 142.731C155.755 142.94 155.961 143.255 156.166 143.464C156.372 143.778 156.578 143.988 156.784 144.302C156.989 144.616 157.195 144.93 157.401 145.14C157.606 145.454 157.812 145.663 157.915 145.978C158.018 146.292 158.224 146.501 158.327 146.711H159.047V140.741H158.018V145.244Z" fill="#666564"/>
<path d="M164.498 145.873C164.395 145.978 164.189 145.978 163.984 146.082C163.778 146.187 163.366 146.187 163.058 146.187C162.749 146.187 162.441 146.082 162.235 145.978C162.029 145.873 161.823 145.663 161.618 145.454C161.412 145.244 161.309 145.035 161.206 144.721C161.103 144.407 161.103 144.092 161.103 143.778C161.103 143.359 161.103 143.045 161.206 142.731C161.309 142.417 161.412 142.207 161.618 141.998C161.823 141.788 162.029 141.579 162.235 141.474C162.441 141.369 162.749 141.264 163.058 141.264C163.161 141.264 163.366 141.264 163.469 141.264C163.572 141.264 163.778 141.369 163.881 141.369C163.984 141.369 164.086 141.474 164.189 141.474C164.292 141.474 164.395 141.579 164.395 141.579L164.601 140.846C164.601 140.846 164.498 140.741 164.395 140.741C164.292 140.741 164.189 140.636 164.086 140.636C163.984 140.636 163.778 140.531 163.572 140.531C163.366 140.531 163.161 140.531 162.955 140.531C162.543 140.531 162.235 140.636 161.823 140.741C161.515 140.846 161.206 141.055 160.898 141.369C160.692 141.683 160.486 141.998 160.28 142.312C160.178 142.731 160.075 143.15 160.075 143.673C160.075 144.197 160.178 144.616 160.28 145.035C160.383 145.454 160.589 145.768 160.898 145.978C161.103 146.292 161.412 146.397 161.823 146.606C162.132 146.711 162.543 146.815 162.955 146.815C163.161 146.815 163.366 146.815 163.572 146.815C163.778 146.815 163.984 146.711 164.086 146.711C164.189 146.711 164.395 146.606 164.498 146.606C164.601 146.606 164.704 146.501 164.704 146.501L164.498 145.873Z" fill="#666564"/>
<path d="M166.556 146.187V144.092H169.024V143.359H166.556V141.578H169.333V140.845H165.733V146.815H169.539V146.082H166.556V146.187Z" fill="#666564"/>
<path d="M176.739 144.092C176.533 143.883 176.224 143.673 175.916 143.569C176.121 143.464 176.327 143.359 176.533 143.045C176.636 142.836 176.739 142.521 176.739 142.207C176.739 141.893 176.636 141.683 176.533 141.474C176.43 141.264 176.224 141.055 176.018 140.95C175.813 140.846 175.504 140.741 175.196 140.636C174.887 140.636 174.578 140.531 174.27 140.531C174.167 140.531 174.064 140.531 173.858 140.531C173.755 140.531 173.55 140.531 173.447 140.531C173.344 140.531 173.138 140.531 173.035 140.531C172.932 140.531 172.727 140.531 172.624 140.636V146.501C172.727 146.501 172.83 146.501 173.035 146.606C173.241 146.711 173.344 146.606 173.447 146.606C173.55 146.606 173.755 146.606 173.858 146.606C173.961 146.606 174.167 146.606 174.27 146.606C175.196 146.606 175.916 146.501 176.327 146.187C176.739 145.873 176.944 145.454 176.944 144.825C177.047 144.721 176.944 144.407 176.739 144.092ZM173.55 141.474C173.653 141.474 173.755 141.474 173.858 141.474C173.961 141.474 174.167 141.474 174.373 141.474C174.578 141.474 174.784 141.474 174.99 141.474C175.196 141.474 175.298 141.579 175.504 141.683C175.607 141.788 175.71 141.893 175.813 141.998C175.916 142.102 175.916 142.312 175.916 142.417C175.916 142.626 175.916 142.731 175.813 142.836C175.71 142.94 175.607 143.045 175.504 143.15C175.401 143.254 175.196 143.254 174.99 143.254C174.784 143.254 174.578 143.254 174.373 143.254H173.55V141.474ZM176.018 145.663C175.916 145.768 175.813 145.873 175.607 145.978C175.401 146.082 175.298 146.082 174.99 146.187C174.784 146.187 174.578 146.187 174.27 146.187C174.167 146.187 174.064 146.187 173.961 146.187C173.858 146.187 173.755 146.187 173.653 146.187C173.55 146.187 173.447 146.187 173.447 146.187V144.092H174.475C174.681 144.092 174.887 144.092 175.093 144.092C175.298 144.092 175.401 144.197 175.607 144.302C175.71 144.407 175.813 144.511 175.916 144.616C176.018 144.721 176.018 144.93 176.018 145.14C176.224 145.349 176.121 145.559 176.018 145.663Z" fill="#666564"/>
<path d="M182.5 145.139C182.294 144.616 182.088 144.092 181.883 143.568C181.677 143.045 181.471 142.626 181.266 142.207C181.06 141.788 180.854 141.369 180.648 140.845H179.928C179.723 141.264 179.517 141.683 179.311 142.207C179.105 142.626 178.9 143.149 178.694 143.568C178.488 144.092 178.282 144.616 178.077 145.139C177.871 145.663 177.665 146.292 177.46 146.92H178.282L178.797 145.349H181.471C181.574 145.558 181.677 145.873 181.78 146.082C181.883 146.292 181.986 146.606 182.088 146.815H183.014C182.911 146.187 182.706 145.663 182.5 145.139ZM179.311 144.616C179.517 144.092 179.62 143.673 179.825 143.149C180.031 142.626 180.237 142.207 180.443 141.788C180.648 142.207 180.854 142.626 180.957 143.149C181.163 143.568 181.266 144.092 181.471 144.616H179.311Z" fill="#666564"/>
<path d="M187.951 145.244C187.745 144.93 187.54 144.616 187.231 144.197C186.923 143.778 186.717 143.359 186.408 143.045C186.1 142.626 185.791 142.207 185.482 141.893C185.174 141.474 184.865 141.16 184.66 140.846H184.042V146.815H184.865V142.102C185.071 142.312 185.174 142.521 185.38 142.731C185.585 142.94 185.791 143.254 185.997 143.464C186.202 143.778 186.408 143.988 186.614 144.302C186.82 144.616 187.025 144.93 187.231 145.14C187.437 145.454 187.643 145.663 187.745 145.978C187.848 146.292 188.054 146.501 188.157 146.711H188.877V140.741H187.951V145.244Z" fill="#666564"/>
<path d="M194.328 145.978C194.122 145.663 193.814 145.349 193.608 145.14C193.3 144.826 193.094 144.616 192.785 144.302C192.477 144.092 192.271 143.883 191.962 143.674C192.168 143.464 192.374 143.255 192.682 143.045C192.888 142.836 193.197 142.521 193.402 142.312C193.608 142.102 193.917 141.788 194.123 141.579C194.328 141.369 194.534 141.16 194.74 140.95H193.711C193.608 141.16 193.402 141.265 193.197 141.579C192.991 141.788 192.785 141.998 192.58 142.312C192.374 142.521 192.065 142.836 191.859 143.045C191.654 143.255 191.448 143.464 191.242 143.674V141.055H190.419V147.025H191.242V144.197C191.448 144.302 191.757 144.511 191.962 144.721C192.168 144.93 192.477 145.14 192.682 145.454C192.888 145.663 193.197 145.978 193.402 146.292C193.608 146.606 193.814 146.816 194.02 147.13H194.945C194.74 146.606 194.534 146.292 194.328 145.978Z" fill="#666564"/>
</svg>
