<svg width="250" height="250" viewBox="0 0 250 250" fill="none" xmlns="http://www.w3.org/2000/svg">
<path d="M0 125C0 55.9644 55.9644 0 125 0C194.036 0 250 55.9644 250 125C250 194.036 194.036 250 125 250C55.9644 250 0 194.036 0 125Z" fill="white"/>
<path d="M122.506 96.3134C123.76 97.1243 125.083 98.4231 126.324 99.4126C127.233 98.6048 128.355 97.7484 129.311 96.9543C128.801 98.0371 128.045 99.202 127.401 100.206C131.677 103.271 133.876 105.45 139.271 103.975C141.125 103.467 143.118 103.097 145 102.396C145.431 102.236 146.963 101.629 147.267 101.684C147.3 102.065 144.998 103.42 144.531 103.762C141.85 105.778 138.935 108.01 137.781 111.313C136.132 116.031 137.997 118.645 142.297 120.229C140.746 121.184 139.115 122.045 137.518 122.927C139.339 128.496 140.734 134.243 142.352 139.874C142.536 140.516 143.641 143.879 143.459 144.251L143.328 144.186C143.064 143.546 142.513 142.539 142.186 141.855L133.395 123.568C133.289 125.65 132.254 142.613 131.753 143.27C131.224 142.779 130.152 133.675 129.779 132.294C129.714 132.053 129.722 130.714 129.694 130.634C129.071 128.9 133.473 120.673 133.312 120.127C132.518 120.13 129.958 123.184 128.582 122.515C128.504 122.158 129.487 120.559 129.696 120.051C129.902 119.553 130.07 119.023 130.245 118.525C132.554 111.945 129.357 107.596 126.373 102.014C125.617 103.288 124.355 105.048 123.707 106.223C121.46 110.293 121.562 118.604 122.775 122.947C121.431 122.016 119.145 120.464 117.748 119.805C117.974 120.8 120.874 125.76 121.582 127.311C121.695 127.54 122.386 129.039 122.466 129.145C123.097 132.293 121.867 136.915 121.431 140.127C121.352 140.711 121.047 143.228 120.735 143.447C119.972 142.293 119.507 128.184 119.245 125.838C119.205 125.489 119.295 125.24 119.135 124.771L118.933 124.687C118.371 124.964 118.089 126.036 117.815 126.606L116.152 129.995L111.257 139.912C110.38 141.668 109.385 143.754 108.428 145.446C109.859 138.597 114.625 115.898 113.448 110.266C112.695 106.657 107.911 103.63 105.072 101.726C108.519 102.534 111.852 103.591 115.362 104.108C117.699 104.452 118.514 103.967 120.457 102.791C121.989 101.863 123.581 101.207 125.041 100.098C124.419 99.3116 123.187 97.2806 122.506 96.3134Z" fill="#E88120"/>
<path d="M123.412 56.7776C124.923 56.6276 128.829 56.8376 130.431 56.9586C133.221 57.2189 135.883 57.8051 138.582 58.5046C157.656 63.4477 172.641 79.5419 176.906 98.6833C177.217 100.081 177.672 101.704 177.552 103.131C176.993 101.781 176.566 99.6812 175.931 98.0062C173.663 92.0086 170.409 86.4323 166.301 81.5082C163.998 78.749 161.195 76.1805 158.377 73.9526C149.374 66.8355 139.447 63.3356 128.091 62.2871C122.412 61.9775 117.316 62.2856 111.777 63.6563C96.8637 67.2816 84.129 76.9433 76.6209 90.3287C75.554 92.2369 74.4992 94.5167 73.616 96.5253C73.1161 97.6617 72.684 99.6983 72.0675 100.715C71.8535 100.305 72.4048 98.0831 72.543 97.5024C76.9463 79.0124 91.6803 63.7116 110.046 58.7393C114.764 57.462 118.504 56.9719 123.412 56.7776Z" fill="#E88120"/>
<path d="M126.479 124.804C128.519 124.181 129.706 123.325 131.476 122.589C130.955 123.788 129.301 128.265 129.179 129.461C128.878 132.39 129.342 136.733 129.591 139.756C129.642 140.364 129.97 144.095 129.9 144.457C129.767 144.411 129.809 144.452 129.752 144.362L129.949 144.34L129.699 144.26C128.795 141.817 127.946 139.355 126.984 136.932C126.761 136.37 126.582 135.83 126.44 135.242C125.922 136.316 122.743 143.872 122.427 144.071C122.108 143.558 122.767 140.682 122.763 139.765C123.03 137.809 123.195 135.834 123.398 133.871C123.663 131.315 123.559 129.386 122.575 126.994C122.171 126.036 121.28 123.699 120.832 122.894C122.677 123.637 124.562 124.275 126.479 124.804Z" fill="#E88120"/>
<path d="M57.6892 134.354C60.2677 133.957 63.5599 139.595 64.3355 141.698C64.6071 142.434 66.1802 147.489 65.96 147.986C65.644 147.866 65.5365 147.664 65.3248 147.391C63.0476 144.902 61.8143 143.636 58.6087 142.522C58.5277 142.375 58.4497 142.227 58.3746 142.077C57.828 140.978 55.8588 136.693 56.2507 135.523C56.447 134.937 57.154 134.602 57.6892 134.354Z" fill="#01984F"/>
<path d="M58.1453 135.551C58.8696 136.224 59.4897 138.172 59.2279 139.165C59.075 139.746 58.6887 139.987 58.231 140.286L58.1074 140.211C58.548 139.689 58.7069 139.476 59.0536 138.891C58.8909 138.089 58.1599 135.986 58.1453 135.551Z" fill="#71EEAE"/>
<path d="M185.457 141.977C186.446 139.463 188.132 136.699 190.254 134.921C190.755 134.547 191.531 134.24 192.157 134.404C195.467 135.267 192.525 138.838 192.192 140.532C192.049 140.223 191.508 139.932 191.202 139.44C190.287 137.973 191.475 136.911 191.728 135.789L191.597 135.682C190.864 136.961 190.598 137.844 190.613 139.294C191.04 139.97 191.376 140.449 192.192 140.532C191.9 141.286 191.739 141.861 191.294 142.549C188.288 143.188 185.456 146.314 183.526 148.635C184.133 146.405 184.777 144.186 185.457 141.977Z" fill="#01984F"/>
<path d="M177.912 154.867C178.456 151.578 178.341 148.189 179.439 144.941C179.916 143.532 180.623 142.243 182.025 141.572C185.064 140.115 184.17 142.79 183.829 144.565C183.69 145.326 183.617 145.954 183.356 146.624L183.299 147.07C183.192 148.465 183.052 149.178 182.051 150.273C180.647 151.81 179.231 153.25 177.912 154.867Z" fill="#01984F"/>
<path d="M182.051 142.789C181.953 144.486 181.141 146.164 183.356 146.624L183.299 147.07C180.792 146.782 181.462 144.35 182.051 142.789Z" fill="#71EEAE"/>
<path d="M66.4794 146.649C66.1578 144.678 64.1607 138.884 68.5508 142.055C71.2467 144.003 71.5721 150.713 71.8718 153.837C71.9041 154.173 71.9346 154.509 71.9631 154.846C70.0328 152.295 66.7198 150.188 66.5395 146.948L66.4794 146.649Z" fill="#01984F"/>
<path d="M66.4794 146.649C68.2549 146.316 68.0491 145.197 68.0314 143.615L68.0487 143.714C68.4113 144.137 68.3357 145.198 68.2918 145.74C68.2818 145.864 68.2686 145.987 68.2523 146.11C67.7651 146.509 67.2059 147.107 66.5395 146.948L66.4794 146.649Z" fill="#71EEAE"/>
<path d="M136.52 94.3698C137.768 94.1046 139.061 94.5346 139.902 95.4939C140.742 96.4532 140.999 97.792 140.572 98.9939C140.145 100.196 139.102 101.073 137.845 101.288C135.954 101.61 134.153 100.361 133.793 98.4779C133.432 96.5944 134.644 94.7685 136.52 94.3698Z" fill="#E88120"/>
<path d="M116.505 94.443C117.769 94.3903 118.963 95.022 119.63 96.0965C120.298 97.1708 120.335 98.5213 119.728 99.6307C119.121 100.74 117.963 101.437 116.698 101.454C115.758 101.466 114.851 101.1 114.183 100.438C113.515 99.7758 113.14 98.8728 113.145 97.9319C113.153 96.0577 114.633 94.5212 116.505 94.443Z" fill="#E88120"/>
<path d="M74.0835 150.537C74.6985 150.594 75.3399 150.82 75.9173 151.023C77.5338 152.89 77.2556 155.694 76.8877 157.974C76.8316 158.321 76.657 158.878 76.3549 159.065L76.0217 158.982L75.9732 158.946C74.5876 157.919 73.6806 156.939 72.6512 155.551C73.2264 153.96 73.2551 151.506 74.0835 150.537ZM75.1482 153.002C75.238 152.529 75.3903 151.95 75.2971 151.49C75.1591 151.324 75.2161 151.346 75.0394 151.263C74.9825 151.734 74.849 152.504 74.9413 152.934L75.1482 153.002Z" fill="#01984F"/>
<path d="M74.7047 153.628L74.7936 153.628L74.8389 153.771C74.4563 154.336 73.9902 154.417 73.3553 154.422L73.1848 154.317C73.2834 153.902 73.9145 154.234 74.7047 153.628Z" fill="#71EEAE"/>
<path d="M75.0394 151.263C75.2161 151.346 75.1591 151.324 75.2971 151.49C75.3903 151.95 75.238 152.529 75.1482 153.002L74.9413 152.934C74.849 152.504 74.9825 151.734 75.0394 151.263Z" fill="#71EEAE" fill-opacity="0.988235"/>
<path d="M172.762 156.084C172.684 155.359 172.686 154.627 172.766 153.902C172.959 152.197 173.799 150.373 175.837 150.624C175.909 150.671 175.996 150.728 176.097 150.794C176.404 151.648 176.686 153.259 176.878 154.11C176.018 154 175.729 153.933 174.982 153.484L174.871 153.715C175.387 154.256 175.981 154.597 176.755 154.374L176.878 154.11C176.901 154.475 177.106 155.088 177.22 155.448L177.123 155.596C176.407 156.686 174.906 158.53 173.682 159.034C173.04 159.299 172.804 156.516 172.762 156.084Z" fill="#01984F"/>
<path d="M125.902 117.378C127.128 117.218 128.251 118.082 128.41 119.307C128.57 120.533 127.704 121.656 126.478 121.814C125.905 121.888 125.325 121.737 124.86 121.392C124.128 120.849 123.799 119.916 124.027 119.034C124.256 118.151 124.998 117.496 125.902 117.378Z" fill="#E88120"/>
<path d="M191.597 135.682L191.728 135.789C191.475 136.911 190.287 137.973 191.202 139.44C191.508 139.932 192.049 140.223 192.192 140.532C191.376 140.449 191.04 139.97 190.613 139.294C190.598 137.844 190.864 136.961 191.597 135.682Z" fill="#71EEAE" fill-opacity="0.988235"/>
<path d="M174.871 153.715L174.982 153.484C175.729 153.933 176.018 154 176.878 154.11L176.755 154.374C175.981 154.597 175.387 154.256 174.871 153.715Z" fill="#71EEAE" fill-opacity="0.988235"/>
<path d="M155.164 165.246L161.396 164.788C165.141 164.546 167.21 164.482 170.491 162.265C171.637 161.49 173.12 160.835 174.255 159.987C176.669 158.183 179.144 155.238 181.144 152.972C184.182 149.479 186.633 144.957 191.249 143.329C191.786 143.14 192.724 142.625 193.206 142.631C196.181 142.667 194.481 145.151 193.428 146.329C192.182 147.72 191.072 149.039 190.014 150.573C189.197 151.703 188.693 152.873 187.898 154.001C186.644 155.619 184.698 157.395 183.611 159.082C182.21 161.256 180.471 163.607 179.138 165.768C176.429 170.159 175.344 170.635 170.667 172.414C167.341 173.713 163.965 174.883 160.547 175.918C150.765 178.882 144.296 179.072 140.096 189.525C139.95 189.887 138.8 192.756 138.305 193.157C131.103 193.252 123.578 193.056 116.373 193.198C114.61 193.232 112.57 193.146 111.514 193.298C109.628 189.45 108.032 184.851 104.748 181.904C101.074 178.607 95.3913 177.659 90.7661 176.315C87.084 175.224 83.4418 174.002 79.8465 172.654C78.2998 172.069 76.4622 171.421 75.0279 170.62C73.2209 169.61 71.8569 167.381 70.7027 165.72C68.8802 163.095 67.2639 160.325 65.3144 157.794C64.2414 156.405 62.886 155.104 61.8128 153.709C61.2579 152.988 60.8183 152.018 60.3276 151.258C59.7884 150.422 59.129 149.506 58.5173 148.711C57.3949 147.251 55.9482 146.006 55.0882 144.343C54.9981 144.169 54.9843 144.065 54.875 143.905V143.652C55.1594 143.198 55.3215 142.879 55.8887 142.741C57.279 142.403 59.9109 143.774 61.0729 144.559C63.6301 146.287 65.4095 148.801 67.2989 151.173C69.7971 154.275 72.4742 157.465 75.5839 159.965C76.5579 160.748 77.8809 161.324 78.8849 161.977C81.9485 163.968 84.1401 164.698 87.8091 164.776C89.8208 164.819 92.5961 164.987 94.6412 165.249C90.5075 162.683 81.594 160.387 80.2597 155.406C80.0536 154.637 79.687 151.262 80.0676 150.589C80.4686 150.484 80.6525 150.557 81.0052 150.771C82.063 151.411 82.8633 152.317 83.937 152.944C84.6784 153.377 85.1982 153.501 85.4265 154.341C85.7193 154.174 85.8286 153.982 86.1675 154.108C89.0769 155.19 92.0443 156.884 95.1185 157.442C99.8923 158.308 105.08 157.261 109.741 158.705C111.038 159.116 112.974 160.444 114.105 161.223C116.359 162.7 117.872 164.195 119.123 166.603C121.812 171.778 123.284 177.38 124.174 183.116C124.328 184.105 124.743 188.892 125.079 189.224C125.348 188.478 125.26 186.533 125.374 185.632C126.179 179.291 127.593 172.95 130.466 167.201C130.999 166.178 131.458 165.136 132.197 164.241C133.751 162.357 135.923 161.125 137.935 159.794C139.096 159.028 140.598 158.405 141.976 158.221C146.249 157.651 150.606 158.04 154.878 157.463C155.93 157.321 157.09 156.746 158.11 156.425C160 155.733 161.823 154.831 163.691 154.082C163.896 154 164.252 154.188 164.447 154.275C164.463 154.237 164.634 153.826 164.634 153.826C165.517 153.186 166.404 152.525 167.285 151.884C167.911 151.429 168.492 150.904 169.191 150.571C169.449 150.447 169.579 150.541 169.793 150.635C170.157 151.053 170.152 151.324 170.2 151.843C170.962 159.955 160.709 162.094 155.237 165.204L155.164 165.246ZM58.9611 146.394C58.859 146.8 58.6803 147.289 58.7747 147.672C58.8481 147.692 58.9646 147.731 59.034 147.733C59.3663 146.844 59.4483 146.576 59.0651 145.653C58.7618 144.923 57.7005 143.665 56.9111 143.581C57.7548 144.788 58.408 144.738 58.9611 146.394ZM84.297 155.266L85.3693 154.611L85.1605 154.457C84.0356 154.834 84.2737 155.048 83.0522 154.516C82.4706 154.263 81.2207 153.43 80.6943 153.349C81.4489 154.284 83.1468 154.913 84.297 155.266Z" fill="#01984F"/>
<path d="M56.9111 143.581C57.7005 143.665 58.7618 144.923 59.0651 145.653C59.4483 146.576 59.3663 146.844 59.034 147.733C58.9646 147.731 58.8481 147.692 58.7747 147.672C58.6803 147.289 58.859 146.8 58.9611 146.394C58.408 144.738 57.7548 144.788 56.9111 143.581Z" fill="#71EEAE" fill-opacity="0.988235"/>
<path d="M169.052 153.19L169.122 153.356C168.654 154.13 166.709 154.883 165.852 155.247L164.531 154.752C164.503 154.661 164.507 154.533 164.502 154.43C164.933 154.335 165.047 154.666 165.504 154.747C166.664 154.952 168.157 153.817 169.052 153.19Z" fill="#71EEAE"/>
<path d="M192.572 143.731C192.527 144.23 191.373 145.154 191.124 145.739C190.801 146.497 191.165 147.011 191.023 147.718C190.389 147.109 190.558 146.701 190.605 145.853C191.165 144.984 191.686 144.278 192.572 143.731Z" fill="#71EEAE"/>
<path d="M80.6943 153.349C81.2207 153.43 82.4706 154.263 83.0522 154.516C84.2737 155.048 84.0356 154.834 85.1605 154.457L85.3693 154.611L84.297 155.266C83.1468 154.913 81.4489 154.284 80.6943 153.349Z" fill="#71EEAE" fill-opacity="0.988235"/>
</svg>
