<svg width="250" height="250" viewBox="0 0 250 250" fill="none" xmlns="http://www.w3.org/2000/svg">
<mask id="path-1-inside-1_453_172" fill="white">
<path d="M0 125C0 55.9644 55.9644 0 125 0C194.036 0 250 55.9644 250 125C250 194.036 194.036 250 125 250C55.9644 250 0 194.036 0 125Z"/>
</mask>
<path d="M0 125C0 55.9644 55.9644 0 125 0C194.036 0 250 55.9644 250 125C250 194.036 194.036 250 125 250C55.9644 250 0 194.036 0 125Z" fill="white"/>
<path d="M0 125M250 125M250 125M0 125M125 0M250 125M125 250M0 125M125 250V248C57.069 248 2 192.931 2 125H0H-2C-2 195.14 54.8598 252 125 252V250ZM250 125H248C248 192.931 192.931 248 125 248V250V252C195.14 252 252 195.14 252 125H250ZM125 0V2C192.931 2 248 57.069 248 125H250H252C252 54.8598 195.14 -2 125 -2V0ZM125 0V-2C54.8598 -2 -2 54.8598 -2 125H0H2C2 57.069 57.069 2 125 2V0Z" fill="#DDDBDB" mask="url(#path-1-inside-1_453_172)"/>
<path d="M184.702 73.5185V96.327C184.702 97.7896 184.126 99.1731 183.093 100.221L99.3651 183.509C97.1999 185.663 93.7038 185.663 91.5585 183.509L69.5092 161.57C67.344 159.416 67.344 155.937 69.5092 153.803L113.489 110.044H70.5223C67.4632 110.044 65 107.573 65 104.549V73.5185C65 70.4748 67.4632 68.0239 70.5223 68.0239H179.18C182.219 68.0239 184.702 70.4748 184.702 73.5185Z" fill="#419248"/>
<path d="M185 123.503V166.986C185 178.588 175.545 187.976 163.884 187.976C158.064 187.976 152.78 185.624 148.966 181.829C145.152 178.034 142.788 172.777 142.788 166.986V165.365L184.861 123.503H185Z" fill="#D87A32"/>
</svg>
