<svg width="250" height="250" viewBox="0 0 250 250" fill="none" xmlns="http://www.w3.org/2000/svg">
<mask id="path-1-inside-1_453_111" fill="white">
<path d="M0 125C0 55.9644 55.9644 0 125 0C194.036 0 250 55.9644 250 125C250 194.036 194.036 250 125 250C55.9644 250 0 194.036 0 125Z"/>
</mask>
<path d="M0 125C0 55.9644 55.9644 0 125 0C194.036 0 250 55.9644 250 125C250 194.036 194.036 250 125 250C55.9644 250 0 194.036 0 125Z" fill="white"/>
<path d="M0 125M250 125M250 125M0 125M125 0M250 125M125 250M0 125M125 250V248C57.069 248 2 192.931 2 125H0H-2C-2 195.14 54.8598 252 125 252V250ZM250 125H248C248 192.931 192.931 248 125 248V250V252C195.14 252 252 195.14 252 125H250ZM125 0V2C192.931 2 248 57.069 248 125H250H252C252 54.8598 195.14 -2 125 -2V0ZM125 0V-2C54.8598 -2 -2 54.8598 -2 125H0H2C2 57.069 57.069 2 125 2V0Z" fill="#DDDBDB" mask="url(#path-1-inside-1_453_111)"/>
<path d="M94.5421 130.543C97.6543 131.312 101.76 132.723 104.896 133.686L124.875 139.814C130.334 141.49 184.697 157.832 185.341 158.431C184.9 158.716 147.899 158.627 143.684 158.607L66.9851 158.616C62.1635 158.664 57.3413 158.637 52.5205 158.532C54.06 157.164 56.4184 155.697 58.183 154.523L66.8254 148.764C70.8231 146.097 74.8205 143.307 78.945 140.845C79.7413 140.37 80.4852 139.885 81.2556 139.371L89.7411 133.708C91.2687 132.689 92.9949 131.482 94.5421 130.543Z" fill="#FDD316"/>
<path d="M130.682 59.3831C131.003 59.6464 132.373 68.5247 132.548 69.5807L135.877 89.6985C132.99 92.1741 129.15 95.0591 126.099 97.4781L107.16 112.492L53.3345 155.06C52.4228 155.737 50.8394 157.156 50 157.603C53.9597 152.61 57.9761 147.661 62.0485 142.759C63.4416 141.087 64.856 139.546 66.2758 137.817L126.652 64.1987C127.907 62.6659 129.352 60.8131 130.682 59.3831Z" fill="#FDD316"/>
<path d="M133.102 59.4688C133.332 59.5579 133.358 59.6466 133.479 59.8567L168.719 121.001L179.468 139.59C182.924 145.468 186.757 151.826 190 157.782C189.529 157.787 156.365 143.156 154.33 141.959C153.915 141.337 152.583 135.702 152.288 134.549L133.102 59.4688Z" fill="#FDD316"/>
</svg>
