<svg width="250" height="250" viewBox="0 0 250 250" fill="none" xmlns="http://www.w3.org/2000/svg">
<path d="M0 125C0 55.9644 55.9644 0 125 0C194.036 0 250 55.9644 250 125C250 194.036 194.036 250 125 250C55.9644 250 0 194.036 0 125Z" fill="white"/>
<path fill-rule="evenodd" clip-rule="evenodd" d="M128.728 77.5527C140 78.2262 146.739 80.8728 155.612 87.8794C160.639 91.8497 167.824 96.9427 173.831 99.1349C179.61 101.244 188.54 101.99 194.757 102.345C194.911 114.594 194.967 126.845 194.928 139.095C194.941 147.35 195.102 156.117 194.895 164.334C191.558 164.489 187.977 164.44 184.626 164.442L168.967 164.436C155.611 164.424 142.042 164.51 128.703 164.308C128.532 158.659 128.649 152.413 128.647 146.732L128.642 91.0979C128.639 86.7966 128.524 81.8078 128.728 77.5527ZM136.494 141.284C136.351 146.454 136.313 151.627 136.378 156.798C141.578 156.867 146.78 156.86 151.98 156.777C154.305 156.756 159.12 156.824 161.3 156.509L161.625 156.392C161.585 155.881 160.122 155.129 159.645 154.799C158.158 153.769 156.678 152.728 155.204 151.679C150.921 148.619 146.57 144.844 141.882 142.577C140.171 141.749 138.308 141.619 136.494 141.284ZM136.496 113.459C136.015 119.332 136.433 127.299 136.279 133.405C139.238 133.842 146.508 136.648 148.861 138.176C155.911 142.757 162.261 148.712 169.907 152.426C174.826 154.797 181.534 156.094 187.01 156.531C187.344 156.037 187.087 138.339 187.075 136.241C185.243 136.026 183.369 135.948 181.558 135.704C176.325 135.006 171.235 133.486 166.475 131.203C163.17 129.648 157.497 125.94 154.549 123.778C150.005 120.447 142.316 113.79 136.496 113.459ZM136.48 85.8772C136.019 92.2551 136.657 99.2068 136.244 105.445C137.685 105.587 140.411 106.885 141.897 107.415C148.44 109.75 152.961 113.507 158.45 117.565C167.982 124.612 174.973 128.586 187.081 128.897C187.129 122.441 187.313 115.339 187.174 108.931C174.916 107.737 166.648 104.807 156.637 97.6641C151.305 93.8597 142.95 86.4904 136.48 85.8772Z" fill="#009700"/>
<path fill-rule="evenodd" clip-rule="evenodd" d="M121.441 154.246C121.439 157.381 121.535 161.304 121.383 164.402L55.1744 164.314C55.0162 163.63 55.0663 160.563 55.0674 159.718L55.0799 150.596L55.0732 112.545C55.0732 111.164 54.8597 102.851 55.1619 102.353L55.6953 102.331C61.8052 102.064 71.2713 101.027 76.9833 98.8755C81.1525 97.3049 87.6386 93.2618 91.1765 90.6195C96.7386 86.4654 102.798 81.3392 109.599 79.3312C112.541 78.4626 118.258 77.8824 121.437 77.6039L121.441 154.246ZM113.605 141.5C108.596 141.665 105.182 144.241 101.284 147.147C97.3315 150.093 93.368 153.025 89.3045 155.812C89.1497 155.919 89.0508 156.168 89.0354 156.352C89.2515 156.626 89.1315 156.545 89.5302 156.628C92.4167 156.972 97.5093 156.866 100.559 156.847C104.761 156.822 109.667 156.959 113.823 156.736C113.841 155.356 113.973 141.951 113.752 141.551L113.605 141.5ZM113.565 113.775C107.805 114.065 99.3477 121.161 94.5107 124.685C83.774 132.507 76.2777 135.185 63.1584 136.158C63.0796 140.182 63.062 144.207 63.1044 148.232C63.1111 150.697 63.0418 153.742 63.1671 156.167C63.2495 156.239 63.3127 156.314 63.4082 156.349C75.6386 155.683 84.0605 151.19 93.5087 143.846C99.7954 138.96 105.82 134.885 113.867 133.396L113.877 119.309C113.877 118.614 113.937 114.339 113.809 113.869C113.718 113.825 113.649 113.773 113.565 113.775ZM113.716 85.9389C113.416 85.8846 113.357 85.8717 113.055 85.9071C107.316 87.2193 101.905 91.5014 97.2287 95.0841C86.1937 103.538 77.0065 107.775 63.1044 109.085C63.1035 111.064 63.002 128.189 63.1806 128.621C63.4521 128.71 63.4648 128.713 63.7477 128.7C65.321 128.684 67.0806 128.705 68.6328 128.485C77.7914 127.184 84.9097 122.798 92.1786 117.363C93.9181 116.062 95.6375 114.605 97.3589 113.37C100.636 111.055 104.154 109.1 107.851 107.541C109.35 106.904 112.346 105.711 113.888 105.358C113.859 103.554 113.972 86.3415 113.716 85.9389Z" fill="#009700"/>
</svg>
