<svg width="250" height="250" viewBox="0 0 250 250" fill="none" xmlns="http://www.w3.org/2000/svg">
<path d="M0 125C0 55.9644 55.9644 0 125 0C194.036 0 250 55.9644 250 125C250 194.036 194.036 250 125 250C55.9644 250 0 194.036 0 125Z" fill="#040B8F"/>
<path fill-rule="evenodd" clip-rule="evenodd" d="M117.142 63.2481C113.687 63.7247 109.079 64.8011 105.481 65.9715C101.029 67.4201 93.1798 71.3799 89.4431 74.0625C86.1281 76.4422 81.3162 80.5544 81.3162 81.0077C81.3162 81.1824 82.7941 81.3077 84.858 81.3077H88.4001L89.9203 80.1039C100.337 71.8562 113.508 67.5556 126.955 68.0114C138.751 68.411 149.304 72.0886 158.878 79.1357L161.828 81.3077H165.342C167.388 81.3077 168.856 81.1824 168.856 81.0077C168.856 80.5544 164.044 76.4422 160.729 74.0625C156.96 71.3565 149.131 67.4163 144.587 65.9378C137.797 63.7288 134.396 63.1955 126.332 63.0752C122.391 63.0166 118.256 63.0942 117.142 63.2481ZM58.447 84.3061C58.3267 84.6195 58.152 86.2108 58.0585 87.8426C57.742 93.3657 59.3439 97.9666 62.7981 101.457C64.9779 103.659 67.1853 104.803 86.4564 113.717C100.174 120.062 109.971 124.997 113.619 127.401C118.151 130.386 120.122 133.078 120.874 137.31C121.291 139.659 121.048 141.217 119.434 146.521C118.342 150.109 118.306 150.381 118.488 153.553C118.719 157.574 119.429 159.788 121.35 162.481C122.711 164.387 124.478 166.043 125.153 166.043C125.919 166.043 129.08 162.345 130.13 160.221C131.139 158.178 131.268 157.613 131.544 153.987L131.573 153.597C131.754 151.221 131.476 148.832 130.754 146.561C129.129 141.452 128.84 139.671 129.252 137.324C130.022 132.937 132.33 129.994 137.547 126.751C141.915 124.035 157.478 116.458 178.031 107.041C185.719 103.519 188.048 101.724 190.009 97.8052C191.677 94.4716 192.355 91.2984 192.129 87.8759C191.84 83.4853 191.668 83.3734 190.055 86.5236C188.026 90.4865 185.877 92.4828 177.89 97.8249C171.793 101.903 170.102 102.841 159.042 108.283C146.037 114.683 141.239 117.255 136.301 120.476C132.686 122.834 128.482 126.132 126.517 128.151L125.145 129.561L122.523 127.107C116.736 121.693 110.306 117.807 92.687 109.074C80.1711 102.871 78.4112 101.901 72.4377 97.9056C68.8396 95.4993 65.2386 92.9492 64.4358 92.2389C62.5981 90.613 60.9816 88.4198 59.6797 85.7874C58.8847 84.1796 58.6183 83.8594 58.447 84.3061ZM121.563 106.564C117.029 107.153 113.747 108.763 113.103 110.714C111.859 114.482 117.045 117.14 125.615 117.128C133.526 117.117 138.326 115.096 138.326 111.777C138.326 107.911 130.334 105.425 121.563 106.564ZM55.194 108.278C56.4071 112.671 59.8719 117.234 63.6975 119.476C67.3115 121.594 71.1779 122.461 84.4349 124.125C93.0478 125.206 100.684 126.549 104.954 127.735C106.219 128.085 107.312 128.313 107.384 128.241C107.538 128.087 104.539 126.642 100.164 124.763C95.0527 122.568 89.696 120.737 81.6247 118.427C70.8882 115.354 65.1346 113.021 58.1554 108.914C56.5205 107.952 55.1158 107.164 55.0345 107.164C54.9532 107.164 55.0249 107.666 55.194 108.278ZM192.532 108.632C189.578 110.406 182.26 113.948 178.918 115.221C177.512 115.757 172.888 117.188 168.64 118.403C161.388 120.476 155.575 122.415 151.254 124.202C148.321 125.415 142.67 128.124 142.801 128.255C142.866 128.319 143.953 128.085 145.217 127.735C149.488 126.549 157.124 125.206 165.737 124.125C179.009 122.459 182.859 121.595 186.49 119.467C188.636 118.209 190.778 116.113 192.35 113.731C193.675 111.723 195.2 108.128 194.98 107.531C194.918 107.365 193.817 107.86 192.532 108.632ZM131.817 109.821C134.198 110.438 135.572 111.192 135.452 111.815C135.186 113.197 130.798 114.316 125.615 114.324C120.505 114.332 115.896 113.094 115.896 111.714C115.896 110.885 118.853 109.786 122.594 109.225C124.384 108.956 129.84 109.309 131.817 109.821ZM59.1978 125.048C59.1978 125.717 61.5121 128.827 63.2305 130.468C67.6034 134.644 72.9592 135.581 85.8334 134.424C88.5748 134.178 95.3038 133.609 100.787 133.16C110.378 132.375 111.769 132.218 111.5 131.949C111.227 131.675 96.8066 130.184 88.6371 129.586C75.8025 128.645 70.2358 127.798 62.3663 125.589C60.3504 125.023 59.1978 124.827 59.1978 125.048ZM187.703 125.615C179.87 127.808 174.337 128.647 161.535 129.586C153.262 130.192 138.944 131.676 138.664 131.956C138.592 132.028 138.592 132.129 138.663 132.181C138.735 132.233 143.489 132.664 149.229 133.139C154.969 133.614 161.838 134.198 164.494 134.437C177.218 135.581 182.583 134.63 186.957 130.454C188.742 128.749 191.126 125.479 190.928 125.006C190.868 124.861 189.416 125.135 187.703 125.615ZM104.837 136.593C101.067 137.156 95.6699 137.98 92.8428 138.427C87.1431 139.327 80.8789 139.873 76.2467 139.874L73.2022 139.875L73.7231 140.67C74.5271 141.897 77.5187 143.888 79.434 144.47C81.815 145.194 87.5658 145.162 90.5063 144.408C91.7057 144.1 95.9113 142.589 99.8521 141.049C103.793 139.509 108.554 137.697 110.433 137.023C112.311 136.348 113.912 135.732 113.989 135.655C114.322 135.322 111.244 135.638 104.837 136.593ZM136.182 135.655C136.26 135.732 137.861 136.348 139.739 137.023C141.618 137.697 146.379 139.509 150.32 141.049C154.26 142.589 158.396 144.07 159.51 144.341C166.28 145.989 172.085 144.962 175.621 141.493L177.111 140.031L171.659 139.817C165.338 139.569 161.735 139.199 155.46 138.153C145.484 136.491 135.758 135.23 136.182 135.655ZM112.002 140.002C109.774 141.084 105.872 143.172 103.33 144.641C98.5406 147.409 94.8939 148.929 91.1577 149.715C89.9621 149.966 88.9194 150.237 88.8406 150.315C88.7618 150.394 89.2446 150.706 89.9132 151.008C90.8166 151.416 91.9306 151.556 94.2446 151.554C97.0618 151.551 97.5238 151.465 99.0733 150.659C101.21 149.548 105.239 146.776 111.409 142.174C118.023 137.24 118.074 137.051 112.002 140.002ZM134.793 139.19C135.622 139.842 138.404 141.919 140.974 143.807C150.342 150.689 151.733 151.448 155.346 151.648C157.797 151.783 160.778 151.187 161.219 150.474C161.306 150.333 160.291 149.977 158.964 149.683C154.928 148.788 151.683 147.439 146.842 144.641C142.287 142.008 134.321 138.006 133.636 138.006C133.444 138.006 133.964 138.539 134.793 139.19ZM115.339 143.692C112.514 146.976 109.287 150.112 106.005 152.763C104.762 153.766 103.746 154.711 103.746 154.863C103.746 155.238 105.819 155.21 107.241 154.814C108.845 154.369 109.98 153.328 111.548 150.863C112.287 149.703 114.055 146.966 115.477 144.781C116.9 142.597 118.008 140.809 117.941 140.809C117.874 140.809 116.703 142.107 115.339 143.692ZM134.68 144.704C136.111 146.931 137.885 149.703 138.623 150.863C140.192 153.328 141.326 154.369 142.931 154.814C144.331 155.203 146.426 155.241 146.426 154.877C146.426 154.732 145.059 153.483 143.388 152.101C140.412 149.639 137.466 146.72 133.877 142.679L132.079 140.654L134.68 144.704ZM75.5848 162.275C76.4415 163.725 80.6259 168.272 83.4969 170.873C108.048 193.11 145.341 192.165 168.985 168.705C171.387 166.323 175.086 161.996 175.086 161.569C175.086 161.46 173.677 161.37 171.956 161.37H168.825L166.144 164.188C151.547 179.527 129.544 185.422 109.042 179.486C100.15 176.912 92.1287 172.128 85.0655 165.187L81.1823 161.37H78.1162H75.0505L75.5848 162.275Z" fill="white"/>
</svg>
