<svg width="250" height="250" viewBox="0 0 250 250" fill="none" xmlns="http://www.w3.org/2000/svg">
<mask id="path-1-inside-1_453_164" fill="white">
<path d="M0 125C0 55.9644 55.9644 0 125 0C194.036 0 250 55.9644 250 125C250 194.036 194.036 250 125 250C55.9644 250 0 194.036 0 125Z"/>
</mask>
<path d="M0 125C0 55.9644 55.9644 0 125 0C194.036 0 250 55.9644 250 125C250 194.036 194.036 250 125 250C55.9644 250 0 194.036 0 125Z" fill="white"/>
<path d="M0 125M250 125M250 125M0 125M125 0M250 125M125 250M0 125M125 250V248C57.069 248 2 192.931 2 125H0H-2C-2 195.14 54.8598 252 125 252V250ZM250 125H248C248 192.931 192.931 248 125 248V250V252C195.14 252 252 195.14 252 125H250ZM125 0V2C192.931 2 248 57.069 248 125H250H252C252 54.8598 195.14 -2 125 -2V0ZM125 0V-2C54.8598 -2 -2 54.8598 -2 125H0H2C2 57.069 57.069 2 125 2V0Z" fill="#DDDBDB" mask="url(#path-1-inside-1_453_164)"/>
<path d="M60.002 106.363C70.7389 117.56 81.4758 128.745 92.7974 140.539C93.8674 132.962 94.8627 126.941 95.4475 120.882C95.5719 119.625 94.4024 117.945 93.3697 116.95C88.9282 112.67 84.2129 108.677 79.7838 104.384C73.6875 98.4872 72.9534 89.0068 77.9424 83.3211C82.8319 77.7598 92.3495 77.6852 99.1674 83.4331C108.909 91.6693 118.551 100.017 128.143 108.428C133.978 113.554 135.023 120.11 131.49 127.314C127.807 134.841 128.243 139.569 132.796 141.721C137.649 143.998 142.6 141.198 146.295 134.057C153.001 121.118 150.04 105.143 138.631 94.9165C127.011 84.5155 115.117 74.438 102.95 63.8752C132.025 63.8752 160.802 63.8752 190.014 63.8752C190.014 89.4298 190.014 114.984 190.014 140.303C179.34 130.449 168.727 120.633 158.289 111.003C157.493 117.286 156.572 123.171 156.112 129.081C156 130.549 156.995 132.502 158.102 133.597C162.494 137.926 167.247 141.895 171.676 146.187C177.909 152.234 178.568 161.353 173.38 167.151C168.354 172.75 159.483 173.086 152.74 167.462C142.638 159.027 132.697 150.38 122.818 141.671C117.755 137.205 116.623 130.536 119.434 124.315C120.106 122.823 121.014 121.429 121.612 119.924C123.266 115.756 123.304 111.725 119.024 109.1C114.682 106.45 111.148 108.453 108.187 111.837C98.4707 122.947 99.7397 143.301 111.46 154.274C121.811 163.966 132.796 172.999 143.496 182.317C144.554 183.238 145.599 184.159 147.851 186.124C117.63 186.124 88.8286 186.124 60.0144 186.124C60.002 159.537 60.002 132.95 60.002 106.363Z" fill="#091336"/>
<path d="M60.002 63.8752C65.9365 63.8752 71.4107 63.8752 76.1384 63.8752C70.826 69.5983 65.302 75.5453 60.002 81.2683C60.002 76.2171 60.002 70.295 60.002 63.8752Z" fill="#B4CE53"/>
<path d="M190.002 186.124C184.067 186.124 178.593 186.124 173.865 186.124C179.165 180.401 184.689 174.454 190.002 168.731C190.002 173.782 190.002 179.692 190.002 186.124Z" fill="#B4CE53"/>
</svg>
