<svg width="250" height="250" viewBox="0 0 250 250" fill="none" xmlns="http://www.w3.org/2000/svg">
<mask id="path-1-inside-1_453_163" fill="white">
<path d="M0 125C0 55.9644 55.9644 0 125 0C194.036 0 250 55.9644 250 125C250 194.036 194.036 250 125 250C55.9644 250 0 194.036 0 125Z"/>
</mask>
<path d="M0 125C0 55.9644 55.9644 0 125 0C194.036 0 250 55.9644 250 125C250 194.036 194.036 250 125 250C55.9644 250 0 194.036 0 125Z" fill="white"/>
<path d="M0 125M250 125M250 125M0 125M125 0M250 125M125 250M0 125M125 250V248C57.069 248 2 192.931 2 125H0H-2C-2 195.14 54.8598 252 125 252V250ZM250 125H248C248 192.931 192.931 248 125 248V250V252C195.14 252 252 195.14 252 125H250ZM125 0V2C192.931 2 248 57.069 248 125H250H252C252 54.8598 195.14 -2 125 -2V0ZM125 0V-2C54.8598 -2 -2 54.8598 -2 125H0H2C2 57.069 57.069 2 125 2V0Z" fill="#DDDBDB" mask="url(#path-1-inside-1_453_163)"/>
<path d="M176.847 170.577H195.008L174.006 135.572L141.741 113.657L176.847 170.577Z" fill="#282A67"/>
<path d="M141.842 113.758L124.798 137.304L147.431 170.576H176.855L141.842 113.758Z" fill="#2856A6"/>
<path d="M124.795 137.297L124.918 170.581H147.443L124.795 137.297Z" fill="#498FCC"/>
<path d="M124.918 170.578H102.577L124.797 137.297L124.918 170.578Z" fill="#60CBF4"/>
<path d="M76.0512 135.389L55.0078 170.578H72.3407L107.638 113.809L76.0512 135.389Z" fill="#282A67"/>
<path d="M102.567 170.579H72.3319L107.64 113.807L124.797 137.297L102.567 170.579Z" fill="#2856A6"/>
<path d="M125.006 53.4362L169.662 128.597L141.487 109.068L125.006 53.4362Z" fill="#7FD1F5"/>
<path d="M141.484 109.065L125.099 131.043L125 53.4194L141.484 109.065Z" fill="#DCF1FD"/>
<path d="M124.994 53.4299L80.1401 128.991L108.069 109.464L124.994 53.4299Z" fill="#7FD1F5"/>
<path d="M108.07 109.462L125.097 131.042L124.998 53.424L108.07 109.462Z" fill="#BAE5FB"/>
</svg>
