<svg width="250" height="250" viewBox="0 0 250 250" fill="none" xmlns="http://www.w3.org/2000/svg">
<path d="M0 125C0 55.9644 55.9644 0 125 0C194.036 0 250 55.9644 250 125C250 194.036 194.036 250 125 250C55.9644 250 0 194.036 0 125Z" fill="#2E3192"/>
<path fill-rule="evenodd" clip-rule="evenodd" d="M91.6132 56.8744C114.211 56.8654 136.814 56.8254 159.412 56.888C176.56 56.9372 191.108 69.019 194.37 85.8489C194.791 88.0281 194.956 90.2929 194.961 92.5169C195.001 114.224 195.018 135.937 194.974 157.644C194.938 177.056 179.361 192.844 159.935 193.076C148.225 193.215 136.514 193.103 124.803 193.103V193.116C113.688 193.116 102.576 193.134 91.461 193.112C70.407 193.067 55.0046 177.642 55 156.606C55 135.565 55.0001 114.528 55.0046 93.4876C55.0047 72.3619 70.4741 56.8834 91.6132 56.8744ZM81.0087 84.2466V165.989C90.3297 165.657 99.5612 166.723 108.69 164.575C116.226 162.798 123.108 159.639 129.019 154.694C141.016 144.661 147.326 131.443 149.827 116.224C150.1 114.573 150.177 112.89 150.333 111.36H135.365C137.602 135.291 114.136 151.678 96.6352 151.15V84.2466H81.0087ZM168.984 84.2912C147.178 83.2978 130.429 84.1035 114.995 101.399C105.58 111.951 100.702 124.69 99.673 138.692H114.695C112.418 114.698 136.443 98.5211 153.497 98.9507V165.756C158.723 165.756 163.883 165.756 168.984 165.761V84.2912Z" fill="white"/>
</svg>
