<svg width="250" height="250" viewBox="0 0 250 250" fill="none" xmlns="http://www.w3.org/2000/svg">
<path d="M0 125C0 55.9644 55.9644 0 125 0C194.036 0 250 55.9644 250 125C250 194.036 194.036 250 125 250C55.9644 250 0 194.036 0 125Z" fill="#2E3192"/>
<path fill-rule="evenodd" clip-rule="evenodd" d="M91.6132 56.8746C114.211 56.8656 136.814 56.8256 159.412 56.8883C176.56 56.9375 191.108 69.0193 194.37 85.8491C194.791 88.0284 194.956 90.2931 194.961 92.5172C195.001 114.225 195.018 135.937 194.974 157.645C194.938 177.056 179.361 192.844 159.935 193.077C148.225 193.215 136.514 193.103 124.803 193.103V193.117C113.688 193.117 102.576 193.135 91.461 193.112C70.407 193.067 55.0046 177.643 55 156.606C55 135.566 55.0001 114.529 55.0046 93.4878C55.0047 72.3622 70.4741 56.8836 91.6132 56.8746ZM81.0087 84.2468V165.989C90.3297 165.658 99.5612 166.723 108.69 164.575C116.226 162.799 123.108 159.639 129.019 154.694C141.016 144.662 147.326 131.443 149.827 116.224C150.1 114.573 150.177 112.891 150.333 111.36H135.365C137.602 135.292 114.136 151.678 96.6352 151.151V84.2468H81.0087ZM168.984 84.2915C147.178 83.2981 130.429 84.1038 114.995 101.399C105.58 111.951 100.702 124.69 99.673 138.692H114.695C112.418 114.698 136.443 98.5214 153.497 98.951V165.756C158.723 165.756 163.883 165.756 168.984 165.761V84.2915Z" fill="white"/>
</svg>
