<svg width="250" height="250" viewBox="0 0 250 250" fill="none" xmlns="http://www.w3.org/2000/svg">
<path d="M0 125C0 55.9644 55.9644 0 125 0C194.036 0 250 55.9644 250 125C250 194.036 194.036 250 125 250C55.9644 250 0 194.036 0 125Z" fill="#002F63"/>
<path fill-rule="evenodd" clip-rule="evenodd" d="M160.084 79.4204C162.69 84.7533 168.086 93.4171 171.216 98.8452L195 140.114C191.363 147.23 186.587 154.542 182.71 161.603C181.288 164.192 178.816 167.985 177.725 170.61L142.484 170.583C141.111 167.83 138.576 163.768 136.968 160.974L124.979 140.34C121.511 146.514 117.76 152.782 114.202 158.931C112.427 162.05 108.858 167.744 107.544 170.647C96.0452 170.402 83.862 170.58 72.3174 170.585C71.7227 169.272 71.042 168.181 70.3532 166.932C65.437 158.017 59.6465 149.194 55.0005 140.17C57.5083 135.179 61.7927 128.287 64.6839 123.3L81.3039 94.434C83.4555 90.7131 88.2632 82.9797 89.8916 79.4604L101.012 98.627C103.109 102.246 105.42 106.014 107.411 109.665C110.295 105.421 113.89 98.7247 116.547 94.144C118.988 89.9353 122.922 83.5746 125.005 79.3525L160.084 79.4204ZM142.379 110.226C138.702 116.473 135.065 122.745 131.472 129.04C129.463 132.539 127.176 136.773 124.965 140.067C130.925 140.015 136.884 140.005 142.844 140.038L159.911 140.03C158.286 137.224 143.134 110.58 142.379 110.226ZM107.284 110.194C101.965 120.029 95.6669 130.208 90.1 140.033L107.705 140.052C113.374 140.041 119.229 140.106 124.882 140.014C123.23 137.163 108.063 110.535 107.284 110.194Z" fill="#FEFEFE"/>
</svg>
