<svg width="250" height="250" viewBox="0 0 250 250" fill="none" xmlns="http://www.w3.org/2000/svg">
<path d="M0 125C0 55.9644 55.9644 0 125 0C194.036 0 250 55.9644 250 125C250 194.036 194.036 250 125 250C55.9644 250 0 194.036 0 125Z" fill="white"/>
<path fill-rule="evenodd" clip-rule="evenodd" d="M167.418 81.461C178.683 81.2311 188.003 90.1744 188.24 101.441C188.477 112.707 179.541 122.034 168.276 122.278C157.003 122.522 147.667 113.575 147.43 102.299C147.193 91.0226 156.144 81.6912 167.418 81.461ZM177.544 100.97C177.047 95.6394 172.329 91.7184 166.998 92.2038C161.649 92.6909 157.712 97.4294 158.212 102.778C158.712 108.127 163.46 112.053 168.806 111.539C174.134 111.028 178.043 106.3 177.544 100.97Z" fill="#8C2C27"/>
<path fill-rule="evenodd" clip-rule="evenodd" d="M81.5676 81.4612C92.8576 81.2671 102.16 90.2787 102.326 101.571C102.492 112.863 93.4583 122.145 82.1675 122.282C70.9163 122.42 61.6764 113.423 61.511 102.171C61.3457 90.9184 70.3173 81.6547 81.5676 81.4612ZM91.6345 100.974C91.14 95.6387 86.4177 91.7121 81.0824 92.2004C75.7384 92.6895 71.8044 97.4223 72.2997 102.767C72.7949 108.111 77.5314 112.04 82.8743 111.538C88.2085 111.038 92.1289 106.31 91.6345 100.974Z" fill="#8C2C27"/>
<path fill-rule="evenodd" clip-rule="evenodd" d="M122.865 154.301C134.076 153.201 144.057 161.397 145.16 172.611C146.262 183.824 138.069 193.807 126.858 194.912C115.644 196.017 105.659 187.82 104.556 176.604C103.453 165.389 111.651 155.403 122.865 154.301ZM124.711 164.836C119.331 164.917 115.043 169.357 115.148 174.737C115.253 180.118 119.711 184.387 125.09 184.258C130.435 184.13 134.672 179.704 134.567 174.358C134.463 169.012 130.057 164.755 124.711 164.836Z" fill="#8C2C27"/>
<path fill-rule="evenodd" clip-rule="evenodd" d="M123.372 55.0667C134.626 54.2453 144.408 62.7196 145.201 73.9772C145.994 85.235 137.496 94.9972 126.238 95.7616C115.02 96.5233 105.302 88.0613 104.512 76.8438C103.722 65.6263 112.158 55.8853 123.372 55.0667ZM134.447 74.1428C133.743 68.8222 128.842 65.0922 123.527 65.8315C118.262 66.5639 114.575 71.4094 115.272 76.6801C115.97 81.9509 120.79 85.6707 126.064 85.0084C131.388 84.3399 135.15 79.4633 134.447 74.1428Z" fill="#333E56"/>
<path fill-rule="evenodd" clip-rule="evenodd" d="M166.594 128.864C177.831 128.18 187.495 136.735 188.178 147.973C188.862 159.21 180.307 168.875 169.071 169.557C157.837 170.24 148.177 161.685 147.493 150.449C146.81 139.213 155.361 129.55 166.594 128.864ZM177.529 148.138C176.904 142.797 172.061 138.982 166.724 139.624C161.41 140.263 157.616 145.081 158.238 150.398C158.861 155.714 163.667 159.524 168.984 158.917C174.325 158.309 178.155 153.477 177.529 148.138Z" fill="#333E56"/>
<path fill-rule="evenodd" clip-rule="evenodd" d="M80.6616 128.869C91.8842 128.176 101.547 136.704 102.255 147.929C102.962 159.152 94.4472 168.827 83.2265 169.55C71.985 170.274 62.2888 161.738 61.5798 150.494C60.8709 139.249 69.4183 129.562 80.6616 128.869ZM91.6158 148.15C90.9969 142.807 86.1547 138.984 80.8149 139.623C75.5028 140.258 71.7048 145.07 72.3205 150.386C72.9362 155.701 77.7336 159.517 83.0502 158.921C88.3946 158.322 92.2346 153.493 91.6158 148.15Z" fill="#333E56"/>
</svg>
