<svg width="250" height="250" viewBox="0 0 250 250" fill="none" xmlns="http://www.w3.org/2000/svg">
<path d="M0 125C0 55.9644 55.9644 0 125 0C194.036 0 250 55.9644 250 125C250 194.036 194.036 250 125 250C55.9644 250 0 194.036 0 125Z" fill="#023840"/>
<path d="M131.514 65.1573C134.552 65.0858 137.726 65.0683 140.761 65.1217C155.384 65.38 170.267 64.7329 184.857 65.1975C184.86 69.5539 185.307 78.6207 184.125 82.4089C182.464 87.7896 178.258 92.0073 172.883 93.6863C169.027 94.8562 164.388 94.5313 160.324 94.5198L140.698 94.4815C136.291 94.472 130.421 94.3037 126.182 94.9793C122.185 95.6112 118.32 96.8993 114.744 98.7915C104.613 104.119 98.9418 112.018 95.6123 122.73C95.0966 123.147 94.5238 123.492 93.9637 123.847C91.9779 125.102 90.091 126.479 88.2107 127.887C76.877 136.899 70.7923 145.481 65.0474 158.679C65.006 153.074 64.9967 147.468 65.0196 141.862C65.0213 136.7 64.8837 131.36 65.3235 126.262C67.6008 99.8759 85.9981 76.7413 111.194 68.5651C118.303 66.2583 124.071 65.4435 131.514 65.1573Z" fill="#139190"/>
<path d="M128.197 117.841C129.436 117.677 132.831 117.743 134.2 117.743L184.935 117.776C184.993 120.217 184.942 122.735 184.979 125.169C185.063 130.856 185.069 135.072 181.58 139.893C179.317 143.03 176.059 145.31 172.336 146.362C168.852 147.332 163.566 147.049 159.817 147.038L140.671 147.014C136.175 147.009 130.432 146.805 126.105 147.549C115.397 149.389 107.243 154.868 100.977 163.58C99.7147 165.452 98.6201 167.431 97.7058 169.496C95.9741 173.451 95.3024 176.905 92.0113 180.034C86.521 185.254 81.6591 184.974 74.7989 184.973L65.0247 184.961C65.0338 168.923 70.7654 153.416 81.1884 141.228C93.3778 127.041 109.664 119.254 128.197 117.841Z" fill="#FE934B"/>
</svg>
