<svg width="250" height="250" viewBox="0 0 250 250" fill="none" xmlns="http://www.w3.org/2000/svg">
<path d="M0 125C0 55.9644 55.9644 0 125 0V0C194.036 0 250 55.9644 250 125V125C250 194.036 194.036 250 125 250V250C55.9644 250 0 194.036 0 125V125Z" fill="#023840"/>
<path d="M131.514 65.1571C134.551 65.0856 137.726 65.068 140.76 65.1215C155.384 65.3797 170.267 64.7327 184.856 65.1972C184.86 69.5537 185.307 78.6205 184.125 82.4087C182.463 87.7894 178.258 92.0071 172.883 93.6861C169.027 94.856 164.387 94.531 160.324 94.5196L140.698 94.4812C136.291 94.4718 130.42 94.3035 126.181 94.9791C122.185 95.611 118.32 96.8991 114.743 98.7913C104.613 104.119 98.9413 112.017 95.6118 122.73C95.0961 123.147 94.5233 123.492 93.9632 123.846C91.9774 125.102 90.0905 126.479 88.2102 127.887C76.8765 136.898 70.7918 145.481 65.0469 158.679C65.0055 153.073 64.9962 147.467 65.0191 141.861C65.0208 136.7 64.8832 131.36 65.323 126.262C67.6003 99.8757 85.9976 76.7411 111.194 68.5649C118.303 66.2581 124.071 65.4432 131.514 65.1571Z" fill="#139190"/>
<path d="M128.197 117.84C129.435 117.677 132.83 117.742 134.2 117.743L184.934 117.776C184.992 120.216 184.942 122.735 184.979 125.169C185.063 130.856 185.069 135.072 181.579 139.893C179.316 143.03 176.059 145.31 172.336 146.362C168.851 147.331 163.566 147.049 159.817 147.038L140.67 147.014C136.174 147.009 130.431 146.805 126.105 147.548C115.397 149.388 107.243 154.868 100.977 163.58C99.7142 165.452 98.6196 167.431 97.7054 169.496C95.9736 173.451 95.3019 176.905 92.0108 180.034C86.5205 185.254 81.6586 184.974 74.7984 184.973L65.0242 184.96C65.0333 168.923 70.765 153.415 81.1879 141.228C93.3773 127.041 109.664 119.253 128.197 117.84Z" fill="#FE934B"/>
</svg>
