<svg width="250" height="250" viewBox="0 0 250 250" fill="none" xmlns="http://www.w3.org/2000/svg">
<mask id="path-1-inside-1_453_142" fill="white">
<path d="M0 125C0 55.9644 55.9644 0 125 0C194.036 0 250 55.9644 250 125C250 194.036 194.036 250 125 250C55.9644 250 0 194.036 0 125Z"/>
</mask>
<path d="M0 125C0 55.9644 55.9644 0 125 0C194.036 0 250 55.9644 250 125C250 194.036 194.036 250 125 250C55.9644 250 0 194.036 0 125Z" fill="white"/>
<path d="M0 125M250 125M250 125M0 125M125 0M250 125M125 250M0 125M125 250V248C57.069 248 2 192.931 2 125H0H-2C-2 195.14 54.8598 252 125 252V250ZM250 125H248C248 192.931 192.931 248 125 248V250V252C195.14 252 252 195.14 252 125H250ZM125 0V2C192.931 2 248 57.069 248 125H250H252C252 54.8598 195.14 -2 125 -2V0ZM125 0V-2C54.8598 -2 -2 54.8598 -2 125H0H2C2 57.069 57.069 2 125 2V0Z" fill="#DDDBDB" mask="url(#path-1-inside-1_453_142)"/>
<path d="M124.768 55.321C125.461 56.5364 126.621 57.9694 127.455 59.1417L168.866 117.252L172.452 122.253C172.906 122.894 173.993 124.542 174.494 125.048V125.471C174.213 125.749 173.137 127.323 172.871 127.701L169.869 131.902L159.954 145.839L124.659 195.321C124.164 194.707 123.719 194.024 123.256 193.382C121.336 190.718 119.452 188.029 117.539 185.36L78.1644 130.135C77.4631 129.163 75.1467 126.144 74.8262 125.21C75.0257 124.762 75.5942 124.008 75.9006 123.569C76.8462 122.214 77.827 120.878 78.7892 119.532L120.034 61.665C121.539 59.5549 123.103 57.4566 124.561 55.321H124.768Z" fill="#CFCFCE"/>
<path d="M131.896 115.131C132.128 115.125 132.778 115.094 132.977 115.115C132.973 116.01 132.957 116.925 133.001 117.817L134.955 117.77C134.983 121.487 134.991 125.203 134.978 128.92C134.976 130.234 134.927 131.695 134.951 132.986C134.474 132.982 133.571 132.995 133.128 132.94L132.99 133.021C132.956 133.545 132.886 135.079 133.093 135.512C133.177 135.533 133.286 135.565 133.368 135.58C133.213 135.649 131.716 135.628 131.45 135.552C129.352 135.561 127.171 135.594 125.079 135.516C125.068 134.648 125.081 133.782 125.118 132.915C125.787 132.95 126.457 132.973 127.127 132.981C127.152 130.488 127.16 127.994 127.15 125.5C127.146 123.977 127.16 121.819 127.031 120.309C126.599 121.161 126.355 122.033 126.006 122.905C124.634 126.333 123.643 130.399 122.091 133.704C121.477 133.737 120.862 133.751 120.247 133.745C120.035 133.015 119.715 132.288 119.445 131.57C119.085 130.59 118.732 129.606 118.387 128.62C117.692 126.644 117.063 124.702 116.29 122.75C115.944 121.877 115.698 121.024 115.312 120.139C115.196 121.55 115.219 123.202 115.223 124.625L115.251 130.513C115.257 131.258 115.307 132.263 115.279 132.984L117.315 132.953L117.308 135.569C115.959 135.55 114.586 135.566 113.233 135.555C112.477 135.548 111.004 135.507 110.278 135.593C109.982 135.63 109.687 135.694 109.403 135.61C109.384 134.771 109.483 133.912 109.423 133.061C109.237 132.942 109.096 132.977 108.846 132.964C108.555 133.004 107.751 132.983 107.421 132.983L107.388 117.793C108.044 117.83 108.748 117.795 109.44 117.831C109.38 116.958 109.405 116.043 109.414 115.165C109.776 115.185 109.995 115.1 110.247 115.12C112.044 115.179 115.15 114.984 116.813 115.183C117.307 116.361 117.776 117.883 118.162 119.116C119.12 122.172 120.397 125.25 121.337 128.295C122.895 124.425 124.125 120.245 125.559 116.314C125.698 115.934 125.846 115.484 125.958 115.095C127.019 115.182 128.39 115.135 129.476 115.144C130.047 115.149 131.37 115.179 131.896 115.131Z" fill="#CD9933"/>
<path d="M133 117.817L134.954 117.77C134.982 121.487 134.99 125.203 134.977 128.92C134.976 130.234 134.926 131.695 134.951 132.986C134.474 132.982 133.57 132.995 133.128 132.94C132.938 132.827 132.413 132.933 132.197 132.984C131.473 132.963 130.799 132.941 130.075 132.967C130.107 132.419 130.071 131.666 130.068 131.091L130.066 127.314C130.066 124.193 130.127 120.889 130.062 117.786C130.635 117.982 132.39 117.903 133 117.817Z" fill="#CFCFCE"/>
<path d="M107.388 117.792C108.044 117.83 108.748 117.795 109.44 117.831C109.729 117.937 109.969 117.882 110.266 117.81C110.925 117.799 111.585 117.794 112.245 117.794C112.285 122.86 112.28 127.926 112.231 132.992L110.995 132.962C110.642 132.846 109.223 132.867 108.846 132.963C108.555 133.004 107.751 132.983 107.421 132.983L107.388 117.792Z" fill="#CFCFCE"/>
<path d="M108.846 132.964C109.223 132.867 110.642 132.846 110.995 132.962C110.754 132.961 110.5 132.925 110.314 133.052C110.236 133.5 110.28 135.041 110.277 135.593C109.982 135.63 109.686 135.694 109.403 135.61C109.384 134.771 109.482 133.912 109.423 133.061C109.237 132.941 109.095 132.977 108.846 132.964Z" fill="#D4CDBC"/>
<path d="M131.896 115.131C132.128 115.125 132.778 115.094 132.976 115.115C132.972 116.01 132.957 116.924 133 117.817C132.39 117.903 130.635 117.982 130.062 117.786C130.343 117.748 131.827 117.793 132.196 117.798C132.154 117.029 132.297 116.028 132.167 115.289C132.15 115.193 132.02 115.177 131.896 115.131Z" fill="#D4CDBC"/>
<path d="M109.414 115.165C109.777 115.185 109.996 115.1 110.247 115.12C110.25 115.747 110.214 117.255 110.266 117.81C109.969 117.882 109.729 117.937 109.441 117.831C109.38 116.958 109.406 116.043 109.414 115.165Z" fill="#D4CDBC"/>
<path d="M132.197 132.984C132.413 132.933 132.938 132.827 133.128 132.94L132.99 133.021C132.956 133.544 132.886 135.078 133.093 135.512C133.177 135.533 133.286 135.565 133.368 135.579C133.213 135.649 131.716 135.628 131.45 135.552C131.74 135.554 131.855 135.553 132.148 135.508C132.21 135.378 132.194 133.318 132.197 132.984Z" fill="#D4CDBC"/>
<path d="M132.976 115.115C134.917 115.198 137.255 115.127 139.221 115.118L149.185 115.113C151.84 115.113 154.477 114.992 157.098 115.446C159.808 115.914 161.348 117.861 161.184 120.606C161.066 122.587 160.238 123.54 158.652 124.611C160.273 125.606 161.347 126.269 161.834 128.283C162.202 129.873 161.931 131.544 161.082 132.937C159.008 136.297 154.613 135.425 151.276 135.555C150.088 135.601 148.867 135.514 147.674 135.57C147.675 134.703 147.681 133.836 147.693 132.968C148.426 132.945 149.026 132.945 149.759 132.972L149.726 124.668C149.716 122.521 149.67 119.987 149.74 117.848L148.098 117.751L148.071 121.254C147.117 121.221 146.188 121.244 145.236 121.236C145.189 120.084 145.189 118.929 145.237 117.777C143.114 117.832 140.22 117.857 138.1 117.773L138.113 123.429C140.25 123.451 142.387 123.451 144.524 123.429C144.521 124.403 144.51 125.378 144.491 126.352C142.582 126.262 140.023 126.307 138.101 126.353C138.13 128.403 138.174 130.967 138.103 132.996L140.723 132.953L140.748 135.541C139.157 135.558 137.566 135.561 135.975 135.55C135.37 135.548 133.91 135.508 133.368 135.579C133.286 135.565 133.177 135.533 133.093 135.512C132.885 135.078 132.956 133.544 132.989 133.021L133.128 132.94C133.57 132.995 134.474 132.982 134.951 132.986C134.926 131.695 134.976 130.234 134.977 128.92C134.99 125.203 134.982 121.486 134.954 117.77L133 117.817C132.957 116.924 132.972 116.01 132.976 115.115Z" fill="#CD9933"/>
<path d="M152.847 126.058C155.726 126.081 159.309 126.023 158.722 130.304C158.629 130.978 158.261 131.495 157.779 131.961C156.437 133 154.519 132.966 152.88 132.982C152.853 130.674 152.842 128.366 152.847 126.058Z" fill="#CFCFCE"/>
<path d="M152.856 117.762C155.075 117.765 158.06 117.597 158.118 120.714C158.135 121.597 157.737 122.154 157.133 122.758C156.007 123.714 154.333 123.565 152.876 123.6C152.85 121.661 152.86 119.703 152.856 117.762Z" fill="#CFCFCE"/>
<path d="M103.278 115.066C105.126 115.183 107.502 115.118 109.414 115.165C109.405 116.043 109.38 116.958 109.44 117.831C108.748 117.795 108.044 117.83 107.388 117.792L107.421 132.983C107.751 132.983 108.555 133.004 108.846 132.963C109.096 132.976 109.237 132.941 109.423 133.061C109.483 133.912 109.384 134.771 109.403 135.61C108.746 135.515 107.544 135.546 106.836 135.546L102.406 135.55L102.334 132.972C103.044 132.959 103.754 132.954 104.464 132.955C104.395 132.034 104.459 130.689 104.443 129.724C104.391 126.558 104.576 123.23 104.351 120.085C103.713 121.456 102.87 124.025 102.349 125.507C101.388 128.248 100.404 130.982 99.3993 133.708C98.8318 133.742 97.6461 133.97 97.3836 133.367C96.9251 132.313 96.5432 131.21 96.1689 130.123C95.4906 128.165 94.7971 126.212 94.0885 124.265C93.6663 123.082 93.0978 121.301 92.5115 120.24C92.4498 121.495 92.5271 123.507 92.5307 124.833C92.5191 127.548 92.523 130.263 92.5425 132.977C93.2267 132.963 93.9332 132.977 94.6194 132.983C94.6061 133.834 94.6146 134.703 94.6137 135.555C92.5226 135.47 89.5584 135.527 87.4385 135.539C87.4514 134.673 87.4541 133.808 87.4464 132.942C88.0835 132.98 88.89 132.961 89.54 132.963C89.5658 127.921 89.5593 122.88 89.5205 117.838L87.4405 117.769L87.4642 115.127C89.4425 115.113 91.9589 115.044 93.9038 115.148C94.5304 116.129 95.1249 118.384 95.5521 119.564C96.5963 122.447 97.5248 125.471 98.584 128.337C99.3562 126.322 99.9766 124.217 100.738 122.197C101.62 119.858 102.3 117.357 103.278 115.066Z" fill="#CD9933"/>
</svg>
