<svg width="250" height="250" viewBox="0 0 250 250" fill="none" xmlns="http://www.w3.org/2000/svg">
<path d="M0 125C0 55.9644 55.9644 0 125 0C194.036 0 250 55.9644 250 125C250 194.036 194.036 250 125 250C55.9644 250 0 194.036 0 125Z" fill="white"/>
<path d="M124.768 55.3213C125.461 56.5367 126.621 57.9696 127.455 59.1419L168.866 117.252L172.451 122.253C172.905 122.895 173.992 124.542 174.493 125.049V125.472C174.212 125.749 173.137 127.323 172.871 127.701L169.868 131.903L159.954 145.839L124.658 195.321C124.163 194.707 123.718 194.024 123.255 193.382C121.335 190.719 119.452 188.029 117.539 185.361L78.1639 130.135C77.4626 129.163 75.1463 126.144 74.8257 125.211C75.0252 124.762 75.5938 124.008 75.9001 123.569C76.8457 122.214 77.8265 120.878 78.7887 119.533L120.033 61.6653C121.538 59.5552 123.102 57.4569 124.561 55.3213H124.768Z" fill="#CFCFCE"/>
<path d="M131.896 115.131C132.128 115.125 132.778 115.094 132.976 115.115C132.972 116.01 132.957 116.925 133 117.817L134.954 117.77C134.982 121.487 134.99 125.203 134.977 128.92C134.976 130.234 134.926 131.695 134.951 132.986C134.474 132.982 133.57 132.995 133.128 132.94L132.989 133.021C132.956 133.545 132.885 135.079 133.093 135.512C133.177 135.533 133.286 135.565 133.368 135.58C133.213 135.649 131.715 135.628 131.45 135.552C129.351 135.561 127.171 135.594 125.079 135.516C125.067 134.648 125.08 133.782 125.117 132.915C125.787 132.95 126.456 132.973 127.126 132.981C127.151 130.488 127.159 127.994 127.15 125.5C127.146 123.977 127.159 121.819 127.03 120.309C126.598 121.161 126.355 122.033 126.006 122.905C124.634 126.333 123.642 130.399 122.09 133.704C121.476 133.737 120.861 133.751 120.246 133.745C120.035 133.015 119.715 132.288 119.444 131.57C119.084 130.59 118.732 129.606 118.387 128.62C117.691 126.644 117.063 124.702 116.289 122.75C115.944 121.877 115.697 121.024 115.311 120.139C115.195 121.55 115.218 123.202 115.223 124.625L115.251 130.513C115.256 131.258 115.306 132.263 115.278 132.984L117.315 132.953L117.308 135.569C115.959 135.55 114.586 135.566 113.233 135.555C112.477 135.548 111.004 135.507 110.277 135.593C109.982 135.63 109.686 135.694 109.403 135.61C109.384 134.771 109.482 133.912 109.423 133.061C109.237 132.942 109.095 132.977 108.846 132.964C108.554 133.004 107.75 132.983 107.42 132.983L107.387 117.793C108.044 117.83 108.747 117.795 109.44 117.831C109.379 116.958 109.405 116.043 109.414 115.165C109.776 115.185 109.995 115.1 110.247 115.12C112.043 115.179 115.149 114.984 116.813 115.183C117.306 116.361 117.775 117.883 118.162 119.116C119.119 122.172 120.397 125.25 121.336 128.295C122.894 124.425 124.125 120.245 125.558 116.314C125.697 115.934 125.846 115.484 125.957 115.095C127.019 115.182 128.39 115.135 129.476 115.144C130.046 115.149 131.369 115.179 131.896 115.131Z" fill="#CD9933"/>
<path d="M133 117.818L134.954 117.771C134.982 121.487 134.99 125.204 134.977 128.921C134.976 130.235 134.926 131.696 134.951 132.987C134.474 132.983 133.57 132.996 133.128 132.941C132.938 132.828 132.413 132.934 132.197 132.985C131.473 132.964 130.799 132.942 130.075 132.968C130.107 132.42 130.071 131.667 130.068 131.092L130.066 127.315C130.066 124.194 130.127 120.89 130.062 117.787C130.635 117.982 132.39 117.904 133 117.818Z" fill="#CFCFCE"/>
<path d="M107.387 117.793C108.044 117.831 108.747 117.796 109.44 117.831C109.729 117.937 109.968 117.883 110.265 117.811C110.925 117.799 111.585 117.794 112.244 117.795C112.285 122.861 112.28 127.926 112.23 132.992L110.995 132.963C110.642 132.847 109.223 132.867 108.846 132.964C108.554 133.005 107.75 132.983 107.42 132.983L107.387 117.793Z" fill="#CFCFCE"/>
<path d="M108.846 132.964C109.223 132.868 110.642 132.847 110.995 132.963C110.754 132.962 110.5 132.926 110.315 133.052C110.236 133.501 110.28 135.042 110.278 135.593C109.982 135.631 109.687 135.695 109.403 135.611C109.384 134.772 109.482 133.913 109.423 133.061C109.237 132.942 109.095 132.977 108.846 132.964Z" fill="#D4CDBC"/>
<path d="M131.896 115.131C132.128 115.126 132.778 115.095 132.976 115.116C132.972 116.011 132.957 116.925 133 117.818C132.39 117.904 130.635 117.982 130.062 117.787C130.343 117.749 131.827 117.794 132.196 117.798C132.154 117.03 132.297 116.029 132.167 115.29C132.15 115.193 132.02 115.178 131.896 115.131Z" fill="#D4CDBC"/>
<path d="M109.414 115.165C109.776 115.186 109.995 115.101 110.247 115.12C110.25 115.748 110.214 117.255 110.265 117.81C109.968 117.883 109.729 117.937 109.44 117.831C109.379 116.959 109.405 116.043 109.414 115.165Z" fill="#D4CDBC"/>
<path d="M132.197 132.984C132.413 132.933 132.938 132.827 133.128 132.94L132.989 133.02C132.956 133.544 132.885 135.078 133.093 135.512C133.177 135.533 133.286 135.565 133.368 135.579C133.213 135.649 131.715 135.627 131.45 135.552C131.74 135.554 131.854 135.553 132.147 135.508C132.209 135.377 132.193 133.318 132.197 132.984Z" fill="#D4CDBC"/>
<path d="M132.976 115.115C134.917 115.198 137.255 115.127 139.221 115.118L149.185 115.113C151.84 115.113 154.477 114.993 157.098 115.446C159.808 115.915 161.348 117.861 161.184 120.606C161.066 122.587 160.238 123.54 158.652 124.611C160.273 125.607 161.347 126.269 161.834 128.283C162.202 129.873 161.931 131.544 161.082 132.937C159.008 136.298 154.613 135.425 151.276 135.555C150.088 135.602 148.867 135.514 147.674 135.571C147.675 134.704 147.681 133.836 147.693 132.968C148.426 132.946 149.026 132.945 149.759 132.972L149.726 124.669C149.716 122.521 149.67 119.988 149.74 117.849L148.098 117.751L148.071 121.254C147.117 121.221 146.188 121.245 145.236 121.237C145.189 120.084 145.189 118.93 145.237 117.777C143.114 117.832 140.22 117.857 138.1 117.774L138.113 123.43C140.25 123.452 142.387 123.452 144.524 123.429C144.521 124.403 144.51 125.378 144.491 126.352C142.582 126.262 140.023 126.307 138.101 126.354C138.13 128.403 138.174 130.967 138.103 132.997L140.723 132.953L140.748 135.542C139.157 135.558 137.566 135.561 135.975 135.551C135.37 135.548 133.91 135.508 133.368 135.58C133.286 135.565 133.177 135.533 133.093 135.512C132.885 135.079 132.956 133.545 132.989 133.021L133.128 132.94C133.57 132.995 134.474 132.982 134.951 132.986C134.926 131.695 134.976 130.234 134.977 128.921C134.99 125.203 134.982 121.487 134.954 117.77L133 117.817C132.957 116.925 132.972 116.01 132.976 115.115Z" fill="#CD9933"/>
<path d="M152.846 126.059C155.726 126.081 159.308 126.023 158.722 130.304C158.629 130.978 158.26 131.495 157.779 131.961C156.436 133 154.518 132.966 152.879 132.982C152.853 130.674 152.841 128.366 152.846 126.059Z" fill="#CFCFCE"/>
<path d="M152.856 117.763C155.074 117.765 158.059 117.597 158.118 120.714C158.135 121.597 157.736 122.154 157.133 122.758C156.007 123.714 154.333 123.566 152.875 123.6C152.849 121.661 152.859 119.703 152.856 117.763Z" fill="#CFCFCE"/>
<path d="M103.277 115.066C105.125 115.183 107.501 115.118 109.414 115.165C109.405 116.043 109.379 116.958 109.44 117.831C108.747 117.795 108.044 117.83 107.387 117.793L107.42 132.983C107.75 132.983 108.554 133.004 108.846 132.964C109.095 132.977 109.237 132.942 109.423 133.061C109.482 133.912 109.384 134.771 109.403 135.61C108.745 135.515 107.544 135.546 106.835 135.546L102.406 135.551L102.334 132.972C103.043 132.959 103.753 132.954 104.463 132.955C104.395 132.035 104.458 130.69 104.442 129.725C104.39 126.558 104.576 123.23 104.351 120.086C103.712 121.456 102.87 124.025 102.349 125.507C101.387 128.249 100.404 130.982 99.3988 133.709C98.8313 133.742 97.6456 133.97 97.3831 133.367C96.9246 132.313 96.5427 131.21 96.1684 130.124C95.4901 128.165 94.7966 126.212 94.088 124.265C93.6658 123.082 93.0973 121.302 92.511 120.24C92.4493 121.495 92.5267 123.508 92.5302 124.833C92.5186 127.548 92.5225 130.263 92.542 132.977C93.2262 132.963 93.9327 132.977 94.6189 132.983C94.6056 133.834 94.6141 134.703 94.6132 135.555C92.5221 135.471 89.5579 135.527 87.438 135.539C87.4509 134.673 87.4536 133.808 87.4459 132.942C88.083 132.98 88.8895 132.962 89.5395 132.963C89.5653 127.921 89.5588 122.88 89.52 117.839L87.4401 117.769L87.4637 115.127C89.442 115.113 91.9584 115.044 93.9034 115.149C94.5299 116.129 95.1244 118.385 95.5516 119.564C96.5958 122.448 97.5243 125.471 98.5835 128.338C99.3558 126.323 99.9761 124.217 100.738 122.197C101.62 119.859 102.3 117.357 103.277 115.066Z" fill="#CD9933"/>
</svg>
