<svg width="250" height="250" viewBox="0 0 250 250" fill="none" xmlns="http://www.w3.org/2000/svg">
<mask id="path-1-inside-1_453_139" fill="white">
<path d="M0 125C0 55.9644 55.9644 0 125 0C194.036 0 250 55.9644 250 125C250 194.036 194.036 250 125 250C55.9644 250 0 194.036 0 125Z"/>
</mask>
<path d="M0 125C0 55.9644 55.9644 0 125 0C194.036 0 250 55.9644 250 125C250 194.036 194.036 250 125 250C55.9644 250 0 194.036 0 125Z" fill="white"/>
<path d="M0 125M250 125M250 125M0 125M125 0M250 125M125 250M0 125M125 250V248C57.069 248 2 192.931 2 125H0H-2C-2 195.14 54.8598 252 125 252V250ZM250 125H248C248 192.931 192.931 248 125 248V250V252C195.14 252 252 195.14 252 125H250ZM125 0V2C192.931 2 248 57.069 248 125H250H252C252 54.8598 195.14 -2 125 -2V0ZM125 0V-2C54.8598 -2 -2 54.8598 -2 125H0H2C2 57.069 57.069 2 125 2V0Z" fill="#DDDBDB" mask="url(#path-1-inside-1_453_139)"/>
<path d="M102.306 171.458C102.224 170.371 102.776 169.519 103.341 168.678C105.635 165.27 108.747 162.737 112.168 160.567C120.532 155.262 129.785 152.141 139.286 149.68C151.922 146.401 164.79 144.545 177.791 143.492C186.267 142.805 194.75 142.518 203.25 142.47C203.802 142.467 204.357 142.47 204.84 142.47C205.034 142.891 205.075 143.151 204.83 143.496C198.001 143.845 191.149 144.627 184.32 145.588C168.361 147.834 152.719 151.194 138.118 158.448C133.209 160.885 129.526 164.669 125.713 168.361C124.855 169.191 124.382 170.418 123.732 171.461C116.587 171.458 109.445 171.458 102.306 171.458Z" fill="#EE2B27"/>
<path d="M103.925 161.069C116.806 138.765 129.691 116.457 142.828 93.7121C151.859 109.34 160.689 124.627 169.687 140.201C165.009 140.85 160.785 141.435 156.581 142.016C151.958 134.003 147.662 126.046 142.763 118.136C142.385 118.751 142.13 119.151 141.891 119.565C136.275 129.331 130.654 139.097 125.048 148.873C124.578 149.69 124.016 150.326 123.114 150.681C116.615 153.245 110.362 156.246 105.014 160.868C104.782 161.066 104.459 161.155 104.176 161.295C104.098 161.22 104.01 161.145 103.925 161.069Z" fill="#1A3C64"/>
<path d="M132.028 74.5867C134.874 78.3468 136.532 82.4932 139.143 86.4071C126.36 108.564 113.533 130.8 100.805 152.866C96.0459 152.866 91.7192 152.866 86.7899 152.866C101.959 126.62 116.92 100.726 132.028 74.5867Z" fill="#1B6C99"/>
<path d="M110.334 74.5388C112.72 78.7194 114.895 82.5308 117.152 86.4823C104.38 108.664 91.6105 130.841 78.9572 152.814C74.1573 152.814 69.7863 152.814 65 152.814C80.1588 126.64 95.1373 100.781 110.334 74.5388Z" fill="#4686AE"/>
</svg>
