<svg width="250" height="250" viewBox="0 0 250 250" fill="none" xmlns="http://www.w3.org/2000/svg">
<path d="M0 125C0 55.9644 55.9644 0 125 0V0C194.036 0 250 55.9644 250 125V125C250 194.036 194.036 250 125 250V250C55.9644 250 0 194.036 0 125V125Z" fill="#0047CC"/>
<path d="M167.4 146.245H152.6C152.6 118.899 126.128 118.586 125 118.586C97.7127 118.586 97.3996 145.115 97.3996 146.245H82.6004C82.6004 118.899 56.1276 118.586 55 118.586V103.754C66.3476 103.754 81.3761 108.77 90.1578 121.32C96.6843 111.502 107.821 103.754 125 103.754C136.348 103.754 151.376 108.77 160.158 121.32C166.684 111.504 177.821 103.754 195 103.754V118.586C167.713 118.586 167.4 145.115 167.4 146.245Z" fill="white"/>
</svg>
