<svg width="250" height="250" viewBox="0 0 250 250" fill="none" xmlns="http://www.w3.org/2000/svg">
<mask id="path-1-inside-1_453_136" fill="white">
<path d="M0 125C0 55.9644 55.9644 0 125 0C194.036 0 250 55.9644 250 125C250 194.036 194.036 250 125 250C55.9644 250 0 194.036 0 125Z"/>
</mask>
<path d="M0 125C0 55.9644 55.9644 0 125 0C194.036 0 250 55.9644 250 125C250 194.036 194.036 250 125 250C55.9644 250 0 194.036 0 125Z" fill="white"/>
<path d="M0 125M250 125M250 125M0 125M125 0M250 125M125 250M0 125M125 250V248C57.069 248 2 192.931 2 125H0H-2C-2 195.14 54.8598 252 125 252V250ZM250 125H248C248 192.931 192.931 248 125 248V250V252C195.14 252 252 195.14 252 125H250ZM125 0V2C192.931 2 248 57.069 248 125H250H252C252 54.8598 195.14 -2 125 -2V0ZM125 0V-2C54.8598 -2 -2 54.8598 -2 125H0H2C2 57.069 57.069 2 125 2V0Z" fill="#DDDBDB" mask="url(#path-1-inside-1_453_136)"/>
<path d="M85.6194 61.9382C89.5541 60.322 99.2609 59.6066 103.64 60.6272C109.369 61.9618 115.153 64.482 120.227 67.4846C121.777 68.4021 123.121 69.4926 124.576 70.5345C132.965 63.7143 144.853 59.9585 155.632 61.0531C167.262 62.1534 177.964 67.8738 185.339 76.9324C188.39 80.6775 191.05 85.1703 192.553 89.7797L193.212 92.2539C193.855 94.7097 194.423 97.1334 194.649 99.7292C195.007 103.839 194.918 107.999 194.922 112.129L194.912 130.604C194.914 132.624 195.177 142.489 194.785 143.905L194.77 144.097C194.548 146.094 192.457 148.444 190.483 148.747C188.717 149.017 186.83 148.955 185.043 148.953L177.977 148.939C168.691 148.935 158.771 148.774 149.536 148.971L149.521 163.384C149.522 167.058 149.686 171.409 149.179 174.837C147.627 185.344 139.503 192.582 128.451 195.544C126.933 195.951 122.197 196.073 118.383 195.103C113.307 193.812 109.983 191.761 106.769 188.396C98.5973 179.837 99.5653 172.459 99.5603 161.881L99.5783 145.423L99.1533 145.427L91.958 145.422C88.8753 145.424 85.2999 145.921 82.9485 143.572C81.7539 142.396 81.0941 140.781 81.1225 139.104C81.1597 135.851 84.0384 133.778 86.0866 131.547L107.47 107.815C109.767 105.272 114.388 100.209 114.388 100.209C114.388 100.209 120.621 92.2634 123.83 91.9725C125.485 91.8073 127.137 92.3225 128.404 93.3996C129.771 94.5517 131.442 96.3852 132.717 97.7273C135.742 100.929 138.7 104.193 141.589 107.518C142.35 108.384 145.097 111.409 145.574 112.147C147.095 113.828 148.604 115.519 150.1 117.221C151.445 118.733 153.397 120.609 154.273 122.397C155.473 124.846 154.646 127.798 152.68 129.543C151.46 130.639 149.849 131.193 148.213 131.079C145.534 130.915 144.09 129.207 142.436 127.317C136.663 120.721 130.583 114.338 124.838 107.723L124.516 107.351C122.788 109.453 120.586 111.808 118.743 113.847L108.015 125.75C105.835 128.171 103.416 130.748 101.365 133.246C104.879 133.184 108.457 133.284 111.942 133.199L111.946 166.855C111.947 169.196 111.832 171.6 112.352 173.885C112.884 176.129 114.045 178.174 115.698 179.782C118.082 182.149 121.312 183.468 124.672 183.445C127.934 183.418 131.238 181.967 133.516 179.643C135.181 177.944 136.322 175.802 136.803 173.472C137.325 170.992 137.12 167.704 137.132 165.12C137.174 155.635 137.024 146.129 137.136 136.645C142.122 136.648 182.197 136.801 182.708 136.556C182.79 136.237 182.783 136.173 182.783 135.839L182.763 135.357C182.675 132.902 182.76 129.825 182.76 127.415L182.761 111.206C182.762 100.925 183.062 95.3907 177.056 86.5658L176.766 86.1432C171.966 79.4858 164.712 75.0145 156.608 73.7176C148.36 72.403 139.93 74.4747 133.23 79.463C131.263 80.8997 129.522 82.6587 127.948 84.5114C127.433 85.1178 126.885 85.896 126.386 86.4517C125.785 87.2786 125.06 88.2237 124.589 89.1121C123.794 87.9802 122.938 86.8631 122.13 85.7116L122.052 85.6348C121.826 85.3935 121.323 84.7599 121.19 84.5877C120.318 83.4619 119.419 82.5799 118.375 81.6164C113.13 76.6994 106.155 73.7393 98.9832 73.3229C93.1418 72.9837 89.5703 73.8943 84.2871 76.2406C80.921 77.9402 78.6478 79.3849 75.8556 82.0296C70.4459 87.1538 67.4683 93.7079 66.7822 101.079C66.3863 105.334 66.6537 109.121 66.6083 114.274C66.512 125.209 66.7057 132.944 66.6211 142.275C66.6056 144.599 66.3788 145.645 64.6159 147.396C63.3277 148.675 61.8543 149.037 60.0745 148.992C54.2084 148.844 55.0389 141.882 55.0421 137.927L55.0616 127.729L55.0393 110.831C55.0395 107.903 55.0625 105.028 55.0867 102.068C55.1409 95.4208 57.1957 87.7142 60.3104 81.8344C61.5606 79.4747 65.2275 75.1986 67.5019 72.9746C67.5019 72.9746 67.7658 72.7196 67.9369 72.5582C71.4562 69.2363 73.8736 67.8238 78.1034 65.4723C80.9383 63.8964 83.3982 62.8505 85.6194 61.9382Z" fill="url(#paint0_linear_453_136)"/>
<defs>
<linearGradient id="paint0_linear_453_136" x1="162.014" y1="42.8317" x2="97.2711" y2="124.378" gradientUnits="userSpaceOnUse">
<stop offset="0.152269" stop-color="#6CCDFA"/>
<stop offset="1" stop-color="#013298"/>
</linearGradient>
</defs>
</svg>
