<svg width="250" height="250" viewBox="0 0 250 250" fill="none" xmlns="http://www.w3.org/2000/svg">
<path d="M0 125C0 55.9644 55.9644 0 125 0C194.036 0 250 55.9644 250 125C250 194.036 194.036 250 125 250C55.9644 250 0 194.036 0 125Z" fill="white"/>
<path d="M187 89.5546L124.283 136.433C123.049 137.355 121.357 137.357 120.12 136.439L102.826 123.593C99.948 121.455 96.0394 121.397 93.1061 123.415L92.8258 123.616L63 145.986V68.834H187V89.5546Z" fill="#5CBF14"/>
<path d="M187 181.688H63V158.175L95.7652 133.602C96.9989 132.676 98.6942 132.673 99.9321 133.592L117.221 146.436C120.188 148.64 124.252 148.635 127.212 146.422L187 101.732V181.688Z" fill="#0B8049"/>
</svg>
