<svg width="250" height="250" viewBox="0 0 250 250" fill="none" xmlns="http://www.w3.org/2000/svg">
<mask id="path-1-inside-1_453_444" fill="white">
<path d="M0 125C0 55.9644 55.9644 0 125 0C194.036 0 250 55.9644 250 125C250 194.036 194.036 250 125 250C55.9644 250 0 194.036 0 125Z"/>
</mask>
<path d="M0 125C0 55.9644 55.9644 0 125 0C194.036 0 250 55.9644 250 125C250 194.036 194.036 250 125 250C55.9644 250 0 194.036 0 125Z" fill="white"/>
<path d="M0 125M250 125M250 125M0 125M125 0M250 125M125 250M0 125M125 250V248C57.069 248 2 192.931 2 125H0H-2C-2 195.14 54.8598 252 125 252V250ZM250 125H248C248 192.931 192.931 248 125 248V250V252C195.14 252 252 195.14 252 125H250ZM125 0V2C192.931 2 248 57.069 248 125H250H252C252 54.8598 195.14 -2 125 -2V0ZM125 0V-2C54.8598 -2 -2 54.8598 -2 125H0H2C2 57.069 57.069 2 125 2V0Z" fill="#DDDBDB" mask="url(#path-1-inside-1_453_444)"/>
<path d="M187 89.5549L124.283 136.433C123.049 137.355 121.357 137.358 120.12 136.439L102.826 123.593C99.948 121.455 96.0394 121.397 93.1061 123.415L92.8258 123.616L63 145.986V68.8342H187V89.5549Z" fill="#5CBF14"/>
<path d="M187 181.688H63V158.175L95.7652 133.602C96.9989 132.677 98.6942 132.673 99.9321 133.592L117.221 146.436C120.188 148.64 124.252 148.635 127.212 146.422L187 101.732V181.688Z" fill="#0B8049"/>
</svg>
