<svg width="250" height="250" viewBox="0 0 250 250" fill="none" xmlns="http://www.w3.org/2000/svg">
<path d="M0 125C0 55.9644 55.9644 0 125 0C194.036 0 250 55.9644 250 125C250 194.036 194.036 250 125 250C55.9644 250 0 194.036 0 125Z" fill="#0357EE"/>
<path d="M191.23 133.431L185.747 66.8291H152.675C152.675 66.8291 127.484 118.101 125.257 125.085H124.914L98.3538 66.8291H65.11L59.6266 124.574L54.9998 183.17H75.2202C83.9591 183.17 87.3865 179.422 88.0718 170.225C88.0718 170.225 91.4991 116.568 90.985 108.733H91.328L92.3557 112.309C93.727 117.079 112.576 162.9 112.576 162.9H137.423C137.423 162.9 156.273 117.76 158.672 108.733H159.015L161.928 170.225C162.613 179.422 166.212 183.17 174.78 183.17H195L191.23 133.431Z" fill="white"/>
</svg>
