<svg width="250" height="250" viewBox="0 0 250 250" fill="none" xmlns="http://www.w3.org/2000/svg">
<path d="M0 125C0 55.9644 55.9644 0 125 0C194.036 0 250 55.9644 250 125C250 194.036 194.036 250 125 250C55.9644 250 0 194.036 0 125Z" fill="#2637AA"/>
<path d="M79.1324 77.4033C79.0111 80.1781 80.0421 82.6762 82.0057 84.8028C84.1399 87.1113 86.7858 87.4146 89.4355 85.686C93.2793 83.1766 93.954 76.3381 90.6106 73.1653C89.4165 72.0319 88.249 70.9061 87.4037 69.4808C87.0398 68.8667 86.5394 68.3928 85.7813 68.3056C82.9269 67.9683 81.4523 68.8401 80.3378 71.5694C79.5948 73.3852 79.1475 75.2729 79.1324 77.4033ZM193.244 126.258C193.195 124.245 192.516 122.41 190.89 120.996C189.84 120.083 188.896 119.093 188.123 117.922C186.72 115.796 183.293 115.758 181.732 117.801C178.653 121.83 178.881 128.752 182.224 132.569C184.98 135.719 189.271 135.412 191.576 131.88C192.66 130.208 193.236 128.362 193.244 126.258ZM64.1932 156.064C64.2918 158.994 65.2546 161.451 67.222 163.502C69.3675 165.734 72.1082 166.007 74.6555 164.229C78.4273 161.602 78.9959 154.806 75.6449 151.686C74.485 150.606 73.3895 149.499 72.5593 148.142C72.1575 147.482 71.6533 146.959 70.7852 146.91C67.7489 146.747 66.4373 147.577 65.3266 150.465C64.6254 152.304 64.2842 154.218 64.1932 156.064ZM107.297 183.084C107.377 180.806 106.604 178.888 104.841 177.413C103.817 176.557 102.965 175.575 102.225 174.457C100.819 172.334 97.2633 172.239 95.8418 174.404C93.5295 177.925 92.07 184.422 96.3459 189.149C99.1624 192.265 103.355 191.966 105.679 188.418C106.732 186.803 107.328 185.033 107.297 183.084ZM138.021 65.2465C138.131 62.9987 137.339 61.0313 135.511 59.515C134.484 58.6621 133.646 57.6613 132.907 56.5469C131.592 54.5643 128.025 54.443 126.653 56.4407C124.325 59.8258 122.771 66.4823 126.986 71.1904C129.951 74.5034 134.177 74.1585 136.546 70.3488C137.494 68.8212 138.021 67.1608 138.021 65.2465ZM164.761 165.567C164.67 168.494 165.716 170.981 167.706 173.084C169.802 175.302 172.657 175.586 175.139 173.846C178.987 171.155 179.563 164.506 176.171 161.322C175.018 160.238 173.892 159.157 173.092 157.778C172.698 157.095 172.156 156.595 171.315 156.534C168.237 156.318 167.012 157.099 165.867 160.056C165.178 161.826 164.749 163.653 164.761 165.567ZM145.871 186.769C145.799 184.646 145.208 182.777 143.571 181.356C142.471 180.4 141.489 179.366 140.682 178.137C139.348 176.102 135.947 176.045 134.405 177.986C131.198 182.015 131.49 189.259 135.011 193.035C137.619 195.829 141.596 195.624 143.893 192.546C145.174 190.829 145.769 188.865 145.871 186.769ZM163.661 83.9536C163.555 86.8043 164.541 89.2531 166.417 91.3683C168.657 93.8929 171.099 94.2302 173.957 92.4183C177.744 90.0188 178.517 83.2145 175.306 80.0341C174.052 78.7907 172.759 77.6042 171.849 76.0614C171.519 75.5042 171.046 75.1175 170.352 75.0341C167.547 74.693 165.958 75.5952 164.882 78.2676C164.146 80.0871 163.673 81.9749 163.661 83.9536ZM56.7596 114.082C56.7104 117.028 57.6543 119.491 59.6595 121.622C61.8278 123.927 64.4661 124.234 67.0817 122.482C70.899 119.927 71.5434 113.146 68.2227 109.962C67.0362 108.824 65.8611 107.699 65.0272 106.266C64.6633 105.64 64.1629 105.208 63.3896 105.14C60.3381 104.863 59.0416 105.659 57.8893 108.574C57.1842 110.341 56.7748 112.172 56.7596 114.082Z" fill="white"/>
<path d="M96.6646 151.587C96.8996 150.109 97.0702 148.604 97.3886 147.133C98.8063 140.549 98.3856 133.923 97.2597 127.41C94.9436 114.056 100.433 104.283 110.781 96.6298C116.683 92.2667 123.294 89.4313 130.629 88.4419C133.461 88.0591 136.156 88.2789 138.525 90.1288C139.943 91.2357 140.383 92.589 139.359 94.0711C137.123 97.3008 136.804 100.872 136.778 104.678C136.725 112.134 133.597 117.881 126.577 121.125C123.609 122.498 120.557 123.73 118.389 126.372C117.316 127.683 116.535 129.063 116.717 130.826C116.884 132.429 115.921 133.487 114.765 134.26C111.49 136.447 109.754 139.332 110.266 143.346C110.376 144.215 109.959 144.597 109.204 144.832C106.437 145.697 104.746 147.482 104.273 150.416C104.083 151.584 103.693 152.751 102.972 153.725C101.941 155.12 100.558 155.765 98.8367 155.223C97.0816 154.669 96.7745 153.191 96.6646 151.587Z" fill="#FDD200"/>
<path d="M106.437 160.73C108.412 158.714 109.712 156.523 110.474 154.01C110.884 152.664 111.824 151.735 113.098 151.201C116.513 149.772 118.079 147.262 117.533 143.581C117.275 141.834 117.802 140.761 119.523 140.136C122.165 139.177 123.143 136.906 123.435 134.366C123.723 131.853 125.076 130.223 127.176 129.055C127.946 128.631 128.715 128.199 129.511 127.827C139.193 123.331 143.423 115.371 143.965 105.094C144.049 103.521 144.049 101.944 144.356 100.394C144.488 99.7191 144.576 99.0065 144.852 98.3886C145.493 96.9595 146.103 95.2992 147.896 95.0945C149.803 94.8784 150.523 96.5349 151.323 97.8806C152.267 99.4727 152.892 101.243 152.995 103.047C153.446 111.05 153.552 119.04 151.016 126.8C147.904 136.326 141.615 143.483 133.89 149.533C128.776 153.54 123.329 157.061 117.502 159.95C114.409 161.481 111.172 162.482 107.673 161.288C107.321 161.174 106.991 160.984 106.437 160.73Z" fill="#FDD200"/>
</svg>
