<svg width="250" height="250" viewBox="0 0 250 250" fill="none" xmlns="http://www.w3.org/2000/svg">
<mask id="path-1-inside-1_453_124" fill="white">
<path d="M0 125C0 55.9644 55.9644 0 125 0C194.036 0 250 55.9644 250 125C250 194.036 194.036 250 125 250C55.9644 250 0 194.036 0 125Z"/>
</mask>
<path d="M0 125C0 55.9644 55.9644 0 125 0C194.036 0 250 55.9644 250 125C250 194.036 194.036 250 125 250C55.9644 250 0 194.036 0 125Z" fill="white"/>
<path d="M0 125M250 125M250 125M0 125M125 0M250 125M125 250M0 125M125 250V248C57.069 248 2 192.931 2 125H0H-2C-2 195.14 54.8598 252 125 252V250ZM250 125H248C248 192.931 192.931 248 125 248V250V252C195.14 252 252 195.14 252 125H250ZM125 0V2C192.931 2 248 57.069 248 125H250H252C252 54.8598 195.14 -2 125 -2V0ZM125 0V-2C54.8598 -2 -2 54.8598 -2 125H0H2C2 57.069 57.069 2 125 2V0Z" fill="#DDDBDB" mask="url(#path-1-inside-1_453_124)"/>
<path d="M145.284 185C144.357 183.911 143.162 182.899 142.133 181.881C139.056 178.837 136.028 175.732 132.944 172.694C131.021 170.8 129.629 169.43 128.351 166.981C127.35 165.097 126.717 163.039 126.484 160.919C126.177 157.919 126.271 152.053 126.266 148.956L126.261 106.936C126.258 103.083 126.22 99.2189 126.349 95.3768C126.404 93.7511 127.784 92.2528 129.395 92.4948C131.342 92.7873 133.679 95.6661 135.029 97.0143L142.32 104.337L162.201 124.134L173.435 135.35L177.172 139.095C177.754 139.673 179.621 141.335 179.666 141.982C179.84 144.475 179.766 147.056 179.762 149.563L179.759 178.047C179.759 179.531 179.846 183.761 179.678 185H145.284Z" fill="#FE4100"/>
<path d="M70.1895 65H104.719C106.465 66.7108 108.261 68.6534 110.027 70.4057L114.708 75.0754C117.194 77.5301 119.813 79.9566 121.636 82.9948C121.906 83.4445 122.11 84.2916 122.311 84.8178C123.302 87.4117 123.508 88.816 123.535 91.5994L123.553 146.921C123.555 149.53 123.612 152.2 123.44 154.777C123.333 156.387 122.161 157.662 120.532 157.535C119.814 157.479 119.305 157.351 118.773 156.822C117.09 155.221 115.513 153.514 113.853 151.888C108.486 146.572 103.149 141.225 97.8431 135.847L72.2343 110.337C71.6867 109.788 70.5532 108.877 70.1895 108.32V65Z" fill="#FE4100"/>
<path d="M126.378 65H179.707C179.872 67.6226 179.759 71.2002 179.759 73.9105L179.756 90.1778C179.855 105.847 179.816 121.517 179.638 137.186C177.089 134.992 173.709 131.424 171.282 128.995L144.345 102.121C141.362 99.2258 138.413 96.2947 135.499 93.3285C132.115 89.9054 128.225 86.5795 126.992 81.7132C126.272 78.8743 126.305 76.3202 126.329 73.4183C126.352 70.6159 126.265 67.8017 126.378 65Z" fill="#FE4100"/>
<path d="M70.1895 112.701C70.9477 113.51 71.9689 114.377 72.802 115.201L79.5964 121.978L105.884 148.316L114.297 156.7C116.542 158.929 120.025 161.964 121.473 164.728C124.474 170.461 123.304 177.423 123.475 183.649C123.485 184.025 123.454 184.652 123.39 185H70.1895V112.701Z" fill="#FE4100"/>
</svg>
