<svg width="250" height="250" viewBox="0 0 250 250" fill="none" xmlns="http://www.w3.org/2000/svg">
<path d="M0 125C0 55.9644 55.9644 0 125 0C194.036 0 250 55.9644 250 125C250 194.036 194.036 250 125 250C55.9644 250 0 194.036 0 125Z" fill="#207DFF"/>
<path d="M127.754 168.879C108.378 168.481 89.8399 165.337 72.8182 155.841C63.0635 150.397 54.8531 143.207 51.2475 132.202C48.5294 123.914 50.409 116.137 55.3702 109.059C63.8741 96.9074 76.3469 90.6605 89.9587 86.482C114.485 78.9564 139.053 79.3966 163.363 87.5301C173.348 90.8702 182.628 95.7405 190.049 103.441C203.947 117.856 202.934 133.48 189.217 146.966C179.211 156.805 166.619 162.004 153.189 164.973C144.825 166.818 136.237 167.615 127.754 168.879ZM123.925 99.8771C121.186 109.206 118.524 118.268 115.659 128.002C111.25 119.079 107.015 110.834 103.116 102.435C101.935 99.8841 100.538 98.9897 97.8267 99.1994C94.5844 99.4509 91.3003 99.4998 88.0581 99.2483C85.3678 99.0456 84.4664 100.261 83.8306 102.602C80.2809 115.585 76.5915 128.526 72.9929 141.495C72.2662 144.108 71.7141 146.771 70.9595 149.936C74.1248 149.936 76.6543 149.873 79.1838 149.957C81.0216 150.02 81.7902 149.174 82.2654 147.456C84.159 140.636 86.1644 133.844 88.1768 127.052C88.9664 124.39 89.8818 121.762 90.9859 118.38C95.6605 128.729 100.035 138.211 104.199 147.784C105.115 149.88 106.275 150.404 108.413 150.376C118.307 150.244 128.202 150.265 138.096 150.265C148.221 150.265 157.34 147.204 165.271 140.971C173.411 134.577 179.546 126.954 179.071 115.767C178.799 109.485 172.181 100.429 166.682 99.933C160.61 99.395 154.447 99.8073 148.326 99.8073C147.704 102.644 147.194 104.985 146.614 107.626C148.787 107.843 150.667 107.801 152.407 108.276C154.098 108.737 156.026 109.366 157.172 110.568C160.603 114.195 161.763 118.436 159.765 123.362C157.046 130.084 152.12 134.871 146.691 139.371C143.602 141.935 140.374 142.459 136.237 141.418C139.591 127.604 142.938 113.831 146.334 99.8632C138.662 99.8771 131.486 99.8771 123.925 99.8771Z" fill="#144D00"/>
<path d="M123.925 99.8772C131.486 99.8772 138.669 99.8772 146.32 99.8772C142.924 113.845 139.584 127.618 136.223 141.432C140.36 142.473 143.588 141.949 146.677 139.385C152.106 134.878 157.032 130.098 159.75 123.376C161.742 118.45 160.589 114.209 157.158 110.582C156.019 109.38 154.083 108.751 152.392 108.29C150.653 107.815 148.766 107.857 146.6 107.64C147.18 104.999 147.69 102.658 148.312 99.8213C154.433 99.8213 160.589 99.4021 166.668 99.9471C172.167 100.436 178.784 109.499 179.057 115.781C179.539 126.961 173.397 134.591 165.257 140.985C157.326 147.211 148.207 150.272 138.082 150.279C128.187 150.279 118.293 150.265 108.399 150.39C106.26 150.418 105.094 149.894 104.185 147.798C100.021 138.225 95.6464 128.75 90.9717 118.394C89.8746 121.776 88.9523 124.397 88.1627 127.066C86.1503 133.858 84.1448 140.643 82.2512 147.47C81.776 149.188 81.0074 150.034 79.1697 149.971C76.6402 149.88 74.1107 149.95 70.9453 149.95C71.7 146.785 72.252 144.122 72.9787 141.509C76.5773 128.54 80.2737 115.599 83.8234 102.609C84.4593 100.275 85.3607 99.0527 88.0509 99.2553C91.2931 99.4999 94.5773 99.458 97.8195 99.2064C100.531 98.9968 101.928 99.8912 103.109 102.442C107.001 110.841 111.236 119.086 115.652 128.009C118.517 118.262 121.179 109.206 123.925 99.8772Z" fill="white"/>
</svg>
