<svg width="250" height="250" viewBox="0 0 250 250" fill="none" xmlns="http://www.w3.org/2000/svg">
<path d="M0 125C0 55.9644 55.9644 0 125 0C194.036 0 250 55.9644 250 125C250 194.036 194.036 250 125 250C55.9644 250 0 194.036 0 125Z" fill="white"/>
<path d="M65.1444 135.803C68.047 130.725 72.6474 125.301 76.7749 121.19C96.2597 101.781 125.938 87.2796 152.286 80.1064C158.162 78.4959 164.132 77.2531 170.162 76.3888C171.772 76.1553 173.775 75.8098 175.392 75.8135C177.343 75.8172 179.796 77.5395 180.223 79.5323C180.369 80.2256 180.217 80.9472 179.802 81.5226C178.922 82.7384 173.172 83.2277 171.474 83.4821C147.925 87.0227 125.031 95.81 104.904 108.488C94.7945 114.857 84.944 121.65 76.9974 130.661C74.6509 133.328 72.2614 135.523 70.2197 138.541C69.3656 139.576 67.0707 143.025 66.6696 144.175C66.0717 145.102 65.1516 147.15 64.6698 148.194C63.8581 150.002 63.081 152.062 62.5965 153.998C62.3909 154.978 62.1856 156.076 61.9456 157.039C61.5671 158.483 61.3413 161.895 61.5502 163.403C61.6507 164.191 62.094 165.734 62.2998 166.591C60.884 163.97 59.5065 161.373 58.7403 158.492C57.5954 156.083 56.7995 152.526 56.5963 149.895C56.6694 149.498 56.6953 149.075 57.0915 148.915C57.4828 150.567 57.9059 151.759 58.5729 153.324C58.7163 152.784 58.8418 151.396 58.9124 150.776C58.3409 149.556 57.8303 148.257 57.3172 147.007C57.4942 146.032 58.2476 142.827 58.7708 142.1C59.3854 143.395 59.7115 143.738 60.7241 144.773C61.2158 143.49 61.7395 142.332 62.3036 141.081C61.425 140.334 60.6741 139.717 59.8847 138.868C60.1018 137.951 61.6606 134.377 62.3065 133.724C63.2302 134.427 64.1725 135.174 65.1444 135.803Z" fill="#1FA7A1"/>
<path d="M59.8844 138.867C60.1015 137.95 61.6603 134.376 62.3062 133.724C63.2299 134.427 64.1722 135.173 65.1441 135.802C64.2064 137.567 63.2594 139.326 62.3033 141.08C61.4247 140.334 60.6738 139.717 59.8844 138.867Z" fill="#90D4D0"/>
<path d="M57.3171 147.007C57.4941 146.032 58.2475 142.827 58.7708 142.1C59.3853 143.395 59.7114 143.738 60.724 144.773C60.1736 146.442 59.4318 149.388 58.9124 150.776C58.3408 149.556 57.8302 148.257 57.3171 147.007Z" fill="#B7BEBF"/>
<path d="M56.5963 149.895C56.6694 149.498 56.6953 149.075 57.0915 148.915C57.4828 150.567 57.9059 151.759 58.5729 153.323C58.5708 155.154 58.5822 156.657 58.7403 158.492C57.5954 156.083 56.7995 152.526 56.5963 149.895Z" fill="#C5DEA6"/>
<path d="M74.0216 152.24C78.5695 153.556 82.2484 153.846 86.9758 154.18C101.824 155.233 116.814 152.186 130.952 147.838C136.136 146.244 141.111 143.867 146.293 142.266C147.727 141.823 149.339 141.782 150.642 142.652C151.119 142.968 151.509 143.399 151.775 143.907C152.203 144.746 152.274 145.724 151.972 146.616C151.34 148.464 149.102 149.501 147.418 150.237C141.987 152.597 136.211 154.284 130.523 155.9C115.319 160.224 99.3228 163.253 83.4886 161.253C80.5251 160.879 73.3603 159.653 70.7595 158.407C71.4072 156.58 72.8883 153.739 74.0216 152.24Z" fill="#B4BFC0"/>
<path d="M59.0351 130.528C64.7258 117.676 78.059 105.33 89.4558 97.462C94.3934 94.1809 99.5313 91.1247 104.677 88.1829C110.762 84.7014 117.022 81.2469 123.541 78.6506C125.559 77.8466 129.04 76.2558 129.974 79.189C130.592 81.1302 129.509 82.1911 127.91 83.0565C123.777 85.2546 119.529 87.2265 115.351 89.3385C109.266 92.4204 103.338 95.8011 97.5868 99.4695C86.6411 106.541 77.1531 114.282 68.7939 124.329C67.5531 125.82 62.7989 132.106 62.3061 133.724C61.6602 134.377 60.1014 137.95 59.8843 138.867C59.584 139.534 58.8306 141.407 58.7705 142.099C58.2472 142.827 57.4938 146.032 57.3168 147.007C57.1293 147.688 57.0028 148.199 57.0912 148.915C56.6949 149.075 56.6691 149.498 56.5959 149.895C55.9989 147.089 55.6315 145.775 55.7007 142.809C55.1179 140.569 54.895 136.917 55.0452 134.648L55.2772 134.02C55.5167 135.624 55.8184 136.408 56.4031 137.927C56.6392 137.376 56.9013 136.122 57.0524 135.484C56.52 134.666 55.9971 133.841 55.484 133.01C55.7123 131.763 56.6836 129.363 57.1999 128.189C57.8686 128.917 58.4467 129.732 59.0351 130.528Z" fill="#9BC84A"/>
<path d="M57.1999 128.189C57.8686 128.917 58.4467 129.732 59.0351 130.528C58.393 132.187 57.732 133.84 57.0524 135.484C56.52 134.666 55.9971 133.841 55.484 133.01C55.7123 131.763 56.6836 129.363 57.1999 128.189Z" fill="#90D4D0"/>
<path d="M55.2772 134.021C55.5167 135.625 55.8184 136.408 56.4031 137.927C56.1161 139.382 55.8975 141.315 55.7007 142.809C55.1179 140.569 54.895 136.917 55.0452 134.649L55.2772 134.021Z" fill="#B7BEBF"/>
<path d="M69.4785 161.952C75.8513 165.072 87.0662 166.597 94.1941 166.725C103.354 166.891 114.372 165.385 123.286 163.244C125.577 162.701 127.845 162.067 130.086 161.345C133.679 160.172 147.711 154.503 144.938 163.469C144.51 164.855 141.765 165.857 140.514 166.223C119.583 172.833 89.1459 178.923 68.6727 168.277L68.3035 168.083C68.3734 166.219 68.9709 163.718 69.4785 161.952Z" fill="#C5DEA6"/>
<path d="M74.3825 139.993C76.1267 138.021 77.8401 136.025 79.6863 134.148C82.1975 131.596 93.2563 121.056 96.2567 120.945C97.0704 120.914 97.9714 121.28 98.5479 121.854C99.2805 122.583 99.5816 123.817 99.5435 124.82C99.4833 126.426 98.3721 127.389 97.2499 128.386C92.3308 132.755 86.8684 136.798 82.4852 141.725C81.1109 142.853 77.7775 146.87 76.7167 148.395C75.8415 149.569 74.8127 151.005 74.0211 152.241C72.8878 153.739 71.4067 156.58 70.759 158.407C70.2771 159.624 69.8952 160.718 69.4786 161.952C68.971 163.718 68.3735 166.219 68.3035 168.083C68.2289 169.121 68.1115 170.334 68.1094 171.361C68.0369 172.355 67.9688 175.865 68.2994 176.671C68.2874 177.534 68.3622 177.823 68.5329 178.664C66.2031 176.714 64.6559 173.209 63.7282 170.388C63.1118 169.11 62.6239 167.718 62.231 166.357C62.8013 167.18 63.1763 167.691 63.828 168.443C63.9144 167.494 63.8697 166.593 63.9828 165.574C63.1983 164.929 62.1915 164.163 61.5498 163.403C61.3408 161.895 61.5666 158.483 61.9452 157.039C63.0499 158.042 63.8435 158.379 64.8506 159.179C65.0339 158.235 65.3194 157.213 65.5609 156.274C64.4962 155.649 63.4274 154.916 62.596 153.999C63.0806 152.062 63.8576 150.002 64.6694 148.194C65.886 148.959 66.5993 149.331 67.9478 149.853C68.6516 148.452 69.2386 147.283 70.0525 145.941C69.2848 145.471 67.5502 144.649 66.6691 144.175C67.0702 143.025 69.3652 139.576 70.2192 138.541C71.6046 139.056 72.9616 139.586 74.3825 139.993Z" fill="#9BC84A"/>
<path d="M66.6692 144.175C67.0703 143.026 69.3652 139.576 70.2193 138.541C71.6047 139.056 72.9617 139.586 74.3826 139.993C72.6875 142.161 71.5788 143.895 70.0526 145.942C69.2849 145.471 67.5503 144.65 66.6692 144.175Z" fill="#90D4D0"/>
<path d="M64.6693 148.193C65.8859 148.959 66.5992 149.331 67.9477 149.853C67.0232 152.108 66.3372 153.969 65.5608 156.274C64.4961 155.649 63.4274 154.915 62.5959 153.998C63.0805 152.062 63.8576 150.002 64.6693 148.193Z" fill="#B7BEBF"/>
<path d="M61.5498 163.402C61.3408 161.894 61.5666 158.483 61.9452 157.038C63.0499 158.041 63.8435 158.378 64.8506 159.178C64.4865 161.301 64.1491 163.425 63.9828 165.573C63.1983 164.928 62.1915 164.162 61.5498 163.402Z" fill="#C5DEA6"/>
<path d="M62.231 166.356C62.8013 167.179 63.1763 167.69 63.828 168.443C63.8875 169.129 63.7986 169.704 63.7282 170.387C63.1118 169.109 62.6239 167.717 62.231 166.356Z" fill="#90D4D0"/>
<path d="M131.442 57.9455C134.334 57.5338 135.783 59.8012 133.165 61.5026C132.284 62.0755 130.133 62.6334 129.066 62.9891C127.548 63.5073 126.04 64.0533 124.543 64.6266C107.84 70.9913 91.9612 79.6605 78.2179 91.1647C74.7984 94.1655 70.8374 97.3237 67.9997 100.905C63.9993 105.951 59.6532 111.738 57.0095 117.626C56.6307 118.493 56.2582 119.716 55.9327 120.643C55.9645 119.438 56.2786 117.624 56.5036 116.417C57.6951 110.025 60.3257 105.139 64.2382 100.091C76.7183 83.9915 94.202 73.0675 112.486 64.633C117.952 62.1119 125.429 58.7329 131.442 57.9455Z" fill="#1FA7A1"/>
<path d="M56.2901 123.892C59.4077 115.238 65.0741 107.856 71.5203 101.433C81.6708 91.4026 93.4548 82.7443 106.308 76.5042C107.834 75.7629 109.701 74.8642 110.749 76.8754C111.235 77.8097 111.01 79.8713 110.053 80.4221C108.115 81.5408 106.044 82.5046 104.061 83.5778C96.3347 87.8055 89.0113 92.7327 82.1833 98.2967C72.8982 105.862 62.1744 117.136 57.2004 128.189C56.684 129.363 55.7127 131.763 55.4845 133.01L55.2776 134.02L55.0457 134.648C55.071 131.898 55.196 129.15 55.4207 126.409C55.7809 125.87 56.0443 124.605 56.2901 123.892Z" fill="#6B7E82"/>
<path d="M68.2993 176.671C67.9688 175.865 68.0369 172.355 68.1094 171.36C70.7253 172.738 73.4766 174.172 76.2532 175.2C84.9926 178.435 94.6317 178.846 103.843 178.446C106.533 178.329 110.588 177.427 113.008 178.711C116.124 180.632 115.695 184.137 111.924 184.846C109.138 185.37 106.599 185.214 103.812 185.263C95.6151 185.408 73.2664 183.991 68.2993 176.671Z" fill="#8CD1CE"/>
<path d="M68.5155 178.593C69.2411 179.007 70.4983 180.354 71.2352 180.953C73.2547 182.592 75.7745 184.203 78.1849 185.197C80.2499 186.046 83.1937 187.067 85.3607 187.563C86.7976 187.889 88.2407 188.188 89.6899 188.457C93.0529 189.056 96.0938 189.383 98.6788 191.871C99.4777 192.64 99.6621 193.495 98.8447 194.321C95.4215 196.116 88.0231 194.255 84.6859 192.778C79.2051 190.312 74.3966 186.566 70.6646 181.855C69.9909 181.007 68.9039 179.591 68.5155 178.593Z" fill="#DCE6AA"/>
<path d="M82.4853 141.725C85.3566 141.807 88.9568 141.641 91.7151 141.988C95.2329 142.429 96.6219 148.975 91.6229 149.466C86.5034 149.967 81.7564 149.06 76.7168 148.395C77.7776 146.869 81.1111 142.853 82.4853 141.725Z" fill="#90D4D0"/>
<path d="M108.029 112.766C109.649 112.65 110.994 113.455 111.416 115.062C111.726 116.244 111.554 117.5 110.935 118.552C110.101 119.967 109.026 120.476 107.522 120.844C105.653 120.927 104.157 120.095 103.841 118.134C103.628 116.872 103.939 115.577 104.701 114.55C105.601 113.361 106.636 112.981 108.029 112.766Z" fill="#9BC84A"/>
<path d="M120.71 105.499C125.362 105.041 126.4 112.332 120.46 113.403C115.161 113.031 115.061 106.86 120.71 105.499Z" fill="#9BC84A"/>
<path d="M140.401 73.17C141.361 73.1024 142.391 73.3237 143.187 73.8793C143.816 74.3121 144.245 74.9784 144.38 75.7283C144.817 78.2115 142.481 79.0807 140.526 79.4224C139.554 79.388 138.66 79.2442 137.816 78.7647C135.449 77.4186 136.02 74.7263 138.356 73.7453C139.124 73.422 139.591 73.3249 140.401 73.17Z" fill="#9BC84A"/>
<path d="M151.981 69.8643C152.781 69.7528 153.935 70.02 154.662 70.4253C156.026 71.1861 156.998 73.0633 156.015 74.5017C155.299 75.5503 154.176 75.7076 152.995 75.8859C147.994 75.9658 145.86 70.5524 151.981 69.8643Z" fill="#9BC84A"/>
<path d="M189.132 75.25C191.728 75.0066 193.649 76.5359 194.734 78.7709C195.403 80.1465 194.75 81.2431 193.433 81.784C189.963 82.3409 185.241 77.2883 189.132 75.25Z" fill="#1FA7A1"/>
<path d="M120.277 70.2298C124.765 69.8304 124.499 75.0365 119.089 76.1012C117.861 76.1479 116.032 75.8676 115.762 74.4907C115.241 71.8317 118.431 70.6941 120.277 70.2298Z" fill="#6B7E82"/>
<path d="M145.286 61.616C150.429 60.9789 151.55 65.5665 146.449 66.8572C141.304 67.6642 140.009 62.9365 145.286 61.616Z" fill="#6B7E82"/>
<path d="M157.93 58.8006C159.671 58.6946 162.163 59.3034 162.621 61.2583C162.751 61.8028 162.635 62.3769 162.304 62.8279C161.656 63.7177 160.511 63.9824 159.49 64.116C157.768 64.21 155.308 63.6191 154.856 61.6803C154.729 61.1486 154.834 60.5883 155.142 60.1375C155.789 59.2081 156.889 58.9528 157.93 58.8006Z" fill="#6B7E82"/>
<path d="M132.632 65.4201C133.529 65.3198 134.496 65.3313 135.267 65.7938C137.38 67.0625 136.415 69.634 134.404 70.3756C133.79 70.6023 133.417 70.6776 132.804 70.7897C127.865 71.0596 127.311 66.6791 132.632 65.4201Z" fill="#6B7E82"/>
<path d="M139.76 54.9739C144.208 54.5748 146.113 58.0735 141.509 59.2487C136.967 59.6029 135.004 56.0256 139.76 54.9739Z" fill="#1FA7A1"/>
<path d="M55.42 126.409C55.405 125.227 55.5991 122.957 55.7578 121.807L56.2894 123.892C56.0437 124.605 55.7803 125.87 55.42 126.409Z" fill="#1FA7A1" fill-opacity="0.988235"/>
</svg>
