<svg width="250" height="250" viewBox="0 0 250 250" fill="none" xmlns="http://www.w3.org/2000/svg">
<mask id="path-1-inside-1_453_120" fill="white">
<path d="M0 125C0 55.9644 55.9644 0 125 0C194.036 0 250 55.9644 250 125C250 194.036 194.036 250 125 250C55.9644 250 0 194.036 0 125Z"/>
</mask>
<path d="M0 125C0 55.9644 55.9644 0 125 0C194.036 0 250 55.9644 250 125C250 194.036 194.036 250 125 250C55.9644 250 0 194.036 0 125Z" fill="white"/>
<path d="M0 125M250 125M250 125M0 125M125 0M250 125M125 250M0 125M125 250V248C57.069 248 2 192.931 2 125H0H-2C-2 195.14 54.8598 252 125 252V250ZM250 125H248C248 192.931 192.931 248 125 248V250V252C195.14 252 252 195.14 252 125H250ZM125 0V2C192.931 2 248 57.069 248 125H250H252C252 54.8598 195.14 -2 125 -2V0ZM125 0V-2C54.8598 -2 -2 54.8598 -2 125H0H2C2 57.069 57.069 2 125 2V0Z" fill="#DDDBDB" mask="url(#path-1-inside-1_453_120)"/>
<path d="M65.1438 135.803C68.0464 130.725 72.6468 125.301 76.7743 121.19C96.2591 101.781 125.937 87.2796 152.286 80.1064C158.161 78.4959 164.131 77.2531 170.161 76.3888C171.772 76.1553 173.774 75.8098 175.392 75.8135C177.342 75.8172 179.796 77.5395 180.222 79.5323C180.368 80.2256 180.216 80.9472 179.802 81.5226C178.922 82.7384 173.172 83.2277 171.473 83.4821C147.925 87.0227 125.03 95.81 104.904 108.488C94.7939 114.857 84.9434 121.65 76.9968 130.661C74.6503 133.328 72.2608 135.523 70.219 138.541C69.365 139.576 67.07 143.025 66.669 144.175C66.0711 145.102 65.1509 147.15 64.6692 148.194C63.8575 150.002 63.0804 152.062 62.5959 153.998C62.3902 154.978 62.185 156.076 61.945 157.039C61.5665 158.483 61.3407 161.895 61.5496 163.403C61.65 164.191 62.0934 165.734 62.2992 166.591C60.8834 163.97 59.5059 161.373 58.7397 158.492C57.5948 156.083 56.7989 152.526 56.5957 149.895C56.6688 149.498 56.6947 149.075 57.0909 148.915C57.4822 150.567 57.9053 151.759 58.5723 153.324C58.7156 152.784 58.8411 151.396 58.9118 150.776C58.3403 149.556 57.8297 148.257 57.3166 147.007C57.4936 146.032 58.247 142.827 58.7702 142.1C59.3848 143.395 59.7109 143.738 60.7235 144.773C61.2152 143.49 61.7389 142.332 62.303 141.081C61.4244 140.334 60.6735 139.717 59.8841 138.868C60.1012 137.951 61.66 134.377 62.3059 133.724C63.2296 134.427 64.1719 135.174 65.1438 135.803Z" fill="#1FA7A1"/>
<path d="M59.8848 138.868C60.1018 137.951 61.6607 134.377 62.3066 133.724C63.2303 134.427 64.1726 135.174 65.1445 135.803C64.2068 137.567 63.2598 139.326 62.3036 141.081C61.425 140.334 60.6741 139.717 59.8848 138.868Z" fill="#90D4D0"/>
<path d="M57.3164 147.007C57.4934 146.032 58.2468 142.827 58.77 142.1C59.3846 143.395 59.7107 143.738 60.7233 144.773C60.1729 146.442 59.4311 149.388 58.9116 150.776C58.3401 149.556 57.8295 148.257 57.3164 147.007Z" fill="#B7BEBF"/>
<path d="M56.5957 149.895C56.6688 149.498 56.6947 149.075 57.0909 148.915C57.4822 150.567 57.9053 151.759 58.5723 153.323C58.5702 155.154 58.5815 156.657 58.7397 158.492C57.5948 156.083 56.7989 152.526 56.5957 149.895Z" fill="#C5DEA6"/>
<path d="M74.0219 152.241C78.5698 153.556 82.2487 153.846 86.976 154.181C101.824 155.233 116.814 152.187 130.952 147.838C136.137 146.244 141.111 143.868 146.293 142.266C147.728 141.823 149.339 141.783 150.642 142.652C151.119 142.968 151.51 143.399 151.775 143.907C152.203 144.747 152.274 145.724 151.972 146.616C151.34 148.464 149.102 149.502 147.418 150.237C141.987 152.597 136.212 154.284 130.523 155.9C115.319 160.224 99.323 163.253 83.4889 161.253C80.5254 160.879 73.3606 159.654 70.7598 158.407C71.4074 156.58 72.8886 153.739 74.0219 152.241Z" fill="#B4BFC0"/>
<path d="M59.0353 130.528C64.726 117.676 78.0593 105.33 89.4561 97.4622C94.3937 94.1811 99.5316 91.125 104.677 88.1831C110.762 84.7016 117.023 81.2472 123.541 78.6508C125.559 77.8468 129.04 76.2561 129.974 79.1893C130.593 81.1304 129.51 82.1913 127.911 83.0568C123.777 85.2548 119.529 87.2267 115.351 89.3387C109.267 92.4207 103.338 95.8014 97.587 99.4697C86.6413 106.541 77.1534 114.282 68.7942 124.329C67.5533 125.821 62.7992 132.106 62.3064 133.724C61.6605 134.377 60.1016 137.951 59.8846 138.868C59.5843 139.534 58.8308 141.408 58.7707 142.1C58.2474 142.827 57.4941 146.032 57.3171 147.007C57.1295 147.688 57.003 148.2 57.0914 148.915C56.6951 149.075 56.6693 149.498 56.5962 149.895C55.9992 147.09 55.6318 145.775 55.701 142.809C55.1181 140.569 54.8953 136.917 55.0455 134.649L55.2774 134.02C55.517 135.625 55.8186 136.408 56.4033 137.927C56.6394 137.377 56.9015 136.123 57.0527 135.485C56.5202 134.666 55.9973 133.841 55.4843 133.01C55.7125 131.763 56.6838 129.364 57.2002 128.19C57.8689 128.917 58.4469 129.732 59.0353 130.528Z" fill="#9BC84A"/>
<path d="M57.2003 128.19C57.869 128.917 58.447 129.733 59.0354 130.528C58.3933 132.188 57.7324 133.84 57.0528 135.485C56.5203 134.666 55.9974 133.841 55.4844 133.01C55.7126 131.763 56.6839 129.364 57.2003 128.19Z" fill="#90D4D0"/>
<path d="M55.2774 134.021C55.517 135.625 55.8186 136.408 56.4033 137.927C56.1163 139.382 55.8978 141.315 55.701 142.809C55.1181 140.569 54.8953 136.917 55.0455 134.649L55.2774 134.021Z" fill="#B7BEBF"/>
<path d="M69.4778 161.952C75.8506 165.072 87.0655 166.597 94.1934 166.725C103.353 166.891 114.371 165.385 123.285 163.244C125.576 162.701 127.844 162.067 130.085 161.345C133.678 160.172 147.71 154.503 144.937 163.469C144.509 164.855 141.765 165.857 140.513 166.223C119.582 172.833 89.1452 178.923 68.672 168.277L68.3027 168.083C68.3727 166.219 68.9702 163.718 69.4778 161.952Z" fill="#C5DEA6"/>
<path d="M74.3832 139.993C76.1274 138.021 77.8409 136.025 79.6871 134.148C82.1983 131.596 93.2571 121.056 96.2575 120.945C97.0712 120.914 97.9722 121.28 98.5486 121.854C99.2812 122.583 99.5824 123.817 99.5443 124.82C99.484 126.426 98.3729 127.389 97.2506 128.386C92.3315 132.755 86.8691 136.798 82.4859 141.725C81.1117 142.853 77.7782 146.87 76.7174 148.395C75.8423 149.569 74.8134 151.005 74.0219 152.241C72.8886 153.739 71.4074 156.58 70.7598 158.407C70.2778 159.624 69.8959 160.718 69.4793 161.952C68.9717 163.718 68.3742 166.219 68.3043 168.083C68.2297 169.121 68.1123 170.334 68.1102 171.361C68.0377 172.355 67.9696 175.865 68.3001 176.671C68.2882 177.534 68.3629 177.823 68.5336 178.664C66.2039 176.714 64.6566 173.209 63.7289 170.388C63.1125 169.11 62.6247 167.718 62.2317 166.357C62.802 167.18 63.177 167.691 63.8287 168.443C63.9152 167.494 63.8704 166.593 63.9835 165.574C63.199 164.929 62.1922 164.163 61.5505 163.403C61.3415 161.895 61.5673 158.483 61.9459 157.039C63.0507 158.042 63.8442 158.379 64.8513 159.179C65.0347 158.235 65.3201 157.213 65.5616 156.274C64.4969 155.649 63.4282 154.916 62.5967 153.999C63.0813 152.062 63.8584 150.002 64.6701 148.194C65.8867 148.959 66.6 149.331 67.9485 149.853C68.6524 148.452 69.2393 147.283 70.0532 145.941C69.2855 145.471 67.5509 144.649 66.6698 144.175C67.0709 143.025 69.3659 139.576 70.2199 138.541C71.6053 139.056 72.9623 139.586 74.3832 139.993Z" fill="#9BC84A"/>
<path d="M66.6699 144.175C67.071 143.025 69.366 139.576 70.22 138.541C71.6054 139.056 72.9624 139.586 74.3833 139.993C72.6883 142.161 71.5796 143.895 70.0533 145.941C69.2856 145.471 67.551 144.649 66.6699 144.175Z" fill="#90D4D0"/>
<path d="M64.6691 148.193C65.8857 148.959 66.599 149.331 67.9475 149.853C67.0229 152.108 66.3369 153.969 65.5606 156.274C64.4959 155.649 63.4271 154.915 62.5957 153.998C63.0802 152.062 63.8573 150.002 64.6691 148.193Z" fill="#B7BEBF"/>
<path d="M61.5505 163.403C61.3415 161.894 61.5673 158.483 61.9459 157.039C63.0507 158.042 63.8442 158.379 64.8513 159.179C64.4872 161.302 64.1498 163.425 63.9835 165.574C63.199 164.928 62.1922 164.163 61.5505 163.403Z" fill="#C5DEA6"/>
<path d="M62.2305 166.357C62.8008 167.179 63.1758 167.691 63.8275 168.443C63.887 169.129 63.7981 169.704 63.7277 170.388C63.1113 169.109 62.6234 167.718 62.2305 166.357Z" fill="#90D4D0"/>
<path d="M131.443 57.9463C134.335 57.5345 135.784 59.8019 133.166 61.5034C132.285 62.0762 130.134 62.6341 129.067 62.9899C127.549 63.508 126.041 64.054 124.544 64.6274C107.84 70.992 91.9621 79.6612 78.2188 91.1654C74.7992 94.1663 70.8382 97.3244 68.0006 100.906C64.0001 105.952 59.654 111.738 57.0103 117.627C56.6315 118.494 56.2591 119.717 55.9336 120.644C55.9653 119.439 56.2795 117.625 56.5044 116.417C57.696 110.026 60.3265 105.139 64.2391 100.092C76.7192 83.9922 94.2028 73.0683 112.487 64.6338C117.953 62.1126 125.43 58.7336 131.443 57.9463Z" fill="#1FA7A1"/>
<path d="M56.2893 123.892C59.407 115.239 65.0733 107.856 71.5196 101.433C81.67 91.4028 93.454 82.7445 106.307 76.5044C107.833 75.7631 109.7 74.8644 110.748 76.8757C111.234 77.81 111.009 79.8716 110.053 80.4223C108.114 81.541 106.043 82.5048 104.061 83.578C96.334 87.8057 89.0106 92.7329 82.1826 98.297C72.8975 105.862 62.1737 117.137 57.1996 128.19C56.6833 129.364 55.712 131.763 55.4837 133.01L55.2769 134.02L55.0449 134.649C55.0702 131.899 55.1952 129.15 55.4199 126.41C55.7802 125.87 56.0436 124.605 56.2893 123.892Z" fill="#6B7E82"/>
<path d="M68.2986 176.671C67.968 175.865 68.0361 172.355 68.1087 171.36C70.7246 172.738 73.4758 174.172 76.2525 175.2C84.9919 178.435 94.631 178.846 103.842 178.446C106.532 178.329 110.587 177.427 113.007 178.711C116.123 180.632 115.694 184.137 111.923 184.846C109.138 185.37 106.598 185.214 103.812 185.263C95.6143 185.408 73.2656 183.991 68.2986 176.671Z" fill="#8CD1CE"/>
<path d="M68.5156 178.593C69.2412 179.007 70.4984 180.354 71.2353 180.953C73.2548 182.592 75.7746 184.203 78.185 185.197C80.25 186.046 83.1938 187.067 85.3609 187.563C86.7978 187.889 88.2408 188.188 89.69 188.457C93.053 189.056 96.0939 189.383 98.6789 191.871C99.4778 192.64 99.6622 193.495 98.8448 194.321C95.4216 196.116 88.0232 194.255 84.6861 192.778C79.2052 190.312 74.3967 186.566 70.6647 181.855C69.991 181.007 68.904 179.591 68.5156 178.593Z" fill="#DCE6AA"/>
<path d="M82.4853 141.725C85.3566 141.807 88.9568 141.641 91.7151 141.988C95.2329 142.429 96.6219 148.975 91.6229 149.466C86.5034 149.967 81.7564 149.06 76.7168 148.395C77.7776 146.869 81.1111 142.853 82.4853 141.725Z" fill="#90D4D0"/>
<path d="M108.029 112.767C109.649 112.651 110.993 113.456 111.416 115.063C111.726 116.244 111.554 117.501 110.934 118.553C110.101 119.968 109.025 120.477 107.522 120.845C105.653 120.928 104.157 120.096 103.841 118.135C103.628 116.873 103.939 115.578 104.701 114.55C105.601 113.362 106.636 112.982 108.029 112.767Z" fill="#9BC84A"/>
<path d="M120.709 105.499C125.361 105.041 126.399 112.332 120.46 113.403C115.161 113.032 115.06 106.86 120.709 105.499Z" fill="#9BC84A"/>
<path d="M140.402 73.1705C141.362 73.1029 142.392 73.3242 143.188 73.8798C143.817 74.3125 144.245 74.9789 144.381 75.7287C144.818 78.212 142.482 79.0812 140.527 79.4229C139.555 79.3885 138.661 79.2447 137.817 78.7652C135.45 77.4191 136.021 74.7268 138.357 73.7458C139.125 73.4225 139.592 73.3254 140.402 73.1705Z" fill="#9BC84A"/>
<path d="M151.982 69.8646C152.782 69.7531 153.936 70.0202 154.663 70.4255C156.027 71.1864 156.999 73.0636 156.016 74.5019C155.3 75.5505 154.177 75.7079 152.996 75.8861C147.995 75.966 145.861 70.5526 151.982 69.8646Z" fill="#9BC84A"/>
<path d="M189.132 75.2505C191.728 75.0071 193.649 76.5364 194.735 78.7714C195.403 80.147 194.751 81.2436 193.433 81.7845C189.963 82.3414 185.242 77.2888 189.132 75.2505Z" fill="#1FA7A1"/>
<path d="M120.277 70.2298C124.764 69.8304 124.499 75.0365 119.088 76.1012C117.86 76.1479 116.031 75.8676 115.762 74.4907C115.241 71.8317 118.43 70.6941 120.277 70.2298Z" fill="#6B7E82"/>
<path d="M145.287 61.6165C150.429 60.9794 151.55 65.567 146.449 66.8577C141.305 67.6646 140.01 62.937 145.287 61.6165Z" fill="#6B7E82"/>
<path d="M157.929 58.8006C159.67 58.6946 162.163 59.3034 162.62 61.2583C162.75 61.8028 162.635 62.3769 162.303 62.8279C161.655 63.7177 160.511 63.9824 159.489 64.116C157.767 64.21 155.308 63.6191 154.855 61.6803C154.729 61.1486 154.833 60.5883 155.142 60.1375C155.788 59.2081 156.888 58.9528 157.929 58.8006Z" fill="#6B7E82"/>
<path d="M132.631 65.4203C133.529 65.32 134.496 65.3316 135.267 65.7941C137.38 67.0627 136.415 69.6343 134.404 70.3758C133.789 70.6025 133.417 70.6779 132.804 70.79C127.865 71.0598 127.31 66.6793 132.631 65.4203Z" fill="#6B7E82"/>
<path d="M139.759 54.9742C144.207 54.575 146.112 58.0737 141.508 59.249C136.966 59.6031 135.003 56.0259 139.759 54.9742Z" fill="#1FA7A1"/>
<path d="M55.4207 126.41C55.4057 125.227 55.5998 122.958 55.7585 121.807L56.2901 123.892C56.0444 124.605 55.781 125.87 55.4207 126.41Z" fill="#1FA7A1" fill-opacity="0.988235"/>
</svg>
