<svg width="250" height="250" viewBox="0 0 250 250" fill="none" xmlns="http://www.w3.org/2000/svg">
<mask id="path-1-inside-1_453_118" fill="white">
<path d="M0 125C0 55.9644 55.9644 0 125 0C194.036 0 250 55.9644 250 125C250 194.036 194.036 250 125 250C55.9644 250 0 194.036 0 125Z"/>
</mask>
<path d="M0 125C0 55.9644 55.9644 0 125 0C194.036 0 250 55.9644 250 125C250 194.036 194.036 250 125 250C55.9644 250 0 194.036 0 125Z" fill="white"/>
<path d="M0 125M250 125M250 125M0 125M125 0M250 125M125 250M0 125M125 250V248C57.069 248 2 192.931 2 125H0H-2C-2 195.14 54.8598 252 125 252V250ZM250 125H248C248 192.931 192.931 248 125 248V250V252C195.14 252 252 195.14 252 125H250ZM125 0V2C192.931 2 248 57.069 248 125H250H252C252 54.8598 195.14 -2 125 -2V0ZM125 0V-2C54.8598 -2 -2 54.8598 -2 125H0H2C2 57.069 57.069 2 125 2V0Z" fill="#DDDBDB" mask="url(#path-1-inside-1_453_118)"/>
<path d="M105.533 61.7591C108.282 61.5144 109.467 61.0786 112.363 61.2177C113.021 61.8295 113.837 62.2463 113.866 63.1064C113.928 64.98 111.701 66.1842 111.025 67.4463C109.935 69.4797 110.251 70.9232 108.318 72.7146C107.197 73.7529 105.973 74.4257 104.864 75.3848C104.384 75.8002 103.469 77.5312 102.87 78.0304C102.542 78.3038 102.318 78.4959 101.967 78.7575C99.9375 80.2701 96.5135 81.2678 94.5265 82.4424C89.8397 85.2134 85.2253 91.3839 82.5761 96.1244C82.1422 96.9007 81.2877 98.271 81.014 99.0759L81.1249 99.3229C83.2653 99.8513 85.7893 97.3162 87.3452 96.0779C90.4984 93.5682 93.5738 92.8961 97.4656 93.8518C102.653 95.1253 99.832 97.8711 97.1585 99.9787C95.6562 101.16 94.139 102.279 92.6974 103.534C91.298 104.753 90.1953 106.586 88.9081 107.789C85.6394 110.846 83.2287 114.228 80.6283 117.828C69.6576 133.014 69.8351 154.191 81.2963 169.052C82.3536 170.423 83.5187 172.412 84.4697 173.888C86.3031 177.869 90.6537 181.07 94.3729 183.095C94.7658 183.309 97.3073 184.782 97.5446 184.971C97.9923 185.743 99.6832 186.199 99.6233 186.899C99.1086 186.998 99.0402 187.2 98.6086 187.268C98.0649 187.02 97.3828 186.52 96.8709 186.801C95.463 186.436 91.4598 184.211 90.0948 183.427C78.3511 176.708 68.7681 166.778 62.4713 154.803C54.3948 139.181 52.7954 121.008 58.0191 104.216C59.0594 100.936 60.4934 97.5432 62.0536 94.4821C62.7174 93.3634 63.7181 92.237 64.3637 91.1309C68.9315 83.3051 75.9466 77.0932 83.5375 72.2796C84.1399 71.8977 84.8485 71.2863 85.476 70.9571C90.1502 68.5043 94.5238 65.5498 99.2097 63.1186C100.012 62.5978 101.095 62.0937 101.977 61.7272C102.648 62.0939 104.46 61.6407 105.533 61.7591Z" fill="#010262"/>
<path d="M97.5446 184.971C98.6402 185.581 107.909 190.566 108.111 190.821C108.131 190.847 108.153 190.871 108.173 190.897C108.185 190.912 108.195 190.929 108.206 190.945C104.616 190.121 100.145 188.444 96.8709 186.801C97.3828 186.52 98.0649 187.02 98.6086 187.268C99.0402 187.2 99.1086 186.998 99.6233 186.899C99.6832 186.199 97.9923 185.743 97.5446 184.971Z" fill="#010262"/>
<path d="M101.979 61.7276C126.199 51.6157 148.592 53.5898 168.89 70.4566C170.29 71.6201 171.481 73.1382 172.764 74.4251C173.885 75.6191 175.44 77.1897 176.442 78.4447C179.135 81.8187 181.491 85.5402 183.532 89.3426C184.595 91.3234 185.471 92.856 186.406 94.9287C187.45 97.2461 188.049 100.222 188.928 102.367C189.428 104.141 190.264 106.972 190.602 108.718C189.893 108.22 190.057 106.334 189.281 105.891C188.68 106.905 189.541 108.306 189.288 109.819C189.629 112.738 190.053 115.741 190.233 118.692C190.801 128.02 189.413 138.361 185.485 146.888C184.653 148.694 181.325 153.644 180.059 155.251C180.008 155.315 179.956 155.379 179.903 155.441C179.685 155.388 178.761 155.145 178.668 154.971C177.34 152.443 178.127 150.077 175.937 147.812C174.327 146.146 175.193 141.906 175.543 139.88C173.716 135.582 175.323 133.746 176.671 129.969C177.279 128.244 177.65 126.444 177.774 124.618C178.27 116.945 176.83 111.757 174.398 104.633C173.956 105.377 173.497 106.061 173.225 106.888C172.063 110.423 173.132 114.166 170.854 117.406C169.45 119.402 166.839 121.157 164.429 121.609C163.994 121.69 163.795 121.651 163.487 121.418C162.499 118.789 163.259 112.494 163.027 109.382C162.639 104.18 162.272 98.0251 161.05 92.9352C159.885 88.0791 157.105 81.2506 154.417 76.9922C153.124 74.9439 150.16 71.8362 148.371 70.102C146.327 68.1218 143.982 66.9568 141.597 65.5895C131.838 59.9952 123.019 60.6983 112.365 61.2181C109.468 61.079 108.284 61.5148 105.535 61.7595C104.462 61.6411 102.649 62.0943 101.979 61.7276Z" fill="black"/>
<path d="M189.288 109.819C189.54 108.306 188.679 106.904 189.28 105.891C190.056 106.334 189.892 108.22 190.602 108.718C191.161 110.314 191.521 111.983 192.016 113.578C195.245 123.969 195.886 135.559 193.776 146.24C192.952 150.412 190.821 155.486 189.105 159.374C187.496 163.02 185.597 166.191 183.01 169.208C181.922 170.476 181.013 172.042 179.857 173.274C177.188 176.091 173.679 179.226 170.626 181.626C169.136 182.797 166.464 184.186 164.821 185.222C161.441 187.352 157.9 189.15 154.126 190.432C141.389 194.759 128.251 195.711 115.118 192.595C113.696 192.257 109.319 191.432 108.207 190.944C104.617 190.12 100.146 188.444 96.8719 186.801C97.3838 186.521 98.0659 187.02 98.6097 187.268C99.0413 187.2 99.1096 186.998 99.6243 186.899C99.6842 186.2 97.9933 185.743 97.5456 184.971C97.3083 184.782 94.7669 183.309 94.3739 183.095C90.6547 181.07 86.3041 177.869 84.4707 173.888C86.9543 171.871 90.1408 173.843 93.0805 172.103C95.2275 170.832 99.2244 172.765 101.442 173.754C105.019 171.303 107.064 175.039 110.1 176.299C112.243 177.188 115.428 178.873 117.627 179.309C122.655 180.306 130.249 180.693 135.292 179.824C132.887 174.884 125.89 177.613 122.954 172.664C116.327 161.492 124.949 165.998 130.667 167.008C143.876 169.342 158.764 170.222 170.809 163.368C172.439 162.44 179.541 156.991 179.902 155.441C179.955 155.378 180.007 155.315 180.058 155.25C181.325 153.643 184.653 148.693 185.484 146.888C189.412 138.36 190.801 128.019 190.233 118.692C190.053 115.741 189.628 112.738 189.288 109.819Z" fill="#F50701"/>
<path d="M188.926 102.366C189.426 104.14 190.262 106.971 190.6 108.718C189.891 108.22 190.055 106.334 189.279 105.891C188.678 106.904 189.539 108.306 189.286 109.819C188.849 108.369 188.568 105.337 188.492 103.794C188.449 102.925 188.429 102.893 188.926 102.366Z" fill="#F50701"/>
</svg>
