<svg width="250" height="250" viewBox="0 0 250 250" fill="none" xmlns="http://www.w3.org/2000/svg">
<path d="M0 125C0 55.9644 55.9644 0 125 0C194.036 0 250 55.9644 250 125C250 194.036 194.036 250 125 250C55.9644 250 0 194.036 0 125Z" fill="white"/>
<path d="M105.533 61.7596C108.282 61.5149 109.467 61.0791 112.363 61.2182C113.021 61.83 113.837 62.2468 113.866 63.1068C113.928 64.9805 111.701 66.1847 111.025 67.4468C109.935 69.4801 110.251 70.9237 108.318 72.7151C107.197 73.7534 105.973 74.4262 104.864 75.3853C104.384 75.8007 103.469 77.5317 102.87 78.0309C102.542 78.3043 102.318 78.4964 101.967 78.758C99.9375 80.2706 96.5135 81.2683 94.5265 82.4429C89.8397 85.2139 85.2253 91.3844 82.5761 96.1249C82.1422 96.9012 81.2877 98.2715 81.014 99.0763L81.1249 99.3234C83.2653 99.8518 85.7893 97.3167 87.3452 96.0784C90.4984 93.5687 93.5738 92.8966 97.4656 93.8523C102.653 95.1258 99.832 97.8716 97.1585 99.9792C95.6562 101.16 94.139 102.279 92.6974 103.534C91.298 104.753 90.1953 106.586 88.9081 107.79C85.6394 110.846 83.2287 114.229 80.6283 117.828C69.6576 133.015 69.8351 154.192 81.2963 169.053C82.3536 170.424 83.5187 172.413 84.4697 173.889C86.3031 177.869 90.6537 181.07 94.3729 183.096C94.7658 183.31 97.3073 184.782 97.5446 184.971C97.9923 185.743 99.6832 186.2 99.6233 186.899C99.1086 186.998 99.0402 187.2 98.6086 187.268C98.0649 187.02 97.3828 186.521 96.8709 186.802C95.463 186.437 91.4598 184.212 90.0948 183.427C78.3511 176.709 68.7681 166.779 62.4713 154.803C54.3948 139.182 52.7954 121.008 58.0191 104.216C59.0594 100.937 60.4934 97.5437 62.0536 94.4826C62.7174 93.3639 63.7181 92.2375 64.3637 91.1314C68.9315 83.3055 75.9466 77.0937 83.5375 72.2801C84.1399 71.8982 84.8485 71.2868 85.476 70.9576C90.1502 68.5048 94.5238 65.5503 99.2097 63.1191C100.012 62.5983 101.095 62.0942 101.977 61.7277C102.648 62.0944 104.46 61.6412 105.533 61.7596Z" fill="#010262"/>
<path d="M97.5446 184.971C98.6402 185.582 107.909 190.566 108.111 190.822C108.131 190.847 108.153 190.872 108.173 190.897C108.185 190.913 108.195 190.929 108.206 190.945C104.616 190.121 100.145 188.444 96.8709 186.802C97.3828 186.521 98.0649 187.02 98.6086 187.268C99.0402 187.2 99.1086 186.998 99.6233 186.899C99.6832 186.2 97.9923 185.743 97.5446 184.971Z" fill="#010262"/>
<path d="M101.978 61.7276C126.198 51.6157 148.592 53.5898 168.89 70.4566C170.29 71.6201 171.48 73.1382 172.764 74.4251C173.884 75.6191 175.439 77.1897 176.441 78.4447C179.135 81.8187 181.491 85.5402 183.531 89.3426C184.594 91.3234 185.471 92.856 186.405 94.9287C187.45 97.2461 188.049 100.222 188.927 102.367C189.427 104.141 190.263 106.972 190.601 108.718C189.892 108.22 190.056 106.334 189.28 105.891C188.679 106.905 189.54 108.306 189.288 109.819C189.628 112.738 190.053 115.741 190.233 118.692C190.801 128.02 189.412 138.361 185.484 146.888C184.653 148.694 181.325 153.644 180.058 155.251C180.007 155.315 179.955 155.379 179.902 155.441C179.685 155.388 178.76 155.145 178.668 154.971C177.34 152.443 178.126 150.077 175.936 147.812C174.326 146.146 175.192 141.906 175.543 139.88C173.716 135.582 175.323 133.746 176.67 129.969C177.279 128.244 177.65 126.444 177.774 124.618C178.27 116.945 176.83 111.757 174.398 104.633C173.955 105.377 173.496 106.061 173.224 106.888C172.062 110.423 173.132 114.166 170.854 117.406C169.45 119.402 166.838 121.157 164.428 121.609C163.994 121.69 163.795 121.651 163.487 121.418C162.498 118.789 163.258 112.494 163.026 109.382C162.639 104.18 162.271 98.0251 161.05 92.9352C159.884 88.0791 157.105 81.2506 154.416 76.9922C153.123 74.9439 150.16 71.8362 148.37 70.102C146.327 68.1218 143.981 66.9568 141.596 65.5895C131.838 59.9952 123.018 60.6983 112.364 61.2181C109.468 61.079 108.283 61.5148 105.534 61.7595C104.461 61.6411 102.649 62.0943 101.978 61.7276Z" fill="black"/>
<path d="M189.289 109.819C189.541 108.306 188.68 106.905 189.281 105.891C190.057 106.334 189.893 108.22 190.602 108.718C191.162 110.314 191.522 111.983 192.017 113.579C195.246 123.969 195.887 135.559 193.777 146.24C192.953 150.413 190.822 155.486 189.106 159.375C187.497 163.02 185.598 166.191 183.011 169.208C181.923 170.476 181.014 172.042 179.858 173.274C177.189 176.091 173.68 179.227 170.627 181.626C169.137 182.797 166.465 184.186 164.822 185.222C161.442 187.353 157.901 189.151 154.127 190.433C141.39 194.759 128.252 195.711 115.119 192.595C113.697 192.258 109.32 191.432 108.208 190.944C104.618 190.12 100.147 188.444 96.8729 186.802C97.3848 186.521 98.0669 187.02 98.6106 187.268C99.0422 187.2 99.1106 186.998 99.6253 186.899C99.6852 186.2 97.9943 185.743 97.5466 184.971C97.3093 184.782 94.7678 183.31 94.3749 183.096C90.6557 181.07 86.3051 177.869 84.4717 173.889C86.9553 171.871 90.1418 173.843 93.0815 172.103C95.2285 170.832 99.2254 172.765 101.443 173.754C105.02 171.303 107.065 175.039 110.101 176.299C112.244 177.188 115.429 178.873 117.628 179.309C122.656 180.306 130.25 180.693 135.293 179.824C132.888 174.884 125.891 177.613 122.955 172.664C116.328 161.493 124.95 165.998 130.668 167.008C143.877 169.342 158.765 170.222 170.81 163.368C172.44 162.44 179.542 156.991 179.903 155.441C179.956 155.379 180.008 155.315 180.059 155.251C181.326 153.644 184.654 148.694 185.485 146.888C189.413 138.361 190.802 128.02 190.234 118.692C190.054 115.741 189.629 112.738 189.289 109.819Z" fill="#F50701"/>
<path d="M188.927 102.366C189.427 104.14 190.263 106.971 190.601 108.718C189.892 108.22 190.056 106.334 189.28 105.891C188.679 106.904 189.54 108.306 189.287 109.819C188.85 108.369 188.568 105.337 188.493 103.794C188.45 102.925 188.429 102.893 188.927 102.366Z" fill="#F50701"/>
</svg>
