<svg width="250" height="250" viewBox="0 0 250 250" fill="none" xmlns="http://www.w3.org/2000/svg">
<mask id="path-1-inside-1_453_347" fill="white">
<path d="M0 125C0 55.9644 55.9644 0 125 0C194.036 0 250 55.9644 250 125C250 194.036 194.036 250 125 250C55.9644 250 0 194.036 0 125Z"/>
</mask>
<path d="M0 125C0 55.9644 55.9644 0 125 0C194.036 0 250 55.9644 250 125C250 194.036 194.036 250 125 250C55.9644 250 0 194.036 0 125Z" fill="white"/>
<path d="M0 125M250 125M250 125M0 125M125 0M250 125M125 250M0 125M125 250V248C57.069 248 2 192.931 2 125H0H-2C-2 195.14 54.8598 252 125 252V250ZM250 125H248C248 192.931 192.931 248 125 248V250V252C195.14 252 252 195.14 252 125H250ZM125 0V2C192.931 2 248 57.069 248 125H250H252C252 54.8598 195.14 -2 125 -2V0ZM125 0V-2C54.8598 -2 -2 54.8598 -2 125H0H2C2 57.069 57.069 2 125 2V0Z" fill="#DDDBDB" mask="url(#path-1-inside-1_453_347)"/>
<path fill-rule="evenodd" clip-rule="evenodd" d="M119.682 49.4215C122.157 49.369 124.483 49.3128 126.96 49.4364C129.587 49.5673 132.017 49.8626 134.613 50.1944C134.231 52.4693 132.738 61.6938 133.577 63.2563C134.579 65.1239 137.102 65.9269 138.992 66.4767C140.166 62.002 141.43 57.0298 142.413 52.5087C143.956 53.5197 145.268 54.5931 146.945 55.4634C147.614 55.8109 148.803 56.7444 149.424 57.2181C151.25 58.6107 152.924 60.1681 154.88 61.4054C155.377 61.7251 155.973 62.2714 156.43 62.67C156.144 64.2927 155.657 66.0318 155.258 67.6427C154.593 70.4207 153.858 73.1816 153.053 75.9222C154.872 78.6774 156.893 80.2694 158.364 83.4882C159.739 80.3056 161.422 77.2823 162.863 74.131C163.394 72.9728 164.095 71.898 164.579 70.7028C165.654 72.9446 166.647 75.2671 167.782 77.4768C168.721 79.3053 169.82 81.0959 170.692 82.9719C171.041 83.7233 171.735 84.5833 172.059 85.3165C173.268 88.0563 174.75 90.6265 176.087 93.294C174.043 94.6575 171.991 96.0504 169.765 97.0944C168.956 97.4737 168.218 97.9925 167.374 98.3556C167.458 98.6921 167.513 99.0445 167.581 99.3859C168.253 102.761 169.035 106.12 169.851 109.463C170.053 110.292 170.277 111.164 170.386 112.009C170.992 111.921 171.642 111.852 172.213 111.631C175.722 110.273 177.913 106.44 181.065 104.44L182.765 119.288L183.278 124.154C183.387 125.199 183.48 126.411 183.685 127.427C180.217 128.538 176.901 129.144 173.453 130.063C173.149 131.687 171.904 138.239 172.415 139.444C172.921 140.632 174.143 141.673 175.325 142.149C178.346 143.367 181.551 141.261 184.249 140.129C184.569 147.422 185.112 154.729 185.437 162.043L173.837 162.019C173.776 164.405 173.824 167.101 173.846 169.493C175.665 169.412 178.109 169.486 179.974 169.484C182.882 169.453 185.791 169.443 188.699 169.453C188.677 168.145 188.858 165.449 189.344 164.205C189.412 164.03 189.565 163.942 189.736 163.881C190.422 163.946 190.902 165.37 191.139 165.955C192.843 170.125 193.777 174.591 194.504 179.022C194.723 180.352 194.681 182.096 195 183.342V184.638L125.092 184.324C119.54 184.242 113.988 184.202 108.436 184.204C105.322 184.202 101.348 184.32 98.3116 184.137C97.7905 183.769 97.4284 184.116 97.149 183.9C97.5151 183.777 97.6149 183.938 97.9199 183.682C96.3502 183.777 95.3185 183.847 93.7706 183.521C93.8434 183.67 93.8719 183.7 94.0069 183.797C93.9017 183.909 93.843 183.966 93.7269 184.066C86.7316 183.968 79.7354 183.94 72.7395 183.982C66.9196 183.981 60.8059 184.039 55 183.853L55.0034 170.891C57.0322 170.907 59.1683 170.785 61.1962 170.715L69.5491 170.431C71.4275 170.356 72.9903 170.216 74.9053 170.235C74.8054 167.341 74.8838 163.929 74.883 160.998C73.62 161.24 71.2828 161.163 69.938 161.226C67.9714 161.319 65.9636 161.4 63.9963 161.396C64.0499 159.554 64.1801 157.994 64.2861 156.185C64.4288 153.298 64.5976 150.411 64.7921 147.526L65.8407 129.019C67.3493 130.798 71.069 134.226 73.5218 134.74C73.7829 134.794 74.2196 134.604 74.4004 134.399C75.7579 132.858 75.6619 129.822 75.7988 127.898C75.8903 126.612 75.9852 125.402 76.0151 124.191C72.8258 123.838 69.0048 123.009 65.7073 122.521C67.1002 117.106 68.2044 111.567 69.6485 106.156C69.7486 105.782 69.8551 105.226 69.9151 104.833C70.2116 102.889 70.8381 100.961 71.1483 99.0316C73.8441 99.9969 77.3623 101.285 80.1155 101.876C81.2826 99.9538 82.2542 97.2938 82.6116 95.0543C82.1727 93.7946 79.4344 90.8891 78.5509 89.5681C77.6814 88.2683 77.0002 86.9953 76.2542 85.6214C79.1466 79.9245 82.4739 74.5764 85.652 69.0488C86.6074 67.3871 87.9143 65.8574 88.9167 64.1397C89.6012 67.4814 90.3005 70.9012 91.6068 74.0613C92.064 75.1676 92.1838 76.1561 93.6997 76.0673C96.2254 75.9193 98.0861 73.9584 99.7171 72.2435C98.4125 69.0099 96.7878 65.9671 95.4386 62.7528C95.1508 62.0672 94.8236 61.377 94.5146 60.6999C96.5327 59.3795 98.4221 57.7138 100.437 56.372C102.45 55.0317 104.776 54.085 106.87 52.8442C107.895 52.2366 109.269 51.7142 110.367 51.2624L112.348 65.725C114.318 66.096 116.098 66.0056 117.629 64.5512C118.216 63.9944 118.645 63.2914 118.871 62.5145C119.231 61.2855 119.325 58.1305 119.387 56.7318L119.682 49.4215ZM152.936 84.4676C150.919 84.6662 150.704 85.034 149.379 86.5443C148.36 87.706 147.78 89.0058 146.878 90.2247C145.553 92.0156 144.271 93.9579 142.847 95.6709C142.234 96.408 141.199 97.0405 140.481 97.695C139.516 98.4989 138.662 99.2454 137.631 100.004C136.177 101.075 133.896 103.124 132.023 101.707C131.4 101.236 131.167 100.173 131.14 99.427C131.055 95.8085 131.497 92.0064 129.786 88.6626C128.911 86.9539 127.62 85.6669 125.566 85.7677C124.579 85.8162 123.692 86.4173 123.077 87.1606C121.631 88.9592 121.681 91.505 121.821 93.73C121.966 96.0295 123.947 99.5441 122.405 101.665C122.254 101.873 122.131 101.924 121.91 101.958C121.399 101.717 118.654 98.627 118.004 97.9598C117.188 97.1096 116.273 96.3909 115.412 95.5866C113.915 94.1885 112.404 92.465 110.729 91.2716C108.926 89.9869 106.904 88.4343 104.964 87.4146C103.481 86.6352 101.571 86.316 99.9348 86.036C97.965 85.7688 95.0603 85.5283 94.1786 87.8463C92.8304 91.3908 95.5286 94.8745 97.6056 97.4924C97.929 97.9529 98.2388 98.4191 98.5567 98.8813C99.1403 99.7295 99.6197 100.79 100.242 101.595C102.244 104.189 103.999 106.952 106.134 109.44C106.313 109.648 106.469 109.909 106.641 110.126C108.51 112.928 110.963 115.208 112.985 117.892C115.488 121.215 117.504 124.849 119.963 128.178C121.498 130.29 122.515 131.829 125.193 132.368C130.26 133.453 132.993 129.93 134.907 125.779C135.423 124.66 135.791 123.493 136.089 122.295C136.607 120.216 137.567 118.309 138.674 116.496C139.804 114.649 141.322 114.349 142.937 113.13C144.138 112.067 145.346 110.983 146.481 109.85C147.441 108.892 148.637 107.931 149.42 106.829C153.208 101.495 155.338 95.1379 155.371 88.5789C155.379 87.1875 155.439 85.8987 154.493 84.7705C153.896 84.5602 153.591 84.4667 152.936 84.4676Z" fill="#00B5F2"/>
<path d="M152.525 86.2858C152.593 86.2785 152.66 86.2716 152.727 86.2653C152.999 86.2403 153.522 86.1903 153.688 86.4292C154.31 87.3196 154.015 89.9003 153.909 90.8909C153.271 96.7925 151.148 102.935 146.927 107.24C146.316 108.046 145.225 108.622 144.588 109.34C142.388 111.819 139.126 112.926 137.304 115.732C136.512 116.953 136.207 117.928 135.735 119.189C134.299 123.027 133.687 126.738 130.359 129.509C127.819 131.624 124.581 131.009 122.355 128.732C120.396 126.728 118.965 123.91 117.439 121.571C116.226 119.712 114.799 117.851 113.598 115.965C113.046 115.09 111.948 114.2 111.28 113.363C109.829 111.544 108.351 109.744 106.87 107.95C105.785 106.599 104.831 105.066 103.761 103.695C103.101 102.848 102.434 102.005 101.815 101.13C100.673 99.5551 99.5781 97.5217 98.414 96.0276L98.3583 95.9573C98.0856 95.5787 97.7904 95.1594 97.5396 94.7634C96.5072 93.133 94.8678 91.2431 95.1896 89.1875C95.2908 88.5418 96.097 87.9455 96.699 87.8967C104.953 87.2276 111.06 93.7227 116.575 98.8831C118.149 100.356 119.495 102.143 121.243 103.424C122.249 104.059 123.209 103.284 123.696 102.398C126.01 98.1883 121.477 93.4386 123.66 89.1379C125.027 86.7185 127.874 87.7989 128.812 89.9241C130.424 93.4906 129.149 97.752 129.981 101.425C130.375 103.163 132.743 104.408 134.365 103.798C138.534 102.233 142.41 98.4086 145.334 95.1365C146.78 93.518 147.757 91.4072 149.068 89.6855C149.982 88.3818 150.804 86.7655 152.428 86.3121L152.525 86.2858Z" fill="#F31D93"/>
<path fill-rule="evenodd" clip-rule="evenodd" d="M93.356 140.239C94.9269 139.565 97.4026 139.479 98.9965 140.149C100.944 140.97 102.801 143.162 103.446 145.177C105.129 150.645 104.57 156.756 104.679 162.419C104.756 166.398 104.696 170.498 104.334 174.439C104.004 178.043 102.526 182.2 98.7868 183.441C98.5462 183.522 98.102 183.604 97.9182 183.682C96.3484 183.777 95.3167 183.847 93.7686 183.521C87.3889 180.964 87.8373 172.204 87.6776 166.526C87.5624 162.915 87.5659 159.3 87.6881 155.689C87.7504 153.374 87.8179 151.252 88.0727 148.924C88.4527 145.453 89.9276 141.71 93.356 140.239ZM95.7978 145.752C93.6754 146.156 93.2187 148.087 92.9952 149.951C92.5835 153.817 92.6474 157.767 92.672 161.654C92.6989 165.896 92.4725 170.302 93.2315 174.482C93.5764 176.382 94.435 177.669 96.5196 177.655C96.9831 177.579 97.4923 177.472 97.8754 177.183C99.526 175.937 99.4066 172.619 99.4897 170.737C99.6675 166.713 99.5104 162.67 99.566 158.643C99.5753 155.342 99.6343 151.966 99.1677 148.694C98.9004 146.82 97.7555 145.649 95.7978 145.752Z" fill="#FEFEFE"/>
<path d="M123.537 140.31C125.644 140.401 128.262 140.33 130.408 140.332L130.394 163.382C130.384 169.901 130.32 176.549 130.405 183.059C128.833 183.023 127.155 183.047 125.576 183.046L125.587 168.087C125.589 164.927 125.63 161.689 125.571 158.536C125.52 158.026 125.631 156.277 125.322 155.982L125.161 156.093C125.135 156.415 125.138 156.483 124.966 156.753C124.825 157.191 124.632 158.89 124.544 159.482L123.573 166.033L122.115 175.569C121.707 178.224 121.326 180.409 121.181 183.105C119.977 183.078 118.772 183.069 117.567 183.079C117.353 181.15 116.976 178.931 116.685 176.985C116.088 172.947 115.458 168.915 114.794 164.888C114.289 161.757 113.951 158.74 113.473 155.626L113.305 155.593C113.235 155.393 113.234 154.974 113.233 154.75L113.162 154.71C112.84 155.376 113.131 159.653 112.959 160.204L112.96 175.279L112.946 180.138C112.943 181.035 112.914 182.218 112.982 183.096C111.887 182.986 109.369 183.055 108.212 183.064L108.22 145.346C108.22 143.84 108.277 141.786 108.196 140.321C110.352 140.334 112.77 140.381 114.905 140.318C115.815 146.553 116.788 152.779 117.825 158.994C118.255 161.662 118.843 164.7 119.133 167.353L119.325 167.739C119.455 167.682 119.396 167.715 119.505 167.644L119.583 167.648C119.88 166.265 120.059 164.725 120.264 163.319C120.723 160.472 121.046 157.622 121.398 154.765C121.99 149.954 122.771 145.095 123.537 140.31Z" fill="#FEFEFE"/>
<path fill-rule="evenodd" clip-rule="evenodd" d="M148.251 140.36C151.277 140.586 155.359 139.924 158.163 140.976C162.807 142.719 162.673 149.084 162.506 153.137C162.397 155.767 161.504 158.584 158.923 159.612C160.464 160.205 161.719 161.369 162.426 162.862C163.935 166.116 163.508 175.021 162.241 178.557C161.855 179.541 161.232 180.423 160.487 181.17C159.733 181.926 158.834 182.465 157.804 182.754C155.913 183.285 150.525 183.041 148.265 183.057L148.251 140.36ZM153.154 177.078C154.832 177.079 156.135 177.294 157.41 176.096C158.837 174.156 158.505 168.715 158.2 166.302C157.809 163.196 155.759 163.119 153.145 163.069L153.154 177.078ZM153.146 146.208L153.154 157.42C154.651 157.419 155.673 157.596 156.806 156.491C158.054 155.023 157.793 151.513 157.68 149.621C157.474 146.199 155.827 146.191 153.146 146.208Z" fill="#FEFEFE"/>
<path d="M133.823 140.316C137.795 140.429 142.125 140.305 146.14 140.337C146.13 142.432 146.133 144.527 146.146 146.622L138.729 146.626C138.747 150.353 138.679 154.125 138.751 157.848C140.693 157.874 142.657 157.804 144.583 157.852C144.542 159.583 144.477 163.05 144.596 164.706C142.785 164.618 140.531 164.674 138.687 164.67L138.679 183.037L133.788 183.03L133.838 154.623C133.843 149.895 133.903 145.033 133.823 140.316Z" fill="#FEFEFE"/>
</svg>
