<svg width="250" height="250" viewBox="0 0 250 250" fill="none" xmlns="http://www.w3.org/2000/svg">
<path d="M0 125C0 55.9644 55.9644 0 125 0C194.036 0 250 55.9644 250 125C250 194.036 194.036 250 125 250C55.9644 250 0 194.036 0 125Z" fill="white"/>
<path fill-rule="evenodd" clip-rule="evenodd" d="M119.681 49.4217C122.156 49.3693 124.482 49.3131 126.959 49.4366C129.586 49.5676 132.016 49.8629 134.612 50.1946C134.23 52.4695 132.737 61.694 133.576 63.2565C134.578 65.1242 137.101 65.9272 138.991 66.4769C140.165 62.0023 141.429 57.03 142.413 52.509C143.955 53.5199 145.267 54.5934 146.944 55.4637C147.613 55.8111 148.802 56.7446 149.423 57.2183C151.249 58.6109 152.923 60.1684 154.879 61.4056C155.376 61.7253 155.972 62.2717 156.429 62.6702C156.143 64.293 155.656 66.0321 155.257 67.643C154.592 70.421 153.857 73.1818 153.052 75.9224C154.871 78.6776 156.892 80.2697 158.363 83.4884C159.738 80.3058 161.421 77.2825 162.862 74.1312C163.393 72.9731 164.094 71.8982 164.578 70.7031C165.653 72.9449 166.646 75.2673 167.781 77.4771C168.72 79.3055 169.819 81.0962 170.691 82.9721C171.04 83.7236 171.734 84.5836 172.058 85.3168C173.267 88.0565 174.749 90.6267 176.086 93.2942C174.042 94.6578 171.99 96.0506 169.764 97.0946C168.955 97.474 168.217 97.9927 167.373 98.3558C167.457 98.6923 167.512 99.0447 167.58 99.3861C168.252 102.761 169.034 106.12 169.85 109.463C170.052 110.292 170.276 111.165 170.385 112.009C170.991 111.921 171.641 111.853 172.212 111.632C175.721 110.273 177.912 106.44 181.064 104.44L182.764 119.288L183.277 124.154C183.386 125.2 183.479 126.411 183.684 127.427C180.216 128.539 176.9 129.144 173.452 130.063C173.148 131.688 171.903 138.24 172.414 139.444C172.92 140.632 174.142 141.674 175.324 142.15C178.345 143.367 181.55 141.261 184.248 140.129C184.568 147.422 185.111 154.729 185.436 162.043L173.836 162.019C173.775 164.405 173.823 167.101 173.845 169.494C175.664 169.412 178.108 169.486 179.973 169.484C182.881 169.453 185.79 169.443 188.698 169.454C188.676 168.145 188.857 165.45 189.343 164.205C189.411 164.031 189.564 163.943 189.735 163.881C190.421 163.946 190.901 165.37 191.138 165.955C192.842 170.125 193.776 174.591 194.503 179.022C194.722 180.352 194.68 182.096 194.999 183.342V184.638L125.091 184.324C119.539 184.243 113.987 184.202 108.435 184.205C105.321 184.202 101.347 184.32 98.3106 184.138C97.7896 183.769 97.4274 184.116 97.148 183.9C97.5141 183.778 97.6139 183.938 97.9189 183.682C96.3492 183.777 95.3176 183.847 93.7696 183.522C93.8425 183.671 93.8709 183.7 94.0059 183.797C93.9008 183.909 93.8421 183.966 93.7259 184.066C86.7306 183.968 79.7344 183.94 72.7385 183.982C66.9186 183.981 60.8049 184.039 54.999 183.854L55.0025 170.892C57.0312 170.907 59.1674 170.786 61.1953 170.715L69.5481 170.431C71.4265 170.357 72.9894 170.216 74.9043 170.235C74.8044 167.341 74.8828 163.929 74.882 160.998C73.619 161.241 71.2818 161.163 69.937 161.227C67.9704 161.319 65.9626 161.4 63.9954 161.396C64.0489 159.555 64.1791 157.994 64.2851 156.186C64.4278 153.298 64.5966 150.411 64.7911 147.526L65.8397 129.019C67.3483 130.798 71.068 134.226 73.5208 134.74C73.7819 134.794 74.2187 134.605 74.3995 134.399C75.757 132.858 75.6609 129.822 75.7978 127.898C75.8893 126.612 75.9842 125.402 76.0141 124.192C72.8248 123.838 69.0038 123.009 65.7063 122.521C67.0992 117.106 68.2034 111.567 69.6476 106.157C69.7476 105.782 69.8542 105.227 69.9141 104.833C70.2107 102.889 70.8371 100.961 71.1473 99.0318C73.8431 99.9971 77.3614 101.285 80.1145 101.876C81.2816 99.9541 82.2532 97.294 82.6106 95.0546C82.1717 93.7948 79.4334 90.8893 78.5499 89.5684C77.6805 88.2685 76.9992 86.9956 76.2532 85.6216C79.1456 79.9247 82.4729 74.5766 85.651 69.049C86.6064 67.3873 87.9133 65.8577 88.9157 64.14C89.6003 67.4816 90.2995 70.9014 91.6058 74.0615C92.0631 75.1679 92.1828 76.1564 93.6987 76.0676C96.2244 75.9196 98.0851 73.9587 99.7161 72.2437C98.4115 69.0102 96.7869 65.9673 95.4377 62.7531C95.1499 62.0674 94.8226 61.3772 94.5136 60.7002C96.5317 59.3797 98.4211 57.714 100.436 56.3723C102.449 55.0319 104.775 54.0852 106.869 52.8444C107.894 52.2369 109.268 51.7145 110.366 51.2627L112.347 65.7252C114.317 66.0962 116.097 66.0059 117.628 64.5514C118.216 63.9946 118.644 63.2916 118.871 62.5148C119.23 61.2858 119.324 58.1308 119.386 56.732L119.681 49.4217ZM152.935 84.4679C150.918 84.6665 150.703 85.0342 149.378 86.5445C148.359 87.7062 147.779 89.0061 146.877 90.2249C145.552 92.0159 144.27 93.9582 142.846 95.6712C142.233 96.4082 141.198 97.0407 140.48 97.6952C139.515 98.4992 138.661 99.2456 137.63 100.004C136.176 101.075 133.895 103.124 132.022 101.707C131.399 101.236 131.166 100.174 131.139 99.4273C131.054 95.8088 131.496 92.0067 129.785 88.6629C128.91 86.9541 127.619 85.6671 125.565 85.7679C124.578 85.8165 123.691 86.4176 123.076 87.1608C121.63 88.9594 121.68 91.5053 121.82 93.7302C121.965 96.0297 123.946 99.5443 122.404 101.665C122.253 101.873 122.13 101.924 121.909 101.959C121.398 101.717 118.653 98.6272 118.003 97.9601C117.187 97.1098 116.272 96.3911 115.411 95.5869C113.914 94.1888 112.403 92.4652 110.728 91.2718C108.925 89.9871 106.903 88.4345 104.963 87.4148C103.48 86.6354 101.57 86.3162 99.9338 86.0362C97.964 85.769 95.0593 85.5285 94.1776 87.8466C92.8294 91.391 95.5276 94.8747 97.6046 97.4926C97.928 97.9532 98.2378 98.4193 98.5558 98.8816C99.1393 99.7297 99.6188 100.79 100.241 101.596C102.243 104.189 103.998 106.953 106.133 109.44C106.312 109.648 106.468 109.91 106.64 110.126C108.51 112.928 110.962 115.209 112.984 117.892C115.487 121.215 117.503 124.849 119.962 128.178C121.497 130.29 122.514 131.829 125.192 132.368C130.259 133.453 132.992 129.93 134.906 125.78C135.422 124.66 135.79 123.493 136.088 122.296C136.606 120.216 137.566 118.309 138.673 116.496C139.803 114.649 141.321 114.35 142.936 113.13C144.137 112.068 145.345 110.984 146.48 109.851C147.44 108.892 148.636 107.931 149.419 106.829C153.207 101.495 155.337 95.1382 155.37 88.5792C155.378 87.1877 155.438 85.8989 154.492 84.7708C153.895 84.5605 153.59 84.4669 152.935 84.4679Z" fill="#00B5F2"/>
<path d="M152.525 86.2858C152.593 86.2785 152.66 86.2716 152.727 86.2653C152.999 86.2403 153.522 86.1903 153.688 86.4292C154.31 87.3196 154.015 89.9003 153.909 90.8909C153.271 96.7925 151.148 102.935 146.927 107.24C146.316 108.046 145.225 108.622 144.588 109.34C142.388 111.819 139.126 112.926 137.304 115.732C136.512 116.953 136.207 117.928 135.735 119.189C134.299 123.027 133.687 126.738 130.359 129.509C127.819 131.624 124.581 131.009 122.355 128.732C120.396 126.728 118.965 123.91 117.439 121.571C116.226 119.712 114.799 117.851 113.598 115.965C113.046 115.09 111.948 114.2 111.28 113.363C109.829 111.544 108.351 109.744 106.87 107.95C105.785 106.599 104.831 105.066 103.761 103.695C103.101 102.848 102.434 102.005 101.815 101.13C100.673 99.5551 99.5781 97.5217 98.414 96.0276L98.3583 95.9573C98.0856 95.5787 97.7904 95.1594 97.5396 94.7634C96.5072 93.133 94.8678 91.2431 95.1896 89.1875C95.2908 88.5418 96.097 87.9455 96.699 87.8967C104.953 87.2276 111.06 93.7227 116.575 98.8831C118.149 100.356 119.495 102.143 121.243 103.424C122.249 104.059 123.209 103.284 123.696 102.398C126.01 98.1883 121.477 93.4386 123.66 89.1379C125.027 86.7185 127.874 87.7989 128.812 89.9241C130.424 93.4906 129.149 97.752 129.981 101.425C130.375 103.163 132.743 104.408 134.365 103.798C138.534 102.233 142.41 98.4086 145.334 95.1365C146.78 93.518 147.757 91.4072 149.068 89.6855C149.982 88.3818 150.804 86.7655 152.428 86.3121L152.525 86.2858Z" fill="#F31D93"/>
<path fill-rule="evenodd" clip-rule="evenodd" d="M93.357 140.239C94.9279 139.565 97.4035 139.48 98.9975 140.15C100.945 140.971 102.802 143.162 103.447 145.177C105.13 150.646 104.571 156.756 104.68 162.42C104.757 166.398 104.697 170.499 104.335 174.44C104.005 178.044 102.527 182.201 98.7878 183.442C98.5472 183.522 98.103 183.604 97.9192 183.682C96.3494 183.777 95.3176 183.847 93.7696 183.522C87.3899 180.964 87.8383 172.204 87.6785 166.527C87.5634 162.916 87.5669 159.301 87.6891 155.69C87.7513 153.375 87.8189 151.253 88.0737 148.925C88.4537 145.454 89.9286 141.711 93.357 140.239ZM95.7988 145.752C93.6764 146.157 93.2197 148.088 92.9962 149.951C92.5845 153.818 92.6484 157.767 92.673 161.655C92.6998 165.896 92.4735 170.303 93.2324 174.483C93.5773 176.382 94.436 177.67 96.5206 177.656C96.9841 177.58 97.4933 177.472 97.8763 177.184C99.527 175.938 99.4076 172.619 99.4907 170.738C99.6685 166.713 99.5114 162.671 99.567 158.643C99.5763 155.342 99.6352 151.967 99.1687 148.695C98.9014 146.82 97.7564 145.65 95.7988 145.752Z" fill="#FEFEFE"/>
<path d="M123.538 140.311C125.645 140.401 128.263 140.331 130.409 140.332L130.395 163.382C130.385 169.902 130.321 176.549 130.406 183.06C128.834 183.023 127.156 183.048 125.577 183.047L125.588 168.088C125.589 164.928 125.631 161.689 125.572 158.536C125.521 158.027 125.632 156.278 125.323 155.982L125.162 156.093C125.136 156.415 125.139 156.483 124.967 156.753C124.826 157.191 124.633 158.89 124.545 159.483L123.574 166.033L122.116 175.569C121.708 178.224 121.327 180.41 121.182 183.105C119.978 183.078 118.773 183.069 117.568 183.079C117.354 181.15 116.977 178.932 116.686 176.985C116.089 172.948 115.459 168.915 114.795 164.888C114.29 161.757 113.952 158.741 113.474 155.626L113.306 155.594C113.236 155.393 113.235 154.974 113.234 154.75L113.163 154.71C112.841 155.377 113.132 159.653 112.96 160.204L112.961 175.279L112.947 180.139C112.944 181.035 112.915 182.219 112.983 183.097C111.888 182.987 109.37 183.056 108.213 183.064L108.221 145.347C108.221 143.841 108.278 141.786 108.197 140.321C110.353 140.335 112.771 140.382 114.906 140.319C115.816 146.554 116.789 152.779 117.826 158.994C118.256 161.663 118.844 164.7 119.134 167.353L119.326 167.74C119.456 167.683 119.397 167.716 119.506 167.645L119.584 167.649C119.881 166.265 120.06 164.725 120.265 163.319C120.724 160.473 121.047 157.623 121.399 154.765C121.991 149.954 122.772 145.096 123.538 140.311Z" fill="#FEFEFE"/>
<path fill-rule="evenodd" clip-rule="evenodd" d="M148.252 140.361C151.278 140.587 155.36 139.925 158.163 140.977C162.808 142.72 162.674 149.085 162.507 153.137C162.398 155.767 161.505 158.584 158.924 159.612C160.465 160.206 161.72 161.369 162.426 162.862C163.935 166.117 163.509 175.021 162.242 178.558C161.856 179.542 161.233 180.423 160.488 181.17C159.734 181.926 158.835 182.465 157.805 182.754C155.914 183.285 150.526 183.042 148.266 183.058L148.252 140.361ZM153.155 177.078C154.833 177.08 156.136 177.295 157.411 176.096C158.838 174.157 158.505 168.715 158.201 166.302C157.81 163.197 155.76 163.12 153.146 163.07L153.155 177.078ZM153.147 146.209L153.155 157.42C154.652 157.42 155.674 157.596 156.807 156.491C158.055 155.023 157.794 151.514 157.681 149.621C157.475 146.199 155.828 146.192 153.147 146.209Z" fill="#FEFEFE"/>
<path d="M133.824 140.317C137.796 140.429 142.126 140.306 146.141 140.338C146.131 142.433 146.134 144.528 146.147 146.623L138.73 146.626C138.748 150.354 138.68 154.126 138.752 157.848C140.694 157.875 142.658 157.804 144.584 157.853C144.543 159.584 144.478 163.05 144.597 164.706C142.786 164.619 140.532 164.675 138.688 164.67L138.68 183.037L133.789 183.031L133.839 154.624C133.844 149.896 133.904 145.033 133.824 140.317Z" fill="#FEFEFE"/>
</svg>
