<svg width="250" height="250" viewBox="0 0 250 250" fill="none" xmlns="http://www.w3.org/2000/svg">
<mask id="path-1-inside-1_453_355" fill="white">
<path d="M0 125C0 55.9644 55.9644 0 125 0C194.036 0 250 55.9644 250 125C250 194.036 194.036 250 125 250C55.9644 250 0 194.036 0 125Z"/>
</mask>
<path d="M0 125C0 55.9644 55.9644 0 125 0C194.036 0 250 55.9644 250 125C250 194.036 194.036 250 125 250C55.9644 250 0 194.036 0 125Z" fill="white"/>
<path d="M0 125M250 125M250 125M0 125M125 0M250 125M125 250M0 125M125 250V248C57.069 248 2 192.931 2 125H0H-2C-2 195.14 54.8598 252 125 252V250ZM250 125H248C248 192.931 192.931 248 125 248V250V252C195.14 252 252 195.14 252 125H250ZM125 0V2C192.931 2 248 57.069 248 125H250H252C252 54.8598 195.14 -2 125 -2V0ZM125 0V-2C54.8598 -2 -2 54.8598 -2 125H0H2C2 57.069 57.069 2 125 2V0Z" fill="#DDDBDB" mask="url(#path-1-inside-1_453_355)"/>
<path d="M107.695 123.806C127.293 122.517 144.239 137.328 145.585 156.922C146.931 176.517 132.168 193.506 112.578 194.908C92.9077 196.315 75.8348 181.479 74.4836 161.805C73.1325 142.131 88.0169 125.101 107.695 123.806ZM114.793 167.384C124.09 166.876 131.227 158.949 130.76 149.65C130.293 140.352 122.399 133.179 113.098 133.604C103.738 134.031 96.5093 141.987 96.9789 151.345C97.4484 160.704 105.437 167.897 114.793 167.384Z" fill="#02C85D"/>
<path d="M139.225 55.0084C158.899 54.5843 175.187 70.1991 175.593 89.8734C175.999 109.548 160.369 125.821 140.695 126.209C121.046 126.596 104.798 110.991 104.393 91.3425C103.987 71.694 119.577 55.4321 139.225 55.0084ZM135.092 120.449C144.437 120.034 151.676 112.123 151.264 102.778C150.851 93.4329 142.943 86.1908 133.598 86.6003C124.249 87.0101 117.003 94.9228 117.415 104.272C117.828 113.621 125.743 120.864 135.092 120.449Z" fill="#2940BE"/>
</svg>
