<svg width="250" height="250" viewBox="0 0 250 250" fill="none" xmlns="http://www.w3.org/2000/svg">
<path d="M0 125C0 55.9644 55.9644 0 125 0C194.036 0 250 55.9644 250 125C250 194.036 194.036 250 125 250C55.9644 250 0 194.036 0 125Z" fill="#070724"/>
<path d="M94.1896 113.567C72.4615 113.514 57.1364 119.455 55.1991 129.433C52.2876 144.43 81.5805 164.429 120.544 171.993C159.509 179.558 191.879 174.907 194.79 159.911C197.043 148.31 180.915 134.366 155.456 125.145V127.346C175.717 135.268 188.32 146.607 186.477 156.096C183.979 168.964 155.999 172.914 122.303 166.372C88.6061 159.83 63.2549 142.628 65.7531 129.761C67.2558 122.021 78.2209 117.127 94.1896 116.312V113.567Z" fill="#D7EA58"/>
<path d="M75.9667 128.76C80.0245 123.243 93.9978 122.168 93.9978 122.168V118.29C93.9978 118.29 85.6608 118.872 80.0382 121.586C75.8433 123.611 73.0116 126.097 72.283 130.698C71.7099 134.317 74.6096 139.035 74.6096 139.035C74.6096 139.035 73.2462 132.458 75.9667 128.76Z" fill="#D9D9D9"/>
<path d="M155.455 132.866C157.587 133.993 159.955 134.955 162.434 136.514C172.378 142.765 180.052 151.519 176.2 157.647C174.299 160.67 170.545 163.212 165.807 163.889C171.841 163.566 176.831 160.266 179.273 156.382C183.18 150.473 176.588 141.942 166.506 134.963C163.21 133.024 159.526 130.891 155.455 129.406V132.866Z" fill="#D9D9D9"/>
<path d="M117.84 93.5475C120.391 92.7474 123.169 91.8237 126.177 90.7574C127.997 90.1123 129.742 89.4249 131.412 88.707V166.037C129.16 165.685 126.894 165.283 124.636 164.85C122.382 164.417 120.104 163.939 117.84 163.412V93.5475Z" fill="white"/>
<path d="M139.944 84.4636V167.117C144.736 167.558 149.334 167.661 153.515 167.253V74.4365C150.405 77.1816 145.868 81.0918 139.944 84.4636Z" fill="white"/>
<path d="M95.7432 98.6644C97.2418 98.5322 101.663 98.0057 109.315 96.0088V161.159C104.307 159.655 99.6293 157.885 95.7432 155.828V98.6644Z" fill="white"/>
</svg>
