<svg width="250" height="250" viewBox="0 0 250 250" fill="none" xmlns="http://www.w3.org/2000/svg">
<path d="M0 125C0 55.9644 55.9644 0 125 0C194.036 0 250 55.9644 250 125C250 194.036 194.036 250 125 250C55.9644 250 0 194.036 0 125Z" fill="#070724"/>
<path d="M94.1901 113.566C72.462 113.514 57.1369 119.455 55.1995 129.433C52.288 144.429 81.581 164.428 120.545 171.993C159.509 179.558 191.879 174.907 194.791 159.911C197.043 148.309 180.915 134.365 155.457 125.145V127.345C175.718 135.268 188.321 146.606 186.478 156.096C183.98 168.963 156 172.914 122.303 166.371C88.6066 159.829 63.2554 142.627 65.7536 129.76C67.2563 122.021 78.2214 117.126 94.1901 116.311V113.566Z" fill="#D7EA58"/>
<path d="M75.9667 128.759C80.0245 123.242 93.9978 122.167 93.9978 122.167V118.289C93.9978 118.289 85.6608 118.871 80.0382 121.585C75.8433 123.61 73.0116 126.096 72.283 130.697C71.7099 134.316 74.6096 139.034 74.6096 139.034C74.6096 139.034 73.2462 132.457 75.9667 128.759Z" fill="#D9D9D9"/>
<path d="M155.455 132.866C157.588 133.993 159.956 134.954 162.435 136.513C172.379 142.765 180.053 151.519 176.201 157.646C174.3 160.67 170.546 163.211 165.807 163.888C171.842 163.565 176.832 160.265 179.273 156.381C183.18 150.472 176.588 141.942 166.506 134.962C163.21 133.023 159.527 130.891 155.455 129.406V132.866Z" fill="#D9D9D9"/>
<path d="M117.841 93.547C120.392 92.7469 123.169 91.8232 126.178 90.7569C127.998 90.1118 129.743 89.4244 131.413 88.7065V166.037C129.161 165.684 126.895 165.283 124.637 164.85C122.382 164.417 120.105 163.938 117.841 163.412V93.547Z" fill="white"/>
<path d="M139.943 84.4631V167.116C144.736 167.557 149.334 167.661 153.515 167.252V74.436C150.405 77.1812 145.868 81.0914 139.943 84.4631Z" fill="white"/>
<path d="M95.7432 98.6642C97.2418 98.532 101.663 98.0055 109.315 96.0085V161.158C104.307 159.655 99.6293 157.885 95.7432 155.827V98.6642Z" fill="white"/>
</svg>
