<svg width="250" height="250" viewBox="0 0 250 250" fill="none" xmlns="http://www.w3.org/2000/svg">
<path d="M0 125C0 55.9644 55.9644 0 125 0C194.036 0 250 55.9644 250 125C250 194.036 194.036 250 125 250C55.9644 250 0 194.036 0 125Z" fill="white"/>
<path d="M167.551 152.831C165.452 152.722 163.374 152.372 161.356 151.786C158.382 150.937 155.592 149.536 153.134 147.658C150.745 145.821 148.75 143.521 147.27 140.895C146.202 139.018 145.39 137.008 144.854 134.916C144.544 133.682 144.321 132.427 144.184 131.161C144.076 130.179 144.036 129.195 144.023 128.212C144.013 127.412 144.047 126.609 144.11 125.809C144.192 124.734 144.331 123.665 144.528 122.605C144.848 120.902 145.359 119.24 146.052 117.651C146.765 115.996 147.672 114.431 148.755 112.99C150.638 110.503 153.025 108.444 155.761 106.946C158.633 105.366 161.774 104.333 165.023 103.9C166.127 103.745 167.234 103.677 168.345 103.613C169.387 103.565 170.432 103.578 171.473 103.651C174.999 103.832 178.459 104.681 181.67 106.15C183.63 107.053 185.459 108.221 187.102 109.621C188.731 111.02 190.14 112.658 191.281 114.478C192.238 115.992 193.02 117.611 193.608 119.304C194.153 120.899 194.534 122.546 194.746 124.219C194.916 125.494 194.954 126.775 194.998 127.807C195.029 130.715 194.601 133.61 193.732 136.386C192.819 139.222 191.379 141.862 189.489 144.165C186.905 147.265 183.559 149.638 179.779 151.052C177.679 151.861 175.484 152.402 173.248 152.658C172.259 152.776 171.263 152.826 170.267 152.876C169.987 152.89 169.707 152.897 169.426 152.897C168.8 152.899 168.174 152.868 167.551 152.831ZM166.747 114.086C164.777 114.465 162.926 115.309 161.346 116.545C159.882 117.664 158.689 119.097 157.852 120.738C156.868 122.692 156.307 124.83 156.207 127.015C156.081 128.953 156.286 130.9 156.814 132.769C157.482 135.267 158.845 137.524 160.745 139.279C161.939 140.361 163.333 141.198 164.848 141.745C166.957 142.488 169.214 142.709 171.426 142.39C173.985 142.068 176.382 140.962 178.286 139.223C180.045 137.624 181.342 135.58 182.04 133.308C182.591 131.577 182.855 129.768 182.821 127.952C182.836 127.333 182.805 126.713 182.725 126.099C182.552 124.523 182.137 122.983 181.497 121.532C180.348 118.836 178.291 116.626 175.682 115.289C174.139 114.492 172.45 114.016 170.717 113.888C170.289 113.852 169.861 113.834 169.434 113.834C168.532 113.834 167.633 113.918 166.747 114.086ZM78.5676 152.834C76.5283 152.729 74.5072 152.396 72.5416 151.842C70.0506 151.148 67.6815 150.074 65.517 148.659C63.8007 147.529 62.2461 146.171 60.8959 144.622C59.582 143.115 58.4706 141.443 57.59 139.648C56.4687 137.383 55.7094 134.956 55.3387 132.456C55.1846 131.448 55.0854 130.433 55.0426 129.414C55.012 128.751 54.9871 128.082 55.0062 127.418C55.0358 124.328 55.6187 121.268 56.7278 118.383C57.6929 115.908 59.0889 113.623 60.8501 111.635C63.0127 109.232 65.6591 107.313 68.6155 106.004C71.0484 104.915 73.6289 104.191 76.2734 103.858C77.2615 103.724 78.2564 103.644 79.2533 103.619C79.7813 103.609 80.3048 103.565 80.8348 103.579C83.8909 103.608 86.9253 104.099 89.8351 105.034C92.7015 105.96 95.3715 107.41 97.7088 109.31C99.5039 110.783 101.047 112.537 102.279 114.505C103.86 117.015 104.95 119.804 105.489 122.722C105.679 123.76 105.811 124.807 105.886 125.859C105.946 126.592 105.933 127.323 105.946 127.709C106.002 130.144 105.727 132.574 105.13 134.935C104.358 137.992 102.983 140.864 101.088 143.384C99.2065 145.886 96.8213 147.965 94.0853 149.487C91.1947 151.105 88.0226 152.16 84.7385 152.595C83.6251 152.75 82.509 152.824 81.3822 152.873C81.0809 152.887 80.7783 152.893 80.477 152.893C79.8409 152.892 79.2038 152.868 78.5676 152.834ZM79.2197 113.89C78.2693 113.959 77.3291 114.135 76.4182 114.414C74.1806 115.105 72.1742 116.394 70.6136 118.14C69.7711 119.08 69.0782 120.145 68.5604 121.296C67.6011 123.446 67.1294 125.78 67.1779 128.134C67.1553 129.725 67.3697 131.311 67.814 132.839C68.502 135.356 69.8972 137.622 71.8354 139.368C73.2489 140.621 74.9324 141.533 76.7545 142.032C78.5873 142.526 80.5004 142.647 82.3807 142.388C85.0905 142.051 87.6165 140.838 89.5735 138.933C91.1411 137.418 92.3072 135.537 92.9672 133.459C93.6737 131.307 93.9446 129.034 93.764 126.776C93.6647 125.31 93.3607 123.866 92.8616 122.484C92.1263 120.372 90.8607 118.484 89.1859 117.001C87.7392 115.733 86.0218 114.814 84.1649 114.313C82.9805 113.99 81.7579 113.829 80.5302 113.834C80.0941 113.834 79.6578 113.854 79.2197 113.89ZM135.929 151.21C134.169 148.945 132.396 146.69 130.628 144.435C127.905 140.962 125.181 137.489 122.456 134.015C121.844 133.239 121.24 132.462 120.632 131.685C120.541 131.546 120.429 131.421 120.3 131.316C120.253 131.463 120.24 131.619 120.26 131.772C120.256 138.171 120.256 144.569 120.26 150.967C120.26 151.686 120.282 151.622 119.608 151.622H109.696C109.163 151.622 109.163 151.622 109.163 151.095C109.163 135.864 109.163 120.634 109.163 105.407C109.163 104.864 109.163 104.865 109.718 104.865H119.733C120.26 104.865 120.26 104.864 120.26 105.402C120.26 112.672 120.26 119.941 120.26 127.211C120.26 127.763 120.175 127.716 120.738 128.039C122.283 128.907 123.997 129.433 125.763 129.58C127.364 129.745 128.98 129.655 130.552 129.311C130.665 129.275 130.786 129.277 130.898 129.316C131.01 129.354 131.107 129.427 131.174 129.525C132.182 130.759 133.203 131.985 134.221 133.21C135.53 134.791 136.839 136.37 138.152 137.946C139.3 139.332 140.448 140.718 141.596 142.105C142.899 143.674 144.202 145.244 145.507 146.816C146.744 148.305 147.981 149.795 149.219 151.288C149.243 151.313 149.265 151.34 149.285 151.368C149.321 151.425 149.38 151.477 149.355 151.552C149.33 151.626 149.268 151.617 149.21 151.613C149.199 151.611 149.187 151.611 149.175 151.613C149.085 151.619 148.994 151.613 148.903 151.613C144.864 151.613 140.824 151.606 136.789 151.623H136.775C136.61 151.633 136.446 151.599 136.298 151.527C136.149 151.455 136.022 151.346 135.929 151.21Z" fill="#00846A"/>
<path d="M127.348 127.806C125.786 127.787 124.24 127.499 122.776 126.956C122.733 126.94 122.689 126.925 122.649 126.906C122.392 126.791 122.379 126.772 122.501 126.524C122.713 126.105 122.953 125.7 123.22 125.313C124.465 123.47 126.161 121.975 128.145 120.971C129.499 120.288 130.96 119.846 132.465 119.663C134.336 119.437 136.235 119.614 138.032 120.185C138.284 120.262 138.531 120.355 138.776 120.451C139.042 120.552 139.063 120.607 138.936 120.858C138.713 121.285 138.464 121.696 138.19 122.091C136.565 124.483 134.188 126.266 131.437 127.157C130.469 127.479 129.464 127.677 128.445 127.748C128.107 127.77 127.771 127.805 127.43 127.805L127.348 127.806ZM123.574 122.046C123.38 121.617 123.212 121.177 123.071 120.728C122.559 119.167 122.353 117.522 122.463 115.882C122.593 113.79 123.229 111.761 124.317 109.97C125.414 108.156 126.935 106.635 128.747 105.535C128.783 105.51 128.825 105.485 128.865 105.463C129.112 105.336 129.159 105.349 129.277 105.615C129.745 106.675 130.068 107.794 130.239 108.941C130.345 109.586 130.394 110.24 130.385 110.895C130.391 114.01 129.277 117.024 127.246 119.386C126.342 120.457 125.264 121.368 124.058 122.081C124.007 122.109 123.962 122.14 123.908 122.164C123.854 122.199 123.794 122.223 123.73 122.232C123.669 122.232 123.633 122.176 123.574 122.046Z" fill="#66B464"/>
<path d="M151.101 97.8901C151.039 98.8771 150.866 99.8539 150.585 100.802C150.047 102.624 149.115 104.306 147.855 105.728C146.576 107.181 144.988 108.328 143.208 109.086C141.938 109.623 140.594 109.964 139.222 110.098C138.895 110.131 138.833 110.083 138.832 109.755C138.842 109.055 138.923 108.358 139.074 107.675C139.519 105.409 140.569 103.307 142.114 101.591C144.115 99.3228 146.85 97.8298 149.84 97.3727C150.123 97.3261 150.407 97.2872 150.692 97.256C151.035 97.2177 151.095 97.2751 151.099 97.6204C151.099 97.6893 151.099 97.7581 151.099 97.8892" fill="#C7D340"/>
<path d="M130.953 117.862C130.436 117.679 130.443 117.651 130.711 117.165C131.398 115.942 132.289 114.846 133.348 113.926C134.421 112.986 135.656 112.249 136.993 111.75C137.958 111.381 138.966 111.136 139.994 111.021C141.918 110.82 143.863 111.073 145.671 111.761C145.943 111.864 145.957 111.916 145.813 112.198C145.41 112.948 144.929 113.654 144.378 114.303C143.296 115.587 141.957 116.63 140.447 117.364C139.158 117.999 137.764 118.395 136.334 118.534C135.933 118.574 135.533 118.587 134.971 118.595H134.885C133.543 118.573 132.214 118.324 130.953 117.862ZM132.503 112.705C131.976 111.482 131.645 110.184 131.521 108.858C131.321 106.701 131.701 104.53 132.622 102.569C133.126 101.489 133.784 100.487 134.575 99.5951C135.379 98.6969 136.309 97.9186 137.334 97.2841C137.352 97.2709 137.371 97.2596 137.392 97.2505C137.759 97.0305 137.769 97.0322 137.932 97.4177C138.567 98.8637 138.904 100.422 138.924 102.001C138.98 104.491 138.281 106.938 136.92 109.023C135.901 110.585 134.535 111.891 132.928 112.837C132.858 112.89 132.776 112.927 132.689 112.945C132.616 112.945 132.579 112.872 132.505 112.705H132.503Z" fill="#ADCB64"/>
</svg>
