<svg width="250" height="250" viewBox="0 0 250 250" fill="none" xmlns="http://www.w3.org/2000/svg">
<mask id="path-1-inside-1_453_102" fill="white">
<path d="M0 125C0 55.9644 55.9644 0 125 0C194.036 0 250 55.9644 250 125C250 194.036 194.036 250 125 250C55.9644 250 0 194.036 0 125Z"/>
</mask>
<path d="M0 125C0 55.9644 55.9644 0 125 0C194.036 0 250 55.9644 250 125C250 194.036 194.036 250 125 250C55.9644 250 0 194.036 0 125Z" fill="white"/>
<path d="M0 125M250 125M250 125M0 125M125 0M250 125M125 250M0 125M125 250V248C57.069 248 2 192.931 2 125H0H-2C-2 195.14 54.8598 252 125 252V250ZM250 125H248C248 192.931 192.931 248 125 248V250V252C195.14 252 252 195.14 252 125H250ZM125 0V2C192.931 2 248 57.069 248 125H250H252C252 54.8598 195.14 -2 125 -2V0ZM125 0V-2C54.8598 -2 -2 54.8598 -2 125H0H2C2 57.069 57.069 2 125 2V0Z" fill="#DDDBDB" mask="url(#path-1-inside-1_453_102)"/>
<path d="M85.0543 113.012C76.3747 109.472 70.1175 107.903 57.0214 105.682C60.9614 92.1425 80.8279 55.0317 123.807 55.0317C160.933 55.0256 183.214 78.8377 191.065 101.195C178.138 104.853 172.787 106.68 164.053 109.844C161.189 101.218 150.099 82.0685 125.688 82.0685C98.6725 82.0685 87.2582 102.597 85.0543 113.012Z" fill="#499547"/>
<path d="M78.1901 177.307C53.9036 155.008 53.9028 129.53 55.672 111.854C80.636 113.773 101.797 125.794 113.55 136.056C91.886 154.109 80.797 172.823 78.1901 177.307Z" fill="#499547"/>
<path d="M98.4285 190.004C95.458 189.089 87.7005 184.631 84.5389 182.332C90.4286 172.561 107.77 148.929 130.568 133.322C156.595 115.503 181.726 109.772 192.987 107.657C193.579 108.347 195.453 117.635 194.899 120.567C176.373 123.861 163.474 128.938 140.42 144.582C117.366 160.226 102.82 181.359 98.4285 190.004Z" fill="#ABCF38"/>
<path d="M143.107 155.523C121.442 172.301 113.104 185.09 108.364 193.621C111.856 194.07 119.888 194.968 124.079 194.968C135.004 178.056 144.283 169.825 157.155 159.947C170.924 150.009 186.439 145.928 192.475 145.13C193.373 141.738 195.195 134.298 194.836 130.826C172.513 135.287 153.104 147.781 143.107 155.523Z" fill="#ABCF38"/>
<path d="M131.861 194.968C137.399 184.392 156.736 160.935 189.781 151.716C186.189 162.042 170.774 190.029 131.861 194.968Z" fill="#ABCF38"/>
</svg>
