<svg width="250" height="250" viewBox="0 0 250 250" fill="none" xmlns="http://www.w3.org/2000/svg">
<path d="M0 125C0 55.9644 55.9644 0 125 0C194.036 0 250 55.9644 250 125C250 194.036 194.036 250 125 250C55.9644 250 0 194.036 0 125Z" fill="white"/>
<path d="M85.0543 113.012C76.3747 109.472 70.1175 107.904 57.0214 105.683C60.9614 92.143 80.8279 55.0322 123.807 55.0322C160.933 55.0261 183.214 78.8382 191.065 101.195C178.138 104.853 172.787 106.681 164.053 109.844C161.189 101.218 150.099 82.069 125.688 82.069C98.6725 82.069 87.2582 102.597 85.0543 113.012Z" fill="#499547"/>
<path d="M78.1901 177.308C53.9036 155.008 53.9028 129.531 55.672 111.855C80.636 113.773 101.797 125.795 113.55 136.056C91.886 154.109 80.797 172.823 78.1901 177.308Z" fill="#499547"/>
<path d="M98.4285 190.005C95.458 189.09 87.7005 184.632 84.5389 182.332C90.4286 172.562 107.77 148.93 130.568 133.322C156.595 115.503 181.726 109.772 192.987 107.658C193.579 108.347 195.453 117.635 194.899 120.568C176.373 123.861 163.474 128.939 140.42 144.583C117.366 160.226 102.82 181.359 98.4285 190.005Z" fill="#ABCF38"/>
<path d="M143.107 155.523C121.442 172.301 113.104 185.091 108.364 193.622C111.856 194.071 119.888 194.969 124.079 194.969C135.004 178.057 144.283 169.825 157.155 159.947C170.924 150.01 186.439 145.929 192.475 145.131C193.373 141.738 195.195 134.299 194.836 130.827C172.513 135.287 153.104 147.782 143.107 155.523Z" fill="#ABCF38"/>
<path d="M131.861 194.969C137.399 184.392 156.736 160.935 189.781 151.716C186.189 162.043 170.774 190.03 131.861 194.969Z" fill="#ABCF38"/>
</svg>
