<svg width="250" height="250" viewBox="0 0 250 250" fill="none" xmlns="http://www.w3.org/2000/svg">
<mask id="path-1-inside-1_453_100" fill="white">
<path d="M0 125C0 55.9644 55.9644 0 125 0C194.036 0 250 55.9644 250 125C250 194.036 194.036 250 125 250C55.9644 250 0 194.036 0 125Z"/>
</mask>
<path d="M0 125C0 55.9644 55.9644 0 125 0C194.036 0 250 55.9644 250 125C250 194.036 194.036 250 125 250C55.9644 250 0 194.036 0 125Z" fill="white"/>
<path d="M0 125M250 125M250 125M0 125M125 0M250 125M125 250M0 125M125 250V248C57.069 248 2 192.931 2 125H0H-2C-2 195.14 54.8598 252 125 252V250ZM250 125H248C248 192.931 192.931 248 125 248V250V252C195.14 252 252 195.14 252 125H250ZM125 0V2C192.931 2 248 57.069 248 125H250H252C252 54.8598 195.14 -2 125 -2V0ZM125 0V-2C54.8598 -2 -2 54.8598 -2 125H0H2C2 57.069 57.069 2 125 2V0Z" fill="#DDDBDB" mask="url(#path-1-inside-1_453_100)"/>
<path d="M123.734 98.5299C124.211 98.7567 124.569 98.9997 124.949 99.3751C125.049 99.4735 125.15 99.5719 125.254 99.6733C125.36 99.779 125.466 99.8845 125.576 99.9934C125.803 100.217 126.031 100.439 126.259 100.662C126.429 100.83 126.429 100.83 126.603 101.001C127.082 101.47 127.566 101.934 128.051 102.396C128.23 102.568 128.41 102.74 128.59 102.912C128.768 103.082 128.946 103.252 129.125 103.423C130.387 104.629 131.646 105.839 132.901 107.055C133.577 107.711 134.256 108.364 134.937 109.014C135.834 109.872 136.727 110.734 137.618 111.598C138.295 112.254 138.973 112.907 139.654 113.557C140.552 114.415 141.444 115.278 142.335 116.142C143.012 116.797 143.69 117.45 144.371 118.101C145.267 118.956 146.157 119.817 147.047 120.68C148.088 121.689 149.135 122.691 150.183 123.692C149.924 124.341 149.542 124.738 149.057 125.221C148.434 125.844 147.86 126.491 147.294 127.169C146.774 127.783 146.23 128.374 145.688 128.968C144.872 129.862 144.059 130.759 143.255 131.665C142.535 132.476 141.812 133.284 141.086 134.09C140.354 134.902 139.623 135.717 138.896 136.536C138.069 137.467 137.238 138.392 136.405 139.317C135.69 140.11 134.979 140.907 134.27 141.705C133.621 142.435 132.969 143.161 132.315 143.886C131.463 144.831 130.617 145.783 129.775 146.738C129.112 147.489 128.44 148.23 127.767 148.971C127.133 149.673 126.523 150.392 125.924 151.127C125.152 150.877 124.739 150.472 124.186 149.871C123.56 149.193 122.917 148.566 122.233 147.952C121.64 147.414 121.072 146.85 120.501 146.289C119.638 145.443 118.774 144.599 117.9 143.766C117.118 143.019 116.339 142.269 115.563 141.516C114.779 140.756 113.993 139.998 113.204 139.244C112.307 138.387 111.414 137.524 110.523 136.66C109.846 136.005 109.168 135.352 108.487 134.701C107.698 133.947 106.912 133.189 106.128 132.429C105.16 131.491 104.189 130.557 103.215 129.626C102.838 129.266 102.462 128.905 102.087 128.543C101.99 128.45 101.892 128.356 101.792 128.26C101.608 128.083 101.424 127.906 101.24 127.728C100.667 127.177 100.078 126.653 99.4736 126.139C99.5721 125.49 99.8251 125.172 100.253 124.697C100.389 124.544 100.526 124.391 100.667 124.234C100.83 124.053 100.994 123.873 101.158 123.692C101.355 123.474 101.553 123.255 101.75 123.036C102.183 122.557 102.616 122.078 103.05 121.6C103.942 120.614 104.825 119.62 105.707 118.625C106.87 117.315 108.037 116.009 109.209 114.709C109.841 114.007 110.471 113.303 111.098 112.597C111.925 111.666 112.757 110.74 113.59 109.816C114.222 109.114 114.851 108.41 115.478 107.704C116.305 106.773 117.137 105.848 117.97 104.923C118.602 104.221 119.231 103.517 119.859 102.811C120.618 101.957 121.38 101.105 122.144 100.256C122.244 100.144 122.344 100.032 122.448 99.9167C122.542 99.8119 122.637 99.7068 122.734 99.5988C122.817 99.5064 122.9 99.4137 122.986 99.3182C123.231 99.0508 123.481 98.7896 123.734 98.5299Z" fill="#8C734B"/>
<path d="M135.192 78.6074C135.701 78.8471 136.086 79.1255 136.501 79.5119C136.678 79.6754 136.678 79.6754 136.857 79.842C137.413 80.3682 137.962 80.9002 138.509 81.4361C138.747 81.6677 138.984 81.8995 139.221 82.131C139.396 82.3013 139.396 82.3013 139.574 82.4751C140.052 82.9396 140.533 83.4006 141.015 83.8605C141.801 84.6109 142.583 85.3649 143.363 86.1211C144.147 86.8811 144.933 87.639 145.722 88.393C146.619 89.2502 147.512 90.1129 148.403 90.9772C149.08 91.6325 149.758 92.2856 150.439 92.9362C151.337 93.7934 152.229 94.6563 153.12 95.5204C153.797 96.1757 154.475 96.8288 155.156 97.4794C156.054 98.3366 156.946 99.1995 157.837 100.064C158.514 100.719 159.193 101.372 159.873 102.023C160.663 102.777 161.448 103.534 162.232 104.294C163.379 105.406 164.531 106.511 165.686 107.614C166.949 108.821 168.208 110.031 169.462 111.247C170.138 111.902 170.817 112.555 171.498 113.206C172.395 114.063 173.288 114.926 174.179 115.79C174.856 116.446 175.534 117.099 176.215 117.749C177.113 118.607 178.005 119.469 178.896 120.333C179.573 120.989 180.252 121.642 180.933 122.292C181.722 123.046 182.507 123.804 183.291 124.564C185.048 126.267 186.816 127.957 188.598 129.631C188.358 130.431 187.967 130.86 187.387 131.433C186.822 132 186.274 132.569 185.766 133.192C185.293 133.767 184.792 134.234 184.218 134.699C183.287 133.866 182.382 133.01 181.49 132.132C180.628 131.287 179.763 130.443 178.89 129.609C178.108 128.863 177.329 128.113 176.552 127.36C175.768 126.6 174.983 125.842 174.194 125.088C173.296 124.231 172.404 123.368 171.513 122.504C170.836 121.848 170.157 121.196 169.476 120.545C168.579 119.688 167.687 118.825 166.795 117.961C166.119 117.305 165.44 116.652 164.759 116.002C163.862 115.144 162.969 114.282 162.078 113.418C161.313 112.676 160.545 111.939 159.775 111.204C159.072 110.531 158.372 109.854 157.673 109.176C156.922 108.448 156.168 107.722 155.409 107.003C154.541 106.179 153.68 105.348 152.821 104.515C152.141 103.856 151.46 103.2 150.776 102.547C149.879 101.689 148.986 100.827 148.095 99.9624C147.419 99.3071 146.74 98.6542 146.059 98.0034C145.162 97.1462 144.269 96.2835 143.378 95.4192C142.701 94.7639 142.023 94.1108 141.342 93.4602C140.444 92.603 139.552 91.7401 138.66 90.876C137.896 90.135 137.128 89.3977 136.358 88.6622C135.654 87.9895 134.954 87.3124 134.255 86.6345C133.17 85.5822 132.078 84.5387 130.981 83.5002C131.317 83.0919 131.654 82.6841 131.992 82.2769C132.077 82.1737 132.162 82.0707 132.25 81.9643C133.205 80.8207 134.2 79.716 135.192 78.6074Z" fill="#8C734B"/>
<path d="M141.426 71.4453C142.157 71.5267 142.575 72.0219 143.079 72.5265C143.174 72.6194 143.269 72.7123 143.367 72.8081C143.57 73.0073 143.773 73.2071 143.976 73.4073C144.498 73.9221 145.026 74.4306 145.553 74.9401C145.768 75.1476 145.982 75.3551 146.196 75.5627C146.766 76.1146 147.338 76.6636 147.912 77.2116C148.809 78.069 149.702 78.9317 150.593 79.796C151.27 80.4514 151.948 81.1042 152.629 81.755C153.527 82.6122 154.419 83.4752 155.31 84.3392C155.987 84.9946 156.666 85.6477 157.346 86.2982C158.244 87.1554 159.136 88.0184 160.028 88.8824C160.792 89.6234 161.561 90.3608 162.331 91.0963C163.034 91.769 163.734 92.446 164.433 93.124C165.184 93.8524 165.938 94.5776 166.697 95.2972C167.565 96.1206 168.426 96.9518 169.285 97.7852C169.964 98.4438 170.646 99.0998 171.33 99.7531C172.227 100.61 173.12 101.473 174.011 102.337C174.687 102.993 175.366 103.646 176.047 104.296C176.944 105.154 177.837 106.016 178.728 106.881C179.405 107.536 180.083 108.189 180.764 108.84C181.662 109.697 182.554 110.56 183.445 111.424C184.122 112.079 184.8 112.732 185.481 113.383C186.271 114.137 187.056 114.894 187.84 115.654C188.897 116.679 189.958 117.698 191.022 118.715C191.303 118.983 191.583 119.253 191.863 119.522C192.899 120.516 193.94 121.503 195 122.469C194.75 123.078 194.417 123.455 193.958 123.911C193.255 124.623 192.606 125.365 191.968 126.139C191.747 126.401 191.525 126.663 191.304 126.925C191.205 127.042 191.106 127.159 191.005 127.28C190.933 127.365 190.862 127.449 190.788 127.537C190.201 127.277 189.838 126.932 189.398 126.455C188.826 125.838 188.226 125.273 187.603 124.712C187.041 124.201 186.498 123.668 185.955 123.135C185.718 122.904 185.48 122.672 185.243 122.441C185.126 122.327 185.01 122.213 184.89 122.096C184.412 121.632 183.931 121.171 183.449 120.711C182.663 119.961 181.881 119.207 181.101 118.45C180.317 117.69 179.532 116.933 178.742 116.179C177.845 115.321 176.953 114.458 176.061 113.594C175.385 112.939 174.706 112.286 174.025 111.635C173.128 110.778 172.235 109.915 171.344 109.051C170.668 108.396 169.989 107.743 169.308 107.092C168.411 106.235 167.518 105.372 166.627 104.508C165.95 103.852 165.272 103.2 164.591 102.549C163.802 101.795 163.016 101.037 162.232 100.277C161.085 99.1656 159.933 98.0602 158.779 96.9573C157.516 95.7509 156.257 94.5407 155.002 93.3247C154.326 92.6691 153.647 92.0163 152.966 91.3657C152.069 90.5083 151.176 89.6456 150.285 88.7813C149.609 88.1259 148.93 87.4728 148.249 86.8223C147.352 85.9651 146.459 85.1021 145.568 84.2381C144.891 83.5827 144.213 82.9296 143.532 82.2791C142.636 81.4232 141.744 80.5626 140.856 79.6988C140.332 79.1907 139.807 78.686 139.275 78.1878C139.124 78.046 139.124 78.046 138.97 77.9012C138.78 77.7233 138.59 77.5461 138.399 77.3701C137.949 76.9465 137.604 76.5818 137.383 75.9886C137.508 75.8614 137.508 75.8614 137.636 75.7319C138.318 75.0344 138.969 74.3234 139.594 73.5708C140.194 72.8525 140.812 72.1504 141.426 71.4453Z" fill="#8C734B"/>
<path d="M157.934 124.741C158.591 125.114 159.069 125.537 159.587 126.095C160.206 126.752 160.84 127.37 161.512 127.967C161.912 128.329 162.282 128.715 162.651 129.11C162.406 129.682 162.101 130.091 161.693 130.551C161.558 130.704 161.423 130.857 161.284 131.015C160.494 131.897 159.7 132.773 158.905 133.65C158.35 134.263 157.799 134.88 157.25 135.499C156.526 136.313 155.799 137.125 155.07 137.934C154.255 138.839 153.443 139.746 152.634 140.657C151.985 141.387 151.333 142.113 150.679 142.838C149.977 143.617 149.278 144.398 148.584 145.186C147.79 146.086 146.989 146.979 146.185 147.87C145.55 148.575 144.918 149.282 144.288 149.991C143.461 150.922 142.629 151.847 141.796 152.772C141.164 153.474 140.535 154.178 139.907 154.884C139.081 155.815 138.249 156.74 137.416 157.665C136.784 158.366 136.155 159.07 135.527 159.776C134.701 160.707 133.869 161.633 133.036 162.557C132.404 163.259 131.774 163.963 131.147 164.669C130.321 165.6 129.489 166.525 128.655 167.45C127.941 168.243 127.23 169.04 126.521 169.839C125.872 170.568 125.22 171.294 124.566 172.019C123.864 172.798 123.165 173.58 122.471 174.367C121.677 175.268 120.875 176.161 120.072 177.052C119.355 177.848 118.641 178.647 117.93 179.448C117.271 180.19 116.607 180.926 115.942 181.663C115.1 182.596 114.268 183.538 113.458 184.502C112.97 184.272 112.611 184.021 112.224 183.639C112.121 183.537 112.018 183.436 111.911 183.332C111.803 183.224 111.695 183.117 111.583 183.006C111.358 182.785 111.133 182.564 110.907 182.343C110.797 182.235 110.687 182.127 110.574 182.015C109.917 181.376 109.245 180.754 108.572 180.134C108.831 179.485 109.213 179.088 109.698 178.605C110.321 177.982 110.896 177.335 111.461 176.657C111.982 176.043 112.525 175.452 113.068 174.859C113.883 173.964 114.697 173.067 115.5 172.161C116.22 171.35 116.943 170.542 117.669 169.737C118.402 168.924 119.132 168.109 119.859 167.29C120.586 166.472 121.317 165.657 122.05 164.844C123.121 163.654 124.187 162.459 125.251 161.262C126.414 159.952 127.581 158.646 128.753 157.345C129.385 156.643 130.014 155.939 130.642 155.233C131.468 154.302 132.3 153.377 133.133 152.452C133.765 151.751 134.395 151.047 135.022 150.34C135.849 149.41 136.68 148.484 137.513 147.56C138.145 146.858 138.775 146.154 139.402 145.448C140.229 144.517 141.061 143.591 141.894 142.667C142.526 141.965 143.155 141.261 143.783 140.555C144.609 139.624 145.441 138.699 146.274 137.774C146.989 136.981 147.699 136.184 148.408 135.386C149.057 134.656 149.71 133.93 150.363 133.205C151.066 132.426 151.765 131.644 152.459 130.857C153.251 129.958 154.051 129.067 154.853 128.178C155.623 127.324 156.388 126.466 157.152 125.606C157.751 124.932 157.751 124.932 157.934 124.741Z" fill="#8C734B"/>
<path d="M65.4491 115.304C66.0847 115.582 66.5167 115.998 67.018 116.484C67.1485 116.61 67.1485 116.61 67.2816 116.738C67.57 117.017 67.8573 117.296 68.1447 117.576C68.3503 117.775 68.5561 117.974 68.7619 118.173C69.1898 118.587 69.6172 119.001 70.0446 119.416C70.6165 119.97 71.1911 120.521 71.7668 121.071C72.6641 121.928 73.5565 122.791 74.4479 123.655C75.1244 124.31 75.8031 124.964 76.484 125.614C77.3814 126.471 78.2738 127.334 79.1651 128.198C79.8417 128.854 80.5203 129.507 81.2012 130.157C82.0986 131.015 82.991 131.877 83.8823 132.742C84.5589 133.397 85.2375 134.05 85.9184 134.701C86.8158 135.558 87.7082 136.421 88.5995 137.285C89.3644 138.026 90.1326 138.763 90.9024 139.499C91.6061 140.171 92.3058 140.848 93.0047 141.526C93.756 142.255 94.5096 142.98 95.2686 143.7C96.137 144.523 96.9976 145.354 97.8569 146.188C98.5362 146.846 99.2176 147.502 99.9015 148.155C100.799 149.013 101.691 149.876 102.583 150.74C103.259 151.395 103.938 152.048 104.619 152.699C105.516 153.556 106.409 154.419 107.3 155.283C107.976 155.938 108.655 156.591 109.336 157.242C110.233 158.099 111.126 158.962 112.017 159.826C112.781 160.567 113.549 161.303 114.318 162.038C114.816 162.514 115.311 162.991 115.805 163.471C115.916 163.579 116.028 163.688 116.143 163.8C116.357 164.008 116.571 164.216 116.785 164.425C117.458 165.08 118.149 165.711 118.855 166.328C118.724 166.969 118.54 167.232 118.075 167.683C117.506 168.251 116.979 168.836 116.464 169.457C116.117 169.874 115.765 170.285 115.412 170.697C115.24 170.897 115.24 170.897 115.065 171.101C114.939 171.247 114.939 171.247 114.811 171.396C114.152 171.3 113.87 170.994 113.422 170.5C112.852 169.878 112.256 169.312 111.631 168.751C111.038 168.211 110.467 167.646 109.894 167.082C109.031 166.236 108.167 165.393 107.293 164.559C106.511 163.813 105.732 163.062 104.956 162.309C104.172 161.549 103.386 160.792 102.597 160.038C101.7 159.18 100.807 158.318 99.9161 157.454C99.2395 156.798 98.5609 156.145 97.88 155.495C96.9826 154.637 96.0902 153.774 95.1989 152.91C94.5223 152.255 93.8437 151.602 93.1628 150.951C92.2654 150.094 91.373 149.231 90.4815 148.367C89.7168 147.626 88.9486 146.889 88.1786 146.153C87.4751 145.48 86.7754 144.804 86.0765 144.126C85.3252 143.397 84.5716 142.672 83.8126 141.952C82.9442 141.129 82.0836 140.298 81.2243 139.464C80.545 138.806 79.8634 138.15 79.1795 137.496C78.2823 136.639 77.3898 135.776 76.4985 134.912C75.8219 134.257 75.1433 133.604 74.4623 132.953C73.565 132.096 72.6726 131.233 71.7813 130.369C71.1047 129.713 70.426 129.061 69.7451 128.41C68.8478 127.553 67.9554 126.69 67.0641 125.826C66.4759 125.256 65.8865 124.687 65.2946 124.122C65.1181 123.953 64.9417 123.784 64.7655 123.615C64.2578 123.128 63.7474 122.644 63.2346 122.162C63.0005 121.94 62.7665 121.719 62.5324 121.497C62.4204 121.393 62.3083 121.288 62.1928 121.181C62.0901 121.083 61.9874 120.985 61.8816 120.884C61.7897 120.798 61.6977 120.712 61.603 120.623C61.4058 120.372 61.4058 120.372 61.4058 119.848C61.696 119.501 61.696 119.501 62.0902 119.116C62.6922 118.512 63.2572 117.896 63.8026 117.237C64.147 116.822 64.4976 116.413 64.8489 116.003C64.9634 115.87 65.0778 115.737 65.1957 115.599C65.2793 115.502 65.3629 115.405 65.4491 115.304Z" fill="#8C734B"/>
<path d="M59.0433 122.64C59.7755 122.722 60.1103 123.176 60.6017 123.711C61.2315 124.392 61.8776 125.024 62.5663 125.641C63.1582 126.179 63.7267 126.742 64.2975 127.304C65.1603 128.15 66.0246 128.993 66.8983 129.827C67.6806 130.573 68.4593 131.323 69.2359 132.076C70.0197 132.836 70.8053 133.594 71.5945 134.348C72.4918 135.205 73.3842 136.068 74.2755 136.932C74.9521 137.588 75.6308 138.24 76.3117 138.891C77.209 139.748 78.1015 140.611 78.9927 141.475C79.7577 142.216 80.5258 142.954 81.2956 143.689C81.9993 144.362 82.699 145.039 83.398 145.717C84.1492 146.445 84.9028 147.171 85.6618 147.89C86.5302 148.713 87.3909 149.545 88.2501 150.378C88.9295 151.037 89.6109 151.693 90.2948 152.346C91.1922 153.203 92.0845 154.066 92.9758 154.93C93.6524 155.586 94.331 156.239 95.012 156.889C95.9094 157.747 96.8017 158.61 97.6932 159.474C98.3696 160.129 99.0482 160.782 99.7292 161.433C100.627 162.29 101.519 163.153 102.41 164.017C103.087 164.672 103.765 165.325 104.446 165.976C105.236 166.73 106.021 167.487 106.805 168.247C107.86 169.27 108.919 170.287 109.981 171.302C110.484 171.783 110.987 172.265 111.491 172.747C111.676 172.924 111.861 173.102 112.047 173.279C112.179 173.406 112.312 173.533 112.449 173.664C112.357 174.348 112.062 174.641 111.585 175.106C110.876 175.817 110.225 176.557 109.585 177.334C109.364 177.596 109.143 177.858 108.922 178.12C108.823 178.237 108.724 178.355 108.622 178.475C108.551 178.56 108.479 178.645 108.405 178.732C107.854 178.478 107.46 178.161 107.016 177.738C106.868 177.598 106.721 177.458 106.569 177.313C105.719 176.495 104.874 175.672 104.029 174.848C103.079 173.923 102.12 173.007 101.161 172.092C99.8984 170.885 98.6395 169.675 97.3852 168.459C96.7086 167.803 96.0299 167.151 95.349 166.5C94.4516 165.643 93.5592 164.78 92.668 163.916C91.9914 163.26 91.3127 162.607 90.6318 161.957C89.7344 161.099 88.842 160.237 87.9508 159.373C87.2742 158.717 86.5955 158.064 85.9146 157.414C85.0172 156.556 84.1248 155.694 83.2336 154.829C82.557 154.174 81.8783 153.521 81.1974 152.87C80.4082 152.116 79.6225 151.359 78.8388 150.599C77.6919 149.487 76.5396 148.382 75.3851 147.279C74.1223 146.072 72.8633 144.862 71.609 143.646C70.9325 142.991 70.2537 142.338 69.5728 141.687C68.6755 140.83 67.783 139.967 66.8917 139.103C66.2152 138.447 65.5365 137.794 64.8556 137.144C63.9583 136.287 63.0658 135.424 62.1745 134.56C61.41 133.819 60.6423 133.082 59.8727 132.347C59.1577 131.663 58.4475 130.974 57.7377 130.285C56.8374 129.411 55.9291 128.549 55 127.708C55.0971 127.114 55.2712 126.847 55.6949 126.441C56.2308 125.909 56.721 125.355 57.2053 124.772C57.808 124.052 58.4271 123.348 59.0433 122.64Z" fill="#8C734B"/>
<path d="M128.788 85.9491C129.407 86.0484 129.672 86.2888 130.094 86.7572C130.632 87.3509 131.204 87.8829 131.797 88.4159C132.391 88.9578 132.963 89.5234 133.537 90.0883C134.4 90.9339 135.264 91.7774 136.138 92.6111C136.92 93.3576 137.699 94.1079 138.475 94.8608C139.259 95.6207 140.045 96.3784 140.834 97.1324C141.731 97.9898 142.624 98.8525 143.515 99.7166C144.192 100.372 144.87 101.025 145.551 101.676C146.449 102.533 147.341 103.396 148.232 104.26C148.909 104.915 149.587 105.568 150.268 106.219C151.058 106.973 151.843 107.731 152.627 108.491C153.774 109.602 154.926 110.708 156.081 111.811C157.344 113.017 158.603 114.227 159.857 115.443C160.533 116.099 161.212 116.752 161.893 117.402C162.79 118.26 163.683 119.122 164.574 119.987C165.251 120.642 165.929 121.295 166.61 121.946C167.507 122.803 168.4 123.666 169.291 124.53C169.968 125.185 170.647 125.838 171.328 126.489C172.225 127.346 173.117 128.209 174.009 129.073C174.685 129.729 175.364 130.381 176.045 131.032C176.941 131.888 177.832 132.748 178.721 133.612C179.244 134.12 179.77 134.625 180.302 135.123C180.402 135.218 180.503 135.313 180.607 135.41C180.796 135.588 180.986 135.765 181.177 135.941C181.627 136.365 181.972 136.729 182.194 137.322C181.692 137.909 181.186 138.49 180.678 139.07C180.575 139.188 180.472 139.306 180.366 139.427C180.029 139.812 179.69 140.195 179.351 140.577C179.241 140.703 179.13 140.83 179.017 140.96C178.912 141.077 178.807 141.195 178.699 141.316C178.606 141.422 178.512 141.528 178.416 141.637C178.151 141.866 178.151 141.866 177.645 141.866C177.372 141.656 177.372 141.656 177.077 141.36C176.968 141.252 176.858 141.143 176.745 141.032C176.629 140.914 176.512 140.797 176.392 140.675C176.147 140.432 175.902 140.189 175.656 139.946C175.536 139.826 175.415 139.706 175.291 139.582C174.842 139.139 174.386 138.705 173.928 138.273C173.063 137.453 172.206 136.626 171.35 135.795C170.671 135.137 169.99 134.481 169.306 133.828C168.408 132.97 167.516 132.108 166.625 131.244C165.948 130.588 165.269 129.935 164.589 129.285C163.691 128.427 162.799 127.564 161.907 126.7C161.231 126.045 160.552 125.392 159.871 124.741C158.974 123.884 158.082 123.021 157.19 122.157C156.514 121.502 155.835 120.849 155.154 120.198C154.257 119.341 153.364 118.478 152.473 117.614C151.708 116.873 150.94 116.135 150.17 115.4C149.466 114.727 148.767 114.05 148.068 113.372C147.317 112.644 146.563 111.919 145.804 111.199C144.936 110.376 144.075 109.544 143.216 108.711C142.536 108.052 141.855 107.397 141.171 106.743C140.274 105.886 139.381 105.023 138.49 104.159C137.813 103.503 137.135 102.85 136.454 102.2C135.556 101.342 134.664 100.48 133.773 99.6157C133.096 98.9601 132.418 98.3072 131.737 97.6567C130.947 96.9027 130.162 96.145 129.378 95.3851C127.099 93.1571 127.099 93.1571 124.745 91.0165C124.82 90.245 125.325 89.7997 125.819 89.2692C126.002 89.0683 126.185 88.8673 126.368 88.6664C126.462 88.5643 126.555 88.4622 126.652 88.357C127.103 87.8619 127.545 87.3586 127.988 86.8556C128.143 86.6798 128.299 86.5037 128.454 86.3279C128.564 86.203 128.675 86.0778 128.788 85.9491Z" fill="#8C734B"/>
<path d="M71.8532 108.137C72.35 108.37 72.7119 108.63 73.1055 109.02C73.2137 109.126 73.3219 109.233 73.4333 109.342C73.5477 109.456 73.6622 109.57 73.7801 109.688C74.0235 109.927 74.267 110.167 74.5106 110.406C74.6312 110.525 74.7519 110.644 74.8763 110.767C75.3561 111.238 75.8415 111.703 76.3282 112.167C77.114 112.917 77.896 113.671 78.6763 114.427C79.4602 115.187 80.2457 115.945 81.0349 116.699C81.9323 117.556 82.8247 118.419 83.7159 119.283C84.3925 119.939 85.0711 120.592 85.7521 121.242C86.6495 122.099 87.5419 122.962 88.4331 123.826C89.1097 124.482 89.7884 125.135 90.4693 125.785C91.2585 126.539 92.044 127.297 92.8279 128.057C93.9746 129.169 95.1271 130.274 96.2816 131.377C97.5444 132.584 98.8035 133.794 100.058 135.01C100.734 135.665 101.413 136.318 102.094 136.969C102.991 137.826 103.884 138.689 104.775 139.553C105.451 140.209 106.13 140.861 106.811 141.512C107.708 142.369 108.601 143.232 109.492 144.096C110.169 144.752 110.847 145.405 111.528 146.055C112.426 146.913 113.318 147.775 114.209 148.639C114.886 149.295 115.565 149.948 116.245 150.598C117.035 151.352 117.82 152.11 118.604 152.87C119.572 153.808 120.543 154.743 121.517 155.673C121.894 156.033 122.27 156.394 122.645 156.756C122.743 156.85 122.84 156.943 122.94 157.04C123.124 157.217 123.308 157.394 123.492 157.571C124.065 158.122 124.655 158.646 125.259 159.161C125.029 159.688 124.769 160.067 124.383 160.484C124.277 160.6 124.171 160.716 124.062 160.836C123.949 160.957 123.837 161.078 123.721 161.203C123.492 161.453 123.264 161.703 123.035 161.953C122.925 162.074 122.815 162.194 122.701 162.318C122.135 162.941 121.588 163.582 121.047 164.228C120.531 163.988 120.165 163.711 119.758 163.307C119.642 163.192 119.526 163.078 119.407 162.96C119.284 162.838 119.162 162.716 119.036 162.59C118.777 162.334 118.518 162.078 118.258 161.823C118.131 161.697 118.003 161.57 117.872 161.44C117.383 160.959 116.889 160.485 116.393 160.012C115.607 159.263 114.825 158.509 114.045 157.752C113.294 157.023 112.54 156.298 111.781 155.579C110.913 154.755 110.052 153.924 109.193 153.091C108.513 152.432 107.832 151.776 107.148 151.123C106.251 150.265 105.358 149.403 104.467 148.538C103.79 147.883 103.112 147.23 102.431 146.579C101.533 145.722 100.641 144.859 99.7498 143.995C99.0732 143.34 98.3945 142.687 97.7136 142.036C96.8162 141.179 95.9238 140.316 95.0326 139.452C94.356 138.796 93.6773 138.144 92.9964 137.493C92.2072 136.739 91.4217 135.981 90.6378 135.221C89.491 134.11 88.3386 133.004 87.184 131.901C85.9213 130.695 84.6622 129.485 83.4081 128.269C82.7315 127.613 82.0529 126.96 81.3719 126.31C80.4745 125.452 79.5821 124.59 78.6907 123.725C78.0143 123.07 77.3355 122.417 76.6546 121.766C75.7573 120.909 74.8649 120.046 73.9736 119.182C73.297 118.527 72.6183 117.874 71.9374 117.223C71.1174 116.439 70.2998 115.653 69.484 114.864C69.3244 114.71 69.3244 114.71 69.1616 114.553C68.6458 114.054 68.1359 113.551 67.6414 113.03C67.901 112.381 68.283 111.984 68.768 111.501C69.401 110.858 69.9965 110.202 70.5719 109.505C70.9778 109.025 71.413 108.582 71.8532 108.137Z" fill="#8C734B"/>
<path d="M136.37 65.6786C136.968 65.7809 137.258 66.0053 137.689 66.439C137.87 66.6191 137.87 66.6191 138.056 66.8028C138.181 66.9292 138.305 67.0555 138.434 67.1857C138.68 67.4321 138.927 67.6783 139.174 67.9243C139.294 68.0446 139.415 68.1649 139.539 68.2889C140.097 68.8338 140.674 69.355 141.256 69.8723C141.016 70.697 140.55 71.1852 139.961 71.7617C139.278 72.4389 138.641 73.1368 138.024 73.8786C137.506 74.4918 136.964 75.0804 136.423 75.6716C135.607 76.5664 134.794 77.4629 133.991 78.369C133.267 79.1842 132.54 79.9955 131.811 80.8046C131.109 81.5837 130.409 82.3653 129.715 83.1524C128.922 84.053 128.12 84.9459 127.317 85.8371C126.682 86.5416 126.05 87.2485 125.42 87.9578C124.593 88.8885 123.761 89.8143 122.928 90.7386C122.296 91.4403 121.666 92.1443 121.039 92.8506C120.213 93.7813 119.381 94.7068 118.548 95.6314C117.916 96.3331 117.286 97.0371 116.659 97.7434C115.832 98.6741 115.001 99.5996 114.167 100.524C113.535 101.226 112.906 101.93 112.279 102.636C111.452 103.567 110.62 104.492 109.787 105.417C109.073 106.21 108.362 107.007 107.653 107.806C107.004 108.535 106.351 109.261 105.698 109.986C104.995 110.765 104.296 111.547 103.602 112.334C102.809 113.235 102.007 114.127 101.204 115.019C100.569 115.723 99.9364 116.43 99.3064 117.139C98.5794 117.958 97.8489 118.773 97.1163 119.586C95.4204 121.468 93.7391 123.364 92.0621 125.265C91.3649 125.175 91.0596 124.798 90.5879 124.282C89.9729 123.623 89.3461 123.007 88.675 122.412C88.151 121.932 87.6634 121.416 87.1764 120.896C87.684 119.987 88.3476 119.309 89.0751 118.582C89.5398 118.096 89.9697 117.589 90.402 117.071C90.9226 116.457 91.4666 115.865 92.0096 115.272C92.8248 114.377 93.6381 113.48 94.4417 112.574C95.1614 111.763 95.8849 110.955 96.6108 110.15C97.3435 109.337 98.074 108.522 98.8011 107.703C99.6277 106.773 100.459 105.847 101.293 104.923C102.007 104.129 102.718 103.333 103.427 102.534C104.076 101.804 104.728 101.078 105.382 100.353C106.084 99.5743 106.783 98.7926 107.477 98.0053C108.271 97.1047 109.073 96.2121 109.876 95.3209C110.511 94.6162 111.143 93.9094 111.773 93.2C112.6 92.2694 113.432 91.3437 114.265 90.4191C114.897 89.7177 115.526 89.0137 116.154 88.3074C116.98 87.3766 117.812 86.4509 118.645 85.5266C119.277 84.8249 119.907 84.1209 120.534 83.4146C121.36 82.4838 122.192 81.5583 123.025 80.6338C123.657 79.9321 124.287 79.2283 124.914 78.522C125.741 77.5913 126.572 76.6655 127.406 75.7412C128.12 74.9478 128.831 74.151 129.54 73.3525C130.189 72.6227 130.841 71.8969 131.495 71.172C132.509 70.0464 133.515 68.9129 134.517 67.7755C134.864 67.3822 135.212 66.9891 135.559 66.596C135.716 66.4185 135.873 66.241 136.03 66.0636C136.198 65.873 136.198 65.873 136.37 65.6786Z" fill="#8C734B"/>
<path d="M171.753 138.018C172.497 138.096 172.926 138.62 173.438 139.132C173.632 139.322 173.825 139.511 174.019 139.701C174.118 139.798 174.216 139.895 174.317 139.995C174.795 140.463 175.28 140.922 175.765 141.382C175.934 141.543 176.104 141.704 176.274 141.865C176.394 141.979 176.515 142.094 176.639 142.212C176.553 142.935 176.188 143.251 175.691 143.741C175.063 144.362 174.486 145.006 173.918 145.688C173.398 146.303 172.854 146.893 172.311 147.487C171.496 148.381 170.683 149.278 169.879 150.184C169.159 150.995 168.436 151.803 167.71 152.609C166.895 153.513 166.083 154.421 165.274 155.332C164.625 156.062 163.973 156.787 163.319 157.512C162.617 158.291 161.918 159.073 161.224 159.86C160.43 160.761 159.628 161.654 158.825 162.545C158.19 163.249 157.558 163.956 156.928 164.666C156.101 165.596 155.269 166.522 154.436 167.446C153.804 168.148 153.175 168.852 152.547 169.558C151.721 170.489 150.889 171.415 150.056 172.339C149.424 173.041 148.794 173.745 148.167 174.451C147.341 175.382 146.509 176.307 145.676 177.232C144.961 178.025 144.25 178.822 143.541 179.621C142.893 180.35 142.24 181.076 141.586 181.801C140.884 182.58 140.185 183.362 139.491 184.149C138.697 185.05 137.896 185.942 137.092 186.834C136.457 187.538 135.825 188.245 135.195 188.955C134.368 189.885 133.537 190.811 132.703 191.735C131.99 192.527 131.281 193.322 130.573 194.119C129.536 195.286 128.49 196.445 127.445 197.604C126.65 197.355 126.18 196.871 125.624 196.261C125.445 196.07 125.267 195.88 125.089 195.69C125.002 195.598 124.916 195.507 124.827 195.412C124.414 194.985 123.973 194.597 123.523 194.214C123.158 193.862 122.863 193.469 122.559 193.061C122.78 192.817 122.78 192.817 123.004 192.567C123.982 191.482 124.959 190.396 125.929 189.304C126.756 188.373 127.587 187.448 128.42 186.523C129.052 185.821 129.682 185.117 130.309 184.411C131.136 183.48 131.968 182.555 132.801 181.63C133.433 180.929 134.062 180.225 134.689 179.519C135.516 178.588 136.348 177.662 137.181 176.738C137.895 175.944 138.606 175.148 139.316 174.349C139.964 173.619 140.617 172.893 141.27 172.168C141.973 171.389 142.672 170.608 143.366 169.82C144.159 168.92 144.961 168.027 145.765 167.136C146.399 166.431 147.032 165.725 147.662 165.015C148.488 164.084 149.32 163.159 150.153 162.234C150.785 161.533 151.415 160.829 152.042 160.122C152.869 159.192 153.701 158.266 154.534 157.342C155.166 156.64 155.795 155.936 156.422 155.23C157.249 154.299 158.081 153.373 158.914 152.449C159.546 151.747 160.175 151.043 160.803 150.337C161.629 149.406 162.461 148.481 163.294 147.556C164.009 146.763 164.719 145.966 165.429 145.168C166.077 144.438 166.73 143.712 167.384 142.987C168.86 141.349 170.324 139.7 171.753 138.018Z" fill="#8C734B"/>
<path d="M129.295 59.0384C129.869 59.1411 130.155 59.3371 130.571 59.7544C130.739 59.9204 130.739 59.9204 130.91 60.0898C131.027 60.2078 131.144 60.3257 131.264 60.4472C131.505 60.6863 131.746 60.9252 131.987 61.1639C132.161 61.337 132.161 61.337 132.339 61.5136C132.938 62.1037 133.557 62.6698 134.181 63.2321C134.085 63.8733 133.853 64.1486 133.401 64.5864C132.829 65.1447 132.316 65.7377 131.802 66.3528C131.28 66.969 130.735 67.5624 130.19 68.1576C129.122 69.3303 128.061 70.5101 127.008 71.6979C125.766 73.0991 124.519 74.495 123.266 75.8856C122.634 76.5873 122.004 77.2913 121.377 77.9976C120.55 78.9284 119.718 79.8538 118.885 80.7784C118.253 81.4801 117.624 82.1841 116.997 82.8904C116.17 83.8212 115.338 84.7467 114.505 85.6712C113.873 86.3729 113.244 87.0767 112.616 87.783C111.79 88.7137 110.958 89.6395 110.125 90.5638C109.493 91.2655 108.863 91.9695 108.236 92.6758C107.41 93.6065 106.578 94.532 105.744 95.4566C105.03 96.2499 104.319 97.0466 103.61 97.8451C102.961 98.5749 102.309 99.3008 101.655 100.026C100.953 100.805 100.254 101.587 99.5599 102.374C98.7662 103.274 97.9644 104.167 97.1611 105.058C96.5261 105.763 95.8938 106.47 95.2638 107.179C94.4372 108.11 93.6053 109.036 92.7723 109.96C92.1402 110.662 91.5107 111.366 90.8836 112.072C90.0584 113.001 89.2279 113.925 88.396 114.848C87.639 115.688 86.8859 116.533 86.1358 117.38C85.9221 117.621 85.7072 117.861 85.4923 118.1C85.4044 118.211 85.3165 118.322 85.2258 118.436C84.987 118.625 84.987 118.625 84.6684 118.62C84.1766 118.384 83.8852 118.049 83.5128 117.642C82.8978 116.983 82.271 116.367 81.5997 115.771C81.0759 115.292 80.5883 114.775 80.1013 114.256C81.2364 112.878 82.3834 111.519 83.5865 110.204C84.402 109.31 85.2153 108.413 86.0189 107.507C86.7386 106.695 87.4621 105.888 88.188 105.082C88.9205 104.269 89.6512 103.454 90.378 102.636C91.2047 101.705 92.0365 100.78 92.8695 99.855C93.5016 99.1533 94.1312 98.4493 94.7584 97.7433C95.5851 96.8125 96.4167 95.8868 97.2499 94.9625C97.9644 94.169 98.6753 93.3722 99.3843 92.5737C100.033 91.8439 100.686 91.1182 101.339 90.3932C102.042 89.6141 102.741 88.8325 103.435 88.0451C104.228 87.1445 105.03 86.2517 105.833 85.3607C106.468 84.656 107.101 83.9493 107.731 83.2398C108.557 82.309 109.389 81.3835 110.222 80.459C110.854 79.7573 111.484 79.0533 112.111 78.347C112.938 77.4165 113.769 76.4907 114.603 75.5662C115.234 74.8646 115.864 74.1606 116.491 73.4544C117.318 72.5236 118.15 71.598 118.983 70.6736C119.615 69.9719 120.244 69.2679 120.872 68.5617C121.698 67.6309 122.53 66.7054 123.363 65.7809C124.077 64.9885 124.787 64.1928 125.495 63.3949C125.957 62.8743 126.422 62.3559 126.889 61.8397C126.995 61.7224 127.101 61.6052 127.21 61.4844C127.415 61.2577 127.621 61.0313 127.826 60.8052C128.342 60.2349 128.834 59.6579 129.295 59.0384Z" fill="#8C734B"/>
<path d="M122.558 52.3962C123.492 53.0538 124.284 53.8089 125.07 54.6476C125.64 55.2534 126.236 55.7999 126.878 56.3217C127.107 56.59 127.107 56.59 127.107 57.2889C126.907 57.5889 126.907 57.5889 126.626 57.8889C126.522 58.0011 126.418 58.1133 126.312 58.2289C126.199 58.3476 126.086 58.4663 125.97 58.5886C125.736 58.8411 125.502 59.0936 125.268 59.3462C125.151 59.4714 125.034 59.5966 124.914 59.7256C124.454 60.2204 124.006 60.725 123.559 61.2315C122.836 62.0467 122.109 62.8577 121.379 63.6669C120.646 64.4799 119.916 65.2948 119.189 66.1133C118.462 66.9318 117.732 67.7466 116.999 68.5597C115.927 69.7492 114.862 70.9443 113.798 72.1418C112.635 73.4516 111.468 74.7575 110.296 76.0583C109.664 76.76 109.034 77.464 108.407 78.1703C107.58 79.101 106.749 80.0267 105.915 80.9511C105.283 81.6528 104.654 82.3568 104.027 83.0631C103.2 83.9938 102.368 84.9193 101.535 85.8439C100.903 86.5456 100.274 87.2496 99.6463 87.9556C98.8197 88.8864 97.988 89.8121 97.1548 90.7365C96.5229 91.4382 95.8934 92.1422 95.2661 92.8484C94.5393 93.6668 93.8086 94.4818 93.076 95.2947C92.0042 96.4844 90.9385 97.6794 89.8751 98.877C88.7119 100.187 87.545 101.493 86.3727 102.793C85.7408 103.495 85.1113 104.199 84.484 104.905C83.757 105.724 83.0265 106.539 82.2937 107.352C80.1456 109.715 80.1456 109.715 78.0821 112.157C77.5796 111.92 77.1977 111.648 76.7869 111.266C76.6698 111.158 76.5528 111.049 76.4322 110.937C75.797 110.335 75.1691 109.724 74.5441 109.11C74.4136 108.982 74.2831 108.854 74.1486 108.723C73.831 108.412 73.5135 108.1 73.1963 107.789C73.4363 107.268 73.6645 106.919 74.0703 106.522C74.4931 106.107 74.8803 105.672 75.2614 105.216C75.8849 104.471 76.5325 103.753 77.187 103.038C78.0024 102.143 78.8157 101.247 79.6193 100.34C80.3391 99.529 81.0625 98.7213 81.7884 97.9159C82.5211 97.103 83.2516 96.288 83.9785 95.4696C84.8051 94.5389 85.6369 93.6132 86.47 92.6888C87.1847 91.8953 87.8955 91.0986 88.6045 90.3001C89.2533 89.5703 89.9059 88.8446 90.5594 88.1196C91.2618 87.3405 91.961 86.5588 92.6547 85.7715C93.4485 84.8709 94.25 83.9781 95.0535 83.0868C95.6886 82.3824 96.3209 81.6754 96.9509 80.9662C97.7775 80.0354 98.6094 79.1099 99.4424 78.1853C100.074 77.4836 100.704 76.7796 101.331 76.0734C102.158 75.1427 102.99 74.2171 103.823 73.2926C104.455 72.5909 105.084 71.887 105.711 71.1807C106.538 70.25 107.37 69.3244 108.203 68.3999C108.835 67.6982 109.464 66.9943 110.092 66.288C110.819 65.4695 111.549 64.6547 112.282 63.8417C113.354 62.6522 114.419 61.457 115.483 60.2595C116.645 58.9512 117.81 57.6465 118.981 56.3472C119.734 55.5122 120.482 54.6733 121.226 53.831C121.661 53.3415 122.102 52.8625 122.558 52.3962Z" fill="#8C734B"/>
<path d="M164.841 131.378C165.398 131.633 165.794 131.956 166.241 132.382C166.386 132.52 166.531 132.658 166.68 132.799C166.853 132.966 167.026 133.133 167.199 133.3C167.306 133.403 167.414 133.506 167.524 133.613C168.26 134.322 168.994 135.034 169.726 135.746C168.403 137.353 167.032 138.908 165.637 140.447C164.971 141.181 164.309 141.918 163.651 142.659C162.924 143.478 162.193 144.293 161.461 145.106C160.758 145.885 160.059 146.666 159.365 147.454C158.572 148.354 157.77 149.247 156.967 150.138C156.332 150.843 155.699 151.55 155.069 152.259C154.243 153.19 153.411 154.115 152.578 155.04C151.946 155.742 151.316 156.446 150.689 157.152C149.862 158.083 149.031 159.008 148.198 159.933C147.566 160.634 146.936 161.338 146.309 162.044C145.482 162.975 144.65 163.901 143.817 164.825C143.185 165.527 142.556 166.231 141.929 166.937C141.201 167.756 140.471 168.571 139.738 169.383C138.667 170.573 137.601 171.768 136.538 172.966C135.374 174.275 134.207 175.581 133.035 176.882C132.403 177.584 131.774 178.288 131.146 178.994C130.32 179.925 129.488 180.851 128.655 181.775C128.023 182.477 127.393 183.181 126.766 183.887C126.039 184.705 125.309 185.52 124.576 186.333C123.813 187.18 123.051 188.028 122.291 188.878C122.211 188.967 122.131 189.057 122.048 189.149C121.523 189.738 121.024 190.344 120.533 190.964C119.902 190.862 119.593 190.592 119.132 190.145C118.987 190.005 118.842 189.866 118.693 189.723C118.612 189.644 118.532 189.565 118.448 189.484C118.134 189.177 117.818 188.873 117.502 188.568C116.882 187.97 116.264 187.371 115.647 186.77C115.772 186.177 115.909 185.918 116.342 185.503C116.771 185.089 117.161 184.656 117.544 184.197C118.167 183.452 118.815 182.735 119.469 182.019C120.285 181.124 121.098 180.228 121.902 179.322C122.621 178.51 123.345 177.703 124.071 176.897C124.803 176.084 125.534 175.269 126.261 174.451C127.087 173.52 127.919 172.595 128.752 171.67C129.384 170.968 130.014 170.264 130.641 169.558C131.467 168.627 132.299 167.702 133.132 166.777C133.847 165.984 134.558 165.187 135.267 164.389C135.915 163.659 136.568 162.933 137.222 162.208C137.924 161.429 138.623 160.647 139.317 159.86C140.111 158.96 140.912 158.067 141.716 157.176C142.351 156.471 142.983 155.764 143.613 155.055C144.44 154.124 145.272 153.198 146.105 152.274C146.737 151.572 147.366 150.868 147.993 150.162C148.82 149.231 149.652 148.306 150.485 147.381C151.117 146.68 151.747 145.976 152.374 145.269C153.2 144.339 154.032 143.413 154.865 142.489C155.58 141.695 156.291 140.898 157 140.1C157.648 139.37 158.301 138.644 158.955 137.919C159.657 137.14 160.356 136.359 161.05 135.571C161.776 134.748 162.507 133.93 163.24 133.114C163.341 133.002 163.442 132.889 163.546 132.773C163.689 132.614 163.689 132.614 163.835 132.453C163.962 132.312 163.962 132.312 164.091 132.169C164.337 131.9 164.587 131.638 164.841 131.378Z" fill="#8C734B"/>
</svg>
