<svg width="250" height="250" viewBox="0 0 250 250" fill="none" xmlns="http://www.w3.org/2000/svg">
<path d="M0 125C0 55.9644 55.9644 0 125 0C194.036 0 250 55.9644 250 125C250 194.036 194.036 250 125 250C55.9644 250 0 194.036 0 125Z" fill="white"/>
<path d="M123.733 98.5302C124.211 98.7569 124.569 98.9999 124.949 99.3753C125.049 99.4737 125.15 99.5721 125.254 99.6735C125.36 99.7792 125.466 99.8847 125.576 99.9937C125.803 100.217 126.031 100.44 126.258 100.662C126.429 100.83 126.429 100.83 126.603 101.002C127.082 101.471 127.566 101.934 128.05 102.396C128.23 102.568 128.41 102.74 128.59 102.912C128.768 103.083 128.946 103.253 129.124 103.423C130.387 104.629 131.646 105.84 132.9 107.056C133.577 107.711 134.256 108.364 134.937 109.015C135.834 109.872 136.726 110.735 137.618 111.599C138.294 112.254 138.973 112.907 139.654 113.558C140.551 114.415 141.444 115.278 142.335 116.142C143.011 116.798 143.69 117.45 144.371 118.101C145.266 118.957 146.157 119.818 147.047 120.68C148.088 121.689 149.135 122.692 150.183 123.693C149.924 124.341 149.542 124.738 149.057 125.222C148.434 125.844 147.86 126.492 147.294 127.169C146.774 127.783 146.23 128.375 145.687 128.968C144.872 129.862 144.058 130.759 143.255 131.665C142.535 132.477 141.812 133.284 141.086 134.09C140.353 134.903 139.623 135.717 138.896 136.536C138.069 137.467 137.237 138.392 136.404 139.317C135.69 140.11 134.979 140.907 134.27 141.705C133.621 142.435 132.968 143.161 132.315 143.886C131.463 144.832 130.617 145.783 129.775 146.738C129.112 147.489 128.44 148.23 127.767 148.971C127.132 149.673 126.523 150.392 125.923 151.127C125.152 150.877 124.739 150.473 124.186 149.871C123.56 149.193 122.917 148.566 122.232 147.952C121.64 147.414 121.072 146.851 120.501 146.289C119.638 145.443 118.774 144.6 117.9 143.766C117.118 143.02 116.339 142.269 115.562 141.516C114.779 140.756 113.993 139.999 113.204 139.245C112.307 138.387 111.414 137.524 110.523 136.66C109.846 136.005 109.167 135.352 108.487 134.701C107.697 133.947 106.912 133.19 106.128 132.43C105.16 131.491 104.189 130.557 103.215 129.626C102.838 129.266 102.462 128.905 102.087 128.544C101.989 128.45 101.892 128.357 101.792 128.26C101.608 128.083 101.424 127.906 101.24 127.728C100.667 127.177 100.077 126.654 99.4734 126.139C99.5718 125.49 99.8248 125.173 100.253 124.697C100.389 124.544 100.526 124.392 100.667 124.234C100.83 124.053 100.994 123.873 101.158 123.693C101.355 123.474 101.553 123.255 101.75 123.037C102.182 122.557 102.616 122.079 103.049 121.6C103.942 120.615 104.824 119.62 105.707 118.625C106.87 117.315 108.037 116.01 109.209 114.709C109.841 114.007 110.471 113.303 111.098 112.597C111.925 111.666 112.756 110.74 113.589 109.816C114.221 109.114 114.851 108.41 115.478 107.704C116.305 106.773 117.137 105.848 117.97 104.923C118.602 104.222 119.231 103.518 119.858 102.811C120.617 101.957 121.379 101.105 122.143 100.256C122.244 100.144 122.344 100.032 122.448 99.9169C122.542 99.8121 122.636 99.7071 122.734 99.5991C122.817 99.5066 122.9 99.4139 122.986 99.3184C123.231 99.051 123.481 98.7898 123.733 98.5302Z" fill="#8C734B"/>
<path d="M135.192 78.6076C135.701 78.8474 136.086 79.1257 136.501 79.5121C136.677 79.6756 136.677 79.6756 136.857 79.8423C137.412 80.3684 137.962 80.9004 138.509 81.4364C138.746 81.6679 138.984 81.8997 139.221 82.1312C139.396 82.3016 139.396 82.3016 139.574 82.4754C140.052 82.9398 140.533 83.4009 141.015 83.8607C141.801 84.6111 142.583 85.3651 143.363 86.1214C144.147 86.8813 144.932 87.6392 145.722 88.3932C146.619 89.2504 147.511 90.1131 148.403 90.9774C149.079 91.6328 149.758 92.2859 150.439 92.9364C151.336 93.7936 152.229 94.6566 153.12 95.5206C153.796 96.176 154.475 96.8291 155.156 97.4796C156.053 98.3368 156.946 99.1998 157.837 100.064C158.514 100.719 159.192 101.372 159.873 102.023C160.662 102.777 161.448 103.534 162.232 104.294C163.379 105.406 164.531 106.511 165.686 107.614C166.948 108.821 168.207 110.031 169.462 111.247C170.138 111.903 170.817 112.556 171.498 113.206C172.395 114.064 173.288 114.926 174.179 115.79C174.855 116.446 175.534 117.099 176.215 117.749C177.112 118.607 178.005 119.469 178.896 120.334C179.573 120.989 180.251 121.642 180.932 122.293C181.721 123.047 182.507 123.804 183.291 124.564C185.048 126.267 186.816 127.957 188.598 129.632C188.357 130.432 187.967 130.86 187.387 131.434C186.822 132 186.273 132.569 185.765 133.192C185.292 133.768 184.792 134.234 184.217 134.699C183.287 133.866 182.382 133.01 181.49 132.133C180.628 131.287 179.763 130.443 178.89 129.61C178.107 128.863 177.329 128.113 176.552 127.36C175.768 126.6 174.983 125.842 174.193 125.088C173.296 124.231 172.404 123.368 171.512 122.504C170.836 121.849 170.157 121.196 169.476 120.545C168.579 119.688 167.686 118.825 166.795 117.961C166.119 117.305 165.44 116.653 164.759 116.002C163.862 115.145 162.969 114.282 162.078 113.418C161.313 112.677 160.545 111.939 159.775 111.204C159.071 110.531 158.372 109.854 157.673 109.176C156.921 108.448 156.168 107.723 155.409 107.003C154.54 106.18 153.68 105.348 152.821 104.515C152.141 103.856 151.46 103.2 150.776 102.547C149.878 101.69 148.986 100.827 148.095 99.9627C147.418 99.3073 146.74 98.6545 146.059 98.0037C145.161 97.1465 144.269 96.2838 143.378 95.4195C142.701 94.7641 142.022 94.111 141.341 93.4605C140.444 92.6033 139.552 91.7403 138.66 90.8763C137.896 90.1353 137.127 89.3979 136.357 88.6624C135.654 87.9897 134.954 87.3127 134.255 86.6347C133.17 85.5825 132.078 84.5389 130.98 83.5004C131.317 83.0921 131.654 82.6843 131.991 82.2772C132.077 82.1739 132.162 82.071 132.25 81.9645C133.205 80.821 134.2 79.7162 135.192 78.6076Z" fill="#8C734B"/>
<path d="M141.426 71.4455C142.157 71.527 142.574 72.0221 143.079 72.5267C143.174 72.6197 143.269 72.7126 143.367 72.8083C143.57 73.0076 143.773 73.2073 143.976 73.4075C144.498 73.9224 145.026 74.4309 145.553 74.9403C145.767 75.1478 145.982 75.3554 146.196 75.5629C146.766 76.1149 147.338 76.6638 147.912 77.2118C148.809 78.0693 149.702 78.932 150.593 79.7963C151.269 80.4516 151.948 81.1045 152.629 81.7553C153.526 82.6125 154.419 83.4754 155.31 84.3395C155.987 84.9948 156.665 85.6479 157.346 86.2985C158.244 87.1557 159.136 88.0186 160.027 88.8827C160.792 89.6237 161.56 90.361 162.33 91.0965C163.034 91.7692 163.734 92.4463 164.433 93.1242C165.184 93.8527 165.938 94.5779 166.697 95.2974C167.565 96.1208 168.425 96.952 169.285 97.7855C169.964 98.444 170.646 99.1001 171.329 99.7534C172.227 100.611 173.119 101.474 174.011 102.338C174.687 102.993 175.366 103.646 176.047 104.297C176.944 105.154 177.836 106.017 178.728 106.881C179.404 107.536 180.083 108.189 180.764 108.84C181.661 109.697 182.554 110.56 183.445 111.424C184.122 112.08 184.8 112.732 185.481 113.383C186.27 114.137 187.056 114.895 187.84 115.655C188.897 116.679 189.958 117.699 191.022 118.715C191.303 118.984 191.583 119.253 191.863 119.522C192.899 120.517 193.939 121.503 195 122.469C194.75 123.079 194.416 123.455 193.957 123.911C193.254 124.624 192.606 125.365 191.967 126.139C191.746 126.401 191.525 126.663 191.304 126.925C191.205 127.043 191.106 127.16 191.004 127.28C190.933 127.365 190.861 127.45 190.788 127.537C190.201 127.278 189.838 126.932 189.398 126.456C188.826 125.838 188.226 125.273 187.602 124.712C187.04 124.201 186.498 123.668 185.955 123.136C185.718 122.904 185.48 122.672 185.243 122.441C185.126 122.327 185.01 122.214 184.89 122.097C184.412 121.632 183.931 121.171 183.449 120.711C182.663 119.961 181.881 119.207 181.101 118.45C180.317 117.691 179.531 116.933 178.742 116.179C177.845 115.321 176.952 114.459 176.061 113.595C175.384 112.939 174.706 112.286 174.025 111.636C173.128 110.778 172.235 109.916 171.344 109.051C170.667 108.396 169.989 107.743 169.308 107.092C168.411 106.235 167.518 105.372 166.627 104.508C165.95 103.853 165.271 103.2 164.59 102.549C163.801 101.795 163.016 101.037 162.232 100.278C161.085 99.1659 159.933 98.0604 158.778 96.9575C157.516 95.7511 156.257 94.5409 155.002 93.325C154.326 92.6694 153.647 92.0165 152.966 91.366C152.069 90.5085 151.176 89.6458 150.285 88.7815C149.608 88.1262 148.93 87.4731 148.249 86.8225C147.351 85.9653 146.459 85.1024 145.568 84.2383C144.891 83.583 144.213 82.9299 143.532 82.2793C142.636 81.4235 141.744 80.5628 140.855 79.699C140.332 79.1909 139.806 78.6863 139.274 78.188C139.124 78.0462 139.124 78.0462 138.97 77.9015C138.78 77.7236 138.59 77.5464 138.399 77.3703C137.949 76.9467 137.604 76.5821 137.382 75.9888C137.508 75.8616 137.508 75.8616 137.636 75.7321C138.317 75.0347 138.969 74.3237 139.594 73.5711C140.194 72.8528 140.811 72.1507 141.426 71.4455Z" fill="#8C734B"/>
<path d="M157.934 124.741C158.591 125.114 159.069 125.537 159.587 126.096C160.206 126.752 160.839 127.37 161.512 127.967C161.912 128.33 162.282 128.715 162.651 129.11C162.406 129.683 162.1 130.091 161.693 130.552C161.558 130.704 161.423 130.857 161.284 131.015C160.494 131.897 159.7 132.774 158.905 133.651C158.35 134.263 157.798 134.88 157.249 135.499C156.526 136.314 155.799 137.125 155.07 137.934C154.255 138.839 153.443 139.746 152.634 140.657C151.985 141.387 151.333 142.113 150.679 142.838C149.977 143.617 149.277 144.399 148.584 145.186C147.79 146.087 146.988 146.979 146.185 147.871C145.55 148.575 144.918 149.282 144.288 149.991C143.461 150.922 142.629 151.848 141.796 152.772C141.164 153.474 140.535 154.178 139.907 154.884C139.081 155.815 138.249 156.74 137.416 157.665C136.784 158.367 136.154 159.07 135.527 159.777C134.7 160.707 133.869 161.633 133.036 162.557C132.404 163.259 131.774 163.963 131.147 164.669C130.32 165.6 129.488 166.526 128.655 167.45C127.941 168.244 127.23 169.04 126.521 169.839C125.872 170.569 125.219 171.295 124.566 172.02C123.864 172.798 123.164 173.58 122.471 174.367C121.677 175.268 120.875 176.161 120.072 177.052C119.355 177.848 118.641 178.647 117.93 179.448C117.271 180.19 116.607 180.927 115.942 181.663C115.1 182.597 114.268 183.539 113.457 184.502C112.97 184.272 112.611 184.021 112.224 183.639C112.121 183.538 112.017 183.436 111.911 183.332C111.803 183.224 111.694 183.117 111.583 183.006C111.358 182.785 111.132 182.564 110.907 182.343C110.797 182.235 110.687 182.127 110.573 182.015C109.917 181.376 109.245 180.755 108.572 180.134C108.831 179.485 109.213 179.089 109.698 178.605C110.321 177.982 110.895 177.335 111.461 176.658C111.981 176.043 112.525 175.452 113.068 174.859C113.883 173.964 114.696 173.068 115.5 172.161C116.22 171.35 116.943 170.542 117.669 169.737C118.402 168.924 119.132 168.109 119.859 167.29C120.586 166.472 121.317 165.657 122.049 164.844C123.121 163.655 124.187 162.46 125.25 161.262C126.413 159.952 127.58 158.646 128.753 157.345C129.385 156.644 130.014 155.94 130.641 155.233C131.468 154.303 132.3 153.377 133.133 152.453C133.765 151.751 134.394 151.047 135.022 150.341C135.848 149.41 136.68 148.484 137.513 147.56C138.145 146.858 138.775 146.154 139.402 145.448C140.229 144.517 141.06 143.592 141.893 142.667C142.525 141.966 143.155 141.262 143.782 140.555C144.609 139.625 145.441 138.699 146.274 137.774C146.988 136.981 147.699 136.184 148.408 135.386C149.057 134.656 149.71 133.93 150.363 133.205C151.065 132.426 151.765 131.644 152.459 130.857C153.251 129.959 154.05 129.068 154.852 128.178C155.622 127.324 156.388 126.466 157.152 125.606C157.75 124.932 157.75 124.932 157.934 124.741Z" fill="#8C734B"/>
<path d="M65.4489 115.305C66.0844 115.583 66.5164 115.998 67.0177 116.484C67.1482 116.61 67.1482 116.61 67.2813 116.738C67.5697 117.017 67.8571 117.297 68.1444 117.576C68.3501 117.775 68.5559 117.975 68.7617 118.173C69.1895 118.587 69.617 119.001 70.0443 119.416C70.6163 119.97 71.1909 120.521 71.7665 121.071C72.6639 121.928 73.5563 122.791 74.4476 123.655C75.1241 124.311 75.8028 124.964 76.4838 125.614C77.3811 126.472 78.2736 127.335 79.1648 128.199C79.8414 128.854 80.5201 129.507 81.201 130.158C82.0984 131.015 82.9908 131.878 83.882 132.742C84.5586 133.397 85.2373 134.05 85.9182 134.701C86.8156 135.558 87.708 136.421 88.5992 137.285C89.3642 138.026 90.1324 138.763 90.9021 139.499C91.6059 140.172 92.3055 140.849 93.0045 141.527C93.7558 142.255 94.5093 142.98 95.2683 143.7C96.1367 144.523 96.9974 145.355 97.8567 146.188C98.536 146.846 99.2174 147.502 99.9013 148.156C100.799 149.013 101.691 149.876 102.582 150.74C103.259 151.395 103.938 152.048 104.618 152.699C105.516 153.556 106.408 154.419 107.3 155.283C107.976 155.939 108.655 156.592 109.336 157.242C110.233 158.1 111.125 158.962 112.017 159.826C112.781 160.567 113.548 161.304 114.318 162.038C114.816 162.514 115.311 162.991 115.805 163.471C115.916 163.58 116.028 163.688 116.143 163.8C116.357 164.008 116.571 164.216 116.784 164.425C117.458 165.08 118.148 165.711 118.854 166.329C118.723 166.969 118.54 167.233 118.075 167.683C117.506 168.251 116.978 168.836 116.464 169.457C116.117 169.874 115.764 170.286 115.411 170.697C115.24 170.897 115.24 170.897 115.064 171.101C114.939 171.247 114.939 171.247 114.811 171.396C114.152 171.301 113.87 170.994 113.421 170.501C112.852 169.878 112.256 169.312 111.631 168.751C111.038 168.211 110.467 167.646 109.894 167.082C109.031 166.236 108.167 165.393 107.293 164.559C106.511 163.813 105.732 163.063 104.956 162.31C104.172 161.55 103.386 160.792 102.597 160.038C101.7 159.181 100.807 158.318 99.9159 157.454C99.2393 156.798 98.5607 156.145 97.8797 155.495C96.9823 154.637 96.0899 153.775 95.1987 152.911C94.5221 152.255 93.8435 151.602 93.1625 150.952C92.2651 150.094 91.3727 149.231 90.4813 148.367C89.7165 147.626 88.9484 146.889 88.1784 146.153C87.4748 145.481 86.7752 144.804 86.0762 144.126C85.325 143.397 84.5714 142.672 83.8124 141.952C82.944 141.129 82.0833 140.298 81.2241 139.465C80.5447 138.806 79.8631 138.15 79.1792 137.497C78.282 136.639 77.3896 135.777 76.4982 134.912C75.8217 134.257 75.143 133.604 74.4621 132.953C73.5647 132.096 72.6723 131.233 71.781 130.369C71.1045 129.714 70.4258 129.061 69.7449 128.41C68.8475 127.553 67.9551 126.69 67.0638 125.826C66.4756 125.256 65.8862 124.688 65.2943 124.122C65.1178 123.953 64.9415 123.784 64.7653 123.615C64.2576 123.128 63.7472 122.644 63.2344 122.162C63.0003 121.941 62.7662 121.719 62.5322 121.497C62.4201 121.393 62.3081 121.289 62.1926 121.181C62.0899 121.083 61.9872 120.986 61.8813 120.885C61.7894 120.798 61.6975 120.712 61.6028 120.623C61.4055 120.372 61.4055 120.372 61.4055 119.848C61.6957 119.502 61.6957 119.502 62.09 119.116C62.692 118.512 63.2569 117.896 63.8023 117.238C64.1467 116.822 64.4973 116.413 64.8487 116.004C64.9631 115.87 65.0776 115.737 65.1955 115.6C65.2791 115.502 65.3627 115.405 65.4489 115.305Z" fill="#8C734B"/>
<path d="M59.0431 122.641C59.7752 122.722 60.1101 123.176 60.6014 123.711C61.2312 124.392 61.8774 125.024 62.5661 125.641C63.158 126.179 63.7265 126.742 64.2973 127.304C65.16 128.15 66.0244 128.993 66.8981 129.827C67.6804 130.573 68.4591 131.324 69.2356 132.076C70.0194 132.836 70.8051 133.594 71.5942 134.348C72.4916 135.206 73.384 136.068 74.2753 136.933C74.9518 137.588 75.6305 138.241 76.3114 138.892C77.2088 139.749 78.1012 140.612 78.9925 141.476C79.7574 142.217 80.5256 142.954 81.2953 143.69C81.9991 144.362 82.6988 145.039 83.3977 145.717C84.149 146.446 84.9025 147.171 85.6616 147.89C86.53 148.714 87.3906 149.545 88.2499 150.379C88.9292 151.037 89.6106 151.693 90.2945 152.346C91.1919 153.204 92.0843 154.067 92.9755 154.931C93.6521 155.586 94.3308 156.239 95.0117 156.89C95.9091 157.747 96.8015 158.61 97.693 159.474C98.3693 160.129 99.048 160.782 99.7289 161.433C100.626 162.29 101.519 163.153 102.41 164.017C103.087 164.673 103.765 165.325 104.446 165.976C105.235 166.73 106.021 167.488 106.805 168.248C107.86 169.27 108.919 170.287 109.981 171.302C110.484 171.783 110.987 172.265 111.49 172.747C111.676 172.925 111.861 173.102 112.046 173.28C112.179 173.407 112.312 173.534 112.449 173.664C112.357 174.348 112.061 174.641 111.585 175.106C110.876 175.817 110.225 176.557 109.585 177.334C109.364 177.596 109.143 177.859 108.921 178.12C108.822 178.238 108.724 178.355 108.622 178.475C108.55 178.56 108.479 178.645 108.405 178.732C107.853 178.478 107.459 178.161 107.015 177.738C106.868 177.598 106.72 177.458 106.569 177.314C105.719 176.495 104.874 175.672 104.029 174.848C103.079 173.923 102.12 173.007 101.161 172.092C99.8981 170.886 98.6392 169.675 97.3849 168.459C96.7083 167.804 96.0297 167.151 95.3487 166.5C94.4513 165.643 93.559 164.78 92.6677 163.916C91.9911 163.261 91.3125 162.608 90.6315 161.957C89.7341 161.1 88.8418 160.237 87.9505 159.373C87.2739 158.717 86.5953 158.064 85.9143 157.414C85.0169 156.556 84.1246 155.694 83.2333 154.829C82.5567 154.174 81.8781 153.521 81.1971 152.87C80.408 152.117 79.6222 151.359 78.8385 150.599C77.6917 149.487 76.5394 148.382 75.3848 147.279C74.1221 146.073 72.863 144.862 71.6088 143.646C70.9322 142.991 70.2535 142.338 69.5725 141.687C68.6752 140.83 67.7828 139.967 66.8915 139.103C66.215 138.448 65.5363 137.795 64.8553 137.144C63.958 136.287 63.0656 135.424 62.1743 134.56C61.4098 133.819 60.6421 133.082 59.8724 132.347C59.1574 131.664 58.4472 130.975 57.7374 130.286C56.8371 129.412 55.9289 128.549 54.9998 127.708C55.0969 127.114 55.271 126.847 55.6947 126.441C56.2306 125.909 56.7207 125.355 57.205 124.772C57.8077 124.053 58.4268 123.348 59.0431 122.641Z" fill="#8C734B"/>
<path d="M128.788 85.9493C129.406 86.0486 129.672 86.2891 130.094 86.7574C130.632 87.3511 131.204 87.8832 131.797 88.4161C132.391 88.958 132.963 89.5236 133.537 90.0886C134.4 90.9341 135.264 91.7776 136.138 92.6113C136.92 93.3578 137.699 94.1082 138.475 94.861C139.259 95.621 140.045 96.3786 140.834 97.1326C141.731 97.9901 142.624 98.8528 143.515 99.7168C144.191 100.372 144.87 101.025 145.551 101.676C146.448 102.533 147.341 103.396 148.232 104.26C148.909 104.916 149.587 105.568 150.268 106.219C151.057 106.973 151.843 107.731 152.627 108.491C153.774 109.602 154.926 110.708 156.081 111.811C157.343 113.017 158.602 114.227 159.856 115.443C160.533 116.099 161.212 116.752 161.893 117.403C162.79 118.26 163.682 119.123 164.574 119.987C165.25 120.642 165.929 121.295 166.61 121.946C167.507 122.803 168.4 123.666 169.291 124.53C169.968 125.185 170.646 125.838 171.327 126.489C172.224 127.346 173.117 128.209 174.008 129.073C174.685 129.729 175.364 130.382 176.044 131.032C176.94 131.888 177.832 132.749 178.721 133.612C179.244 134.121 179.769 134.625 180.302 135.123C180.402 135.218 180.503 135.313 180.606 135.41C180.796 135.588 180.986 135.765 181.177 135.941C181.627 136.365 181.972 136.729 182.194 137.323C181.692 137.909 181.185 138.49 180.677 139.07C180.574 139.188 180.472 139.306 180.366 139.427C180.029 139.812 179.69 140.195 179.351 140.577C179.24 140.704 179.13 140.83 179.017 140.96C178.912 141.078 178.807 141.195 178.699 141.316C178.606 141.422 178.512 141.528 178.416 141.637C178.15 141.866 178.15 141.866 177.645 141.866C177.372 141.656 177.372 141.656 177.077 141.36C176.967 141.252 176.858 141.144 176.745 141.032C176.628 140.914 176.512 140.797 176.392 140.675C176.147 140.433 175.902 140.19 175.656 139.947C175.535 139.827 175.415 139.706 175.29 139.582C174.842 139.139 174.386 138.705 173.928 138.273C173.063 137.454 172.206 136.626 171.35 135.796C170.671 135.137 169.989 134.481 169.305 133.828C168.408 132.971 167.516 132.108 166.624 131.244C165.948 130.588 165.269 129.935 164.588 129.285C163.691 128.427 162.798 127.565 161.907 126.701C161.231 126.045 160.552 125.392 159.871 124.741C158.974 123.884 158.081 123.022 157.19 122.157C156.513 121.502 155.835 120.849 155.154 120.198C154.256 119.341 153.364 118.478 152.473 117.614C151.708 116.873 150.94 116.136 150.17 115.4C149.466 114.727 148.767 114.05 148.068 113.372C147.316 112.644 146.563 111.919 145.804 111.199C144.935 110.376 144.075 109.545 143.215 108.711C142.536 108.053 141.855 107.397 141.171 106.743C140.273 105.886 139.381 105.023 138.49 104.159C137.813 103.504 137.135 102.851 136.454 102.2C135.556 101.343 134.664 100.48 133.773 99.6159C133.096 98.9603 132.417 98.3075 131.736 97.6569C130.947 96.9029 130.162 96.1452 129.378 95.3853C127.099 93.1573 127.099 93.1573 124.745 91.0168C124.82 90.2452 125.325 89.7999 125.819 89.2695C126.002 89.0685 126.185 88.8676 126.368 88.6666C126.461 88.5646 126.555 88.4625 126.651 88.3572C127.103 87.8622 127.545 87.3589 127.988 86.8558C128.143 86.68 128.298 86.504 128.454 86.3281C128.564 86.2032 128.674 86.0781 128.788 85.9493Z" fill="#8C734B"/>
<path d="M71.8529 108.137C72.3498 108.371 72.7116 108.63 73.1053 109.02C73.2135 109.127 73.3216 109.233 73.4331 109.342C73.5475 109.456 73.6619 109.57 73.7798 109.688C74.0233 109.927 74.2668 110.167 74.5103 110.407C74.631 110.526 74.7517 110.645 74.8761 110.767C75.3558 111.239 75.8413 111.703 76.328 112.167C77.1138 112.917 77.8958 113.671 78.676 114.428C79.46 115.187 80.2455 115.945 81.0346 116.699C81.932 117.557 82.8244 118.419 83.7157 119.284C84.3923 119.939 85.0709 120.592 85.7518 121.243C86.6492 122.1 87.5416 122.963 88.4329 123.827C89.1095 124.482 89.7881 125.135 90.469 125.786C91.2582 126.54 92.0437 127.297 92.8276 128.057C93.9744 129.169 95.1269 130.274 96.2814 131.377C97.5442 132.584 98.8033 133.794 100.057 135.01C100.734 135.665 101.413 136.318 102.094 136.969C102.991 137.826 103.883 138.689 104.775 139.553C105.451 140.209 106.13 140.862 106.811 141.512C107.708 142.37 108.601 143.232 109.492 144.096C110.168 144.752 110.847 145.405 111.528 146.055C112.425 146.913 113.318 147.776 114.209 148.64C114.886 149.295 115.564 149.948 116.245 150.599C117.034 151.353 117.82 152.111 118.604 152.87C119.572 153.809 120.543 154.743 121.517 155.674C121.894 156.034 122.27 156.395 122.645 156.756C122.743 156.85 122.84 156.943 122.94 157.04C123.124 157.217 123.308 157.394 123.492 157.572C124.065 158.123 124.654 158.647 125.258 159.161C125.029 159.689 124.768 160.067 124.383 160.484C124.277 160.6 124.171 160.716 124.061 160.836C123.949 160.957 123.837 161.078 123.721 161.203C123.492 161.453 123.263 161.703 123.035 161.953C122.925 162.074 122.814 162.194 122.701 162.318C122.135 162.942 121.588 163.582 121.047 164.228C120.531 163.988 120.164 163.712 119.758 163.307C119.642 163.193 119.526 163.078 119.407 162.961C119.284 162.839 119.162 162.716 119.036 162.59C118.777 162.334 118.517 162.079 118.258 161.823C118.131 161.697 118.003 161.57 117.872 161.44C117.383 160.959 116.889 160.485 116.393 160.013C115.606 159.263 114.825 158.509 114.045 157.752C113.294 157.024 112.54 156.298 111.781 155.579C110.913 154.755 110.052 153.924 109.192 153.091C108.513 152.432 107.832 151.776 107.148 151.123C106.25 150.265 105.358 149.403 104.467 148.539C103.79 147.883 103.111 147.23 102.431 146.58C101.533 145.722 100.641 144.86 99.7495 143.996C99.0729 143.34 98.3943 142.687 97.7134 142.037C96.816 141.179 95.9236 140.316 95.0323 139.452C94.3557 138.797 93.6771 138.144 92.9962 137.493C92.207 136.739 91.4215 135.981 90.6376 135.222C89.4908 134.11 88.3383 133.005 87.1838 131.902C85.921 130.695 84.6619 129.485 83.4079 128.269C82.7313 127.613 82.0526 126.961 81.3717 126.31C80.4743 125.453 79.5819 124.59 78.6904 123.726C78.0141 123.07 77.3353 122.417 76.6544 121.767C75.757 120.909 74.8646 120.047 73.9733 119.182C73.2968 118.527 72.6181 117.874 71.9372 117.223C71.1171 116.44 70.2996 115.653 69.4838 114.865C69.3242 114.71 69.3242 114.71 69.1613 114.553C68.6456 114.054 68.1357 113.552 67.6411 113.03C67.9008 112.381 68.2828 111.985 68.7678 111.501C69.4008 110.858 69.9962 110.202 70.5716 109.505C70.9776 109.025 71.4127 108.582 71.8529 108.137Z" fill="#8C734B"/>
<path d="M136.37 65.6788C136.968 65.7811 137.257 66.0056 137.689 66.4392C137.87 66.6193 137.87 66.6193 138.055 66.803C138.18 66.9294 138.305 67.0558 138.434 67.186C138.68 67.4324 138.927 67.6786 139.173 67.9245C139.294 68.0449 139.415 68.1652 139.539 68.2892C140.097 68.8341 140.674 69.3552 141.256 69.8726C141.016 70.6973 140.55 71.1855 139.96 71.762C139.278 72.4392 138.641 73.137 138.023 73.8788C137.506 74.4921 136.963 75.0806 136.423 75.6718C135.607 76.5667 134.794 77.4632 133.99 78.3693C133.267 79.1845 132.54 79.9958 131.811 80.8048C131.108 81.5839 130.409 82.3656 129.715 83.1527C128.921 84.0533 128.12 84.9461 127.317 85.8374C126.682 86.5418 126.049 87.2488 125.419 87.958C124.593 88.8888 123.761 89.8145 122.928 90.7388C122.296 91.4406 121.666 92.1446 121.039 92.8508C120.212 93.7816 119.381 94.7071 118.547 95.6316C117.916 96.3334 117.286 97.0374 116.659 97.7436C115.832 98.6744 115 99.5999 114.167 100.524C113.535 101.226 112.906 101.93 112.278 102.636C111.452 103.567 110.62 104.493 109.787 105.417C109.072 106.21 108.362 107.007 107.652 107.806C107.004 108.536 106.351 109.261 105.698 109.986C104.995 110.765 104.296 111.547 103.602 112.334C102.809 113.235 102.007 114.128 101.204 115.019C100.568 115.723 99.9362 116.43 99.3062 117.14C98.5791 117.958 97.8486 118.773 97.1161 119.586C95.4202 121.468 93.7388 123.365 92.0618 125.265C91.3647 125.175 91.0594 124.798 90.5876 124.282C89.9727 123.624 89.3459 123.007 88.6748 122.412C88.1507 121.932 87.6632 121.416 87.1761 120.896C87.6837 119.987 88.3473 119.309 89.0748 118.583C89.5395 118.096 89.9695 117.589 90.4018 117.072C90.9224 116.457 91.4663 115.866 92.0093 115.272C92.8245 114.377 93.6379 113.481 94.4415 112.575C95.1612 111.763 95.8846 110.956 96.6105 110.15C97.3433 109.337 98.0738 108.522 98.8008 107.704C99.6275 106.773 100.459 105.847 101.292 104.923C102.007 104.13 102.718 103.333 103.427 102.534C104.075 101.805 104.728 101.079 105.382 100.354C106.084 99.5745 106.783 98.7929 107.477 98.0055C108.271 97.1049 109.072 96.2123 109.876 95.3211C110.511 94.6164 111.143 93.9097 111.773 93.2002C112.6 92.2697 113.432 91.344 114.265 90.4194C114.897 89.7179 115.526 89.0139 116.153 88.3076C116.98 87.3769 117.812 86.4512 118.645 85.5268C119.277 84.8251 119.906 84.1211 120.534 83.4148C121.36 82.4841 122.192 81.5586 123.025 80.634C123.657 79.9323 124.287 79.2285 124.914 78.5223C125.74 77.5915 126.572 76.6658 127.405 75.7414C128.12 74.948 128.831 74.1513 129.54 73.3527C130.189 72.623 130.841 71.8972 131.495 71.1722C132.509 70.0466 133.515 68.9132 134.517 67.7757C134.864 67.3824 135.212 66.9893 135.559 66.5962C135.716 66.4187 135.873 66.2413 136.03 66.0638C136.198 65.8732 136.198 65.8732 136.37 65.6788Z" fill="#8C734B"/>
<path d="M171.753 138.018C172.497 138.096 172.926 138.62 173.438 139.132C173.631 139.322 173.825 139.512 174.019 139.701C174.117 139.798 174.216 139.896 174.317 139.996C174.795 140.464 175.28 140.923 175.765 141.382C175.934 141.543 176.104 141.704 176.273 141.865C176.394 141.98 176.514 142.094 176.639 142.212C176.552 142.935 176.188 143.252 175.691 143.741C175.062 144.363 174.486 145.007 173.917 145.688C173.398 146.303 172.854 146.894 172.311 147.487C171.496 148.382 170.682 149.278 169.879 150.184C169.159 150.996 168.436 151.803 167.71 152.609C166.894 153.513 166.083 154.421 165.274 155.332C164.625 156.062 163.972 156.787 163.319 157.512C162.617 158.292 161.917 159.073 161.223 159.861C160.43 160.761 159.628 161.654 158.825 162.545C158.19 163.25 157.558 163.956 156.928 164.666C156.101 165.597 155.269 166.522 154.436 167.447C153.804 168.148 153.174 168.852 152.547 169.558C151.72 170.489 150.889 171.415 150.056 172.339C149.424 173.041 148.794 173.745 148.167 174.451C147.34 175.382 146.508 176.308 145.675 177.232C144.961 178.025 144.25 178.822 143.541 179.621C142.892 180.35 142.24 181.076 141.586 181.801C140.884 182.58 140.184 183.362 139.491 184.149C138.697 185.05 137.895 185.943 137.092 186.834C136.457 187.539 135.825 188.245 135.195 188.955C134.368 189.886 133.536 190.811 132.703 191.736C131.99 192.527 131.28 193.323 130.573 194.12C129.536 195.286 128.49 196.445 127.445 197.604C126.65 197.355 126.18 196.872 125.623 196.261C125.445 196.07 125.267 195.88 125.088 195.69C125.002 195.599 124.916 195.507 124.827 195.412C124.414 194.985 123.972 194.597 123.523 194.214C123.158 193.862 122.863 193.469 122.559 193.061C122.78 192.817 122.78 192.817 123.004 192.567C123.982 191.482 124.959 190.397 125.929 189.304C126.755 188.373 127.587 187.448 128.42 186.523C129.052 185.822 129.682 185.118 130.309 184.411C131.136 183.481 131.967 182.555 132.801 181.631C133.432 180.929 134.062 180.225 134.689 179.519C135.516 178.588 136.348 177.662 137.181 176.738C137.895 175.945 138.606 175.148 139.315 174.349C139.964 173.619 140.617 172.894 141.27 172.169C141.972 171.39 142.672 170.608 143.365 169.821C144.159 168.92 144.961 168.027 145.764 167.136C146.399 166.431 147.032 165.725 147.662 165.015C148.488 164.085 149.32 163.159 150.153 162.234C150.785 161.533 151.415 160.829 152.042 160.123C152.868 159.192 153.7 158.266 154.533 157.342C155.165 156.64 155.795 155.936 156.422 155.23C157.249 154.299 158.08 153.374 158.914 152.449C159.546 151.747 160.175 151.043 160.802 150.337C161.629 149.407 162.461 148.481 163.294 147.556C164.008 146.763 164.719 145.966 165.428 145.168C166.077 144.438 166.73 143.712 167.383 142.987C168.859 141.349 170.324 139.7 171.753 138.018Z" fill="#8C734B"/>
<path d="M129.295 59.0386C129.869 59.1413 130.155 59.3374 130.571 59.7546C130.739 59.9207 130.739 59.9207 130.91 60.0901C131.027 60.208 131.144 60.3259 131.264 60.4475C131.505 60.6865 131.746 60.9254 131.987 61.1642C132.161 61.3372 132.161 61.3372 132.339 61.5138C132.938 62.104 133.557 62.6701 134.181 63.2324C134.085 63.8735 133.853 64.1488 133.401 64.5866C132.829 65.145 132.316 65.738 131.802 66.353C131.28 66.9693 130.734 67.5626 130.19 68.1578C129.121 69.3306 128.061 70.5104 127.008 71.6982C125.766 73.0994 124.518 74.4953 123.266 75.8859C122.633 76.5876 122.004 77.2916 121.377 77.9979C120.55 78.9286 119.718 79.8541 118.885 80.7787C118.253 81.4804 117.624 82.1844 116.996 82.8907C116.17 83.8214 115.338 84.7469 114.505 85.6715C113.873 86.3732 113.243 87.077 112.616 87.7832C111.789 88.714 110.958 89.6397 110.125 90.564C109.493 91.2658 108.863 91.9698 108.236 92.676C107.409 93.6068 106.577 94.5323 105.744 95.4568C105.03 96.2501 104.319 97.0468 103.61 97.8454C102.961 98.5752 102.309 99.3011 101.655 100.026C100.953 100.805 100.253 101.587 99.5597 102.374C98.7659 103.275 97.9642 104.167 97.1609 105.059C96.5258 105.763 95.8935 106.47 95.2635 107.179C94.4369 108.11 93.605 109.036 92.772 109.96C92.14 110.662 91.5104 111.366 90.8834 112.072C90.0581 113.001 89.2276 113.925 88.3957 114.848C87.6388 115.689 86.8857 116.533 86.1356 117.38C85.9218 117.621 85.707 117.861 85.4921 118.101C85.4042 118.211 85.3163 118.322 85.2256 118.436C84.9868 118.625 84.9867 118.625 84.6682 118.621C84.1763 118.385 83.885 118.049 83.5125 117.642C82.8976 116.983 82.2708 116.367 81.5994 115.772C81.0756 115.292 80.5881 114.776 80.101 114.256C81.2361 112.878 82.3831 111.52 83.5863 110.204C84.4017 109.31 85.2151 108.413 86.0187 107.507C86.7384 106.696 87.4618 105.888 88.1877 105.082C88.9203 104.269 89.651 103.455 90.3778 102.636C91.2044 101.705 92.0363 100.78 92.8693 99.8553C93.5014 99.1536 94.1309 98.4496 94.7582 97.7435C95.5848 96.8128 96.4165 95.8871 97.2497 94.9627C97.9642 94.1692 98.675 93.3725 99.3841 92.574C100.033 91.8442 100.685 91.1185 101.339 90.3935C102.041 89.6143 102.741 88.8327 103.434 88.0454C104.228 87.1448 105.03 86.2519 105.833 85.3609C106.468 84.6562 107.101 83.9495 107.73 83.24C108.557 82.3093 109.389 81.3838 110.222 80.4592C110.854 79.7575 111.484 79.0535 112.111 78.3472C112.937 77.4167 113.769 76.491 114.602 75.5664C115.234 74.8648 115.864 74.1609 116.491 73.4546C117.318 72.5239 118.149 71.5983 118.982 70.6738C119.615 69.9721 120.244 69.2682 120.871 68.5619C121.698 67.6312 122.53 66.7056 123.363 65.7811C124.076 64.9887 124.787 64.1931 125.495 63.3952C125.957 62.8745 126.422 62.3561 126.889 61.8399C126.995 61.7227 127.101 61.6054 127.21 61.4846C127.415 61.258 127.62 61.0316 127.826 60.8055C128.342 60.2351 128.833 59.6582 129.295 59.0386Z" fill="#8C734B"/>
<path d="M122.558 52.3965C123.492 53.0541 124.283 53.8091 125.07 54.6479C125.64 55.2537 126.235 55.8002 126.877 56.322C127.107 56.5902 127.107 56.5902 127.107 57.2892C126.907 57.5892 126.907 57.5892 126.625 57.8892C126.522 58.0014 126.418 58.1136 126.311 58.2291C126.199 58.3478 126.086 58.4665 125.97 58.5888C125.736 58.8413 125.502 59.0938 125.268 59.3465C125.151 59.4717 125.034 59.5968 124.913 59.7258C124.454 60.2206 124.006 60.7252 123.559 61.2317C122.835 62.0469 122.108 62.858 121.379 63.6672C120.646 64.4802 119.916 65.2951 119.189 66.1135C118.462 66.932 117.731 67.7469 116.999 68.5599C115.927 69.7494 114.861 70.9446 113.798 72.1421C112.635 73.4518 111.468 74.7577 110.295 76.0585C109.663 76.7602 109.034 77.4642 108.407 78.1705C107.58 79.1013 106.748 80.027 105.915 80.9513C105.283 81.653 104.654 82.357 104.026 83.0633C103.2 83.9941 102.368 84.9196 101.535 85.8441C100.903 86.5458 100.273 87.2498 99.646 87.9559C98.8194 88.8866 97.9878 89.8124 97.1545 90.7367C96.5227 91.4384 95.8932 92.1424 95.2659 92.8487C94.5391 93.6671 93.8083 94.4821 93.0758 95.295C92.0039 96.4847 90.9382 97.6796 89.8748 98.8773C88.7116 100.187 87.5448 101.493 86.3724 102.794C85.7406 103.495 85.111 104.199 84.4838 104.906C83.7567 105.724 83.0262 106.539 82.2935 107.352C80.1454 109.716 80.1454 109.716 78.0818 112.158C77.5794 111.92 77.1975 111.648 76.7866 111.267C76.6696 111.158 76.5525 111.049 76.4319 110.937C75.7967 110.335 75.1689 109.724 74.5439 109.11C74.4133 108.983 74.2828 108.855 74.1484 108.723C73.8307 108.412 73.5133 108.1 73.1961 107.789C73.436 107.269 73.6643 106.919 74.07 106.522C74.4929 106.107 74.8801 105.672 75.2612 105.216C75.8846 104.472 76.5323 103.754 77.1868 103.038C78.0021 102.143 78.8155 101.247 79.6191 100.341C80.3388 99.5292 81.0622 98.7216 81.7881 97.9162C82.5209 97.1033 83.2514 96.2883 83.9782 95.4699C84.8048 94.5391 85.6367 93.6134 86.4697 92.6891C87.1844 91.8956 87.8953 91.0989 88.6043 90.3003C89.253 89.5705 89.9057 88.8448 90.5592 88.1198C91.2616 87.3407 91.9608 86.5591 92.6545 85.7717C93.4482 84.8711 94.2497 83.9783 95.0533 83.0871C95.6883 82.3826 96.3206 81.6756 96.9506 80.9664C97.7772 80.0357 98.6091 79.1102 99.4421 78.1856C100.074 77.4839 100.704 76.7799 101.331 76.0736C102.157 75.143 102.989 74.2174 103.823 73.2929C104.454 72.5912 105.084 71.8872 105.711 71.181C106.538 70.2503 107.37 69.3247 108.203 68.4002C108.835 67.6985 109.464 66.9945 110.091 66.2883C110.818 65.4698 111.549 64.6549 112.281 63.8419C113.353 62.6524 114.419 61.4573 115.482 60.2598C116.644 58.9514 117.81 57.6467 118.981 56.3474C119.733 55.5124 120.482 54.6736 121.226 53.8313C121.66 53.3418 122.101 52.8628 122.558 52.3965Z" fill="#8C734B"/>
<path d="M164.84 131.378C165.397 131.634 165.793 131.956 166.241 132.383C166.386 132.52 166.53 132.658 166.68 132.8C166.853 132.966 167.026 133.133 167.199 133.3C167.306 133.403 167.413 133.507 167.524 133.613C168.26 134.323 168.993 135.034 169.726 135.746C168.403 137.354 167.032 138.908 165.636 140.447C164.971 141.181 164.308 141.918 163.651 142.66C162.924 143.478 162.193 144.293 161.46 145.106C160.758 145.885 160.059 146.667 159.365 147.454C158.571 148.354 157.77 149.247 156.966 150.139C156.331 150.843 155.699 151.55 155.069 152.259C154.242 153.19 153.411 154.116 152.578 155.04C151.945 155.742 151.316 156.446 150.689 157.152C149.862 158.083 149.03 159.008 148.197 159.933C147.565 160.635 146.936 161.338 146.308 162.045C145.482 162.975 144.65 163.901 143.817 164.825C143.185 165.527 142.556 166.231 141.928 166.937C141.201 167.756 140.471 168.571 139.738 169.384C138.666 170.573 137.601 171.768 136.537 172.966C135.374 174.276 134.207 175.581 133.035 176.882C132.403 177.584 131.773 178.288 131.146 178.994C130.32 179.925 129.488 180.851 128.654 181.775C128.023 182.477 127.393 183.181 126.766 183.887C126.039 184.706 125.308 185.521 124.576 186.333C123.813 187.181 123.05 188.028 122.291 188.878C122.211 188.967 122.13 189.057 122.048 189.149C121.522 189.738 121.024 190.344 120.532 190.964C119.902 190.862 119.593 190.592 119.132 190.145C118.987 190.006 118.842 189.866 118.693 189.723C118.612 189.644 118.531 189.565 118.448 189.484C118.134 189.178 117.818 188.873 117.502 188.568C116.882 187.97 116.264 187.371 115.647 186.77C115.771 186.177 115.909 185.918 116.342 185.503C116.77 185.09 117.161 184.656 117.544 184.198C118.167 183.453 118.815 182.735 119.469 182.02C120.284 181.125 121.098 180.228 121.901 179.322C122.621 178.51 123.344 177.703 124.07 176.897C124.803 176.085 125.533 175.27 126.26 174.451C127.087 173.52 127.919 172.595 128.752 171.67C129.384 170.969 130.013 170.265 130.641 169.558C131.467 168.628 132.299 167.702 133.132 166.778C133.847 165.984 134.557 165.188 135.267 164.389C135.915 163.659 136.568 162.934 137.222 162.209C137.924 161.429 138.623 160.648 139.317 159.86C140.111 158.96 140.912 158.067 141.716 157.176C142.351 156.471 142.983 155.764 143.613 155.055C144.44 154.124 145.272 153.199 146.105 152.274C146.737 151.573 147.366 150.869 147.993 150.162C148.82 149.232 149.652 148.306 150.485 147.381C151.117 146.68 151.746 145.976 152.374 145.27C153.2 144.339 154.032 143.413 154.865 142.489C155.58 141.695 156.29 140.899 156.999 140.1C157.648 139.37 158.301 138.645 158.954 137.92C159.657 137.141 160.356 136.359 161.05 135.572C161.776 134.748 162.506 133.93 163.24 133.114C163.341 133.002 163.442 132.889 163.546 132.773C163.689 132.615 163.689 132.615 163.835 132.453C163.961 132.312 163.961 132.312 164.091 132.169C164.336 131.901 164.587 131.638 164.84 131.378Z" fill="#8C734B"/>
</svg>
