<svg width="250" height="250" viewBox="0 0 250 250" fill="none" xmlns="http://www.w3.org/2000/svg">
<mask id="path-1-inside-1_453_305" fill="white">
<path d="M0 125C0 55.9644 55.9644 0 125 0C194.036 0 250 55.9644 250 125C250 194.036 194.036 250 125 250C55.9644 250 0 194.036 0 125Z"/>
</mask>
<path d="M0 125C0 55.9644 55.9644 0 125 0C194.036 0 250 55.9644 250 125C250 194.036 194.036 250 125 250C55.9644 250 0 194.036 0 125Z" fill="white"/>
<path d="M0 125M250 125M250 125M0 125M125 0M250 125M125 250M0 125M125 250V248C57.069 248 2 192.931 2 125H0H-2C-2 195.14 54.8598 252 125 252V250ZM250 125H248C248 192.931 192.931 248 125 248V250V252C195.14 252 252 195.14 252 125H250ZM125 0V2C192.931 2 248 57.069 248 125H250H252C252 54.8598 195.14 -2 125 -2V0ZM125 0V-2C54.8598 -2 -2 54.8598 -2 125H0H2C2 57.069 57.069 2 125 2V0Z" fill="#DDDBDB" mask="url(#path-1-inside-1_453_305)"/>
<path d="M158.579 108.859C160.172 109.148 164.044 110.269 165.452 111.066C165.421 111.137 165.39 111.207 165.36 111.277C165.352 111.295 165.344 111.314 165.336 111.332C165.334 111.335 165.333 111.338 165.332 111.341C165.331 111.343 165.33 111.345 165.329 111.347C165.328 111.351 165.325 111.357 165.323 111.361C165.321 111.365 165.32 111.369 165.318 111.373C165.296 111.423 165.275 111.473 165.253 111.522C165.232 111.57 165.211 111.618 165.191 111.666C165.19 111.668 165.189 111.67 165.188 111.672C164.511 113.233 163.892 114.66 163.039 116.207C158.4 124.657 151.137 131.366 142.347 135.323C141.808 132.933 141.072 130.592 140.146 128.324C148.562 124.194 155.03 117.593 158.579 108.859Z" fill="#FE2827"/>
<path fill-rule="evenodd" clip-rule="evenodd" d="M119.318 113.929C120.584 114.752 123.991 117.306 124.971 118.484C121.35 122.169 118.329 126.308 116.453 131.162C122.049 132.415 127.859 132.15 133.408 130.827C134.323 133.049 135.032 135.351 135.527 137.703C130.134 139.097 124.528 139.479 118.995 138.83C117.892 138.703 116.778 138.509 115.671 138.316C115.252 138.243 114.835 138.171 114.42 138.102C112.588 147.709 114.628 157.652 120.094 165.762C120.936 167.005 123.859 170.798 125.019 171.589C123.608 173.055 121.008 175.036 119.314 176.159C119.069 175.824 118.439 175.137 117.909 174.559C117.908 174.557 117.905 174.554 117.904 174.553C117.871 174.517 117.838 174.481 117.806 174.446C117.587 174.207 117.392 173.993 117.257 173.839C116.158 172.57 115.133 171.239 114.184 169.855C107.256 159.566 105.203 147.924 107.545 135.831C107.621 135.557 107.689 135.248 107.754 134.956C107.769 134.888 107.783 134.822 107.798 134.757C108.211 132.909 108.824 131.148 109.444 129.365C109.493 129.226 109.541 129.086 109.59 128.946C109.895 128.309 110.155 127.72 110.412 127.136C110.804 126.25 111.191 125.374 111.724 124.353C113.075 121.814 114.663 119.408 116.466 117.168C116.906 116.632 117.382 116.095 117.863 115.559C117.926 115.489 117.989 115.419 118.051 115.349C118.1 115.295 118.148 115.242 118.197 115.188C118.221 115.161 118.245 115.135 118.268 115.109C118.624 114.714 118.978 114.32 119.318 113.929Z" fill="#00AC58"/>
<path fill-rule="evenodd" clip-rule="evenodd" d="M116.453 131.162C115.691 132.956 114.739 136.172 114.42 138.102C114.835 138.171 115.252 138.243 115.671 138.316C116.778 138.509 117.892 138.703 118.995 138.83C124.528 139.479 130.134 139.097 135.527 137.703C135.032 135.351 134.323 133.049 133.408 130.827C127.859 132.15 122.049 132.415 116.453 131.162Z" fill="#FE2827"/>
<path d="M83.2797 111.653C84.4408 110.857 88.6216 109.556 90.0801 109.128C93.536 118.023 100.946 125.085 109.59 128.946C109.541 129.086 109.493 129.226 109.444 129.365C108.824 131.148 108.211 132.909 107.798 134.757C107.783 134.822 107.769 134.888 107.754 134.956C107.689 135.248 107.621 135.558 107.545 135.831C106.643 135.588 104.159 134.342 103.304 133.879C96.4241 130.146 90.6423 124.677 86.5338 118.014C85.7292 116.726 85.0796 115.429 84.4151 114.069C84.379 113.995 84.309 113.84 84.2205 113.642C84.191 113.576 84.1594 113.505 84.1264 113.431C83.8179 112.74 83.3802 111.759 83.2797 111.653Z" fill="#FE2827"/>
<path d="M81.1555 104.687C80.8933 103.74 80.6312 102.075 80.4972 101.096C79.7358 95.5971 80.004 90.0048 81.288 84.6041C84.0354 73.22 91.1769 63.386 101.152 57.2508C111.133 51.145 123.123 49.2308 134.509 51.9253C145.931 54.6566 155.802 61.8112 161.952 71.8168C166.835 79.766 169.069 89.0608 168.329 98.361C168.173 100.342 167.96 102.157 167.494 104.095C165.277 103.163 162.994 102.513 160.669 101.923C160.701 101.693 160.732 101.467 160.762 101.245C161.027 99.3111 161.255 97.6454 161.295 95.5855C161.441 87.3043 158.8 79.2141 153.8 72.6121C147.876 64.7717 139.079 59.6078 129.347 58.2583C119.611 56.9047 109.737 59.4856 101.908 65.4301C94.049 71.3995 88.9059 80.2664 87.6266 90.0525C87.1143 94.1197 87.2547 98.2427 88.0426 102.266C85.6841 102.882 83.3806 103.692 81.1555 104.687Z" fill="#FE2827"/>
<path fill-rule="evenodd" clip-rule="evenodd" d="M81.1555 104.687C83.3806 103.692 85.6842 102.882 88.0427 102.266C100.764 98.9437 114.304 101.455 124.987 109.119C127.044 110.595 128.971 112.244 130.746 114.05C134.777 118.151 137.971 123 140.146 128.324C141.072 130.593 141.808 132.933 142.347 135.323C145.653 149.986 141.282 165.324 130.745 176.043C128.971 177.847 127.046 179.496 124.99 180.97C111.29 190.801 93.1897 191.982 78.3271 184.015C63.4645 176.05 54.4274 160.323 55.0282 143.471C55.6291 126.618 65.7633 111.575 81.1555 104.687ZM135.527 137.703C135.032 135.352 134.323 133.05 133.407 130.827C131.476 126.174 128.604 121.972 124.97 118.484C123.991 117.306 120.584 114.752 119.317 113.929C118.686 113.603 118.125 113.269 117.562 112.935L117.559 112.933L117.467 112.878C117.436 112.859 117.404 112.841 117.373 112.822C117.368 112.819 117.363 112.816 117.358 112.813L117.355 112.811C117.321 112.791 117.287 112.771 117.254 112.751C116.526 112.321 115.773 111.89 114.837 111.469C106.478 107.713 98.9161 107.198 90.0795 109.128C88.621 109.556 84.4402 110.857 83.2791 111.654C74.3997 115.852 67.5697 123.429 64.3119 132.696C61.0199 142.035 61.5885 152.302 65.8918 161.221C70.1985 170.051 77.8239 176.819 87.103 180.047C96.4041 183.25 106.596 182.634 115.443 178.333C116.77 177.677 118.062 176.951 119.313 176.159C121.007 175.036 123.608 173.055 125.018 171.589C126.619 170.046 128.072 168.355 129.358 166.54C135.541 157.792 137.341 148.191 135.527 137.703Z" fill="black"/>
<path fill-rule="evenodd" clip-rule="evenodd" d="M130.746 114.05C128.971 112.244 127.044 110.595 124.987 109.119C125.205 108.901 125.899 108.438 126.23 108.216L126.276 108.186C134.647 102.637 144.659 100.106 154.662 101.011C156.871 101.199 158.497 101.495 160.67 101.923C162.994 102.513 165.278 103.163 167.494 104.095C178.701 108.892 187.288 117.225 191.84 128.622C196.184 139.494 196.045 151.645 191.452 162.414C186.792 173.287 177.982 181.848 166.98 186.193C156.079 190.472 143.929 190.276 133.172 185.647C131.183 184.786 126.566 182.418 124.991 180.97C127.046 179.495 128.971 177.847 130.745 176.043C131.477 176.832 135.808 178.853 136.959 179.321C145.988 182.985 156.098 182.939 165.093 179.192C174.167 175.391 181.358 168.141 185.084 159.037C188.786 149.919 188.724 139.705 184.912 130.632C181.282 122.105 174.086 114.556 165.452 111.066C164.045 110.269 160.173 109.148 158.58 108.859C157.301 108.516 155.603 108.334 154.279 108.208C146.616 107.495 138.921 109.195 132.271 113.07C131.974 113.241 130.946 113.85 130.746 114.05Z" fill="#00AC58"/>
</svg>
