<svg width="250" height="250" viewBox="0 0 250 250" fill="none" xmlns="http://www.w3.org/2000/svg">
<path d="M0 125C0 55.9644 55.9644 0 125 0C194.036 0 250 55.9644 250 125C250 194.036 194.036 250 125 250C55.9644 250 0 194.036 0 125Z" fill="white"/>
<path d="M60.3763 88.4258C63.3195 89.4945 70.8629 95.1373 73.6824 97.1693C76.0855 98.9346 78.5589 100.628 81.0984 102.248C80.9492 105.271 79.0186 109.645 78.1134 112.646C77.3486 115.183 77.2589 116.571 76.8974 119.108C75.8801 126.249 76.5481 133.621 78.8426 140.566C82.7252 152.318 91.6494 162.779 104.159 168.806C114.191 173.64 125.623 175.151 136.742 172.473C149.538 169.39 159.5 160.98 165.818 151.23C172.839 140.393 175.176 126.799 172.365 114.665C171.743 111.979 170.745 109.533 169.828 106.92C169.348 105.554 169.068 104.194 168.613 102.82C170.527 101.092 175.294 97.7798 177.549 96.2316C180.68 94.0831 186.137 90.2773 189.53 88.7128C194.625 94.3313 197.548 108.212 198.701 115.477C201.183 134.081 196.388 152.865 185.07 168.885C175.043 182.995 159.519 194.022 140.566 197.941C123.38 201.522 105.234 199.029 90.2169 191.022C71.3107 181.104 58.4989 163.532 53.4215 145.29C51.8232 139.65 50.9094 133.883 50.6949 128.082C50.2992 116.587 53.3187 98.2826 60.3763 88.4258Z" fill="#F5A333"/>
<path d="M122.476 50.5445C128.707 50.1905 136.378 50.9912 142.343 52.3739C154.605 55.2156 164.841 60.6857 173.559 68.541C176.927 71.5758 179.154 73.2718 181.678 77.0732C176.685 80.2879 171.704 84.1906 166.765 87.5095C164.973 88.7134 162.535 90.6466 160.7 91.6637C158.49 90.3054 157.395 88.7616 155.532 87.2214C150.941 83.4238 145.182 79.8594 138.964 78.4443L138.977 101.906C137.035 102.645 134.532 103.831 132.609 104.682C128.978 106.251 125.382 107.876 121.821 109.558C118.61 111.138 114.135 112.958 110.738 114.468L110.997 78.4503C104.893 79.9605 98.6115 83.5056 94.1593 87.367C92.1738 89.0891 91.6523 90.3644 89.1072 91.798C88.5257 91.2532 86.9274 90.1758 86.2194 89.679L80.9648 85.993L73.2323 80.5335C71.671 79.4305 69.9509 78.1545 68.3169 77.155C69.9205 73.7248 74.609 70.0089 77.5935 67.4365C87.7918 58.6466 101.212 52.8881 115.509 51.0489C117.783 50.7564 120.175 50.6621 122.476 50.5445Z" fill="#273A65"/>
<path d="M138.644 121.315L138.776 121.307C139.125 121.613 138.975 125.052 138.975 125.721L138.987 134.118L138.995 156.309C131.448 159.647 121.326 160.598 113.457 157.574C112.813 157.313 112.044 156.858 111.431 156.518C110.944 154.669 110.892 150.544 110.834 148.522C110.708 143.645 110.636 138.765 110.615 133.887C113.734 132.579 117.001 131.002 120.098 129.612L138.644 121.315Z" fill="#273A65"/>
<path d="M138.774 106.807C138.829 106.866 138.884 106.924 138.938 106.983C139.015 109.652 138.953 113.778 139.005 116.311C137.541 116.856 135.455 117.874 133.977 118.508C130.238 120.167 126.46 121.767 122.796 123.546C118.861 125.456 114.71 127.01 110.683 128.722C110.596 128.117 110.657 126.209 110.666 125.545C110.709 123.587 110.715 121.63 110.681 119.673C115.803 117.392 120.638 115.091 125.679 112.771L138.774 106.807Z" fill="#273A65"/>
</svg>
