<svg width="250" height="250" viewBox="0 0 250 250" fill="none" xmlns="http://www.w3.org/2000/svg">
<mask id="path-1-inside-1_453_364" fill="white">
<path d="M0 125C0 55.9644 55.9644 0 125 0C194.036 0 250 55.9644 250 125C250 194.036 194.036 250 125 250C55.9644 250 0 194.036 0 125Z"/>
</mask>
<path d="M0 125C0 55.9644 55.9644 0 125 0C194.036 0 250 55.9644 250 125C250 194.036 194.036 250 125 250C55.9644 250 0 194.036 0 125Z" fill="white"/>
<path d="M0 125M250 125M250 125M0 125M125 0M250 125M125 250M0 125M125 250V248C57.069 248 2 192.931 2 125H0H-2C-2 195.14 54.8598 252 125 252V250ZM250 125H248C248 192.931 192.931 248 125 248V250V252C195.14 252 252 195.14 252 125H250ZM125 0V2C192.931 2 248 57.069 248 125H250H252C252 54.8598 195.14 -2 125 -2V0ZM125 0V-2C54.8598 -2 -2 54.8598 -2 125H0H2C2 57.069 57.069 2 125 2V0Z" fill="#DDDBDB" mask="url(#path-1-inside-1_453_364)"/>
<path d="M60.3758 88.426C63.319 89.4948 70.8624 95.1375 73.6819 97.1695C76.085 98.9348 78.5584 100.629 81.0979 102.248C80.9487 105.271 79.0182 109.645 78.1129 112.647C77.3481 115.183 77.2584 116.571 76.8969 119.108C75.8797 126.25 76.5476 133.621 78.8421 140.566C82.7247 152.318 91.649 162.78 104.159 168.807C114.19 173.64 125.623 175.151 136.741 172.473C149.538 169.391 159.5 160.98 165.817 151.23C172.838 140.393 175.175 126.799 172.365 114.665C171.742 111.979 170.744 109.533 169.827 106.92C169.347 105.554 169.067 104.194 168.613 102.82C170.527 101.092 175.294 97.78 177.549 96.2318C180.679 94.0834 186.136 90.2775 189.529 88.7131C194.624 94.3315 197.548 108.213 198.7 115.477C201.183 134.082 196.387 152.865 185.07 168.885C175.042 182.995 159.518 194.022 140.566 197.941C123.38 201.522 105.233 199.03 90.2164 191.023C71.3102 181.105 58.4984 163.532 53.421 145.29C51.8227 139.65 50.9089 133.884 50.6944 128.082C50.2987 116.587 53.3182 98.2828 60.3758 88.426Z" fill="#F5A333"/>
<path d="M122.475 50.544C128.707 50.19 136.377 50.9907 142.343 52.3734C154.604 55.2151 164.84 60.6853 173.558 68.5405C176.927 71.5754 179.154 73.2713 181.678 77.0727C176.685 80.2874 171.704 84.1901 166.765 87.509C164.972 88.7129 162.534 90.6461 160.7 91.6633C158.489 90.3049 157.394 88.7611 155.532 87.221C150.941 83.4233 145.181 79.8589 138.963 78.4438L138.977 101.906C137.035 102.644 134.531 103.83 132.608 104.681C128.977 106.25 125.381 107.876 121.821 109.557C118.609 111.137 114.135 112.958 110.737 114.467L110.997 78.4498C104.892 79.96 98.611 83.5051 94.1588 87.3666C92.1733 89.0886 91.6518 90.3639 89.1067 91.7976C88.5252 91.2527 86.9269 90.1753 86.2189 89.6785L80.9643 85.9925L73.2319 80.533C71.6705 79.43 69.9504 78.154 68.3164 77.1545C69.92 73.7243 74.6085 70.0084 77.593 67.436C87.7913 58.6461 101.211 52.8876 115.508 51.0485C117.782 50.7559 120.175 50.6616 122.475 50.544Z" fill="#273A65"/>
<path d="M138.643 121.315L138.775 121.307C139.125 121.613 138.974 125.052 138.974 125.721L138.986 134.119L138.994 156.309C131.448 159.648 121.326 160.598 113.456 157.574C112.812 157.314 112.043 156.859 111.43 156.518C110.943 154.669 110.891 150.544 110.833 148.522C110.708 143.645 110.635 138.765 110.614 133.887C113.733 132.58 117 131.003 120.097 129.612L138.643 121.315Z" fill="#273A65"/>
<path d="M138.774 106.807C138.829 106.866 138.884 106.924 138.938 106.983C139.015 109.652 138.953 113.778 139.005 116.311C137.541 116.856 135.455 117.874 133.977 118.508C130.238 120.167 126.46 121.767 122.796 123.546C118.861 125.456 114.71 127.01 110.683 128.722C110.596 128.117 110.657 126.209 110.666 125.545C110.709 123.587 110.715 121.63 110.681 119.673C115.803 117.392 120.638 115.091 125.679 112.771L138.774 106.807Z" fill="#273A65"/>
</svg>
