<svg width="250" height="250" viewBox="0 0 250 250" fill="none" xmlns="http://www.w3.org/2000/svg">
<mask id="path-1-inside-1_453_166" fill="white">
<path d="M0 125C0 55.9644 55.9644 0 125 0C194.036 0 250 55.9644 250 125C250 194.036 194.036 250 125 250C55.9644 250 0 194.036 0 125Z"/>
</mask>
<path d="M0 125C0 55.9644 55.9644 0 125 0C194.036 0 250 55.9644 250 125C250 194.036 194.036 250 125 250C55.9644 250 0 194.036 0 125Z" fill="white"/>
<path d="M0 125M250 125M250 125M0 125M125 0M250 125M125 250M0 125M125 250V248C57.069 248 2 192.931 2 125H0H-2C-2 195.14 54.8598 252 125 252V250ZM250 125H248C248 192.931 192.931 248 125 248V250V252C195.14 252 252 195.14 252 125H250ZM125 0V2C192.931 2 248 57.069 248 125H250H252C252 54.8598 195.14 -2 125 -2V0ZM125 0V-2C54.8598 -2 -2 54.8598 -2 125H0H2C2 57.069 57.069 2 125 2V0Z" fill="#DDDBDB" mask="url(#path-1-inside-1_453_166)"/>
<path d="M146.169 149.305C151.599 144.007 171.647 141.942 170.435 129.054C170.095 125.429 148.836 74.0266 144.993 70.1213C137.576 62.5789 127.441 68.5185 119.064 72.0661C108.951 76.3493 98.8447 80.6704 88.7136 84.9133C82.5706 87.4885 67.81 94.5414 73.1929 103.537C75.7078 107.739 100.801 109.087 108.526 110.187C118.302 111.582 124.537 113.178 130.879 118.344C130.662 118.481 130.427 118.622 130.179 118.767C118.11 125.149 101.623 131.925 91.2598 139.443C90.9849 146.428 92.1764 147.475 95.8604 153.025C98.4714 156.957 100.785 160.673 103.528 164.5C111.707 175.91 118.485 193.773 128.654 196.983C134.256 198.751 140.004 197.584 143.189 193.623C145.262 191.046 146.598 163.655 146.171 149.308L146.169 149.305Z" fill="black"/>
</svg>
