<svg width="250" height="250" viewBox="0 0 250 250" fill="none" xmlns="http://www.w3.org/2000/svg">
<path d="M0 125C0 55.9644 55.9644 0 125 0C194.036 0 250 55.9644 250 125C250 194.036 194.036 250 125 250C55.9644 250 0 194.036 0 125Z" fill="white"/>
<path d="M146.17 149.304C151.599 144.006 171.647 141.941 170.435 129.053C170.096 125.428 148.836 74.0257 144.994 70.1203C137.576 62.5779 127.441 68.5175 119.065 72.0652C108.952 76.3483 98.8451 80.6694 88.714 84.9123C82.571 87.4875 67.8103 94.5404 73.1933 103.536C75.7082 107.738 100.801 109.086 108.527 110.186C118.302 111.581 124.537 113.177 130.879 118.343C130.662 118.48 130.427 118.621 130.179 118.766C118.11 125.148 101.624 131.924 91.2602 139.442C90.9852 146.427 92.1767 147.474 95.8608 153.024C98.4718 156.956 100.785 160.672 103.528 164.499C111.708 175.909 118.486 193.772 128.655 196.982C134.257 198.75 140.004 197.583 143.19 193.622C145.262 191.045 146.599 163.654 146.172 149.307L146.17 149.304Z" fill="black"/>
</svg>
