<svg width="250" height="250" viewBox="0 0 250 250" fill="none" xmlns="http://www.w3.org/2000/svg">
<path d="M0 125C0 55.9644 55.9644 0 125 0C194.036 0 250 55.9644 250 125C250 194.036 194.036 250 125 250C55.9644 250 0 194.036 0 125Z" fill="#780001"/>
<path fill-rule="evenodd" clip-rule="evenodd" d="M156.244 62.2868C168.081 62.2833 175.914 62.1809 185.013 71.1494C192.028 78.0651 193.957 84.5975 193.992 94.3184L194 104.81C194.023 115.581 192.973 121.718 185.121 129.539C175.322 139.299 166.732 138.683 154.055 138.752L135.913 138.828C135.805 146.043 135.88 153.412 135.882 160.638C135.954 167.681 134.606 173.41 130.188 179.056C124.879 185.842 118.298 190.267 109.618 191.378C106.002 191.841 102.526 191.548 99.0532 191.658C88.9711 191.976 83.3409 191.532 75.0899 185.012C68.8982 180.12 65.0823 173.022 64.2977 165.15C63.8655 160.815 64.031 155.632 64.0318 151.16V103.292C64.0295 97.9189 63.8264 92.6023 64.543 87.2636C66.3455 73.836 78.0249 63.9012 91.2723 62.4539C92.0373 62.3184 95.1732 62.2724 95.9885 62.2695L156.244 62.2868ZM181.955 100.139C182.209 84.8541 170.675 72.8565 155.208 73.9615C154.323 74.0247 153.053 73.9629 152.137 73.9639L140.537 73.9787L101.098 73.9738C100.46 73.978 98.6988 73.9867 98.1263 74.0751C87.0945 75.2981 78.8783 83.0755 76.6128 94.0467C75.7236 98.3523 76.0478 103.775 76.053 108.245L76.0728 127.19L76.0571 146.323C76.0544 150.044 75.877 153.88 76.2432 157.581C78.3888 179.271 104.561 188.023 118.522 170.796C123.587 164.547 123.339 157.289 123.421 149.763L123.593 138.991C117.759 139.051 112.533 139.568 106.949 137.512C96.6434 133.717 91.3262 123.874 93.5732 113.18C94.1787 110.681 94.75 108.617 96.1655 106.434C104.864 93.0211 124.52 93.308 133.008 106.858C136.631 112.642 135.907 120.482 135.892 127.085L150.689 126.976C160.5 126.876 167.438 127.174 174.881 119.639C180.353 114.099 181.993 107.772 181.955 100.139ZM123.79 127.173C123.851 118.926 125.138 107.472 112.848 108.275C107.707 109.426 104.131 114.904 105.405 120.065C106.013 122.518 107.591 124.62 109.776 125.888C111.922 127.143 113.713 127.22 116.101 127.239C118.646 127.218 121.251 127.226 123.79 127.173Z" fill="#FEFEFE"/>
</svg>
