<svg width="250" height="250" viewBox="0 0 250 250" fill="none" xmlns="http://www.w3.org/2000/svg">
<path d="M0 125C0 55.9644 55.9644 0 125 0C194.036 0 250 55.9644 250 125C250 194.036 194.036 250 125 250C55.9644 250 0 194.036 0 125Z" fill="#FCBE16"/>
<path d="M69.473 65C72.4809 65.2944 79.3329 65.1047 82.515 65.1022L185 65.0531L184.986 180.922C183.336 179.377 181.616 177.625 180.036 176.005C169.879 165.587 159.121 155.547 149.099 145.019L149.079 101.507C134.726 101.307 119.918 101.497 105.528 101.496C104.521 100.511 101.525 97.598 100.794 96.7674C97.2575 92.7559 69.6457 66.4077 69.473 65Z" fill="black"/>
<path d="M65.0087 69.9842C65.5183 70.3387 68.3415 73.1819 68.8535 73.6963L76.8008 81.6933L92.4842 97.3418C95.1788 100.028 98.7807 103.426 101.261 106.222L101.263 149.241L144.404 149.242L180.145 184.99L64.998 185L65.0087 69.9842Z" fill="black"/>
</svg>
