<svg width="250" height="250" viewBox="0 0 250 250" fill="none" xmlns="http://www.w3.org/2000/svg">
<path d="M0 125C0 55.9644 55.9644 0 125 0C194.036 0 250 55.9644 250 125C250 194.036 194.036 250 125 250C55.9644 250 0 194.036 0 125Z" fill="#0A1F34"/>
<path d="M174.533 65.9805H73.2337C69.8051 65.9805 67 68.7909 67 72.226V83.4677C67 86.9028 69.8051 89.7132 73.2337 89.7132H174.221C177.649 89.7132 180.455 86.9028 180.455 83.4677V72.226C180.766 68.7909 177.961 65.9805 174.533 65.9805ZM174.533 128.747H73.2337C69.8051 128.747 67 131.558 67 134.993V146.235C67 149.67 69.8051 152.48 73.2337 152.48H174.221C177.649 152.48 180.455 149.67 180.455 146.235V134.993C180.766 131.558 177.961 128.747 174.533 128.747V128.747ZM130.273 160.287H73.2337C69.8051 160.287 67 163.097 67 166.532V177.774C67 181.209 69.8051 184.02 73.2337 184.02H130.273C133.701 184.02 136.506 181.209 136.506 177.774V166.532C136.506 163.097 133.701 160.287 130.273 160.287V160.287ZM180.766 97.5201H73.2337C69.8051 97.5201 67 100.33 67 103.765V115.007C67 118.442 69.8051 121.253 73.2337 121.253H180.766C184.195 121.253 187 118.442 187 115.007V103.765C187 100.33 184.195 97.5201 180.766 97.5201V97.5201Z" fill="#CAFBBB"/>
</svg>
