<svg width="250" height="250" viewBox="0 0 250 250" fill="none" xmlns="http://www.w3.org/2000/svg">
<mask id="path-1-inside-1_453_133" fill="white">
<path d="M0 125C0 55.9644 55.9644 0 125 0C194.036 0 250 55.9644 250 125C250 194.036 194.036 250 125 250C55.9644 250 0 194.036 0 125Z"/>
</mask>
<path d="M0 125C0 55.9644 55.9644 0 125 0C194.036 0 250 55.9644 250 125C250 194.036 194.036 250 125 250C55.9644 250 0 194.036 0 125Z" fill="white"/>
<path d="M0 125M250 125M250 125M0 125M125 0M250 125M125 250M0 125M125 250V248C57.069 248 2 192.931 2 125H0H-2C-2 195.14 54.8598 252 125 252V250ZM250 125H248C248 192.931 192.931 248 125 248V250V252C195.14 252 252 195.14 252 125H250ZM125 0V2C192.931 2 248 57.069 248 125H250H252C252 54.8598 195.14 -2 125 -2V0ZM125 0V-2C54.8598 -2 -2 54.8598 -2 125H0H2C2 57.069 57.069 2 125 2V0Z" fill="#DDDBDB" mask="url(#path-1-inside-1_453_133)"/>
<path d="M155.441 112.563C158.214 112.418 161.138 112.475 163.992 112.476C166.524 112.59 170.51 112.007 172.691 113.437C176.326 115.823 175.351 123.325 175.349 127.095L175.353 171.188C175.353 175.383 175.385 179.567 175.292 183.762C175.207 187.644 172.905 190.186 169.116 190.849C168.222 190.917 167.258 190.916 166.363 190.901C162.488 190.834 158.564 191.086 154.704 190.722C147.566 190.049 148.984 181.348 148.982 176.468L148.977 133.569C148.977 129.115 148.874 124.518 149.095 120.07C149.278 116.359 151.769 113.368 155.441 112.563Z" fill="#314988"/>
<path d="M117.113 139.135C120.245 138.864 132.594 138.549 134.833 139.779C136.223 140.543 137.275 142.051 137.723 143.539C138.506 146.135 138.072 159.056 138.079 162.66L138.08 176.676C138.077 179.318 138.08 181.948 138.014 184.59C137.917 188.582 136.167 190.645 132.419 191.742C129.592 192.066 117.254 192.257 115.152 191.151C113.763 190.42 112.585 188.696 112.16 187.209C111.508 184.929 111.922 179.74 111.924 177.236L111.908 159.913C111.918 155.69 111.888 151.464 111.907 147.24C111.924 143.27 113.005 140.301 117.113 139.135Z" fill="#FD7E02"/>
<path d="M136.232 76.1718C142.104 75.8196 147.928 77.4242 152.792 80.7346C161.63 86.8543 165.297 96.4791 167.129 106.62C166.061 105.604 164.846 103.906 163.872 102.699C156.793 93.9268 145.775 90.0516 134.653 91.9914C118.461 94.8153 106.146 106.91 97.0632 119.934C92.2126 127.311 88.4522 135.349 85.8976 143.8C84.9841 146.852 84.345 149.82 83.5601 152.894C83.5143 152.475 83.4777 152.054 83.4503 151.633C82.1083 132.381 90.8423 109.277 103.476 94.8949C112.167 85.0009 122.709 77.1067 136.232 76.1718Z" fill="#FD7E02"/>
<path d="M79.6884 165.509C82.3745 165.362 85.6652 165.557 88.3043 165.456C97.7499 165.097 101.989 165.228 101.069 176.392C100.641 181.593 103.257 190.297 96.0608 191.832C92.7543 191.922 79.9345 192.409 77.7096 191.153C76.4431 190.439 75.2912 189.219 74.9333 187.78C74.3742 185.534 74.483 173.633 74.7502 170.981C74.8437 170.052 74.9947 169.009 75.4895 168.204C76.4635 166.62 77.9632 165.934 79.6884 165.509Z" fill="#314988"/>
<path d="M133.501 52.0493C138.703 51.5203 143.352 55.3087 143.883 60.512C144.414 65.7153 140.627 70.3644 135.424 70.8975C130.218 71.4309 125.566 67.6418 125.035 62.4355C124.503 57.2293 128.294 52.5785 133.501 52.0493Z" fill="#FD7E02"/>
</svg>
