<svg width="250" height="250" viewBox="0 0 250 250" fill="none" xmlns="http://www.w3.org/2000/svg">
<mask id="path-1-inside-1_453_195" fill="white">
<path d="M0 125C0 55.9644 55.9644 0 125 0C194.036 0 250 55.9644 250 125C250 194.036 194.036 250 125 250C55.9644 250 0 194.036 0 125Z"/>
</mask>
<path d="M0 125C0 55.9644 55.9644 0 125 0C194.036 0 250 55.9644 250 125C250 194.036 194.036 250 125 250C55.9644 250 0 194.036 0 125Z" fill="white"/>
<path d="M0 125M250 125M250 125M0 125M125 0M250 125M125 250M0 125M125 250V248C57.069 248 2 192.931 2 125H0H-2C-2 195.14 54.8598 252 125 252V250ZM250 125H248C248 192.931 192.931 248 125 248V250V252C195.14 252 252 195.14 252 125H250ZM125 0V2C192.931 2 248 57.069 248 125H250H252C252 54.8598 195.14 -2 125 -2V0ZM125 0V-2C54.8598 -2 -2 54.8598 -2 125H0H2C2 57.069 57.069 2 125 2V0Z" fill="#DDDBDB" mask="url(#path-1-inside-1_453_195)"/>
<path d="M166.591 77.7583L60.798 98.728L59 134.365L129.992 119.808L120.981 192.865L156.222 188.681L168.525 79.5367C168.648 78.4424 167.672 77.5442 166.591 77.7583Z" fill="#50C2EB"/>
<path d="M187.024 118.048L167.33 122.373L163.318 158.23L187.394 152.937L188.998 119.716C189.05 118.645 188.071 117.818 187.024 118.048Z" fill="#91C83D"/>
<path d="M80.0969 172.367L84.1776 133.785L118.772 126.5L118.423 132.553L124.213 130.582L120.024 166.676L82.0285 174.135C80.9538 174.346 79.9817 173.456 80.0969 172.367Z" fill="#91C83D"/>
<path d="M124.44 81.1425L89.7995 88.1011L92.274 63.5129L124.851 59.15C125.9 59.0096 126.801 59.8911 126.684 60.9424L124.44 81.1425Z" fill="#91C83D"/>
</svg>
