<svg width="250" height="250" viewBox="0 0 250 250" fill="none" xmlns="http://www.w3.org/2000/svg">
<mask id="path-1-inside-1_453_83" fill="white">
<path d="M0 125C0 55.9644 55.9644 0 125 0C194.036 0 250 55.9644 250 125C250 194.036 194.036 250 125 250C55.9644 250 0 194.036 0 125Z"/>
</mask>
<path d="M0 125C0 55.9644 55.9644 0 125 0C194.036 0 250 55.9644 250 125C250 194.036 194.036 250 125 250C55.9644 250 0 194.036 0 125Z" fill="white"/>
<path d="M0 125M250 125M250 125M0 125M125 0M250 125M125 250M0 125M125 250V248C57.069 248 2 192.931 2 125H0H-2C-2 195.14 54.8598 252 125 252V250ZM250 125H248C248 192.931 192.931 248 125 248V250V252C195.14 252 252 195.14 252 125H250ZM125 0V2C192.931 2 248 57.069 248 125H250H252C252 54.8598 195.14 -2 125 -2V0ZM125 0V-2C54.8598 -2 -2 54.8598 -2 125H0H2C2 57.069 57.069 2 125 2V0Z" fill="#DDDBDB" mask="url(#path-1-inside-1_453_83)"/>
<path fill-rule="evenodd" clip-rule="evenodd" d="M120.913 55.073C103.917 56.1392 88.1928 63.095 76.117 74.8889C64.1617 86.5649 56.9037 101.822 55.3029 118.642C54.9375 122.482 55.0586 130.195 55.5401 133.734C56.6263 141.717 58.6074 148.425 61.9108 155.308C70.1375 172.45 85.0207 185.518 103.159 191.526C118.463 196.596 135.525 196.1 150.608 190.147C173.953 180.933 190.515 160.111 194.214 135.326C194.812 131.319 194.929 129.47 194.91 124.34C194.893 119.866 194.846 119.006 194.478 116.378C193.816 111.667 192.98 107.832 191.751 103.878C191.533 103.176 191.304 102.519 191.241 102.418C191.161 102.288 188.743 102.88 182.929 104.456C146.848 114.231 72.6972 133.736 72.4722 133.511C72.4432 133.482 72.3017 132.643 72.1576 131.645C71.7777 129.014 71.777 121.025 72.1566 118.335C73.0078 112.305 74.5603 107.094 77.0322 101.969C85.3365 84.7518 101.944 73.4088 120.992 71.943C125.43 71.6016 130.783 71.9113 135.163 72.7628C143.378 74.3602 151.046 77.871 157.932 83.1881C158.96 83.9815 161.116 85.9565 162.845 87.6885L165.927 90.7751L174.468 88.4826C180.976 86.7361 183.006 86.134 182.993 85.9541C182.941 85.2034 178.507 79.6653 175.38 76.4458C163.343 64.0546 148.723 57.0159 131.338 55.2423C129.132 55.0171 123.31 54.9226 120.913 55.073ZM135.877 129.856C138.774 130.404 141.417 131.847 143.692 134.122C146.747 137.177 148.255 140.777 148.267 145.038C148.276 148.624 147.265 151.579 144.98 154.645C143.591 156.508 143.224 157.464 143.231 159.209C143.235 160.171 143.324 160.77 143.539 161.28C143.705 161.675 145.184 164.623 146.826 167.832C149.556 173.165 149.812 173.736 149.812 174.483C149.812 174.933 149.715 175.533 149.597 175.816C149.285 176.562 148.343 177.317 147.383 177.59C146.458 177.854 128.574 182.051 127.665 182.218C126.767 182.382 125.782 182.033 125.035 181.285C124.277 180.526 124.108 180.056 122.161 173.301C118.309 159.941 116.313 149.093 116.838 144.383C117.01 142.837 117.131 142.379 117.95 140.152C119.377 136.273 121.432 133.744 124.814 131.702C128.083 129.727 131.867 129.096 135.877 129.856Z" fill="#84C240"/>
</svg>
