<svg width="250" height="250" viewBox="0 0 250 250" fill="none" xmlns="http://www.w3.org/2000/svg">
<path d="M0 125C0 55.9644 55.9644 0 125 0C194.036 0 250 55.9644 250 125C250 194.036 194.036 250 125 250C55.9644 250 0 194.036 0 125Z" fill="white"/>
<path d="M145.834 108.876C149.652 112.763 153.357 116.539 157.069 120.311C157.952 121.208 157.341 121.81 156.698 122.439C153.416 125.649 150.142 128.863 146.867 132.081C142.986 135.892 139.084 139.692 135.258 143.559C134.958 143.862 134.899 144.896 135.167 145.195C138.094 148.445 141.08 151.643 144.114 154.789C145.084 155.8 146.063 155.431 147.006 154.51C154.043 147.638 161.132 140.817 168.15 133.922C170.11 131.994 171.862 129.854 173.751 127.852C174.56 126.994 174.477 126.294 173.696 125.492C168.075 119.705 162.505 113.872 156.848 108.125C151.7 102.889 146.465 97.7401 141.262 92.5556C137.357 88.6692 133.404 84.8339 129.546 80.9003C124.264 75.5112 119.041 70.071 113.846 64.5994C113.416 64.147 113.009 63.0181 113.254 62.6876C116.177 58.7422 119.597 55.497 124.958 55.3947C128.023 55.3357 130.651 56.5118 132.793 58.5495C137.353 62.8961 141.787 67.3686 146.256 71.8097C159.795 85.2706 173.297 98.7668 186.883 112.18C189.704 114.965 192.477 117.735 194.079 121.417C195.822 125.425 195.073 128.851 191.972 131.974C177.499 146.549 163.037 161.134 148.58 175.724C143.96 180.386 143.866 180.511 139.246 175.992C129.727 166.681 120.355 157.213 110.867 147.87C109.546 146.568 109.712 145.612 110.867 144.432C115.585 139.598 120.26 134.728 124.982 129.897C131.447 123.281 137.937 116.688 144.422 110.092C144.69 109.805 145.009 109.576 145.834 108.876Z" fill="#D29829"/>
<path d="M106.197 69.4653C117.684 80.6525 129.136 91.8043 140.71 103.074C137.093 106.984 133.972 110.509 130.686 113.876C123.534 121.2 116.308 128.454 109.081 135.704C107.834 136.954 106.387 138.005 105.101 139.22C104.024 140.239 103.112 140.302 101.866 139.385C98.138 136.632 94.8244 133.505 92.1262 129.724C91.4674 128.8 91.5029 128.179 92.3313 127.376C98.1814 121.723 104.02 116.059 109.791 110.328C111.369 108.762 112.769 107.008 114.114 105.242C114.41 104.852 114.402 103.782 114.087 103.448C111.27 100.443 108.363 97.5238 105.463 94.5933C104.592 93.7121 103.818 94.1409 103.085 94.8529C98.4812 99.3333 93.7869 103.727 89.282 108.302C81.5029 116.205 73.854 124.237 66.1064 132.171C64.7889 133.52 63.2386 134.649 61.8461 135.837C55.5147 132.297 53.211 125.11 56.4772 119.517C57.8658 117.137 58.5759 116.7 61.2622 117.239C64.7968 117.947 68.2918 118.844 71.8066 119.639C73.0492 119.918 74.3116 120.126 76.0828 120.469C75.424 117.998 74.8914 116.012 74.3668 114.021C73.637 111.248 72.9112 108.471 72.1972 105.694C71.783 104.081 72.3273 102.811 73.495 101.642C77.6252 97.512 81.6449 93.2755 85.8066 89.1767C92.351 82.7295 98.9743 76.3649 105.566 69.9688C105.747 69.7878 105.968 69.6462 106.197 69.4653Z" fill="#702C90"/>
<path d="M137.933 186.53C135.771 188.465 133.4 190.829 130.777 192.867C128.118 194.932 124.99 195.215 122.11 193.418C119.183 191.592 116.276 189.606 113.755 187.269C103.85 178.084 94.0946 168.734 84.2918 159.439C78.2484 153.708 72.2208 147.969 66.1893 142.225C65.8145 141.871 65.495 141.458 65.2504 141.183C69.8816 136.569 74.4615 132.01 79.1518 127.333C98.4141 146.729 117.842 166.295 137.933 186.53Z" fill="#702C90"/>
</svg>
