<svg width="250" height="250" viewBox="0 0 250 250" fill="none" xmlns="http://www.w3.org/2000/svg">
<mask id="path-1-inside-1_453_177" fill="white">
<path d="M0 125C0 55.9644 55.9644 0 125 0C194.036 0 250 55.9644 250 125C250 194.036 194.036 250 125 250C55.9644 250 0 194.036 0 125Z"/>
</mask>
<path d="M0 125C0 55.9644 55.9644 0 125 0C194.036 0 250 55.9644 250 125C250 194.036 194.036 250 125 250C55.9644 250 0 194.036 0 125Z" fill="white"/>
<path d="M0 125M250 125M250 125M0 125M125 0M250 125M125 250M0 125M125 250V248C57.069 248 2 192.931 2 125H0H-2C-2 195.14 54.8598 252 125 252V250ZM250 125H248C248 192.931 192.931 248 125 248V250V252C195.14 252 252 195.14 252 125H250ZM125 0V2C192.931 2 248 57.069 248 125H250H252C252 54.8598 195.14 -2 125 -2V0ZM125 0V-2C54.8598 -2 -2 54.8598 -2 125H0H2C2 57.069 57.069 2 125 2V0Z" fill="#DDDBDB" mask="url(#path-1-inside-1_453_177)"/>
<path d="M145.835 108.876C149.653 112.763 153.357 116.539 157.069 120.311C157.953 121.208 157.342 121.81 156.699 122.439C153.417 125.649 150.142 128.863 146.868 132.081C142.987 135.892 139.085 139.692 135.259 143.559C134.959 143.862 134.9 144.896 135.168 145.195C138.095 148.445 141.081 151.643 144.115 154.789C145.085 155.8 146.063 155.431 147.006 154.51C154.044 147.638 161.133 140.817 168.15 133.922C170.111 131.994 171.862 129.854 173.752 127.852C174.561 126.994 174.478 126.294 173.697 125.492C168.075 119.705 162.505 113.872 156.848 108.125C151.701 102.889 146.466 97.7401 141.263 92.5556C137.357 88.6692 133.405 84.8339 129.547 80.9003C124.265 75.5112 119.042 70.071 113.846 64.5994C113.417 64.147 113.01 63.0181 113.255 62.6876C116.178 58.7422 119.598 55.497 124.959 55.3947C128.024 55.3357 130.651 56.5118 132.793 58.5495C137.353 62.8961 141.787 67.3686 146.257 71.8097C159.795 85.2706 173.298 98.7668 186.884 112.18C189.705 114.965 192.478 117.735 194.079 121.417C195.823 125.425 195.073 128.851 191.973 131.974C177.499 146.549 163.038 161.134 148.58 175.724C143.961 180.386 143.866 180.511 139.247 175.992C129.728 166.681 120.355 157.213 110.868 147.87C109.547 146.568 109.712 145.612 110.868 144.432C115.586 139.598 120.261 134.728 124.983 129.897C131.448 123.281 137.937 116.688 144.422 110.092C144.691 109.805 145.01 109.576 145.835 108.876Z" fill="#D29829"/>
<path d="M106.198 69.4653C117.685 80.6525 129.137 91.8043 140.711 103.074C137.093 106.984 133.973 110.509 130.687 113.876C123.535 121.2 116.308 128.454 109.082 135.704C107.835 136.954 106.387 138.005 105.101 139.22C104.024 140.239 103.113 140.302 101.867 139.385C98.1387 136.632 94.8251 133.505 92.1269 129.724C91.4681 128.8 91.5036 128.179 92.332 127.376C98.1821 121.723 104.02 116.059 109.792 110.328C111.37 108.762 112.77 107.008 114.115 105.242C114.411 104.852 114.403 103.782 114.087 103.448C111.271 100.443 108.364 97.5238 105.464 94.5933C104.592 93.7121 103.819 94.1409 103.085 94.8529C98.4819 99.3333 93.7877 103.727 89.2827 108.302C81.5036 116.205 73.8547 124.237 66.1072 132.171C64.7896 133.52 63.2393 134.649 61.8468 135.837C55.5154 132.297 53.2117 125.11 56.478 119.517C57.8665 117.137 58.5766 116.7 61.263 117.239C64.7975 117.947 68.2926 118.844 71.8074 119.639C73.05 119.918 74.3123 120.126 76.0835 120.469C75.4247 117.998 74.8922 116.012 74.3675 114.021C73.6377 111.248 72.9119 108.471 72.1979 105.694C71.7837 104.081 72.3281 102.811 73.4957 101.642C77.6259 97.512 81.6456 93.2755 85.8074 89.1767C92.3518 82.7295 98.975 76.3649 105.567 69.9688C105.748 69.7878 105.969 69.6462 106.198 69.4653Z" fill="#702C90"/>
<path d="M137.934 186.53C135.772 188.465 133.401 190.829 130.778 192.867C128.119 194.932 124.991 195.215 122.111 193.418C119.184 191.592 116.277 189.606 113.756 187.269C103.851 178.084 94.0953 168.734 84.2926 159.439C78.2492 153.708 72.2216 147.969 66.19 142.225C65.8153 141.871 65.4957 141.458 65.2512 141.183C69.8823 136.569 74.4622 132.01 79.1525 127.333C98.4149 146.729 117.843 166.295 137.934 186.53Z" fill="#702C90"/>
</svg>
