<svg width="250" height="250" viewBox="0 0 250 250" fill="none" xmlns="http://www.w3.org/2000/svg">
<mask id="path-1-inside-1_453_161" fill="white">
<path d="M0 125C0 55.9644 55.9644 0 125 0C194.036 0 250 55.9644 250 125C250 194.036 194.036 250 125 250C55.9644 250 0 194.036 0 125Z"/>
</mask>
<path d="M0 125C0 55.9644 55.9644 0 125 0C194.036 0 250 55.9644 250 125C250 194.036 194.036 250 125 250C55.9644 250 0 194.036 0 125Z" fill="white"/>
<path d="M0 125M250 125M250 125M0 125M125 0M250 125M125 250M0 125M125 250V248C57.069 248 2 192.931 2 125H0H-2C-2 195.14 54.8598 252 125 252V250ZM250 125H248C248 192.931 192.931 248 125 248V250V252C195.14 252 252 195.14 252 125H250ZM125 0V2C192.931 2 248 57.069 248 125H250H252C252 54.8598 195.14 -2 125 -2V0ZM125 0V-2C54.8598 -2 -2 54.8598 -2 125H0H2C2 57.069 57.069 2 125 2V0Z" fill="#DDDBDB" mask="url(#path-1-inside-1_453_161)"/>
<path d="M78.7363 83.9014V105.327C78.7363 108.499 82.1842 110.469 84.9163 108.858L123.618 86.0379C125.58 84.8811 128.013 84.8723 129.984 86.0149L147.111 95.9477C149.056 97.0756 150.253 99.1537 150.253 101.402V123.662C150.253 125.009 149.537 126.253 148.374 126.931L116.498 145.506C115.335 146.184 114.62 147.428 114.62 148.774V168.882C114.62 172.057 118.076 174.026 120.808 172.407L175.409 140.045C176.559 139.364 177.264 138.127 177.264 136.79V85.9396C177.264 84.6015 176.557 83.3629 175.405 82.6824L129.213 55.3944C128.348 54.8835 127.277 54.868 126.398 55.3534L80.6909 80.5896C79.485 81.2554 78.7363 82.524 78.7363 83.9014Z" fill="#A9D046"/>
<path d="M80.0246 129.57V193.106C80.0246 194.55 81.5779 195.461 82.8387 194.757L105.167 182.282C106.663 181.447 107.59 179.867 107.59 178.154V139.409C107.59 138.76 107.95 138.165 108.525 137.863L139.534 121.602C147.415 117.469 149.449 107.105 143.715 100.3C139.372 95.1445 131.959 93.8415 126.118 97.2063L85.0609 120.857C81.9449 122.652 80.0246 125.974 80.0246 129.57Z" fill="#C3CE48"/>
</svg>
