<svg width="250" height="250" viewBox="0 0 250 250" fill="none" xmlns="http://www.w3.org/2000/svg">
<path d="M0 125C0 55.9644 55.9644 0 125 0C194.036 0 250 55.9644 250 125C250 194.036 194.036 250 125 250C55.9644 250 0 194.036 0 125Z" fill="black"/>
<path d="M94.8012 129.126C96.4007 129.032 98.2443 129.051 99.8426 129.08C99.9412 129.933 100.015 130.436 100.209 131.278C94.2311 130.996 86.2383 131.73 80.478 133.283C73.8566 135.068 68.2897 137.815 64.7529 143.859C66.1159 144.524 67.3319 145.091 68.7946 145.481C77.6961 147.782 87.2101 144.019 94.677 139.287C96.724 137.989 98.7766 136.765 100.666 135.243C100.9 135.054 101.204 135.168 101.457 135.247C101.887 135.585 102.109 136.268 102.333 136.79C99.3972 139.138 93.4411 142.791 90.073 144.436C82.7189 148.213 72.5671 149.996 64.8783 146.353C64.5267 146.187 64.2043 145.986 63.8907 145.756C63.0896 148.947 62.9414 150.443 63.2426 153.692C62.2846 153.777 62.0388 153.814 61.1257 154.151C60.5485 151.172 61.0091 147.549 61.9575 144.686C59.4687 143.008 56.7744 140.004 55.5057 137.273C56.1071 137.063 56.8135 136.671 57.3912 136.374C58.8381 138.782 60.5949 141.102 62.9545 142.687C68.495 131.891 83.9156 129.681 94.8012 129.126Z" fill="url(#paint0_linear_1_1401)"/>
<path d="M120.669 150.216C121.405 150.282 122.053 150.298 122.789 150.315C122.597 151.356 122.223 152.473 121.908 153.497C118.87 163.38 115.541 179.885 123.859 187.964C125.373 186.57 126.635 184.926 127.59 183.102C132.821 173.238 129.763 160.506 126.672 150.436C127.382 150.408 128.129 150.303 128.839 150.219C129.286 151.226 129.78 153.08 130.091 154.186C131.637 159.677 132.752 165.873 132.604 171.587C132.296 179.229 130.494 183.955 125.528 189.61C128.204 191.261 129.654 191.909 132.741 192.49C132.559 193.181 132.436 193.992 132.309 194.703C127.838 193.455 127.758 193.644 123.765 190.991C120.443 193.405 118.6 193.972 114.749 194.86L114.434 192.759C117.747 191.657 119.059 191.7 122.155 189.403C121.835 189.097 121.473 188.743 121.205 188.393C113.703 178.595 116.439 164.72 119.545 153.764C119.866 152.632 120.227 151.301 120.669 150.216Z" fill="url(#paint1_linear_1_1401)"/>
<path d="M110.971 146.396C111.493 146.639 112.197 146.872 112.449 147.361C112.562 148.16 110.799 149.678 110.256 150.346C103.091 159.15 94.6884 170.247 98.2643 182.191C99.2557 181.918 100.926 181.075 101.81 180.526C111.565 174.477 115.581 159.802 116.207 148.999C116.923 149.193 117.637 149.394 118.349 149.603C117.693 155.739 116.476 163.197 113.862 168.84C110.617 176.261 106.624 181.116 99.1397 184.291C101.263 187.193 101.545 187.61 104.474 189.906C104.218 190.373 103.888 191.09 103.484 191.394C101.616 191.665 97.9191 186.352 97.0706 184.858C94.1834 185.717 90.2778 185.371 87.3737 184.739C87.6329 184.119 87.8244 183.383 88.0134 182.732C91.5373 183.271 92.6756 183.401 96.1512 182.832C92.3873 171.211 99.9585 159.661 106.938 150.94C107.919 149.714 109.773 147.329 110.971 146.396Z" fill="url(#paint2_linear_1_1401)"/>
<path d="M103.14 139.06C103.92 138.877 104.469 140.103 104.837 140.685C101.565 141.952 95.6955 145.063 92.819 146.97C87.1952 150.698 81.2296 155.368 78.6851 161.824C78.073 163.378 77.7727 165.125 77.4575 166.771C95.7501 167.924 105.703 144.224 107.556 143.762C108.044 143.893 108.542 144.472 108.923 144.844C107.396 148.545 101.716 155.982 98.8646 158.935C97.9168 159.913 96.9401 160.862 95.9357 161.781C90.3239 166.835 85.1983 169.085 77.5526 168.682C77.999 171.917 78.4991 173.174 80.1354 176.047C79.4586 176.51 79.0238 176.798 78.2963 177.188C76.6027 174.741 75.5465 171.46 75.3563 168.495C72.7745 168.054 71.0286 167.496 68.7422 166.142C68.0952 165.758 66.8318 165.201 66.6306 164.488C66.7548 164.012 67.3729 163.324 67.702 162.908C71.1017 165.172 71.6635 165.285 75.409 166.57C75.5567 161.471 79.052 155.517 82.6619 152.108C87.9942 147.073 96.2299 141.598 103.14 139.06Z" fill="url(#paint3_linear_1_1401)"/>
<path d="M138.514 146.611C139.276 146.782 140.697 148.665 141.225 149.304C148.99 158.708 156.547 171.21 151.644 183.697C154.922 184.154 156.305 184.046 159.477 183.506C159.641 184.233 159.786 184.822 159.999 185.54C157.45 186.351 153.314 186.374 150.728 185.642C149.92 187.013 148.986 188.306 147.938 189.504C147.217 190.318 145.132 192.544 144.053 192.608C143.639 192.345 143.175 191.611 142.87 191.186C145.842 188.521 146.219 188.537 148.639 184.945C148.536 184.9 148.432 184.855 148.33 184.808C142.358 182.092 138.092 176.478 135.834 170.444C133.257 164.255 131.744 156.418 131.168 149.715C131.902 149.547 132.568 149.333 133.286 149.111C133.632 154.333 135.133 162.508 136.965 167.342C139.525 174.101 142.764 179.968 149.617 183.007C150.287 180.946 150.765 179.36 150.914 177.172C151.686 165.873 143.896 155.698 136.891 147.648C137.342 147.326 138.031 146.919 138.514 146.611Z" fill="url(#paint4_linear_1_1401)"/>
<path d="M190.93 110.261C191.6 110.447 192.302 110.409 192.999 110.409C192.586 114.042 192.161 116.124 190.243 119.262C192.536 122.063 194.133 124.354 195 127.961L192.904 128.45C191.912 125.464 191.034 123.504 188.897 121.185C180.247 129.858 168.92 129.537 157.536 128.081C156.399 127.935 150.884 127.161 150.506 126.662C150.394 126.026 150.548 125.329 150.647 124.683C152.384 125.095 154.878 125.497 156.663 125.764C164.385 126.922 171.704 127.324 179.251 124.877C182.45 123.643 185.112 122.257 187.298 119.521C178.797 112.225 165.695 114.54 156.074 118.102C154.184 118.802 151.924 119.579 150.21 120.602C150.019 119.955 149.821 118.989 149.661 118.311C160.752 113.05 178.498 108.716 188.603 117.838C189.445 116.214 190.06 114.653 190.426 112.853C190.597 112.012 190.694 111.073 190.93 110.261Z" fill="url(#paint5_linear_1_1401)"/>
<path d="M131.875 55.8707C134.547 56.801 137.635 58.9403 139.406 61.1501C143.139 59.5642 145.1 59.3056 149.089 59.2553C148.99 60.1936 148.95 60.5215 149.049 61.4693C146.196 61.2459 143.349 62.0153 140.69 62.9747C141.797 64.5011 142.8 67.4967 143.14 69.3247C144.764 78.0759 141.541 87.4925 137.497 95.18C136.416 97.2335 135.542 99.1462 134.23 101.096C133.43 100.804 132.974 100.69 132.152 100.501C137.081 92.0294 141.081 83.8286 141.343 73.8514C141.213 70.2292 140.716 67.1937 138.75 64.0537C137.144 64.9559 135.165 66.738 134.009 68.1702C127.238 76.5648 127.064 89.4714 128.076 99.6961C127.083 99.4437 126.842 99.4319 125.835 99.431C125.803 97.6638 125.543 95.8804 125.487 94.1061C125.11 82.0701 126.699 69.4273 137.528 62.1638C135.147 60.074 133.977 58.9475 130.949 57.8375C131.254 57.2471 131.575 56.275 131.875 55.8707Z" fill="url(#paint6_linear_1_1401)"/>
<path d="M159.474 64.8464C161.192 65.4904 163.872 70.8668 164.279 72.6038C166.12 72.7178 172.34 73.4848 173.465 74.9666C173.515 75.3863 172.904 76.3777 172.662 76.8276C170.228 75.5148 167.49 75.0214 164.758 74.8728C164.931 76.5096 164.92 78.1608 164.724 79.7951C163.257 91.3591 152.023 100.391 143.377 107.084L141.671 105.626C149.41 99.2586 156.99 94.0624 161.192 84.4444C162.593 80.9844 162.806 78.6822 162.612 75.0216C159.562 75.5853 158.043 76.0591 155.28 77.5674C147.389 81.8749 140.604 94.5828 138.278 103.168C137.581 102.679 137.092 102.442 136.338 102.063C140.658 89.3002 147.547 75.416 162.157 72.8737C160.436 69.4858 160.828 69.3697 158.008 66.2355C158.48 65.7528 158.978 65.3033 159.474 64.8464Z" fill="url(#paint7_linear_1_1401)"/>
<path d="M91.845 63.2675C92.4833 63.3459 92.8658 64.0444 93.2372 64.5395C92.6969 65.6075 91.852 66.6712 91.2061 67.7072C90.3326 69.1085 89.808 70.3271 89.1809 71.8476C100.394 73.8348 107.465 86.9247 111.274 96.5089C111.926 98.1493 112.887 100.597 113.158 102.291C112.661 102.625 111.967 103.175 111.361 103.109C110.89 102.201 110.317 100.273 109.951 99.2353C109.322 97.4508 108.614 95.6953 107.829 93.9735C104.522 86.7237 99.8601 78.8359 92.4966 75.1727C91.2224 74.5389 90.0359 74.3236 88.71 73.8275C88.0864 77.3508 88.4301 80.3089 89.3937 83.7054C92.3278 92.5385 99.0425 98.8038 106.213 104.33C106.7 104.704 107.71 105.225 107.822 105.803C107.618 106.315 107.011 106.851 106.607 107.261C103.574 105.637 95.8514 98.4041 93.6808 95.6117C88.2907 88.6779 85.3121 82.657 86.4898 73.6927C84.1783 74.1304 81.8489 73.984 79.6783 75.2468C79.4014 75.408 79.1749 75.3959 78.8834 75.3262C78.4799 74.9073 78.2024 74.1607 77.9577 73.6114C81.2532 72.0646 83.3218 71.4918 87.0059 71.604C88.1406 67.9172 89.4071 66.1507 91.845 63.2675Z" fill="url(#paint8_linear_1_1401)"/>
<path d="M150.241 129.083C161.812 129.137 175.475 130.877 183.42 140.359C184.488 141.633 185.315 143.059 186.16 144.486C188.669 142.558 189.519 141.173 191.243 138.612C191.811 138.912 192.436 139.194 193.02 139.47C191.966 142.358 189.229 144.768 186.946 146.653C188.162 149.823 188.203 153.078 187.856 156.401C186.985 156.19 186.574 156.143 185.69 156.061C186.165 153.322 185.743 150.266 185.045 147.601C178.415 151.114 169.435 149.159 162.956 146.228C158.752 144.598 151.049 139.835 147.517 137.008C147.958 136.272 148.113 135.931 148.442 135.148C150.062 136.17 151.798 137.471 153.442 138.548C156.794 140.755 160.325 142.678 163.999 144.296C171.049 147.356 176.981 148.489 184.252 145.623C182.777 142.983 181.791 141.497 179.497 139.406C172.532 133.06 158.989 130.809 149.718 131.279C149.906 130.563 150.074 129.806 150.241 129.083Z" fill="url(#paint9_linear_1_1401)"/>
<path d="M69.6486 82.0102C70.1598 82.1714 70.9367 82.3912 71.3684 82.7151C71.5835 82.8764 71.2224 83.6892 71.1175 84.0594C70.4587 86.3858 70.3759 88.6644 70.4771 91.0609C83.4734 87.431 97.0985 100.128 104.983 108.967C104.67 109.486 104.266 110.203 103.776 110.528C103.232 110.475 99.7953 106.504 99.0978 105.849C95.266 102.248 91.8088 98.9981 87.2555 96.3199C81.4882 92.9277 77.4066 92.3382 70.8658 92.9772C71.8096 96.4886 73.2536 99.1178 75.7201 101.804C82.1381 108.641 92.6956 112.452 101.774 114.195C101.494 114.895 101.228 115.6 100.976 116.31C88.4195 113.414 72.054 107.672 68.8177 93.5245C65.8362 95.155 64.7977 95.92 62.5336 98.4211C62.1541 97.9947 61.4064 97.4402 60.9383 97.0689C63.1142 93.9888 65.0536 93.1825 68.3167 91.6578C68.0714 89.9087 68.3332 83.015 69.6486 82.0102Z" fill="url(#paint10_linear_1_1401)"/>
<path d="M180.81 84.1516C182.267 85.1565 182.369 91.4492 182.12 93.1419C182.321 93.2045 182.519 93.279 182.711 93.3649C184.467 94.1358 189.034 97.1071 189.707 98.8186C189.648 99.4854 188.886 99.9748 188.344 100.44C186.393 97.8899 184.398 96.7263 181.677 95.2038C177.073 108.677 161.552 113.396 149.015 116.199C148.687 115.496 148.434 114.821 148.156 114.1C153.972 113.145 162.144 110.473 167.331 107.677C169.503 106.506 172.079 104.588 173.993 103.043C176.801 100.41 178.424 98.0891 179.606 94.4297C177.616 94.0257 175.349 93.612 173.319 93.7468C162.442 94.4695 153.073 102.929 146.101 110.521C145.662 109.948 145.217 109.379 144.766 108.815C145.313 108.028 146.43 106.929 147.131 106.205C155.695 97.3748 167.054 89.0996 180.053 92.6136C180.137 90.4553 180.078 88.1944 179.403 86.1227C179.284 85.7539 179.14 85.3193 179.237 84.9549C179.603 84.5889 180.312 84.3554 180.81 84.1516Z" fill="url(#paint11_linear_1_1401)"/>
<path d="M146.22 139.105C147.181 139.283 148.882 140.193 149.791 140.641C160.871 146.093 172.249 154.436 172.927 167.915C176.42 166.834 176.991 166.585 179.962 164.578C180.503 165.167 180.825 165.528 181.3 166.185C179.081 168.264 175.783 169.164 172.898 169.887C172.337 174.127 171.784 175.436 169.798 179.118C169.131 178.8 168.623 178.458 168.007 178.061C169.445 175.224 170.247 173.285 170.659 170.118C170.573 170.12 170.487 170.12 170.402 170.12C168.188 170.1 166.529 169.66 164.454 169.083C158.673 167.475 155.068 163.999 150.981 159.821C147.444 155.833 143.247 149.875 140.666 145.206C141.027 144.824 141.716 144.149 142.204 143.98C142.737 144.225 144.105 146.705 144.487 147.327C146.728 150.983 149.305 154.654 152.174 157.848C156.06 162.176 160.932 166.327 166.72 167.689C168.145 168.024 169.362 168.076 170.808 168.153C170.654 167.317 170.58 166.273 170.446 165.358C170.126 163.185 169.272 161.228 168.388 159.237C164.917 151.414 152.874 143.909 145.022 140.907C145.414 140.302 145.814 139.701 146.22 139.105Z" fill="url(#paint12_linear_1_1401)"/>
<path d="M56.5536 108.063L58.6977 107.86C59.1579 110.994 59.6565 113.126 61.1632 115.989C70.6095 108.614 85.1676 112.263 95.3073 116.402C96.9438 117.07 98.6404 117.86 100.276 118.473C100 119.381 99.9505 119.827 99.8342 120.763C98.2644 119.926 96.3822 119.194 94.7363 118.508C85.5928 114.697 70.9621 110.906 62.4028 117.798C71.9258 128.775 86.6467 127.001 99.4782 124.525C99.427 125.439 99.4215 125.811 99.5141 126.729C88.0034 128.981 74.3097 130.541 64.3388 122.792C62.9886 121.742 61.8715 120.493 60.7527 119.206C58.6106 121.954 58.1868 122.763 57.0531 126.125C56.3582 125.895 55.718 125.671 54.9996 125.515V125.023C55.4071 124.406 55.9057 122.903 56.2235 122.139C56.8143 120.719 57.4345 119.958 58.3725 118.772C58.6023 118.403 59.4407 117.643 59.3051 117.201C59.0494 116.368 58.492 115.595 58.156 114.789C57.3138 112.77 56.7245 110.232 56.5536 108.063Z" fill="url(#paint13_linear_1_1401)"/>
<path d="M119.547 55.1387H120.053C120.287 55.8183 120.531 56.3818 120.816 57.0371C117.674 58.802 116.594 59.0118 113.887 61.9005C124.679 69.7324 125.329 87.3521 123.624 99.4784C122.548 99.5241 122.507 99.4927 121.443 99.7077C122.553 87.8465 123.182 71.4335 112.491 63.5717C111.467 65.4433 110.501 67.1906 109.95 69.267C107.022 80.3076 112.167 91.2464 117.447 100.595C116.751 100.778 116.044 101.049 115.364 101.293C114.589 100.377 113.868 98.5796 113.277 97.4758C107.719 87.082 103.447 73.2398 110.677 62.5088C107.713 61.4579 106.038 61.0605 102.863 61.1513C102.908 60.235 102.913 59.927 102.79 59.014C106.564 58.8562 108.513 59.3189 112.003 60.6918C113.572 59.0035 114.917 57.7658 116.931 56.6125C117.695 56.1745 118.774 55.6647 119.458 55.2001L119.547 55.1387Z" fill="url(#paint14_linear_1_1401)"/>
<defs>
<linearGradient id="paint0_linear_1_1401" x1="100.555" y1="47.9046" x2="146.588" y2="194.86" gradientUnits="userSpaceOnUse">
<stop stop-color="#F14A99"/>
<stop offset="1" stop-color="#9451EC"/>
</linearGradient>
<linearGradient id="paint1_linear_1_1401" x1="100.555" y1="47.9046" x2="146.588" y2="194.86" gradientUnits="userSpaceOnUse">
<stop stop-color="#F14A99"/>
<stop offset="1" stop-color="#9451EC"/>
</linearGradient>
<linearGradient id="paint2_linear_1_1401" x1="100.555" y1="47.9046" x2="146.588" y2="194.86" gradientUnits="userSpaceOnUse">
<stop stop-color="#F14A99"/>
<stop offset="1" stop-color="#9451EC"/>
</linearGradient>
<linearGradient id="paint3_linear_1_1401" x1="100.555" y1="47.9046" x2="146.588" y2="194.86" gradientUnits="userSpaceOnUse">
<stop stop-color="#F14A99"/>
<stop offset="1" stop-color="#9451EC"/>
</linearGradient>
<linearGradient id="paint4_linear_1_1401" x1="100.555" y1="47.9046" x2="146.588" y2="194.86" gradientUnits="userSpaceOnUse">
<stop stop-color="#F14A99"/>
<stop offset="1" stop-color="#9451EC"/>
</linearGradient>
<linearGradient id="paint5_linear_1_1401" x1="100.555" y1="47.9046" x2="146.588" y2="194.86" gradientUnits="userSpaceOnUse">
<stop stop-color="#F14A99"/>
<stop offset="1" stop-color="#9451EC"/>
</linearGradient>
<linearGradient id="paint6_linear_1_1401" x1="100.555" y1="47.9046" x2="146.588" y2="194.86" gradientUnits="userSpaceOnUse">
<stop stop-color="#F14A99"/>
<stop offset="1" stop-color="#9451EC"/>
</linearGradient>
<linearGradient id="paint7_linear_1_1401" x1="100.555" y1="47.9046" x2="146.588" y2="194.86" gradientUnits="userSpaceOnUse">
<stop stop-color="#F14A99"/>
<stop offset="1" stop-color="#9451EC"/>
</linearGradient>
<linearGradient id="paint8_linear_1_1401" x1="100.555" y1="47.9046" x2="146.588" y2="194.86" gradientUnits="userSpaceOnUse">
<stop stop-color="#F14A99"/>
<stop offset="1" stop-color="#9451EC"/>
</linearGradient>
<linearGradient id="paint9_linear_1_1401" x1="100.555" y1="47.9046" x2="146.588" y2="194.86" gradientUnits="userSpaceOnUse">
<stop stop-color="#F14A99"/>
<stop offset="1" stop-color="#9451EC"/>
</linearGradient>
<linearGradient id="paint10_linear_1_1401" x1="100.555" y1="47.9046" x2="146.588" y2="194.86" gradientUnits="userSpaceOnUse">
<stop stop-color="#F14A99"/>
<stop offset="1" stop-color="#9451EC"/>
</linearGradient>
<linearGradient id="paint11_linear_1_1401" x1="100.555" y1="47.9046" x2="146.588" y2="194.86" gradientUnits="userSpaceOnUse">
<stop stop-color="#F14A99"/>
<stop offset="1" stop-color="#9451EC"/>
</linearGradient>
<linearGradient id="paint12_linear_1_1401" x1="100.555" y1="47.9046" x2="146.588" y2="194.86" gradientUnits="userSpaceOnUse">
<stop stop-color="#F14A99"/>
<stop offset="1" stop-color="#9451EC"/>
</linearGradient>
<linearGradient id="paint13_linear_1_1401" x1="100.555" y1="47.9046" x2="146.588" y2="194.86" gradientUnits="userSpaceOnUse">
<stop stop-color="#F14A99"/>
<stop offset="1" stop-color="#9451EC"/>
</linearGradient>
<linearGradient id="paint14_linear_1_1401" x1="100.555" y1="47.9046" x2="146.588" y2="194.86" gradientUnits="userSpaceOnUse">
<stop stop-color="#F14A99"/>
<stop offset="1" stop-color="#9451EC"/>
</linearGradient>
</defs>
</svg>
