<svg width="250" height="250" viewBox="0 0 250 250" fill="none" xmlns="http://www.w3.org/2000/svg">
<path d="M0 125C0 55.9644 55.9644 0 125 0C194.036 0 250 55.9644 250 125C250 194.036 194.036 250 125 250C55.9644 250 0 194.036 0 125Z" fill="white"/>
<ellipse cx="125" cy="125" rx="70.3225" ry="70" fill="#0098DB"/>
<path d="M129.082 77.9281C145.971 77.9259 165.843 76.6329 178.958 89.4271C190.016 100.214 191.287 121.58 180.028 132.722C169.875 142.77 156.896 142.382 143.695 142.364L130.195 142.338L130.206 186.32C120.714 186.093 110.257 186.321 100.689 186.299C100.872 170.697 100.706 154.774 100.707 139.143L100.694 77.9447L101.621 77.9388L129.082 77.9281ZM130.23 91.2797C130.008 103.573 130.214 116.435 130.199 128.775C137.992 128.868 147.323 129.341 153.604 124.127C160.31 117.772 159.294 104.572 153.195 98.0668C148.085 92.6151 141.937 91.5194 134.773 91.35L130.23 91.2797Z" fill="#FEFEFE"/>
</svg>
