<svg width="250" height="250" viewBox="0 0 250 250" fill="none" xmlns="http://www.w3.org/2000/svg">
<mask id="path-1-inside-1_453_378" fill="white">
<path d="M0 125C0 55.9644 55.9644 0 125 0C194.036 0 250 55.9644 250 125C250 194.036 194.036 250 125 250C55.9644 250 0 194.036 0 125Z"/>
</mask>
<path d="M0 125C0 55.9644 55.9644 0 125 0C194.036 0 250 55.9644 250 125C250 194.036 194.036 250 125 250C55.9644 250 0 194.036 0 125Z" fill="white"/>
<path d="M0 125M250 125M250 125M0 125M125 0M250 125M125 250M0 125M125 250V248C57.069 248 2 192.931 2 125H0H-2C-2 195.14 54.8598 252 125 252V250ZM250 125H248C248 192.931 192.931 248 125 248V250V252C195.14 252 252 195.14 252 125H250ZM125 0V2C192.931 2 248 57.069 248 125H250H252C252 54.8598 195.14 -2 125 -2V0ZM125 0V-2C54.8598 -2 -2 54.8598 -2 125H0H2C2 57.069 57.069 2 125 2V0Z" fill="#DDDBDB" mask="url(#path-1-inside-1_453_378)"/>
<ellipse cx="125" cy="125" rx="70.3225" ry="70" fill="#0098DB"/>
<path fill-rule="evenodd" clip-rule="evenodd" d="M129.082 77.9281C145.971 77.9259 165.843 76.6329 178.958 89.4271C190.016 100.214 191.287 121.581 180.028 132.723C169.875 142.77 156.896 142.382 143.695 142.364L130.195 142.338L130.206 186.32C120.714 186.093 110.257 186.321 100.689 186.299C100.872 170.697 100.706 154.774 100.707 139.143L100.694 77.9447L101.621 77.9398L129.082 77.9281ZM130.23 91.2797C130.008 103.573 130.214 116.435 130.199 128.775C137.992 128.868 147.323 129.341 153.604 124.127C160.31 117.772 159.294 104.572 153.195 98.0668C148.085 92.6151 141.937 91.5194 134.773 91.35L130.23 91.2797Z" fill="#FEFEFE"/>
</svg>
