<svg width="250" height="250" viewBox="0 0 250 250" fill="none" xmlns="http://www.w3.org/2000/svg">
<path d="M0 125C0 55.9644 55.9644 0 125 0C194.036 0 250 55.9644 250 125C250 194.036 194.036 250 125 250C55.9644 250 0 194.036 0 125Z" fill="white"/>
<path d="M90.0121 64.0222L138.308 64.0309L152.329 64.0288C154.54 64.0282 157.562 63.9268 159.688 64.0641C159.44 64.6768 158.402 66.2979 158.033 66.9866C155.013 72.6111 151.352 77.9732 148.539 83.7104C147.376 83.8394 144.5 83.7725 143.227 83.7733L132.983 83.7746L101.225 83.7464C99.586 86.8385 97.1775 90.701 95.3826 93.7976L83.355 114.587L79.9454 120.474C79.3938 121.419 78.1187 123.458 77.8111 124.408C75.5107 124.607 72.5669 124.419 70.2073 124.453C65.1847 124.527 60.0846 124.407 55.0669 124.53C55.5009 123.48 56.1953 122.485 56.7778 121.499L59.4691 116.853L69.7501 99.1412L84.2877 73.9591C85.3467 72.1404 86.3959 70.2854 87.4459 68.4603C88.3308 66.9222 89.0028 65.5086 90.0121 64.0222Z" fill="#EF7A57"/>
<path d="M160.756 64.543C168.126 77.629 175.614 90.6483 183.218 103.599L189.549 114.611C191.468 117.886 193.353 120.812 195.001 124.244V125.914C193.424 129.207 190.085 134.357 188.17 137.732L169.77 169.614L165.941 176.239C165.08 177.714 163.163 180.568 162.804 181.988C161.927 181.008 159.289 176.039 158.556 174.664C156.352 170.532 153.499 166.032 151.468 161.855C152.067 160.505 153.242 158.856 154.035 157.514L158.941 149.094L172.902 124.999C172.023 123.79 170.901 121.569 170.097 120.175L164.428 110.455L155.521 95.0445C153.527 91.6175 151.169 87.752 149.34 84.2694C150.062 82.5627 151.827 79.6603 152.796 77.968C155.379 73.4519 158.033 68.9763 160.756 64.543Z" fill="#D43638"/>
<path d="M55.0005 125.503C62.5428 125.658 70.3604 125.319 77.8425 125.535C78.1109 126.886 79.614 129.042 80.3531 130.338C82.2475 133.694 84.1816 137.028 86.155 140.339L95.0059 155.667C96.9789 159.07 99.2453 162.81 101.12 166.239L126.966 166.25C131.532 166.249 137.904 166.429 142.288 166.134C145.704 172.529 150.105 179.606 153.118 185.97C146.434 185.813 139.123 185.934 132.407 185.953L105.813 185.954C100.453 185.966 94.4785 186.081 89.153 185.93L89.4955 185.815C89.5053 184.976 63.8357 141.137 60.7409 135.717L56.9706 129.008C56.4782 128.145 55.2839 126.242 55.0005 125.503Z" fill="#D43638"/>
<path d="M142.47 92.9418C142.697 92.8741 142.699 92.8915 142.92 92.954C142.899 93.3177 126.51 121.745 124.712 124.496C113.002 124.301 100.673 124.449 88.9358 124.493C88.8186 124.496 88.6894 124.457 88.5707 124.43L88.5073 124.209C88.6753 123.634 89.2569 122.952 89.6086 122.356L93.0926 116.458L102.32 100.46C103.65 98.1861 105.326 94.8856 106.933 92.9692C118.778 93.039 130.624 93.0299 142.47 92.9418Z" fill="#EF7A57"/>
<path d="M143.773 93.4922C144.354 93.8057 146.441 97.7348 146.958 98.6353L151.239 106L162.281 125.041C161.797 125.656 160.991 127.129 160.565 127.854C159.552 129.553 158.551 131.261 157.565 132.975C155.166 137.134 152.67 141.232 150.348 145.434C149.047 147.787 147.699 150.093 146.257 152.363C145.987 151.925 145.678 151.473 145.394 151.04C144.812 150.092 144.283 149.01 143.739 148.031C141.558 144.107 139.261 140.176 137.239 136.171L132.151 136.19C131.458 135.185 130.973 134.065 130.37 133.007C129.252 131.051 128.062 129.141 126.966 127.17C126.536 126.396 126.06 125.6 125.498 124.918C126.964 123.461 127.368 121.909 128.421 120.101L134.983 108.747C137.886 103.659 141.012 98.6657 143.773 93.4922Z" fill="#D43638"/>
<path d="M88.3081 125.535L124.736 125.508C125.921 127.149 126.744 128.751 127.744 130.503C128.807 132.367 130.344 134.568 131.163 136.541C130.417 137.938 129.057 139.574 128.019 140.745C128.915 141.932 130.041 144.217 130.795 145.571C132.595 148.734 134.357 151.919 136.081 155.124L137.155 156.992C134.995 156.777 130.473 157.017 128.109 156.981C121.032 156.874 113.565 157.212 106.512 156.951C105.483 155.678 103.562 152.091 102.681 150.547L95.996 138.926L90.9127 130.249C90.2474 129.116 88.6924 126.649 88.3081 125.535Z" fill="#D43638"/>
</svg>
