<svg width="250" height="250" viewBox="0 0 250 250" fill="none" xmlns="http://www.w3.org/2000/svg">
<mask id="path-1-inside-1_453_225" fill="white">
<path d="M0 125C0 55.9644 55.9644 0 125 0C194.036 0 250 55.9644 250 125C250 194.036 194.036 250 125 250C55.9644 250 0 194.036 0 125Z"/>
</mask>
<path d="M0 125C0 55.9644 55.9644 0 125 0C194.036 0 250 55.9644 250 125C250 194.036 194.036 250 125 250C55.9644 250 0 194.036 0 125Z" fill="white"/>
<path d="M0 125M250 125M250 125M0 125M125 0M250 125M125 250M0 125M125 250V248C57.069 248 2 192.931 2 125H0H-2C-2 195.14 54.8598 252 125 252V250ZM250 125H248C248 192.931 192.931 248 125 248V250V252C195.14 252 252 195.14 252 125H250ZM125 0V2C192.931 2 248 57.069 248 125H250H252C252 54.8598 195.14 -2 125 -2V0ZM125 0V-2C54.8598 -2 -2 54.8598 -2 125H0H2C2 57.069 57.069 2 125 2V0Z" fill="#DDDBDB" mask="url(#path-1-inside-1_453_225)"/>
<path d="M90.0116 64.0227L138.307 64.0314L152.328 64.0293C154.539 64.0287 157.562 63.9273 159.687 64.0646C159.439 64.6773 158.402 66.2984 158.032 66.9871C155.013 72.6116 151.351 77.9737 148.538 83.7109C147.375 83.8399 144.499 83.773 143.226 83.7738L132.982 83.7751L101.225 83.7469C99.5856 86.839 97.177 90.7014 95.3821 93.798L83.3545 114.587L79.945 120.474C79.3933 121.419 78.1182 123.459 77.8106 124.408C75.5103 124.607 72.5664 124.419 70.2068 124.454C65.1842 124.527 60.0841 124.407 55.0664 124.53C55.5004 123.481 56.1948 122.485 56.7773 121.499L59.4686 116.853L69.7496 99.1417L84.2872 73.9596C85.3462 72.1409 86.3954 70.2859 87.4454 68.4608C88.3303 66.9227 89.0023 65.5091 90.0116 64.0227Z" fill="#EF7A57"/>
<path d="M160.756 64.5439C168.126 77.63 175.614 90.6493 183.218 103.6L189.549 114.612C191.468 117.887 193.353 120.813 195.001 124.245V125.915C193.424 129.208 190.085 134.358 188.17 137.733L169.77 169.615L165.941 176.24C165.08 177.715 163.163 180.569 162.804 181.989C161.927 181.009 159.289 176.04 158.556 174.665C156.352 170.533 153.499 166.033 151.468 161.856C152.067 160.506 153.242 158.857 154.035 157.515L158.941 149.094L172.902 125C172.023 123.791 170.901 121.57 170.097 120.176L164.428 110.456L155.521 95.0455C153.527 91.6185 151.169 87.753 149.34 84.2704C150.062 82.5636 151.827 79.6613 152.796 77.969C155.379 73.4528 158.033 68.9773 160.756 64.5439Z" fill="#D43638"/>
<path d="M55 125.503C62.5423 125.659 70.3599 125.32 77.842 125.536C78.1104 126.886 79.6135 129.042 80.3526 130.338C82.247 133.695 84.1811 137.029 86.1545 140.339L95.0054 155.667C96.9785 159.071 99.2449 162.811 101.12 166.24L126.966 166.25C131.531 166.249 137.903 166.43 142.287 166.135C145.703 172.53 150.104 179.606 153.117 185.971C146.433 185.813 139.123 185.934 132.407 185.954L105.812 185.955C100.452 185.966 94.478 186.082 89.1525 185.93L89.495 185.815C89.5048 184.976 63.8352 141.137 60.7404 135.718L56.9701 129.009C56.4777 128.145 55.2835 126.243 55 125.503Z" fill="#D43638"/>
<path d="M142.471 92.9423C142.698 92.8746 142.7 92.892 142.92 92.9545C142.9 93.3182 126.51 121.745 124.713 124.496C113.002 124.301 100.674 124.45 88.9363 124.494C88.8191 124.497 88.6899 124.457 88.5712 124.431L88.5078 124.21C88.6758 123.635 89.2573 122.953 89.6091 122.357L93.0931 116.459L102.321 100.46C103.65 98.1866 105.326 94.8861 106.933 92.9697C118.779 93.0395 130.625 93.0304 142.471 92.9423Z" fill="#EF7A57"/>
<path d="M143.773 93.4927C144.354 93.8062 146.441 97.7353 146.958 98.6358L151.239 106L162.281 125.041C161.797 125.656 160.991 127.129 160.565 127.855C159.552 129.554 158.551 131.261 157.565 132.976C155.166 137.135 152.67 141.232 150.348 145.434C149.047 147.787 147.699 150.094 146.257 152.364C145.987 151.926 145.678 151.473 145.394 151.041C144.812 150.093 144.283 149.011 143.739 148.031C141.558 144.107 139.261 140.176 137.239 136.171L132.151 136.19C131.458 135.185 130.973 134.065 130.37 133.007C129.252 131.052 128.062 129.141 126.966 127.171C126.536 126.397 126.06 125.601 125.498 124.918C126.964 123.461 127.368 121.909 128.421 120.102L134.983 108.747C137.886 103.66 141.012 98.6661 143.773 93.4927Z" fill="#D43638"/>
<path d="M88.3086 125.536L124.736 125.509C125.921 127.15 126.744 128.752 127.744 130.505C128.808 132.369 130.344 134.57 131.164 136.542C130.417 137.939 129.058 139.575 128.02 140.746C128.915 141.933 130.041 144.219 130.795 145.572C132.595 148.736 134.357 151.92 136.081 155.126L137.155 156.993C134.996 156.779 130.474 157.019 128.109 156.983C121.033 156.875 113.566 157.213 106.513 156.953C105.483 155.68 103.563 152.093 102.682 150.549L95.9965 138.927L90.9132 130.251C90.2479 129.118 88.6929 126.651 88.3086 125.536Z" fill="#D43638"/>
</svg>
