<svg width="250" height="250" viewBox="0 0 250 250" fill="none" xmlns="http://www.w3.org/2000/svg">
<path d="M0 125C0 55.9644 55.9644 0 125 0C194.036 0 250 55.9644 250 125C250 194.036 194.036 250 125 250C55.9644 250 0 194.036 0 125Z" fill="#F77500"/>
<path d="M68.2437 143.833V160.613C68.2437 171.576 76.9877 180.774 87.9552 180.801C94.3987 180.819 100.125 177.743 103.746 172.983C104.241 172.325 105.289 172.674 105.289 173.5V174.92C105.289 186.5 114.768 195.812 126.33 195.076C136.649 194.423 144.821 185.842 144.821 175.356V173.5C144.821 172.674 145.865 172.325 146.364 172.983C149.985 177.743 155.707 180.815 162.155 180.796C173.122 180.769 181.867 171.571 181.867 160.608V143.828C181.867 135.869 177.156 129.026 170.377 125.895C169.719 125.591 169.719 124.648 170.377 124.344C177.156 121.208 181.867 114.365 181.867 106.406V89.6305C181.867 78.663 173.118 69.4697 162.155 69.4379C155.707 69.4198 149.985 72.4963 146.364 77.2563C145.865 77.9143 144.821 77.5648 144.821 76.739V75.3142C144.821 63.7341 135.342 54.4228 123.78 55.1579C113.457 55.8159 105.289 64.3966 105.289 74.8831V76.739C105.289 77.5648 104.245 77.9143 103.746 77.2563C100.125 72.4963 94.3987 69.4198 87.9552 69.4379C76.9877 69.4742 68.2437 78.672 68.2437 89.635V106.411C68.2437 114.37 72.9537 121.217 79.7285 124.348C80.391 124.652 80.391 125.591 79.7285 125.9C72.9537 129.031 68.2437 135.874 68.2437 143.833ZM107.771 106.415V104.559C107.771 103.738 108.815 103.384 109.309 104.033C112.917 108.788 118.625 111.86 125.051 111.86C131.48 111.86 137.184 108.788 140.792 104.038C141.291 103.384 142.33 103.743 142.33 104.564V106.42C142.33 114.374 147.04 121.222 153.819 124.353C154.477 124.657 154.477 125.596 153.819 125.904C147.04 129.035 142.33 135.883 142.33 143.837V145.693C142.33 146.514 141.291 146.873 140.792 146.22C137.184 141.464 131.48 138.397 125.051 138.397C118.625 138.397 112.917 141.469 109.309 146.22C108.815 146.873 107.771 146.514 107.771 145.698V143.842C107.771 135.883 103.061 129.04 96.2864 125.909C95.6239 125.6 95.6239 124.661 96.2864 124.353C103.061 121.222 107.771 114.374 107.771 106.415Z" fill="#FBF4A2"/>
</svg>
