<svg width="250" height="250" viewBox="0 0 250 250" fill="none" xmlns="http://www.w3.org/2000/svg">
<path d="M0 125C0 55.9644 55.9644 0 125 0C194.036 0 250 55.9644 250 125C250 194.036 194.036 250 125 250C55.9644 250 0 194.036 0 125Z" fill="#0F4D66"/>
<path d="M79.3371 85.4829L79.4494 85.521C79.4659 85.8035 77.9514 89.3668 77.7216 90.0616C76.6423 93.2999 76.0354 96.6769 75.9196 100.088C75.745 105.566 75.8986 111.537 75.8926 117.051L75.8656 167.168C75.8699 169.463 75.9258 171.871 75.871 174.149C78.1373 174.078 80.6281 174.129 82.91 174.135L94.7394 174.153L130.691 174.148L143.732 174.164C146.622 174.163 150.093 174.223 152.917 173.892C156.59 173.463 161.574 172.144 164.745 170.206C161.119 177.187 156.141 182.28 149.18 185.971C140.55 190.193 135.799 189.956 126.438 189.965L73.3156 189.957C68.9012 189.975 64.4867 189.969 60.0724 189.938L60.0449 145.207L60.0558 127.712C60.0564 120.979 59.566 113.62 61.4823 107.199C64.4129 97.3802 70.4036 90.3533 79.3371 85.4829Z" fill="url(#paint0_linear_1_1425)"/>
<path d="M115.276 60.1164C117.165 59.9526 121.425 60.0811 123.455 60.0819L189.94 60.0882L189.949 123.274C189.952 129.833 190.403 136.362 188.569 142.691C186.434 150.091 181.961 156.601 175.819 161.25C173.922 162.677 172.363 163.582 170.301 164.72C172.643 159.88 173.678 156.119 174.086 150.715C174.219 144.335 174.136 137.712 174.142 131.313L174.148 98.5975C174.14 91.0387 174.079 83.391 174.172 75.8389C172.004 75.9123 169.544 75.8633 167.364 75.8635L121.039 75.8726L107.31 75.8491C99.1728 75.8494 92.8337 75.7908 85.3595 79.649C86.3918 77.3491 88.3888 74.3912 90.0438 72.5123C96.739 64.9116 105.238 60.8207 115.276 60.1164Z" fill="url(#paint1_linear_1_1425)"/>
<path fill-rule="evenodd" clip-rule="evenodd" d="M88.4541 112.26C91.9902 112.223 98.5652 112.048 98.6736 117.044C98.7336 119.81 96.1402 121.102 93.9392 121.887C95.5627 123.575 97.9118 125.864 99.3712 127.576C99.3084 129.121 99.5182 131.27 99.3634 132.671L93.7769 126.67C92.7289 125.538 91.4171 123.991 90.2271 123.016C89.9759 122.811 89.3795 122.801 89.0549 122.79C88.8957 122.785 88.7364 122.781 88.5772 122.778C88.6271 123.664 88.5851 124.953 88.5847 125.863C88.5808 127.783 88.5869 129.703 88.6035 131.623C87.2849 131.536 85.6675 131.573 84.3248 131.571C84.3094 125.4 84.1781 118.409 84.3771 112.275C85.7359 112.249 87.0951 112.244 88.4541 112.26ZM93.3088 113.776C92.1341 112.561 90.1584 112.705 88.5872 112.708L88.5829 122.174C90.1313 122.384 91.6367 122.651 92.9136 121.461C94.8478 119.657 95.191 115.723 93.3088 113.776Z" fill="#DBE6CB"/>
<path fill-rule="evenodd" clip-rule="evenodd" d="M143.394 117.123C145.489 116.91 147.979 117.202 149.174 119.156C150.104 120.676 149.961 122.485 149.956 124.187C149.945 125.73 149.943 127.273 149.948 128.815C149.965 130.754 149.871 130.7 151.672 130.838L151.738 130.975C151.56 131.23 151.196 131.382 150.902 131.466C148.9 132.037 146.845 132.279 146.034 129.906C144.223 131.469 141.952 132.414 139.592 131.474C139.476 131.404 139.363 131.331 139.252 131.255C138.462 130.712 137.827 129.902 137.684 128.935C137.553 127.988 137.805 127.027 138.386 126.267C140.092 124.064 143.509 124.048 145.965 123.712C145.99 120.108 145.777 117.064 141.046 118.401C140.064 118.679 139.18 119.344 138.278 119.824C138.334 119.752 138.391 119.681 138.447 119.61C139.627 118.168 141.559 117.315 143.394 117.123ZM146.006 124.391C145.794 124.207 145.656 124.271 145.362 124.299C144.6 124.441 144.056 124.521 143.365 124.906C141.309 126.05 140.754 128.755 142.636 130.337C143.935 130.934 144.977 130.22 145.976 129.415C146.027 128.118 146.13 125.605 146.006 124.391Z" fill="#DBE6CB"/>
<path fill-rule="evenodd" clip-rule="evenodd" d="M105.617 117.108C113.134 116.54 112.054 121.978 112.034 127.289C112.031 128.067 111.925 130.027 112.356 130.597C112.955 130.962 113.558 130.789 114.262 130.793C112.758 131.651 109.873 132.727 108.572 130.849C108.385 130.579 108.303 130.151 108.022 129.969C106.247 131.719 102.929 132.699 100.874 130.888C99.4687 129.65 99.3691 127.432 100.649 126.079C101.727 124.94 103.828 124.088 105.377 124.032C106.216 123.937 107.248 123.845 108.072 123.704C108.099 120.429 108.031 117.509 103.853 118.208C102.146 118.494 101.787 119.2 100.395 119.772C101.705 118.216 103.588 117.255 105.617 117.108ZM108.144 124.23C107.55 124.269 106.87 124.414 106.276 124.523C105.174 124.972 104.369 125.424 103.886 126.598C102.974 128.818 104.467 131.617 107.061 130.139C107.385 129.954 107.693 129.741 107.981 129.505C108.211 129.068 108.141 124.962 108.144 124.23Z" fill="#DCE6CD"/>
<path d="M156.354 116.892C156.305 117.64 156.26 118.27 156.281 119.017C158.237 117.615 159.918 116.602 162.409 117.084C166.021 117.784 165.706 121.269 165.753 124.011C165.794 126.48 165.602 129.187 165.783 131.588L161.859 131.57C161.731 129.122 161.867 126.642 161.814 124.202C161.768 122.112 162.351 117.775 159.064 118.159C157.774 118.31 157.059 118.896 156.169 119.735L156.169 119.735C156.379 120.21 156.273 130.294 156.271 131.569C155.001 131.531 153.642 131.547 152.364 131.538C152.45 130.317 152.346 128.508 152.352 127.234C152.37 124.128 152.283 120.989 152.364 117.884C153.686 117.519 155.015 117.188 156.354 116.892Z" fill="#DBE6CB"/>
<path d="M129.604 117.314C127.722 117.276 125.466 117.271 123.585 117.343C123.154 121.41 122.247 123.522 120.609 127.166C120.424 126.332 119.985 125.357 119.624 124.569C118.533 122.185 117.574 119.691 116.462 117.321C115.079 117.264 113.623 117.322 112.234 117.359C112.808 118.69 118.101 131.035 118.474 131.414C118.603 132.321 117.76 133.95 117.221 134.668C116 136.298 114.304 136.279 112.54 135.858L112.325 137.785C116.614 137.557 117.786 135.009 119.233 131.39C119.495 131.073 120.599 128.305 120.851 127.745C122.29 124.55 123.676 120.575 125.455 117.599C125.681 117.995 125.878 118.494 126.053 118.922C127.838 123.25 129.849 127.499 131.652 131.816C130.438 135.08 129.508 136.726 125.571 135.856C125.571 136.484 125.473 137.17 125.398 137.798C129.752 137.526 130.857 135.076 132.4 131.38C132.938 130.09 133.56 128.823 134.072 127.49C135.714 123.869 136.806 120.981 138.689 117.333C138.047 117.337 137.404 117.345 136.761 117.357C136.278 120.706 135.441 123.94 133.808 126.936C133.532 126.514 132.504 124.066 132.251 123.45C131.417 121.408 130.43 119.34 129.604 117.314Z" fill="#DCE6CD"/>
<defs>
<linearGradient id="paint0_linear_1_1425" x1="199.175" y1="57.655" x2="64.6954" y2="179.957" gradientUnits="userSpaceOnUse">
<stop stop-color="#5EB77B"/>
<stop offset="1" stop-color="#209B6C"/>
</linearGradient>
<linearGradient id="paint1_linear_1_1425" x1="199.175" y1="57.655" x2="64.6954" y2="179.957" gradientUnits="userSpaceOnUse">
<stop stop-color="#5EB77B"/>
<stop offset="1" stop-color="#209B6C"/>
</linearGradient>
</defs>
</svg>
