<svg width="250" height="250" viewBox="0 0 250 250" fill="none" xmlns="http://www.w3.org/2000/svg">
<mask id="path-1-inside-1_453_77" fill="white">
<path d="M0 125C0 55.9644 55.9644 0 125 0C194.036 0 250 55.9644 250 125C250 194.036 194.036 250 125 250C55.9644 250 0 194.036 0 125Z"/>
</mask>
<path d="M0 125C0 55.9644 55.9644 0 125 0C194.036 0 250 55.9644 250 125C250 194.036 194.036 250 125 250C55.9644 250 0 194.036 0 125Z" fill="white"/>
<path d="M0 125M250 125M250 125M0 125M125 0M250 125M125 250M0 125M125 250V248C57.069 248 2 192.931 2 125H0H-2C-2 195.14 54.8598 252 125 252V250ZM250 125H248C248 192.931 192.931 248 125 248V250V252C195.14 252 252 195.14 252 125H250ZM125 0V2C192.931 2 248 57.069 248 125H250H252C252 54.8598 195.14 -2 125 -2V0ZM125 0V-2C54.8598 -2 -2 54.8598 -2 125H0H2C2 57.069 57.069 2 125 2V0Z" fill="#DDDBDB" mask="url(#path-1-inside-1_453_77)"/>
<path d="M183.952 183.858C181.617 184.022 179.232 184.351 176.847 184.367C151.636 184.4 126.441 184.516 101.23 184.351C78.8147 184.187 65.0826 170.224 65.0332 147.825C64.9675 123.173 65.0168 98.5045 65.0332 73.8524C65.0332 71.4514 65.2306 69.0339 65.3951 65.5803C72.4996 65.5803 79.2588 65.5803 86.0179 65.5803C106.559 65.5803 127.116 65.5309 147.656 65.5967C168.658 65.6625 182.834 77.6021 184.363 98.3894C185.564 114.736 184.692 131.248 184.725 147.677C184.725 150.045 184.725 152.414 184.725 155.489C174.266 144.388 164.48 133.978 154.58 123.453C161.306 118.601 166.569 110.839 165.451 99.8366C164.398 89.4758 157.31 81.1708 147.245 80.957C125.093 80.4801 102.941 80.809 81.2651 80.809C80.4429 81.7793 79.8015 82.174 79.785 82.5851C79.7028 106.382 79.3574 130.195 79.7686 153.992C79.9166 162.264 85.5081 168.629 93.5336 168.974C113.351 169.846 133.217 169.254 155.205 169.254C138.858 153.844 124.04 139.865 107.808 124.555C107.808 134.29 107.808 142.497 107.808 151.197C101.888 151.197 97.1352 151.197 91.922 151.197C91.922 132.218 91.922 113.667 91.922 93.6695C96.5103 93.6695 101.296 93.6695 106.065 93.6695C118.942 93.6695 131.819 93.8668 144.696 93.5873C150.699 93.4557 152.228 96.4159 152.261 101.629C152.294 106.974 149.778 108.898 144.647 108.75C137.674 108.536 130.684 108.701 125.208 108.701C134.335 118.815 143.397 129.324 152.985 139.306C160.764 147.398 168.806 155.324 177.472 162.412C184.676 168.316 186.106 175.026 183.952 183.858Z" fill="#BC0018"/>
</svg>
