<svg width="250" height="250" viewBox="0 0 250 250" fill="none" xmlns="http://www.w3.org/2000/svg">
<path d="M0 125C0 55.9644 55.9644 0 125 0C194.036 0 250 55.9644 250 125C250 194.036 194.036 250 125 250C55.9644 250 0 194.036 0 125Z" fill="white"/>
<path fill-rule="evenodd" clip-rule="evenodd" d="M159.445 68.7638C166.275 68.7638 172.825 71.4772 177.654 76.307C182.483 81.1369 185.196 87.6877 185.196 94.518C185.178 101.343 182.458 107.882 177.633 112.708C172.808 117.534 166.269 120.253 159.445 120.272C156.06 120.283 152.707 119.624 149.578 118.333C146.448 117.042 143.605 115.146 141.211 112.753C138.817 110.359 136.92 107.516 135.629 104.387C134.338 101.257 133.678 97.9034 133.688 94.518C133.678 91.1328 134.338 87.779 135.629 84.6497C136.92 81.5203 138.817 78.6771 141.211 76.2836C143.605 73.8901 146.448 71.9936 149.578 70.703C152.707 69.4125 156.06 68.7535 159.445 68.7638Z" fill="#FF6813"/>
<path fill-rule="evenodd" clip-rule="evenodd" d="M193.372 189.77C189.056 167.938 191.217 139.918 167.472 131.48C149.4 125.064 131.903 141.942 133.834 158.487C134.058 160.739 134.743 164.224 135.765 166.476C145.084 185.377 173.265 185.717 193.372 189.77Z" fill="#0074C7"/>
<path fill-rule="evenodd" clip-rule="evenodd" d="M63.375 60.5879C67.9877 82.4695 66.3044 110.808 89.9291 118.974C107.923 125.207 125.023 107.862 122.877 91.3129C122.551 89.0445 121.983 85.5269 120.854 83.265C111.303 64.3291 83.2938 64.4408 63.3815 60.5879" fill="#0074C7"/>
<path fill-rule="evenodd" clip-rule="evenodd" d="M63.375 189.77C85.2093 185.455 113.343 187.382 121.672 163.685C128.088 145.65 111.097 128.299 94.5502 130.233C92.2981 130.456 88.7016 131.141 86.5606 132.16C67.5395 141.684 67.3176 169.808 63.375 189.763" fill="#0074C7"/>
</svg>
