<svg width="250" height="250" viewBox="0 0 250 250" fill="none" xmlns="http://www.w3.org/2000/svg">
<path d="M0 125C0 55.9644 55.9644 0 125 0C194.036 0 250 55.9644 250 125C250 194.036 194.036 250 125 250C55.9644 250 0 194.036 0 125Z" fill="white"/>
<path fill-rule="evenodd" clip-rule="evenodd" d="M173.549 65.0272C176.733 65.06 180.243 64.6353 182.735 67.0713C184.581 68.8763 184.967 71.3658 184.979 73.8369L184.976 130.995C184.977 131.795 184.977 132.598 184.981 133.398C184.996 136.594 185.294 139.711 182.817 142.181C181.772 143.226 180.43 143.923 178.974 144.175C177.759 144.391 175.203 144.354 173.9 144.359L166.079 144.39L135.406 144.558C136.49 145.824 138.637 147.858 139.872 149.098L175.588 184.984C173.646 184.923 171.556 184.963 169.599 184.963L123.515 184.96C122.04 183.546 120.48 181.871 119.051 180.395L111.879 173.005C109.831 170.903 107.592 168.687 105.623 166.533C105.576 170.196 105.721 173.864 105.687 177.529C105.674 178.916 105.703 180.431 105.527 181.811C105.443 182.466 105.132 183.225 104.676 183.706C103.769 184.66 102.521 184.991 101.242 184.967C94.0487 184.966 86.8498 184.963 79.6578 184.963L72.8794 184.967C71.3794 184.97 69.9418 185 68.4443 184.852C64.3296 184.443 65.0467 179.742 65.0485 176.67L65.0429 156.074C65.0415 153.801 65.0174 151.405 65.0576 149.155C65.1472 144.132 68.19 144.273 72.1515 144.307C74.9568 144.331 77.8179 144.288 80.6337 144.31C81.7078 144.318 82.7544 144.276 83.8256 144.37L71.0121 131.465C69.0689 129.513 66.9148 127.438 65.0459 125.436L65.1118 92.7342C65.1175 86.3561 65.0313 79.7011 65.1581 73.3469C67.2775 75.5691 69.5697 77.8181 71.7358 80.0062L83.7437 92.1413C90.9734 99.4431 98.2839 107.002 105.588 114.199C105.498 111.117 105.59 107.589 105.599 104.48L105.64 76.7646C105.641 75.2744 105.634 73.7834 105.658 72.293C105.69 70.3759 106.075 69.0511 107.335 67.5787C108.574 66.1074 110.356 65.1995 112.274 65.0614C112.51 65.0379 112.989 65.0309 113.232 65.0308C118.01 65.0282 122.793 65.0346 127.571 65.0347L170.853 65.0295C171.75 65.0286 172.651 65.0179 173.549 65.0272ZM128.572 98.5576C118.059 99.1243 109.818 105.729 107.358 116.045C111.451 120.069 115.601 124.394 119.629 128.503L132.037 141.135L133.575 142.695C139.59 141.39 144.644 138.069 147.984 132.851C151.163 127.871 152.239 121.834 150.977 116.062C149.683 110.21 146.097 105.122 141.021 101.936C137.289 99.6221 132.962 98.4477 128.572 98.5576Z" fill="#FE0000"/>
</svg>
