<svg width="250" height="250" viewBox="0 0 250 250" fill="none" xmlns="http://www.w3.org/2000/svg">
<path d="M0 125C0 55.9644 55.9644 0 125 0C194.036 0 250 55.9644 250 125C250 194.036 194.036 250 125 250C55.9644 250 0 194.036 0 125Z" fill="#002866"/>
<path d="M68.2776 112.743C71.8325 107.846 75.4666 105.833 81.6083 105.737L81.6098 116.383C80.1388 116.38 78.6601 116.356 77.1908 116.398C70.8605 116.579 68.4848 120.818 68.494 126.64L68.5155 143.801C65.6769 143.809 62.8384 143.797 60 143.766V106.609C62.402 106.6 65.0723 106.563 67.4667 106.636C67.7155 108.59 68.0775 110.825 68.2776 112.743Z" fill="#FEFEFE"/>
<path fill-rule="evenodd" clip-rule="evenodd" d="M99.9853 105.634C100.784 105.577 101.586 105.561 102.386 105.589C108.302 105.805 113.892 108.401 117.076 113.513C119.963 118.146 120.073 122.376 119.86 127.628C114.418 127.525 108.694 127.612 103.238 127.612L96.8646 127.607C95.4372 127.602 93.8035 127.561 92.3982 127.643C92.4482 128.579 92.6398 129.502 92.9666 130.38C94.7268 135.165 99.8561 137.223 104.646 135.631C106.489 135.018 108.169 133.267 108.963 131.507C111.808 131.488 114.652 131.484 117.497 131.495L118.995 131.502C118.055 134.252 117.055 136.47 115.16 138.736C112.211 142.143 107.773 144.151 103.337 144.515C92.3073 145.423 83.2924 138.223 82.5364 126.948C81.7861 115.759 88.439 106.556 99.9853 105.634ZM107.213 115.902C105.405 114.531 103.165 113.857 100.901 114.001C99.0042 114.134 97.6325 114.642 96.057 115.705C94.0053 117.09 93.1726 118.69 92.6035 121.083L101.731 121.106C104.382 121.108 107.277 121.167 109.909 121.077C109.61 118.925 108.977 117.24 107.213 115.902Z" fill="#FEFEFE"/>
<path d="M164.701 96.5953C168.015 96.4612 171.669 96.6701 175.03 96.5725C174.25 97.4707 173.026 99.2461 172.284 100.267L167.368 107.025L154.19 125.009C154.715 125.676 155.337 126.593 155.842 127.293L169.514 146.167C171.204 148.502 173.092 151.251 174.903 153.448L174.157 153.441C170.916 153.404 167.639 153.517 164.406 153.38C163.265 153.332 161.562 150.587 160.894 149.663L157.307 144.701C152.605 138.198 147.947 131.384 143.126 124.994L148.781 117.289C149.594 116.19 150.487 115.126 151.26 113.997C154.068 109.896 157.027 105.904 159.957 101.887L162.094 98.9542C162.825 97.9523 163.403 96.8277 164.701 96.5953Z" fill="#FEFEFE"/>
<path d="M180.896 106.463C183.699 106.377 187.166 106.5 190 106.558C189.2 107.795 188.093 109.265 187.214 110.471L182.2 117.227C180.312 119.737 178.407 122.456 176.57 125.015C177.098 125.622 178.106 127.086 178.612 127.783L182.614 133.313L186.996 139.314C187.92 140.58 189.176 142.265 189.956 143.586C189.267 143.575 188.558 143.597 187.867 143.61C186.418 143.632 184.968 143.643 183.519 143.642C182.509 143.646 181.558 143.675 180.55 143.581C178.47 143.389 177.647 141.891 176.527 140.355C175.842 139.415 175.159 138.46 174.476 137.513L168.77 129.642C167.683 128.147 166.51 126.462 165.382 125.018C167.118 122.725 168.79 120.24 170.516 117.926C171.351 116.806 172.221 115.723 173.029 114.593L175.995 110.472C177.451 108.459 178.217 106.694 180.896 106.463Z" fill="#7397ED"/>
<path d="M119.762 106.465L124.896 106.46C129.466 106.457 129.363 106.353 132.054 110.074L135.191 114.418C135.919 115.434 136.667 116.347 137.4 117.341L142.956 124.999L131.881 140.29C130.731 141.877 130.197 142.971 128.237 143.546C127.23 143.775 125.631 143.668 124.549 143.681C122.467 143.706 120.335 143.632 118.255 143.692L125.986 133.037C127.942 130.37 129.881 127.69 131.803 124.999L126.259 117.356C125.737 116.649 125.171 115.972 124.645 115.264C122.517 112.349 120.408 109.419 118.318 106.476L119.762 106.465Z" fill="#FEFEFE"/>
</svg>
