<svg width="250" height="250" viewBox="0 0 250 250" fill="none" xmlns="http://www.w3.org/2000/svg">
<path d="M0 125C0 55.9644 55.9644 0 125 0C194.036 0 250 55.9644 250 125C250 194.036 194.036 250 125 250C55.9644 250 0 194.036 0 125Z" fill="white"/>
<path d="M100.887 60.0324C103.221 59.9699 105.773 60.0171 108.122 60.017L133.044 60.0167C140.086 60.0142 144.894 59.8569 151.798 61.8766C162.873 65.0969 172.193 72.6262 177.67 82.7773C182.798 92.2255 184.003 103.312 181.026 113.641C177.624 125.197 169.799 134.012 159.843 140.566C157.312 142.232 154.846 143.535 152.195 144.977L75.0898 187.007C73.5319 187.851 71.9943 188.718 70.4207 189.536C67.3805 191.116 63.944 188.424 64.792 185.081C65.4934 182.314 66.2379 179.538 66.9682 176.77L95.6257 68.2564C96.051 66.6386 96.4688 65.0093 96.914 63.3974C97.5176 61.2119 98.6101 60.2124 100.887 60.0324Z" fill="#3E155C"/>
<path d="M167.011 151.117C176.591 150.594 184.783 157.933 185.312 167.512C185.841 177.092 178.506 185.288 168.927 185.823C159.34 186.358 151.135 179.017 150.605 169.429C150.076 159.841 157.422 151.641 167.011 151.117Z" fill="#8A2FCB"/>
</svg>
