<svg width="250" height="250" viewBox="0 0 250 250" fill="none" xmlns="http://www.w3.org/2000/svg">
<path d="M0 125C0 55.9644 55.9644 0 125 0C194.036 0 250 55.9644 250 125C250 194.036 194.036 250 125 250C55.9644 250 0 194.036 0 125Z" fill="white"/>
<path d="M57.425 133.658L55.0005 153.053C76.6262 139.864 108.621 140.042 121.916 141.78C122.36 139.073 122.931 132.173 123.734 124.203C96.8713 121.487 68.3352 129.375 57.425 133.658Z" fill="#04AEED"/>
<path d="M63.3359 100.904L60.9114 120.3C82.5371 107.111 114.532 107.288 127.827 109.026C128.271 106.319 128.842 99.419 129.645 91.4486C102.782 88.7332 74.2461 96.6208 63.3359 100.904Z" fill="#04AEED"/>
<path d="M195 99.7734C175.558 112.167 142.935 111.001 129.054 108.869C129.054 109.674 128.713 114.412 127.349 126.919C159.526 129.42 185.857 120.855 195 116.26C194.953 115.36 194.887 110.802 195 99.7734Z" fill="#3D3F96"/>
<path d="M120.667 158.756L123.511 140.564C158.304 145.225 182.445 135.495 190.167 130.047C189.978 131.658 189.286 137.523 188.035 148.097C163.59 159.126 132.938 159.798 120.667 158.756Z" fill="#3D3F96"/>
</svg>
