<svg width="250" height="250" viewBox="0 0 250 250" fill="none" xmlns="http://www.w3.org/2000/svg">
<mask id="path-1-inside-1_453_152" fill="white">
<path d="M0 125C0 55.9644 55.9644 0 125 0C194.036 0 250 55.9644 250 125C250 194.036 194.036 250 125 250C55.9644 250 0 194.036 0 125Z"/>
</mask>
<path d="M0 125C0 55.9644 55.9644 0 125 0C194.036 0 250 55.9644 250 125C250 194.036 194.036 250 125 250C55.9644 250 0 194.036 0 125Z" fill="white"/>
<path d="M0 125M250 125M250 125M0 125M125 0M250 125M125 250M0 125M125 250V248C57.069 248 2 192.931 2 125H0H-2C-2 195.14 54.8598 252 125 252V250ZM250 125H248C248 192.931 192.931 248 125 248V250V252C195.14 252 252 195.14 252 125H250ZM125 0V2C192.931 2 248 57.069 248 125H250H252C252 54.8598 195.14 -2 125 -2V0ZM125 0V-2C54.8598 -2 -2 54.8598 -2 125H0H2C2 57.069 57.069 2 125 2V0Z" fill="#DDDBDB" mask="url(#path-1-inside-1_453_152)"/>
<path d="M57.4246 133.66L55 153.055C76.6257 139.866 108.621 140.044 121.915 141.782C122.36 139.074 122.93 132.175 123.734 124.204C96.8708 121.489 68.3347 129.377 57.4246 133.66Z" fill="#04AEED"/>
<path d="M63.3357 100.905L60.9111 120.301C82.5369 107.111 114.532 107.289 127.827 109.027C128.271 106.32 128.842 99.42 129.645 91.4496C102.782 88.7342 74.2459 96.6217 63.3357 100.905Z" fill="#04AEED"/>
<path d="M195 99.7749C175.558 112.168 142.935 111.002 129.054 108.87C129.054 109.676 128.713 114.413 127.349 126.92C159.526 129.422 185.857 120.856 195 116.261C194.953 115.361 194.887 110.804 195 99.7749Z" fill="#3D3F96"/>
<path d="M120.667 158.757L123.511 140.564C158.303 145.226 182.445 135.495 190.167 130.047C189.977 131.658 189.286 137.523 188.035 148.097C163.59 159.126 132.937 159.799 120.667 158.757Z" fill="#3D3F96"/>
</svg>
