<svg width="250" height="250" viewBox="0 0 250 250" fill="none" xmlns="http://www.w3.org/2000/svg">
<mask id="path-1-inside-1_453_91" fill="white">
<path d="M0 125C0 55.9644 55.9644 0 125 0C194.036 0 250 55.9644 250 125C250 194.036 194.036 250 125 250C55.9644 250 0 194.036 0 125Z"/>
</mask>
<path d="M0 125C0 55.9644 55.9644 0 125 0C194.036 0 250 55.9644 250 125C250 194.036 194.036 250 125 250C55.9644 250 0 194.036 0 125Z" fill="white"/>
<path d="M0 125M250 125M250 125M0 125M125 0M250 125M125 250M0 125M125 250V248C57.069 248 2 192.931 2 125H0H-2C-2 195.14 54.8598 252 125 252V250ZM250 125H248C248 192.931 192.931 248 125 248V250V252C195.14 252 252 195.14 252 125H250ZM125 0V2C192.931 2 248 57.069 248 125H250H252C252 54.8598 195.14 -2 125 -2V0ZM125 0V-2C54.8598 -2 -2 54.8598 -2 125H0H2C2 57.069 57.069 2 125 2V0Z" fill="#DDDBDB" mask="url(#path-1-inside-1_453_91)"/>
<path d="M161.477 91.2342C164.244 91.234 173.699 93.7706 178.08 95.0389V70.5564C163.942 66.5702 140.7 64.5246 130.846 64V111.861C140.077 111.966 155.223 114.614 161.642 115.926V150.444C161.642 153.325 160.104 155.988 157.609 157.429L146.143 164.049L146.145 141.562H130.847C130.847 149.254 130.846 170.526 130.846 193.814C154.579 179.915 173.922 162.72 176.466 159.835C178.403 158.083 178.349 155.185 178.08 153.955V113.026C178.08 108.644 178.08 107.261 174.622 106.108C171.855 105.186 154.483 102.495 146.143 101.266V77.5146C149.279 76.9612 157.673 78.283 161.477 79.0132V91.2342Z" fill="#666666"/>
<path fill-rule="evenodd" clip-rule="evenodd" d="M118.769 64.1018C118.769 82.0769 118.698 95.979 118.698 104.992C118.698 111.265 115.54 112.84 106.485 118.702C111.522 123.115 119.396 127.289 119.396 135.071V194C119.396 194 110.259 188.244 104.613 184.984C104.613 166.785 103.993 141.671 103.993 141.671C103.84 138.734 102.285 132.058 97.2866 128.854C92.2882 125.65 89.3295 124.102 88.4749 123.728V173.072C84.256 169.735 75.0494 162.018 71.9732 157.853C71.9732 146.766 71.8471 94.5678 71.7842 70.1188C79.4846 68.175 99.7189 64.8833 118.769 64.1018ZM103.936 77.5417C99.0041 77.5417 91.6055 78.2757 88.5228 78.6427L88.7997 112.291C97.6067 112.291 103.185 102.111 103.936 99.306C104.962 95.4768 104.039 85.9069 103.936 77.5417Z" fill="#0795E4"/>
</svg>
