<svg width="250" height="250" viewBox="0 0 250 250" fill="none" xmlns="http://www.w3.org/2000/svg">
<path d="M0 125C0 55.9644 55.9644 0 125 0C194.036 0 250 55.9644 250 125C250 194.036 194.036 250 125 250C55.9644 250 0 194.036 0 125Z" fill="#25214F"/>
<path d="M122.808 55.7397C122.808 55.7397 111.114 62.6587 102.957 72.1296C94.7929 81.6004 87.0029 94.1067 87.0029 94.1067C87.0029 94.1067 99.0839 99.5452 106.047 106.94C114.084 115.199 122.815 126.775 122.815 136.127C122.808 145.478 122.808 55.7397 122.808 55.7397Z" fill="#D9AC0A"/>
<path d="M125.018 55.7397C125.018 55.7397 136.712 62.6587 144.868 72.1296C153.025 81.6004 160.823 94.1141 160.823 94.1141C160.823 94.1141 148.742 99.5526 141.779 106.948C133.742 115.206 125.011 126.782 125.011 136.134C125.011 145.478 125.018 55.7397 125.018 55.7397Z" fill="#D9AC0A"/>
<path d="M160.439 174.835V184.18H91.9926V174.835H89.4326V194.26H162.998V174.835H160.439Z" fill="#D9AC0B"/>
</svg>
