<svg width="250" height="250" viewBox="0 0 250 250" fill="none" xmlns="http://www.w3.org/2000/svg">
<mask id="path-1-inside-1_453_320" fill="white">
<path d="M0 125C0 55.9644 55.9644 0 125 0C194.036 0 250 55.9644 250 125C250 194.036 194.036 250 125 250C55.9644 250 0 194.036 0 125Z"/>
</mask>
<path d="M0 125C0 55.9644 55.9644 0 125 0C194.036 0 250 55.9644 250 125C250 194.036 194.036 250 125 250C55.9644 250 0 194.036 0 125Z" fill="white"/>
<path d="M0 125M250 125M250 125M0 125M125 0M250 125M125 250M0 125M125 250V248C57.069 248 2 192.931 2 125H0H-2C-2 195.14 54.8598 252 125 252V250ZM250 125H248C248 192.931 192.931 248 125 248V250V252C195.14 252 252 195.14 252 125H250ZM125 0V2C192.931 2 248 57.069 248 125H250H252C252 54.8598 195.14 -2 125 -2V0ZM125 0V-2C54.8598 -2 -2 54.8598 -2 125H0H2C2 57.069 57.069 2 125 2V0Z" fill="#DDDBDB" mask="url(#path-1-inside-1_453_320)"/>
<path d="M133.202 176.657C94.2918 188.749 68.3518 156.821 68.3518 156.821C111.767 155.279 148.079 141.18 175.545 118.673C175.545 118.673 175.545 163.498 133.202 176.657Z" fill="#2F2E93"/>
<path d="M165.245 70.6079C146.172 125.158 103.447 146.139 55 155.676C116.798 166.739 177.452 120.962 195 72.8967L165.245 70.6079Z" fill="#2F2E93"/>
<path d="M133.201 76.7112C122.919 109.667 105.929 126.012 62.2477 152.624C114.689 136.462 135.97 120.264 160.286 79.3815L133.201 76.7112Z" fill="#2F2E93"/>
<path d="M126.717 86.2483C113.977 111.88 100.618 125.177 66.4442 146.902C92.0451 118.712 100.777 105.322 107.262 83.1965L126.717 86.2483Z" fill="#01A54E"/>
</svg>
