<svg width="250" height="250" viewBox="0 0 250 250" fill="none" xmlns="http://www.w3.org/2000/svg">
<path d="M0 125C0 55.9644 55.9644 0 125 0C194.036 0 250 55.9644 250 125C250 194.036 194.036 250 125 250C55.9644 250 0 194.036 0 125Z" fill="#17171A"/>
<path d="M101.715 106.967C101.88 106.957 102.046 106.948 102.211 106.941C106.515 106.738 112.215 106.91 116.654 106.91L162.889 106.906C166.065 106.906 169.542 106.766 172.671 107.046C175.824 107.329 177.851 110.508 177.874 113.457C177.93 120.67 175.015 128.144 170.117 133.409C165.573 138.378 159.496 141.681 152.856 142.79C151.148 143.061 149.571 143.113 147.843 143.179C144.431 143.262 140.815 143.173 137.367 143.188L104.145 143.178L87.0908 143.209C83.9057 143.211 80.6145 143.307 77.4491 143.041C74.3511 142.78 72.1318 139.892 72.1564 136.879C72.2929 120.187 85.1089 107.455 101.715 106.967Z" fill="#262628"/>
<path d="M78.4734 65.152C79.5275 65.0377 81.169 65.0781 82.2553 65.0783L136.548 65.0782C141.629 65.076 147.91 64.7302 152.816 65.5104C165.57 67.5384 175.823 77.6129 177.558 90.499C178.292 95.9549 178.105 100.264 171.764 101.179C166.532 101.324 160.617 101.206 155.339 101.202L110.161 101.204C105.503 101.208 100.197 101.449 95.6881 100.479C90.3942 99.3261 85.5136 96.7551 81.5687 93.0411C75.9245 87.7773 72.5031 80.2939 72.145 72.5604C72.0377 70.2431 72.3 68.7714 73.9273 67.0238C75.1316 65.7302 76.7301 65.2098 78.4734 65.152Z" fill="#262628"/>
<path d="M119.342 149.078C120.741 148.956 123.215 149.03 124.676 149.032L134.132 149.042L143.989 149.035C146.333 149.033 149.225 148.963 151.514 149.218C156.377 149.76 161.434 151.767 165.39 154.616C171.924 159.301 176.29 166.427 177.497 174.377C178.248 179.081 178.156 184.013 172.314 184.894C169.454 185.063 166.897 184.986 164.052 184.958L156.129 184.943C153.536 184.93 150.943 184.937 148.349 184.961C141.034 185.041 136.589 184.895 129.876 181.542C121.362 177.288 116.006 169.575 114.311 160.249C113.455 155.54 113.309 150.078 119.342 149.078Z" fill="#262628"/>
<path d="M100.562 111.23C101.334 111.14 103.049 111.174 103.848 111.174L109.696 111.181L160.724 111.184L168.084 111.171C169.386 111.168 171 111.107 172.28 111.282C172.919 111.369 173.376 112.141 173.691 112.664C174.147 118.168 171.454 125.34 167.902 129.517C162.948 135.345 157.264 138.168 149.781 138.938C143.864 139.143 137.48 139.018 131.526 139.017L85.841 139.018C83.751 139.018 79.0134 139.173 77.1899 138.715C76.704 138.242 76.3316 137.423 76.3405 136.735C76.5195 122.861 86.9586 112.262 100.562 111.23Z" fill="#FEFEFE"/>
<path d="M78.0386 69.3897C81.7811 69.1799 87.2067 69.3505 91.042 69.3518L137.865 69.3517C144.226 69.3515 152.647 68.7846 158.484 71.4001C164.738 74.2019 169.616 79.3837 172.035 85.796C173.101 88.6178 173.802 92.1011 173.697 95.1712C173.667 96.0546 172.982 96.6364 172.176 96.9207C169.654 97.1297 165.132 96.9942 162.484 96.9939L116.429 96.9957C111.503 96.9957 106.522 97.0338 101.602 96.9637C94.6574 96.8647 88.0072 93.8753 83.2497 88.7666C78.6104 83.8181 76.1364 77.2237 76.3757 70.4448C77.0151 69.8217 77.2408 69.6669 78.0386 69.3897Z" fill="#FEFEFE"/>
<path d="M119.479 153.233C127.732 153.077 136.047 153.308 144.307 153.206C146.84 153.174 149.482 153.129 151.985 153.514C154.727 153.943 157.378 154.82 159.833 156.112C165.888 159.26 170.445 164.683 172.502 171.189C173.179 173.333 174.326 178.314 173.297 180.299L172.178 180.731C169.872 180.987 164.873 180.846 162.42 180.845L145.535 180.843C142.997 180.822 139.272 180.633 136.808 180.023C132.787 179.026 128.253 176.266 125.403 173.281C120.383 168.021 117.988 161.79 118.077 154.583C118.555 153.861 118.715 153.619 119.479 153.233Z" fill="#FEFEFE"/>
</svg>
