<svg width="250" height="250" viewBox="0 0 250 250" fill="none" xmlns="http://www.w3.org/2000/svg">
<path d="M0 125C0 55.9644 55.9644 0 125 0V0C194.036 0 250 55.9644 250 125V125C250 194.036 194.036 250 125 250V250C55.9644 250 0 194.036 0 125V125Z" fill="#17171A"/>
<path d="M101.716 106.967C101.881 106.957 102.047 106.948 102.212 106.941C106.516 106.738 112.216 106.91 116.655 106.909L162.89 106.905C166.066 106.905 169.543 106.765 172.672 107.046C175.825 107.329 177.852 110.507 177.875 113.457C177.931 120.67 175.016 128.143 170.118 133.408C165.574 138.377 159.497 141.68 152.857 142.789C151.149 143.061 149.572 143.113 147.844 143.178C144.432 143.261 140.816 143.173 137.368 143.187L104.146 143.178L87.0917 143.208C83.9066 143.211 80.6155 143.306 77.4501 143.04C74.3521 142.78 72.1328 139.892 72.1574 136.878C72.2939 120.186 85.1099 107.454 101.716 106.967Z" fill="#262628"/>
<path d="M78.4743 65.1515C79.5285 65.0372 81.17 65.0776 82.2562 65.0779L136.549 65.0777C141.63 65.0755 147.911 64.7297 152.817 65.5099C165.571 67.538 175.824 77.6124 177.559 90.4985C178.293 95.9544 178.106 100.264 171.765 101.179C166.533 101.323 160.618 101.206 155.34 101.202L110.162 101.204C105.504 101.208 100.198 101.449 95.6891 100.479C90.3951 99.3257 85.5146 96.7546 81.5697 93.0406C75.9254 87.7768 72.5041 80.2934 72.1459 72.5599C72.0387 70.2426 72.301 68.7709 73.9282 67.0234C75.1326 65.7298 76.7311 65.2093 78.4743 65.1515Z" fill="#262628"/>
<path d="M119.343 149.077C120.742 148.956 123.216 149.029 124.677 149.031L134.133 149.041L143.99 149.035C146.334 149.032 149.226 148.962 151.515 149.218C156.378 149.76 161.434 151.766 165.391 154.615C171.925 159.3 176.291 166.426 177.498 174.376C178.249 179.08 178.157 184.012 172.315 184.894C169.455 185.063 166.898 184.986 164.053 184.957L156.13 184.943C153.537 184.93 150.944 184.936 148.35 184.96C141.035 185.041 136.59 184.895 129.877 181.542C121.363 177.288 116.007 169.575 114.312 160.249C113.456 155.539 113.31 150.077 119.343 149.077Z" fill="#262628"/>
<path d="M100.562 111.231C101.335 111.141 103.049 111.174 103.849 111.175L109.697 111.182L160.724 111.184L168.085 111.171C169.386 111.168 171.001 111.108 172.28 111.282C172.919 111.369 173.377 112.142 173.692 112.664C174.147 118.169 171.454 125.34 167.903 129.518C162.949 135.345 157.265 138.169 149.781 138.939C143.864 139.144 137.48 139.019 131.526 139.017L85.8415 139.019C83.7515 139.019 79.0139 139.173 77.1904 138.716C76.7045 138.242 76.3321 137.423 76.341 136.735C76.52 122.861 86.9591 112.262 100.562 111.231Z" fill="#FEFEFE"/>
<path d="M78.0391 69.3902C81.7816 69.1804 87.2072 69.351 91.0425 69.3523L137.865 69.3522C144.227 69.352 152.648 68.7851 158.484 71.4006C164.739 74.2024 169.617 79.3842 172.036 85.7965C173.101 88.6183 173.803 92.1016 173.697 95.1717C173.668 96.055 172.983 96.6369 172.176 96.9212C169.654 97.1302 165.133 96.9947 162.484 96.9944L116.43 96.9962C111.504 96.9962 106.523 97.0343 101.603 96.9642C94.6579 96.8652 88.0077 93.8758 83.2502 88.7671C78.6109 83.8186 76.1368 77.2242 76.3762 70.4453C77.0156 69.8222 77.2412 69.6674 78.0391 69.3902Z" fill="#FEFEFE"/>
<path d="M119.48 153.234C127.733 153.078 136.048 153.308 144.307 153.206C146.841 153.175 149.483 153.13 151.986 153.515C154.727 153.944 157.379 154.821 159.834 156.112C165.889 159.26 170.445 164.684 172.502 171.19C173.179 173.333 174.326 178.314 173.298 180.3L172.178 180.731C169.873 180.988 164.874 180.846 162.421 180.845L145.535 180.843C142.998 180.822 139.272 180.633 136.808 180.023C132.787 179.027 128.253 176.267 125.404 173.281C120.383 168.021 117.988 161.791 118.078 154.584C118.555 153.862 118.716 153.619 119.48 153.234Z" fill="#FEFEFE"/>
</svg>
