<svg width="250" height="250" viewBox="0 0 250 250" fill="none" xmlns="http://www.w3.org/2000/svg">
<mask id="path-1-inside-1_453_71" fill="white">
<path d="M0 125C0 55.9644 55.9644 0 125 0C194.036 0 250 55.9644 250 125C250 194.036 194.036 250 125 250C55.9644 250 0 194.036 0 125Z"/>
</mask>
<path d="M0 125C0 55.9644 55.9644 0 125 0C194.036 0 250 55.9644 250 125C250 194.036 194.036 250 125 250C55.9644 250 0 194.036 0 125Z" fill="white"/>
<path d="M0 125M250 125M250 125M0 125M125 0M250 125M125 250M0 125M125 250V248C57.069 248 2 192.931 2 125H0H-2C-2 195.14 54.8598 252 125 252V250ZM250 125H248C248 192.931 192.931 248 125 248V250V252C195.14 252 252 195.14 252 125H250ZM125 0V2C192.931 2 248 57.069 248 125H250H252C252 54.8598 195.14 -2 125 -2V0ZM125 0V-2C54.8598 -2 -2 54.8598 -2 125H0H2C2 57.069 57.069 2 125 2V0Z" fill="#DDDBDB" mask="url(#path-1-inside-1_453_71)"/>
<path d="M153.106 185.152H118.891V150.877C118.891 128.256 137.744 109.748 160.787 109.748H195.001V144.022C195.001 166.644 176.148 185.152 153.106 185.152Z" fill="#6E94E8"/>
<path d="M141.585 161.846H86.4227C68.9662 161.846 55.001 148.135 55.001 130.998V95.6954C55.001 78.558 68.9662 64.8481 86.4227 64.8481H141.934C159.391 64.8481 173.356 78.558 173.356 95.6954V131.341C173.007 148.135 159.042 161.846 141.585 161.846Z" fill="#034EA2"/>
<path d="M145.078 142.309C148.741 142.309 151.711 139.394 151.711 135.797C151.711 132.201 148.741 129.285 145.078 129.285C141.414 129.285 138.444 132.201 138.444 135.797C138.444 139.394 141.414 142.309 145.078 142.309Z" fill="white"/>
</svg>
