<svg width="250" height="250" viewBox="0 0 250 250" fill="none" xmlns="http://www.w3.org/2000/svg">
<path d="M0 125C0 55.9644 55.9644 0 125 0C194.036 0 250 55.9644 250 125C250 194.036 194.036 250 125 250C55.9644 250 0 194.036 0 125Z" fill="white"/>
<path d="M153.106 185.151H118.891V150.875C118.891 128.255 137.744 109.746 160.787 109.746H195.002V144.021C195.002 166.642 176.149 185.151 153.106 185.151Z" fill="#6E94E8"/>
<path d="M141.586 161.845H86.4232C68.9667 161.845 55.0015 148.135 55.0015 130.998V95.6949C55.0015 78.5575 68.9667 64.8477 86.4232 64.8477H141.935C159.391 64.8477 173.357 78.5575 173.357 95.6949V131.341C173.007 148.135 159.042 161.845 141.586 161.845Z" fill="#034EA2"/>
<path d="M145.079 142.31C148.742 142.31 151.712 139.394 151.712 135.797C151.712 132.201 148.742 129.285 145.079 129.285C141.415 129.285 138.445 132.201 138.445 135.797C138.445 139.394 141.415 142.31 145.079 142.31Z" fill="white"/>
</svg>
