<svg width="250" height="250" viewBox="0 0 250 250" fill="none" xmlns="http://www.w3.org/2000/svg">
<path d="M0 125C0 55.9644 55.9644 0 125 0C194.036 0 250 55.9644 250 125C250 194.036 194.036 250 125 250C55.9644 250 0 194.036 0 125Z" fill="#38B4C5"/>
<path d="M67.3699 74.1561C65.0906 70.8778 62.806 67.6049 60.1665 63.8145C64.7197 64.3159 68.687 64.7257 72.6434 65.1894C87.4749 66.931 102.312 68.6779 117.138 70.468C118.503 70.6352 120.009 70.4842 121.159 71.5356C121.637 72.8566 121.481 74.1453 121.127 75.4878C117.52 89.0861 114.455 102.819 111.015 116.461C110.8 117.313 110.397 118.175 110.902 119.216C111.698 120.165 113.015 120.219 114.197 120.51C129.728 124.338 145.194 128.436 160.708 132.35C162.165 132.717 163.74 132.927 164.379 134.664C164.116 136.141 163.1 136.966 161.89 137.629C147.704 145.42 133.776 153.702 119.036 160.448C117.778 161.035 116.514 161.623 115.256 162.211C113.762 162.119 113.423 160.976 113.144 159.827C111.09 151.292 109.289 142.697 107.22 134.168C106.704 132.043 107.026 129.881 106.956 127.74C99.7207 117.97 92.4689 108.2 85.2225 98.4302C78.9545 91.9546 73.9497 84.4815 68.6009 77.2833C67.9075 76.3452 67.1764 75.4393 67.3699 74.1561Z" fill="#E6E7E8"/>
<path d="M119.047 160.447C122.622 157.568 126.847 155.794 130.793 153.556C141.136 147.685 151.575 141.991 161.967 136.205C162.638 135.833 163.224 135.31 164.337 134.496C145.581 129.73 127.374 125.098 109.021 120.429C109.306 117.231 110.279 114.449 110.978 111.618C114.182 98.6563 117.418 85.705 120.654 72.7537C120.762 72.3332 120.993 71.9395 121.165 71.5352C124.831 75.7031 127.648 80.4857 130.836 84.9987C135.9 92.1644 140.835 99.4165 145.839 106.625C146.345 107.353 146.963 108.006 147.527 108.696C148.651 109.235 149.699 109.801 150.452 110.912C154.817 117.361 159.311 123.723 163.757 130.118C164.601 131.331 165.122 132.614 165.208 134.086C164.461 136.836 163.708 139.586 162.95 142.374C152.371 146.811 141.948 151.243 131.47 155.546C127.353 157.239 123.396 159.358 119.047 160.447Z" fill="#BDBFC1"/>
<path d="M106.967 127.74C109.386 138.222 111.81 148.704 114.213 159.186C114.455 160.237 114.638 161.299 115.267 162.21C114.132 165.251 115.224 168.449 114.546 171.878C105.816 178.537 96.8657 185.363 87.9206 192.184C87.6679 192.065 87.4206 191.941 87.168 191.823C93.7693 170.465 100.371 149.103 106.967 127.74Z" fill="#BDBFC1"/>
<path d="M165.202 134.086C159.31 125.621 153.419 117.156 147.521 108.696C154.671 107.623 161.826 106.539 168.981 105.482C171.895 105.051 174.814 104.684 177.883 104.264C181.808 108.593 185.694 112.885 190 117.641C183.754 117.641 178.082 117.641 172.336 117.641C169.895 123.275 167.546 128.683 165.202 134.086Z" fill="#E6E7E8"/>
<path d="M67.3701 74.1562C71.262 78.2325 74.1649 83.069 77.5408 87.5389C80.2179 91.0813 83.0885 94.4998 85.2173 98.4304C79.6911 94.0145 74.8154 88.8814 69.5848 84.142C66.5529 81.3921 63.5963 78.5506 60 75.1861C62.9244 74.7763 65.1445 74.469 67.3701 74.1562Z" fill="#BCBFC1"/>
</svg>
