<svg width="250" height="250" viewBox="0 0 250 250" fill="none" xmlns="http://www.w3.org/2000/svg">
<path d="M0 125C0 55.9644 55.9644 0 125 0C194.036 0 250 55.9644 250 125C250 194.036 194.036 250 125 250C55.9644 250 0 194.036 0 125Z" fill="#38B4C5"/>
<path d="M67.3704 74.1561C65.0911 70.8778 62.8064 67.6049 60.167 63.8145C64.7202 64.3159 68.6874 64.7257 72.6439 65.1894C87.4754 66.931 102.312 68.6779 117.138 70.468C118.504 70.6352 120.009 70.4842 121.159 71.5356C121.638 72.8566 121.482 74.1453 121.127 75.4878C117.52 89.0861 114.456 102.819 111.016 116.461C110.8 117.313 110.397 118.175 110.903 119.216C111.698 120.165 113.015 120.219 114.198 120.51C129.728 124.338 145.194 128.436 160.708 132.35C162.165 132.717 163.74 132.927 164.38 134.664C164.116 136.141 163.1 136.966 161.891 137.629C147.705 145.42 133.776 153.702 119.036 160.448C117.778 161.035 116.515 161.623 115.257 162.211C113.762 162.119 113.424 160.976 113.144 159.827C111.091 151.292 109.29 142.697 107.22 134.168C106.704 132.043 107.027 129.881 106.957 127.74C99.7212 117.97 92.4694 108.2 85.223 98.4302C78.955 91.9546 73.9502 84.4815 68.6014 77.2833C67.908 76.3452 67.1769 75.4393 67.3704 74.1561Z" fill="#E6E7E8"/>
<path d="M119.047 160.448C122.622 157.568 126.847 155.794 130.793 153.557C141.136 147.685 151.575 141.991 161.967 136.206C162.638 135.834 163.224 135.311 164.337 134.496C145.581 129.73 127.374 125.098 109.021 120.429C109.306 117.232 110.279 114.45 110.978 111.619C114.182 98.6567 117.418 85.7055 120.654 72.7542C120.762 72.3336 120.993 71.94 121.165 71.5356C124.831 75.7036 127.648 80.4861 130.836 84.9991C135.9 92.1649 140.835 99.417 145.839 106.626C146.345 107.354 146.963 108.006 147.527 108.696C148.651 109.236 149.699 109.802 150.452 110.912C154.817 117.361 159.311 123.724 163.757 130.118C164.601 131.331 165.122 132.615 165.208 134.087C164.461 136.837 163.708 139.586 162.95 142.374C152.371 146.812 141.948 151.244 131.47 155.546C127.353 157.239 123.396 159.358 119.047 160.448Z" fill="#BDBFC1"/>
<path d="M106.967 127.74C109.386 138.222 111.81 148.704 114.213 159.186C114.455 160.237 114.638 161.299 115.267 162.21C114.132 165.251 115.224 168.449 114.546 171.878C105.816 178.537 96.8657 185.363 87.9206 192.184C87.6679 192.065 87.4206 191.941 87.168 191.823C93.7693 170.465 100.371 149.103 106.967 127.74Z" fill="#BDBFC1"/>
<path d="M165.202 134.087C159.31 125.621 153.419 117.156 147.521 108.696C154.671 107.623 161.826 106.54 168.981 105.483C171.895 105.051 174.814 104.685 177.883 104.264C181.808 108.594 185.694 112.886 190 117.641C183.754 117.641 178.082 117.641 172.336 117.641C169.895 123.276 167.546 128.684 165.202 134.087Z" fill="#E6E7E8"/>
<path d="M67.3701 74.1558C71.262 78.232 74.1649 83.0685 77.5408 87.5384C80.2179 91.0808 83.0885 94.4993 85.2173 98.43C79.6911 94.014 74.8154 88.881 69.5848 84.1415C66.5529 81.3917 63.5963 78.5501 60 75.1856C62.9244 74.7758 65.1445 74.4685 67.3701 74.1558Z" fill="#BCBFC1"/>
</svg>
