<svg width="250" height="250" viewBox="0 0 250 250" fill="none" xmlns="http://www.w3.org/2000/svg">
<path d="M0 125C0 55.9644 55.9644 0 125 0C194.036 0 250 55.9644 250 125C250 194.036 194.036 250 125 250C55.9644 250 0 194.036 0 125Z" fill="#038682"/>
<path d="M105.252 109.877L107.268 109.746C108.158 110.446 110.302 111.753 111.311 112.411L119.876 117.974C128.229 123.43 136.547 128.94 144.828 134.505C148.005 136.671 151.415 138.53 154.366 141.099C156.306 142.788 157.28 144.47 158.465 146.596C160.865 150.898 160.676 160.929 158.856 165.326C153.807 177.523 130.993 190.107 119.713 195.344C117.911 195.061 116.091 194.977 114.265 194.626C111.749 190.711 108.819 186.566 106.191 182.686L92.0218 161.57C92.3242 160.204 92.7814 158.643 93.1509 157.273C94.0028 154.118 94.8743 150.968 95.7653 147.823C96.3132 145.889 97.3346 142.117 98.2364 140.432C98.7991 139.386 99.588 138.478 100.545 137.774C102.291 136.51 104.391 136.186 106.5 136.464C110.343 136.969 112.403 142.974 111.699 146.293C110.705 150.981 109.489 155.632 108.63 160.387C109.717 162.084 111.119 163.862 112.282 165.541C115.455 170.123 119.014 174.685 122.13 179.282C123.25 178.343 125.493 176.936 126.8 176.043C130.295 173.648 133.757 171.203 137.184 168.711C138.885 167.473 140.753 166.131 142.368 164.803C145.758 162.014 144.56 155.023 143.274 151.472C142.415 150.648 140.071 149.143 139.02 148.434C136.527 146.725 134.02 145.034 131.502 143.361C128.788 141.53 126.103 139.677 123.377 137.861C121.807 136.815 119.939 135.819 118.428 134.777C111.598 130.069 104.56 125.544 97.7376 120.842C97.2316 117.624 96.8229 113.856 96.4376 110.593C98.8532 110.533 102.721 110.081 105.252 109.877Z" fill="#FEFEFE"/>
<path d="M132.111 54.6673C132.671 54.5617 136.528 55.1303 137.384 55.2268C143.46 66.9867 149.147 79.1584 155.253 90.8886C153.981 95.3851 152.736 99.8894 151.52 104.401C150.943 106.551 149.452 113.318 148.524 114.825C147.281 116.847 144.662 118.566 142.394 119.102L142.292 119.073C135.304 117.064 136.051 111.307 137.356 105.48C138.361 100.993 139.692 96.5838 140.993 92.1756C138.623 87.17 136.191 82.1565 133.675 77.2239C133.085 76.0661 131.404 72.2436 130.82 71.3732C130.454 71.272 130.492 71.347 130.076 71.5647C125.737 73.4596 121.265 75.8322 116.906 77.7624C115.151 78.5393 113.274 79.5599 111.501 80.2162C110.947 81.5391 110.237 83.9916 109.781 85.4366L106.862 94.7416C106.305 96.5353 105.71 98.8383 104.858 100.473C103.185 103.682 99.7687 107.587 95.711 106.578C92.9531 105.892 91.1373 103.217 89.7559 100.953C90.1021 99.492 91.1155 96.6657 91.6031 95.1586C92.9863 90.8375 94.4037 86.5274 95.8549 82.2287C96.5584 80.0834 97.2483 77.9337 97.9245 75.7796C98.3355 74.4821 98.9159 72.395 99.5341 71.2841C100.721 70.5166 102.438 69.6935 103.736 69.0353L110.836 65.4794C117.955 61.9305 125.047 58.3264 132.111 54.6673Z" fill="#FEFEFE"/>
</svg>
