<svg width="250" height="250" viewBox="0 0 250 250" fill="none" xmlns="http://www.w3.org/2000/svg">
<mask id="path-1-inside-1_453_57" fill="white">
<path d="M0 125C0 55.9644 55.9644 0 125 0C194.036 0 250 55.9644 250 125C250 194.036 194.036 250 125 250C55.9644 250 0 194.036 0 125Z"/>
</mask>
<path d="M0 125C0 55.9644 55.9644 0 125 0C194.036 0 250 55.9644 250 125C250 194.036 194.036 250 125 250C55.9644 250 0 194.036 0 125Z" fill="white"/>
<path d="M0 125M250 125M250 125M0 125M125 0M250 125M125 250M0 125M125 250V248C57.069 248 2 192.931 2 125H0H-2C-2 195.14 54.8598 252 125 252V250ZM250 125H248C248 192.931 192.931 248 125 248V250V252C195.14 252 252 195.14 252 125H250ZM125 0V2C192.931 2 248 57.069 248 125H250H252C252 54.8598 195.14 -2 125 -2V0ZM125 0V-2C54.8598 -2 -2 54.8598 -2 125H0H2C2 57.069 57.069 2 125 2V0Z" fill="#DDDBDB" mask="url(#path-1-inside-1_453_57)"/>
<path d="M122.566 56.7863C122.798 57.0612 122.555 60.1284 122.539 60.7238C121.74 91.0646 145.679 115.668 143.652 146.151C143.517 148.177 142.966 150.488 142.56 152.497C140.143 164.48 135.461 175.459 129.536 186.129C127.244 190.299 124.746 194.35 122.05 198.27C121.711 198.738 121.27 199.489 120.943 200C120.74 199.786 121.375 198.714 121.466 198.398C121.809 197.205 122.213 196.033 122.591 194.848C126.384 182.958 127.371 170.448 125.34 158.126C124.299 151.979 122.392 145.585 120.303 139.712C115.335 125.74 108.3 112.082 107.718 96.9695C107.279 85.0609 111.659 73.2941 117.986 63.3822C118.958 61.8591 121.406 58.0406 122.566 56.7863Z" fill="#516045"/>
<path d="M96.5092 143.551C106.888 142.576 116.098 150.183 117.101 160.559C118.105 170.935 110.524 180.166 100.151 181.199C89.7366 182.236 80.4601 174.618 79.4525 164.2C78.4449 153.784 86.0892 144.528 96.5092 143.551Z" fill="#67853C"/>
<path d="M148.901 50C149.147 50.2702 153.556 64.2416 153.923 65.6864L164.885 65.6646C166.442 65.6624 169.164 65.7364 170.637 65.5688C167.077 67.9045 163.707 70.7026 160.172 73.0958C159.197 73.7559 158.048 74.5631 157.154 75.3117C158.372 78.7685 159.398 82.5778 160.649 86.06C161.224 87.6589 161.669 89.5772 162.364 91.1268C158.118 87.811 153.278 84.6072 148.927 81.2499C148.519 81.6464 145.907 83.4605 145.259 83.9503C142.073 86.3563 138.708 88.6492 135.51 91.0385C135.902 90.1439 136.445 88.1722 136.773 87.144L138.971 80.4443C139.495 78.8238 140.07 76.837 140.733 75.2938C137.408 73.1344 134.202 70.5338 130.94 68.2567C129.784 67.4494 128.349 66.2956 127.156 65.5977C132.702 65.6649 138.249 65.6896 143.796 65.6717C145.435 60.4274 147.136 55.2031 148.901 50Z" fill="#67853C"/>
</svg>
