<svg width="250" height="250" viewBox="0 0 250 250" fill="none" xmlns="http://www.w3.org/2000/svg">
<path d="M0 125C0 55.9644 55.9644 0 125 0C194.036 0 250 55.9644 250 125C250 194.036 194.036 250 125 250C55.9644 250 0 194.036 0 125Z" fill="black"/>
<path fill-rule="evenodd" clip-rule="evenodd" d="M120.921 95.0691C111.065 104.824 101.212 114.577 91.3589 124.332C88.2329 121.187 84.9931 117.937 81.9273 114.862L81.3398 114.273C101.091 94.6309 120.961 74.8699 140.94 55C144.038 58.1186 147.583 61.6926 151.077 65.2171C141.021 75.1736 130.97 85.1226 120.921 95.0691ZM164.284 131.745C165.701 133.13 167.16 134.556 168.66 136.024C156.357 148.236 144.161 160.338 132.073 172.332C124.415 179.93 116.8 187.486 109.229 195C107.581 193.367 105.88 191.685 104.177 190.002C102.462 188.307 100.745 186.61 99.0812 184.961L101.717 182.329C120.397 163.677 139.336 144.767 158.275 125.866C160.178 127.734 162.184 129.694 164.284 131.745ZM141.474 125.282C135.881 130.747 130.059 136.44 124.218 142.152C122.398 140.339 120.531 138.478 118.652 136.604C115.072 133.035 111.446 129.42 108.011 126.005C110.472 123.569 112.932 121.133 115.362 118.726C118.718 115.401 122.018 112.132 125.188 108.996L141.474 125.282ZM150.731 105.392C150.731 108.521 148.058 111.174 144.038 111.303C141.256 111.016 138.999 109.382 138.88 105.6C138.781 101.908 140.593 99.7988 144.325 99.5711C147.909 99.3533 150.741 101.987 150.731 105.392Z" fill="url(#paint0_linear_453_149)"/>
<defs>
<linearGradient id="paint0_linear_453_149" x1="154.255" y1="62.451" x2="52.4927" y2="160.569" gradientUnits="userSpaceOnUse">
<stop stop-color="#00C8FF"/>
<stop offset="1" stop-color="#00FAFF"/>
</linearGradient>
</defs>
</svg>
