<svg width="250" height="250" viewBox="0 0 250 250" fill="none" xmlns="http://www.w3.org/2000/svg">
<mask id="path-1-inside-1_453_243" fill="white">
<path d="M0 125C0 55.9644 55.9644 0 125 0C194.036 0 250 55.9644 250 125C250 194.036 194.036 250 125 250C55.9644 250 0 194.036 0 125Z"/>
</mask>
<path d="M0 125C0 55.9644 55.9644 0 125 0C194.036 0 250 55.9644 250 125C250 194.036 194.036 250 125 250C55.9644 250 0 194.036 0 125Z" fill="white"/>
<path d="M0 125M250 125M250 125M0 125M125 0M250 125M125 250M0 125M125 250V248C57.069 248 2 192.931 2 125H0H-2C-2 195.14 54.8598 252 125 252V250ZM250 125H248C248 192.931 192.931 248 125 248V250V252C195.14 252 252 195.14 252 125H250ZM125 0V2C192.931 2 248 57.069 248 125H250H252C252 54.8598 195.14 -2 125 -2V0ZM125 0V-2C54.8598 -2 -2 54.8598 -2 125H0H2C2 57.069 57.069 2 125 2V0Z" fill="#DDDBDB" mask="url(#path-1-inside-1_453_243)"/>
<path d="M55.0371 124.412L71.5798 117.128C73.561 116.258 78.0152 114.436 79.6898 113.445C83.4636 121.482 89.8507 125.623 97.4172 129.545C98.4996 130.106 105.783 130.011 107.511 130.04C115.588 130.178 123.665 130.359 131.74 130.585L141.948 130.852C143.669 130.897 146.213 130.892 147.882 131.05C148.529 131.116 149.164 131.274 149.768 131.518C152.645 132.685 155.348 136.219 156.641 138.92C159.083 144.218 159.219 151.864 157.274 157.3C156.051 160.718 152.849 164.988 149.513 166.432C147.772 167.185 141.658 166.916 139.372 166.925C133.171 166.961 126.97 166.959 120.768 166.921C109.449 166.88 98.0893 167.014 86.7633 166.901C84.6725 166.88 82.4188 166.411 80.1826 166.325C77.263 166.213 73.5768 166.499 70.757 166.266C69.706 165.453 68.5294 163.759 67.7132 162.671C62.3255 155.357 58.3448 147.106 55.974 138.337C55.6356 137.031 55.3684 135.707 55.1734 134.372C55.0311 133.398 54.8389 131.253 54.5117 130.447V124.831C55.2093 124.021 54.8392 121.98 55.0023 120.774L55.0371 124.412Z" fill="#FEDB6F"/>
<path d="M55.002 120.775C55.0156 118.484 55.1785 116.196 55.4896 113.926C58.1778 94.1014 68.6086 79.6117 84.3472 67.629C92.1461 61.6913 102.419 56.6431 112.236 55.2387C115.542 54.9041 119.012 55.0216 122.334 55.0139C136.764 54.9805 158.031 57.3719 167.348 69.6476C163.688 69.5468 159.638 69.6262 155.933 69.6049L125.384 69.5833L111.58 69.5201C106.927 69.5079 102.677 69.2098 98.1414 70.3474C80.6311 74.7391 72.8142 94.7203 78.7087 110.911C78.9626 111.608 79.5457 112.793 79.6895 113.446C78.0148 114.436 73.5607 116.258 71.5795 117.129L55.0367 124.413L55.002 120.775Z" fill="#ED2329"/>
<path d="M169.15 137.25C166.968 132.605 165.757 129.415 161.822 125.527C160.181 124.081 154.224 118.877 152.316 118.391C149.3 117.622 141.023 117.634 137.846 117.572L104.896 117.188C100.219 117.111 97.1637 116.223 93.885 112.769C87.1041 105.65 87.248 92.5773 94.4955 85.8067C99.1527 81.456 102.115 81.8493 108.001 81.7888C112.603 81.7359 117.206 81.7139 121.809 81.7229C135.628 81.7172 149.462 81.719 163.282 81.7719C165.267 81.7795 167.334 82.3493 169.053 82.3763C172.664 82.4328 176.256 82.4307 179.876 82.5134C182.503 85.6474 184.772 89.1051 186.868 92.6039C193.071 102.961 196.35 113.697 195.294 125.869C193.527 126.346 191.173 127.361 189.483 128.123C183.273 130.923 177.054 133.683 170.803 136.39C170.241 136.633 169.668 136.926 169.15 137.25Z" fill="#0098DA"/>
<path d="M169.149 137.25C169.667 136.926 170.241 136.634 170.802 136.39C177.053 133.684 183.273 130.923 189.483 128.123C191.172 127.362 193.527 126.347 195.294 125.87C195.306 128.603 195.334 131.407 195.09 134.123C193.71 149.442 186.808 162.819 175.982 173.665C164.713 185.029 148.948 195.213 132.391 194.997C127.922 194.939 122.586 195.126 118.157 194.713C107.32 193.702 89.0571 190.095 83.0137 180.188C96.3073 180.271 109.601 180.27 122.895 180.187L135.904 180.235C140.036 180.254 144.49 180.448 148.525 179.594C153.328 178.554 157.746 176.198 161.285 172.79C167.899 166.327 170.574 159.486 170.721 150.296C170.793 145.828 170.451 141.587 169.149 137.25Z" fill="#009B3C"/>
</svg>
