<svg width="250" height="250" viewBox="0 0 250 250" fill="none" xmlns="http://www.w3.org/2000/svg">
<mask id="path-1-inside-1_453_145" fill="white">
<path d="M0 125C0 55.9644 55.9644 0 125 0C194.036 0 250 55.9644 250 125C250 194.036 194.036 250 125 250C55.9644 250 0 194.036 0 125Z"/>
</mask>
<path d="M0 125C0 55.9644 55.9644 0 125 0C194.036 0 250 55.9644 250 125C250 194.036 194.036 250 125 250C55.9644 250 0 194.036 0 125Z" fill="white"/>
<path d="M0 125M250 125M250 125M0 125M125 0M250 125M125 250M0 125M125 250V248C57.069 248 2 192.931 2 125H0H-2C-2 195.14 54.8598 252 125 252V250ZM250 125H248C248 192.931 192.931 248 125 248V250V252C195.14 252 252 195.14 252 125H250ZM125 0V2C192.931 2 248 57.069 248 125H250H252C252 54.8598 195.14 -2 125 -2V0ZM125 0V-2C54.8598 -2 -2 54.8598 -2 125H0H2C2 57.069 57.069 2 125 2V0Z" fill="#DDDBDB" mask="url(#path-1-inside-1_453_145)"/>
<path fill-rule="evenodd" clip-rule="evenodd" d="M114.402 57.9787C102.84 64.2194 83.6877 71.7112 68.9205 72.5632C65.5216 97.5913 73.9416 129.082 78.5764 141.699C108.239 129.031 136.512 126.121 146.94 126.25C121.41 133.293 98.0398 148.557 88.1443 156.361C87.2828 157.04 87.0526 158.236 87.5829 159.196C99.0798 180.022 114.386 188.978 124.925 195C167.838 173.92 182.869 124.589 181.816 98.4997C181.764 97.2076 181.165 96.005 179.93 95.6209C171.523 93.0054 139.661 94.0277 123.38 94.9648C128.324 88.476 163.806 82.219 180.929 79.9016V71.4045C163.558 70.2065 145.956 62.5061 133.163 56.5867C127.24 53.8461 120.145 54.8789 114.402 57.9787ZM92.0947 72.5631L89.7773 84.1502L79.7352 86.4676L89.3911 89.1712L91.7085 100.372L93.6397 89.1712L103.296 86.8538L93.6397 84.1502L92.0947 72.5631ZM82.4204 99.5973L81.3937 105.017L76.7175 106.146L81.2373 107.362L82.3721 112.579L83.2203 107.342L87.7163 106.215L83.1965 104.998L82.4204 99.5973ZM101.546 99.8387L102.17 96.5421L102.642 99.8274L105.392 100.567L102.657 101.253L102.141 104.439L101.45 101.266L98.701 100.526L101.546 99.8387Z" fill="#F0B929"/>
</svg>
