<svg width="250" height="250" viewBox="0 0 250 250" fill="none" xmlns="http://www.w3.org/2000/svg">
<path d="M0 125C0 55.9644 55.9644 0 125 0C194.036 0 250 55.9644 250 125C250 194.036 194.036 250 125 250C55.9644 250 0 194.036 0 125Z" fill="white"/>
<path d="M130.742 55L78.8151 106.927C65.6186 120.123 65.6186 141.519 78.8151 154.715L79.744 155.644C86.135 162.035 96.4973 162.035 102.888 155.644L125.576 132.956L124.647 132.028C118.256 125.637 107.896 125.637 101.505 132.027L130.742 102.789C143.939 89.5928 143.939 68.1966 130.742 55Z" fill="#061870"/>
<path d="M171.182 95.2846L170.253 94.3558C163.862 87.9648 153.5 87.9648 147.109 94.3558L123.799 117.665L124.728 118.594C131.119 124.985 141.48 124.985 147.871 118.595L119.255 147.212C106.059 160.408 106.059 181.803 119.255 195L171.182 143.073C184.379 129.877 184.379 108.481 171.182 95.2846Z" fill="#F9AE0C"/>
</svg>
