<svg width="250" height="250" viewBox="0 0 250 250" fill="none" xmlns="http://www.w3.org/2000/svg">
<mask id="path-1-inside-1_453_386" fill="white">
<path d="M0 125C0 55.9644 55.9644 0 125 0C194.036 0 250 55.9644 250 125C250 194.036 194.036 250 125 250C55.9644 250 0 194.036 0 125Z"/>
</mask>
<path d="M0 125C0 55.9644 55.9644 0 125 0C194.036 0 250 55.9644 250 125C250 194.036 194.036 250 125 250C55.9644 250 0 194.036 0 125Z" fill="white"/>
<path d="M0 125M250 125M250 125M0 125M125 0M250 125M125 250M0 125M125 250V248C57.069 248 2 192.931 2 125H0H-2C-2 195.14 54.8598 252 125 252V250ZM250 125H248C248 192.931 192.931 248 125 248V250V252C195.14 252 252 195.14 252 125H250ZM125 0V2C192.931 2 248 57.069 248 125H250H252C252 54.8598 195.14 -2 125 -2V0ZM125 0V-2C54.8598 -2 -2 54.8598 -2 125H0H2C2 57.069 57.069 2 125 2V0Z" fill="#DDDBDB" mask="url(#path-1-inside-1_453_386)"/>
<path d="M130.742 55L78.8154 106.927C65.6188 120.123 65.6188 141.519 78.8154 154.715L79.7442 155.644C86.1352 162.035 96.4976 162.035 102.889 155.644L125.576 132.956L124.648 132.028C118.257 125.637 107.896 125.637 101.505 132.027L130.742 102.789C143.939 89.5928 143.939 68.1966 130.742 55Z" fill="#061870"/>
<path d="M171.182 95.2846L170.254 94.3558C163.863 87.9648 153.5 87.9648 147.109 94.3558L123.8 117.665L124.728 118.594C131.119 124.985 141.481 124.985 147.872 118.595L119.255 147.212C106.059 160.408 106.059 181.803 119.255 195L171.182 143.073C184.379 129.877 184.379 108.481 171.182 95.2846Z" fill="#F9AE0C"/>
</svg>
