<svg width="250" height="250" viewBox="0 0 250 250" fill="none" xmlns="http://www.w3.org/2000/svg">
<mask id="path-1-inside-1_453_56" fill="white">
<path d="M0 125C0 55.9644 55.9644 0 125 0C194.036 0 250 55.9644 250 125C250 194.036 194.036 250 125 250C55.9644 250 0 194.036 0 125Z"/>
</mask>
<path d="M0 125C0 55.9644 55.9644 0 125 0C194.036 0 250 55.9644 250 125C250 194.036 194.036 250 125 250C55.9644 250 0 194.036 0 125Z" fill="white"/>
<path d="M0 125M250 125M250 125M0 125M125 0M250 125M125 250M0 125M125 250V248C57.069 248 2 192.931 2 125H0H-2C-2 195.14 54.8598 252 125 252V250ZM250 125H248C248 192.931 192.931 248 125 248V250V252C195.14 252 252 195.14 252 125H250ZM125 0V2C192.931 2 248 57.069 248 125H250H252C252 54.8598 195.14 -2 125 -2V0ZM125 0V-2C54.8598 -2 -2 54.8598 -2 125H0H2C2 57.069 57.069 2 125 2V0Z" fill="#DDDBDB" mask="url(#path-1-inside-1_453_56)"/>
<path d="M91.2628 55.222C93.9949 54.8233 98.8044 55.0817 101.64 55.0894L119.309 55.0975L144.518 55.0835C150.335 55.0772 157.097 54.7449 162.728 55.7762C175.907 58.1897 187.976 70.8381 188.968 84.3496C189.335 89.3551 189.187 94.7006 189.186 99.7142L189.183 126.839L189.187 151.383C189.193 155.837 189.419 163.346 188.695 167.49C187.688 173.056 185.266 178.27 181.663 182.63C175.675 189.886 168.183 193.896 158.849 194.786C157.355 195.145 151.796 194.944 150.107 194.937L134.824 194.923L106.438 194.938C100.456 194.944 93.4242 195.283 87.6238 194.312C74.1048 192.048 62.3278 179.203 61.0494 165.586C60.625 161.065 60.8277 155.669 60.8279 151.045L60.8304 125.796L60.8277 99.4783C60.8132 87.8855 59.7259 77.5648 67.8178 68.0173C74.4529 60.1884 81.0088 56.2868 91.2628 55.222Z" fill="#E41F24"/>
<path d="M124.82 110.379C141.788 109.017 165.928 116.431 174.34 132.378C178.958 141.135 179.199 150.734 176.294 160.108C173.361 169.569 165.785 175.764 157.117 180.074C139.932 188.192 118.398 188.471 100.545 182.38C90.913 179.095 79.6361 172.098 75.1179 162.692C71.9063 155.5 71.3675 152.563 71.3955 144.699C79.25 146.233 88.4163 147.429 96.3792 148.318C113.564 150.29 130.852 151.212 148.149 151.077C149.597 151.068 156.295 151.129 157.142 150.735L157.238 150.328C156.655 148.557 151.826 146.641 150.118 145.84C134.51 138.52 117.587 134.381 100.894 130.349C97.916 129.629 91.8857 127.84 89.0039 127.72C98.0305 117.325 111.193 111.399 124.82 110.379Z" fill="white"/>
<path d="M121.291 64.6812C121.757 64.6257 122.323 64.6308 122.79 64.6105C142.313 63.7643 166.832 69.2273 171.452 91.5368C172.108 94.7031 172.359 97.4971 172.482 100.753L138.539 102.579C138.391 96.7878 137.183 82.8494 133.545 78.4846C130.221 85.2434 128.337 88.915 123.775 95.0064C114.91 106.366 103.967 113.956 90.7153 119.217C88.4523 120.116 85.1723 121.036 83.1231 122.149C78.2491 114.922 75.8147 109.154 75.1208 100.428C73.0071 73.8488 99.4974 66.2394 121.291 64.6812Z" fill="white"/>
</svg>
