<svg width="250" height="250" viewBox="0 0 250 250" fill="none" xmlns="http://www.w3.org/2000/svg">
<mask id="path-1-inside-1_453_55" fill="white">
<path d="M0 125C0 55.9644 55.9644 0 125 0C194.036 0 250 55.9644 250 125C250 194.036 194.036 250 125 250C55.9644 250 0 194.036 0 125Z"/>
</mask>
<path d="M0 125C0 55.9644 55.9644 0 125 0C194.036 0 250 55.9644 250 125C250 194.036 194.036 250 125 250C55.9644 250 0 194.036 0 125Z" fill="white"/>
<path d="M0 125M250 125M250 125M0 125M125 0M250 125M125 250M0 125M125 250V248C57.069 248 2 192.931 2 125H0H-2C-2 195.14 54.8598 252 125 252V250ZM250 125H248C248 192.931 192.931 248 125 248V250V252C195.14 252 252 195.14 252 125H250ZM125 0V2C192.931 2 248 57.069 248 125H250H252C252 54.8598 195.14 -2 125 -2V0ZM125 0V-2C54.8598 -2 -2 54.8598 -2 125H0H2C2 57.069 57.069 2 125 2V0Z" fill="#DDDBDB" mask="url(#path-1-inside-1_453_55)"/>
<path d="M187.514 106.141C187.955 106.567 189.021 108.604 189.326 109.239C190.995 112.71 192.009 116.451 192.919 120.176C196.089 133.147 195.716 146.923 191.233 159.569C184.694 177.581 171.253 192.248 153.881 200.332C142.351 205.94 129.424 208.021 116.718 206.316C114.161 205.947 110.73 205.255 108.293 204.388C106.564 200.095 105.659 196.535 105.5 191.848C105.331 186.903 106.636 180.696 109.012 176.344C110.74 173.18 114.963 168.647 117.441 166.008C124.353 158.644 131.885 151.703 139.102 144.617C141.52 142.243 143.751 139.664 146.105 137.227C149.58 133.632 153.324 130.117 156.742 126.492C155.845 125.478 154.869 124.488 154.226 123.313C154.136 123.132 154.06 122.957 153.978 122.773L154.087 122.545C159.217 121.086 164.575 119.919 169.745 118.559C171.749 118.032 174.018 117.58 175.974 116.974L172.008 131.563C171.408 133.764 170.48 136.804 170.064 138.953C168.628 138.142 167.593 136.935 166.063 135.979C156.815 145.025 147.615 154.119 138.462 163.262C133.186 168.451 127.09 173.512 122.696 179.472C119.125 184.315 117.839 188.014 118.757 193.956C125.228 194.959 131.615 194.422 137.969 192.906C153.11 189.323 166.208 179.876 174.387 166.639C181.844 154.48 185.019 137.959 180.929 124.077C180.036 121.045 179.234 117.91 178.498 114.837C181.117 111.966 184.296 108.333 187.514 106.141Z" fill="#002164"/>
<path d="M193.117 43.1128L193.28 43.1055C193.473 43.3768 187.88 62.5845 187.538 64.6699C186.155 63.8072 184.821 62.8674 183.543 61.8552C182.579 62.9733 181.152 64.2815 180.076 65.3371L174.865 70.5322C168.493 76.9539 162.069 83.324 155.594 89.6416L113.07 132.086C109.183 135.964 105.218 139.752 101.331 143.624C92.5478 152.374 83.3722 161.886 80.9508 174.522C82.0127 175.253 83.493 176.368 83.6011 177.736C83.8107 180.383 83.1871 183.385 82.8733 186.029C82.642 187.932 82.5049 189.844 82.4625 191.76C80.0563 190.454 77.7869 188.274 75.7616 186.418C73.3603 184.212 66.527 177.206 67.213 173.84C69.0174 164.989 74.5097 154.818 79.9016 147.605C82.839 143.676 86.3106 140.319 89.6261 137.011C93.1578 133.482 96.7233 129.986 100.322 126.525C110.718 116.455 121.035 106.304 131.272 96.0729C135.099 92.2279 138.789 88.2472 142.55 84.3676L162.773 63.8804C164.982 61.6871 167.176 59.479 169.355 57.2567C170.66 55.9216 172.87 53.5639 174.265 52.4404C172.575 51.1183 172.108 50.4906 171.141 48.6739C174.09 47.694 179.179 46.5819 182.278 45.7757C185.067 45.05 190.373 43.5543 193.117 43.1128Z" fill="#002164"/>
<path d="M183.606 80.8013L183.799 80.9074C183.763 81.5951 182.412 86.8615 182.183 87.7957L180.252 95.6554C179.695 97.9276 179.254 100.712 177.88 102.607C176.699 101.685 175.564 100.706 174.479 99.6714C171.105 102.168 167.682 105.717 164.687 108.722L152.364 121.164L111.312 162.061C103.801 169.532 98.7697 177.315 98.7438 188.219C99.9248 188.728 101.203 189.351 102.28 190.047C103.082 193.771 103.802 199.324 104.412 203.17C100.907 202.417 98.3455 201.358 95.1116 199.893C91.6825 198.246 88.5333 196.547 85.457 194.311L85.4419 194.134C83.2408 168.253 100.062 154.692 116.744 138.236L145.913 109.289C151.985 103.298 159.495 96.417 164.925 89.9816C164.064 89.1174 163.005 87.7621 162.265 86.7984C164.956 85.5171 169.014 84.465 171.978 83.685C175.843 82.678 179.719 81.7167 183.606 80.8013Z" fill="#C60D10"/>
<path d="M125.739 67.194C131.381 67.0721 140.818 67.5433 145.782 70.6314C144.677 72.5325 138.472 78.9285 136.821 79.9581C136.155 80.3732 128.058 79.3811 126.088 79.3223C116.943 79.0867 107.88 81.0974 99.6925 85.1783C74.8515 97.4524 61.7365 125.022 69.4846 151.834C70.8033 156.396 70.1184 157.346 68.6432 161.697C67.4289 165.196 66.095 168.652 64.6437 172.06C64.1815 171.226 63.6693 170.386 63.1864 169.558C57.8186 160.367 55.3322 150.16 55.0207 139.56C54.5472 120.724 61.5008 102.459 74.3797 88.7064C83.0966 79.4742 95.0584 72.4648 107.42 69.4215C113.342 67.9635 119.65 67.3728 125.739 67.194Z" fill="#002164"/>
</svg>
