<svg width="250" height="250" viewBox="0 0 250 250" fill="none" xmlns="http://www.w3.org/2000/svg">
<path d="M0 125C0 55.9644 55.9644 0 125 0C194.036 0 250 55.9644 250 125C250 194.036 194.036 250 125 250C55.9644 250 0 194.036 0 125Z" fill="white"/>
<path d="M141.37 192.051H127.5C108.272 192.051 89.8315 184.412 76.2349 170.817C62.6382 157.221 54.9991 138.781 54.998 119.553C54.998 73.0351 83.8983 55.002 119.549 55.002C159.589 55.002 191.525 82.3982 192.047 127.5V141.37C191.529 165.348 177.624 192.051 141.37 192.051Z" fill="#F15A01"/>
<path d="M112.668 159.846C101.961 157.253 95.7734 151.472 95.7734 151.472L104.055 137.603C104.055 137.603 113.692 145.783 121.783 145.797C125.378 145.797 132.231 145.455 132.247 138.694C132.247 133.433 124.525 131.046 115.92 126.729C107.24 122.411 102.156 115.632 102.171 108.086C102.184 96.618 110.785 88.6967 120.524 86.5606C121.428 85.1686 122.733 84.0834 124.267 83.4485C125.801 82.8135 127.491 82.6585 129.115 83.0039C130.252 83.2442 131.325 83.7239 132.262 84.4109C133.199 85.098 133.98 85.9768 134.551 86.9888C139.448 88.0771 144.1 90.0686 148.268 92.8614C148.297 92.8765 151.274 94.8956 151.274 94.8956L141.607 106.035C141.607 106.035 134.417 101.01 126.945 101.01C122.773 100.996 120.049 102.41 118.928 104.754H118.912C118.514 105.612 118.313 106.549 118.324 107.495C118.324 111.531 125.177 114.436 133.414 117.972C141.504 121.406 150.361 128.273 150.345 137.763C150.32 152.731 140.448 159.271 128.626 160.745C127.785 162.023 126.64 163.073 125.294 163.799C123.947 164.525 122.441 164.904 120.911 164.903C119.204 164.905 117.53 164.433 116.074 163.54C114.619 162.647 113.44 161.369 112.668 159.846Z" fill="white"/>
<path d="M151.274 94.8941L141.608 106.034C141.608 106.034 134.417 101.009 126.946 101.009C122.773 100.995 120.049 102.409 118.928 104.752H118.914C129.174 83.1037 147.06 92.5645 148.268 92.8593C148.295 92.875 151.274 94.8941 151.274 94.8941Z" fill="url(#paint0_linear_1_1535)"/>
<defs>
<linearGradient id="paint0_linear_1_1535" x1="95.194" y1="74.0766" x2="114.528" y2="128.46" gradientUnits="userSpaceOnUse">
<stop offset="0.141" stop-color="#999999"/>
<stop offset="0.799" stop-color="white"/>
</linearGradient>
</defs>
</svg>
