<svg width="250" height="250" viewBox="0 0 250 250" fill="none" xmlns="http://www.w3.org/2000/svg">
<mask id="path-1-inside-1_453_54" fill="white">
<path d="M0 125C0 55.9644 55.9644 0 125 0C194.036 0 250 55.9644 250 125C250 194.036 194.036 250 125 250C55.9644 250 0 194.036 0 125Z"/>
</mask>
<path d="M0 125C0 55.9644 55.9644 0 125 0C194.036 0 250 55.9644 250 125C250 194.036 194.036 250 125 250C55.9644 250 0 194.036 0 125Z" fill="white"/>
<path d="M0 125M250 125M250 125M0 125M125 0M250 125M125 250M0 125M125 250V248C57.069 248 2 192.931 2 125H0H-2C-2 195.14 54.8598 252 125 252V250ZM250 125H248C248 192.931 192.931 248 125 248V250V252C195.14 252 252 195.14 252 125H250ZM125 0V2C192.931 2 248 57.069 248 125H250H252C252 54.8598 195.14 -2 125 -2V0ZM125 0V-2C54.8598 -2 -2 54.8598 -2 125H0H2C2 57.069 57.069 2 125 2V0Z" fill="#DDDBDB" mask="url(#path-1-inside-1_453_54)"/>
<path d="M141.37 192.05H127.5C108.272 192.05 89.8315 184.412 76.2349 170.816C62.6382 157.22 54.9991 138.78 54.998 119.552C54.998 73.0346 83.8983 55.0015 119.549 55.0015C159.589 55.0015 191.525 82.3977 192.047 127.5V141.37C191.529 165.347 177.624 192.05 141.37 192.05Z" fill="#F15A01"/>
<path d="M112.668 159.846C101.961 157.252 95.7734 151.472 95.7734 151.472L104.055 137.603C104.055 137.603 113.692 145.782 121.783 145.796C125.378 145.796 132.231 145.454 132.247 138.694C132.247 133.433 124.525 131.045 115.92 126.728C107.24 122.41 102.156 115.631 102.171 108.086C102.184 96.6175 110.785 88.6962 120.524 86.5601C121.428 85.1681 122.733 84.083 124.267 83.448C125.801 82.813 127.491 82.658 129.115 83.0034C130.252 83.2437 131.325 83.7234 132.262 84.4104C133.199 85.0975 133.98 85.9763 134.551 86.9883C139.448 88.0766 144.1 90.0682 148.268 92.861C148.297 92.876 151.274 94.8951 151.274 94.8951L141.607 106.035C141.607 106.035 134.417 101.01 126.945 101.01C122.773 100.995 120.049 102.41 118.928 104.753H118.912C118.514 105.612 118.313 106.549 118.324 107.495C118.324 111.53 125.177 114.435 133.414 117.972C141.504 121.406 150.361 128.273 150.345 137.763C150.32 152.731 140.448 159.271 128.626 160.745C127.785 162.023 126.64 163.073 125.294 163.798C123.947 164.524 122.441 164.904 120.911 164.903C119.204 164.904 117.53 164.433 116.074 163.54C114.619 162.647 113.44 161.369 112.668 159.846Z" fill="white"/>
<path d="M151.274 94.8926L141.608 106.033C141.608 106.033 134.417 101.008 126.946 101.008C122.773 100.993 120.049 102.408 118.928 104.751H118.914C129.174 83.1022 147.06 92.563 148.268 92.8578C148.295 92.8736 151.274 94.8926 151.274 94.8926Z" fill="url(#paint0_linear_453_54)"/>
<defs>
<linearGradient id="paint0_linear_453_54" x1="95.194" y1="74.0751" x2="114.528" y2="128.458" gradientUnits="userSpaceOnUse">
<stop offset="0.141" stop-color="#999999"/>
<stop offset="0.799" stop-color="white"/>
</linearGradient>
</defs>
</svg>
