<svg width="250" height="250" viewBox="0 0 250 250" fill="none" xmlns="http://www.w3.org/2000/svg">
<path d="M0 125C0 55.9644 55.9644 0 125 0C194.036 0 250 55.9644 250 125C250 194.036 194.036 250 125 250C55.9644 250 0 194.036 0 125Z" fill="white"/>
<path d="M55.0552 181.029C57.2563 170.873 59.4575 160.718 62.1089 148.412C77.8673 148.412 94.226 146.986 110.234 148.787C129.295 150.913 134.722 159.567 132.997 180.128C107.133 181.254 81.094 182.355 55.0552 183.48C55.0552 182.68 55.0552 181.854 55.0552 181.029Z" fill="#ED1F25"/>
<path d="M112.563 67.0182C108.586 91.6063 104.784 115.119 101.007 138.506C79.6453 138.081 65.1626 125.199 65.888 108.19C66.8385 86.3284 88.6001 66.2428 112.563 67.0182Z" fill="#ED1F25"/>
<path d="M154.031 108.04C174.642 107.84 186.924 118.521 187.449 135.73C188.124 157.541 168.339 178.677 143.276 180.579C146.878 156.316 150.404 132.528 154.031 108.04Z" fill="#ED1F25"/>
<path d="M122.417 66.293C146.68 66.293 170.242 66.293 195.055 66.293C193.679 76.2232 192.354 85.7283 190.803 96.8842C173.018 96.8842 155.584 98.1599 138.45 96.459C126.019 95.2083 120.841 83.8773 122.417 66.293Z" fill="#ED1F25"/>
<path d="M126.592 107.365C134.347 107.215 140.375 112.468 140.75 119.696C141.075 126.325 134.672 133.354 127.918 133.779C120.714 134.229 113.385 127.501 113.235 120.247C113.06 112.893 118.613 107.54 126.592 107.365Z" fill="#ED1F25"/>
</svg>
