<svg width="250" height="250" viewBox="0 0 250 250" fill="none" xmlns="http://www.w3.org/2000/svg">
<mask id="path-1-inside-1_453_52" fill="white">
<path d="M0 125C0 55.9644 55.9644 0 125 0C194.036 0 250 55.9644 250 125C250 194.036 194.036 250 125 250C55.9644 250 0 194.036 0 125Z"/>
</mask>
<path d="M0 125C0 55.9644 55.9644 0 125 0C194.036 0 250 55.9644 250 125C250 194.036 194.036 250 125 250C55.9644 250 0 194.036 0 125Z" fill="white"/>
<path d="M0 125M250 125M250 125M0 125M125 0M250 125M125 250M0 125M125 250V248C57.069 248 2 192.931 2 125H0H-2C-2 195.14 54.8598 252 125 252V250ZM250 125H248C248 192.931 192.931 248 125 248V250V252C195.14 252 252 195.14 252 125H250ZM125 0V2C192.931 2 248 57.069 248 125H250H252C252 54.8598 195.14 -2 125 -2V0ZM125 0V-2C54.8598 -2 -2 54.8598 -2 125H0H2C2 57.069 57.069 2 125 2V0Z" fill="#DDDBDB" mask="url(#path-1-inside-1_453_52)"/>
<path d="M55.0547 181.029C57.2559 170.873 59.457 160.718 62.1084 148.412C77.8668 148.412 94.2255 146.986 110.234 148.787C129.294 150.913 134.722 159.567 132.996 180.128C107.132 181.254 81.0935 182.355 55.0547 183.48C55.0547 182.68 55.0547 181.854 55.0547 181.029Z" fill="#ED1F25"/>
<path d="M112.562 67.0182C108.585 91.6063 104.783 115.119 101.006 138.506C79.6449 138.081 65.1622 125.199 65.8875 108.19C66.838 86.3284 88.5996 66.2428 112.562 67.0182Z" fill="#ED1F25"/>
<path d="M154.031 108.04C174.642 107.84 186.923 118.521 187.449 135.73C188.124 157.541 168.339 178.677 143.275 180.579C146.877 156.316 150.404 132.528 154.031 108.04Z" fill="#ED1F25"/>
<path d="M122.416 66.293C146.679 66.293 170.242 66.293 195.055 66.293C193.679 76.2232 192.353 85.7283 190.802 96.8842C173.018 96.8842 155.584 98.1599 138.45 96.459C126.018 95.2083 120.84 83.8773 122.416 66.293Z" fill="#ED1F25"/>
<path d="M126.592 107.365C134.346 107.215 140.374 112.468 140.749 119.696C141.075 126.325 134.671 133.354 127.918 133.779C120.714 134.229 113.385 127.501 113.235 120.247C113.06 112.893 118.613 107.54 126.592 107.365Z" fill="#ED1F25"/>
</svg>
