<svg width="250" height="250" viewBox="0 0 250 250" fill="none" xmlns="http://www.w3.org/2000/svg">
<mask id="path-1-inside-1_453_51" fill="white">
<path d="M0 125C0 55.9644 55.9644 0 125 0C194.036 0 250 55.9644 250 125C250 194.036 194.036 250 125 250C55.9644 250 0 194.036 0 125Z"/>
</mask>
<path d="M0 125C0 55.9644 55.9644 0 125 0C194.036 0 250 55.9644 250 125C250 194.036 194.036 250 125 250C55.9644 250 0 194.036 0 125Z" fill="white"/>
<path d="M0 125M250 125M250 125M0 125M125 0M250 125M125 250M0 125M125 250V248C57.069 248 2 192.931 2 125H0H-2C-2 195.14 54.8598 252 125 252V250ZM250 125H248C248 192.931 192.931 248 125 248V250V252C195.14 252 252 195.14 252 125H250ZM125 0V2C192.931 2 248 57.069 248 125H250H252C252 54.8598 195.14 -2 125 -2V0ZM125 0V-2C54.8598 -2 -2 54.8598 -2 125H0H2C2 57.069 57.069 2 125 2V0Z" fill="#DDDBDB" mask="url(#path-1-inside-1_453_51)"/>
<path d="M191.844 188.887H58V181.399C58 181.399 88.089 181.426 103.109 181.426L191.844 181.417V188.887Z" fill="#CDB15D"/>
<path d="M124.6 48.8867C126.597 50.055 128.775 51.5749 130.743 52.8436L189.365 90.8194C187.103 90.6568 183.909 90.7489 181.564 90.749L59.9457 90.7587C61.6249 89.8236 64.0169 88.1712 65.6957 87.0815L107.479 59.9626L118.6 52.7655C120.565 51.4926 122.61 50.074 124.6 48.8867Z" fill="#CDB15D"/>
<path d="M59.6843 172.774C64.442 172.874 69.5191 172.783 74.3081 172.779L189.628 172.787L189.605 179.537C183.653 179.758 176.262 179.558 170.225 179.558L84.5898 179.574C76.5202 179.576 67.727 179.752 59.6989 179.544L59.6843 172.774Z" fill="#CDB15D"/>
<path d="M62.9919 100.927L186.308 100.924C186.285 103.229 186.294 105.534 186.335 107.839C172.87 108.024 158.91 107.842 145.409 107.841L62.9781 107.853C63.0109 105.544 63.0155 103.236 62.9919 100.927Z" fill="#CDB15D"/>
<path d="M64.6872 92.3475C75.5174 92.2118 86.6511 92.3368 97.513 92.3364L184.659 92.3333C184.637 94.6289 184.667 96.9266 184.629 99.2239L64.6642 99.2139C64.7948 96.883 64.7236 94.6785 64.6872 92.3475Z" fill="#CDB15D"/>
<path d="M137.277 109.552L154.457 109.532L154.475 112.927L151.191 112.942L151.193 156.365C151.191 158.065 151.251 160.315 151.168 161.984C151.198 163.84 151.206 165.695 151.192 167.551C152.26 167.56 153.398 167.51 154.471 167.482L154.512 171.094L137.211 171.106L137.249 167.503C138.395 167.549 139.693 167.529 140.851 167.537C140.847 164.819 140.758 161.589 140.875 158.912C140.632 143.775 140.871 128.108 140.848 112.933L137.228 112.949C137.237 111.866 137.217 110.621 137.277 109.552Z" fill="url(#paint0_linear_453_51)"/>
<path d="M71.6418 109.571L88.8371 109.529L88.8303 112.933L85.3203 112.947C85.3271 128.701 85.522 144.866 85.2998 160.573C85.4238 162.417 85.3161 165.606 85.3145 167.553L88.8444 167.548L88.8361 171.102L71.6265 171.111L71.6074 167.501C72.7359 167.527 73.8649 167.534 74.9937 167.522C74.9299 164.302 74.9095 160.511 75.0006 157.303C74.8054 142.597 75.0266 127.672 74.9781 112.941L71.6146 112.947L71.6418 109.571Z" fill="url(#paint1_linear_453_51)"/>
<path d="M93.5523 109.559L110.675 109.524L110.674 112.912C109.583 112.925 108.463 112.951 107.374 112.945L107.356 159.731C107.408 162.074 107.414 165.216 107.322 167.541C108.445 167.562 109.569 167.55 110.691 167.504L110.684 171.091C105.072 171.186 99.191 171.107 93.5616 171.109L93.5557 167.498C94.527 167.571 96.0247 167.529 97.0345 167.531C96.9989 166.937 96.9925 166.193 97.0141 165.599C97.1522 161.784 96.816 157.696 97.0618 153.898C96.8839 149.436 97.0245 143.996 97.0249 139.445L97.0329 112.949L93.5494 112.947L93.5523 109.559Z" fill="url(#paint2_linear_453_51)"/>
<path d="M115.499 109.572C121.129 109.532 126.885 109.489 132.512 109.535L132.512 112.933L129.112 112.943L129.111 156.264C129.107 157.917 129.173 160.131 129.081 161.721C129.184 163.337 129.109 165.864 129.114 167.549C130.291 167.554 131.333 167.548 132.51 167.485L132.512 171.106L115.402 171.11L115.416 167.512C116.474 167.547 117.703 167.515 118.775 167.514C118.767 164.482 118.775 161.449 118.798 158.417C118.71 153.359 118.781 148.162 118.778 143.094L118.777 112.954L115.47 112.955L115.499 109.572Z" fill="url(#paint3_linear_453_51)"/>
<path d="M172.932 112.944L176.433 112.94L176.426 109.519L159.31 109.553L159.267 112.944L162.593 112.939C162.734 117.81 162.61 123.291 162.609 128.222L162.622 157.608C162.618 160.791 162.695 164.379 162.59 167.529C161.754 167.528 160.04 167.575 159.274 167.498C159.27 168.488 159.311 170.195 159.205 171.126L176.435 171.106L176.429 167.53C175.292 167.538 174.072 167.569 172.943 167.52L172.932 112.944Z" fill="url(#paint4_linear_453_51)"/>
<defs>
<linearGradient id="paint0_linear_453_51" x1="124.021" y1="116.497" x2="124.021" y2="188.677" gradientUnits="userSpaceOnUse">
<stop stop-color="#C9AF72"/>
<stop offset="1" stop-color="#887344"/>
</linearGradient>
<linearGradient id="paint1_linear_453_51" x1="124.021" y1="116.497" x2="124.021" y2="188.677" gradientUnits="userSpaceOnUse">
<stop stop-color="#C9AF72"/>
<stop offset="1" stop-color="#887344"/>
</linearGradient>
<linearGradient id="paint2_linear_453_51" x1="124.021" y1="116.497" x2="124.021" y2="188.677" gradientUnits="userSpaceOnUse">
<stop stop-color="#C9AF72"/>
<stop offset="1" stop-color="#887344"/>
</linearGradient>
<linearGradient id="paint3_linear_453_51" x1="124.021" y1="116.497" x2="124.021" y2="188.677" gradientUnits="userSpaceOnUse">
<stop stop-color="#C9AF72"/>
<stop offset="1" stop-color="#887344"/>
</linearGradient>
<linearGradient id="paint4_linear_453_51" x1="124.021" y1="116.497" x2="124.021" y2="188.677" gradientUnits="userSpaceOnUse">
<stop stop-color="#C9AF72"/>
<stop offset="1" stop-color="#887344"/>
</linearGradient>
</defs>
</svg>
