<svg width="250" height="250" viewBox="0 0 250 250" fill="none" xmlns="http://www.w3.org/2000/svg">
<mask id="path-1-inside-1_453_334" fill="white">
<path d="M0 125C0 55.9644 55.9644 0 125 0C194.036 0 250 55.9644 250 125C250 194.036 194.036 250 125 250C55.9644 250 0 194.036 0 125Z"/>
</mask>
<path d="M0 125C0 55.9644 55.9644 0 125 0C194.036 0 250 55.9644 250 125C250 194.036 194.036 250 125 250C55.9644 250 0 194.036 0 125Z" fill="white"/>
<path d="M0 125M250 125M250 125M0 125M125 0M250 125M125 250M0 125M125 250V248C57.069 248 2 192.931 2 125H0H-2C-2 195.14 54.8598 252 125 252V250ZM250 125H248C248 192.931 192.931 248 125 248V250V252C195.14 252 252 195.14 252 125H250ZM125 0V2C192.931 2 248 57.069 248 125H250H252C252 54.8598 195.14 -2 125 -2V0ZM125 0V-2C54.8598 -2 -2 54.8598 -2 125H0H2C2 57.069 57.069 2 125 2V0Z" fill="#DDDBDB" mask="url(#path-1-inside-1_453_334)"/>
<path d="M77.4727 169.605C68.4084 165.54 60.3342 158.091 56.8884 148.646C53.4263 139.157 54.758 128.8 59.1425 119.812C68.5644 100.498 87.962 87.3868 107.705 80.2134C125.38 73.9108 146.288 71.7319 164.441 77.2024C166.158 77.7197 169.692 78.939 171.308 79.7001C171.808 79.886 172.476 80.1435 172.918 80.4484C182.3 85.1687 189.913 91.9514 193.301 102.151C196.531 111.873 194.673 122.321 190.031 131.304C180.287 150.159 160.231 163.41 140.607 170.085C124.857 175.442 107.211 177.401 90.8978 174.01C88.2135 173.446 85.5677 172.712 82.9766 171.812C82.1122 171.507 79.8161 170.471 79.0785 170.34C78.5002 170.097 78.0258 169.897 77.4727 169.605Z" fill="#FEFEFE"/>
<path d="M77.4727 169.605C68.4084 165.54 60.3342 158.091 56.8884 148.646C53.4263 139.157 54.758 128.8 59.1425 119.812C68.5644 100.498 87.962 87.3868 107.705 80.2134C125.38 73.9108 146.288 71.7319 164.441 77.2024C166.158 77.7197 169.692 78.939 171.308 79.7001C169.719 81.3992 167.936 82.9999 166.245 84.5973L160.709 89.9087L145.963 104.001L99.9928 148.006L84.0317 163.257C82.8513 164.383 81.6604 165.562 80.4787 166.69C79.8318 167.308 77.8959 169.014 77.4727 169.605Z" fill="#3E4096"/>
<path d="M140.115 78.9357C141.172 78.8424 142.715 78.8708 143.81 78.8728C151.13 78.8394 158.379 80.3046 165.111 83.1779C159.506 88.2851 153.749 94.0469 148.227 99.3113L105.792 139.872C104.243 141.405 102.663 142.907 101.054 144.377C92.9948 139.633 86.1187 133.144 85.3234 123.234C84.659 114.956 88.9876 106.677 94.3195 100.622C103.592 90.0916 116.811 83.1717 130.43 80.1967C133.666 79.4954 136.836 79.1681 140.115 78.9357Z" fill="#FEFEFE"/>
<path d="M108.398 92.1567L108.449 92.1692C108.512 92.3215 108.141 92.7148 108.031 92.8882C100.258 105.07 102.752 120.861 117.027 126.674C111.977 131.513 106.941 136.573 101.929 141.469C101.565 141.851 101.208 142.196 100.827 142.562C97.9907 139.973 96.2623 138.427 94.0141 135.313C82.4765 119.335 94.8628 101.785 108.398 92.1567Z" fill="#CD9A34"/>
<path d="M172.918 80.4482C182.299 85.1685 189.913 91.9512 193.301 102.15C196.53 111.873 194.673 122.32 190.03 131.304C180.286 150.158 160.23 163.409 140.607 170.085C124.856 175.442 107.211 177.401 90.8974 174.009C88.213 173.446 85.5673 172.712 82.9762 171.812C82.1118 171.507 79.8157 170.47 79.0781 170.34C80.3196 169.104 81.9299 167.41 83.2331 166.319C84.5106 166.928 86.0962 167.443 87.4393 167.898C101.652 172.645 117.316 170.884 131.021 165.093C147.081 158.306 167.534 141.085 161.968 121.363C160.041 114.537 153.333 108.358 147.167 105.086C147.918 104.515 149.413 102.968 150.15 102.261C152.215 100.321 154.263 98.3623 156.294 96.3858C161.866 91.1059 167.408 85.7932 172.918 80.4482Z" fill="#3E4096"/>
<path d="M147.395 106.917C165.193 121.763 160.473 139.213 144.837 153.349C143.538 154.524 142.186 155.543 140.804 156.611L140.391 156.403C143.896 151.027 145.25 144.025 144.055 137.71C142.74 130.768 137.801 125.293 131.23 122.795C134.263 119.881 137.252 116.861 140.267 113.929L144.038 110.218C145.164 109.125 146.326 108.065 147.395 106.917Z" fill="#CD9A34"/>
</svg>
