<svg width="250" height="250" viewBox="0 0 250 250" fill="none" xmlns="http://www.w3.org/2000/svg">
<mask id="path-1-inside-1_453_49" fill="white">
<path d="M0 125C0 55.9644 55.9644 0 125 0C194.036 0 250 55.9644 250 125C250 194.036 194.036 250 125 250C55.9644 250 0 194.036 0 125Z"/>
</mask>
<path d="M0 125C0 55.9644 55.9644 0 125 0C194.036 0 250 55.9644 250 125C250 194.036 194.036 250 125 250C55.9644 250 0 194.036 0 125Z" fill="white"/>
<path d="M0 125M250 125M250 125M0 125M125 0M250 125M125 250M0 125M125 250V248C57.069 248 2 192.931 2 125H0H-2C-2 195.14 54.8598 252 125 252V250ZM250 125H248C248 192.931 192.931 248 125 248V250V252C195.14 252 252 195.14 252 125H250ZM125 0V2C192.931 2 248 57.069 248 125H250H252C252 54.8598 195.14 -2 125 -2V0ZM125 0V-2C54.8598 -2 -2 54.8598 -2 125H0H2C2 57.069 57.069 2 125 2V0Z" fill="#DDDBDB" mask="url(#path-1-inside-1_453_49)"/>
<path d="M55.0474 54.8867C55.2954 55.0568 55.3897 55.0785 55.6996 55.0889C58.5201 55.1836 61.3958 55.1415 64.2189 55.14L79.6078 55.1382L128.225 55.1367L144.086 55.1373C147.095 55.1375 150.474 55.0671 153.457 55.1947C156.825 55.3229 160.179 55.7119 163.488 56.3579C171.08 57.9156 178.313 61.0092 183.869 66.544C188.609 71.2896 191.867 77.3101 193.246 83.873C194.174 88.3386 193.919 94.1841 193.968 98.8909L194.247 119.15L195.021 174.031C195.051 176.697 195.204 179.353 195.196 182.02C195.182 186.286 195.308 190.558 195.296 194.823L195.251 194.883C195.023 194.885 195.179 194.894 195.029 194.871C194.081 194.724 192.958 194.748 192.002 194.748L187.781 194.751L172.023 194.753L121.993 194.752L105.853 194.752C102.545 194.752 98.9161 194.826 95.6409 194.636C84.0873 193.965 72.7075 190.553 64.8346 181.626C60.7513 176.922 58.0077 171.207 56.8908 165.079C56.3608 162.162 56.4016 159.883 56.3792 156.942L56.3168 148.531L55.8137 112.634L55.2749 74.8552L55.0588 60.7621C55.0485 59.0087 54.9393 56.5648 55.0474 54.8867Z" fill="#6DEA17"/>
<path d="M72.6861 73.1396C73.2966 73.3092 76.7468 73.2537 77.5772 73.2525L87.2206 73.2453L127.429 73.247L139.4 73.2442C144.729 73.2437 149.231 73.1141 154.5 74.2582C160.029 75.4586 165.087 77.6571 169.196 81.6339C172.808 85.1631 175.29 89.686 176.326 94.6282C176.978 97.6845 176.834 102.144 176.877 105.367L177.082 119.83L177.902 177.045C177.164 176.861 173.277 176.93 172.311 176.931L161.043 176.935L124.512 176.934C118.197 176.935 111.871 176.976 105.557 176.924C96.5685 176.851 87.0409 174.495 80.6507 167.817C77.3337 164.295 75.0815 159.906 74.1547 155.156C73.6169 152.397 73.7331 147.675 73.6839 144.637L73.421 126.187L72.9194 90.9604L72.7529 79.631C72.7222 77.5414 72.6387 75.215 72.6861 73.1396Z" fill="#191412"/>
<path d="M131.625 148.158C132.028 144.585 132.054 139.386 129.69 136.459C127.726 134.028 124.72 133.049 121.916 131.969L111.896 128.116C104.507 125.269 98.783 122.992 96.983 114.39C96.4076 111.618 96.2646 108.775 96.5589 105.959C97.1061 100.692 99.4633 96.2214 103.585 92.8478C108.497 88.8265 114.618 88.0861 120.715 88.6881C126.104 89.2201 131.173 91.3361 134.558 95.6933C138.109 100.264 138.141 103.921 137.899 109.297C135.07 109.367 132.24 109.41 129.409 109.426C129.675 105.607 129.459 102.887 126.825 99.8825C124.693 97.4512 122.23 96.3076 119.075 96.1253C110.928 95.6548 105.245 98.9825 104.949 107.683C104.839 110.895 105.107 113.636 107.417 116.194C109.517 118.503 112.404 119.376 115.238 120.452L122.657 123.271C127.251 125.019 132.066 126.776 135.731 130.18C139.768 133.929 140.529 139.71 140.296 144.937C140.225 146.524 140.065 148.128 139.731 149.687C139.656 149.596 139.561 149.558 139.44 149.543C136.782 149.232 134.237 148.728 131.625 148.158Z" fill="#6DEA17"/>
<path d="M127.984 114.971C134.576 114.875 141.4 114.959 148.009 114.958L155.882 114.957C162.824 114.958 162.106 114.106 162.048 121.246L148.808 121.251C148.688 131.387 148.804 141.758 148.804 151.914L148.8 165.013C147.376 165.019 142.973 165.133 141.849 164.854C141.804 164.81 141.759 164.767 141.716 164.722C141.438 164.442 141.23 164.231 141.205 163.822C141.107 162.241 141.146 160.575 141.147 158.989L141.153 150.019L141.16 121.254C137.676 121.211 134.18 121.286 130.695 121.255C129.934 121.249 128.188 121.275 128.062 120.214C127.866 118.548 127.963 116.661 127.984 114.971Z" fill="#FEFEFE"/>
<path d="M95.6157 140.383C98.2364 140.33 101.525 140.401 104.154 140.48C104.148 144.782 103.841 149.361 106.119 153.225C107.527 155.613 110.174 157.124 112.827 157.697C117.023 158.603 122.888 158.508 126.558 156.134C129.613 154.158 130.852 151.531 131.626 148.158C134.238 148.729 136.782 149.232 139.44 149.544C139.562 149.558 139.656 149.597 139.732 149.687C136.598 162.15 127.469 166.306 115.565 165.759C105.352 165.29 97.5681 159.771 96.0672 149.203C95.6218 146.066 95.6034 143.532 95.6157 140.383Z" fill="#FEFEFE"/>
</svg>
