<svg width="250" height="250" viewBox="0 0 250 250" fill="none" xmlns="http://www.w3.org/2000/svg">
<path d="M0 125C0 55.9644 55.9644 0 125 0C194.036 0 250 55.9644 250 125C250 194.036 194.036 250 125 250C55.9644 250 0 194.036 0 125Z" fill="white"/>
<path d="M55.047 54.8867C55.2949 55.0568 55.3892 55.0785 55.6991 55.0889C58.5196 55.1836 61.3953 55.1415 64.2184 55.14L79.6073 55.1382L128.224 55.1367L144.086 55.1373C147.094 55.1375 150.473 55.0671 153.456 55.1947C156.825 55.3229 160.179 55.7119 163.487 56.3579C171.079 57.9156 178.312 61.0092 183.869 66.544C188.608 71.2896 191.866 77.3101 193.246 83.873C194.174 88.3386 193.918 94.1841 193.968 98.8909L194.247 119.15L195.02 174.031C195.05 176.697 195.204 179.353 195.196 182.02C195.182 186.286 195.308 190.558 195.296 194.823L195.251 194.883C195.022 194.885 195.179 194.894 195.029 194.871C194.081 194.724 192.958 194.748 192.002 194.748L187.781 194.751L172.022 194.753L121.992 194.752L105.852 194.752C102.545 194.752 98.9156 194.826 95.6404 194.636C84.0869 193.965 72.707 190.553 64.8342 181.626C60.7508 176.922 58.0072 171.207 56.8903 165.079C56.3603 162.162 56.4011 159.883 56.3787 156.942L56.3163 148.531L55.8132 112.634L55.2744 74.8552L55.0583 60.7621C55.048 59.0087 54.9388 56.5648 55.047 54.8867Z" fill="#6DEA17"/>
<path d="M72.6861 73.1406C73.2966 73.3102 76.7468 73.2546 77.5772 73.2535L87.2206 73.2462L127.429 73.248L139.4 73.2452C144.729 73.2447 149.231 73.1151 154.5 74.2591C160.029 75.4596 165.087 77.6581 169.196 81.6349C172.808 85.1641 175.29 89.687 176.326 94.6292C176.978 97.6855 176.834 102.145 176.877 105.368L177.082 119.831L177.902 177.046C177.164 176.862 173.277 176.931 172.311 176.932L161.043 176.936L124.512 176.935C118.197 176.936 111.871 176.977 105.557 176.925C96.5685 176.852 87.0409 174.496 80.6507 167.818C77.3337 164.296 75.0815 159.907 74.1547 155.157C73.6169 152.398 73.7331 147.676 73.6839 144.638L73.421 126.188L72.9194 90.9614L72.7529 79.632C72.7222 77.5424 72.6387 75.2159 72.6861 73.1406Z" fill="#191412"/>
<path d="M131.626 148.158C132.028 144.586 132.055 139.386 129.691 136.46C127.726 134.029 124.72 133.05 121.916 131.969L111.897 128.116C104.507 125.27 98.7837 122.993 96.9837 114.39C96.4084 111.619 96.2653 108.775 96.5596 105.96C97.1068 100.692 99.464 96.2219 103.585 92.8483C108.498 88.827 114.619 88.0866 120.716 88.6886C126.105 89.2206 131.174 91.3366 134.559 95.6938C138.11 100.265 138.142 103.922 137.9 109.298C135.071 109.367 132.241 109.41 129.41 109.427C129.675 105.608 129.46 102.887 126.825 99.8829C124.694 97.4517 122.231 96.3081 119.075 96.1258C110.929 95.6553 105.246 98.983 104.949 107.684C104.84 110.896 105.108 113.637 107.418 116.195C109.518 118.504 112.405 119.376 115.239 120.453L122.657 123.271C127.252 125.019 132.067 126.776 135.732 130.18C139.769 133.929 140.529 139.711 140.297 144.937C140.226 146.525 140.065 148.129 139.732 149.687C139.657 149.597 139.562 149.558 139.44 149.544C136.783 149.232 134.238 148.729 131.626 148.158Z" fill="#6DEA17"/>
<path d="M127.985 114.972C134.577 114.876 141.401 114.96 148.009 114.959L155.883 114.958C162.825 114.959 162.107 114.107 162.049 121.247L148.808 121.252C148.689 131.387 148.804 141.759 148.804 151.915L148.801 165.014C147.377 165.02 142.974 165.134 141.849 164.855C141.805 164.811 141.76 164.768 141.716 164.723C141.438 164.443 141.231 164.232 141.206 163.823C141.108 162.242 141.147 160.576 141.148 158.99L141.154 150.02L141.161 121.255C137.677 121.212 134.18 121.287 130.696 121.256C129.935 121.25 128.189 121.276 128.063 120.215C127.867 118.549 127.964 116.662 127.985 114.972Z" fill="#FEFEFE"/>
<path d="M95.6164 140.384C98.2371 140.33 101.526 140.402 104.155 140.48C104.149 144.783 103.842 149.361 106.12 153.225C107.528 155.614 110.175 157.124 112.828 157.697C117.023 158.603 122.889 158.508 126.559 156.135C129.614 154.159 130.853 151.531 131.627 148.159C134.238 148.729 136.783 149.232 139.441 149.544C139.562 149.559 139.657 149.597 139.732 149.688C136.599 162.151 127.469 166.306 115.566 165.76C105.353 165.29 97.5689 159.772 96.068 149.204C95.6225 146.067 95.6041 143.533 95.6164 140.384Z" fill="#FEFEFE"/>
</svg>
