<svg width="250" height="250" viewBox="0 0 250 250" fill="none" xmlns="http://www.w3.org/2000/svg">
<path d="M0 125C0 55.9644 55.9644 0 125 0C194.036 0 250 55.9644 250 125C250 194.036 194.036 250 125 250C55.9644 250 0 194.036 0 125Z" fill="#143867"/>
<path d="M98.0838 87.1697C99.3453 87.1145 101.037 87.1623 102.337 87.1623L110.663 87.1633L118.134 87.1589C119.504 87.1579 120.872 87.1461 122.245 87.1771C123.387 87.195 124.337 87.9861 124.718 89.0363C124.958 89.6969 124.933 90.2874 124.933 90.9791C124.932 92.4639 124.932 93.9518 124.933 95.4368L124.934 106.566L124.933 117.825C124.932 119.804 124.941 121.796 124.921 123.775C124.889 124.255 124.901 124.772 124.704 125.215C124.236 126.267 123.556 126.801 122.418 127.002C120.782 127.044 118.963 127.006 117.314 127.006L107.436 127.005L101.435 127.012C100.323 127.014 99.2182 127.024 98.1061 126.983C96.9169 126.938 95.7627 125.783 95.6322 124.623C95.463 123.12 95.5387 121.442 95.5505 119.915L95.5602 112.769V97.7094C95.5596 95.2384 95.5255 92.7694 95.5643 90.2991C95.5906 88.6291 96.3906 87.4729 98.0838 87.1697Z" fill="#0098DA"/>
<path d="M98.9519 88.3486C103.604 88.2596 108.553 88.3469 113.229 88.3464L118.593 88.3418C119.611 88.3404 120.606 88.324 121.627 88.3713C122.719 88.3371 123.889 89.5287 123.997 90.5996C124.105 91.6714 124.055 93.0967 124.056 94.2182L124.057 102.117L124.056 116.106C124.056 118.506 124.088 120.921 124.021 123.319C123.984 124.688 122.901 125.622 121.612 125.836L106.502 125.836L101.763 125.841C99.8197 125.847 97.4593 126.309 96.6332 124.07C96.5264 123.78 96.4616 123.475 96.4409 123.166C96.3644 121.854 96.4253 119.956 96.4251 118.584L96.424 109.714L96.4249 97.7499C96.4253 95.6724 96.4179 93.5837 96.4366 91.5065C96.4707 91.0391 96.4523 90.4664 96.6418 90.037C97.0991 89.001 97.833 88.4697 98.9519 88.3486Z" fill="#FEFFFF"/>
<path d="M109.032 100.689L111.408 100.689L111.407 105.301C112.915 104.786 114.418 104.258 115.918 103.717L116.737 106.016L112.239 107.472C113.175 108.741 114.103 110.07 115.024 111.355C114.375 111.845 113.658 112.344 112.995 112.823L110.836 109.611L110.281 108.791L107.556 112.825C106.878 112.333 106.149 111.844 105.458 111.364L108.296 107.475L103.744 106.013C104.025 105.252 104.299 104.489 104.567 103.723C106.04 104.274 107.55 104.799 109.032 105.33C109.055 103.801 109.034 102.222 109.032 100.689Z" fill="#0098DA"/>
<path d="M68.2486 91.3359C69.6655 91.2662 71.4049 91.309 72.8492 91.3091L81.063 91.3115L88.6484 91.3065C90.0168 91.3047 92.5119 91.1429 93.7924 91.5518C94.6942 91.8397 95.3695 93.0703 95.3785 94.0309C95.3918 95.449 95.3944 96.9499 95.3948 98.4093L95.3962 106.706L95.395 114.864C95.3944 116.311 95.403 117.755 95.3756 119.202C95.3473 120.694 94.6897 121.572 93.2661 122.03C92.7563 122.13 90.884 122.094 90.2467 122.093L84.2881 122.089L73.9164 122.094C72.1123 122.094 70.3102 122.107 68.5046 122.067C67.5631 122.047 66.2649 121.088 66.1306 120.146C65.929 118.732 66.0139 117.083 66.0135 115.636L66.0134 107.097L66.0155 98.4223C66.0151 96.8604 65.9767 95.2611 66.0478 93.7035C66.1039 92.4754 67.1416 91.633 68.2486 91.3359Z" fill="#0098DA"/>
<path d="M79.4766 100.647L81.8752 100.644L81.876 105.269C83.3446 104.713 84.8812 104.181 86.3619 103.645L87.2015 105.977L82.6777 107.414L85.4795 111.301L83.4362 112.788C82.7063 111.647 81.8638 110.447 81.1025 109.317L80.7357 108.772L77.9871 112.791L75.9113 111.298L78.7516 107.419L74.1855 105.977L75.0306 103.645C76.3949 104.209 78.0643 104.778 79.4687 105.299C79.4631 103.748 79.4658 102.197 79.4766 100.647Z" fill="#FEFFFF"/>
<path d="M136.246 136.059C136.41 136.038 136.762 136.032 136.94 136.033C138.586 136.027 140.278 136.031 141.919 136.031C145.789 136.029 150.306 135.818 152.542 139.669C153.359 141.076 153.652 142.51 153.655 144.136C153.668 146.232 153.078 148.453 151.525 149.949C148.438 152.92 143.421 152.455 139.474 152.449L138.607 152.454L138.616 157.668C138.618 158.754 138.676 159.951 138.521 161.006C138.321 162.357 137.288 163.376 135.893 163.341C134.193 163.299 133.31 162.208 133.212 160.578C133.135 159.267 133.165 157.992 133.165 156.687L133.162 149.627L133.161 142.681C133.161 141.376 133.127 140.084 133.212 138.781C133.343 136.769 134.409 136.218 136.246 136.059ZM138.611 148.329C141.098 148.34 144.981 148.695 146.945 147.142C149.461 144.651 147.965 140.233 144.129 140.225C142.318 140.221 140.444 140.131 138.607 140.135L138.611 148.329Z" fill="#FEFFFF"/>
<path d="M163.673 143.032C170.838 142.668 174.073 144.412 173.702 151.896C173.619 153.575 173.693 155.411 173.694 157.147C173.696 158.968 175.576 161.587 173.65 162.911C171.491 164.292 170.168 162.176 169.102 160.545C168.509 160.988 167.946 161.373 167.319 161.766C163.827 163.957 158.405 164.294 156.035 160.293C155.858 159.956 155.715 159.602 155.607 159.237C155.202 157.837 155.319 156.415 156.024 155.129C157.538 152.365 161.021 152.133 163.822 151.525C165.488 151.177 167.14 150.765 168.775 150.29C168.537 146.537 166.938 146.195 163.468 146.598C161.864 146.785 160.83 147.984 160.077 149.325C159.115 151.039 156.611 150.485 156.296 148.637C156.145 147.708 156.701 146.454 157.314 145.723C158.912 143.812 161.319 143.297 163.673 143.032ZM161.375 159.378C163.474 160.811 166.555 159.883 167.96 157.942C168.631 157.016 168.928 154.464 168.734 153.378L168.686 153.337C167.057 153.877 165.374 154.188 163.707 154.561C162.576 154.814 161.187 155.178 160.639 156.313C160.089 157.452 160.526 158.562 161.375 159.378Z" fill="#FEFFFF"/>
<path d="M91.8182 143.023C91.8584 143.021 91.8988 143.02 91.939 143.02C94.0359 143.007 94.4051 144.688 94.3891 146.396C96.0331 144.34 97.6461 143.189 100.402 143.038C104.236 142.827 107.208 145.094 107.471 149.043C107.63 151.436 107.528 153.819 107.556 156.216C107.542 157.908 107.64 159.392 107.468 161.09C107.251 163.223 104.89 164.077 103.35 162.68C102.33 161.755 102.524 159.375 102.524 158.001L102.53 153.156C102.536 151.185 102.756 147.683 100.331 147.035C99.7261 146.873 98.9199 146.851 98.3051 146.976C97.6133 147.122 96.9691 147.438 96.4308 147.896C94.5287 149.507 94.7164 152.219 94.7153 154.533L94.7238 158.87C94.7252 160.001 94.8311 161.392 94.1724 162.345C92.9535 164.099 90.1561 163.483 89.8305 161.321C89.6439 160.082 89.688 159.029 89.6876 157.777L89.6872 152.799L89.6886 148.254C89.6879 146.129 89.1772 143.491 91.8182 143.023Z" fill="#FEFFFF"/>
<path d="M119.018 143.035C121.245 142.776 124.692 143.619 126.353 145.155C127.37 146.095 128.205 147.746 127.101 148.951C126.696 149.394 126.088 149.582 125.505 149.588C123.962 149.6 123.263 148.213 122.321 147.251C121.515 146.42 120.506 146.215 119.397 146.218C118.136 146.202 116.244 146.783 116.308 148.342C116.313 149.301 117.359 149.874 118.158 150.154C119.863 150.753 121.672 151.06 123.4 151.613C125.824 152.388 128.531 153.817 128.6 156.719C128.62 158.306 128.194 159.821 127.073 160.983C125.107 163.025 122.368 163.272 119.714 163.366C117.292 163.254 115.232 162.938 113.2 161.354C111.439 159.981 110.257 156.386 113.464 155.981C114.6 155.838 115.348 157.13 115.859 157.929C116.9 159.56 118.583 160.229 120.476 160.11C123.34 160.21 125.366 157.056 122.013 155.646C118.695 154.28 111.913 153.936 111.686 149.131C111.483 144.846 115.485 143.222 119.018 143.035Z" fill="#FEFFFF"/>
<path d="M81.98 143.025C85.0857 142.95 84.6903 146.043 84.6923 148.163L84.6945 152.926L84.6927 157.984C84.691 160.143 85.158 162.981 82.312 163.355C79.2453 163.481 79.676 159.875 79.6743 157.852L79.6723 153.007L79.6736 148.292C79.6749 146.11 79.2065 143.454 81.98 143.025Z" fill="#FEFFFF"/>
<path d="M81.6916 135.815C83.0468 135.535 84.3702 136.414 84.6386 137.771C84.907 139.128 84.0177 140.444 82.658 140.702C81.314 140.956 80.0163 140.079 79.7509 138.737C79.4856 137.396 80.3519 136.091 81.6916 135.815Z" fill="#FEFFFF"/>
<path d="M172.591 78.8867H172.646C173.129 78.9846 174.036 78.9399 174.565 78.9381L178.941 78.9222C179.898 78.9193 181.078 78.8438 181.991 79.0323C183.231 79.2886 184.01 80.4654 184.035 81.6896C184.062 83.0405 184.055 84.3876 184.054 85.7386L184.052 93.0978L184.05 115.578L184.05 126.834C184.053 128.603 184.136 130.602 183.958 132.339C183.857 133.328 182.548 134.481 181.557 134.443C179.78 134.485 178.009 134.464 176.238 134.462L166.118 134.459L160.222 134.461C157.815 134.469 155.346 135.019 154.647 132.048C154.719 131.124 154.671 129.454 154.671 128.483C154.68 126.436 154.675 124.389 154.656 122.341C154.705 121.533 154.663 120.244 154.664 119.409V113.538L154.663 95.3707L154.666 85.8062C154.666 85.0342 154.718 82.1143 154.625 81.5525C155.158 78.4001 157.579 78.9232 160.094 78.9247L168.856 78.9267C169.541 78.9268 172.047 78.9817 172.591 78.8867Z" fill="#00FE00" fill-opacity="0.988235"/>
<path d="M168.126 100.655L170.523 100.65V105.27L174.994 103.653C175.288 104.393 175.574 105.221 175.852 105.973C174.369 106.472 172.815 106.943 171.319 107.42L174.116 111.314C173.432 111.798 172.756 112.293 172.088 112.797L169.863 109.482L169.383 108.771L166.639 112.788L164.557 111.31L167.394 107.426C165.927 106.923 164.311 106.445 162.82 105.971C163.111 105.275 163.414 104.373 163.68 103.652C165.044 104.216 166.715 104.787 168.119 105.309L168.126 100.655Z" fill="#FEFFFF"/>
<path d="M154.478 127.725C154.378 129.196 153.603 130.906 151.938 131.087C150.969 131.193 149.854 131.125 148.866 131.12L143.068 131.118L132.997 131.122C131.453 131.124 129.109 131.204 127.629 131.096C127.229 131.063 126.847 130.917 126.528 130.675C125.522 129.926 125.097 128.596 125.084 127.384C125.066 125.863 125.097 124.339 125.097 122.817L125.098 111.516V94.5153L125.085 89.5025C125.073 87.4705 124.667 83.3988 127.676 83.0739C128.594 82.9748 129.934 83.0582 130.891 83.058L137.921 83.0558L147.172 83.0523C148.74 83.052 150.383 83.0145 151.945 83.091C153.559 83.17 154.323 84.9692 154.479 86.3904L154.472 112.668L154.473 122.703C154.473 124.272 154.421 126.176 154.478 127.725Z" fill="#00FE00" fill-opacity="0.988235"/>
<path d="M128.179 84.5041C129.609 84.441 131.275 84.4804 132.731 84.4806L140.768 84.483L147.432 84.4773C148.634 84.4759 149.833 84.4887 151.033 84.4944C152.126 84.4027 153.307 85.7326 153.455 86.7603C153.713 88.5477 153.599 90.7682 153.596 92.5911L153.595 102.638L153.594 118.736L153.6 123.536C153.608 125.751 154.051 128.96 151.303 129.691C149.907 129.745 148.324 129.711 146.908 129.711L139.133 129.71L132.418 129.713C131.2 129.714 129.962 129.759 128.745 129.702C128.377 129.685 128.033 129.665 127.696 129.502C126.969 129.15 126.456 128.411 126.2 127.663C125.781 126.433 125.982 120.584 125.982 118.894L125.983 105.253L125.984 93.7711C125.984 91.8288 125.956 89.8801 125.987 87.9381C126.012 86.3733 126.605 85.0148 128.179 84.5041Z" fill="#FEFFFF"/>
<path d="M138.582 100.688L140.951 100.687V105.31L145.461 103.721L146.29 106.009C144.844 106.516 143.242 106.999 141.775 107.475C142.717 108.732 143.65 110.077 144.566 111.359C143.932 111.844 143.189 112.351 142.534 112.82L140.309 109.508L139.833 108.81C138.998 109.906 137.903 111.643 137.103 112.826L135.008 111.357L137.834 107.474C136.341 106.973 134.794 106.496 133.291 106.013L134.118 103.725C135.589 104.274 137.098 104.804 138.577 105.339C138.609 103.822 138.581 102.212 138.582 100.688Z" fill="#00FE00"/>
<path d="M55 138.797C55.5008 135.942 57.3625 135.904 59.8895 136.036C64.3894 136.273 71.2541 134.865 74.1653 139.324C76.3713 142.703 75.9218 148.545 72.333 150.789C68.986 152.896 64.2988 152.452 60.4612 152.453L60.4683 157.482C60.4747 159.641 60.8842 163.308 57.7632 163.347C55.8878 163.37 55.3164 162.159 55 160.554V138.797ZM60.4655 148.329C62.8982 148.34 66.9674 148.703 68.8285 147.091C70.3174 145.697 70.3547 142.906 68.9894 141.409C68.0013 140.325 65.8993 140.147 64.4782 140.135L60.46 140.136L60.4655 148.329Z" fill="#FEFFFF"/>
<path d="M185.882 157.996C187.188 153.99 188.718 150.012 190.068 146.022C190.435 144.936 190.99 143.225 192.247 143.054C193.819 142.84 194.704 143.707 195 145.139V145.206C194.424 147.392 193.748 149.027 192.947 151.127L190.4 157.8L188.358 163.143C187.753 164.725 187.218 166.232 186.387 167.721C185.239 169.778 183.838 170.365 181.638 170.757H178.959C178.284 170.618 177.211 170.469 176.682 170.048C175.765 169.318 175.798 167.435 176.981 166.959C178.261 166.444 179.671 167.336 180.952 166.782C182.133 166.212 182.844 164.044 183.317 162.867C182.883 161.612 182.201 160.034 181.703 158.778L178.565 150.857C178.031 149.513 177.47 148.159 176.954 146.816C176.667 145.966 176.409 145.28 176.833 144.427C177.18 143.708 177.702 143.298 178.481 143.11C179.742 142.805 180.635 143.329 181.149 144.484C181.83 146.011 182.321 147.619 182.862 149.198L185.882 157.996Z" fill="#FEFFFF"/>
<path d="M154.478 86.3905L154.522 86.383C154.709 86.1561 154.43 82.1857 154.623 81.5527C154.716 82.1145 154.664 85.0344 154.664 85.8064L154.662 95.3709L154.662 113.538V119.409C154.662 120.245 154.703 121.533 154.654 122.342C154.508 123.458 154.638 126.309 154.605 127.578L154.478 127.725C154.421 126.176 154.473 124.272 154.472 122.703L154.472 112.668L154.478 86.3905Z" fill="#003D01" fill-opacity="0.168627"/>
<path d="M154.606 127.577C154.639 126.309 154.509 123.457 154.655 122.341C154.674 124.388 154.679 126.436 154.671 128.483C154.671 129.454 154.719 131.124 154.646 132.048C154.547 131.647 154.602 128.22 154.606 127.577Z" fill="#015401" fill-opacity="0.360784"/>
</svg>
