<svg width="250" height="250" viewBox="0 0 250 250" fill="none" xmlns="http://www.w3.org/2000/svg">
<path d="M0 125C0 55.9644 55.9644 0 125 0C194.036 0 250 55.9644 250 125C250 194.036 194.036 250 125 250C55.9644 250 0 194.036 0 125Z" fill="#143867"/>
<path d="M98.0838 87.1692C99.3453 87.114 101.037 87.1618 102.337 87.1618L110.663 87.1628L118.134 87.1584C119.504 87.1574 120.872 87.1456 122.245 87.1766C123.387 87.1945 124.337 87.9856 124.718 89.0358C124.958 89.6964 124.933 90.2869 124.933 90.9786C124.932 92.4634 124.932 93.9514 124.933 95.4363L124.934 106.565L124.933 117.825C124.932 119.804 124.941 121.796 124.921 123.774C124.889 124.255 124.901 124.772 124.704 125.215C124.236 126.267 123.556 126.801 122.418 127.001C120.782 127.044 118.963 127.006 117.314 127.005L107.436 127.005L101.435 127.012C100.323 127.013 99.2182 127.024 98.1061 126.982C96.9169 126.938 95.7627 125.782 95.6322 124.623C95.463 123.12 95.5387 121.442 95.5505 119.914L95.5602 112.769V97.7089C95.5596 95.2379 95.5255 92.7689 95.5643 90.2986C95.5906 88.6286 96.3906 87.4724 98.0838 87.1692Z" fill="#0098DA"/>
<path d="M98.9524 88.3486C103.605 88.2596 108.554 88.3469 113.229 88.3464L118.593 88.3418C119.611 88.3404 120.606 88.324 121.627 88.3713C122.719 88.3371 123.889 89.5287 123.997 90.5996C124.105 91.6714 124.056 93.0967 124.057 94.2182L124.057 102.117L124.057 116.106C124.057 118.506 124.088 120.921 124.022 123.319C123.984 124.688 122.901 125.622 121.613 125.836L106.502 125.836L101.764 125.841C99.8201 125.847 97.4598 126.309 96.6337 124.07C96.5269 123.78 96.4621 123.475 96.4414 123.166C96.3649 121.854 96.4258 119.956 96.4256 118.584L96.4245 109.714L96.4254 97.7499C96.4258 95.6724 96.4184 93.5837 96.437 91.5065C96.4712 91.0391 96.4528 90.4664 96.6423 90.037C97.0996 89.001 97.8335 88.4697 98.9524 88.3486Z" fill="#FEFFFF"/>
<path d="M109.032 100.69L111.407 100.689L111.406 105.302C112.914 104.786 114.417 104.258 115.917 103.717L116.736 106.017L112.238 107.472C113.174 108.742 114.102 110.071 115.023 111.355C114.374 111.846 113.657 112.344 112.994 112.823L110.835 109.612L110.28 108.792L107.555 112.826C106.878 112.334 106.148 111.844 105.457 111.365L108.295 107.475L103.743 106.014C104.024 105.253 104.298 104.489 104.566 103.724C106.039 104.275 107.549 104.8 109.031 105.331C109.054 103.801 109.033 102.223 109.032 100.69Z" fill="#0098DA"/>
<path d="M68.2488 91.3359C69.6658 91.2662 71.4051 91.309 72.8494 91.3091L81.0632 91.3115L88.6486 91.3065C90.017 91.3047 92.5122 91.1429 93.7927 91.5518C94.6944 91.8397 95.3698 93.0703 95.3787 94.0309C95.3921 95.449 95.3947 96.9499 95.3951 98.4093L95.3964 106.706L95.3952 114.864C95.3947 116.311 95.4032 117.755 95.3758 119.202C95.3475 120.694 94.69 121.572 93.2663 122.03C92.7565 122.13 90.8843 122.094 90.2469 122.093L84.2884 122.089L73.9166 122.094C72.1126 122.094 70.3104 122.107 68.5048 122.067C67.5633 122.047 66.2652 121.088 66.1308 120.146C65.9292 118.732 66.0142 117.083 66.0137 115.636L66.0136 107.097L66.0158 98.4223C66.0154 96.8604 65.9769 95.2611 66.0481 93.7035C66.1042 92.4754 67.1419 91.633 68.2488 91.3359Z" fill="#0098DA"/>
<path d="M79.4776 100.646L81.8762 100.643L81.877 105.268C83.3456 104.712 84.8822 104.18 86.3628 103.644L87.2025 105.976L82.6787 107.413L85.4805 111.3L83.4372 112.787C82.7073 111.646 81.8648 110.446 81.1035 109.316L80.7367 108.771L77.9881 112.79L75.9123 111.297L78.7526 107.418L74.1865 105.976L75.0316 103.644C76.3959 104.208 78.0652 104.777 79.4697 105.298C79.4641 103.747 79.4667 102.196 79.4776 100.646Z" fill="#FEFFFF"/>
<path d="M136.247 136.058C136.41 136.037 136.763 136.031 136.941 136.032C138.587 136.026 140.279 136.03 141.919 136.03C145.79 136.028 150.307 135.817 152.543 139.668C153.36 141.075 153.653 142.509 153.656 144.135C153.669 146.231 153.079 148.452 151.525 149.948C148.439 152.919 143.421 152.454 139.475 152.448L138.607 152.453L138.616 157.667C138.618 158.753 138.677 159.95 138.521 161.005C138.322 162.356 137.289 163.375 135.894 163.34C134.193 163.298 133.31 162.207 133.213 160.577C133.136 159.266 133.165 157.991 133.165 156.686L133.163 149.627L133.161 142.68C133.162 141.375 133.128 140.083 133.213 138.78C133.344 136.768 134.41 136.217 136.247 136.058ZM138.612 148.328C141.098 148.339 144.982 148.694 146.946 147.141C149.462 144.65 147.966 140.233 144.13 140.224C142.319 140.22 140.444 140.13 138.607 140.134L138.612 148.328Z" fill="#FEFFFF"/>
<path d="M163.672 143.031C170.837 142.667 174.072 144.412 173.701 151.895C173.618 153.574 173.692 155.41 173.694 157.146C173.695 158.967 175.575 161.586 173.649 162.91C171.49 164.291 170.168 162.175 169.101 160.544C168.508 160.987 167.945 161.372 167.319 161.765C163.827 163.956 158.404 164.293 156.034 160.292C155.857 159.955 155.714 159.601 155.606 159.236C155.201 157.836 155.319 156.414 156.023 155.128C157.538 152.364 161.02 152.132 163.821 151.524C165.487 151.176 167.139 150.764 168.774 150.289C168.536 146.536 166.937 146.195 163.467 146.597C161.863 146.784 160.829 147.983 160.076 149.325C159.114 151.038 156.61 150.484 156.296 148.636C156.145 147.707 156.7 146.453 157.313 145.722C158.911 143.811 161.318 143.296 163.672 143.031ZM161.374 159.377C163.473 160.81 166.554 159.882 167.96 157.941C168.63 157.015 168.928 154.464 168.734 153.377L168.686 153.336C167.056 153.876 165.373 154.187 163.706 154.56C162.575 154.813 161.186 155.177 160.638 156.312C160.088 157.451 160.525 158.561 161.374 159.377Z" fill="#FEFFFF"/>
<path d="M91.818 143.023C91.8582 143.021 91.8985 143.02 91.9388 143.02C94.0356 143.007 94.4049 144.688 94.3888 146.396C96.0328 144.34 97.6459 143.189 100.402 143.038C104.236 142.827 107.208 145.094 107.471 149.043C107.63 151.436 107.528 153.819 107.555 156.216C107.541 157.908 107.64 159.392 107.467 161.09C107.251 163.223 104.89 164.077 103.35 162.68C102.33 161.755 102.524 159.375 102.524 158.001L102.53 153.156C102.536 151.185 102.756 147.683 100.331 147.035C99.7259 146.873 98.9197 146.851 98.3048 146.976C97.6131 147.122 96.9689 147.438 96.4306 147.896C94.5285 149.507 94.7161 152.219 94.7151 154.533L94.7235 158.87C94.725 160.001 94.8309 161.392 94.1721 162.345C92.9532 164.099 90.1558 163.483 89.8302 161.321C89.6436 160.082 89.6878 159.029 89.6874 157.777L89.6869 152.799L89.6883 148.254C89.6877 146.129 89.1769 143.491 91.818 143.023Z" fill="#FEFFFF"/>
<path d="M119.019 143.035C121.246 142.776 124.692 143.619 126.353 145.154C127.371 146.095 128.206 147.746 127.102 148.951C126.697 149.393 126.088 149.581 125.506 149.587C123.962 149.6 123.264 148.212 122.321 147.251C121.516 146.419 120.507 146.215 119.397 146.218C118.137 146.202 116.245 146.783 116.308 148.342C116.314 149.3 117.36 149.873 118.159 150.153C119.864 150.752 121.672 151.059 123.4 151.612C125.824 152.387 128.531 153.817 128.601 156.718C128.62 158.305 128.194 159.82 127.074 160.983C125.108 163.024 122.369 163.271 119.714 163.365C117.292 163.253 115.233 162.938 113.2 161.353C111.439 159.98 110.257 156.385 113.464 155.981C114.601 155.837 115.349 157.129 115.86 157.929C116.901 159.56 118.583 160.228 120.476 160.109C123.341 160.209 125.366 157.055 122.014 155.645C118.696 154.28 111.914 153.935 111.686 149.13C111.484 144.845 115.486 143.222 119.019 143.035Z" fill="#FEFFFF"/>
<path d="M81.979 143.025C85.0847 142.95 84.6893 146.043 84.6913 148.163L84.6935 152.926L84.6918 157.984C84.69 160.143 85.157 162.981 82.3111 163.355C79.2443 163.481 79.675 159.875 79.6733 157.852L79.6713 153.007L79.6727 148.292C79.674 146.11 79.2055 143.454 81.979 143.025Z" fill="#FEFFFF"/>
<path d="M81.6919 135.814C83.0471 135.534 84.3705 136.413 84.6388 137.77C84.9073 139.128 84.0179 140.443 82.6583 140.701C81.3142 140.955 80.0165 140.078 79.7511 138.736C79.4858 137.395 80.3522 136.09 81.6919 135.814Z" fill="#FEFFFF"/>
<path d="M172.59 78.8867H172.645C173.128 78.9846 174.035 78.9399 174.564 78.9381L178.94 78.9222C179.897 78.9193 181.077 78.8438 181.99 79.0323C183.23 79.2886 184.009 80.4654 184.034 81.6896C184.061 83.0405 184.054 84.3876 184.053 85.7386L184.051 93.0978L184.049 115.578L184.049 126.834C184.052 128.603 184.135 130.602 183.957 132.339C183.856 133.328 182.547 134.481 181.556 134.443C179.779 134.485 178.008 134.464 176.237 134.462L166.117 134.459L160.221 134.461C157.814 134.469 155.345 135.019 154.646 132.048C154.718 131.124 154.671 129.454 154.671 128.483C154.679 126.436 154.674 124.389 154.655 122.341C154.704 121.533 154.662 120.244 154.663 119.409V113.538L154.662 95.3707L154.665 85.8062C154.665 85.0342 154.717 82.1143 154.624 81.5525C155.157 78.4001 157.578 78.9232 160.093 78.9247L168.855 78.9267C169.54 78.9268 172.046 78.9817 172.59 78.8867Z" fill="#00FE00" fill-opacity="0.988235"/>
<path d="M168.126 100.656L170.524 100.65V105.27L174.994 103.654C175.288 104.394 175.575 105.221 175.852 105.974C174.37 106.472 172.816 106.944 171.32 107.42L174.117 111.315C173.433 111.799 172.757 112.293 172.089 112.797L169.863 109.482L169.384 108.772L166.64 112.788L164.558 111.311L167.395 107.426C165.927 106.923 164.311 106.445 162.821 105.971C163.112 105.276 163.415 104.374 163.681 103.653C165.045 104.217 166.715 104.788 168.12 105.31L168.126 100.656Z" fill="#FEFFFF"/>
<path d="M154.479 127.725C154.379 129.196 153.604 130.906 151.938 131.087C150.97 131.193 149.855 131.125 148.866 131.12L143.068 131.118L132.997 131.122C131.454 131.124 129.11 131.204 127.63 131.096C127.23 131.063 126.848 130.917 126.528 130.675C125.523 129.926 125.098 128.596 125.084 127.384C125.066 125.863 125.097 124.339 125.098 122.817L125.098 111.516V94.5153L125.085 89.5025C125.074 87.4705 124.668 83.3988 127.677 83.0739C128.594 82.9748 129.934 83.0582 130.891 83.058L137.922 83.0558L147.172 83.0523C148.74 83.052 150.384 83.0145 151.945 83.091C153.56 83.17 154.323 84.9692 154.479 86.3904L154.472 112.668L154.473 122.703C154.474 124.272 154.422 126.176 154.479 127.725Z" fill="#00FE00" fill-opacity="0.988235"/>
<path d="M128.179 84.5046C129.609 84.4415 131.275 84.4809 132.731 84.4811L140.768 84.4835L147.432 84.4778C148.634 84.4763 149.833 84.4892 151.033 84.4948C152.126 84.4032 153.307 85.7331 153.455 86.7607C153.713 88.5482 153.599 90.7687 153.596 92.5916L153.595 102.638L153.594 118.736L153.6 123.536C153.608 125.751 154.051 128.96 151.303 129.691C149.907 129.746 148.324 129.711 146.908 129.711L139.133 129.71L132.418 129.713C131.2 129.715 129.962 129.76 128.745 129.702C128.377 129.685 128.033 129.666 127.696 129.503C126.969 129.151 126.456 128.411 126.2 127.664C125.781 126.434 125.982 120.585 125.982 118.894L125.983 105.253L125.984 93.7716C125.984 91.8293 125.956 89.8806 125.987 87.9386C126.012 86.3738 126.605 85.0153 128.179 84.5046Z" fill="#FEFFFF"/>
<path d="M138.582 100.688L140.952 100.688V105.31L145.461 103.722L146.29 106.01C144.844 106.517 143.242 107 141.775 107.476C142.717 108.733 143.65 110.078 144.566 111.359C143.932 111.845 143.19 112.351 142.534 112.82L140.31 109.509L139.833 108.81C138.998 109.906 137.903 111.643 137.104 112.826L135.008 111.358L137.834 107.475C136.341 106.973 134.794 106.496 133.291 106.013L134.118 103.725C135.59 104.275 137.098 104.804 138.577 105.339C138.609 103.823 138.582 102.212 138.582 100.688Z" fill="#00FE00"/>
<path d="M55 138.797C55.5008 135.941 57.3625 135.903 59.8895 136.036C64.3894 136.272 71.2541 134.864 74.1653 139.323C76.3713 142.702 75.9218 148.544 72.333 150.789C68.986 152.895 64.2988 152.452 60.4612 152.452L60.4683 157.481C60.4747 159.641 60.8842 163.307 57.7632 163.346C55.8878 163.369 55.3164 162.158 55 160.553V138.797ZM60.4655 148.328C62.8982 148.34 66.9674 148.703 68.8285 147.091C70.3174 145.697 70.3547 142.906 68.9894 141.408C68.0013 140.325 65.8993 140.146 64.4782 140.135L60.46 140.135L60.4655 148.328Z" fill="#FEFFFF"/>
<path d="M185.882 157.995C187.188 153.99 188.718 150.011 190.068 146.021C190.435 144.936 190.991 143.225 192.247 143.054C193.819 142.84 194.704 143.707 195 145.138V145.205C194.424 147.392 193.748 149.026 192.948 151.126L190.401 157.799L188.358 163.143C187.753 164.724 187.219 166.232 186.387 167.72C185.239 169.777 183.838 170.365 181.638 170.757H178.959C178.285 170.617 177.211 170.468 176.682 170.047C175.765 169.318 175.798 167.435 176.982 166.958C178.261 166.443 179.672 167.335 180.952 166.782C182.133 166.211 182.844 164.043 183.317 162.866C182.883 161.611 182.202 160.033 181.703 158.777L178.565 150.856C178.031 149.512 177.47 148.159 176.954 146.816C176.667 145.965 176.409 145.279 176.833 144.426C177.181 143.708 177.702 143.297 178.481 143.109C179.742 142.804 180.636 143.329 181.15 144.483C181.83 146.01 182.321 147.619 182.863 149.197L185.882 157.995Z" fill="#FEFFFF"/>
<path d="M154.479 86.3905L154.523 86.383C154.71 86.1561 154.431 82.1857 154.624 81.5527C154.717 82.1145 154.665 85.0344 154.665 85.8064L154.663 95.3709L154.663 113.538V119.409C154.663 120.245 154.704 121.533 154.655 122.342C154.509 123.458 154.639 126.309 154.606 127.578L154.479 127.725C154.422 126.176 154.474 124.272 154.473 122.703L154.473 112.668L154.479 86.3905Z" fill="#003D01" fill-opacity="0.168627"/>
<path d="M154.606 127.578C154.639 126.31 154.508 123.458 154.655 122.342C154.674 124.389 154.679 126.436 154.67 128.483C154.67 129.455 154.718 131.125 154.646 132.049C154.547 131.648 154.601 128.221 154.606 127.578Z" fill="#015401" fill-opacity="0.360784"/>
</svg>
