<svg width="250" height="250" viewBox="0 0 250 250" fill="none" xmlns="http://www.w3.org/2000/svg">
<mask id="path-1-inside-1_568_89" fill="white">
<path d="M0 125C0 55.9644 55.9644 0 125 0C194.036 0 250 55.9644 250 125C250 194.036 194.036 250 125 250C55.9644 250 0 194.036 0 125Z"/>
</mask>
<path d="M0 125C0 55.9644 55.9644 0 125 0C194.036 0 250 55.9644 250 125C250 194.036 194.036 250 125 250C55.9644 250 0 194.036 0 125Z" fill="white"/>
<path d="M0 125M250 125M250 125M0 125M125 0M250 125M125 250M0 125M125 250V248C57.069 248 2 192.931 2 125H0H-2C-2 195.14 54.8598 252 125 252V250ZM250 125H248C248 192.931 192.931 248 125 248V250V252C195.14 252 252 195.14 252 125H250ZM125 0V2C192.931 2 248 57.069 248 125H250H252C252 54.8598 195.14 -2 125 -2V0ZM125 0V-2C54.8598 -2 -2 54.8598 -2 125H0H2C2 57.069 57.069 2 125 2V0Z" fill="#DDDBDB" mask="url(#path-1-inside-1_568_89)"/>
<path d="M58 102.812L70.3503 122.15C80.5104 122.236 97.6985 123.052 105.84 121.237C110.125 120.281 114.195 118.601 116.329 116.236C119.744 112.451 121.223 109.91 122.227 104.247C123.052 99.5919 122.526 96.7548 120.299 91.9014L112.97 80.999L89.8062 82.0387L102.274 100.712L58 102.812Z" fill="url(#paint0_linear_568_89)"/>
<path d="M198 102.812L185.649 122.15C175.489 122.236 158.301 123.052 150.16 121.237C145.875 120.281 141.804 118.601 139.67 116.236C136.256 112.451 134.776 109.91 133.773 104.247C132.948 99.5919 133.474 96.7548 135.701 91.9014L143.03 80.999L166.194 82.0387L153.725 100.712L198 102.812Z" fill="url(#paint1_linear_568_89)"/>
<path d="M126.886 187.002L107.548 174.651C107.463 164.491 106.647 147.303 108.462 139.162C109.418 134.877 111.097 130.806 113.463 128.672C117.248 125.258 119.788 123.778 125.451 122.775C130.107 121.95 132.944 122.476 137.797 124.702L148.7 132.031L147.66 155.196L128.987 142.727L126.886 187.002Z" fill="url(#paint2_linear_568_89)"/>
<defs>
<linearGradient id="paint0_linear_568_89" x1="58" y1="101.703" x2="197.998" y2="101.703" gradientUnits="userSpaceOnUse">
<stop stop-color="#0BA293"/>
<stop offset="1" stop-color="#06FFBF"/>
</linearGradient>
<linearGradient id="paint1_linear_568_89" x1="57.9936" y1="101.703" x2="197.991" y2="101.703" gradientUnits="userSpaceOnUse">
<stop stop-color="#0BA293"/>
<stop offset="1" stop-color="#06FFBF"/>
</linearGradient>
<linearGradient id="paint2_linear_568_89" x1="127.996" y1="187.002" x2="127.996" y2="122.406" gradientUnits="userSpaceOnUse">
<stop stop-color="#0BA293"/>
<stop offset="1" stop-color="#06FFBF"/>
</linearGradient>
</defs>
</svg>
