<svg width="250" height="250" viewBox="0 0 250 250" fill="none" xmlns="http://www.w3.org/2000/svg">
<mask id="path-1-inside-1_453_47" fill="white">
<path d="M0 125C0 55.9644 55.9644 0 125 0C194.036 0 250 55.9644 250 125C250 194.036 194.036 250 125 250C55.9644 250 0 194.036 0 125Z"/>
</mask>
<path d="M0 125C0 55.9644 55.9644 0 125 0C194.036 0 250 55.9644 250 125C250 194.036 194.036 250 125 250C55.9644 250 0 194.036 0 125Z" fill="white"/>
<path d="M0 125M250 125M250 125M0 125M125 0M250 125M125 250M0 125M125 250V248C57.069 248 2 192.931 2 125H0H-2C-2 195.14 54.8598 252 125 252V250ZM250 125H248C248 192.931 192.931 248 125 248V250V252C195.14 252 252 195.14 252 125H250ZM125 0V2C192.931 2 248 57.069 248 125H250H252C252 54.8598 195.14 -2 125 -2V0ZM125 0V-2C54.8598 -2 -2 54.8598 -2 125H0H2C2 57.069 57.069 2 125 2V0Z" fill="#DDDBDB" mask="url(#path-1-inside-1_453_47)"/>
<path d="M152.32 124.028C135.921 124.028 122.557 137.386 122.557 153.778C122.557 170.17 135.921 183.528 152.32 183.528C168.718 183.528 182.082 170.17 182.082 153.778C182.082 137.337 168.718 124.028 152.32 124.028Z" fill="#122D97"/>
<path d="M82.2658 139.293C82.2658 107.586 108.063 81.7988 139.783 81.7988C165.874 81.7988 188 99.2672 195 123.146C194.07 85.3707 163.035 54.8867 125 54.8867C86.3777 54.8867 55 86.2515 55 124.858C55 163.416 86.3287 194.781 124.902 194.83C100.378 188.273 82.2658 165.862 82.2658 139.293Z" fill="#122D97"/>
<path d="M139.784 89.8188C112.518 89.8188 90.2947 111.985 90.2947 139.288C90.2947 166.2 111.882 188.121 138.658 188.757C124.658 183.277 114.721 169.674 114.721 153.772C114.721 133.074 131.561 116.193 152.316 116.193C170.134 116.193 185.064 128.621 188.931 145.307C189.176 143.349 189.274 141.343 189.274 139.288C189.274 112.033 167.05 89.8188 139.784 89.8188Z" fill="#122D97"/>
</svg>
