<svg width="250" height="250" viewBox="0 0 250 250" fill="none" xmlns="http://www.w3.org/2000/svg">
<path d="M0 125C0 55.9644 55.9644 0 125 0C194.036 0 250 55.9644 250 125C250 194.036 194.036 250 125 250C55.9644 250 0 194.036 0 125Z" fill="#BE0201"/>
<path d="M57.7505 63.8793C60.4122 63.7698 63.6275 63.8517 66.3317 63.8519H93.4511C95.3862 63.8504 97.3595 63.804 99.2931 63.8808C99.9512 63.9069 100.754 64.1453 101.268 64.5362C101.7 64.8641 102.133 65.4065 102.206 65.9592C102.4 67.5696 102.349 69.2769 102.344 70.9008V171.418C102.347 174.814 102.358 178.217 102.344 181.611C102.308 182.55 102.36 183.353 101.718 184.122C101.072 184.898 100.557 185.134 99.5935 185.259C99.373 185.276 99.09 185.282 98.8647 185.284C95.0413 185.303 91.2111 185.284 87.3878 185.288L83.3961 185.291C82.0211 185.292 80.1797 185.51 79.1896 184.476C78.6471 183.909 78.3375 183.281 78.2944 182.496C78.2241 181.22 78.246 179.94 78.2455 178.664L78.2511 84.6983C73.5664 84.601 68.8355 84.7461 64.1467 84.6868C62.149 84.6615 60.1432 84.7285 58.1463 84.6551C57.6537 84.5995 56.9067 84.5501 56.4714 84.2965C54.7798 83.3109 55.0387 81.17 55.0393 79.6288L55.0356 69.923C55.0356 67.3322 54.4742 64.4999 57.7505 63.8793Z" fill="#FEFEFE"/>
<path d="M106.675 64.4873C108.78 64.3891 111.101 64.4356 113.227 64.4347L185.945 64.4307C188.177 64.4307 194.343 64.0948 194.939 67.3527C195.049 67.9523 194.975 69.33 194.973 69.9961V79.2707C194.972 80.4036 194.999 82.0726 194.828 83.1744C193.171 85.4428 189.258 85.3163 186.79 85.3147L141.245 85.3151C138.419 85.3264 135.593 85.3175 132.767 85.2887C131.249 85.282 129.762 85.3317 128.244 85.2474C128.342 86.9417 128.3 89.0278 128.301 90.744L128.285 99.9643L128.276 160.987L128.29 174.252C128.3 177.114 128.323 179.983 128.25 182.841C128.21 184.034 127.82 184.8 126.774 185.41C125.917 185.953 125.164 185.953 124.202 185.921C122.441 185.863 120.657 185.883 118.895 185.884L110.842 185.883C109.462 185.889 108.03 185.95 106.661 185.88C105.244 185.806 104.323 184.235 104.265 182.936C104.177 180.961 104.2 178.996 104.2 177.023L104.166 90.2159L104.2 76.6388C104.199 73.771 104.176 70.904 104.23 68.035C104.256 66.6444 104.446 65.7583 105.621 64.8763C106.024 64.5737 106.172 64.5234 106.675 64.4873Z" fill="#1A0B8F"/>
<path d="M136.531 104.356C137.424 104.285 138.564 104.331 139.487 104.337L144.027 104.343L177.544 104.342L182.595 104.332C184.591 104.313 189.902 103.879 190.63 106.739C190.836 107.55 190.751 109.766 190.751 110.724L190.739 117.595C190.731 119.187 190.749 120.795 190.707 122.383C190.663 123.995 188.539 124.909 187.192 125.148C186.449 125.207 185.195 125.167 184.399 125.166L145.473 125.162L140.195 125.173C137.992 125.182 133.515 125.577 133.05 122.273C132.954 121.592 133.007 120.677 133.008 119.972L133.01 116.064C133.005 113.869 133.013 111.674 133.031 109.48C133.046 108.518 133.048 107.132 133.146 106.2C133.913 105.313 135.417 104.654 136.531 104.356Z" fill="#1A0B8F"/>
<path fill-rule="evenodd" clip-rule="evenodd" d="M179.615 167.007C183.013 167.011 187.646 166.736 190.73 168.321C192.349 169.154 192.849 171.267 191.816 172.735C191.349 173.446 190.783 173.806 190.044 174.194C192.547 174.869 195.243 176.765 194.308 179.593C192.635 184.655 184.561 183.905 180.416 183.927C178.567 183.938 176.78 183.988 175.074 183.904C174.961 181.615 174.925 178.599 174.986 176.282L174.813 176.181C173.79 176.289 172.495 176.298 171.459 176.266C169.074 176.192 166.541 176.374 164.172 176.241L164.163 180.572C164.167 181.525 164.216 182.964 164.088 183.859C162.758 183.909 161.365 183.943 160.036 183.868C159.974 181.996 159.846 167.778 160.16 167.195C161.227 166.933 163.337 167.009 164.524 167.009L170.079 167.013L179.615 167.007ZM186.345 176.236C184.553 176.131 182.862 176.215 181.078 176.195C180.544 176.19 179.601 176.233 179.104 176.184C179.077 177.86 179.075 179.537 179.101 181.214C182.007 181.219 186.877 181.578 189.235 180.249C189.701 179.876 190.116 179.513 190.173 178.879C190.361 176.789 187.9 176.327 186.345 176.236ZM164.178 169.809C164.153 171.006 164.147 172.204 164.163 173.401C164.853 173.43 165.562 173.448 166.252 173.435C169.103 173.382 171.973 173.487 174.821 173.467L174.984 173.528L175.005 169.829L164.178 169.809ZM179.084 169.727C179.084 170.978 179.068 172.262 179.109 173.51C181.396 173.395 185.567 173.868 187.369 172.715C187.783 172.351 188.029 172.102 188.085 171.528C188.235 169.955 185.64 169.798 184.565 169.76C182.746 169.698 180.904 169.793 179.084 169.727Z" fill="#FEFEFE"/>
<path d="M137.775 167.022C138.835 166.986 139.969 166.996 141.034 166.987C141.353 167.556 142.312 168.775 142.723 169.352C144.223 171.462 145.906 173.527 147.39 175.647C147.768 175.036 148.507 174.072 148.949 173.456L151.973 169.213C152.428 168.574 153.113 167.669 153.491 167.007C154.248 167.006 158.183 166.858 158.566 167.262C158.791 168.127 158.725 169.818 158.724 170.775L158.717 175.172L158.716 180.403C158.715 181.426 158.733 182.896 158.616 183.877C157.24 183.938 155.965 183.906 154.591 183.854C154.467 180.635 154.546 177.031 154.547 173.769C154.547 172.906 154.519 171.929 154.617 171.08C152.467 173.78 150.541 176.79 148.387 179.482C147.573 179.567 146.76 179.548 145.942 179.548C145.541 178.873 144.863 178.058 144.41 177.389C143.033 175.362 141.143 173.111 139.879 171.061C139.688 173.955 139.87 177.07 139.806 179.986C139.782 181.096 139.876 182.841 139.692 183.886C138.398 183.93 137.253 183.95 135.961 183.863C135.818 182.318 135.757 168.095 136.028 167.239C136.402 166.957 137.277 167.024 137.775 167.022Z" fill="#FEFEFE"/>
</svg>
