<svg width="250" height="250" viewBox="0 0 250 250" fill="none" xmlns="http://www.w3.org/2000/svg">
<path d="M0 125C0 55.9644 55.9644 0 125 0C194.036 0 250 55.9644 250 125C250 194.036 194.036 250 125 250C55.9644 250 0 194.036 0 125Z" fill="#BE0201"/>
<path d="M57.7515 63.8803C60.4132 63.7707 63.6285 63.8527 66.3326 63.8529H93.4521C95.3871 63.8514 97.3605 63.805 99.294 63.8818C99.9522 63.9079 100.755 64.1463 101.269 64.5372C101.701 64.8651 102.134 65.4075 102.207 65.9602C102.401 67.5706 102.35 69.2778 102.345 70.9018V171.419C102.348 174.815 102.359 178.218 102.345 181.612C102.309 182.551 102.361 183.354 101.719 184.123C101.073 184.899 100.558 185.135 99.5944 185.26C99.374 185.277 99.091 185.283 98.8657 185.285C95.0423 185.304 91.2121 185.285 87.3888 185.289L83.3971 185.292C82.0221 185.293 80.1807 185.511 79.1906 184.477C78.648 183.91 78.3385 183.282 78.2953 182.497C78.2251 181.221 78.247 179.941 78.2465 178.665L78.252 84.6993C73.5674 84.6019 68.8365 84.747 64.1477 84.6877C62.15 84.6624 60.1442 84.7295 58.1472 84.656C57.6546 84.6005 56.9077 84.551 56.4724 84.2975C54.7808 83.3119 55.0397 81.171 55.0403 79.6298L55.0366 69.924C55.0366 67.3332 54.4752 64.5008 57.7515 63.8803Z" fill="#FEFEFE"/>
<path d="M106.676 64.4883C108.781 64.3901 111.102 64.4365 113.228 64.4357L185.945 64.4317C188.178 64.4316 194.344 64.0958 194.94 67.3537C195.05 67.9533 194.976 69.331 194.974 69.9971V79.2716C194.973 80.4046 195 82.0736 194.829 83.1753C193.172 85.4437 189.259 85.3172 186.791 85.3157L141.246 85.316C138.42 85.3274 135.594 85.3185 132.768 85.2896C131.25 85.2829 129.763 85.3326 128.245 85.2484C128.343 86.9427 128.301 89.0288 128.302 90.7449L128.286 99.9653L128.277 160.988L128.291 174.253C128.301 177.114 128.324 179.984 128.251 182.842C128.211 184.035 127.821 184.801 126.774 185.411C125.918 185.954 125.165 185.954 124.203 185.922C122.442 185.864 120.658 185.884 118.896 185.885L110.843 185.884C109.463 185.89 108.031 185.951 106.662 185.881C105.245 185.807 104.324 184.236 104.266 182.937C104.178 180.962 104.201 178.997 104.201 177.024L104.167 90.2169L104.201 76.6398C104.2 73.772 104.177 70.905 104.231 68.036C104.257 66.6453 104.447 65.7593 105.622 64.8773C106.025 64.5747 106.173 64.5244 106.676 64.4883Z" fill="#1A0B8F"/>
<path d="M136.532 104.357C137.425 104.286 138.565 104.332 139.488 104.338L144.028 104.344L177.545 104.343L182.596 104.333C184.592 104.314 189.903 103.88 190.631 106.74C190.837 107.551 190.752 109.767 190.752 110.725L190.74 117.596C190.732 119.188 190.75 120.796 190.708 122.384C190.664 123.996 188.54 124.91 187.193 125.149C186.45 125.208 185.196 125.168 184.4 125.167L145.474 125.163L140.196 125.174C137.993 125.183 133.516 125.578 133.051 122.274C132.955 121.593 133.008 120.678 133.009 119.973L133.011 116.065C133.006 113.87 133.014 111.675 133.032 109.481C133.047 108.519 133.049 107.133 133.147 106.201C133.914 105.314 135.418 104.655 136.532 104.357Z" fill="#1A0B8F"/>
<path fill-rule="evenodd" clip-rule="evenodd" d="M179.616 167.008C183.014 167.012 187.647 166.737 190.731 168.322C192.35 169.155 192.85 171.268 191.817 172.736C191.35 173.447 190.784 173.807 190.045 174.195C192.548 174.87 195.244 176.766 194.309 179.594C192.636 184.656 184.562 183.906 180.417 183.928C178.568 183.939 176.781 183.989 175.075 183.905C174.962 181.616 174.926 178.6 174.987 176.283L174.813 176.182C173.791 176.29 172.496 176.299 171.46 176.267C169.075 176.193 166.542 176.375 164.173 176.242L164.164 180.573C164.168 181.526 164.217 182.965 164.089 183.86C162.759 183.91 161.366 183.944 160.037 183.869C159.975 181.997 159.847 167.779 160.16 167.196C161.228 166.934 163.338 167.01 164.525 167.01L170.08 167.014L179.616 167.008ZM186.346 176.237C184.554 176.131 182.863 176.216 181.079 176.196C180.545 176.191 179.602 176.234 179.105 176.185C179.078 177.861 179.076 179.538 179.102 181.214C182.008 181.22 186.878 181.579 189.236 180.25C189.702 179.877 190.117 179.514 190.174 178.88C190.362 176.79 187.901 176.328 186.346 176.237ZM164.179 169.81C164.154 171.007 164.148 172.205 164.164 173.402C164.854 173.431 165.563 173.449 166.253 173.436C169.104 173.383 171.974 173.488 174.822 173.468L174.985 173.529L175.006 169.83L164.179 169.81ZM179.085 169.728C179.085 170.979 179.069 172.263 179.11 173.511C181.397 173.396 185.568 173.869 187.37 172.716C187.784 172.352 188.03 172.103 188.086 171.529C188.236 169.956 185.641 169.799 184.566 169.761C182.747 169.699 180.905 169.794 179.085 169.728Z" fill="#FEFEFE"/>
<path d="M137.776 167.023C138.836 166.987 139.97 166.997 141.034 166.988C141.354 167.557 142.313 168.776 142.724 169.353C144.224 171.463 145.907 173.528 147.391 175.648C147.769 175.037 148.508 174.073 148.95 173.457L151.974 169.214C152.429 168.574 153.114 167.67 153.492 167.008C154.249 167.007 158.184 166.859 158.567 167.263C158.792 168.128 158.726 169.819 158.725 170.776L158.718 175.173L158.717 180.404C158.716 181.427 158.734 182.897 158.617 183.878C157.241 183.939 155.966 183.907 154.592 183.855C154.468 180.636 154.547 177.032 154.548 173.77C154.548 172.907 154.52 171.93 154.618 171.081C152.468 173.781 150.542 176.791 148.388 179.483C147.574 179.568 146.761 179.549 145.943 179.549C145.542 178.874 144.864 178.059 144.41 177.39C143.034 175.363 141.144 173.112 139.88 171.062C139.689 173.956 139.871 177.071 139.807 179.987C139.783 181.097 139.877 182.842 139.693 183.887C138.399 183.931 137.254 183.951 135.962 183.864C135.819 182.319 135.758 168.096 136.029 167.24C136.403 166.958 137.278 167.025 137.776 167.023Z" fill="#FEFEFE"/>
</svg>
