<svg width="250" height="250" viewBox="0 0 250 250" fill="none" xmlns="http://www.w3.org/2000/svg">
<path d="M0 125C0 55.9644 55.9644 0 125 0C194.036 0 250 55.9644 250 125C250 194.036 194.036 250 125 250C55.9644 250 0 194.036 0 125Z" fill="white"/>
<path fill-rule="evenodd" clip-rule="evenodd" d="M167.687 54.8867C167.594 56.5051 167.656 58.7538 167.658 60.401C167.675 64.2919 167.672 68.1831 167.649 72.074C174.414 72.0662 179.571 71.7761 184.847 77.1044C188.969 81.2675 189.912 85.1635 189.916 90.8667L189.914 163.067C189.917 165.627 190.057 170.232 189.643 172.595C189.044 176.092 187.354 179.31 184.815 181.789C179.182 187.381 173.427 186.843 166.223 186.782C165.621 186.777 165.019 186.769 164.415 186.756C164.455 189.441 164.425 192.167 164.477 194.833L142.895 194.842C139.258 194.842 135.011 194.948 131.406 194.822C126.222 194.954 120.474 194.843 115.254 194.843L84.3415 194.845C84.3212 192.324 84.3564 189.862 84.2713 187.335C84.9233 187.35 85.5758 187.351 86.228 187.339C91.74 187.205 95.81 185.588 99.7968 181.603C101.654 179.748 103.902 175.69 104.201 173.121C104.518 170.399 104.38 166.141 104.375 163.251L104.38 95.113C104.38 92.8248 104.43 90.4514 104.355 88.1747C104.114 80.7652 97.8861 74.2228 90.8207 72.5672C88.3784 71.9949 86.2248 72.0008 83.7432 72.0862C81.7162 72.1007 79.4124 72.1566 77.3999 72.0817C78.2576 71.9369 81.7014 71.9999 82.6732 72.003C82.6845 66.5794 82.8412 60.2403 82.6302 54.9033L167.687 54.8867ZM157.378 138.501C153.251 138.569 149.04 138.393 144.923 138.524L144.936 159.44L144.932 165.938C144.931 168.425 144.853 171.174 145.434 173.587C146.148 176.53 147.67 179.214 149.828 181.336C153.016 184.534 157.356 186.318 161.871 186.288C162.436 186.287 163.312 186.24 163.879 186.166C163.986 184.645 163.914 182.299 163.912 180.737L163.908 138.545C161.771 138.476 159.521 138.465 157.378 138.501ZM160.439 71.9909C156.356 72.2627 151.802 74.6244 149.104 77.7071C147.216 79.8557 145.914 82.4552 145.323 85.2543C144.874 87.433 144.93 90.045 144.929 92.2867L144.936 123.004L163.9 123.002L163.911 84.4556C163.911 83.008 164.08 73.0715 163.819 72.2294L163.66 72.0943C162.586 72.0251 161.517 72.06 160.439 71.9909Z" fill="#1B1463"/>
<path d="M167.687 54.8867L82.6296 54.9033C82.8406 60.2403 82.6843 66.5792 82.6729 72.0028L83.7428 72.0861C86.2243 72.0008 88.378 71.9947 90.8203 72.5671C97.8857 74.2226 104.114 80.7651 104.355 88.1746C104.429 90.4514 104.38 92.8247 104.379 95.113L104.374 107.614L104.37 145.1L104.374 163.251C104.38 166.141 104.518 170.399 104.201 173.121C103.901 175.69 101.654 179.748 99.7964 181.603C95.8095 185.588 91.7395 187.205 86.2273 187.339C85.5751 187.351 84.9229 187.35 84.2709 187.335C84.3559 189.862 84.3207 192.324 84.3411 194.845L115.253 194.843C120.473 194.843 126.222 194.954 131.405 194.821L131.403 71.4989L149.32 71.4943C152.191 71.4941 157.829 71.3186 160.371 71.8581L160.439 71.9907C161.517 72.0598 162.586 72.0251 163.66 72.0942L163.591 71.9966C164.869 72.1665 166.334 72.0711 167.648 72.074C167.671 68.183 167.674 64.2921 167.657 60.4011C167.655 58.754 167.594 56.5051 167.687 54.8867Z" fill="#C7B199"/>
<path d="M77.4001 72.082C79.4126 72.1569 81.7164 72.101 83.7434 72.0865L83.7413 186.817C82.0278 186.771 80.1528 186.757 78.4308 186.789C69.6809 186.948 61.8055 180.079 61.1264 171.289C60.9463 168.959 61.0137 166.515 61.0169 164.15L61.0219 153.853L61.0197 120.636L61.0168 98.3578L61.0162 91.9573C61.0187 86.4499 61.3897 82.3283 65.2639 77.9422C68.4728 74.3093 72.582 72.4129 77.4001 72.082Z" fill="#1B1463"/>
</svg>
