<svg width="250" height="250" viewBox="0 0 250 250" fill="none" xmlns="http://www.w3.org/2000/svg">
<mask id="path-1-inside-1_453_374" fill="white">
<path d="M0 125C0 55.9644 55.9644 0 125 0C194.036 0 250 55.9644 250 125C250 194.036 194.036 250 125 250C55.9644 250 0 194.036 0 125Z"/>
</mask>
<path d="M0 125C0 55.9644 55.9644 0 125 0C194.036 0 250 55.9644 250 125C250 194.036 194.036 250 125 250C55.9644 250 0 194.036 0 125Z" fill="white"/>
<path d="M0 125M250 125M250 125M0 125M125 0M250 125M125 250M0 125M125 250V248C57.069 248 2 192.931 2 125H0H-2C-2 195.14 54.8598 252 125 252V250ZM250 125H248C248 192.931 192.931 248 125 248V250V252C195.14 252 252 195.14 252 125H250ZM125 0V2C192.931 2 248 57.069 248 125H250H252C252 54.8598 195.14 -2 125 -2V0ZM125 0V-2C54.8598 -2 -2 54.8598 -2 125H0H2C2 57.069 57.069 2 125 2V0Z" fill="#DDDBDB" mask="url(#path-1-inside-1_453_374)"/>
<path fill-rule="evenodd" clip-rule="evenodd" d="M167.685 54.8867C167.593 56.5051 167.655 58.7538 167.657 60.401C167.673 64.2919 167.67 68.1831 167.647 72.074C174.412 72.0662 179.57 71.7761 184.846 77.1044C188.968 81.2675 189.911 85.1635 189.915 90.8667L189.913 163.067C189.916 165.627 190.055 170.232 189.642 172.595C189.043 176.092 187.352 179.31 184.814 181.789C179.18 187.381 173.426 186.843 166.222 186.782C165.619 186.777 165.017 186.769 164.414 186.756C164.453 189.441 164.424 192.167 164.476 194.833L142.894 194.842C139.256 194.842 135.009 194.948 131.404 194.822C126.221 194.954 120.472 194.843 115.252 194.843L84.34 194.845C84.3197 192.324 84.3549 189.862 84.2699 187.335C84.9219 187.35 85.5743 187.351 86.2265 187.339C91.7385 187.205 95.8085 185.588 99.7954 181.603C101.652 179.748 103.9 175.69 104.199 173.121C104.516 170.399 104.379 166.141 104.373 163.251L104.378 95.113C104.379 92.8248 104.428 90.4514 104.354 88.1747C104.113 80.7652 97.8847 74.2228 90.8192 72.5672C88.3769 71.9949 86.2233 72.0008 83.7418 72.0862C81.7148 72.1007 79.411 72.1566 77.3984 72.0817C78.2562 71.9369 81.6999 71.9999 82.6718 72.003C82.6831 66.5794 82.8398 60.2403 82.6288 54.9033L167.685 54.8867ZM157.376 138.501C153.25 138.569 149.039 138.393 144.922 138.524L144.934 159.44L144.93 165.938C144.929 168.425 144.851 171.174 145.433 173.587C146.146 176.53 147.668 179.214 149.827 181.336C153.015 184.534 157.354 186.318 161.87 186.288C162.435 186.287 163.31 186.24 163.877 186.166C163.984 184.645 163.913 182.299 163.91 180.737L163.906 138.545C161.769 138.476 159.519 138.465 157.376 138.501ZM160.438 71.9909C156.355 72.2627 151.801 74.6244 149.103 77.7071C147.214 79.8557 145.912 82.4552 145.321 85.2543C144.873 87.433 144.929 90.045 144.928 92.2867L144.935 123.004L163.898 123.002L163.91 84.4556C163.91 83.008 164.078 73.0715 163.818 72.2294L163.659 72.0943C162.585 72.0251 161.515 72.06 160.438 71.9909Z" fill="#1B1463"/>
<path d="M167.686 54.8867L82.6289 54.9033C82.8399 60.2403 82.6835 66.5792 82.6722 72.0028L83.742 72.0861C86.2236 72.0008 88.3773 71.9947 90.8196 72.5671C97.885 74.2226 104.113 80.7651 104.354 88.1746C104.428 90.4514 104.379 92.8247 104.379 95.113L104.373 107.614L104.37 145.1L104.374 163.251C104.379 166.141 104.517 170.399 104.2 173.121C103.901 175.69 101.653 179.748 99.7957 181.603C95.8088 185.588 91.7387 187.205 86.2266 187.339C85.5744 187.351 84.9221 187.35 84.2701 187.335C84.3552 189.862 84.32 192.324 84.3403 194.845L115.253 194.843C120.472 194.843 126.221 194.954 131.405 194.821L131.402 71.4989L149.319 71.4943C152.19 71.4941 157.829 71.3186 160.371 71.8581L160.438 71.9907C161.516 72.0598 162.585 72.0251 163.659 72.0942L163.591 71.9966C164.869 72.1665 166.333 72.0711 167.647 72.074C167.67 68.183 167.673 64.2921 167.657 60.4011C167.655 58.754 167.593 56.5051 167.686 54.8867Z" fill="#C7B199"/>
<path d="M77.3981 72.0815C79.4107 72.1564 81.7145 72.1005 83.7415 72.086L83.7394 186.817C82.0259 186.771 80.1508 186.756 78.4289 186.789C69.6789 186.947 61.8035 180.079 61.1244 171.289C60.9444 168.959 61.0118 166.515 61.015 164.149L61.02 153.853L61.0178 120.635L61.0149 98.3573L61.0143 91.9568C61.0167 86.4494 61.3878 82.3278 65.262 77.9417C68.4708 74.3088 72.58 72.4124 77.3981 72.0815Z" fill="#1B1463"/>
</svg>
