<svg width="250" height="250" viewBox="0 0 250 250" fill="none" xmlns="http://www.w3.org/2000/svg">
<mask id="path-1-inside-1_453_43" fill="white">
<path d="M0 125C0 55.9644 55.9644 0 125 0C194.036 0 250 55.9644 250 125C250 194.036 194.036 250 125 250C55.9644 250 0 194.036 0 125Z"/>
</mask>
<path d="M0 125C0 55.9644 55.9644 0 125 0C194.036 0 250 55.9644 250 125C250 194.036 194.036 250 125 250C55.9644 250 0 194.036 0 125Z" fill="white"/>
<path d="M0 125M250 125M250 125M0 125M125 0M250 125M125 250M0 125M125 250V248C57.069 248 2 192.931 2 125H0H-2C-2 195.14 54.8598 252 125 252V250ZM250 125H248C248 192.931 192.931 248 125 248V250V252C195.14 252 252 195.14 252 125H250ZM125 0V2C192.931 2 248 57.069 248 125H250H252C252 54.8598 195.14 -2 125 -2V0ZM125 0V-2C54.8598 -2 -2 54.8598 -2 125H0H2C2 57.069 57.069 2 125 2V0Z" fill="#DDDBDB" mask="url(#path-1-inside-1_453_43)"/>
<path d="M87.9446 119.884C91.6178 119.686 95.7124 119.882 99.4057 119.937C100.575 119.955 101.352 120.928 102.004 121.786C102.154 123.078 102.081 125.27 102.071 126.61L102.027 134.522L102.037 162.663C103.767 162.641 105.497 162.664 107.226 162.73C107.166 156.104 107.14 149.478 107.149 142.852C107.133 139.699 106.974 136.078 107.24 132.904C107.322 131.932 108.452 130.84 109.536 130.796C111.899 130.701 114.354 130.976 116.728 130.862C118.961 130.845 122.983 130.165 123.098 133.336C123.249 136.521 123.155 139.703 123.154 142.88C123.178 149.47 123.157 156.059 123.092 162.649L128.209 162.769C127.973 153.308 128.368 143.74 128.197 134.268C128.167 132.592 128.44 131.989 129.609 130.866C130.803 130.717 133.06 130.842 134.377 130.836C136.642 130.825 138.994 130.816 141.258 130.883C142.659 130.924 143.132 131.36 143.997 132.36C144.294 133.82 144.112 140.041 144.105 141.92L144.103 162.643C145.738 162.636 147.556 162.723 149.203 162.77C149.273 156.771 149.22 150.677 149.219 144.673L149.198 129.622C149.194 127.123 149.108 124.455 149.323 121.967C149.474 120.751 150.793 119.807 151.98 119.85C155.453 119.996 159.089 119.637 162.528 120.029C165.77 120.398 165.081 124.306 165.063 126.6L165.026 134.112C165.029 143.606 164.926 153.264 165.055 162.734C170.996 162.749 171.555 161.633 171.28 168.602C171.186 170.987 170.687 171.442 168.265 171.472C161.037 171.56 153.804 171.519 146.575 171.519L108.121 171.53L89.2498 171.526C87.0504 171.527 82.0805 171.713 80.2053 171.432C78.9872 170.526 79.0533 164.188 79.8588 163.074C80.915 162.296 84.7926 162.679 86.3425 162.739C86.2461 152.813 86.2136 142.887 86.2447 132.961C86.2453 130.802 86.2326 128.643 86.2067 126.484C86.1837 124.046 85.6499 121.408 87.9446 119.884Z" fill="#0D045A"/>
<path d="M125.643 62.3833C125.871 62.4197 190.246 109.745 195.469 113.609C190.162 113.617 184.702 113.71 179.411 113.62C178.602 113.152 176.789 111.729 175.936 111.123C172.759 108.854 169.604 106.557 166.469 104.231C156.23 96.6229 145.94 89.0837 135.6 81.614C133.281 79.9673 130.997 78.1017 128.626 76.4973C127.713 75.8797 126.517 74.8958 125.563 74.4151C124.839 74.7812 123.682 75.6931 122.99 76.2067C110.873 85.1948 98.4021 94.1865 86.2255 103.047L78.2391 108.857C76.0733 110.456 73.7693 112.273 71.4413 113.614C66.9345 113.632 59.7303 113.409 55.4688 113.777C56.932 112.304 60.3255 110.033 62.1807 108.678L75.0937 99.2621L105.253 77.3094C111.944 72.4525 119.106 67.3767 125.643 62.3833Z" fill="#0D045A"/>
<path d="M73.1421 172.249C75.3836 172.164 78.7005 172.345 80.9944 172.395C84.7815 172.473 88.5693 172.5 92.3571 172.476L141.021 172.518C152.139 172.534 163.263 172.577 174.376 172.22C175.659 172.179 177.042 172.235 178.31 172.385C179.033 172.901 179.208 173.033 179.795 173.72C179.884 175.403 179.987 178.177 179.673 179.802C179.534 180.522 179.129 180.761 178.54 181.101C177.097 181.433 170.254 181.305 168.325 181.304L146.045 181.302L96.1121 181.304L80.43 181.309C78.249 181.314 76.0779 181.376 73.8861 181.39C71.7995 181.403 71.9601 179.741 71.9237 178.098C71.8914 176.645 71.9089 175.128 71.9829 173.667C72.347 173.062 72.5919 172.687 73.1421 172.249Z" fill="#0D045A"/>
<path d="M124.796 86.7197C127.547 86.5804 130.297 87.0157 132.871 87.9981C136.34 89.3457 140.855 92.7597 142.386 96.2453C141.344 96.293 138.335 96.2871 137.709 96.9058C137.413 97.7638 138.216 97.7268 138.356 98.4999C137.485 99.5083 128.163 107.074 127.124 107.652C126.143 106.227 125.502 105.538 124.394 104.249C122.59 105.459 121.227 106.525 119.551 107.888C117.257 109.83 114.959 111.774 112.579 113.609C111.329 114.573 110.085 115.541 108.919 116.605C107.913 114.718 106.988 112.701 106.506 110.583C104.255 100.707 109.706 91.2519 119.098 87.7338C120.919 87.0517 122.853 86.8416 124.796 86.7197Z" fill="#D30400"/>
<path d="M111.682 98.8912C114.009 98.8092 116.338 98.7921 118.666 98.8399C118.63 101.286 118.639 103.732 118.694 106.178C117.774 107.17 116.697 108.046 115.664 108.924C114.335 110.073 113.098 111.12 111.604 112.056C111.763 108.461 111.786 102.487 111.682 98.8912Z" fill="#FFFEFF"/>
<path d="M120.775 94.2378C122.651 94.3408 125.521 94.2679 127.519 94.2987C127.37 96.7886 127.607 101.251 127.58 104.032C126.685 103.444 126.386 103.159 125.773 102.319C125.59 101.942 125.482 101.579 125.05 101.515C123.69 102.695 122.017 103.943 120.77 105.115C120.906 101.753 120.763 97.6869 120.775 94.2378Z" fill="#FFFEFF"/>
<path d="M134.935 93.5969L136.646 93.5718L136.594 98.5626C135.807 99.5032 132.067 102.291 130.937 103.112C130.526 103.401 129.978 103.695 129.535 103.95C129.726 102.205 129.688 95.5889 129.574 93.6672L134.935 93.5969Z" fill="#FFFEFF"/>
<path d="M143.547 98.8877C143.729 98.9394 143.845 99.0353 144.002 99.1409C144.745 100.535 145.021 103.328 145.091 104.923C145.329 110.37 143.432 115.79 139.657 119.776C136.193 123.453 131.399 125.59 126.349 125.707C120.514 125.841 115.769 123.953 111.566 119.947L109.35 117.296C111.296 116.621 114.726 114.187 116.557 113.013C118.581 111.715 120.738 110.36 122.741 109.041C123.769 110.802 124.96 111.896 126.363 113.381C129.172 110.965 132.237 108.654 135.086 106.126C136.6 104.783 139.607 102.15 141.069 101.078L141.215 101.246C141.637 101.727 141.913 102.19 142.517 102.229C142.933 101.781 142.633 100.436 143.547 98.8877Z" fill="#D30400"/>
</svg>
