<svg width="250" height="250" viewBox="0 0 250 250" fill="none" xmlns="http://www.w3.org/2000/svg">
<path d="M0 125C0 55.9644 55.9644 0 125 0C194.036 0 250 55.9644 250 125C250 194.036 194.036 250 125 250C55.9644 250 0 194.036 0 125Z" fill="white"/>
<path d="M87.9444 119.884C91.6175 119.685 95.7122 119.881 99.4054 119.937C100.574 119.955 101.352 120.927 102.004 121.786C102.154 123.078 102.081 125.27 102.071 126.609L102.027 134.522L102.037 162.663C103.767 162.641 105.497 162.663 107.226 162.73C107.166 156.104 107.14 149.477 107.149 142.851C107.133 139.699 106.974 136.077 107.24 132.903C107.322 131.932 108.452 130.839 109.535 130.796C111.899 130.7 114.353 130.976 116.728 130.862C118.96 130.845 122.982 130.165 123.097 133.335C123.249 136.52 123.155 139.702 123.154 142.879C123.177 149.469 123.157 156.059 123.092 162.648L128.209 162.768C127.973 153.307 128.367 143.74 128.197 134.268C128.167 132.591 128.439 131.988 129.609 130.865C130.803 130.717 133.06 130.842 134.377 130.836C136.642 130.825 138.994 130.815 141.258 130.882C142.659 130.924 143.132 131.36 143.997 132.359C144.293 133.82 144.112 140.041 144.105 141.919L144.103 162.643C145.738 162.636 147.556 162.723 149.203 162.769C149.273 156.77 149.22 150.677 149.219 144.672L149.197 129.621C149.194 127.123 149.108 124.455 149.323 121.967C149.474 120.75 150.793 119.807 151.98 119.849C155.453 119.995 159.089 119.637 162.528 120.028C165.77 120.397 165.08 124.306 165.063 126.6L165.026 134.112C165.028 143.606 164.926 153.263 165.055 162.734C170.995 162.748 171.554 161.632 171.279 168.602C171.185 170.987 170.687 171.442 168.264 171.471C161.037 171.56 153.803 171.518 146.575 171.518L108.121 171.529L89.2496 171.525C87.0502 171.527 82.0803 171.712 80.2051 171.431C78.9869 170.525 79.0531 164.187 79.8586 163.073C80.9148 162.296 84.7923 162.679 86.3423 162.739C86.2459 152.813 86.2133 142.886 86.2444 132.96C86.2451 130.801 86.2324 128.642 86.2064 126.484C86.1835 124.046 85.6497 121.408 87.9444 119.884Z" fill="#0D045A"/>
<path d="M125.643 62.3828C125.872 62.4192 190.247 109.744 195.469 113.608C190.163 113.617 184.703 113.71 179.412 113.619C178.602 113.151 176.79 111.729 175.937 111.122C172.76 108.854 169.604 106.556 166.469 104.231C156.231 96.6224 145.941 89.0832 135.601 81.6135C133.282 79.9669 130.998 78.1012 128.626 76.4968C127.714 75.8792 126.518 74.8953 125.563 74.4146C124.84 74.7807 123.683 75.6926 122.991 76.2062C110.874 85.1944 98.4029 94.186 86.2262 103.046L78.2399 108.857C76.074 110.455 73.77 112.272 71.442 113.614C66.9353 113.631 59.731 113.408 55.4695 113.776C56.9327 112.303 60.3262 110.032 62.1814 108.678L75.0944 99.2616L105.254 77.309C111.945 72.4521 119.107 67.3762 125.643 62.3828Z" fill="#0D045A"/>
<path d="M73.1425 172.249C75.3841 172.164 78.701 172.345 80.9949 172.395C84.782 172.473 88.5698 172.5 92.3576 172.476L141.021 172.518C152.14 172.534 163.263 172.577 174.377 172.22C175.659 172.179 177.042 172.235 178.31 172.385C179.034 172.901 179.208 173.033 179.795 173.72C179.885 175.403 179.987 178.177 179.673 179.802C179.534 180.522 179.13 180.761 178.541 181.101C177.097 181.433 170.255 181.305 168.326 181.304L146.045 181.302L96.1126 181.304L80.4305 181.309C78.2495 181.314 76.0784 181.376 73.8866 181.39C71.8 181.403 71.9606 179.741 71.9242 178.098C71.8919 176.645 71.9094 175.128 71.9834 173.667C72.3475 173.062 72.5924 172.687 73.1425 172.249Z" fill="#0D045A"/>
<path d="M124.796 86.7188C127.547 86.5794 130.297 87.0147 132.87 87.9971C136.34 89.3448 140.854 92.7588 142.386 96.2443C141.343 96.292 138.335 96.2861 137.709 96.9048C137.413 97.7628 138.216 97.7259 138.355 98.499C137.484 99.5073 128.162 107.073 127.124 107.651C126.143 106.226 125.501 105.538 124.393 104.248C122.589 105.458 121.226 106.524 119.551 107.887C117.257 109.829 114.959 111.773 112.578 113.608C111.329 114.572 110.084 115.54 108.918 116.604C107.913 114.717 106.987 112.7 106.505 110.582C104.255 100.706 109.705 91.2509 119.098 87.7328C120.919 87.0507 122.853 86.8406 124.796 86.7188Z" fill="#D30400"/>
<path d="M111.683 98.8903C114.01 98.8082 116.338 98.7911 118.666 98.8389C118.63 101.285 118.64 103.731 118.695 106.177C117.774 107.169 116.697 108.045 115.665 108.923C114.335 110.072 113.099 111.119 111.604 112.055C111.763 108.46 111.787 102.486 111.683 98.8903Z" fill="#FFFEFF"/>
<path d="M120.776 94.2363C122.652 94.3394 125.522 94.2664 127.52 94.2973C127.371 96.7871 127.608 101.25 127.581 104.03C126.686 103.442 126.387 103.157 125.774 102.317C125.591 101.941 125.483 101.578 125.051 101.514C123.691 102.694 122.018 103.941 120.771 105.114C120.907 101.752 120.764 97.6855 120.776 94.2363Z" fill="#FFFEFF"/>
<path d="M134.935 93.5955L136.647 93.5703L136.594 98.5611C135.808 99.5017 132.067 102.289 130.937 103.111C130.526 103.4 129.979 103.694 129.536 103.948C129.727 102.204 129.688 95.5875 129.574 93.6657L134.935 93.5955Z" fill="#FFFEFF"/>
<path d="M143.547 98.8867C143.729 98.9384 143.845 99.0344 144.002 99.1399C144.745 100.534 145.021 103.327 145.091 104.922C145.329 110.369 143.432 115.789 139.657 119.775C136.193 123.452 131.399 125.589 126.349 125.706C120.514 125.84 115.769 123.952 111.566 119.946L109.35 117.295C111.296 116.62 114.726 114.186 116.557 113.012C118.581 111.714 120.738 110.359 122.741 109.04C123.769 110.801 124.96 111.895 126.363 113.38C129.172 110.964 132.237 108.653 135.086 106.125C136.6 104.782 139.607 102.149 141.069 101.077L141.215 101.245C141.637 101.726 141.913 102.189 142.517 102.228C142.933 101.78 142.633 100.435 143.547 98.8867Z" fill="#D30400"/>
</svg>
