<svg width="250" height="250" viewBox="0 0 250 250" fill="none" xmlns="http://www.w3.org/2000/svg">
<mask id="path-1-inside-1_453_42" fill="white">
<path d="M0 125C0 55.9644 55.9644 0 125 0C194.036 0 250 55.9644 250 125C250 194.036 194.036 250 125 250C55.9644 250 0 194.036 0 125Z"/>
</mask>
<path d="M0 125C0 55.9644 55.9644 0 125 0C194.036 0 250 55.9644 250 125C250 194.036 194.036 250 125 250C55.9644 250 0 194.036 0 125Z" fill="white"/>
<path d="M0 125M250 125M250 125M0 125M125 0M250 125M125 250M0 125M125 250V248C57.069 248 2 192.931 2 125H0H-2C-2 195.14 54.8598 252 125 252V250ZM250 125H248C248 192.931 192.931 248 125 248V250V252C195.14 252 252 195.14 252 125H250ZM125 0V2C192.931 2 248 57.069 248 125H250H252C252 54.8598 195.14 -2 125 -2V0ZM125 0V-2C54.8598 -2 -2 54.8598 -2 125H0H2C2 57.069 57.069 2 125 2V0Z" fill="#DDDBDB" mask="url(#path-1-inside-1_453_42)"/>
<path d="M102.569 189.803L102.483 189.762C101.314 189.224 99.3078 188.939 98.0333 188.636C91.5866 187.111 86.4981 183.806 81.9924 179.041C79.8243 176.748 78.58 174.091 76.9756 171.455C73.2591 165.35 69.8154 159.032 66.2632 152.832L60.0798 142.11C58.7173 139.717 58.5153 140.043 57.3947 137.188C54.1405 128.895 54.1711 119.867 57.6813 111.662C58.3473 110.106 59.7254 107.922 60.6103 106.41L65.7152 97.6558C67.0504 95.3167 68.3087 92.9498 69.6038 90.5921C70.3097 89.3071 71.3838 87.9595 72.074 86.6493C73.9191 83.1469 75.8859 79.7038 77.9953 76.3549C78.8107 75.0603 80.0072 72.6948 81.0678 71.6307C82.3526 70.3417 84.5072 67.8989 85.8447 66.8307C88.1282 65.007 92.1528 62.8603 94.8675 61.7547C96.9714 60.8978 100.49 60.1894 102.731 60.0283C105.524 59.8274 108.702 59.8993 111.528 59.899L139.069 59.9022C145.177 59.8967 150.308 59.6537 156.089 62.2158C161.563 64.6416 165.549 67.525 169.35 72.1953C170.764 73.8928 172.303 76.8579 173.439 78.8689L178.544 87.7538C179.485 89.3768 180.526 90.9282 181.459 92.5711C182.653 94.6766 183.795 96.8073 184.986 98.9143C185.541 99.8976 186.366 100.951 186.895 101.92C188.041 104.026 189.21 106.096 190.374 108.19C191.128 109.544 192.338 111.586 192.864 112.994C195.803 120.861 195.766 129.965 192.4 137.691C191.745 139.195 190.537 140.901 189.764 142.391C187.999 145.796 186.02 149.032 184.041 152.311C183.167 153.76 182.416 155.384 181.559 156.853C180.91 157.968 180.165 159.003 179.518 160.112L173.411 170.707C172.017 173.143 170.582 176.07 168.721 178.168C165.101 182.25 160.811 185.682 155.602 187.482C154.493 187.866 153.604 188.204 152.453 188.507C151.425 188.777 148.328 189.346 147.542 189.803H102.569ZM145.797 186.241C152.652 185.867 159.578 182.67 164.429 177.729C168.031 174.06 170.45 168.953 172.957 164.513L179.187 153.721L185.108 143.547C186.715 140.8 188.204 138.731 189.339 135.712C190.725 132.03 191.656 127.88 191.521 123.959C191.269 116.885 188.482 110.899 184.571 105.145C183.684 103.839 182.923 101.956 182.06 100.564C178.885 95.4501 176.149 90.1288 172.971 85.0178C171.545 82.7241 170.391 80.0867 168.929 77.7951C167.754 75.9512 165.374 72.6117 163.833 71.2593C159.958 67.8587 156.89 65.7705 151.81 64.3951C146.776 63.0321 142.052 63.3445 136.91 63.3454L111.951 63.3481C109.505 63.3465 106.756 63.2884 104.33 63.3931C98.2433 64.0071 93.294 65.3432 88.5517 69.2934C87.1777 70.4379 85.7125 71.385 84.5876 72.903C83.4343 74.4592 81.8745 76.3631 80.8823 77.9866C80.0497 79.3487 79.2856 81.0669 78.4618 82.4998L71.9493 93.8944C71.4847 94.7089 70.7948 95.491 70.3589 96.2758C68.8903 98.9196 67.3996 101.545 65.9518 104.201C65.3519 105.301 64.4419 106.513 63.7774 107.647C61.7535 111.101 60.2722 114.313 59.1428 118.16C58.2544 121.186 58.1691 125.149 58.482 128.272C58.8561 131.305 60.0734 134.46 61.2877 137.249C62.6578 140.396 64.7627 143.251 66.4282 146.218C68.1994 149.373 69.8235 152.447 71.7884 155.499C73.1235 157.573 74.179 160.035 75.4741 162.142C76.1984 163.412 77.0876 164.682 77.8301 165.976C79.0593 168.118 80.6909 171.379 82.0044 173.354C82.904 174.706 86.2201 178.651 87.3601 179.491C90.9511 182.139 94.4755 184.431 98.8711 185.451C103.621 186.552 107.755 186.348 112.532 186.347L124.381 186.346C131.121 186.344 139.185 186.571 145.797 186.241Z" fill="#253572"/>
<path d="M91.6966 90.8433C91.7137 90.8412 91.7309 90.8391 91.748 90.837C94.703 90.8058 97.9629 90.747 100.893 90.8119C103.996 90.8806 108.405 90.6017 111.32 90.9548C115.42 91.6615 120.298 93.3446 123.435 96.1961C125.982 98.5118 128.902 101.312 131.09 103.985C131.449 104.423 131.848 105.019 132.2 105.411C137.897 111.759 136.431 119.573 134.136 126.987C131.703 135.589 130.225 144.411 127.653 152.988C126.612 156.463 126.282 160.32 124.901 163.741C123.362 167.557 120.055 169.579 116.014 169.882C112.947 170.033 103.469 170.319 100.935 169.432C99.3982 168.895 98.123 167.982 97.4122 166.478C96.8153 165.202 96.5856 163.784 96.7486 162.384C97.2265 157.934 99.2969 151.168 100.302 146.708C102.149 138.506 103.68 130.148 105.906 122.056C106.388 120.304 106.634 117.973 107.218 116.333C102.853 116.251 98.4462 116.359 94.0761 116.318C91.7353 116.273 89.4047 116.462 87.0792 116.13C84.2126 115.722 82.1017 112.403 81.6331 109.739C81.5017 108.992 81.9092 107.685 82.1522 106.948C83.32 103.407 83.7414 99.6479 84.8418 96.0847C85.7494 93.131 88.7163 91.1563 91.6966 90.8433Z" fill="#253572"/>
<path d="M122.487 90.8244C130.727 90.6785 139.282 90.8121 147.55 90.8023L155.636 90.7857C158.915 90.7779 161.692 90.4627 164.47 92.5627C166.513 94.1072 167.579 96.221 167.955 98.7216C168.137 99.8693 168.154 101.037 168.004 102.189C167.398 107.006 165.447 112.324 164.568 117.153C164.015 120.192 162.878 122.517 161.048 124.984C157.356 129.94 153.469 129.916 147.766 129.761L141.755 129.588C140.11 129.535 136.99 129.617 137.208 127.24C137.867 120.087 140.738 113.301 136.504 106.551C133.322 101.48 128.646 97.546 124.006 93.8108C123.225 93.1816 121.466 92.4827 121.657 91.3635C121.952 90.9799 122.033 90.9659 122.487 90.8244Z" fill="#C32726"/>
</svg>
