<svg width="250" height="250" viewBox="0 0 250 250" fill="none" xmlns="http://www.w3.org/2000/svg">
<mask id="path-1-inside-1_453_40" fill="white">
<path d="M0 125C0 55.9644 55.9644 0 125 0C194.036 0 250 55.9644 250 125C250 194.036 194.036 250 125 250C55.9644 250 0 194.036 0 125Z"/>
</mask>
<path d="M0 125C0 55.9644 55.9644 0 125 0C194.036 0 250 55.9644 250 125C250 194.036 194.036 250 125 250C55.9644 250 0 194.036 0 125Z" fill="white"/>
<path d="M0 125M250 125M250 125M0 125M125 0M250 125M125 250M0 125M125 250V248C57.069 248 2 192.931 2 125H0H-2C-2 195.14 54.8598 252 125 252V250ZM250 125H248C248 192.931 192.931 248 125 248V250V252C195.14 252 252 195.14 252 125H250ZM125 0V2C192.931 2 248 57.069 248 125H250H252C252 54.8598 195.14 -2 125 -2V0ZM125 0V-2C54.8598 -2 -2 54.8598 -2 125H0H2C2 57.069 57.069 2 125 2V0Z" fill="#DDDBDB" mask="url(#path-1-inside-1_453_40)"/>
<path d="M55 125.854C58.3767 122.887 61.3101 120.278 64.2738 117.717C68.0088 114.496 71.7803 111.31 75.5335 108.106C79.2928 104.903 83.0522 101.705 86.7993 98.4956C90.1639 95.6135 93.5041 92.6951 96.8869 89.8252C97.8586 89 98.9457 88.3083 100.106 87.4649C115.349 99.8911 130.387 112.147 145.691 124.622C131.219 137.813 116.607 150.263 102.001 163.254C86.4471 150.876 70.9665 138.559 55 125.854Z" fill="#007CC3"/>
<path d="M92.1016 65.4521C101.63 65.4521 110.376 65.4521 119.364 65.4521C144.343 85.044 169.505 104.775 195 124.768C170.598 145.003 146.518 164.971 122.547 184.848C113.516 185.564 104.667 185.315 95.703 185.078C101.351 179.642 107.43 174.885 113.309 169.91C119.328 164.819 125.425 159.832 131.486 154.796C137.468 149.826 143.414 144.809 149.451 139.906C155.469 135.022 161.415 130.059 167.604 124.78C159.235 117.76 150.702 111.51 142.461 104.897C134.268 98.3257 125.96 91.8942 117.688 85.4202C109.362 78.9037 101.017 72.4115 92.1016 65.4521Z" fill="#DA251D"/>
</svg>
