<svg width="250" height="250" viewBox="0 0 250 250" fill="none" xmlns="http://www.w3.org/2000/svg">
<path d="M0 125C0 55.9644 55.9644 0 125 0C194.036 0 250 55.9644 250 125C250 194.036 194.036 250 125 250C55.9644 250 0 194.036 0 125Z" fill="white"/>
<path d="M55.0002 125.855C58.3769 122.888 61.3103 120.279 64.274 117.718C68.0091 114.496 71.7805 111.311 75.5338 108.107C79.2931 104.904 83.0524 101.706 86.7996 98.4966C90.1641 95.6145 93.5044 92.6961 96.8872 89.8262C97.8589 89.001 98.946 88.3093 100.106 87.4659C115.35 99.8921 130.387 112.148 145.691 124.623C131.219 137.814 116.607 150.264 102.001 163.255C86.4473 150.877 70.9667 138.56 55.0002 125.855Z" fill="#007CC3"/>
<path d="M92.1019 65.4531C101.631 65.4531 110.376 65.4531 119.365 65.4531C144.344 85.045 169.505 104.776 195 124.769C170.598 145.004 146.518 164.972 122.547 184.849C113.516 185.565 104.667 185.316 95.7033 185.079C101.351 179.643 107.431 174.886 113.31 169.911C119.328 164.82 125.426 159.833 131.487 154.797C137.469 149.827 143.414 144.81 149.451 139.907C155.47 135.023 161.415 130.06 167.604 124.781C159.235 117.761 150.702 111.511 142.461 104.898C134.268 98.3267 125.96 91.8952 117.688 85.4212C109.362 78.9047 101.017 72.4125 92.1019 65.4531Z" fill="#DA251D"/>
</svg>
