<svg width="250" height="250" viewBox="0 0 250 250" fill="none" xmlns="http://www.w3.org/2000/svg">
<path d="M0 125C0 55.9644 55.9644 0 125 0C194.036 0 250 55.9644 250 125C250 194.036 194.036 250 125 250C55.9644 250 0 194.036 0 125Z" fill="#131547"/>
<path fill-rule="evenodd" clip-rule="evenodd" d="M140.574 64.4667C155.955 63.8118 170.016 73.2301 174.112 88.2843C174.709 90.4772 174.731 92.3369 175.084 94.5269C176.232 95.1619 177.373 95.6557 178.533 96.3286C193.464 104.99 199.726 123.727 191.053 139.157C190.202 140.697 189.208 142.155 188.084 143.509C185.596 146.459 181.754 150.293 179.076 153.101L167.485 165.411L160.124 173.256C157.823 175.72 156.267 177.588 153.61 179.679C150.35 182.379 146.907 183.984 142.832 185.107C138.308 186.354 133.598 186.486 128.955 185.858C128.216 185.758 126.861 185.572 126.237 185.188C118.599 186.845 112.064 186.983 104.708 183.774C102.444 182.789 100.324 181.501 98.4081 179.944C95.4338 177.554 92.7253 174.781 89.9558 172.153L77.3545 160.19C74.7512 157.71 72.0704 155.092 69.4374 152.686C63.8994 147.624 59.6861 143.809 56.9282 136.582C50.7074 120.279 60.1867 101.931 76.0637 95.7356C76.0437 89.788 78.2884 83.028 81.7529 78.2175C86.9677 70.9768 94.6448 66.2905 103.456 64.9041C106.77 64.3829 109.691 64.4642 113.024 64.4649H136.21C137.606 64.4642 139.207 64.5248 140.574 64.4667ZM132.213 166.039C131.85 166.006 131.128 166.128 130.738 166.192C126.948 166.801 123.22 166.619 119.425 166.096C120.403 166.946 121.325 167.728 122.327 168.523C122.97 169.034 125.346 170.37 125.639 170.742C129.164 169.01 129.405 168.287 132.117 166.116L132.213 166.039ZM79.2852 109.462C77.0477 110.779 75.6405 111.766 73.9071 113.568C67.4298 120.3 67.021 131.806 74.2125 138.187C75.0646 138.942 75.9784 139.814 76.8023 140.603L84.8466 148.241C90.0118 153.219 95.2225 158.15 100.478 163.032C101.342 163.833 102.205 164.74 103.057 165.509C103.075 165.179 102.567 163.627 102.427 163.15C102.059 161.89 100.886 157.116 101.336 156.264C100.153 154.675 98.2374 152.168 97.3116 150.423C95.0449 146.151 93.3208 141.348 91.3104 136.92C87.1889 127.841 83.3764 118.552 79.2852 109.462ZM172.2 108.525C167.722 119.099 163.12 129.619 158.394 140.084C157.14 142.934 155.982 145.84 154.716 148.687C153.96 150.385 152.901 151.875 151.845 153.385C151.632 153.69 150.408 155.387 150.303 155.667C150.18 159.261 149.716 161.887 148.541 165.299C149.019 165.04 176.659 135.772 178.185 133.697C180.727 130.241 181.613 125.812 180.947 121.611C180.024 115.791 176.847 111.925 172.2 108.525ZM135.631 95.017C133.058 94.1914 127.33 93.7272 124.875 95.067C118.704 96.1796 112.822 102.563 112.027 108.807C111.568 112.406 112.266 116.982 112.527 120.679L114.044 141.517C114.135 142.657 114.701 148.571 114.519 149.338C115.44 150.261 117.717 151.331 118.93 151.753C123.627 153.388 129.536 153.194 134.003 150.938C134.65 150.611 136.37 149.853 136.611 149.16C136.677 149.189 136.81 149.204 136.888 149.217C141.8 146.442 144.465 137.021 146.947 132.077C147.589 130.798 150.623 123.954 150.705 123.026C150.719 123.012 150.734 122.994 150.751 122.972C150.772 122.945 150.795 122.91 150.821 122.87C150.849 122.827 150.88 122.777 150.913 122.72C151.907 121.008 155.124 113.258 155.779 111.79L158.002 106.827C158.439 105.851 159.121 104.469 159.38 103.465C157.148 102.9 154.62 101.82 152.446 101.05C151.468 100.703 149.863 100.024 148.887 99.8881C148.171 99.4223 145.647 98.6196 144.707 98.278C141.745 97.2035 138.607 95.9721 135.631 95.017ZM99.9665 100.701C99.1239 101.063 98.2701 101.432 97.411 101.798C97.1276 101.919 96.8435 102.04 96.5591 102.16C96.0454 102.378 95.5308 102.594 95.0159 102.807C94.3298 103.09 93.6437 103.368 92.9605 103.637C92.6264 103.769 92.2928 103.899 91.9604 104.025C92.0343 104.235 92.1211 104.465 92.2185 104.709C92.2671 104.832 92.3184 104.958 92.3718 105.087C92.639 105.733 92.9614 106.459 93.2937 107.188C93.4267 107.48 93.561 107.772 93.6943 108.06C94.094 108.923 94.4821 109.748 94.7804 110.401C96.0365 113.154 97.2921 116.591 98.6045 119.231L98.6054 119.232C98.6075 118.97 98.6004 118.661 98.5875 118.321C98.5318 116.85 98.3596 114.815 98.286 113.615C98.0898 110.411 98.2363 108.046 98.7231 105.549C98.7749 105.283 98.8308 105.016 98.8904 104.746C99.0545 104.002 99.248 103.237 99.4708 102.427C99.5466 102.151 99.6258 101.87 99.7084 101.582L99.9665 100.701ZM148.366 79.1886C144.411 77.8528 139.972 78.1681 135.833 78.1689L113.493 78.1667C111.411 78.1591 108.624 78.0768 106.594 78.3101C104.353 78.5686 102.175 79.2204 100.16 80.2352C96.6028 82.0166 92.657 85.543 91.3122 89.3695C92.2956 88.6725 97.5025 86.7236 98.982 86.1142C101.902 84.9116 105.139 83.3996 108.061 82.3032C113.08 80.42 119.384 79.9773 124.676 80.7795C128.028 80.585 131.104 80.3659 134.493 80.7891C140.731 81.5681 146.658 84.6689 152.623 86.4861C154.156 86.9532 158.326 88.5984 159.604 88.8365C157.211 84.058 153.425 80.8971 148.366 79.1886Z" fill="#F28730"/>
<path fill-rule="evenodd" clip-rule="evenodd" d="M124.875 95.0672C127.33 93.7274 133.059 94.1916 135.631 95.0173C138.607 95.9724 141.745 97.2034 144.707 98.2779C145.648 98.6194 148.171 99.4226 148.888 99.8884C149.863 100.025 151.468 100.703 152.447 101.05C154.62 101.82 157.148 102.9 159.38 103.465C159.121 104.469 158.439 105.851 158.002 106.827L155.779 111.789C155.066 113.388 151.317 122.437 150.705 123.026C150.623 123.955 147.59 130.798 146.948 132.077C144.465 137.021 141.801 146.443 136.888 149.218C136.81 149.204 136.677 149.189 136.611 149.159C136.799 147.615 136.758 143.085 136.767 141.303L136.887 128.32C136.924 125.052 136.978 121.783 137.051 118.515C137.18 113.774 137.638 108.505 135.558 104.103C133.298 99.3217 129.781 96.8062 124.875 95.0672ZM148.888 99.8884C151.093 105.968 151.037 110.441 150.866 116.863C150.816 118.748 150.871 121.197 150.705 123.026C151.317 122.437 155.066 113.388 155.779 111.789L158.002 106.827C158.439 105.852 159.121 104.469 159.38 103.466C157.148 102.9 154.62 101.82 152.447 101.05C151.468 100.703 149.863 100.025 148.888 99.8884Z" fill="#FEFEFE"/>
<path d="M76.0639 95.7356C76.395 99.3607 76.4 101.79 77.6605 105.396C78.1227 106.718 78.7453 108.009 79.1971 109.221L79.2853 109.462C77.0478 110.779 75.6407 111.766 73.9072 113.568C67.4299 120.3 67.021 131.806 74.2126 138.186C75.0648 138.942 75.9785 139.814 76.8024 140.603L84.8468 148.241C90.012 153.219 95.2226 158.15 100.478 163.032C101.342 163.833 102.205 164.74 103.057 165.509C105.611 168.446 109.47 171.26 113.264 172.147C117.161 173.057 122.073 172.603 125.639 170.742C129.164 169.01 129.405 168.287 132.117 166.116L132.214 166.04C133.508 165.679 135.343 165.235 136.566 164.786C140.233 163.424 143.758 161.538 146.769 159.028C148.001 158 149.074 156.63 150.303 155.667C150.18 159.261 149.716 161.887 148.542 165.299C147.908 166.567 147.186 168.328 146.527 169.481C142.528 176.513 136.104 181.848 128.457 184.489C127.8 184.709 126.809 184.953 126.237 185.188C118.599 186.845 112.064 186.983 104.708 183.774C102.444 182.789 100.324 181.502 98.4082 179.944C95.4339 177.554 92.7254 174.782 89.9559 172.153L77.3546 160.191C74.7512 157.711 72.0706 155.092 69.4376 152.686C63.8995 147.624 59.6863 143.809 56.9283 136.582C50.7073 120.279 60.1866 101.931 76.0639 95.7356Z" fill="#FEFEFE"/>
<path d="M91.3123 89.3697C92.2953 88.6728 97.503 86.7236 98.9824 86.1143C101.903 84.9116 105.139 83.3994 108.061 82.303C113.08 80.4198 119.385 79.9771 124.676 80.7794C124.039 81.1207 122.562 81.4472 121.806 81.6269C113.825 83.524 106.655 88.6622 102.469 95.7361C101.471 97.4212 100.864 99.0596 99.9666 100.701C97.3473 101.829 94.6206 103.01 91.9603 104.025C90.7092 101.717 89.8173 98.5663 89.8396 95.9468C89.8551 94.1015 90.3316 90.9595 91.3123 89.3697Z" fill="#FEFEFE"/>
<path d="M124.675 80.7796C128.028 80.585 131.104 80.3659 134.493 80.7891C140.731 81.5681 146.658 84.6694 152.623 86.4865C154.156 86.9537 158.326 88.599 159.604 88.8369C161.573 89.9777 165.93 91.1886 168.292 92.0397C170.316 92.7689 173.121 93.9244 175.084 94.5274C176.232 95.1623 177.373 95.6557 178.533 96.3287C193.464 104.99 199.725 123.727 191.053 139.157C190.202 140.697 189.208 142.155 188.083 143.509C185.595 146.46 181.754 150.294 179.076 153.102L167.484 165.412L160.123 173.256C157.822 175.72 156.266 177.588 153.609 179.679C150.349 182.379 146.907 183.984 142.832 185.108C138.308 186.354 133.597 186.487 128.954 185.858C128.216 185.758 126.86 185.572 126.236 185.189C126.808 184.953 127.799 184.709 128.457 184.489C136.103 181.849 142.527 176.513 146.527 169.481C147.185 168.329 147.907 166.567 148.541 165.299C149.012 165.047 176.659 135.771 178.185 133.697C180.727 130.241 181.612 125.812 180.946 121.612C180.024 115.791 176.846 111.925 172.199 108.526C169.593 106.877 167.81 106.468 164.947 105.474C163.087 104.817 161.231 104.147 159.38 103.466C157.147 102.9 154.619 101.82 152.446 101.05C151.467 100.703 149.862 100.025 148.887 99.8886C148.17 99.4228 145.647 98.6196 144.706 98.278C141.744 97.2036 138.607 95.9726 135.631 95.0175C133.058 94.1918 127.33 93.7276 124.874 95.0674C118.704 96.1801 112.822 102.563 112.026 108.807C111.568 112.406 112.266 116.983 112.526 120.68L114.043 141.517C114.134 142.657 114.701 148.571 114.519 149.338C110.752 147.298 109.204 143.309 107.519 139.655C105.853 136.039 104.324 132.428 102.812 128.747C101.579 125.744 100.076 122.848 98.8468 119.836L98.6048 119.232C98.6163 117.834 98.376 115.092 98.2855 113.615C97.9715 108.488 98.5348 105.511 99.9659 100.701C100.863 99.06 101.471 97.4216 102.468 95.7365C106.655 88.6626 113.825 83.5243 121.806 81.6272C122.562 81.4476 124.039 81.1209 124.675 80.7796Z" fill="#00A94D"/>
<path d="M101.335 156.265C105.536 160.075 108.444 162.673 114.028 164.532C115.684 165.083 117.958 165.593 119.424 166.097C120.403 166.946 121.324 167.728 122.326 168.523C122.97 169.034 125.347 170.371 125.639 170.742C122.072 172.603 117.161 173.057 113.264 172.147C109.469 171.26 105.61 168.447 103.056 165.509C103.074 165.18 102.566 163.627 102.427 163.15C102.058 161.891 100.885 157.117 101.335 156.265Z" fill="#00A94D"/>
<path d="M132.265 151.688C132.246 151.695 132.226 151.701 132.207 151.708C132.245 151.694 132.283 151.681 132.32 151.667C132.302 151.674 132.283 151.681 132.265 151.688Z" fill="#00A94D"/>
<path d="M134.649 150.62L134.393 150.746C134.588 150.651 134.811 150.54 135.04 150.418C134.906 150.489 134.775 150.557 134.649 150.62Z" fill="#00A94D"/>
<path d="M136.336 149.554C136.329 149.56 136.322 149.566 136.316 149.572C136.335 149.554 136.353 149.535 136.37 149.517C136.359 149.529 136.348 149.542 136.336 149.554Z" fill="#00A94D"/>
<path d="M145.763 134.68L145.518 135.257C145.682 134.868 145.844 134.488 146.004 134.12C145.924 134.304 145.843 134.491 145.763 134.68Z" fill="#00A94D"/>
<path d="M159.116 104.277C159.093 104.339 159.069 104.401 159.044 104.464C159.081 104.369 159.117 104.275 159.151 104.183C159.139 104.214 159.128 104.246 159.116 104.277Z" fill="#00A94D"/>
</svg>
