<svg width="250" height="250" viewBox="0 0 250 250" fill="none" xmlns="http://www.w3.org/2000/svg">
<mask id="path-1-inside-1_453_39" fill="white">
<path d="M0 125C0 55.9644 55.9644 0 125 0C194.036 0 250 55.9644 250 125C250 194.036 194.036 250 125 250C55.9644 250 0 194.036 0 125Z"/>
</mask>
<path d="M0 125C0 55.9644 55.9644 0 125 0C194.036 0 250 55.9644 250 125C250 194.036 194.036 250 125 250C55.9644 250 0 194.036 0 125Z" fill="white"/>
<path d="M0 125M250 125M250 125M0 125M125 0M250 125M125 250M0 125M125 250V248C57.069 248 2 192.931 2 125H0H-2C-2 195.14 54.8598 252 125 252V250ZM250 125H248C248 192.931 192.931 248 125 248V250V252C195.14 252 252 195.14 252 125H250ZM125 0V2C192.931 2 248 57.069 248 125H250H252C252 54.8598 195.14 -2 125 -2V0ZM125 0V-2C54.8598 -2 -2 54.8598 -2 125H0H2C2 57.069 57.069 2 125 2V0Z" fill="#DDDBDB" mask="url(#path-1-inside-1_453_39)"/>
<path d="M59.123 194.647C68.4311 184.389 77.7392 173.324 87.9339 163.128C109.764 141.264 132.046 119.853 154.128 98.2463C155.671 96.7365 157.905 95.333 158.392 93.5C159.008 91.1843 158.99 87.8416 157.679 86.1502C156.757 84.9547 153.135 85.3268 150.91 85.8403C149.443 86.1812 148.291 87.9789 147.054 89.1875C118.589 116.933 90.1264 144.691 61.6672 172.461C60.1557 173.935 58.5645 175.325 55.7587 177.902C55.4795 174.316 55.1648 172.146 55.1648 169.977C55.1293 134.326 55.2623 98.6934 55.0008 63.0296C54.9565 56.831 56.7738 54.8475 63.028 54.8873C104.737 55.1323 146.447 55.1618 188.156 54.9759C193.032 54.9759 195.022 56.3041 195 61.5552C194.825 103.9 194.814 146.248 194.964 188.599C194.964 192.885 193.772 194.895 189.131 194.882C146.122 194.784 103.117 194.758 60.1158 194.802C59.2825 194.802 58.4758 194.537 59.123 194.647Z" fill="#FF0000"/>
</svg>
