<svg width="250" height="250" viewBox="0 0 250 250" fill="none" xmlns="http://www.w3.org/2000/svg">
<path d="M0 125C0 55.9644 55.9644 0 125 0C194.036 0 250 55.9644 250 125C250 194.036 194.036 250 125 250C55.9644 250 0 194.036 0 125Z" fill="white"/>
<path d="M79.9349 126.717L80.0149 126.772C79.78 127.137 79.3043 127.574 78.9899 127.919C78.3725 128.608 77.7624 129.304 77.1595 130.007C74.8509 132.723 72.7635 136.991 72.0292 140.424C69.4618 152.432 77.7805 162.736 87.5326 168.649C93.6615 172.365 100.86 175.052 108.011 176.546C112.128 177.384 116.297 177.938 120.49 178.205C121.693 178.271 123.016 178.291 124.265 178.305C137.926 178.462 152.414 175.38 163.816 168.128C178.983 158.482 184.699 142.25 171.772 128.148C171.317 127.652 170.665 127.059 170.324 126.504C171.013 127.05 171.738 127.621 172.464 128.142C174.205 129.38 175.602 130.969 177.129 132.452C179.504 134.758 181.457 137.615 182.925 140.577C183.28 141.293 183.75 142.224 183.964 142.986C186.298 148.415 185.903 155.873 183.687 161.268C175.815 180.431 154.475 191.679 134.79 194.331C132.873 194.589 131.001 194.64 129.079 194.746C123.907 195.078 118.714 194.823 113.599 193.987C100.627 191.854 88.205 186.406 78.444 177.511C75.9518 175.24 73.5429 172.734 71.5863 169.98C66.9731 163.485 63.981 155.904 65.3226 147.839C66.8478 138.672 72.5789 131.977 79.9349 126.717Z" fill="#007A6E"/>
<path d="M136.13 54.8867C136.505 55.0361 136.521 55.6184 136.524 55.9716C136.548 58.4378 136.531 60.9063 136.529 63.3729L136.531 167.561C136.533 168.558 136.596 169.804 136.534 170.761C135.304 170.805 134.02 170.995 132.783 171.063C132.201 171.095 131.594 171.253 130.99 171.284C125.746 171.594 120.484 171.447 115.264 170.847C114.954 170.795 114.422 170.763 114.095 170.735C114.199 167.969 114.124 164.743 114.124 161.948L114.119 75.4851C114.118 74.4636 114.086 73.2419 114.155 72.2427C114.57 71.7032 117.47 69.5564 118.107 69.0543L131.19 58.8622C132.514 57.8129 135.033 56.0344 136.13 54.8867Z" fill="#A50033"/>
<path d="M105.943 90.6177C105.973 90.6358 106.087 90.7419 106.088 90.7543C106.122 92.5914 106.101 98.6576 106.101 100.01L106.102 161.375C106.102 163.589 105.994 167.107 106.151 169.208C102.186 168.595 93.3764 165.273 89.9675 163.185C88.6439 162.576 84.7537 160.138 83.7177 159.138L83.7162 115.216C83.7163 114.411 83.5797 108.122 83.9476 107.805C84.9578 106.933 86.9742 105.471 88.1035 104.577L99.5235 95.6824L103.058 92.9231C104.114 92.1035 104.94 91.5406 105.943 90.6177Z" fill="#A50033"/>
<path d="M144.787 91.0103C145.393 91.1828 148.033 93.4035 148.682 93.9066L157.798 100.986L163.808 105.641C164.707 106.343 165.689 107.02 166.517 107.801C166.76 108.03 166.772 108.086 166.779 108.454C166.815 110.307 166.799 112.2 166.799 114.051L166.796 159.069C165.883 160.364 161.867 162.339 160.529 163.239C160.296 163.338 159.771 163.661 159.467 163.811C158.392 164.337 157.306 164.845 156.212 165.333C152.77 166.833 149.208 168.045 145.565 168.957C145.158 169.059 145.017 169.074 144.667 168.87C144.505 168.674 144.495 168.583 144.492 168.318C144.451 165.02 144.47 161.704 144.47 158.406L144.471 92.1109C144.476 91.6098 144.438 91.3519 144.787 91.0103Z" fill="#A50033"/>
</svg>
