<svg width="250" height="250" viewBox="0 0 250 250" fill="none" xmlns="http://www.w3.org/2000/svg">
<path d="M0 125C0 55.9644 55.9644 0 125 0C194.036 0 250 55.9644 250 125C250 194.036 194.036 250 125 250C55.9644 250 0 194.036 0 125Z" fill="url(#paint0_linear_1_1643)"/>
<path d="M69.4857 55.6224C71.9625 55.4543 75.322 55.5438 77.8373 55.5432L92.4121 55.5411L137.572 55.5418L165.781 55.5445C169.651 55.5448 177.795 55.298 181.14 55.9394C181.47 56.235 181.982 56.8383 182.008 57.2421C182.412 63.6752 182.202 72.4236 182.21 78.7097L182.206 148.667C182.206 152.353 182.712 175.743 181.75 177.528C180.066 179.034 170.174 181.641 167.341 182.48C162.176 184.357 156.208 185.926 150.91 187.563C142.254 190.238 133.532 193.007 124.828 195.498C121.77 194.734 118.124 193.54 115.058 192.616L98.499 187.642C94.2708 186.373 69.9443 179.536 67.7516 177.955C67.1269 175.403 67.3257 170.345 67.3259 167.488L67.3265 152.081C67.3268 143.016 66.9957 57.8158 67.5614 56.7676C67.9133 56.1154 68.8195 55.8089 69.4857 55.6224ZM72.7081 174.33C75.6417 174.969 79.4956 176.236 82.4347 177.117L98.8321 182.04L115.413 187.026C118.151 187.849 122.206 188.959 124.787 189.935C126.792 189.167 128.88 188.563 130.93 187.92C142.136 184.405 153.443 181.137 164.633 177.582C168.49 176.394 172.992 174.904 176.862 173.891C176.512 170.21 176.718 163.426 176.718 159.507L176.721 132.342L176.719 85.8542C176.719 77.7348 176.571 69.0203 176.766 60.9467L72.7222 60.9679C73.0578 82.0197 72.765 103.91 72.7613 125.055L72.7611 156.388C72.7622 162.238 72.869 168.506 72.7081 174.33Z" fill="white"/>
<path d="M131.151 66.3418C132.354 66.4809 134.455 66.4427 135.727 66.4571C135.824 69.5786 135.681 73.123 135.713 76.3197L135.865 109.289C137.307 107.488 138.551 105.975 140.102 104.264C139.966 99.2592 140.064 93.8425 140.051 88.8088L139.862 66.3714C141.236 66.4793 142.918 66.436 144.318 66.4362C144.133 77.3645 144.359 88.5943 144.324 99.5651C145.586 97.8649 147.268 95.957 148.653 94.3121C148.466 90.7881 148.557 86.7427 148.555 83.1693L148.475 66.3883C149.942 66.4798 151.335 66.4496 152.799 66.375C152.694 74.2336 153.081 81.7609 152.803 89.7707C154.759 87.0278 157.511 84.0001 159.727 81.4296C163.532 76.9543 167.402 72.5353 171.338 68.1746C171.348 70.3094 171.398 72.602 171.272 74.7186C170.48 75.9871 168.659 77.9628 167.621 79.1577L161.355 86.3601L140.509 110.454L104.742 151.759L93.1471 165.158C91.1819 167.426 88.5511 170.629 86.5046 172.682C85.1547 172.112 83.5745 171.729 82.1395 171.454C83.73 168.808 88.1357 164.088 90.2693 161.633C92.011 159.628 95.1372 155.912 96.9896 154.173C95.1482 154.503 92.26 154.438 90.3049 154.485C86.2806 154.582 82.2546 154.557 78.2285 154.745C78.2696 153.384 78.2016 151.719 78.1827 150.336C85.2257 150.623 93.5064 149.74 100.518 150.064C101.554 148.763 102.43 147.77 103.547 146.549C101.889 146.843 95.0363 146.875 92.9286 146.861C88.0595 146.831 83.0358 147.177 78.2453 147.177L78.1832 142.702C78.6898 142.761 79.1988 142.794 79.7087 142.803C86.3907 142.921 99.8335 142.418 106.981 142.348C107.124 142.347 110.126 138.883 110.836 138.201C105.75 138.474 100.459 138.347 95.3495 138.468C89.6373 138.605 83.9741 138.811 78.2598 138.796C78.2162 137.368 78.2357 135.896 78.2366 134.465C80.5048 134.652 85.3877 134.42 87.7853 134.372L104.117 134.086C106.953 134.021 112.139 133.644 114.604 134.336C113.395 133.343 111.058 130.935 109.84 129.765C107.242 129.697 103.805 129.868 101.144 129.921L78.2643 130.382L78.1942 125.978C84.0553 126.214 91.1224 125.622 97.0675 125.703C99.6 125.738 102.847 125.401 105.297 125.76C104.042 124.358 102.114 122.549 100.75 121.202C98.9627 121.456 95.6353 121.383 93.7608 121.432C88.5945 121.567 83.4059 121.452 78.2374 121.727L78.2324 117.363C81.8906 117.455 85.8077 117.229 89.4788 117.2C91.9811 117.18 93.9883 116.938 96.4968 117.341C94.9855 116.012 93.2798 114.34 91.8711 112.907C88.1469 112.889 81.866 112.88 78.2535 113.182L78.2305 108.681C81.1599 108.908 84.7573 108.442 87.4141 108.818C84.7223 106.296 80.8146 102.875 78.3915 100.287C78.1931 98.2448 78.224 96.2903 78.2237 94.2412C79.5291 95.8452 85.4256 101.011 87.3264 102.816C97.2127 112.204 107.236 121.491 117.156 130.85C117.781 129.982 118.879 128.751 119.594 127.902C117.268 126.055 114.426 123.248 112.241 121.183L102.595 112.112L78.3223 89.3021C78.1321 87.3843 78.0981 85.4543 78.2209 83.5311C81.2385 86.054 83.8806 88.6916 86.7386 91.3917L97.2915 101.286C105.572 109.096 114.202 116.924 122.343 124.832C123.18 123.72 123.834 123.061 124.817 122.065L90.9868 90.2944C86.8118 86.3499 82.3371 82.3671 78.3017 78.3228C78.1237 76.3902 78.0976 74.4466 78.2235 72.5099C89.3139 82.5734 100.68 93.4367 111.601 103.753L121.366 112.903C123.51 114.921 125.408 116.852 127.658 118.782C128.49 117.63 129.082 116.867 130.174 115.962C128.689 114.866 127.018 113.138 125.629 111.837L117.761 104.472L92.41 80.7007C90.659 79.0658 78.1767 67.5919 78.1504 66.8247C79.2452 66.2649 81.9351 66.4644 83.2526 66.5009C85.1519 67.6937 88.934 71.6004 90.7669 73.2427C95.8856 77.8289 101.118 83.3526 106.241 87.8187C105.903 81.6387 106.121 72.8028 106.091 66.4218L110.476 66.4506C110.635 69.1688 110.526 73.3501 110.533 76.1288C110.587 81.3403 110.602 86.5519 110.578 91.7636C111.893 93.2702 113.143 94.3783 114.624 95.7074C114.344 93.8892 114.169 67.1286 114.394 66.3525C115.449 66.4836 117.584 66.4297 118.722 66.4323L118.785 88.4167C118.802 92.0914 118.97 95.9851 118.805 99.6337C120.274 100.939 121.822 102.461 123.261 103.822C122.792 101.602 122.963 92.7654 122.959 89.8271L122.729 66.3645C124.01 66.4704 125.831 66.4394 127.151 66.4558C127.324 68.586 127.222 71.7806 127.22 73.9794L127.259 85.6675C127.261 92.801 127.585 100.672 127.342 107.678C128.859 109.008 130.339 110.321 131.715 111.8C131.34 108.978 131.527 103.163 131.505 100.136L131.372 80.3555C131.362 75.897 131.483 70.7289 131.151 66.3418Z" fill="white"/>
<path d="M171.009 103.887L171.196 104.002C171.456 104.592 171.368 112.651 171.372 114.038L169.455 112.131C168.669 113.261 167.906 114.081 166.99 115.094C168.385 116.715 169.874 117.767 171.261 119.316C171.396 120.994 171.352 123.265 171.359 125.001C168.904 122.811 166.468 120.601 164.048 118.371C163.197 119.52 162.538 120.491 161.446 121.422C164.422 123.806 168.402 127.647 171.235 130.325C171.389 131.995 171.363 134.505 171.391 136.243L163.364 128.911C162.136 127.787 159.77 125.721 158.86 124.518C157.953 125.602 157.126 126.514 156.16 127.545C160.866 132.196 166.353 136.81 171.252 141.55C171.404 143.367 171.35 145.333 171.341 147.165C168.533 144.928 161.4 138.363 158.921 135.713C160.387 139.473 161.73 143.705 163.035 147.569C165.555 155.092 168.133 162.595 170.766 170.079C169.316 170.42 167.992 170.865 166.581 171.325C163.888 164.126 161.368 155.931 158.843 148.61L155.082 137.587C154.445 135.695 153.464 133.028 153.063 131.175C151.899 132.58 150.857 133.872 149.562 135.162C154.137 147.298 157.869 160.617 162.455 172.636C161.292 172.868 159.416 173.505 158.233 173.869C157.536 171.164 155.529 165.79 154.597 163.043C151.791 154.97 149.058 146.872 146.399 138.751C145.646 139.941 143.998 141.649 143.021 142.961C144.556 146.638 146.095 151.655 147.415 155.516L151.532 167.689C152.316 170.001 153.206 172.874 154.137 175.093C152.772 175.487 151.307 175.982 149.942 176.413L143.375 157.039C142.423 154.256 140.499 149.088 139.872 146.391C138.795 147.742 137.671 149.055 136.501 150.328C136.913 151.823 137.53 153.366 138.016 154.85C140.519 162.49 143.314 170.052 145.793 177.697L141.626 178.939L133.278 154.062C132.08 155.503 131.202 156.558 129.857 157.87C130.551 160.126 131.596 162.84 132.381 165.139L137.5 180.197C135.956 180.733 134.866 181.037 133.299 181.431C131.278 175.022 128.856 168.007 126.635 161.643C125.162 163.87 120.35 169.014 118.46 171.329C117.091 173.007 112.106 178.847 110.751 179.998C109.23 179.355 107.798 179.04 106.204 178.664C107.691 177.25 111.474 172.599 112.993 170.831L126.434 155.306L171.009 103.887Z" fill="white"/>
<path d="M171.023 80.3594C171.59 80.745 171.338 85.5966 171.329 86.5087C166.825 92.2504 160.433 99.2232 155.568 104.839L126.653 138.25L105.134 163.074C102.334 166.306 97.4991 172.332 94.6317 175.129C93.7128 174.749 92.4767 174.415 91.5003 174.124C91.0137 174.012 90.8986 173.963 90.4491 173.761L90.4355 173.523C91.7422 171.506 96.8817 165.875 98.7537 163.7L117.828 141.672L152.916 101.168C158.831 94.3437 164.937 87.0122 171.023 80.3594Z" fill="white"/>
<path d="M170.923 92.1992L171.229 92.4135C171.481 93.6194 171.333 96.9296 171.284 98.2842C170.482 99.6475 165.877 104.733 164.592 106.213L149.872 123.218L117.256 160.885L108.675 170.781C107.398 172.274 103.955 176.47 102.579 177.542C101.841 177.235 101.067 176.991 100.308 176.738C99.6106 176.615 99.0899 176.637 98.7493 176.006C98.8783 174.682 100.879 173.185 101.782 172.143L109.925 162.6L134.528 134.173L157.185 108.005C161.635 102.845 166.35 97.2066 170.923 92.1992Z" fill="white"/>
<defs>
<linearGradient id="paint0_linear_1_1643" x1="36.1279" y1="21.9181" x2="125" y2="250" gradientUnits="userSpaceOnUse">
<stop stop-color="#476EE2"/>
<stop offset="1" stop-color="#9308FF"/>
</linearGradient>
</defs>
</svg>
