<svg width="250" height="250" viewBox="0 0 250 250" fill="none" xmlns="http://www.w3.org/2000/svg">
<path d="M0 125C0 55.9644 55.9644 0 125 0C194.036 0 250 55.9644 250 125C250 194.036 194.036 250 125 250C55.9644 250 0 194.036 0 125Z" fill="url(#paint0_linear_453_36)"/>
<path d="M69.4857 55.6219C71.9625 55.4538 75.322 55.5433 77.8373 55.5427L92.4121 55.5406L137.572 55.5414L165.781 55.544C169.651 55.5443 177.795 55.2975 181.14 55.9389C181.47 56.2345 181.982 56.8378 182.008 57.2417C182.412 63.6747 182.202 72.4231 182.21 78.7092L182.206 148.666C182.206 152.353 182.712 175.742 181.75 177.528C180.066 179.033 170.174 181.641 167.341 182.479C162.176 184.357 156.208 185.925 150.91 187.562C142.254 190.237 133.532 193.007 124.828 195.498C121.77 194.734 118.124 193.539 115.058 192.616L98.499 187.642C94.2708 186.373 69.9443 179.535 67.7516 177.954C67.1269 175.402 67.3257 170.344 67.3259 167.487L67.3265 152.08C67.3268 143.016 66.9957 57.8154 67.5614 56.7671C67.9133 56.1149 68.8195 55.8085 69.4857 55.6219ZM72.7081 174.33C75.6417 174.968 79.4956 176.236 82.4347 177.117L98.8321 182.04L115.413 187.026C118.151 187.848 122.206 188.958 124.787 189.935C126.792 189.167 128.88 188.563 130.93 187.92C142.136 184.405 153.443 181.137 164.633 177.581C168.49 176.393 172.992 174.903 176.862 173.891C176.512 170.209 176.718 163.426 176.718 159.507L176.721 132.342L176.719 85.8537C176.719 77.7343 176.571 69.0198 176.766 60.9462L72.7222 60.9674C73.0578 82.0193 72.765 103.91 72.7613 125.054L72.7611 156.387C72.7622 162.238 72.869 168.505 72.7081 174.33Z" fill="white"/>
<path d="M131.151 66.3408C132.355 66.4799 134.456 66.4417 135.728 66.4561C135.824 69.5777 135.681 73.122 135.713 76.3187L135.865 109.288C137.307 107.487 138.552 105.974 140.102 104.263C139.966 99.2582 140.065 93.8415 140.052 88.8078L139.863 66.3704C141.237 66.4783 142.918 66.435 144.318 66.4352C144.133 77.3636 144.359 88.5933 144.324 99.5641C145.587 97.864 147.268 95.956 148.654 94.3111C148.466 90.7871 148.557 86.7417 148.555 83.1683L148.476 66.3874C149.942 66.4789 151.335 66.4486 152.8 66.374C152.694 74.2326 153.082 81.7599 152.803 89.7698C154.76 87.0268 157.511 83.9992 159.727 81.4286C163.532 76.9533 167.402 72.5343 171.339 68.1736C171.348 70.3084 171.398 72.6011 171.272 74.7176C170.48 75.9862 168.659 77.9618 167.621 79.1568L161.355 86.3591L140.51 110.453L104.742 151.758L93.1473 165.157C91.1822 167.425 88.5514 170.628 86.5048 172.681C85.1549 172.111 83.5747 171.729 82.1397 171.453C83.7303 168.807 88.136 164.087 90.2695 161.632C92.0112 159.627 95.1375 155.911 96.9899 154.172C95.1484 154.502 92.2602 154.437 90.3051 154.484C86.2808 154.581 82.2549 154.556 78.2287 154.744C78.2699 153.383 78.2018 151.718 78.1829 150.335C85.2259 150.622 93.5067 149.739 100.518 150.063C101.554 148.762 102.43 147.769 103.547 146.548C101.89 146.842 95.0366 146.874 92.9289 146.86C88.0598 146.83 83.0361 147.176 78.2456 147.176L78.1835 142.701C78.6901 142.76 79.1991 142.793 79.709 142.802C86.391 142.92 99.8337 142.417 106.981 142.347C107.124 142.346 110.126 138.882 110.837 138.2C105.75 138.473 100.459 138.346 95.3498 138.467C89.6376 138.604 83.9743 138.81 78.2601 138.795C78.2165 137.367 78.2359 135.895 78.2369 134.464C80.505 134.651 85.388 134.419 87.7855 134.371L104.117 134.085C106.953 134.02 112.139 133.643 114.605 134.335C113.395 133.342 111.058 130.934 109.84 129.764C107.243 129.696 103.805 129.867 101.144 129.92L78.2645 130.381L78.1944 125.977C84.0555 126.213 91.1226 125.621 97.0677 125.702C99.6003 125.737 102.847 125.4 105.297 125.759C104.043 124.357 102.114 122.548 100.75 121.201C98.963 121.455 95.6355 121.382 93.7611 121.431C88.5947 121.566 83.4062 121.451 78.2376 121.726L78.2326 117.362C81.8909 117.454 85.808 117.228 89.479 117.199C91.9813 117.179 93.9886 116.937 96.497 117.34C94.9858 116.011 93.2801 114.339 91.8714 112.906C88.1471 112.888 81.8662 112.879 78.2537 113.181L78.2308 108.68C81.1601 108.907 84.7575 108.441 87.4143 108.817C84.7225 106.295 80.8148 102.874 78.3917 100.286C78.1933 98.2438 78.2243 96.2893 78.2239 94.2403C79.5293 95.8442 85.4258 101.01 87.3266 102.815C97.2129 112.203 107.236 121.49 117.156 130.849C117.781 129.981 118.88 128.75 119.594 127.901C117.268 126.054 114.426 123.247 112.242 121.182L102.595 112.111L78.3225 89.3011C78.1323 87.3833 78.0984 85.4533 78.2211 83.5301C81.2387 86.053 83.8809 88.6906 86.7388 91.3908L97.2917 101.285C105.573 109.095 114.202 116.923 122.344 124.831C123.18 123.719 123.834 123.06 124.817 122.064L90.9871 90.2935C86.8121 86.3489 82.3374 82.3661 78.302 78.3218C78.124 76.3892 78.0978 74.4456 78.2237 72.5089C89.3142 82.5725 100.68 93.4357 111.601 103.752L121.366 112.902C123.51 114.92 125.409 116.851 127.658 118.781C128.49 117.629 129.082 116.866 130.174 115.961C128.689 114.865 127.018 113.137 125.629 111.836L117.761 104.471L92.4102 80.6997C90.6593 79.0648 78.177 67.5909 78.1507 66.8237C79.2454 66.264 81.9354 66.4634 83.2528 66.5C85.1521 67.6927 88.9343 71.5994 90.7672 73.2418C95.8858 77.8279 101.118 83.3516 106.242 87.8177C105.903 81.6378 106.122 72.8018 106.092 66.4208L110.476 66.4496C110.635 69.1678 110.526 73.3491 110.533 76.1278C110.587 81.3393 110.602 86.551 110.578 91.7626C111.893 93.2692 113.143 94.3773 114.624 95.7065C114.344 93.8882 114.169 67.1276 114.394 66.3515C115.45 66.4826 117.584 66.4288 118.722 66.4313L118.786 88.4157C118.802 92.0904 118.971 95.9842 118.806 99.6327C120.274 100.938 121.823 102.46 123.261 103.821C122.792 101.601 122.963 92.7644 122.959 89.8261L122.729 66.3635C124.011 66.4694 125.831 66.4384 127.152 66.4548C127.324 68.585 127.222 71.7796 127.22 73.9785L127.259 85.6665C127.261 92.8 127.586 100.671 127.343 107.677C128.859 109.008 130.339 110.32 131.715 111.799C131.34 108.977 131.528 103.162 131.505 100.135L131.372 80.3545C131.363 75.8961 131.483 70.728 131.151 66.3408Z" fill="white"/>
<path d="M171.008 103.886L171.196 104.001C171.455 104.592 171.368 112.65 171.372 114.038L169.455 112.131C168.668 113.26 167.906 114.08 166.99 115.093C168.385 116.715 169.874 117.767 171.261 119.315C171.396 120.993 171.351 123.265 171.359 125C168.904 122.81 166.467 120.6 164.048 118.37C163.196 119.519 162.538 120.49 161.446 121.421C164.422 123.805 168.401 127.647 171.235 130.325C171.389 131.995 171.363 134.504 171.39 136.242L163.363 128.911C162.136 127.787 159.77 125.721 158.859 124.517C157.953 125.602 157.126 126.514 156.16 127.544C160.866 132.195 166.352 136.81 171.251 141.549C171.403 143.366 171.35 145.332 171.34 147.165C168.533 144.928 161.4 138.363 158.921 135.713C160.387 139.473 161.73 143.705 163.035 147.568C165.555 155.091 168.132 162.594 170.765 170.078C169.315 170.42 167.992 170.865 166.58 171.324C163.888 164.126 161.368 155.93 158.843 148.61L155.082 137.586C154.444 135.694 153.463 133.028 153.063 131.175C151.898 132.579 150.856 133.872 149.562 135.161C154.137 147.298 157.869 160.617 162.455 172.636C161.292 172.867 159.416 173.505 158.233 173.869C157.535 171.163 155.529 165.79 154.596 163.042C151.791 154.969 149.058 146.872 146.399 138.75C145.646 139.941 143.997 141.649 143.02 142.96C144.556 146.638 146.095 151.655 147.415 155.515L151.531 167.689C152.316 170 153.206 172.874 154.137 175.092C152.772 175.487 151.307 175.982 149.942 176.413L143.374 157.038C142.423 154.256 140.499 149.088 139.872 146.39C138.794 147.742 137.671 149.055 136.501 150.327C136.912 151.823 137.53 153.366 138.016 154.849C140.519 162.489 143.313 170.051 145.792 177.697L141.626 178.939L133.278 154.062C132.08 155.502 131.201 156.558 129.857 157.869C130.55 160.125 131.596 162.84 132.381 165.139L137.5 180.197C135.956 180.733 134.865 181.037 133.298 181.431C131.277 175.022 128.856 168.007 126.634 161.643C125.162 163.87 120.35 169.013 118.46 171.329C117.091 173.007 112.105 178.846 110.751 179.997C109.229 179.355 107.797 179.04 106.204 178.664C107.691 177.25 111.474 172.598 112.993 170.831L126.434 155.306L171.008 103.886Z" fill="white"/>
<path d="M171.023 80.3594C171.59 80.745 171.338 85.5966 171.329 86.5087C166.825 92.2504 160.433 99.2232 155.568 104.839L126.653 138.25L105.134 163.074C102.334 166.306 97.4991 172.332 94.6317 175.129C93.7128 174.749 92.4767 174.415 91.5003 174.124C91.0137 174.012 90.8986 173.963 90.4491 173.761L90.4355 173.523C91.7422 171.506 96.8817 165.875 98.7537 163.7L117.828 141.672L152.916 101.168C158.831 94.3437 164.937 87.0122 171.023 80.3594Z" fill="white"/>
<path d="M170.923 92.1982L171.229 92.4125C171.481 93.6185 171.332 96.9287 171.284 98.2833C170.481 99.6466 165.877 104.732 164.592 106.212L149.871 123.217L117.256 160.884L108.675 170.78C107.398 172.274 103.955 176.469 102.578 177.541C101.841 177.234 101.067 176.99 100.308 176.737C99.6103 176.614 99.0896 176.636 98.749 176.005C98.8781 174.681 100.879 173.184 101.782 172.142L109.925 162.599L134.527 134.172L157.184 108.004C161.635 102.844 166.35 97.2056 170.923 92.1982Z" fill="white"/>
<defs>
<linearGradient id="paint0_linear_453_36" x1="36.1279" y1="21.9181" x2="125" y2="250" gradientUnits="userSpaceOnUse">
<stop stop-color="#476EE2"/>
<stop offset="1" stop-color="#9308FF"/>
</linearGradient>
</defs>
</svg>
