<svg width="250" height="250" viewBox="0 0 250 250" fill="none" xmlns="http://www.w3.org/2000/svg">
<path d="M0 125C0 55.9644 55.9644 0 125 0C194.036 0 250 55.9644 250 125C250 194.036 194.036 250 125 250C55.9644 250 0 194.036 0 125Z" fill="#126A31"/>
<path fill-rule="evenodd" clip-rule="evenodd" d="M176.675 103.036C179.121 103.036 182.73 102.836 184.976 103.375C189.393 104.672 191.382 108.147 191.455 112.514C191.536 117.377 191.077 119.296 187.836 122.869C191.368 124.118 194.053 127.387 194.719 131.01C195.335 134.364 194.995 138.34 193.129 141.246C189.457 146.911 183.588 146.447 177.673 146.446L166.424 146.442C166.257 140.741 166.387 134.377 166.387 128.637L166.392 103.063C169.82 103.035 173.247 103.026 176.675 103.036ZM187.099 132.559C186.729 126.294 182.145 126.87 177.301 126.914C176.23 126.924 175.03 126.917 173.956 126.919C174.012 131.072 173.925 135.245 173.974 139.393C176.513 139.514 183.672 139.846 185.483 138.15C185.493 138.141 185.502 138.131 185.511 138.122C187.052 136.38 187.23 134.788 187.099 132.559ZM182.603 110.791C180.749 109.449 176.302 109.853 173.967 109.853L173.976 120.092C175.588 120.096 177.213 120.119 178.824 120.083C180.469 120.047 181.563 119.958 182.84 118.863C184.295 116.96 184.623 112.253 182.603 110.791Z" fill="#FDFEFD"/>
<path d="M96.8031 103.06C98.7458 103.017 101.034 102.995 102.967 103.065C103.52 103.757 104.056 105.119 104.436 105.956L106.89 111.484C108.42 114.925 110.156 118.361 111.478 121.872C112.252 120.872 113.215 118.489 113.778 117.238L116.912 110.256C117.864 108.121 119.361 105.239 120.093 103.07C122.17 103.005 124.39 103.034 126.471 103.059C126.694 106.473 127.463 110.703 127.872 114.164L131.911 146.456C129.3 146.439 126.688 146.438 124.077 146.451C123.846 145.047 123.7 142.792 123.522 141.278C123.163 138.464 122.819 135.648 122.492 132.83C122.148 129.689 121.898 126.651 121.447 123.496C121.19 121.857 121.097 120.147 120.86 118.469L114.458 131.724C113.54 133.587 112.613 135.911 111.467 137.601C111.268 136.839 110.692 135.639 110.367 134.919C109.611 133.247 108.75 131.606 107.954 129.952C106.093 126.08 104.362 122.262 102.342 118.468C101.808 125.153 100.81 131.78 100.145 138.449C99.879 141.121 99.5802 143.793 99.2064 146.453C96.6779 146.403 94.0289 146.441 91.491 146.439C91.6887 143.015 92.3778 138.961 92.7736 135.51L96.8031 103.06Z" fill="#FDFEFD"/>
<path d="M78.3287 103.077C80.7454 103.001 83.6175 102.999 86.0281 103.071L86.0351 122.483C86.0357 129.483 86.6346 137.748 81.3293 143.192C78.5735 146.02 74.4455 147.115 70.6149 147.053C67.483 147.118 65.1469 146.74 62.3444 145.245C58.7956 143.353 56.7226 139.962 55.6672 136.136C54.9623 133.58 55.0026 130.702 55.0027 128.028L55 103.063C57.33 102.993 60.1654 103.02 62.4941 103.065L62.4933 121.004C62.4935 124.473 62.3561 128.496 62.7898 131.904C63.1101 133.748 63.8519 136.449 65.1957 137.777C67.7165 140.249 73.0674 140.22 75.6284 137.854C76.7696 136.799 77.6274 134.535 77.867 133.045C78.5083 129.054 78.3334 124.749 78.3347 120.719L78.3287 103.077Z" fill="#FDFEFD"/>
<path d="M138.277 103.049L152.358 103.038C155.344 103.038 158.457 102.995 161.426 103.068C161.431 105.306 161.465 107.629 161.408 109.86C156.257 109.8 151.061 109.892 145.898 109.842C145.83 113.178 145.894 116.763 145.901 120.116C149.765 120.027 153.931 120.075 157.809 120.107C157.761 122.387 157.812 124.716 157.769 127.02L154.183 127.025L145.912 127.012C145.821 128.783 145.891 131.247 145.892 133.059C145.908 137.529 145.903 141.999 145.874 146.469C143.379 146.407 140.755 146.438 138.254 146.447C138.147 137.95 138.218 129.304 138.224 120.799C138.228 115.106 138.083 108.701 138.277 103.049Z" fill="#FDFEFD"/>
</svg>
