<svg width="250" height="250" viewBox="0 0 250 250" fill="none" xmlns="http://www.w3.org/2000/svg">
<mask id="path-1-inside-1_453_345" fill="white">
<path d="M0 125C0 55.9644 55.9644 0 125 0C194.036 0 250 55.9644 250 125C250 194.036 194.036 250 125 250C55.9644 250 0 194.036 0 125Z"/>
</mask>
<path d="M0 125C0 55.9644 55.9644 0 125 0C194.036 0 250 55.9644 250 125C250 194.036 194.036 250 125 250C55.9644 250 0 194.036 0 125Z" fill="white"/>
<path d="M0 125M250 125M250 125M0 125M125 0M250 125M125 250M0 125M125 250V248C57.069 248 2 192.931 2 125H0H-2C-2 195.14 54.8598 252 125 252V250ZM250 125H248C248 192.931 192.931 248 125 248V250V252C195.14 252 252 195.14 252 125H250ZM125 0V2C192.931 2 248 57.069 248 125H250H252C252 54.8598 195.14 -2 125 -2V0ZM125 0V-2C54.8598 -2 -2 54.8598 -2 125H0H2C2 57.069 57.069 2 125 2V0Z" fill="#DDDBDB" mask="url(#path-1-inside-1_453_345)"/>
<path d="M72.9058 63.0945C73.8997 62.8165 84.0687 62.9328 85.7744 62.9331L119.382 62.9413L161.72 62.9277L175.184 62.9243C178 62.9232 180.814 62.8816 183.642 63.016C188.419 63.243 193.039 67.1579 194.434 71.6705C194.893 73.1521 194.809 75.1914 194.881 76.7443C194.919 78.4681 194.893 80.2415 194.893 81.9703L194.883 93.6038C194.877 100.617 195.126 109.052 194.915 115.942C194.911 119.058 195.045 123.895 194.862 126.845C194.64 143.391 195.095 160.023 194.724 176.562C194.775 180.58 189.441 186.144 185.549 186.727C181.301 187.364 175.213 187.098 170.761 187.092L143.071 187.088H92.7044L76.5621 187.106C73.294 187.111 70.1556 187.121 66.8286 187.02C61.8832 187.187 56.2693 182.544 55.4625 177.623C54.8108 173.647 55.0427 167.518 55.0465 163.304L55.0458 139.231L55.0593 96.8355L55.0581 83.584C55.0567 79.4982 54.5208 72.8785 56.7318 69.4631C60.7051 62.8803 65.8002 62.6492 72.9058 63.0945Z" fill="#00AFEE"/>
<path d="M72.9062 63.0945C73.9001 62.8165 84.0691 62.9328 85.7748 62.9331L119.382 62.9413L161.721 62.9277L175.185 62.9243C178 62.9232 180.814 62.8816 183.643 63.016C188.42 63.243 193.04 67.1579 194.435 71.6705C194.893 73.1521 194.809 75.1914 194.882 76.7443C194.919 78.4681 194.893 80.2415 194.893 81.9703L194.883 93.6038C194.877 100.617 195.126 109.052 194.916 115.942C155.249 126.027 116.322 87.4019 84.1651 69.5718C81.7427 68.242 79.3273 66.899 76.9194 65.5427C75.7888 64.9066 73.8332 63.8948 72.9062 63.0945Z" fill="#A8CE48"/>
<path d="M56.7324 69.463C60.7058 62.8802 65.8009 62.6491 72.9065 63.0944C73.8334 63.8947 75.789 64.9065 76.9197 65.5426C79.3276 66.8989 81.7429 68.2418 84.1654 69.5717C116.322 87.4017 155.249 126.027 194.916 115.942C194.911 119.058 195.046 123.894 194.863 126.845C184.145 129.812 175.436 129.973 164.533 127.677C160.024 126.589 155.591 124.991 151.323 123.204C123.912 111.725 101.373 91.3814 75.2472 77.5657C71.9327 75.8128 60.1555 69.8436 56.7324 69.463Z" fill="#FEFDFC"/>
<path d="M136.93 140.456C140.698 140.533 144.642 140.407 148.47 140.459C148.439 141.952 148.435 143.531 148.46 145.026C148.648 156.103 148.154 167.377 148.591 178.433C145.926 178.293 142.604 178.374 139.891 178.368C139.835 173.915 139.828 169.46 139.869 165.006C139.884 161.565 140.015 156.906 139.713 153.598C139.054 155.026 138.368 157.474 137.771 159.05C135.322 165.515 133.498 172.248 130.955 178.679C129.33 178.371 126.973 178.402 125.266 178.378C123.32 172.878 121.627 167.188 119.589 161.688C118.605 159.034 118.125 156.49 116.731 153.999C117.131 159.719 116.677 166.242 116.859 172.026C116.927 174.175 116.805 176.394 117.028 178.543C114.527 178.29 110.711 178.383 108.103 178.387C108.087 165.878 108.276 152.95 108.072 140.482C111.895 140.436 115.718 140.423 119.541 140.444C121.846 146.777 123.623 153.604 125.779 160.001C126.56 162.318 127.315 165.06 128.259 167.28C129.25 164.941 130.31 161.136 131.139 158.566C133.04 152.668 135.227 146.385 136.93 140.456Z" fill="#FEFDFC"/>
<path fill-rule="evenodd" clip-rule="evenodd" d="M154.632 140.511C160.443 140.398 167.094 140.066 172.793 140.932C182.199 142.36 186.029 153.298 177.113 158.901C179.38 159.792 181.241 160.438 182.456 162.726C184.116 165.853 183.68 169.33 182.405 172.444C178.737 178.99 170.965 178.387 164.549 178.392L154.635 178.395L154.632 140.511ZM163.25 162.061C163.297 165.274 163.325 168.487 163.334 171.699C166.621 171.753 170.977 172.323 173.544 170.499C175.386 168.72 175.134 165.17 173.43 163.512C171.199 161.344 166.207 162.401 163.25 162.061ZM163.252 146.999C163.268 149.954 163.215 153.243 163.338 156.171C166.687 156.237 169.041 156.569 172.059 154.906C172.838 154.328 173.142 153.899 173.279 152.926C173.775 149.4 172.051 147.619 168.619 147.185C166.827 146.96 164.958 147.185 163.252 146.999Z" fill="#FEFDFC"/>
<path d="M70.8311 140.503C73.7272 140.459 76.6233 140.432 79.5198 140.423C79.3632 145.224 79.568 150.388 79.4773 155.251C79.5016 158.916 79.3376 162.503 79.6445 166.161C79.9816 170.18 82.6102 172.328 86.643 172.324C95.0139 172.318 93.5051 163.113 93.5065 157.369L93.5111 140.523C96.3434 140.46 99.1767 140.445 102.009 140.479C101.941 142.498 101.995 144.827 101.996 146.869L102.014 159.361C102.019 164.729 102.78 170.188 98.6865 174.368C92.7953 180.386 80.9324 180.42 74.7487 174.851C72.6458 172.847 71.0127 169.733 70.9415 166.823C70.7271 158.057 71.0333 149.264 70.8311 140.503Z" fill="#FEFDFC"/>
</svg>
