<svg width="250" height="250" viewBox="0 0 250 250" fill="none" xmlns="http://www.w3.org/2000/svg">
<path d="M0 125C0 55.9644 55.9644 0 125 0C194.036 0 250 55.9644 250 125C250 194.036 194.036 250 125 250C55.9644 250 0 194.036 0 125Z" fill="white"/>
<path d="M72.9066 63.094C73.9004 62.816 84.0694 62.9323 85.7751 62.9326L119.383 62.9409L161.721 62.9272L175.185 62.9238C178 62.9227 180.815 62.8811 183.643 63.0155C188.42 63.2425 193.04 67.1574 194.435 71.6701C194.893 73.1516 194.809 75.191 194.882 76.7438C194.919 78.4676 194.893 80.2411 194.893 81.9698L194.884 93.6034C194.877 100.616 195.127 109.051 194.916 115.942C194.911 119.058 195.046 123.894 194.863 126.844C194.641 143.391 195.096 160.023 194.725 176.562C194.775 180.58 189.441 186.144 185.55 186.727C181.302 187.363 175.214 187.098 170.762 187.091L143.072 187.088H92.7052L76.5629 187.106C73.2947 187.111 70.1564 187.12 66.8293 187.02C61.884 187.187 56.27 182.544 55.4632 177.623C54.8116 173.647 55.0435 167.518 55.0472 163.304L55.0466 139.23L55.06 96.835L55.0589 83.5835C55.0574 79.4977 54.5215 72.878 56.7325 69.4627C60.7059 62.8798 65.801 62.6487 72.9066 63.094Z" fill="#00AFEE"/>
<path d="M72.9065 63.094C73.9003 62.816 84.0693 62.9323 85.775 62.9326L119.382 62.9409L161.721 62.9272L175.185 62.9238C178 62.9227 180.814 62.8811 183.643 63.0155C188.42 63.2425 193.04 67.1574 194.435 71.6701C194.893 73.1516 194.809 75.191 194.882 76.7438C194.919 78.4676 194.893 80.2411 194.893 81.9698L194.884 93.6034C194.877 100.616 195.127 109.051 194.916 115.942C155.249 126.026 116.322 87.4014 84.1654 69.5713C81.7429 68.2415 79.3276 66.8985 76.9197 65.5423C75.789 64.9062 73.8334 63.8944 72.9065 63.094Z" fill="#A8CE48"/>
<path d="M56.7327 69.4616C60.706 62.8787 65.8011 62.6476 72.9067 63.0929C73.8337 63.8933 75.7893 64.9051 76.9199 65.5412C79.3278 66.8974 81.7431 68.2404 84.1656 69.5702C116.322 87.4003 155.25 126.025 194.916 115.941C194.911 119.057 195.046 123.893 194.863 126.843C184.145 129.81 175.437 129.972 164.533 127.676C160.025 126.588 155.591 124.989 151.323 123.202C123.912 111.724 101.373 91.38 75.2474 77.5642C71.933 75.8114 60.1558 69.8421 56.7327 69.4616Z" fill="#FEFDFC"/>
<path d="M136.93 140.456C140.698 140.533 144.642 140.407 148.47 140.459C148.439 141.952 148.435 143.531 148.46 145.026C148.648 156.103 148.154 167.377 148.591 178.433C145.926 178.293 142.604 178.374 139.891 178.368C139.835 173.915 139.828 169.46 139.869 165.006C139.884 161.565 140.015 156.906 139.713 153.598C139.054 155.026 138.368 157.474 137.771 159.05C135.322 165.515 133.498 172.248 130.955 178.679C129.33 178.371 126.973 178.402 125.266 178.378C123.32 172.878 121.627 167.188 119.589 161.688C118.605 159.034 118.125 156.49 116.731 153.999C117.131 159.719 116.677 166.242 116.859 172.026C116.927 174.175 116.805 176.394 117.028 178.543C114.527 178.29 110.711 178.383 108.103 178.387C108.087 165.878 108.276 152.95 108.072 140.482C111.895 140.436 115.718 140.423 119.541 140.444C121.846 146.777 123.623 153.604 125.779 160.001C126.56 162.318 127.315 165.06 128.259 167.28C129.25 164.941 130.31 161.136 131.139 158.566C133.04 152.668 135.227 146.385 136.93 140.456Z" fill="#FEFDFC"/>
<path fill-rule="evenodd" clip-rule="evenodd" d="M154.632 140.511C160.443 140.398 167.094 140.066 172.793 140.932C182.199 142.36 186.029 153.298 177.113 158.901C179.38 159.792 181.241 160.438 182.456 162.726C184.116 165.853 183.68 169.33 182.405 172.444C178.737 178.99 170.965 178.387 164.549 178.392L154.635 178.395L154.632 140.511ZM163.25 162.061C163.297 165.274 163.325 168.487 163.334 171.699C166.621 171.753 170.977 172.323 173.544 170.499C175.386 168.72 175.134 165.17 173.43 163.512C171.199 161.344 166.207 162.401 163.25 162.061ZM163.252 146.999C163.268 149.954 163.215 153.243 163.338 156.171C166.687 156.237 169.041 156.569 172.059 154.906C172.838 154.328 173.142 153.899 173.279 152.926C173.775 149.4 172.051 147.619 168.619 147.185C166.827 146.96 164.958 147.185 163.252 146.999Z" fill="#FEFDFC"/>
<path d="M70.8311 140.503C73.7272 140.459 76.6233 140.432 79.5198 140.423C79.3632 145.224 79.568 150.388 79.4773 155.251C79.5016 158.916 79.3376 162.503 79.6445 166.161C79.9816 170.18 82.6102 172.328 86.643 172.324C95.0139 172.318 93.5051 163.113 93.5065 157.369L93.5111 140.523C96.3434 140.46 99.1767 140.445 102.009 140.479C101.941 142.498 101.995 144.827 101.996 146.869L102.014 159.361C102.019 164.729 102.78 170.188 98.6865 174.368C92.7953 180.386 80.9324 180.42 74.7487 174.851C72.6458 172.847 71.0127 169.733 70.9415 166.823C70.7271 158.057 71.0333 149.264 70.8311 140.503Z" fill="#FEFDFC"/>
</svg>
