<svg width="250" height="250" viewBox="0 0 250 250" fill="none" xmlns="http://www.w3.org/2000/svg">
<path d="M0 125C0 55.9644 55.9644 0 125 0C194.036 0 250 55.9644 250 125C250 194.036 194.036 250 125 250C55.9644 250 0 194.036 0 125Z" fill="white"/>
<path d="M69.2506 55.1559C84.4381 53.8245 102.992 63.1261 102.519 84.548C102.108 103.207 102.419 121.879 102.444 140.545C102.463 152.74 110.962 161.786 123.368 162.912C134.524 163.92 144.703 156.068 146.868 144.701C147.173 143.089 147.154 141.403 147.161 139.748C147.179 126.807 147.173 113.865 147.173 100.152C150.166 103.4 152.735 106.132 155.249 108.919C162.616 117.076 169.97 125.239 179.346 131.237C179.993 131.654 180.578 132.68 180.622 133.452C181.412 147.594 179.185 161.021 170.188 172.475C156.077 190.444 137.33 197.929 115.012 194.022C92.7879 190.127 77.7683 176.874 71.1545 154.973C69.9163 150.867 69.3501 146.412 69.3253 142.113C69.1759 113.187 69.2506 84.2556 69.2506 55.1559Z" fill="#010101"/>
<path d="M142.516 75.4702C158.226 82.4885 168.647 95.5295 179.505 108.073C179.897 108.527 180.488 109.062 180.494 109.56C180.562 115.303 180.537 121.045 180.537 127.224C172.642 122.221 166.706 115.906 160.715 109.653C152.508 101.092 144.426 92.3999 135.952 84.1124C131.733 79.9873 126.544 77.1439 120.073 77.8221C128.243 68.3773 139.685 65.4717 150.523 70.81C158.182 74.5867 164.199 80.3855 169.979 86.4767C172.399 89.0276 174.683 91.703 176.966 94.3722C180.786 98.8333 180.768 98.8457 180.413 105.453C169.17 93.2958 158.916 80.3855 142.516 75.4702Z" fill="#12BE08"/>
<path d="M142.516 75.4702C158.226 82.4885 168.647 95.5295 179.505 108.073C179.897 108.527 180.488 109.062 180.494 109.56C180.562 115.303 180.537 121.045 180.537 127.224C172.642 122.221 166.706 115.906 160.715 109.653C152.508 101.092 144.426 92.3999 135.952 84.1124C131.733 79.9873 126.544 77.1439 120.073 77.8221C128.243 68.3773 139.685 65.4717 150.523 70.81C158.182 74.5867 164.199 80.3855 169.979 86.4767C172.399 89.0276 174.683 91.703 176.966 94.3722C180.786 98.8333 180.768 98.8457 180.413 105.453C169.17 93.2958 158.916 80.3855 142.516 75.4702Z" fill="url(#paint0_radial_1_1674)"/>
<defs>
<radialGradient id="paint0_radial_1_1674" cx="0" cy="0" r="1" gradientUnits="userSpaceOnUse" gradientTransform="translate(184.598 91.1111) rotate(37.1608) scale(59.7836 11.9377)">
<stop offset="0.0445145" stop-color="#119530"/>
<stop offset="1" stop-color="#119530" stop-opacity="0"/>
</radialGradient>
</defs>
</svg>
