<svg width="250" height="250" viewBox="0 0 250 250" fill="none" xmlns="http://www.w3.org/2000/svg">
<mask id="path-1-inside-1_453_30" fill="white">
<path d="M0 125C0 55.9644 55.9644 0 125 0C194.036 0 250 55.9644 250 125C250 194.036 194.036 250 125 250C55.9644 250 0 194.036 0 125Z"/>
</mask>
<path d="M0 125C0 55.9644 55.9644 0 125 0C194.036 0 250 55.9644 250 125C250 194.036 194.036 250 125 250C55.9644 250 0 194.036 0 125Z" fill="white"/>
<path d="M0 125M250 125M250 125M0 125M125 0M250 125M125 250M0 125M125 250V248C57.069 248 2 192.931 2 125H0H-2C-2 195.14 54.8598 252 125 252V250ZM250 125H248C248 192.931 192.931 248 125 248V250V252C195.14 252 252 195.14 252 125H250ZM125 0V2C192.931 2 248 57.069 248 125H250H252C252 54.8598 195.14 -2 125 -2V0ZM125 0V-2C54.8598 -2 -2 54.8598 -2 125H0H2C2 57.069 57.069 2 125 2V0Z" fill="#DDDBDB" mask="url(#path-1-inside-1_453_30)"/>
<path d="M69.2501 55.1554C84.4377 53.824 102.991 63.1256 102.518 84.5475C102.108 103.207 102.419 121.879 102.444 140.544C102.462 152.739 110.961 161.786 123.368 162.912C134.524 163.92 144.703 156.068 146.868 144.7C147.173 143.089 147.154 141.403 147.16 139.748C147.179 126.806 147.173 113.865 147.173 100.152C150.165 103.4 152.735 106.131 155.249 108.918C162.615 117.075 169.969 125.238 179.346 131.236C179.993 131.653 180.578 132.68 180.621 133.451C181.411 147.594 179.184 161.02 170.187 172.475C156.076 190.443 137.33 197.928 115.012 194.021C92.7874 190.126 77.7678 176.874 71.154 154.973C69.9158 150.866 69.3497 146.411 69.3248 142.112C69.1754 113.187 69.2501 84.2551 69.2501 55.1554Z" fill="#010101"/>
<path d="M142.515 75.4697C158.225 82.488 168.647 95.529 179.504 108.072C179.896 108.526 180.487 109.062 180.493 109.559C180.562 115.302 180.537 121.045 180.537 127.223C172.641 122.221 166.706 115.906 160.714 109.653C152.507 101.091 144.425 92.3994 135.951 84.1119C131.733 79.9868 126.544 77.1434 120.073 77.8216C128.242 68.3768 139.684 65.4712 150.523 70.8095C158.182 74.5862 164.198 80.385 169.978 86.4762C172.399 89.0271 174.682 91.7025 176.966 94.3717C180.786 98.8328 180.767 98.8452 180.412 105.453C169.17 93.2953 158.916 80.385 142.515 75.4697Z" fill="#12BE08"/>
<path d="M142.515 75.4697C158.225 82.488 168.647 95.529 179.504 108.072C179.896 108.526 180.487 109.062 180.493 109.559C180.562 115.302 180.537 121.045 180.537 127.223C172.641 122.221 166.706 115.906 160.714 109.653C152.507 101.091 144.425 92.3994 135.951 84.1119C131.733 79.9868 126.544 77.1434 120.073 77.8216C128.242 68.3768 139.684 65.4712 150.523 70.8095C158.182 74.5862 164.198 80.385 169.978 86.4762C172.399 89.0271 174.682 91.7025 176.966 94.3717C180.786 98.8328 180.767 98.8452 180.412 105.453C169.17 93.2953 158.916 80.385 142.515 75.4697Z" fill="url(#paint0_radial_453_30)"/>
<defs>
<radialGradient id="paint0_radial_453_30" cx="0" cy="0" r="1" gradientUnits="userSpaceOnUse" gradientTransform="translate(184.597 91.1107) rotate(37.1608) scale(59.7836 11.9377)">
<stop offset="0.0445145" stop-color="#119530"/>
<stop offset="1" stop-color="#119530" stop-opacity="0"/>
</radialGradient>
</defs>
</svg>
