<svg width="250" height="250" viewBox="0 0 250 250" fill="none" xmlns="http://www.w3.org/2000/svg">
<path d="M0 125C0 55.9644 55.9644 0 125 0C194.036 0 250 55.9644 250 125C250 194.036 194.036 250 125 250C55.9644 250 0 194.036 0 125Z" fill="#E6E7EA"/>
<path fill-rule="evenodd" clip-rule="evenodd" d="M193.651 92.7217V103.376H56.3498V92.5771L125.072 60.0098L193.651 92.7217ZM125 75.6924C120.582 75.6924 117 79.2743 117 83.6924C117 88.1107 120.582 91.6924 125 91.6924C129.419 91.6924 133 88.1107 133 83.6924C133 79.2743 129.418 75.6924 125 75.6924Z" fill="white"/>
<path d="M93 168.58H114V110.52H136V168.58H157V110.52H179V168.58H186.713V175.723H193.654V190.01H56.3457V175.723H63.2881V168.58H71V110.52H93V168.58Z" fill="white"/>
</svg>
