<svg width="250" height="250" viewBox="0 0 250 250" fill="none" xmlns="http://www.w3.org/2000/svg">
<mask id="path-1-inside-1_453_251" fill="white">
<path d="M0 125C0 55.9644 55.9644 0 125 0C194.036 0 250 55.9644 250 125C250 194.036 194.036 250 125 250C55.9644 250 0 194.036 0 125Z"/>
</mask>
<path d="M0 125C0 55.9644 55.9644 0 125 0C194.036 0 250 55.9644 250 125C250 194.036 194.036 250 125 250C55.9644 250 0 194.036 0 125Z" fill="white"/>
<path d="M0 125M250 125M250 125M0 125M125 0M250 125M125 250M0 125M125 250V248C57.069 248 2 192.931 2 125H0H-2C-2 195.14 54.8598 252 125 252V250ZM250 125H248C248 192.931 192.931 248 125 248V250V252C195.14 252 252 195.14 252 125H250ZM125 0V2C192.931 2 248 57.069 248 125H250H252C252 54.8598 195.14 -2 125 -2V0ZM125 0V-2C54.8598 -2 -2 54.8598 -2 125H0H2C2 57.069 57.069 2 125 2V0Z" fill="#DDDBDB" mask="url(#path-1-inside-1_453_251)"/>
<path d="M157.334 149.97C154.93 150.097 151.59 149.99 149.104 149.989L117.824 149.986C115.015 149.987 112.141 150.041 109.341 149.917C106.119 149.773 102.247 148.93 99.9876 146.481C98.1388 144.478 97.08 141.641 95.8666 139.224C95.2455 137.987 94.6347 136.77 94.0543 135.511C92.4554 132.368 90.2199 128.944 86.5417 128.143C83.9981 127.588 80.7869 128.41 78.4008 127.585C77.0373 127.114 75.9193 126.116 75.2967 124.814C74.6817 123.522 74.6686 121.974 75.1527 120.638C75.6249 119.319 76.6123 118.248 77.8888 117.669C78.5546 117.367 79.271 117.191 80.0013 117.152C81.8004 117.048 84.7096 117.14 86.5661 117.141L109.77 117.139C111.842 117.137 114.345 117.051 116.371 117.291C118.713 117.566 120.976 118.305 123.029 119.463C126.248 121.256 128.56 123.817 130.249 127.004C130.515 127.507 131.198 128.941 131.659 129.114C132.152 128.967 133.129 126.345 133.394 125.733L135.918 119.933C136.148 119.402 136.886 117.541 137.19 117.305C137.535 117.036 141.336 117.14 141.889 117.14L168.566 117.151C171.871 117.034 174.445 119.623 174.335 122.838C174.279 124.485 172.584 127.83 171.882 129.459L168.342 137.689L164.763 145.939C164.22 147.182 163.578 148.766 162.984 149.959C161.418 150.031 158.914 150.024 157.334 149.97Z" fill="url(#paint0_linear_453_251)"/>
<path d="M129.724 193.137L129.654 193.117C128.556 192.802 127.416 192.718 126.182 192.326C121.548 190.864 117.651 187.682 115.294 183.433C114.84 182.623 114.462 181.737 114.065 180.894L112.182 176.954C110.269 172.869 109.353 170.673 105.681 167.827C101.871 164.873 98.5812 167.34 95.4476 165.395C94.6952 164.92 94.0742 164.264 93.6419 163.486C92.9337 162.234 92.7628 160.748 93.1678 159.368C93.5729 157.954 94.4323 156.848 95.7312 156.141C97.4633 155.198 99.591 155.46 101.533 155.46L144.964 155.462C146.449 155.462 152.828 155.33 153.941 155.666C155.341 156.101 156.513 157.071 157.2 158.367C158.629 161.047 157.28 163.299 156.23 165.78C155.376 167.808 154.512 169.832 153.637 171.851C152.67 174.127 151.685 176.397 150.683 178.658C148.198 184.276 146.185 188.105 140.452 191.114C138.988 191.883 137.722 192.338 136.098 192.703C135.587 192.817 134.291 193.003 133.885 193.137H129.724Z" fill="url(#paint1_linear_453_251)"/>
<path d="M55.4333 78.8623H99.6626C99.6836 78.8695 99.7046 78.8766 99.7256 78.8838C105.646 79.7322 110.954 83.1317 113.698 88.5228C114.507 90.1124 115.186 91.8014 115.905 93.4347L119.85 102.387L122.58 108.548C122.936 109.353 123.697 110.939 123.925 111.69C117.274 111.603 110.41 111.642 103.742 111.66C101.493 111.684 99.2441 111.692 96.9948 111.686C92.2213 111.679 86.8023 111.733 83.2573 108.014C81.8233 106.51 80.8925 104.687 80.101 102.787C78.2316 98.4434 76.9894 94.3915 72.9211 91.525C71.3077 90.3881 69.7291 89.6763 67.7102 89.6574C65.0903 89.6328 62.4619 89.6729 59.8441 89.6614C59.1564 89.6583 57.028 89.7084 56.4741 89.6116C55.7661 89.7014 54.3536 89.2789 53.7344 88.9006C51.9889 87.8343 51.5083 86.7043 51 84.8758V83.5653C51.8063 80.6234 52.5951 79.8566 55.4333 78.8623Z" fill="url(#paint2_linear_453_251)"/>
<path d="M146.335 78.8623H186.486C187.019 79.1283 187.506 79.1617 188.265 79.593C189.545 80.3283 190.477 81.5466 190.851 82.9749C191.067 83.8276 191.048 84.7225 190.796 85.5652C190.497 86.5667 189.441 88.8277 188.97 89.9287L184.812 99.559L181.351 107.539C180.89 108.608 180.073 110.713 179.518 111.644C178.795 111.718 176.78 111.661 175.984 111.66L148.399 111.667C145.574 111.672 142.315 111.593 139.528 111.667C140.113 109.984 141.237 107.605 141.968 105.903L147.658 92.6701C148.5 90.7236 149.826 87.9822 150.526 86.0694C151.024 84.6911 150.953 83.1712 150.33 81.8447C149.459 79.9853 148.079 79.5066 146.335 78.8623Z" fill="url(#paint3_linear_453_251)"/>
<path d="M51 121.774C52.4801 116.994 55.3756 117.021 59.7473 117.137C61.064 117.172 62.5214 117.062 63.8257 117.155C64.3041 117.188 64.7772 117.276 65.2356 117.417C66.6336 117.866 67.7961 118.851 68.4667 120.157C69.1665 121.507 69.298 123.08 68.8322 124.527C68.3727 125.926 67.3724 127.083 66.0545 127.74C64.1111 128.72 61.1001 128.228 58.944 128.339C57.7159 128.402 55.8131 128.399 54.6716 128.004C53.2866 127.531 52.1525 126.517 51.528 125.193C51.3112 124.736 51.1528 124.211 51 123.726V121.774Z" fill="url(#paint4_linear_453_251)"/>
<defs>
<linearGradient id="paint0_linear_453_251" x1="58.6208" y1="123.137" x2="200.722" y2="123.137" gradientUnits="userSpaceOnUse">
<stop stop-color="#AC3880"/>
<stop offset="0.564545" stop-color="#DC2E44"/>
<stop offset="1" stop-color="#F79022"/>
</linearGradient>
<linearGradient id="paint1_linear_453_251" x1="58.6208" y1="123.137" x2="200.722" y2="123.137" gradientUnits="userSpaceOnUse">
<stop stop-color="#AC3880"/>
<stop offset="0.564545" stop-color="#DC2E44"/>
<stop offset="1" stop-color="#F79022"/>
</linearGradient>
<linearGradient id="paint2_linear_453_251" x1="58.6208" y1="123.137" x2="200.722" y2="123.137" gradientUnits="userSpaceOnUse">
<stop stop-color="#AC3880"/>
<stop offset="0.564545" stop-color="#DC2E44"/>
<stop offset="1" stop-color="#F79022"/>
</linearGradient>
<linearGradient id="paint3_linear_453_251" x1="58.6208" y1="123.137" x2="200.722" y2="123.137" gradientUnits="userSpaceOnUse">
<stop stop-color="#AC3880"/>
<stop offset="0.564545" stop-color="#DC2E44"/>
<stop offset="1" stop-color="#F79022"/>
</linearGradient>
<linearGradient id="paint4_linear_453_251" x1="58.6208" y1="123.137" x2="200.722" y2="123.137" gradientUnits="userSpaceOnUse">
<stop stop-color="#AC3880"/>
<stop offset="0.564545" stop-color="#DC2E44"/>
<stop offset="1" stop-color="#F79022"/>
</linearGradient>
</defs>
</svg>
