<svg width="250" height="250" viewBox="0 0 250 250" fill="none" xmlns="http://www.w3.org/2000/svg">
<path d="M0 125C0 55.9644 55.9644 0 125 0C194.036 0 250 55.9644 250 125C250 194.036 194.036 250 125 250C55.9644 250 0 194.036 0 125Z" fill="white"/>
<path d="M155.152 73.2951C155.272 73.2674 155.266 73.2829 155.397 73.2995L155.463 73.4253C155.431 73.9302 154.935 75.3333 154.755 75.9142L148.836 95.156C148.019 97.8002 147.224 100.53 146.338 103.145C146.581 103.816 147.013 104.745 147.304 105.417L149.191 109.787L163.801 143.856C164.353 145.142 164.941 146.418 165.465 147.714C165.554 147.932 165.722 148.282 165.7 148.516C165.61 149.451 154.307 184.752 154.068 185.086C153.999 185.183 153.975 185.187 153.857 185.209C153.554 184.89 152.452 181.791 152.193 181.132C150.548 177.023 148.948 172.896 147.395 168.751L111.914 75.9664C111.626 75.2162 111.217 73.9673 110.898 73.3071C119.81 73.4306 128.947 73.3329 137.871 73.3333H148.826C150.863 73.3331 153.138 73.3831 155.152 73.2951Z" fill="#C2C2C1"/>
<path d="M65.0515 73.2759C65.7324 73.3687 68.796 73.3091 69.633 73.3082L97.3831 73.3095C100.384 73.3096 104.137 73.4081 107.1 73.2774C106.621 74.9631 105.958 76.8215 105.407 78.502L102.987 85.9514L98.9697 98.4436C98.2005 100.798 97.1494 103.603 96.498 105.925L110.162 147.267L113.453 157.191C113.815 158.27 114.867 161.204 115.026 162.135C114.727 162.869 113.727 164.464 113.283 165.216L109.894 170.952C107.751 174.501 105.707 178.112 103.49 181.625C102.474 183.235 101.403 185.077 100.466 186.729C100.282 185.889 99.912 184.805 99.6494 183.964C99.138 182.295 98.6036 180.633 98.0464 178.978C97.0006 175.706 95.9717 172.427 94.9598 169.144L74.9128 105.102L68.134 83.5759L66.1284 77.1699C65.7716 76.0346 65.4066 74.886 65.0614 73.7467C64.9876 73.5028 64.9756 73.4683 65.0515 73.2759Z" fill="#2D3389"/>
<path d="M182.813 73.2932C183.542 73.2818 184.271 73.2772 185 73.2795C184.67 74.1496 184.333 75.2927 184.043 76.1917C183.431 78.1249 182.808 80.0549 182.176 81.9816L179.06 91.552C178.017 94.7366 176.916 97.8272 176.161 101.095C175.947 102.024 175.401 103.294 175.092 104.243C174.574 105.863 174.043 107.479 173.499 109.091C173.12 110.221 172.681 111.879 172.01 112.797C171.773 111.806 171.189 110.564 170.837 109.582C170.21 107.829 169.616 106.062 168.971 104.318C168.481 102.701 167.727 100.777 167.162 99.1691L159.576 77.4069C159.126 76.1397 158.659 74.5226 158.156 73.324C160.91 73.2214 164.056 73.2953 166.838 73.2949L182.813 73.2932Z" fill="#ED0A7B"/>
</svg>
