<svg width="250" height="250" viewBox="0 0 250 250" fill="none" xmlns="http://www.w3.org/2000/svg">
<mask id="path-1-inside-1_453_22" fill="white">
<path d="M0 125C0 55.9644 55.9644 0 125 0C194.036 0 250 55.9644 250 125C250 194.036 194.036 250 125 250C55.9644 250 0 194.036 0 125Z"/>
</mask>
<path d="M0 125C0 55.9644 55.9644 0 125 0C194.036 0 250 55.9644 250 125C250 194.036 194.036 250 125 250C55.9644 250 0 194.036 0 125Z" fill="white"/>
<path d="M0 125M250 125M250 125M0 125M125 0M250 125M125 250M0 125M125 250V248C57.069 248 2 192.931 2 125H0H-2C-2 195.14 54.8598 252 125 252V250ZM250 125H248C248 192.931 192.931 248 125 248V250V252C195.14 252 252 195.14 252 125H250ZM125 0V2C192.931 2 248 57.069 248 125H250H252C252 54.8598 195.14 -2 125 -2V0ZM125 0V-2C54.8598 -2 -2 54.8598 -2 125H0H2C2 57.069 57.069 2 125 2V0Z" fill="#DDDBDB" mask="url(#path-1-inside-1_453_22)"/>
<path d="M141.629 135.516C142.155 142.089 142.55 147.742 142.944 153.263C150.568 153.788 152.409 151.948 151.883 144.981C151.62 141.563 151.62 138.014 151.489 134.596C151.489 134.202 151.62 133.807 151.62 133.019C155.827 137.094 159.902 141.037 164.108 144.981C168.315 140.511 172.653 135.911 177.517 130.652C177.78 133.15 177.911 134.859 178.042 136.699C178.305 146.821 178.7 156.943 178.831 167.065C178.963 174.69 175.545 177.976 167.92 178.239C160.428 178.502 152.803 179.028 144.653 179.422C144.916 185.206 145.179 190.859 145.442 197.037C133.348 187.309 121.78 177.976 109.949 168.511C120.465 157.601 130.719 146.953 141.629 135.516Z" fill="#09A1DF"/>
<path d="M86.1545 104.887C81.8165 109.62 77.4785 114.089 72.6147 119.216C72.3517 112.906 72.0888 107.253 71.9574 101.601C71.6945 95.2909 71.6945 89.1125 71.3001 82.9341C70.9057 77.1501 75.1123 71.8919 81.4221 72.0234C88.6522 72.1548 95.8822 71.2346 103.112 70.7088C103.769 70.7088 104.427 70.4459 105.216 70.183C105.084 64.6619 104.821 59.2722 104.558 52.9624C116.784 62.6901 128.352 72.0234 140.183 81.4881C129.666 92.3989 119.413 103.178 108.633 114.615C108.108 108.305 107.582 102.784 107.187 97.2627C100.352 95.5538 97.0653 98.8402 98.2484 105.15C99.0371 109.094 98.7742 113.037 99.0371 117.638C94.5676 113.3 90.4925 109.225 86.1545 104.887Z" fill="#09A1DF"/>
<path d="M133.742 95.5539C138.474 90.5586 142.812 85.9577 147.413 81.0939C143.338 77.676 139.263 74.5211 134.925 70.9718C136.24 70.8404 137.028 70.7089 137.817 70.7089C147.413 70.7089 157.009 70.8404 166.606 70.7089C172.258 70.5774 177.385 73.2066 176.991 80.9624C176.596 88.8497 176.859 96.737 176.859 105.019C182.775 105.019 188.296 105.019 195 105.019C184.089 116.587 173.967 127.366 163.582 138.54C153.46 127.366 143.338 116.587 132.559 105.019C139.132 105.019 144.653 105.019 150.7 105.019C150.7 103.047 150.831 101.601 150.7 100.023C150.305 97.1314 148.728 95.4225 145.573 95.5539C141.761 95.5539 137.949 95.5539 133.742 95.5539Z" fill="#0E69B2"/>
<path d="M86.4177 111.723C96.8027 122.765 106.925 133.544 117.441 144.849C111.263 144.849 105.61 144.849 99.4318 144.849C99.4318 146.953 99.3003 148.53 99.4318 150.108C99.6947 153 101.141 154.577 104.164 154.577C107.976 154.577 111.92 154.577 116.389 154.577C111.526 159.572 107.056 164.305 102.455 169.169C106.662 172.586 110.737 175.741 115.338 179.554C113.103 179.554 111.657 179.554 110.08 179.554C101.009 179.554 92.0703 179.554 82.9999 179.554C76.4272 179.554 73.1408 176.267 73.0093 169.826C73.0093 162.99 73.0093 156.023 73.0093 149.187C73.0093 148.004 73.0093 146.821 73.0093 145.244C67.0939 145.244 61.4413 145.244 55 145.244C65.7793 133.676 75.9013 122.896 86.4177 111.723Z" fill="#0E69B2"/>
</svg>
