<svg width="250" height="250" viewBox="0 0 250 250" fill="none" xmlns="http://www.w3.org/2000/svg">
<path d="M0 125C0 55.9644 55.9644 0 125 0C194.036 0 250 55.9644 250 125C250 194.036 194.036 250 125 250C55.9644 250 0 194.036 0 125Z" fill="white"/>
<path d="M141.628 135.517C142.154 142.089 142.549 147.742 142.943 153.263C150.567 153.789 152.408 151.949 151.882 144.981C151.619 141.564 151.619 138.014 151.488 134.596C151.488 134.202 151.619 133.808 151.619 133.019C155.826 137.094 159.901 141.038 164.107 144.981C168.314 140.512 172.652 135.911 177.516 130.653C177.779 133.15 177.91 134.859 178.042 136.7C178.304 146.822 178.699 156.944 178.83 167.066C178.962 174.69 175.544 177.977 167.919 178.24C160.427 178.502 152.802 179.028 144.652 179.423C144.915 185.207 145.178 190.859 145.441 197.038C133.347 187.31 121.779 177.977 109.948 168.512C120.464 157.601 130.718 146.953 141.628 135.517Z" fill="#09A1DF"/>
<path d="M86.1535 104.888C81.8155 109.62 77.4775 114.089 72.6137 119.216C72.3508 112.906 72.0879 107.254 71.9564 101.601C71.6935 95.2914 71.6935 89.113 71.2991 82.9346C70.9048 77.1506 75.1113 71.8924 81.4212 72.0239C88.6512 72.1553 95.8812 71.2351 103.111 70.7093C103.769 70.7093 104.426 70.4464 105.215 70.1835C105.083 64.6624 104.82 59.2727 104.557 52.9629C116.783 62.6906 128.351 72.0239 140.182 81.4886C129.665 92.3994 119.412 103.179 108.632 114.615C108.107 108.305 107.581 102.784 107.186 97.2632C100.351 95.5543 97.0643 98.8407 98.2474 105.151C99.0361 109.094 98.7732 113.038 99.0361 117.639C94.5667 113.301 90.4916 109.226 86.1535 104.888Z" fill="#09A1DF"/>
<path d="M133.741 95.5544C138.473 90.5591 142.811 85.9582 147.412 81.0943C143.337 77.6765 139.262 74.5216 134.924 70.9723C136.239 70.8408 137.027 70.7094 137.816 70.7094C147.412 70.7094 157.009 70.8408 166.605 70.7094C172.257 70.5779 177.384 73.207 176.99 80.9629C176.595 88.8502 176.858 96.7375 176.858 105.019C182.774 105.019 188.295 105.019 194.999 105.019C184.088 116.587 173.966 127.367 163.581 138.54C153.459 127.367 143.337 116.587 132.558 105.019C139.131 105.019 144.652 105.019 150.699 105.019C150.699 103.047 150.83 101.601 150.699 100.024C150.304 97.1319 148.727 95.4229 145.572 95.5544C141.76 95.5544 137.948 95.5544 133.741 95.5544Z" fill="#0E69B2"/>
<path d="M86.4168 111.723C96.8017 122.766 106.924 133.545 117.44 144.85C111.262 144.85 105.609 144.85 99.4308 144.85C99.4308 146.953 99.2994 148.531 99.4308 150.108C99.6937 153 101.14 154.578 104.163 154.578C107.975 154.578 111.919 154.578 116.389 154.578C111.525 159.573 107.055 164.305 102.454 169.169C106.661 172.587 110.736 175.742 115.337 179.554C113.102 179.554 111.656 179.554 110.079 179.554C101.008 179.554 92.0693 179.554 82.9989 179.554C76.4262 179.554 73.1398 176.268 73.0084 169.826C73.0084 162.991 73.0084 156.024 73.0084 149.188C73.0084 148.005 73.0084 146.822 73.0084 145.244C67.0929 145.244 61.4403 145.244 54.999 145.244C65.7783 133.676 75.9004 122.897 86.4168 111.723Z" fill="#0E69B2"/>
</svg>
