<svg width="250" height="250" viewBox="0 0 250 250" fill="none" xmlns="http://www.w3.org/2000/svg">
<path d="M0 125C0 55.9644 55.9644 0 125 0C194.036 0 250 55.9644 250 125C250 194.036 194.036 250 125 250C55.9644 250 0 194.036 0 125Z" fill="#006A37"/>
<path d="M85.6802 65.3841C88.9038 65.1793 93.8541 65.322 97.1626 65.3191L119.448 65.3176L181.147 65.3282C179.419 67.1348 176.462 71.2445 174.829 73.3603L164.871 86.1043L135.826 123.623C131.077 129.731 125.453 137.463 120.478 143.231C123.815 143.481 127.493 143.312 130.904 143.48C137.563 143.863 144.131 145.206 150.404 147.468C164.138 152.32 176.148 161.092 184.948 172.699C186.78 175.141 188.697 177.877 190 180.622C179.655 180.729 169.31 180.753 158.965 180.693C156.995 179.099 155.226 177.791 153.173 176.313C137.663 165.525 115.993 165.048 99.8072 174.494C96.705 176.304 93.9661 178.552 91.1106 180.711C80.7399 180.753 70.3694 180.696 59.9998 180.543C63.1224 176.65 66.255 172.215 69.3675 168.225C82.018 152.159 94.5594 136.009 106.991 119.774L121.781 100.798C123.919 98.0881 128.902 92.086 130.431 89.4055C115.822 89.6038 101.211 89.6378 86.6009 89.5076C80.7567 89.4858 72.9294 89.049 67.3594 89.4213C68.8914 86.66 71.058 84.2837 72.8832 81.767C76.8208 76.3377 81.8403 70.7391 85.6802 65.3841Z" fill="#8BBB1D"/>
</svg>
