<svg width="250" height="250" viewBox="0 0 250 250" fill="none" xmlns="http://www.w3.org/2000/svg">
<rect width="250" height="250" fill="white"/>
<path fill-rule="evenodd" clip-rule="evenodd" d="M55.4688 114.629C58.7912 114.629 61.501 115.594 63.5977 117.525C65.6923 119.455 66.7391 121.947 66.7373 125C66.7966 127.626 65.8131 130.168 64.0029 132.072C61.9179 134.271 59.0531 135.371 55.4082 135.371C52.1512 135.371 49.4697 134.394 47.3652 132.44C45.2609 130.486 44.209 128.006 44.209 125C44.2187 121.994 45.2806 119.514 47.3945 117.56C49.5086 115.606 52.2002 114.629 55.4688 114.629ZM55.4688 118.562C54.6791 118.534 53.893 118.682 53.167 118.994C52.441 119.306 51.793 119.775 51.2695 120.367C50.1982 121.575 49.6622 123.119 49.6621 125C49.6621 126.839 50.207 128.371 51.2959 129.593C51.8132 130.187 52.4554 130.66 53.1768 130.977C53.8982 131.294 54.681 131.447 55.4688 131.426C56.2578 131.454 57.0432 131.306 57.7686 130.995C58.4941 130.683 59.142 130.213 59.665 129.622C60.7364 128.428 61.2725 126.888 61.2725 125C61.2724 123.112 60.7363 121.567 59.665 120.367C59.142 119.775 58.4941 119.306 57.7686 118.994C57.0432 118.682 56.2578 118.535 55.4688 118.562Z" fill="#231F20"/>
<path fill-rule="evenodd" clip-rule="evenodd" d="M98.1152 114.629C101.442 114.629 104.151 115.594 106.244 117.525C108.339 119.455 109.382 121.947 109.372 125C109.431 127.626 108.448 130.168 106.638 132.072C104.555 134.271 101.69 135.371 98.043 135.371C94.7937 135.371 92.1161 134.394 90.0117 132.44C87.9074 130.486 86.8555 128.006 86.8555 125C86.8652 121.994 87.927 119.514 90.041 117.56C92.1551 115.606 94.8466 114.629 98.1152 114.629ZM98.124 118.564C97.3384 118.564 96.5608 118.724 95.8389 119.034C95.117 119.344 94.4659 119.797 93.9248 120.367C92.8534 121.575 92.3175 123.119 92.3174 125C92.3174 126.839 92.8623 128.371 93.9531 129.593C94.4872 130.168 95.1338 130.627 95.8525 130.942C96.5712 131.257 97.3472 131.42 98.1318 131.422C98.9163 131.425 99.6933 131.267 100.414 130.958C101.135 130.648 101.785 130.193 102.323 129.622C103.395 128.428 103.93 126.888 103.928 125C103.926 123.112 103.391 121.567 102.323 120.367C101.782 119.797 101.13 119.344 100.408 119.034C99.6865 118.724 98.9094 118.564 98.124 118.564Z" fill="#231F20"/>
<path fill-rule="evenodd" clip-rule="evenodd" d="M190.071 114.629C193.39 114.629 196.093 115.594 198.18 117.525C200.282 119.455 201.329 121.947 201.319 125C201.38 127.626 200.396 130.169 198.585 132.072C196.5 134.271 193.635 135.371 189.99 135.371C186.741 135.371 184.063 134.394 181.959 132.44C179.855 130.486 178.803 128.006 178.803 125C178.82 121.994 179.882 119.514 181.988 117.56C184.095 115.606 186.789 114.629 190.071 114.629ZM190.051 118.573C189.265 118.573 188.488 118.733 187.766 119.042C187.044 119.352 186.393 119.806 185.852 120.375C184.782 121.584 184.247 123.128 184.247 125.008C184.247 126.848 184.792 128.38 185.881 129.602C186.415 130.177 187.062 130.635 187.78 130.95C188.499 131.264 189.274 131.428 190.059 131.431C190.843 131.434 191.621 131.276 192.342 130.966C193.063 130.657 193.712 130.201 194.25 129.63L194.262 129.622C195.325 128.434 195.857 126.896 195.857 125.008C195.857 123.12 195.321 121.576 194.25 120.375C193.709 119.806 193.058 119.352 192.336 119.042C191.614 118.733 190.836 118.573 190.051 118.573Z" fill="#231F20"/>
<path d="M36.3838 114.659C38.9592 114.657 41.0069 115.183 42.5264 116.237V120.436C41.0803 119.139 39.2866 118.49 37.1455 118.49C35.2111 118.486 33.6052 119.088 32.3271 120.294C31.0491 121.501 30.4102 123.07 30.4102 125C30.4064 126.915 31.0453 128.48 32.3271 129.692C33.609 130.904 35.2151 131.51 37.1455 131.51C39.2808 131.51 41.0745 130.861 42.5264 129.564V133.734C41.0069 134.805 38.9593 135.341 36.3838 135.341C33.1155 135.341 30.4195 134.412 28.2959 132.553C26.0989 130.655 25.0001 128.138 25 125C25 121.863 26.0988 119.336 28.2959 117.418C30.4195 115.579 33.1154 114.659 36.3838 114.659Z" fill="#231F20"/>
<path fill-rule="evenodd" clip-rule="evenodd" d="M77.4531 115.125C79.447 115.125 81.0444 115.646 82.2451 116.688C83.446 117.731 84.0469 119.145 84.0469 120.931C84.0494 121.883 83.7697 122.814 83.2441 123.607C82.7318 124.421 81.9791 125.055 81.0898 125.422C81.7636 125.874 82.7035 127.076 83.9082 129.028L84.5684 130.128L87.3018 134.834H81.8721L79.4912 130.751C78.4777 129.002 77.6527 127.856 77.0156 127.311C76.5893 126.956 76.0497 126.766 75.4951 126.775H74.626V134.837H67.6758V134.218C68.9153 133.807 69.5351 132.455 69.5352 130.164V119.81C69.5351 117.522 68.9151 116.171 67.6758 115.756V115.125H77.4531ZM76.1318 118.519H74.6377V123.622H76.1318C76.8688 123.663 77.5942 123.422 78.1592 122.947V122.944C78.4073 122.704 78.6011 122.413 78.7275 122.092C78.8539 121.771 78.9096 121.426 78.8916 121.082C78.9111 120.733 78.8558 120.384 78.7295 120.058C78.6031 119.733 78.4087 119.438 78.1592 119.194C77.5941 118.719 76.8689 118.477 76.1318 118.519Z" fill="#231F20"/>
<path d="M126.423 126.688V115.142H131.213V134.834H127.158L116.979 122.738V134.834H112.189V119.81C112.189 117.522 111.569 116.171 110.33 115.756V115.136H116.701L126.423 126.688Z" fill="#231F20"/>
<path d="M168.328 118.684H162.324V134.834H157.225V118.684H156.043C153.753 118.682 152.402 119.303 151.989 120.546H151.369V115.136H168.328V118.684Z" fill="#231F20"/>
<path d="M177.943 115.727C176.704 116.161 176.084 117.523 176.084 119.813V130.76C176.184 132.687 176.798 133.839 177.926 134.215V134.834H170.976L170.993 115.148H177.943V115.727Z" fill="#231F20"/>
<path d="M218.371 126.688V115.136H223.161V130.847C223.275 132.722 223.887 133.845 224.997 134.215V134.834H219.109L208.928 122.738V134.834H204.138V119.81C204.138 117.522 203.518 116.171 202.278 115.756V115.136H208.649L218.371 126.688Z" fill="#231F20"/>
<path fill-rule="evenodd" clip-rule="evenodd" d="M154.014 134.829H148.465L146.847 130.601H139.216L137.695 134.829H132.795L140.657 115.136H145.905L154.014 134.829ZM142.905 119.917C142.811 120.482 142.672 121.038 142.488 121.58L140.432 127.282L145.569 127.273L143.377 121.585C143.193 121.042 143.054 120.484 142.96 119.917H142.905Z" fill="#231F20"/>
</svg>
