<svg width="250" height="250" viewBox="0 0 250 250" fill="none" xmlns="http://www.w3.org/2000/svg">
<rect width="250" height="250" fill="white"/>
<path d="M55.0003 125.214C54.9142 102.081 64.5154 83.6873 82.4829 69.3269C84.7133 67.5438 86.0439 67.6868 88.0541 69.6511C95.6642 77.0888 103.083 84.7458 111.296 91.5541C111.449 91.5827 111.66 91.5541 111.756 91.6399C121.29 99.7355 130.202 108.489 139.047 117.309C139.611 117.872 139.736 118.721 139.42 119.531C133.006 124.07 125.339 125.949 118.389 129.343C116.264 130.383 114.063 131.327 111.784 132.032C111.306 132.118 110.837 132.08 110.368 131.937C103.667 126.864 98.3828 120.285 91.8735 114.945C79.6782 104.932 65.0227 107.774 57.9199 121.934C57.2594 123.25 57.135 125.157 55.0003 125.214Z" fill="#00B0EA"/>
<path d="M111.304 131.365C120.579 127.283 129.865 123.202 139.14 119.121C139.552 118.806 139.992 118.74 140.481 118.892C147.124 123.812 152.073 130.535 158.611 135.617C170.643 144.962 185.988 141.301 192.134 127.398C192.88 125.71 193.053 123.65 194.977 122.64C195.541 146.974 185.73 166.293 166.594 181.178C164.431 182.866 163.522 181.311 162.306 180.158C155.643 173.817 149.01 167.456 142.338 161.134C141.199 160.057 139.925 159.122 138.71 158.131C136.441 157.883 135.158 156.166 133.665 154.755C126.974 148.424 120.972 141.377 113.687 135.656C112.376 134.626 110.777 133.51 111.304 131.365Z" fill="#00A258"/>
<path d="M140.146 119.36C139.811 119.274 139.476 119.197 139.131 119.112C132.076 111.025 123.499 104.475 116.138 96.6841C114.52 94.9677 112.902 93.2609 111.285 91.5445C128.62 84.0878 145.956 76.6405 163.282 69.1457C164.919 68.44 166.231 68.5259 167.667 69.6606C177.296 77.289 185.021 86.3477 189.272 98.0286C188.582 100.079 186.716 100.746 184.983 101.49C171.744 107.173 158.448 112.723 145.171 118.349C143.592 119.016 141.993 119.884 140.146 119.36Z" fill="#627096"/>
<path d="M111.306 131.365C120.438 140.28 129.57 149.205 138.702 158.121C121.395 165.502 104.069 172.853 86.7904 180.301C84.8185 181.149 83.3922 181.207 81.6404 179.776C72.5753 172.329 65.1853 163.661 60.9639 152.581C62.7061 149.959 65.7405 149.549 68.3155 148.424C81.0278 142.912 93.8549 137.706 106.567 132.204C107.888 131.632 109.18 130.974 110.683 131.336C110.894 131.365 111.105 131.374 111.306 131.365Z" fill="#4A4E74"/>
<path d="M110.692 131.336C100.727 136.561 90.1308 140.376 79.8308 144.857C73.5991 147.565 67.2621 150.016 60.973 152.581C56.6175 143.97 54.9998 134.759 54.9998 125.214C57.8045 118.539 61.241 112.532 68.5831 109.605C77.1505 106.191 84.9425 107.411 91.7102 113.285C98.2961 119.007 104.384 125.3 110.692 131.336Z" fill="#627096"/>
<path d="M140.148 119.359C154.392 113.285 168.636 107.211 182.861 101.109C185.043 100.174 187.14 99.0584 189.274 98.0286C193.218 105.762 194.625 114.077 194.96 122.63C190.586 135.837 183.272 142.111 172.302 142.054C167.181 142.025 162.414 140.624 158.662 137.191C152.344 131.422 146.313 125.329 140.148 119.359Z" fill="#4A4E74"/>
</svg>
