<svg width="250" height="250" viewBox="0 0 250 250" fill="none" xmlns="http://www.w3.org/2000/svg">
<rect width="250" height="250" fill="white"/>
<path d="M78.3645 125.12C78.3645 121.633 78.3796 118.139 78.3645 114.652C78.2593 94.971 93.7245 77.7774 111.978 74.4108C118.328 73.2385 124.677 73.8623 131.027 73.6819C136.243 73.5391 141.202 74.764 145.876 76.8606C159.282 82.8573 167.752 92.9871 170.75 107.415C171.298 110.068 171.479 112.826 171.524 115.546C171.629 122.024 171.516 128.509 171.569 134.994C171.719 153.555 158.125 171.2 138.655 175.498C131.974 176.971 125.218 176.205 118.493 176.332C115.344 176.392 112.308 175.874 109.295 174.957C93.1083 170.035 82.9936 159.424 79.2287 142.967C78.5674 140.089 78.5073 137.061 78.372 134.092C78.2293 131.109 78.3345 128.111 78.3345 125.12C78.342 125.12 78.357 125.12 78.3645 125.12ZM158.486 103.598C158.636 103.087 158.711 102.967 158.696 102.861C158.659 102.621 158.614 102.365 158.508 102.147C154.413 93.6108 147.86 87.7644 138.782 85.0591C131.133 82.7747 123.272 83.1053 115.427 84.1123C97.9402 86.3516 85.4734 104.402 88.825 121.017C91.4927 134.235 99.2102 142.712 112.015 146.642C114.698 147.468 117.554 147.746 120.281 148.265C120.281 151.496 120.281 154.668 120.281 157.854C108.739 157.771 99.105 153.608 90.7637 146.116C95.235 156.696 102.938 163.362 114.255 165.804C119.079 166.849 123.956 166.563 128.818 166.458C131.659 166.398 134.537 166.015 137.302 165.368C152.467 161.852 163.814 146.214 161.124 129.786C158.997 116.786 151.61 108.189 139.293 103.823C136.19 102.726 132.808 102.403 129.306 101.667C129.306 100.111 129.246 98.5104 129.322 96.9098C129.397 95.3467 128.916 93.701 129.757 92.183C140.864 92.2356 150.235 96.2635 158.486 103.598Z" fill="#B79157"/>
<path d="M69.5427 120.731C66.0634 120.731 63.1102 120.731 59.8864 120.731C59.4881 116.816 59.3979 112.954 59.8488 109.181C61.0061 99.4424 64.1547 90.3346 69.693 82.1512C79.139 68.1964 92.2445 59.547 108.694 56.0151C112.196 55.2637 115.863 55.2261 119.47 55.0683C122.965 54.918 126.466 55.0683 129.968 55.0307C157.442 54.7301 183.119 74.9972 188.906 102.869C190.101 108.64 190.544 114.412 190.213 120.243C187.636 121.01 184.683 121.1 180.324 120.499C180.226 118.853 180.046 117.147 180.046 115.441C180.038 100.54 174.32 88.1178 163.416 78.1158C155.503 70.8566 146.11 66.4831 135.319 65.5287C130.479 65.1004 125.602 64.8298 120.748 64.9125C97.4372 65.2882 78.9285 79.5811 72.1278 100.201C70.4445 105.304 69.7456 110.587 69.5578 115.937C69.4976 117.41 69.5427 118.89 69.5427 120.731Z" fill="#B79157"/>
<path d="M180.428 129.283C183.81 129.283 186.778 129.283 189.957 129.283C190.686 132.77 190.49 136.257 190.137 139.654C189.055 150.182 185.756 159.988 179.586 168.698C169.539 182.885 155.983 191.497 138.714 194.36C132.845 195.33 127.006 194.811 121.152 194.977C106.747 195.367 93.8892 190.866 82.7149 181.969C70.4434 172.2 62.9438 159.53 60.3512 143.974C59.5472 139.143 59.8027 134.371 59.7275 129.358C63.0715 129.358 66.115 129.358 69.2336 129.358C69.5342 132.973 69.737 136.422 70.1278 139.849C72.0365 156.847 80.6859 169.532 95.2569 178.271C103.237 183.058 112.067 184.975 121.31 185.147C127.675 185.26 134.063 185.335 140.292 183.765C161.206 178.482 174.244 165.354 179.03 144.373C179.932 140.42 179.812 136.234 180.165 132.154C180.225 131.312 180.315 130.463 180.428 129.283Z" fill="#B79157"/>
<path d="M120.336 92.0329C120.434 92.8971 120.539 93.378 120.539 93.8589C120.554 96.4665 120.547 99.0741 120.547 101.794C118.886 102.223 117.316 102.508 115.828 103.042C109.801 105.199 106.021 111.661 107.066 117.883C108.133 124.248 113.611 128.99 120.096 129.125C123.094 129.185 126.108 129.028 129.099 129.2C133.104 129.426 135.276 132.68 133.961 136.197C133.277 138.03 131.841 139.112 130.038 139.263C121.877 139.931 113.701 140.067 106.705 134.882C99.5734 129.599 96.3571 122.43 97.0635 113.495C97.9126 102.801 105.826 95.0989 114.445 92.9346C116.241 92.4838 118.12 92.3635 120.336 92.0329Z" fill="#B79157"/>
<path d="M129.488 158.019C129.488 154.525 129.488 151.459 129.488 148.213C130.856 147.844 132.276 147.499 133.666 147.07C140.715 144.906 143.623 137.624 142.879 132.575C141.865 125.706 136.379 120.972 129.526 120.867C126.655 120.822 123.784 120.852 120.914 120.844C119.043 120.837 117.517 120.115 116.428 118.597C114.526 115.952 115.473 112.48 118.487 111.173C119.268 110.835 120.162 110.549 120.996 110.572C125.22 110.707 129.503 110.557 133.651 111.225C145.878 113.202 152.603 124.136 152.926 133.213C153.325 144.358 146.231 154.232 135.462 157.072C133.689 157.546 131.81 157.666 129.488 158.019Z" fill="#B79157"/>
</svg>
