<svg width="250" height="250" viewBox="0 0 250 250" fill="none" xmlns="http://www.w3.org/2000/svg">
<rect width="250" height="250" fill="white"/>
<path d="M148.937 190.623L91.2201 153.046C91.2201 153.046 83.9806 148.885 82.323 141.141C79.9954 130.253 87.6652 120.921 87.6652 120.921L162.575 169.706C168.354 173.473 169.93 181.178 166.217 186.99C162.406 192.951 154.563 194.27 148.937 190.623Z" fill="#38D200"/>
<path d="M94.2637 112.861C94.2637 112.861 85.4216 107.519 85.4216 95.175C85.4216 82.8681 94.2592 77.5977 94.2592 77.5977L125.818 56.9447C128.595 55.1822 131.955 54.5862 135.168 55.2861C138.382 55.986 141.19 57.9253 142.983 60.683C144.775 63.4407 145.408 66.7941 144.743 70.0153C144.078 73.2364 142.169 76.0653 139.431 77.8877L112.836 95.2057L158.15 124.716C158.15 124.716 166.307 129.391 167.919 137.279C170.161 148.284 162.586 157.351 162.586 157.351L94.2637 112.861Z" fill="#0473EA"/>
<path d="M153.661 82.8988C150.697 82.8988 148.589 83.8329 146.532 85.173L131.128 95.2057L146.532 105.238C148.609 106.575 150.789 107.511 153.661 107.511C156.901 107.475 159.996 106.163 162.275 103.859C164.553 101.555 165.831 98.445 165.831 95.205C165.831 91.9647 164.553 88.855 162.275 86.5512C159.996 84.2473 156.901 82.9348 153.661 82.8988Z" fill="#38D200"/>
<path d="M94.1107 192.618C97.0733 192.618 99.1812 191.684 101.239 190.344L116.644 180.311L101.239 170.279C99.1613 168.942 96.9833 168.006 94.1107 168.006C92.4831 167.988 90.8681 168.293 89.3591 168.903C87.8502 169.514 86.4773 170.417 85.3199 171.562C84.1626 172.706 83.2438 174.069 82.6167 175.571C81.9896 177.073 81.6667 178.685 81.6667 180.312C81.6667 181.94 81.9896 183.551 82.6167 185.054C83.2438 186.556 84.1626 187.918 85.3199 189.063C86.4773 190.207 87.8502 191.111 89.3591 191.721C90.8681 192.332 92.4831 192.637 94.1107 192.618Z" fill="#0473EA"/>
</svg>
