<svg width="250" height="250" viewBox="0 0 250 250" fill="none" xmlns="http://www.w3.org/2000/svg">
<rect width="250" height="250" fill="white"/>
<path d="M180.62 62.0089H70.1367C67.1533 61.8694 64.3349 63.3816 62.8014 65.9445C61.268 68.5074 61.268 71.7059 62.8014 74.2688C64.3349 76.8317 67.1533 78.3439 70.1367 78.2044H180.62C184.945 78.0021 188.348 74.4366 188.348 70.1066C188.348 65.7767 184.945 62.2112 180.62 62.0089Z" fill="#FF5C39"/>
<path d="M171.504 86.2226C169.531 85.374 167.301 85.3471 165.308 86.1477C163.314 86.9483 161.722 88.5105 160.884 90.4883L117.997 190.723C117.149 192.697 117.122 194.927 117.922 196.92C118.723 198.914 120.285 200.505 122.263 201.344C124.236 202.192 126.466 202.219 128.46 201.418C130.453 200.618 132.045 199.056 132.883 197.078L175.77 96.8249C176.613 94.8536 176.637 92.6278 175.837 90.6388C175.037 88.6497 173.478 87.0608 171.504 86.2226Z" fill="#FF5C39"/>
<path d="M145.503 96.8248C146.352 94.8515 146.379 92.6213 145.578 90.628C144.777 88.6348 143.215 87.0429 141.237 86.2048C137.127 84.4585 132.378 86.3659 130.617 90.4705L102.722 155.642C100.976 159.753 102.883 164.501 106.988 166.262C108.961 167.111 111.191 167.138 113.185 166.337C115.178 165.536 116.77 163.974 117.608 161.996L145.503 96.8248Z" fill="#253F66"/>
<path d="M115.413 96.8251C116.262 94.8518 116.289 92.6216 115.488 90.6284C114.687 88.6351 113.125 87.0432 111.147 86.2051C109.174 85.3566 106.944 85.3296 104.951 86.1302C102.957 86.9309 101.365 88.493 100.527 90.4708L87.6771 120.756C85.9181 124.861 87.8199 129.616 91.9252 131.376C93.8963 132.225 96.1246 132.255 98.1175 131.458C100.11 130.66 101.704 129.102 102.545 127.128L115.413 96.8251Z" fill="#00884F"/>
</svg>
