<svg width="250" height="250" viewBox="0 0 250 250" fill="none" xmlns="http://www.w3.org/2000/svg">
<rect width="250" height="250" fill="white"/>
<circle cx="125" cy="125" r="75" fill="#18355D"/>
<path d="M127.371 200.119C125.806 200.119 124.449 200.119 122.815 200.119C122.815 150.019 122.815 100.083 122.815 49.8887C124.371 49.8887 125.719 49.8887 127.371 49.8887C127.371 100.014 127.371 149.95 127.371 200.119Z" fill="#4FCDFF"/>
<path d="M115.116 124.818C114.969 132.918 108.226 139.333 100.03 139.169C91.8606 139.013 85.3422 132.339 85.4546 124.238C85.5756 115.809 92.1286 109.628 100.817 109.775C109.03 109.922 115.272 116.484 115.116 124.818Z" fill="#4FCDFF"/>
<path d="M149.536 91.6543C158.233 91.6197 164.596 97.8702 164.544 106.412C164.492 114.616 157.973 121.048 149.726 121.048C141.513 121.048 134.96 114.556 134.925 106.395C134.882 98.1469 141.288 91.6888 149.536 91.6543Z" fill="#4FCDFF"/>
<path d="M149.773 127.905C158.228 127.939 164.496 134.129 164.539 142.481C164.582 150.867 157.908 157.42 149.471 157.29C141.258 157.169 134.869 150.625 134.921 142.394C134.964 134.198 141.457 127.87 149.773 127.905Z" fill="#4FCDFF"/>
</svg>
