<svg width="250" height="250" viewBox="0 0 250 250" fill="none" xmlns="http://www.w3.org/2000/svg">
<rect width="250" height="250" fill="white"/>
<path d="M128.559 99.1879C139.044 97.1849 149.732 101.505 155.88 110.232C158.135 113.433 159.672 117.083 160.386 120.933C160.917 123.801 160.984 126.735 160.583 129.624C158.676 143.361 146.733 153.46 132.87 153.057C119.007 152.654 107.671 141.88 106.564 128.055C105.458 114.231 114.937 101.79 128.559 99.1879Z" fill="#311B25"/>
<path d="M128.559 99.1879C139.044 97.1849 149.732 101.505 155.88 110.232C158.135 113.433 159.672 117.083 160.386 120.933C160.917 123.801 160.984 126.735 160.583 129.624C158.676 143.361 146.733 153.46 132.87 153.057C119.007 152.654 107.671 141.88 106.564 128.055C105.458 114.231 114.937 101.79 128.559 99.1879Z" fill="url(#paint0_radial_83_3166)"/>
<path d="M137.773 100.487C138.319 100.475 138.331 100.388 138.731 100.626C138.803 100.907 138.814 100.947 138.765 101.232C138.28 101.207 138.077 101.284 137.752 101.044C137.705 100.766 137.704 100.756 137.773 100.487Z" fill="black"/>
<path d="M130.098 69.6677C134.489 69.1768 142.179 69.9385 146.485 70.9836C152.781 72.5993 158.957 75.1991 164.364 78.8261C165.772 79.7703 171.167 84.7046 173.443 87.2891C172.791 87.8821 169.44 90.5959 168.185 91.6574C166.805 90.461 165.38 88.9503 163.966 87.7722C158.318 83.0667 149.997 79.0737 142.766 77.776C131.063 75.5908 118.966 77.8203 108.811 84.0338C106.509 85.4301 105.008 86.8973 102.948 88.3331C102.065 89.2345 101.053 90.0896 100.168 90.9758C94.1106 97.0377 90.1392 104.136 87.783 112.347C87.4606 113.471 87.0307 115.134 86.0841 121.744C84.7502 121.744 80.9822 121.882 79.1719 121.882C80.9172 105.234 84.0583 98.1828 91.7584 89.1805C92.7099 88.0651 93.7945 87.1193 94.7899 86.0525C102.517 77.7714 113.242 72.2385 124.37 70.351C126.287 70.0258 128.161 69.8216 130.098 69.6677Z" fill="#987429"/>
<path d="M133.037 82.5202C137.828 82.2747 142.611 83.3033 147.137 84.7333C151.892 86.2354 156.643 88.8471 160.423 92.0939C161.055 92.6362 162.01 93.6704 163.825 95.516C162.852 96.3186 159.868 98.6848 158.251 99.9211C152.135 94.7204 145.155 90.6531 136.988 90.2232C124.757 89.5794 114.308 94.1006 106.549 103.475C102.01 108.958 100.145 115.068 99.151 122.016C96.7412 122.014 94.3314 121.996 91.9219 121.964C92.7571 111.559 96.2572 103.33 103.343 95.6399C106.951 91.7243 111.544 88.3476 116.406 86.1953C121.735 83.8361 127.206 82.7533 133.037 82.5202Z" fill="#987429"/>
<path d="M183.719 131.213L184.131 131.809L183.996 132.196L183.859 132.258C183.698 131.953 183.726 131.565 183.719 131.213Z" fill="black"/>
<path d="M65.8672 129.496L88.6382 129.498L95.3925 129.495C96.3564 129.495 98.0462 129.44 98.959 129.526C99.4269 130.254 99.5898 130.761 99.6942 131.616C100.188 135.659 101.97 140.851 104.023 144.405C108.056 151.265 114.327 156.528 121.783 159.308C123.952 160.137 125.942 160.833 128.286 161.04C134.892 161.624 141.536 161.389 147.632 158.478C148.723 157.957 149.806 157.548 150.81 156.877C152.66 155.627 154.483 154.26 156.284 152.936C156.941 152.453 158.135 151.39 158.76 151.052C159.575 151.49 160.257 152.131 160.969 152.714C163.626 154.889 166.191 157.17 168.805 159.394L179.182 168.208C180.053 168.954 183.576 171.579 183.836 172.376C183.844 173.263 183.006 174.09 182.402 174.706C172.541 184.566 159.952 191.246 146.258 193.884C144.788 194.166 139.254 194.409 138.395 195H128.11C127.159 194.334 122.502 194.229 121.2 193.908C119.312 193.442 117.096 193.095 115.24 192.595C113.542 191.986 111.761 191.49 110.068 190.879C106.155 189.468 102.332 187.466 98.804 185.346C87.1617 178.406 77.8704 168.132 72.1334 155.852C70.7127 152.808 69.5653 149.416 68.4361 146.233C67.872 144.108 67.4263 141.849 66.9279 139.714C66.5872 138.254 66.5019 134.679 65.8672 133.545V129.496Z" fill="#987429"/>
<path d="M111.686 60.113C121.531 56.988 131.443 56.5102 141.715 57.1496C146.58 57.5576 151.415 58.5949 156.003 60.2561C160.428 61.8592 165.709 64.2092 169.652 66.7518C171.726 68.0885 173.738 69.5203 175.68 71.0425C176.645 71.7979 182.247 77.0566 183.388 78.2578C181.651 79.9439 180.002 81.4333 178.333 82.9751C175.623 80.658 172.98 78.2234 170.13 76.0807C159.318 67.9669 146.086 63.7365 132.572 64.0733C126.932 64.24 121.024 64.8765 115.619 66.656C114.804 66.9243 113.964 67.2604 113.158 67.5629C104.321 70.8142 96.3525 76.0568 89.8688 82.8842C81.1271 92.1673 75.8731 103.342 73.7998 115.877C73.4245 118.146 73.494 119.921 73.2289 121.989C70.9331 121.993 68.1236 122.067 65.8672 121.965C65.8672 94.6893 86.4511 69.0743 111.686 60.113Z" fill="#987429"/>
<defs>
<radialGradient id="paint0_radial_83_3166" cx="0" cy="0" r="1" gradientUnits="userSpaceOnUse" gradientTransform="translate(156.365 105.247) rotate(135) scale(38.6453 38.6452)">
<stop offset="0.517907" stop-color="#CD8926"/>
<stop offset="1" stop-color="#CB8727" stop-opacity="0"/>
</radialGradient>
</defs>
</svg>
