<svg width="250" height="250" viewBox="0 0 250 250" fill="none" xmlns="http://www.w3.org/2000/svg">
<rect width="250" height="250" fill="white"/>
<path d="M124.706 146.778C131.258 150.733 137.262 155.345 143.393 159.921C148.943 164.043 155.434 168.638 161.715 171.465C166.175 173.473 176.053 172.211 176.053 172.211C175.21 173.961 173.382 175.635 171.989 176.945C165.361 183.182 157.003 187.725 148.474 190.779C147.116 191.265 145.714 191.687 144.354 192.129C134.912 195.447 124.261 195.33 114.441 194.188C108.169 193.458 99.7867 190.437 97.1517 184.143C95.2258 179.543 92.975 172.02 96.2043 167.55C97.9158 165.18 101.872 163.154 104.13 161.28C108.809 157.767 113.48 154.173 118.322 150.888C120.446 149.447 124.706 146.778 124.706 146.778Z" fill="#1B9C89"/>
<path d="M70.0773 109.357C70.1978 109.351 70.3185 109.345 70.4391 109.341C71.3657 109.301 73.1441 109.166 73.9631 109.583C78.4724 111.875 82.5517 115.569 86.6489 118.513L96.1597 125.373C98.3687 126.951 102.448 130.048 102.448 130.048C102.448 130.048 98.2991 143.563 96.2057 150.375C93.5056 159.161 89.1254 167.998 89.856 177.422C90.1816 181.622 91.8157 183.492 93.1209 187.171C92.3815 186.892 91.8058 186.647 91.0888 186.32C85.8047 182.925 79.7376 179.666 75.3396 174.991C66.734 165.842 58.8855 153.526 56.1113 141.159C54.5289 134.104 54.1438 124.664 58.3169 118.55C60.9788 114.623 65.2823 110.323 70.0773 109.357Z" fill="#666666"/>
<path d="M185.356 89.8331C185.356 89.8331 190.529 99.7146 191.09 101.382C197.4 120.146 196.091 140.167 187.032 157.805C183.912 163.88 179.51 166.938 172.677 167.915C167.437 168.665 164.08 167.557 159.537 165.167C159.359 165.111 159.183 165.053 159.014 164.973C157.325 164.176 147 129.968 147 129.968C147 129.968 149.618 128.236 150.673 127.473C158.524 121.799 166.557 116.187 174.442 110.585C179.335 107.109 183.37 101.738 184.493 95.8155C184.866 93.8466 185.356 89.8331 185.356 89.8331Z" fill="#666666"/>
<path d="M101.692 59.5048C103.002 59.2171 106.73 59.5495 108.126 59.8651C112.176 60.7808 117.234 63.0042 119.935 66.2825C120.975 67.5456 122.4 70.0865 122.4 70.0865L119.22 80.0847L117.328 85.3632L111.39 104.122C111.39 104.122 89.7023 104.261 78.9213 104.077C75.5933 104.02 72.1673 104.341 68.9006 104.977C63.6734 106.206 59.5275 109.954 55.5779 113.327C56.0017 111.143 56.0865 108.978 56.7571 106.699C59.2573 98.2069 63.7543 88.7301 69.2745 81.8091C75.6478 73.8186 84.501 66.4932 93.7216 62.1461C96.8057 60.6922 98.3186 59.8962 101.692 59.5048Z" fill="#666666"/>
<path d="M124.784 55.1119C137.497 54.7811 147.416 57.5388 158.595 63.5691C166.629 67.903 176.769 75.2833 179.425 84.3319C181.803 92.4344 178.788 97.2366 175.23 103.991L169.526 104.004C159.204 104.062 138.341 104.049 138.341 104.049C138.341 104.049 137.047 99.6213 136.393 97.5974C135.74 95.5735 132.83 86.5091 132.83 86.5091C132.324 84.9798 131.483 81.8039 131.483 81.8039C131.483 81.8039 125.302 61.0232 113.366 55.6904C117.166 55.4012 120.973 55.2083 124.784 55.1119Z" fill="#1B9C89"/>
<path d="M135.516 118.955C139.106 118.461 142.214 119.558 144.563 122.344C143.886 122.793 142.921 123.69 142.275 124.259C138.146 119.468 130.122 122.233 131.18 128.861C131.876 133.224 136.247 134.904 140.203 133.109C140.904 132.69 141.989 131.719 142.651 131.156C143.252 131.935 143.776 132.791 144.307 133.621C142.944 134.929 141.279 135.881 139.46 136.392C137.919 136.82 136.527 136.808 135.008 136.381C125.235 133.632 125.649 121.29 135.516 118.955Z" fill="#1B9C89"/>
<path d="M120.064 118.956C122.634 118.79 124.179 119.644 125.326 121.898C123.884 122.865 124.225 122.65 123.193 123.246C122.374 122.366 121.883 121.898 120.574 121.781C119.995 121.729 118.743 122.208 118.896 122.939C119.412 125.411 122.438 126.5 123.959 128.284C125.965 130.558 126.554 133.351 123.968 135.476C122.649 136.559 121.477 136.783 119.799 136.629C117.366 136.244 115.277 133.028 115.277 133.028L117.451 131.583C117.451 131.583 119.48 134.402 121.429 133.94C122.547 133.674 123.515 132.608 122.87 131.453C121.258 128.541 116.762 127.379 116.001 124.019C115.325 121.028 116.904 119.308 120.064 118.956Z" fill="#1B9C89"/>
<path d="M111.901 119.169L113.725 119.164C113.725 120.132 113.579 121.364 113.486 122.348C111.859 122.37 109.999 122.301 108.356 122.277C108.354 123.392 108.408 124.582 108.441 125.703C110.188 125.743 111.935 125.759 113.682 125.752C113.69 126.77 113.644 127.366 113.537 128.373C111.935 128.421 110.105 128.36 108.487 128.342L108.524 131.878L108.538 136.065L105.281 136.114C105.218 130.483 105.187 124.852 105.188 119.221L111.901 119.169Z" fill="#1B9C89"/>
</svg>
