<svg width="250" height="250" viewBox="0 0 250 250" fill="none" xmlns="http://www.w3.org/2000/svg">
<rect width="250" height="250" fill="white"/>
<path d="M190.896 101.82C164.249 94.02 143.413 108.603 139.855 131.295C130.465 131.295 121.03 131.295 111.33 131.295C111.33 122.17 111.33 113.11 111.33 103.565C124.366 103.565 137.336 103.565 150.549 103.565C150.549 98.5717 150.549 94.0642 150.549 89.5568C146.506 88.7171 104.237 88.5183 97.0122 89.3579C97.0122 123.076 97.0122 156.837 97.0122 191.041C80.4848 183.374 69.0614 171.465 61.7258 155.688C56.8869 145.304 54.6552 134.278 55.0529 122.766C56.2019 89.9987 78.1427 60.899 112.125 54.0936C133.271 49.8734 152.494 55.2867 169.065 69.0522C180.201 78.3323 187.603 89.7998 190.896 101.82Z" fill="#D72F28"/>
<path d="M176.204 173.696C160.782 192.963 131.417 201.492 110.316 195.306C110.316 179.507 110.316 163.643 110.316 147.425C120.391 147.425 130.577 147.425 141.095 147.425C146.486 163.908 157.954 172.989 176.204 173.696Z" fill="#090808"/>
<path d="M194.872 120.446C195.667 134.035 192.971 146.674 186.984 158.472C173.77 164.77 160.447 157.522 156.138 149.59C150.99 140.133 151.498 125.418 161.795 117.331C171.163 109.951 185.525 110.857 194.872 120.446Z" fill="#169348"/>
</svg>
