<svg width="250" height="250" viewBox="0 0 250 250" fill="none" xmlns="http://www.w3.org/2000/svg">
<rect width="250" height="250" fill="white"/>
<path d="M64.9443 55L185.059 55.0057L185.05 175.11L64.9375 175.106L64.9443 55Z" fill="#002161"/>
<path fill-rule="evenodd" clip-rule="evenodd" d="M74.8516 113.699C78.9831 113.942 83.0653 113.891 87.2263 113.89C94.4812 113.903 102.658 112.767 108.422 118.244C114.079 123.621 113.35 133.884 108.047 139.284C102.307 145.129 95.08 144.499 87.5639 144.482L87.5651 153.861C87.5567 156.057 87.4213 158.943 87.916 161.047C88.577 163.856 92.522 163.79 94.911 163.871L94.9092 165.363C89.1702 165.042 80.5712 164.994 74.8532 165.365L74.8555 163.871C76.7397 163.803 79.8617 163.771 80.3448 161.501C80.9366 158.722 80.778 155.807 80.7794 152.972L80.7806 127.845C80.7798 125.233 80.8095 122.626 80.7134 120.016C80.5443 115.421 78.7579 115.53 74.8537 115.186L74.8516 113.699ZM104.525 134.103C106.305 123.791 104.099 114.078 91.4372 115.259C88.6944 115.649 87.8589 116.595 87.6647 119.414C87.4745 122.175 87.5591 124.996 87.5595 127.763L87.5658 143.057C91.3923 143.065 96.3064 143.391 99.7274 141.504C102.35 139.855 104.004 137.126 104.525 134.103Z" fill="white"/>
<path d="M117.533 113.698C119.821 113.681 122.237 113.817 124.549 113.828C134.309 113.876 144.168 114.09 153.92 113.696C153.869 115.262 153.665 117.02 153.58 118.628C153.371 122.089 153.402 125.56 153.67 129.016L151.954 129.02C151.433 122.472 150.662 115.232 142.16 115.389C139.719 115.434 132.503 114.705 130.994 116.726C129.992 118.066 130.235 124.724 130.237 126.622L130.236 139.394C140.038 139.421 140.84 139.801 142.356 129.731L144.015 129.748C143.921 133.696 143.816 137.132 143.842 141.136C143.848 144.119 144.059 147.445 144.237 150.444L142.534 150.44C141.484 140.303 139.58 140.826 130.241 140.854L130.232 152.829C130.232 155.191 130.195 157.391 130.382 159.752C130.714 163.972 134.195 163.742 137.595 163.873L137.591 165.364C131.874 165.017 123.239 165.008 117.533 165.361L117.532 163.872C120.983 163.723 123.094 163.713 123.336 159.691C123.479 157.305 123.461 155.044 123.462 152.658L123.464 127.532C123.463 124.991 123.492 122.467 123.389 119.929C123.204 115.409 121.38 115.527 117.535 115.184L117.533 113.698Z" fill="white"/>
<path d="M159.052 113.697C164.72 114.024 171.985 114.001 177.677 113.693V115.189C175.995 115.328 172.677 115.333 172.205 117.447C171.56 120.335 171.751 123.583 171.749 126.549L171.748 151.524C171.749 154.097 171.729 156.648 171.827 159.22C171.995 163.622 173.812 163.69 177.674 163.873L177.672 165.362C172.226 165.045 164.548 165.022 159.046 165.361L159.049 163.872C163.885 163.639 164.844 163.184 164.949 158.067C164.986 156.239 164.969 154.326 164.97 152.493L164.971 127.389C164.97 124.863 164.992 122.359 164.894 119.834C164.723 115.399 162.807 115.511 159.045 115.187L159.052 113.697Z" fill="white"/>
<path d="M172.212 88.4268L175.456 88.428L175.455 105.09L172.212 105.085V88.4268Z" fill="white"/>
<path d="M165.458 92.9072L168.159 92.9186C168.162 96.4874 168.322 101.526 168.139 104.976L167.898 105.088L164.87 105.087C164.859 101.526 164.723 96.5592 164.889 93.0884C165.092 92.8676 165.054 92.9402 165.458 92.9072Z" fill="white"/>
<path d="M157.886 99.4055L161.188 99.4096L161.185 105.088L157.886 105.084V99.4055Z" fill="white"/>
<path d="M145.907 177.43C145.986 178.278 146.069 182.057 145.741 182.679C145.291 182.301 145.044 179.994 144.055 179.224C143.142 178.291 140.954 177.919 139.787 178.456C136.007 180.189 135.975 188.317 138.808 190.887C139.769 191.758 140.809 191.842 142.013 191.778C146.048 190.849 144.813 187.862 145.752 187.202C146.078 187.975 146.001 191.702 145.856 192.63C145.585 192.015 145.523 191.269 145.211 190.857C144.603 190.777 143.352 191.838 142.63 192.003C135.833 193.553 133.209 186.059 135.911 180.91C136.792 179.231 138.106 178.457 139.868 177.959C141.008 177.832 141.819 177.823 142.93 178.129C143.68 178.335 144.637 179.278 145.192 179.197C145.417 178.893 145.675 177.946 145.907 177.43Z" fill="#002161"/>
<path d="M128.727 185.084C129.372 186.077 130.385 187.764 131.05 188.637C131.201 186.088 131.085 183.462 131.125 180.91C131.169 178.309 130.467 178.898 128.62 178.225C129.907 178.126 132.458 178.125 133.771 178.208C133.263 178.363 131.832 178.707 131.758 179.134C131.32 181.661 131.566 186.196 131.538 188.81L131.535 189.057C131.545 190.18 131.53 191.304 131.491 192.426C130.751 191.63 129.163 189.044 128.533 188.065C126.739 185.254 124.926 182.455 123.091 179.671L122.941 179.732L122.478 179.603C122.094 178.243 121.318 178.678 120.202 178.189L124.245 178.147L128.727 185.084Z" fill="#002161"/>
<path d="M104.995 188.708C105.041 187.34 105.312 179.769 104.724 179.038C104.306 178.52 103.143 178.429 102.525 178.24C103.806 178.113 106.296 178.141 107.639 178.186C107.113 178.369 105.868 178.669 105.687 179.114C105.001 180.799 105.869 191.202 105.252 191.991C104.975 191.917 104.828 191.759 104.669 191.519C102.041 187.559 99.5639 183.39 96.8772 179.475L96.3248 179.254C95.7913 178.431 95.2134 178.598 94.1408 178.183L98.1545 178.148L104.995 188.708Z" fill="#002161"/>
<path d="M148.031 178.205C148.973 178.084 152.587 178.173 153.717 178.187C153.072 178.44 152.097 178.527 151.676 179.002C151.381 180.076 151.331 190.124 151.652 191.036C152.082 191.477 152.321 191.44 152.995 191.623L153.118 191.867C151.936 191.963 148.605 191.915 147.391 191.847C147.965 191.634 148.82 191.596 149.31 191.238C149.515 191.088 149.525 190.909 149.568 190.676C149.789 189.475 149.862 179.555 149.458 178.943C149.131 178.449 148.394 178.728 148.031 178.205Z" fill="#002161"/>
<path fill-rule="evenodd" clip-rule="evenodd" d="M113.915 177.742C115.186 180.714 116.272 183.844 117.476 186.848C117.903 187.913 118.706 190.241 119.273 191.156C119.664 191.376 120.058 191.594 120.452 191.809C120.992 191.615 121.709 191.499 122.084 191.119C122.815 190.377 122.412 181.262 122.478 179.603L122.941 179.732C122.814 181.466 122.742 188.937 123.149 191.014C123.218 191.369 124.863 191.673 125.402 191.794C123.88 191.952 122.001 191.899 120.421 191.891C118.906 191.898 116.182 191.965 114.871 191.848C115.435 191.673 116.398 191.474 116.824 191.177C117.152 190.447 115.9 187.606 115.551 186.687C114.279 186.691 112.352 186.751 111.135 186.629C110.365 186.965 109.531 189.987 109.761 190.909C110.109 191.461 111.214 191.587 111.961 191.859C110.618 191.956 108.641 191.901 107.255 191.911C109.394 190.516 109.739 188.462 110.645 186.022L110.774 185.724C111.428 184.2 112.13 182.169 112.759 180.616C113.1 179.726 113.507 178.575 113.915 177.742ZM113.246 180.587C112.915 181.172 111.18 185.642 111.005 186.307C112.007 186.312 113.823 186.265 114.76 186.359L115.171 186.285L115.277 186.127C114.977 184.984 114.045 182.647 113.468 181.164L113.246 180.587Z" fill="#002161"/>
<path fill-rule="evenodd" clip-rule="evenodd" d="M160.022 177.741C161.293 180.713 162.379 183.842 163.583 186.847C164.01 187.912 164.813 190.239 165.381 191.154C165.765 191.371 166.151 191.585 166.538 191.797C167.188 191.568 168.015 191.483 168.345 191.01C168.717 189.613 168.684 180.971 168.346 179.042C168.281 178.672 166.757 178.365 166.253 178.224C167.765 178.083 170.986 178.156 172.581 178.187C171.406 178.656 170.366 178.398 170.35 180.035C170.314 183.471 170.351 186.918 170.363 190.353C170.364 190.689 170.523 190.995 170.734 191.244C171.449 191.673 173.454 191.454 174.408 191.441L174.553 191.392C176.988 190.553 176.012 188.363 176.767 187.839L176.919 187.917C176.996 188.194 176.983 191.155 177.064 191.909L175.882 191.889C172.875 191.887 169.694 191.952 166.69 191.88C166.696 191.883 166.701 191.886 166.707 191.889C165.237 191.891 162.343 191.968 160.979 191.847C161.542 191.672 162.505 191.473 162.931 191.175C163.259 190.446 162.008 187.605 161.659 186.686C160.387 186.69 158.459 186.75 157.242 186.628C156.472 186.964 155.638 189.986 155.868 190.908C156.216 191.46 157.321 191.586 158.068 191.857C156.725 191.955 154.748 191.9 153.362 191.91C155.501 190.515 155.846 188.461 156.752 186.021L156.882 185.723C157.535 184.199 158.238 182.168 158.867 180.615C159.207 179.725 159.614 178.574 160.022 177.741ZM159.353 180.586C159.022 181.171 157.287 185.641 157.112 186.306C158.114 186.311 159.93 186.264 160.867 186.357L161.278 186.284L161.384 186.125C161.084 184.983 160.152 182.645 159.576 181.163L159.353 180.586Z" fill="#002161"/>
<path d="M88.1094 178.213C88.9045 178.093 93.0396 178.162 93.9147 178.242C93.184 178.458 92.3449 178.465 91.8057 179.007C91.471 180.072 91.5839 189.25 91.7544 190.917C91.8106 191.466 92.8734 191.463 93.218 191.672C93.2654 191.698 93.313 191.722 93.3604 191.748C92.8766 192.005 88.5199 191.892 87.5764 191.888C88.321 191.558 89.068 191.581 89.6136 191.064C90.2637 189.021 89.5205 182.863 89.7947 180.476C90.0586 178.178 88.7021 178.917 88.1094 178.213Z" fill="#002161"/>
<path d="M86.8539 178.147C86.7273 179.206 86.8467 181.308 86.5741 182.092L86.4489 182.116C86.0446 181.355 86.2462 180.105 85.7149 179.476C84.8081 178.405 81.9304 178.143 80.8101 178.926C80.4705 179.164 80.5238 180.215 80.5194 180.641C80.5187 182.1 80.527 183.559 80.5441 185.018C81.3158 185.016 82.4293 185.128 83.0009 184.605C83.5137 184.135 83.6876 182.53 84.0214 182.335L84.0324 182.372C84.1007 182.625 84.1443 183.231 84.1688 183.975C84.1791 184.288 84.1859 184.625 84.1898 184.971C84.1937 185.317 84.1945 185.672 84.1928 186.018C84.1911 186.365 84.1867 186.705 84.1802 187.02C84.1639 187.809 84.134 188.451 84.0965 188.695C84.0503 188.518 84.0087 188.349 83.9706 188.189C83.8943 187.869 83.832 187.584 83.7738 187.329C83.6866 186.948 83.609 186.637 83.5085 186.384C83.4917 186.342 83.4742 186.301 83.456 186.262C83.1108 185.522 82.4819 185.351 80.5385 185.383L80.5399 185.832C80.5488 186.989 80.588 188.826 80.5114 189.669C80.5531 191.772 81.4654 191.416 83.245 191.766C81.872 191.962 77.8563 191.939 76.4116 191.84C77.1998 191.552 77.9515 191.628 78.5252 191C78.8236 190.117 78.7932 180.371 78.5785 179.174C78.1952 178.529 77.2155 178.465 76.4102 178.241C77.6614 178.1 79.3728 178.162 80.6782 178.166C82.7367 178.177 84.7953 178.171 86.8539 178.147Z" fill="#002161"/>
<path d="M96.8772 179.475C96.7557 180.935 96.5611 190.239 97.0658 190.996C97.4103 191.512 98.7647 191.672 99.338 191.804C97.9754 191.966 95.6313 191.896 94.1912 191.894C94.733 191.617 95.6692 191.544 96.0688 191.078C96.6513 190.398 96.3934 180.818 96.3248 179.254L96.8772 179.475Z" fill="#002161"/>
<rect x="69.0117" y="194.592" width="115.963" height="0.408497" fill="#E52214"/>
</svg>
