<svg width="250" height="250" viewBox="0 0 250 250" fill="none" xmlns="http://www.w3.org/2000/svg">
<mask id="path-1-inside-1_8_269" fill="white">
<path d="M0 125C0 55.9644 55.9644 0 125 0C194.036 0 250 55.9644 250 125C250 194.036 194.036 250 125 250C55.9644 250 0 194.036 0 125Z"/>
</mask>
<path d="M0 125C0 55.9644 55.9644 0 125 0C194.036 0 250 55.9644 250 125C250 194.036 194.036 250 125 250C55.9644 250 0 194.036 0 125Z" fill="white"/>
<path d="M0 125M250 125M250 125M0 125M125 0M250 125M125 250M0 125M125 250V248C57.069 248 2 192.931 2 125H0H-2C-2 195.14 54.8598 252 125 252V250ZM250 125H248C248 192.931 192.931 248 125 248V250V252C195.14 252 252 195.14 252 125H250ZM125 0V2C192.931 2 248 57.069 248 125H250H252C252 54.8598 195.14 -2 125 -2V0ZM125 0V-2C54.8598 -2 -2 54.8598 -2 125H0H2C2 57.069 57.069 2 125 2V0Z" fill="#DDDBDB" mask="url(#path-1-inside-1_8_269)"/>
<g clip-path="url(#clip0_8_269)">
<path d="M28.2956 117.419C26.0985 119.336 25 121.863 25 125.001C25 128.138 26.0985 130.656 28.2956 132.554C30.4194 134.413 33.1155 135.342 36.3841 135.342C38.9596 135.342 41.0071 134.807 42.5265 133.735V129.565C41.0747 130.862 39.2811 131.511 37.1458 131.511C35.2151 131.511 33.6088 130.905 32.3269 129.692C31.0449 128.48 30.4058 126.916 30.4097 125.001C30.4097 123.07 31.0488 121.501 32.3269 120.295C33.605 119.088 35.2113 118.487 37.1458 118.491C39.2869 118.491 41.0805 119.139 42.5265 120.437V116.237C41.0071 115.183 38.9596 114.657 36.3841 114.659C33.1155 114.659 30.4194 115.579 28.2956 117.419Z" fill="#231F20"/>
<path d="M63.5976 117.526C61.5009 115.595 58.7913 114.63 55.4686 114.63C52.2 114.63 49.5086 115.607 47.3946 117.561C45.2805 119.514 44.2186 121.994 44.209 125C44.209 128.006 45.2612 130.486 47.3656 132.44C49.47 134.394 52.1508 135.371 55.4078 135.371C59.0529 135.371 61.918 134.271 64.0031 132.072C65.8133 130.169 66.7962 127.626 66.7369 125C66.7388 121.948 65.6924 119.457 63.5976 117.526ZM59.6649 129.622C59.1419 130.214 58.4944 130.683 57.7689 130.995C57.0434 131.307 56.2578 131.454 55.4686 131.427C54.6809 131.448 53.8982 131.294 53.1768 130.977C52.4553 130.66 51.8128 130.188 51.2955 129.593C50.2066 128.371 49.6621 126.84 49.6621 125C49.6621 123.12 50.1979 121.575 51.2694 120.367C51.7929 119.775 52.4408 119.306 53.1668 118.994C53.8929 118.682 54.6789 118.535 55.4686 118.563C56.2578 118.535 57.0434 118.683 57.7689 118.995C58.4944 119.307 59.1419 119.775 59.6649 120.367C60.7364 121.568 61.2722 123.112 61.2722 125C61.2722 126.889 60.7364 128.429 59.6649 129.622Z" fill="#231F20"/>
<path d="M83.9078 129.029C82.7031 127.077 81.7638 125.875 81.09 125.423C81.9793 125.056 82.7323 124.422 83.2446 123.607C83.7702 122.814 84.0493 121.883 84.0468 120.931C84.0468 119.146 83.4464 117.731 82.2455 116.689C81.0446 115.646 79.447 115.125 77.4526 115.125H67.6758V115.756C68.9153 116.171 69.535 117.523 69.535 119.811V126.399V130.164C69.535 132.456 68.9153 133.807 67.6758 134.218V134.838H74.6262V126.776H75.495C76.0495 126.766 76.589 126.956 77.0154 127.311C77.6525 127.856 78.4778 129.003 79.4914 130.752L81.8719 134.835H87.3019L84.5681 130.129L83.9078 129.029ZM78.1593 122.947C77.5942 123.422 76.8691 123.664 76.1321 123.622H74.6377V118.519H76.1321C76.8691 118.477 77.5942 118.719 78.1593 119.194C78.4089 119.438 78.6035 119.733 78.7299 120.059C78.8562 120.384 78.9115 120.733 78.892 121.082C78.91 121.427 78.8539 121.771 78.7275 122.093C78.6011 122.414 78.4074 122.704 78.1593 122.944V122.947Z" fill="#231F20"/>
<path d="M106.244 117.526C104.151 115.595 101.442 114.63 98.1151 114.63C94.8465 114.63 92.1551 115.607 90.0411 117.561C87.927 119.514 86.8651 121.994 86.8555 125C86.8555 128.006 87.9077 130.486 90.0121 132.44C92.1165 134.394 94.7934 135.371 98.0427 135.371C101.69 135.371 104.555 134.271 106.638 132.072C108.448 130.169 109.431 127.626 109.372 125C109.381 121.948 108.339 119.457 106.244 117.526ZM102.323 129.622C101.785 130.193 101.135 130.648 100.414 130.958C99.6934 131.267 98.9166 131.426 98.132 131.423C97.3473 131.42 96.5716 131.257 95.8529 130.942C95.1341 130.627 94.4877 130.168 93.9535 129.593C92.8627 128.371 92.3173 126.84 92.3173 125C92.3173 123.12 92.8531 121.575 93.9246 120.367C94.4657 119.797 95.117 119.344 95.8389 119.034C96.5608 118.724 97.3382 118.564 98.1238 118.564C98.9094 118.564 99.6868 118.724 100.409 119.034C101.131 119.344 101.782 119.797 102.323 120.367C103.391 121.568 103.925 123.112 103.927 125C103.929 126.889 103.394 128.429 102.323 129.622Z" fill="#231F20"/>
<path d="M126.423 126.689L116.701 115.137H110.33V115.756C111.57 116.172 112.189 117.523 112.189 119.811V134.835H116.979V122.739L127.159 134.835H131.213V115.143H126.423V126.689Z" fill="#231F20"/>
<path d="M223.16 130.847V115.137H218.37V126.689L208.649 115.137H202.277V115.756C203.517 116.172 204.137 117.523 204.137 119.811V134.835H208.927V122.739L219.109 134.835H224.996V134.216C223.886 133.845 223.274 132.722 223.16 130.847Z" fill="#231F20"/>
<path d="M140.658 115.137L132.795 134.829H137.695L139.215 130.601H146.846L148.465 134.829H154.014L145.905 115.137H140.658ZM140.432 127.283L142.488 121.58C142.671 121.038 142.811 120.482 142.905 119.918H142.96C143.054 120.484 143.193 121.042 143.377 121.586L145.569 127.274L140.432 127.283Z" fill="#231F20"/>
<path d="M151.369 118.684V120.546H151.989C152.402 119.303 153.754 118.682 156.043 118.684H157.225V134.835H162.325V118.684H168.328V115.137H151.369V118.684Z" fill="#231F20"/>
<path d="M170.975 134.835H177.925V134.216C176.797 133.839 176.184 132.688 176.083 130.761V119.814C176.083 117.524 176.703 116.162 177.942 115.728V115.148H170.992L170.975 134.835Z" fill="#231F20"/>
<path d="M198.18 117.526C196.093 115.595 193.39 114.63 190.071 114.63C186.789 114.63 184.095 115.607 181.988 117.561C179.882 119.514 178.82 121.994 178.803 125C178.803 128.006 179.855 130.486 181.959 132.44C184.064 134.394 186.741 135.371 189.99 135.371C193.635 135.371 196.5 134.271 198.585 132.072C200.397 130.17 201.38 127.627 201.319 125C201.329 121.948 200.282 119.457 198.18 117.526ZM194.25 129.631C193.712 130.202 193.062 130.657 192.341 130.966C191.62 131.276 190.844 131.435 190.059 131.432C189.274 131.429 188.499 131.265 187.78 130.951C187.061 130.636 186.415 130.177 185.881 129.602C184.792 128.38 184.247 126.849 184.247 125.009C184.247 123.129 184.782 121.584 185.852 120.376C186.393 119.806 187.044 119.352 187.766 119.043C188.488 118.733 189.265 118.573 190.051 118.573C190.836 118.573 191.614 118.733 192.336 119.043C193.058 119.352 193.709 119.806 194.25 120.376C195.321 121.576 195.857 123.121 195.857 125.009C195.857 126.897 195.325 128.435 194.262 129.622L194.25 129.631Z" fill="#231F20"/>
</g>
<defs>
<clipPath id="clip0_8_269">
<rect width="200" height="20.7411" fill="white" transform="translate(25 114.63)"/>
</clipPath>
</defs>
</svg>
