<svg width="250" height="250" viewBox="0 0 250 250" fill="none" xmlns="http://www.w3.org/2000/svg">
<path d="M0 125C0 55.9644 55.9644 0 125 0C194.036 0 250 55.9644 250 125C250 194.036 194.036 250 125 250C55.9644 250 0 194.036 0 125Z" fill="#162D4C"/>
<path d="M126.121 91.9233C126.353 91.7231 126.571 91.2877 126.967 91.7337L131.726 97.0582L118.38 98.9089C118.422 98.5228 118.731 98.4033 118.928 98.2243C121.318 96.117 123.716 94.0166 126.121 91.9233Z" fill="#C6CCD1"/>
<path fill-rule="evenodd" clip-rule="evenodd" d="M190.664 55C189.891 58.7159 189.133 62.4353 188.342 66.1477C185.317 80.3532 182.283 94.554 179.239 108.75C178.01 114.521 176.78 120.295 175.537 126.058C175.379 126.761 175.449 127.01 176.24 127.02C179.049 127.062 181.859 127.02 184.669 126.912C186.043 126.83 187.422 126.919 188.774 127.178C191.233 127.698 191.918 129.472 190.446 131.534C189.623 132.606 188.553 133.464 187.327 134.034C184.556 135.464 181.557 136.075 178.505 136.472C177.001 136.702 175.482 136.82 173.96 136.823C173.37 136.823 173.219 137.097 173.12 137.571C172.184 142.02 171.239 146.478 170.286 150.945L161.615 191.834C161.439 192.663 161.264 193.488 161.098 194.324C161.014 194.795 160.846 195.079 160.308 194.981C160.162 194.967 160.015 194.967 159.869 194.981H59.8672C58.6592 194.981 58.6628 194.981 58.9227 193.744C63.9287 170.171 68.9324 146.597 73.9337 123.023C75.0506 117.765 76.1708 112.508 77.2946 107.254C77.3922 106.95 77.3721 106.62 77.2384 106.33C75.7457 103.377 75.2718 100.17 74.9593 96.9316C74.162 88.6991 76.0759 80.8354 78.3202 73.0314C78.9699 70.7836 81.4145 69.4 84.0802 69.702C85.0601 69.8109 85.3412 69.5437 85.5239 68.6165C86.4124 64.1772 87.3853 59.7553 88.3336 55.3265C88.3658 55.2141 88.4079 55.1048 88.4598 55H190.664ZM94.4518 154.802V167.582C94.4594 168.306 94.3169 169.024 94.0337 169.69C91.7156 175.207 89.4256 180.739 87.1006 186.256C86.9685 186.512 86.905 186.798 86.916 187.085C86.9271 187.372 87.0127 187.652 87.164 187.897C87.6557 188.761 88.0912 189.653 88.4951 190.563C88.5696 190.793 88.7209 190.99 88.9235 191.122C89.1262 191.253 89.3681 191.311 89.6085 191.286C95.1997 191.254 100.788 191.286 106.375 191.261C106.618 191.261 106.895 191.374 107.155 191.089C106.642 190.036 106.147 188.943 105.592 187.89C105.308 187.383 105.223 186.788 105.354 186.221C106.723 179.527 108.058 172.822 109.448 166.132C109.589 165.468 109.448 165.138 108.922 164.769C104.337 161.578 99.7607 158.375 95.1926 155.16C94.9907 154.945 94.717 154.813 94.4236 154.788L94.4518 154.802ZM79.9991 112.122C79.9604 112.287 79.9183 112.449 79.8831 112.61C76.8533 126.982 73.8246 141.356 70.7971 155.732C70.4178 157.527 70.418 157.548 72.2233 157.738C73.3893 157.861 74.4992 158.233 75.7354 157.784C81.7236 155.631 87.7504 153.587 93.7562 151.462C94.054 151.325 94.3844 151.274 94.7097 151.315C95.0349 151.356 95.3421 151.487 95.5966 151.693C103.569 157.383 111.558 163.052 119.564 168.699L122.528 170.807C122.159 171.049 121.917 171.211 121.671 171.365C118.626 173.276 115.584 175.193 112.522 177.076C111.904 177.455 111.876 177.652 112.452 178.129C117.369 182.186 122.265 186.274 127.171 190.348C127.294 190.454 127.406 190.633 127.666 190.51C127.719 189.604 127.824 188.673 127.81 187.742C127.808 186.692 128.03 185.652 128.46 184.694C129.826 181.435 131.133 178.151 132.474 174.881C132.646 174.48 132.724 174.045 132.703 173.609C132.583 170.715 132.471 167.821 132.383 164.927C132.368 164.404 132.209 163.894 131.923 163.456C128.818 158.433 125.734 153.4 122.619 148.381C122.481 148.182 122.391 147.953 122.357 147.713C122.323 147.473 122.345 147.228 122.423 146.998C122.942 145.203 123.413 143.394 123.929 141.596C124.124 140.892 124.184 140.158 124.105 139.433C123.922 137.452 123.754 135.471 123.617 133.486C123.578 132.826 123.392 132.608 122.693 132.605C118.042 132.608 113.401 132.148 108.841 131.231C96.9664 128.773 87.3957 122.83 80.5681 112.691C80.4311 112.491 80.3643 112.202 79.9991 112.122ZM145.592 130.792C145.683 131.404 145.768 131.846 145.813 132.32C145.957 133.831 146.453 135.299 146.302 136.837C145.838 141.554 144.834 146.19 144.215 150.885C143.738 154.542 143.25 158.202 143.446 161.896C143.604 164.882 144.574 167.572 147.106 169.346C149.494 171.017 152.118 171.527 154.875 170.104C155.089 170.014 155.27 169.857 155.389 169.658C155.509 169.459 155.563 169.226 155.542 168.994C155.531 168.001 155.433 167.01 155.251 166.033C155.128 165.415 154.928 165.254 154.26 165.373C151.781 165.819 150.077 164.035 150.562 161.573C150.987 159.41 151.847 157.394 152.669 155.367C154.668 150.503 157.042 145.803 159.118 140.967C159.648 139.605 159.973 138.172 160.084 136.714C160.14 136.236 160.083 135.99 159.486 135.913C158.504 135.77 157.53 135.568 156.571 135.309C152.727 134.3 149.034 132.781 145.592 130.792ZM142.66 115.297C139.369 114.945 136.51 115.708 134.381 118.433C133.988 118.935 133.978 119.255 134.494 119.712C137.209 122.118 140.134 124.274 143.235 126.156C151.981 131.488 161.411 134.586 171.744 134.579L171.772 134.593C172.415 134.593 173.057 134.614 173.7 134.593C177.539 134.438 181.329 133.964 184.981 132.7C186.105 132.364 187.141 131.785 188.016 131.003C188.43 130.607 188.806 130.139 188.564 129.539C188.349 129.005 187.77 128.966 187.285 128.963C186.115 128.963 184.939 128.931 183.773 129.036C178.84 129.507 173.863 129.138 169.054 127.944C160.498 125.819 152.873 121.784 145.821 116.6C144.906 115.885 143.812 115.434 142.66 115.297ZM89.0744 72.8277C87.2552 72.5713 85.4535 72.1252 83.5956 72.2165C81.9976 72.2902 81.1088 72.8452 80.7049 74.1622C78.7135 80.6667 77.1927 87.2662 77.414 94.1325C77.5294 100.469 79.6273 106.61 83.4128 111.693C87.6274 117.376 93.3313 121.022 99.8534 123.491C107.373 126.328 115.233 127.344 123.213 127.688L123.23 127.702C123.492 127.674 123.756 127.674 124.017 127.702C127.227 128.432 128.871 126.536 130.17 124.06C130.318 123.775 130.469 123.487 130.595 123.196C131.498 121.141 131.494 121.137 129.833 119.683C129.724 119.581 129.606 119.487 129.482 119.403C128.755 118.96 128.758 118.486 129.204 117.762C130.586 115.515 132.605 113.729 135.005 112.632C137.405 111.536 140.077 111.179 142.681 111.606C143.571 111.726 144.411 112.091 145.108 112.659C147.39 114.489 149.751 116.214 152.16 117.878C154.376 119.452 156.689 120.884 159.086 122.167C159.974 122.63 160.024 122.609 159.943 121.654C159.788 119.849 159.609 118.045 159.406 116.242C158.952 112.189 157.727 108.455 155.135 105.199C153.277 102.867 151.51 100.461 149.614 98.1574C149.429 97.9591 149.292 97.7211 149.214 97.4618C149.135 97.2026 149.117 96.9287 149.161 96.6613C149.582 93.3388 149.589 93.3177 147.517 90.6906C142.951 84.9026 137.528 79.9434 131.986 75.1178C131.66 74.8704 131.28 74.7043 130.876 74.6331C127.045 73.6905 123.125 73.1524 119.181 73.028C116.891 72.9226 114.77 73.1755 112.891 74.5803C111.356 75.7288 109.73 75.9186 107.801 75.599C101.578 74.5629 95.3226 73.7127 89.0744 72.8277Z" fill="#C6CCD1"/>
</svg>
