<svg width="250" height="250" viewBox="0 0 250 250" fill="none" xmlns="http://www.w3.org/2000/svg">
<path d="M0 125C0 55.9644 55.9644 0 125 0C194.036 0 250 55.9644 250 125C250 194.036 194.036 250 125 250C55.9644 250 0 194.036 0 125Z" fill="white"/>
<path d="M82.8595 106.493V113.263C82.8595 113.263 77.0536 113.122 75.836 113.169C74.1973 113.216 74.5251 115.379 74.5251 115.379L74.4314 124.123H82.7191V131.504H74.291V159.76H60.01V131.504H55V124.123H60.4314V112.229C60.4314 112.229 59.9164 106.822 66.1906 106.681C72.4649 106.54 82.8595 106.493 82.8595 106.493Z" fill="#0D3A94"/>
<path d="M106.88 126.945H117.228C118.164 126.945 118.914 127.274 118.914 126.333L118.773 115.52C118.773 115.379 118.773 115.285 118.726 115.144C118.492 114.157 117.837 108.891 110.392 107.199C110.251 107.152 110.158 107.105 110.017 107.105C108.472 106.916 98.3584 105.741 93.8634 107.152C90.9604 108.045 89.2279 109.361 87.8232 110.772C86.559 112.041 85.3885 114.063 85.2949 115.849L85.3885 126.192C85.2012 127.462 86.4186 129.342 88.1042 130.659C90.4921 132.492 94.8467 134.89 100.793 137.664C100.793 137.664 104.118 138.698 104.305 140.814C104.445 142.506 104.82 148.195 104.82 150.311C104.82 150.922 104.492 151.486 103.977 151.768C103.322 152.144 102.292 152.379 101.121 151.815C100.606 151.533 100.231 150.969 100.231 150.358L99.9503 140.062C99.9035 139.168 99.9503 138.369 99.0608 138.369L86.4654 138.228C85.5757 138.228 85.3416 137.899 85.3416 138.792L85.6226 151.58C85.6226 151.768 85.6695 151.909 85.7163 152.097C86.1378 153.367 88.2915 158.914 94.3317 159.431C100.746 159.996 108.098 159.761 109.081 159.713C109.174 159.713 109.221 159.713 109.315 159.713C110.251 159.525 116.666 159.149 118.867 153.367C118.914 153.226 118.96 153.038 119.007 152.896C119.148 151.251 119.335 142.271 119.007 138.839C119.007 138.792 119.007 138.698 119.007 138.651C118.867 137.946 118.164 133.903 111.328 131.082C111.328 131.082 102.853 127.415 100.512 125.346C100.138 125.017 99.6695 124.077 99.6695 123.607L99.7162 115.802C100.091 114.204 101.168 114.674 102.619 114.674C104.071 114.674 104.914 115.896 104.914 117.354L105.054 126.239C105.007 127.086 105.991 126.945 106.88 126.945Z" fill="#0D3A94"/>
<path d="M141.997 158.114C141.997 158.114 135.301 160.606 129.87 159.478C125.281 158.49 123.268 155.435 122.378 153.977C122.097 153.507 122.004 151.532 122.004 150.968L121.91 113.028C121.91 111.711 122.378 110.442 123.268 109.502C124.766 107.903 127.435 105.788 130.76 106.07C136.004 106.493 141.107 107.292 141.107 107.292L140.686 114.579C140.686 114.579 137.081 113.545 136.612 114.908C135.629 117.729 135.957 150.122 135.957 150.122C135.957 150.122 136.753 152.943 139.328 151.485C141.903 150.028 141.997 151.062 141.997 151.062V158.114Z" fill="#0D3A94"/>
<path d="M156.886 81.7157L140.92 93.8454V158.537H156.652L156.886 81.7157Z" fill="#0D3A94"/>
<path d="M157.261 159.197H140.312V93.518L157.542 80.4481L157.261 159.197ZM141.576 157.928H155.997L156.231 82.9869L141.576 94.1293V157.928Z" fill="#0887D6"/>
<path d="M181.281 159.76H195V113.028C195 113.028 194.485 107.715 186.104 106.681C186.104 106.681 181.796 105.929 178.191 107.433L174.351 108.796L174.117 115.472C174.117 115.472 179.034 113.827 180.485 114.673C181.702 115.379 181.515 116.977 181.656 119.798C181.796 122.713 181.281 159.76 181.281 159.76Z" fill="#0D3A94"/>
<path d="M160.445 71.6094L176.365 85.3846V159.15H160.679L160.445 71.6094Z" fill="#0D3A94"/>
<path d="M177.02 159.76H160.07L159.836 70.1984L177.067 85.1019V159.76H177.02ZM161.334 158.491H175.756V85.7131L161.1 73.0192L161.334 158.491Z" fill="#0887D6"/>
</svg>
