<svg width="250" height="250" viewBox="0 0 250 250" fill="none" xmlns="http://www.w3.org/2000/svg">
<mask id="path-1-inside-1_453_560" fill="white">
<path d="M0 125C0 55.9644 55.9644 0 125 0C194.036 0 250 55.9644 250 125C250 194.036 194.036 250 125 250C55.9644 250 0 194.036 0 125Z"/>
</mask>
<path d="M0 125C0 55.9644 55.9644 0 125 0C194.036 0 250 55.9644 250 125C250 194.036 194.036 250 125 250C55.9644 250 0 194.036 0 125Z" fill="white"/>
<path d="M0 125M250 125M250 125M0 125M125 0M250 125M125 250M0 125M125 250V248C57.069 248 2 192.931 2 125H0H-2C-2 195.14 54.8598 252 125 252V250ZM250 125H248C248 192.931 192.931 248 125 248V250V252C195.14 252 252 195.14 252 125H250ZM125 0V2C192.931 2 248 57.069 248 125H250H252C252 54.8598 195.14 -2 125 -2V0ZM125 0V-2C54.8598 -2 -2 54.8598 -2 125H0H2C2 57.069 57.069 2 125 2V0Z" fill="#DDDBDB" mask="url(#path-1-inside-1_453_560)"/>
<path fill-rule="evenodd" clip-rule="evenodd" d="M154.501 59.8744C162.448 66.196 166.877 78.3776 167.628 88.3539C168.764 103.455 163.77 121.107 153.877 132.804C160.545 140.625 166.689 153.136 169.243 163.071C171.464 171.709 172.511 182.488 168.125 190.564C161.435 202.88 144.755 200.818 134.333 195.01C131.535 193.45 128.567 191.332 126.166 189.191C117.183 179.981 108.541 168.017 105.122 155.627C92.5134 155.031 75.1628 149.596 65.3877 141.481C60.0617 136.95 56.5693 131.814 55.0508 124.957C59.0924 125.295 63.2964 125.788 67.3642 126.166C70.249 138.268 84.4469 147.089 95.9023 149.784C98.3628 150.362 101.189 150.636 103.706 150.891C99.9609 134.982 98.8857 123.887 100.922 107.502C103.262 107.958 105.68 108.342 108.054 108.8C107.748 110.464 107.685 114.374 107.665 116.142C107.526 128.422 109.818 138.836 113.735 150.355C116.486 149.562 119.595 149 122.243 147.963C145.325 138.934 159.934 113.427 159.019 89.1136C158.516 75.7234 152.32 59.5249 136.333 60.2242C136.31 58.0494 136.333 56.4491 136.333 54.7554C143.02 54.1555 149.16 55.6259 154.501 59.8744ZM150.8 136.41C148.987 138.02 146.873 140.077 144.999 141.535C138.331 146.719 130.574 151.155 122.463 153.614C120.377 154.246 117.805 154.72 115.66 155.141C119.71 163.217 125.671 173.633 132.87 179.089C137.731 182.444 140.814 184.168 146.786 184.892C158.033 186.255 162.069 178.296 161.498 168.133C160.89 157.316 156.982 147.092 151.737 137.659C151.496 137.225 151.234 136.622 150.8 136.41Z" fill="#006627"/>
<path d="M135.435 54.8965C135.5 57.164 135.524 57.8529 135.631 60.2633C131.977 61.3303 131.226 61.9152 129.378 63.2747C118.612 71.1938 111.316 89.8369 108.933 102.404C111.991 103.055 119.266 105.587 121.991 107.021C130.319 111.405 141.32 118.321 147.533 125.472C146.736 126.454 146.031 127.426 145.286 128.448C133.147 115.697 114.994 107.225 97.4271 106.131C97.1497 106.105 96.8718 106.084 96.5935 106.069C88.4679 105.648 79.3046 107.017 73.2305 112.773C69.5053 116.303 67.4445 119.526 67.2007 124.659C63.0331 124.261 58.8719 123.8 54.7188 123.273C55.1997 101.572 85.6622 97.1562 102.128 100.777C103.568 93.8853 105.912 87.2141 109.099 80.9366C113.195 72.7856 117.959 65.8191 125.104 60.0491C127.767 57.8992 131.525 55.7157 135.435 54.8965Z" fill="#86CC22"/>
<path d="M177.62 185.899C179.417 185.446 181.319 185.996 182.594 187.341C183.87 188.686 184.318 190.616 183.768 192.386C183.218 194.156 181.754 195.492 179.942 195.876C177.212 196.456 174.521 194.744 173.888 192.027C173.256 189.309 174.915 186.585 177.62 185.899Z" fill="#86CC22"/>
<path d="M154.151 44.5011C156.917 43.9068 159.641 45.6675 160.234 48.4334C160.827 51.1991 159.066 53.9222 156.299 54.5147C153.535 55.1066 150.813 53.3461 150.22 50.5816C149.627 47.817 151.387 45.0951 154.151 44.5011Z" fill="#86CC22"/>
<path d="M48.6513 94.6031C51.4272 94.3638 53.8794 96.4016 54.1522 99.1744C54.4251 101.947 52.4172 104.424 49.6479 104.73C47.8264 104.932 46.0373 104.138 44.9641 102.653C43.8908 101.167 43.6991 99.2196 44.4623 97.5536C45.2255 95.8874 46.8255 94.7605 48.6513 94.6031Z" fill="#86CC22"/>
</svg>
