<svg width="250" height="250" viewBox="0 0 250 250" fill="none" xmlns="http://www.w3.org/2000/svg">
<rect width="250" height="250" fill="#EB2232"/>
<path fill-rule="evenodd" clip-rule="evenodd" d="M133.79 143.466V123.13L159.593 123.296C172.019 123.379 178.068 133.313 178.068 143.692C178.068 172.389 133.863 178.541 133.819 143.466M133.819 89.5243C181.413 64.5443 185.616 119.402 156.874 116.796H133.706L133.819 89.5243ZM175.291 119.304C209.41 106.236 180.894 55.3654 125.047 86.8353C119.315 82.1605 112.486 79.0234 105.205 77.72C91.4071 74.9183 72.9072 77.3576 62.5283 87.0263L67.5439 91.9243C72.9186 87.2944 79.4984 84.2874 86.5166 83.2537C93.5348 82.22 100.702 83.2022 107.184 86.0859C109.352 87.1155 111.263 88.6179 112.775 90.4825C114.287 92.3472 115.362 94.5269 115.922 96.8615L116.171 143.603C114.124 176.072 72.3047 173.565 72.3145 143.603V123.095H105.205V116.904H55V137.089C55.1273 175.455 101.796 181.911 124.91 163.24C134.362 170.248 145.93 173.807 157.687 173.325C199.12 173.045 207.647 128.361 175.183 119.275L175.291 119.304Z" fill="white"/>
</svg>
