<svg width="250" height="250" viewBox="0 0 250 250" fill="none" xmlns="http://www.w3.org/2000/svg">
<mask id="path-1-inside-1_769_521" fill="white">
<path d="M0 48C0 21.4903 21.4903 0 48 0H202C228.51 0 250 21.4903 250 48V202C250 228.51 228.51 250 202 250H48C21.4903 250 0 228.51 0 202V48Z"/>
</mask>
<path d="M0 48C0 21.4903 21.4903 0 48 0H202C228.51 0 250 21.4903 250 48V202C250 228.51 228.51 250 202 250H48C21.4903 250 0 228.51 0 202V48Z" fill="white"/>
<path d="M48 0V2H202V0V-2H48V0ZM250 48H248V202H250H252V48H250ZM202 250V248H48V250V252H202V250ZM0 202H2V48H0H-2V202H0ZM48 250V248C22.5949 248 2 227.405 2 202H0H-2C-2 229.614 20.3858 252 48 252V250ZM250 202H248C248 227.405 227.405 248 202 248V250V252C229.614 252 252 229.614 252 202H250ZM202 0V2C227.405 2 248 22.5949 248 48H250H252C252 20.3858 229.614 -2 202 -2V0ZM48 0V-2C20.3858 -2 -2 20.3858 -2 48H0H2C2 22.5949 22.5949 2 48 2V0Z" fill="#DDDBDB" mask="url(#path-1-inside-1_769_521)"/>
<path d="M194.937 129.361L116.195 50.6191V62.7051L182.851 129.361L182.876 129.387L125.139 187.124L125.07 187.054L67.3704 129.361L67.3198 129.311L95.6448 100.986H83.3502L55 129.336L55.0253 129.361L125.044 199.38L125.07 199.355L195 129.424L194.937 129.361Z" fill="#FE6309"/>
<path d="M116.169 71.0234V83.1094L162.446 129.386L125.164 166.668L87.8509 129.361L87.8003 129.31L116.125 100.986H103.831L75.4805 129.336L75.5058 129.361L118.989 172.844L125.07 178.925L131.252 172.749L174.57 129.424L116.169 71.0234Z" fill="#FE6309"/>
<path d="M154.159 129.361L131.068 106.245L124.924 100.101L118.881 106.144L95.67 129.336L118.894 152.559L124.975 158.64L131.144 152.465L154.223 129.424L154.159 129.361ZM125.082 146.428L108.015 129.361L107.965 129.31L124.987 112.288L142.054 129.355L125.082 146.428Z" fill="#FE6309"/>
</svg>
