<svg width="250" height="250" viewBox="0 0 250 250" fill="none" xmlns="http://www.w3.org/2000/svg">
<rect width="250" height="250" fill="white"/>
<path fill-rule="evenodd" clip-rule="evenodd" d="M138.789 60.0005C139.531 60.0005 140.211 60.383 140.582 61.0244L186.118 139.692C186.291 140.001 186.39 140.358 186.39 140.716C186.39 141.851 185.462 142.776 184.325 142.776H146.739C145.997 142.788 145.317 142.393 144.947 141.752L111.787 84.4471C111.601 84.1388 111.342 83.8797 111.033 83.6947C110.044 83.1273 108.783 83.4604 108.214 84.4471L82.4231 129.011C82.25 129.319 82.151 129.677 82.151 130.034C82.151 131.169 83.0783 132.094 84.2158 132.094C84.2158 132.094 120.988 132.14 121.795 132.146C121.808 132.146 121.821 132.147 121.834 132.149L123.751 132.15C124.492 132.151 125.163 132.548 125.534 133.19L129.177 139.702C129.746 140.687 129.409 141.953 128.427 142.521C128.117 142.7 127.758 142.793 127.404 142.797L97.477 142.788H65.6702C65.3117 142.788 64.9531 142.689 64.644 142.517C63.6549 141.949 63.3087 140.691 63.8775 139.705L108.214 63.0841C108.399 62.7758 108.659 62.5167 108.968 62.3317C109.957 61.7643 111.218 62.0974 111.787 63.0841L151.153 131.083C151.512 131.712 152.192 132.107 152.933 132.107H165.792C166.15 132.107 166.509 132.02 166.818 131.835C167.807 131.268 168.153 130.01 167.584 129.023L129.714 63.0841C129.541 62.7758 129.442 62.4182 129.442 62.0604C129.442 60.9257 130.37 60.0007 131.507 60.0005H138.789Z" fill="url(#paint0_linear_83_2025)"/>
<path fill-rule="evenodd" clip-rule="evenodd" d="M166.329 159.632V174.536H171.214V159.632H175.933V155.216H161.582V159.632H166.329Z" fill="black" fill-opacity="0.752491"/>
<path fill-rule="evenodd" clip-rule="evenodd" d="M144.343 174.536L143.211 172.107H135.594L134.463 174.536H129.633V173.818L138.326 154.968H140.452L149.173 173.818V174.536H144.343ZM141.611 167.884L139.375 162.806L137.195 167.884H141.611Z" fill="black" fill-opacity="0.752491"/>
<path fill-rule="evenodd" clip-rule="evenodd" d="M110.21 155.216H105.242V174.536H117.22V170.092H110.21V155.216Z" fill="black" fill-opacity="0.752491"/>
<path fill-rule="evenodd" clip-rule="evenodd" d="M88.0032 174.536L86.8716 172.107H79.2543L78.1228 174.536H73.293V173.818L81.9866 154.968H84.1118L92.833 173.818V174.536H88.0032ZM85.2709 167.884L83.0354 162.806L80.8551 167.884H85.2709Z" fill="black" fill-opacity="0.752491"/>
<path fill-rule="evenodd" clip-rule="evenodd" d="M151.121 186.043C151.121 186.42 151.067 186.76 150.961 187.061C150.854 187.363 150.711 187.617 150.53 187.821C150.339 188.034 150.129 188.194 149.9 188.301C149.671 188.407 149.419 188.46 149.144 188.46C148.888 188.46 148.664 188.43 148.473 188.369C148.281 188.309 148.093 188.227 147.907 188.125L147.858 188.335H147.146V182.044H147.907V184.292C148.119 184.117 148.346 183.973 148.586 183.862C148.826 183.75 149.095 183.694 149.394 183.694C149.928 183.694 150.349 183.899 150.658 184.308C150.966 184.718 151.121 185.296 151.121 186.043ZM150.336 186.063C150.336 185.524 150.247 185.115 150.069 184.836C149.892 184.557 149.605 184.417 149.208 184.417C148.987 184.417 148.764 184.465 148.537 184.561C148.311 184.657 148.101 184.78 147.907 184.931V187.518C148.122 187.615 148.307 187.683 148.462 187.72C148.617 187.758 148.793 187.777 148.99 187.777C149.41 187.777 149.74 187.639 149.978 187.363C150.217 187.086 150.336 186.653 150.336 186.063ZM156.21 183.819L153.575 190.001H152.762L153.603 188.117L151.804 183.819H152.629L154.015 187.167L155.414 183.819H156.21ZM167.183 182.315L165.618 188.335H164.717L163.451 183.338L162.214 188.335H161.333L159.74 182.315H160.561L161.826 187.32L163.071 182.315H163.884L165.141 187.369L166.398 182.315H167.183ZM172.329 188.335H168.363V182.315H172.329V183.027H169.164V184.676H172.329V185.388H169.164V187.623H172.329V188.335ZM178.959 188.335H178.159V183.148L176.485 186.677H176.008L174.347 183.148V188.335H173.599V182.315H174.69L176.295 185.667L177.848 182.315H178.959V188.335ZM185.323 188.335H184.47L183.879 186.657H181.276L180.686 188.335H179.873L182.064 182.315H183.132L185.323 188.335ZM183.633 185.97L182.578 183.015L181.518 185.97H183.633Z" fill="black" fill-opacity="0.601053"/>
<defs>
<linearGradient id="paint0_linear_83_2025" x1="63.6035" y1="101.399" x2="186.39" y2="101.399" gradientUnits="userSpaceOnUse">
<stop stop-color="#CF0923"/>
<stop offset="1" stop-color="#43063C"/>
</linearGradient>
</defs>
</svg>
