<svg width="250" height="250" viewBox="0 0 250 250" fill="none" xmlns="http://www.w3.org/2000/svg">
<mask id="path-1-inside-1_769_523" fill="white">
<path d="M0 48C0 21.4903 21.4903 0 48 0H202C228.51 0 250 21.4903 250 48V202C250 228.51 228.51 250 202 250H48C21.4903 250 0 228.51 0 202V48Z"/>
</mask>
<path d="M0 48C0 21.4903 21.4903 0 48 0H202C228.51 0 250 21.4903 250 48V202C250 228.51 228.51 250 202 250H48C21.4903 250 0 228.51 0 202V48Z" fill="white"/>
<path d="M48 0V2H202V0V-2H48V0ZM250 48H248V202H250H252V48H250ZM202 250V248H48V250V252H202V250ZM0 202H2V48H0H-2V202H0ZM48 250V248C22.5949 248 2 227.405 2 202H0H-2C-2 229.614 20.3858 252 48 252V250ZM250 202H248C248 227.405 227.405 248 202 248V250V252C229.614 252 252 229.614 252 202H250ZM202 0V2C227.405 2 248 22.5949 248 48H250H252C252 20.3858 229.614 -2 202 -2V0ZM48 0V-2C20.3858 -2 -2 20.3858 -2 48H0H2C2 22.5949 22.5949 2 48 2V0Z" fill="#DDDBDB" mask="url(#path-1-inside-1_769_523)"/>
<path fill-rule="evenodd" clip-rule="evenodd" d="M138.79 60C139.532 60 140.212 60.3825 140.583 61.0239L186.118 139.692C186.291 140 186.39 140.358 186.39 140.715C186.39 141.85 185.463 142.775 184.325 142.775H146.74C145.998 142.788 145.318 142.393 144.947 141.752L111.787 84.4466C111.602 84.1383 111.342 83.8793 111.033 83.6942C110.044 83.1269 108.783 83.4599 108.214 84.4466L82.4235 129.01C82.2505 129.319 82.1515 129.676 82.1515 130.034C82.1515 131.169 83.0788 132.094 84.2163 132.094C84.2163 132.094 120.988 132.139 121.795 132.145C121.808 132.146 121.822 132.147 121.835 132.149L123.751 132.15C124.492 132.15 125.164 132.548 125.535 133.19L129.178 139.702C129.747 140.687 129.41 141.952 128.427 142.52C128.118 142.699 127.758 142.792 127.405 142.797L97.4774 142.788H65.6707C65.3121 142.788 64.9536 142.689 64.6445 142.516C63.6554 141.949 63.3092 140.691 63.8779 139.704L108.214 63.0836C108.4 62.7753 108.659 62.5162 108.968 62.3312C109.958 61.7638 111.219 62.0969 111.787 63.0836L151.154 131.082C151.512 131.711 152.192 132.106 152.934 132.106H165.792C166.151 132.106 166.509 132.02 166.818 131.835C167.807 131.267 168.154 130.009 167.585 129.023L129.715 63.0836C129.542 62.7753 129.443 62.4177 129.443 62.0599C129.443 60.9252 130.37 60.0002 131.508 60H138.79Z" fill="url(#paint0_linear_769_523)"/>
<path fill-rule="evenodd" clip-rule="evenodd" d="M166.329 159.632V174.535H171.214V159.632H175.934V155.216H161.582V159.632H166.329Z" fill="black" fill-opacity="0.752491"/>
<path fill-rule="evenodd" clip-rule="evenodd" d="M144.343 174.534L143.212 172.106H135.594L134.463 174.534H129.633V173.817L138.327 154.967H140.452L149.173 173.817V174.534H144.343ZM141.611 167.883L139.375 162.805L137.195 167.883H141.611Z" fill="black" fill-opacity="0.752491"/>
<path fill-rule="evenodd" clip-rule="evenodd" d="M110.21 155.216H105.242V174.535H117.22V170.092H110.21V155.216Z" fill="black" fill-opacity="0.752491"/>
<path fill-rule="evenodd" clip-rule="evenodd" d="M88.0032 174.534L86.8716 172.106H79.2543L78.1228 174.534H73.293V173.817L81.9866 154.967H84.1118L92.833 173.817V174.534H88.0032ZM85.2709 167.883L83.0354 162.805L80.8551 167.883H85.2709Z" fill="black" fill-opacity="0.752491"/>
<path fill-rule="evenodd" clip-rule="evenodd" d="M151.12 186.042C151.12 186.42 151.067 186.759 150.961 187.061C150.854 187.363 150.711 187.616 150.53 187.821C150.339 188.034 150.128 188.194 149.899 188.3C149.67 188.407 149.418 188.46 149.143 188.46C148.887 188.46 148.664 188.43 148.472 188.369C148.281 188.308 148.092 188.227 147.906 188.124L147.858 188.335H147.146V182.044H147.906V184.292C148.119 184.117 148.346 183.973 148.585 183.861C148.825 183.749 149.095 183.693 149.394 183.693C149.928 183.693 150.349 183.898 150.657 184.308C150.966 184.718 151.12 185.296 151.12 186.042ZM150.336 186.063C150.336 185.523 150.247 185.114 150.069 184.836C149.891 184.557 149.604 184.417 149.208 184.417C148.987 184.417 148.763 184.465 148.537 184.561C148.311 184.656 148.1 184.78 147.906 184.931V187.518C148.122 187.615 148.307 187.682 148.462 187.72C148.617 187.758 148.793 187.777 148.99 187.777C149.41 187.777 149.74 187.639 149.978 187.362C150.217 187.086 150.336 186.653 150.336 186.063ZM156.21 183.819L153.574 190H152.762L153.603 188.116L151.804 183.819H152.628L154.015 187.166L155.414 183.819H156.21ZM167.182 182.315L165.618 188.335H164.716L163.451 183.338L162.214 188.335H161.332L159.74 182.315H160.56L161.826 187.32L163.071 182.315H163.883L165.141 187.368L166.398 182.315H167.182ZM172.329 188.335H168.363V182.315H172.329V183.026H169.163V184.676H172.329V185.387H169.163V187.623H172.329V188.335ZM178.959 188.335H178.159V183.148L176.485 186.677H176.008L174.346 183.148V188.335H173.598V182.315H174.69L176.295 185.666L177.847 182.315H178.959V188.335ZM185.323 188.335H184.469L183.879 186.657H181.276L180.685 188.335H179.873L182.064 182.315H183.131L185.323 188.335ZM183.633 185.97L182.577 183.014L181.518 185.97H183.633Z" fill="black" fill-opacity="0.601053"/>
<defs>
<linearGradient id="paint0_linear_769_523" x1="63.604" y1="101.398" x2="186.39" y2="101.398" gradientUnits="userSpaceOnUse">
<stop stop-color="#CF0923"/>
<stop offset="1" stop-color="#43063C"/>
</linearGradient>
</defs>
</svg>
