<svg width="250" height="250" viewBox="0 0 250 250" fill="none" xmlns="http://www.w3.org/2000/svg">
<mask id="path-1-inside-1_769_533" fill="white">
<path d="M0 48C0 21.4903 21.4903 0 48 0H202C228.51 0 250 21.4903 250 48V202C250 228.51 228.51 250 202 250H48C21.4903 250 0 228.51 0 202V48Z"/>
</mask>
<path d="M0 48C0 21.4903 21.4903 0 48 0H202C228.51 0 250 21.4903 250 48V202C250 228.51 228.51 250 202 250H48C21.4903 250 0 228.51 0 202V48Z" fill="white"/>
<path d="M48 0V2H202V0V-2H48V0ZM250 48H248V202H250H252V48H250ZM202 250V248H48V250V252H202V250ZM0 202H2V48H0H-2V202H0ZM48 250V248C22.5949 248 2 227.405 2 202H0H-2C-2 229.614 20.3858 252 48 252V250ZM250 202H248C248 227.405 227.405 248 202 248V250V252C229.614 252 252 229.614 252 202H250ZM202 0V2C227.405 2 248 22.5949 248 48H250H252C252 20.3858 229.614 -2 202 -2V0ZM48 0V-2C20.3858 -2 -2 20.3858 -2 48H0H2C2 22.5949 22.5949 2 48 2V0Z" fill="#DDDBDB" mask="url(#path-1-inside-1_769_533)"/>
<path d="M192.004 149.575C192.896 151.361 193.043 153.429 192.411 155.323C191.78 157.218 190.422 158.784 188.637 159.678L128.364 194.205C127.319 194.728 126.166 195 124.997 195C123.828 195 122.675 194.728 121.629 194.205L61.3565 159.678C59.6333 158.749 58.3395 157.185 57.7491 155.318C57.1588 153.452 57.3183 151.428 58.1938 149.677C59.0694 147.926 60.5923 146.585 62.4398 145.937C64.2874 145.289 66.3146 145.386 68.092 146.207L124.997 179.032L181.909 146.2C183.695 145.307 185.763 145.161 187.657 145.792C189.552 146.424 191.118 147.782 192.012 149.567M125.057 55C125.338 55 125.617 55.0176 125.893 55.0527L126.729 55.2034L127.377 55.3842L127.468 55.4294L127.558 55.4445L127.777 55.55L128.153 55.6931L128.274 55.7609L128.364 55.7986L188.637 90.3261C189.886 90.9525 190.937 91.9142 191.672 93.1037C192.406 94.2932 192.795 95.6636 192.795 97.0615C192.795 98.4595 192.406 99.8298 191.672 101.019C190.937 102.209 189.886 103.171 188.637 103.797L128.364 138.324C127.319 138.847 126.166 139.119 124.997 139.119C123.828 139.119 122.675 138.847 121.629 138.324L61.3565 103.797C60.1068 103.171 59.0559 102.209 58.3216 101.019C57.5872 99.8298 57.1982 98.4595 57.1982 97.0615C57.1982 95.6636 57.5872 94.2932 58.3216 93.1037C59.0559 91.9142 60.1068 90.9525 61.3565 90.3261L121.629 55.7986L121.712 55.7609L121.847 55.6856L122.435 55.4445L122.518 55.4294L122.616 55.3842L123.264 55.2034L124.092 55.0527L124.514 55.0151L125.057 55Z" fill="#509DFD"/>
<path d="M192.012 121.628C192.905 123.414 193.051 125.482 192.42 127.376C191.788 129.271 190.43 130.837 188.645 131.731L128.372 166.258C127.327 166.781 126.174 167.053 125.005 167.053C123.836 167.053 122.683 166.781 121.637 166.258L61.3647 131.731C59.6414 130.801 58.3476 129.238 57.7573 127.371C57.1669 125.504 57.3264 123.481 58.202 121.73C59.0776 119.979 60.6004 118.637 62.448 117.99C64.2956 117.342 66.3227 117.439 68.1001 118.26L124.997 151.092L181.909 118.26C183.696 117.368 185.763 117.221 187.658 117.853C189.552 118.484 191.119 119.842 192.012 121.628Z" fill="#0079CD"/>
</svg>
