<svg width="250" height="250" viewBox="0 0 250 250" fill="none" xmlns="http://www.w3.org/2000/svg">
<mask id="path-1-inside-1_769_534" fill="white">
<path d="M0 48C0 21.4903 21.4903 0 48 0H202C228.51 0 250 21.4903 250 48V202C250 228.51 228.51 250 202 250H48C21.4903 250 0 228.51 0 202V48Z"/>
</mask>
<path d="M0 48C0 21.4903 21.4903 0 48 0H202C228.51 0 250 21.4903 250 48V202C250 228.51 228.51 250 202 250H48C21.4903 250 0 228.51 0 202V48Z" fill="white"/>
<path d="M48 0V2H202V0V-2H48V0ZM250 48H248V202H250H252V48H250ZM202 250V248H48V250V252H202V250ZM0 202H2V48H0H-2V202H0ZM48 250V248C22.5949 248 2 227.405 2 202H0H-2C-2 229.614 20.3858 252 48 252V250ZM250 202H248C248 227.405 227.405 248 202 248V250V252C229.614 252 252 229.614 252 202H250ZM202 0V2C227.405 2 248 22.5949 248 48H250H252C252 20.3858 229.614 -2 202 -2V0ZM48 0V-2C20.3858 -2 -2 20.3858 -2 48H0H2C2 22.5949 22.5949 2 48 2V0Z" fill="#DDDBDB" mask="url(#path-1-inside-1_769_534)"/>
<path opacity="0.7" d="M66.4639 90V160H105.193L66.4639 90Z" fill="#5D2ECE"/>
<path opacity="0.7" d="M124.998 55L66.4639 89.9999H144.363L124.998 55Z" fill="#5D2ECE"/>
<path d="M183.53 89.9999L124.995 55L144.36 89.9999H183.53Z" fill="#5D2ECE"/>
<path opacity="0.7" d="M124.998 195L183.533 160H105.193L124.998 195Z" fill="#5D2ECE"/>
<path opacity="0.7" d="M144.367 90L183.536 159.999V90H144.367Z" fill="#5D2ECE"/>
<path d="M66.4639 160L124.998 195L105.193 160H66.4639Z" fill="#5D2ECE"/>
</svg>
