<svg width="250" height="250" viewBox="0 0 250 250" fill="none" xmlns="http://www.w3.org/2000/svg">
<mask id="path-1-inside-1_769_535" fill="white">
<path d="M0 48C0 21.4903 21.4903 0 48 0H202C228.51 0 250 21.4903 250 48V202C250 228.51 228.51 250 202 250H48C21.4903 250 0 228.51 0 202V48Z"/>
</mask>
<path d="M0 48C0 21.4903 21.4903 0 48 0H202C228.51 0 250 21.4903 250 48V202C250 228.51 228.51 250 202 250H48C21.4903 250 0 228.51 0 202V48Z" fill="white"/>
<path d="M48 0V2H202V0V-2H48V0ZM250 48H248V202H250H252V48H250ZM202 250V248H48V250V252H202V250ZM0 202H2V48H0H-2V202H0ZM48 250V248C22.5949 248 2 227.405 2 202H0H-2C-2 229.614 20.3858 252 48 252V250ZM250 202H248C248 227.405 227.405 248 202 248V250V252C229.614 252 252 229.614 252 202H250ZM202 0V2C227.405 2 248 22.5949 248 48H250H252C252 20.3858 229.614 -2 202 -2V0ZM48 0V-2C20.3858 -2 -2 20.3858 -2 48H0H2C2 22.5949 22.5949 2 48 2V0Z" fill="#DDDBDB" mask="url(#path-1-inside-1_769_535)"/>
<path d="M55 92.3236C55.5969 90.5204 60.2559 81.587 61.8608 81.2045C81.3931 76.5492 102.756 86.8498 111.545 104.89C111.663 105.134 111.747 105.336 111.821 105.584C113.559 109.929 115.091 113.894 115.741 118.555C115.793 118.926 115.9 119.556 115.998 119.909C116.31 121.348 116.215 128.433 116.127 130.212C115.66 130.163 112.644 129.163 112.022 128.916C110.705 128.396 109.205 128.163 108.06 127.786C106.421 127.247 102.95 127.191 101.807 126.78L101.651 126.436C101.565 125.445 101.549 124.448 101.604 123.454C101.092 123.446 100.485 123.514 99.9601 123.53C95.2728 123.665 90.3821 123.176 85.8501 121.871C76.2592 119.185 67.8308 113.392 61.8863 105.4C59.9984 102.825 58.9359 100.848 57.4021 98.0708C56.459 96.1083 55.7663 94.3635 55 92.3236ZM96.748 108.959C96.5156 108.43 95.5049 107.093 95.1244 106.61C90.669 100.927 84.3376 97.0136 77.262 95.569C75.7387 95.2516 74.2229 95.1425 72.6777 94.9595C72.8727 95.5341 73.8321 96.6264 74.2458 97.1458C77.339 101.03 80.5553 103.609 84.9949 105.811C89.4219 108.008 92.1043 108.192 96.748 108.959Z" fill="#65CCEF"/>
<path d="M57.4021 98.0708C58.2351 97.9216 60.0288 96.9602 60.9599 96.6296C64.0111 95.5463 69.4863 94.3778 72.6777 94.9594C72.8728 95.5341 73.8322 96.6264 74.2458 97.1458C77.3391 101.03 80.5553 103.609 84.995 105.811C89.4219 108.008 92.1043 108.192 96.748 108.959C99.6971 112.298 100.984 118.429 101.614 122.702L101.604 123.454C101.092 123.446 100.485 123.514 99.9602 123.53C95.2729 123.665 90.3821 123.176 85.8502 121.871C76.2592 119.185 67.8308 113.391 61.8863 105.4C59.9984 102.825 58.936 100.848 57.4021 98.0708Z" fill="#00AEEA"/>
<path d="M101.614 122.701C102.157 123.008 104.676 122.944 105.352 122.88C103.964 123.169 102.931 123.225 101.604 123.453L101.614 122.701Z" fill="#4DBDE8"/>
<path d="M138.213 105.562C139.611 101.064 145.859 93.6777 149.431 90.7161C158.727 83.009 170.635 78.9262 182.768 80.0627C184.926 80.2691 187.91 80.2485 189.206 81.9079C190.296 83.3011 194.922 90.7494 194.637 92.1347C193.65 96.9388 188.909 104.361 185.892 107.906C184.159 109.926 182.241 111.779 180.163 113.441C173.166 119.034 164.677 122.443 155.756 123.245C153.362 123.448 150.76 123.388 148.359 123.33C145.079 122.848 142.224 122.461 139.032 121.531C137.561 121.102 135.447 120.158 134.08 119.869C133.704 119.637 133.24 119.42 132.836 119.231C130.03 117.92 127.522 116.332 124.97 114.585C129.277 111.059 131.924 108.523 135.199 103.896C136.256 104.427 137.189 104.967 138.213 105.562ZM177.402 94.6347C175.685 94.833 173.848 95.0182 172.17 95.4022C164.857 97.0757 159.138 101.151 154.515 106.968L153.091 108.793C162.637 107.835 172.412 103.19 177.402 94.6347Z" fill="#65CCEF"/>
<path d="M138.213 105.562C139.611 101.064 145.859 93.6777 149.431 90.7161C158.727 83.009 170.635 78.9262 182.768 80.0627C182.516 80.1152 182.263 80.1063 182.199 80.2812C182.033 80.7393 181.878 81.9274 181.836 82.4274C181.678 84.303 181.395 85.472 180.84 87.2639C180.284 89.0929 179.542 90.8599 178.625 92.5372C178.33 93.08 177.612 94.1485 177.402 94.6347C175.685 94.833 173.848 95.0182 172.17 95.4022C164.857 97.0757 159.138 101.151 154.515 106.968L153.091 108.793C148.543 109.199 142.23 107.72 138.213 105.562Z" fill="#00AEEA"/>
<path d="M124.947 135.592C125.448 135.313 126.914 134.177 127.532 133.759C129.603 132.339 131.826 131.154 134.158 130.225C134.632 133.556 135.235 136.37 136.329 139.575C136.884 141.203 137.751 142.956 138.269 144.485C137.481 145.148 136.242 145.596 135.276 146.3C136.392 147.407 137.263 148.948 137.991 150.335C145.985 165.569 144.802 182.652 135.572 197C134.491 198.618 132.769 201.272 131.098 202.271H119.131C118.188 201.484 117.146 200.141 116.399 199.166C104.968 184.252 103.664 161.99 114.751 146.359C114.836 146.158 115.658 145.068 115.842 144.814C118.473 141.181 121.541 138.427 124.947 135.592ZM125.285 185.63C128.605 177.282 129.801 171.195 127.037 162.254C126.508 160.54 125.801 159.159 125.159 157.519C123.981 159.653 123.115 162.519 122.555 164.873C120.835 172.099 121.957 179.019 125.285 185.63Z" fill="#65CCEF"/>
<path d="M125.159 157.519C126.639 153.765 131.718 148.291 135.276 146.3C136.392 147.407 137.264 148.948 137.991 150.335C145.985 165.569 144.802 182.652 135.572 197C135.041 196.533 133.608 195.669 132.778 194.978C130.289 192.905 126.337 188.715 125.285 185.63C128.606 177.282 129.801 171.195 127.037 162.254C126.508 160.54 125.801 159.159 125.159 157.519Z" fill="#00AEEA"/>
<path d="M101.651 126.436L101.807 126.779C102.95 127.191 106.421 127.246 108.06 127.785C109.205 128.163 110.705 128.395 112.022 128.916C112.644 129.162 115.66 130.162 116.127 130.211C116.733 131.012 123.423 133.443 124.947 135.592C121.541 138.426 118.473 141.181 115.842 144.814C115.658 145.068 114.836 146.157 114.751 146.359C114.025 145.778 112.688 145.042 111.841 144.55C106.877 155.219 97.8496 163.457 86.7729 167.429C79.6288 170.035 75.3462 170.059 68.0132 170.055C65.7307 169.899 63.8844 169.784 61.7056 169.084C59.2933 166.259 56.8575 161.692 55.2935 158.292C56.8533 152.433 61.3495 144.998 65.5611 140.61C72.6991 133.174 81.9514 128.496 92.175 127.073C95.4579 126.615 98.2557 126.8 101.471 126.731L101.651 126.436ZM97.0038 141.396C96.3446 141.292 95.156 141.577 94.466 141.662C86.111 142.697 78.4083 147.465 73.523 154.29C73.2312 154.698 72.8756 155.102 72.6564 155.55C74.5535 155.219 76.3821 155.093 78.2915 154.634C84.5449 153.128 90.4754 149.428 94.5598 144.455C95.3906 143.443 96.197 142.418 97.0038 141.396Z" fill="#00AEEA"/>
<path d="M97.0038 141.396C102.416 141.046 107.008 142.235 111.841 144.551C106.877 155.219 97.8497 163.458 86.7729 167.429C79.6288 170.035 75.3462 170.06 68.0132 170.055C68.2579 164.896 69.8596 159.893 72.6565 155.551C74.5535 155.219 76.3821 155.093 78.2915 154.634C84.5449 153.129 90.4754 149.428 94.5598 144.455C95.3906 143.444 96.197 142.418 97.0038 141.396Z" fill="#65CCEF"/>
<path d="M134.08 119.868C135.447 120.158 137.561 121.101 139.032 121.53C142.224 122.46 145.079 122.847 148.359 123.33C148.595 124.341 148.533 125.658 148.539 126.726C150.178 126.384 152.607 126.543 154.31 126.612C170.461 127.265 185.738 137.276 192.634 151.982C193.42 153.461 194.607 156.346 195 157.942C194.185 159.906 189.798 168.307 188.243 168.868C184.549 170.2 175.524 169.863 171.734 169.334C169.543 169.007 167.379 168.514 165.262 167.859C155.257 164.708 146.665 158.162 140.971 149.352C139.995 147.847 139.107 146.084 138.269 144.484C137.751 142.955 136.885 141.203 136.329 139.574C135.235 136.369 134.632 133.556 134.158 130.224C133.677 126.777 133.514 123.317 134.08 119.868ZM177.654 155.228C177.042 154.523 176.187 153.25 175.502 152.432C169.387 145.125 162.706 142.139 153.478 141.205C153.31 141.725 154.378 142.625 154.718 143.108C159.479 149.878 169.305 155.197 177.654 155.228Z" fill="#00AEEA"/>
<path d="M148.54 126.726C150.178 126.385 152.608 126.543 154.31 126.612C170.461 127.265 185.738 137.276 192.635 151.982C189.121 153.595 181.343 156.018 177.655 155.228C177.042 154.523 176.187 153.25 175.503 152.432C169.387 145.125 162.706 142.139 153.478 141.205C151.521 139.839 149.549 133.34 149.076 131.034C148.817 129.775 148.671 128.04 148.54 126.726Z" fill="#65CCEF"/>
<path d="M118.777 48.0388C121.276 47.8614 130.339 47.1048 131.998 48.9028C145.069 63.0688 147.002 88.2192 135.199 103.896C131.924 108.522 129.277 111.059 124.97 114.585C122.825 116.28 121.004 117.416 118.575 118.667C118.031 118.947 116.325 119.699 115.998 119.908C115.9 119.556 115.793 118.926 115.741 118.554C115.091 113.894 113.559 109.928 111.821 105.584C112.534 105.171 114.151 104.285 114.718 103.811C111.835 100.37 108.932 92.7841 107.95 88.3106C105.173 75.6634 107.507 64.0255 114.517 53.1461C115.525 51.5606 117.258 49.1372 118.777 48.0388ZM124.869 92.5342C126.378 90.2949 127.873 84.3835 128.066 81.6429C128.424 76.5629 128.014 71.4914 125.953 66.7722C125.665 66.1133 125.232 65.0856 124.79 64.5494C124.15 66.2156 123.473 67.7048 122.941 69.4263C121.183 75.0543 121.11 81.0743 122.733 86.7431C123.332 88.7783 124.422 90.9849 124.869 92.5342Z" fill="#00AEEA"/>
<path d="M114.517 53.1465C118.016 55.4234 123.544 60.5385 124.79 64.5498C124.15 66.216 123.473 67.7052 122.941 69.4267C121.183 75.0547 121.11 81.0747 122.733 86.7435C123.332 88.7787 124.422 90.9853 124.869 92.5346C124.353 93.6269 123.601 94.9739 122.918 95.958C121.552 97.9256 116.951 103.125 114.718 103.811C111.835 100.37 108.932 92.7845 107.95 88.311C105.173 75.6638 107.507 64.0259 114.517 53.1465Z" fill="#65CCEF"/>
</svg>
