<svg width="250" height="250" viewBox="0 0 250 250" fill="none" xmlns="http://www.w3.org/2000/svg">
<mask id="path-1-inside-1_769_537" fill="white">
<path d="M0 48C0 21.4903 21.4903 0 48 0H202C228.51 0 250 21.4903 250 48V202C250 228.51 228.51 250 202 250H48C21.4903 250 0 228.51 0 202V48Z"/>
</mask>
<path d="M0 48C0 21.4903 21.4903 0 48 0H202C228.51 0 250 21.4903 250 48V202C250 228.51 228.51 250 202 250H48C21.4903 250 0 228.51 0 202V48Z" fill="white"/>
<path d="M48 0V2H202V0V-2H48V0ZM250 48H248V202H250H252V48H250ZM202 250V248H48V250V252H202V250ZM0 202H2V48H0H-2V202H0ZM48 250V248C22.5949 248 2 227.405 2 202H0H-2C-2 229.614 20.3858 252 48 252V250ZM250 202H248C248 227.405 227.405 248 202 248V250V252C229.614 252 252 229.614 252 202H250ZM202 0V2C227.405 2 248 22.5949 248 48H250H252C252 20.3858 229.614 -2 202 -2V0ZM48 0V-2C20.3858 -2 -2 20.3858 -2 48H0H2C2 22.5949 22.5949 2 48 2V0Z" fill="#DDDBDB" mask="url(#path-1-inside-1_769_537)"/>
<path d="M173.187 133.308L165.642 148.091L164.52 133.311H157.399L160.282 157.871H166.571L174.324 142.904L176.195 157.865H182.53L195 133.306H188.018L181.082 148.136L179.249 133.308H173.187Z" fill="#F78B00"/>
<path d="M127.628 126.03L121.494 145.629L112.711 126.03H106.409L96.5039 157.861H103.415L109.533 137.625L118.828 157.862H124.785L134.542 126.03H127.628Z" fill="#F78B00"/>
<path d="M142.035 158.232C134.486 158.232 129.574 152.638 130.428 145.636L130.439 145.545C130.959 142.004 132.742 138.77 135.457 136.439C138.173 134.107 141.64 132.835 145.219 132.857C152.767 132.857 157.679 138.45 156.826 145.453L156.814 145.544C156.294 149.085 154.512 152.319 151.796 154.65C149.08 156.981 145.614 158.253 142.035 158.231M149.997 145.544C150.436 141.955 148.225 138.815 144.406 138.815C142.604 138.835 140.874 139.527 139.556 140.755C138.237 141.983 137.424 143.659 137.275 145.454L137.264 145.545C136.827 149.134 139.036 152.274 142.856 152.274C144.657 152.254 146.387 151.562 147.706 150.334C149.024 149.106 149.837 147.431 149.986 145.635L149.997 145.544Z" fill="#F78B00"/>
<path d="M101.895 123.6L92.6002 103.364L86.4793 123.6H79.5678L89.403 91.7686H95.7773L104.559 111.368L110.69 91.7686H117.602L107.852 123.601L101.895 123.6Z" fill="#24272A"/>
<path d="M125.099 123.971C117.55 123.971 112.638 118.377 113.492 111.375L113.503 111.284C114.023 107.743 115.805 104.509 118.521 102.178C121.237 99.8461 124.703 98.5742 128.282 98.596C135.831 98.596 140.743 104.189 139.889 111.192L139.878 111.283C139.358 114.824 137.575 118.058 134.86 120.389C132.144 122.72 128.678 123.992 125.099 123.97M133.061 111.283C133.499 107.694 131.289 104.554 127.469 104.554C125.668 104.574 123.938 105.266 122.619 106.494C121.301 107.722 120.488 109.398 120.339 111.193L120.328 111.284C119.891 114.873 122.1 118.013 125.919 118.013C127.721 117.993 129.451 117.301 130.769 116.073C132.088 114.845 132.901 113.17 133.05 111.374L133.061 111.283Z" fill="#24272A"/>
<path d="M168.309 123.607H162.08L157.396 108.644L152.621 123.606H146.437L138.934 99.0457H145.937L149.849 113.825L154.447 99.0424H160.404L165.042 113.87L169.044 99.0457H175.9L168.309 123.607Z" fill="#24272A"/>
<path d="M71.3505 99.0603C70.5407 99.0603 69.7641 99.382 69.1915 99.9546C68.619 100.527 68.2973 101.304 68.2973 102.113C68.2973 102.923 68.619 103.7 69.1915 104.272C69.7641 104.845 70.5407 105.167 71.3505 105.167H82.0727L83.9635 99.0603H71.3505Z" fill="#F78B00"/>
<path d="M58.0534 108.271C57.2437 108.271 56.4671 108.593 55.8945 109.165C55.3219 109.738 55.0002 110.514 55.0002 111.324C55.0002 112.134 55.3219 112.91 55.8945 113.483C56.4671 114.055 57.2437 114.377 58.0534 114.377H79.222L81.1095 108.271H58.0534Z" fill="#F78B00"/>
<path d="M61.4951 117.48C60.6854 117.48 59.9088 117.802 59.3362 118.374C58.7636 118.947 58.4419 119.724 58.4419 120.533C58.4419 121.343 58.7636 122.12 59.3362 122.692C59.9088 123.265 60.6854 123.587 61.4951 123.587H76.3791L78.2665 117.48H61.4951Z" fill="#F78B00"/>
</svg>
