<svg width="250" height="250" viewBox="0 0 250 250" fill="none" xmlns="http://www.w3.org/2000/svg">
<mask id="path-1-inside-1_769_538" fill="white">
<path d="M0 48C0 21.4903 21.4903 0 48 0H202C228.51 0 250 21.4903 250 48V202C250 228.51 228.51 250 202 250H48C21.4903 250 0 228.51 0 202V48Z"/>
</mask>
<path d="M0 48C0 21.4903 21.4903 0 48 0H202C228.51 0 250 21.4903 250 48V202C250 228.51 228.51 250 202 250H48C21.4903 250 0 228.51 0 202V48Z" fill="white"/>
<path d="M48 0V2H202V0V-2H48V0ZM250 48H248V202H250H252V48H250ZM202 250V248H48V250V252H202V250ZM0 202H2V48H0H-2V202H0ZM48 250V248C22.5949 248 2 227.405 2 202H0H-2C-2 229.614 20.3858 252 48 252V250ZM250 202H248C248 227.405 227.405 248 202 248V250V252C229.614 252 252 229.614 252 202H250ZM202 0V2C227.405 2 248 22.5949 248 48H250H252C252 20.3858 229.614 -2 202 -2V0ZM48 0V-2C20.3858 -2 -2 20.3858 -2 48H0H2C2 22.5949 22.5949 2 48 2V0Z" fill="#DDDBDB" mask="url(#path-1-inside-1_769_538)"/>
<path d="M122.929 112.897C129.563 112.118 135.576 116.857 136.368 123.49C137.16 130.123 132.432 136.145 125.8 136.949C119.152 137.755 113.111 133.012 112.317 126.361C111.523 119.711 116.277 113.679 122.929 112.897Z" fill="#05A753"/>
<path d="M151.175 113.393C166.296 112.272 168.728 132.863 154.931 136.445C149.245 137.267 143.216 134.12 142.072 128.125C140.754 121.216 143.799 114.727 151.175 113.393Z" fill="#05A753"/>
<path d="M95.1762 113.277C97.418 113.125 100.735 114.074 102.49 115.478C110.464 121.856 107.753 135.013 97.2098 136.584C93.9921 136.688 91.4199 136.182 88.8891 134.023C86.6724 132.124 85.2937 129.428 85.0518 126.52C84.5312 119.79 88.0576 113.835 95.1762 113.277Z" fill="#05A753"/>
<path d="M123.646 85.4809C126.626 85.3108 129.567 86.2325 131.917 88.0733C136.84 91.8598 137.398 98.0986 133.652 102.989C131.643 105.611 128.294 107.083 125.063 107.469C115.046 108.143 108.702 97.1347 115.443 89.2238C117.572 86.726 120.392 85.67 123.646 85.4809Z" fill="#F48728"/>
<path d="M122.026 142.374C128.158 141.107 134.158 145.039 135.445 151.166C136.731 157.294 132.819 163.307 126.696 164.613C120.544 165.925 114.497 161.991 113.205 155.836C111.913 149.68 115.867 143.646 122.026 142.374Z" fill="#F48728"/>
<path d="M149.213 86.5949C158.351 85.7757 166.13 94.7948 161.685 103.545C160.644 105.595 157.975 107.344 155.779 107.911C142.466 110.55 135.432 90.3386 149.213 86.5949Z" fill="#F48728"/>
<path d="M153.509 141.783C155.595 141.666 158.425 142.645 159.967 144.01C166.502 149.798 161.762 159.611 154.884 162.569C153.75 163.057 152.819 163.124 151.642 163.21C148.982 163.22 147.142 163.002 145.023 161.188C143.172 159.603 141.987 157.759 141.812 155.281C141.556 151.66 142.34 148.64 144.74 145.866C147.167 143.06 149.908 142.046 153.509 141.783Z" fill="#F48728"/>
<path d="M97.318 86.7607C101.924 86.0357 106.569 89.4785 107.076 94.1742C107.834 101.194 103.21 106.965 96.2489 107.899C91.3388 108.306 86.939 105.491 86.3499 100.349C85.9522 97.0675 86.888 93.7639 88.9475 91.1788C91.235 88.3402 93.7473 87.1385 97.318 86.7607Z" fill="#05A753"/>
<path d="M93.3979 142.192C108.494 140.919 111.696 159.85 100.464 162.924C86.269 165.739 80.6584 144.767 93.3979 142.192Z" fill="#05A753"/>
<path d="M122.469 64.9422C125.87 64.7183 129.155 65.2749 132.057 67.153C136.883 70.2776 136.019 76.1559 131.469 78.9249C129.887 79.8872 128.686 80.2159 126.869 80.5362C123.476 81.0387 119.831 80.6064 116.925 78.5968C113.507 76.2337 112.637 72.288 115.156 68.811C116.908 66.3937 119.586 65.3934 122.469 64.9422Z" fill="#05A753"/>
<path d="M122.236 169.142L122.351 169.127C125.677 168.731 130.101 169.611 132.631 171.837C138.66 177.143 133.507 183.935 127.039 184.624C109.765 186.183 110.464 170.717 122.236 169.142Z" fill="#05A753"/>
<path d="M70.9616 114.094C81.7442 112.54 83.6255 132.864 73.5131 135.144C68.4028 136.023 64.8411 131.862 64.4207 127.14C63.9555 121.913 65.0654 115.618 70.9616 114.094Z" fill="#F48728"/>
<path d="M175.576 113.958C184.424 113.749 186.131 126.279 182.236 132.105C180.964 134.007 179.411 134.748 177.27 135.17C166.17 136.12 165.469 116.113 175.576 113.958Z" fill="#F48728"/>
<path d="M144.786 66.0819C148.599 65.8319 151.54 67.2758 154.803 69.188C157.065 70.5908 159.264 72.8532 159.835 75.5262C160.506 78.6724 158.156 81.2808 155.193 81.901C151.445 82.3851 148.275 81.6835 144.996 79.5922C141.599 77.493 138.168 72.6266 140.635 68.673C141.509 67.272 143.209 66.3986 144.786 66.0819Z" fill="#05A753"/>
<path d="M152.435 167.727C152.519 167.721 152.603 167.717 152.687 167.714C154.516 167.659 157.115 168.338 158.431 169.622C161.154 172.335 159.091 176.766 156.804 179.062C154.136 181.74 151.003 183.148 147.25 183.239C143.701 183.239 142.649 183.147 140.061 180.642C138.17 175.305 144.158 169.531 148.884 168.274C150.143 167.939 151.139 167.813 152.435 167.727Z" fill="#05A753"/>
<path d="M172.226 90.0247C177.524 89.9808 181.246 95.201 182.403 99.8164C183.374 103.69 183.144 109.03 178.398 110.063C168.063 110.378 163.93 91.9349 172.226 90.0247Z" fill="#F48728"/>
<path d="M95.1468 167.44C98.4973 167.074 102.375 168.773 105.001 170.718C109.819 174.284 111.527 182.107 103.534 182.857C98.6496 183.348 90.1819 179.166 89.673 173.679C89.3158 169.827 91.419 167.746 95.1468 167.44Z" fill="#05A753"/>
<path d="M102.198 67.091C109.617 66.3659 111.084 72.8614 106.588 77.5837C103.917 80.3895 100.714 82.039 96.8131 82.1726C84.5205 82.7061 88.5765 68.2394 102.198 67.091Z" fill="#05A753"/>
<path d="M177.384 139.926C186.598 140.099 182.44 155.825 176.742 158.418C175.283 159.082 174.899 159.266 173.269 159.581C163.451 159.383 167.801 140.616 177.384 139.926Z" fill="#F48728"/>
<path d="M75.9918 90.1601C78.3145 89.9149 80.7521 91.5459 81.3213 93.8594C82.8769 100.182 79.1926 107.86 72.6724 109.64C69.7917 109.842 67.3298 108.595 66.9214 105.514C66.1168 99.4448 69.3585 91.2752 75.9918 90.1601Z" fill="#F48728"/>
<path d="M70.035 140.184C76.0166 139.164 80.9909 145.846 81.4863 151.132C81.8024 154.505 81.7571 157.541 78.3295 159.215C77.1021 159.517 75.8166 159.489 74.6036 159.134C67.6818 157.12 63.4568 143.717 70.035 140.184Z" fill="#F48728"/>
<path d="M165.29 71.3513C168.849 70.7394 173.145 74.1549 175.263 76.7162C177.155 79.0043 180.344 83.5072 177.301 86.0263C170.713 87.8194 160.733 74.4469 165.29 71.3513Z" fill="#F48728"/>
<path d="M176.273 163.583C177.881 163.716 177.995 164.083 178.686 165.452C178.509 166.416 178.269 167.491 177.943 168.413C176.346 172.933 171.483 177.501 166.803 178.541C165.509 178.679 164.264 178.517 164.213 176.885C164.028 171.018 170.69 164.164 176.273 163.583Z" fill="#F48728"/>
<path d="M72.2963 163.41C78.2987 163.025 89.2305 174.473 83.5415 178.108C77.0705 178.345 66.6168 165.553 72.2963 163.41Z" fill="#F48728"/>
<path d="M82.5172 71.7676C88.8926 71.7823 82.3427 80.9676 80.1691 82.6353C77.432 84.7353 76.8635 85.5304 73.3781 86.3055C65.7111 86.7561 75.1771 73.0161 82.5172 71.7676Z" fill="#F48728"/>
<path d="M121.723 55.5464C124.003 55.4319 126.937 55.3557 129.176 55.683C131.587 56.0353 132.778 56.908 134.149 58.7883C131.952 60.989 130.214 61.7196 127.182 62.1434C123.203 62.6061 117.647 62.1114 114.968 58.7321C115.174 58.4266 115.394 58.1307 115.628 57.8453C117.193 55.9524 119.477 55.7414 121.723 55.5464Z" fill="#F48728"/>
<path d="M191.172 115.277C195.5 116.196 195.061 123.583 194.913 126.879C194.788 129.642 194.295 132.164 192.107 134.058L191.652 134.147C189.039 133.03 188.464 127.186 188.525 124.763C188.612 121.332 188.612 117.858 191.172 115.277Z" fill="#F48728"/>
<path d="M123.247 187.967C125.584 187.795 133.009 188.381 133.825 190.979C133.814 193.254 128.206 194.389 126.405 194.507C123.703 194.647 118.443 194.55 116.374 192.731C112.302 189.156 121.74 188.09 123.247 187.967Z" fill="#F48728"/>
<path d="M57.9078 115.187C60.5498 116.198 61.2534 120.504 61.2318 122.984C61.1912 127.655 61.6973 130.483 58.2638 134.097L57.9381 134.225C56.6952 133.725 55.3706 130.604 55.2495 129.222C54.9264 125.537 54.3302 117.457 57.9078 115.187Z" fill="#F48728"/>
<path d="M152.744 184.681C154.089 184.607 158.115 184.474 155.655 186.917C152.322 190.232 147.633 191.882 142.977 192.09C141.911 192.069 139.563 192.186 139.215 191.01C139.266 190.817 139.364 190.554 139.5 190.407C142.347 187.321 148.834 185.061 152.744 184.681Z" fill="#F48728"/>
<path d="M140.751 57.5103C145.037 57.2014 150.441 59.2671 154.06 61.4457C155.537 62.3348 157.974 63.7776 155.036 64.9094C151.894 65.5617 149.082 64.2953 146.165 63.3213C144.916 62.9041 135.755 58.8539 140.751 57.5103Z" fill="#F48728"/>
<path d="M184.984 93.6436C189.112 94.2687 193.587 108.113 190.903 110.542C187.643 111.056 182.438 96.6119 184.984 93.6436Z" fill="#F48728"/>
<path d="M189.922 139.14C192.196 139.292 191.965 141.885 191.672 143.552C190.968 147.564 189.225 153.332 185.85 155.886C181.779 157.683 186.517 141.664 189.922 139.14Z" fill="#F48728"/>
<path d="M105.351 58.247C107.164 58.0889 108.099 58.1307 109.796 58.7537C107.851 62.6781 100.92 65.0541 96.841 65.558C95.8634 65.6189 92.6652 65.9645 92.8692 64.8444C93.5903 60.8856 103.055 58.5304 105.351 58.247Z" fill="#F48728"/>
<path d="M94.7564 184.254C98.1827 184.199 101.147 185.018 104.256 186.395C105.732 187.047 108.908 188.58 109.526 190.15C109.413 191.278 108.311 191.312 107.377 191.459C102.889 191.623 98.7892 190.029 94.995 187.682C94.0948 187.124 92.3148 186.215 92.5926 185.019C93.1508 184.399 93.9526 184.359 94.7564 184.254Z" fill="#F48728"/>
<path d="M63.7325 93.793C64.0598 93.7945 64.2895 93.8491 64.6077 93.9087C65.9747 94.8241 65.0732 98.5714 64.7751 99.9304C64.0918 103.046 62.5978 108.24 59.7483 110.083C59.1114 110.18 59.2338 110.255 58.7119 110.034C57.908 108.939 58.3297 107.575 58.3607 106.318C58.4557 102.469 60.7315 96.3123 63.7325 93.793Z" fill="#F48728"/>
<path d="M58.4277 139.335C62.9238 140.309 66.4034 152.481 64.8019 155.788C64.5312 155.967 64.3734 156.152 64.0838 156.081C63.4516 155.928 62.6571 155.08 62.3138 154.578C59.2896 150.158 57.637 144.633 58.4277 139.335Z" fill="#F48728"/>
</svg>
