<svg width="250" height="250" viewBox="0 0 250 250" fill="none" xmlns="http://www.w3.org/2000/svg">
<rect width="250" height="250" fill="#0082BB"/>
<path d="M173.822 62.3399C179.904 62.2103 186.492 62.5182 192.497 62.2794L169.87 98.2078L160.088 113.778C159.004 115.495 156.206 120.138 155.112 121.495C155.744 122.357 156.739 124.129 157.32 125.087C158.815 127.508 160.279 129.948 161.713 132.405L170.277 146.697C173.519 152.202 177.034 157.832 180.345 163.321L195 187.631C192.095 187.783 188.606 187.694 185.659 187.691L176.12 187.704C175.749 186.847 173.836 183.842 173.27 182.908L168.078 174.264C164.17 167.889 160.382 161.231 156.478 154.893L149.345 143.06C148.315 141.341 146.633 138.791 145.771 137.091C144.944 138.627 143.917 140.183 143.02 141.694C141.006 145.141 138.954 148.566 136.862 151.966C130.271 162.869 123.754 173.819 117.164 184.723C116.585 185.681 115.923 186.674 115.476 187.696C109.264 187.708 102.963 187.741 96.7568 187.664L122.172 145.547C124.996 140.879 127.818 136.206 130.617 131.523C132.572 128.252 134.532 124.838 136.662 121.684C135.954 120.828 134.786 118.94 134.157 117.962C132.456 115.306 130.783 112.632 129.138 109.94L102.533 67.8355C102.062 67.0849 99.2689 62.8747 99.1315 62.3329L117.704 62.2967C118.282 63.3572 119.506 65.1629 120.19 66.246C122.202 69.4512 124.254 72.6308 126.347 75.7841L142.7 101.328C143.481 102.534 145.169 104.986 145.741 106.182C146.614 104.564 148.255 102.252 149.304 100.629L173.822 62.3399Z" fill="#FEFEFE"/>
<path d="M57.5861 62.3489L76.4419 62.3565C78.0566 64.494 80.0103 67.7088 81.5268 70.0313L115.485 121.457C114.625 123.179 112.318 126.611 111.199 128.394C108.397 132.921 105.565 137.431 102.706 141.922L86.4475 167.947C82.3147 174.476 78.2165 181.027 74.1533 187.6C73.4859 187.718 69.9893 187.603 69.0069 187.623C64.4286 187.713 59.5557 187.477 55 187.653C56.9951 184.36 59.117 181.132 61.1417 177.859L96.196 121.655C93.3887 117.616 90.7914 113.51 88.098 109.401L75.7327 90.6253L61.3172 68.3433C60.1391 66.4858 58.5706 64.3886 57.4758 62.5711L57.5861 62.3489Z" fill="#B6D702"/>
</svg>
