<svg width="250" height="250" viewBox="0 0 250 250" fill="none" xmlns="http://www.w3.org/2000/svg">
<path d="M0 48C0 21.4903 21.4903 0 48 0H202C228.51 0 250 21.4903 250 48V202C250 228.51 228.51 250 202 250H48C21.4903 250 0 228.51 0 202V48Z" fill="#0082BB"/>
<path fill-rule="evenodd" clip-rule="evenodd" d="M61.7542 91.4409L62.4035 87.7959H46.6583C45.0026 87.8121 43.4281 89.1243 43.1034 90.7605L37.0326 125.121C36.7242 126.773 37.828 128.134 39.4999 128.134H56.6735L57.3228 124.505H42.5516L45.2786 109.083H57.2741L57.9072 105.503H45.9116L48.4114 91.4409H61.7542Z" fill="white"/>
<path fill-rule="evenodd" clip-rule="evenodd" d="M69.5162 128.732C62.5689 128.732 58.5595 122.527 60.3613 112.321C62.1955 101.937 68.3638 95.9592 75.4247 95.9592C79.3042 95.9592 81.2034 97.1904 82.0637 98.0652L80.2944 101.062C79.4665 100.349 78.2004 99.5394 75.8468 99.5394C70.0844 99.5394 66.9353 104.756 65.6205 112.143C64.2895 119.708 66.075 124.925 71.1882 124.925C73.3633 124.925 74.954 124.212 76.285 123.402L76.9993 126.626C75.5708 127.744 73.0386 128.732 69.5162 128.732Z" fill="white"/>
<path fill-rule="evenodd" clip-rule="evenodd" d="M96.5588 99.2478C90.5042 99.2478 88.1343 105.987 86.9981 112.37C85.8781 118.769 86.0404 125.168 91.9813 125.168C98.0359 125.168 100.292 118.704 101.412 112.37C102.532 106.036 102.613 99.2478 96.5588 99.2478ZM91.3483 128.732C82.6966 128.732 80.1968 121.636 81.82 112.37C83.4919 102.925 88.5564 95.9592 97.0782 95.9592C105.795 95.9592 108.262 102.925 106.59 112.37C104.951 121.636 99.9351 128.732 91.3483 128.732Z" fill="white"/>
<path fill-rule="evenodd" clip-rule="evenodd" d="M154.571 110.198C146.406 111.203 141.342 112.904 140.206 119.286C139.394 123.871 141.894 125.75 146.601 125.75C148.598 125.75 150.594 125.394 152.023 124.681L154.571 110.198ZM145.66 128.731C137.43 128.731 134.232 125.167 135.255 119.416C136.732 111.024 145.043 108.562 155.042 107.557L155.383 105.63C156.243 100.77 153.565 99.3603 149.507 99.3603C146.439 99.3603 143.42 100.478 141.504 101.353L140.806 98.3073C142.803 97.3029 146.569 95.9583 150.919 95.9583C156.811 95.9583 161.535 98.4693 160.171 106.213L156.584 126.512C153.922 127.856 150.075 128.731 145.66 128.731Z" fill="white"/>
<path fill-rule="evenodd" clip-rule="evenodd" d="M178.399 128.149L182.408 105.452C182.928 102.52 182.279 99.2964 176.857 99.2964C173.919 99.2964 172.426 99.7014 170.673 100.414L165.754 128.149H160.576L165.884 98.1786C168.952 96.834 172.799 95.9592 177.863 95.9592C186.694 95.9592 188.398 100.819 187.619 105.339L183.577 128.149H178.399Z" fill="white"/>
<path fill-rule="evenodd" clip-rule="evenodd" d="M129.201 111.964C127.789 119.934 124.234 125.394 117.709 125.394C116.069 125.394 114.446 125.216 113.375 124.632L117.66 100.413C119.283 99.5873 120.695 99.1823 123.049 99.1823C129.055 99.1823 130.418 105.047 129.201 111.964ZM124.883 96.1367C121.767 96.1367 119.9 96.7685 118.163 97.5947L120.89 82.1885L115.193 85.4771L107.937 126.512C109.592 127.743 112.709 128.731 117.011 128.731C126.409 128.731 132.626 121.927 134.411 111.786C136.1 102.228 132.171 96.1367 124.883 96.1367Z" fill="white"/>
<path fill-rule="evenodd" clip-rule="evenodd" d="M215.019 96.5445H209.613L195.735 111.205H195.605L199.144 91.2309C202.666 71.4507 181.272 67.2873 158.904 70.6893C143.727 73.0059 130.303 79.0485 130.303 79.0485C130.303 79.0485 147.818 72.9411 163.238 72.0663C182.717 70.9647 197.959 73.8969 193.511 94.4709L187.554 128.151H192.618L195.492 111.853H195.605L204.841 128.151H210.733L200.41 111.319L215.019 96.5445Z" fill="white"/>
<path fill-rule="evenodd" clip-rule="evenodd" d="M90.8359 147.76C96.5018 147.069 101.658 151.097 102.358 156.763C103.058 162.427 99.0383 167.588 93.3749 168.298C87.6981 169.009 82.5213 164.979 81.8191 159.301C81.1172 153.623 85.1568 148.453 90.8359 147.76ZM99.6304 157.198C99.1755 153.031 95.4238 150.024 91.2571 150.487C87.1029 150.95 84.1062 154.688 84.5594 158.843C85.0129 162.998 88.7452 166.002 92.9013 165.557C97.0699 165.111 100.085 161.366 99.6304 157.198Z" fill="#00C58F"/>
<path fill-rule="evenodd" clip-rule="evenodd" d="M122.371 148.083C123.986 148.09 125.661 148.634 126.777 149.839C127.772 150.912 128.228 152.407 128.161 153.86C128.086 155.479 127.394 156.572 126.242 157.644C129.064 159.547 129.885 162.369 128.146 165.373C126.313 168.377 122.693 167.979 119.693 167.967L114.547 167.933L114.542 148.094C117.148 148.088 119.767 148.072 122.371 148.083ZM124.79 159.634C123.318 158.732 119.1 159.184 117.313 159.148C117.361 160.901 117.423 163.592 117.309 165.337C119.689 165.37 123.527 165.851 125.319 164.499C126.571 162.741 126.732 160.823 124.79 159.634ZM120.182 150.63C119.264 150.644 118.239 150.681 117.32 150.657C117.359 152.38 117.413 154.801 117.316 156.53C118.965 156.541 120.617 156.567 122.265 156.552C123.187 156.542 123.874 156.379 124.558 155.733C125.224 154.833 125.332 154.542 125.515 153.436C124.496 150.498 122.931 150.588 120.182 150.63Z" fill="#00C58F"/>
<path d="M66.6654 148.108C67.6874 148.076 68.7684 148.103 69.7952 148.112C69.9426 154.526 69.7921 161.473 69.8113 167.942C68.8973 167.967 67.906 167.938 66.9858 167.927C66.9262 163.829 66.9877 159.566 66.9908 155.453L67.1177 152.875C65.9769 154.305 61.0891 163.103 60.4872 163.319C59.0611 162.34 54.9225 153.423 53.8976 153.222C53.8242 153.45 53.9505 166.764 53.9536 167.944C53.038 167.967 52.0532 167.938 51.1321 167.929C50.9741 161.527 51.1216 154.559 51.1172 148.097C52.1478 148.089 53.1787 148.096 54.2092 148.119C55.001 149.195 56.4372 151.696 57.167 152.89C58.0216 154.289 59.7471 156.988 60.3743 158.414C60.9476 157.762 61.8106 156.24 62.3021 155.451C63.8017 153.043 65.1529 150.509 66.6654 148.108Z" fill="#00C58F"/>
<path d="M190.488 148.096L202.231 148.11L202.218 150.784C199.2 150.807 196.182 150.811 193.164 150.794C193.192 152.74 193.192 154.685 193.163 156.63C195.435 156.615 199.354 156.483 201.531 156.673L201.584 159.247C200.457 159.279 193.788 159.212 193.239 159.345L193.173 159.586C193.199 161.502 193.195 163.418 193.16 165.334C196.186 165.426 199.373 165.326 202.439 165.387L202.45 167.923C199.102 168.103 193.942 167.972 190.495 167.934L190.488 148.096Z" fill="#00C58F"/>
<path d="M164.12 148.084L166.936 148.092C166.938 153.808 166.998 159.638 166.913 165.345L175.542 165.378C175.548 166.223 175.528 167.103 175.519 167.952L164.129 167.94C164.024 161.409 164.118 154.635 164.12 148.084Z" fill="#00C58F"/>
<path d="M144.64 148.088L147.402 148.085C147.543 154.47 147.447 161.544 147.4 167.955L144.66 167.943C144.575 165.647 144.635 163.058 144.637 160.733L144.64 148.088Z" fill="#00C58F"/>
</svg>
