<svg width="250" height="250" viewBox="0 0 250 250" fill="none" xmlns="http://www.w3.org/2000/svg">
<mask id="path-1-inside-1_769_541" fill="white">
<path d="M0 48C0 21.4903 21.4903 0 48 0H202C228.51 0 250 21.4903 250 48V202C250 228.51 228.51 250 202 250H48C21.4903 250 0 228.51 0 202V48Z"/>
</mask>
<path d="M0 48C0 21.4903 21.4903 0 48 0H202C228.51 0 250 21.4903 250 48V202C250 228.51 228.51 250 202 250H48C21.4903 250 0 228.51 0 202V48Z" fill="white"/>
<path d="M48 0V2H202V0V-2H48V0ZM250 48H248V202H250H252V48H250ZM202 250V248H48V250V252H202V250ZM0 202H2V48H0H-2V202H0ZM48 250V248C22.5949 248 2 227.405 2 202H0H-2C-2 229.614 20.3858 252 48 252V250ZM250 202H248C248 227.405 227.405 248 202 248V250V252C229.614 252 252 229.614 252 202H250ZM202 0V2C227.405 2 248 22.5949 248 48H250H252C252 20.3858 229.614 -2 202 -2V0ZM48 0V-2C20.3858 -2 -2 20.3858 -2 48H0H2C2 22.5949 22.5949 2 48 2V0Z" fill="#DDDBDB" mask="url(#path-1-inside-1_769_541)"/>
<path d="M55 119.066L55.032 118.955C55.2905 118.031 55.4931 115.514 55.661 114.397C56.0985 111.552 56.7082 108.737 57.4867 105.966C62.4815 88.3331 74.1774 73.3546 90.073 64.2338C106.329 54.9639 125.609 52.5562 143.645 57.5433C160.651 62.071 176.435 74.2812 185.222 89.4973C191.547 100.31 194.919 112.597 195 125.124C195.016 127.756 194.464 130.787 194.44 133.306C191.377 133.374 188.054 133.292 184.957 133.291L165.183 133.291L151.634 133.292C149.042 133.292 146.044 133.365 143.501 133.22C141.085 137.879 137.44 141.261 132.37 142.854C127.508 144.38 122.238 143.898 117.735 141.513C113.316 139.179 110.01 135.18 108.55 130.401C107.121 125.754 107.697 120.235 109.983 115.936C112.291 111.584 116.235 108.328 120.946 106.885C125.838 105.395 131.122 105.913 135.633 108.323C138.653 109.951 142.55 113.528 143.612 116.848C145.788 116.715 148.249 116.767 150.446 116.767L161.019 116.766L169.225 116.765C170.307 116.764 172.425 116.697 173.436 116.786C172.767 113.894 172.243 111.416 171.242 108.59C167.463 97.9805 160.185 88.9732 150.605 83.0506C139.557 76.2481 126.261 74.1082 113.636 77.1008C100.867 80.1071 89.8238 88.0829 82.9561 99.2602C76.1196 110.392 74.0011 123.79 77.0689 136.488C80.1124 149.086 87.9941 159.979 99.0086 166.809C110.149 173.732 123.602 175.9 136.353 172.824C146.447 170.333 155.511 164.752 162.278 156.858C163.878 158.363 165.315 160.151 166.81 161.765C170.001 165.208 173.129 169.005 176.361 172.389C173.627 175.212 171.401 177.394 168.293 179.864C156.01 189.59 140.821 194.918 125.154 194.997C122.869 195.028 119.676 194.788 117.4 194.544C101.824 192.9 87.2582 186.051 76.057 175.104C66.5944 165.921 59.9249 154.248 56.8205 141.433C56.4033 139.72 56.0563 138.108 55.7613 136.371C55.5232 134.971 55.3681 132.236 55 131.013V119.066Z" fill="#BB2125"/>
</svg>
