<svg width="250" height="250" viewBox="0 0 250 250" fill="none" xmlns="http://www.w3.org/2000/svg">
<rect width="250" height="250" fill="#5C2682"/>
<path d="M63.778 89.991V97.291H79.926V104.013H63.778V117.115H56.332V83.271H82.1V89.991H63.778Z" fill="white"/>
<path d="M115.073 114.165C114.125 114.915 113.095 115.556 112.003 116.075C110.84 116.622 109.614 117.025 108.353 117.275C106.889 117.563 105.398 117.701 103.905 117.687C101.533 117.709 99.1806 117.248 96.9914 116.333C94.9291 115.474 93.0562 114.218 91.4794 112.635C89.9165 111.048 88.6841 109.166 87.8534 107.099C86.9758 104.934 86.532 102.617 86.5474 100.281V100.185C86.5297 97.8544 86.9736 95.5433 87.8534 93.385C88.695 91.3173 89.926 89.4305 91.4794 87.827C93.0598 86.2081 94.951 84.9252 97.0394 84.055C99.3101 83.1191 101.748 82.655 104.203 82.691C105.654 82.6801 107.103 82.8094 108.529 83.077C109.747 83.3102 110.938 83.6667 112.083 84.141C113.124 84.5801 114.113 85.1314 115.033 85.785C115.928 86.4243 116.769 87.1361 117.547 87.913L112.803 93.375C111.592 92.2613 110.233 91.3191 108.765 90.575C107.326 89.8835 105.745 89.5363 104.147 89.561C102.79 89.5484 101.446 89.8288 100.207 90.383C99.0209 90.9145 97.9588 91.6884 97.0894 92.655C96.209 93.6386 95.5205 94.7782 95.0594 96.015C94.5694 97.3211 94.3233 98.7061 94.3334 100.101V100.197C94.3249 101.6 94.5709 102.992 95.0594 104.307C95.5134 105.548 96.1913 106.695 97.0594 107.691C97.9449 108.693 99.0358 109.492 100.258 110.034C101.48 110.576 102.805 110.849 104.141 110.833C106.076 110.833 107.712 110.478 109.049 109.769C110.499 108.98 111.84 108.005 113.037 106.869L117.775 111.655C116.94 112.559 116.036 113.398 115.073 114.165Z" fill="white"/>
<path d="M150.223 117.115V95.019L140.697 109.475H140.497L131.069 95.165V117.115H123.729V83.271H131.753L140.649 97.583L149.545 83.271H157.571V117.115H150.223Z" fill="white"/>
<path d="M193.517 111.893C192.919 113.057 192.04 114.054 190.959 114.793C189.744 115.613 188.388 116.203 186.959 116.535C185.256 116.938 183.51 117.133 181.759 117.115H165.691V83.271H181.377C184.851 83.271 187.577 84.061 189.555 85.641C191.534 87.221 192.524 89.3483 192.525 92.023V92.129C192.539 92.9967 192.417 93.8611 192.163 94.691C191.938 95.3991 191.615 96.0722 191.203 96.691C190.812 97.2773 190.341 97.8063 189.803 98.263C189.28 98.7115 188.709 99.1005 188.099 99.423C190.055 100.166 191.595 101.173 192.719 102.445C193.843 103.717 194.405 105.478 194.403 107.729V107.825C194.438 109.232 194.134 110.627 193.517 111.893ZM185.175 93.279C185.175 92.151 184.757 91.289 183.919 90.693C183.082 90.097 181.873 89.799 180.293 89.799H172.943V96.953H179.803C181.447 96.953 182.753 96.671 183.719 96.107C184.686 95.543 185.169 94.6323 185.169 93.375L185.175 93.279ZM187.061 106.817C187.079 106.297 186.969 105.78 186.741 105.311C186.514 104.843 186.175 104.437 185.755 104.129C184.885 103.469 183.485 103.136 181.555 103.129H172.955V110.575H181.803C183.447 110.575 184.737 110.277 185.671 109.681C186.606 109.085 187.073 108.158 187.071 106.901L187.061 106.817Z" fill="white"/>
<path d="M193.848 138.801V155.373H55.5918V146.657C55.5915 145.625 55.7946 144.604 56.1893 143.65C56.584 142.697 57.1626 141.831 57.8922 141.101C58.6217 140.372 59.4879 139.793 60.4411 139.398C61.3944 139.004 62.4161 138.801 63.4478 138.801H193.848Z" fill="#FAB613"/>
<path d="M55.5918 160.739H193.848V177.311H63.4478C62.4159 177.311 61.394 177.108 60.4407 176.713C59.4873 176.319 58.621 175.74 57.8915 175.01C57.1619 174.28 56.5833 173.414 56.1887 172.46C55.7941 171.507 55.5913 170.485 55.5918 169.453V160.739Z" fill="#FAB613"/>
</svg>
