<svg width="250" height="250" viewBox="0 0 250 250" fill="none" xmlns="http://www.w3.org/2000/svg">
<path d="M0 48C0 21.4903 21.4903 0 48 0H202C228.51 0 250 21.4903 250 48V202C250 228.51 228.51 250 202 250H48C21.4903 250 0 228.51 0 202V48Z" fill="#5C2682"/>
<path d="M63.779 89.9915V97.2915H79.927V104.013H63.779V117.115H56.333V83.2715H82.101V89.9915H63.779Z" fill="white"/>
<path d="M115.075 114.165C114.126 114.915 113.097 115.556 112.005 116.075C110.841 116.622 109.616 117.025 108.355 117.275C106.89 117.563 105.4 117.701 103.907 117.687C101.534 117.709 99.182 117.248 96.9928 116.333C94.9306 115.474 93.0577 114.218 91.4808 112.635C89.918 111.048 88.6856 109.166 87.8548 107.099C86.9772 104.934 86.5335 102.618 86.5488 100.281V100.185C86.5312 97.8548 86.9751 95.5437 87.8548 93.3854C88.6965 91.3177 89.9275 89.4308 91.4808 87.8274C93.0613 86.2085 94.9524 84.9255 97.0408 84.0554C99.3116 83.1194 101.749 82.6554 104.205 82.6914C105.656 82.6805 107.105 82.8097 108.531 83.0774C109.749 83.3106 110.939 83.6671 112.085 84.1414C113.125 84.5805 114.114 85.1318 115.035 85.7854C115.93 86.4247 116.771 87.1364 117.549 87.9134L112.805 93.3754C111.593 92.2616 110.235 91.3195 108.767 90.5754C107.327 89.8838 105.746 89.5367 104.149 89.5614C102.792 89.5488 101.448 89.8292 100.209 90.3834C99.0223 90.9148 97.9602 91.6888 97.0908 92.6554C96.2105 93.639 95.522 94.7786 95.0608 96.0154C94.5709 97.3215 94.3248 98.7065 94.3348 100.101V100.197C94.3264 101.6 94.5723 102.993 95.0608 104.307C95.5149 105.548 96.1928 106.695 97.0608 107.691C97.9463 108.693 99.0372 109.492 100.259 110.034C101.481 110.577 102.806 110.849 104.143 110.833C106.078 110.833 107.714 110.479 109.051 109.769C110.501 108.98 111.841 108.006 113.039 106.869L117.777 111.655C116.941 112.559 116.038 113.398 115.075 114.165Z" fill="white"/>
<path d="M150.223 117.115V95.0195L140.697 109.475H140.497L131.069 95.1655V117.115H123.729V83.2715H131.753L140.649 97.5835L149.545 83.2715H157.571V117.115H150.223Z" fill="white"/>
<path d="M193.519 111.893C192.92 113.058 192.041 114.054 190.961 114.793C189.745 115.613 188.389 116.204 186.961 116.535C185.257 116.939 183.511 117.133 181.761 117.115H165.693V83.2715H181.379C184.852 83.2715 187.578 84.0615 189.557 85.6415C191.536 87.2215 192.526 89.3488 192.527 92.0235V92.1295C192.541 92.9971 192.418 93.8616 192.165 94.6915C191.939 95.3996 191.616 96.0727 191.205 96.6915C190.813 97.2778 190.342 97.8068 189.805 98.2635C189.282 98.712 188.71 99.101 188.101 99.4235C190.057 100.166 191.597 101.173 192.721 102.445C193.845 103.717 194.406 105.479 194.405 107.729V107.825C194.439 109.233 194.135 110.628 193.519 111.893ZM185.177 93.2795C185.177 92.1515 184.758 91.2895 183.921 90.6935C183.084 90.0975 181.875 89.7995 180.295 89.7995H172.945V96.9535H179.805C181.449 96.9535 182.754 96.6715 183.721 96.1075C184.688 95.5435 185.171 94.6328 185.171 93.3755L185.177 93.2795ZM187.063 106.817C187.08 106.297 186.971 105.78 186.743 105.312C186.515 104.843 186.177 104.437 185.757 104.129C184.886 103.469 183.486 103.136 181.557 103.129H172.957V110.575H181.805C183.449 110.575 184.738 110.277 185.673 109.681C186.608 109.085 187.074 108.159 187.073 106.901L187.063 106.817Z" fill="white"/>
<path d="M193.849 138.802V155.374H55.5928V146.658C55.5925 145.626 55.7955 144.604 56.1902 143.651C56.5849 142.698 57.1636 141.832 57.8932 141.102C58.6227 140.373 59.4889 139.794 60.4421 139.399C61.3954 139.005 62.417 138.801 63.4488 138.802H193.849Z" fill="#FAB613"/>
<path d="M55.5928 160.739H193.849V177.311H63.4488C62.4169 177.312 61.395 177.108 60.4416 176.714C59.4883 176.319 58.622 175.74 57.8925 175.01C57.1629 174.28 56.5843 173.414 56.1897 172.461C55.7951 171.507 55.5922 170.485 55.5928 169.453V160.739Z" fill="#FAB613"/>
</svg>
