<svg width="250" height="250" viewBox="0 0 250 250" fill="none" xmlns="http://www.w3.org/2000/svg">
<mask id="path-1-inside-1_769_545" fill="white">
<path d="M0 48C0 21.4903 21.4903 0 48 0H202C228.51 0 250 21.4903 250 48V202C250 228.51 228.51 250 202 250H48C21.4903 250 0 228.51 0 202V48Z"/>
</mask>
<path d="M0 48C0 21.4903 21.4903 0 48 0H202C228.51 0 250 21.4903 250 48V202C250 228.51 228.51 250 202 250H48C21.4903 250 0 228.51 0 202V48Z" fill="white"/>
<path d="M48 0V2H202V0V-2H48V0ZM250 48H248V202H250H252V48H250ZM202 250V248H48V250V252H202V250ZM0 202H2V48H0H-2V202H0ZM48 250V248C22.5949 248 2 227.405 2 202H0H-2C-2 229.614 20.3858 252 48 252V250ZM250 202H248C248 227.405 227.405 248 202 248V250V252C229.614 252 252 229.614 252 202H250ZM202 0V2C227.405 2 248 22.5949 248 48H250H252C252 20.3858 229.614 -2 202 -2V0ZM48 0V-2C20.3858 -2 -2 20.3858 -2 48H0H2C2 22.5949 22.5949 2 48 2V0Z" fill="#DDDBDB" mask="url(#path-1-inside-1_769_545)"/>
<path d="M124.608 103.421C124.846 103.973 124.905 104.237 125.054 104.436C126.802 106.778 128.674 109.039 130.302 111.465C133.846 116.747 137.505 121.972 140.663 127.481C143.453 132.348 145.7 137.531 148.046 142.639C149.749 146.351 151.43 150.1 152.744 153.961C154.689 159.68 156.331 165.502 158.043 171.299C159.996 177.903 161.5 184.608 162.456 191.433C162.562 192.198 162.979 192.921 163.386 194.022C163.904 193.176 164.268 192.741 164.459 192.24C165.313 189.982 166.356 187.757 166.888 185.423C167.821 181.346 168.634 177.222 169.13 173.072C170.292 163.35 169.805 153.594 169.261 143.852C169.138 141.627 168.821 139.417 168.62 137.198C168.463 135.48 168.345 133.757 168.171 131.518C177.367 133.485 186.07 135.348 194.775 137.209C194.851 136.985 194.923 136.76 194.999 136.536C173.593 121.398 149.906 111.084 124.608 103.421ZM76.3547 129.986C101.3 106.797 130.974 93.5279 164.49 87.2882C163.834 86.8931 163.596 86.683 163.321 86.5933C161.73 86.0806 160.161 85.4166 158.527 85.1364C152.618 84.1277 146.715 82.8977 140.755 82.4214C134.829 81.9479 128.839 82.2197 122.877 82.2841C116.673 82.3513 110.585 83.5617 104.457 84.3799C102.331 84.6629 101.885 84.2146 102.283 82.0543C102.72 79.6756 103.104 77.2884 103.502 74.9012C104.174 70.8582 104.844 66.8179 105.505 62.772C105.867 60.567 106.206 58.3591 106.556 56.1541C106.343 56.0952 106.127 56.0364 105.914 55.9775C92.9949 79.3758 82.5804 103.785 76.3547 129.986ZM147.726 153.636C113.653 153.098 83.166 141.717 54.999 123.208C55.0663 123.684 55.1783 123.99 55.338 124.27C59.9891 132.555 65.6432 140.097 72.2556 146.917C79.5124 154.398 87.5705 160.915 96.1862 166.757C96.741 167.133 97.2229 167.612 97.8981 168.175C89.9605 174.025 82.2078 179.738 74.4551 185.451C74.5335 185.577 74.6148 185.7 74.6932 185.826C100.308 178.06 124.911 167.979 147.726 153.636ZM115.158 136.987C119.004 136.954 121.871 134.02 121.804 130.086C121.747 126.755 118.842 123.575 114.799 123.693C110.946 123.805 108.391 127.066 108.31 130.383C108.22 133.964 111.871 137.245 115.158 136.987Z" fill="white"/>
<path d="M124.608 103.421C149.906 111.084 173.593 121.398 194.997 136.534C194.921 136.758 194.848 136.982 194.772 137.206C186.07 135.346 177.365 133.482 168.169 131.515C168.343 133.757 168.46 135.477 168.617 137.195C168.819 139.414 169.136 141.627 169.259 143.849C169.8 153.591 170.29 163.347 169.127 173.07C168.631 177.219 167.816 181.344 166.886 185.42C166.35 187.757 165.311 189.979 164.456 192.237C164.266 192.739 163.902 193.173 163.383 194.019C162.977 192.918 162.562 192.195 162.453 191.43C161.498 184.605 159.993 177.9 158.04 171.296C156.328 165.499 154.686 159.677 152.742 153.958C151.428 150.097 149.747 146.348 148.043 142.636C145.698 137.525 143.451 132.342 140.66 127.478C137.503 121.97 133.843 116.744 130.299 111.463C128.671 109.039 126.8 106.778 125.051 104.433C124.906 104.237 124.844 103.973 124.608 103.421Z" fill="#85C229"/>
<path d="M76.3547 129.986C82.5804 103.785 92.9951 79.3758 105.912 55.9775C106.125 56.0364 106.34 56.0952 106.553 56.1541C106.203 58.3591 105.864 60.567 105.503 62.772C104.841 66.8151 104.172 70.8582 103.499 74.9012C103.101 77.2884 102.718 79.6756 102.28 82.0544C101.883 84.2146 102.331 84.6629 104.455 84.3799C110.58 83.5646 116.671 82.3542 122.874 82.2841C128.834 82.2197 134.827 81.9479 140.753 82.4214C146.712 82.8977 152.616 84.1249 158.525 85.1364C160.158 85.4166 161.727 86.0806 163.319 86.5933C163.593 86.683 163.831 86.8903 164.487 87.2882C130.974 93.5251 101.297 106.795 76.3547 129.986Z" fill="#E57819"/>
<path d="M147.726 153.636C124.911 167.981 100.308 178.06 74.6932 185.826C74.6148 185.7 74.5335 185.577 74.4551 185.451C82.2078 179.738 89.9605 174.025 97.8981 168.175C97.2229 167.612 96.741 167.133 96.1862 166.757C87.5677 160.915 79.5096 154.398 72.2556 146.917C65.6432 140.1 59.9891 132.558 55.338 124.27C55.1811 123.99 55.0663 123.681 54.999 123.208C83.166 141.717 113.653 153.098 147.726 153.636Z" fill="#792F83"/>
<path d="M115.158 136.987C111.874 137.242 108.223 133.961 108.31 130.383C108.391 127.069 110.946 123.805 114.799 123.693C118.842 123.575 121.747 126.755 121.804 130.086C121.868 134.02 119.004 136.954 115.158 136.987Z" fill="#E57819"/>
</svg>
