<svg width="250" height="250" viewBox="0 0 250 250" fill="none" xmlns="http://www.w3.org/2000/svg">
<mask id="path-1-inside-1_769_547" fill="white">
<path d="M0 48C0 21.4903 21.4903 0 48 0H202C228.51 0 250 21.4903 250 48V202C250 228.51 228.51 250 202 250H48C21.4903 250 0 228.51 0 202V48Z"/>
</mask>
<path d="M0 48C0 21.4903 21.4903 0 48 0H202C228.51 0 250 21.4903 250 48V202C250 228.51 228.51 250 202 250H48C21.4903 250 0 228.51 0 202V48Z" fill="white"/>
<path d="M48 0V2H202V0V-2H48V0ZM250 48H248V202H250H252V48H250ZM202 250V248H48V250V252H202V250ZM0 202H2V48H0H-2V202H0ZM48 250V248C22.5949 248 2 227.405 2 202H0H-2C-2 229.614 20.3858 252 48 252V250ZM250 202H248C248 227.405 227.405 248 202 248V250V252C229.614 252 252 229.614 252 202H250ZM202 0V2C227.405 2 248 22.5949 248 48H250H252C252 20.3858 229.614 -2 202 -2V0ZM48 0V-2C20.3858 -2 -2 20.3858 -2 48H0H2C2 22.5949 22.5949 2 48 2V0Z" fill="#DDDBDB" mask="url(#path-1-inside-1_769_547)"/>
<path d="M122.731 74.9953C122.731 86.0384 113.779 94.9906 102.736 94.9906C91.6924 94.9906 82.7402 86.0384 82.7402 74.9953C82.7402 63.9522 91.6924 55 102.736 55C113.779 55 122.731 63.9522 122.731 74.9953Z" fill="#002857"/>
<path d="M122.731 125.762C122.731 136.805 113.779 145.757 102.736 145.757C91.6924 145.757 82.7402 136.805 82.7402 125.762C82.7402 114.718 91.6924 105.766 102.736 105.766C113.779 105.766 122.731 114.718 122.731 125.762Z" fill="#002857"/>
<path d="M122.731 175.005C122.731 186.048 113.779 195 102.736 195C91.6924 195 82.7402 186.048 82.7402 175.005C82.7402 163.962 91.6924 155.009 102.736 155.009C113.779 155.009 122.731 163.962 122.731 175.005Z" fill="#002857"/>
<path d="M167.258 74.9953C167.258 86.0384 158.306 94.9906 147.263 94.9906C136.22 94.9906 127.268 86.0384 127.268 74.9953C127.268 63.9522 136.22 55 147.263 55C158.306 55 167.258 63.9522 167.258 74.9953Z" fill="#002857"/>
<path d="M167.258 125.762C167.258 136.805 158.306 145.757 147.263 145.757C136.22 145.757 127.268 136.805 127.268 125.762C127.268 114.718 136.22 105.766 147.263 105.766C158.306 105.766 167.258 114.718 167.258 125.762Z" fill="#E4AC24"/>
</svg>
