<svg width="250" height="250" viewBox="0 0 250 250" fill="none" xmlns="http://www.w3.org/2000/svg">
<path d="M0 48C0 21.4903 21.4903 0 48 0H202C228.51 0 250 21.4903 250 48V202C250 228.51 228.51 250 202 250H48C21.4903 250 0 228.51 0 202V48Z" fill="#D94F00"/>
<path fill-rule="evenodd" clip-rule="evenodd" d="M138.79 63.0449H190.061V114.418H138.79V63.0449ZM76.8077 140.405V145.43H85.6442V172.019H91.7371V145.227H99.9643V140.202L76.8077 140.408V140.405ZM72.2569 146.635V141.609C67.3688 139.399 61.7474 138.732 55.9918 141.609C46.5529 145.83 46.2156 166.728 55.6579 170.814C61.0796 173.561 72.3877 172.288 73.5271 169.875V153.331H62.2844V157.685H67.2345V166.394C50.9695 174.298 47.9574 136.319 72.2569 146.635ZM109.875 157.417H115.696C120.515 157.62 121.789 166.728 115.496 166.659H109.875V157.417ZM109.875 144.625H115.696C120.515 145.496 118.777 152.663 115.496 152.862H109.875V144.625ZM103.851 139.737V171.751H119.847C128.012 168.804 128.35 156.146 119.847 154.804C127.679 153.936 128.081 139.534 114.56 139.534L103.851 139.737ZM132.095 148.711V153.465C136.377 152.26 145.682 148.911 144.811 156.012C136.646 155.475 131.09 156.949 130.154 162.036C128.615 173.024 140.395 174.095 145.348 168.67V171.282H150.969V151.992C149.565 145.761 140.264 144.959 132.095 148.711ZM136.846 161.103C138.119 159.427 142.202 159.492 144.945 160.298V164.518C140.463 169.338 133.235 167.131 136.849 161.1L136.846 161.103ZM162.618 154.405C164.092 152.797 171.923 149.782 173.128 154.405V171.417H179.417V153.399C178.078 145.895 170.914 144.556 162.216 149.647V146.835H156.26V171.551H162.549L162.618 154.405ZM199.162 146.566L190.932 157.616L199.634 171.214L207.197 171.014L197.627 157.954L206.26 146.766L199.166 146.566H199.162ZM184.105 138.46H190.329V171.214H184.102V138.463L184.105 138.46Z" fill="white"/>
</svg>
