<svg width="250" height="250" viewBox="0 0 250 250" fill="none" xmlns="http://www.w3.org/2000/svg">
<mask id="path-1-inside-1_769_554" fill="white">
<path d="M0 48C0 21.4903 21.4903 0 48 0H202C228.51 0 250 21.4903 250 48V202C250 228.51 228.51 250 202 250H48C21.4903 250 0 228.51 0 202V48Z"/>
</mask>
<path d="M0 48C0 21.4903 21.4903 0 48 0H202C228.51 0 250 21.4903 250 48V202C250 228.51 228.51 250 202 250H48C21.4903 250 0 228.51 0 202V48Z" fill="white"/>
<path d="M48 0V2H202V0V-2H48V0ZM250 48H248V202H250H252V48H250ZM202 250V248H48V250V252H202V250ZM0 202H2V48H0H-2V202H0ZM48 250V248C22.5949 248 2 227.405 2 202H0H-2C-2 229.614 20.3858 252 48 252V250ZM250 202H248C248 227.405 227.405 248 202 248V250V252C229.614 252 252 229.614 252 202H250ZM202 0V2C227.405 2 248 22.5949 248 48H250H252C252 20.3858 229.614 -2 202 -2V0ZM48 0V-2C20.3858 -2 -2 20.3858 -2 48H0H2C2 22.5949 22.5949 2 48 2V0Z" fill="#DDDBDB" mask="url(#path-1-inside-1_769_554)"/>
<path d="M142.382 113.286C142.635 113.254 142.88 113.245 143.135 113.237C147.804 113.091 152.677 113.779 156.278 117.014C158.089 118.51 159.319 120.506 159.855 122.796C159.951 123.205 160.02 123.625 160.02 125.393C158.493 125.393 151.283 125.514 149.98 125.53C149.752 124.341 149.661 123.093 148.481 121.942C144.638 118.194 136.261 121.76 139.841 126.965C140.969 128.604 147.375 129.495 149.499 130.106C153.436 131.238 157.947 132.952 159.65 137.16C160.268 138.683 160.34 139.784 160.35 141.396C160.389 143.973 159.386 146.456 157.568 148.282C154.163 151.725 149.662 152.837 144.948 152.866C139.886 152.913 135.288 152.189 131.511 148.487C128.885 145.913 127.945 143.591 127.894 139.952C133.823 140.016 134.331 140.016 137.471 140.016C137.756 142.153 137.863 142.992 139.175 144.057C140.754 145.338 143.03 145.876 145.044 145.757C147.336 145.746 150.49 143.968 150.227 141.388C149.639 137.139 142.577 136.804 139.416 135.831C134.119 134.198 129.1 131.835 128.88 125.502C128.787 122.804 129.672 120.098 131.47 118.044C134.249 114.865 138.263 113.514 142.382 113.286Z" fill="#71B003"/>
<path d="M87.1872 128.815C87.3509 127.786 87.5806 126.809 87.9636 125.838C93.279 112.365 112.061 110.242 120.486 121.946C123.523 126.157 124.737 131.414 123.855 136.532C123.264 140.123 121.288 143.635 118.779 146.228C113.571 151.612 105.825 153.026 98.8415 150.678C98.1374 150.466 97.0398 150.534 95.9313 150.148C92.7223 149.07 90.0064 146.664 88.5271 143.591C86.3126 138.99 85.5946 133.704 87.1872 128.815Z" fill="#72B202"/>
<path d="M87.1872 128.815C89.0884 125.223 91.0608 123.197 95.0279 121.94C100.618 120.169 105.891 121.582 108.87 126.902C110.445 129.717 110.724 131.978 111.635 134.97C109.728 135.61 108.083 135.985 106.174 136.51L95.2153 139.469C96.3967 142.655 98.7008 145.023 102.352 144.323C104.752 143.862 106.764 143.027 108.708 141.568C109.234 141.173 109.978 140.587 110.539 140.285C111.59 141.557 112.674 143.324 113.7 144.481C113.194 144.877 112.803 145.35 112.348 145.754C108.954 148.76 104.184 150.652 99.6335 150.643C99.3805 150.642 99.0974 150.655 98.8415 150.678C98.1374 150.466 97.0398 150.534 95.9313 150.148C92.7223 149.07 90.0064 146.664 88.5271 143.591C86.3126 138.99 85.5946 133.704 87.1872 128.815Z" fill="#FEFEFE"/>
<path d="M98.6272 127.375C101.476 127.391 102.251 129.657 103.03 132.004C101.314 132.603 99.2774 132.98 97.4706 133.549C96.4111 133.874 95.0742 134.16 93.98 134.423C93.9273 133.946 93.8915 133.467 93.8729 132.987C93.7454 129.71 95.2064 127.507 98.6272 127.375Z" fill="#72B202"/>
<path d="M59.8887 99.6396H50L50.1064 151.77H59.8677V136.774H62.8799L72.2194 151.77H83.6344L70.6323 131.931L81.9252 115.58H70.6323L62.4526 129.184H59.8887V99.6396Z" fill="#71B003"/>
<path d="M176.995 97.1328H166.621L166.635 152.073H176.995V123.912C178.778 122.253 182.349 120.66 185.707 121.551C188.277 122.233 189.86 126.302 189.617 129.601V152.073H200.001V130.656C200.001 119.948 196.391 116.002 193.37 114.491C184.974 110.675 178.955 115.55 176.995 118.464V97.1328Z" fill="#71B003"/>
</svg>
