<svg width="250" height="250" viewBox="0 0 250 250" fill="none" xmlns="http://www.w3.org/2000/svg">
<mask id="path-1-inside-1_769_556" fill="white">
<path d="M0 48C0 21.4903 21.4903 0 48 0H202C228.51 0 250 21.4903 250 48V202C250 228.51 228.51 250 202 250H48C21.4903 250 0 228.51 0 202V48Z"/>
</mask>
<path d="M0 48C0 21.4903 21.4903 0 48 0H202C228.51 0 250 21.4903 250 48V202C250 228.51 228.51 250 202 250H48C21.4903 250 0 228.51 0 202V48Z" fill="white"/>
<path d="M48 0V2H202V0V-2H48V0ZM250 48H248V202H250H252V48H250ZM202 250V248H48V250V252H202V250ZM0 202H2V48H0H-2V202H0ZM48 250V248C22.5949 248 2 227.405 2 202H0H-2C-2 229.614 20.3858 252 48 252V250ZM250 202H248C248 227.405 227.405 248 202 248V250V252C229.614 252 252 229.614 252 202H250ZM202 0V2C227.405 2 248 22.5949 248 48H250H252C252 20.3858 229.614 -2 202 -2V0ZM48 0V-2C20.3858 -2 -2 20.3858 -2 48H0H2C2 22.5949 22.5949 2 48 2V0Z" fill="#DDDBDB" mask="url(#path-1-inside-1_769_556)"/>
<path d="M124 173.546V90.1432L102.273 104.347V172.518C102.273 175.219 101.747 176.653 100.217 176.271C98.9935 175.965 98.6843 169.05 98.6827 165.631H74.5103C73.9009 175.991 77.6009 187.153 81.9781 191.125C86.3554 195.097 105.566 196.896 114.971 192.2C121.282 189.049 123.99 178.089 124 173.546Z" fill="#036426"/>
<path d="M74.5051 162.76H98.8005V104.354L124.862 84.6746L151.028 104.354V171.169H175.309V89.9792L125.083 55L74.5051 89.9792V162.76Z" fill="#BD9648"/>
<path d="M126.121 192.267V90.4302L148.035 104.597V174.345L175.556 174.298V192.267H126.121Z" fill="#036426"/>
</svg>
