<svg width="250" height="250" viewBox="0 0 250 250" fill="none" xmlns="http://www.w3.org/2000/svg">
<path d="M0 48C0 21.4903 21.4903 0 48 0H202C228.51 0 250 21.4903 250 48V202C250 228.51 228.51 250 202 250H48C21.4903 250 0 228.51 0 202V48Z" fill="black"/>
<path d="M189.776 82.1777H158.984C158.064 82.1773 157.16 82.4197 156.364 82.8806C155.569 83.3414 154.908 84.0044 154.451 84.8023L145.32 100.616H159.52L162.206 95.9568C162.261 95.8433 162.324 95.7341 162.395 95.6299L162.399 95.6233C162.638 95.27 162.96 94.9807 163.337 94.7809C163.714 94.5811 164.135 94.4767 164.561 94.477H172.919V94.5059C173.383 94.5063 173.837 94.6297 174.237 94.8636C174.637 95.0975 174.968 95.4335 175.195 95.8371C175.422 96.2407 175.538 96.6975 175.531 97.1606C175.523 97.6237 175.393 98.0766 175.153 98.4729L175.19 98.4937L163.156 119.334C167.318 120.153 171.066 122.393 173.759 125.67C176.452 128.947 177.924 133.057 177.922 137.299V137.308C177.922 142.167 175.992 146.826 172.557 150.262C169.121 153.697 164.462 155.627 159.603 155.627C154.745 155.627 150.086 153.697 146.65 150.262C143.215 146.826 141.285 142.167 141.285 137.308V137.299H128.95C128.95 139.354 129.157 141.404 129.566 143.418C130.473 147.855 132.361 152.033 135.092 155.646C136.387 157.361 137.857 158.937 139.478 160.347C143.897 164.185 149.326 166.67 155.119 167.508C160.911 168.345 166.822 167.498 172.147 165.069C177.471 162.639 181.985 158.729 185.148 153.805C188.312 148.881 189.992 143.151 189.989 137.299V137.283C189.991 133.035 189.105 128.834 187.389 124.949C185.673 121.063 183.164 117.579 180.022 114.72L194.105 90.3266C194.108 90.3235 194.11 90.3185 194.113 90.3154C194.247 90.1162 194.367 89.9079 194.472 89.6919C194.859 88.8951 195.038 88.0129 194.991 87.1281C194.944 86.2434 194.672 85.3851 194.203 84.6339C193.733 83.8828 193.08 83.2634 192.305 82.8339C191.53 82.4044 190.658 82.179 189.772 82.1787L189.776 82.1777Z" fill="#FCED00"/>
<path d="M152.128 131.193C150.729 132.914 149.966 135.065 149.969 137.282V137.298C149.969 139.862 150.988 142.32 152.8 144.132C154.613 145.945 157.071 146.963 159.634 146.963C162.198 146.963 164.656 145.945 166.468 144.132C168.281 142.32 169.299 139.862 169.299 137.298V137.282C169.299 136.013 169.049 134.756 168.564 133.583C168.078 132.411 167.366 131.345 166.468 130.447C165.571 129.55 164.505 128.838 163.332 128.352C162.159 127.867 160.902 127.617 159.633 127.617C159.196 127.617 158.76 127.647 158.328 127.705C155.892 128.036 153.675 129.283 152.128 131.193Z" fill="#FCED00"/>
<path d="M135.06 118.966C132.34 122.581 130.462 126.759 129.564 131.193H141.867L155.847 106.976L155.983 106.74H116.304C116.253 106.74 116.199 106.74 116.146 106.74C116.093 106.74 116.041 106.74 115.989 106.74C114.977 106.766 113.987 107.043 113.109 107.547C112.231 108.051 111.492 108.766 110.959 109.627L110.762 109.968L105.565 118.967H79.7152C78.6162 118.967 77.5375 119.263 76.5932 119.825C75.6488 120.388 74.8738 121.194 74.35 122.161L74.3389 122.154L55.001 155.646H69.6951L83.0256 132.555L83.0368 132.561C83.2605 132.147 83.592 131.802 83.9962 131.561C84.4004 131.32 84.8622 131.193 85.3328 131.193H98.5046L84.3868 155.645H98.8528L119.297 120.236H119.3C119.533 119.851 119.861 119.534 120.252 119.313C120.643 119.093 121.085 118.977 121.534 118.977V118.965L135.06 118.966Z" fill="#FCED00"/>
</svg>
