<svg width="250" height="250" viewBox="0 0 250 250" fill="none" xmlns="http://www.w3.org/2000/svg">
<mask id="path-1-inside-1_769_561" fill="white">
<path d="M0 48C0 21.4903 21.4903 0 48 0H202C228.51 0 250 21.4903 250 48V202C250 228.51 228.51 250 202 250H48C21.4903 250 0 228.51 0 202V48Z"/>
</mask>
<path d="M0 48C0 21.4903 21.4903 0 48 0H202C228.51 0 250 21.4903 250 48V202C250 228.51 228.51 250 202 250H48C21.4903 250 0 228.51 0 202V48Z" fill="white"/>
<path d="M48 0V2H202V0V-2H48V0ZM250 48H248V202H250H252V48H250ZM202 250V248H48V250V252H202V250ZM0 202H2V48H0H-2V202H0ZM48 250V248C22.5949 248 2 227.405 2 202H0H-2C-2 229.614 20.3858 252 48 252V250ZM250 202H248C248 227.405 227.405 248 202 248V250V252C229.614 252 252 229.614 252 202H250ZM202 0V2C227.405 2 248 22.5949 248 48H250H252C252 20.3858 229.614 -2 202 -2V0ZM48 0V-2C20.3858 -2 -2 20.3858 -2 48H0H2C2 22.5949 22.5949 2 48 2V0Z" fill="#DDDBDB" mask="url(#path-1-inside-1_769_561)"/>
<path d="M123.572 80.6735L123.874 80.6357C123.939 80.6874 124.004 80.7391 124.068 80.7907C124.494 83.0604 125.943 88.1154 126.776 90.0226C128.441 93.8355 131.775 97.8084 135.11 99.93C140.625 103.438 148.825 105.393 152.996 110.594C156.456 114.908 157.624 124.448 156.908 129.914C156.514 130.259 156.105 130.582 155.682 130.891C152.689 133.058 149.889 135.545 146.787 137.554C142.639 140.24 138.783 143.289 134.737 146.123C134.783 142.703 134.471 139.288 133.806 135.934C133.588 134.762 133.321 133.599 133.005 132.449C131.051 125.544 126.546 119.318 120.243 115.908C115.765 113.485 111.14 111.026 106.671 108.589C96.1743 102.865 92.9831 94.828 89.9282 83.9767C93.475 84.1825 97.1118 83.3432 100.613 82.9842L123.572 80.6735Z" fill="#51B749"/>
<path fill-rule="evenodd" clip-rule="evenodd" d="M101.885 119.9C102.115 119.957 102.347 120.015 102.58 120.072C102.411 120.031 102.242 119.989 102.075 119.947C102.011 119.931 101.948 119.916 101.885 119.9Z" fill="#2A9367"/>
<path d="M164.289 141.594L164.502 141.661C163.877 143.296 156.04 149.331 154.2 150.604C152.96 151.462 151.671 152.249 150.341 152.961C146.319 155.096 141.846 157.166 137.592 158.785C134.428 159.988 131.273 160.705 128.063 161.549C121.348 163.317 115.109 164.601 108.112 164.392C106.4 164.341 104.458 164.474 102.729 164.264C98.2761 163.721 93.6509 162.497 89.3675 161.183C88.034 160.762 86.773 160.37 85.4652 159.867C89.9845 159.83 94.1477 159.975 98.7127 159.761C109.998 159.241 121.202 157.578 132.153 154.8C133.974 154.349 135.824 153.917 137.648 153.415C145.05 151.376 151.968 147.892 158.881 144.623C160.72 143.753 162.459 142.526 164.289 141.594Z" fill="#279269"/>
<path d="M77.2408 111.662C77.3733 111.684 80.1186 114.404 80.5833 114.777C83.1551 116.854 85.953 118.633 88.9237 120.082C92.6624 121.896 96.7432 122.846 100.824 123.673C108.513 125.231 117.294 127.772 123.325 132.993C125.414 134.801 127.341 137.426 129.026 139.642C127.079 138.265 125.055 136.618 123.072 135.174C118.458 131.559 114.062 130.399 108.53 128.948C101.992 127.295 95.226 125.932 88.6601 124.449C82.2789 123.007 76.8958 121.575 71.6401 117.49C70.7578 116.804 67.4379 114.166 67.2756 113.036C67.2503 113.051 76.5632 111.703 77.2408 111.662Z" fill="#056D3C"/>
<path d="M168.68 104.137C170.616 103.777 176.56 103.738 178.2 104.583C179.045 104.644 179.536 104.797 180.348 105.014C182.653 105.638 184.843 106.725 187.101 107.42C188.544 107.863 190.364 107.95 191.931 108.325L192.58 108.488C195.953 109.364 201.031 111.222 199.818 115.509C199.257 117.49 198.136 119.077 196.186 119.841C196.252 117.627 196.045 116.14 193.241 116.252C188.805 116.429 183.852 119.177 180.76 122.253C176.29 126.393 176.497 131.791 178.308 137.174C180.827 144.663 181.157 150.062 174.887 155.804C172.016 158.654 170.053 159.618 166.731 161.622C156.68 167.687 147.996 169.4 136.308 169.364C132.205 169.367 128.108 169.082 124.045 168.513C122.853 168.357 121.109 168.163 119.972 167.825C123.033 166.95 126.489 167.011 129.687 166.058C144.019 161.789 161.192 156.381 169.886 143.247C172.749 138.923 171.72 133.522 172.244 128.706C173.46 115.579 185.653 111.855 197.074 115.149C196.876 111.558 195.408 110.013 191.915 109.019C190.173 108.682 188.449 108.659 186.585 108.238C184.292 107.718 182.323 107.039 180.087 106.419C179.163 106.163 177.406 106.016 176.297 105.811C175.778 105.75 175.2 105.706 174.713 105.532C174.72 105.342 174.801 105.28 174.922 105.127L174.971 105.066C174.751 104.721 174.636 104.774 174.175 104.603C173.538 104.545 168.757 104.199 168.68 104.137Z" fill="#4FB845"/>
<path d="M176.936 108.605C173.522 108.521 172.581 109.181 172.538 109.522C176.245 110.024 178.22 111.058 178.743 111.512L179.765 109.076C179.625 108.919 178.864 108.605 176.936 108.605Z" fill="#4FB845"/>
<path d="M50.001 137.827C50.5966 138.02 51.2201 138.251 51.8142 138.458C55.967 139.845 59.724 141.519 63.9816 142.782C69.147 144.314 74.0655 145.392 79.31 146.523C86.067 147.979 92.9114 149.418 99.8021 150.126C105.913 150.754 112.565 150.668 118.701 150.455C120.751 150.384 123.124 150.249 125.149 149.942C127.155 149.639 129.104 148.994 131.181 148.882C125.066 154.614 105.712 154.891 97.4986 154.584C86.3006 154.165 74.4902 152.051 64.4326 146.97C62.0025 145.742 59.8558 144.901 57.4964 143.378C55.3243 141.976 53.6343 140.641 51.6387 139.018L50.001 137.827Z" fill="#066A3D"/>
<path d="M79.6202 101.11C78.1162 101.241 76.6073 101.373 75.1254 101.439C75.2385 101.626 75.348 101.806 75.4543 101.982L75.4588 101.989C77.4253 105.234 78.296 106.671 81.0894 109.729C86.9639 116.16 93.5936 117.936 101.715 119.858C102 119.929 102.289 120 102.58 120.072C107.21 121.219 112.5 122.529 116.727 124.604C118.184 125.318 119.681 126.453 121.031 127.477C121.235 127.631 121.436 127.783 121.632 127.931C125.009 130.468 127.261 133.487 129.444 137.079C130 137.996 130.516 138.937 130.988 139.9L132.202 142.571C132.168 141.767 131.967 140.284 131.824 139.484C130.238 131.513 126.391 124.358 119.454 119.788C116.459 117.814 113.194 116.299 109.928 114.783C105.426 112.694 100.922 110.603 97.1181 107.311C95.3858 105.806 92.8244 102.335 91.6141 100.299C89.7654 100.469 87.9085 100.568 86.052 100.667C84.9311 100.727 83.8103 100.787 82.6915 100.862C81.6767 100.931 80.6496 101.02 79.6202 101.11Z" fill="#2B9468"/>
</svg>
