<svg width="250" height="250" viewBox="0 0 250 250" fill="none" xmlns="http://www.w3.org/2000/svg">
<mask id="path-1-inside-1_769_564" fill="white">
<path d="M0 48C0 21.4903 21.4903 0 48 0H202C228.51 0 250 21.4903 250 48V202C250 228.51 228.51 250 202 250H48C21.4903 250 0 228.51 0 202V48Z"/>
</mask>
<path d="M0 48C0 21.4903 21.4903 0 48 0H202C228.51 0 250 21.4903 250 48V202C250 228.51 228.51 250 202 250H48C21.4903 250 0 228.51 0 202V48Z" fill="white"/>
<path d="M48 0V2H202V0V-2H48V0ZM250 48H248V202H250H252V48H250ZM202 250V248H48V250V252H202V250ZM0 202H2V48H0H-2V202H0ZM48 250V248C22.5949 248 2 227.405 2 202H0H-2C-2 229.614 20.3858 252 48 252V250ZM250 202H248C248 227.405 227.405 248 202 248V250V252C229.614 252 252 229.614 252 202H250ZM202 0V2C227.405 2 248 22.5949 248 48H250H252C252 20.3858 229.614 -2 202 -2V0ZM48 0V-2C20.3858 -2 -2 20.3858 -2 48H0H2C2 22.5949 22.5949 2 48 2V0Z" fill="#DDDBDB" mask="url(#path-1-inside-1_769_564)"/>
<path d="M125 195C163.66 195 195 163.66 195 125C195 86.3401 163.66 55 125 55C86.3401 55 55 86.3401 55 125C55 163.66 86.3401 195 125 195Z" fill="#918C8C"/>
<path d="M88.2293 147.015C85.6494 145.609 83.5367 143.479 82.1507 140.888C80.6715 138.061 79.9311 134.905 79.9984 131.714V118.287C79.9311 115.096 80.6715 111.94 82.1507 109.112C83.5368 106.522 85.6495 104.392 88.2293 102.985C91.0426 101.561 94.1517 100.818 97.3051 100.818C100.458 100.818 103.568 101.561 106.381 102.985C108.96 104.392 111.073 106.522 112.459 109.112C113.939 111.94 114.679 115.096 114.612 118.287V131.714C114.679 134.905 113.939 138.061 112.459 140.888C111.073 143.479 108.96 145.608 106.381 147.015C103.568 148.44 100.458 149.182 97.3051 149.182C94.1517 149.182 91.0426 148.44 88.2293 147.015ZM101.542 139.226C102.747 138.551 103.727 137.537 104.361 136.309C105.045 134.957 105.386 133.457 105.355 131.942V118.059C105.386 116.544 105.045 115.044 104.361 113.692C103.728 112.463 102.748 111.449 101.542 110.775C100.231 110.101 98.7788 109.749 97.3051 109.749C95.8314 109.749 94.379 110.101 93.0685 110.775C91.8619 111.448 90.8814 112.463 90.2507 113.692C89.5673 115.044 89.2278 116.544 89.2625 118.059V131.942C89.23 133.457 89.5719 134.957 90.2579 136.309C90.8895 137.538 91.8697 138.552 93.0757 139.226C94.3861 139.9 95.8386 140.252 97.3123 140.252C98.786 140.252 100.238 139.9 101.549 139.226H101.542Z" fill="#252424"/>
<path d="M139.559 101.095H146.206V148.476H139.559V101.095ZM142.788 101.095H169.999V107.423H142.784L142.788 101.095ZM142.788 121.788H166.413V128.109H142.784L142.788 121.788ZM142.788 142.155H169.999V148.476H142.784L142.788 142.155Z" fill="#252424"/>
<path d="M108.22 145.636L102.19 141.192L139.634 101.084L145.664 105.531L108.22 145.636Z" fill="#252424"/>
</svg>
