<svg width="250" height="250" viewBox="0 0 250 250" fill="none" xmlns="http://www.w3.org/2000/svg">
<mask id="path-1-inside-1_769_565" fill="white">
<path d="M0 48C0 21.4903 21.4903 0 48 0H202C228.51 0 250 21.4903 250 48V202C250 228.51 228.51 250 202 250H48C21.4903 250 0 228.51 0 202V48Z"/>
</mask>
<path d="M0 48C0 21.4903 21.4903 0 48 0H202C228.51 0 250 21.4903 250 48V202C250 228.51 228.51 250 202 250H48C21.4903 250 0 228.51 0 202V48Z" fill="white"/>
<path d="M48 0V2H202V0V-2H48V0ZM250 48H248V202H250H252V48H250ZM202 250V248H48V250V252H202V250ZM0 202H2V48H0H-2V202H0ZM48 250V248C22.5949 248 2 227.405 2 202H0H-2C-2 229.614 20.3858 252 48 252V250ZM250 202H248C248 227.405 227.405 248 202 248V250V252C229.614 252 252 229.614 252 202H250ZM202 0V2C227.405 2 248 22.5949 248 48H250H252C252 20.3858 229.614 -2 202 -2V0ZM48 0V-2C20.3858 -2 -2 20.3858 -2 48H0H2C2 22.5949 22.5949 2 48 2V0Z" fill="#DDDBDB" mask="url(#path-1-inside-1_769_565)"/>
<path d="M140.75 94.5531C152.349 94.5531 161.752 85.1503 161.752 73.5514C161.752 61.9526 152.349 52.5498 140.75 52.5498C129.151 52.5498 119.748 61.9526 119.748 73.5514C119.748 85.1503 129.151 94.5531 140.75 94.5531Z" fill="#F16522"/>
<path d="M170.497 186.949C182.096 186.949 191.499 177.547 191.499 165.948C191.499 154.349 182.096 144.946 170.497 144.946C158.898 144.946 149.496 154.349 149.496 165.948C149.496 177.547 158.898 186.949 170.497 186.949Z" fill="#F16522"/>
<path d="M76.0007 167.353C87.5996 167.353 97.0023 157.951 97.0023 146.352C97.0023 134.753 87.5996 125.35 76.0007 125.35C64.4018 125.35 54.999 134.753 54.999 146.352C54.999 157.951 64.4018 167.353 76.0007 167.353Z" fill="#F16522"/>
<path d="M78.8007 117.65C86.3399 117.65 92.4517 111.538 92.4517 103.998C92.4517 96.4591 86.3399 90.3474 78.8007 90.3474C71.2614 90.3474 65.1496 96.4591 65.1496 103.998C65.1496 111.538 71.2614 117.65 78.8007 117.65Z" fill="#F6921E"/>
<path d="M176.447 112.055C183.987 112.055 190.098 105.943 190.098 98.4035C190.098 90.8642 183.987 84.7524 176.447 84.7524C168.908 84.7524 162.796 90.8642 162.796 98.4035C162.796 105.943 168.908 112.055 176.447 112.055Z" fill="#F6921E"/>
<path d="M131.65 197.45C139.189 197.45 145.301 191.338 145.301 183.799C145.301 176.26 139.189 170.148 131.65 170.148C124.111 170.148 117.999 176.26 117.999 183.799C117.999 191.338 124.111 197.45 131.65 197.45Z" fill="#F6921E"/>
<path d="M99.4472 185.549C104.667 185.549 108.898 181.318 108.898 176.099C108.898 170.879 104.667 166.648 99.4472 166.648C94.2277 166.648 89.9964 170.879 89.9964 176.099C89.9964 181.318 94.2277 185.549 99.4472 185.549Z" fill="#FFC10E"/>
<path d="M185.548 138.651C190.768 138.651 194.999 134.42 194.999 129.2C194.999 123.981 190.768 119.75 185.548 119.75C180.329 119.75 176.098 123.981 176.098 129.2C176.098 134.42 180.329 138.651 185.548 138.651Z" fill="#FFC10E"/>
<path d="M101.547 89.6527C106.767 89.6527 110.998 85.4215 110.998 80.202C110.998 74.9825 106.767 70.7512 101.547 70.7512C96.3277 70.7512 92.0965 74.9825 92.0965 80.202C92.0965 85.4215 96.3277 89.6527 101.547 89.6527Z" fill="#FFC10E"/>
</svg>
