<svg width="250" height="250" viewBox="0 0 250 250" fill="none" xmlns="http://www.w3.org/2000/svg">
<mask id="path-1-inside-1_769_568" fill="white">
<path d="M0 48C0 21.4903 21.4903 0 48 0H202C228.51 0 250 21.4903 250 48V202C250 228.51 228.51 250 202 250H48C21.4903 250 0 228.51 0 202V48Z"/>
</mask>
<path d="M0 48C0 21.4903 21.4903 0 48 0H202C228.51 0 250 21.4903 250 48V202C250 228.51 228.51 250 202 250H48C21.4903 250 0 228.51 0 202V48Z" fill="white"/>
<path d="M48 0V2H202V0V-2H48V0ZM250 48H248V202H250H252V48H250ZM202 250V248H48V250V252H202V250ZM0 202H2V48H0H-2V202H0ZM48 250V248C22.5949 248 2 227.405 2 202H0H-2C-2 229.614 20.3858 252 48 252V250ZM250 202H248C248 227.405 227.405 248 202 248V250V252C229.614 252 252 229.614 252 202H250ZM202 0V2C227.405 2 248 22.5949 248 48H250H252C252 20.3858 229.614 -2 202 -2V0ZM48 0V-2C20.3858 -2 -2 20.3858 -2 48H0H2C2 22.5949 22.5949 2 48 2V0Z" fill="#DDDBDB" mask="url(#path-1-inside-1_769_568)"/>
<path d="M174.013 81L189.145 84.6068C193.921 85.726 198.642 86.7428 203.418 87.946C202.763 89.0781 202.195 90.3497 201.619 91.5301L198.869 97.1015C194.253 95.6758 189.546 94.4643 184.909 93.1102C183.477 92.6923 181.999 92.3293 180.641 91.702C180.435 92.6099 179.838 94.2243 179.521 95.1407C178.529 98.0287 177.441 100.882 176.257 103.697C169.189 120.883 159.04 137.233 145.945 150.478C144.434 152.006 142.465 153.7 140.853 155.183C139.364 156.374 137.909 157.633 136.394 158.796C132.396 161.921 128.121 164.675 123.622 167.023C122.384 167.673 120.947 168.459 119.673 169C124.728 165.276 130.812 159.022 134.971 154.28C150.478 136.598 162.034 115.213 170.028 93.1645C171.4 89.3793 172.804 84.8651 174.013 81Z" fill="#FA956C"/>
<path d="M139.095 98.7071C141.658 98.7342 144.438 98.6096 147.028 98.5802L164.716 98.4639C163.486 100.677 162.592 103.675 161.432 106.006C156.771 106.047 152.11 106.144 147.451 106.299C147.328 109.171 146.937 112.549 146.529 115.427C144.445 130.113 139.825 147.494 128.63 157.975C127.725 158.823 126.289 159.925 125.291 160.721C129.363 153.622 132.817 144.473 135.073 136.614L135.114 136.471C135.764 134.205 136.771 130.697 137.115 128.46C137.07 128.481 136.897 128.481 136.546 128.481V122.133C138.455 122.131 136.544 122.052 138.398 122.177C138.924 117.864 139.47 113.87 139.513 109.485C139.55 105.885 139.209 102.316 139.095 98.7071Z" fill="#FA956C"/>
<rect x="36.582" y="136.576" width="64.5568" height="6.33321" fill="url(#paint0_linear_769_568)"/>
<rect x="77.8164" y="151.844" width="41.8571" height="6.33321" fill="url(#paint1_linear_769_568)"/>
<rect x="70.6611" y="122.139" width="69.9844" height="6.33321" fill="url(#paint2_linear_769_568)"/>
<defs>
<linearGradient id="paint0_linear_769_568" x1="36.582" y1="139.743" x2="117.734" y2="139.743" gradientUnits="userSpaceOnUse">
<stop stop-color="#FA956C" stop-opacity="0"/>
<stop offset="1" stop-color="#FA956C"/>
</linearGradient>
<linearGradient id="paint1_linear_769_568" x1="84.2515" y1="155.01" x2="124.642" y2="155.01" gradientUnits="userSpaceOnUse">
<stop stop-color="#FA956C" stop-opacity="0"/>
<stop offset="1" stop-color="#FA956C"/>
</linearGradient>
<linearGradient id="paint2_linear_769_568" x1="74.389" y1="125.305" x2="138.289" y2="125.305" gradientUnits="userSpaceOnUse">
<stop stop-color="#FA956C" stop-opacity="0"/>
<stop offset="1" stop-color="#FA956C"/>
</linearGradient>
</defs>
</svg>
