<svg width="250" height="250" viewBox="0 0 250 250" fill="none" xmlns="http://www.w3.org/2000/svg">
<rect width="250" height="250" fill="white"/>
<path d="M127.221 57.3153C112.665 57.2661 98.4778 61.8608 86.7405 70.4248C75.0031 78.9888 66.3344 91.0711 62.0069 104.898C61.9488 105.087 61.9359 105.286 61.9692 105.481C62.0025 105.675 62.0811 105.859 62.1986 106.018C62.3162 106.177 62.4695 106.307 62.6463 106.396C62.8231 106.486 63.0185 106.533 63.2169 106.533H89.3939C89.6272 106.536 89.8566 106.473 90.0564 106.353C90.2562 106.233 90.4189 106.061 90.5263 105.854C94.135 99.1043 99.5589 93.485 106.192 89.6244C112.825 85.7637 120.407 83.814 128.09 83.9926C150.233 84.3937 167.374 102.513 168.173 123.395C168.526 132.681 165.699 141.812 160.156 149.292C154.612 156.771 146.681 162.156 137.659 164.565C128.638 166.974 119.062 166.264 110.5 162.552C101.937 158.84 94.8946 152.345 90.5263 144.131C90.4201 143.927 90.2599 143.756 90.063 143.636C89.8661 143.516 89.6401 143.452 89.4094 143.452H63.2169C63.0185 143.452 62.8231 143.499 62.6463 143.589C62.4695 143.678 62.3162 143.808 62.1986 143.967C62.0811 144.126 62.0025 144.31 61.9692 144.504C61.9359 144.699 61.9488 144.898 62.0069 145.087C65.7382 157.033 72.7237 167.715 82.1878 175.95C91.652 184.185 103.225 189.649 115.621 191.736C128.018 193.823 140.752 192.451 152.413 187.773C164.073 183.095 174.202 175.293 181.676 165.235C189.15 155.176 193.676 143.253 194.751 130.789C195.826 118.327 193.41 105.811 187.769 94.6313C182.128 83.4522 173.483 74.047 162.795 67.4598C152.107 60.8727 139.793 57.3612 127.221 57.3153Z" fill="#1DCF9F"/>
<path fill-rule="evenodd" clip-rule="evenodd" d="M88.451 137.758H56.3585C56.1794 137.758 56.0021 137.721 55.8368 137.652C55.6715 137.582 55.5214 137.479 55.3952 137.35C55.2689 137.221 55.169 137.068 55.1012 136.9C55.0334 136.731 54.999 136.551 55 136.369V114.393C54.999 114.211 55.0334 114.031 55.1012 113.862C55.169 113.694 55.2689 113.541 55.3952 113.412C55.5214 113.283 55.6715 113.18 55.8368 113.11C56.0021 113.04 56.1794 113.004 56.3585 113.004H88.451C88.63 113.004 88.8073 113.04 88.9726 113.11C89.1379 113.18 89.288 113.283 89.4142 113.412C89.5405 113.541 89.6404 113.694 89.7082 113.862C89.776 114.031 89.8104 114.211 89.8094 114.393V136.369C89.8104 136.551 89.776 136.731 89.7082 136.9C89.6404 137.068 89.5405 137.221 89.4142 137.35C89.288 137.479 89.1379 137.582 88.9726 137.652C88.8073 137.721 88.63 137.758 88.451 137.758Z" fill="#210F60"/>
</svg>
