<svg width="250" height="250" viewBox="0 0 250 250" fill="none" xmlns="http://www.w3.org/2000/svg">
<mask id="path-1-inside-1_769_571" fill="white">
<path d="M0 48C0 21.4903 21.4903 0 48 0H202C228.51 0 250 21.4903 250 48V202C250 228.51 228.51 250 202 250H48C21.4903 250 0 228.51 0 202V48Z"/>
</mask>
<path d="M0 48C0 21.4903 21.4903 0 48 0H202C228.51 0 250 21.4903 250 48V202C250 228.51 228.51 250 202 250H48C21.4903 250 0 228.51 0 202V48Z" fill="white"/>
<path d="M48 0V2H202V0V-2H48V0ZM250 48H248V202H250H252V48H250ZM202 250V248H48V250V252H202V250ZM0 202H2V48H0H-2V202H0ZM48 250V248C22.5949 248 2 227.405 2 202H0H-2C-2 229.614 20.3858 252 48 252V250ZM250 202H248C248 227.405 227.405 248 202 248V250V252C229.614 252 252 229.614 252 202H250ZM202 0V2C227.405 2 248 22.5949 248 48H250H252C252 20.3858 229.614 -2 202 -2V0ZM48 0V-2C20.3858 -2 -2 20.3858 -2 48H0H2C2 22.5949 22.5949 2 48 2V0Z" fill="#DDDBDB" mask="url(#path-1-inside-1_769_571)"/>
<path d="M127.221 57.3158C112.665 57.2666 98.4778 61.8612 86.7405 70.4253C75.0031 78.9893 66.3344 91.0716 62.0069 104.898C61.9488 105.087 61.9359 105.287 61.9692 105.481C62.0025 105.676 62.0811 105.86 62.1986 106.019C62.3162 106.177 62.4695 106.307 62.6463 106.396C62.8231 106.486 63.0185 106.533 63.2169 106.534H89.3939C89.6272 106.536 89.8566 106.474 90.0564 106.354C90.2562 106.234 90.4189 106.061 90.5263 105.855C94.135 99.1048 99.5589 93.4855 106.192 89.6249C112.825 85.7642 120.407 83.8145 128.09 83.9931C150.233 84.3942 167.374 102.514 168.173 123.395C168.526 132.682 165.699 141.813 160.156 149.292C154.612 156.772 146.681 162.157 137.659 164.566C128.638 166.975 119.062 166.265 110.5 162.552C101.937 158.84 94.8946 152.345 90.5263 144.131C90.4201 143.927 90.2599 143.756 90.063 143.637C89.8661 143.516 89.6401 143.453 89.4094 143.452H63.2169C63.0185 143.453 62.8231 143.5 62.6463 143.59C62.4695 143.679 62.3162 143.809 62.1986 143.968C62.0811 144.126 62.0025 144.31 61.9692 144.505C61.9359 144.7 61.9488 144.899 62.0069 145.088C65.7382 157.033 72.7237 167.716 82.1878 175.951C91.652 184.185 103.225 189.65 115.621 191.736C128.018 193.823 140.752 192.452 152.413 187.774C164.073 183.095 174.202 175.294 181.676 165.235C189.15 155.176 193.676 143.253 194.751 130.79C195.826 118.327 193.41 105.811 187.769 94.6318C182.128 83.4527 173.483 74.0475 162.795 67.4603C152.107 60.8731 139.793 57.3616 127.221 57.3158Z" fill="#1DCF9F"/>
<path fill-rule="evenodd" clip-rule="evenodd" d="M88.451 137.758H56.3585C56.1794 137.758 56.0021 137.722 55.8368 137.653C55.6715 137.582 55.5214 137.48 55.3952 137.351C55.2689 137.222 55.169 137.069 55.1012 136.9C55.0334 136.732 54.999 136.552 55 136.369V114.394C54.999 114.212 55.0334 114.031 55.1012 113.863C55.169 113.695 55.2689 113.542 55.3952 113.413C55.5214 113.283 55.6715 113.181 55.8368 113.111C56.0021 113.041 56.1794 113.005 56.3585 113.005H88.451C88.63 113.005 88.8073 113.041 88.9726 113.111C89.1379 113.181 89.288 113.283 89.4142 113.413C89.5405 113.542 89.6404 113.695 89.7082 113.863C89.776 114.031 89.8104 114.212 89.8094 114.394V136.369C89.8104 136.552 89.776 136.732 89.7082 136.9C89.6404 137.069 89.5405 137.222 89.4142 137.351C89.288 137.48 89.1379 137.582 88.9726 137.653C88.8073 137.722 88.63 137.758 88.451 137.758Z" fill="#210F60"/>
</svg>
