<svg width="250" height="250" viewBox="0 0 250 250" fill="none" xmlns="http://www.w3.org/2000/svg">
<rect width="250" height="250" fill="#0A1F34"/>
<path d="M176.492 61.0623H66.7512C63.0369 61.0623 59.998 64.1068 59.998 67.8282V80.0068C59.998 83.7281 63.0369 86.7727 66.7512 86.7727H176.154C179.868 86.7727 182.907 83.7281 182.907 80.0068V67.8282C183.245 64.1068 180.206 61.0623 176.492 61.0623ZM176.492 129.06H66.7512C63.0369 129.06 59.998 132.104 59.998 135.826V148.004C59.998 151.726 63.0369 154.77 66.7512 154.77H176.154C179.868 154.77 182.907 151.726 182.907 148.004V135.826C183.245 132.104 180.206 129.06 176.492 129.06V129.06ZM128.544 163.228H66.7512C63.0369 163.228 59.998 166.272 59.998 169.994V182.172C59.998 185.893 63.0369 188.938 66.7512 188.938H128.544C132.258 188.938 135.297 185.893 135.297 182.172V169.994C135.297 166.272 132.258 163.228 128.544 163.228V163.228ZM183.245 95.2302H66.7512C63.0369 95.2302 59.998 98.2748 59.998 101.996V114.175C59.998 117.896 63.0369 120.941 66.7512 120.941H183.245C186.959 120.941 189.998 117.896 189.998 114.175V101.996C189.998 98.2748 186.959 95.2302 183.245 95.2302V95.2302Z" fill="#0BA4DB"/>
</svg>
