<svg width="250" height="250" viewBox="0 0 250 250" fill="none" xmlns="http://www.w3.org/2000/svg">
<path d="M0 48C0 21.4903 21.4903 0 48 0H202C228.51 0 250 21.4903 250 48V202C250 228.51 228.51 250 202 250H48C21.4903 250 0 228.51 0 202V48Z" fill="#0A1F34"/>
<path d="M176.493 61.0625H66.7522C63.0379 61.0625 59.999 64.1071 59.999 67.8284V80.007C59.999 83.7284 63.0379 86.773 66.7522 86.773H176.155C179.869 86.773 182.908 83.7284 182.908 80.007V67.8284C183.246 64.1071 180.207 61.0625 176.493 61.0625ZM176.493 129.06H66.7522C63.0379 129.06 59.999 132.105 59.999 135.826V148.004C59.999 151.726 63.0379 154.77 66.7522 154.77H176.155C179.869 154.77 182.908 151.726 182.908 148.004V135.826C183.246 132.105 180.207 129.06 176.493 129.06V129.06ZM128.545 163.228H66.7522C63.0379 163.228 59.999 166.272 59.999 169.994V182.172C59.999 185.894 63.0379 188.938 66.7522 188.938H128.545C132.259 188.938 135.298 185.894 135.298 182.172V169.994C135.298 166.272 132.259 163.228 128.545 163.228V163.228ZM183.246 95.2304H66.7522C63.0379 95.2304 59.999 98.275 59.999 101.996V114.175C59.999 117.896 63.0379 120.941 66.7522 120.941H183.246C186.96 120.941 189.999 117.896 189.999 114.175V101.996C189.999 98.275 186.96 95.2304 183.246 95.2304V95.2304Z" fill="#0BA4DB"/>
</svg>
