<svg width="250" height="250" viewBox="0 0 250 250" fill="none" xmlns="http://www.w3.org/2000/svg">
<rect width="250" height="250" fill="#753FF6"/>
<path d="M156.64 62.0925C145.813 60.7268 134.888 60.044 123.866 60.044C119.184 59.849 113.038 60.3367 106.796 60.8244C101.431 61.2146 95.9684 61.6047 90.701 62.5802C81.1418 64.4335 72.0702 75.4559 70.8997 86.5759C69.1439 103.646 68.6562 120.716 69.2415 137.884C69.6316 150.369 74.0211 160.514 82.2147 168.61C85.5312 171.829 89.1403 174.658 93.0421 177.096C100.26 181.681 107.966 185.095 115.672 188.216C120.452 190.167 125.817 190.557 130.791 189.192C138.595 187.143 145.716 183.241 152.934 179.437C157.908 176.804 162.591 173.487 166.687 169.585C173.906 162.757 178.88 154.271 180.148 143.444C180.636 139.249 180.734 134.957 180.929 130.665C181.221 116.424 180.539 102.28 179.173 88.039C177.905 74.2854 168.541 63.4581 156.543 61.9949L156.64 62.0925ZM91.4814 78.7724C91.8715 78.2847 92.3593 77.797 92.847 77.5043C93.2371 77.3092 93.6273 77.0166 94.0175 76.9191L94.6028 76.6264C94.9929 76.4313 95.5782 76.3338 96.0659 76.1387C96.3585 76.1387 96.6512 75.9436 96.9438 75.9436C97.4315 75.9436 98.1143 75.8461 98.6996 75.7485H100.748C109.039 75.9436 117.135 76.1387 125.036 76.4313C132.937 76.1387 141.131 75.9436 149.325 75.7485H151.373C151.958 75.7485 152.544 75.9436 153.129 75.9436C153.421 75.9436 153.714 76.1387 154.007 76.1387C154.494 76.2363 154.982 76.4313 155.47 76.6264C155.665 76.6264 155.86 76.8215 156.055 76.9191L157.226 77.5043C157.713 77.8945 158.201 78.2847 158.591 78.7724C160.347 81.0159 160.542 84.2348 159.372 88.039C159.176 88.7218 159.079 89.3071 158.884 89.9899C158.591 91.0629 158.396 92.2334 158.299 93.4039C158.104 94.4769 158.006 95.6474 158.006 96.7204V101.402C156.835 101.695 155.567 101.988 154.202 102.28C154.007 100.134 153.909 98.086 154.007 95.94C154.007 94.8671 154.104 93.6965 154.299 92.6236C154.397 91.453 154.69 90.3801 154.885 89.2095C154.885 88.9169 154.982 88.6243 155.08 88.4292C155.762 85.7955 155.47 83.4545 154.104 81.7962C152.739 79.9429 150.3 79.065 147.081 79.1626C139.765 79.3576 132.45 79.6503 125.134 79.9429C117.818 79.6503 110.502 79.3576 103.187 79.1626C99.9677 79.1626 97.5291 79.9429 96.1634 81.7962C94.7978 83.4545 94.5052 85.7955 95.188 88.4292C95.188 88.7218 95.188 88.9169 95.3831 89.2095C95.6757 90.2825 95.8708 91.453 95.9684 92.6236C96.1634 93.6965 96.261 94.8671 96.261 95.94C96.261 98.086 96.261 100.134 96.0659 102.28C94.7003 101.988 93.4322 101.695 92.2617 101.402V96.7204C92.2617 95.6474 92.1642 94.4769 91.9691 93.4039C91.8715 92.2334 91.6765 91.1604 91.3838 89.9899C91.1887 89.3071 91.0912 88.7218 90.8961 88.039C89.628 84.2348 89.8231 81.0159 91.5789 78.7724H91.4814ZM99.675 95.5499C103.869 95.5499 107.088 94.7695 109.429 93.2088C110.99 92.3309 112.258 90.8678 112.843 89.112C113.331 87.9415 113.429 86.5759 113.234 85.3078C113.234 84.8201 113.038 84.4299 112.941 83.9422L112.356 82.479C116.355 82.6741 120.647 82.7717 124.939 82.9668C129.231 82.7717 133.523 82.6741 137.522 82.479L136.937 83.9422C136.839 84.4299 136.742 84.8201 136.644 85.3078C136.449 86.5759 136.644 87.8439 137.034 89.112C137.619 90.8678 138.887 92.2334 140.448 93.2088C142.789 94.7695 146.106 95.5499 150.203 95.5499C150.203 97.9884 150.203 100.329 150.495 102.768C142.009 104.329 133.425 104.914 124.841 104.621C116.257 104.914 107.674 104.231 99.1873 102.768C99.3824 100.427 99.4799 97.9884 99.3824 95.5499H99.675ZM98.7971 88.3316V87.9415C98.407 86.2832 98.602 84.9176 99.3824 83.8446C100.26 82.7717 101.821 82.1864 103.869 82.2839H108.649C109.332 83.552 109.722 84.8201 109.722 86.1857C109.722 87.1611 109.429 88.1366 108.844 88.9169C108.551 89.4046 108.064 89.8923 107.576 90.185C105.82 91.453 103.089 92.1358 99.4799 92.1358V91.8432C99.2848 90.6727 99.0898 89.5022 98.7971 88.3316ZM150.788 91.8432V92.1358C147.179 92.1358 144.35 91.453 142.692 90.185C142.204 89.8923 141.814 89.4046 141.424 88.9169C140.838 88.1366 140.546 87.1611 140.546 86.1857C140.546 84.8201 141.033 83.552 141.619 82.479H146.398C148.447 82.2839 150.007 82.8692 150.885 83.9422C151.763 84.9176 151.861 86.3808 151.471 88.039V88.4292C151.178 89.5997 150.885 90.7702 150.788 91.9407V91.8432ZM168.638 112.035C168.541 114.376 167.078 116.327 164.834 117.107C138.887 124.715 111.283 124.715 85.3361 117.107C83.1902 116.327 81.6295 114.376 81.5319 112.035V106.28C81.5319 104.134 83.1902 102.963 85.3361 103.548C111.283 111.157 138.887 111.157 164.834 103.548C166.98 102.963 168.638 104.134 168.638 106.28V112.035Z" fill="white"/>
</svg>
