<svg width="250" height="250" viewBox="0 0 250 250" fill="none" xmlns="http://www.w3.org/2000/svg">
<mask id="path-1-inside-1_769_573" fill="white">
<path d="M0 48C0 21.4903 21.4903 0 48 0H202C228.51 0 250 21.4903 250 48V202C250 228.51 228.51 250 202 250H48C21.4903 250 0 228.51 0 202V48Z"/>
</mask>
<path d="M0 48C0 21.4903 21.4903 0 48 0H202C228.51 0 250 21.4903 250 48V202C250 228.51 228.51 250 202 250H48C21.4903 250 0 228.51 0 202V48Z" fill="white"/>
<path d="M48 0V2H202V0V-2H48V0ZM250 48H248V202H250H252V48H250ZM202 250V248H48V250V252H202V250ZM0 202H2V48H0H-2V202H0ZM48 250V248C22.5949 248 2 227.405 2 202H0H-2C-2 229.614 20.3858 252 48 252V250ZM250 202H248C248 227.405 227.405 248 202 248V250V252C229.614 252 252 229.614 252 202H250ZM202 0V2C227.405 2 248 22.5949 248 48H250H252C252 20.3858 229.614 -2 202 -2V0ZM48 0V-2C20.3858 -2 -2 20.3858 -2 48H0H2C2 22.5949 22.5949 2 48 2V0Z" fill="#DDDBDB" mask="url(#path-1-inside-1_769_573)"/>
<path d="M82.1632 92.313C82.2759 92.0377 82.3987 91.7666 82.5014 91.4884C87.9326 76.9807 97.5475 66.1338 111.183 58.8521C117.429 55.5166 124.144 53.5278 131.148 52.6461C142.063 51.2708 152.603 52.7702 162.702 57.1929C163.457 57.5239 163.481 57.6095 163.116 58.367C162.786 59.0518 162.416 59.7209 162.142 60.4271C161.902 61.0435 161.607 61.1362 161.007 60.868C157.482 59.2944 153.821 58.1359 150.041 57.3484C145.036 56.3069 139.989 55.976 134.886 56.3355C127.991 56.822 121.369 58.3927 115.149 61.4258C98.9577 69.321 88.6235 81.9769 84.3542 99.5205C83.2237 104.164 82.7113 108.875 82.9225 113.644C83.502 126.706 87.8256 138.326 96.407 148.28C103.39 156.377 111.928 162.117 122.19 165.23C128.469 167.134 134.892 168.027 141.451 167.701C148.279 167.36 154.82 165.738 161.083 163C161.387 162.867 161.698 162.744 161.994 162.593C162.539 162.314 162.809 162.462 162.939 163.071C163.097 163.813 163.288 164.555 163.56 165.261C163.831 165.967 163.652 166.314 162.959 166.609C159.433 168.109 155.826 169.354 152.091 170.217C146.36 171.543 140.562 172.038 134.694 171.624C122.17 170.739 110.992 166.407 101.204 158.524C92.4817 151.495 86.1784 142.748 82.4429 132.173C82.3616 131.941 82.2488 131.722 82.1517 131.498C82.0889 131.508 82.0276 131.518 81.9648 131.528C81.9476 131.866 81.9176 132.204 81.9176 132.542C81.9148 154.61 81.9162 176.676 81.9162 198.743C81.9162 199.846 81.9162 199.846 80.79 199.846C78.2007 199.846 75.61 199.846 73.0208 199.846C72.0059 199.846 72.0059 199.845 72.0059 198.842C72.0059 175.041 72.0059 151.24 72.0059 127.439C72.0059 103.163 72.0045 78.8867 72.0088 54.6106C72.0088 53.1255 71.8261 53.3052 73.3534 53.301C75.9169 53.2924 78.4834 53.3195 81.0484 53.2824C81.7335 53.2724 81.9291 53.4707 81.9291 54.1612C81.9091 66.5361 81.9148 78.9124 81.9148 91.2887C81.9148 91.6125 81.9148 91.9378 81.9148 92.2617C81.9976 92.2788 82.0804 92.2959 82.1632 92.313Z" fill="#A3238E"/>
<path d="M140.047 134.618C128.146 134.786 117.32 125.023 117.336 111.858C117.35 99.6018 127.104 89.2571 139.986 89.2599C152.909 89.2628 162.67 99.7045 162.648 112.014C162.626 125.159 151.837 134.788 140.047 134.618Z" fill="#A3238E"/>
<path d="M139.954 59.2301C152.359 59.1459 163.239 63.3589 172.849 71.0614C182.907 79.1221 188.971 89.5838 191.502 102.157C191.685 103.064 191.811 103.982 191.97 104.893C192.059 105.4 191.959 105.702 191.348 105.725C190.686 105.749 190.026 105.852 189.37 105.952C188.757 106.046 188.502 105.861 188.408 105.196C187.638 99.7174 186.01 94.5015 183.458 89.5881C178.505 80.058 171.218 72.8662 161.661 67.977C156.253 65.2107 150.506 63.4944 144.466 62.9608C129.357 61.6283 116.192 66.1081 105.17 76.5655C98.5768 82.82 94.0906 90.3898 91.7211 99.1795C90.1353 105.06 89.65 111.028 90.2795 117.104C91.4628 128.537 96.0661 138.347 104.037 146.609C106.406 149.064 108.995 151.244 111.832 153.136C112.549 153.615 112.547 153.667 111.943 154.291C111.547 154.701 111.152 155.113 110.77 155.535C110.109 156.266 110.047 156.32 109.259 155.685C107.004 153.871 104.645 152.157 102.572 150.15C94.897 142.717 89.8584 133.773 87.6317 123.293C86.5683 118.291 86.2471 113.219 86.5911 108.136C87.4747 95.0878 92.9087 84.0811 101.924 74.7536C108.417 68.0369 116.209 63.503 125.233 61.0948C129.286 60.0134 133.412 59.3956 137.604 59.2315C138.387 59.2044 139.17 59.2301 139.954 59.2301Z" fill="#A3238E"/>
<path d="M92.4785 112.477C92.6327 103.364 95.1049 94.988 99.9252 87.2898C100.498 86.3753 100.51 86.3781 101.367 87.0016C101.712 87.2527 102.055 87.5166 102.429 87.7192C102.97 88.0131 103.031 88.3113 102.68 88.8434C100.842 91.6325 99.3799 94.6128 98.2666 97.7615C96.2211 103.547 95.3775 109.493 95.86 115.62C96.7036 126.315 100.843 135.542 108.361 143.179C114.993 149.916 123.044 154.085 132.38 155.605C141.365 157.069 150.088 156.011 158.269 151.946C170.364 145.937 178.403 136.488 181.838 123.302C182.887 119.276 183.363 115.188 183.217 111.034C183.1 107.701 182.583 104.424 181.741 101.197C181.501 100.277 181.557 100.23 182.484 100.158C182.98 100.12 183.481 100.087 183.969 99.9928C184.493 99.8915 184.716 100.113 184.802 100.592C185.241 103.066 185.815 105.524 186.096 108.015C186.466 111.296 186.41 114.599 186.028 117.892C185.393 123.374 183.892 128.613 181.346 133.498C174.537 146.56 163.995 155.053 149.567 158.146C134.327 161.413 120.565 157.911 108.676 147.713C100.134 140.386 95.1163 131.024 93.2607 119.967C92.8454 117.498 92.7312 114.976 92.4785 112.477Z" fill="#A3238E"/>
<path d="M179.636 112.416C179.612 123.67 175.631 132.773 168.439 140.534C161.674 147.833 153.193 151.859 143.379 152.945C126.859 154.772 111.142 146.465 103.213 131.919C102.622 130.836 102.622 130.836 103.717 130.332C105.074 129.707 105.043 129.726 105.784 131.003C111.666 141.145 120.263 147.563 131.833 149.808C140.144 151.42 148.175 150.532 155.742 146.622C163.984 142.362 170.304 136.204 173.947 127.54C175.665 123.454 176.508 119.164 176.834 114.752C177.163 110.32 176.73 105.98 175.487 101.723C173.823 96.0252 170.762 91.1418 166.797 86.7648C161.833 81.2849 155.755 77.6997 148.634 75.8208C147.746 75.5869 147.747 75.5812 148.124 74.728C148.855 73.0759 148.866 73.0403 150.563 73.5781C162.889 77.48 171.656 85.3324 176.696 97.2564C178.306 101.066 179.138 105.086 179.451 109.209C179.548 110.462 179.598 111.718 179.636 112.416Z" fill="#A3238E"/>
<path d="M163.731 87.7677C163.303 88.1743 162.887 88.6365 162.395 88.9917C162.261 89.0888 161.843 88.9304 161.644 88.7763C160.021 87.5023 158.501 86.0785 156.794 84.9329C152.275 81.8998 147.268 80.2249 141.833 79.6685C125.758 78.0236 112.755 88.3483 108.293 99.686C104.75 108.69 104.567 117.799 108.921 126.577C113.413 135.636 120.53 141.79 130.48 144.352C133.812 145.209 137.207 145.553 140.65 145.332C140.811 145.322 140.973 145.331 141.227 145.331C141.177 145.998 141.181 146.635 141.05 147.244C141.013 147.416 140.587 147.599 140.33 147.615C137.304 147.804 134.278 147.66 131.347 146.919C117.067 143.302 107.765 134.517 104.373 120.069C100.723 104.514 108.383 88.394 122.591 81.0909C126.805 78.9252 131.308 77.7539 136.023 77.3445C146.18 76.4628 154.891 79.7841 162.468 86.4123C162.86 86.7562 163.223 87.1342 163.594 87.5009C163.641 87.5465 163.658 87.6236 163.731 87.7677Z" fill="#A3238E"/>
</svg>
