<svg width="250" height="250" viewBox="0 0 250 250" fill="none" xmlns="http://www.w3.org/2000/svg">
<mask id="path-1-inside-1_769_579" fill="white">
<path d="M0 48C0 21.4903 21.4903 0 48 0H202C228.51 0 250 21.4903 250 48V202C250 228.51 228.51 250 202 250H48C21.4903 250 0 228.51 0 202V48Z"/>
</mask>
<path d="M0 48C0 21.4903 21.4903 0 48 0H202C228.51 0 250 21.4903 250 48V202C250 228.51 228.51 250 202 250H48C21.4903 250 0 228.51 0 202V48Z" fill="white"/>
<path d="M48 0V2H202V0V-2H48V0ZM250 48H248V202H250H252V48H250ZM202 250V248H48V250V252H202V250ZM0 202H2V48H0H-2V202H0ZM48 250V248C22.5949 248 2 227.405 2 202H0H-2C-2 229.614 20.3858 252 48 252V250ZM250 202H248C248 227.405 227.405 248 202 248V250V252C229.614 252 252 229.614 252 202H250ZM202 0V2C227.405 2 248 22.5949 248 48H250H252C252 20.3858 229.614 -2 202 -2V0ZM48 0V-2C20.3858 -2 -2 20.3858 -2 48H0H2C2 22.5949 22.5949 2 48 2V0Z" fill="#DDDBDB" mask="url(#path-1-inside-1_769_579)"/>
<path d="M81.4303 102.941C94.0344 103.122 106.714 102.831 119.326 102.951C124.786 103.003 129.336 102.769 134.761 104.025C142.226 105.758 149.104 109.427 154.701 114.662C164.191 123.603 168.178 133.859 168.571 146.681L140.456 146.673C123.043 146.681 109.397 148.015 95.52 135.02C86.0635 126.163 82.0023 115.575 81.4303 102.941Z" fill="url(#paint0_linear_769_579)"/>
<path d="M125.065 151.021C139.376 151.251 154.254 151.061 168.618 151.06C168.219 163.924 164.565 172.838 155.728 182.261C154.401 183.605 152.631 184.964 151.115 186.122C142.969 192.344 135.051 194.297 125.059 195C124.939 189.176 125.02 183.107 125.022 177.264L125.065 151.021Z" fill="url(#paint1_linear_769_579)"/>
<path d="M121.514 55.1117L125.041 55C124.943 69.4404 124.919 83.8813 124.969 98.322L84.7904 98.2905L81.3809 98.3007C81.9438 86.8547 84.9255 78.3047 92.4867 69.4067C99.4348 61.2304 110.852 55.8307 121.514 55.1117Z" fill="url(#paint2_linear_769_579)"/>
<defs>
<linearGradient id="paint0_linear_769_579" x1="125" y1="55" x2="125" y2="195" gradientUnits="userSpaceOnUse">
<stop stop-color="#40AAFE"/>
<stop offset="1" stop-color="#A158FD"/>
</linearGradient>
<linearGradient id="paint1_linear_769_579" x1="125" y1="55" x2="125" y2="195" gradientUnits="userSpaceOnUse">
<stop stop-color="#40AAFE"/>
<stop offset="1" stop-color="#A158FD"/>
</linearGradient>
<linearGradient id="paint2_linear_769_579" x1="125" y1="55" x2="125" y2="195" gradientUnits="userSpaceOnUse">
<stop stop-color="#40AAFE"/>
<stop offset="1" stop-color="#A158FD"/>
</linearGradient>
</defs>
</svg>
