<svg width="250" height="250" viewBox="0 0 250 250" fill="none" xmlns="http://www.w3.org/2000/svg">
<path d="M0 48C0 21.4903 21.4903 0 48 0H202C228.51 0 250 21.4903 250 48V202C250 228.51 228.51 250 202 250H48C21.4903 250 0 228.51 0 202V48Z" fill="#15233C"/>
<path d="M91.3688 60.7167L153.413 60.7052L168.512 60.6962C170.95 60.6928 175.35 60.5613 177.584 60.933C180.597 61.4109 183.377 62.8418 185.517 65.0157C187.824 67.3282 189.801 70.881 189.82 74.2012C190.134 76.7188 189.941 83.0839 189.941 85.9415L189.952 109.58L189.949 147.327L189.948 159.409C189.948 161.296 190.024 163.944 189.927 165.756C190.013 168.955 190.055 172.494 189.861 175.654C189.403 183.107 182.558 189.334 175.124 189.245C171.922 189.208 168.067 189.469 164.919 189.222C161.202 189.406 155.74 189.252 151.907 189.253H126.436L92.614 189.248C86.5572 189.248 80.0442 189.364 74.0153 189.199C70.3254 188.976 66.8514 187.384 64.2733 184.735C62.1602 182.59 60.7497 179.852 60.229 176.886C59.9105 175.016 60.0173 169.873 60.0169 167.781L60.0183 151.036L60.0555 92.8374C59.9905 91.7403 60.0199 90.4891 60.0196 89.3801L60.0233 80.4551C60.0229 74.585 59.8085 69.6938 64.3813 65.1052C69.2255 60.2443 74.548 60.7223 80.8034 60.7104L91.3688 60.7167Z" fill="url(#paint0_linear_769_574)"/>
<path d="M155.38 115.104C141.617 107.306 130.452 91.372 126.84 76.1295C125.975 72.4775 125.649 68.5965 125.087 65.041C124.839 66.8944 124.557 68.8728 124.291 70.7624C122.534 80.0859 119.945 87.5202 114.675 95.5592C103.094 113.226 84.8149 123.307 63.9785 124.965L64.0739 124.992C68.0179 125.473 71.8657 125.817 75.7422 126.807C88.0054 129.837 99.1299 136.351 107.773 145.563C109.864 147.777 112.895 151.415 114.416 154.052C114.954 154.65 116.69 157.639 117.114 158.411C121.683 166.653 124.342 175.817 124.892 185.224C125.409 183.324 125.858 178.315 126.368 175.842C128.518 165.887 133.009 156.588 139.469 148.716C148.187 138.121 160.019 130.541 173.288 127.051C177.73 125.918 181.762 125.435 186.286 125.005C175.581 123.951 164.374 121.303 155.38 115.104Z" fill="#15233C"/>
<defs>
<linearGradient id="paint0_linear_769_574" x1="63.4382" y1="60.6709" x2="190" y2="198.067" gradientUnits="userSpaceOnUse">
<stop stop-color="#47AF00"/>
<stop offset="0.420869" stop-color="#F0D713"/>
<stop offset="1" stop-color="#FC7D0B"/>
</linearGradient>
</defs>
</svg>
