<svg width="250" height="250" viewBox="0 0 250 250" fill="none" xmlns="http://www.w3.org/2000/svg">
<rect width="250" height="250" fill="white"/>
<path fill-rule="evenodd" clip-rule="evenodd" d="M187.501 66.1753C187.154 62.4295 184.935 59.2736 181.414 58.5337C163.202 54.5501 144.625 52.4786 125.984 52.353C107.352 52.4801 88.7841 54.5516 70.5822 58.5337C67.0611 59.2736 64.851 62.4201 64.5139 66.1753C63.0998 81.7676 59.7754 122.101 61.4704 138.284C65.4691 176.585 93.3104 200.596 125.984 211.647C130.2 210.225 134.338 208.584 138.383 206.73L149.012 201.111C170.981 187.898 187.519 167.174 190.516 138.284C192.249 122.073 188.877 81.805 187.501 66.1753Z" fill="url(#paint0_linear_83_2077)"/>
<path fill-rule="evenodd" clip-rule="evenodd" d="M182.927 71.0717C182.618 67.588 180.548 64.6662 177.308 63.9732C160.441 60.2885 143.235 58.3739 125.971 58.2607C108.726 58.3856 91.5423 60.3127 74.6988 64.0107C71.4399 64.7037 69.3984 67.6255 69.08 71.1091C67.7595 85.5214 64.6879 122.887 66.2706 137.833C70.0164 173.278 95.7226 195.51 125.989 205.746C129.902 204.437 133.741 202.918 137.489 201.194L85.9083 97.8548L80.8514 93.9778C80.4604 93.6806 80.1418 93.2988 79.9196 92.8608C79.6974 92.4229 79.5773 91.9403 79.5684 91.4493V75.4076C79.5635 75.1965 79.6003 74.9865 79.6768 74.7897C79.7533 74.5929 79.8679 74.4132 80.0142 74.2609C80.1604 74.1085 80.3353 73.9866 80.5288 73.9022C80.7223 73.8177 80.9306 73.7724 81.1417 73.7687C81.4794 73.7746 81.8069 73.886 82.0782 74.0871L94.552 83.7234C94.9439 84.0349 95.2586 84.4329 95.4714 84.8861C95.6842 85.3393 95.7894 85.8356 95.7788 86.3361V92.7042C101.904 89.2988 108.884 87.7408 115.875 88.2185C127.244 88.8084 135.054 96.5999 148.652 97.3491C159.646 97.9203 167.175 94.0246 172.794 90.7938C173.393 98.9879 173.965 108.062 174.246 116.228L174.433 124.329C168.243 129.507 158.101 134.059 152.323 134.059C142.78 134.059 136.281 127.841 127.244 127.841C122.986 127.839 118.831 129.147 115.342 131.586L147.303 195.988C167.653 183.738 182.974 164.55 185.699 137.805C187.328 122.849 184.219 85.484 182.927 71.0717ZM119.912 190.434L116.934 189.048C95.7694 178.485 80.5049 160.964 77.939 136.503C77.246 129.788 77.5925 117.511 78.3417 105.009L119.912 190.434ZM148.643 86.7576C135.045 85.999 127.572 78.8163 116.213 78.217C112.158 77.9954 108.097 78.4931 104.216 79.6872L93.9152 72.8135L94.1961 72.7479C104.705 71.2049 115.311 70.41 125.933 70.3693C141.22 70.4675 156.461 72.064 171.436 75.136L171.97 80.6611C166.445 83.7234 159.168 87.2726 148.643 86.7107V86.7576ZM151.031 178.813L133.603 143.826C132.713 142.09 131.51 140.535 130.054 139.237C135.457 140.998 141.928 145.268 152.313 145.268C162.306 145.268 170.781 139.209 174.143 136.007C172.279 154.249 163.682 168.371 151.031 178.766V178.813Z" fill="white"/>
<defs>
<linearGradient id="paint0_linear_83_2077" x1="79.5162" y1="44.2057" x2="182.959" y2="195.034" gradientUnits="userSpaceOnUse">
<stop offset="0.04" stop-color="#179ED9"/>
<stop offset="0.22" stop-color="#1B7AB6"/>
<stop offset="0.46" stop-color="#205491"/>
<stop offset="0.67" stop-color="#233977"/>
<stop offset="0.86" stop-color="#252867"/>
<stop offset="1" stop-color="#262261"/>
</linearGradient>
</defs>
</svg>
