<svg width="250" height="250" viewBox="0 0 250 250" fill="none" xmlns="http://www.w3.org/2000/svg">
<mask id="path-1-inside-1_769_578" fill="white">
<path d="M0 48C0 21.4903 21.4903 0 48 0H202C228.51 0 250 21.4903 250 48V202C250 228.51 228.51 250 202 250H48C21.4903 250 0 228.51 0 202V48Z"/>
</mask>
<path d="M0 48C0 21.4903 21.4903 0 48 0H202C228.51 0 250 21.4903 250 48V202C250 228.51 228.51 250 202 250H48C21.4903 250 0 228.51 0 202V48Z" fill="white"/>
<path d="M48 0V2H202V0V-2H48V0ZM250 48H248V202H250H252V48H250ZM202 250V248H48V250V252H202V250ZM0 202H2V48H0H-2V202H0ZM48 250V248C22.5949 248 2 227.405 2 202H0H-2C-2 229.614 20.3858 252 48 252V250ZM250 202H248C248 227.405 227.405 248 202 248V250V252C229.614 252 252 229.614 252 202H250ZM202 0V2C227.405 2 248 22.5949 248 48H250H252C252 20.3858 229.614 -2 202 -2V0ZM48 0V-2C20.3858 -2 -2 20.3858 -2 48H0H2C2 22.5949 22.5949 2 48 2V0Z" fill="#DDDBDB" mask="url(#path-1-inside-1_769_578)"/>
<path d="M194.999 125.04C195.167 162.801 164.521 194.971 125.063 195.022C86.5669 195.067 54.97 164.034 55 124.968C55.03 85.3927 87.2568 54.8967 125.129 54.9777C163.903 55.0587 195.188 86.7125 194.999 125.04ZM127.765 97.3938C127.642 108.69 137.112 117.844 148.21 117.841C158.819 117.841 168.636 109.275 168.66 97.3638C168.684 85.3417 158.864 76.8351 148.312 76.8141C137.406 76.7931 127.636 85.8817 127.765 97.3938Z" fill="#DB353A"/>
</svg>
