<svg width="250" height="250" viewBox="0 0 250 250" fill="none" xmlns="http://www.w3.org/2000/svg">
<mask id="path-1-inside-1_769_580" fill="white">
<path d="M0 48C0 21.4903 21.4903 0 48 0H202C228.51 0 250 21.4903 250 48V202C250 228.51 228.51 250 202 250H48C21.4903 250 0 228.51 0 202V48Z"/>
</mask>
<path d="M0 48C0 21.4903 21.4903 0 48 0H202C228.51 0 250 21.4903 250 48V202C250 228.51 228.51 250 202 250H48C21.4903 250 0 228.51 0 202V48Z" fill="white"/>
<path d="M48 0V2H202V0V-2H48V0ZM250 48H248V202H250H252V48H250ZM202 250V248H48V250V252H202V250ZM0 202H2V48H0H-2V202H0ZM48 250V248C22.5949 248 2 227.405 2 202H0H-2C-2 229.614 20.3858 252 48 252V250ZM250 202H248C248 227.405 227.405 248 202 248V250V252C229.614 252 252 229.614 252 202H250ZM202 0V2C227.405 2 248 22.5949 248 48H250H252C252 20.3858 229.614 -2 202 -2V0ZM48 0V-2C20.3858 -2 -2 20.3858 -2 48H0H2C2 22.5949 22.5949 2 48 2V0Z" fill="#DDDBDB" mask="url(#path-1-inside-1_769_580)"/>
<path d="M82.4315 100.004C89.2753 98.4879 95.7204 98.7979 102.474 100.477C121.719 106.346 130.389 122.793 134.066 141.381C124.543 136.069 114.743 135.32 104.278 138.279C103.496 138.503 102.717 138.74 101.943 138.99C98.4944 140.332 95.6034 141.513 92.3755 143.439C89.6398 144.949 86.2274 147.488 83.7754 149.429C77.7814 138.411 75.96 123.416 79.3089 111.286C79.7033 109.746 80.3026 104.457 81.4363 103.624C81.5411 103.447 81.7005 102.721 81.7621 102.476C81.8937 101.828 82.2455 100.677 82.4315 100.004Z" fill="#147ABE"/>
<path d="M79.3096 111.286C79.7039 109.746 80.3033 104.457 81.437 103.624C81.1121 105.843 80.6834 108.059 80.5346 110.297C79.9736 118.734 82.1534 128.624 86.8316 135.737C94.2532 131.518 104.09 128.26 112.638 128.437C121.073 128.612 129.166 132.746 133.408 140.262C133.598 140.593 133.774 140.933 133.934 141.281C121.802 127.331 98.5921 134.663 84.9504 142.474C81.1127 135.658 79.0536 125.908 78.9869 118.115C78.9686 115.972 79.3774 113.057 79.3096 111.286Z" fill="#86BF43"/>
<path fill-rule="evenodd" clip-rule="evenodd" d="M96.3149 112.417C96.8153 112.37 96.9436 112.273 97.3393 112.467C97.971 113.905 98.8393 117.011 99.3345 118.63C100.104 118.496 100.908 118.488 101.691 118.458L102.185 119.702C101.373 119.786 100.58 119.841 99.7263 119.938L100.08 120.983C101.01 120.957 101.627 120.952 102.703 120.871L103.168 122.053C102.344 122.227 101.373 122.354 100.532 122.485C100.962 123.663 101.372 125.059 101.758 126.268C100.635 126.311 100.023 126.428 98.9342 126.652C97.7429 125.668 96.5258 124.716 95.2842 123.797C93.5316 124.329 92.0478 124.85 90.3852 125.616C90.8092 126.978 91.2663 128.157 91.8141 129.469C90.9274 129.943 90.1871 130.315 89.3727 130.913L88.7254 129.604C88.3795 128.771 88.0732 127.793 87.7805 126.931C87.1731 127.312 86.5437 127.744 85.9419 128.142L85.4083 126.538C85.9391 126.225 86.5561 125.832 87.3379 125.326C87.2041 124.862 87.156 124.7 87.0301 124.352C86.5502 124.695 85.3518 125.433 84.9477 125.716L84.3867 124.109L86.6509 122.898C86.0646 120.732 85.5839 118.488 85.0889 116.295C85.9755 115.749 86.7288 115.356 87.6545 114.881C89.9768 116.474 92.3104 118.05 94.6555 119.61L96.4691 119.126C95.8005 116.985 95.1482 114.84 94.5125 112.689L96.3149 112.417ZM92.4888 121.974C91.6919 122.27 90.5642 122.68 89.6447 123.047C89.7749 123.505 89.8423 123.744 89.961 124.109C91.1761 123.642 92.2322 123.188 93.6871 122.68C93.2452 122.372 92.4888 121.974 92.4888 121.974ZM89.3117 121.642L90.8571 120.912C90.042 120.522 89.4576 120.256 88.8515 119.967L89.3117 121.642Z" fill="white"/>
<path d="M145.265 96.1587C147.27 96.1041 148.403 96.9599 149.476 98.5895C148.992 104.191 149.514 111.301 149.643 116.98C150.065 135.641 150.773 154.209 149.595 172.862C148.813 185.237 144.544 199.557 129.902 200.392C123.529 200.753 119.498 199.778 114.594 195.552C112.087 193.173 110.702 191.063 109.137 188.037C116.324 191.664 128.204 195.708 134.902 188.815C138.034 185.591 138.888 180.515 139.401 176.202C140.851 163.997 140.614 151.616 140.445 139.344L139.763 98.9199C141.325 97.4453 143.115 96.4293 145.265 96.1587Z" fill="#147ABE"/>
<path d="M92.1257 84.8358C91.8318 79.3454 91.6635 73.7849 91.8626 68.2893C92.0317 63.6266 92.0966 54.0571 95.6791 50.7947C96.5009 50.0463 97.5992 49.4703 98.7392 49.5469C99.6175 49.6059 100.365 50.0997 100.929 50.7502C105.572 56.0998 104.002 74.6698 103.479 81.8513C104.164 81.6444 104.926 81.489 105.626 81.3296C118.284 78.4492 131.259 76.1921 144.258 75.826C157.585 75.4506 172.455 78.0324 182.49 87.4581C187.841 92.484 191.498 100.368 189.398 107.741C188.581 110.582 186.395 113.451 184.344 115.548C175.696 124.388 162.916 125.283 151.277 125.43C153.685 124.172 156.177 122.969 158.426 121.495C165.333 116.966 175.245 109.859 171.945 100.275C168.676 90.7793 159.777 89.6253 151.114 89.0077C138.045 88.0761 125.462 89.6142 112.824 92.919C109.413 93.816 105.936 94.698 102.593 95.8303C102.566 97.3794 102.527 98.9283 102.474 100.477C95.7203 98.7977 89.2752 98.4877 82.4315 100.004C82.2455 100.677 81.8937 101.827 81.762 102.476C77.213 103.606 66.2737 108.014 62.04 105.723C61.1142 105.222 60.4056 104.402 60.1232 103.379C59.701 101.85 60.4411 99.8518 61.1788 98.5309C64.1892 93.1406 85.7021 86.6106 92.1257 84.8358Z" fill="#86BF43"/>
<path d="M101.943 138.99C101.901 148.001 102.1 157.012 102.539 166.013C102.832 171.522 103.275 178.461 104.535 183.816C93.0721 180.971 92.7509 153.025 92.3754 143.439C95.6034 141.513 98.4943 140.332 101.943 138.99Z" fill="#86BF43"/>
<path d="M114.256 104.039C118.279 103.78 122.727 104.179 126.785 103.996C127.997 103.942 129.621 104.062 130.753 104.472C136.538 106.564 136.306 110.72 136.292 115.796L136.278 123.388L136.293 131.862C136.297 134.375 136.516 136.774 135.683 139.18C135.548 139.525 135.543 139.607 135.277 139.846C135.028 139.526 134.285 134.724 134.091 133.881C131.376 121.994 124.744 110.621 114.256 104.039Z" fill="#147ABE"/>
<path d="M113.599 139.085C119.995 138.534 127.066 139.889 132.872 142.614C130.314 144.11 129.249 144.121 126.346 144.102L117.982 144.121C113.065 144.131 109.929 144.473 106.846 139.844C109.265 139.439 111.175 139.248 113.599 139.085Z" fill="#147ABE"/>
<path d="M120.38 147.936C122.803 147.526 125.096 149.168 125.488 151.594C125.88 154.02 124.222 156.301 121.794 156.676C119.389 157.047 117.135 155.409 116.747 153.007C116.358 150.606 117.981 148.341 120.38 147.936Z" fill="#147ABE"/>
<path d="M117.111 177.732C117.111 176.325 118.251 175.186 119.657 175.186H122.654C124.06 175.186 125.2 176.325 125.2 177.732C125.2 179.138 124.06 180.278 122.654 180.278H119.657C118.251 180.278 117.111 179.138 117.111 177.732Z" fill="#147ABE"/>
<path d="M117.111 169.814C117.111 168.408 118.251 167.268 119.657 167.268H122.654C124.06 167.268 125.2 168.408 125.2 169.814C125.2 171.22 124.06 172.36 122.654 172.36H119.657C118.251 172.36 117.111 171.22 117.111 169.814Z" fill="#147ABE"/>
<path d="M105.145 169.814C105.145 168.408 106.284 167.268 107.691 167.268H110.687C112.093 167.268 113.233 168.408 113.233 169.814C113.233 171.22 112.093 172.36 110.687 172.36H107.691C106.284 172.36 105.145 171.22 105.145 169.814Z" fill="#147ABE"/>
<path d="M128.486 169.814C128.486 168.408 129.626 167.268 131.032 167.268H134.029C135.435 167.268 136.575 168.408 136.575 169.814C136.575 171.22 135.435 172.36 134.029 172.36H131.032C129.626 172.36 128.486 171.22 128.486 169.814Z" fill="#147ABE"/>
<path d="M117.111 161.12C117.111 159.714 118.251 158.574 119.657 158.574H122.654C124.06 158.574 125.2 159.714 125.2 161.12C125.2 162.527 124.06 163.667 122.654 163.667H119.657C118.251 163.667 117.111 162.527 117.111 161.12Z" fill="#147ABE"/>
<path d="M105.145 161.12C105.145 159.714 106.284 158.574 107.691 158.574H110.687C112.093 158.574 113.233 159.714 113.233 161.12C113.233 162.527 112.093 163.667 110.687 163.667H107.691C106.284 163.667 105.145 162.527 105.145 161.12Z" fill="#147ABE"/>
<path d="M105.081 150.196C105.477 148.719 106.995 147.843 108.471 148.239L112.057 149.199C113.534 149.595 114.41 151.113 114.014 152.589C113.619 154.066 112.101 154.942 110.624 154.547L107.039 153.586C105.562 153.19 104.686 151.672 105.081 150.196Z" fill="#147ABE"/>
<path d="M137.516 150.196C137.121 148.719 135.603 147.843 134.126 148.239L130.541 149.199C129.064 149.595 128.188 151.113 128.583 152.589C128.979 154.066 130.497 154.942 131.973 154.547L135.559 153.586C137.036 153.19 137.912 151.672 137.516 150.196Z" fill="#147ABE"/>
<path d="M128.486 161.12C128.486 159.714 129.626 158.574 131.032 158.574H134.029C135.435 158.574 136.575 159.714 136.575 161.12C136.575 162.527 135.435 163.667 134.029 163.667H131.032C129.626 163.667 128.486 162.527 128.486 161.12Z" fill="#147ABE"/>
</svg>
