<svg width="250" height="250" viewBox="0 0 250 250" fill="none" xmlns="http://www.w3.org/2000/svg">
<rect width="250" height="250" fill="white"/>
<path d="M82.4335 100.003C89.2772 98.4874 95.7223 98.7975 102.476 100.477C121.721 106.345 130.391 122.793 134.067 141.38C124.545 136.068 114.745 135.32 104.28 138.279C103.498 138.502 102.719 138.739 101.945 138.99C98.4963 140.332 95.6054 141.513 92.3774 143.439C89.6418 144.948 86.2294 147.487 83.7774 149.428C77.7833 138.411 75.962 123.416 79.3109 111.285C79.7052 109.745 80.3045 104.456 81.4383 103.624C81.5431 103.446 81.7024 102.72 81.7641 102.476C81.8957 101.827 82.2475 100.677 82.4335 100.003Z" fill="#147ABE"/>
<path d="M79.3116 111.285C79.7059 109.745 80.3052 104.456 81.4389 103.624C81.1141 105.843 80.6854 108.058 80.5366 110.296C79.9755 118.734 82.1553 128.624 86.8335 135.736C94.2551 131.517 104.092 128.259 112.64 128.436C121.075 128.611 129.167 132.746 133.41 140.261C133.6 140.592 133.775 140.933 133.935 141.28C121.804 127.331 98.594 134.663 84.9524 142.474C81.1147 135.657 79.0556 125.907 78.9889 118.115C78.9705 115.971 79.3793 113.056 79.3116 111.285Z" fill="#86BF43"/>
<path fill-rule="evenodd" clip-rule="evenodd" d="M96.3149 112.417C96.8153 112.37 96.9436 112.272 97.3393 112.467C97.971 113.904 98.8393 117.011 99.3345 118.63C100.104 118.496 100.908 118.488 101.691 118.458L102.185 119.702C101.373 119.786 100.58 119.841 99.7263 119.937L100.08 120.983C101.01 120.956 101.627 120.951 102.703 120.871L103.168 122.053C102.344 122.227 101.373 122.353 100.532 122.484C100.962 123.663 101.372 125.059 101.758 126.267C100.635 126.311 100.023 126.428 98.9342 126.651C97.7429 125.668 96.5258 124.716 95.2842 123.796C93.5316 124.329 92.0478 124.849 90.3852 125.616C90.8092 126.978 91.2663 128.156 91.8141 129.468C90.9274 129.943 90.1871 130.315 89.3727 130.913L88.7254 129.603C88.3795 128.77 88.0732 127.793 87.7805 126.931C87.1731 127.312 86.5437 127.744 85.9419 128.142L85.4083 126.538C85.9391 126.224 86.5561 125.832 87.3379 125.326C87.2041 124.861 87.156 124.699 87.0301 124.352C86.5502 124.695 85.3518 125.433 84.9477 125.716L84.3867 124.108L86.6509 122.898C86.0646 120.732 85.5839 118.488 85.0889 116.294C85.9755 115.749 86.7288 115.356 87.6545 114.881C89.9768 116.474 92.3104 118.05 94.6555 119.61L96.4691 119.126C95.8005 116.985 95.1482 114.84 94.5125 112.689L96.3149 112.417ZM92.4888 121.974C91.6919 122.27 90.5642 122.68 89.6447 123.047C89.7749 123.505 89.8423 123.743 89.961 124.108C91.1761 123.642 92.2322 123.188 93.6871 122.68C93.2452 122.372 92.4888 121.974 92.4888 121.974ZM89.3117 121.642L90.8571 120.912C90.042 120.522 89.4576 120.255 88.8515 119.967L89.3117 121.642Z" fill="white"/>
<path d="M145.265 96.158C147.27 96.1034 148.403 96.9592 149.476 98.5887C148.992 104.19 149.514 111.3 149.643 116.979C150.065 135.641 150.773 154.208 149.595 172.861C148.813 185.236 144.544 199.556 129.902 200.391C123.529 200.752 119.498 199.777 114.594 195.552C112.087 193.172 110.702 191.062 109.137 188.036C116.324 191.663 128.204 195.708 134.902 188.814C138.034 185.59 138.888 180.514 139.401 176.202C140.851 163.997 140.614 151.615 140.445 139.343L139.763 98.9192C141.325 97.4446 143.115 96.4286 145.265 96.158Z" fill="#147ABE"/>
<path d="M92.1276 84.8356C91.8337 79.3452 91.6654 73.7847 91.8645 68.2891C92.0336 63.6264 92.0985 54.0569 95.681 50.7945C96.5029 50.0461 97.6012 49.47 98.7412 49.5466C99.6195 49.6057 100.367 50.0994 100.931 50.7499C105.574 56.0995 104.004 74.6695 103.481 81.8511C104.166 81.6442 104.928 81.4888 105.628 81.3293C118.286 78.449 131.261 76.1919 144.26 75.8258C157.587 75.4503 172.457 78.0322 182.492 87.4579C187.843 92.4838 191.5 100.368 189.4 107.741C188.583 110.582 186.397 113.451 184.346 115.548C175.698 124.388 162.918 125.283 151.279 125.43C153.687 124.171 156.179 122.969 158.428 121.494C165.335 116.965 175.247 109.858 171.947 100.275C168.677 90.7791 159.779 89.625 151.116 89.0074C138.047 88.0759 125.464 89.614 112.826 92.9188C109.415 93.8157 105.938 94.6977 102.595 95.83C102.568 97.3792 102.528 98.9281 102.476 100.477C95.7222 98.7975 89.2771 98.4875 82.4334 100.003C82.2474 100.677 81.8956 101.827 81.764 102.476C77.2149 103.606 66.2756 108.014 62.0419 105.723C61.1162 105.222 60.4076 104.402 60.1251 103.379C59.7029 101.849 60.4431 99.8516 61.1808 98.5306C64.1912 93.1404 85.704 86.6104 92.1276 84.8356Z" fill="#86BF43"/>
<path d="M101.945 138.99C101.903 148.001 102.102 157.012 102.541 166.012C102.834 171.522 103.277 178.461 104.537 183.816C93.0741 180.971 92.7528 153.025 92.3774 143.439C95.6053 141.513 98.4963 140.332 101.945 138.99Z" fill="#86BF43"/>
<path d="M114.258 104.039C118.281 103.78 122.729 104.179 126.787 103.996C127.999 103.942 129.623 104.062 130.755 104.472C136.54 106.564 136.308 110.72 136.294 115.796L136.28 123.388L136.295 131.862C136.299 134.375 136.518 136.774 135.685 139.18C135.55 139.525 135.545 139.607 135.279 139.846C135.03 139.526 134.287 134.724 134.093 133.881C131.378 121.994 124.746 110.621 114.258 104.039Z" fill="#147ABE"/>
<path d="M113.601 139.085C119.997 138.533 127.068 139.888 132.874 142.614C130.316 144.11 129.251 144.121 126.348 144.102L117.984 144.121C113.067 144.131 109.93 144.472 106.848 139.844C109.267 139.439 111.177 139.248 113.601 139.085Z" fill="#147ABE"/>
<path d="M120.38 147.935C122.803 147.526 125.096 149.168 125.488 151.593C125.88 154.019 124.222 156.3 121.794 156.675C119.389 157.047 117.135 155.408 116.747 153.007C116.358 150.605 117.981 148.34 120.38 147.935Z" fill="#147ABE"/>
<path d="M117.113 177.731C117.113 176.325 118.253 175.185 119.659 175.185H122.656C124.062 175.185 125.202 176.325 125.202 177.731C125.202 179.137 124.062 180.277 122.656 180.277H119.659C118.253 180.277 117.113 179.137 117.113 177.731Z" fill="#147ABE"/>
<path d="M117.113 169.814C117.113 168.408 118.253 167.268 119.659 167.268H122.656C124.062 167.268 125.202 168.408 125.202 169.814C125.202 171.22 124.062 172.36 122.656 172.36H119.659C118.253 172.36 117.113 171.22 117.113 169.814Z" fill="#147ABE"/>
<path d="M105.146 169.814C105.146 168.408 106.286 167.268 107.693 167.268H110.689C112.095 167.268 113.235 168.408 113.235 169.814C113.235 171.22 112.095 172.36 110.689 172.36H107.693C106.286 172.36 105.146 171.22 105.146 169.814Z" fill="#147ABE"/>
<path d="M128.486 169.814C128.486 168.408 129.626 167.268 131.032 167.268H134.029C135.435 167.268 136.575 168.408 136.575 169.814C136.575 171.22 135.435 172.36 134.029 172.36H131.032C129.626 172.36 128.486 171.22 128.486 169.814Z" fill="#147ABE"/>
<path d="M117.113 161.12C117.113 159.714 118.253 158.574 119.659 158.574H122.656C124.062 158.574 125.202 159.714 125.202 161.12C125.202 162.527 124.062 163.667 122.656 163.667H119.659C118.253 163.667 117.113 162.527 117.113 161.12Z" fill="#147ABE"/>
<path d="M105.146 161.12C105.146 159.714 106.286 158.574 107.693 158.574H110.689C112.095 158.574 113.235 159.714 113.235 161.12C113.235 162.527 112.095 163.667 110.689 163.667H107.693C106.286 163.667 105.146 162.527 105.146 161.12Z" fill="#147ABE"/>
<path d="M105.081 150.195C105.477 148.719 106.995 147.842 108.471 148.238L112.057 149.199C113.534 149.594 114.41 151.112 114.014 152.589C113.619 154.065 112.101 154.942 110.624 154.546L107.039 153.585C105.562 153.19 104.686 151.672 105.081 150.195Z" fill="#147ABE"/>
<path d="M137.516 150.195C137.121 148.719 135.603 147.842 134.126 148.238L130.541 149.199C129.064 149.594 128.188 151.112 128.583 152.589C128.979 154.065 130.497 154.942 131.973 154.546L135.559 153.585C137.036 153.19 137.912 151.672 137.516 150.195Z" fill="#147ABE"/>
<path d="M128.486 161.12C128.486 159.714 129.626 158.574 131.032 158.574H134.029C135.435 158.574 136.575 159.714 136.575 161.12C136.575 162.527 135.435 163.667 134.029 163.667H131.032C129.626 163.667 128.486 162.527 128.486 161.12Z" fill="#147ABE"/>
</svg>
