<svg width="250" height="250" viewBox="0 0 250 250" fill="none" xmlns="http://www.w3.org/2000/svg">
<mask id="path-1-inside-1_769_582" fill="white">
<path d="M0 48C0 21.4903 21.4903 0 48 0H202C228.51 0 250 21.4903 250 48V202C250 228.51 228.51 250 202 250H48C21.4903 250 0 228.51 0 202V48Z"/>
</mask>
<path d="M0 48C0 21.4903 21.4903 0 48 0H202C228.51 0 250 21.4903 250 48V202C250 228.51 228.51 250 202 250H48C21.4903 250 0 228.51 0 202V48Z" fill="white"/>
<path d="M48 0V2H202V0V-2H48V0ZM250 48H248V202H250H252V48H250ZM202 250V248H48V250V252H202V250ZM0 202H2V48H0H-2V202H0ZM48 250V248C22.5949 248 2 227.405 2 202H0H-2C-2 229.614 20.3858 252 48 252V250ZM250 202H248C248 227.405 227.405 248 202 248V250V252C229.614 252 252 229.614 252 202H250ZM202 0V2C227.405 2 248 22.5949 248 48H250H252C252 20.3858 229.614 -2 202 -2V0ZM48 0V-2C20.3858 -2 -2 20.3858 -2 48H0H2C2 22.5949 22.5949 2 48 2V0Z" fill="#DDDBDB" mask="url(#path-1-inside-1_769_582)"/>
<path d="M85.689 67.0461L59.0507 81.284L124.5 118.716L190.867 80.1357L159.865 67.0461L139.121 78.2739V58.5246L122.662 50.5117L106.587 58.3196V78.069L85.689 67.0461Z" fill="#FF4E02"/>
<path d="M96.1642 183.515L121.799 199.488L121.56 124.092L55 85.8459L59.1347 119.243L79.2189 131.612L62.1065 141.471L63.3799 159.732L78.1702 169.763L95.2826 159.904L96.1642 183.515Z" fill="#01355C"/>
<path d="M153.836 183.515L128.201 199.488L128.44 124.092L195 85.8459L190.865 119.243L170.781 131.612L187.893 141.471L186.62 159.732L171.83 169.763L154.717 159.904L153.836 183.515Z" fill="#6BAC06"/>
</svg>
