<svg width="250" height="250" viewBox="0 0 250 250" fill="none" xmlns="http://www.w3.org/2000/svg">
<mask id="path-1-inside-1_769_583" fill="white">
<path d="M0 48C0 21.4903 21.4903 0 48 0H202C228.51 0 250 21.4903 250 48V202C250 228.51 228.51 250 202 250H48C21.4903 250 0 228.51 0 202V48Z"/>
</mask>
<path d="M0 48C0 21.4903 21.4903 0 48 0H202C228.51 0 250 21.4903 250 48V202C250 228.51 228.51 250 202 250H48C21.4903 250 0 228.51 0 202V48Z" fill="white"/>
<path d="M48 0V2H202V0V-2H48V0ZM250 48H248V202H250H252V48H250ZM202 250V248H48V250V252H202V250ZM0 202H2V48H0H-2V202H0ZM48 250V248C22.5949 248 2 227.405 2 202H0H-2C-2 229.614 20.3858 252 48 252V250ZM250 202H248C248 227.405 227.405 248 202 248V250V252C229.614 252 252 229.614 252 202H250ZM202 0V2C227.405 2 248 22.5949 248 48H250H252C252 20.3858 229.614 -2 202 -2V0ZM48 0V-2C20.3858 -2 -2 20.3858 -2 48H0H2C2 22.5949 22.5949 2 48 2V0Z" fill="#DDDBDB" mask="url(#path-1-inside-1_769_583)"/>
<path d="M117.993 117.605V110.222H89.6572V117.605H117.993Z" fill="#2A65FD"/>
<path d="M68.4122 121.259H59.9114V139.778H68.4122V121.259Z" fill="#2A65FD"/>
<path d="M78.3338 117.605V110.222H49.998V117.605H78.3338Z" fill="#2A65FD"/>
<path d="M98.1551 130.463L89.6543 121.259V139.778H117.99V133.094H98.1551V130.463Z" fill="#2A65FD"/>
<path d="M95.1009 121.259L96.5531 122.831C96.5531 122.831 98.7172 125.175 100.658 127.276H117.989V121.259H95.1009Z" fill="#2A65FD"/>
<path d="M137.832 110.222H129.332V139.729H137.832V110.222Z" fill="#2A65FD"/>
<path d="M150.557 110.222V127.968L142.088 118.786V128.836H142.084V130.562L150.557 139.729H159.005V110.222H150.557Z" fill="#2A65FD"/>
<path d="M178.83 110.222H170.329V139.729H178.83V110.222Z" fill="#2A65FD"/>
<path d="M191.554 110.222V127.968L183.085 118.786V128.836H183.078V130.562L191.554 139.729H199.998V110.222H191.554Z" fill="#2A65FD"/>
</svg>
