<svg width="250" height="250" viewBox="0 0 250 250" fill="none" xmlns="http://www.w3.org/2000/svg">
<path d="M0 48C0 21.4903 21.4903 0 48 0H202C228.51 0 250 21.4903 250 48V202C250 228.51 228.51 250 202 250H48C21.4903 250 0 228.51 0 202V48Z" fill="#CAF93B"/>
<path d="M136.84 91.2519L157.646 91.2443C160.938 91.2432 166.108 91.0947 169.239 91.3832C176.777 92.0131 183.746 95.6398 188.587 101.451C191.967 105.567 194.117 110.554 194.788 115.838C195.481 120.96 194.285 128.751 193.719 134.134L191.139 158.846L173.139 158.847C173.428 154.964 173.985 150.611 174.395 146.711L176.814 123.789C176.957 121.924 177.003 120.541 176.585 118.69C175.448 113.668 171.214 109.955 166.114 109.372C164.354 109.171 162.369 109.254 160.569 109.254L152.922 109.261C152.808 111.319 152.438 114.033 152.215 116.164L148.832 148.464C148.477 151.861 148.157 155.47 147.719 158.844L129.75 158.846C130.992 145.529 132.551 131.994 133.944 118.669L135.789 101.02C136.12 97.8498 136.413 94.3949 136.84 91.2519Z" fill="black"/>
<path d="M102.286 91.1591L120.277 91.1533C119.822 96.46 119.158 102.038 118.599 107.352C116.994 124.427 114.745 141.696 113.246 158.745L92.3075 158.749C88.7825 158.752 83.2523 158.914 79.9209 158.512C72.4485 157.657 65.6273 153.852 60.975 147.943C57.8619 143.931 55.8828 139.157 55.2443 134.119C54.6824 129.797 55.1969 126.396 55.6454 122.138L56.5951 113.06C57.3465 105.875 58.0134 98.3002 58.9086 91.161L76.9439 91.1584C75.9786 98.2911 75.2934 106.442 74.524 113.667L73.5665 122.69C73.3729 124.525 73.1477 126.287 73.0879 128.134C72.8815 134.515 77.7359 140.042 84.0886 140.647C85.8694 140.816 87.6724 140.751 89.4603 140.75L97.1067 140.738L102.286 91.1591Z" fill="black"/>
</svg>
