<svg width="250" height="250" viewBox="0 0 250 250" fill="none" xmlns="http://www.w3.org/2000/svg">
<rect width="250" height="250" fill="#CAF93B"/>
<path d="M136.84 91.2516L157.646 91.2441C160.938 91.243 166.108 91.0945 169.239 91.3829C176.777 92.0129 183.746 95.6396 188.587 101.451C191.967 105.567 194.117 110.554 194.788 115.837C195.481 120.959 194.285 128.751 193.719 134.133L191.139 158.845L173.139 158.846C173.428 154.963 173.985 150.611 174.395 146.711L176.814 123.788C176.957 121.924 177.003 120.541 176.585 118.69C175.448 113.668 171.214 109.955 166.114 109.372C164.354 109.171 162.369 109.254 160.569 109.254L152.922 109.261C152.808 111.319 152.438 114.033 152.215 116.163L148.832 148.463C148.477 151.86 148.157 155.47 147.719 158.844L129.75 158.845C130.992 145.528 132.551 131.994 133.944 118.669L135.789 101.02C136.12 97.8496 136.413 94.3947 136.84 91.2516Z" fill="black"/>
<path d="M102.286 91.1588L120.277 91.1531C119.822 96.4598 119.158 102.037 118.599 107.352C116.994 124.427 114.745 141.696 113.246 158.744L92.3075 158.749C88.7825 158.752 83.2523 158.914 79.9209 158.512C72.4485 157.657 65.6273 153.852 60.975 147.942C57.8619 143.931 55.8828 139.157 55.2443 134.119C54.6824 129.796 55.1969 126.396 55.6454 122.137L56.5951 113.06C57.3465 105.875 58.0134 98.3 58.9086 91.1608L76.9439 91.1581C75.9786 98.2908 75.2934 106.442 74.524 113.666L73.5665 122.69C73.3729 124.524 73.1477 126.286 73.0879 128.134C72.8815 134.515 77.7359 140.041 84.0886 140.646C85.8694 140.816 87.6724 140.751 89.4603 140.75L97.1067 140.738L102.286 91.1588Z" fill="black"/>
</svg>
