<svg width="250" height="250" viewBox="0 0 250 250" fill="none" xmlns="http://www.w3.org/2000/svg">
<mask id="path-1-inside-1_769_586" fill="white">
<path d="M0 48C0 21.4903 21.4903 0 48 0H202C228.51 0 250 21.4903 250 48V202C250 228.51 228.51 250 202 250H48C21.4903 250 0 228.51 0 202V48Z"/>
</mask>
<path d="M0 48C0 21.4903 21.4903 0 48 0H202C228.51 0 250 21.4903 250 48V202C250 228.51 228.51 250 202 250H48C21.4903 250 0 228.51 0 202V48Z" fill="white"/>
<path d="M48 0V2H202V0V-2H48V0ZM250 48H248V202H250H252V48H250ZM202 250V248H48V250V252H202V250ZM0 202H2V48H0H-2V202H0ZM48 250V248C22.5949 248 2 227.405 2 202H0H-2C-2 229.614 20.3858 252 48 252V250ZM250 202H248C248 227.405 227.405 248 202 248V250V252C229.614 252 252 229.614 252 202H250ZM202 0V2C227.405 2 248 22.5949 248 48H250H252C252 20.3858 229.614 -2 202 -2V0ZM48 0V-2C20.3858 -2 -2 20.3858 -2 48H0H2C2 22.5949 22.5949 2 48 2V0Z" fill="#DDDBDB" mask="url(#path-1-inside-1_769_586)"/>
<path d="M79.995 117.172L76.0185 104.55L171.115 134.635L174.919 147.257L79.995 117.172Z" fill="#019A40"/>
<path d="M70.3755 93.7667L55 88.3702L75.1335 159.655C76.3266 163.879 81.3757 165.606 84.906 162.998L125.011 133.364L110.27 128.228L85.3578 147.008L70.3755 93.7667Z" fill="#0092CE"/>
<path d="M179.624 156.314L195 161.711L174.843 90.344C173.657 86.1423 168.65 84.4049 165.115 86.9686L123.113 117.437L137.854 122.573L164.642 103.073L179.624 156.314Z" fill="#F78E19"/>
</svg>
