<svg width="250" height="250" viewBox="0 0 250 250" fill="none" xmlns="http://www.w3.org/2000/svg">
<mask id="path-1-inside-1_769_587" fill="white">
<path d="M0 48C0 21.4903 21.4903 0 48 0H202C228.51 0 250 21.4903 250 48V202C250 228.51 228.51 250 202 250H48C21.4903 250 0 228.51 0 202V48Z"/>
</mask>
<path d="M0 48C0 21.4903 21.4903 0 48 0H202C228.51 0 250 21.4903 250 48V202C250 228.51 228.51 250 202 250H48C21.4903 250 0 228.51 0 202V48Z" fill="white"/>
<path d="M48 0V2H202V0V-2H48V0ZM250 48H248V202H250H252V48H250ZM202 250V248H48V250V252H202V250ZM0 202H2V48H0H-2V202H0ZM48 250V248C22.5949 248 2 227.405 2 202H0H-2C-2 229.614 20.3858 252 48 252V250ZM250 202H248C248 227.405 227.405 248 202 248V250V252C229.614 252 252 229.614 252 202H250ZM202 0V2C227.405 2 248 22.5949 248 48H250H252C252 20.3858 229.614 -2 202 -2V0ZM48 0V-2C20.3858 -2 -2 20.3858 -2 48H0H2C2 22.5949 22.5949 2 48 2V0Z" fill="#DDDBDB" mask="url(#path-1-inside-1_769_587)"/>
<path d="M195 65.9707C195 103.288 195 140.202 195 178.547C171.763 153.959 149.406 130.3 126.585 106.14C102.821 131.903 79.3633 157.324 55 183.724C55 143.763 55 105.112 55 65.9707C101.463 65.9707 147.913 65.9707 195 65.9707Z" fill="#00723C"/>
<path d="M126.572 118.66C147.166 140.618 167.149 161.926 187.89 184.042C146.738 184.042 106.577 184.042 65.2782 184.042C85.9582 161.975 106.002 140.593 126.572 118.66Z" fill="#F26222"/>
</svg>
