<svg width="250" height="250" viewBox="0 0 250 250" fill="none" xmlns="http://www.w3.org/2000/svg">
<mask id="path-1-inside-1_769_588" fill="white">
<path d="M0 48C0 21.4903 21.4903 0 48 0H202C228.51 0 250 21.4903 250 48V202C250 228.51 228.51 250 202 250H48C21.4903 250 0 228.51 0 202V48Z"/>
</mask>
<path d="M0 48C0 21.4903 21.4903 0 48 0H202C228.51 0 250 21.4903 250 48V202C250 228.51 228.51 250 202 250H48C21.4903 250 0 228.51 0 202V48Z" fill="white"/>
<path d="M48 0V2H202V0V-2H48V0ZM250 48H248V202H250H252V48H250ZM202 250V248H48V250V252H202V250ZM0 202H2V48H0H-2V202H0ZM48 250V248C22.5949 248 2 227.405 2 202H0H-2C-2 229.614 20.3858 252 48 252V250ZM250 202H248C248 227.405 227.405 248 202 248V250V252C229.614 252 252 229.614 252 202H250ZM202 0V2C227.405 2 248 22.5949 248 48H250H252C252 20.3858 229.614 -2 202 -2V0ZM48 0V-2C20.3858 -2 -2 20.3858 -2 48H0H2C2 22.5949 22.5949 2 48 2V0Z" fill="#DDDBDB" mask="url(#path-1-inside-1_769_588)"/>
<path d="M57.3267 59.8595C56.3194 58.2753 57.4575 56.2031 59.3348 56.2031H107.624C110.909 56.2031 113.963 57.8976 115.701 60.6858L150.695 116.815C151.683 118.4 150.543 120.453 148.676 120.453H100.644C97.6598 120.453 94.8824 118.928 93.2812 116.409L57.3267 59.8595Z" fill="#2D424D"/>
<path d="M101.281 120.413C101.362 120.439 101.446 120.453 101.531 120.453H148.57C150.107 120.453 151.575 119.816 152.625 118.693L189.164 79.6223C189.875 78.862 189.335 77.6198 188.295 77.6198H137.344C135.162 77.6198 133.076 78.5189 131.578 80.1055L95.3672 118.445L101.281 120.413Z" fill="#FAB900"/>
<mask id="mask0_769_588" style="mask-type:alpha" maskUnits="userSpaceOnUse" x="56" y="56" width="97" height="65">
<path d="M57.3267 59.8595C56.3194 58.2753 57.4575 56.2031 59.3348 56.2031H107.624C110.909 56.2031 113.963 57.8976 115.701 60.6858L152.963 120.453H100.644C97.6598 120.453 94.8824 118.928 93.2812 116.409L57.3267 59.8595Z" fill="#7D1111"/>
</mask>
<g mask="url(#mask0_769_588)">
<path d="M94.7342 119.115C94.2565 119.621 94.6151 120.453 95.3109 120.453H148.569C150.107 120.453 151.575 119.816 152.625 118.693L189.163 79.6223C189.874 78.862 189.335 77.6198 188.294 77.6198H137.344C135.162 77.6198 133.076 78.5189 131.577 80.1055L94.7342 119.115Z" fill="#FFCC4F"/>
</g>
<path d="M192.673 190.141C193.681 191.726 192.543 193.798 190.665 193.798L142.376 193.798C139.091 193.798 136.037 192.103 134.299 189.315L99.3052 133.186C98.317 131.601 99.4566 129.548 101.324 129.548L149.356 129.548C152.34 129.548 155.118 131.073 156.719 133.592L192.673 190.141Z" fill="#2D424D"/>
<path d="M148.719 129.588C148.638 129.562 148.554 129.548 148.469 129.548L101.43 129.548C99.8932 129.548 98.4249 130.185 97.375 131.308L60.8364 170.379C60.1254 171.139 60.6645 172.381 61.7054 172.381L112.656 172.381C114.838 172.381 116.924 171.482 118.422 169.895L154.633 131.556L148.719 129.588Z" fill="#FFCC4F"/>
<mask id="mask1_769_588" style="mask-type:alpha" maskUnits="userSpaceOnUse" x="97" y="129" width="97" height="65">
<path d="M192.673 190.141C193.681 191.726 192.543 193.798 190.665 193.798L142.376 193.798C139.091 193.798 136.037 192.103 134.299 189.315L97.0367 129.548L149.356 129.548C152.34 129.548 155.118 131.073 156.719 133.592L192.673 190.141Z" fill="#7D1111"/>
</mask>
<g mask="url(#mask1_769_588)">
<path d="M155.266 130.886C155.744 130.38 155.385 129.548 154.689 129.548L101.431 129.548C99.8934 129.548 98.4251 130.185 97.3752 131.308L60.8366 170.379C60.1256 171.139 60.6647 172.381 61.7056 172.381L112.656 172.381C114.838 172.381 116.924 171.482 118.423 169.895L155.266 130.886Z" fill="#FAB900"/>
</g>
</svg>
