<svg width="250" height="250" viewBox="0 0 250 250" fill="none" xmlns="http://www.w3.org/2000/svg">
<path d="M0 125C0 55.9644 55.9644 0 125 0C194.036 0 250 55.9644 250 125C250 194.036 194.036 250 125 250C55.9644 250 0 194.036 0 125Z" fill="#EC1B24"/>
<path d="M121.262 111.447C124.841 110.175 127.743 108.414 130.452 106.653L131.226 106.164C134.128 104.305 137.03 102.25 139.933 99.7059C146.414 94.1288 150.284 88.5517 152.509 81.8984C153.38 79.1587 154.734 73.8752 153.09 68.8851C151.929 65.2649 149.704 62.2318 146.511 59.9814C146.124 59.6878 142.158 56.459 134.515 56.459C127.55 56.459 119.907 59.1008 111.878 64.3843L111.587 64.58C111.297 64.6779 111.104 64.8735 110.91 65.0692C110.717 65.1671 110.523 65.3628 110.33 65.4606C108.685 66.5369 107.137 67.8089 105.59 69.0808C102.107 72.3097 98.2372 77.7889 98.4307 82.3876C98.5274 84.3444 99.3981 86.0078 100.849 87.1819C102.3 88.2582 104.042 88.7474 106.073 88.7474C110.233 88.7474 114.78 86.497 117.876 84.638C118.069 84.5401 118.263 84.3444 118.456 84.2466C119.037 83.8552 119.52 83.5617 120.101 83.1703L120.681 82.7789C125.131 79.8436 129.678 76.8105 134.805 75.0493C136.16 74.5601 137.321 74.3644 138.385 74.3644C138.869 74.3644 139.449 74.3644 139.933 74.5601C141.481 74.9514 142.641 75.832 143.319 77.2019C144.48 79.6479 144.189 83.366 142.641 86.8884C140.416 91.5849 136.643 96.2814 131.323 100.782C128.614 103.033 126.099 104.794 123.97 105.968L123.583 106.066C122.519 106.653 121.358 107.24 120.197 107.729L120.004 107.827C119.617 107.925 119.327 108.12 119.037 108.218C113.909 109.588 117.005 105.087 117.005 105.087C118.166 103.717 119.327 102.641 120.488 101.565C121.165 100.88 121.939 100.293 122.616 99.5102L122.809 99.3145C123.68 98.4339 124.938 97.162 124.841 95.4008C124.744 93.0525 122.326 91.5849 120.101 91.5849H119.907C117.779 91.5849 115.747 92.8568 114.393 93.9331C113.039 95.0094 111.684 96.5749 110.717 98.0426C109.362 100.195 106.46 105.674 109.266 110.077C110.427 111.839 112.265 112.719 114.877 112.719C116.715 112.719 118.843 112.23 121.262 111.447Z" fill="white"/>
<path d="M180.464 127.248C180.834 126.385 181.725 125.609 182.697 125.306C183.154 125.163 184.057 125.041 184.704 125.034C186.887 125.01 187.201 125.678 187.221 130.389L187.233 133.002H189.487C191.473 133.002 191.801 133.048 192.238 133.392C193.314 134.239 193.383 136.571 192.361 137.593C191.829 138.125 191.795 138.132 189.527 138.132H187.233V145.482C187.233 152.768 187.236 152.837 187.646 153.272C188.195 153.857 189.175 153.846 191.091 153.234C193.174 152.568 193.949 152.816 194.666 154.377C195.133 155.395 195.111 156.306 194.595 157.329C194.254 158.006 193.954 158.281 193.106 158.697C191.498 159.486 189.396 159.855 187.141 159.745C183.061 159.546 180.859 157.664 180.383 153.971C180.29 153.254 180.212 149.397 180.209 145.399L180.202 138.132H178.906C177.806 138.132 177.548 138.067 177.208 137.704C176.368 136.807 176.152 135.202 176.712 134.021C177.12 133.162 177.579 132.943 179.013 132.923L180.202 132.907L180.202 130.383C180.202 128.664 180.286 127.664 180.464 127.248Z" fill="white"/>
<path d="M56.0209 137.062C57.2109 134.463 60.2816 132.691 64.3942 132.232C67.475 131.888 70.7988 132.383 73.3245 133.561C75.1478 134.411 75.9631 135.134 76.2759 136.177C76.6996 137.592 76.0646 139.067 74.7364 139.754C73.8894 140.192 73.4579 140.1 71.1562 138.995C68.6342 137.784 67.4113 137.486 65.4455 137.603C62.5858 137.774 61.2708 139.277 62.3838 141.102C62.8527 141.871 63.6711 142.169 67.2443 142.871C73.189 144.038 75.3676 145.309 76.4887 148.262C77.0803 149.821 77.1219 152.745 76.5728 154.187C75.1102 158.027 70.8449 159.999 64.5843 159.73C60.4068 159.55 56.4798 158.155 55.3565 156.451C54.6073 155.314 55.08 153.389 56.3908 152.238C57.4125 151.341 58.3217 151.383 60.0179 152.406C61.9935 153.598 63.1172 154.054 64.666 154.294C67.8588 154.788 70.0009 153.776 69.9986 151.774C69.9977 150.908 69.4189 150.04 68.5753 149.64C68.1856 149.455 66.5295 149.055 64.8953 148.75C60.4307 147.917 58.8864 147.321 57.2685 145.808C55.1203 143.799 54.6016 140.162 56.0209 137.062Z" fill="white"/>
<path d="M90.858 134.768C92.3429 133.247 93.6691 132.531 95.4808 132.272C97.524 131.98 99.6771 132.244 101.451 133.004C102.474 133.443 104.07 134.888 104.393 135.669C104.522 135.978 104.665 136.232 104.712 136.232C104.76 136.232 105.221 135.77 105.737 135.205C107.663 133.098 109.847 132.214 113.131 132.213C117.996 132.212 121.037 134.55 122.009 139.038C122.278 140.284 122.328 141.796 122.336 148.995C122.346 157.272 122.336 157.496 121.955 158.007C121 159.289 118.692 159.692 116.897 158.892C115.418 158.233 115.46 158.496 115.381 149.247C115.313 141.164 115.307 141.067 114.873 140.181C114.264 138.94 113.449 138.475 111.68 138.362C109.24 138.205 107.466 139.249 106.637 141.329C106.223 142.368 106.204 142.683 106.107 150.007C105.992 158.636 106.045 158.351 104.422 158.972C102.632 159.657 100.441 159.229 99.5576 158.021C99.1791 157.504 99.1618 157.192 99.0685 149.186C98.9686 140.606 98.937 140.269 98.1544 139.388C97.26 138.38 94.8945 138.02 93.1276 138.622C92.1042 138.97 91.0383 140.051 90.486 141.299C89.9296 142.557 89.767 144.828 89.7634 151.394C89.7596 158.108 89.7482 158.17 88.3862 158.865C87.3017 159.418 85.6045 159.426 84.3858 158.883C82.7634 158.16 82.8248 158.663 82.8248 146.112C82.8248 134.04 82.8147 134.151 84.0068 133.242C84.5525 132.825 84.9308 132.712 85.969 132.653C88.356 132.518 89.57 133.353 89.57 135.129V136.087L90.858 134.768Z" fill="white"/>
<path d="M169.088 132.619C169.401 132.498 169.999 132.331 170.417 132.246C171.495 132.029 171.53 132.029 172.588 132.256C174.162 132.594 175.063 134.132 174.806 136.04C174.584 137.684 173.746 138.324 171.059 138.9C168.959 139.351 167.069 140.213 166.533 140.967C165.638 142.224 165.515 143.296 165.429 150.571C165.34 158.136 165.346 158.1 164.104 158.871C163.524 159.232 163.131 159.316 162.048 159.31C160.557 159.302 159.727 158.946 159.037 158.021C158.641 157.489 158.637 157.377 158.637 146.051C158.637 134.869 158.645 134.602 159.026 133.952C159.527 133.096 160.464 132.642 161.75 132.631C163.969 132.611 165.192 133.457 165.192 135.011C165.192 135.474 165.256 135.85 165.335 135.847C165.413 135.845 165.733 135.497 166.045 135.075C166.696 134.196 168.25 132.941 169.088 132.619Z" fill="white"/>
<path d="M149.139 165.734C149.266 164.674 149.922 163.817 150.799 163.564C152.193 163.161 153.809 163.546 154.52 164.45C154.915 164.952 154.932 165.151 154.932 169.247V173.521L155.8 172.721C156.278 172.28 157.24 171.65 157.938 171.319C159.144 170.748 159.321 170.718 161.491 170.718C163.689 170.718 163.823 170.741 165.043 171.342C167.326 172.466 168.403 174.176 168.795 177.302C169.061 179.424 169.055 190.905 168.788 191.672C168.504 192.488 167.797 192.886 166.444 192.995C165.058 193.106 164.055 192.753 163.544 191.975C163.229 191.494 163.188 190.812 163.102 184.502C162.993 176.543 163.003 176.594 161.441 175.903C159.554 175.068 156.987 175.845 155.885 177.583C155.087 178.842 154.932 180.225 154.932 186.086C154.932 192.054 154.899 192.217 153.605 192.735C152.098 193.338 150.402 193.071 149.516 192.093C149.146 191.684 149.135 191.359 149.078 179.201C149.046 172.34 149.073 166.28 149.139 165.734Z" fill="white"/>
<path d="M83.3587 172.313C84.3811 171.649 86.1622 170.942 87.2899 170.754C87.5511 170.71 88.585 170.663 89.5871 170.648C93.5669 170.592 97.0009 172.236 98.3254 174.832C99.3389 176.819 98.2344 178.79 96.1071 178.792C95.4176 178.793 95.1688 178.651 93.922 177.544C91.9199 175.768 91.3058 175.476 89.57 175.476C87.4731 175.476 86.166 176.281 85.2312 178.147C84.3262 179.954 84.2333 183.419 85.0328 185.556C85.7467 187.464 87.1122 188.423 89.3799 188.61C91.1404 188.756 92.3461 188.259 94.1263 186.656C95.4911 185.426 95.538 185.402 96.3856 185.498C97.0892 185.577 97.3856 185.74 97.9707 186.367C98.5597 186.998 98.6902 187.279 98.6902 187.913C98.6902 191.194 92.8627 194.139 87.7621 193.437C82.4119 192.7 79.707 190.069 78.7989 184.718C78.5327 183.149 78.5196 182.581 78.7094 180.863C79.1725 176.673 80.5515 174.137 83.3587 172.313Z" fill="white"/>
<path d="M126.71 174.85C127.595 172.877 129.163 171.696 131.817 171C133.576 170.539 136.94 170.504 138.839 170.928C140.657 171.333 142.408 172.18 143.132 173.005C143.622 173.563 143.721 173.835 143.721 174.622C143.721 175.433 143.629 175.669 143.075 176.274C142.168 177.263 141.49 177.223 139.097 176.038C137.414 175.205 137.071 175.105 135.653 175.03C133.786 174.932 132.901 175.175 132.232 175.97C131.623 176.694 131.623 177.281 132.232 178.006C132.797 178.676 133.174 178.813 136.24 179.454C141.404 180.536 143.281 181.758 144.016 184.52C144.704 187.106 143.898 190.051 142.133 191.394C139.117 193.69 133.221 194.157 128.901 192.441C126.3 191.408 125.488 190.275 126.135 188.581C126.775 186.905 128.408 186.292 129.851 187.187C132.289 188.698 134.49 189.271 136.352 188.878C138.118 188.506 138.851 187.243 138.12 185.831C137.767 185.148 136.889 184.816 134.07 184.299C130.122 183.575 128.531 182.862 127.253 181.248C126.442 180.223 126.16 179.236 126.17 177.462C126.176 176.321 126.284 175.8 126.71 174.85Z" fill="white"/>
<path fill-rule="evenodd" clip-rule="evenodd" d="M108.667 170.894C109.452 170.713 110.693 170.652 112.657 170.697C115.915 170.773 117.477 171.149 118.871 172.196C119.869 172.945 120.847 174.786 121.114 176.419C121.216 177.046 121.301 180.732 121.301 184.611C121.302 191.393 121.288 191.681 120.919 192.149C120.411 192.796 119.399 193.106 118.141 193.002C116.83 192.893 116.076 192.243 115.9 191.069L115.781 190.27L114.905 191.109C112.779 193.146 108.719 193.827 105.65 192.663C102.671 191.532 101.269 188.407 102.199 184.971C103.104 181.629 106.012 180.346 114.724 179.446L115.842 179.33L115.735 178.294C115.613 177.112 115.176 176.256 114.4 175.678C113.94 175.336 113.599 175.279 112.024 175.281C110.032 175.284 109.828 175.356 107.158 176.971C106.457 177.395 105.787 177.654 105.391 177.654C104.018 177.654 102.872 176.551 102.872 175.23C102.872 173.377 105.09 171.718 108.667 170.894ZM115.079 182.988C114.687 182.997 113.426 183.169 112.276 183.371C109.646 183.834 108.709 184.19 107.996 185.002C107.559 185.5 107.431 185.829 107.431 186.452C107.431 187.966 108.415 188.673 110.525 188.673C113.833 188.673 115.777 187.006 115.787 184.16L115.791 182.973L115.079 182.988Z" fill="white"/>
<path fill-rule="evenodd" clip-rule="evenodd" d="M138.458 132.247C140.329 132.057 142.959 132.177 144.735 132.536C148.329 133.263 150.573 135.422 151.299 138.855C151.439 139.516 151.512 142.911 151.512 148.757C151.512 157.489 151.505 157.662 151.116 158.157C150.501 158.938 149.652 159.289 148.377 159.29C146.284 159.292 145.054 158.29 145.053 156.582L145.052 155.744L144.15 156.683C140.793 160.173 133.906 160.544 130.449 157.42C128.85 155.976 127.91 153.063 128.294 150.744C129.094 145.913 132.855 143.805 142.012 143.051C143.423 142.935 144.692 142.806 144.832 142.766C145.198 142.659 144.947 140.962 144.378 139.693C143.978 138.803 143.804 138.633 142.855 138.198C141.904 137.763 141.601 137.717 140.137 137.787C138.306 137.875 137.08 138.34 134.816 139.809C134.151 140.241 133.309 140.65 132.946 140.718C131.958 140.904 130.936 140.512 130.158 139.651C129.561 138.99 129.472 138.767 129.472 137.933C129.472 136.742 129.77 136.152 130.894 135.115C132.504 133.631 135.307 132.569 138.458 132.247ZM144.463 147.092C144.108 147.108 143.561 147.152 143.247 147.191C139.374 147.671 136.825 148.336 135.915 149.102C134.529 150.268 134.429 152.241 135.698 153.389C136.32 153.952 138.177 154.197 139.851 153.936C143.262 153.406 144.738 151.871 144.991 148.592L145.108 147.063L144.463 147.092Z" fill="white"/>
</svg>
