<svg width="250" height="250" viewBox="0 0 250 250" fill="none" xmlns="http://www.w3.org/2000/svg">
<path d="M0 125C0 55.9644 55.9644 0 125 0C194.036 0 250 55.9644 250 125C250 194.036 194.036 250 125 250C55.9644 250 0 194.036 0 125Z" fill="#FECB32"/>
<path fill-rule="evenodd" clip-rule="evenodd" d="M56.7681 93.515L55 100.349L90.2021 85.0724L56.7681 93.515Z" fill="#FF7200"/>
<path d="M56.6758 112.711V117.137H68.1783V102.249L56.6758 112.711Z" fill="#D43264"/>
<path d="M56.6758 112.727V117.137H66.0842V104.959L56.6758 112.727Z" fill="#FF7200"/>
<path d="M144.783 82.8087C145.459 82.6242 146.75 82.4396 148.657 82.4396C153.33 82.4396 155.974 84.7158 155.974 88.53C155.974 92.775 152.9 95.2974 147.919 95.2974C146.566 95.2974 145.582 95.2359 144.783 95.0513V82.8087ZM135.497 117.137H144.783V102.311C145.643 102.434 146.75 102.495 147.98 102.495C153.515 102.495 158.25 101.142 161.447 98.1273C163.907 95.7894 165.26 92.3443 165.26 88.284C165.26 84.2238 163.476 80.7786 160.832 78.687C158.065 76.4722 153.945 75.3647 148.165 75.3647C142.446 75.3647 138.387 75.7339 135.497 76.226V117.137Z" fill="#005EC2"/>
<path d="M192.066 91.9751H176.816V83.3624H192.988V75.6722H167.407V117.137H193.849V109.447H176.816V99.6036H192.066V91.9751Z" fill="#005EC2"/>
<path d="M56.6758 75.6722V98.6246L62.4198 96.2965L90.2325 85.0238C87.328 87.4216 84.4234 89.8195 81.519 92.2173V117.137H90.866V75.6722H81.519C81.519 78.4355 81.519 81.1988 81.519 83.9621C81.519 85.4451 80.7868 87.4216 77.4493 88.0539L66.0843 90.2075V75.6722H56.6758Z" fill="#005EC2"/>
<path fill-rule="evenodd" clip-rule="evenodd" d="M112.98 76.1013C124.802 76.1013 134.386 85.6892 134.386 97.5165C134.386 109.344 124.802 118.932 112.98 118.932C101.158 118.932 91.5742 109.344 91.5742 97.5165C91.5742 85.6892 101.158 76.1013 112.98 76.1013ZM112.98 86.5281C119.046 86.5281 123.963 91.4478 123.963 97.5165C123.963 103.585 119.046 108.505 112.98 108.505C106.914 108.505 101.996 103.585 101.996 97.5165C101.996 91.4478 106.914 86.5281 112.98 86.5281Z" fill="#005EC2"/>
<path d="M57.9043 129.05V123.876H59.8809C60.2282 123.876 60.4939 123.893 60.678 123.925C60.9352 123.967 61.1508 124.048 61.3252 124.166C61.4994 124.285 61.6396 124.452 61.7456 124.665C61.8517 124.878 61.9041 125.113 61.9041 125.369C61.9041 125.808 61.7627 126.18 61.4788 126.483C61.196 126.788 60.683 126.94 59.9421 126.94H58.5992V129.05H57.9045H57.9043ZM58.5989 126.333H59.9517C60.4002 126.333 60.717 126.251 60.9059 126.086C61.0935 125.921 61.1874 125.69 61.1874 125.39C61.1874 125.174 61.1325 124.989 61.0216 124.835C60.9108 124.68 60.7644 124.578 60.5841 124.529C60.467 124.499 60.2515 124.483 59.9382 124.483H58.5988L58.5989 126.333ZM66.5892 129.05L68.5976 123.876H69.3592L71.4907 129.05H70.7022L70.0966 127.482H67.892L67.3241 129.05H66.5892ZM68.0954 126.926H69.8795L69.3337 125.491C69.1691 125.055 69.0448 124.695 68.9583 124.411C68.8864 124.748 68.7901 125.079 68.6695 125.407L68.0954 126.926ZM77.8979 129.05V126.858L75.8797 123.876H76.7133L77.7479 125.442C77.9405 125.732 78.1196 126.022 78.283 126.312C78.4427 126.041 78.6364 125.738 78.8619 125.401L79.8758 123.876H80.6838L78.5926 126.858V129.05H77.8979ZM86.2088 129.05V123.876H87.2471L88.4853 127.539C88.5999 127.879 88.6827 128.135 88.7351 128.305C88.7948 128.117 88.8886 127.84 89.0154 127.475L90.2755 123.876H91.2029V129.05H90.5375V124.722L89.0093 129.05H88.3853L86.8742 124.642V129.05L86.2088 129.05ZM97.2531 129.05V123.876H101.033V124.483H97.9477V126.073H100.836V126.68H97.9477V128.443H101.158V129.05H97.2531ZM107.032 129.05V123.876H107.744L110.491 127.937V123.876H111.156V129.05H110.445L107.698 124.989V129.05H107.032ZM118.575 129.05V124.483H116.85V123.876H120.995V124.483H119.27V129.05H118.575ZM130.34 127.388L130.991 127.33C131.021 127.59 131.093 127.804 131.206 127.971C131.32 128.137 131.495 128.272 131.733 128.376C131.97 128.478 132.238 128.53 132.536 128.53C132.8 128.53 133.033 128.491 133.235 128.413C133.438 128.335 133.588 128.228 133.686 128.092C133.785 127.955 133.835 127.807 133.835 127.648C133.835 127.487 133.787 127.346 133.692 127.224C133.597 127.104 133.44 127.003 133.221 126.92C133.081 126.867 132.77 126.782 132.289 126.668C131.807 126.553 131.471 126.446 131.278 126.345C131.028 126.215 130.843 126.054 130.721 125.862C130.598 125.671 130.537 125.455 130.537 125.218C130.537 124.955 130.613 124.711 130.763 124.484C130.913 124.257 131.131 124.084 131.42 123.966C131.707 123.848 132.028 123.789 132.38 123.789C132.767 123.789 133.11 123.851 133.406 123.975C133.702 124.098 133.93 124.279 134.09 124.52C134.249 124.76 134.335 125.032 134.347 125.336L133.681 125.386C133.646 125.06 133.525 124.813 133.319 124.647C133.113 124.479 132.809 124.396 132.407 124.396C131.987 124.396 131.682 124.472 131.49 124.624C131.299 124.776 131.203 124.959 131.203 125.173C131.203 125.359 131.271 125.512 131.406 125.632C131.54 125.751 131.888 125.875 132.451 126.001C133.014 126.127 133.4 126.237 133.61 126.331C133.913 126.469 134.139 126.644 134.284 126.857C134.429 127.069 134.5 127.313 134.5 127.59C134.5 127.866 134.421 128.124 134.262 128.367C134.102 128.611 133.874 128.8 133.575 128.935C133.277 129.07 132.942 129.137 132.568 129.137C132.095 129.137 131.699 129.068 131.379 128.932C131.059 128.796 130.809 128.592 130.627 128.317C130.445 128.043 130.35 127.734 130.34 127.388V127.388ZM140.382 129.05V123.876H144.163V124.483H141.077V126.073H143.965V126.68H141.077V128.443H144.287V129.05H140.382ZM150.184 129.05V123.876H152.504C152.971 123.876 153.326 123.923 153.568 124.016C153.811 124.108 154.004 124.272 154.149 124.507C154.294 124.742 154.366 125.002 154.366 125.286C154.366 125.654 154.246 125.963 154.006 126.215C153.766 126.466 153.395 126.625 152.893 126.694C153.077 126.781 153.216 126.868 153.311 126.952C153.513 127.135 153.705 127.365 153.884 127.641L154.789 129.05H153.924L153.232 127.973C153.031 127.661 152.864 127.424 152.733 127.259C152.602 127.094 152.485 126.98 152.381 126.913C152.279 126.848 152.173 126.803 152.066 126.776C151.988 126.76 151.86 126.752 151.68 126.752H150.879V129.05L150.184 129.05ZM150.878 126.16H152.365C152.682 126.16 152.928 126.127 153.106 126.062C153.284 125.998 153.42 125.894 153.511 125.751C153.603 125.609 153.65 125.455 153.65 125.288C153.65 125.043 153.561 124.841 153.382 124.683C153.203 124.525 152.92 124.447 152.533 124.447H150.879L150.878 126.16ZM161.734 129.05L159.711 123.876H160.462L161.822 127.636C161.93 127.937 162.023 128.219 162.096 128.483C162.176 128.2 162.27 127.918 162.377 127.636L163.788 123.876H164.495L162.454 129.05H161.734ZM170.16 129.05V123.876H171.287V129.05H170.16ZM180.728 127.235L181.423 127.408C181.278 127.971 181.017 128.399 180.641 128.694C180.264 128.989 179.803 129.137 179.259 129.137C178.696 129.137 178.237 129.024 177.884 128.796C177.53 128.57 177.262 128.241 177.078 127.811C176.894 127.38 176.802 126.918 176.802 126.425C176.802 125.886 176.905 125.417 177.114 125.015C177.322 124.614 177.618 124.31 178.002 124.101C178.386 123.893 178.809 123.789 179.269 123.789C179.794 123.789 180.233 123.92 180.589 124.184C180.946 124.448 181.195 124.818 181.335 125.295L180.655 125.454C180.534 125.078 180.358 124.803 180.127 124.632C179.897 124.46 179.607 124.375 179.257 124.375C178.856 124.375 178.52 124.47 178.251 124.66C177.981 124.85 177.791 125.107 177.683 125.427C177.573 125.749 177.518 126.08 177.518 126.421C177.518 126.86 177.583 127.245 177.712 127.572C177.841 127.901 178.042 128.146 178.315 128.308C178.588 128.471 178.883 128.551 179.201 128.551C179.589 128.551 179.915 128.441 180.183 128.22C180.452 127.999 180.633 127.671 180.728 127.235L180.728 127.235ZM187.218 129.05V123.876H190.999V124.483H187.913V126.073H190.801V126.68H187.913V128.443H191.123V129.05H187.218Z" fill="#4B4B4D"/>
<path d="M55.4834 174.635H70.9536C79.4806 174.635 86.5455 171.092 86.5455 162.906C86.5455 157.652 83.7439 154.72 78.1406 153.62V153.376C82.7695 152.154 84.7185 148.244 84.7185 144.823C84.7185 137.004 78.0188 134.927 69.7355 134.927H55.4834V174.635ZM65.9593 150.566V142.991H69.4918C72.9027 142.991 74.4862 143.968 74.4862 146.412C74.4862 148.855 72.9027 150.566 69.4918 150.566H65.9593ZM65.9593 166.571V157.896H70.2228C74.3644 157.896 76.3133 159.118 76.3133 162.05C76.3133 164.983 74.3643 166.571 70.2228 166.571H65.9593ZM100.091 158.08L100.761 155.331C101.687 151.531 102.71 146.778 103.562 142.746H103.806C104.781 146.717 105.804 151.532 106.73 155.331L107.4 158.08H100.091ZM111.237 174.635H122.321L110.262 134.927H97.5936L85.5341 174.635H96.2536L98.2025 166.205H109.287L111.236 174.635H111.237ZM124.977 174.635H134.966V163.15C134.966 158.263 134.113 152.521 133.626 148H133.87L137.646 156.858L146.417 174.635H157.136V134.927H147.147V146.412C147.147 151.296 148 157.285 148.487 161.562H148.244L144.467 152.643L135.697 134.927H124.977V174.635ZM160.527 174.635H171.003V164.738L174.779 159.363L183.549 174.635H195L180.869 151.054L192.685 134.927H181.235L171.246 149.71H171.003V134.927H160.527V174.635Z" fill="#005EC2"/>
</svg>
