<svg width="250" height="250" viewBox="0 0 250 250" fill="none" xmlns="http://www.w3.org/2000/svg">
<path d="M0 125C0 55.9644 55.9644 0 125 0C194.036 0 250 55.9644 250 125C250 194.036 194.036 250 125 250C55.9644 250 0 194.036 0 125Z" fill="#FECB32"/>
<path fill-rule="evenodd" clip-rule="evenodd" d="M56.7681 93.5148L55 100.349L90.2021 85.0723L56.7681 93.5148Z" fill="#FF7200"/>
<path d="M56.6758 112.711V117.137H68.1783V102.249L56.6758 112.711Z" fill="#D43264"/>
<path d="M56.6758 112.726V117.137H66.0842V104.959L56.6758 112.726Z" fill="#FF7200"/>
<path d="M144.784 82.8082C145.46 82.6238 146.751 82.4391 148.658 82.4391C153.331 82.4391 155.975 84.7153 155.975 88.5295C155.975 92.7745 152.9 95.2969 147.92 95.2969C146.567 95.2969 145.583 95.2354 144.784 95.0508V82.8082ZM135.498 117.137H144.784V102.31C145.644 102.433 146.751 102.495 147.981 102.495C153.515 102.495 158.251 101.141 161.448 98.1268C163.908 95.7889 165.261 92.3439 165.261 88.2835C165.261 84.2233 163.477 80.7781 160.833 78.6865C158.066 76.4717 153.946 75.3643 148.166 75.3643C142.447 75.3643 138.388 75.7334 135.498 76.2255V117.137Z" fill="#005EC2"/>
<path d="M192.067 91.9747H176.817V83.362H192.989V75.6719H167.408V117.137H193.85V109.447H176.817V99.6033H192.067V91.9747Z" fill="#005EC2"/>
<path d="M56.6758 75.6719V98.6242L62.4198 96.2961L90.2325 85.0235C87.328 87.4212 84.4234 89.8191 81.519 92.2169V117.137H90.866V75.6719H81.519C81.519 78.4351 81.519 81.1984 81.519 83.9618C81.519 85.4448 80.7868 87.4212 77.4493 88.0535L66.0843 90.2071V75.6719H56.6758Z" fill="#005EC2"/>
<path fill-rule="evenodd" clip-rule="evenodd" d="M112.98 76.1006C124.802 76.1006 134.386 85.6885 134.386 97.5158C134.386 109.343 124.802 118.931 112.98 118.931C101.158 118.931 91.5742 109.343 91.5742 97.5158C91.5742 85.6885 101.158 76.1006 112.98 76.1006ZM112.98 86.5274C119.046 86.5274 123.963 91.4471 123.963 97.5158C123.963 103.584 119.046 108.504 112.98 108.504C106.914 108.504 101.996 103.584 101.996 97.5158C101.996 91.4471 106.914 86.5274 112.98 86.5274Z" fill="#005EC2"/>
<path d="M57.9043 129.05V123.876H59.8809C60.2282 123.876 60.4939 123.893 60.678 123.925C60.9352 123.967 61.1508 124.048 61.3252 124.166C61.4994 124.285 61.6396 124.451 61.7456 124.665C61.8517 124.878 61.9041 125.113 61.9041 125.369C61.9041 125.808 61.7627 126.18 61.4788 126.483C61.196 126.788 60.683 126.94 59.9421 126.94H58.5992V129.05H57.9045H57.9043ZM58.5989 126.333H59.9517C60.4002 126.333 60.717 126.251 60.9059 126.086C61.0935 125.921 61.1874 125.69 61.1874 125.39C61.1874 125.174 61.1325 124.989 61.0216 124.834C60.9108 124.68 60.7644 124.578 60.5841 124.529C60.467 124.499 60.2515 124.483 59.9382 124.483H58.5988L58.5989 126.333ZM66.5892 129.05L68.5976 123.876H69.3592L71.4907 129.05H70.7022L70.0966 127.482H67.892L67.3241 129.05H66.5892ZM68.0954 126.925H69.8795L69.3337 125.491C69.1691 125.055 69.0448 124.695 68.9583 124.411C68.8864 124.748 68.7901 125.079 68.6695 125.407L68.0954 126.925ZM77.8979 129.05V126.858L75.8797 123.876H76.7133L77.7479 125.441C77.9405 125.732 78.1196 126.022 78.283 126.312C78.4427 126.041 78.6364 125.738 78.8619 125.401L79.8758 123.876H80.6838L78.5926 126.858V129.05H77.8979ZM86.2088 129.05V123.876H87.2471L88.4853 127.538C88.5999 127.879 88.6827 128.135 88.7351 128.304C88.7948 128.117 88.8886 127.84 89.0154 127.475L90.2755 123.876H91.2029V129.05H90.5375V124.721L89.0093 129.05H88.3853L86.8742 124.642V129.05L86.2088 129.05ZM97.2531 129.05V123.876H101.033V124.483H97.9477V126.073H100.836V126.68H97.9477V128.443H101.158V129.05H97.2531ZM107.032 129.05V123.876H107.744L110.491 127.937V123.876H111.156V129.05H110.445L107.698 124.989V129.05H107.032ZM118.575 129.05V124.483H116.85V123.876H120.995V124.483H119.27V129.05H118.575ZM130.34 127.388L130.991 127.33C131.021 127.59 131.093 127.803 131.206 127.971C131.32 128.137 131.495 128.272 131.733 128.376C131.97 128.478 132.238 128.53 132.536 128.53C132.8 128.53 133.033 128.491 133.235 128.413C133.438 128.335 133.588 128.228 133.686 128.091C133.785 127.955 133.835 127.807 133.835 127.648C133.835 127.487 133.787 127.346 133.692 127.224C133.597 127.104 133.44 127.003 133.221 126.919C133.081 126.866 132.77 126.782 132.289 126.668C131.807 126.553 131.471 126.446 131.278 126.345C131.028 126.215 130.843 126.053 130.721 125.862C130.598 125.67 130.537 125.455 130.537 125.218C130.537 124.955 130.613 124.711 130.763 124.484C130.913 124.257 131.131 124.084 131.42 123.966C131.707 123.848 132.028 123.789 132.38 123.789C132.767 123.789 133.11 123.851 133.406 123.975C133.702 124.097 133.93 124.279 134.09 124.52C134.249 124.76 134.335 125.032 134.347 125.336L133.681 125.386C133.646 125.06 133.525 124.813 133.319 124.647C133.113 124.479 132.809 124.396 132.407 124.396C131.987 124.396 131.682 124.472 131.49 124.624C131.299 124.776 131.203 124.959 131.203 125.173C131.203 125.359 131.271 125.512 131.406 125.632C131.54 125.751 131.888 125.875 132.451 126.001C133.014 126.127 133.4 126.237 133.61 126.331C133.913 126.469 134.139 126.644 134.284 126.857C134.429 127.069 134.5 127.313 134.5 127.59C134.5 127.866 134.421 128.124 134.262 128.367C134.102 128.611 133.874 128.8 133.575 128.935C133.277 129.069 132.942 129.137 132.568 129.137C132.095 129.137 131.699 129.068 131.379 128.932C131.059 128.796 130.809 128.591 130.627 128.317C130.445 128.043 130.35 127.734 130.34 127.388V127.388ZM140.382 129.05V123.876H144.163V124.483H141.077V126.073H143.965V126.68H141.077V128.443H144.287V129.05H140.382ZM150.184 129.05V123.876H152.504C152.971 123.876 153.326 123.923 153.568 124.015C153.811 124.108 154.004 124.272 154.149 124.507C154.294 124.742 154.366 125.002 154.366 125.286C154.366 125.653 154.246 125.963 154.006 126.215C153.766 126.466 153.395 126.625 152.893 126.694C153.077 126.781 153.216 126.868 153.311 126.952C153.513 127.135 153.705 127.365 153.884 127.641L154.789 129.05H153.924L153.232 127.973C153.031 127.661 152.864 127.424 152.733 127.259C152.602 127.094 152.485 126.98 152.381 126.913C152.279 126.848 152.173 126.803 152.066 126.776C151.988 126.76 151.86 126.752 151.68 126.752H150.879V129.05L150.184 129.05ZM150.878 126.159H152.365C152.682 126.159 152.928 126.127 153.106 126.062C153.284 125.998 153.42 125.894 153.511 125.751C153.603 125.609 153.65 125.455 153.65 125.287C153.65 125.043 153.561 124.841 153.382 124.683C153.203 124.525 152.92 124.447 152.533 124.447H150.879L150.878 126.159ZM161.734 129.05L159.711 123.876H160.462L161.822 127.636C161.93 127.937 162.023 128.219 162.096 128.483C162.176 128.2 162.27 127.918 162.377 127.636L163.788 123.876H164.495L162.454 129.05H161.734ZM170.16 129.05V123.876H171.287V129.05H170.16ZM180.728 127.235L181.423 127.408C181.278 127.971 181.017 128.398 180.641 128.694C180.264 128.989 179.803 129.137 179.259 129.137C178.696 129.137 178.237 129.024 177.884 128.796C177.53 128.57 177.262 128.241 177.078 127.811C176.894 127.38 176.802 126.918 176.802 126.424C176.802 125.886 176.905 125.416 177.114 125.015C177.322 124.614 177.618 124.309 178.002 124.101C178.386 123.893 178.809 123.789 179.269 123.789C179.794 123.789 180.233 123.92 180.589 124.184C180.946 124.448 181.195 124.818 181.335 125.295L180.655 125.454C180.534 125.078 180.358 124.803 180.127 124.632C179.897 124.46 179.607 124.374 179.257 124.374C178.856 124.374 178.52 124.47 178.251 124.66C177.981 124.85 177.791 125.107 177.683 125.427C177.573 125.749 177.518 126.08 177.518 126.421C177.518 126.86 177.583 127.245 177.712 127.572C177.841 127.901 178.042 128.145 178.315 128.308C178.588 128.471 178.883 128.551 179.201 128.551C179.589 128.551 179.915 128.441 180.183 128.22C180.452 127.999 180.633 127.671 180.728 127.235L180.728 127.235ZM187.218 129.05V123.876H190.999V124.483H187.913V126.073H190.801V126.68H187.913V128.443H191.123V129.05H187.218Z" fill="#4B4B4D"/>
<path d="M55.4844 174.635H70.9546C79.4815 174.635 86.5465 171.092 86.5465 162.906C86.5465 157.652 83.7449 154.72 78.1416 153.62V153.376C82.7705 152.154 84.7194 148.244 84.7194 144.823C84.7194 137.004 78.0198 134.927 69.7365 134.927H55.4844V174.635ZM65.9603 150.566V142.991H69.4928C72.9036 142.991 74.4872 143.968 74.4872 146.412C74.4872 148.855 72.9036 150.566 69.4928 150.566H65.9603ZM65.9603 166.571V157.896H70.2238C74.3654 157.896 76.3143 159.118 76.3143 162.05C76.3143 164.983 74.3653 166.571 70.2238 166.571H65.9603ZM100.092 158.08L100.762 155.331C101.688 151.531 102.711 146.778 103.563 142.746H103.807C104.782 146.717 105.805 151.532 106.731 155.331L107.401 158.08H100.092ZM111.238 174.635H122.322L110.263 134.927H97.5945L85.5351 174.635H96.2546L98.2035 166.205H109.288L111.237 174.635H111.238ZM124.978 174.635H134.967V163.15C134.967 158.263 134.114 152.521 133.627 148H133.871L137.647 156.858L146.418 174.635H157.137V134.927H147.148V146.412C147.148 151.296 148.001 157.285 148.488 161.562H148.245L144.468 152.643L135.698 134.927H124.978V174.635ZM160.528 174.635H171.004V164.738L174.78 159.363L183.55 174.635H195.001L180.87 151.054L192.686 134.927H181.236L171.247 149.71H171.004V134.927H160.528V174.635Z" fill="#005EC2"/>
</svg>
