<svg width="250" height="250" viewBox="0 0 250 250" fill="none" xmlns="http://www.w3.org/2000/svg">
<mask id="path-1-inside-1_453_556" fill="white">
<path d="M0 125C0 55.9644 55.9644 0 125 0C194.036 0 250 55.9644 250 125C250 194.036 194.036 250 125 250C55.9644 250 0 194.036 0 125Z"/>
</mask>
<path d="M0 125C0 55.9644 55.9644 0 125 0C194.036 0 250 55.9644 250 125C250 194.036 194.036 250 125 250C55.9644 250 0 194.036 0 125Z" fill="white"/>
<path d="M0 125M250 125M250 125M0 125M125 0M250 125M125 250M0 125M125 250V248C57.069 248 2 192.931 2 125H0H-2C-2 195.14 54.8598 252 125 252V250ZM250 125H248C248 192.931 192.931 248 125 248V250V252C195.14 252 252 195.14 252 125H250ZM125 0V2C192.931 2 248 57.069 248 125H250H252C252 54.8598 195.14 -2 125 -2V0ZM125 0V-2C54.8598 -2 -2 54.8598 -2 125H0H2C2 57.069 57.069 2 125 2V0Z" fill="#DDDBDB" mask="url(#path-1-inside-1_453_556)"/>
<g clip-path="url(#clip0_453_556)">
<rect x="50" y="50" width="150" height="150" rx="75" fill="#005174"/>
<path d="M50.2516 180.912C100.169 180.922 150.082 180.932 200 180.942C200 187.285 200 193.627 200 200C150.062 200 100.129 200 50.1913 200C49.9952 193.637 49.8595 187.27 50.2516 180.912Z" fill="#FBC710"/>
<path d="M153.792 167.653C134.538 144.672 110.409 130.583 80.6142 125.433C90.4469 110.222 100.219 95.1078 109.967 80.0333C137.163 89.8616 161.754 139.058 153.792 167.653ZM115.743 125.961C123.188 125.986 129.079 120.207 129.205 112.757C129.325 105.439 123.067 99.1367 115.728 99.187C108.454 99.2373 102.386 105.354 102.386 112.642C102.386 120.021 108.323 125.936 115.743 125.961Z" fill="#FBC710"/>
<path d="M158.226 131.554C152.883 111.188 143.02 94.2879 127.587 80.7023C131.433 74.752 135.178 68.9576 138.928 63.1582C150.973 72.4735 163.429 115.609 158.226 131.554Z" fill="#FBC710"/>
</g>
<defs>
<clipPath id="clip0_453_556">
<rect x="50" y="50" width="150" height="150" rx="75" fill="white"/>
</clipPath>
</defs>
</svg>
