<svg width="250" height="250" viewBox="0 0 250 250" fill="none" xmlns="http://www.w3.org/2000/svg">
<rect width="250" height="250" fill="white"/>
<path d="M55 92.3232C55.5969 90.52 60.2559 81.5867 61.8608 81.2042C81.3931 76.5488 102.756 86.8494 111.545 104.89C111.663 105.133 111.747 105.335 111.821 105.584C113.559 109.928 115.091 113.894 115.741 118.554C115.793 118.926 115.9 119.556 115.998 119.908C116.31 121.348 116.215 128.433 116.127 130.212C115.66 130.162 112.644 129.162 112.022 128.916C110.705 128.395 109.205 128.163 108.06 127.786C106.421 127.246 102.95 127.191 101.807 126.78L101.651 126.436C101.565 125.444 101.549 124.448 101.604 123.454C101.092 123.445 100.485 123.514 99.9601 123.529C95.2728 123.665 90.3821 123.176 85.8501 121.871C76.2592 119.184 67.8308 113.391 61.8863 105.4C59.9984 102.825 58.9359 100.848 57.4021 98.0705C56.459 96.1079 55.7663 94.3632 55 92.3232ZM96.748 108.958C96.5156 108.43 95.5049 107.093 95.1244 106.61C90.669 100.927 84.3376 97.0132 77.262 95.5687C75.7387 95.2512 74.2229 95.1421 72.6777 94.9591C72.8727 95.5337 73.8321 96.6261 74.2458 97.1454C77.339 101.029 80.5553 103.608 84.9949 105.811C89.4219 108.007 92.1043 108.192 96.748 108.958Z" fill="#65CCEF"/>
<path d="M57.4023 98.0704C58.2354 97.9212 60.029 96.9599 60.9602 96.6292C64.0113 95.5459 69.4865 94.3774 72.678 94.9591C72.873 95.5337 73.8324 96.626 74.246 97.1454C77.3393 101.029 80.5556 103.608 84.9952 105.811C89.4221 108.007 92.1046 108.192 96.7483 108.958C99.6974 112.298 100.984 118.429 101.614 122.702L101.604 123.454C101.093 123.445 100.485 123.514 99.9604 123.529C95.2731 123.665 90.3824 123.176 85.8504 121.871C76.2595 119.184 67.8311 113.391 61.8866 105.399C59.9987 102.825 58.9362 100.848 57.4023 98.0704Z" fill="#00AEEA"/>
<path d="M101.614 122.702C102.157 123.009 104.675 122.945 105.351 122.88C103.964 123.169 102.931 123.226 101.604 123.454L101.614 122.702Z" fill="#4DBDE8"/>
<path d="M138.213 105.562C139.612 101.064 145.86 93.6774 149.432 90.7158C158.727 83.0087 170.636 78.9259 182.768 80.0623C184.927 80.2688 187.911 80.2481 189.207 81.9075C190.296 83.3007 194.922 90.749 194.638 92.1344C193.65 96.9385 188.91 104.36 185.893 107.906C184.16 109.926 182.242 111.779 180.164 113.441C173.166 119.033 164.678 122.443 155.756 123.245C153.363 123.448 150.761 123.387 148.36 123.33C145.08 122.848 142.225 122.46 139.033 121.531C137.561 121.102 135.447 120.158 134.081 119.869C133.704 119.636 133.241 119.419 132.837 119.231C130.031 117.92 127.523 116.332 124.971 114.585C129.278 111.059 131.925 108.522 135.2 103.896C136.257 104.427 137.19 104.967 138.213 105.562ZM177.403 94.6344C175.685 94.8326 173.848 95.0179 172.171 95.4018C164.857 97.0753 159.139 101.151 154.516 106.968L153.092 108.793C162.638 107.835 172.413 103.19 177.403 94.6344Z" fill="#65CCEF"/>
<path d="M138.213 105.562C139.611 101.064 145.859 93.6774 149.431 90.7158C158.727 83.0087 170.635 78.9259 182.768 80.0623C182.517 80.1148 182.263 80.106 182.199 80.2808C182.033 80.7389 181.878 81.927 181.836 82.427C181.678 84.3026 181.395 85.4716 180.84 87.2635C180.284 89.0926 179.542 90.8595 178.625 92.5368C178.33 93.0796 177.613 94.1481 177.403 94.6344C175.685 94.8326 173.848 95.0179 172.17 95.4018C164.857 97.0753 159.138 101.151 154.516 106.968L153.092 108.793C148.543 109.199 142.23 107.72 138.213 105.562Z" fill="#00AEEA"/>
<path d="M124.947 135.592C125.447 135.313 126.913 134.177 127.531 133.759C129.603 132.339 131.825 131.154 134.158 130.224C134.631 133.556 135.234 136.369 136.328 139.574C136.884 141.203 137.75 142.955 138.269 144.485C137.48 145.148 136.242 145.596 135.275 146.3C136.391 147.407 137.263 148.947 137.991 150.334C145.985 165.569 144.801 182.652 135.571 197C134.49 198.618 132.768 201.272 131.098 202.271H119.13C118.188 201.484 117.146 200.141 116.399 199.166C104.967 184.252 103.663 161.99 114.75 146.359C114.835 146.158 115.658 145.068 115.841 144.814C118.472 141.181 121.54 138.426 124.947 135.592ZM125.284 185.629C128.605 177.282 129.8 171.195 127.037 162.254C126.507 160.54 125.8 159.159 125.158 157.519C123.98 159.652 123.114 162.519 122.554 164.873C120.834 172.098 121.956 179.019 125.284 185.629Z" fill="#65CCEF"/>
<path d="M125.158 157.519C126.638 153.765 131.717 148.291 135.275 146.3C136.391 147.407 137.263 148.947 137.99 150.334C145.984 165.569 144.801 182.652 135.571 196.999C135.04 196.533 133.607 195.669 132.777 194.977C130.288 192.905 126.336 188.715 125.284 185.629C128.605 177.281 129.8 171.195 127.036 162.254C126.507 160.54 125.8 159.158 125.158 157.519Z" fill="#00AEEA"/>
<path d="M101.651 126.436L101.807 126.78C102.949 127.191 106.42 127.246 108.059 127.786C109.204 128.163 110.704 128.395 112.021 128.916C112.644 129.162 115.66 130.162 116.126 130.212C116.733 131.013 123.422 133.443 124.947 135.592C121.54 138.426 118.472 141.181 115.842 144.814C115.658 145.068 114.835 146.158 114.751 146.359C114.024 145.779 112.687 145.042 111.841 144.551C106.876 155.219 97.8491 163.458 86.7724 167.429C79.6283 170.035 75.3457 170.06 68.0127 170.055C65.7302 169.899 63.8839 169.784 61.7051 169.085C59.2928 166.259 56.857 161.692 55.293 158.293C56.8528 152.434 61.349 144.998 65.5606 140.61C72.6986 133.174 81.9509 128.497 92.1746 127.073C95.4574 126.616 98.2552 126.8 101.47 126.732L101.651 126.436ZM97.0033 141.396C96.3442 141.292 95.1555 141.577 94.4655 141.663C86.1106 142.697 78.4078 147.466 73.5225 154.29C73.2307 154.698 72.8751 155.102 72.656 155.551C74.553 155.219 76.3816 155.094 78.291 154.634C84.5444 153.129 90.4749 149.428 94.5593 144.455C95.3901 143.444 96.1965 142.418 97.0033 141.396Z" fill="#00AEEA"/>
<path d="M97.0043 141.397C102.417 141.046 107.009 142.235 111.842 144.551C106.877 155.219 97.8501 163.458 86.7734 167.429C79.6293 170.035 75.3467 170.06 68.0137 170.055C68.2584 164.896 69.8601 159.893 72.6569 155.551C74.554 155.219 76.3826 155.094 78.292 154.634C84.5454 153.129 90.4759 149.429 94.5603 144.455C95.3911 143.444 96.1975 142.418 97.0043 141.397Z" fill="#65CCEF"/>
<path d="M134.079 119.869C135.446 120.158 137.56 121.102 139.032 121.531C142.223 122.461 145.079 122.848 148.359 123.33C148.595 124.342 148.532 125.659 148.539 126.726C150.178 126.385 152.607 126.543 154.31 126.612C170.46 127.265 185.738 137.276 192.634 151.982C193.419 153.461 194.607 156.347 195 157.943C194.185 159.906 189.797 168.307 188.242 168.868C184.548 170.201 175.524 169.863 171.734 169.334C169.542 169.007 167.379 168.514 165.262 167.86C155.256 164.708 146.665 158.162 140.97 149.352C139.995 147.847 139.107 146.084 138.269 144.484C137.751 142.955 136.884 141.203 136.328 139.574C135.234 136.369 134.632 133.556 134.158 130.224C133.677 126.777 133.513 123.317 134.079 119.869ZM177.654 155.228C177.041 154.523 176.186 153.25 175.502 152.432C169.386 145.125 162.705 142.139 153.478 141.205C153.309 141.726 154.378 142.625 154.718 143.109C159.479 149.878 169.304 155.198 177.654 155.228Z" fill="#00AEEA"/>
<path d="M148.539 126.726C150.178 126.385 152.607 126.543 154.31 126.612C170.46 127.265 185.738 137.276 192.634 151.982C189.12 153.595 181.343 156.018 177.654 155.228C177.041 154.523 176.187 153.25 175.502 152.432C169.387 145.125 162.705 142.139 153.478 141.205C151.52 139.839 149.549 133.34 149.075 131.034C148.817 129.775 148.67 128.04 148.539 126.726Z" fill="#65CCEF"/>
<path d="M118.776 48.0389C121.275 47.8616 130.338 47.1049 131.997 48.9029C145.069 63.0689 147.002 88.2193 135.198 103.896C131.923 108.523 129.276 111.059 124.969 114.585C122.824 116.28 121.003 117.416 118.574 118.667C118.03 118.947 116.324 119.699 115.997 119.908C115.899 119.556 115.792 118.926 115.74 118.554C115.09 113.894 113.558 109.928 111.821 105.584C112.533 105.172 114.15 104.285 114.717 103.811C111.834 100.37 108.931 92.7842 107.949 88.3108C105.172 75.6635 107.507 64.0256 114.516 53.1462C115.524 51.5607 117.258 49.1373 118.776 48.0389ZM124.868 92.5344C126.377 90.295 127.872 84.3836 128.065 81.643C128.423 76.5631 128.013 71.4916 125.952 66.7723C125.664 66.1134 125.231 65.0857 124.789 64.5495C124.149 66.2158 123.472 67.7049 122.941 69.4264C121.182 75.0544 121.109 81.0744 122.732 86.7432C123.332 88.7784 124.421 90.9851 124.868 92.5344Z" fill="#00AEEA"/>
<path d="M114.516 53.1461C118.015 55.4231 123.544 60.5381 124.789 64.5494C124.149 66.2157 123.472 67.7048 122.941 69.4263C121.182 75.0543 121.109 81.0743 122.732 86.7431C123.332 88.7783 124.421 90.985 124.868 92.5343C124.352 93.6266 123.6 94.9735 122.917 95.9576C121.551 97.9252 116.95 103.125 114.717 103.811C111.834 100.37 108.931 92.7841 107.949 88.3107C105.172 75.6634 107.507 64.0255 114.516 53.1461Z" fill="#65CCEF"/>
</svg>
