<svg width="250" height="250" viewBox="0 0 250 250" fill="none" xmlns="http://www.w3.org/2000/svg">
<rect width="250" height="250" fill="white"/>
<path d="M122.929 112.897C129.564 112.117 135.576 116.857 136.368 123.49C137.16 130.122 132.432 136.144 125.801 136.948C119.152 137.755 113.111 133.011 112.317 126.361C111.523 119.711 116.277 113.679 122.929 112.897Z" fill="#05A753"/>
<path d="M151.175 113.393C166.296 112.272 168.728 132.863 154.931 136.445C149.245 137.267 143.216 134.12 142.072 128.125C140.754 121.216 143.799 114.727 151.175 113.393Z" fill="#05A753"/>
<path d="M95.1767 113.277C97.4184 113.126 100.736 114.074 102.491 115.478C110.465 121.857 107.754 135.013 97.2103 136.584C93.9926 136.689 91.4204 136.183 88.8895 134.024C86.6729 132.125 85.2942 129.429 85.0523 126.52C84.5317 119.791 88.0581 113.835 95.1767 113.277Z" fill="#05A753"/>
<path d="M123.646 85.481C126.627 85.311 129.567 86.2326 131.918 88.0734C136.841 91.8599 137.399 98.0987 133.652 102.99C131.644 105.611 128.295 107.083 125.063 107.469C115.046 108.143 108.702 97.1349 115.444 89.2239C117.572 86.7261 120.393 85.6702 123.646 85.481Z" fill="#F48728"/>
<path d="M122.027 142.374C128.158 141.107 134.159 145.039 135.445 151.166C136.732 157.294 132.819 163.307 126.696 164.613C120.545 165.925 114.498 161.991 113.206 155.836C111.913 149.68 115.867 143.646 122.027 142.374Z" fill="#F48728"/>
<path d="M149.212 86.5951C158.35 85.7759 166.129 94.795 161.684 103.545C160.643 105.595 157.974 107.344 155.778 107.912C142.465 110.55 135.431 90.3389 149.212 86.5951Z" fill="#F48728"/>
<path d="M153.508 141.783C155.595 141.666 158.425 142.645 159.966 144.01C166.502 149.798 161.761 159.611 154.884 162.569C153.75 163.057 152.819 163.124 151.641 163.21C148.982 163.22 147.142 163.002 145.023 161.188C143.171 159.603 141.987 157.759 141.812 155.281C141.556 151.66 142.34 148.64 144.739 145.866C147.167 143.06 149.907 142.046 153.508 141.783Z" fill="#F48728"/>
<path d="M97.3175 86.761C101.924 86.036 106.569 89.4789 107.076 94.1745C107.833 101.194 103.21 106.966 96.2484 107.899C91.3383 108.307 86.9386 105.492 86.3494 100.349C85.9517 97.0679 86.8875 93.7643 88.947 91.1791C91.2345 88.3405 93.7468 87.1389 97.3175 86.761Z" fill="#05A753"/>
<path d="M93.3989 142.192C108.495 140.919 111.697 159.85 100.465 162.924C86.27 165.739 80.6594 144.767 93.3989 142.192Z" fill="#05A753"/>
<path d="M122.469 64.9426C125.87 64.7186 129.155 65.2753 132.057 67.1534C136.883 70.2779 136.019 76.1563 131.469 78.9253C129.887 79.8876 128.686 80.2163 126.869 80.5366C123.476 81.0391 119.831 80.6067 116.925 78.5972C113.507 76.2341 112.637 72.2884 115.156 68.8113C116.908 66.3941 119.586 65.3937 122.469 64.9426Z" fill="#05A753"/>
<path d="M122.235 169.142L122.35 169.128C125.676 168.731 130.1 169.611 132.63 171.838C138.659 177.144 133.506 183.936 127.038 184.624C109.764 186.184 110.463 170.717 122.235 169.142Z" fill="#05A753"/>
<path d="M70.9616 114.095C81.7442 112.54 83.6255 132.864 73.5131 135.144C68.4028 136.023 64.8411 131.862 64.4207 127.14C63.9555 121.913 65.0654 115.618 70.9616 114.095Z" fill="#F48728"/>
<path d="M175.576 113.958C184.424 113.749 186.131 126.279 182.236 132.105C180.964 134.007 179.411 134.748 177.27 135.169C166.17 136.12 165.469 116.113 175.576 113.958Z" fill="#F48728"/>
<path d="M144.785 66.0819C148.598 65.8319 151.539 67.2758 154.802 69.188C157.064 70.5908 159.263 72.8532 159.834 75.5262C160.505 78.6724 158.155 81.2808 155.192 81.901C151.444 82.3851 148.274 81.6835 144.995 79.5922C141.598 77.493 138.167 72.6266 140.634 68.673C141.509 67.272 143.208 66.3986 144.785 66.0819Z" fill="#05A753"/>
<path d="M152.435 167.727C152.519 167.721 152.603 167.717 152.687 167.715C154.516 167.66 157.115 168.339 158.431 169.623C161.154 172.336 159.091 176.766 156.804 179.062C154.136 181.74 151.003 183.149 147.25 183.24C143.701 183.24 142.649 183.147 140.061 180.643C138.17 175.306 144.158 169.532 148.884 168.274C150.143 167.939 151.139 167.813 152.435 167.727Z" fill="#05A753"/>
<path d="M172.226 90.0248C177.524 89.9809 181.246 95.2011 182.403 99.8165C183.374 103.69 183.144 109.03 178.398 110.063C168.063 110.378 163.93 91.935 172.226 90.0248Z" fill="#F48728"/>
<path d="M95.1458 167.439C98.4963 167.074 102.374 168.773 105 170.717C109.818 174.283 111.526 182.107 103.533 182.856C98.6487 183.348 90.1809 179.166 89.672 173.679C89.3148 169.826 91.418 167.745 95.1458 167.439Z" fill="#05A753"/>
<path d="M102.198 67.0915C109.618 66.3663 111.085 72.8619 106.589 77.5842C103.918 80.39 100.715 82.0395 96.8135 82.173C84.521 82.7066 88.577 68.2399 102.198 67.0915Z" fill="#05A753"/>
<path d="M177.385 139.926C186.599 140.099 182.441 155.825 176.743 158.418C175.283 159.082 174.9 159.266 173.27 159.581C163.452 159.383 167.802 140.616 177.385 139.926Z" fill="#F48728"/>
<path d="M75.9918 90.1602C78.3145 89.9151 80.7521 91.546 81.3213 93.8595C82.8769 100.182 79.1926 107.86 72.6724 109.641C69.7917 109.842 67.3298 108.595 66.9214 105.515C66.1168 99.4449 69.3585 91.2753 75.9918 90.1602Z" fill="#F48728"/>
<path d="M70.0345 140.184C76.0161 139.164 80.9905 145.846 81.4858 151.132C81.8019 154.505 81.7566 157.541 78.329 159.215C77.1016 159.517 75.8162 159.489 74.6031 159.134C67.6813 157.12 63.4563 143.717 70.0345 140.184Z" fill="#F48728"/>
<path d="M165.29 71.3518C168.848 70.7399 173.145 74.1554 175.263 76.7167C177.155 79.0048 180.344 83.5077 177.301 86.0267C170.713 87.8199 160.732 74.4474 165.29 71.3518Z" fill="#F48728"/>
<path d="M176.273 163.584C177.881 163.717 177.995 164.084 178.686 165.452C178.509 166.417 178.269 167.491 177.943 168.413C176.346 172.933 171.483 177.501 166.803 178.542C165.509 178.68 164.264 178.518 164.213 176.886C164.028 171.018 170.69 164.164 176.273 163.584Z" fill="#F48728"/>
<path d="M72.2968 163.41C78.2992 163.025 89.231 174.473 83.542 178.108C77.0709 178.345 66.6173 165.553 72.2968 163.41Z" fill="#F48728"/>
<path d="M82.5167 71.7677C88.8921 71.7824 82.3423 80.9677 80.1686 82.6354C77.4315 84.7354 76.8631 85.5305 73.3776 86.3056C65.7106 86.7562 75.1766 73.0162 82.5167 71.7677Z" fill="#F48728"/>
<path d="M121.724 55.5465C124.004 55.4321 126.938 55.3558 129.177 55.6831C131.588 56.0354 132.779 56.9081 134.15 58.7884C131.953 60.9891 130.215 61.7198 127.183 62.1435C123.204 62.6062 117.648 62.1115 114.969 58.7322C115.175 58.4267 115.395 58.1308 115.629 57.8455C117.194 55.9525 119.478 55.7415 121.724 55.5465Z" fill="#F48728"/>
<path d="M191.172 115.278C195.501 116.196 195.062 123.583 194.913 126.879C194.789 129.642 194.295 132.164 192.108 134.058L191.652 134.148C189.039 133.031 188.465 127.186 188.526 124.763C188.612 121.332 188.613 117.858 191.172 115.278Z" fill="#F48728"/>
<path d="M123.248 187.968C125.585 187.795 133.009 188.381 133.826 190.98C133.815 193.255 128.206 194.389 126.406 194.508C123.704 194.647 118.444 194.55 116.375 192.732C112.303 189.157 121.741 188.09 123.248 187.968Z" fill="#F48728"/>
<path d="M57.9078 115.187C60.5498 116.198 61.2534 120.504 61.2318 122.985C61.1912 127.655 61.6973 130.483 58.2638 134.098L57.9381 134.225C56.6952 133.725 55.3706 130.604 55.2495 129.222C54.9264 125.537 54.3302 117.457 57.9078 115.187Z" fill="#F48728"/>
<path d="M152.744 184.681C154.089 184.607 158.115 184.474 155.655 186.917C152.322 190.231 147.633 191.882 142.977 192.09C141.911 192.069 139.563 192.186 139.215 191.01C139.266 190.817 139.364 190.553 139.5 190.407C142.347 187.321 148.834 185.061 152.744 184.681Z" fill="#F48728"/>
<path d="M140.75 57.5103C145.037 57.2014 150.441 59.2671 154.06 61.4457C155.537 62.3348 157.973 63.7776 155.035 64.9094C151.893 65.5617 149.082 64.2953 146.165 63.3213C144.915 62.9041 135.754 58.8539 140.75 57.5103Z" fill="#F48728"/>
<path d="M184.983 93.6436C189.112 94.2687 193.586 108.113 190.902 110.542C187.643 111.056 182.437 96.6119 184.983 93.6436Z" fill="#F48728"/>
<path d="M189.923 139.14C192.196 139.293 191.965 141.885 191.673 143.552C190.969 147.564 189.225 153.333 185.85 155.887C181.779 157.683 186.518 141.664 189.923 139.14Z" fill="#F48728"/>
<path d="M105.351 58.247C107.163 58.0889 108.099 58.1307 109.795 58.7537C107.85 62.6781 100.92 65.0541 96.8405 65.558C95.863 65.6189 92.6647 65.9645 92.8687 64.8444C93.5898 60.8856 103.054 58.5304 105.351 58.247Z" fill="#F48728"/>
<path d="M94.7574 184.254C98.1837 184.199 101.148 185.018 104.257 186.395C105.733 187.047 108.909 188.58 109.527 190.15C109.414 191.278 108.312 191.312 107.378 191.459C102.89 191.623 98.7902 190.029 94.996 187.682C94.0958 187.124 92.3157 186.215 92.5936 185.019C93.1518 184.399 93.9536 184.359 94.7574 184.254Z" fill="#F48728"/>
<path d="M63.7325 93.7932C64.0598 93.7948 64.2895 93.8494 64.6077 93.909C65.9747 94.8244 65.0732 98.5717 64.7751 99.9307C64.0918 103.046 62.5978 108.24 59.7483 110.083C59.1114 110.181 59.2338 110.255 58.7119 110.034C57.908 108.94 58.3297 107.576 58.3607 106.318C58.4557 102.469 60.7315 96.3125 63.7325 93.7932Z" fill="#F48728"/>
<path d="M58.4272 139.335C62.9233 140.309 66.4029 152.482 64.8014 155.788C64.5307 155.967 64.3729 156.152 64.0833 156.082C63.4512 155.928 62.6566 155.08 62.3133 154.578C59.2891 150.158 57.6365 144.633 58.4272 139.335Z" fill="#F48728"/>
</svg>
