<svg width="250" height="250" viewBox="0 0 250 250" fill="none" xmlns="http://www.w3.org/2000/svg">
<rect width="250" height="250" fill="white"/>
<path d="M177.178 66.265C175.949 66.0382 174.703 65.9244 173.454 65.9249H57.0297C56.7526 65.9254 56.487 66.0357 56.2911 66.2317C56.0952 66.4276 55.9849 66.6932 55.9844 66.9703V164.599C55.9827 169.234 57.5507 173.733 60.4328 177.362C94.041 164.353 153.116 118.916 179.762 66.9107C178.916 66.6387 178.052 66.4231 177.178 66.265Z" fill="#11237D"/>
<path d="M194.011 86.4857V184.111C194.01 184.388 193.9 184.654 193.704 184.85C193.508 185.046 193.242 185.156 192.965 185.156H76.5413C73.4504 185.159 70.3987 184.464 67.6137 183.123C101.844 169.421 161.108 123.338 186.98 71.0056C189.191 72.9321 190.964 75.3111 192.177 77.9818C193.39 80.6525 194.015 83.5525 194.011 86.4857Z" fill="#4DC247"/>
</svg>
