<svg width="250" height="250" viewBox="0 0 250 250" fill="none" xmlns="http://www.w3.org/2000/svg">
<rect width="250" height="250" fill="white"/>
<path d="M174.014 81L189.146 84.6068C193.922 85.726 198.643 86.7428 203.419 87.946C202.764 89.0781 202.196 90.3497 201.62 91.5301L198.87 97.1015C194.254 95.6758 189.547 94.4643 184.91 93.1102C183.478 92.6923 182 92.3293 180.642 91.702C180.436 92.6099 179.839 94.2243 179.522 95.1407C178.53 98.0287 177.442 100.882 176.258 103.697C169.19 120.883 159.041 137.233 145.946 150.478C144.435 152.006 142.466 153.7 140.854 155.183C139.365 156.374 137.91 157.633 136.395 158.796C132.397 161.921 128.122 164.675 123.623 167.023C122.385 167.673 120.948 168.459 119.674 169C124.729 165.276 130.813 159.022 134.972 154.28C150.479 136.598 162.035 115.213 170.029 93.1645C171.401 89.3793 172.805 84.8651 174.014 81Z" fill="#FA956C"/>
<path d="M139.095 98.7069C141.658 98.734 144.438 98.6094 147.028 98.58L164.716 98.4636C163.486 100.676 162.592 103.674 161.432 106.006C156.771 106.046 152.11 106.144 147.451 106.299C147.328 109.171 146.937 112.549 146.529 115.427C144.445 130.112 139.825 147.493 128.63 157.975C127.725 158.823 126.289 159.924 125.291 160.721C129.363 153.622 132.817 144.472 135.073 136.613L135.114 136.471C135.764 134.205 136.771 130.697 137.115 128.46C137.07 128.481 136.897 128.481 136.546 128.481V122.132C138.455 122.131 136.544 122.052 138.398 122.176C138.924 117.864 139.47 113.87 139.513 109.484C139.55 105.884 139.209 102.316 139.095 98.7069Z" fill="#FA956C"/>
<rect x="36.582" y="136.576" width="64.5568" height="6.33321" fill="url(#paint0_linear_83_2070)"/>
<rect x="77.8164" y="151.844" width="41.8571" height="6.33321" fill="url(#paint1_linear_83_2070)"/>
<rect x="70.6602" y="122.139" width="69.9844" height="6.33321" fill="url(#paint2_linear_83_2070)"/>
<defs>
<linearGradient id="paint0_linear_83_2070" x1="36.582" y1="139.743" x2="117.734" y2="139.743" gradientUnits="userSpaceOnUse">
<stop stop-color="#FA956C" stop-opacity="0"/>
<stop offset="1" stop-color="#FA956C"/>
</linearGradient>
<linearGradient id="paint1_linear_83_2070" x1="84.2515" y1="155.01" x2="124.642" y2="155.01" gradientUnits="userSpaceOnUse">
<stop stop-color="#FA956C" stop-opacity="0"/>
<stop offset="1" stop-color="#FA956C"/>
</linearGradient>
<linearGradient id="paint2_linear_83_2070" x1="74.388" y1="125.306" x2="138.288" y2="125.306" gradientUnits="userSpaceOnUse">
<stop stop-color="#FA956C" stop-opacity="0"/>
<stop offset="1" stop-color="#FA956C"/>
</linearGradient>
</defs>
</svg>
