<svg width="250" height="250" viewBox="0 0 250 250" fill="none" xmlns="http://www.w3.org/2000/svg">
<rect width="250" height="250" fill="white"/>
<path d="M167.866 178.224H155.798L150.361 162.451H111.723V173.048H143.771L145.699 178.224H82.019L122.578 71.2998H123.893L167.866 178.224Z" fill="#16243E"/>
<path d="M178.639 165.598L135.307 71.2998H178.639V165.598Z" fill="#16243E"/>
<path d="M71.3604 156.63V71.2998H110.807L71.3604 156.63Z" fill="#16243E"/>
<path d="M153.812 200H71.3604V180.809H146.662L153.812 200Z" fill="#F36C3C"/>
<path d="M178.639 200H163.304L156.689 180.809H178.639V200Z" fill="#F36C3C"/>
<path d="M111.782 69.1913H71.3604V50H120.653L111.782 69.1913Z" fill="#F36C3C"/>
<path d="M178.639 69.1913H134.338L125.519 50H178.639V69.1913Z" fill="#F36C3C"/>
</svg>
