<svg width="250" height="250" viewBox="0 0 250 250" fill="none" xmlns="http://www.w3.org/2000/svg">
<rect width="250" height="250" fill="white"/>
<path fill-rule="evenodd" clip-rule="evenodd" d="M104.479 115.302C102.503 118.953 101.077 122.896 100.262 127.001C99.0317 133.197 99.2241 139.596 100.825 145.705L68.9939 145.705C68.9939 141.657 69.7821 137.648 71.3134 133.908C72.8448 130.169 75.0894 126.771 77.9193 123.91C80.7488 121.048 84.1081 118.779 87.8046 117.232C91.5012 115.685 95.4624 114.889 99.4626 114.892C101.147 114.889 102.825 115.026 104.479 115.302Z" fill="#AF792C"/>
<path d="M177.248 145.705C178.771 139.958 178.966 133.932 177.819 128.095C176.673 122.259 174.214 116.768 170.635 112.047C167.055 107.326 162.451 103.501 157.177 100.869C151.904 98.2371 146.102 96.8684 140.222 96.8684C134.341 96.8684 128.54 98.2371 123.266 100.869C117.993 103.501 113.388 107.326 109.808 112.047C106.229 116.768 103.771 122.259 102.624 128.095C101.477 133.932 101.673 139.958 103.195 145.705H177.248Z" fill="#CCA159"/>
<path d="M192.716 147.505H57.2844C56.0226 147.505 55 148.541 55 149.817V150.818C55 152.095 56.0226 153.13 57.2844 153.13H192.716C193.978 153.13 195 152.095 195 150.818V149.817C195 148.541 193.978 147.505 192.716 147.505Z" fill="#AF792C"/>
</svg>
