<svg width="250" height="250" viewBox="0 0 250 250" fill="none" xmlns="http://www.w3.org/2000/svg">
<rect width="250" height="250" fill="white"/>
<path d="M177.612 113.831L177.618 141.899C177.62 145.487 177.839 151.813 177.633 155.242C171.137 159.372 164.13 163.098 157.461 166.935L127.651 184.173L115.763 191.014C114.17 191.947 110.103 194.444 108.592 195C106.685 194.25 102.971 191.995 101.068 190.901L87.1114 182.817L77.1358 177.096C76.0468 176.469 73.2074 174.912 72.3927 174.229C72.3291 161.707 72.155 148.373 72.4235 135.894C74.0121 135.839 104.285 117.356 108.558 115.501C108.893 118.182 108.784 121.568 108.781 124.328L108.769 137.571L108.771 147.382C108.77 148.909 108.829 151.857 108.618 153.281C110.035 152.595 111.952 151.255 113.374 150.404L123.366 144.519C129.341 141.004 135.743 137.725 141.617 134.184C143.728 133.576 146.948 131.395 148.933 130.272C154.996 126.84 161.033 123.364 167.044 119.842C169.402 118.452 175.424 114.681 177.612 113.831Z" fill="#4785FE"/>
<path d="M72.4235 135.894C74.0121 135.839 104.285 117.356 108.558 115.501C108.893 118.182 108.784 121.568 108.781 124.328L108.769 137.571L108.771 147.382C108.77 148.909 108.829 151.857 108.618 153.281C105.269 155.492 100.854 157.872 97.3262 159.921L72.3927 174.229C72.3291 161.707 72.155 148.373 72.4235 135.894Z" fill="#0055FE"/>
<path d="M141.337 55.0024C141.601 56.1677 141.519 60.9676 141.52 62.5043L141.522 77.9478L141.517 90.2741C141.516 91.8101 141.601 95.1734 141.45 96.5867C139.271 98.0092 136.967 99.3232 134.712 100.625C126.538 105.347 118.443 110.219 110.145 114.72C109.614 115.008 109.135 115.309 108.557 115.501C104.285 117.356 74.0119 135.839 72.4233 135.894C72.2069 122.344 72.5645 108.624 72.332 95.0476C74.436 92.7978 90.0954 84.4797 93.6927 82.3753C104.45 75.9591 115.281 69.6652 126.181 63.4946C130.311 61.1326 137.21 56.8328 141.337 55.0024Z" fill="#4785FE"/>
<path d="M141.338 55.0026C142.415 54.8577 151.961 60.8875 153.734 61.8323C161.045 65.7275 168.217 70.1164 175.38 74.2969C175.957 74.6369 177.51 75.5193 177.569 76.1911C177.692 77.5859 177.66 79.0208 177.658 80.4215L177.637 88.4293C177.616 96.8004 177.763 105.497 177.613 113.831C175.425 114.681 169.402 118.452 167.044 119.842C161.033 123.364 154.996 126.841 148.934 130.273C146.949 131.395 143.728 133.576 141.617 134.184C141.672 133.712 141.544 131.235 141.53 130.576C141.494 128.287 141.481 125.998 141.488 123.709L141.45 96.5868C141.601 95.1735 141.516 91.8102 141.518 90.2742L141.522 77.9479L141.52 62.5044C141.519 60.9677 141.602 56.1678 141.338 55.0026Z" fill="#0055FE"/>
</svg>
