<svg width="250" height="250" viewBox="0 0 250 250" fill="none" xmlns="http://www.w3.org/2000/svg">
<rect width="250" height="250" fill="white"/>
<path d="M55.5674 59.9688H85.6472V88.4907H55.5674V59.9688Z" fill="#91D7F6"/>
<path d="M55.5674 92.2662H85.6472V120.788H55.5674V92.2662Z" fill="#91D7F6"/>
<path d="M55.5674 123.714H85.6472V152.236H55.5674V123.714Z" fill="#91D7F6"/>
<path d="M89.0798 59.9688H119.16V88.4907H89.0798V59.9688Z" fill="#0096DC"/>
<path d="M89.0798 92.2662H119.16V120.788H89.0798V92.2662Z" fill="#0096DC"/>
<path d="M89.0798 123.714H119.16V152.236H89.0798V123.714Z" fill="#0096DC"/>
<path d="M89.0798 155.162H119.16V190.031H89.0798V155.162Z" fill="#0096DC"/>
<path d="M121.91 155.162H157.234V190.031H121.91V155.162Z" fill="#3E4299"/>
<path d="M159.116 155.162H198.433V190.031H159.116V155.162Z" fill="#3E4299"/>
<path d="M121.91 59.9688H151.99V88.4907H121.91V59.9688Z" fill="#3E4299"/>
<path d="M121.91 92.2662H151.99V120.788H121.91V92.2662Z" fill="#3E4299"/>
<path d="M121.91 123.714H151.99V152.236H121.91V123.714Z" fill="#CD3339"/>
<path d="M154.74 123.714H198.433V152.236H154.74V123.714Z" fill="#3E4299"/>
</svg>
