<svg width="250" height="250" viewBox="0 0 250 250" fill="none" xmlns="http://www.w3.org/2000/svg">
<rect width="250" height="250" fill="#1F414A"/>
<path d="M65.1498 124.579C65.1738 138.741 68.314 150.393 75.0607 161.077C79.9807 168.9 86.5418 175.559 94.2894 180.595C95.7361 181.544 97.2445 182.412 98.6329 183.444C100.23 184.631 101.087 186.331 100.587 188.283C100.117 190.196 98.7015 191.327 96.6891 191.745C95.3491 192.047 93.963 192.081 92.6099 191.846C91.2571 191.61 89.9636 191.11 88.8042 190.374C84.9201 187.888 80.9742 185.361 77.5941 182.261C73.59 178.614 69.923 174.614 66.6376 170.308C61.8587 163.985 58.41 156.877 55.9931 149.282C53.6127 141.952 52.4217 134.288 52.4655 126.582C52.6301 109.341 57.9095 93.7945 68.6808 80.2091C73.4737 74.1148 79.2052 68.8219 85.6607 64.5286C101.416 53.9904 120.605 49.8793 139.294 53.0383C147.192 54.3618 154.798 57.0539 161.77 60.9934C164.283 62.4027 166.73 63.9457 169.109 65.571C171.643 67.3164 171.985 69.8401 171.081 71.6231C170.467 72.8357 169.407 73.7633 168.124 74.2109C166.841 74.6584 165.435 74.5912 164.2 74.0234C161.293 72.6929 158.54 71.0299 155.657 69.6377C143.288 63.668 130.313 61.7512 116.782 64.196C102.785 66.7494 91.028 73.3422 81.509 83.9742C70.748 95.9856 65.5543 110.144 65.1498 124.579Z" fill="#BFFF84"/>
<path d="M96.9126 162.719C105.229 169.752 113.625 173.709 123.248 175.063C130.286 176.071 137.459 175.536 144.27 173.496C145.548 173.119 146.807 172.667 148.102 172.365C149.594 172.022 151.016 172.365 151.911 173.627C152.806 174.889 152.751 176.253 151.997 177.639C151.51 178.582 150.841 179.42 150.03 180.104C149.217 180.788 148.278 181.304 147.266 181.623C143.875 182.652 140.43 183.722 136.93 184.161C132.794 184.685 128.62 184.834 124.458 184.606C118.37 184.263 112.49 182.745 106.83 180.385C101.349 178.132 96.2636 175.016 91.767 171.154C81.7395 162.479 75.25 151.644 72.6446 138.563C71.4602 132.718 71.2103 126.723 71.9041 120.801C73.5717 106.309 80.7235 93.0063 91.8905 83.6241C96.5957 79.6497 101.959 76.5281 107.739 74.4003C109.816 73.6288 111.938 72.9567 114.077 72.3704C116.357 71.7497 118.006 72.8058 118.599 74.222C119.006 75.1873 119.021 76.2725 118.643 77.2491C118.265 78.2258 117.523 79.0176 116.573 79.458C114.345 80.4867 112 81.2891 109.748 82.287C100.091 86.5731 92.5005 93.2182 87.2076 102.384C81.7361 111.861 79.7547 122.037 81.263 132.912C82.9325 145.204 88.6473 155.299 96.9126 162.719Z" fill="#BFFF84"/>
<path d="M125.36 93.8415C134.922 93.7421 142.676 96.8728 149.152 103.079C151.298 105.136 151.819 108.199 149.814 110.28C148.271 111.871 146.502 111.854 144.438 110.359C142.186 108.73 140.026 106.889 137.582 105.637C126.54 99.9931 112.186 102.894 104.994 114.402C98.2538 125.168 102.299 140.167 113.468 146.448C122.323 151.43 134.64 150.714 142.398 143.767C143.22 143.032 144.083 142.345 144.983 141.71C146.643 140.527 148.35 140.839 149.186 142.673C149.776 144.002 150.125 145.426 150.215 146.877C150.202 147.796 149.833 148.675 149.186 149.329C140.77 157.476 130.674 160.195 119.286 158.155C109.419 156.385 101.819 151.064 96.5739 142.563C88.6583 129.739 91.3597 112.893 102.577 102.712C108.641 97.2054 117.849 93.4232 125.36 93.8415Z" fill="#BFFF84"/>
</svg>
