<svg width="250" height="250" viewBox="0 0 250 250" fill="none" xmlns="http://www.w3.org/2000/svg">
<rect width="250" height="250" fill="white"/>
<path d="M137.336 108.494C140.527 108.593 144.023 108.526 147.228 108.526L171.047 108.527C171.744 108.53 173.719 108.498 174.28 108.645L174.34 108.829C173.81 110.47 164.785 118.519 163.249 120.406C162.172 121.73 159.387 124.035 158.159 125.453C157.62 126.075 156.683 126.814 156.125 127.535L156.077 127.599C155.385 128.171 154.678 128.945 154.033 129.596C148.529 135.151 143.069 140.835 137.384 146.204C137.187 138.654 137.331 130.602 137.331 123.014L137.326 113.732C137.321 112.13 137.247 110.038 137.336 108.494Z" fill="#F63900"/>
<path d="M137.484 57.2607C138.237 57.3672 140.695 57.3242 141.516 57.3244L149.401 57.3236C157.648 57.3236 166.257 57.4473 174.473 57.3244C172.188 60.6541 168.459 63.5029 165.752 66.5266C165.372 66.9502 164.858 67.3369 164.467 67.7575C162.109 70.2899 159.499 72.5787 157.237 75.2016C156.851 75.6493 156.337 75.9234 155.931 76.4141C155.688 76.9482 154.587 77.7915 154.121 78.2556L147.956 84.4022L141.873 90.49C140.433 91.9452 139.105 93.5994 137.385 94.7347C137.173 88.0416 137.329 80.5782 137.33 73.7976L137.325 63.3505C137.324 62.409 137.214 57.7781 137.484 57.2607Z" fill="#F63900"/>
<path d="M89.5273 108.53L122.656 108.528C123.809 108.531 125.765 108.488 126.875 108.551C125.484 109.565 125.767 109.82 124.733 110.881L108.157 127.566C107.014 128.714 105.772 129.792 104.661 130.971C100.879 134.987 97.0414 138.907 93.0109 142.68C91.8225 143.793 90.7941 144.991 89.5273 146.105V108.53Z" fill="#F63900"/>
<path d="M89.5273 57.3261C96.6904 57.2279 104.087 57.326 111.269 57.3271L120.449 57.3175C121.202 57.316 126.101 57.1949 126.469 57.5077C126.39 57.7984 122.245 62.1144 121.743 62.6245L99.7949 84.775C98.5085 86.0729 97.3426 87.2592 95.9975 88.4977C93.9428 90.3896 91.8624 93.1958 89.5273 94.725V57.3261Z" fill="#F63900"/>
<path d="M89.5273 159.927L114.732 159.93C118.616 159.93 122.672 159.872 126.541 159.947C125.872 160.609 125.357 161.274 124.763 161.993C124.357 162.43 123.903 162.835 123.51 163.281C123.364 163.446 122.682 164.378 122.601 164.418C121.651 164.898 121.331 165.699 120.693 166.323L92.6287 194.255L90.4772 196.44C90.3028 196.615 90.1873 196.788 90.0238 196.963C89.9286 197.065 89.6936 197.167 89.5936 197.261H89.5273V159.927Z" fill="#F63900"/>
</svg>
