<svg width="250" height="250" viewBox="0 0 250 250" fill="none" xmlns="http://www.w3.org/2000/svg">
<rect width="250" height="250" fill="white"/>
<path d="M120.535 54.3249C120.274 62.9253 118.772 71.2864 115.573 79.3057C110.256 92.633 101.743 103.472 89.915 111.69C82.0002 117.188 73.2871 120.867 63.8046 122.711C61.1177 123.235 58.406 123.581 55.6779 123.814C55.0113 123.871 54.9887 123.673 55.0031 123.114C55.2541 113.118 57.472 103.576 61.7534 94.536C67.7137 81.9576 76.6181 71.9227 88.4604 64.5378C97.0006 59.2114 106.3 55.9148 116.326 54.685C116.972 54.6052 117.677 54.7178 118.272 54.3249C119.027 54.3249 119.782 54.3249 120.535 54.3249Z" fill="#174577"/>
<path d="M131.197 57.2038C130.884 56.2584 131.038 55.2865 131.026 54.3247C131.3 54.3247 131.575 54.3247 131.849 54.3247C131.857 54.38 131.861 54.4373 131.863 54.4945C131.588 55 131.512 55.5443 131.516 56.1131C131.52 56.4978 131.565 56.9173 131.197 57.2038Z" fill="#B1B2BB"/>
<path d="M131.193 57.204C131.199 56.5022 131.247 55.7983 131.197 55.1005C131.16 54.5562 131.465 54.5071 131.86 54.4948C140.986 55.4013 149.586 58.0348 157.67 62.334C164.626 66.0316 170.757 70.7974 176.089 76.5658C184.741 85.9233 190.415 96.8565 193.275 109.222C194.341 113.824 194.857 118.512 194.997 123.237C195.02 124.031 194.96 124.281 193.978 124.178C189.074 123.677 184.284 122.66 179.614 121.135C174.456 119.451 169.551 117.196 164.924 114.356C159.544 111.056 154.697 107.104 150.384 102.512C143.955 95.6697 139.079 87.8571 135.754 79.0929C133.359 72.7822 131.866 66.269 131.37 59.5347C131.316 58.7592 131.253 57.9816 131.193 57.204Z" fill="#A21D20"/>
<path d="M119.478 195.632C112.131 195.044 104.676 193.266 97.5302 190.176C88.632 186.329 80.8982 180.851 74.2673 173.835C68.1177 167.328 63.4207 159.881 60.0733 151.598C57.8884 146.192 56.4646 140.579 55.6273 134.815C55.6026 134.647 55.617 134.473 55.582 134.307C55.4174 133.56 55.545 133.247 56.4729 133.315C63.0504 133.806 69.4242 135.164 75.6128 137.444C81.0176 139.435 86.0849 142.054 90.8231 145.314C97.8347 150.137 103.783 156.022 108.679 162.965C112.967 169.042 116.182 175.642 118.411 182.716C119.676 186.734 120.536 190.849 121.083 195.026C121.17 195.707 121.104 195.732 119.478 195.632Z" fill="#FBAD19"/>
<path d="M194.399 134.266C194.008 137.581 193.343 140.845 192.454 144.058C190.383 151.541 187.216 158.541 182.82 164.958C173.613 178.394 161.26 187.698 145.684 192.703C141.68 193.988 137.569 194.83 133.387 195.331C132.8 195.4 132.642 195.343 132.73 194.694C134.456 181.85 139.256 170.27 147.249 160.041C154.092 151.281 162.571 144.518 172.658 139.744C179.192 136.652 186.048 134.704 193.199 133.718C194.368 133.554 194.425 133.579 194.399 134.266Z" fill="#00AF4D"/>
<path d="M94.9505 130.92C94.9299 124.917 96.8557 119.461 99.6455 114.231C101.999 109.817 105.227 106.206 109.43 103.474C114.533 100.159 120.154 98.6529 126.233 98.8944C131.87 99.1174 137.257 100.347 142.133 103.277C144.606 104.765 146.599 106.736 147.531 109.566C148.581 112.754 147.926 115.741 146.276 118.526C145.616 119.639 144.289 119.92 143.073 120.11C139.874 120.609 136.86 120.229 134.738 117.497C132.911 115.14 132.687 112.389 133.428 109.557C133.615 108.839 133.955 108.16 134.045 107.409C134.218 105.966 133.539 104.904 132.088 104.657C124.246 103.32 116.094 105.991 112.821 114.998C109.328 124.612 110.84 133.697 117.216 141.77C121.396 147.061 128.321 148.725 135.214 146.476C138.892 145.277 142.153 143.335 145.229 141.047C146.332 140.227 147.795 140.225 148.792 141.041C149.63 141.725 149.84 143.002 149.239 144.223C148.506 145.711 147.303 146.849 146.188 148.033C142.192 152.277 137.689 155.883 132.019 157.565C121.968 160.544 112.784 158.77 104.754 151.927C99.7401 147.655 96.545 142.289 95.3497 135.788C95.0493 134.182 94.9546 132.555 94.9505 130.92Z" fill="#252429"/>
<path d="M95.4338 131.371C95.3474 126.237 96.5694 121.839 98.5013 117.595C99.7275 114.902 101.104 112.287 102.958 109.977C106.122 106.034 110.045 103.038 114.798 101.203C120.52 98.9926 126.385 98.8044 132.345 100.085C136.032 100.877 139.565 102.009 142.686 104.213C145.484 106.191 147.426 108.665 147.582 112.218C147.681 114.442 147.074 116.527 145.85 118.346C145.295 119.173 144.175 119.476 143.159 119.674C140.781 120.135 138.507 119.879 136.448 118.524C134.847 117.47 134.057 115.905 133.697 114.072C133.329 112.197 133.5 110.417 134.158 108.596C135.125 105.932 134.216 104.399 131.409 104.088C127.677 103.672 123.997 103.91 120.538 105.653C116.497 107.691 113.841 110.892 112.288 115.068C110.632 119.519 110.321 124.068 111.041 128.751C111.755 133.401 113.337 137.677 116.279 141.36C119.528 145.428 123.674 147.804 129.078 147.859C133.588 147.906 137.538 146.333 141.33 144.182C142.834 143.329 144.239 142.3 145.665 141.318C146.558 140.704 147.57 140.698 148.479 141.375C149.158 141.88 149.329 142.938 148.934 143.892C148.506 144.923 147.731 145.719 147 146.497C144.34 149.325 141.593 152.073 138.254 154.141C134.744 156.317 131.008 157.821 126.852 158.269C121.258 158.874 115.872 158.197 110.887 155.56C103.155 151.467 98.0425 145.24 95.9419 136.693C95.9008 136.529 95.8885 136.359 95.8596 136.192C95.5593 134.452 95.3144 132.709 95.4338 131.371Z" fill="#174577"/>
<path d="M135.955 152.496C130.003 155.03 123.872 156.394 117.383 155.187C110.215 153.853 104.954 149.846 101.66 143.46C97.2554 134.921 97.3274 126.2 101.418 117.577C104.047 112.034 108.267 107.902 113.735 105.052C113.959 104.984 114.015 105.084 113.968 105.285C110.33 108.962 107.166 112.985 104.993 117.702C102.193 123.783 101.152 130.1 103.076 136.624C105.534 144.96 111.285 150.029 119.588 152.29C124.662 153.671 129.793 153.489 134.908 152.376C135.171 152.318 135.449 152.322 135.72 152.3C135.951 152.185 135.973 152.314 135.955 152.496Z" fill="white"/>
<path d="M136.055 104.935C139.769 105.913 140.978 107.859 140.215 111.457C140.116 111.919 139.985 112.375 139.894 112.84C139.592 114.395 139.915 115.743 141.219 116.765C141.643 117.096 142.052 117.446 142.49 117.806C137.983 118.406 135.631 114.647 136.333 111.489C136.473 110.861 136.658 110.241 136.837 109.623C137.308 107.99 137.088 106.464 136.055 104.935Z" fill="#FEFEFF"/>
<path d="M113.967 105.283C113.889 105.205 113.812 105.127 113.734 105.05C113.874 104.855 114.179 104.677 114.277 104.804C114.481 105.064 114.144 105.162 113.967 105.283Z" fill="#B8CADA"/>
<path d="M135.955 152.496C135.877 152.431 135.799 152.365 135.72 152.3C135.871 152.239 136.015 152.159 136.171 152.122C136.282 152.095 136.408 152.126 136.572 152.134C136.398 152.398 136.175 152.447 135.955 152.496Z" fill="#E2E9EF"/>
</svg>
