<svg width="250" height="250" viewBox="0 0 250 250" fill="none" xmlns="http://www.w3.org/2000/svg">
<rect width="250" height="250" fill="white"/>
<path d="M73.4128 65.001H134.314C134.998 65.1472 135.797 65.0801 136.504 65.1394C138.186 65.2833 139.863 65.486 141.531 65.7469C147.146 66.655 152.602 68.3627 157.732 70.8179C159.257 71.5458 160.55 72.3208 161.998 73.056C158.641 74.2944 158.719 76.6249 158.722 79.6716L158.728 83.7984L158.723 88.1251C158.722 89.4151 158.61 91.0972 159.073 92.2917C159.502 93.4028 160.36 94.2945 161.453 94.7661C161.825 94.9283 162.217 95.0401 162.618 95.0988C163.286 95.1967 166.92 95.2059 167.647 95.1442C167.333 96.3507 167.438 99.0755 167.438 100.453L167.442 107.992L167.439 112.992C167.439 113.753 167.399 114.985 167.464 115.704C167.523 116.39 167.735 117.053 168.084 117.645C168.687 118.664 169.671 119.401 170.818 119.692C171.165 119.779 171.519 119.829 171.877 119.841C173.159 119.895 174.745 119.851 176.055 119.849L188.412 119.85C189.466 119.85 190.795 119.909 191.798 119.717C191.849 120.439 191.89 121.933 192 122.556V127.447L191.99 127.51C191.866 128.358 191.828 129.968 191.735 130.924C191.508 133.188 191.152 135.437 190.67 137.661C187.573 151.777 179.513 164.312 167.956 172.989C160.539 178.578 151.921 182.361 142.786 184.039C141.114 184.341 139.43 184.577 137.74 184.746C137.287 184.789 135.008 184.933 134.729 185.001H73.3231C72.5186 184.581 72.3491 184.403 72 183.607V66.4051C72.0354 66.3113 72.0731 66.2183 72.113 66.1263C72.4014 65.4729 72.7928 65.2463 73.4128 65.001ZM123.866 164.999C124.216 164.315 124.773 163.451 125.181 162.781L127.652 158.721L131.689 152.101C132.325 151.057 133.091 149.723 133.757 148.735C132.087 145.797 129.967 142.526 128.184 139.608L116.432 120.42L108.622 107.556L106.185 103.505C103.823 99.5767 104.205 99.7839 99.6628 99.783L95.3674 99.7828C91.7521 99.783 87.7075 99.699 84.1252 99.806L122.195 162.232C122.696 163.053 123.423 164.172 123.866 164.999ZM138.751 140.544C140.001 138.451 141.265 136.366 142.545 134.29L148.652 124.273C145.32 118.968 142.019 113.442 138.76 108.083L135.966 103.486C135.229 102.278 134.273 100.249 132.743 99.9125C131.917 99.7311 130.718 99.7838 129.854 99.7835L125.93 99.7831C122.084 99.7832 117.729 99.6878 113.922 99.8038C115.463 102.506 117.4 105.524 119.042 108.212L137.621 138.688C137.957 139.24 138.399 140.024 138.751 140.544ZM153.63 116.119L157.366 109.97L163.563 99.7992L151.723 99.7849C149.121 99.785 146.258 99.7293 143.676 99.8041C145.305 102.323 146.913 105.093 148.477 107.668C150.163 110.446 152.004 113.318 153.63 116.119Z" fill="#0EAAA2"/>
<path d="M192 115.665C191.73 116.162 191.451 116.576 190.824 116.611C190.007 116.657 189.178 116.637 188.359 116.635L183.824 116.628L176.04 116.629C174.744 116.63 173.449 116.631 172.151 116.632C171.41 116.632 170.678 116.226 170.641 115.412C170.589 114.284 170.616 113.122 170.616 111.989L170.615 99.5047C170.615 98.6371 170.613 97.7706 170.623 96.902C170.629 96.4226 170.681 95.8775 171.097 95.5596C171.386 95.3388 171.812 95.2651 172.168 95.2432C173.404 95.2361 174.642 95.2538 175.879 95.2534L188.539 95.2487C189.288 95.2474 190.268 95.2115 191.003 95.3026C191.466 95.3601 191.771 95.8179 192 96.1793V115.665Z" fill="#F8B033"/>
<path d="M178.031 65.001H187.337C187.561 65.0567 187.809 65.128 188.006 65.249C188.28 65.4166 188.474 65.6892 188.542 66.0034C188.649 66.488 188.61 67.6499 188.607 68.195L188.596 71.6563C188.597 72.5468 188.769 75.6159 188.375 76.2149C188.205 76.4667 187.952 76.6501 187.661 76.7323C187.222 76.857 186.297 76.8109 185.794 76.8091L181.511 76.7968C180.626 76.7933 179.477 76.7357 178.615 76.8937C178.224 76.9654 178.018 77.3581 177.827 77.6805C177.731 80.7076 177.879 83.9371 177.82 86.9849C177.786 88.2513 177.889 89.6395 177.772 90.8925C177.64 92.2871 175.252 91.9485 174.263 91.9477L169.914 91.9456L165.45 91.9483C164.666 91.9485 163.008 92.1219 162.381 91.5969C161.968 91.2513 161.933 90.6959 161.931 90.1847C161.917 86.2922 161.926 82.3959 161.927 78.5032C161.927 77.794 161.815 76.9687 162.378 76.4426C162.626 76.211 162.872 76.1349 163.213 76.1079C167.438 76.0216 171.763 76.1368 175.979 76.0767C176.204 75.935 176.618 75.6494 176.698 75.3935C176.89 74.7777 176.821 73.7433 176.818 73.0811L176.805 68.684C176.804 68.2151 176.808 67.723 176.802 67.2563C176.786 66.1664 176.786 65.3227 178.031 65.001Z" fill="#F8B033"/>
</svg>
