<svg width="250" height="250" viewBox="0 0 250 250" fill="none" xmlns="http://www.w3.org/2000/svg">
<rect width="250" height="250" fill="white"/>
<rect x="55.002" y="57.8682" width="140" height="134.264" rx="28.0505" fill="#969942"/>
<path d="M106.489 80.1419C113.38 79.8662 120.888 80.4372 127.866 80.4695C127.425 81.5723 126.728 84.0794 126.36 85.2869C125.866 86.9115 124.994 89.4458 124.64 91.0419C121.836 90.9259 118.821 90.9627 115.935 90.8606C112.881 90.7485 109.825 90.6815 106.769 90.6597C104.184 90.6308 101.842 90.6182 99.3254 90.8938C91.8516 91.7231 91.6629 96.9894 91.6311 103.066C91.6092 107.254 91.4048 110.534 92.0052 114.779L112.406 114.778C112.394 118.287 112.305 122.152 112.405 125.632L91.6647 125.678C91.754 132.312 91.4721 138.959 91.5239 145.596C91.5488 148.774 91.4665 152.171 92.5598 155.198C93.1219 156.755 94.2986 157.615 95.7527 158.244C97.804 158.868 99.7388 158.923 101.857 158.982C106.263 159.102 110.684 158.916 115.087 159.041C114.888 159.532 114.688 160.076 114.514 160.58C113.49 163.55 112.223 166.515 111.261 169.499C103.573 170.1 91.9004 170.154 85.9384 164.622C79.6856 158.823 80.1239 146.633 80.2367 138.753C80.2675 135.2 80.34 131.647 80.4543 128.096C80.696 121.686 80.685 115.269 80.4212 108.86C80.0673 99.5693 79.7927 88.4049 88.9867 83.2608C93.8661 80.5308 101.022 80.3089 106.489 80.1419Z" fill="black"/>
<path d="M140.459 114.641C143.261 114.542 146.83 114.495 149.599 114.707C155.519 115.159 160.688 116.193 164.71 120.893C170.344 127.323 169.658 135.987 169.456 143.918C169.248 152.112 170.075 159.482 162.938 165.153C159.487 167.896 156.897 169.036 152.413 169.44C147.778 169.858 143.3 169.913 138.656 169.925C133.727 169.95 128.798 169.865 123.874 169.67C122.208 169.604 120.388 169.585 118.741 169.462L118.46 169.439C118.356 169.143 121.58 160.072 121.936 159.043C130.452 158.867 139.167 159.397 147.647 159.208C158.526 158.965 158.049 154.448 158.195 145.289C158.249 141.943 158.633 138.507 158.411 135.169C158.074 130.142 157.244 125.94 151.43 125.537C145.499 125.126 139.739 125.184 133.797 125.292C132.504 125.315 131.221 125.315 129.934 125.389L132.645 114.861C135.205 114.857 137.891 114.728 140.459 114.641Z" fill="#F6F6F6"/>
<path d="M141.245 80.4295C141.943 80.4033 142.64 80.3886 143.338 80.3855C149.899 80.3447 159.163 80.3663 163.998 85.3558C169.921 91.467 169.292 102.888 169.202 110.733L169.109 122.861C167.157 120.468 167.902 119.337 164.644 117.172C163.058 116.177 159.613 114.556 158.574 113.157C157.237 111.357 160.074 98.7869 156.65 93.6988C156.052 92.8109 155.237 92.1259 154.237 91.7373C152.418 91.0311 150.362 91.0111 148.44 90.9625C146.05 90.902 143.682 90.9397 141.293 91.005C138.124 91.0917 134.841 91.2852 131.716 90.6586C132.95 87.4713 134.057 83.8023 135.212 80.5268L141.245 80.4295Z" fill="#F6F6F6"/>
</svg>
