<svg width="250" height="250" viewBox="0 0 250 250" fill="none" xmlns="http://www.w3.org/2000/svg">
<rect width="250" height="250" fill="white"/>
<path d="M114.307 111.039H73.4576V139.785H114.307L104.221 153.401H52.2764V96.918H104.221L114.307 111.039Z" fill="#009434"/>
<path fill-rule="evenodd" clip-rule="evenodd" d="M169.782 96.918C175.909 96.918 180.877 101.885 180.877 108.013V124.655L187.109 130.108C192.788 135.078 193.938 143.474 189.802 149.786L187.433 153.401H121.872V114.065H142.044V122.134H163.73V112.552C163.73 110.324 161.924 108.517 159.696 108.517H121.872V96.918H169.782ZM142.549 143.315H173.816V140.289C173.816 134.719 169.301 130.203 163.73 130.203H142.549V143.315Z" fill="#009434"/>
<path d="M95.6475 132.724H76.9878V118.099H104.221L95.6475 132.724Z" fill="#009434"/>
</svg>
