<svg width="250" height="250" viewBox="0 0 250 250" fill="none" xmlns="http://www.w3.org/2000/svg">
<rect width="250" height="250" fill="white"/>
<path d="M174.392 63.916L174.35 103.287L115.124 103.279L115.182 122.97C107.741 123.084 99.0173 123.196 91.6014 122.925C95.9594 128.033 100.068 133.467 104.318 138.674C106.878 141.811 109.788 145.42 113.791 141.671C115.207 139.917 115.258 138.465 115.287 136.285C115.345 131.862 115.156 127.389 115.252 122.971L174.358 122.947L174.355 162.676C167.242 162.828 159.838 162.727 152.698 162.724L115.142 162.729L115.189 186.088C115.196 189.716 115.253 193.398 115.192 197.024C115.163 198.779 114.902 200.35 113.509 201.577C112.581 202.383 111.367 202.78 110.142 202.681C106.692 202.428 105.213 199.226 103.206 196.894C100.863 194.169 98.6384 191.348 96.4148 188.525C91.5263 182.362 86.5863 176.239 81.5955 170.158C79.5859 167.706 77.8131 165.313 75.7176 162.894C75.4971 149.673 75.8123 136.225 75.6492 122.945C80.9901 122.974 86.3312 122.96 91.6717 122.904C89.2801 120.523 86.0303 115.956 83.7449 113.237C81.0588 110.042 78.2886 106.611 75.7303 103.309C75.4326 93.1132 75.9162 82.7429 75.6805 72.5293C75.616 69.7414 75.5602 66.7258 75.6736 63.957L75.7703 63.3086C82.4776 63.6323 89.9593 63.4794 96.7322 63.4805L131.03 63.4824L158.387 63.4785C163.114 63.4774 169.792 63.6492 174.384 63.3037L174.392 63.916Z" fill="#0EC16E"/>
</svg>
