<svg width="250" height="250" viewBox="0 0 250 250" fill="none" xmlns="http://www.w3.org/2000/svg">
<rect width="250" height="250" fill="white"/>
<path d="M120.636 55.1297C159.213 52.7893 192.386 82.156 194.743 120.731C197.1 159.307 167.748 192.493 129.174 194.866C90.5761 197.24 57.3658 167.867 55.0076 129.268C52.6494 90.67 82.037 57.4717 120.636 55.1297ZM140.231 62.5565C134.832 61.3069 127.325 60.1995 121.768 60.7108C104.63 61.8182 89.3584 68.7372 77.6091 81.3319C66.0155 93.7597 59.3412 111.673 60.4714 128.676C61.6334 146.026 69.6428 162.204 82.7371 173.647C89.8069 179.741 98.0979 184.253 107.053 186.882C107.719 187.078 110.465 187.991 111.03 187.764L111.064 187.587C110.632 187.193 110.039 186.946 109.542 186.601C100.89 180.597 96.8519 170.496 96.3435 160.193C95.7562 148.29 100.347 136.827 104.295 125.789C107.283 117.524 110.442 108.873 114.074 100.854C115.806 97.0065 117.578 93.1764 119.389 89.3651C120.382 87.2907 122.173 83.8111 122.964 81.7381C123.149 91.4581 122.985 101.638 122.976 111.389L122.987 163.038L122.998 180.932C122.994 182.216 122.891 188.392 123.081 189.244C123.45 189.412 123.749 189.367 124.15 189.353L130.101 189.32L130.039 81.7577C133.207 87.6471 135.966 93.7406 138.646 99.8661C143.247 110.343 147.397 121.011 151.086 131.843C152.83 136.977 154.791 142.415 155.834 147.697C158.231 159.843 156.742 173.657 147.741 182.909C146.495 184.19 145.172 185.277 143.963 186.499C160.13 181.464 173.67 170.273 181.658 155.342C189.81 140.017 191.47 122.062 186.267 105.503C179.915 84.6558 161.33 67.439 140.231 62.5565Z" fill="#03AF60"/>
</svg>
