<svg width="250" height="250" viewBox="0 0 250 250" fill="none" xmlns="http://www.w3.org/2000/svg">
<rect width="250" height="250" fill="white"/>
<path d="M60.002 106.362C70.7389 117.56 81.4758 128.744 92.7974 140.539C93.8674 132.962 94.8627 126.94 95.4475 120.881C95.5719 119.625 94.4024 117.945 93.3697 116.95C88.9282 112.67 84.2129 108.676 79.7838 104.384C73.6875 98.4869 72.9534 89.0066 77.9424 83.3209C82.8319 77.7596 92.3495 77.6849 99.1674 83.4329C108.909 91.669 118.551 100.017 128.143 108.428C133.978 113.553 135.023 120.11 131.49 127.314C127.807 134.841 128.243 139.568 132.796 141.721C137.649 143.997 142.6 141.198 146.295 134.057C153.001 121.118 150.04 105.143 138.631 94.9162C127.011 84.5153 115.117 74.4377 102.95 63.875C132.025 63.875 160.802 63.875 190.014 63.875C190.014 89.4296 190.014 114.984 190.014 140.302C179.34 130.449 168.727 120.633 158.289 111.003C157.493 117.286 156.572 123.171 156.112 129.08C156 130.548 156.995 132.502 158.102 133.597C162.494 137.926 167.247 141.895 171.676 146.187C177.909 152.234 178.568 161.353 173.38 167.151C168.354 172.75 159.483 173.085 152.74 167.462C142.638 159.027 132.697 150.38 122.818 141.671C117.755 137.204 116.623 130.536 119.434 124.315C120.106 122.822 121.014 121.429 121.612 119.923C123.266 115.756 123.304 111.725 119.024 109.099C114.682 106.449 111.148 108.452 108.187 111.837C98.4707 122.947 99.7397 143.301 111.46 154.274C121.811 163.966 132.796 172.998 143.496 182.317C144.554 183.238 145.599 184.158 147.851 186.124C117.63 186.124 88.8286 186.124 60.0144 186.124C60.002 159.537 60.002 132.95 60.002 106.362Z" fill="#091336"/>
<path d="M60.002 63.875C65.9365 63.875 71.4107 63.875 76.1384 63.875C70.826 69.598 65.302 75.545 60.002 81.2681C60.002 76.2168 60.002 70.2948 60.002 63.875Z" fill="#B4CE53"/>
<path d="M190.002 186.124C184.067 186.124 178.593 186.124 173.865 186.124C179.165 180.4 184.689 174.454 190.002 168.73C190.002 173.782 190.002 179.691 190.002 186.124Z" fill="#B4CE53"/>
</svg>
