<svg width="250" height="250" viewBox="0 0 250 250" fill="none" xmlns="http://www.w3.org/2000/svg">
<rect width="250" height="250" fill="#6619B4"/>
<path d="M109.126 109.129C110.159 110.188 110.203 111.242 110.197 112.652C110.199 112.841 110.2 113.029 110.202 113.224C110.206 113.737 110.207 114.251 110.207 114.765C110.207 115.303 110.211 115.842 110.215 116.38C110.221 117.398 110.224 118.415 110.226 119.433C110.228 120.592 110.234 121.752 110.24 122.911C110.253 125.294 110.261 127.678 110.267 130.061C110.872 129.166 111.476 128.27 112.081 127.374C112.286 127.071 112.491 126.767 112.696 126.464C114.134 124.334 115.556 122.195 116.959 120.042C117.988 118.465 119.036 116.901 120.083 115.336C120.444 114.795 120.804 114.253 121.164 113.712C121.452 113.278 121.741 112.846 122.031 112.414C122.225 112.123 122.417 111.832 122.609 111.54C123.308 110.489 123.952 109.579 125.094 108.995C126.082 108.808 127.047 108.722 127.979 109.138C128.617 109.761 128.941 110.311 129.051 111.187C129.053 111.41 129.053 111.633 129.049 111.856C129.05 111.979 129.05 112.103 129.051 112.23C129.052 112.643 129.048 113.054 129.045 113.467C129.045 113.763 129.045 114.059 129.045 114.355C129.046 115.158 129.042 115.961 129.038 116.764C129.034 117.603 129.033 118.443 129.033 119.282C129.031 120.871 129.026 122.461 129.02 124.05C129.013 125.859 129.009 127.668 129.006 129.478C129 133.199 128.989 136.921 128.975 140.642C127.103 140.642 125.231 140.642 123.301 140.642C123.251 133.912 123.2 127.181 123.148 120.247C122.389 121.461 121.63 122.676 120.848 123.927C119.746 125.662 119.746 125.662 119.212 126.499C118.733 127.25 118.256 128.004 117.781 128.758C116.855 130.226 115.923 131.69 114.991 133.154C114.616 133.741 114.243 134.329 113.869 134.917C113.515 135.474 113.16 136.031 112.805 136.587C112.587 136.931 112.369 137.274 112.152 137.618C112.032 137.808 111.911 137.999 111.791 138.189C111.641 138.426 111.641 138.426 111.488 138.668C110.865 139.579 110.295 140.343 109.193 140.642C108.028 140.779 106.886 140.859 105.918 140.114C105.17 139.405 104.514 138.732 104.399 137.661C104.398 137.529 104.398 137.397 104.397 137.262C104.395 137.11 104.393 136.958 104.392 136.801C104.391 136.636 104.391 136.471 104.391 136.301C104.388 136.039 104.388 136.039 104.386 135.771C104.381 135.192 104.379 134.614 104.376 134.036C104.373 133.634 104.37 133.233 104.367 132.832C104.36 131.884 104.354 130.937 104.349 129.989C104.343 128.91 104.336 127.831 104.328 126.751C104.312 124.532 104.298 122.313 104.286 120.093C104.238 120.172 104.19 120.251 104.14 120.332C103.92 120.694 103.699 121.055 103.478 121.417C103.403 121.541 103.327 121.665 103.249 121.793C102.688 122.712 102.117 123.624 101.535 124.531C101.352 124.818 101.168 125.106 100.985 125.393C100.851 125.603 100.851 125.603 100.714 125.817C100.318 126.438 99.9249 127.061 99.5322 127.684C98.3166 129.611 97.0948 131.534 95.8644 133.452C95.6589 133.772 95.4535 134.092 95.248 134.412C95.1467 134.57 95.0454 134.728 94.941 134.891C94.0981 136.208 93.2682 137.532 92.4449 138.861C92.3552 139.006 92.2656 139.15 92.1732 139.299C92.0557 139.488 92.0557 139.488 91.9358 139.682C91.8247 139.854 91.8247 139.854 91.7114 140.029C91.6573 140.144 91.6032 140.259 91.5475 140.377C91.0329 140.837 90.3933 140.717 89.7304 140.702C89.5813 140.701 89.4322 140.7 89.2785 140.699C88.8019 140.696 88.3254 140.688 87.8489 140.681C87.5259 140.677 87.2029 140.675 86.8799 140.672C86.0879 140.665 85.2959 140.655 84.5039 140.642C84.74 139.949 85.1219 139.39 85.5414 138.798C85.6949 138.578 85.8481 138.358 86.0012 138.138C86.0822 138.021 86.1631 137.905 86.2466 137.785C86.678 137.16 87.0993 136.529 87.5206 135.897C87.6082 135.766 87.6959 135.635 87.7862 135.499C88.0597 135.089 88.3329 134.679 88.606 134.269C88.7479 134.056 88.7479 134.056 88.8926 133.839C90.0436 132.111 91.1897 130.381 92.3196 128.639C93.2765 127.165 94.2536 125.705 95.2306 124.244C95.7707 123.436 96.3096 122.627 96.8486 121.818C97.0419 121.529 97.2352 121.239 97.4284 120.949C97.522 120.808 97.6156 120.668 97.7121 120.523C98.429 119.448 99.1459 118.372 99.8629 117.297C99.971 117.135 100.079 116.973 100.19 116.806C100.423 116.457 100.655 116.109 100.887 115.761C101.431 114.945 101.975 114.129 102.517 113.312C102.686 113.057 102.855 112.802 103.025 112.547C103.235 112.231 103.444 111.914 103.653 111.598C104.962 109.628 106.575 108.055 109.126 109.129Z" fill="#FAF6FF"/>
<path d="M181.2 109.167C181.981 109.887 182.308 110.543 182.379 111.621C182.38 111.84 182.38 112.06 182.378 112.279C182.378 112.401 182.378 112.523 182.379 112.648C182.379 113.054 182.377 113.46 182.376 113.867C182.376 114.158 182.376 114.45 182.376 114.742C182.376 115.533 182.374 116.324 182.372 117.115C182.37 117.942 182.37 118.769 182.37 119.596C182.369 121.162 182.366 122.728 182.363 124.293C182.36 126.076 182.358 127.859 182.356 129.641C182.353 133.308 182.348 136.975 182.341 140.642C180.469 140.642 178.596 140.642 176.667 140.642C176.616 133.861 176.566 127.079 176.514 120.093C175.906 121.054 175.299 122.016 174.673 123.007C174.232 123.704 174.232 123.704 173.782 124.415C173.188 125.355 172.598 126.297 172.01 127.24C170.813 129.161 169.597 131.068 168.375 132.972C167.911 133.697 167.449 134.423 166.987 135.15C166.901 135.285 166.815 135.421 166.726 135.56C166.461 135.976 166.197 136.392 165.932 136.808C165.536 137.431 165.14 138.054 164.744 138.677C164.607 138.893 164.607 138.893 164.467 139.113C164.382 139.247 164.297 139.38 164.21 139.517C164.135 139.635 164.06 139.752 163.983 139.873C163.818 140.131 163.649 140.387 163.479 140.642C163.186 140.697 163.186 140.697 162.825 140.694C162.69 140.694 162.555 140.694 162.415 140.694C162.269 140.692 162.123 140.689 161.973 140.687C161.824 140.686 161.674 140.685 161.52 140.685C161.042 140.682 160.564 140.676 160.086 140.671C159.762 140.668 159.439 140.666 159.115 140.664C158.32 140.659 157.526 140.651 156.731 140.642C156.937 140.082 157.187 139.615 157.521 139.121C157.622 138.97 157.724 138.819 157.828 138.664C157.94 138.497 158.053 138.331 158.169 138.159C158.291 137.978 158.412 137.797 158.534 137.616C158.805 137.212 159.077 136.808 159.349 136.404C160.092 135.299 160.83 134.191 161.569 133.084C161.751 132.811 161.933 132.538 162.115 132.265C163.613 130.02 165.099 127.767 166.581 125.511C168.214 123.028 169.87 120.562 171.537 118.102C172.317 116.951 173.095 115.8 173.835 114.623C174.431 113.677 175.058 112.751 175.684 111.826C175.818 111.627 175.951 111.428 176.083 111.229C177.241 109.482 179.034 108.102 181.2 109.167Z" fill="#FAF6FF"/>
<path d="M154.671 109.118C155.917 110.428 155.742 112.089 155.728 113.779C155.728 114.072 155.728 114.365 155.728 114.659C155.728 115.452 155.725 116.245 155.72 117.039C155.717 117.869 155.716 118.699 155.716 119.529C155.714 121.099 155.709 122.67 155.702 124.241C155.696 126.029 155.692 127.818 155.689 129.607C155.683 133.285 155.672 136.963 155.658 140.641C153.786 140.641 151.913 140.641 149.984 140.641C149.934 133.911 149.883 127.18 149.831 120.246C148.383 122.509 146.935 124.772 145.493 127.04C145.229 127.455 144.965 127.869 144.7 128.284C143.771 129.741 142.848 131.201 141.933 132.667C140.53 134.918 139.107 137.156 137.668 139.386C137.597 139.496 137.527 139.606 137.454 139.719C136.968 140.469 136.968 140.469 136.796 140.641C136.584 140.655 136.372 140.659 136.159 140.659C136.024 140.659 135.889 140.659 135.75 140.658C135.603 140.658 135.457 140.657 135.305 140.656C135.156 140.656 135.006 140.656 134.852 140.655C134.372 140.655 133.893 140.653 133.413 140.651C133.089 140.65 132.764 140.649 132.44 140.649C131.643 140.647 130.846 140.644 130.049 140.641C130.303 139.872 130.748 139.256 131.202 138.594C131.331 138.404 131.331 138.404 131.463 138.21C131.65 137.935 131.837 137.66 132.025 137.385C132.533 136.639 133.039 135.892 133.545 135.144C133.649 134.99 133.754 134.835 133.862 134.676C134.933 133.092 135.986 131.496 137.036 129.897C139.024 126.872 141.029 123.857 143.04 120.847C144.017 119.383 144.993 117.918 145.969 116.453C146.687 115.376 146.687 115.376 147.042 114.847C147.526 114.125 148.002 113.397 148.469 112.663C148.576 112.497 148.684 112.332 148.794 112.161C149 111.841 149.205 111.52 149.407 111.197C150.604 109.353 152.448 108.221 154.671 109.118Z" fill="#FAF6FF"/>
<path d="M185.255 109.052C187.127 109.052 189 109.052 190.929 109.052C190.929 117.604 190.929 126.156 190.929 134.968C193.712 134.968 196.495 134.968 199.363 134.968C200.701 136.306 199.516 138.75 199.516 140.642C194.81 140.642 190.104 140.642 185.255 140.642C185.255 130.217 185.255 119.792 185.255 109.052Z" fill="#F9F5FF"/>
<path d="M68.7088 123.007C68.9657 123.051 69.2216 123.102 69.4755 123.16C69.502 125.204 69.502 125.204 69.3989 126.093C69.3378 126.655 69.2887 127.215 69.2647 127.78C69.2534 127.994 69.2534 127.994 69.2419 128.212C69.3252 128.698 69.4213 128.839 69.7051 129.222C70.1934 129.986 70.1926 130.651 70.176 131.539C70.1761 131.698 70.1762 131.856 70.1763 132.02C70.1758 132.541 70.1698 133.062 70.1638 133.583C70.1624 133.946 70.1613 134.309 70.1605 134.671C70.1576 135.623 70.1501 136.575 70.1416 137.527C70.1337 138.5 70.1302 139.472 70.1264 140.444C70.1182 142.351 70.1047 144.257 70.0889 146.163C68.7226 146.163 67.3562 146.163 65.9485 146.163C66.0154 144.316 66.1221 142.479 66.2775 140.638C66.5212 137.821 66.5212 137.821 66.6481 134.997C66.6541 134.87 66.66 134.743 66.6661 134.613C66.6721 133.412 66.045 132.652 65.2638 131.792C64.4021 131.017 63.5215 130.364 62.5494 129.738C61.6224 129.135 60.772 128.456 59.9175 127.756C59.5423 127.449 59.1616 127.153 58.7722 126.865C58.6798 126.796 58.5874 126.727 58.4922 126.656C58.2393 126.469 57.9852 126.283 57.7311 126.098C57.3632 125.769 57.2492 125.636 57.2075 125.154C57.3593 125.053 57.5112 124.951 57.6676 124.847C58.1989 125.151 58.1989 125.151 58.741 125.46C58.6746 125.379 58.6082 125.298 58.5397 125.214C58.4117 125.051 58.4117 125.051 58.281 124.885C58.1956 124.779 58.1102 124.672 58.0222 124.562C57.8209 124.234 57.8209 124.234 57.8209 123.62C58.2295 123.558 58.2295 123.558 58.741 123.62C59.0647 123.952 59.3065 124.241 59.5653 124.617C59.6343 124.712 59.7033 124.807 59.7743 124.905C59.9438 125.139 60.1095 125.376 60.2745 125.614C60.2174 125.497 60.1603 125.381 60.1014 125.261C60.0289 125.109 59.9563 124.956 59.8816 124.799C59.8086 124.648 59.7357 124.497 59.6605 124.341C59.5078 123.927 59.5078 123.927 59.6611 123.467C59.9141 123.467 60.1672 123.467 60.4279 123.467C60.504 123.626 60.5801 123.786 60.6585 123.95C61.2109 125.089 61.7671 126.162 62.5364 127.175C62.7281 127.454 62.7281 127.454 62.7281 127.761C64.0465 128.2 65.4485 127.967 66.6985 127.435C67.0219 127.301 67.0219 127.301 67.3286 127.301C67.3401 127.207 67.3516 127.114 67.3634 127.018C67.5304 125.904 67.8733 123.842 68.7088 123.007ZM60.4279 125.767C60.5812 126.074 60.5812 126.074 60.5812 126.074L60.4279 125.767ZM60.5812 126.074C60.7346 126.381 60.7346 126.381 60.7346 126.381L60.5812 126.074ZM60.8879 126.687C60.8373 126.839 60.7867 126.991 60.7346 127.147C60.8864 127.198 61.0382 127.249 61.1946 127.301C61.0934 127.098 60.9922 126.896 60.8879 126.687Z" fill="#C0A9D6"/>
<path d="M73.3094 123.007C73.6676 123.032 73.6676 123.032 74.0761 123.16C74.3026 123.518 74.3026 123.518 74.4787 123.984C74.5413 124.15 74.604 124.316 74.6686 124.486C75.3029 126.357 75.3029 126.357 75.3029 127.301C75.5168 127.375 75.7309 127.448 75.9451 127.521C76.0643 127.562 76.1835 127.603 76.3063 127.645C77.0672 127.879 77.7553 127.935 78.552 127.933C78.7408 127.934 78.9296 127.934 79.1241 127.934C79.5833 127.947 79.5833 127.947 79.9034 127.761C80.01 127.558 80.1113 127.353 80.2101 127.147C80.3803 126.877 80.553 126.609 80.7277 126.342C81.3186 125.421 81.8183 124.494 82.2037 123.467C82.4567 123.467 82.7097 123.467 82.9704 123.467C83.1131 123.858 83.1369 124.04 83.0046 124.442C82.9459 124.563 82.8872 124.684 82.8267 124.809C82.7684 124.931 82.71 125.054 82.65 125.18C82.6039 125.273 82.5578 125.365 82.5104 125.46C82.6082 125.34 82.7061 125.22 82.8069 125.097C82.9336 124.942 83.0603 124.786 83.1909 124.627C83.3172 124.472 83.4435 124.317 83.5737 124.158C83.8905 123.774 83.8905 123.774 84.0439 123.62C84.2994 123.614 84.5551 123.614 84.8106 123.62C84.8578 124.102 84.8533 124.325 84.5758 124.73C84.4762 124.835 84.3766 124.94 84.2739 125.048C84.1743 125.155 84.0747 125.262 83.972 125.372C83.8558 125.492 83.8558 125.492 83.7372 125.614C83.8333 125.557 83.9293 125.5 84.0283 125.441C84.1536 125.368 84.279 125.296 84.4081 125.221C84.5326 125.148 84.6572 125.075 84.7855 125C84.895 124.949 85.0045 124.899 85.1173 124.847C85.2692 124.923 85.2692 124.923 85.424 125C85.3827 125.531 85.3007 125.736 84.9233 126.124C84.7722 126.243 84.6212 126.363 84.4656 126.486C84.3832 126.552 84.3008 126.618 84.216 126.685C83.9556 126.893 83.6932 127.097 83.4305 127.301C83.2724 127.426 83.1142 127.552 82.9513 127.682C82.0569 128.384 81.1425 129.041 80.2006 129.678C78.5387 130.808 76.9918 131.897 76.0697 133.741C75.9991 135.37 76.1047 136.992 76.2374 138.615C76.2547 138.835 76.2719 139.055 76.289 139.275C76.3335 139.845 76.3792 140.414 76.4251 140.984C76.4721 141.569 76.5179 142.154 76.5639 142.739C76.6537 143.881 76.7448 145.022 76.8364 146.163C75.4701 146.163 74.1037 146.163 72.696 146.163C72.6786 144.044 72.6646 141.926 72.6563 139.808C72.6523 138.824 72.6468 137.841 72.6381 136.857C72.6298 135.908 72.6252 134.958 72.6232 134.009C72.6218 133.647 72.6191 133.285 72.6149 132.923C72.6093 132.415 72.6086 131.908 72.6089 131.4C72.6062 131.251 72.6034 131.102 72.6006 130.948C72.6073 130.054 72.7526 129.509 73.2923 128.789C73.5707 128.362 73.5202 127.994 73.4705 127.501C73.4542 127.315 73.4379 127.129 73.4211 126.938C73.3895 126.653 73.3895 126.653 73.3573 126.361C73.3214 125.981 73.2856 125.6 73.2501 125.22C73.2235 124.969 73.2235 124.969 73.1964 124.713C73.0898 123.446 73.0898 123.446 73.3094 123.007ZM81.897 126.074C82.0503 126.381 82.0503 126.381 82.0503 126.381L81.897 126.074ZM81.5903 126.841C81.5397 126.992 81.4891 127.144 81.4369 127.301C81.69 127.199 81.943 127.098 82.2037 126.994C82.0013 126.943 81.7988 126.893 81.5903 126.841Z" fill="#C0A9D6"/>
<path d="M85.2707 112.579C85.6364 114.303 86.0333 116.64 85.1173 118.253C84.6152 118.955 84.0747 119.575 83.2771 119.94C83.1759 119.94 83.0747 119.94 82.9704 119.94C83.0001 119.847 83.0297 119.754 83.0603 119.658C83.3468 118.736 83.5608 117.822 83.7371 116.873C83.2058 118.239 83.2058 118.239 82.6637 119.633C82.5625 119.633 82.4613 119.633 82.357 119.633C81.9139 118.541 81.6434 117.494 82.0209 116.341C82.4707 115.358 84.0647 112.579 85.2707 112.579Z" fill="#C0A9D6"/>
<path d="M92.1715 119.326C91.9599 120.065 91.6337 120.673 91.213 121.31C91.1511 121.405 91.0891 121.499 91.0253 121.596C90.1744 122.876 89.4672 123.749 87.9448 124.195C87.1663 124.275 86.5766 124.31 85.8841 123.927C85.9677 123.873 86.0514 123.819 86.1375 123.763C87.0076 123.194 87.8321 122.582 88.6444 121.933C87.677 122.442 86.757 122.96 85.8841 123.62C85.6511 122.951 85.8602 122.584 86.1561 121.971C86.7263 120.927 87.4737 120.348 88.6184 120.01C91.1097 119.326 91.1097 119.326 92.1715 119.326Z" fill="#C0A9D6"/>
<path d="M50 119.326C51.8777 119.523 54.2119 119.773 55.6003 121.183C56.1854 121.93 56.4991 122.67 56.5941 123.62C55.9996 123.409 55.5392 123.13 55.0318 122.757C54.5559 122.364 54.5559 122.364 53.9871 122.24C54.1275 122.347 54.2678 122.454 54.4124 122.564C54.5965 122.705 54.7806 122.846 54.9647 122.987C55.0572 123.058 55.1497 123.129 55.2451 123.201C55.6099 123.481 55.9619 123.755 56.2874 124.08C55.1996 124.428 54.0851 124.244 53.067 123.773C51.64 122.763 50.6412 120.914 50 119.326ZM53.2204 121.626C53.271 121.728 53.3216 121.829 53.3737 121.933C53.4749 121.883 53.5761 121.832 53.6804 121.78C53.5286 121.729 53.3768 121.679 53.2204 121.626Z" fill="#C0A9D6"/>
<path d="M73.9223 114.726C74.0235 114.726 74.1247 114.726 74.229 114.726C76.1926 119.062 76.1926 119.062 75.6116 120.662C75.2925 121.333 74.9675 121.916 74.3824 122.393C74.2811 122.342 74.1799 122.292 74.0757 122.24C74.0757 121.228 74.0757 120.216 74.0757 119.173C73.9744 120.235 73.8732 121.298 73.769 122.393C72.881 121.505 72.3042 120.812 72.2217 119.555C72.2706 118.198 72.9183 115.73 73.9223 114.726Z" fill="#C0A9D6"/>
<path d="M68.0957 114.726C68.1969 114.726 68.2981 114.726 68.4024 114.726C68.6022 115.159 68.7996 115.594 68.9967 116.029C69.0526 116.15 69.1085 116.272 69.1662 116.397C69.7657 117.727 70.3172 119.226 69.7802 120.663C69.4787 121.281 69.1563 121.868 68.7091 122.393C68.6079 122.393 68.5067 122.393 68.4024 122.393C68.3518 121.28 68.3012 120.166 68.2491 119.019C68.1453 119.85 68.0782 120.572 68.0861 121.396C68.0882 121.679 68.0882 121.679 68.0903 121.967C68.0921 122.107 68.0939 122.248 68.0957 122.393C67.2415 122.03 66.9202 121.356 66.5772 120.524C66.0499 118.677 67.0317 116.71 67.8825 115.109C67.9528 114.982 68.0232 114.856 68.0957 114.726Z" fill="#C0A9D7"/>
<path d="M56.9004 112.579C57.8277 112.698 58.3387 113.587 58.8939 114.266C59.9983 115.712 60.4305 116.712 60.2741 118.56C60.1599 118.966 60.0207 119.263 59.814 119.633C59.7128 119.633 59.6116 119.633 59.5073 119.633C59.1531 118.621 58.7989 117.609 58.4339 116.566C58.5288 116.981 58.6237 117.395 58.7214 117.822C58.7507 117.951 58.7799 118.08 58.81 118.213C58.9491 118.812 59.1029 119.376 59.354 119.94C58.3705 119.682 57.7688 119.204 57.1592 118.397C56.7866 117.748 56.7276 117.249 56.7267 116.506C56.7264 116.267 56.7264 116.267 56.7261 116.023C56.7267 115.858 56.7273 115.692 56.7279 115.522C56.7273 115.358 56.7267 115.194 56.7261 115.025C56.7271 114.193 56.7532 113.398 56.9004 112.579ZM58.1272 115.953C58.2805 116.26 58.2805 116.26 58.2805 116.26L58.1272 115.953Z" fill="#C0A9D6"/>
<path d="M69.6285 106.444C70.1266 106.855 70.312 107.353 70.5582 107.939C70.6359 108.122 70.7135 108.305 70.7936 108.493C71.2871 109.774 71.6195 111.138 71.1991 112.493C70.9115 113.089 70.5421 113.628 70.0885 114.112C69.9873 114.112 69.8861 114.112 69.7818 114.112C69.7836 114.008 69.7854 113.904 69.7872 113.797C69.7886 113.654 69.79 113.511 69.7914 113.364C69.7932 113.225 69.795 113.087 69.7968 112.944C69.777 112.258 69.6968 111.574 69.6285 110.891C69.5779 111.954 69.5273 113.017 69.4751 114.112C68.8966 113.919 68.8349 113.729 68.5359 113.211C68.4564 113.075 68.3769 112.94 68.2951 112.8C67.782 111.838 67.8192 110.918 68.0806 109.879C68.4546 108.654 68.9645 107.542 69.6285 106.444Z" fill="#C0A9D6"/>
<path d="M80.6699 130.061C82.3825 129.969 82.3825 129.969 83.1235 130.521C84.0012 131.525 84.5036 133.038 84.5036 134.355C83.2516 134.281 81.7238 133.935 80.7945 133.042C80.3138 132.395 80.1713 131.986 80.1907 131.173C80.1948 130.946 80.1948 130.946 80.1991 130.715C80.2026 130.6 80.2062 130.486 80.2098 130.368C80.3127 130.457 80.3127 130.457 80.4177 130.547C80.9539 131.009 81.494 131.463 82.05 131.901C81.9065 131.732 81.7627 131.562 81.6187 131.393C81.5387 131.299 81.4586 131.204 81.3761 131.107C81.1356 130.825 81.1356 130.825 80.8694 130.581C80.6699 130.368 80.6699 130.368 80.6699 130.061Z" fill="#C0A9D6"/>
<path d="M60.9166 130.051C61.0548 130.052 61.1929 130.053 61.3353 130.055C61.4407 130.057 61.546 130.058 61.6546 130.06C61.5971 130.127 61.5395 130.194 61.4803 130.263C60.9709 130.856 60.4667 131.452 59.9677 132.054C60.6869 131.546 61.2691 131.072 61.8079 130.367C61.9091 130.367 62.0104 130.367 62.1146 130.367C62.1437 131.196 62.1317 131.887 61.8079 132.667C60.8647 133.657 59.5966 134.087 58.2809 134.354C58.0785 134.354 57.876 134.354 57.6675 134.354C58.3236 131.334 58.3236 131.334 59.3735 130.377C59.9003 130.078 60.3238 130.043 60.9166 130.051Z" fill="#C0A9D6"/>
<path d="M79.2903 111.198C79.9935 111.423 80.227 111.983 80.5459 112.598C80.6003 112.696 80.6548 112.794 80.7109 112.895C81.1379 113.702 81.3672 114.468 81.2306 115.393C80.9302 116.163 80.5779 116.546 79.9037 117.026C79.8531 116.368 79.8025 115.71 79.7504 115.032C79.6998 115.69 79.6492 116.348 79.597 117.026C78.8268 116.43 78.3272 116.004 78.0635 115.032C78.0194 113.641 78.7113 112.43 79.2903 111.198Z" fill="#C0A9D6"/>
<path d="M75.1491 109.972C75.8055 110.2 76.0612 110.675 76.395 111.246C76.4482 111.334 76.5014 111.421 76.5562 111.511C77.0857 112.394 77.402 113.069 77.296 114.112C77.0197 114.898 76.8342 115.263 76.0692 115.646C75.9679 114.937 75.8667 114.229 75.7625 113.499C75.7505 114.29 75.756 115.02 75.9158 115.799C75.1598 115.491 74.6746 114.934 74.229 114.265C74.0187 113.496 74.1401 112.872 74.344 112.119C74.3701 112.013 74.3962 111.908 74.423 111.8C74.5933 111.144 74.8235 110.57 75.1491 109.972Z" fill="#C0A9D7"/>
<path d="M77.6037 120.246C77.7049 120.246 77.8061 120.246 77.9104 120.246C78.914 123.103 78.914 123.103 78.6772 124.387C78.3169 125.135 77.8009 125.588 77.1437 126.073C77.0425 126.073 76.9413 126.073 76.837 126.073C76.9382 125.264 77.0394 124.454 77.1437 123.62C76.9919 124.328 76.84 125.037 76.6836 125.767C76.5318 125.767 76.38 125.767 76.2236 125.767C75.7108 124.885 75.4117 124.185 75.6102 123.16C76.0244 122.075 76.8123 121.083 77.6037 120.246Z" fill="#C0A9D6"/>
<path d="M64.4152 120.246C65.4978 121.012 66.3058 122.138 66.6483 123.428C66.7518 124.072 66.6754 124.55 66.4087 125.153C66.0062 125.604 66.0062 125.604 65.642 125.92C65.4902 125.262 65.3383 124.604 65.1819 123.926C65.2325 124.635 65.2831 125.343 65.3353 126.073C64.5366 125.674 64.0551 125.369 63.6484 124.54C63.2285 123.083 63.7859 121.565 64.4152 120.246ZM64.8752 122.853C65.0286 123.313 65.0286 123.313 65.0286 123.313L64.8752 122.853Z" fill="#C0A9D7"/>
<path d="M62.575 111.198C63.035 111.352 63.035 111.352 63.2758 111.82C63.357 112.015 63.4364 112.21 63.5142 112.406C63.5548 112.504 63.5953 112.602 63.637 112.702C64.0364 113.674 64.3699 114.61 63.9982 115.646C63.6775 116.245 63.2818 116.641 62.7283 117.026C62.4509 116.193 62.567 115.288 62.575 114.419C62.4738 115.279 62.3725 116.139 62.2683 117.026C61.1089 115.866 61.1089 115.866 60.936 114.907C60.9687 113.619 61.8813 112.239 62.575 111.198Z" fill="#C0A9D7"/>
<path d="M63.1886 106.138C64.3662 106.744 65.5266 107.938 65.949 109.205C66.0082 110.017 66.0347 110.769 65.6423 111.505C65.2079 111.288 65.1796 111.023 65.0097 110.575C64.9555 110.434 64.9014 110.293 64.8455 110.148C64.8048 110.039 64.7641 109.93 64.7222 109.818C64.7953 110.067 64.8688 110.317 64.9426 110.566C64.9835 110.704 65.0244 110.843 65.0666 110.986C65.1709 111.349 65.1709 111.349 65.3356 111.658C64.6454 111.616 64.2304 111.322 63.738 110.868C62.8343 109.814 62.9556 108.365 63.0353 107.058C63.0816 106.75 63.1312 106.443 63.1886 106.138ZM64.4155 109.205C64.5688 109.511 64.5688 109.511 64.5688 109.511L64.4155 109.205Z" fill="#C0A9D6"/>
<path d="M77.7573 106.138C77.8585 106.138 77.9598 106.138 78.064 106.138C78.1894 106.454 78.3138 106.77 78.4378 107.087C78.5072 107.263 78.5766 107.439 78.6481 107.62C78.99 108.577 79.208 109.639 78.8631 110.624C78.6062 111.156 78.3446 111.56 77.9107 111.965C77.8095 111.914 77.7083 111.864 77.604 111.812C77.604 111.559 77.604 111.306 77.604 111.045C77.5534 111.349 77.5028 111.652 77.4506 111.965C76.8692 111.442 76.5905 110.984 76.4736 110.206C76.443 109.011 76.7769 108.122 77.2973 107.058C77.3732 106.899 77.3732 106.899 77.4506 106.737C77.5493 106.536 77.6525 106.336 77.7573 106.138Z" fill="#C0A9D7"/>
<path d="M52.9136 125.92C54.3932 125.855 56.225 125.78 57.4566 126.744C58.2808 127.655 58.2808 127.655 58.2808 128.22C57.8572 128.14 57.4641 128.05 57.054 127.914C57.5854 128.141 57.5854 128.141 58.1275 128.374C58.1275 128.475 58.1275 128.576 58.1275 128.68C57.318 128.95 56.4843 128.97 55.693 128.623C54.58 127.998 53.5196 127.046 52.9136 125.92Z" fill="#C0A9D6"/>
<path d="M89.2589 125.921C88.8035 127.024 87.613 128.118 86.5465 128.633C85.7254 128.936 84.8832 128.96 84.045 128.681C84.045 128.58 84.045 128.479 84.045 128.374C84.1462 128.324 84.2474 128.273 84.3517 128.221C84.1998 128.17 84.048 128.12 83.8916 128.068C84.5143 127.038 85.1023 126.434 86.2781 126.103C87.2739 125.88 88.2434 125.876 89.2589 125.921Z" fill="#C0A9D6"/>
<path d="M60.5814 118.559C61.5662 119.424 62.6113 120.79 62.769 122.123C62.7639 122.835 62.696 123.41 62.4216 124.079C62.3203 124.079 62.2191 124.079 62.1149 124.079C62.0136 123.877 61.9124 123.674 61.8082 123.466C61.8588 123.719 61.9094 123.972 61.9615 124.233C61.2509 124.05 60.9793 123.701 60.5838 123.121C60.2284 122.508 60.2453 121.91 60.2459 121.223C60.2458 121.113 60.2457 121.004 60.2456 120.891C60.2537 120.075 60.3564 119.346 60.5814 118.559ZM61.3481 121.626C61.5015 121.932 61.5015 121.932 61.5015 121.932L61.3481 121.626ZM61.5015 122.086C61.6548 122.699 61.6548 122.699 61.6548 122.699L61.5015 122.086Z" fill="#C0A9D6"/>
<path d="M66.7164 110.432C67.4481 111.163 67.5918 112.795 67.6742 113.81C67.6268 114.777 67.2118 115.547 66.563 116.259C66.4618 116.259 66.3606 116.259 66.2563 116.259C66.2563 115.905 66.2563 115.55 66.2563 115.185C66.2057 115.54 66.1551 115.894 66.103 116.259C65.5656 115.793 65.3458 115.418 65.1829 114.725C65.1262 113.89 65.2808 113.253 65.6046 112.492C65.6433 112.395 65.6821 112.298 65.722 112.198C65.988 111.552 66.3127 111.001 66.7164 110.432ZM66.4097 113.192C66.563 113.652 66.563 113.652 66.563 113.652L66.4097 113.192Z" fill="#C0A9D6"/>
<path d="M72.2362 112.579C72.8518 113.195 72.7277 114.269 72.7441 115.1C72.7342 116.357 72.4951 117.015 71.6803 117.946C71.3161 118.253 71.3161 118.253 71.0094 118.253C71.06 117.848 71.1106 117.443 71.1627 117.026C71.0109 117.558 71.0109 117.558 70.856 118.1C70.7548 118.1 70.6536 118.1 70.5493 118.1C70.1572 117.168 70.0459 116.22 70.3768 115.255C70.8387 114.278 71.4695 113.346 72.2362 112.579ZM71.4694 115.493C71.6228 115.799 71.6228 115.799 71.6228 115.799L71.4694 115.493Z" fill="#C0A9D7"/>
<path d="M81.4369 108.132C82.0699 108.343 82.2606 108.779 82.5966 109.32C82.6578 109.416 82.719 109.511 82.782 109.609C83.4421 110.654 83.7174 111.486 83.5838 112.732C83.4641 113.123 83.3138 113.442 83.1238 113.806C83.0226 113.603 82.9214 113.401 82.8171 113.192C82.8171 113.294 82.8171 113.395 82.8171 113.499C82.8171 113.6 82.8171 113.702 82.8171 113.806C82.0343 113.516 81.5825 112.884 81.2357 112.157C80.9494 110.804 81.2008 109.477 81.4369 108.132ZM82.2037 111.045C82.357 111.352 82.357 111.352 82.357 111.352L82.2037 111.045ZM82.357 111.506C82.5104 112.119 82.5104 112.119 82.5104 112.119L82.357 111.506Z" fill="#C0A9D6"/>
<path d="M60.4286 108.285C61.1157 108.972 60.9428 110.317 60.9484 111.245C60.9343 112.048 60.8594 112.645 60.3435 113.292C60.0395 113.576 59.733 113.786 59.3551 113.959C59.4057 113.453 59.4563 112.947 59.5085 112.426C59.4073 112.932 59.3061 113.438 59.2018 113.959C59.1006 113.959 58.9994 113.959 58.8951 113.959C58.469 112.963 58.2832 112.105 58.5884 111.045C59.0684 110.03 59.6703 109.112 60.4286 108.285ZM59.6618 111.352C59.8152 111.966 59.8152 111.966 59.8152 111.966L59.6618 111.352Z" fill="#C0A9D6"/>
<path d="M81.4367 118.559C81.538 118.559 81.6392 118.559 81.7434 118.559C81.9254 119.377 81.9365 120.167 81.9447 121.003C81.9492 121.152 81.9536 121.302 81.9582 121.456C81.9664 122.39 81.8944 122.904 81.2834 123.619C81.1853 123.742 81.0873 123.866 80.9863 123.993C80.67 124.233 80.67 124.233 80.2674 124.233C79.9032 124.079 79.9032 124.079 79.7116 123.84C79.3657 122.716 79.4018 121.916 79.9032 120.859C80.2371 120.279 80.5958 119.722 80.9767 119.172C81.0573 119.054 81.138 118.937 81.2211 118.816C81.2923 118.731 81.3634 118.646 81.4367 118.559ZM80.67 121.932C80.8233 122.392 80.8233 122.392 80.8233 122.392L80.67 121.932ZM80.5166 122.392C80.2181 123.232 80.2181 123.232 80.3633 124.079C80.5814 123.493 80.7069 123.019 80.67 122.392C80.6194 122.392 80.5688 122.392 80.5166 122.392Z" fill="#C0A9D6"/>
<path d="M74.5366 105.218C74.6884 105.268 74.8402 105.319 74.9966 105.371C75.4506 106.392 75.8362 107.623 75.61 108.745C75.2617 109.429 75.0785 109.624 74.3832 109.972C74.3832 109.466 74.3832 108.96 74.3832 108.438C74.3326 108.995 74.282 109.551 74.2299 110.125C73.2868 109.206 73.2868 109.206 73.2427 108.381C73.2479 107.184 73.8893 106.189 74.5366 105.218Z" fill="#C0A9D6"/>
<path d="M58.4339 129.294C58.5351 129.396 58.6363 129.497 58.7406 129.601C58.5381 129.753 58.3357 129.905 58.1271 130.061C58.3802 129.96 58.6332 129.859 58.8939 129.755C58.8272 130.511 58.503 130.912 57.9738 131.441C57.2284 131.77 56.5665 131.786 55.7694 131.767C55.6001 131.765 55.6001 131.765 55.4273 131.763C55.1516 131.759 54.8758 131.754 54.6001 131.748C54.9623 130.702 55.6951 129.918 56.5841 129.275C57.2201 129.094 57.7948 129.124 58.4339 129.294Z" fill="#C0A9D7"/>
<path d="M85.8975 129.5C86.6162 130.105 87.2161 130.804 87.7245 131.594C87.7245 131.645 87.7245 131.695 87.7245 131.747C87.3123 131.76 86.9004 131.769 86.4881 131.776C86.3728 131.78 86.2574 131.784 86.1386 131.788C85.3215 131.798 84.7662 131.678 84.0441 131.287C83.6524 130.803 83.3729 130.375 83.2773 129.754C83.581 129.855 83.8846 129.956 84.1974 130.06C84.0456 129.959 83.8938 129.858 83.7374 129.754C83.7374 129.602 83.7374 129.45 83.7374 129.294C84.4746 129.017 85.242 129.077 85.8975 129.5Z" fill="#C0A9D6"/>
<path d="M87.7255 115.339C87.9508 116.528 88.2142 118.105 87.6105 119.211C87.0448 119.902 87.0448 119.902 86.652 120.093C86.2495 120.093 86.2495 120.093 85.8853 119.939C85.5188 119.346 85.5003 118.781 85.5786 118.099C85.878 117.281 86.7126 115.339 87.7255 115.339ZM86.652 118.099C86.8054 118.406 86.8054 118.406 86.8054 118.406L86.652 118.099ZM86.4987 118.559C86.652 119.019 86.652 119.019 86.652 119.019L86.4987 118.559ZM86.3453 119.019C86.2947 119.323 86.2441 119.627 86.192 119.939C86.2932 119.838 86.3944 119.737 86.4987 119.633C86.4498 119.309 86.4498 119.309 86.3453 119.019Z" fill="#C0A9D6"/>
<path d="M54.6011 115.339C55.5977 116.096 56.4627 116.966 56.6677 118.25C56.6999 119.355 56.6999 119.355 56.3592 119.758C56.248 119.848 56.248 119.848 56.1346 119.939C56.0334 119.737 55.9322 119.535 55.8279 119.326C55.8785 119.579 55.9291 119.832 55.9812 120.093C55.3023 119.885 55.0054 119.597 54.6011 119.019C54.4189 118.655 54.4279 118.429 54.4274 118.022C54.4272 117.886 54.427 117.75 54.4268 117.61C54.4274 117.468 54.4279 117.326 54.4286 117.179C54.428 117.037 54.4274 116.894 54.4268 116.748C54.427 116.612 54.4272 116.476 54.4274 116.336C54.4275 116.211 54.4277 116.086 54.4279 115.957C54.4477 115.646 54.4477 115.646 54.6011 115.339ZM55.5212 118.406C55.6745 118.866 55.6745 118.866 55.6745 118.866L55.5212 118.406Z" fill="#C0A9D7"/>
<path d="M72.2356 103.838C72.9016 104.504 73.1091 105.749 73.1881 106.668C73.1273 107.479 72.7461 107.994 72.2356 108.592C72.1344 108.592 72.0332 108.592 71.9289 108.592C71.9289 108.238 71.9289 107.883 71.9289 107.518C71.8783 107.873 71.8277 108.227 71.7756 108.592C71.3029 108.166 71.0111 107.834 70.8555 107.212C70.8555 106.013 71.3823 104.691 72.2356 103.838Z" fill="#C0A9D6"/>
<path d="M86.6513 110.893C87.2244 110.977 87.4524 111.193 87.8206 111.631C87.9112 111.736 88.0017 111.841 88.095 111.95C88.4574 112.431 88.6517 112.726 88.6257 113.337C88.4721 113.874 88.2657 114.174 87.8781 114.573C87.7769 114.573 87.6757 114.573 87.5714 114.573C87.4702 114.219 87.369 113.865 87.2647 113.5C87.2647 113.854 87.2647 114.208 87.2647 114.573C86.7543 114.394 86.3578 114.254 86.0379 113.806C85.6903 112.879 86.1353 112.06 86.498 111.199C86.5486 111.098 86.5992 110.997 86.6513 110.893Z" fill="#C0A9D7"/>
<path d="M55.2152 110.893C55.6752 111.046 55.6752 111.046 55.8543 111.359C56.1622 112.139 56.4222 112.801 56.2886 113.653C55.9891 114.163 55.8247 114.375 55.2535 114.544C55.1396 114.554 55.0258 114.563 54.9085 114.573C54.9085 114.219 54.9085 113.865 54.9085 113.5C54.8579 113.854 54.8072 114.208 54.7551 114.573C54.2393 114.36 53.9548 114.144 53.6817 113.653C53.5914 113.06 53.6494 112.791 53.9404 112.263C54.2883 111.821 54.6536 111.432 55.0618 111.046C55.1124 110.995 55.163 110.945 55.2152 110.893Z" fill="#C0A9D6"/>
<path d="M79.2252 131.955C79.973 132.155 80.4109 132.813 80.8234 133.435C80.9335 133.687 81.0383 133.942 81.1301 134.202C80.2896 134.482 79.3981 134.445 78.5231 134.355C77.9224 133.969 77.7999 133.766 77.6318 133.08C77.6223 132.944 77.6128 132.808 77.603 132.668C77.9826 132.744 77.9826 132.744 78.3698 132.821C78.1674 132.67 77.9649 132.518 77.7564 132.361C78.2925 132.004 78.593 131.945 79.2252 131.955Z" fill="#C0A9D7"/>
<path d="M63.6465 131.966C64.0147 132.071 64.171 132.226 64.4157 132.515C64.2132 132.666 64.0108 132.818 63.8023 132.975C64.0553 132.873 64.3083 132.772 64.569 132.668C64.4951 133.629 64.4951 133.629 64.1749 134.081C63.6703 134.452 63.2333 134.429 62.633 134.403C62.4764 134.4 62.4764 134.4 62.3167 134.398C61.5542 134.381 61.5542 134.381 61.1953 134.201C61.4899 132.892 62.2518 131.896 63.6465 131.966Z" fill="#C0A9D6"/>
<path d="M84.8109 119.479C85.408 121.734 85.408 121.734 84.8589 122.69C84.4943 123.015 84.2021 123.171 83.7375 123.313C83.7375 123.111 83.7375 122.908 83.7375 122.7C83.6869 122.852 83.6363 123.003 83.5841 123.16C83.4829 123.16 83.3817 123.16 83.2774 123.16C82.9613 122.686 82.8886 122.217 82.9013 121.65C83.0354 121.012 83.4634 120.566 83.8908 120.093C84.0047 119.966 84.1186 119.84 84.2359 119.71C84.5042 119.479 84.5042 119.479 84.8109 119.479ZM83.8908 121.78C84.0442 122.24 84.0442 122.24 84.0442 122.24L83.8908 121.78Z" fill="#C0A9D6"/>
<path d="M57.5149 119.479C59.0936 120.77 59.0936 120.77 59.3455 121.693C59.3566 122.327 59.2536 122.641 58.895 123.16C58.6063 123.286 58.6063 123.286 58.2816 123.313C57.6644 122.996 57.2689 122.562 57.0356 121.914C57.063 121.067 57.2791 120.291 57.5149 119.479ZM58.1283 121.626C58.2816 121.933 58.2816 121.933 58.2816 121.933L58.1283 121.626ZM58.2816 122.086C58.3322 122.39 58.3828 122.694 58.435 123.007C58.5395 122.716 58.5395 122.716 58.5883 122.393C58.4871 122.292 58.3859 122.191 58.2816 122.086Z" fill="#C0A9D6"/>
<path d="M64.4147 116.259C64.9343 116.479 65.2303 116.75 65.5936 117.179C65.6859 117.286 65.7782 117.394 65.8733 117.505C66.3144 118.061 66.3026 118.469 66.2549 119.172C66.0249 119.623 66.0249 119.623 65.7948 119.939C65.6936 119.838 65.5924 119.737 65.4881 119.632C65.4881 119.734 65.4881 119.835 65.4881 119.939C65.0451 119.89 64.8224 119.749 64.453 119.489C63.9624 118.821 64.012 118.288 64.108 117.486C64.1886 117.065 64.2928 116.67 64.4147 116.259ZM65.1814 118.559C65.3348 119.019 65.3348 119.019 65.3348 119.019L65.1814 118.559Z" fill="#C0A9D6"/>
<path d="M52.4536 114.879C52.9137 115.032 52.9137 115.032 53.0592 115.306C53.3225 116.118 53.4856 116.786 53.3737 117.639C53.1553 118.032 52.9439 118.246 52.607 118.559C52.4552 118.559 52.3033 118.559 52.1469 118.559C52.1469 118.357 52.1469 118.154 52.1469 117.946C52.0963 118.148 52.0457 118.351 51.9936 118.559C51.8924 118.559 51.7912 118.559 51.6869 118.559C51.3161 117.91 51.0976 117.466 51.2268 116.719C51.5629 116.053 51.9241 115.408 52.4536 114.879Z" fill="#C0A9D6"/>
<path d="M89.4112 114.879C90.2063 115.203 90.5429 115.837 90.9448 116.566C91.1486 117.177 91.1346 117.389 90.9064 117.994C90.6381 118.406 90.6381 118.406 90.178 118.559C90.1274 118.306 90.0768 118.053 90.0246 117.793C90.0246 118.046 90.0246 118.299 90.0246 118.559C89.4644 118.368 89.2915 118.303 88.9512 117.793C88.8182 116.724 88.9708 115.852 89.4112 114.879Z" fill="#C1A9D7"/>
<path d="M77.6027 116.259C77.9094 116.412 77.9094 116.412 78.001 116.662C78.1495 117.537 78.3455 118.7 77.8734 119.489C77.6314 119.7 77.6314 119.7 77.1426 119.939C76.9908 119.889 76.839 119.838 76.6826 119.786C76.6826 119.735 76.6826 119.685 76.6826 119.632C76.5814 119.734 76.4802 119.835 76.3759 119.939C76.0683 119.435 75.9173 119.097 75.9062 118.502C76.1915 117.528 76.7792 116.838 77.6027 116.259ZM76.9893 118.406C77.1426 118.712 77.1426 118.712 77.1426 118.712L76.9893 118.406Z" fill="#C0A9D6"/>
<path d="M70.3954 120.246C71.1488 120.574 71.6186 121.113 72.0822 121.78C72.2923 122.456 72.2886 122.726 72.0151 123.38C71.9361 123.51 71.857 123.64 71.7755 123.773C71.6743 123.672 71.5731 123.571 71.4688 123.466C71.4688 123.618 71.4688 123.77 71.4688 123.926C70.8623 123.724 70.4891 123.509 70.0887 123.006C70.018 122.537 70.018 122.537 70.0312 122.019C70.0331 121.849 70.0351 121.678 70.0372 121.502C70.0872 121.027 70.194 120.677 70.3954 120.246Z" fill="#C0A9D6"/>
<path d="M66.2555 106.138C67.0332 106.515 67.6409 107.093 68.0958 107.825C68.1069 108.506 68.0125 108.793 67.6357 109.358C67.5345 109.358 67.4333 109.358 67.329 109.358C67.2784 109.257 67.2278 109.156 67.1757 109.051C67.125 109.203 67.0744 109.355 67.0223 109.511C66.1405 109.109 66.1405 109.109 65.7955 108.591C65.7883 108.204 65.7883 108.204 65.8338 107.767C65.8473 107.624 65.8607 107.48 65.8746 107.332C65.9497 106.899 66.0778 106.538 66.2555 106.138Z" fill="#C0A9D6"/>
<path d="M79.7503 117.332C79.8515 117.332 79.9527 117.332 80.057 117.332C80.2899 118.145 80.4572 119.179 80.039 119.947C79.8269 120.198 79.8269 120.198 79.4436 120.552C79.1905 120.502 78.9375 120.451 78.6768 120.399C78.5104 119.759 78.4171 119.243 78.7074 118.631C79.0239 118.159 79.3481 117.734 79.7503 117.332Z" fill="#C0A9D6"/>
<path d="M52.7603 124.386C53.1245 124.703 53.1245 124.703 53.3737 125C52.7986 125.747 52.7986 125.747 52.4536 125.92C51.5019 125.986 50.8751 125.835 50 125.46C50 125.359 50 125.257 50 125.153C50.2859 124.994 50.5738 124.838 50.8626 124.684C51.0227 124.596 51.1828 124.509 51.3478 124.419C51.9097 124.207 52.1895 124.218 52.7603 124.386Z" fill="#C0A9D6"/>
<path d="M72.6967 109.052C72.798 109.052 72.8992 109.052 73.0034 109.052C73.4725 109.872 73.7546 110.552 73.7702 111.505C73.5497 111.965 73.5497 111.965 73.3101 112.272C72.8156 112.232 72.6001 112.179 72.2559 111.812C71.9407 110.972 72.1234 110.23 72.4763 109.426C72.5854 109.241 72.5854 109.241 72.6967 109.052ZM72.8501 111.045C73.0034 111.659 73.0034 111.659 73.0034 111.659L72.8501 111.045Z" fill="#C0A9D6"/>
<path d="M85.4246 108.591C85.5258 108.591 85.627 108.591 85.7313 108.591C85.9065 109.467 86.0518 110.333 85.7026 111.179C85.378 111.559 85.1398 111.688 84.6579 111.811C84.3512 111.658 84.3512 111.658 84.1978 111.198C84.0947 110.447 84.195 110.057 84.6387 109.463C84.8894 109.155 85.1436 108.872 85.4246 108.591Z" fill="#C0A9D6"/>
<path d="M91.6976 124.862C91.912 125.002 92.1196 125.153 92.3254 125.306C91.7856 125.846 91.1399 125.943 90.3989 125.977C89.886 125.965 89.7126 125.916 89.2488 125.651C88.9517 125.306 88.9517 125.306 88.9517 124.693C89.9964 124.093 90.6745 124.271 91.6976 124.862Z" fill="#C0A9D6"/>
<path d="M56.5951 108.591C57.2866 108.821 57.6325 109.36 57.9753 109.971C58.1352 110.504 58.1566 110.786 58.0136 111.322C57.8219 111.658 57.8219 111.658 57.3619 111.811C56.6592 111.326 56.6592 111.326 56.4418 110.891C56.4269 110.53 56.4219 110.169 56.4226 109.808C56.4222 109.613 56.4218 109.419 56.4214 109.218C56.4418 108.744 56.4418 108.744 56.5951 108.591ZM57.3619 111.044C57.5152 111.351 57.5152 111.351 57.5152 111.351L57.3619 111.044Z" fill="#C0A9D6"/>
<path d="M61.3484 107.825C61.9606 108.267 62.3788 108.685 62.7286 109.359C62.8097 109.952 62.7658 110.474 62.5752 111.046C61.7477 110.972 61.7477 110.972 61.3772 110.653C60.9545 109.785 61.0063 108.903 61.1951 107.979C61.2457 107.928 61.2963 107.877 61.3484 107.825Z" fill="#C0A9D6"/>
<path d="M62.2688 117.332C63.5758 118.349 63.5758 118.349 63.6921 119.17C63.7136 119.661 63.7194 119.998 63.4189 120.399C63.343 120.45 63.2671 120.5 63.1889 120.552C62.6287 120.361 62.4558 120.296 62.1154 119.786C62.0896 119.389 62.0796 119.012 62.0867 118.616C62.0868 118.51 62.0869 118.404 62.087 118.294C62.0939 117.507 62.0939 117.507 62.2688 117.332ZM63.0355 119.939C63.1889 120.246 63.1889 120.246 63.1889 120.246L63.0355 119.939Z" fill="#C0A9D6"/>
<path d="M80.5161 108.285C80.752 108.993 80.749 109.693 80.6694 110.432C80.4106 110.854 80.4106 110.854 80.056 111.045C79.6439 111.026 79.6439 111.026 79.2893 110.892C79.0393 110.392 79.0643 110.067 79.1359 109.512C79.9538 108.285 79.9538 108.285 80.5161 108.285ZM79.596 110.585C79.7493 110.892 79.7493 110.892 79.7493 110.892L79.596 110.585Z" fill="#C0A9D6"/>
<path d="M78.9831 124.693C79.2994 124.76 79.2994 124.76 79.5965 124.847C79.549 125.243 79.501 125.639 79.4527 126.035C79.4327 126.203 79.4327 126.203 79.4123 126.374C79.348 126.898 79.2718 127.404 79.1364 127.914C78.7822 127.914 78.428 127.914 78.063 127.914C78.1867 127.406 78.3116 126.898 78.4368 126.39C78.4721 126.245 78.5074 126.1 78.5437 125.95C78.5778 125.813 78.6119 125.675 78.647 125.533C78.6784 125.405 78.7097 125.277 78.7419 125.146C78.8297 124.847 78.8297 124.847 78.9831 124.693Z" fill="#C0A9D6"/>
<path d="M63.1881 124.693C63.4806 124.734 63.4806 124.734 63.8015 124.847C63.9755 125.282 64.1062 125.681 64.2232 126.131C64.257 126.251 64.2908 126.371 64.3256 126.494C64.4617 126.987 64.5682 127.399 64.5682 127.914C64.214 127.914 63.8598 127.914 63.4948 127.914C63.4133 127.435 63.334 126.955 63.2552 126.476C63.232 126.34 63.2087 126.203 63.1848 126.063C63.1635 125.932 63.1423 125.802 63.1204 125.667C63.1003 125.547 63.0802 125.426 63.0596 125.302C63.0347 125 63.0347 125 63.1881 124.693Z" fill="#C0A9D6"/>
</svg>
