<svg width="250" height="250" viewBox="0 0 250 250" fill="none" xmlns="http://www.w3.org/2000/svg">
<rect width="250" height="250" fill="white"/>
<path d="M102.306 171.458C102.224 170.371 102.776 169.52 103.341 168.679C105.635 165.271 108.747 162.738 112.168 160.567C120.532 155.262 129.785 152.141 139.286 149.68C151.922 146.402 164.79 144.546 177.791 143.493C186.267 142.806 194.75 142.519 203.25 142.471C203.802 142.467 204.357 142.471 204.84 142.471C205.034 142.891 205.075 143.151 204.83 143.496C198.001 143.845 191.149 144.628 184.32 145.588C168.361 147.834 152.719 151.194 138.118 158.448C133.209 160.885 129.526 164.669 125.713 168.361C124.855 169.191 124.382 170.419 123.732 171.461C116.587 171.458 109.445 171.458 102.306 171.458Z" fill="#EE2B27"/>
<path d="M103.925 161.07C116.806 138.765 129.691 116.458 142.828 93.7123C151.859 109.341 160.689 124.627 169.687 140.201C165.009 140.851 160.785 141.435 156.581 142.016C151.958 134.004 147.662 126.046 142.763 118.136C142.385 118.751 142.13 119.151 141.891 119.565C136.275 129.331 130.654 139.097 125.048 148.873C124.578 149.69 124.016 150.326 123.114 150.682C116.615 153.245 110.362 156.247 105.014 160.868C104.782 161.066 104.459 161.155 104.176 161.295C104.098 161.22 104.01 161.145 103.925 161.07Z" fill="#1A3C64"/>
<path d="M132.028 74.5869C134.874 78.347 136.532 82.4934 139.143 86.4074C126.36 108.565 113.533 130.801 100.805 152.866C96.0459 152.866 91.7192 152.866 86.7899 152.866C101.959 126.62 116.92 100.727 132.028 74.5869Z" fill="#1B6C99"/>
<path d="M110.334 74.5391C112.72 78.7196 114.895 82.531 117.152 86.4826C104.38 108.664 91.6105 130.842 78.9572 152.814C74.1573 152.814 69.7863 152.814 65 152.814C80.1588 126.641 95.1373 100.781 110.334 74.5391Z" fill="#4686AE"/>
</svg>
