<svg width="250" height="250" viewBox="0 0 250 250" fill="none" xmlns="http://www.w3.org/2000/svg">
<rect width="250" height="250" fill="#003335"/>
<path fill-rule="evenodd" clip-rule="evenodd" d="M122.75 53.668C131.52 53.7908 140.73 53.7381 149.514 53.6736L184.195 113.751C185.86 116.64 187.774 120.166 189.535 122.939C186.322 128.311 159.171 174.433 159.202 175.384L159.205 175.461H190V176.287H159.242L159.244 176.322L159.085 176.287H157.591C154.229 176.374 150.445 176.311 147.003 176.287H50.0001V175.461H54.1939L54.1906 175.451C54.7743 175.076 60.8963 163.947 61.6398 162.604C66.0354 154.66 70.7027 146.779 74.9385 138.752C76.1012 136.549 77.1823 134.434 78.4103 132.257L109.082 78.0131L118.011 62.1337C119.548 59.4002 121.306 56.418 122.75 53.668ZM131.384 69.0058C128.577 73.6309 125.716 78.8293 122.989 83.5549L106.046 112.909C96.0915 129.807 86.2437 146.768 76.5029 163.791C75.6265 165.342 74.7306 167.267 73.8568 168.849C73.3387 169.786 70.353 175.275 70.353 175.275H76.9967L78.2871 175.266C79.1102 174.145 81.1576 170.33 81.7538 169.297L91.9644 151.608L131.822 82.831L141.333 99.2623C135.896 108.154 130.609 117.871 125.312 126.923C115.843 142.909 106.52 158.981 97.3436 175.138C97.3436 175.138 97.4893 175.265 97.5619 175.328C99.4437 175.394 105.057 175.43 105.057 175.43C105.323 175.104 106.228 173.474 106.48 173.035L109.454 167.864L119.674 150.153C123.449 143.521 127.269 136.915 131.134 130.336L140.614 114.197C142.116 111.593 143.91 108.639 145.29 105.998C145.501 106.485 145.808 107.055 146.078 107.515C149.085 112.633 151.948 117.877 155.025 122.95C152.297 127.112 149.055 132.901 146.559 137.222L127.693 169.887C127.08 170.947 124.942 174.484 124.709 175.406L131.958 175.458C131.958 175.458 137.175 166.439 139.362 162.648L154.134 137.038C155.97 133.855 157.762 130.666 159.729 127.563C160.669 126.081 161.489 124.441 162.508 123.003C155.237 110.081 147.509 97.266 140.199 84.3571C137.31 79.257 134.179 74.1368 131.384 69.0058Z" fill="#99FC97"/>
</svg>
