<svg width="250" height="250" viewBox="0 0 250 250" fill="none" xmlns="http://www.w3.org/2000/svg">
<rect width="250" height="250" fill="#207DFF"/>
<path d="M127.754 168.88C108.378 168.482 89.8399 165.337 72.8182 155.841C63.0635 150.398 54.8531 143.208 51.2475 132.202C48.5294 123.915 50.409 116.138 55.3702 109.059C63.8741 96.9079 76.3469 90.661 89.9587 86.4825C114.485 78.9569 139.053 79.3971 163.363 87.5306C173.348 90.8707 182.628 95.741 190.049 103.441C203.947 117.857 202.934 133.481 189.217 146.967C179.211 156.805 166.619 162.004 153.189 164.974C144.825 166.819 136.237 167.615 127.754 168.88ZM123.925 99.8776C121.186 109.206 118.524 118.269 115.659 128.003C111.25 119.079 107.015 110.834 103.116 102.435C101.935 99.8846 100.538 98.9902 97.8267 99.1998C94.5845 99.4514 91.3003 99.5003 88.0581 99.2488C85.3678 99.0461 84.4665 100.262 83.8306 102.603C80.2809 115.586 76.5915 128.527 72.9929 141.496C72.2662 144.109 71.7141 146.771 70.9595 149.937C74.1248 149.937 76.6543 149.874 79.1838 149.958C81.0216 150.02 81.7902 149.175 82.2654 147.456C84.159 140.636 86.1644 133.844 88.1769 127.052C88.9664 124.39 89.8818 121.763 90.9859 118.381C95.6605 128.729 100.035 138.211 104.199 147.784C105.115 149.881 106.275 150.405 108.413 150.377C118.307 150.244 128.202 150.265 138.096 150.265C148.221 150.265 157.34 147.204 165.271 140.972C173.411 134.578 179.546 126.954 179.071 115.767C178.799 109.486 172.181 100.43 166.682 99.9335C160.61 99.3955 154.447 99.8078 148.326 99.8078C147.704 102.645 147.194 104.986 146.614 107.627C148.787 107.843 150.667 107.802 152.407 108.277C154.098 108.738 156.026 109.367 157.172 110.569C160.603 114.195 161.763 118.437 159.765 123.363C157.046 130.085 152.12 134.871 146.691 139.371C143.602 141.936 140.374 142.46 136.237 141.419C139.591 127.604 142.938 113.832 146.334 99.8637C138.662 99.8776 131.486 99.8776 123.925 99.8776Z" fill="#144D00"/>
<path d="M123.925 99.8779C131.486 99.8779 138.669 99.8779 146.32 99.8779C142.924 113.846 139.584 127.619 136.223 141.433C140.36 142.474 143.588 141.95 146.677 139.386C152.106 134.879 157.032 130.099 159.75 123.377C161.742 118.451 160.589 114.209 157.158 110.583C156.019 109.381 154.083 108.752 152.392 108.291C150.653 107.816 148.766 107.858 146.6 107.641C147.18 105 147.69 102.659 148.312 99.822C154.433 99.822 160.589 99.4028 166.668 99.9478C172.167 100.437 178.784 109.5 179.057 115.782C179.539 126.962 173.397 134.592 165.257 140.986C157.326 147.212 148.207 150.272 138.082 150.279C128.187 150.279 118.293 150.265 108.399 150.391C106.26 150.419 105.094 149.895 104.185 147.799C100.021 138.226 95.6464 128.751 90.9717 118.395C89.8746 121.777 88.9523 124.397 88.1627 127.067C86.1503 133.858 84.1448 140.643 82.2512 147.47C81.776 149.189 81.0074 150.035 79.1697 149.972C76.6402 149.881 74.1107 149.951 70.9453 149.951C71.7 146.785 72.252 144.123 72.9787 141.51C76.5773 128.541 80.2737 115.6 83.8234 102.61C84.4593 100.276 85.3607 99.0534 88.0509 99.256C91.2931 99.5006 94.5773 99.4587 97.8195 99.2071C100.531 98.9975 101.928 99.8919 103.109 102.442C107.001 110.841 111.236 119.087 115.652 128.01C118.517 118.262 121.179 109.206 123.925 99.8779Z" fill="white"/>
</svg>
