<svg width="250" height="250" viewBox="0 0 250 250" fill="none" xmlns="http://www.w3.org/2000/svg">
<rect width="250" height="250" fill="white"/>
<path d="M60.3768 88.4258C63.32 89.4945 70.8634 95.1373 73.6829 97.1693C76.086 98.9346 78.5594 100.628 81.0989 102.248C80.9496 105.271 79.0191 109.645 78.1138 112.646C77.3491 115.183 77.2594 116.571 76.8979 119.108C75.8806 126.249 76.5486 133.621 78.8431 140.566C82.7256 152.318 91.6499 162.779 104.16 168.806C114.191 173.64 125.624 175.151 136.742 172.473C149.539 169.39 159.501 160.98 165.818 151.23C172.839 140.393 175.176 126.799 172.366 114.665C171.743 111.979 170.745 109.533 169.828 106.92C169.348 105.554 169.068 104.194 168.614 102.82C170.528 101.092 175.295 97.7798 177.55 96.2316C180.68 94.0831 186.137 90.2773 189.53 88.7128C194.625 94.3313 197.549 108.212 198.701 115.477C201.184 134.081 196.388 152.865 185.071 168.885C175.043 182.995 159.519 194.022 140.567 197.941C123.381 201.522 105.234 199.029 90.2174 191.022C71.3112 181.104 58.4994 163.532 53.422 145.29C51.8237 139.65 50.9099 133.883 50.6954 128.082C50.2996 116.587 53.3191 98.2826 60.3768 88.4258Z" fill="#F5A333"/>
<path d="M122.476 50.5445C128.708 50.1905 136.378 50.9912 142.344 52.3739C154.605 55.2156 164.841 60.6857 173.559 68.541C176.928 71.5758 179.155 73.2718 181.679 77.0732C176.686 80.2879 171.705 84.1906 166.766 87.5095C164.973 88.7134 162.535 90.6466 160.701 91.6637C158.49 90.3054 157.395 88.7616 155.533 87.2214C150.942 83.4238 145.182 79.8594 138.964 78.4443L138.978 101.906C137.036 102.645 134.532 103.831 132.609 104.682C128.978 106.251 125.382 107.876 121.821 109.558C118.61 111.138 114.136 112.958 110.738 114.468L110.998 78.4503C104.893 79.9605 98.612 83.5056 94.1598 87.367C92.1743 89.0891 91.6528 90.3644 89.1077 91.7981C88.5262 91.2532 86.9279 90.1758 86.2199 89.679L80.9653 85.993L73.2328 80.5335C71.6714 79.4305 69.9514 78.1545 68.3174 77.155C69.921 73.7248 74.6094 70.0089 77.594 67.4365C87.7923 58.6466 101.212 52.8881 115.509 51.0489C117.783 50.7564 120.176 50.6621 122.476 50.5445Z" fill="#273A65"/>
<path d="M138.644 121.315L138.776 121.307C139.126 121.613 138.975 125.052 138.975 125.721L138.987 134.118L138.995 156.309C131.449 159.647 121.327 160.598 113.457 157.574C112.813 157.313 112.044 156.858 111.431 156.518C110.944 154.669 110.892 150.544 110.834 148.522C110.709 143.645 110.636 138.765 110.615 133.887C113.734 132.579 117.001 131.002 120.098 129.612L138.644 121.315Z" fill="#273A65"/>
<path d="M138.774 106.807C138.829 106.866 138.884 106.924 138.938 106.983C139.015 109.652 138.953 113.778 139.005 116.311C137.541 116.856 135.455 117.874 133.977 118.508C130.238 120.167 126.46 121.767 122.796 123.546C118.861 125.456 114.71 127.01 110.683 128.722C110.596 128.117 110.657 126.209 110.666 125.545C110.709 123.587 110.715 121.63 110.681 119.673C115.803 117.392 120.638 115.091 125.679 112.771L138.774 106.807Z" fill="#273A65"/>
</svg>
