<svg width="250" height="250" viewBox="0 0 250 250" fill="none" xmlns="http://www.w3.org/2000/svg">
<rect width="250" height="250" fill="white"/>
<path d="M146.169 149.304C151.599 144.006 171.647 141.941 170.435 129.053C170.095 125.428 148.836 74.0257 144.993 70.1203C137.576 62.5779 127.441 68.5175 119.064 72.0652C108.951 76.3483 98.8447 80.6694 88.7136 84.9123C82.5706 87.4875 67.81 94.5404 73.1929 103.536C75.7078 107.738 100.801 109.086 108.526 110.186C118.302 111.581 124.537 113.177 130.879 118.343C130.662 118.48 130.427 118.621 130.179 118.766C118.11 125.148 101.623 131.924 91.2598 139.442C90.9849 146.427 92.1764 147.474 95.8604 153.024C98.4714 156.956 100.785 160.672 103.528 164.499C111.707 175.909 118.485 193.772 128.654 196.982C134.256 198.75 140.004 197.583 143.189 193.622C145.262 191.045 146.598 163.654 146.171 149.307L146.169 149.304Z" fill="black"/>
</svg>
