<svg width="250" height="250" viewBox="0 0 250 250" fill="none" xmlns="http://www.w3.org/2000/svg">
<rect width="250" height="250" fill="white"/>
<path d="M166.591 77.7579L60.798 98.7275L59 134.365L129.992 119.808L120.981 192.865L156.222 188.681L168.525 79.5362C168.648 78.442 167.672 77.5438 166.591 77.7579Z" fill="#50C2EB"/>
<path d="M187.024 118.047L167.33 122.372L163.318 158.23L187.394 152.937L188.998 119.715C189.05 118.645 188.071 117.817 187.024 118.047Z" fill="#91C83D"/>
<path d="M80.0969 172.367L84.1776 133.785L118.772 126.5L118.423 132.553L124.213 130.582L120.024 166.675L82.0285 174.134C80.9538 174.345 79.9817 173.456 80.0969 172.367Z" fill="#91C83D"/>
<path d="M124.44 81.142L89.7995 88.1007L92.274 63.5124L124.851 59.1495C125.9 59.0091 126.801 59.8907 126.684 60.942L124.44 81.142Z" fill="#91C83D"/>
</svg>
