<svg width="250" height="250" viewBox="0 0 250 250" fill="none" xmlns="http://www.w3.org/2000/svg">
<rect width="250" height="250" fill="#F77500"/>
<path d="M68.2441 143.833V160.613C68.2441 171.576 76.9882 180.774 87.9557 180.801C94.3992 180.819 100.126 177.743 103.747 172.983C104.241 172.325 105.29 172.674 105.29 173.5V174.92C105.29 186.5 114.769 195.812 126.331 195.076C136.649 194.423 144.822 185.842 144.822 175.356V173.5C144.822 172.674 145.865 172.325 146.364 172.983C149.985 177.743 155.707 180.815 162.155 180.796C173.123 180.769 181.867 171.571 181.867 160.608V143.828C181.867 135.869 177.157 129.026 170.378 125.895C169.72 125.591 169.72 124.648 170.378 124.344C177.157 121.208 181.867 114.365 181.867 106.406V89.6305C181.867 78.663 173.118 69.4697 162.155 69.4379C155.707 69.4198 149.985 72.4963 146.364 77.2563C145.865 77.9143 144.822 77.5649 144.822 76.739V75.3142C144.822 63.7341 135.342 54.4228 123.78 55.1579C113.457 55.8159 105.29 64.3966 105.29 74.8831V76.739C105.29 77.5649 104.246 77.9143 103.747 77.2563C100.126 72.4963 94.3992 69.4198 87.9557 69.4379C76.9882 69.4742 68.2441 78.672 68.2441 89.635V106.411C68.2441 114.37 72.9542 121.217 79.7289 124.348C80.3914 124.652 80.3914 125.591 79.7289 125.9C72.9542 129.031 68.2441 135.874 68.2441 143.833ZM107.772 106.415V104.559C107.772 103.738 108.815 103.384 109.31 104.033C112.917 108.788 118.626 111.86 125.051 111.86C131.481 111.86 137.185 108.788 140.792 104.038C141.291 103.384 142.33 103.743 142.33 104.564V106.42C142.33 114.374 147.04 121.222 153.82 124.353C154.478 124.657 154.478 125.596 153.82 125.904C147.04 129.035 142.33 135.883 142.33 143.837V145.693C142.33 146.514 141.291 146.873 140.792 146.22C137.185 141.464 131.481 138.397 125.051 138.397C118.626 138.397 112.917 141.469 109.31 146.22C108.815 146.873 107.772 146.514 107.772 145.698V143.842C107.772 135.883 103.062 129.04 96.2868 125.909C95.6243 125.6 95.6243 124.661 96.2868 124.353C103.062 121.222 107.772 114.374 107.772 106.415Z" fill="#FBF4A2"/>
</svg>
