<svg width="250" height="250" viewBox="0 0 250 250" fill="none" xmlns="http://www.w3.org/2000/svg">
<rect width="250" height="250" fill="#25214F"/>
<path d="M122.807 55.7402C122.807 55.7402 111.113 62.6592 102.956 72.1301C94.7924 81.6009 87.0024 94.1072 87.0024 94.1072C87.0024 94.1072 99.0834 99.5457 106.046 106.941C114.083 115.199 122.814 126.775 122.814 136.127C122.807 145.479 122.807 55.7402 122.807 55.7402Z" fill="#D9AC0A"/>
<path d="M125.017 55.7402C125.017 55.7402 136.711 62.6592 144.867 72.1301C153.024 81.6009 160.822 94.1146 160.822 94.1146C160.822 94.1146 148.741 99.5531 141.778 106.948C133.741 115.206 125.01 126.783 125.01 136.135C125.01 145.479 125.017 55.7402 125.017 55.7402Z" fill="#D9AC0A"/>
<path d="M160.438 174.836V184.181H91.9921V174.836H89.4321V194.261H162.997V174.836H160.438Z" fill="#D9AC0B"/>
</svg>
