<svg width="250" height="250" viewBox="0 0 250 250" fill="none" xmlns="http://www.w3.org/2000/svg">
<rect width="250" height="250" fill="white"/>
<path d="M91.2638 55.222C93.9958 54.8233 98.8054 55.0817 101.641 55.0894L119.31 55.0975L144.519 55.0835C150.336 55.0772 157.098 54.7449 162.729 55.7762C175.908 58.1897 187.977 70.8381 188.969 84.3496C189.336 89.3551 189.188 94.7006 189.187 99.7142L189.184 126.839L189.188 151.383C189.194 155.837 189.42 163.346 188.696 167.49C187.689 173.056 185.267 178.27 181.664 182.63C175.676 189.886 168.184 193.896 158.849 194.786C157.356 195.145 151.797 194.944 150.108 194.937L134.824 194.923L106.439 194.938C100.457 194.944 93.4252 195.283 87.6248 194.312C74.1058 192.048 62.3288 179.203 61.0504 165.586C60.626 161.065 60.8287 155.669 60.8289 151.045L60.8313 125.796L60.8287 99.4783C60.8142 87.8855 59.7268 77.5648 67.8187 68.0173C74.4539 60.1884 81.0098 56.2868 91.2638 55.222Z" fill="#E41F24"/>
<path d="M124.82 110.379C141.788 109.017 165.928 116.431 174.34 132.378C178.958 141.135 179.199 150.734 176.294 160.108C173.361 169.569 165.785 175.764 157.117 180.074C139.932 188.192 118.398 188.471 100.545 182.38C90.913 179.095 79.6361 172.098 75.1179 162.692C71.9063 155.5 71.3675 152.563 71.3955 144.699C79.25 146.233 88.4163 147.429 96.3792 148.318C113.564 150.29 130.852 151.212 148.149 151.077C149.597 151.068 156.295 151.129 157.142 150.735L157.238 150.328C156.655 148.557 151.826 146.641 150.118 145.84C134.51 138.52 117.587 134.381 100.894 130.349C97.916 129.629 91.8857 127.84 89.0039 127.72C98.0305 117.325 111.193 111.399 124.82 110.379Z" fill="white"/>
<path d="M121.292 64.6822C121.758 64.6267 122.324 64.6318 122.791 64.6115C142.314 63.7652 166.833 69.2283 171.453 91.5378C172.109 94.7041 172.36 97.4981 172.482 100.754L138.54 102.58C138.392 96.7888 137.184 82.8504 133.546 78.4856C130.222 85.2443 128.338 88.9159 123.776 95.0074C114.911 106.367 103.968 113.957 90.7163 119.218C88.4533 120.117 85.1732 121.037 83.1241 122.15C78.2501 114.923 75.8157 109.155 75.1218 100.429C73.0081 73.8498 99.4984 66.2404 121.292 64.6822Z" fill="white"/>
</svg>
