<svg width="250" height="250" viewBox="0 0 250 250" fill="none" xmlns="http://www.w3.org/2000/svg">
<rect width="250" height="250" fill="#131547"/>
<path fill-rule="evenodd" clip-rule="evenodd" d="M140.574 64.4657C155.955 63.8108 170.016 73.2291 174.112 88.2833C174.709 90.4762 174.731 92.336 175.084 94.526C176.232 95.1609 177.373 95.6547 178.533 96.3276C193.464 104.989 199.726 123.726 191.053 139.156C190.202 140.696 189.208 142.154 188.084 143.508C185.596 146.458 181.754 150.292 179.076 153.1L167.485 165.41L160.124 173.255C157.823 175.719 156.267 177.587 153.61 179.678C150.35 182.378 146.907 183.983 142.832 185.106C138.308 186.353 133.598 186.485 128.955 185.857C128.216 185.757 126.861 185.571 126.237 185.187C118.599 186.844 112.064 186.982 104.708 183.773C102.444 182.788 100.324 181.5 98.4081 179.943C95.4338 177.553 92.7253 174.781 89.9558 172.152L77.3545 160.189C74.7512 157.709 72.0704 155.091 69.4374 152.685C63.8994 147.623 59.6861 143.808 56.9282 136.581C50.7074 120.278 60.1867 101.93 76.0637 95.7346C76.0437 89.787 78.2884 83.027 81.7529 78.2166C86.9677 70.9758 94.6448 66.2895 103.456 64.9032C106.77 64.3819 109.691 64.4633 113.024 64.4639H136.21C137.606 64.4633 139.207 64.5238 140.574 64.4657ZM132.213 166.038C131.85 166.005 131.128 166.127 130.738 166.191C126.948 166.8 123.22 166.618 119.425 166.095C120.403 166.945 121.325 167.727 122.327 168.522C122.97 169.033 125.346 170.369 125.639 170.741C129.164 169.009 129.405 168.286 132.117 166.115L132.213 166.038ZM79.2852 109.461C77.0477 110.778 75.6405 111.765 73.9071 113.567C67.4298 120.299 67.021 131.805 74.2125 138.186C75.0646 138.941 75.9784 139.813 76.8023 140.602L84.8466 148.24C90.0118 153.218 95.2225 158.149 100.478 163.031C101.342 163.832 102.205 164.739 103.057 165.508C103.075 165.178 102.567 163.626 102.427 163.149C102.059 161.889 100.886 157.115 101.336 156.263C100.153 154.674 98.2374 152.167 97.3116 150.422C95.0449 146.15 93.3208 141.347 91.3104 136.919C87.1889 127.84 83.3764 118.551 79.2852 109.461ZM172.2 108.525C167.722 119.098 163.12 129.618 158.394 140.083C157.14 142.933 155.982 145.839 154.716 148.686C153.96 150.384 152.901 151.874 151.845 153.384C151.632 153.689 150.408 155.386 150.303 155.666C150.18 159.26 149.716 161.886 148.541 165.298C149.019 165.039 176.659 135.771 178.185 133.696C180.727 130.24 181.613 125.811 180.947 121.61C180.024 115.79 176.847 111.924 172.2 108.525ZM135.631 95.016C133.058 94.1904 127.33 93.7262 124.875 95.066C118.704 96.1786 112.822 102.562 112.027 108.806C111.568 112.405 112.266 116.981 112.527 120.678L114.044 141.516C114.135 142.656 114.701 148.57 114.519 149.337C115.44 150.26 117.717 151.33 118.93 151.752C123.627 153.387 129.536 153.193 134.003 150.937C134.65 150.61 136.37 149.852 136.611 149.159C136.677 149.188 136.81 149.203 136.888 149.216C141.8 146.441 144.465 137.02 146.947 132.076C147.589 130.797 150.623 123.954 150.705 123.025C150.719 123.011 150.734 122.993 150.751 122.971C150.772 122.944 150.795 122.909 150.821 122.869C150.849 122.826 150.88 122.776 150.913 122.719C151.907 121.007 155.124 113.257 155.779 111.789L158.002 106.826C158.439 105.85 159.121 104.468 159.38 103.464C157.148 102.899 154.62 101.819 152.446 101.049C151.468 100.702 149.863 100.023 148.887 99.8871C148.171 99.4213 145.647 98.6186 144.707 98.277C141.745 97.2026 138.607 95.9712 135.631 95.016ZM99.9665 100.7C99.1239 101.062 98.2701 101.431 97.411 101.797C97.1276 101.918 96.8435 102.039 96.5591 102.159C96.0454 102.377 95.5308 102.593 95.0159 102.806C94.3298 103.089 93.6437 103.367 92.9605 103.636C92.6264 103.768 92.2928 103.898 91.9604 104.024C92.0343 104.234 92.1211 104.464 92.2185 104.708C92.2671 104.831 92.3184 104.957 92.3718 105.086C92.639 105.732 92.9614 106.458 93.2937 107.187C93.4267 107.479 93.561 107.771 93.6943 108.059C94.094 108.922 94.4821 109.747 94.7804 110.4C96.0365 113.153 97.2921 116.59 98.6045 119.23L98.6054 119.231C98.6075 118.969 98.6004 118.66 98.5875 118.32C98.5318 116.849 98.3596 114.814 98.286 113.614C98.0898 110.41 98.2363 108.045 98.7231 105.548C98.7749 105.282 98.8308 105.015 98.8904 104.745C99.0545 104.001 99.248 103.236 99.4708 102.426C99.5467 102.15 99.6258 101.869 99.7084 101.581L99.9665 100.7ZM148.366 79.1876C144.411 77.8518 139.972 78.1671 135.833 78.1679L113.493 78.1657C111.411 78.1582 108.624 78.0758 106.594 78.3091C104.353 78.5676 102.175 79.2194 100.16 80.2342C96.6028 82.0156 92.657 85.542 91.3122 89.3686C92.2956 88.6716 97.5025 86.7226 98.982 86.1132C101.902 84.9106 105.139 83.3986 108.061 82.3022C113.08 80.419 119.384 79.9764 124.676 80.7785C128.028 80.584 131.104 80.3649 134.493 80.7881C140.731 81.5671 146.658 84.668 152.623 86.4851C154.156 86.9522 158.326 88.5975 159.604 88.8355C157.211 84.057 153.425 80.8961 148.366 79.1876Z" fill="#F28730"/>
<path fill-rule="evenodd" clip-rule="evenodd" d="M124.875 95.0658C127.33 93.7259 133.059 94.1901 135.631 95.0158C138.607 95.971 141.745 97.2019 144.707 98.2764C145.648 98.618 148.171 99.4211 148.888 99.8869C149.863 100.023 151.468 100.702 152.447 101.049C154.62 101.819 157.148 102.898 159.38 103.464C159.121 104.467 158.439 105.85 158.002 106.826L155.779 111.788C155.066 113.387 151.317 122.435 150.705 123.025C150.623 123.954 147.59 130.796 146.948 132.076C144.465 137.019 141.801 146.441 136.888 149.216C136.81 149.203 136.677 149.188 136.611 149.158C136.799 147.614 136.758 143.083 136.767 141.302L136.887 128.319C136.924 125.05 136.978 121.781 137.051 118.513C137.18 113.772 137.638 108.503 135.558 104.102C133.298 99.3202 129.781 96.8047 124.875 95.0658ZM148.888 99.8869C151.093 105.967 151.037 110.44 150.866 116.861C150.816 118.746 150.871 121.195 150.705 123.025C151.317 122.435 155.066 113.387 155.779 111.788L158.002 106.826C158.439 105.85 159.121 104.468 159.38 103.464C157.148 102.899 154.62 101.819 152.447 101.049C151.468 100.702 149.863 100.023 148.888 99.8869Z" fill="#FEFEFE"/>
<path d="M76.0639 95.7341C76.395 99.3592 76.4 101.789 77.6605 105.395C78.1227 106.717 78.7454 108.007 79.1971 109.219L79.2853 109.46C77.0478 110.778 75.6407 111.765 73.9072 113.566C67.4299 120.299 67.021 131.804 74.2126 138.185C75.0648 138.94 75.9785 139.812 76.8024 140.602L84.8468 148.24C90.012 153.218 95.2226 158.148 100.478 163.031C101.342 163.831 102.205 164.739 103.057 165.507C105.611 168.445 109.47 171.259 113.264 172.145C117.161 173.055 122.073 172.601 125.639 170.74C129.164 169.009 129.405 168.286 132.117 166.115L132.214 166.038C133.508 165.678 135.343 165.233 136.566 164.785C140.233 163.422 143.758 161.537 146.769 159.027C148.001 157.999 149.074 156.629 150.303 155.666C150.18 159.259 149.716 161.885 148.542 165.298C147.908 166.565 147.186 168.327 146.527 169.479C142.528 176.512 136.104 181.847 128.457 184.487C127.8 184.708 126.809 184.951 126.237 185.187C118.599 186.844 112.064 186.982 104.708 183.772C102.444 182.788 100.324 181.5 98.4082 179.943C95.4339 177.553 92.7254 174.78 89.9559 172.152L77.3546 160.189C74.7512 157.709 72.0706 155.091 69.4376 152.684C63.8995 147.622 59.6863 143.808 56.9283 136.581C50.7073 120.278 60.1866 101.929 76.0639 95.7341Z" fill="#FEFEFE"/>
<path d="M91.3123 89.3682C92.2953 88.6713 97.503 86.7222 98.9824 86.1128C101.903 84.9102 105.139 83.3979 108.061 82.3015C113.08 80.4183 119.385 79.9757 124.676 80.7779C124.039 81.1192 122.562 81.4458 121.806 81.6254C113.825 83.5225 106.655 88.6607 102.469 95.7347C101.471 97.4198 100.864 99.0582 99.9666 100.699C97.3473 101.827 94.6206 103.009 91.9603 104.024C90.7092 101.716 89.8173 98.5648 89.8396 95.9453C89.8551 94.1001 90.3316 90.958 91.3123 89.3682Z" fill="#FEFEFE"/>
<path d="M124.675 80.7781C128.028 80.5836 131.104 80.3645 134.493 80.7876C140.731 81.5666 146.658 84.668 152.623 86.4851C154.156 86.9523 158.326 88.5976 159.604 88.8355C161.573 89.9762 165.93 91.1871 168.292 92.0383C170.316 92.7674 173.121 93.9229 175.084 94.5259C176.232 95.1608 177.373 95.6543 178.533 96.3272C193.464 104.989 199.725 123.726 191.053 139.155C190.202 140.696 189.208 142.154 188.083 143.508C185.595 146.458 181.754 150.292 179.076 153.1L167.484 165.41L160.123 173.254C157.822 175.719 156.266 177.586 153.609 179.677C150.349 182.378 146.907 183.983 142.832 185.106C138.308 186.353 133.597 186.485 128.954 185.857C128.216 185.757 126.86 185.571 126.236 185.187C126.808 184.952 127.799 184.708 128.457 184.487C136.103 181.847 142.527 176.512 146.527 169.48C147.185 168.327 147.907 166.565 148.541 165.298C149.012 165.046 176.659 135.77 178.185 133.695C180.727 130.24 181.612 125.811 180.946 121.61C180.024 115.79 176.846 111.924 172.199 108.524C169.593 106.876 167.81 106.467 164.947 105.473C163.087 104.815 161.231 104.146 159.38 103.464C157.147 102.899 154.619 101.819 152.446 101.049C151.467 100.702 149.862 100.023 148.887 99.8871C148.17 99.4213 145.647 98.6181 144.706 98.2766C141.744 97.2021 138.607 95.9711 135.631 95.016C133.058 94.1903 127.33 93.7261 124.874 95.066C118.704 96.1786 112.822 102.562 112.026 108.806C111.568 112.405 112.266 116.981 112.526 120.678L114.043 141.515C114.134 142.655 114.701 148.569 114.519 149.336C110.752 147.296 109.204 143.307 107.519 139.654C105.853 136.038 104.324 132.426 102.812 128.745C101.579 125.742 100.076 122.847 98.8468 119.835L98.6048 119.231C98.6163 117.832 98.376 115.091 98.2855 113.614C97.9715 108.487 98.5348 105.51 99.9659 100.7C100.863 99.0585 101.471 97.4201 102.468 95.735C106.655 88.6611 113.825 83.5228 121.806 81.6257C122.562 81.4461 124.039 81.1194 124.675 80.7781Z" fill="#00A94D"/>
<path d="M101.335 156.263C105.536 160.074 108.444 162.672 114.028 164.53C115.684 165.082 117.958 165.591 119.424 166.095C120.403 166.945 121.324 167.727 122.326 168.522C122.97 169.032 125.347 170.369 125.639 170.741C122.072 172.602 117.161 173.055 113.264 172.145C109.469 171.259 105.61 168.445 103.056 165.508C103.074 165.179 102.566 163.626 102.427 163.149C102.058 161.89 100.885 157.115 101.335 156.263Z" fill="#00A94D"/>
<path d="M132.265 151.687C132.246 151.693 132.226 151.699 132.207 151.706C132.245 151.693 132.283 151.679 132.32 151.665C132.302 151.672 132.283 151.68 132.265 151.687Z" fill="#00A94D"/>
<path d="M134.649 150.619L134.393 150.744C134.588 150.649 134.811 150.538 135.04 150.417C134.906 150.488 134.775 150.556 134.649 150.619Z" fill="#00A94D"/>
<path d="M136.336 149.552C136.329 149.558 136.322 149.564 136.316 149.57C136.335 149.552 136.353 149.534 136.37 149.516C136.359 149.528 136.348 149.54 136.336 149.552Z" fill="#00A94D"/>
<path d="M145.763 134.679L145.518 135.256C145.682 134.866 145.844 134.486 146.004 134.118C145.924 134.302 145.843 134.489 145.763 134.679Z" fill="#00A94D"/>
<path d="M159.116 104.276C159.093 104.337 159.069 104.4 159.044 104.462C159.081 104.368 159.117 104.274 159.151 104.181C159.139 104.212 159.128 104.244 159.116 104.276Z" fill="#00A94D"/>
</svg>
