<svg width="250" height="250" viewBox="0 0 250 250" fill="none" xmlns="http://www.w3.org/2000/svg">
<rect width="250" height="250" fill="white"/>
<path fill-rule="evenodd" clip-rule="evenodd" d="M123.918 55.0087C162.566 54.4112 194.384 85.2516 194.991 123.899C195.6 162.547 164.768 194.372 126.12 194.991C87.4579 195.61 55.6171 164.763 55.0088 126.101C54.4008 87.4388 85.2557 55.6064 123.918 55.0087ZM183.225 123.387C182.445 91.2552 155.763 65.84 123.631 66.6253C91.5089 67.4103 66.1029 94.0835 66.881 126.206C67.6594 158.328 94.3272 183.739 126.45 182.968C158.582 182.196 184.002 155.52 183.225 123.387Z" fill="#4FB949"/>
<path d="M100.506 93.352L107.473 93.3379C108.564 93.3357 110.506 93.2816 111.511 93.4304C112.38 93.5504 113.22 93.8238 113.993 94.238C117.309 96.0483 117.75 99.2945 118.636 102.662L120.267 108.914C121.82 115.002 123.456 121.069 125.176 127.112C125.433 125.725 126.022 123.791 126.403 122.401C127.134 119.753 127.849 117.101 128.548 114.444L131.321 103.761C132.708 98.5473 133.358 93.5185 140.084 93.3971C143.264 93.3398 146.477 93.3763 149.66 93.3703C150.391 98.5329 152.178 104.738 152.796 109.924C158.009 109.81 163.464 109.92 168.711 109.893C168.107 112.373 167.37 116.574 166.993 119.077C163.2 119.313 158.491 119.075 154.541 119.177C155.157 121.977 155.838 125.442 156.318 128.272L168.606 128.269C168.113 130.82 167.181 134.984 166.938 137.447L158.169 137.448C158.438 139.623 159.184 143.03 159.611 145.296C160.112 147.958 160.67 151.548 161.319 154.087C156.758 154.155 152.037 154.099 147.463 154.101C146.872 149.969 145.678 144.774 144.863 140.614L141.087 120.523C140.82 119.219 140.567 117.913 140.329 116.604C139.498 119.185 138.874 121.762 138.149 124.376C136.889 128.833 135.659 133.299 134.461 137.774L131.882 147.434C131.286 149.613 130.59 151.918 130.082 154.107L120.138 154.097C119.413 151.186 118.473 148.13 117.696 145.199L109.78 116.104C109.189 118.743 108.685 121.705 108.185 124.384L105.385 139.306L103.531 148.688C103.24 150.173 102.701 152.608 102.583 154.046C98.071 154.104 93.4226 154.048 88.9004 154.046C90.0361 148.581 91.0259 142.861 92.051 137.363C90.2971 137.516 85.0651 137.416 83.2061 137.384C82.6767 135.222 81.7871 130.384 81.4729 128.197C82.7911 128.28 84.6058 128.232 85.9707 128.232L93.8381 128.254C94.4941 125.215 95.084 122.162 95.6072 119.097L83.2061 119.093C82.9575 118.141 82.7549 116.807 82.5636 115.811C82.1709 113.834 81.7963 111.854 81.4396 109.87C86.741 109.932 92.1333 109.883 97.4415 109.881C97.5913 108.453 97.9527 106.914 98.1935 105.491C98.8657 101.521 99.9731 97.3197 100.506 93.352Z" fill="#4FB949"/>
</svg>
