<svg width="250" height="250" viewBox="0 0 250 250" fill="none" xmlns="http://www.w3.org/2000/svg">
<mask id="path-1-inside-1_769_666" fill="white">
<path d="M0 48C0 21.4903 21.4903 0 48 0H202C228.51 0 250 21.4903 250 48V202C250 228.51 228.51 250 202 250H48C21.4903 250 0 228.51 0 202V48Z"/>
</mask>
<path d="M0 48C0 21.4903 21.4903 0 48 0H202C228.51 0 250 21.4903 250 48V202C250 228.51 228.51 250 202 250H48C21.4903 250 0 228.51 0 202V48Z" fill="white"/>
<path d="M48 0V2H202V0V-2H48V0ZM250 48H248V202H250H252V48H250ZM202 250V248H48V250V252H202V250ZM0 202H2V48H0H-2V202H0ZM48 250V248C22.5949 248 2 227.405 2 202H0H-2C-2 229.614 20.3858 252 48 252V250ZM250 202H248C248 227.405 227.405 248 202 248V250V252C229.614 252 252 229.614 252 202H250ZM202 0V2C227.405 2 248 22.5949 248 48H250H252C252 20.3858 229.614 -2 202 -2V0ZM48 0V-2C20.3858 -2 -2 20.3858 -2 48H0H2C2 22.5949 22.5949 2 48 2V0Z" fill="#DDDBDB" mask="url(#path-1-inside-1_769_666)"/>
<g clip-path="url(#clip0_769_666)">
<rect x="50" y="50" width="150" height="150" rx="75" fill="#005174"/>
<path d="M50.2516 180.912C100.169 180.922 150.082 180.932 200 180.942C200 187.285 200 193.627 200 200C150.062 200 100.129 200 50.1913 200C49.9952 193.637 49.8595 187.27 50.2516 180.912Z" fill="#FBC710"/>
<path d="M153.792 167.653C134.538 144.672 110.409 130.583 80.6142 125.433C90.4469 110.222 100.219 95.1078 109.967 80.0333C137.163 89.8616 161.754 139.058 153.792 167.653ZM115.743 125.961C123.188 125.986 129.079 120.207 129.205 112.757C129.325 105.439 123.067 99.1367 115.728 99.187C108.454 99.2373 102.386 105.354 102.386 112.642C102.386 120.021 108.323 125.936 115.743 125.961Z" fill="#FBC710"/>
<path d="M158.226 131.554C152.883 111.188 143.02 94.2879 127.587 80.7023C131.433 74.752 135.178 68.9576 138.928 63.1582C150.973 72.4735 163.429 115.609 158.226 131.554Z" fill="#FBC710"/>
</g>
<defs>
<clipPath id="clip0_769_666">
<rect x="50" y="50" width="150" height="150" rx="75" fill="white"/>
</clipPath>
</defs>
</svg>
