<svg width="250" height="250" viewBox="0 0 250 250" fill="none" xmlns="http://www.w3.org/2000/svg">
<rect width="250" height="250" fill="white"/>
<path d="M125.63 118.238H125.294C123.949 118.268 122.632 118.626 121.457 119.282L59.1899 154.313C57.956 155.006 56.9237 156.009 56.1948 157.222C55.4659 158.436 55.0656 159.819 55.0332 161.235V161.656C55.0578 162.986 55.4166 164.29 56.0766 165.445C57.1351 167.329 58.8953 168.717 60.973 169.307C63.0507 169.898 65.2773 169.641 67.1668 168.594C85.342 158.372 122.315 137.539 123.375 137.118C124.069 136.767 124.837 136.588 125.614 136.596C126.3 136.58 126.978 136.742 127.583 137.067C128.575 137.606 182.764 168.847 182.764 168.847C183.941 169.519 185.264 169.889 186.618 169.925H187.039C188.441 169.892 189.811 169.498 191.016 168.781C192.222 168.064 193.223 167.049 193.922 165.832C194.604 164.617 194.974 163.251 194.999 161.858V161.656C194.983 160.235 194.598 158.844 193.881 157.618C193.164 156.392 192.14 155.375 190.91 154.666L129.535 119.299C128.347 118.61 127.003 118.234 125.63 118.205" fill="#002668"/>
<path d="M125.631 80.1596H125.294C123.948 80.1816 122.629 80.5406 121.457 81.2038L59.1904 116.234C57.955 116.92 56.9191 117.916 56.1844 119.123C55.4497 120.331 55.0416 121.709 55 123.122V123.543C55.0289 124.873 55.3874 126.176 56.0434 127.333C57.1077 129.22 58.8765 130.608 60.9618 131.192C63.047 131.776 65.2787 131.509 67.1673 130.448C85.3425 120.242 122.316 99.4095 123.376 98.9885C124.068 98.6328 124.836 98.448 125.614 98.4495C126.299 98.4419 126.976 98.6039 127.583 98.9211L182.765 130.701C183.937 131.385 185.262 131.762 186.619 131.796H187.039C188.443 131.763 189.815 131.367 191.021 130.647C192.227 129.927 193.226 128.907 193.922 127.686C194.612 126.474 194.983 125.107 194.999 123.712V123.527C194.983 122.104 194.598 120.71 193.881 119.482C193.164 118.254 192.14 117.233 190.91 116.52L129.535 81.1533C128.346 80.4694 127.002 80.0986 125.631 80.0754" fill="#D2232A"/>
</svg>
