<svg width="250" height="250" viewBox="0 0 250 250" fill="none" xmlns="http://www.w3.org/2000/svg">
<rect width="250" height="250" fill="white"/>
<path d="M63.8032 55.0001H186.224C182.671 59.1992 178.882 63.4203 175.255 67.5646L91.4909 163.298C82.295 173.826 72.8608 184.388 63.7754 195C63.9223 189.934 63.8002 184.122 63.7995 178.981L63.8032 55.0001Z" fill="#E52730"/>
<path d="M130.472 150.697C136.728 150.84 143.47 150.705 149.756 150.706L184.968 150.7L184.965 192.393L99.5614 192.385C98.2065 192.385 95.0481 192.296 93.8523 192.462C96.8225 189.196 99.8536 185.627 102.778 182.289L126.32 155.368C127.477 154.04 129.261 151.865 130.472 150.697Z" fill="#272526"/>
<path d="M184.779 88.3806C184.968 88.5923 184.894 92.9167 184.894 93.4907L184.898 132.236C183.577 132.335 181.674 132.273 180.32 132.272L146.689 132.255L146.591 132.238C146.642 131.823 165.938 109.97 167.992 107.589C173.173 101.581 179.554 94.4819 184.779 88.3806Z" fill="#272526"/>
</svg>
