<svg width="250" height="250" viewBox="0 0 250 250" fill="none" xmlns="http://www.w3.org/2000/svg">
<rect width="250" height="250" fill="white"/>
<path d="M113.523 136.721V126.953L137.608 114.633V124.512L113.523 136.721Z" fill="#BC8C49"/>
<path d="M113.523 125.621V114.411L137.497 101.869V113.079L113.523 125.621Z" fill="#BC8C49"/>
<path d="M123.601 185.219V197.258L81.2814 177.492V164.845L123.601 185.219Z" fill="#0A30A1"/>
<path d="M169.152 176.692L126.832 196.458V184.418L169.152 164.044V176.692Z" fill="#0A30A1"/>
<path d="M123.601 170.443V182.482L81.2814 162.717V150.07L123.601 170.443Z" fill="#0A30A1"/>
<path d="M169.152 161.917L126.832 181.682V169.643L169.152 149.27V161.917Z" fill="#0A30A1"/>
<path fill-rule="evenodd" clip-rule="evenodd" d="M75.3156 148.598H79.5166V176.934L73.7001 173.783V167.046H70.4691V172.394L64.6527 170.242V167.677H60V161.99H65.8164V166.707H69.4992V158.323H60V152.636H69.4992V143.718H75.3156V148.598ZM70.4691 157.289H73.7001V153.476H70.4691V157.289Z" fill="#0A30A1"/>
<path fill-rule="evenodd" clip-rule="evenodd" d="M180.5 151.841H190V157.528H180.5V165.912H184.184V161.195H190V166.882H185.347V169.447L179.53 171.599V166.252H176.3V172.987L170.483 176.138V147.802H174.684V142.923H180.5V151.841ZM176.3 156.494H179.531V152.68H176.3V156.494Z" fill="#0A30A1"/>
<path d="M123.601 155.668V167.707L81.2814 147.942V135.294L123.601 155.668Z" fill="#0A30A1"/>
<path d="M169.152 147.141L126.832 166.907V154.867L169.152 134.494V147.141Z" fill="#0A30A1"/>
<path d="M137.608 147.265L125.954 153.148L113.523 147.265V136.587L137.608 124.508V147.265Z" fill="#0A30A1"/>
<path d="M65.8164 149.405H60V143.718H65.8164V149.405Z" fill="#0A30A1"/>
<path d="M190 148.609H184.184V142.923H190V148.609Z" fill="#0A30A1"/>
<path d="M160.029 97.318V136.721L139.939 146.821V86.6628L160.029 97.318Z" fill="#0A30A1"/>
<path d="M110.947 146.108L90.4898 136.879V97.9635L110.947 86.8887V146.108Z" fill="#0A30A1"/>
<path d="M79.5166 139.906H74.4754V134.219H79.5166V139.906Z" fill="#0A30A1"/>
<path d="M175.525 139.11H170.483V133.423H175.525V139.11Z" fill="#0A30A1"/>
<path d="M137.386 97.318L113.301 109.861V85.775L137.386 71.5676V97.318Z" fill="#0A30A1"/>
<path d="M136.173 64.2779V70.1225L121.406 78.7369V52.7419L136.173 64.2779Z" fill="#0A30A1"/>
</svg>
