<svg width="250" height="250" viewBox="0 0 250 250" fill="none" xmlns="http://www.w3.org/2000/svg">
<rect width="250" height="250" fill="white"/>
<path d="M52.1738 131.014C54.088 131.178 57.2837 131.1 59.2712 131.101L186.04 131.102C189.909 131.104 194.027 131.171 197.875 131.011C197.691 135.152 197.742 139.281 197.744 143.425V160.592L197.728 169.697C197.727 170.902 197.663 173.914 197.883 174.924C189.221 174.779 180.278 174.901 171.596 174.9L108.164 174.941L59.4093 174.897C57.1834 174.894 54.3538 174.814 52.1969 175C52.1221 173.3 52.1426 171.438 52.1536 169.733C52.2366 156.838 52.0114 143.905 52.1738 131.014ZM54.2672 172.83C56.4607 172.6 57.3942 172.717 59.5332 172.696L69.5312 172.635L194.574 172.734C194.869 172.777 195.164 172.816 195.46 172.85L195.628 172.717C195.846 167.934 195.705 162.571 195.705 157.739L195.701 132.813L59.3629 132.825C57.7483 132.828 55.7896 132.897 54.2018 132.842C54.4008 140.319 54.2293 148.594 54.2295 156.118L54.2123 168.657C54.2079 169.963 54.313 171.588 54.2672 172.83Z" fill="#EE1F23"/>
<path d="M111.106 139.071C119.391 139.072 122.284 143.513 122.694 145.734L115.524 146.748C115.33 145.807 114.089 143.924 110.672 143.924C106.398 143.924 104.587 146.169 104.587 151.529C104.587 156.888 106.036 159.206 110.672 159.206C114.38 159.206 116.031 158.144 116.393 157.613V154.86H111.106V150.298H123.418V160.075C122.452 161.524 118.551 164.421 110.672 164.421C100.822 164.421 96.6203 159.206 96.6203 151.529C96.6204 143.852 100.749 139.071 111.106 139.071Z" fill="#2C3091"/>
<path fill-rule="evenodd" clip-rule="evenodd" d="M181.765 139.737C184.874 139.737 187.394 142.258 187.394 145.367C187.394 148.182 185.315 150.565 182.526 150.946L182.409 150.962V150.978C185.265 151.369 187.394 153.809 187.394 156.692V157.418C187.394 161.062 184.441 164.016 180.797 164.016H163.332V139.737H181.765ZM171.556 158.419H177C178.18 158.419 179.137 157.462 179.137 156.282C179.137 155.102 178.18 154.145 177 154.145H171.556V158.419ZM171.556 148.815H176.541C177.645 148.815 178.54 147.919 178.54 146.816C178.54 145.712 177.645 144.817 176.541 144.817H171.556V148.815Z" fill="#2C3091"/>
<path d="M142.253 153.359H143.562L147.267 139.535H157.297V163.79H151.153V145.235H150.398L145.426 163.79H140.211L135.239 145.235H134.44V163.79H128.181V139.535H138.548L142.253 153.359Z" fill="#2C3091"/>
<path d="M92.4815 144.139H80.18V149.607H90.6113V153.707H80.18V163.779H72.698V139.391H92.4815V144.139Z" fill="#2C3091"/>
<path d="M124.108 75.0001C124.184 75.02 124.24 75.0369 124.315 75.0629L124.421 75.1009C125.581 75.5115 128.67 78.1659 129.931 79.064C135.954 83.3548 142.041 87.7358 147.942 92.1943C149.398 93.2947 150.425 93.7973 151.831 95.0796C151.549 90.8158 152.153 85.6286 151.802 81.1706C155.624 81.2412 159.447 81.268 163.269 81.2514C164.788 81.2528 168.045 81.3391 169.371 81.1351C169.169 85.8489 169.251 91.0712 169.158 95.8474L169.042 102.638C169.022 104.058 168.946 105.915 169.129 107.281C169.744 107.875 170.617 108.327 171.301 108.854C174.687 111.289 178.073 113.703 181.453 116.146C185.14 118.809 189.125 121.16 192.545 124.207C193.278 124.859 194.906 125.428 195.43 126.228L195.382 126.386C193.745 126.594 190.471 126.527 188.716 126.526L65.1155 126.522C63.675 126.523 54.418 126.651 53.7217 126.31L53.6537 126.084C54.5636 125.273 56.8932 123.887 58.1104 122.948C63.3145 118.932 68.846 115.081 74.2038 111.253C75.8877 110.05 77.5094 108.726 79.1796 107.506C80.242 106.73 81.4396 106.056 82.5046 105.273L101.081 91.756C103.559 89.9289 105.639 88.2084 108.258 86.4787C111.562 84.2955 114.674 81.4543 118.082 79.3975C120.044 78.2137 122.12 75.9335 124.108 75.0001Z" fill="#EE1F23"/>
</svg>
