<svg width="250" height="250" viewBox="0 0 250 250" fill="none" xmlns="http://www.w3.org/2000/svg">
<rect width="250" height="250" fill="white"/>
<path d="M91.1417 82.6188C91.3093 89.4469 91.196 96.284 91.2187 103.117C91.2413 110.108 91.2187 117.097 91.2187 124.09V145.152C95.4944 145.399 99.6117 145.313 104.127 145.152V125.632C104.127 122.448 104.318 122.253 107.341 122.251H133.557C137.321 122.251 137.328 122.251 137.328 125.936V179.36H147.381C147.028 180.037 146.619 180.683 146.158 181.292C143.144 184.329 140.2 187.422 137.079 190.332C133.679 193.524 129.165 195.256 124.503 195.158C119.842 195.059 115.404 193.139 112.142 189.807C101.187 178.936 90.2668 168.029 79.3811 157.084C73.2664 150.97 67.3261 144.694 61.0212 138.795C59.1138 137.036 57.5935 134.899 56.5569 132.521C55.5203 130.142 54.9901 127.574 55.0001 124.979C55.0102 122.385 55.5601 119.821 56.615 117.45C57.67 115.08 59.2068 112.955 61.1276 111.211C70.2974 102.544 79.0187 93.4214 87.9598 84.5076C88.7366 83.7308 89.5904 83.0333 90.4102 82.3018L91.1417 82.6188Z" fill="#54575C"/>
<path d="M168.243 122.022H169.348C169.378 123.13 169.781 123.696 170.97 123.155C171.823 122.802 172.533 122.171 172.985 121.366C173.437 120.56 173.604 119.626 173.461 118.714C173.354 117.335 173.393 115.944 173.271 114.567C173.255 114.372 172.677 114.232 172.365 114.062C172.4 113.235 172.347 112.407 172.209 111.591C171.938 110.982 171.575 110.417 171.133 109.918C170.496 108.514 169.729 107.757 168.118 108.86C167.378 109.256 166.542 109.438 165.704 109.385C146.53 109.414 127.355 109.414 108.181 109.385C107.463 109.348 106.748 109.273 106.039 109.159C105.12 104.943 104.986 100.594 105.644 96.3294C105.714 96.0961 105.731 95.8502 105.695 95.6094C105.658 95.3687 105.568 95.139 105.432 94.937C105.296 94.735 105.117 94.5656 104.908 94.441C104.699 94.3164 104.465 94.2397 104.222 94.2164L104.243 93.0683C105.461 92.1745 106.96 91.7471 108.466 91.8635C118.064 91.936 127.664 91.9133 137.264 91.8635C138.271 91.772 139.268 91.5892 140.242 91.3176C140.49 90.107 140.666 88.8827 140.768 87.6511C140.847 84.8655 140.79 82.0754 140.79 78.8188H94.2734C94.7031 78.0699 95.1876 77.3538 95.7228 76.6764C101.129 71.2411 106.593 65.8444 111.963 60.3706C113.574 58.6775 115.504 57.319 117.642 56.3731C119.779 55.4272 122.082 54.9124 124.419 54.8583C126.708 54.7464 128.995 55.1074 131.138 55.9187C133.281 56.7299 135.234 57.974 136.875 59.5734C142.491 65.0766 148.072 70.6145 153.618 76.1872C160.489 83.0432 167.349 89.9128 174.199 96.796C179.48 102.084 184.859 107.277 190.018 112.678C193.253 116.038 195.041 120.532 194.999 125.195C194.957 129.859 193.087 134.319 189.792 137.619C177.961 149.547 166.082 161.424 154.154 173.25C154.003 173.368 153.838 173.466 153.663 173.542C151.593 173.017 151.872 171.336 151.872 169.828V127.911C151.872 126.498 151.704 125.089 151.593 123.347H154.922C158.901 123.347 162.876 123.347 166.853 123.388C167.89 123.433 168.243 122.956 168.243 122.022Z" fill="#386884"/>
<path d="M168.246 122.029C168.246 122.953 167.895 123.433 166.86 123.42C162.881 123.372 158.906 123.386 154.93 123.379H151.596C151.707 125.121 151.87 126.529 151.875 127.942C151.893 141.911 151.893 155.88 151.875 169.851C151.875 171.357 151.596 173.039 153.666 173.565L150.987 176.391L150.391 176.165C150.314 175.159 150.165 174.126 150.165 173.121C150.165 156.933 150.149 140.748 150.117 124.566C150.117 122.922 150.452 121.848 152.244 121.859C157.604 121.882 162.924 121.966 168.246 122.029Z" fill="#4C6D79"/>
<path d="M104.206 94.2506C104.448 94.2739 104.683 94.3506 104.892 94.4752C105.101 94.5997 105.28 94.7692 105.416 94.9712C105.552 95.1732 105.642 95.4028 105.678 95.6436C105.715 95.8843 105.698 96.1303 105.628 96.3636C104.97 100.628 105.103 104.977 106.022 109.193C106.732 109.307 107.447 109.382 108.165 109.42C127.339 109.43 146.513 109.43 165.688 109.42C166.526 109.473 167.362 109.291 168.102 108.894C169.719 107.794 170.489 108.559 171.116 109.952C163.555 109.981 155.99 110.036 148.426 110.038C134.751 110.038 121.075 110.033 107.399 110.022C104.21 110.022 104.081 109.904 104.088 106.781C104.099 102.589 104.167 98.4199 104.206 94.2506Z" fill="#486673"/>
<path d="M140.226 91.3519C139.252 91.6233 138.255 91.8059 137.248 91.8977C127.65 91.9407 118.05 91.9611 108.45 91.8977C106.944 91.7813 105.445 92.2087 104.227 93.1024C104.523 92.4895 104.923 91.9331 105.411 91.4583C105.819 91.1797 106.543 91.3383 107.116 91.3405C118.153 91.3481 129.19 91.3519 140.226 91.3519Z" fill="#486673"/>
<path d="M172.356 114.078C172.673 114.245 173.251 114.388 173.262 114.583C173.387 115.96 173.346 117.353 173.452 118.729C173.596 119.642 173.428 120.576 172.976 121.382C172.525 122.187 171.815 122.817 170.961 123.171C169.772 123.73 169.376 123.171 169.34 122.038L172.089 121.477C172.187 119.003 172.273 116.542 172.356 114.078Z" fill="#4C6D79"/>
</svg>
