<svg width="250" height="250" viewBox="0 0 250 250" fill="none" xmlns="http://www.w3.org/2000/svg">
<rect width="250" height="250" fill="white"/>
<path d="M151.436 45.9998H152.041C152.428 47.1339 152.463 48.0247 152.751 49.0801C153.375 51.3674 153.825 53.5438 154.318 55.8465L158.152 74.1407L160.22 83.7703C160.58 85.403 161.741 89.9927 161.633 91.4787C160.94 91.8827 150.623 85.8001 149.554 84.9479C146.77 87.1869 145.68 90.3818 143.781 93.2C142.172 95.588 140.622 97.6797 139.215 100.25C138.192 102.118 136.371 104.057 135.342 105.982C134.527 107.273 133.843 108.522 133.059 109.808C132.395 110.899 131.387 112.066 130.667 113.19C129.439 115.105 128.28 117.05 127.06 118.965C126.54 119.779 125.797 120.534 125.236 121.388L113.541 139.556C110.219 144.674 107.017 150.051 103.397 154.973C102.447 156.264 101.712 157.735 100.571 158.885C96.0823 163.325 91.6852 166.775 85.4504 168.545C84.1288 168.921 83.1014 169.38 81.69 169.587C77.489 167.348 75.717 165.729 72.2606 162.507C66.5564 157.191 61.8126 151.907 57.7425 145.236C54.198 139.426 51.0704 133.598 49.0946 127.019C48.926 126.49 48.6858 125.358 48.4863 124.973V123.587C51.2208 124.423 57.9737 127.667 60.4 129.219C58.8649 133.733 57.3236 136.563 57.9314 141.747C58.7105 148.393 69.5786 153.956 75.3833 152.856C83.9749 151.229 89.6496 140.599 93.8641 133.753C96.3811 129.734 99.4307 125.502 102.073 121.54C102.928 120.273 103.498 118.828 104.32 117.577L124.305 87.2172L132.512 74.2365C137.153 67.0175 142.073 59.895 146.662 52.6406C148.215 50.1857 149.814 48.3218 151.436 45.9998Z" fill="#EA5E35"/>
<path d="M123.642 186C123.622 185.978 123.266 185.594 123.266 185.594C120.809 184.946 105.741 183.053 105.385 180.785C105.821 179.545 107.068 177.911 107.776 176.689C111.122 170.916 114.854 165.272 118.361 159.589L140.043 124.464C142.929 119.772 145.869 114.901 148.659 110.131C149.279 109.072 150.686 107.177 151.57 106.337C153.359 109.624 155.488 112.737 157.089 116.152C158.534 119.236 160.283 121.857 161.475 125.064C160.522 127.949 158.869 129.608 157.372 132.078L146.457 149.816C145.691 151.037 145.026 152.408 144.271 153.658L138.119 163.646C134.76 169.133 131.265 174.555 127.952 180.101C127.215 181.346 126.411 182.551 125.542 183.71C125.221 184.136 123.888 185.702 123.748 186H123.642Z" fill="#036E01"/>
<path d="M141.442 186C142.21 183.423 143.994 181.25 145.331 178.969C148.713 173.2 152.382 167.58 155.921 161.901C157.184 159.869 158.338 157.56 159.605 155.497C160.116 154.667 160.908 153.906 161.274 153.249C163.696 148.904 166.343 144.766 168.97 140.55C169.291 140.035 169.953 139.024 170.44 138.731C170.809 138.701 170.866 138.715 171.147 138.955C172.26 139.91 180.668 152.995 181.512 154.844C181.055 157.248 179.454 159.302 178.2 161.373L172.956 169.944C171.375 172.502 169.996 175.053 168.266 177.508C167.786 178.189 167.389 179.062 166.862 179.77C166.446 180.322 165.942 180.8 165.37 181.187C162.414 183.178 154.372 184.433 150.717 184.97C149.521 185.145 146.425 185.465 145.549 186H141.442Z" fill="#036E01"/>
</svg>
