<svg width="250" height="250" viewBox="0 0 250 250" fill="none" xmlns="http://www.w3.org/2000/svg">
<rect width="250" height="250" fill="#DA4A07"/>
<path d="M174.011 97.2015C164.424 91.2056 148.257 81.0915 131.751 70.7611L38 130.607C69.1725 104.91 100.336 79.2054 133.589 51.7874C148.889 68.9788 163.912 85.8587 174.011 97.2015Z" fill="white"/>
<path d="M178 170.025H118.889C141.462 167.178 157.161 165.206 173.284 163.173C174.446 150.575 175.564 138.324 176.691 126.073C176.691 140.427 178 155.152 178 170.025Z" fill="white"/>
<path d="M134.474 186.212H73.1953V142.771L78.1538 179.152C95.2744 181.298 111.979 183.392 134.474 186.212Z" fill="white"/>
<path d="M145.326 122.725H132.67V135.772H145.326V122.725Z" fill="white"/>
<path d="M145.318 137.217H132.506V150.229H145.318V137.217Z" fill="white"/>
<path d="M145.316 107.644H132.521V120.553H145.316V107.644Z" fill="white"/>
<path d="M145.371 92.9879H132.619V105.551H145.371V92.9879Z" fill="white"/>
<path d="M128.594 123.573V136.576C125.924 137.718 122.942 139.008 119.067 140.669C118.894 136.646 118.738 133.211 118.564 129.404C122.006 127.405 124.945 125.692 128.594 123.573Z" fill="white"/>
<path d="M128.777 92.832V106.77C125.769 107.731 122.727 108.7 119.086 109.85V99.3902C121.938 97.4608 124.981 95.4017 128.777 92.832Z" fill="white"/>
<path d="M128.701 109.331V120.587C125.918 122.223 122.971 123.953 119.312 126.107V112.455C122.225 111.486 125.181 110.508 128.701 109.331Z" fill="white"/>
<path d="M128.647 138.705V150.169C125.83 151.311 122.822 152.531 118.973 154.097V143.515C121.651 142.183 124.789 140.626 128.647 138.705Z" fill="white"/>
</svg>
