<svg width="250" height="250" viewBox="0 0 250 250" fill="none" xmlns="http://www.w3.org/2000/svg">
<rect width="250" height="250" fill="white"/>
<path d="M135.574 73.4792H135.629C135.818 73.6801 137.099 74.6062 137.395 74.826L141.214 77.6552L155.414 88.2125L188.386 112.717C190.556 114.331 192.76 115.936 194.914 117.567C196.604 118.847 198.269 120.305 200 121.54C197.323 124.188 194.668 127.073 191.963 129.656C192.488 127.202 192.934 124.401 193.367 121.909C192.731 121.527 191.677 120.719 191.032 120.255L186.384 116.908L172.146 106.664L148.589 89.7092C144.378 86.6817 139.756 83.4938 135.649 80.3785C134.954 80.8532 133.722 81.4894 132.947 81.9207L127.948 84.6962L112.012 93.5597L58.8811 123.237C58.8076 125.487 58.6573 127.723 58.6207 129.972C57.6419 129.323 57.0629 128.658 56.2107 127.921C54.4543 126.402 52.6828 124.509 50.9043 123.048C51.6029 122.594 52.6371 122.047 53.3773 121.626L58.0406 118.965L71.7714 110.935L114.093 86.0986L128.977 77.3858L133.357 74.83C133.84 74.5473 135.184 73.7958 135.574 73.4792Z" fill="#25396E"/>
<path d="M143.683 127.328C143.852 128.121 143.877 129.911 143.945 130.817L144.573 139.794L146.268 163.314L146.898 172.406C146.976 173.538 147.011 175.418 147.148 176.478L139.915 176.476L139.064 151.021L138.693 141.013C138.659 139.8 138.569 138.543 138.584 137.334L138.364 137.116C137.848 140.226 137.529 144.038 137.138 147.211L134.759 166.479L134.068 172.219C133.914 173.591 133.79 175.094 133.548 176.448C131.92 176.424 130.292 176.423 128.664 176.443L125.688 150.571L124.419 139.414C124.278 138.222 124.178 136.889 124.01 135.72C123.774 137.233 123.78 138.912 123.723 140.454L123.463 147.706L122.603 167.586C122.499 169.627 122.407 171.668 122.325 173.708C122.291 174.565 122.315 175.624 122.239 176.449C119.992 176.418 117.441 176.379 115.195 176.446C115.259 173.42 115.545 170.318 115.676 167.276L117.205 134.905C117.361 131.583 117.626 128.242 117.735 124.923C121.033 123.291 124.483 121.323 127.758 119.765C128.062 121.712 128.115 123.611 128.312 125.557L129.554 138.415L130.277 145.891C130.514 148.19 130.725 149.764 130.785 152.083C131.235 150.291 131.277 147.627 131.489 145.776C131.777 143.277 131.956 140.793 132.184 138.298L133.515 124.466C133.67 122.827 133.914 121.038 134.016 119.414L143.683 127.328ZM138.365 137.116L138.584 137.333C138.607 136.737 138.605 136.21 138.482 135.625L138.365 137.116Z" fill="#25396E"/>
<path d="M134.371 93.4719C134.641 93.4766 134.811 93.6132 135.032 93.7769C138.617 96.4225 142.193 99.1006 145.769 101.756L167.792 118.12L182.059 128.717C182.919 129.347 183.805 129.915 184.663 130.543C189.537 134.078 194.333 137.719 199.048 141.464L191.609 153.11L189.518 156.382C189.225 156.839 188.682 157.742 188.35 158.131C189.468 152.688 190.951 147.186 192.131 141.739C187.011 138.157 181.894 134.342 176.799 130.704L134.599 100.449C133.457 101.204 131.645 102.145 130.397 102.839L122.789 107.056L96.9525 121.432C92.5351 123.89 88.1384 126.481 83.6849 128.888L66.963 138.068L62.2432 140.683C61.398 141.152 60.0528 141.848 59.3172 142.41C58.9718 143.881 59.6748 146.672 59.9454 148.235C60.5306 151.5 61.0883 154.769 61.6185 158.042L50 142.931C51.0831 142.09 52.4717 141.335 53.6746 140.633L58.8042 137.636L77.8371 126.606L118.947 102.483C124.052 99.5019 129.24 96.365 134.371 93.4719Z" fill="#CEAC66"/>
<path d="M150.299 129.473C151.31 129.834 153.159 131.375 154.111 132.073C159.294 135.88 164.259 139.696 167.465 145.427C169.514 149.088 173.154 156.695 166.918 158.48C167.906 159.516 168.748 160.388 169.417 161.66C171.135 164.933 171.432 168.508 169.533 171.756C169.153 172.343 168.709 172.885 168.208 173.373C167.344 174.209 166.312 174.854 165.18 175.263C161.452 176.642 154.377 176.403 150.298 176.327C150.248 174.114 150.289 171.762 150.292 169.54L150.314 156.354L150.299 129.473ZM158.083 158.922C158.045 161.88 158.008 165.949 158.136 168.893C159.554 169.098 160.471 169.046 161.462 167.861C163.381 165.331 163.151 162.127 160.552 160.176C159.739 159.565 159.013 159.287 158.083 158.922ZM157.954 143.204C157.908 144.299 157.904 145.477 157.924 146.576C157.965 148.666 157.86 150.822 157.953 152.905C159.207 152.888 160.123 152.821 161.078 151.862C163.359 148.998 161.651 145.969 159.13 144.029C158.75 143.737 158.357 143.463 157.954 143.204Z" fill="#25396E"/>
<path d="M113.975 126.304L114.114 126.337C114.214 126.604 113.951 133.831 113.949 134.776C113.098 135.173 110.057 136.504 109.25 136.735L109.267 176.477L101.8 176.475L101.802 169.387L101.931 140.154C100.392 140.915 98.2675 141.649 96.616 142.4L96.6133 135.118C97.4691 134.736 98.4303 134.232 99.2593 133.783C102.265 132.158 105.328 130.698 108.385 129.185C110.256 128.241 112.12 127.28 113.975 126.304Z" fill="#25396E"/>
<path d="M94.2404 135.722L94.3307 135.789C94.4136 136.334 94.3569 138.929 94.356 139.696L94.3742 147.838L94.3887 176.478C92.0702 176.472 89.7516 176.487 87.4334 176.521L87.2421 176.492C86.9629 176.005 87.2879 142.936 87.2906 138.857C88.1458 138.557 89.5421 137.889 90.4005 137.501C91.5849 136.966 93.119 136.329 94.2404 135.722Z" fill="#25396E"/>
<path d="M174.028 76.1884C174.752 76.6249 176.125 77.667 176.855 78.1899L182.98 82.5846C183.947 83.2788 185.292 84.305 186.277 84.9196L186.371 105.145C186.03 105.01 183.267 102.998 182.802 102.661C179.944 100.593 177.008 98.5845 174.166 96.5033C173.964 91.8081 174.131 86.9554 174.028 82.2461C173.984 80.2969 173.957 78.1313 174.028 76.1884Z" fill="#25396E"/>
<path d="M171.819 76.0144C171.831 76.0208 171.936 76.1174 171.936 76.1298C171.974 79.9276 171.852 91.8885 171.839 95.1076L164.223 88.9918L158.086 84.0635C159.52 83.1648 161.235 82.2113 162.712 81.3457L171.819 76.0144Z" fill="#25396E"/>
</svg>
