<svg width="250" height="250" viewBox="0 0 250 250" fill="none" xmlns="http://www.w3.org/2000/svg">
<mask id="path-1-inside-1_672_7" fill="white">
<path d="M0 125C0 55.9644 55.9644 0 125 0V0C194.036 0 250 55.9644 250 125V125C250 194.036 194.036 250 125 250V250C55.9644 250 0 194.036 0 125V125Z"/>
</mask>
<path d="M0 125C0 55.9644 55.9644 0 125 0V0C194.036 0 250 55.9644 250 125V125C250 194.036 194.036 250 125 250V250C55.9644 250 0 194.036 0 125V125Z" fill="white"/>
<path d="M0 125M250 125M250 125M0 125M125 0M250 125M125 250M0 125M125 250V248C57.069 248 2 192.931 2 125H0H-2C-2 195.14 54.8598 252 125 252V250ZM250 125H248C248 192.931 192.931 248 125 248V250V252C195.14 252 252 195.14 252 125H250ZM125 0V2C192.931 2 248 57.069 248 125H250H252C252 54.8598 195.14 -2 125 -2V0ZM125 0V-2C54.8598 -2 -2 54.8598 -2 125H0H2C2 57.069 57.069 2 125 2V0Z" fill="#DDDBDB" mask="url(#path-1-inside-1_672_7)"/>
<path d="M116.195 50.6194V62.7054L182.876 129.387L125.139 187.124L67.3198 129.311L95.6448 100.986H83.3502L55 129.336L125.044 199.38L195 129.425L116.195 50.6194Z" fill="#FE6309"/>
<path d="M116.169 71.0239V83.1099L162.446 129.387L125.164 166.669L87.8003 129.311L116.125 100.986H103.831L75.4804 129.336L125.07 178.925L174.57 129.425L116.169 71.0239Z" fill="#FE6309"/>
<path d="M124.924 100.101L95.67 129.336L124.975 158.641L131.144 152.465L154.223 129.425L124.924 100.101ZM125.082 146.429L107.965 129.311L124.987 112.288L142.054 129.355L125.082 146.429Z" fill="#FE6309"/>
</svg>
