<svg width="250" height="250" viewBox="0 0 250 250" fill="none" xmlns="http://www.w3.org/2000/svg">
<mask id="path-1-inside-1_353_13" fill="white">
<path d="M0 125C0 55.9644 55.9644 0 125 0C194.036 0 250 55.9644 250 125C250 194.036 194.036 250 125 250C55.9644 250 0 194.036 0 125Z"/>
</mask>
<path d="M0 125C0 55.9644 55.9644 0 125 0C194.036 0 250 55.9644 250 125C250 194.036 194.036 250 125 250C55.9644 250 0 194.036 0 125Z" fill="white"/>
<path d="M0 125M250 125M250 125M0 125M125 0M250 125M125 250M0 125M125 250V248C57.069 248 2 192.931 2 125H0H-2C-2 195.14 54.8598 252 125 252V250ZM250 125H248C248 192.931 192.931 248 125 248V250V252C195.14 252 252 195.14 252 125H250ZM125 0V2C192.931 2 248 57.069 248 125H250H252C252 54.8598 195.14 -2 125 -2V0ZM125 0V-2C54.8598 -2 -2 54.8598 -2 125H0H2C2 57.069 57.069 2 125 2V0Z" fill="#DDDBDB" mask="url(#path-1-inside-1_353_13)"/>
<path fill-rule="evenodd" clip-rule="evenodd" d="M120.273 50.1515C116.583 50.3605 112.03 51.0157 108.334 51.8698C105.713 52.4753 105.487 52.5316 104.354 52.8598C98.4539 54.5687 92.1743 57.2611 87.2252 60.2035C85.445 61.2619 83.5176 62.467 83.2359 62.6978C83.1466 62.7711 82.5983 63.1533 82.0176 63.5472C81.0408 64.2097 78.305 66.2607 78.1189 66.4698C78.0742 66.52 77.7087 66.8132 77.3067 67.1213C76.5381 67.7104 74.3794 69.6199 72.6219 71.2653C71.5517 72.2671 68.3613 75.7701 67.0715 77.3592C66.6725 77.8507 66.305 78.2895 66.2548 78.3342C66.2047 78.3789 65.9878 78.6714 65.773 78.9842C65.5583 79.297 65.3403 79.5895 65.2885 79.6342C65.2368 79.6789 64.8492 80.1908 64.4273 80.7717C64.0053 81.3527 63.6016 81.9011 63.5303 81.9905C63.0982 82.531 61.7119 84.6832 61.7119 84.8135C61.7119 84.8995 61.6544 84.9941 61.5841 85.024C61.472 85.0714 60.651 86.4204 59.4742 88.4907C59.045 89.2458 56.4946 94.396 56.1347 95.2346C55.225 97.3536 53.7349 101.416 53.4226 102.628C53.3536 102.897 53.0802 103.847 52.8151 104.741C52.0092 107.458 51.5802 109.342 51.0928 112.305C49.6632 120.996 49.6373 128.707 51.0089 137.323C51.5064 140.448 52.0053 142.676 52.8109 145.367C53.0783 146.261 53.3536 147.211 53.4226 147.479C53.7381 148.704 55.2766 152.894 56.1379 154.873C56.5653 155.856 58.9178 160.605 59.3984 161.455C60.6929 163.746 60.9674 164.177 61.0243 164.006C61.0681 163.874 61.1943 163.89 61.4525 164.059C61.7741 164.27 69.5413 164.293 125.403 164.244C160.375 164.214 189.076 164.165 189.184 164.136C189.291 164.106 189.35 164.034 189.313 163.975C189.277 163.916 189.611 163.255 190.056 162.506C191.178 160.62 192.792 157.408 193.687 155.28C194.101 154.296 194.501 153.346 194.577 153.167C196.734 148.07 198.364 141.994 199.285 135.617C200.611 126.437 200.073 115.805 197.832 106.894C197.748 106.559 197.613 106.011 197.532 105.675C197.214 104.354 196.089 100.716 195.735 99.8659C195.661 99.6872 195.508 99.285 195.396 98.9721C195.081 98.0894 194.481 96.6155 193.675 94.7471C193.058 93.3156 190.81 88.8444 190.203 87.8407C189.933 87.3938 189.663 86.9184 189.604 86.7844C189.488 86.519 188.521 85.0362 188.257 84.7193C188.168 84.6114 188.094 84.4651 188.094 84.3943C188.094 84.3234 187.93 84.0668 187.729 83.8239C187.528 83.5811 187.181 83.0798 186.957 82.7099C186.417 81.8153 183.433 77.9086 181.971 76.1807C179.574 73.3491 175.11 69.0606 171.604 66.2223C169.975 64.9043 165.333 61.5963 165.112 61.5963C165.074 61.5963 164.729 61.3882 164.345 61.1338C163.961 60.8794 163.317 60.4955 162.915 60.2807C162.513 60.0659 162.148 59.8535 162.103 59.8088C161.762 59.468 154.572 55.9087 154.225 55.9087C154.178 55.9087 153.83 55.7659 153.451 55.5915C150.407 54.1888 143.556 52.1407 139.32 51.3667C133.065 50.224 126.629 49.792 120.273 50.1515ZM111.814 94.3522C111.955 94.4924 112.115 94.8033 112.171 95.0428C112.226 95.2823 112.412 95.9536 112.584 96.5346C112.756 97.1155 112.975 97.8834 113.071 98.2409C113.166 98.5984 113.308 99.0737 113.385 99.2971C113.463 99.5206 113.632 100.106 113.763 100.597C113.893 101.089 114.301 102.515 114.669 103.766C115.037 105.017 115.444 106.443 115.574 106.935C115.703 107.426 115.915 108.121 116.046 108.479C116.176 108.836 116.39 109.531 116.521 110.022C116.845 111.238 117.526 113.615 117.918 114.897C118.096 115.478 118.429 116.612 118.659 117.416C118.889 118.221 119.172 119.208 119.288 119.61C119.617 120.748 120.042 122.232 120.66 124.404C120.838 125.03 121.174 126.163 121.407 126.923C121.916 128.585 122.172 129.45 122.537 130.742C122.689 131.278 122.908 132.046 123.024 132.448C123.141 132.85 123.35 133.581 123.49 134.073C123.63 134.564 123.932 135.625 124.161 136.429C124.39 137.234 124.716 138.331 124.885 138.867C125.332 140.283 125.416 140.725 125.305 141.074C125.209 141.376 124.927 141.386 115.967 141.386C110.886 141.386 106.696 141.331 106.657 141.264C106.618 141.197 106.979 140.346 107.46 139.374C108.403 137.466 108.516 136.824 108.088 135.799C107.953 135.475 107.888 135.21 107.945 135.21C108.002 135.21 107.971 135.117 107.876 135.002C107.781 134.888 107.666 134.589 107.621 134.339C107.575 134.089 107.43 133.579 107.298 133.206C107.166 132.834 106.791 131.652 106.465 130.579C106.139 129.507 105.813 128.446 105.739 128.223C105.666 127.999 105.446 127.268 105.25 126.598C105.054 125.927 104.764 124.977 104.605 124.485C104.446 123.994 104.226 123.262 104.116 122.86C104.006 122.458 103.85 122.002 103.769 121.847C103.689 121.692 103.623 121.429 103.623 121.264C103.623 121.099 103.572 120.913 103.51 120.851C103.448 120.789 103.381 120.629 103.361 120.496C103.316 120.189 102.366 117.14 102.047 116.279C101.914 115.921 101.818 115.629 101.832 115.629C101.847 115.629 101.781 115.423 101.685 115.171C101.589 114.92 101.511 114.632 101.511 114.532C101.511 114.432 101.371 113.943 101.2 113.446C101.029 112.948 100.729 111.993 100.534 111.322C100.338 110.652 100.111 109.921 100.03 109.697C99.9488 109.474 99.8534 109.145 99.818 108.966C99.7827 108.787 99.5758 108.093 99.3583 107.422C99.1406 106.752 98.7962 105.655 98.593 104.985C98.3898 104.314 98.1658 103.62 98.0954 103.441C97.5675 102.101 97.5098 100.606 97.9323 99.2159C98.041 98.8584 98.1677 98.3275 98.214 98.0363C98.2602 97.7449 98.363 97.4664 98.4424 97.4173C98.522 97.3681 98.587 97.1172 98.587 96.8596C98.587 96.602 98.6601 96.3461 98.7494 96.2908C98.8388 96.2356 98.9119 96.0082 98.9119 95.7856C98.9119 95.274 99.3123 94.4888 99.6835 94.2725C99.8617 94.1687 102.13 94.105 105.764 94.1019C110.818 94.0977 111.592 94.1297 111.814 94.3522ZM131.383 94.3187C131.57 94.5447 131.893 95.4986 132.519 97.6721C132.99 99.3074 133.087 99.6378 133.573 101.247C133.952 102.503 134.627 104.803 134.98 106.041C135.056 106.309 135.276 107.077 135.467 107.747C135.659 108.418 135.879 109.185 135.955 109.454C136.467 111.259 136.825 112.494 137.412 114.491C137.78 115.743 138.188 117.168 138.32 117.66C138.564 118.575 138.832 119.487 139.774 122.616C140.556 125.214 141.061 126.944 142.142 130.742C142.32 131.367 142.535 132.117 142.619 132.407C142.703 132.698 142.841 133.173 142.925 133.464C143.009 133.754 143.225 134.504 143.404 135.129C143.582 135.755 144.031 137.313 144.4 138.591C144.935 140.44 145.032 140.963 144.877 141.15C144.711 141.351 143.319 141.386 135.523 141.386C125.687 141.386 126.087 141.42 126.515 140.611C127.273 139.18 127.99 137.42 127.99 136.992C127.99 136.704 127.781 135.838 127.525 135.067C127.27 134.297 126.97 133.338 126.86 132.935C126.749 132.533 126.592 132.077 126.512 131.922C126.431 131.767 126.365 131.505 126.365 131.34C126.365 131.174 126.314 130.989 126.252 130.927C126.19 130.864 126.125 130.714 126.107 130.592C126.063 130.292 125.401 128.096 125.172 127.492C125.071 127.223 124.982 126.967 124.975 126.923C124.959 126.824 124.39 124.963 123.732 122.86C123.467 122.011 123.174 121.06 123.082 120.748C122.99 120.435 122.85 120.052 122.771 119.897C122.693 119.742 122.629 119.494 122.629 119.347C122.629 119.2 122.42 118.45 122.165 117.679C121.909 116.909 121.61 115.95 121.499 115.548C121.388 115.145 121.232 114.689 121.151 114.534C121.07 114.379 121.004 114.117 121.004 113.952C121.004 113.787 120.954 113.601 120.891 113.539C120.829 113.476 120.764 113.326 120.746 113.204C120.706 112.929 120.053 110.747 119.834 110.151C119.744 109.909 119.683 109.69 119.697 109.664C119.711 109.638 119.6 109.324 119.451 108.966C119.301 108.609 119.179 108.28 119.178 108.235C119.177 108.19 119.153 108.08 119.124 107.991C119.095 107.902 118.981 107.5 118.871 107.097C118.762 106.695 118.661 106.329 118.649 106.285C118.478 105.662 117.536 102.708 117.431 102.466C117.141 101.791 117.113 100.964 117.349 100.065C117.712 98.6808 118.073 97.3661 118.339 96.4533C118.667 95.3283 118.704 95.1819 118.718 94.9502C118.725 94.8385 118.876 94.6008 119.055 94.422C119.368 94.1089 119.597 94.097 125.289 94.097C130.082 94.097 131.233 94.139 131.383 94.3187ZM150.918 94.3002C151.185 94.5178 151.553 95.6251 152.853 100.11C153.306 101.674 153.737 103.136 153.81 103.36C153.883 103.583 154.033 104.095 154.143 104.497C154.253 104.899 154.403 105.411 154.476 105.635C154.627 106.098 154.993 107.336 155.942 110.591C156.93 113.981 157.233 114.993 157.748 116.604C158.005 117.408 158.355 118.578 158.525 119.204C158.696 119.829 158.919 120.597 159.021 120.91C159.123 121.223 159.273 121.716 159.355 122.007C159.437 122.298 159.571 122.773 159.653 123.063C159.735 123.354 159.959 124.103 160.15 124.729C160.341 125.355 160.633 126.342 160.798 126.923C160.964 127.504 161.404 129.003 161.777 130.254C162.15 131.505 162.513 132.749 162.585 133.017C162.657 133.285 162.755 133.614 162.804 133.748C162.853 133.882 163.146 134.833 163.456 135.86C163.765 136.888 164.183 138.278 164.385 138.948C164.587 139.618 164.759 140.423 164.768 140.736L164.783 141.304L156.708 141.346L148.633 141.389L148.437 141.021C148.329 140.82 148.252 140.618 148.267 140.573C148.282 140.528 148.218 140.236 148.126 139.923C147.435 137.581 147.268 137.035 147.14 136.706C147.061 136.501 146.996 136.158 146.996 135.944C146.996 135.73 146.923 135.509 146.833 135.454C146.744 135.399 146.671 135.199 146.671 135.009C146.671 134.711 146.545 134.224 146.217 133.26C146.172 133.126 146.114 132.907 146.088 132.773C146.038 132.509 145.712 131.381 145.571 130.985C145.524 130.851 145.464 130.632 145.438 130.498C145.388 130.235 145.063 129.108 144.922 128.71C144.874 128.576 144.808 128.32 144.775 128.142C144.716 127.821 144.348 126.557 143.713 124.485C143.535 123.904 143.362 123.289 143.329 123.118C143.295 122.947 143.154 122.465 143.016 122.048C142.877 121.63 142.734 121.149 142.697 120.977C142.661 120.806 142.479 120.154 142.293 119.529C141.665 117.414 140.468 113.195 140.335 112.622C140.263 112.31 140.046 111.542 139.854 110.916C139.409 109.468 138.892 107.667 138.711 106.935C138.55 106.289 137.997 104.378 137.863 104.01C137.601 103.289 137.337 102.286 137.377 102.165C137.402 102.088 137.341 101.927 137.242 101.808C137.023 101.543 136.926 99.9685 137.107 99.604C137.178 99.4598 137.278 99.1088 137.328 98.8238C137.378 98.5387 137.484 98.1814 137.564 98.0295C137.753 97.67 138.386 95.5323 138.386 95.255C138.386 95.1374 138.537 94.8286 138.722 94.5689L139.058 94.097H144.864C149.268 94.097 150.73 94.1461 150.918 94.3002ZM95.6575 111.363C95.783 111.669 97.0049 115.488 97.6204 117.498C97.7161 117.81 97.8927 118.322 98.0126 118.635C98.1325 118.948 98.4642 119.972 98.7498 120.91C99.0353 121.849 99.402 123.019 99.5646 123.51C99.7272 124.002 100.239 125.611 100.701 127.085C101.164 128.56 101.672 130.169 101.832 130.66C101.991 131.152 102.357 132.322 102.646 133.26C102.935 134.199 103.629 136.356 104.187 138.054C104.746 139.752 105.172 141.197 105.134 141.264C105.019 141.469 85.7902 141.413 85.663 141.208C85.6026 141.11 85.6261 140.872 85.7153 140.68C85.8045 140.487 86.0426 139.781 86.2444 139.111C86.6315 137.824 86.6976 137.616 88.03 133.504C88.4934 132.074 88.9056 130.726 88.946 130.509C88.9866 130.292 89.0685 130.036 89.1283 129.94C89.1881 129.845 89.2589 129.626 89.2855 129.454C89.3122 129.283 89.4051 129.056 89.4918 128.952C89.5787 128.847 89.6078 128.72 89.5567 128.669C89.5056 128.618 89.5479 128.418 89.6507 128.226C89.7535 128.034 89.8676 127.717 89.9041 127.522C89.9407 127.326 90.0377 127.02 90.1194 126.842C90.2012 126.663 90.5754 125.529 90.9506 124.323C91.3258 123.116 91.8452 121.499 92.1046 120.728C92.3642 119.958 92.5765 119.187 92.5765 119.014C92.5765 118.841 92.6347 118.631 92.7058 118.546C92.848 118.376 92.9535 118.063 93.7162 115.548C94.1617 114.079 94.8646 111.862 95.0947 111.201C95.2062 110.88 95.4934 110.963 95.6575 111.363ZM63.6612 168.223C63.6612 168.324 65.0935 170.305 65.2885 170.474C65.3403 170.518 65.5583 170.811 65.773 171.124C65.9878 171.437 66.2047 171.729 66.2548 171.774C66.305 171.818 66.6725 172.257 67.0715 172.749C69.9666 176.316 74.4572 180.808 77.3067 182.988C77.7087 183.295 78.0742 183.587 78.1189 183.637C78.1636 183.686 78.5291 183.978 78.9311 184.287C79.3332 184.595 79.6987 184.89 79.7433 184.944C79.788 184.997 80.519 185.525 81.3678 186.117C82.2166 186.709 82.9887 187.261 83.0837 187.343C83.1787 187.425 83.4346 187.587 83.6523 187.701C83.8699 187.816 84.0847 187.954 84.1294 188.008C84.174 188.061 84.3933 188.211 84.6167 188.34C84.8401 188.47 85.8635 189.083 86.8909 189.702C89.2191 191.106 92.7381 192.91 95.1318 193.927C102.615 197.105 108.88 198.749 117.349 199.756C119.745 200.041 130.382 200.042 132.619 199.758C137.003 199.201 138.89 198.885 142.204 198.157C145.139 197.512 151.226 195.542 153.451 194.516C153.83 194.342 154.178 194.199 154.225 194.199C154.441 194.199 160.228 191.403 161.372 190.746C163.617 189.456 164.666 188.815 166.327 187.718C173.491 182.986 179.901 176.898 185.403 169.601L186.459 168.199L125.06 168.159C91.2908 168.136 63.6612 168.165 63.6612 168.223Z" fill="#EE5625"/>
</svg>
