<svg width="250" height="250" viewBox="0 0 250 250" fill="none" xmlns="http://www.w3.org/2000/svg">
<mask id="path-1-inside-1_3_27" fill="white">
<path d="M0 125C0 55.9644 55.9644 0 125 0C194.036 0 250 55.9644 250 125C250 194.036 194.036 250 125 250C55.9644 250 0 194.036 0 125Z"/>
</mask>
<path d="M0 125C0 55.9644 55.9644 0 125 0C194.036 0 250 55.9644 250 125C250 194.036 194.036 250 125 250C55.9644 250 0 194.036 0 125Z" fill="white"/>
<path d="M0 125M250 125M250 125M0 125M125 0M250 125M125 250M0 125M125 250V248C57.069 248 2 192.931 2 125H0H-2C-2 195.14 54.8598 252 125 252V250ZM250 125H248C248 192.931 192.931 248 125 248V250V252C195.14 252 252 195.14 252 125H250ZM125 0V2C192.931 2 248 57.069 248 125H250H252C252 54.8598 195.14 -2 125 -2V0ZM125 0V-2C54.8598 -2 -2 54.8598 -2 125H0H2C2 57.069 57.069 2 125 2V0Z" fill="#DDDBDB" mask="url(#path-1-inside-1_3_27)"/>
<path d="M55.0977 136.337C55.0977 121.901 66.9177 110.662 82.3224 110.662C91.2359 110.662 99.3744 114.635 104.025 120.642L97.3397 127.327C95.5667 125.056 93.3042 123.215 90.7209 121.94C88.1377 120.666 85.2999 119.99 82.4194 119.963C73.2152 119.963 65.8519 126.842 65.8519 136.337C65.8519 145.929 73.2152 152.808 82.4194 152.808C85.4032 152.804 88.3457 152.111 91.0177 150.784C93.6897 149.456 96.0192 147.529 97.8242 145.154L104.412 151.645C99.9557 157.943 91.4297 162.109 82.3224 162.109C66.9177 162.109 55.0977 150.87 55.0977 136.337Z" fill="#255BE3"/>
<path d="M113.132 112.406H123.693V160.365H113.132V112.406Z" fill="#255BE3"/>
<path d="M143.361 147.479V121.32H131.831V112.406H143.845V102.136L153.727 97.292V112.406H169.423V121.32H153.727V145.735C153.727 150.579 156.44 152.711 161.575 152.711C164.247 152.725 166.89 152.163 169.326 151.064V160.171C166.274 161.51 162.969 162.171 159.637 162.109C150.239 162.109 143.361 156.974 143.361 147.479Z" fill="#255BE3"/>
<path d="M177.755 112.406H188.316V160.365H177.755V112.406Z" fill="#255BE3"/>
<path d="M150.627 81.8872C159.3 81.8665 167.851 83.9332 175.557 87.9127C183.264 91.8925 189.899 97.6682 194.904 104.752H182.599C178.566 100.269 173.636 96.685 168.128 94.2312C162.619 91.7775 156.657 90.5095 150.627 90.5095C144.597 90.5095 138.634 91.7775 133.126 94.2312C127.618 96.685 122.688 100.269 118.655 104.752H106.35C111.354 97.6682 117.99 91.8925 125.696 87.9127C133.403 83.9332 141.954 81.8665 150.627 81.8872Z" fill="#FF3C28"/>
</svg>
