<svg width="250" height="250" viewBox="0 0 250 250" fill="none" xmlns="http://www.w3.org/2000/svg">
<path d="M0 125C0 55.9644 55.9644 0 125 0C194.036 0 250 55.9644 250 125C250 194.036 194.036 250 125 250C55.9644 250 0 194.036 0 125Z" fill="white"/>
<path d="M55.0967 136.337C55.0967 121.901 66.9167 110.662 82.3214 110.662C91.2349 110.662 99.3734 114.635 104.024 120.642L97.3387 127.327C95.5657 125.056 93.3032 123.215 90.7199 121.94C88.1367 120.666 85.2989 119.99 82.4184 119.963C73.2142 119.963 65.8509 126.842 65.8509 136.337C65.8509 145.929 73.2142 152.808 82.4184 152.808C85.4022 152.804 88.3447 152.111 91.0167 150.784C93.6887 149.456 96.0182 147.529 97.8232 145.154L104.411 151.645C99.9547 157.943 91.4287 162.109 82.3214 162.109C66.9167 162.109 55.0967 150.87 55.0967 136.337Z" fill="#255BE3"/>
<path d="M113.131 112.406H123.692V160.365H113.131V112.406Z" fill="#255BE3"/>
<path d="M143.36 147.479V121.32H131.83V112.406H143.844V102.136L153.726 97.292V112.406H169.422V121.32H153.726V145.735C153.726 150.579 156.439 152.711 161.574 152.711C164.246 152.725 166.889 152.163 169.325 151.064V160.171C166.273 161.51 162.968 162.171 159.636 162.109C150.238 162.109 143.36 156.974 143.36 147.479Z" fill="#255BE3"/>
<path d="M177.754 112.406H188.315V160.365H177.754V112.406Z" fill="#255BE3"/>
<path d="M150.626 81.8872C159.299 81.8665 167.85 83.9332 175.556 87.9127C183.263 91.8925 189.898 97.6682 194.903 104.752H182.598C178.565 100.269 173.635 96.685 168.127 94.2312C162.618 91.7775 156.656 90.5095 150.626 90.5095C144.596 90.5095 138.633 91.7775 133.125 94.2312C127.617 96.685 122.687 100.269 118.654 104.752H106.349C111.353 97.6682 117.989 91.8925 125.695 87.9127C133.402 83.9332 141.953 81.8665 150.626 81.8872Z" fill="#FF3C28"/>
</svg>
