<svg width="250" height="250" viewBox="0 0 250 250" fill="none" xmlns="http://www.w3.org/2000/svg">
<mask id="path-1-inside-1_3_60" fill="white">
<path d="M0 125C0 55.9644 55.9644 0 125 0C194.036 0 250 55.9644 250 125C250 194.036 194.036 250 125 250C55.9644 250 0 194.036 0 125Z"/>
</mask>
<path d="M0 125C0 55.9644 55.9644 0 125 0C194.036 0 250 55.9644 250 125C250 194.036 194.036 250 125 250C55.9644 250 0 194.036 0 125Z" fill="white"/>
<path d="M0 125M250 125M250 125M0 125M125 0M250 125M125 250M0 125M125 250V248C57.069 248 2 192.931 2 125H0H-2C-2 195.14 54.8598 252 125 252V250ZM250 125H248C248 192.931 192.931 248 125 248V250V252C195.14 252 252 195.14 252 125H250ZM125 0V2C192.931 2 248 57.069 248 125H250H252C252 54.8598 195.14 -2 125 -2V0ZM125 0V-2C54.8598 -2 -2 54.8598 -2 125H0H2C2 57.069 57.069 2 125 2V0Z" fill="#DDDBDB" mask="url(#path-1-inside-1_3_60)"/>
<path d="M177.178 66.2652C175.949 66.0384 174.703 65.9245 173.454 65.9251H57.0297C56.7526 65.9256 56.487 66.0359 56.2911 66.2318C56.0952 66.4277 55.9849 66.6933 55.9844 66.9704V164.6C55.9827 169.234 57.5507 173.733 60.4328 177.363C94.041 164.354 153.116 118.916 179.762 66.9108C178.916 66.6389 178.052 66.4232 177.178 66.2652Z" fill="#11237D"/>
<path d="M194.011 86.4858V184.111C194.01 184.388 193.9 184.654 193.704 184.85C193.508 185.046 193.242 185.156 192.965 185.156H76.5413C73.4504 185.159 70.3987 184.464 67.6137 183.123C101.845 169.421 161.108 123.338 186.98 71.0057C189.191 72.9322 190.964 75.3112 192.177 77.9819C193.39 80.6526 194.015 83.5526 194.011 86.4858Z" fill="#4DC247"/>
</svg>
