<svg width="250" height="250" viewBox="0 0 250 250" fill="none" xmlns="http://www.w3.org/2000/svg">
<path d="M0 125C0 55.9644 55.9644 0 125 0C194.036 0 250 55.9644 250 125C250 194.036 194.036 250 125 250C55.9644 250 0 194.036 0 125Z" fill="#5C2682"/>
<path d="M63.7778 89.991V97.291H79.9258V104.013H63.7778V117.115H56.3318V83.271H82.0998V89.991H63.7778Z" fill="white"/>
<path d="M115.074 114.165C114.125 114.915 113.096 115.556 112.004 116.075C110.84 116.622 109.615 117.025 108.354 117.275C106.889 117.563 105.399 117.701 103.906 117.687C101.533 117.709 99.181 117.248 96.9919 116.333C94.9296 115.474 93.0567 114.218 91.4799 112.635C89.917 111.048 88.6846 109.166 87.8539 107.099C86.9762 104.934 86.5325 102.617 86.5479 100.281V100.185C86.5302 97.8544 86.9741 95.5433 87.8539 93.385C88.6955 91.3173 89.9265 89.4305 91.4799 87.827C93.0603 86.2081 94.9515 84.9252 97.0399 84.055C99.3106 83.1191 101.748 82.655 104.204 82.691C105.655 82.6801 107.104 82.8094 108.53 83.077C109.748 83.3102 110.938 83.6667 112.084 84.141C113.124 84.5801 114.113 85.1314 115.034 85.785C115.929 86.4243 116.77 87.1361 117.548 87.913L112.804 93.375C111.592 92.2613 110.234 91.3191 108.766 90.575C107.326 89.8835 105.745 89.5363 104.148 89.561C102.791 89.5484 101.447 89.8288 100.208 90.383C99.0214 90.9145 97.9592 91.6884 97.0899 92.655C96.2095 93.6386 95.521 94.7782 95.0599 96.015C94.5699 97.3211 94.3238 98.7061 94.3339 100.101V100.197C94.3254 101.6 94.5714 102.992 95.0599 104.307C95.5139 105.548 96.1918 106.695 97.0599 107.691C97.9453 108.693 99.0363 109.492 100.258 110.034C101.48 110.576 102.805 110.849 104.142 110.833C106.077 110.833 107.713 110.478 109.05 109.769C110.5 108.98 111.84 108.005 113.038 106.869L117.776 111.655C116.94 112.559 116.037 113.398 115.074 114.165Z" fill="white"/>
<path d="M150.222 117.115V95.019L140.696 109.475H140.496L131.068 95.165V117.115H123.728V83.271H131.752L140.648 97.583L149.544 83.271H157.57V117.115H150.222Z" fill="white"/>
<path d="M193.518 111.893C192.919 113.057 192.04 114.054 190.96 114.793C189.744 115.613 188.388 116.203 186.96 116.535C185.256 116.938 183.51 117.133 181.76 117.115H165.692V83.271H181.378C184.851 83.271 187.577 84.061 189.556 85.641C191.534 87.221 192.524 89.3484 192.526 92.023V92.129C192.54 92.9967 192.417 93.8612 192.164 94.691C191.938 95.3991 191.615 96.0723 191.204 96.691C190.812 97.2773 190.341 97.8064 189.804 98.263C189.28 98.7115 188.709 99.1006 188.1 99.423C190.056 100.166 191.596 101.173 192.72 102.445C193.844 103.717 194.405 105.478 194.404 107.729V107.825C194.438 109.232 194.134 110.627 193.518 111.893ZM185.176 93.279C185.176 92.151 184.757 91.289 183.92 90.693C183.082 90.097 181.874 89.799 180.294 89.799H172.944V96.953H179.804C181.448 96.953 182.753 96.671 183.72 96.107C184.686 95.543 185.17 94.6324 185.17 93.375L185.176 93.279ZM187.062 106.817C187.079 106.297 186.969 105.78 186.742 105.311C186.514 104.843 186.176 104.437 185.756 104.129C184.885 103.469 183.485 103.136 181.556 103.129H172.956V110.575H181.804C183.448 110.575 184.737 110.277 185.672 109.681C186.606 109.085 187.073 108.158 187.072 106.901L187.062 106.817Z" fill="white"/>
<path d="M193.848 138.801V155.373H55.5918V146.657C55.5915 145.625 55.7946 144.604 56.1893 143.65C56.584 142.697 57.1626 141.831 57.8922 141.101C58.6217 140.372 59.4879 139.793 60.4411 139.399C61.3944 139.004 62.4161 138.801 63.4478 138.801H193.848Z" fill="#FAB613"/>
<path d="M55.5918 160.739H193.848V177.311H63.4478C62.4159 177.311 61.394 177.108 60.4407 176.713C59.4873 176.319 58.621 175.74 57.8915 175.01C57.1619 174.28 56.5833 173.414 56.1887 172.46C55.7941 171.507 55.5913 170.485 55.5918 169.453V160.739Z" fill="#FAB613"/>
</svg>
