<svg width="250" height="250" viewBox="0 0 250 250" fill="none" xmlns="http://www.w3.org/2000/svg">
<mask id="path-1-inside-1_4_431" fill="white">
<path d="M0 125C0 55.9644 55.9644 0 125 0C194.036 0 250 55.9644 250 125C250 194.036 194.036 250 125 250C55.9644 250 0 194.036 0 125Z"/>
</mask>
<path d="M0 125C0 55.9644 55.9644 0 125 0C194.036 0 250 55.9644 250 125C250 194.036 194.036 250 125 250C55.9644 250 0 194.036 0 125Z" fill="white"/>
<path d="M0 125M250 125M250 125M0 125M125 0M250 125M125 250M0 125M125 250V248C57.069 248 2 192.931 2 125H0H-2C-2 195.14 54.8598 252 125 252V250ZM250 125H248C248 192.931 192.931 248 125 248V250V252C195.14 252 252 195.14 252 125H250ZM125 0V2C192.931 2 248 57.069 248 125H250H252C252 54.8598 195.14 -2 125 -2V0ZM125 0V-2C54.8598 -2 -2 54.8598 -2 125H0H2C2 57.069 57.069 2 125 2V0Z" fill="#DDDBDB" mask="url(#path-1-inside-1_4_431)"/>
<path d="M197.006 109.416C188.336 80.1229 161.342 59.9595 130.408 59.7625C107.945 59.6311 85.5489 59.6968 63.1526 59.6311H60.197V118.808H63.7437C90.5406 118.808 117.338 118.676 144.134 118.808H146.959V118.873C148.995 118.873 151.031 118.873 153.133 118.873C174.347 119.005 189.65 140.285 183.476 160.645C178.681 176.277 163.641 186.26 148.141 184.092C131.196 181.728 119.571 168.461 119.505 151.384C119.505 142.781 119.505 134.111 119.505 125.441H60C60 127.149 60 128.791 60.0657 130.433C60.5911 153.617 69.7204 172.796 88.6359 186.391C111.098 202.548 135.662 204.584 160.423 193.09C191.817 178.51 206.858 142.649 197.006 109.416Z" fill="#FFBF00"/>
</svg>
