<svg width="250" height="250" viewBox="0 0 250 250" fill="none" xmlns="http://www.w3.org/2000/svg">
<path d="M0 125C0 55.9644 55.9644 0 125 0C194.036 0 250 55.9644 250 125C250 194.036 194.036 250 125 250C55.9644 250 0 194.036 0 125Z" fill="#133F77"/>
<path d="M66.1761 94.0099H104.001C104.043 94.0098 104.085 94.0194 104.122 94.0381C104.16 94.0568 104.192 94.0839 104.218 94.1174C104.243 94.1508 104.26 94.1897 104.268 94.231C104.275 94.2722 104.273 94.3146 104.261 94.3549L95.4863 124.43C95.47 124.486 95.4358 124.536 95.3889 124.571C95.342 124.606 95.2849 124.625 95.2263 124.625H53.426C53.3666 124.626 53.3078 124.612 53.2555 124.584C53.2032 124.556 53.159 124.514 53.1273 124.464C53.0956 124.414 53.0775 124.356 53.0746 124.297C53.0718 124.237 53.0843 124.178 53.111 124.125L65.9261 94.1549C65.9502 94.1099 65.9864 94.0725 66.0305 94.0469C66.0747 94.0213 66.1251 94.0085 66.1761 94.0099Z" fill="#78C2ED" stroke="white" stroke-width="0.59412" stroke-miterlimit="10"/>
<path d="M95.6713 125.02L104.441 94.8249C104.448 94.8025 104.462 94.7829 104.481 94.7691C104.5 94.7552 104.523 94.7477 104.546 94.7477C104.57 94.7477 104.593 94.7552 104.611 94.7691C104.63 94.7829 104.644 94.8025 104.651 94.8249L113.651 126.96C113.656 126.969 113.659 126.98 113.659 126.99C113.659 127.001 113.656 127.011 113.651 127.02L104.901 157.21C104.896 157.235 104.882 157.257 104.863 157.273C104.843 157.288 104.819 157.297 104.794 157.297C104.769 157.297 104.744 157.288 104.725 157.273C104.705 157.257 104.692 157.235 104.686 157.21L95.6563 125.08C95.6559 125.059 95.6611 125.038 95.6713 125.02Z" fill="#123F76" stroke="white" stroke-width="0.597282" stroke-miterlimit="10"/>
<path d="M95.1806 124.925L53.1803 124.745C53.1515 124.745 53.1231 124.752 53.0974 124.765C53.0718 124.778 53.0498 124.797 53.0331 124.821C53.0165 124.844 53.0057 124.872 53.0017 124.9C52.9977 124.929 53.0007 124.958 53.0103 124.985L65.0304 158.19C65.0437 158.226 65.0676 158.256 65.099 158.278C65.1303 158.299 65.1674 158.311 65.2054 158.31L104.236 157.545C104.263 157.545 104.291 157.538 104.315 157.525C104.34 157.512 104.362 157.494 104.378 157.472C104.395 157.45 104.407 157.425 104.412 157.397C104.418 157.37 104.417 157.342 104.411 157.315L95.3406 125.055C95.3311 125.019 95.3105 124.987 95.2817 124.964C95.253 124.941 95.2176 124.927 95.1806 124.925Z" fill="#0F9CDA" stroke="white" stroke-width="0.59412" stroke-miterlimit="10"/>
<path d="M110.257 125.105H148.087C148.129 125.106 148.17 125.116 148.208 125.135C148.245 125.155 148.278 125.182 148.303 125.216C148.328 125.25 148.345 125.289 148.353 125.33C148.36 125.372 148.358 125.414 148.347 125.455L139.572 155.53C139.555 155.586 139.52 155.635 139.474 155.67C139.427 155.705 139.37 155.725 139.312 155.725H97.5315C97.4722 155.726 97.4136 155.711 97.3614 155.683C97.3091 155.655 97.2649 155.614 97.2329 155.564C97.2009 155.514 97.1822 155.457 97.1784 155.397C97.1747 155.338 97.1861 155.279 97.2115 155.225L110.032 125.25C110.054 125.209 110.086 125.174 110.126 125.149C110.165 125.124 110.21 125.108 110.257 125.105Z" fill="#78C2ED" stroke="white" stroke-width="0.59412" stroke-miterlimit="10"/>
<path d="M139.757 156.115L148.532 125.92C148.537 125.895 148.55 125.873 148.57 125.858C148.59 125.842 148.614 125.833 148.639 125.833C148.664 125.833 148.689 125.842 148.708 125.858C148.728 125.873 148.741 125.895 148.747 125.92L157.747 158.055C157.752 158.075 157.752 158.095 157.747 158.115L148.992 188.31C148.985 188.333 148.971 188.352 148.952 188.366C148.933 188.38 148.91 188.388 148.887 188.388C148.863 188.388 148.84 188.38 148.821 188.366C148.803 188.352 148.789 188.333 148.782 188.31L139.747 156.185C139.741 156.161 139.745 156.136 139.757 156.115Z" fill="#123F76" stroke="white" stroke-width="0.597282" stroke-miterlimit="10"/>
<path d="M139.266 156.02L97.2661 155.84C97.2367 155.84 97.2076 155.847 97.1815 155.86C97.1553 155.874 97.1329 155.893 97.1161 155.918C97.0993 155.942 97.0887 155.97 97.0852 155.999C97.0818 156.028 97.0855 156.058 97.0961 156.085L109.126 189.285C109.14 189.321 109.164 189.351 109.195 189.372C109.227 189.394 109.263 189.405 109.301 189.405L148.336 188.64C148.364 188.64 148.391 188.633 148.416 188.621C148.441 188.608 148.462 188.59 148.478 188.567C148.495 188.545 148.506 188.519 148.511 188.492C148.516 188.465 148.514 188.437 148.506 188.41L139.436 156.15C139.426 156.113 139.404 156.08 139.374 156.056C139.343 156.033 139.305 156.02 139.266 156.02Z" fill="#0F9CDA" stroke="white" stroke-width="0.59412" stroke-miterlimit="10"/>
<path d="M110.555 62.5947H148.38C148.422 62.5946 148.464 62.6042 148.501 62.6229C148.539 62.6416 148.571 62.6687 148.597 62.7022C148.622 62.7356 148.639 62.7745 148.646 62.8158C148.654 62.857 148.652 62.8994 148.64 62.9397L139.865 93.0149C139.848 93.0708 139.814 93.1198 139.767 93.1549C139.72 93.1899 139.664 93.2092 139.605 93.2099H97.8049C97.7455 93.211 97.6868 93.1968 97.6344 93.1686C97.5821 93.1404 97.5379 93.0991 97.5062 93.0488C97.4745 92.9985 97.4564 92.9409 97.4535 92.8815C97.4507 92.8221 97.4632 92.763 97.4899 92.7099L110.305 62.7497C110.327 62.7024 110.363 62.6626 110.407 62.6351C110.451 62.6076 110.503 62.5936 110.555 62.5947Z" fill="#78C2ED" stroke="white" stroke-width="0.59412" stroke-miterlimit="10"/>
<path d="M140.031 93.6049L148.796 63.4047C148.802 63.3801 148.815 63.3581 148.835 63.3424C148.854 63.3266 148.879 63.318 148.904 63.318C148.929 63.318 148.953 63.3266 148.973 63.3424C148.992 63.3581 149.006 63.3801 149.011 63.4047L158.011 95.5349C158.016 95.5563 158.016 95.5785 158.011 95.5999L149.261 125.79C149.256 125.815 149.242 125.837 149.223 125.852C149.203 125.868 149.179 125.877 149.154 125.877C149.129 125.877 149.104 125.868 149.085 125.852C149.065 125.837 149.052 125.815 149.046 125.79L140.031 93.6649C140.026 93.6452 140.026 93.6245 140.031 93.6049Z" fill="#123F76" stroke="white" stroke-width="0.597282" stroke-miterlimit="10"/>
<path d="M139.561 93.5049L97.5611 93.3248C97.5316 93.3245 97.5026 93.3314 97.4764 93.3448C97.4502 93.3583 97.4278 93.378 97.411 93.4022C97.3942 93.4264 97.3836 93.4543 97.3802 93.4835C97.3767 93.5128 97.3804 93.5424 97.3911 93.5699L109.426 126.775C109.439 126.811 109.463 126.841 109.495 126.862C109.526 126.882 109.563 126.892 109.601 126.89L148.631 126.125C148.659 126.126 148.687 126.12 148.712 126.107C148.737 126.095 148.759 126.077 148.776 126.054C148.793 126.032 148.804 126.005 148.808 125.978C148.812 125.95 148.81 125.922 148.801 125.895L139.736 93.6398C139.726 93.6011 139.704 93.5668 139.672 93.5423C139.64 93.5179 139.601 93.5047 139.561 93.5049Z" fill="#0F9CDA" stroke="white" stroke-width="0.59412" stroke-miterlimit="10"/>
<path d="M145.532 95.4249H183.362C183.404 95.4256 183.446 95.436 183.483 95.4552C183.521 95.4744 183.553 95.502 183.578 95.5359C183.603 95.5697 183.62 95.6088 183.628 95.6503C183.636 95.6917 183.634 95.7344 183.622 95.7749L174.832 125.85C174.815 125.906 174.781 125.955 174.734 125.99C174.687 126.025 174.63 126.044 174.572 126.045H132.772C132.712 126.046 132.654 126.031 132.602 126.003C132.549 125.975 132.505 125.934 132.473 125.884C132.441 125.834 132.422 125.776 132.419 125.717C132.415 125.658 132.426 125.599 132.452 125.545L145.272 95.5749C145.295 95.5265 145.332 95.4863 145.379 95.4595C145.425 95.4328 145.478 95.4207 145.532 95.4249Z" fill="#78C2ED" stroke="white" stroke-width="0.59412" stroke-miterlimit="10"/>
<path d="M175.031 126.435L183.781 96.2499C183.786 96.2253 183.8 96.2033 183.82 96.1876C183.839 96.1718 183.863 96.1632 183.889 96.1632C183.914 96.1632 183.938 96.1718 183.958 96.1876C183.977 96.2033 183.991 96.2253 183.996 96.2499L192.996 128.385C193.001 128.405 193.001 128.425 192.996 128.445L184.246 158.64C184.241 158.665 184.227 158.687 184.208 158.703C184.188 158.718 184.164 158.727 184.139 158.727C184.113 158.727 184.089 158.718 184.07 158.703C184.05 158.687 184.036 158.665 184.031 158.64L175.031 126.5C175.026 126.479 175.026 126.456 175.031 126.435Z" fill="#123F76" stroke="white" stroke-width="0.597282" stroke-miterlimit="10"/>
<path d="M174.532 126.34L132.532 126.16C132.502 126.16 132.473 126.167 132.447 126.18C132.421 126.194 132.399 126.213 132.382 126.237C132.365 126.262 132.354 126.29 132.351 126.319C132.347 126.348 132.351 126.378 132.362 126.405L144.397 159.605C144.409 159.641 144.431 159.672 144.462 159.693C144.493 159.715 144.529 159.726 144.567 159.725L183.602 158.96C183.63 158.961 183.658 158.955 183.683 158.942C183.708 158.93 183.73 158.912 183.747 158.889C183.763 158.867 183.774 158.841 183.779 158.813C183.783 158.785 183.781 158.757 183.772 158.73L174.707 126.47C174.695 126.433 174.671 126.401 174.64 126.377C174.609 126.354 174.571 126.341 174.532 126.34Z" fill="#0F9CDA" stroke="white" stroke-width="0.59412" stroke-miterlimit="10"/>
</svg>
