<svg width="250" height="250" viewBox="0 0 250 250" fill="none" xmlns="http://www.w3.org/2000/svg">
<mask id="path-1-inside-1_453_15" fill="white">
<path d="M0 125C0 55.9644 55.9644 0 125 0C194.036 0 250 55.9644 250 125C250 194.036 194.036 250 125 250C55.9644 250 0 194.036 0 125Z"/>
</mask>
<path d="M0 125C0 55.9644 55.9644 0 125 0C194.036 0 250 55.9644 250 125C250 194.036 194.036 250 125 250C55.9644 250 0 194.036 0 125Z" fill="white"/>
<path d="M0 125M250 125M250 125M0 125M125 0M250 125M125 250M0 125M125 250V248C57.069 248 2 192.931 2 125H0H-2C-2 195.14 54.8598 252 125 252V250ZM250 125H248C248 192.931 192.931 248 125 248V250V252C195.14 252 252 195.14 252 125H250ZM125 0V2C192.931 2 248 57.069 248 125H250H252C252 54.8598 195.14 -2 125 -2V0ZM125 0V-2C54.8598 -2 -2 54.8598 -2 125H0H2C2 57.069 57.069 2 125 2V0Z" fill="#DDDBDB" mask="url(#path-1-inside-1_453_15)"/>
<path d="M55.0006 125.214C54.9144 102.081 64.5156 83.6873 82.4832 69.3269C84.7135 67.5438 86.0441 67.6868 88.0543 69.6511C95.6645 77.0888 103.083 84.7458 111.296 91.5541C111.449 91.5827 111.66 91.5541 111.756 91.6399C121.29 99.7355 130.202 108.489 139.047 117.309C139.612 117.872 139.736 118.721 139.42 119.531C133.007 124.07 125.339 125.949 118.39 129.343C116.264 130.383 114.063 131.327 111.785 132.032C111.306 132.118 110.837 132.08 110.368 131.937C103.667 126.864 98.383 120.285 91.8738 114.945C79.6784 104.932 65.023 107.774 57.9202 121.934C57.2597 123.25 57.1352 125.157 55.0006 125.214Z" fill="#00B0EA"/>
<path d="M111.304 131.365C120.58 127.283 129.865 123.202 139.141 119.121C139.553 118.806 139.993 118.74 140.481 118.892C147.124 123.812 152.073 130.535 158.611 135.617C170.644 144.962 185.989 141.301 192.134 127.398C192.881 125.71 193.053 123.65 194.977 122.64C195.542 146.974 185.73 166.293 166.595 181.178C164.431 182.866 163.522 181.311 162.306 180.158C155.644 173.817 149.01 167.456 142.338 161.134C141.199 160.057 139.926 159.122 138.71 158.131C136.441 157.883 135.159 156.166 133.665 154.755C126.974 148.424 120.972 141.377 113.688 135.656C112.376 134.626 110.778 133.51 111.304 131.365Z" fill="#00A258"/>
<path d="M140.146 119.36C139.811 119.274 139.476 119.197 139.131 119.112C132.077 111.025 123.5 104.475 116.138 96.6841C114.521 94.9677 112.903 93.2609 111.285 91.5445C128.621 84.0878 145.957 76.6405 163.283 69.1457C164.92 68.44 166.231 68.5259 167.667 69.6606C177.297 77.289 185.022 86.3477 189.272 98.0286C188.583 100.079 186.716 100.746 184.984 101.49C171.745 107.173 158.449 112.723 145.172 118.349C143.592 119.016 141.994 119.884 140.146 119.36Z" fill="#627096"/>
<path d="M111.307 131.365C120.439 140.28 129.571 149.205 138.703 158.121C121.396 165.502 104.07 172.853 86.7914 180.301C84.8195 181.149 83.3932 181.207 81.6414 179.776C72.5763 172.329 65.1863 163.661 60.9648 152.581C62.707 149.959 65.7415 149.549 68.3165 148.424C81.0288 142.912 93.8559 137.706 106.568 132.204C107.889 131.632 109.181 130.974 110.684 131.336C110.895 131.365 111.105 131.374 111.307 131.365Z" fill="#4A4E74"/>
<path d="M110.693 131.336C100.728 136.561 90.131 140.376 79.831 144.857C73.5993 147.565 67.2623 150.016 60.9732 152.581C56.6177 143.97 55 134.759 55 125.214C57.8047 118.539 61.2413 112.532 68.5833 109.605C77.1507 106.191 84.9427 107.411 91.7105 113.285C98.2963 119.007 104.384 125.3 110.693 131.336Z" fill="#627096"/>
<path d="M140.148 119.359C154.392 113.285 168.636 107.211 182.861 101.109C185.043 100.174 187.14 99.0584 189.274 98.0286C193.218 105.762 194.625 114.077 194.96 122.63C190.586 135.837 183.272 142.111 172.302 142.054C167.181 142.025 162.414 140.624 158.662 137.191C152.344 131.422 146.313 125.329 140.148 119.359Z" fill="#4A4E74"/>
</svg>
