<svg width="250" height="250" viewBox="0 0 250 250" fill="none" xmlns="http://www.w3.org/2000/svg">
<path d="M0 125C0 55.9644 55.9644 0 125 0C194.036 0 250 55.9644 250 125C250 194.036 194.036 250 125 250C55.9644 250 0 194.036 0 125Z" fill="white"/>
<mask id="mask0_1_61" style="mask-type:alpha" maskUnits="userSpaceOnUse" x="55" y="81" width="105" height="64">
<path fill-rule="evenodd" clip-rule="evenodd" d="M67.81 99.0287C56.3977 107.177 51.9143 121.639 57.2129 144.454C57.4167 143.232 57.8242 142.213 58.2318 140.991C68.0138 112.269 101.232 115.325 125.075 114.714C149.123 114.306 157.682 99.4361 159.924 81.9176C140.767 99.0287 95.1181 79.677 67.81 99.0287Z" fill="#D9D9D9"/>
</mask>
<g mask="url(#mask0_1_61)">
<path d="M159.863 80.0623H51.4668V145.223H159.863V80.0623Z" fill="url(#paint0_linear_1_61)"/>
</g>
<path fill-rule="evenodd" clip-rule="evenodd" d="M151.46 59.7799C187.523 74.7382 204.531 116.13 189.572 152.193C174.614 188.257 133.223 205.265 97.1588 190.307C90.1921 187.438 83.84 183.544 78.5123 178.832C74.619 175.143 69.7012 164.078 70.9307 155.472C72.1601 146.866 85.889 147.276 94.0852 149.94C85.2744 154.652 90.397 165.717 109.453 171.66C135.067 179.446 167.033 169.406 178.507 141.743C191.007 111.827 175.434 76.7873 143.673 63.6732C113.347 50.9688 69.9061 67.9762 56.792 104.04C57.4067 101.991 58.2263 99.9419 59.046 97.8927C74.0043 61.829 115.396 44.6167 151.46 59.7799Z" fill="#003399"/>
<path opacity="0.15" fill-rule="evenodd" clip-rule="evenodd" d="M78.5115 178.832C72.3643 170.84 75.8477 160.39 82.8146 154.857C86.0931 152.398 89.7816 150.964 94.0844 149.94C89.3716 152.603 88.7569 156.906 92.2403 161.414C76.0526 162.029 78.5115 178.627 78.5115 178.832Z" fill="#000066"/>
<path opacity="0.15" fill-rule="evenodd" clip-rule="evenodd" d="M78.5115 178.832C72.3643 170.84 75.8477 160.39 82.8146 154.857C86.0931 152.398 89.7816 150.964 94.0844 149.94C91.4208 151.374 89.9864 153.423 89.9864 155.677C74.6183 159.57 76.4624 175.143 78.5115 178.832Z" fill="#000066"/>
<path opacity="0.15" fill-rule="evenodd" clip-rule="evenodd" d="M58.27 141.154C68.0645 112.099 101.325 115.168 124.995 114.759C148.053 114.35 156.827 100.64 159.48 84.0665C156.827 89.1818 153.154 93.2741 148.257 96.3432C142.543 99.8219 136.014 101.459 129.484 102.277C122.342 103.3 115.2 103.3 107.855 103.71C96.4277 104.119 83.1643 104.732 72.7576 110.257C60.5145 116.805 57.4538 129.286 57.6578 142.382C58.0659 141.768 58.0659 141.563 58.27 141.154Z" fill="#000066"/>
<mask id="mask1_1_61" style="mask-type:alpha" maskUnits="userSpaceOnUse" x="64" y="116" width="88" height="64">
<path fill-rule="evenodd" clip-rule="evenodd" d="M85.2636 126.6C62.2974 134.416 55.9406 159.304 78.7019 179.049C72.5502 171.028 76.0361 160.538 83.0081 154.985C101.463 140.381 142.474 161.772 151.087 116.316C134.682 130.097 107.82 118.99 85.2636 126.6Z" fill="#D9D9D9"/>
</mask>
<g mask="url(#mask1_1_61)">
<path d="M150.639 116.334H55.7666V178.832H150.639V116.334Z" fill="url(#paint1_linear_1_61)"/>
</g>
<path opacity="0.2" fill-rule="evenodd" clip-rule="evenodd" d="M83.0398 155.197C86.3069 152.709 89.9824 151.258 94.2706 150.221C114.077 146.075 142.665 153.746 150.425 118.084C146.136 124.926 140.215 129.695 132.455 132.598C126.533 134.878 119.999 135.708 113.669 136.122C107.952 136.537 102.234 136.744 96.7208 137.574C91.616 138.196 86.3069 139.44 81.8146 141.928C81.2021 142.343 80.5894 142.55 79.9769 142.964C77.1181 144.83 74.8719 147.111 73.2384 150.014C70.9922 153.953 70.1754 158.515 70.9922 163.076C71.809 167.637 73.8509 171.784 76.5055 175.516V175.309C74.6677 170.54 75.4845 165.564 77.7307 161.21C77.9349 161.003 77.9349 160.795 78.1391 160.588C79.3641 158.515 80.9979 156.649 83.0398 155.197Z" fill="#000066"/>
<defs>
<linearGradient id="paint0_linear_1_61" x1="82.8384" y1="68.8454" x2="121.656" y2="143.222" gradientUnits="userSpaceOnUse">
<stop stop-color="#003398"/>
<stop offset="1" stop-color="#4DEA8F"/>
</linearGradient>
<linearGradient id="paint1_linear_1_61" x1="122.565" y1="99.6086" x2="84.6437" y2="193.945" gradientUnits="userSpaceOnUse">
<stop stop-color="#003398"/>
<stop offset="1" stop-color="#4DEA8F"/>
</linearGradient>
</defs>
</svg>
