<svg width="250" height="250" viewBox="0 0 250 250" fill="none" xmlns="http://www.w3.org/2000/svg">
<mask id="path-1-inside-1_453_18" fill="white">
<path d="M0 125C0 55.9644 55.9644 0 125 0C194.036 0 250 55.9644 250 125C250 194.036 194.036 250 125 250C55.9644 250 0 194.036 0 125Z"/>
</mask>
<path d="M0 125C0 55.9644 55.9644 0 125 0C194.036 0 250 55.9644 250 125C250 194.036 194.036 250 125 250C55.9644 250 0 194.036 0 125Z" fill="white"/>
<path d="M0 125M250 125M250 125M0 125M125 0M250 125M125 250M0 125M125 250V248C57.069 248 2 192.931 2 125H0H-2C-2 195.14 54.8598 252 125 252V250ZM250 125H248C248 192.931 192.931 248 125 248V250V252C195.14 252 252 195.14 252 125H250ZM125 0V2C192.931 2 248 57.069 248 125H250H252C252 54.8598 195.14 -2 125 -2V0ZM125 0V-2C54.8598 -2 -2 54.8598 -2 125H0H2C2 57.069 57.069 2 125 2V0Z" fill="#DDDBDB" mask="url(#path-1-inside-1_453_18)"/>
<mask id="mask0_453_18" style="mask-type:alpha" maskUnits="userSpaceOnUse" x="55" y="81" width="105" height="64">
<path fill-rule="evenodd" clip-rule="evenodd" d="M67.81 99.0287C56.3977 107.177 51.9143 121.639 57.2129 144.454C57.4167 143.232 57.8242 142.213 58.2318 140.991C68.0138 112.269 101.232 115.325 125.075 114.714C149.123 114.306 157.682 99.4361 159.924 81.9176C140.767 99.0287 95.1181 79.677 67.81 99.0287Z" fill="#D9D9D9"/>
</mask>
<g mask="url(#mask0_453_18)">
<path d="M159.863 80.0623H51.4668V145.223H159.863V80.0623Z" fill="url(#paint0_linear_453_18)"/>
</g>
<path fill-rule="evenodd" clip-rule="evenodd" d="M151.459 59.7799C187.522 74.7382 204.53 116.13 189.571 152.193C174.613 188.257 133.222 205.265 97.1579 190.307C90.1911 187.438 83.839 183.544 78.5113 178.832C74.618 175.143 69.7002 164.078 70.9297 155.472C72.1591 146.866 85.888 147.276 94.0842 149.94C85.2734 154.652 90.396 165.717 109.452 171.66C135.066 179.446 167.032 169.406 178.507 141.743C191.006 111.827 175.433 76.7873 143.672 63.6732C113.346 50.9688 69.9052 67.9762 56.791 104.04C57.4057 101.991 58.2254 99.9419 59.045 97.8927C74.0033 61.829 115.395 44.6167 151.459 59.7799Z" fill="#003399"/>
<path opacity="0.15" fill-rule="evenodd" clip-rule="evenodd" d="M78.5115 178.832C72.3643 170.84 75.8477 160.39 82.8146 154.857C86.0931 152.398 89.7816 150.964 94.0844 149.94C89.3716 152.603 88.7569 156.906 92.2403 161.414C76.0526 162.029 78.5115 178.627 78.5115 178.832Z" fill="#000066"/>
<path opacity="0.15" fill-rule="evenodd" clip-rule="evenodd" d="M78.5115 178.832C72.3643 170.84 75.8477 160.39 82.8146 154.857C86.0931 152.398 89.7816 150.964 94.0844 149.94C91.4208 151.374 89.9864 153.423 89.9864 155.677C74.6183 159.57 76.4624 175.143 78.5115 178.832Z" fill="#000066"/>
<path opacity="0.15" fill-rule="evenodd" clip-rule="evenodd" d="M58.27 141.154C68.0645 112.099 101.325 115.168 124.995 114.759C148.053 114.35 156.827 100.64 159.48 84.0665C156.827 89.1818 153.154 93.2741 148.257 96.3432C142.543 99.8219 136.014 101.459 129.484 102.277C122.342 103.3 115.2 103.3 107.855 103.71C96.4277 104.119 83.1643 104.732 72.7576 110.257C60.5145 116.805 57.4538 129.286 57.6578 142.382C58.0659 141.768 58.0659 141.563 58.27 141.154Z" fill="#000066"/>
<mask id="mask1_453_18" style="mask-type:alpha" maskUnits="userSpaceOnUse" x="64" y="116" width="88" height="64">
<path fill-rule="evenodd" clip-rule="evenodd" d="M85.2646 126.6C62.2983 134.416 55.9416 159.304 78.7028 179.049C72.5512 171.028 76.0371 160.538 83.009 154.985C101.464 140.381 142.475 161.772 151.088 116.316C134.683 130.097 107.821 118.99 85.2646 126.6Z" fill="#D9D9D9"/>
</mask>
<g mask="url(#mask1_453_18)">
<path d="M150.64 116.334H55.7676V178.832H150.64V116.334Z" fill="url(#paint1_linear_453_18)"/>
</g>
<path opacity="0.2" fill-rule="evenodd" clip-rule="evenodd" d="M83.0388 155.197C86.306 152.709 89.9814 151.258 94.2696 150.221C114.077 146.075 142.664 153.746 150.424 118.084C146.135 124.926 140.214 129.695 132.454 132.598C126.533 134.878 119.998 135.708 113.668 136.122C107.951 136.537 102.233 136.744 96.7198 137.574C91.615 138.196 86.306 139.44 81.8136 141.928C81.2011 142.343 80.5884 142.55 79.9759 142.964C77.1171 144.83 74.8709 147.111 73.2374 150.014C70.9912 153.953 70.1744 158.515 70.9912 163.076C71.808 167.637 73.85 171.784 76.5045 175.516V175.309C74.6667 170.54 75.4835 165.564 77.7297 161.21C77.9339 161.003 77.9339 160.795 78.1381 160.588C79.3631 158.515 80.9969 156.649 83.0388 155.197Z" fill="#000066"/>
<defs>
<linearGradient id="paint0_linear_453_18" x1="82.8384" y1="68.8454" x2="121.656" y2="143.222" gradientUnits="userSpaceOnUse">
<stop stop-color="#003398"/>
<stop offset="1" stop-color="#4DEA8F"/>
</linearGradient>
<linearGradient id="paint1_linear_453_18" x1="122.566" y1="99.6086" x2="84.6447" y2="193.945" gradientUnits="userSpaceOnUse">
<stop stop-color="#003398"/>
<stop offset="1" stop-color="#4DEA8F"/>
</linearGradient>
</defs>
</svg>
