<svg width="250" height="250" viewBox="0 0 250 250" fill="none" xmlns="http://www.w3.org/2000/svg">
<path d="M0 125C0 55.9644 55.9644 0 125 0C194.036 0 250 55.9644 250 125C250 194.036 194.036 250 125 250C55.9644 250 0 194.036 0 125Z" fill="#231A8D"/>
<path fill-rule="evenodd" clip-rule="evenodd" d="M121.878 69.0645C148.988 67.3401 172.361 87.9276 174.07 115.039C175.78 142.151 155.18 165.512 128.068 167.208C100.976 168.902 77.6363 148.321 75.9275 121.23C74.2186 94.1385 94.7872 70.7877 121.878 69.0645ZM161.847 114.949C160.088 94.6055 142.176 79.5366 121.832 81.2862C101.475 83.0369 86.3942 100.963 88.1541 121.32C89.9138 141.675 107.847 156.748 128.203 154.98C148.544 153.212 163.605 135.292 161.847 114.949Z" fill="#D1AE6D"/>
<path fill-rule="evenodd" clip-rule="evenodd" d="M122.058 61.2369C130.175 60.4076 141.148 62.633 148.521 65.9908C150.805 67.0312 152.87 68.3535 155.105 69.3961C155.542 68.7856 156.011 68.0264 156.428 67.3886C159.657 69.3983 162.695 71.7035 165.5 74.2742C177.318 85.1128 184.302 100.231 184.894 116.255C185.416 129.575 181.479 142.689 173.709 153.52C171.788 156.207 170.031 158.173 167.803 160.608L165.945 158.83C162.402 162.228 159.613 164.654 155.413 167.298C144.289 174.301 131.091 177.255 118.044 175.662C115.217 175.324 112.621 174.734 109.848 174.099L109.05 176.461C103.553 174.887 98.2977 172.57 93.4287 169.572C93.316 172.539 93.4733 175.704 93.4165 178.683C93.397 179.705 93.5105 181.716 93.3485 182.632L85.5512 194.854C85.648 191.496 85.5644 187.699 85.5644 184.312L85.5749 163.759C84.6638 162.923 83.743 162.096 82.8128 161.282L82.8033 195L68.0428 194.992L68.0351 139.025C68.0144 136.478 67.2463 134.698 66.6504 132.232C66.2446 130.489 65.9089 128.732 65.6438 126.963C63.6077 114.066 66.3895 101.577 72.1981 90.0666C73.1166 90.482 74.0385 90.8899 74.9637 91.2903C77.5628 86.8211 79.7359 83.6153 83.2187 79.7474C92.8195 69.0849 107.631 61.8193 122.058 61.2369ZM153.27 71.5867C145.007 66.1805 132.593 63.0287 122.771 63.6344C107.693 64.4137 94.4039 70.4523 84.2452 81.727C81.2912 85.0239 78.7339 88.6559 76.6257 92.5485L78.6722 93.4545C71.9325 105.98 70.5185 120.692 74.7489 134.272C78.9656 147.732 88.3823 158.95 100.907 165.435C104.383 167.23 108.045 168.637 111.828 169.633L111.1 171.619C114.844 172.817 123.504 174.007 127.377 173.55C140.698 173.031 154.823 167.262 163.943 157.36L162.269 155.77C172.324 145.489 177.8 132.366 177.635 117.928C177.494 103.899 171.758 90.5066 161.703 80.7234C158.78 77.8925 155.557 75.3881 152.092 73.2552L153.27 71.5867Z" fill="#D1AE6D"/>
<path d="M157.394 168.922C157.838 169.182 158.94 170.459 159.354 170.914C151.202 176.844 142.507 180.223 132.404 180.947L130.808 181.05L130.688 178.377C139.426 178.141 150.328 174.024 157.394 168.922Z" fill="#D1AE6D"/>
<path d="M176.12 56.0021C180.576 55.5411 184.553 58.7965 184.983 63.2548C185.412 67.7129 182.128 71.6677 177.667 72.0651C173.25 72.4585 169.345 69.2148 168.92 64.8015C168.495 60.388 171.71 56.4584 176.12 56.0021Z" fill="#D1AE6D"/>
<path d="M121.813 57.6566C111.948 58.2621 103.386 60.4515 94.9846 65.884L94.6809 65.9736C94.139 65.534 93.3582 64.5301 92.8833 63.9584C101.616 58.1546 109.258 55.7919 119.668 55.0311L121.816 55L121.813 57.6566Z" fill="#D1AE6D"/>
</svg>
