<svg width="250" height="250" viewBox="0 0 250 250" fill="none" xmlns="http://www.w3.org/2000/svg">
<mask id="path-1-inside-1_453_10" fill="white">
<path d="M0 125C0 55.9644 55.9644 0 125 0C194.036 0 250 55.9644 250 125C250 194.036 194.036 250 125 250C55.9644 250 0 194.036 0 125Z"/>
</mask>
<path d="M0 125C0 55.9644 55.9644 0 125 0C194.036 0 250 55.9644 250 125C250 194.036 194.036 250 125 250C55.9644 250 0 194.036 0 125Z" fill="white"/>
<path d="M0 125M250 125M250 125M0 125M125 0M250 125M125 250M0 125M125 250V248C57.069 248 2 192.931 2 125H0H-2C-2 195.14 54.8598 252 125 252V250ZM250 125H248C248 192.931 192.931 248 125 248V250V252C195.14 252 252 195.14 252 125H250ZM125 0V2C192.931 2 248 57.069 248 125H250H252C252 54.8598 195.14 -2 125 -2V0ZM125 0V-2C54.8598 -2 -2 54.8598 -2 125H0H2C2 57.069 57.069 2 125 2V0Z" fill="#DDDBDB" mask="url(#path-1-inside-1_453_10)"/>
<path d="M148.937 190.623L91.2194 153.046C91.2194 153.046 83.9799 148.885 82.3223 141.141C79.9946 130.253 87.6645 120.921 87.6645 120.921L162.574 169.706C168.353 173.473 169.93 181.178 166.216 186.99C162.405 192.951 154.563 194.27 148.937 190.623Z" fill="#38D200"/>
<path d="M94.263 112.861C94.263 112.861 85.4209 107.519 85.4209 95.175C85.4209 82.8681 94.2584 77.5977 94.2584 77.5977L125.817 56.9447C128.594 55.1822 131.954 54.5862 135.168 55.2861C138.382 55.986 141.19 57.9253 142.982 60.683C144.775 63.4407 145.407 66.7941 144.742 70.0153C144.077 73.2364 142.168 76.0653 139.43 77.8877L112.836 95.2057L158.149 124.716C158.149 124.716 166.306 129.391 167.918 137.279C170.16 148.284 162.585 157.351 162.585 157.351L94.263 112.861Z" fill="#0473EA"/>
<path d="M153.661 82.8988C150.696 82.8988 148.589 83.8329 146.531 85.173L131.127 95.2057L146.531 105.238C148.608 106.575 150.788 107.511 153.661 107.511C156.901 107.475 159.996 106.163 162.274 103.859C164.553 101.555 165.83 98.445 165.83 95.205C165.83 91.9647 164.553 88.855 162.274 86.5512C159.996 84.2473 156.901 82.9348 153.661 82.8988Z" fill="#38D200"/>
<path d="M94.1099 192.618C97.0726 192.618 99.1805 191.684 101.238 190.344L116.643 180.311L101.238 170.279C99.1606 168.942 96.9825 168.006 94.1099 168.006C92.4823 167.988 90.8673 168.293 89.3584 168.903C87.8494 169.514 86.4765 170.417 85.3192 171.562C84.1619 172.706 83.2431 174.069 82.616 175.571C81.9889 177.073 81.666 178.685 81.666 180.312C81.666 181.94 81.9889 183.551 82.616 185.054C83.2431 186.556 84.1619 187.918 85.3192 189.063C86.4765 190.207 87.8494 191.111 89.3584 191.721C90.8673 192.332 92.4823 192.637 94.1099 192.618Z" fill="#0473EA"/>
</svg>
