<svg width="250" height="250" viewBox="0 0 250 250" fill="none" xmlns="http://www.w3.org/2000/svg">
<path d="M0 125C0 55.9644 55.9644 0 125 0C194.036 0 250 55.9644 250 125C250 194.036 194.036 250 125 250C55.9644 250 0 194.036 0 125Z" fill="white"/>
<path d="M206.718 85.9043L193.858 76.1096C193.649 75.9738 193.44 75.8363 193.24 75.6817L183.564 68.3151C180.054 66.0964 175.389 66.7241 172.642 69.8609L170.977 72.0156L169.404 74.0626L140.893 111.039C137.956 114.858 132.589 115.923 128.634 112.913L118.949 105.546C115.448 103.327 110.783 103.946 108.037 107.075L95.7856 122.972C95.6765 123.117 95.5576 123.262 95.4406 123.39L95.0034 123.972L94.9846 123.882C94.8208 124.046 94.6396 124.201 94.457 124.355C94.3119 124.473 94.1663 124.591 94.0197 124.7C93.4013 125.145 92.738 125.501 92.0274 125.764C91.8635 125.827 91.709 125.873 91.5546 125.927C91.5185 125.937 91.4731 125.946 91.4356 125.963C91.217 126.027 90.9909 126.082 90.7629 126.127C90.7081 126.137 90.6346 126.153 90.5724 126.153C90.4174 126.189 90.2536 126.218 90.0897 126.235C90.0162 126.244 89.954 126.244 89.8805 126.254C89.8069 126.263 89.7448 126.272 89.6712 126.272C89.5434 126.291 89.4171 126.291 89.2808 126.291C89.2359 126.3 89.1905 126.3 89.1357 126.3H89.0454C88.9092 126.3 88.772 126.3 88.6363 126.291C88.3816 126.282 88.1176 126.264 87.8634 126.227C87.7351 126.208 87.5994 126.191 87.473 126.163C87.3541 126.144 87.2184 126.118 87.0905 126.082C86.9622 126.055 86.8265 126.018 86.7076 125.982C86.4534 125.909 86.2081 125.837 85.9534 125.727C85.226 125.454 84.5345 125.064 83.8801 124.563C80.1969 121.725 79.5143 116.378 82.3437 112.704L92.2569 99.8441C92.3852 99.7084 92.4928 99.5712 92.6018 99.435L97.7953 92.6963L104.862 83.5388C107.599 80.4098 112.265 79.782 115.767 81.993L125.452 89.3689C126.489 90.1511 127.625 90.6694 128.79 90.9146C132.055 91.6234 135.548 90.315 137.712 87.4954L143.588 79.8837L146.089 76.5999L149.59 72.0156H71.2767C65.0469 72.0156 60 77.0636 60 83.2841V171.726C60 177.956 65.0483 183.002 71.2767 183.002H159.718C165.939 183.002 170.987 177.954 170.987 171.726V127.328L169.377 129.401L169.249 129.565V129.475L166.63 132.867L161.447 139.588L161.247 139.852L146.578 158.887C143.677 161.987 139.039 162.824 135.401 160.432L125.797 153.121C125.443 152.857 125.069 152.611 124.687 152.411C121.094 150.456 116.502 151.32 113.937 154.64C112.819 156.085 111.7 157.541 110.581 158.996C107.545 162.924 104.515 166.845 101.496 170.773C98.5494 173.893 93.6387 174.329 90.182 171.674C89.3638 171.037 88.6812 170.274 88.1724 169.437C87.3901 168.164 86.9622 166.726 86.9074 165.271C86.8887 164.917 86.8981 164.543 86.9341 164.18C86.9701 163.807 87.0249 163.433 87.1152 163.062C87.1606 162.817 87.2342 162.57 87.3151 162.334C87.3245 162.289 87.3417 162.253 87.3511 162.206C87.3871 162.116 87.4247 162.025 87.4508 161.942C87.4962 161.833 87.5416 161.724 87.587 161.624C87.6413 161.479 87.7055 161.341 87.7775 161.205C87.8506 161.06 87.9226 160.906 88.0056 160.768C88.1956 160.44 88.4142 160.122 88.6516 159.805L98.3184 147.264L98.3633 147.218L98.6368 146.864C98.7182 146.764 98.7912 146.681 98.8648 146.591V146.572C102.839 141.407 106.822 136.24 110.814 131.084C113.642 127.392 118.972 126.747 122.673 129.556L132.268 136.868C135.915 139.26 140.552 138.423 143.444 135.322L169.399 101.665L170.981 99.6102L175.301 94.0076L175.374 93.9173L175.42 93.8531C178.257 90.1699 183.578 89.5155 187.278 92.334L196.882 99.6457C200.556 102.038 205.522 101.282 208.232 97.7629C211.083 94.0797 210.42 88.7238 206.718 85.9043ZM85.5724 134.268C85.5635 134.423 85.5463 134.568 85.5181 134.723C85.5088 134.858 85.4915 134.996 85.4634 135.132C85.4367 135.313 85.3898 135.505 85.3355 135.686C85.3168 135.814 85.2808 135.94 85.2353 136.069C85.1993 136.187 85.1618 136.304 85.1263 136.423C85.1075 136.487 85.0903 136.532 85.0621 136.596C84.9619 136.841 84.8622 137.079 84.7532 137.315C84.6717 137.488 84.5794 137.66 84.4704 137.833C84.3796 138.006 84.2705 138.17 84.1609 138.342C84.0612 138.487 83.9615 138.632 83.8426 138.779C83.7148 138.952 83.5692 139.124 83.4241 139.297L79.9407 143.19C78.2672 145.064 75.9219 145.991 73.5845 145.963C71.5842 145.935 69.5824 145.217 68.0007 143.771C64.5627 140.651 64.3174 135.296 67.4277 131.829L70.9017 127.937C73.9936 124.472 79.3959 124.235 82.8432 127.364C83.2617 127.737 83.6348 128.146 83.9615 128.591C84.4985 129.328 84.917 130.137 85.1791 130.983C85.2526 131.202 85.3148 131.411 85.3617 131.63C85.4165 131.838 85.4619 132.057 85.4979 132.284L85.5073 132.32C85.526 132.538 85.5522 132.757 85.571 132.974C85.5803 133.074 85.5897 133.173 85.5897 133.274C85.5991 133.392 85.5991 133.51 85.5991 133.647C85.6006 133.859 85.5912 134.068 85.5724 134.268Z" fill="#C6B07D"/>
</svg>
