<svg width="250" height="250" viewBox="0 0 250 250" fill="none" xmlns="http://www.w3.org/2000/svg">
<mask id="path-1-inside-1_453_4" fill="white">
<path d="M0 125C0 55.9644 55.9644 0 125 0C194.036 0 250 55.9644 250 125C250 194.036 194.036 250 125 250C55.9644 250 0 194.036 0 125Z"/>
</mask>
<path d="M0 125C0 55.9644 55.9644 0 125 0C194.036 0 250 55.9644 250 125C250 194.036 194.036 250 125 250C55.9644 250 0 194.036 0 125Z" fill="white"/>
<path d="M0 125M250 125M250 125M0 125M125 0M250 125M125 250M0 125M125 250V248C57.069 248 2 192.931 2 125H0H-2C-2 195.14 54.8598 252 125 252V250ZM250 125H248C248 192.931 192.931 248 125 248V250V252C195.14 252 252 195.14 252 125H250ZM125 0V2C192.931 2 248 57.069 248 125H250H252C252 54.8598 195.14 -2 125 -2V0ZM125 0V-2C54.8598 -2 -2 54.8598 -2 125H0H2C2 57.069 57.069 2 125 2V0Z" fill="#DDDBDB" mask="url(#path-1-inside-1_453_4)"/>
<path fill-rule="evenodd" clip-rule="evenodd" d="M52.3314 119.711C48.0982 98.4723 49.7778 78.736 58.1231 58.8929C76.702 50.2676 99.4612 48.6404 119.406 52.525C124.45 75.6521 120.371 97.9522 113.27 113.582C94.9339 122.674 72.2235 123.832 52.3314 119.717V119.711Z" fill="#FFCC33"/>
<path fill-rule="evenodd" clip-rule="evenodd" d="M52.2416 130.444C48.0084 151.682 49.688 171.42 58.0333 191.263C76.6223 199.898 99.3763 201.525 119.335 197.638C124.379 174.513 120.3 152.213 113.2 136.583C94.8577 127.49 72.1723 126.331 52.2604 130.448L52.2416 130.444Z" fill="#FFCC33"/>
<path fill-rule="evenodd" clip-rule="evenodd" d="M197.76 130.49C201.993 151.729 200.314 171.471 191.968 191.309C173.381 199.944 150.627 201.572 130.666 197.685C125.623 174.56 129.701 152.265 136.802 136.636C155.144 127.536 177.831 126.378 197.743 130.496L197.76 130.49Z" fill="#FFCC33"/>
<path fill-rule="evenodd" clip-rule="evenodd" d="M197.545 119.504C201.779 98.2668 200.099 78.529 191.753 58.6858C173.175 50.055 150.397 48.4298 130.471 52.3144C125.427 75.4395 129.506 97.7365 136.606 113.369C154.949 122.464 177.634 123.621 197.545 119.504Z" fill="#002244"/>
</svg>
