<svg width="250" height="250" viewBox="0 0 250 250" fill="none" xmlns="http://www.w3.org/2000/svg">
<mask id="path-1-inside-1_453_7" fill="white">
<path d="M0 125C0 55.9644 55.9644 0 125 0C194.036 0 250 55.9644 250 125C250 194.036 194.036 250 125 250C55.9644 250 0 194.036 0 125Z"/>
</mask>
<path d="M0 125C0 55.9644 55.9644 0 125 0C194.036 0 250 55.9644 250 125C250 194.036 194.036 250 125 250C55.9644 250 0 194.036 0 125Z" fill="white"/>
<path d="M0 125M250 125M250 125M0 125M125 0M250 125M125 250M0 125M125 250V248C57.069 248 2 192.931 2 125H0H-2C-2 195.14 54.8598 252 125 252V250ZM250 125H248C248 192.931 192.931 248 125 248V250V252C195.14 252 252 195.14 252 125H250ZM125 0V2C192.931 2 248 57.069 248 125H250H252C252 54.8598 195.14 -2 125 -2V0ZM125 0V-2C54.8598 -2 -2 54.8598 -2 125H0H2C2 57.069 57.069 2 125 2V0Z" fill="#DDDBDB" mask="url(#path-1-inside-1_453_7)"/>
<path d="M180.621 62.0089H70.1376C67.1543 61.8694 64.3358 63.3816 62.8024 65.9445C61.269 68.5074 61.269 71.7059 62.8024 74.2688C64.3358 76.8317 67.1543 78.3439 70.1376 78.2044H180.621C184.946 78.0021 188.349 74.4366 188.349 70.1066C188.349 65.7767 184.946 62.2112 180.621 62.0089Z" fill="#FF5C39"/>
<path d="M171.505 86.2226C169.532 85.374 167.302 85.3471 165.309 86.1477C163.315 86.9483 161.723 88.5105 160.885 90.4883L117.998 190.723C117.15 192.697 117.123 194.927 117.923 196.92C118.724 198.914 120.286 200.505 122.264 201.344C124.237 202.192 126.467 202.219 128.461 201.418C130.454 200.618 132.046 199.056 132.884 197.078L175.771 96.8249C176.614 94.8536 176.638 92.6278 175.838 90.6388C175.038 88.6497 173.479 87.0608 171.505 86.2226Z" fill="#FF5C39"/>
<path d="M145.504 96.8248C146.353 94.8515 146.379 92.6213 145.579 90.628C144.778 88.6348 143.216 87.0429 141.238 86.2048C137.128 84.4585 132.379 86.3659 130.618 90.4705L102.723 155.642C100.977 159.753 102.884 164.501 106.989 166.262C108.962 167.111 111.192 167.138 113.186 166.337C115.179 165.536 116.771 163.974 117.609 161.996L145.504 96.8248Z" fill="#253F66"/>
<path d="M115.414 96.8251C116.263 94.8518 116.29 92.6216 115.489 90.6284C114.688 88.6351 113.126 87.0432 111.148 86.2051C109.175 85.3566 106.945 85.3296 104.952 86.1302C102.958 86.9309 101.366 88.493 100.528 90.4708L87.6781 120.756C85.9191 124.861 87.8209 129.616 91.9261 131.376C93.8973 132.225 96.1256 132.255 98.1185 131.458C100.111 130.66 101.705 129.102 102.546 127.128L115.414 96.8251Z" fill="#00884F"/>
</svg>
