<svg width="250" height="250" viewBox="0 0 250 250" fill="none" xmlns="http://www.w3.org/2000/svg">
<path d="M0 125C0 55.9644 55.9644 0 125 0C194.036 0 250 55.9644 250 125C250 194.036 194.036 250 125 250C55.9644 250 0 194.036 0 125Z" fill="#2D465A"/>
<path d="M158.564 74.5193C160.217 74.445 161.872 74.4171 163.526 74.4356C171.874 74.528 179.653 76.8749 185.377 83.1815C191.383 89.7981 193.668 98.7708 194.773 107.437C194.948 109.504 194.825 111.619 194.924 113.688C195.141 121.562 194.887 129.636 194.216 137.492C193.582 144.918 193.249 152.021 193.575 159.496C193.707 162.528 194.658 166.267 194.626 169.055C193.544 169.839 190.531 168.739 189.45 168.076C179.149 161.625 178.823 150.235 178.502 139.541C178.156 128.026 179.366 113.165 176.19 102.239C173.309 93.3787 166.909 87.8327 157.374 88.7567C154.244 89.0601 151.964 90.1502 149.13 91.2976C134.555 97.1979 126.665 110.977 116.978 122.466C117.313 108.501 116.466 94.3764 117.029 80.4012C117.161 77.1032 119.331 76.823 122.144 76.5993C125.354 76.3438 129.25 76.2465 131.813 78.4132C132.539 81.2751 132.302 87.1762 132.211 90.2903C133.126 89.3306 134.273 87.8056 135.203 86.694C140.081 80.8617 150.921 74.9795 158.564 74.5193Z" fill="#A6CE39"/>
<path d="M55 124.352C55.5281 122.234 55.5888 118.109 55.7229 115.829C56.392 104.454 57.0151 93.0522 55.3858 81.7346C55.4921 79.9717 57.2923 80.4217 58.1829 80.7975C62.588 82.6566 66.7055 87.0331 68.3978 91.5181C72.2297 101.674 71.232 113.804 71.4922 124.557C71.788 136.785 70.3152 153.857 83.7046 159.941C88.4585 162.068 94.349 161.456 98.9312 159.411C102.469 157.832 107.861 155.205 110.801 152.769C118.605 146.303 126.651 135.897 132.514 127.655C132.322 131.567 132.474 136.13 132.505 140.122L132.575 159.577C132.576 161.102 132.857 171.479 131.948 172.084C129.97 173.399 120.631 173.604 118.623 172.158C117.289 170.1 117.705 162.597 117.711 159.708C109.851 168.214 100.179 174.98 88.3571 175.527C70.1846 176.364 58.6946 164.993 55.9574 147.602C55.6662 145.751 55.4806 142.679 55 140.957V124.352Z" fill="white"/>
</svg>
