<svg width="250" height="250" viewBox="0 0 250 250" fill="none" xmlns="http://www.w3.org/2000/svg">
<path d="M0 125C0 55.9644 55.9644 0 125 0C194.036 0 250 55.9644 250 125C250 194.036 194.036 250 125 250C55.9644 250 0 194.036 0 125Z" fill="#990D81"/>
<path d="M142.412 175.466C142.539 175.234 142.641 174.989 142.753 174.751L183.251 86.7346C183.583 86.0169 183.917 85.3021 184.243 84.5814C184.358 84.3341 184.472 84.117 184.804 84.12C185.549 84.12 186.297 84.12 187.147 84.12C186.96 84.5723 186.846 84.9071 186.689 85.2298C172.249 116.71 157.811 148.189 143.374 179.667C142.798 180.921 142.204 182.173 141.649 183.436C141.16 184.552 141.233 185.638 142.041 186.585C142.393 187.027 142.864 187.358 143.398 187.54C143.933 187.722 144.509 187.746 145.057 187.61C146.263 187.366 146.866 186.531 147.337 185.499C161.746 154.142 176.15 122.79 190.549 91.4451C191.924 88.4536 193.263 85.4529 194.68 82.4734C195.458 80.8208 194.828 78.4957 192.657 78.0463V77.8473H181.782C181.793 77.8779 181.797 77.9105 181.793 77.9427C181.79 77.975 181.78 78.0062 181.764 78.0343C180.582 78.2936 179.955 79.129 179.469 80.1453C177.861 83.6475 176.252 87.1488 174.644 90.649C163.208 115.607 151.761 140.559 140.301 165.505C140.138 165.864 139.966 166.217 139.77 166.633C139.318 166.331 139.312 165.831 139.068 165.478C138.229 164.272 138.434 163.159 139.04 161.841C150.838 136.181 162.599 110.506 174.324 84.8166C174.692 84.0084 175.072 83.2032 175.437 82.404C176.3 80.486 175.38 78.568 173.344 78.0162C173.334 77.9586 173.312 77.904 173.278 77.8563H162.617C162.634 77.9184 162.625 77.9845 162.593 78.0403C161.417 78.2785 160.72 79.0566 160.244 80.097C158.406 84.1079 156.566 88.1168 154.722 92.1237L130.491 144.899C130.379 145.137 130.265 145.372 130.114 145.68C129.625 145.161 129.511 144.498 129.179 143.97C128.558 142.987 128.657 142.109 129.149 141.045C138.023 121.826 146.869 102.596 155.687 83.354C156.064 82.5337 156.348 81.7165 156.14 80.7846C156.023 80.1829 155.721 79.6327 155.276 79.2114C154.831 78.79 154.265 78.5187 153.658 78.4354C153.297 78.3926 152.935 78.3754 152.572 78.3841C149.804 78.3841 147.035 78.4354 144.27 78.363C142.478 78.3147 141.372 79.0807 140.651 80.673C135.794 91.2964 130.917 101.915 126.022 112.528C124.291 116.298 122.56 120.067 120.829 123.837C120.708 124.105 120.563 124.362 120.364 124.757C119.882 123.701 119.459 122.754 119.01 121.804C118.844 121.439 119.101 121.171 119.23 120.9C120.66 117.751 122.096 114.607 123.54 111.466C127.898 101.949 132.256 92.4303 136.613 82.9107C137.216 81.6019 137.038 80.3021 136.139 79.331C135.892 79.0416 135.586 78.8085 135.241 78.6472C134.896 78.486 134.521 78.4004 134.14 78.3962C130.877 78.3962 127.614 78.369 124.351 78.3962C122.949 78.3962 122.041 79.2255 121.474 80.4589L118.217 87.5488C115.871 92.6635 113.521 97.7731 111.169 102.878C111.052 103.137 111 103.451 110.672 103.641L108.232 98.3541C105.581 92.5821 102.909 86.816 100.298 81.0259C99.6944 79.6658 98.9827 78.4715 97.5563 77.8563H96.1721C95.9217 78.182 95.5026 78.2363 95.1889 78.4595C94.1666 79.1953 93.6539 80.1573 93.8077 81.43C93.8989 81.8818 94.0585 82.3171 94.2812 82.7207C98.5032 91.9407 102.725 101.158 106.947 110.372C107.088 110.625 107.165 110.91 107.171 111.2C107.177 111.49 107.111 111.777 106.98 112.036C101.852 123.152 96.739 134.273 91.6424 145.399C91.5651 145.649 91.4273 145.876 91.2414 146.06C90.9914 145.731 90.7959 145.365 90.6623 144.974C80.8371 123.587 71.013 102.197 61.1898 80.8057C61.0373 80.4419 60.8558 80.0909 60.6469 79.7562C59.7422 78.4052 58.1017 77.9468 56.7536 78.6706C55.1855 79.5029 54.6004 81.0832 55.279 82.6815C55.3966 82.9559 55.5263 83.2213 55.6469 83.4927L88.0598 154.241C88.1878 154.55 88.3317 154.852 88.491 155.146C89.7184 157.257 92.4718 157.311 93.7836 155.27C94.0171 154.873 94.2237 154.461 94.4018 154.036L110.189 119.766C110.311 119.41 110.49 119.077 110.72 118.78C111.181 119.44 111.386 120.212 111.778 120.891C112.098 121.439 112.023 121.913 111.763 122.465C110.394 125.387 109.049 128.324 107.716 131.256C102.891 141.756 98.0659 152.257 93.2408 162.758C93.0317 163.17 92.9215 163.625 92.9188 164.087C92.9162 164.55 93.0213 165.006 93.2257 165.421C93.482 165.957 93.7263 166.497 93.9706 167.037C95.2583 169.887 96.552 172.734 97.8247 175.59C98.2529 176.549 98.8983 177.239 99.9357 177.505C101.603 177.93 102.985 177.272 103.738 175.656C105.307 172.281 106.854 168.901 108.41 165.52C112.23 157.205 116.056 148.891 119.888 140.58C120.011 140.312 120.053 139.977 120.412 139.802C120.735 140.505 120.994 141.186 121.347 141.814C121.7 142.441 121.631 142.938 121.347 143.563C115.286 156.745 109.232 169.936 103.187 183.135C103.036 183.464 102.87 183.789 102.752 184.13C102.604 184.526 102.543 184.949 102.572 185.371C102.601 185.793 102.721 186.203 102.922 186.575C103.124 186.946 103.403 187.27 103.74 187.525C104.078 187.779 104.466 187.959 104.878 188.051C106.341 188.427 107.707 187.749 108.407 186.241C110.015 182.773 111.609 179.303 113.19 175.831C116.986 167.576 120.783 159.322 124.583 151.069C124.722 150.767 124.764 150.378 125.168 150.2C125.406 150.71 125.63 151.186 125.85 151.663C126.305 152.649 126.73 153.653 127.225 154.618C127.467 155.129 127.848 155.562 128.324 155.867C128.8 156.172 129.352 156.337 129.918 156.343C131.157 156.389 132.029 155.74 132.662 154.712C132.839 154.396 133 154.071 133.142 153.738L162.798 89.307C163.5 87.7811 164.204 86.2561 164.909 84.7322C165.048 84.4306 165.141 84.1019 165.576 84.129C166.293 84.1622 167.017 84.0657 167.75 84.1924C167.78 84.7141 167.479 85.0971 167.295 85.4982C157.914 105.969 148.527 126.435 139.134 146.898C136.772 152.045 134.408 157.191 132.044 162.336C131.848 162.7 131.737 163.103 131.717 163.515C131.697 163.928 131.77 164.34 131.929 164.721C133.538 168.298 135.152 171.867 136.773 175.43C137.324 176.636 138.332 177.164 139.635 177.173C140.214 177.191 140.786 177.039 141.279 176.736C141.773 176.433 142.167 175.991 142.412 175.466ZM114.426 110.514C115.683 107.763 116.947 105.014 118.22 102.266C120.81 96.6473 123.413 91.035 125.97 85.4017C126.272 84.7201 126.646 84.4487 127.373 84.5331C127.957 84.5642 128.543 84.5642 129.128 84.5331L115.515 114.208C115.02 113.137 114.631 112.278 114.23 111.427C114.064 111.071 114.309 110.8 114.438 110.514H114.426ZM116.619 132.975C114.809 136.925 113 140.872 111.19 144.814C107.972 151.839 104.751 158.869 101.528 165.906C101.353 166.289 101.172 166.666 100.94 167.164C100.874 167.095 100.814 167.021 100.759 166.944C100.34 166.015 99.6733 165.113 99.5768 164.151C99.4863 163.246 100.231 162.399 100.626 161.536C105.399 151.084 110.18 140.639 114.969 130.203C115.092 129.819 115.298 129.467 115.572 129.172C116.024 130.161 116.477 131.105 116.887 132.055C117.032 132.405 116.778 132.685 116.631 132.975H116.619ZM125.159 135.218C124.677 134.175 124.3 133.336 123.899 132.504C123.687 132.067 123.938 131.735 124.098 131.388C125.648 128.005 127.204 124.625 128.766 121.249C134.242 109.347 139.718 97.4444 145.192 85.5404C145.289 85.3323 145.398 85.1272 145.494 84.9131C145.537 84.7912 145.62 84.6875 145.73 84.619C145.839 84.5505 145.969 84.5213 146.097 84.5361C146.818 84.5361 147.536 84.5361 148.404 84.5361L125.159 135.218Z" fill="white"/>
</svg>
