<svg width="250" height="250" viewBox="0 0 250 250" fill="none" xmlns="http://www.w3.org/2000/svg">
<mask id="path-1-inside-1_453_2" fill="white">
<path d="M0 125C0 55.9644 55.9644 0 125 0C194.036 0 250 55.9644 250 125C250 194.036 194.036 250 125 250C55.9644 250 0 194.036 0 125Z"/>
</mask>
<path d="M0 125C0 55.9644 55.9644 0 125 0C194.036 0 250 55.9644 250 125C250 194.036 194.036 250 125 250C55.9644 250 0 194.036 0 125Z" fill="white"/>
<path d="M0 125M250 125M250 125M0 125M125 0M250 125M125 250M0 125M125 250V248C57.069 248 2 192.931 2 125H0H-2C-2 195.14 54.8598 252 125 252V250ZM250 125H248C248 192.931 192.931 248 125 248V250V252C195.14 252 252 195.14 252 125H250ZM125 0V2C192.931 2 248 57.069 248 125H250H252C252 54.8598 195.14 -2 125 -2V0ZM125 0V-2C54.8598 -2 -2 54.8598 -2 125H0H2C2 57.069 57.069 2 125 2V0Z" fill="#DDDBDB" mask="url(#path-1-inside-1_453_2)"/>
<path fill-rule="evenodd" clip-rule="evenodd" d="M65.1083 107.184L65.361 106.173L65.6137 104.91L76.7329 64.9819L195 65.2346L64.3502 171.625L123.989 99.6029H79.2599L76.7329 99.8556C71.426 100.108 66.6245 103.393 65.1083 107.184Z" fill="#808285"/>
<path fill-rule="evenodd" clip-rule="evenodd" d="M188.682 138.014C188.682 137.509 184.892 160.505 178.574 184.26L55 185.018L188.43 77.1119L128.538 149.639H173.52L176.047 149.386C181.354 149.134 186.913 141.805 188.682 138.014Z" fill="#ED1C24"/>
</svg>
