<svg width="250" height="250" viewBox="0 0 250 250" fill="none" xmlns="http://www.w3.org/2000/svg">
<mask id="path-1-inside-1_769_630" fill="white">
<path d="M0 48C0 21.4903 21.4903 0 48 0H202C228.51 0 250 21.4903 250 48V202C250 228.51 228.51 250 202 250H48C21.4903 250 0 228.51 0 202V48Z"/>
</mask>
<path d="M0 48C0 21.4903 21.4903 0 48 0H202C228.51 0 250 21.4903 250 48V202C250 228.51 228.51 250 202 250H48C21.4903 250 0 228.51 0 202V48Z" fill="white"/>
<path d="M48 0V2H202V0V-2H48V0ZM250 48H248V202H250H252V48H250ZM202 250V248H48V250V252H202V250ZM0 202H2V48H0H-2V202H0ZM48 250V248C22.5949 248 2 227.405 2 202H0H-2C-2 229.614 20.3858 252 48 252V250ZM250 202H248C248 227.405 227.405 248 202 248V250V252C229.614 252 252 229.614 252 202H250ZM202 0V2C227.405 2 248 22.5949 248 48H250H252C252 20.3858 229.614 -2 202 -2V0ZM48 0V-2C20.3858 -2 -2 20.3858 -2 48H0H2C2 22.5949 22.5949 2 48 2V0Z" fill="#DDDBDB" mask="url(#path-1-inside-1_769_630)"/>
<path d="M125.632 118.238H125.295C123.95 118.267 122.633 118.626 121.458 119.282L59.1913 154.312C57.9573 155.005 56.925 156.008 56.1962 157.222C55.4673 158.436 55.0669 159.818 55.0345 161.234V161.655C55.0592 162.986 55.418 164.289 56.0779 165.445C57.1365 167.328 58.8966 168.717 60.9743 169.307C63.0521 169.897 65.2786 169.641 67.1682 168.594C85.3434 158.371 122.316 137.538 123.377 137.117C124.07 136.767 124.838 136.588 125.615 136.595C126.301 136.579 126.979 136.742 127.584 137.067C128.577 137.606 182.766 168.847 182.766 168.847C183.942 169.518 185.266 169.889 186.62 169.924H187.04C188.442 169.891 189.812 169.498 191.018 168.781C192.223 168.064 193.224 167.048 193.923 165.832C194.606 164.617 194.976 163.251 195 161.857V161.655C194.985 160.235 194.599 158.843 193.882 157.618C193.165 156.392 192.141 155.375 190.911 154.666L129.536 119.299C128.348 118.61 127.005 118.233 125.632 118.204" fill="#002668"/>
<path d="M125.631 80.1594H125.295C123.949 80.1814 122.629 80.5403 121.458 81.2036L59.1908 116.234C57.9553 116.92 56.9194 117.915 56.1848 119.123C55.4501 120.331 55.0419 121.709 55.0004 123.122V123.543C55.0293 124.873 55.3878 126.175 56.0438 127.332C57.1081 129.22 58.8768 130.607 60.9621 131.192C63.0474 131.776 65.2791 131.508 67.1677 130.448C85.3429 120.242 122.316 99.4092 123.376 98.9882C124.069 98.6325 124.836 98.4477 125.614 98.4493C126.3 98.4417 126.976 98.6037 127.583 98.9208L182.765 130.701C183.937 131.385 185.263 131.762 186.619 131.795H187.04C188.444 131.762 189.815 131.367 191.021 130.647C192.227 129.927 193.227 128.907 193.923 127.686C194.612 126.474 194.983 125.106 195 123.712V123.526C194.984 122.104 194.598 120.71 193.881 119.482C193.165 118.253 192.141 117.233 190.91 116.52L129.536 81.1531C128.346 80.4692 127.003 80.0983 125.631 80.0752" fill="#D2232A"/>
</svg>
