<svg width="250" height="250" viewBox="0 0 250 250" fill="none" xmlns="http://www.w3.org/2000/svg">
<mask id="path-1-inside-1_769_632" fill="white">
<path d="M0 48C0 21.4903 21.4903 0 48 0H202C228.51 0 250 21.4903 250 48V202C250 228.51 228.51 250 202 250H48C21.4903 250 0 228.51 0 202V48Z"/>
</mask>
<path d="M0 48C0 21.4903 21.4903 0 48 0H202C228.51 0 250 21.4903 250 48V202C250 228.51 228.51 250 202 250H48C21.4903 250 0 228.51 0 202V48Z" fill="white"/>
<path d="M48 0V2H202V0V-2H48V0ZM250 48H248V202H250H252V48H250ZM202 250V248H48V250V252H202V250ZM0 202H2V48H0H-2V202H0ZM48 250V248C22.5949 248 2 227.405 2 202H0H-2C-2 229.614 20.3858 252 48 252V250ZM250 202H248C248 227.405 227.405 248 202 248V250V252C229.614 252 252 229.614 252 202H250ZM202 0V2C227.405 2 248 22.5949 248 48H250H252C252 20.3858 229.614 -2 202 -2V0ZM48 0V-2C20.3858 -2 -2 20.3858 -2 48H0H2C2 22.5949 22.5949 2 48 2V0Z" fill="#DDDBDB" mask="url(#path-1-inside-1_769_632)"/>
<path d="M146.458 89.0107C175.814 87.9377 185.845 107.619 165.85 129.493C151.04 145.694 127.29 156.616 105.396 157.804C105.243 157.82 105.09 157.831 104.937 157.842C93.2538 158.543 76.2825 154.76 75.2824 140.248C74.7452 132.451 80.6984 122.522 85.8947 117.001C100.929 101.025 124.594 90.1541 146.458 89.0107ZM148.499 104.152C147.93 104.109 145.422 104.161 144.922 104.255C138.94 104.895 134.074 106.695 130.16 111.53C126.924 115.584 125.425 120.756 125.991 125.913C127.468 139.489 145.921 141.63 154.916 134.576C155.813 133.871 157.75 122.667 158.067 120.892L152.406 120.889C152.059 120.905 151.371 120.832 151.183 121.155C148.914 125.059 151.529 131.029 145.524 131.77C128.072 133.927 131.615 111.208 145.977 110.718C149.903 110.584 152.319 111.575 155.25 114.161L155.474 114.36L161.027 109.959C157.32 105.942 154.036 104.57 148.499 104.152ZM112.541 104.705C110.465 104.705 107.206 104.603 105.225 104.727C103.895 105.713 101.264 110.209 100.211 111.838L93.4494 122.143L87.5617 131.075C86.2124 133.123 84.4122 135.685 83.4299 137.891C85.8965 137.887 88.9117 137.952 91.3312 137.819L91.4611 137.68C93.661 135.285 94.5086 131.07 97.2883 130.847C97.5418 130.825 98.4823 130.852 98.7863 130.863C101.926 130.856 108.434 130.673 111.315 130.979L112.992 137.774H120.666C118.106 127.054 114.834 115.341 112.541 104.705ZM107.146 112.66C107.634 113.451 109.686 123.216 110.055 124.787L103.036 124.793L99.7971 124.797C101.162 121.683 105.162 115.734 107.146 112.66Z" fill="#022350"/>
<path d="M164.5 79.3849C170.064 78.9082 176.618 79.6416 182.081 80.7901C197.363 84.003 208.036 95.9826 204.223 112.125C201.162 125.079 193.339 135.028 183.736 143.891C178.207 148.993 172.703 153.605 166.163 157.438C150.183 167.265 131.941 174.211 113.142 175.644C110.515 175.843 105.837 176.127 103.421 175.551L103.42 175.382C103.692 175.151 111.703 172.976 113.034 172.553C116.938 171.286 120.783 169.84 124.556 168.222C136.789 163.006 148.177 155.998 158.347 147.426C169.402 138.002 180.83 124.638 182.348 109.754C184.066 92.9011 168.506 84.3553 153.738 83.9128C149.589 83.7884 144.843 83.8566 140.704 83.5483C142.474 82.9876 144.798 82.5554 146.63 82.1075C152.684 80.6267 158.293 79.7678 164.5 79.3849Z" fill="#022350"/>
<path d="M141.998 74.1251C143.738 74.0924 144.804 74.0879 146.525 74.2665C128.297 79.311 114.403 85.1399 98.7302 96.4781C85.345 106.328 70.8099 120.892 67.7585 137.818C64.6447 155.092 79.7997 165.29 95.2893 165.951C98.5431 166.09 103.552 166.076 106.684 166.57L106.869 166.599C100.285 168.171 95.7075 169.281 88.9675 169.884C87.8977 169.982 86.8254 170.047 85.7517 170.08C74.1387 170.481 61.6823 169.254 52.6314 160.999C48.4232 157.16 45.4373 150.671 45.0213 144.976C44.8565 142.723 45.6838 140.106 46.092 137.909C48.0032 127.626 54.9054 117.557 62.2477 109.962C79.4176 92.2017 104.213 79.3584 128.566 75.271C133.249 74.485 137.307 74.2613 141.998 74.1251Z" fill="#B78816"/>
</svg>
