<svg width="250" height="250" viewBox="0 0 250 250" fill="none" xmlns="http://www.w3.org/2000/svg">
<mask id="path-1-inside-1_769_633" fill="white">
<path d="M0 48C0 21.4903 21.4903 0 48 0H202C228.51 0 250 21.4903 250 48V202C250 228.51 228.51 250 202 250H48C21.4903 250 0 228.51 0 202V48Z"/>
</mask>
<path d="M0 48C0 21.4903 21.4903 0 48 0H202C228.51 0 250 21.4903 250 48V202C250 228.51 228.51 250 202 250H48C21.4903 250 0 228.51 0 202V48Z" fill="white"/>
<path d="M48 0V2H202V0V-2H48V0ZM250 48H248V202H250H252V48H250ZM202 250V248H48V250V252H202V250ZM0 202H2V48H0H-2V202H0ZM48 250V248C22.5949 248 2 227.405 2 202H0H-2C-2 229.614 20.3858 252 48 252V250ZM250 202H248C248 227.405 227.405 248 202 248V250V252C229.614 252 252 229.614 252 202H250ZM202 0V2C227.405 2 248 22.5949 248 48H250H252C252 20.3858 229.614 -2 202 -2V0ZM48 0V-2C20.3858 -2 -2 20.3858 -2 48H0H2C2 22.5949 22.5949 2 48 2V0Z" fill="#DDDBDB" mask="url(#path-1-inside-1_769_633)"/>
<path d="M63.8035 55H186.224C182.671 59.1991 178.882 63.4201 175.255 67.5644L91.4911 163.298C82.2953 173.826 72.8611 184.388 63.7756 195C63.9225 189.934 63.8005 184.122 63.7998 178.981L63.8035 55Z" fill="#E52730"/>
<path d="M130.472 150.697C136.728 150.84 143.471 150.705 149.756 150.706L184.968 150.7L184.965 192.393L99.5617 192.385C98.2067 192.385 95.0484 192.296 93.8526 192.462C96.8228 189.195 99.8539 185.627 102.778 182.289L126.321 155.368C127.478 154.04 129.262 151.865 130.472 150.697Z" fill="#272526"/>
<path d="M184.78 88.3805C184.969 88.5922 184.894 92.9166 184.894 93.4905L184.898 132.236C183.577 132.335 181.674 132.273 180.32 132.272L146.69 132.255L146.591 132.238C146.642 131.823 165.938 109.97 167.992 107.589C173.173 101.581 179.554 94.4818 184.78 88.3805Z" fill="#272526"/>
</svg>
