<svg width="250" height="250" viewBox="0 0 250 250" fill="none" xmlns="http://www.w3.org/2000/svg">
<mask id="path-1-inside-1_769_636" fill="white">
<path d="M0 48C0 21.4903 21.4903 0 48 0H202C228.51 0 250 21.4903 250 48V202C250 228.51 228.51 250 202 250H48C21.4903 250 0 228.51 0 202V48Z"/>
</mask>
<path d="M0 48C0 21.4903 21.4903 0 48 0H202C228.51 0 250 21.4903 250 48V202C250 228.51 228.51 250 202 250H48C21.4903 250 0 228.51 0 202V48Z" fill="white"/>
<path d="M48 0V2H202V0V-2H48V0ZM250 48H248V202H250H252V48H250ZM202 250V248H48V250V252H202V250ZM0 202H2V48H0H-2V202H0ZM48 250V248C22.5949 248 2 227.405 2 202H0H-2C-2 229.614 20.3858 252 48 252V250ZM250 202H248C248 227.405 227.405 248 202 248V250V252C229.614 252 252 229.614 252 202H250ZM202 0V2C227.405 2 248 22.5949 248 48H250H252C252 20.3858 229.614 -2 202 -2V0ZM48 0V-2C20.3858 -2 -2 20.3858 -2 48H0H2C2 22.5949 22.5949 2 48 2V0Z" fill="#DDDBDB" mask="url(#path-1-inside-1_769_636)"/>
<path fill-rule="evenodd" clip-rule="evenodd" d="M160.999 112.916C164.73 112.916 169.543 112.631 173.041 114.163C178.182 116.415 179.928 123.642 177.751 128.508C176.742 130.765 174.932 131.98 172.634 132.801C173.24 132.934 173.848 133.07 174.428 133.287C180.501 135.558 181.545 142.72 179.58 148.146C179.029 149.587 178.185 150.898 177.1 151.995C175.982 153.117 174.603 153.948 173.088 154.412C170.264 155.297 165.668 155.232 162.666 155.235L155.519 155.238L154.159 149.418C153.943 148.497 153.534 146.958 153.433 146.072C153.313 145.028 153.366 143.349 153.367 142.241L153.375 135.527L153.371 112.92L160.999 112.916ZM171.482 137.91C168.939 135.437 163.422 135.985 160.126 135.993L160.119 149.496C163.67 149.498 168.722 149.951 171.457 147.641C173.99 145 174.106 140.463 171.482 137.91ZM171.733 125.048C172.083 118.003 165.18 118.611 160.119 118.661L160.12 130.798C163.273 130.8 167.482 131.067 170.089 129.165C171.411 127.878 171.646 126.812 171.733 125.048Z" fill="#00A959"/>
<path d="M114.147 110.702C114.439 110.988 116.387 115.301 116.698 115.986C120.837 125.101 125.466 134.043 129.127 143.358C130.638 139.213 133.333 133.691 135.236 129.567C138.119 123.319 140.964 116.799 143.922 110.619C144.938 114.694 145.866 118.977 146.818 123.079L154.274 155.155L147.799 155.157L143.246 134.815C142.849 133.156 142.516 130.024 142.318 128.25C141.467 131.674 140.053 134.823 138.815 138.171L132.451 155.369L125.845 155.371C125.002 152.886 123.991 150.26 123.086 147.772L118.231 134.418C117.658 132.855 116.891 131.401 116.353 129.83C116.171 129.298 116 128.759 115.83 128.223C115.754 131.793 114.555 136.364 113.77 139.967L110.458 155.156H104.059L114.147 110.702Z" fill="#00A959"/>
<path d="M91.9249 112.708C97.1466 112.383 101.784 114.016 106.067 116.884C105.889 118.901 105.797 121.482 105.72 123.528C100.368 119.014 92.6119 117.058 86.1272 120.314C82.7992 122.008 80.2803 124.953 79.1244 128.503C77.8118 132.493 77.9985 137.711 79.9429 141.469C84.2672 149.826 93.6524 150.856 101.473 146.895C102.91 146.121 104.058 145.315 105.305 144.278C104.599 146.971 103.981 150.122 103.335 152.873C95.8014 156.889 84.8472 155.788 78.4688 150.068C74.1458 146.261 71.9331 141.274 71.491 135.594C70.7057 125.505 76.8481 116.201 86.7013 113.508C88.5012 113.016 90.0614 112.82 91.9249 112.708Z" fill="#00A959"/>
<path d="M128.223 94.6289C130.04 95.784 135.21 97.5955 137.424 98.3979C145.532 101.263 153.67 104.038 161.839 106.723L169.031 109.139C170.244 109.553 172.342 110.232 173.423 110.804C170.614 110.271 166.895 109.167 164.1 108.391L149.202 104.188C146.077 103.295 142.953 102.384 139.822 101.514C137.957 101.056 136.068 100.705 134.212 100.206C132.352 99.706 130.522 99.108 128.685 98.5234C118.397 101.204 108.205 104.647 98.0307 107.8L89.9687 110.276C88.1873 110.813 86.2067 111.438 84.4031 111.809C85.7561 111.15 87.6079 110.502 89.0438 109.972L96.4133 107.289C104.35 104.459 112.248 101.521 120.105 98.4761C121.811 97.7991 127.042 95.7908 128.223 94.6289Z" fill="#A8D045"/>
<path d="M55.0033 129.484L62.0739 129.483L62.0701 137.612L55 137.613L55.0033 129.484Z" fill="#00A959"/>
<path d="M187.943 129.484L195 129.484V137.612L187.945 137.613L187.943 129.484Z" fill="#00A959"/>
<path d="M137.261 108.786L137.331 108.801L137.318 108.903C135.221 110.707 133.29 112.696 131.55 114.846C127.818 119.39 126.786 121.685 120.985 123.806L120.925 123.791L120.93 123.701C122.164 122.5 123.22 121.472 124.362 120.159C128.56 115.336 131.127 111.361 137.261 108.786Z" fill="#A8D045"/>
<path d="M136.429 103.558L136.546 103.55L136.598 103.618C135.029 104.843 133.799 105.834 132.403 107.303C129.19 110.683 128.246 112.75 123.506 113.838L123.351 113.833L123.379 113.736C128.234 109.993 130.044 105.46 136.429 103.558Z" fill="#A8D045"/>
<path d="M136.801 117.664L136.932 117.67L136.931 117.747C135.326 118.963 133.959 120.107 132.569 121.598C129.407 124.988 128.475 126.878 123.829 127.952L123.71 127.929L123.73 127.841C128.556 124.105 130.536 119.464 136.801 117.664Z" fill="#A8D045"/>
</svg>
