<svg width="250" height="250" viewBox="0 0 250 250" fill="none" xmlns="http://www.w3.org/2000/svg">
<mask id="path-1-inside-1_769_639" fill="white">
<path d="M0 48C0 21.4903 21.4903 0 48 0H202C228.51 0 250 21.4903 250 48V202C250 228.51 228.51 250 202 250H48C21.4903 250 0 228.51 0 202V48Z"/>
</mask>
<path d="M0 48C0 21.4903 21.4903 0 48 0H202C228.51 0 250 21.4903 250 48V202C250 228.51 228.51 250 202 250H48C21.4903 250 0 228.51 0 202V48Z" fill="white"/>
<path d="M48 0V2H202V0V-2H48V0ZM250 48H248V202H250H252V48H250ZM202 250V248H48V250V252H202V250ZM0 202H2V48H0H-2V202H0ZM48 250V248C22.5949 248 2 227.405 2 202H0H-2C-2 229.614 20.3858 252 48 252V250ZM250 202H248C248 227.405 227.405 248 202 248V250V252C229.614 252 252 229.614 252 202H250ZM202 0V2C227.405 2 248 22.5949 248 48H250H252C252 20.3858 229.614 -2 202 -2V0ZM48 0V-2C20.3858 -2 -2 20.3858 -2 48H0H2C2 22.5949 22.5949 2 48 2V0Z" fill="#DDDBDB" mask="url(#path-1-inside-1_769_639)"/>
<path d="M52.1752 131.013C54.0895 131.178 57.2852 131.1 59.2726 131.101L186.042 131.102C189.91 131.104 194.028 131.171 197.876 131.011C197.693 135.151 197.743 139.281 197.746 143.425V160.592L197.729 169.697C197.728 170.902 197.664 173.914 197.885 174.924C189.222 174.779 180.28 174.901 171.597 174.9L108.165 174.941L59.4107 174.897C57.1849 174.894 54.3553 174.814 52.1983 175C52.1236 173.3 52.1441 171.438 52.1551 169.733C52.238 156.838 52.0129 143.905 52.1752 131.013ZM54.2687 172.83C56.4622 172.6 57.3957 172.717 59.5346 172.696L69.5327 172.635L194.576 172.734C194.87 172.777 195.166 172.815 195.461 172.85L195.63 172.716C195.847 167.934 195.706 162.571 195.706 157.738L195.703 132.813L59.3644 132.825C57.7498 132.828 55.7911 132.897 54.2032 132.842C54.4022 140.319 54.2308 148.594 54.231 156.118L54.2137 168.657C54.2093 169.963 54.3145 171.588 54.2687 172.83Z" fill="#EE1F23"/>
<path d="M111.107 139.071C119.393 139.071 122.285 143.513 122.696 145.734L115.525 146.748C115.332 145.807 114.091 143.924 110.673 143.924C106.4 143.924 104.589 146.169 104.589 151.529C104.589 156.888 106.038 159.206 110.673 159.206C114.381 159.206 116.032 158.144 116.395 157.613V154.86H111.107V150.298H123.42V160.075C122.454 161.524 118.553 164.421 110.673 164.421C100.823 164.421 96.6218 159.206 96.6218 151.529C96.6219 143.851 100.75 139.071 111.107 139.071Z" fill="#2C3091"/>
<path fill-rule="evenodd" clip-rule="evenodd" d="M181.766 139.737C184.875 139.737 187.396 142.258 187.396 145.367C187.396 148.182 185.317 150.565 182.528 150.946L182.41 150.962V150.978C185.267 151.369 187.396 153.809 187.396 156.692V157.418C187.396 161.062 184.442 164.016 180.798 164.016H163.334V139.737H181.766ZM171.557 158.418H177.002C178.182 158.418 179.139 157.462 179.139 156.281C179.139 155.102 178.182 154.145 177.002 154.145H171.557V158.418ZM171.557 148.815H176.543C177.647 148.815 178.541 147.919 178.541 146.815C178.541 145.712 177.647 144.817 176.543 144.817H171.557V148.815Z" fill="#2C3091"/>
<path d="M142.254 153.359H143.564L147.268 139.534H157.299V163.79H151.155V145.235H150.399L145.427 163.79H140.213L135.241 145.235H134.442V163.79H128.182V139.534H138.55L142.254 153.359Z" fill="#2C3091"/>
<path d="M92.4829 144.139H80.1814V149.606H90.6127V153.707H80.1814V163.779H72.6994V139.391H92.4829V144.139Z" fill="#2C3091"/>
<path d="M124.11 75C124.185 75.0199 124.242 75.0368 124.316 75.0628L124.422 75.1008C125.583 75.5114 128.671 78.1658 129.932 79.0639C135.956 83.3547 142.042 87.7357 147.943 92.1941C149.4 93.2946 150.426 93.7972 151.833 95.0795C151.551 90.8156 152.154 85.6285 151.804 81.1705C155.626 81.241 159.448 81.2679 163.271 81.2513C164.79 81.2527 168.047 81.339 169.373 81.1349C169.17 85.8488 169.253 91.0711 169.16 95.8472L169.043 102.638C169.023 104.058 168.948 105.915 169.13 107.281C169.745 107.875 170.619 108.327 171.303 108.854C174.689 111.289 178.074 113.703 181.455 116.145C185.142 118.809 189.127 121.159 192.547 124.207C193.279 124.859 194.908 125.428 195.432 126.228L195.383 126.386C193.747 126.594 190.473 126.527 188.717 126.526L65.117 126.522C63.6764 126.523 54.4195 126.651 53.7232 126.31L53.6552 126.083C54.5651 125.273 56.8947 123.887 58.1118 122.948C63.316 118.932 68.8474 115.081 74.2052 111.253C75.8892 110.05 77.5108 108.726 79.181 107.506C80.2434 106.73 81.441 106.056 82.5061 105.273L101.082 91.7558C103.561 89.9288 105.641 88.2082 108.259 86.4786C111.564 84.2953 114.676 81.4542 118.084 79.3974C120.046 78.2136 122.121 75.9334 124.11 75Z" fill="#EE1F23"/>
</svg>
