<svg width="250" height="250" viewBox="0 0 250 250" fill="none" xmlns="http://www.w3.org/2000/svg">
<mask id="path-1-inside-1_769_640" fill="white">
<path d="M0 48C0 21.4903 21.4903 0 48 0H202C228.51 0 250 21.4903 250 48V202C250 228.51 228.51 250 202 250H48C21.4903 250 0 228.51 0 202V48Z"/>
</mask>
<path d="M0 48C0 21.4903 21.4903 0 48 0H202C228.51 0 250 21.4903 250 48V202C250 228.51 228.51 250 202 250H48C21.4903 250 0 228.51 0 202V48Z" fill="white"/>
<path d="M48 0V2H202V0V-2H48V0ZM250 48H248V202H250H252V48H250ZM202 250V248H48V250V252H202V250ZM0 202H2V48H0H-2V202H0ZM48 250V248C22.5949 248 2 227.405 2 202H0H-2C-2 229.614 20.3858 252 48 252V250ZM250 202H248C248 227.405 227.405 248 202 248V250V252C229.614 252 252 229.614 252 202H250ZM202 0V2C227.405 2 248 22.5949 248 48H250H252C252 20.3858 229.614 -2 202 -2V0ZM48 0V-2C20.3858 -2 -2 20.3858 -2 48H0H2C2 22.5949 22.5949 2 48 2V0Z" fill="#DDDBDB" mask="url(#path-1-inside-1_769_640)"/>
<path d="M91.1417 82.6188C91.3093 89.4469 91.196 96.284 91.2187 103.117C91.2413 110.108 91.2187 117.097 91.2187 124.09V145.152C95.4944 145.399 99.6117 145.313 104.127 145.152V125.632C104.127 122.448 104.318 122.253 107.341 122.251H133.557C137.321 122.251 137.328 122.251 137.328 125.936V179.36H147.381C147.028 180.037 146.619 180.683 146.158 181.292C143.144 184.329 140.2 187.422 137.079 190.332C133.679 193.524 129.165 195.256 124.503 195.158C119.842 195.059 115.404 193.139 112.142 189.807C101.187 178.936 90.2668 168.029 79.3811 157.084C73.2664 150.97 67.3261 144.694 61.0212 138.795C59.1138 137.036 57.5935 134.899 56.5569 132.521C55.5203 130.142 54.9901 127.574 55.0001 124.979C55.0102 122.385 55.5601 119.821 56.615 117.45C57.67 115.08 59.2068 112.955 61.1276 111.211C70.2974 102.544 79.0187 93.4214 87.9598 84.5076C88.7366 83.7308 89.5904 83.0333 90.4102 82.3018L91.1417 82.6188Z" fill="#54575C"/>
<path d="M168.243 122.023H169.348C169.378 123.13 169.781 123.697 170.97 123.155C171.823 122.802 172.533 122.172 172.985 121.366C173.437 120.561 173.604 119.627 173.461 118.714C173.354 117.335 173.393 115.945 173.271 114.568C173.255 114.373 172.677 114.232 172.365 114.062C172.4 113.236 172.347 112.408 172.209 111.592C171.938 110.982 171.575 110.418 171.133 109.918C170.496 108.514 169.729 107.758 168.118 108.86C167.378 109.257 166.542 109.439 165.704 109.386C146.53 109.415 127.355 109.415 108.181 109.386C107.463 109.349 106.748 109.273 106.039 109.159C105.12 104.944 104.986 100.594 105.644 96.3299C105.714 96.0966 105.731 95.8507 105.695 95.6099C105.658 95.3692 105.568 95.1395 105.432 94.9375C105.296 94.7355 105.117 94.5661 104.908 94.4415C104.699 94.3169 104.465 94.2402 104.222 94.2169L104.243 93.0688C105.461 92.175 106.96 91.7476 108.466 91.864C118.064 91.9364 127.664 91.9138 137.264 91.864C138.271 91.7725 139.268 91.5897 140.242 91.3181C140.49 90.1075 140.666 88.8832 140.768 87.6516C140.847 84.866 140.79 82.0759 140.79 78.8193H94.2734C94.7031 78.0704 95.1876 77.3543 95.7228 76.6769C101.129 71.2416 106.593 65.8448 111.963 60.3711C113.574 58.678 115.504 57.3195 117.642 56.3736C119.779 55.4277 122.082 54.9129 124.419 54.8587C126.708 54.7469 128.995 55.1079 131.138 55.9191C133.281 56.7304 135.234 57.9745 136.875 59.5738C142.491 65.0771 148.072 70.615 153.618 76.1877C160.489 83.0437 167.349 89.9133 174.199 96.7964C179.48 102.085 184.859 107.277 190.018 112.679C193.253 116.038 195.041 120.532 194.999 125.196C194.957 129.859 193.087 134.32 189.792 137.62C177.961 149.547 166.082 161.424 154.154 173.25C154.003 173.368 153.838 173.466 153.663 173.543C151.593 173.017 151.872 171.337 151.872 169.828V127.911C151.872 126.498 151.704 125.089 151.593 123.348H154.922C158.901 123.348 162.876 123.348 166.853 123.389C167.89 123.434 168.243 122.956 168.243 122.023Z" fill="#386884"/>
<path d="M168.246 122.029C168.246 122.953 167.895 123.433 166.86 123.42C162.881 123.372 158.906 123.386 154.929 123.379H151.596C151.707 125.121 151.87 126.529 151.874 127.942C151.892 141.911 151.892 155.88 151.874 169.851C151.874 171.357 151.596 173.039 153.666 173.565L150.986 176.391L150.391 176.165C150.314 175.159 150.164 174.126 150.164 173.121C150.164 156.933 150.148 140.748 150.117 124.566C150.117 122.922 150.452 121.848 152.243 121.859C157.604 121.882 162.924 121.966 168.246 122.029Z" fill="#4C6D79"/>
<path d="M104.207 94.251C104.449 94.2742 104.684 94.3509 104.893 94.4755C105.102 94.6001 105.281 94.7695 105.417 94.9715C105.553 95.1736 105.643 95.4032 105.679 95.644C105.716 95.8847 105.699 96.1306 105.629 96.364C104.971 100.628 105.104 104.978 106.023 109.193C106.733 109.307 107.448 109.382 108.166 109.42C127.34 109.43 146.514 109.43 165.689 109.42C166.527 109.473 167.363 109.291 168.103 108.895C169.72 107.794 170.49 108.559 171.117 109.952C163.556 109.982 155.991 110.036 148.427 110.038C134.752 110.038 121.076 110.033 107.4 110.022C104.211 110.022 104.082 109.905 104.089 106.782C104.1 102.59 104.168 98.4203 104.207 94.251Z" fill="#486673"/>
<path d="M140.227 91.3522C139.253 91.6236 138.256 91.8063 137.249 91.898C127.651 91.941 118.051 91.9614 108.451 91.898C106.944 91.7816 105.446 92.209 104.227 93.1028C104.523 92.4899 104.924 91.9335 105.411 91.4587C105.819 91.1801 106.544 91.3386 107.117 91.3409C118.153 91.3484 129.19 91.3522 140.227 91.3522Z" fill="#486673"/>
<path d="M172.356 114.078C172.673 114.246 173.25 114.388 173.262 114.583C173.386 115.96 173.346 117.353 173.452 118.73C173.595 119.642 173.428 120.576 172.976 121.382C172.524 122.188 171.814 122.818 170.961 123.171C169.772 123.73 169.376 123.171 169.339 122.039L172.089 121.477C172.186 119.004 172.272 116.542 172.356 114.078Z" fill="#4C6D79"/>
</svg>
