<svg width="250" height="250" viewBox="0 0 250 250" fill="none" xmlns="http://www.w3.org/2000/svg">
<mask id="path-1-inside-1_769_641" fill="white">
<path d="M0 48C0 21.4903 21.4903 0 48 0H202C228.51 0 250 21.4903 250 48V202C250 228.51 228.51 250 202 250H48C21.4903 250 0 228.51 0 202V48Z"/>
</mask>
<path d="M0 48C0 21.4903 21.4903 0 48 0H202C228.51 0 250 21.4903 250 48V202C250 228.51 228.51 250 202 250H48C21.4903 250 0 228.51 0 202V48Z" fill="white"/>
<path d="M48 0V2H202V0V-2H48V0ZM250 48H248V202H250H252V48H250ZM202 250V248H48V250V252H202V250ZM0 202H2V48H0H-2V202H0ZM48 250V248C22.5949 248 2 227.405 2 202H0H-2C-2 229.614 20.3858 252 48 252V250ZM250 202H248C248 227.405 227.405 248 202 248V250V252C229.614 252 252 229.614 252 202H250ZM202 0V2C227.405 2 248 22.5949 248 48H250H252C252 20.3858 229.614 -2 202 -2V0ZM48 0V-2C20.3858 -2 -2 20.3858 -2 48H0H2C2 22.5949 22.5949 2 48 2V0Z" fill="#DDDBDB" mask="url(#path-1-inside-1_769_641)"/>
<path d="M123.983 75L44.0947 103.239H123.983V75Z" fill="#85C325"/>
<path d="M126.017 75L205.905 103.239H126.017V75Z" fill="#85C325"/>
<rect x="57.4077" y="105.747" width="8.62906" height="5.00699" fill="#E77A16"/>
<rect x="57.4077" y="117.497" width="8.62906" height="5.00699" fill="#E77A16"/>
<rect x="57.4077" y="111.709" width="21.0224" height="4.57915" fill="#E77A16"/>
<rect x="57.4077" y="123.204" width="21.0224" height="5.01612" fill="#E77A16"/>
<rect x="55.7847" y="128.817" width="138.673" height="24.3623" fill="#84C126"/>
<rect width="137.757" height="6.34349" transform="matrix(1 0 0 -1 56.2202 175)" fill="#E77A16"/>
<rect x="80.4795" y="111.709" width="21.0224" height="4.57915" fill="#E77A16"/>
<rect x="81.0786" y="123.204" width="20.93" height="5.01612" fill="#E77A16"/>
<rect x="103.551" y="111.709" width="21.0224" height="4.57915" fill="#E77A16"/>
<rect x="104.292" y="123.204" width="20.877" height="5.01612" fill="#E77A16"/>
<rect x="126.623" y="111.709" width="21.6912" height="4.57915" fill="#E77A16"/>
<rect x="127.545" y="123.204" width="20.7683" height="5.01612" fill="#E77A16"/>
<rect x="149.96" y="111.709" width="21.6912" height="4.57915" fill="#E77A16"/>
<rect x="150.538" y="123.204" width="21.1141" height="5.01612" fill="#E77A16"/>
<rect x="173.701" y="111.709" width="20.7573" height="4.57915" fill="#E77A16"/>
<rect x="173.701" y="123.204" width="20.7573" height="5.01612" fill="#E77A16"/>
<rect x="68.1958" y="105.747" width="20.9232" height="5.00699" fill="#E77A16"/>
<rect x="68.1958" y="117.497" width="21.3614" height="5.00699" fill="#E77A16"/>
<rect x="90.7373" y="105.747" width="21.5285" height="5.00699" fill="#E77A16"/>
<rect x="91.4897" y="117.497" width="20.7762" height="5.00699" fill="#E77A16"/>
<rect x="113.219" y="105.747" width="21.5285" height="5.00699" fill="#E77A16"/>
<rect x="113.959" y="117.497" width="20.7879" height="5.00699" fill="#E77A16"/>
<rect x="136.951" y="105.747" width="20.9427" height="5.00699" fill="#E77A16"/>
<rect x="137.648" y="117.497" width="20.7975" height="5.00699" fill="#E77A16"/>
<rect x="160.292" y="105.747" width="20.7491" height="5.00699" fill="#E77A16"/>
<rect x="160.292" y="117.497" width="21.223" height="5.00699" fill="#E77A16"/>
<rect x="185.475" y="105.747" width="8.98295" height="5.00699" fill="#E77A16"/>
<rect x="185.475" y="117.497" width="8.98295" height="5.00699" fill="#E77A16"/>
</svg>
