<svg width="250" height="250" viewBox="0 0 250 250" fill="none" xmlns="http://www.w3.org/2000/svg">
<rect width="250" height="250" fill="white"/>
<path d="M123.982 75.0002L44.0938 103.239H123.982V75.0002Z" fill="#85C325"/>
<path d="M126.016 75.0002L205.904 103.239H126.016V75.0002Z" fill="#85C325"/>
<rect x="57.4062" y="105.747" width="8.62906" height="5.00699" fill="#E77A16"/>
<rect x="57.4062" y="117.497" width="8.62906" height="5.00699" fill="#E77A16"/>
<rect x="57.4062" y="111.709" width="21.0224" height="4.57915" fill="#E77A16"/>
<rect x="57.4062" y="123.205" width="21.0224" height="5.01612" fill="#E77A16"/>
<rect x="55.7832" y="128.818" width="138.673" height="24.3623" fill="#84C126"/>
<rect width="137.757" height="6.34349" transform="matrix(1 0 0 -1 56.2188 175)" fill="#E77A16"/>
<rect x="80.4785" y="111.709" width="21.0224" height="4.57915" fill="#E77A16"/>
<rect x="81.0781" y="123.205" width="20.93" height="5.01612" fill="#E77A16"/>
<rect x="103.551" y="111.709" width="21.0224" height="4.57915" fill="#E77A16"/>
<rect x="104.291" y="123.205" width="20.877" height="5.01612" fill="#E77A16"/>
<rect x="126.621" y="111.709" width="21.6912" height="4.57915" fill="#E77A16"/>
<rect x="127.545" y="123.205" width="20.7683" height="5.01612" fill="#E77A16"/>
<rect x="149.959" y="111.709" width="21.6912" height="4.57915" fill="#E77A16"/>
<rect x="150.537" y="123.205" width="21.1141" height="5.01612" fill="#E77A16"/>
<rect x="173.699" y="111.709" width="20.7573" height="4.57915" fill="#E77A16"/>
<rect x="173.699" y="123.205" width="20.7573" height="5.01612" fill="#E77A16"/>
<rect x="68.1953" y="105.747" width="20.9232" height="5.00699" fill="#E77A16"/>
<rect x="68.1953" y="117.497" width="21.3614" height="5.00699" fill="#E77A16"/>
<rect x="90.7363" y="105.747" width="21.5285" height="5.00699" fill="#E77A16"/>
<rect x="91.4883" y="117.497" width="20.7762" height="5.00699" fill="#E77A16"/>
<rect x="113.217" y="105.747" width="21.5285" height="5.00699" fill="#E77A16"/>
<rect x="113.959" y="117.497" width="20.7879" height="5.00699" fill="#E77A16"/>
<rect x="136.951" y="105.747" width="20.9427" height="5.00699" fill="#E77A16"/>
<rect x="137.646" y="117.497" width="20.7975" height="5.00699" fill="#E77A16"/>
<rect x="160.291" y="105.747" width="20.7491" height="5.00699" fill="#E77A16"/>
<rect x="160.291" y="117.497" width="21.223" height="5.00699" fill="#E77A16"/>
<rect x="185.475" y="105.747" width="8.98295" height="5.00699" fill="#E77A16"/>
<rect x="185.475" y="117.497" width="8.98295" height="5.00699" fill="#E77A16"/>
</svg>
