<svg width="250" height="250" viewBox="0 0 250 250" fill="none" xmlns="http://www.w3.org/2000/svg">
<rect width="250" height="250" fill="white"/>
<path d="M124.001 170.546V87.1432L102.274 101.347V169.518C102.274 172.219 101.748 173.653 100.218 173.271C98.9945 172.965 98.6853 166.05 98.6836 162.631H74.5113C73.9019 172.991 77.6018 184.153 81.9791 188.125C86.3563 192.097 105.567 193.896 114.972 189.2C121.283 186.049 123.991 175.089 124.001 170.546Z" fill="#036426"/>
<path d="M74.5061 159.76H98.8015V101.354L124.863 81.6746L151.029 101.354V168.169H175.31V86.9792L125.084 52L74.5061 86.9792V159.76Z" fill="#BD9648"/>
<path d="M126.122 189.267V87.4302L148.036 101.597V171.345L175.557 171.298V189.267H126.122Z" fill="#036426"/>
</svg>
