<svg width="250" height="250" viewBox="0 0 250 250" fill="none" xmlns="http://www.w3.org/2000/svg">
<mask id="path-1-inside-1_769_651" fill="white">
<path d="M0 48C0 21.4903 21.4903 0 48 0H202C228.51 0 250 21.4903 250 48V202C250 228.51 228.51 250 202 250H48C21.4903 250 0 228.51 0 202V48Z"/>
</mask>
<path d="M0 48C0 21.4903 21.4903 0 48 0H202C228.51 0 250 21.4903 250 48V202C250 228.51 228.51 250 202 250H48C21.4903 250 0 228.51 0 202V48Z" fill="white"/>
<path d="M48 0V2H202V0V-2H48V0ZM250 48H248V202H250H252V48H250ZM202 250V248H48V250V252H202V250ZM0 202H2V48H0H-2V202H0ZM48 250V248C22.5949 248 2 227.405 2 202H0H-2C-2 229.614 20.3858 252 48 252V250ZM250 202H248C248 227.405 227.405 248 202 248V250V252C229.614 252 252 229.614 252 202H250ZM202 0V2C227.405 2 248 22.5949 248 48H250H252C252 20.3858 229.614 -2 202 -2V0ZM48 0V-2C20.3858 -2 -2 20.3858 -2 48H0H2C2 22.5949 22.5949 2 48 2V0Z" fill="#DDDBDB" mask="url(#path-1-inside-1_769_651)"/>
<path d="M127.715 40.9014C128.592 40.9495 189.884 90.8778 197 96.2548L196.981 158.449C196.976 168.454 196.775 178.975 196.958 188.918L162.17 188.887C154.634 188.888 146.321 188.724 138.846 188.966C137.937 186.844 136.694 185.2 135.87 182.875C141.119 183.077 147.124 182.946 152.417 182.953L187.309 183.021C187.117 177.93 187.296 171.563 187.296 166.398V133.496C187.298 121.318 187.172 108.899 187.346 96.7474C185.405 95.481 181.467 92.1402 179.551 90.605L162.422 76.6046C158.16 73.0584 153.534 69.4901 149.188 66.0034L127.845 48.8943L66.364 96.0861C64.3919 96.3134 59.5193 96.2096 57.404 96.2222C58.8915 94.8459 61.2168 93.2165 62.8606 91.8345C68.7472 86.885 74.9256 82.1852 80.9929 77.4433L127.715 40.9014Z" fill="#F68835"/>
<path d="M95.4143 124.309C96.4268 125.213 102.692 137.029 103.701 138.924C112.62 155.684 122.318 172.187 131.109 188.997C130.095 188.935 128.903 188.921 127.885 188.95C121.626 189.126 115.154 188.775 108.916 189.099C107.268 186.756 103.896 182.893 101.988 180.581L89.3429 165.207L86.4596 161.718C85.3996 163.018 83.019 165.383 81.7753 166.693L72.3377 176.619C70.3674 178.692 68.2855 180.793 66.3921 182.925C64.5 185.056 62.9029 187.029 60.8372 189.029L57.0813 189.026C65.7211 173.897 74.5441 158.872 83.5483 143.957L90.9977 131.377C92.0668 129.571 94.1534 125.828 95.4143 124.309Z" fill="#0B7C4A"/>
<path d="M57.0666 102.881C60.7236 102.95 64.5044 102.916 68.1714 102.927C68.1657 114.631 68.3801 127.241 68.0185 138.855L91.0772 102.952C96.1962 102.925 101.987 103.101 107.037 102.919C106.124 104.8 103.411 108.756 102.175 110.67L90.9531 127.676L66.1893 166.033C64.1182 169.24 59.6009 177.563 57 180.056C57.2337 175.918 57.1503 171.615 57.1463 167.455L57.1334 148.889C57.1274 133.702 57.3446 118.029 57.0666 102.881Z" fill="#F68835"/>
<path d="M126.454 102.974C128.851 103.073 131.839 102.986 134.309 102.985L149.499 102.978L149.507 124.03C141.9 124.132 134.05 124.04 126.425 124.041C126.422 117.045 126.363 109.963 126.454 102.974Z" fill="#0B7C4A"/>
<path d="M126.407 137.619C133.898 137.768 141.972 137.628 149.491 137.612L149.482 158.723C141.809 158.657 134.134 158.643 126.46 158.681C126.232 152.091 126.432 144.298 126.407 137.619Z" fill="#0B7C4A"/>
<path d="M157.644 102.966C159.671 103.113 163.056 102.997 165.249 102.998L180.305 102.998L180.264 123.859C179.812 124.199 159.836 124.04 157.616 124.038C157.666 117.022 157.553 109.976 157.644 102.966Z" fill="#0B7C4A"/>
<path d="M157.644 137.605C159.973 137.707 162.88 137.631 165.242 137.633L180.305 137.615C180.325 144.648 180.307 151.68 180.25 158.712C172.879 158.536 165.047 158.668 157.644 158.68C157.519 151.828 157.593 144.474 157.644 137.605Z" fill="#0B7C4A"/>
</svg>
