<svg width="250" height="250" viewBox="0 0 250 250" fill="none" xmlns="http://www.w3.org/2000/svg">
<rect width="250" height="250" fill="white"/>
<path d="M119.369 169.841C120.748 169.823 125.373 169.291 123.686 172.048C122.678 172.617 120.587 172.435 119.365 172.415L119.369 169.841Z" fill="#56BA52"/>
<path d="M119.357 163.358C120.633 163.368 124.675 162.844 123.138 165.305C122.356 165.704 120.342 165.575 119.362 165.565C119.343 164.845 119.357 164.082 119.357 163.358Z" fill="#56BA52"/>
<path fill-rule="evenodd" clip-rule="evenodd" d="M148.173 92.1025C154.166 91.4818 157.101 94.4429 161.563 97.6562L191.359 119.043C194.087 120.999 197.46 123.137 200 125.197C199.942 129.941 199.744 133.76 198.891 138.496C195.412 157.6 184.452 174.527 168.444 185.519C151.57 197.149 130.741 201.534 110.61 197.698C106.913 197.057 102.6 195.803 99.0387 194.531C80.8952 188.055 65.2296 174.258 56.9967 156.782L138.935 96.3766C142.314 93.8883 143.706 92.6214 148.095 92.1114L148.173 92.1025ZM124.064 158.563C122.054 158.193 116.477 158.346 114.365 158.436C113.994 158.565 113.575 158.689 113.39 159.072C113.196 159.476 113.546 161.831 113.565 162.451C113.637 164.802 113.257 174.523 113.825 175.911C114.119 176.63 114.674 177.15 115.401 177.428C116.573 177.873 122.69 177.758 124.066 177.572C124.84 177.467 125.587 177.263 126.291 176.921C126.892 176.632 127.409 176.24 127.909 175.805C130.339 173.255 130.68 169.802 127.959 167.326C129.794 164.722 129.256 161.407 126.621 159.596C125.851 159.076 124.98 158.723 124.064 158.563ZM158.046 161.217C155.984 159.032 153.264 158.018 150.234 158.447C147.411 158.866 145.073 160.023 143.332 162.356C141.809 164.382 141.163 166.933 141.54 169.439C141.93 171.992 143.334 174.28 145.434 175.784C149.387 178.627 155.748 178.396 158.695 174.252C159.552 173.047 159.416 171.928 158.628 170.756L158.536 170.671C156.016 168.368 154.452 171.217 152.389 171.814C146.896 173.404 145.173 164.829 151.057 164.104C153.058 163.858 154.148 165.939 155.975 166.205C158.674 166.327 160.062 163.353 158.046 161.217ZM138.502 160.787C138.389 158.387 135.15 158.371 133.487 158.439C132.233 158.955 132.409 159.111 132.542 160.444C133.061 165.625 132.253 171.019 132.995 176.144C133.009 176.242 133.31 176.549 133.374 176.636C134.41 177.808 135.898 177.91 137.216 177.245C138.958 175.857 138.579 174.439 138.576 172.392C138.57 168.528 138.634 164.646 138.502 160.787ZM102.77 164.592C102.781 160.353 103.463 157.911 98.0557 158.111C97.9748 158.114 97.894 158.117 97.8134 158.123C96.5122 158.483 96.6208 158.785 96.7294 160.045C97.1395 164.805 96.5861 170.696 97.0233 175.349C97.3092 178.393 103.608 177.051 105.504 177.355C106.376 177.493 108.576 177.37 109.321 177.026C110.755 175.927 111.193 174.305 110.129 172.803C108.896 171.065 104.669 171.622 102.769 171.643L102.77 164.592ZM164.218 132.799L158.87 132.822C158.201 132.899 157.665 133.024 157.214 133.574C157.048 133.775 156.967 133.99 156.93 134.246C156.726 135.638 156.702 141.198 156.903 142.6C156.97 143.075 157.13 143.834 157.507 144.151C158.333 144.847 165.303 144.531 166.82 144.542C167.933 144.484 168.233 144.287 168.84 143.306C168.871 141.337 168.885 139.366 168.883 137.396C168.904 132.806 168.94 132.778 164.218 132.799ZM152.695 132.892C150.094 132.721 147.389 132.812 144.771 132.825L143.386 132.899C142.967 133.166 142.305 133.569 142.261 134.121C142.03 136.989 142.145 139.968 142.197 142.848C142.214 143.787 142.949 144.437 143.85 144.491C146.482 144.597 149.147 144.542 151.786 144.534C152.651 144.533 153.873 144.404 154.044 143.305C154.383 141.135 154.132 138.803 154.205 136.6C154.244 135.445 154.374 133.003 152.695 132.892ZM166.148 117.827C163.698 117.876 161.208 117.81 158.754 117.863C158.111 117.953 157.562 118.127 157.163 118.682C157.01 118.895 156.949 119.132 156.919 119.389C156.773 120.665 156.715 126.856 156.924 128.053C156.999 128.487 157.334 128.964 157.707 129.197C158.587 129.747 165.845 129.504 167.183 129.471C168.106 129.343 168.369 129.043 168.852 128.255L168.884 122.353C168.896 120.01 169.413 117.762 166.148 117.827ZM152.997 117.945C150.67 117.731 146.801 117.854 144.406 117.871C142.399 117.947 142.129 118.795 142.15 120.577C142.179 122.995 142.073 125.437 142.203 127.852C142.308 129.91 145.224 129.505 146.612 129.501L152.052 129.486C152.866 129.466 154.053 129.124 154.095 128.135C154.211 125.466 154.339 122.369 154.161 119.711C154.143 119.469 154.123 119.227 154.1 118.986C153.695 118.445 153.598 118.322 152.997 117.945Z" fill="#56BA52"/>
<path d="M121.806 53.0162C137.977 52.3255 153.95 56.7878 167.422 65.7596C179.776 74.0124 189.358 85.7929 194.922 99.5674C195.79 101.742 197.038 105.135 197.505 107.406C194.604 105.338 191.617 103.056 188.727 100.934L160.428 80.0421C158.698 78.7536 156.804 77.2403 154.967 76.112C151.791 74.2615 147.646 74.0948 144.213 75.2258C141.832 76.0101 139.796 77.82 137.824 79.3143L106.393 103.201C105.731 103.632 104.846 104.393 104.187 104.906L100.123 108.015L88.0801 117.127C85.6483 118.961 82.8997 121.114 80.4041 122.792C80.3173 121.031 80.387 119.269 80.3693 117.517C80.3529 115.904 80.5378 113.819 79.3743 112.553C77.7179 110.752 74.8917 111.233 72.658 111.215C70.6275 111.199 67.9005 110.836 66.3285 112.397C65.8005 112.914 65.3659 113.725 65.2953 114.446C65.0774 116.671 65.164 118.988 65.1656 121.232L65.152 134.313C61.3405 137.473 56.3363 140.894 52.3031 143.967C51.117 139.98 50.3592 134.297 50.1191 130.209C49.0158 111.071 55.6116 92.2856 68.4375 78.0373C79.1686 66.0917 93.428 57.8771 109.145 54.5863C113.629 53.6483 117.294 53.2708 121.806 53.0162Z" fill="#FED525"/>
</svg>
