<svg width="250" height="250" viewBox="0 0 250 250" fill="none" xmlns="http://www.w3.org/2000/svg">
<mask id="path-1-inside-1_769_653" fill="white">
<path d="M0 48C0 21.4903 21.4903 0 48 0H202C228.51 0 250 21.4903 250 48V202C250 228.51 228.51 250 202 250H48C21.4903 250 0 228.51 0 202V48Z"/>
</mask>
<path d="M0 48C0 21.4903 21.4903 0 48 0H202C228.51 0 250 21.4903 250 48V202C250 228.51 228.51 250 202 250H48C21.4903 250 0 228.51 0 202V48Z" fill="white"/>
<path d="M48 0V2H202V0V-2H48V0ZM250 48H248V202H250H252V48H250ZM202 250V248H48V250V252H202V250ZM0 202H2V48H0H-2V202H0ZM48 250V248C22.5949 248 2 227.405 2 202H0H-2C-2 229.614 20.3858 252 48 252V250ZM250 202H248C248 227.405 227.405 248 202 248V250V252C229.614 252 252 229.614 252 202H250ZM202 0V2C227.405 2 248 22.5949 248 48H250H252C252 20.3858 229.614 -2 202 -2V0ZM48 0V-2C20.3858 -2 -2 20.3858 -2 48H0H2C2 22.5949 22.5949 2 48 2V0Z" fill="#DDDBDB" mask="url(#path-1-inside-1_769_653)"/>
<path fill-rule="evenodd" clip-rule="evenodd" d="M107.286 60.0795C112.39 59.6652 116.865 60.8859 121.422 63.3696C144.16 75.7562 165.987 96.5651 180.433 118.03C183.442 122.818 186.933 128.151 188.464 133.625C189.859 138.619 191.257 145.021 185.014 146.904C159.015 149.724 88.5938 75.816 105.157 60.5466L107.286 60.0795ZM172.036 123.681C183.9 119.13 143.11 74.2812 127.635 75.6784C126.769 76.0983 126.096 76.4619 125.756 77.4276C124.897 79.866 126.311 83.1745 127.417 85.3701C133.728 97.8979 154.055 118.801 167.577 123.202C169.125 123.707 170.413 123.894 172.036 123.681Z" fill="#014CFB"/>
<path d="M159.311 146.281C163.868 151.421 171.465 166.9 168.638 173.726C165.714 180.789 153.352 176.023 148.725 173.771C141.443 170.191 134.547 165.872 128.147 160.884C110.111 146.976 81.2704 117.169 73.9167 95.7103C72.7049 92.1739 71.4569 87.617 73.2162 84.092C73.941 82.6402 74.9828 81.5292 76.554 81.0264C83.1813 78.9099 93.7417 84.655 99.591 87.6114C99.5354 88.2949 99.4919 88.5322 99.6542 89.2195C98.1273 88.7901 96.6446 88.3627 95.0367 88.5209C93.6534 88.6583 92.3317 89.2496 91.4587 90.3587C90.3427 91.7747 90.2161 93.6521 90.4395 95.3751C92.4807 111.132 118.244 137.466 130.61 146.889C136.764 151.578 148.96 160.573 156.947 159.402C158.269 159.208 159.5 158.658 160.301 157.551C162.702 154.235 159.862 149.787 159.311 146.281Z" fill="#01DCFC"/>
<path d="M64.008 102.824C64.5731 106.477 64.8588 110.629 65.6035 114.162C68.1906 126.432 73.6971 137.419 81.2066 147.362C91.2561 160.771 103.579 171.348 118.662 178.676C127.643 183.041 133.546 184.408 143.285 185.805C143.495 186.417 143.365 186.625 143.147 187.216C132.55 191.487 116.692 190.396 105.948 186.962C89.1132 181.653 75.1182 169.802 67.1099 154.071C60.4512 141.087 58.9279 125.677 61.571 111.373C62.0717 108.662 63.1542 105.481 64.008 102.824Z" fill="#014CFB"/>
<path d="M149.549 62.3167C162.793 60.4714 195.239 96.1226 187.335 101.824C177.128 105.112 141.54 69.5814 149.549 62.3167Z" fill="#014CFB"/>
<path d="M99.591 87.6114C101.136 88.4418 103.285 89.5396 104.619 90.6656C102.878 90.2231 101.338 89.6808 99.6542 89.2195C99.4919 88.5322 99.5354 88.2949 99.591 87.6114Z" fill="#55CCF5"/>
</svg>
