<svg width="250" height="250" viewBox="0 0 250 250" fill="none" xmlns="http://www.w3.org/2000/svg">
<path d="M0 48C0 21.4903 21.4903 0 48 0H202C228.51 0 250 21.4903 250 48V202C250 228.51 228.51 250 202 250H48C21.4903 250 0 228.51 0 202V48Z" fill="#001C80"/>
<path d="M124.415 73.3623C124.431 73.3651 124.447 73.3675 124.463 73.3707C124.49 73.376 124.516 73.3827 124.543 73.3879C125.684 73.6168 130.739 76.6577 132.183 77.4526L178.753 102.675C184.2 105.668 189.698 108.397 195 111.682C193.05 112.015 189.14 111.952 187.033 111.956L173.326 111.932L125.228 111.95L79.8353 111.694L64.2387 111.7C62.2139 111.701 57.0669 111.756 55.115 111.516L55 111.366C55.3363 110.63 69.1989 103.315 70.9384 102.372L116.895 77.4986C119.239 76.234 122.127 74.4827 124.415 73.3623Z" fill="#FFFE00"/>
<path d="M70.6511 160.998C71.08 160.956 73.2818 161.05 73.8332 161.058C76.1174 161.087 78.4017 161.101 80.6861 161.098L148.551 161.038C162.503 161.019 176.472 161.121 190.427 161.034C190.833 161.031 191.425 161.058 191.798 161.192C192.075 161.559 192.274 162.306 192.218 162.728C191.992 164.421 192.535 175.768 191.907 176.425C191.221 176.733 188.652 176.568 187.725 176.567L70.8104 176.569C66.6896 176.569 61.2636 176.736 57.2366 176.552C57.0538 174.557 57.1904 170.887 57.1607 168.829C57.1393 167.344 57.0674 162.45 57.3669 161.302C57.5486 161.123 57.732 161.094 57.9909 161.084C62.1943 160.933 66.451 161.151 70.6511 160.998Z" fill="#FFFE00"/>
<path d="M159.228 114.126L173.19 114.127C174.687 114.125 176.242 114.063 177.736 114.141C177.857 114.147 178.092 114.432 178.151 114.532C178.354 114.879 178.333 115.328 178.353 115.717C178.348 119.067 178.333 122.421 178.33 125.771L178.331 155.039C178.328 156.584 178.335 158.157 178.25 159.7C178.23 160.068 178.229 160.302 177.905 160.485C176.955 160.323 173.898 160.379 172.751 160.379L162.589 160.392C161.981 160.395 159.328 160.466 158.927 160.354C158.329 159.429 158.791 135.39 158.65 132.658C158.595 131.59 158.593 114.821 158.736 114.393C158.985 114.112 158.855 114.184 159.228 114.126Z" fill="#FFFE00"/>
<path d="M129.662 114.1C131.976 114.333 148.078 113.868 148.772 114.259C149.02 114.575 149.084 114.81 149.088 115.209C149.111 117.874 149.085 120.566 149.084 123.231L149.085 152.627C149.084 154.85 149.158 158.319 148.961 160.449C148.644 160.523 146.527 160.375 146.006 160.375L133.325 160.379C132.799 160.379 129.942 160.516 129.649 160.372C129.345 159.64 129.427 156.093 129.426 155.126L129.428 125.206C129.427 121.826 129.419 118.432 129.425 115.051C129.426 114.662 129.46 114.433 129.662 114.1Z" fill="#FFFE00"/>
<path d="M72.2758 114.109C77.0487 114.274 82.2151 114.012 87.0174 114.126C87.6719 114.142 90.7768 114.029 91.131 114.152C91.3647 114.95 91.2749 123.584 91.2746 124.907L91.2697 153.027C91.2697 153.994 91.5226 160.375 90.9118 160.498C89.7618 160.317 86.9583 160.38 85.6514 160.379L76.026 160.391C75.2071 160.396 72.5404 160.472 71.9268 160.302C71.6828 159.04 71.7761 154.067 71.7764 152.518L71.7748 121.996C71.7733 119.618 71.7356 117.117 71.8282 114.738C71.8418 114.39 72.0361 114.3 72.2758 114.109Z" fill="#FFFE00"/>
<path d="M120.195 114.032L120.359 114.132C120.558 114.898 120.481 118.015 120.479 118.925L120.466 127.038L120.471 148.255C120.471 150.119 120.686 159.156 120.254 160.482C115.2 160.235 110.047 160.452 104.982 160.385C103.8 160.369 102.361 160.346 101.197 160.463C100.901 159.812 100.994 155.599 100.995 154.654L101.007 125.185C101.007 122.084 100.916 118.965 100.998 115.866C101.008 115.472 100.997 114.66 101.273 114.356C101.721 113.862 117.784 114.229 120.195 114.032Z" fill="#FFFE00"/>
</svg>
