<svg width="250" height="250" viewBox="0 0 250 250" fill="none" xmlns="http://www.w3.org/2000/svg">
<mask id="path-1-inside-1_769_659" fill="white">
<path d="M0 48C0 21.4903 21.4903 0 48 0H202C228.51 0 250 21.4903 250 48V202C250 228.51 228.51 250 202 250H48C21.4903 250 0 228.51 0 202V48Z"/>
</mask>
<path d="M0 48C0 21.4903 21.4903 0 48 0H202C228.51 0 250 21.4903 250 48V202C250 228.51 228.51 250 202 250H48C21.4903 250 0 228.51 0 202V48Z" fill="white"/>
<path d="M48 0V2H202V0V-2H48V0ZM250 48H248V202H250H252V48H250ZM202 250V248H48V250V252H202V250ZM0 202H2V48H0H-2V202H0ZM48 250V248C22.5949 248 2 227.405 2 202H0H-2C-2 229.614 20.3858 252 48 252V250ZM250 202H248C248 227.405 227.405 248 202 248V250V252C229.614 252 252 229.614 252 202H250ZM202 0V2C227.405 2 248 22.5949 248 48H250H252C252 20.3858 229.614 -2 202 -2V0ZM48 0V-2C20.3858 -2 -2 20.3858 -2 48H0H2C2 22.5949 22.5949 2 48 2V0Z" fill="#DDDBDB" mask="url(#path-1-inside-1_769_659)"/>
<path d="M133.938 108.079L134.434 108.071C147.725 107.898 161.416 108.036 174.734 108.066L185.99 108.043C188.068 108.037 190.301 107.972 192.366 108.169C193.301 108.258 194.046 109.052 194.699 109.687C194.725 110.675 194.713 111.704 194.704 112.696C194.634 120.483 194.865 128.282 194.702 136.064C194.691 136.56 194.377 137.034 194.094 137.422C192.253 138.209 187.249 137.961 185.032 137.962L133.92 137.994C134.082 128.161 133.918 117.95 133.938 108.079Z" fill="#894975"/>
<path d="M134.387 140.82C135.646 140.779 136.926 140.789 138.186 140.787C156.003 140.759 173.833 140.724 191.65 140.787C193.619 140.794 194.713 141.518 194.71 143.569C194.701 151.426 194.704 159.299 194.747 167.157C194.754 168.527 194.558 169.009 193.58 169.883C192.146 170.531 186.099 170.348 184.285 170.352L170.212 170.35C158.253 170.353 145.984 170.505 134.042 170.289C134.171 163.64 133.959 156.84 134.009 150.182C134.031 147.255 133.846 143.889 133.994 141.023L134.387 140.82Z" fill="#894975"/>
<path d="M152.955 51.6631C156.149 51.6805 159.675 51.5815 162.858 51.7986C163.61 51.8501 164.677 53.0394 164.727 53.8263C164.895 56.5224 164.823 59.2911 164.821 62.0046C164.794 68.2772 164.803 74.5497 164.847 80.8222C168.613 83.2484 194.153 101.587 195 103.431L194.804 103.8C193.442 104.402 176.926 104.2 174.044 104.308C172.038 102.146 166.548 97.7585 164.078 95.67L145.17 79.5959C141.695 76.6287 138.246 73.6331 134.82 70.6097C132.454 68.4894 128.102 64.2942 125.59 62.8353C124.043 63.4336 120.322 65.5416 118.728 66.3881C114.468 68.6562 110.192 70.8926 105.9 73.0966L78.4481 87.1219C74.2713 89.2683 70.1489 91.5743 65.9056 93.5781C63.9917 94.4818 63.3905 94.8468 62.0841 93.1581C63.3412 91.9971 65.996 90.4287 67.5411 89.4183C71.5716 86.783 75.6874 84.355 79.7201 81.706C90.9767 74.1567 102.302 66.7109 113.696 59.3697C116.776 57.3959 122.304 53.34 125.397 51.9448C127.752 53.2234 132.153 56.7541 134.48 58.4722L151.905 71.1955C152.023 67.3752 151.807 63.5205 151.866 59.7068C151.903 57.2369 151.347 53.5785 152.955 51.6631Z" fill="#894975"/>
<path d="M59.5491 140.797C62.7844 140.563 68.4424 140.758 71.9045 140.772L96.3954 140.941L112.746 141.02C114.152 141.034 121.626 140.758 122.073 141.947C123.815 146.585 122.93 153.809 122.515 158.717C122.209 162.346 120.302 166.626 117.359 168.756C113.798 171.455 110.51 171.016 106.288 171.022L96.2937 171.019L78.8311 170.959C75.2073 170.928 70.9347 171.015 67.4135 170.489C57.1766 168.312 58.1935 159.454 57.9669 150.933C62.8326 150.887 68.445 150.882 73.2964 151.056C74.346 152.503 74.6085 154.878 76.0349 155.954C77.6804 157.196 99.1951 157.479 102.283 156.972C103.844 156.716 105.493 155.588 106.406 154.31C107.202 153.196 107.605 151.722 107.364 150.366C107.189 149.384 106.661 148.464 105.726 148.043C103.51 147.043 99.2621 147.257 96.7696 147.113C90.6188 146.756 84.4822 146.264 78.3285 145.94C74.1772 145.722 69.6185 145.845 65.536 145.087C64.1187 144.823 62.7263 144.316 61.5369 143.49C60.5989 142.84 59.7615 141.951 59.5491 140.797Z" fill="#894975"/>
<path d="M77.4602 107.376L79.2838 107.352C86.5572 107.279 93.9155 107.445 101.213 107.419C105.294 107.627 109.751 107.06 113.764 107.731C123.585 109.371 122.639 120.039 122.653 127.207L106.874 127.219C106.176 124.473 106.098 121.842 102.725 121.744C94.6298 121.508 86.1642 120.086 78.1392 121.402C75.7533 121.793 73.278 124.553 73.2144 126.985C72.98 131.615 79.5824 130.98 82.6864 131.102C85.3617 131.225 88.0361 131.364 90.7098 131.521C95.3567 131.863 100.007 132.164 104.659 132.423C107.817 132.593 110.985 132.725 114.133 133.019C116.666 133.255 119.652 134.218 120.943 136.597C120.972 137.147 121.04 136.954 120.721 137.339C119.596 137.677 108.39 137.443 106.488 137.441C90.8525 137.56 75.2161 137.463 59.5833 137.149C57.7095 135.299 57.7543 132.061 57.787 129.499C57.8693 123.091 57.2239 115.468 62.1653 110.625C65.5384 107.319 67.4394 107.395 71.8204 107.413C73.7005 107.422 75.5805 107.41 77.4602 107.376Z" fill="#894975"/>
<path d="M55.1139 175.934L137.95 175.938C156.669 175.87 175.39 175.906 194.109 176.046C194.139 177.269 194.078 178.686 194.055 179.924L194.007 180.047C193.66 180.335 193.695 180.304 193.148 180.305C188.404 180.313 183.638 180.309 178.897 180.31L55.0087 180.344C55.0091 179.072 54.9545 177.146 55.1139 175.934Z" fill="#894975"/>
<path d="M125.133 83.2754C127.163 83.277 129.531 82.9808 131.422 83.3445C132.905 83.6298 132.659 90.3906 132.286 91.1039C130.154 91.5409 127.308 91.5124 125.135 91.2445C125.11 88.5883 125.109 85.9317 125.133 83.2754Z" fill="#894975"/>
<path d="M116.149 92.4932C118.665 92.4323 121.267 92.4759 123.79 92.4871C124.083 94.5343 123.977 97.823 123.93 99.8944C121.388 99.925 118.846 99.9239 116.304 99.891C116.154 97.6828 116.189 94.7573 116.149 92.4932Z" fill="#894975"/>
<path d="M117.939 83.2822C122.227 83.0734 123.808 82.7266 123.538 87.7988C123.494 88.6249 123.511 89.5891 123.468 90.4385C123.061 90.8136 123.037 90.6874 122.322 90.7111C120.335 90.7345 118.349 90.7074 116.364 90.6301C116.405 88.1003 115.662 84.9042 117.939 83.2822Z" fill="#894975"/>
<path d="M125.343 92.8441C127.395 92.8066 130.496 92.6959 132.465 93.0827C132.474 94.8675 132.557 97.99 132.321 99.6447C129.908 99.8092 127.726 99.8487 125.306 99.8753C125.283 97.5316 125.295 95.1877 125.343 92.8441Z" fill="#894975"/>
</svg>
