<svg width="250" height="250" viewBox="0 0 250 250" fill="none" xmlns="http://www.w3.org/2000/svg">
<rect width="250" height="250" fill="white"/>
<path d="M133.938 108.079L134.434 108.072C147.725 107.898 161.416 108.036 174.734 108.066L185.99 108.044C188.068 108.037 190.301 107.972 192.366 108.169C193.301 108.258 194.046 109.052 194.699 109.688C194.725 110.675 194.713 111.704 194.704 112.696C194.634 120.483 194.865 128.282 194.702 136.064C194.691 136.56 194.377 137.034 194.094 137.422C192.253 138.209 187.249 137.961 185.032 137.963L133.92 137.995C134.082 128.161 133.918 117.951 133.938 108.079Z" fill="#894975"/>
<path d="M134.387 140.82C135.646 140.78 136.926 140.789 138.186 140.787C156.003 140.759 173.833 140.724 191.65 140.787C193.619 140.794 194.713 141.518 194.71 143.569C194.701 151.427 194.704 159.299 194.747 167.157C194.754 168.527 194.558 169.009 193.58 169.883C192.146 170.531 186.099 170.348 184.285 170.352L170.212 170.35C158.253 170.353 145.984 170.505 134.042 170.29C134.171 163.64 133.959 156.84 134.009 150.182C134.031 147.255 133.846 143.889 133.994 141.023L134.387 140.82Z" fill="#894975"/>
<path d="M152.955 51.6633C156.149 51.6807 159.675 51.5818 162.858 51.7989C163.61 51.8503 164.677 53.0397 164.727 53.8266C164.895 56.5226 164.823 59.2914 164.821 62.0048C164.794 68.2775 164.803 74.55 164.847 80.8225C168.613 83.2486 194.153 101.587 195 103.432L194.804 103.801C193.442 104.402 176.926 104.2 174.044 104.308C172.038 102.147 166.548 97.7588 164.078 95.6702L145.17 79.5961C141.695 76.6289 138.246 73.6333 134.82 70.61C132.454 68.4896 128.102 64.2944 125.59 62.8356C124.043 63.4339 120.322 65.5418 118.728 66.3883C114.468 68.6565 110.192 70.8928 105.9 73.0969L78.4481 87.1222C74.2713 89.2685 70.1489 91.5746 65.9056 93.5783C63.9917 94.4821 63.3905 94.847 62.0841 93.1583C63.3412 91.9974 65.996 90.429 67.5411 89.4186C71.5716 86.7833 75.6874 84.3553 79.7201 81.7063C90.9767 74.157 102.302 66.7111 113.696 59.37C116.776 57.3962 122.304 53.3402 125.397 51.9451C127.752 53.2236 132.153 56.7544 134.48 58.4724L151.905 71.1957C152.023 67.3754 151.807 63.5207 151.866 59.7071C151.903 57.2372 151.347 53.5787 152.955 51.6633Z" fill="#894975"/>
<path d="M59.5491 140.797C62.7844 140.564 68.4424 140.758 71.9045 140.773L96.3954 140.941L112.746 141.02C114.152 141.034 121.626 140.758 122.073 141.947C123.815 146.585 122.93 153.81 122.515 158.718C122.209 162.346 120.302 166.627 117.359 168.756C113.798 171.456 110.51 171.016 106.288 171.022L96.2937 171.019L78.8311 170.959C75.2073 170.928 70.9347 171.016 67.4135 170.489C57.1766 168.312 58.1935 159.455 57.9669 150.933C62.8326 150.888 68.445 150.882 73.2964 151.056C74.346 152.503 74.6085 154.879 76.0349 155.955C77.6804 157.196 99.1951 157.479 102.283 156.973C103.844 156.716 105.493 155.588 106.406 154.31C107.202 153.196 107.605 151.722 107.364 150.366C107.189 149.384 106.661 148.464 105.726 148.043C103.51 147.043 99.2621 147.257 96.7696 147.113C90.6188 146.756 84.4822 146.264 78.3285 145.94C74.1772 145.722 69.6185 145.846 65.536 145.087C64.1187 144.824 62.7263 144.316 61.5369 143.491C60.5989 142.84 59.7615 141.951 59.5491 140.797Z" fill="#894975"/>
<path d="M77.4602 107.376L79.2838 107.353C86.5572 107.279 93.9155 107.446 101.213 107.42C105.294 107.628 109.751 107.06 113.764 107.731C123.585 109.372 122.639 120.04 122.653 127.207L106.874 127.219C106.176 124.474 106.098 121.842 102.725 121.744C94.6298 121.508 86.1642 120.086 78.1392 121.402C75.7533 121.793 73.278 124.553 73.2144 126.986C72.98 131.615 79.5824 130.98 82.6864 131.102C85.3617 131.225 88.0361 131.365 90.7098 131.521C95.3567 131.863 100.007 132.164 104.659 132.423C107.817 132.593 110.985 132.725 114.133 133.019C116.666 133.255 119.652 134.218 120.943 136.597C120.972 137.148 121.04 136.954 120.721 137.339C119.596 137.678 108.39 137.443 106.488 137.441C90.8525 137.56 75.2161 137.463 59.5833 137.149C57.7095 135.299 57.7543 132.061 57.787 129.499C57.8693 123.091 57.2239 115.468 62.1653 110.625C65.5384 107.319 67.4394 107.396 71.8204 107.413C73.7005 107.423 75.5805 107.41 77.4602 107.376Z" fill="#894975"/>
<path d="M55.1139 175.935L137.95 175.938C156.669 175.871 175.39 175.907 194.109 176.046C194.139 177.27 194.078 178.686 194.055 179.924L194.007 180.048C193.66 180.335 193.695 180.304 193.148 180.305C188.404 180.313 183.638 180.309 178.897 180.31L55.0087 180.345C55.0091 179.072 54.9545 177.146 55.1139 175.935Z" fill="#894975"/>
<path d="M125.133 83.2756C127.163 83.2773 129.531 82.9811 131.422 83.3447C132.905 83.63 132.659 90.3909 132.286 91.1041C130.154 91.5411 127.308 91.5127 125.135 91.2448C125.11 88.5886 125.109 85.932 125.133 83.2756Z" fill="#894975"/>
<path d="M116.149 92.4935C118.665 92.4325 121.267 92.4761 123.79 92.4874C124.083 94.5346 123.977 97.8232 123.93 99.8946C121.388 99.9253 118.846 99.9242 116.304 99.8913C116.154 97.683 116.189 94.7576 116.149 92.4935Z" fill="#894975"/>
<path d="M117.939 83.2824C122.227 83.0736 123.808 82.7268 123.538 87.799C123.494 88.6251 123.511 89.5893 123.468 90.4387C123.061 90.8138 123.037 90.6876 122.322 90.7113C120.335 90.7348 118.349 90.7076 116.364 90.6304C116.405 88.1006 115.662 84.9044 117.939 83.2824Z" fill="#894975"/>
<path d="M125.343 92.8444C127.395 92.8069 130.496 92.6962 132.465 93.0829C132.474 94.8677 132.557 97.9903 132.321 99.645C129.908 99.8094 127.726 99.849 125.306 99.8756C125.283 97.5318 125.295 95.1879 125.343 92.8444Z" fill="#894975"/>
</svg>
