<svg width="250" height="250" viewBox="0 0 250 250" fill="none" xmlns="http://www.w3.org/2000/svg">
<rect width="250" height="250" fill="#162D4C"/>
<path d="M126.123 91.9233C126.355 91.7231 126.573 91.2877 126.969 91.7337L131.728 97.0582L118.382 98.9089C118.424 98.5228 118.733 98.4033 118.93 98.2243C121.32 96.117 123.718 94.0166 126.123 91.9233Z" fill="#C6CCD1"/>
<path fill-rule="evenodd" clip-rule="evenodd" d="M190.666 55C189.893 58.7159 189.135 62.4353 188.344 66.1477C185.319 80.3532 182.285 94.554 179.241 108.75C178.012 114.521 176.782 120.295 175.539 126.058C175.381 126.761 175.451 127.01 176.241 127.02C179.051 127.062 181.861 127.02 184.671 126.912C186.045 126.83 187.424 126.919 188.776 127.178C191.235 127.698 191.92 129.472 190.448 131.534C189.625 132.606 188.555 133.464 187.329 134.034C184.558 135.464 181.559 136.075 178.507 136.472C177.003 136.702 175.484 136.82 173.962 136.823C173.372 136.823 173.221 137.097 173.122 137.571C172.186 142.02 171.241 146.478 170.288 150.945L161.617 191.834C161.441 192.663 161.265 193.488 161.1 194.324C161.016 194.795 160.847 195.079 160.31 194.981C160.164 194.967 160.017 194.967 159.871 194.981H59.8692C58.6611 194.981 58.6647 194.981 58.9246 193.744C63.9306 170.171 68.9344 146.597 73.9357 123.023C75.0525 117.765 76.1727 112.508 77.2966 107.254C77.3942 106.95 77.3741 106.62 77.2403 106.33C75.7477 103.377 75.2738 100.17 74.9612 96.9316C74.164 88.6991 76.0779 80.8354 78.3221 73.0314C78.9719 70.7836 81.4165 69.4 84.0822 69.702C85.0621 69.8109 85.3432 69.5437 85.5258 68.6165C86.4144 64.1772 87.3873 59.7553 88.3355 55.3265C88.3678 55.2141 88.4099 55.1048 88.4618 55H190.666ZM94.4537 154.802V167.582C94.4613 168.306 94.3189 169.024 94.0356 169.69C91.7176 175.207 89.4276 180.739 87.1025 186.256C86.9705 186.512 86.9069 186.798 86.918 187.085C86.9291 187.372 87.0147 187.652 87.166 187.897C87.6577 188.761 88.0932 189.653 88.4971 190.563C88.5715 190.793 88.7228 190.99 88.9255 191.122C89.1282 191.253 89.3701 191.311 89.6104 191.286C95.2017 191.254 100.789 191.286 106.377 191.261C106.62 191.261 106.897 191.374 107.157 191.089C106.644 190.036 106.149 188.943 105.594 187.89C105.31 187.383 105.225 186.788 105.355 186.221C106.725 179.527 108.06 172.822 109.45 166.132C109.591 165.468 109.45 165.138 108.924 164.769C104.339 161.578 99.7627 158.375 95.1946 155.16C94.9927 154.945 94.7189 154.813 94.4256 154.788L94.4537 154.802ZM80.001 112.122C79.9624 112.287 79.9202 112.449 79.8851 112.61C76.8553 126.982 73.8266 141.356 70.7991 155.732C70.4198 157.527 70.42 157.548 72.2252 157.738C73.3912 157.861 74.5011 158.233 75.7374 157.784C81.7256 155.631 87.7524 153.587 93.7581 151.462C94.056 151.325 94.3864 151.274 94.7116 151.315C95.0368 151.356 95.3441 151.487 95.5986 151.693C103.571 157.383 111.56 163.052 119.566 168.699L122.53 170.807C122.161 171.049 121.919 171.211 121.673 171.365C118.628 173.276 115.586 175.193 112.524 177.076C111.905 177.455 111.878 177.652 112.454 178.129C117.371 182.186 122.267 186.274 127.173 190.348C127.296 190.454 127.408 190.633 127.668 190.51C127.721 189.604 127.826 188.673 127.812 187.742C127.81 186.692 128.032 185.652 128.462 184.694C129.828 181.435 131.135 178.151 132.476 174.881C132.648 174.48 132.726 174.045 132.705 173.609C132.585 170.715 132.473 167.821 132.385 164.927C132.37 164.404 132.211 163.894 131.925 163.456C128.82 158.433 125.736 153.4 122.621 148.381C122.483 148.182 122.393 147.953 122.359 147.713C122.325 147.473 122.347 147.228 122.424 146.998C122.944 145.203 123.415 143.394 123.931 141.596C124.126 140.892 124.186 140.158 124.107 139.433C123.924 137.452 123.756 135.471 123.619 133.486C123.58 132.826 123.394 132.608 122.695 132.605C118.044 132.608 113.403 132.148 108.843 131.231C96.9683 128.773 87.3977 122.83 80.57 112.691C80.4331 112.491 80.3663 112.202 80.001 112.122ZM145.594 130.792C145.685 131.404 145.77 131.846 145.815 132.32C145.959 133.831 146.455 135.299 146.304 136.837C145.84 141.554 144.835 146.19 144.217 150.885C143.74 154.542 143.252 158.202 143.448 161.896C143.606 164.882 144.576 167.572 147.108 169.346C149.496 171.017 152.12 171.527 154.877 170.104C155.091 170.014 155.272 169.857 155.391 169.658C155.511 169.459 155.565 169.226 155.544 168.994C155.533 168.001 155.435 167.01 155.253 166.033C155.13 165.415 154.929 165.254 154.262 165.373C151.783 165.819 150.079 164.035 150.564 161.573C150.989 159.41 151.849 157.394 152.671 155.367C154.67 150.503 157.044 145.803 159.12 140.967C159.65 139.605 159.975 138.172 160.086 136.714C160.142 136.236 160.085 135.99 159.488 135.913C158.506 135.77 157.532 135.568 156.573 135.309C152.729 134.3 149.036 132.781 145.594 130.792ZM142.662 115.297C139.371 114.945 136.512 115.708 134.383 118.433C133.99 118.935 133.98 119.255 134.496 119.712C137.211 122.118 140.136 124.274 143.237 126.156C151.983 131.488 161.413 134.586 171.746 134.579L171.774 134.593C172.416 134.593 173.059 134.614 173.702 134.593C177.541 134.438 181.33 133.964 184.983 132.7C186.107 132.364 187.143 131.785 188.018 131.003C188.432 130.607 188.808 130.139 188.566 129.539C188.351 129.005 187.772 128.966 187.287 128.963C186.117 128.963 184.941 128.931 183.775 129.036C178.842 129.507 173.865 129.138 169.056 127.944C160.5 125.819 152.875 121.784 145.823 116.6C144.908 115.885 143.814 115.434 142.662 115.297ZM89.0764 72.8277C87.2571 72.5713 85.4554 72.1252 83.5976 72.2165C81.9996 72.2902 81.1108 72.8452 80.7069 74.1622C78.7155 80.6667 77.1947 87.2662 77.4159 94.1325C77.5313 100.469 79.6292 106.61 83.4147 111.693C87.6293 117.376 93.3333 121.022 99.8554 123.491C107.375 126.328 115.235 127.344 123.215 127.688L123.232 127.702C123.494 127.674 123.758 127.674 124.019 127.702C127.229 128.432 128.873 126.536 130.172 124.06C130.32 123.775 130.471 123.487 130.597 123.196C131.5 121.141 131.496 121.137 129.835 119.683C129.726 119.581 129.608 119.487 129.484 119.403C128.757 118.96 128.76 118.486 129.206 117.762C130.588 115.515 132.607 113.729 135.007 112.632C137.407 111.536 140.079 111.179 142.682 111.606C143.573 111.726 144.413 112.091 145.109 112.659C147.392 114.489 149.753 116.214 152.162 117.878C154.378 119.452 156.691 120.884 159.088 122.167C159.976 122.63 160.026 122.609 159.945 121.654C159.79 119.849 159.611 118.045 159.407 116.242C158.954 112.189 157.729 108.455 155.137 105.199C153.279 102.867 151.512 100.461 149.616 98.1574C149.431 97.9591 149.294 97.7211 149.216 97.4618C149.137 97.2026 149.119 96.9287 149.163 96.6613C149.584 93.3388 149.591 93.3177 147.519 90.6906C142.953 84.9026 137.53 79.9434 131.988 75.1178C131.662 74.8704 131.281 74.7043 130.878 74.6331C127.047 73.6905 123.127 73.1524 119.183 73.028C116.893 72.9226 114.772 73.1755 112.893 74.5803C111.358 75.7288 109.732 75.9186 107.803 75.599C101.58 74.5629 95.3245 73.7127 89.0764 72.8277Z" fill="#C6CCD1"/>
</svg>
