<svg width="250" height="250" viewBox="0 0 250 250" fill="none" xmlns="http://www.w3.org/2000/svg">
<mask id="path-1-inside-1_769_40" fill="white">
<path d="M0 48C0 21.4903 21.4903 0 48 0H202C228.51 0 250 21.4903 250 48V202C250 228.51 228.51 250 202 250H48C21.4903 250 0 228.51 0 202V48Z"/>
</mask>
<path d="M0 48C0 21.4903 21.4903 0 48 0H202C228.51 0 250 21.4903 250 48V202C250 228.51 228.51 250 202 250H48C21.4903 250 0 228.51 0 202V48Z" fill="white"/>
<path d="M48 0V2H202V0V-2H48V0ZM250 48H248V202H250H252V48H250ZM202 250V248H48V250V252H202V250ZM0 202H2V48H0H-2V202H0ZM48 250V248C22.5949 248 2 227.405 2 202H0H-2C-2 229.614 20.3858 252 48 252V250ZM250 202H248C248 227.405 227.405 248 202 248V250V252C229.614 252 252 229.614 252 202H250ZM202 0V2C227.405 2 248 22.5949 248 48H250H252C252 20.3858 229.614 -2 202 -2V0ZM48 0V-2C20.3858 -2 -2 20.3858 -2 48H0H2C2 22.5949 22.5949 2 48 2V0Z" fill="#DDDBDB" mask="url(#path-1-inside-1_769_40)"/>
<path d="M149.752 59.533C148.518 58.6468 144.592 55.9716 143.686 55.0544C143.213 55.7692 142.644 56.4655 142.135 57.1585C136.631 64.667 131.157 72.2444 125.672 79.7646L114.962 94.5058C113.155 96.991 111.299 99.7449 109.372 102.119C109.57 102.449 109.746 102.808 109.932 103.147C111.758 106.479 113.442 109.883 115.19 113.255L117.786 118.171C118.95 120.382 120.514 122.777 121.314 125.117C120.814 124.551 118.935 121.818 118.454 121.066C117.21 119.56 115.845 117.513 114.693 115.907L109.878 109.33L83.8447 73.5193C83.1498 72.5499 80.8521 69.5481 80.4492 68.6896C75.7598 72.1492 71.0483 75.5787 66.3148 78.9777C65.34 79.6656 64.3761 80.3685 63.4228 81.0859C62.936 81.4496 62.076 82.131 61.5851 82.4144C62.444 83.4849 63.3999 84.9251 64.221 86.0577C65.8998 88.3424 67.5663 90.6363 69.2204 92.9391L90.2574 121.904C91.8009 124.017 94.4586 127.424 95.7095 129.52C98.299 128.974 101.125 128.543 103.738 128.111L113.06 126.537C114.071 126.369 119.543 125.399 120.651 125.376L120.621 125.523C119.352 125.991 117.939 126.339 116.639 126.757L105.161 130.448L65.7442 143.304C62.1611 144.487 58.5684 145.54 55.001 146.769C56.4015 150.21 57.6336 154.795 58.7911 158.379C59.8692 161.717 61.3403 165.554 62.2244 168.877L111.039 153.003C112.772 152.44 115.932 151.542 117.532 150.857C117.66 149.526 118.008 147.708 118.219 146.329L119.857 135.8C120.192 133.521 120.51 131.238 120.81 128.954C120.934 128.022 121.124 126.218 121.331 125.363C121.54 126.486 121.402 129.685 121.398 131.022L121.386 143.088L121.405 194.945L144.63 194.943L144.628 143.965C144.629 141.642 144.688 139.11 144.636 136.81C143.552 136.319 142.486 135.732 141.413 135.203L131.581 130.289C129.162 129.122 126.754 127.932 124.358 126.718C123.524 126.3 122.238 125.761 121.505 125.299C122.794 125.529 124.675 126.194 125.951 126.61L132.929 128.923L151.914 135.124C160.861 138.06 169.951 140.858 178.875 143.847C180.555 144.426 182.242 144.984 183.935 145.52C185.09 145.88 186.654 146.3 187.734 146.74L192.272 132.834L193.901 127.734C194.171 126.9 194.623 125.406 195.001 124.641C193.718 124.325 192.108 123.76 190.824 123.344C188.416 122.566 186.012 121.775 183.611 120.972L164.857 114.852L148.443 109.526L142.608 107.685C141.899 107.454 140.304 106.95 139.653 106.634C138.298 108.133 136.889 109.439 135.504 110.88C131.276 115.277 126.913 119.518 122.73 123.959C122.543 124.162 122.243 124.555 121.961 124.511C121.993 124.207 122.264 123.921 122.456 123.664C124.627 120.613 127.014 117.48 129.221 114.435L158.796 73.698C159.622 72.5736 161.675 69.558 162.472 68.7447C158.232 65.8473 153.945 62.5454 149.752 59.533Z" fill="#4F28FE"/>
</svg>
