<svg width="250" height="250" viewBox="0 0 250 250" fill="none" xmlns="http://www.w3.org/2000/svg">
<mask id="path-1-inside-1_769_41" fill="white">
<path d="M0 48C0 21.4903 21.4903 0 48 0H202C228.51 0 250 21.4903 250 48V202C250 228.51 228.51 250 202 250H48C21.4903 250 0 228.51 0 202V48Z"/>
</mask>
<path d="M0 48C0 21.4903 21.4903 0 48 0H202C228.51 0 250 21.4903 250 48V202C250 228.51 228.51 250 202 250H48C21.4903 250 0 228.51 0 202V48Z" fill="white"/>
<path d="M48 0V2H202V0V-2H48V0ZM250 48H248V202H250H252V48H250ZM202 250V248H48V250V252H202V250ZM0 202H2V48H0H-2V202H0ZM48 250V248C22.5949 248 2 227.405 2 202H0H-2C-2 229.614 20.3858 252 48 252V250ZM250 202H248C248 227.405 227.405 248 202 248V250V252C229.614 252 252 229.614 252 202H250ZM202 0V2C227.405 2 248 22.5949 248 48H250H252C252 20.3858 229.614 -2 202 -2V0ZM48 0V-2C20.3858 -2 -2 20.3858 -2 48H0H2C2 22.5949 22.5949 2 48 2V0Z" fill="#DDDBDB" mask="url(#path-1-inside-1_769_41)"/>
<path d="M177.669 78.4465C166.274 96.4904 146.962 108.301 124.938 108.301C102.913 108.301 83.6881 96.4904 72.2057 78.534L99.4355 57.7781C104.619 67.642 114.133 74.2691 124.959 74.2691C125.418 74.2691 125.922 74.2472 126.381 74.2253C117.151 79.8462 106.412 83.0395 95.105 83.0395C91.015 83.0395 87.0126 82.6239 83.0976 81.8584C88.7185 83.5644 94.6019 84.5049 100.704 84.5049C117.348 84.5049 132.527 77.7466 143.812 66.636C143.812 66.636 143.827 66.6214 143.856 66.5922C144.534 65.9579 145.169 65.3018 145.803 64.602C145.365 65.0612 144.906 65.5424 144.447 65.9798C146.809 63.6177 148.865 60.862 150.461 57.7999L177.691 78.4683L177.669 78.4465Z" fill="#14CC52"/>
<path d="M112.129 192.222L80.547 179.034C86.4959 169.585 87.4801 158.037 82.078 148.655C81.8374 148.261 81.6186 147.867 81.3343 147.473C90.8046 152.657 98.9407 160.356 104.584 170.154C106.64 173.697 108.236 177.372 109.548 181.133C108.214 175.425 106.093 169.87 103.009 164.577C94.7634 150.273 81.4437 140.54 66.2868 136.275C66.2868 136.275 66.2722 136.268 66.2431 136.253C65.5432 136.035 64.8433 135.86 64.1434 135.685C64.0122 135.641 63.8591 135.619 63.7279 135.597C60.9284 134.963 57.9976 134.7 55.0012 134.832L59.288 100.909C80.6126 101.762 100.515 112.567 111.517 131.661C122.475 150.667 121.906 173.304 112.107 192.222H112.129Z" fill="#14CC52"/>
<path d="M175.295 118.361C177.351 114.84 179.713 111.581 182.338 108.563C178.051 112.565 174.311 117.203 171.227 122.517C162.851 137.018 161.144 153.705 165.278 169.191C165.278 169.191 165.322 169.387 165.344 169.453C165.432 169.869 165.562 170.284 165.694 170.722C165.759 170.984 165.825 171.268 165.935 171.509C165.869 171.268 165.803 171.071 165.759 170.831C166.59 173.63 167.859 176.386 169.499 178.945L137.983 192.199C128.075 173.303 127.484 150.665 138.486 131.594C149.465 112.588 169.368 101.783 190.649 100.799L195.001 134.765C183.869 134.328 173.349 139.249 167.968 148.61C167.706 149.025 167.509 149.463 167.29 149.9C167.006 139.095 169.652 128.182 175.295 118.384V118.361Z" fill="#14CC52"/>
</svg>
