<svg width="250" height="250" viewBox="0 0 250 250" fill="none" xmlns="http://www.w3.org/2000/svg">
<mask id="path-1-inside-1_769_42" fill="white">
<path d="M0 48C0 21.4903 21.4903 0 48 0H202C228.51 0 250 21.4903 250 48V202C250 228.51 228.51 250 202 250H48C21.4903 250 0 228.51 0 202V48Z"/>
</mask>
<path d="M0 48C0 21.4903 21.4903 0 48 0H202C228.51 0 250 21.4903 250 48V202C250 228.51 228.51 250 202 250H48C21.4903 250 0 228.51 0 202V48Z" fill="white"/>
<path d="M48 0V2H202V0V-2H48V0ZM250 48H248V202H250H252V48H250ZM202 250V248H48V250V252H202V250ZM0 202H2V48H0H-2V202H0ZM48 250V248C22.5949 248 2 227.405 2 202H0H-2C-2 229.614 20.3858 252 48 252V250ZM250 202H248C248 227.405 227.405 248 202 248V250V252C229.614 252 252 229.614 252 202H250ZM202 0V2C227.405 2 248 22.5949 248 48H250H252C252 20.3858 229.614 -2 202 -2V0ZM48 0V-2C20.3858 -2 -2 20.3858 -2 48H0H2C2 22.5949 22.5949 2 48 2V0Z" fill="#DDDBDB" mask="url(#path-1-inside-1_769_42)"/>
<g clip-path="url(#clip0_769_42)">
<mask id="mask0_769_42" style="mask-type:luminance" maskUnits="userSpaceOnUse" x="73" y="74" width="103" height="99">
<path d="M124.467 74.4731C152.489 74.4731 175.181 96.4687 175.181 123.62C175.181 150.772 152.467 172.767 124.467 172.767C96.4672 172.767 73.7538 150.75 73.7538 123.62C73.7538 96.4903 96.4672 74.4731 124.467 74.4731Z" fill="white"/>
</mask>
<g mask="url(#mask0_769_42)">
<path fill-rule="evenodd" clip-rule="evenodd" d="M166.413 58.3735L190.715 163.956L82.5214 188.867L58.2198 83.2843L166.413 58.3735Z" fill="#0090CC"/>
<path fill-rule="evenodd" clip-rule="evenodd" d="M118.462 105.215C118.767 105.149 118.985 104.823 118.898 104.519C118.832 104.214 118.506 104.018 118.201 104.083C117.897 104.148 117.679 104.475 117.766 104.78C117.832 105.084 118.158 105.28 118.462 105.215Z" fill="white"/>
<path fill-rule="evenodd" clip-rule="evenodd" d="M118.419 105.041C118.636 104.998 118.767 104.78 118.723 104.585C118.68 104.389 118.462 104.258 118.267 104.302C118.049 104.345 117.919 104.563 117.984 104.759C118.028 104.954 118.245 105.085 118.441 105.041H118.419ZM118.549 105.607C119.072 105.477 119.398 104.976 119.289 104.454C119.18 103.932 118.658 103.627 118.136 103.736C117.614 103.867 117.288 104.367 117.396 104.889C117.505 105.411 118.028 105.716 118.549 105.607Z" fill="#FCFDFD"/>
<path fill-rule="evenodd" clip-rule="evenodd" d="M118.506 105.41C118.919 105.323 119.181 104.91 119.094 104.496C119.007 104.083 118.571 103.822 118.158 103.93C117.745 104.018 117.484 104.431 117.571 104.844C117.658 105.258 118.071 105.519 118.506 105.41ZM118.636 105.976C119.376 105.802 119.833 105.084 119.659 104.366C119.485 103.648 118.767 103.191 118.027 103.365C117.288 103.539 116.831 104.257 117.005 104.975C117.179 105.693 117.897 106.15 118.636 105.976Z" fill="#FAFCFD"/>
<path fill-rule="evenodd" clip-rule="evenodd" d="M118.593 105.78C119.224 105.628 119.616 105.019 119.463 104.41C119.311 103.801 118.702 103.409 118.071 103.561C117.44 103.714 117.048 104.323 117.201 104.932C117.353 105.541 117.962 105.933 118.593 105.78ZM118.723 106.346C119.659 106.128 120.268 105.193 120.051 104.279C119.833 103.343 118.898 102.778 117.962 102.996C117.027 103.213 116.418 104.149 116.635 105.062C116.853 105.998 117.788 106.563 118.723 106.346Z" fill="#F8FAFC"/>
<path fill-rule="evenodd" clip-rule="evenodd" d="M118.68 106.15C119.529 105.954 120.051 105.127 119.855 104.301C119.659 103.474 118.833 102.973 117.984 103.169C117.135 103.365 116.613 104.192 116.809 105.018C117.005 105.845 117.832 106.346 118.68 106.15ZM118.811 106.716C119.964 106.454 120.682 105.323 120.421 104.192C120.159 103.06 119.007 102.365 117.853 102.625C116.7 102.886 115.982 104.018 116.243 105.149C116.504 106.28 117.658 106.977 118.811 106.716Z" fill="#F6F9FC"/>
<path fill-rule="evenodd" clip-rule="evenodd" d="M118.767 106.521C119.811 106.281 120.464 105.259 120.225 104.214C119.985 103.192 118.941 102.539 117.897 102.778C116.853 103.017 116.2 104.04 116.439 105.085C116.679 106.107 117.723 106.76 118.767 106.521ZM118.898 107.086C120.268 106.782 121.117 105.433 120.812 104.105C120.508 102.778 119.159 101.93 117.788 102.256C116.418 102.561 115.569 103.91 115.874 105.237C116.178 106.564 117.527 107.412 118.898 107.086Z" fill="#F6F9FC"/>
<path fill-rule="evenodd" clip-rule="evenodd" d="M118.832 106.89C120.094 106.608 120.878 105.368 120.595 104.127C120.312 102.888 119.072 102.126 117.81 102.409C116.548 102.692 115.765 103.932 116.048 105.172C116.331 106.412 117.571 107.173 118.832 106.89ZM118.963 107.456C120.529 107.086 121.53 105.542 121.16 103.997C120.812 102.452 119.246 101.495 117.679 101.865C116.113 102.235 115.112 103.779 115.482 105.324C115.83 106.869 117.397 107.826 118.963 107.456Z" fill="#F4F8FB"/>
<path fill-rule="evenodd" clip-rule="evenodd" d="M118.919 107.282C120.377 106.934 121.312 105.498 120.986 104.062C120.66 102.626 119.202 101.734 117.723 102.06C116.265 102.408 115.329 103.844 115.656 105.28C115.982 106.716 117.44 107.608 118.919 107.282ZM119.05 107.848C120.834 107.434 121.943 105.694 121.552 103.931C121.138 102.191 119.376 101.103 117.592 101.517C115.808 101.93 114.699 103.67 115.09 105.433C115.503 107.173 117.266 108.261 119.05 107.848Z" fill="#F3F7FB"/>
<path fill-rule="evenodd" clip-rule="evenodd" d="M119.007 107.653C120.682 107.261 121.726 105.629 121.356 103.976C120.986 102.322 119.311 101.3 117.636 101.691C115.961 102.083 114.916 103.715 115.286 105.368C115.656 107.022 117.331 108.044 119.007 107.653ZM119.137 108.218C121.139 107.761 122.379 105.803 121.922 103.845C121.465 101.887 119.485 100.669 117.505 101.126C115.504 101.582 114.264 103.541 114.721 105.499C115.177 107.457 117.157 108.675 119.137 108.218Z" fill="#F0F6FA"/>
<path fill-rule="evenodd" clip-rule="evenodd" d="M119.094 108.022C120.986 107.587 122.161 105.737 121.726 103.888C121.291 102.039 119.42 100.886 117.549 101.321C115.656 101.756 114.481 103.605 114.916 105.455C115.351 107.304 117.222 108.457 119.094 108.022ZM119.224 108.587C121.421 108.087 122.814 105.911 122.313 103.758C121.813 101.603 119.637 100.255 117.418 100.755C115.221 101.256 113.828 103.431 114.329 105.585C114.829 107.739 117.005 109.088 119.224 108.587Z" fill="#EFF5FA"/>
<path fill-rule="evenodd" clip-rule="evenodd" d="M119.181 108.392C121.269 107.913 122.596 105.847 122.118 103.802C121.639 101.735 119.55 100.473 117.462 100.952C115.373 101.43 114.046 103.497 114.525 105.542C115.003 107.609 117.092 108.871 119.181 108.392ZM119.311 108.958C121.726 108.414 123.227 106.043 122.683 103.671C122.139 101.3 119.746 99.8422 117.331 100.386C114.916 100.93 113.415 103.301 113.959 105.673C114.503 108.044 116.896 109.502 119.311 108.958Z" fill="#EFF5FA"/>
<path fill-rule="evenodd" clip-rule="evenodd" d="M119.268 108.761C121.574 108.239 123.009 105.976 122.509 103.692C121.987 101.429 119.703 100.015 117.396 100.559C115.09 101.081 113.654 103.343 114.155 105.628C114.677 107.89 116.961 109.304 119.268 108.761ZM119.398 109.326C122.009 108.717 123.662 106.15 123.075 103.583C122.488 101.015 119.877 99.4057 117.266 100.015C114.655 100.624 113.002 103.191 113.589 105.758C114.176 108.326 116.787 109.936 119.398 109.326Z" fill="#ECF4F9"/>
<path fill-rule="evenodd" clip-rule="evenodd" d="M119.354 109.131C121.878 108.544 123.445 106.085 122.879 103.605C122.313 101.125 119.811 99.6022 117.288 100.189C114.764 100.777 113.197 103.235 113.763 105.716C114.329 108.174 116.831 109.718 119.354 109.131ZM119.485 109.697C122.313 109.044 124.097 106.259 123.445 103.496C122.814 100.712 119.985 98.993 117.157 99.6457C114.329 100.298 112.545 103.083 113.197 105.846C113.828 108.631 116.657 110.35 119.485 109.697Z" fill="#EAF2F9"/>
<path fill-rule="evenodd" clip-rule="evenodd" d="M119.442 109.502C122.161 108.871 123.88 106.195 123.249 103.519C122.64 100.843 119.92 99.1894 117.201 99.8205C114.481 100.451 112.763 103.128 113.372 105.803C113.981 108.479 116.7 110.133 119.42 109.502H119.442ZM119.572 110.067C122.618 109.372 124.511 106.391 123.836 103.389C123.14 100.408 120.138 98.5586 117.092 99.2548C114.046 99.951 112.153 102.932 112.828 105.934C113.524 108.914 116.526 110.764 119.572 110.067Z" fill="#E9F1F9"/>
<path fill-rule="evenodd" clip-rule="evenodd" d="M119.528 109.872C122.466 109.198 124.293 106.304 123.641 103.432C122.988 100.561 120.051 98.7545 117.135 99.4292C114.198 100.103 112.371 102.997 113.023 105.869C113.676 108.741 116.613 110.547 119.528 109.872ZM119.659 110.438C122.901 109.698 124.946 106.5 124.206 103.302C123.467 100.103 120.247 98.1238 117.005 98.8851C113.763 99.6248 111.718 102.823 112.458 106.021C113.197 109.219 116.417 111.199 119.659 110.438Z" fill="#E6F0F8"/>
<path fill-rule="evenodd" clip-rule="evenodd" d="M119.616 110.263C122.77 109.545 124.728 106.456 124.032 103.367C123.314 100.277 120.203 98.3626 117.048 99.0804C113.894 99.7986 111.936 102.888 112.632 105.977C113.35 109.067 116.461 110.981 119.616 110.263ZM119.746 110.829C123.205 110.024 125.381 106.63 124.598 103.236C123.815 99.8421 120.377 97.7319 116.918 98.5367C113.459 99.3415 111.283 102.736 112.066 106.13C112.849 109.524 116.287 111.634 119.746 110.829Z" fill="#E6F0F8"/>
<path fill-rule="evenodd" clip-rule="evenodd" d="M119.702 110.632C123.053 109.87 125.163 106.563 124.402 103.278C123.641 99.9931 120.312 97.948 116.961 98.7096C113.611 99.4709 111.501 102.778 112.262 106.063C113.023 109.348 116.352 111.393 119.702 110.632ZM119.833 111.198C123.51 110.349 125.794 106.759 124.968 103.148C124.141 99.5364 120.486 97.3172 116.831 98.1655C113.154 99.0142 110.87 102.604 111.696 106.215C112.523 109.805 116.178 112.046 119.833 111.198Z" fill="#E5EFF8"/>
<path fill-rule="evenodd" clip-rule="evenodd" d="M119.789 111.003C123.357 110.176 125.598 106.674 124.793 103.193C123.989 99.69 120.442 97.5143 116.874 98.3411C113.306 99.1678 111.065 102.67 111.87 106.152C112.675 109.654 116.222 111.83 119.789 111.003ZM119.92 111.569C123.793 110.677 126.229 106.869 125.359 103.062C124.489 99.2549 120.638 96.8836 116.744 97.7754C112.871 98.6676 110.434 102.475 111.305 106.282C112.175 110.089 116.026 112.461 119.92 111.569Z" fill="#E3EEF7"/>
<path fill-rule="evenodd" clip-rule="evenodd" d="M119.877 111.373C123.64 110.502 126.012 106.804 125.163 103.105C124.315 99.4067 120.551 97.1005 116.787 97.9707C113.024 98.841 110.652 102.54 111.501 106.238C112.349 109.937 116.091 112.243 119.877 111.373ZM120.007 111.938C124.097 111.003 126.664 106.978 125.729 102.975C124.815 98.9716 120.747 96.4697 116.657 97.4051C112.566 98.3408 109.999 102.366 110.935 106.368C111.849 110.372 115.917 112.874 120.007 111.938Z" fill="#E1EDF7"/>
<path fill-rule="evenodd" clip-rule="evenodd" d="M119.964 111.743C123.945 110.829 126.447 106.913 125.555 102.997C124.663 99.0808 120.703 96.6659 116.722 97.5797C112.741 98.4931 110.239 102.409 111.153 106.326C112.044 110.242 116.004 112.657 119.985 111.743H119.964ZM120.094 112.308C124.38 111.329 127.078 107.109 126.121 102.888C125.142 98.6672 120.877 96.0568 116.591 97.0356C112.305 98.0149 109.608 102.235 110.565 106.456C111.544 110.677 115.808 113.287 120.094 112.308Z" fill="#E1EDF7"/>
<path fill-rule="evenodd" clip-rule="evenodd" d="M120.051 112.111C124.25 111.154 126.882 107.02 125.925 102.909C124.968 98.7964 120.812 96.2294 116.613 97.2083C112.414 98.1656 109.782 102.299 110.739 106.411C111.696 110.523 115.852 113.09 120.051 112.111ZM120.181 112.677C124.685 111.632 127.513 107.216 126.491 102.778C125.468 98.3612 120.986 95.5983 116.483 96.6426C111.979 97.6869 109.151 102.103 110.174 106.52C111.196 110.936 115.678 113.7 120.181 112.655V112.677Z" fill="#DFECF6"/>
<path fill-rule="evenodd" clip-rule="evenodd" d="M120.137 112.482C124.532 111.459 127.295 107.151 126.294 102.822C125.294 98.4926 120.921 95.8167 116.526 96.8391C112.131 97.8615 109.368 102.169 110.369 106.499C111.37 110.828 115.743 113.504 120.137 112.482ZM120.268 113.047C124.989 111.959 127.948 107.325 126.882 102.691C125.816 98.0575 121.138 95.1856 116.417 96.2734C111.696 97.3612 108.737 101.995 109.804 106.629C110.869 111.263 115.547 114.135 120.268 113.047Z" fill="#DDEBF6"/>
<path fill-rule="evenodd" clip-rule="evenodd" d="M120.225 112.851C124.837 111.785 127.731 107.259 126.686 102.734C125.642 98.209 121.073 95.4026 116.461 96.4685C111.849 97.5344 108.955 102.06 110 106.585C111.044 111.11 115.612 113.917 120.225 112.851ZM120.355 113.416C125.272 112.285 128.362 107.434 127.252 102.604C126.142 97.7739 121.247 94.7715 116.331 95.9028C111.414 97.0342 108.324 101.886 109.434 106.716C110.543 111.545 115.438 114.548 120.355 113.416Z" fill="#DBE9F5"/>
<path fill-rule="evenodd" clip-rule="evenodd" d="M120.29 113.243C125.12 112.133 128.144 107.39 127.056 102.669C125.968 97.9267 121.182 94.9894 116.352 96.0992C111.522 97.2086 108.498 101.952 109.586 106.673C110.674 111.415 115.46 114.353 120.29 113.243ZM120.42 113.808C125.555 112.634 128.775 107.586 127.622 102.539C126.469 97.4916 121.356 94.3586 116.222 95.555C111.087 96.7299 107.867 101.777 109.02 106.825C110.174 111.872 115.286 115.005 120.42 113.808Z" fill="#DAE8F5"/>
<path fill-rule="evenodd" clip-rule="evenodd" d="M120.377 113.612C125.403 112.459 128.558 107.521 127.426 102.582C126.295 97.643 121.291 94.5755 116.265 95.7288C111.24 96.8817 108.085 101.82 109.216 106.759C110.348 111.697 115.351 114.765 120.377 113.612ZM120.508 114.178C125.86 112.938 129.21 107.695 127.992 102.451C126.773 97.2082 121.465 93.9447 116.135 95.1847C110.783 96.425 107.432 101.668 108.651 106.911C109.869 112.155 115.177 115.418 120.508 114.178Z" fill="#DAE8F5"/>
<path fill-rule="evenodd" clip-rule="evenodd" d="M120.464 113.983C125.707 112.786 128.992 107.63 127.796 102.474C126.621 97.3393 121.399 94.1412 116.156 95.3376C110.913 96.5344 107.628 101.691 108.824 106.825C110.021 111.959 115.221 115.157 120.464 113.961V113.983ZM120.595 114.548C126.142 113.265 129.623 107.804 128.383 102.365C127.121 96.9041 121.617 93.532 116.048 94.8155C110.5 96.0993 107.019 101.56 108.259 106.999C109.521 112.46 115.025 115.832 120.595 114.548Z" fill="#D7E7F4"/>
<path fill-rule="evenodd" clip-rule="evenodd" d="M120.551 114.353C125.99 113.091 129.427 107.739 128.187 102.387C126.947 97.035 121.53 93.728 116.091 94.968C110.652 96.2298 107.214 101.582 108.455 106.934C109.695 112.286 115.112 115.593 120.551 114.353ZM120.682 114.918C126.447 113.591 130.059 107.935 128.753 102.278C127.448 96.6215 121.726 93.1188 115.961 94.4242C110.195 95.7512 106.584 101.408 107.889 107.064C109.194 112.721 114.916 116.224 120.682 114.918Z" fill="#D5E6F3"/>
<path fill-rule="evenodd" clip-rule="evenodd" d="M120.638 114.723C126.295 113.417 129.841 107.87 128.579 102.3C127.296 96.752 121.682 93.2929 116.026 94.5983C110.369 95.9037 106.823 101.452 108.085 107.021C109.368 112.569 114.982 116.028 120.638 114.723ZM120.769 115.288C126.752 113.918 130.494 108.044 129.145 102.191C127.796 96.3169 121.856 92.6837 115.896 94.0542C109.913 95.4251 106.17 101.299 107.519 107.151C108.868 113.026 114.808 116.659 120.769 115.288Z" fill="#D3E5F3"/>
<path fill-rule="evenodd" clip-rule="evenodd" d="M120.725 115.093C126.599 113.744 130.276 107.979 128.949 102.213C127.622 96.448 121.791 92.8802 115.917 94.2288C110.043 95.5777 106.366 101.343 107.693 107.108C109.02 112.874 114.851 116.442 120.725 115.093ZM120.856 115.659C127.035 114.245 130.929 108.153 129.514 102.083C128.122 96.0128 121.965 92.2491 115.787 93.6635C109.608 95.0775 105.735 101.169 107.128 107.239C108.52 113.309 114.677 117.073 120.856 115.659Z" fill="#D1E4F3"/>
<path fill-rule="evenodd" clip-rule="evenodd" d="M120.812 115.462C126.882 114.07 130.711 108.087 129.319 102.126C127.948 96.1646 121.9 92.4662 115.83 93.8588C109.76 95.2508 105.931 101.234 107.302 107.195C108.672 113.156 114.721 116.877 120.791 115.462H120.812ZM120.943 116.028C127.339 114.549 131.342 108.283 129.907 101.995C128.471 95.7295 122.118 91.8353 115.721 93.2931C109.325 94.7722 105.322 101.038 106.758 107.326C108.194 113.591 114.547 117.486 120.943 116.028Z" fill="#D1E4F3"/>
<path fill-rule="evenodd" clip-rule="evenodd" d="M120.899 115.832C127.187 114.396 131.124 108.218 129.71 102.039C128.296 95.8601 122.031 92.0311 115.743 93.4888C109.456 94.9463 105.518 101.103 106.932 107.282C108.346 113.461 114.612 117.29 120.899 115.832ZM121.03 116.398C127.622 114.875 131.777 108.392 130.276 101.908C128.775 95.4249 122.227 91.4002 115.612 92.9231C109.02 94.4461 104.865 100.929 106.366 107.413C107.867 113.896 114.416 117.921 121.03 116.398Z" fill="#D0E3F2"/>
<path fill-rule="evenodd" clip-rule="evenodd" d="M120.986 116.224C127.491 114.723 131.56 108.348 130.102 101.974C128.644 95.5991 122.183 91.6394 115.678 93.1408C109.173 94.6418 105.104 101.016 106.562 107.391C108.02 113.765 114.481 117.725 120.986 116.224ZM121.117 116.789C127.926 115.223 132.191 108.522 130.668 101.843C129.123 95.164 122.357 91.0085 115.547 92.575C108.737 94.1416 104.473 100.842 105.996 107.521C107.541 114.201 114.307 118.356 121.117 116.789Z" fill="#CDE1F2"/>
<path fill-rule="evenodd" clip-rule="evenodd" d="M121.073 116.594C127.774 115.05 131.995 108.458 130.472 101.887C128.949 95.295 122.292 91.2267 115.591 92.7714C108.89 94.3161 104.669 100.908 106.192 107.478C107.715 114.07 114.373 118.139 121.073 116.616V116.594ZM121.204 117.16C128.231 115.55 132.626 108.653 131.037 101.757C129.449 94.8598 122.466 90.5958 115.46 92.2058C108.433 93.8159 104.038 100.712 105.626 107.609C107.215 114.506 114.198 118.77 121.204 117.16Z" fill="#CCE1F1"/>
<path fill-rule="evenodd" clip-rule="evenodd" d="M121.16 116.963C128.079 115.375 132.408 108.587 130.863 101.777C129.297 94.9892 122.422 90.7686 115.504 92.3569C108.585 93.9452 104.256 100.755 105.8 107.543C107.345 114.33 114.242 118.551 121.16 116.963ZM121.291 117.529C128.514 115.853 133.061 108.761 131.429 101.668C129.797 94.576 122.618 90.1595 115.373 91.8347C108.15 93.5101 103.603 100.602 105.235 107.695C106.867 114.787 114.046 119.204 121.291 117.529Z" fill="#CCE1F1"/>
<path fill-rule="evenodd" clip-rule="evenodd" d="M121.247 117.334C128.384 115.702 132.844 108.696 131.234 101.691C129.624 94.6854 122.531 90.3559 115.417 91.9876C108.281 93.6195 103.821 100.625 105.431 107.63C107.041 114.636 114.133 118.965 121.247 117.334ZM121.378 117.899C128.819 116.18 133.496 108.87 131.799 101.582C130.124 94.2718 122.727 89.7468 115.286 91.4655C107.846 93.1844 103.168 100.494 104.865 107.783C106.54 115.092 113.937 119.618 121.378 117.899Z" fill="#C9DFF1"/>
<path fill-rule="evenodd" clip-rule="evenodd" d="M121.334 117.703C128.666 116.006 133.278 108.805 131.625 101.603C129.972 94.4022 122.683 89.9421 115.351 91.6174C108.02 93.3143 103.407 100.516 105.061 107.717C106.714 114.918 114.002 119.378 121.334 117.703ZM121.465 118.269C129.123 116.506 133.909 109 132.191 101.473C130.472 93.967 122.857 89.3112 115.221 91.0517C107.562 92.814 102.776 100.32 104.495 107.847C106.214 115.353 113.828 120.009 121.465 118.247V118.269Z" fill="#C8DEF0"/>
<path fill-rule="evenodd" clip-rule="evenodd" d="M121.421 118.073C128.971 116.332 133.692 108.913 131.995 101.517C130.298 94.1193 122.792 89.5071 115.242 91.2476C107.693 92.9883 102.972 100.407 104.669 107.804C106.366 115.201 113.872 119.813 121.421 118.073ZM121.552 118.639C129.406 116.833 134.344 109.109 132.56 101.386C130.776 93.6626 122.966 88.8762 115.112 90.682C107.258 92.4877 102.319 100.211 104.103 107.935C105.887 115.658 113.698 120.444 121.552 118.639Z" fill="#C6DDF0"/>
<path fill-rule="evenodd" clip-rule="evenodd" d="M121.508 118.442C129.253 116.658 134.127 109.043 132.386 101.429C130.624 93.8141 122.922 89.093 115.177 90.8771C107.432 92.661 102.559 100.276 104.299 107.89C106.061 115.505 113.763 120.226 121.508 118.442ZM121.639 119.008C129.71 117.159 134.78 109.218 132.952 101.298C131.124 93.379 123.118 88.4621 115.047 90.3114C106.975 92.1607 101.906 100.102 103.734 108.021C105.561 115.94 113.567 120.857 121.639 119.008Z" fill="#C3DCEF"/>
<path fill-rule="evenodd" clip-rule="evenodd" d="M121.595 118.813C129.558 116.985 134.562 109.153 132.756 101.342C130.95 93.532 123.031 88.6803 115.068 90.5079C107.106 92.3353 102.102 100.168 103.908 107.978C105.713 115.789 113.633 120.64 121.595 118.813ZM121.726 119.378C129.993 117.464 135.193 109.349 133.322 101.212C131.451 93.0749 123.227 88.0494 114.938 89.9422C106.671 91.8567 101.471 99.9716 103.342 108.109C105.213 116.245 113.437 121.271 121.726 119.378Z" fill="#C3DCEF"/>
<path fill-rule="evenodd" clip-rule="evenodd" d="M121.66 119.205C129.841 117.334 134.954 109.285 133.126 101.278C131.277 93.2501 123.162 88.2681 114.981 90.1609C106.801 92.0319 101.689 100.082 103.516 108.088C105.365 116.116 113.48 121.098 121.66 119.205ZM121.791 119.771C130.276 117.813 135.606 109.48 133.692 101.148C131.777 92.8152 123.336 87.6372 114.851 89.5953C106.366 91.5533 101.036 99.8858 102.95 108.218C104.865 116.551 113.306 121.729 121.791 119.771Z" fill="#C2DBEF"/>
<path fill-rule="evenodd" clip-rule="evenodd" d="M121.747 119.574C130.124 117.638 135.389 109.414 133.496 101.168C131.603 92.9444 123.27 87.8317 114.894 89.768C106.519 91.7043 101.253 99.9281 103.146 108.174C105.039 116.397 113.372 121.51 121.747 119.574ZM121.878 120.14C130.581 118.138 136.041 109.588 134.061 101.059C132.104 92.5093 123.445 87.2226 114.764 89.2241C106.061 91.2257 100.601 99.776 102.58 108.304C104.538 116.833 113.198 122.141 121.878 120.14Z" fill="#BFD9EE"/>
<path fill-rule="evenodd" clip-rule="evenodd" d="M121.835 119.945C130.428 117.965 135.824 109.524 133.866 101.082C131.93 92.641 123.379 87.4196 114.786 89.3994C106.192 91.3792 100.797 99.8206 102.754 108.262C104.691 116.703 113.241 121.925 121.835 119.967V119.945ZM121.965 120.511C130.863 118.466 136.455 109.72 134.453 100.974C132.452 92.2276 123.597 86.8104 114.677 88.8555C105.779 90.9005 100.187 99.6465 102.189 108.392C104.212 117.138 113.045 122.556 121.965 120.511Z" fill="#BED9EE"/>
<path fill-rule="evenodd" clip-rule="evenodd" d="M121.922 120.313C130.733 118.29 136.237 109.631 134.257 100.994C132.278 92.3568 123.51 86.983 114.721 89.0063C105.909 91.0296 100.405 99.6886 102.385 108.326C104.364 116.963 113.132 122.337 121.922 120.313ZM122.052 120.879C131.168 118.79 136.89 109.827 134.823 100.864C132.756 91.9216 123.706 86.3521 114.59 88.4624C105.474 90.551 99.7523 99.5146 101.819 108.478C103.886 117.42 112.937 122.989 122.052 120.879Z" fill="#BBD7ED"/>
<path fill-rule="evenodd" clip-rule="evenodd" d="M122.009 120.684C131.016 118.617 136.672 109.762 134.649 100.907C132.604 92.0526 123.662 86.57 114.633 88.6369C105.626 90.7037 99.9699 99.5583 101.993 108.413C104.038 117.268 112.98 122.75 122.009 120.684ZM122.139 121.249C131.473 119.096 137.325 109.936 135.215 100.777C133.104 91.6175 123.836 85.9391 114.503 88.093C105.17 90.2468 99.3172 99.4062 101.427 108.566C103.538 117.725 112.806 123.403 122.139 121.249Z" fill="#BBD7ED"/>
<path fill-rule="evenodd" clip-rule="evenodd" d="M122.096 121.053C131.32 118.921 137.108 109.87 135.019 100.82C132.93 91.7692 123.771 86.1562 114.547 88.2665C105.322 90.3986 99.5348 99.4491 101.623 108.5C103.712 117.55 112.871 123.163 122.096 121.053ZM122.227 121.619C131.756 119.421 137.738 110.066 135.585 100.689C133.431 91.3341 123.945 85.5252 114.416 87.7226C104.887 89.92 98.904 99.2969 101.058 108.652C103.211 118.007 112.697 123.816 122.227 121.619Z" fill="#BAD6ED"/>
<path fill-rule="evenodd" clip-rule="evenodd" d="M122.183 121.424C131.603 119.248 137.521 109.98 135.389 100.734C133.257 91.4653 123.88 85.7217 114.459 87.8973C105.039 90.0729 99.1213 99.3411 101.232 108.588C103.364 117.856 112.741 123.599 122.161 121.424H122.183ZM122.313 121.989C132.06 119.748 138.174 110.176 135.976 100.603C133.779 91.0302 124.097 85.0908 114.351 87.3317C104.604 89.5726 98.4905 99.1451 100.688 108.718C102.885 118.291 112.567 124.23 122.313 121.989Z" fill="#B8D5EC"/>
<path fill-rule="evenodd" clip-rule="evenodd" d="M122.27 121.793C131.908 119.574 137.956 110.11 135.78 100.646C133.605 91.182 124.011 85.3079 114.373 87.527C104.734 89.7461 98.6865 99.2099 100.862 108.674C103.037 118.138 112.632 124.012 122.27 121.793ZM122.401 122.358C132.365 120.074 138.609 110.284 136.346 100.515C134.105 90.7469 124.206 84.6769 114.242 86.9613C104.278 89.2457 98.0338 99.0359 100.296 108.804C102.537 118.573 112.436 124.643 122.401 122.358Z" fill="#B6D4EC"/>
<path fill-rule="evenodd" clip-rule="evenodd" d="M122.357 122.186C132.212 119.923 138.391 110.241 136.172 100.56C133.953 90.8786 124.163 84.8956 114.307 87.1583C104.451 89.4209 98.2729 99.1022 100.492 108.784C102.711 118.443 112.501 124.448 122.357 122.186ZM122.488 122.751C132.647 120.402 139.022 110.415 136.738 100.451C134.432 90.4652 124.337 84.2864 114.177 86.6143C104.017 88.964 97.6422 98.9501 99.9265 108.914C102.233 118.9 112.327 125.079 122.488 122.751Z" fill="#B4D3EB"/>
<path fill-rule="evenodd" clip-rule="evenodd" d="M122.444 122.554C132.495 120.248 138.826 110.349 136.542 100.472C134.279 90.5945 124.272 84.4593 114.22 86.7871C104.169 89.0933 97.8378 98.9924 100.122 108.87C102.385 118.747 112.393 124.882 122.444 122.554ZM122.575 123.12C132.952 120.727 139.457 110.545 137.108 100.363C134.758 90.1811 124.446 83.8501 114.09 86.2433C103.712 88.6364 97.207 98.8183 99.5568 109C101.906 119.182 112.219 125.513 122.575 123.12Z" fill="#B4D3EB"/>
<path fill-rule="evenodd" clip-rule="evenodd" d="M122.531 122.924C132.8 120.553 139.24 110.48 136.934 100.385C134.606 90.3118 124.402 84.0461 114.133 86.4175C103.864 88.7889 97.4245 98.8619 99.7308 108.957C102.059 119.03 112.262 125.296 122.531 122.924ZM122.662 123.49C133.235 121.053 139.892 110.654 137.499 100.254C135.106 89.855 124.598 83.4152 114.002 85.8518C103.429 88.2885 96.7718 98.6878 99.1651 109.066C101.558 119.465 112.066 125.905 122.662 123.468V123.49Z" fill="#B2D2EB"/>
<path fill-rule="evenodd" clip-rule="evenodd" d="M122.618 123.295C133.104 120.88 139.675 110.59 137.303 100.299C134.932 90.0084 124.511 83.6339 114.046 86.0488C103.56 88.4638 96.9891 98.7544 99.3608 109.045C101.732 119.335 112.153 125.71 122.618 123.295ZM122.748 123.861C133.539 121.381 140.305 110.764 137.869 100.169C135.432 89.5733 124.706 83.003 113.915 85.4832C103.125 87.9634 96.3584 98.5803 98.7951 109.176C101.231 119.771 111.957 126.341 122.748 123.861Z" fill="#B0D1EA"/>
<path fill-rule="evenodd" clip-rule="evenodd" d="M122.705 123.665C133.387 121.206 140.11 110.699 137.695 100.212C135.28 89.7256 124.663 83.1987 113.959 85.6572C103.277 88.1156 96.5543 98.6237 98.9691 109.11C101.384 119.597 112.001 126.124 122.705 123.665ZM122.836 124.231C133.844 121.707 140.741 110.894 138.261 100.082C135.78 89.2687 124.837 82.5678 113.828 85.1133C102.82 87.637 95.9231 98.4497 98.4034 109.263C100.884 120.076 111.827 126.776 122.836 124.231Z" fill="#ADCFEA"/>
<path fill-rule="evenodd" clip-rule="evenodd" d="M122.792 124.035C133.692 121.532 140.523 110.828 138.065 100.124C135.606 89.4205 124.772 82.7849 113.872 85.2868C102.972 87.7888 96.1407 98.4929 98.599 109.197C101.058 119.901 111.892 126.536 122.792 124.035ZM122.922 124.6C134.127 122.011 141.176 111.002 138.63 99.9939C136.107 88.9854 124.946 82.1539 113.741 84.7429C102.537 87.3319 95.488 98.3404 98.0333 109.349C100.557 120.358 111.718 127.189 122.922 124.6Z" fill="#ADCFEA"/>
<path fill-rule="evenodd" clip-rule="evenodd" d="M122.879 124.404C133.996 121.837 140.959 110.937 138.456 100.037C135.954 89.1371 124.902 82.371 113.807 84.9165C102.689 87.4837 95.7275 98.3836 98.2294 109.283C100.731 120.183 111.784 126.949 122.879 124.404ZM123.01 124.97C134.431 122.337 141.589 111.111 139.022 99.9062C136.433 88.702 125.098 81.7401 113.676 84.3726C102.254 87.0051 95.0964 98.2312 97.6637 109.436C100.231 120.64 111.588 127.602 123.01 124.97Z" fill="#ACCFE9"/>
<path fill-rule="evenodd" clip-rule="evenodd" d="M122.966 124.774C134.279 122.163 141.393 111.046 138.826 99.9288C136.259 88.8115 125.011 81.9148 113.698 84.5256C102.385 87.1363 95.2704 98.2538 97.8377 109.371C100.405 120.488 111.653 127.385 122.966 124.774ZM123.096 125.34C134.736 122.664 142.024 111.242 139.392 99.8203C136.759 88.3981 125.207 81.3056 113.567 83.9816C101.928 86.6576 94.6396 98.0797 97.272 109.501C99.9044 120.924 111.457 128.016 123.096 125.34Z" fill="#A9CDE9"/>
<path fill-rule="evenodd" clip-rule="evenodd" d="M123.053 125.166C134.584 122.512 141.807 111.199 139.218 99.8635C136.607 88.5504 125.163 81.5232 113.632 84.1774C102.102 86.8317 94.8788 98.1449 97.4676 109.48C100.078 120.793 111.522 127.82 123.053 125.166ZM123.183 125.732C135.019 123.012 142.459 111.373 139.783 99.7549C137.107 88.137 125.337 80.914 113.502 83.6335C101.666 86.353 94.2261 97.9924 96.9019 109.61C99.5782 121.228 111.348 128.451 123.183 125.732Z" fill="#A8CCE8"/>
<path fill-rule="evenodd" clip-rule="evenodd" d="M123.14 125.536C134.867 122.838 142.242 111.308 139.588 99.7771C136.933 88.2462 125.272 81.1102 113.546 83.808C101.819 86.5057 94.4437 98.0365 97.098 109.567C99.7523 121.098 111.414 128.234 123.14 125.536ZM123.271 126.102C135.324 123.339 142.873 111.482 140.153 99.6681C137.434 87.8328 125.446 80.501 113.393 83.2641C101.34 86.0271 93.791 97.8841 96.5107 109.698C99.2302 121.533 111.218 128.865 123.271 126.102Z" fill="#A5CBE8"/>
<path fill-rule="evenodd" clip-rule="evenodd" d="M123.205 125.905C135.149 123.163 142.655 111.415 139.957 99.6886C137.26 87.9619 125.381 80.6736 113.437 83.4366C101.493 86.1779 93.987 97.9262 96.6844 109.653C99.3823 121.379 111.261 128.667 123.205 125.905ZM123.336 126.47C135.606 123.642 143.286 111.611 140.523 99.5581C137.76 87.5268 125.577 80.0427 113.306 82.871C101.036 85.6993 93.3558 97.7305 96.1188 109.783C98.8821 121.814 111.065 129.299 123.336 126.47Z" fill="#A5CBE8"/>
<path fill-rule="evenodd" clip-rule="evenodd" d="M123.292 126.275C135.454 123.468 143.069 111.524 140.327 99.6018C137.586 87.6577 125.49 80.2606 113.35 83.0672C101.188 85.8737 93.5734 97.8178 96.3148 109.74C99.0561 121.684 111.153 129.081 123.292 126.275ZM123.423 126.841C135.889 123.969 143.721 111.72 140.893 99.4713C138.065 87.2226 125.685 79.6297 113.219 82.5015C100.753 85.3733 92.9207 97.6222 95.7491 109.871C98.5775 122.12 110.957 129.712 123.423 126.841Z" fill="#A4CAE7"/>
<path fill-rule="evenodd" clip-rule="evenodd" d="M123.379 126.644C135.737 123.794 143.504 111.654 140.719 99.5142C137.934 87.3744 125.642 79.8468 113.263 82.6969C100.905 85.5469 93.1383 97.687 95.9232 109.827C98.708 121.967 111 129.494 123.379 126.644ZM123.51 127.21C136.194 124.295 144.135 111.828 141.285 99.3836C138.413 86.9393 125.816 79.2159 113.132 82.1312C100.449 85.0465 92.5075 97.5129 95.3575 109.957C98.2294 122.402 110.826 130.125 123.51 127.21Z" fill="#A1C9E7"/>
<path fill-rule="evenodd" clip-rule="evenodd" d="M123.467 127.014C136.042 124.12 143.939 111.763 141.089 99.4274C138.239 87.0915 125.751 79.4116 113.176 82.3052C100.601 85.1988 92.7033 97.5563 95.5532 109.892C98.4035 122.228 110.891 129.908 123.467 127.014ZM123.597 127.58C136.477 124.621 144.57 111.959 141.654 99.2969C138.739 86.6346 125.925 78.7807 113.045 81.7613C100.166 84.7201 92.0723 97.3823 94.9879 110.044C97.9029 122.706 110.717 130.56 123.597 127.58Z" fill="#A0C8E6"/>
<path fill-rule="evenodd" clip-rule="evenodd" d="M123.553 127.385C136.346 124.448 144.352 111.873 141.459 99.3417C138.565 86.7884 125.86 78.9997 113.089 81.9368C100.296 84.8738 92.29 97.4491 95.1619 110.002C98.0553 122.556 110.761 130.344 123.532 127.407L123.553 127.385ZM123.684 127.951C136.781 124.927 145.005 112.069 142.046 99.2112C139.087 86.3533 126.077 78.3688 112.98 81.3929C99.8829 84.4169 91.659 97.275 94.6178 110.133C97.5767 122.99 110.587 130.975 123.684 127.951Z" fill="#9DC7E6"/>
<path fill-rule="evenodd" clip-rule="evenodd" d="M123.641 127.754C136.629 124.773 144.787 112.002 141.85 99.2316C138.913 86.4825 125.99 78.5633 113.002 81.5439C100.014 84.5244 91.8548 97.2954 94.7919 110.066C97.7289 122.815 110.652 130.734 123.641 127.754ZM123.771 128.319C137.086 125.252 145.418 112.176 142.416 99.1226C139.414 86.0474 126.186 77.9541 112.871 81.0217C99.5564 84.0893 91.2239 97.1649 94.2262 110.219C97.2286 123.294 110.456 131.387 123.771 128.319Z" fill="#9DC7E6"/>
<path fill-rule="evenodd" clip-rule="evenodd" d="M123.728 128.145C136.933 125.1 145.222 112.133 142.242 99.1664C139.261 86.1996 126.142 78.1499 112.936 81.1957C99.7304 84.2416 91.4413 97.2083 94.4217 110.175C97.4026 123.142 110.521 131.191 123.728 128.145ZM123.858 128.711C137.368 125.6 145.853 112.329 142.808 99.0575C139.762 85.7863 126.316 77.5407 112.806 80.6519C99.2953 83.763 90.8104 97.0343 93.8561 110.306C96.902 123.577 110.347 131.822 123.858 128.711Z" fill="#9BC6E5"/>
<path fill-rule="evenodd" clip-rule="evenodd" d="M123.815 128.516C137.238 125.427 145.636 112.242 142.612 99.0801C139.588 85.9176 126.251 77.7373 112.828 80.8266C99.4042 83.916 91.0063 97.1004 94.0305 110.263C97.0545 123.425 110.391 131.605 123.815 128.516ZM123.945 129.082C137.673 125.927 146.289 112.438 143.177 98.9495C140.066 85.4825 126.425 77.1063 112.697 80.261C98.9691 83.4156 90.3536 96.9044 93.4648 110.393C96.5758 123.86 110.217 132.236 123.945 129.082Z" fill="#99C5E5"/>
<path fill-rule="evenodd" clip-rule="evenodd" d="M123.902 128.887C137.521 125.754 146.071 112.374 143.004 98.9935C139.914 85.6136 126.382 77.3246 112.763 80.4574C99.1432 83.5903 90.5931 96.9703 93.6609 110.35C96.75 123.73 110.282 132.02 123.902 128.887ZM124.032 129.452C137.978 126.254 146.724 112.548 143.569 98.863C140.414 85.1785 126.578 76.6936 112.632 79.8918C98.6865 83.0899 89.9404 96.7963 93.0952 110.481C96.2497 124.166 110.087 132.65 124.032 129.452Z" fill="#97C3E4"/>
<path fill-rule="evenodd" clip-rule="evenodd" d="M123.989 129.255C137.826 126.079 146.506 112.481 143.373 98.9053C140.24 85.3296 126.49 76.8882 112.676 80.0864C98.8386 83.2628 90.1579 96.8605 93.2908 110.436C96.4238 124.012 110.173 132.453 123.989 129.255ZM124.119 129.821C138.261 126.558 147.137 112.655 143.939 98.7747C140.741 84.8945 126.686 76.2573 112.545 79.5207C98.4034 82.7841 89.5269 96.6645 92.7251 110.566C95.9232 124.447 109.978 133.084 124.119 129.821Z" fill="#97C3E4"/>
<path fill-rule="evenodd" clip-rule="evenodd" d="M124.076 129.625C138.108 126.384 146.919 112.591 143.765 98.8191C140.588 85.0256 126.643 76.4755 112.588 79.7172C98.5555 82.9588 89.7444 96.7524 92.8991 110.524C96.0753 124.317 110.021 132.867 124.076 129.625ZM124.206 130.191C138.565 126.885 147.572 112.787 144.331 98.6885C141.089 84.5905 126.817 75.8446 112.458 79.1515C98.0988 82.4584 89.0917 96.5564 92.3334 110.654C95.575 124.752 109.847 133.498 124.206 130.191Z" fill="#95C3E4"/>
<path fill-rule="evenodd" clip-rule="evenodd" d="M124.163 129.995C138.413 126.71 147.355 112.721 144.135 98.7314C140.915 84.7423 126.752 76.0616 112.501 79.3468C98.2513 82.632 89.3094 96.6211 92.5293 110.61C95.7491 124.6 109.913 133.28 124.163 129.995ZM124.293 130.561C138.848 127.21 148.007 112.895 144.7 98.6008C141.415 84.3072 126.926 75.4307 112.371 78.7811C97.8162 82.1316 88.6567 96.4471 91.9636 110.741C95.2489 125.035 109.738 133.911 124.293 130.561Z" fill="#93C1E3"/>
<path fill-rule="evenodd" clip-rule="evenodd" d="M124.25 130.365C138.717 127.036 147.79 112.829 144.526 98.6227C141.263 84.4159 126.882 75.6047 112.436 78.9334C97.9683 82.2621 88.896 96.469 92.1594 110.676C95.4229 124.882 109.804 133.693 124.25 130.365ZM124.38 130.931C139.153 127.536 148.42 113.003 145.092 98.5137C141.763 84.0025 127.078 74.9955 112.284 78.4112C97.5112 81.8052 88.2433 96.3384 91.5719 110.828C94.9008 125.339 109.586 134.346 124.38 130.931Z" fill="#91C0E3"/>
<path fill-rule="evenodd" clip-rule="evenodd" d="M124.337 130.736C139 127.364 148.203 112.939 144.896 98.5367C141.589 84.1343 126.991 75.1925 112.327 78.5647C97.6637 81.9369 88.4609 96.3611 91.7679 110.764C95.0748 125.166 109.673 134.108 124.337 130.736ZM124.467 131.302C139.457 127.842 148.856 113.135 145.462 98.4282C142.068 83.7209 127.187 74.5834 112.197 78.0426C97.207 81.5018 87.8082 96.209 91.2022 110.916C94.5962 125.623 109.477 134.761 124.467 131.302Z" fill="#8EBFE2"/>
<path fill-rule="evenodd" clip-rule="evenodd" d="M124.424 131.126C139.305 127.71 148.638 113.09 145.288 98.4701C141.916 83.8719 127.143 74.7996 112.262 78.2153C97.3811 81.631 88.0476 96.2509 91.398 110.871C94.7703 125.47 109.543 134.542 124.424 131.126ZM124.554 131.692C139.74 128.189 149.291 113.264 145.854 98.3396C142.416 83.415 127.317 74.1687 112.131 77.6714C96.946 81.1741 87.3949 96.0988 90.8323 111.024C94.2697 125.948 109.369 135.194 124.554 131.692Z" fill="#8EBFE2"/>
<path fill-rule="evenodd" clip-rule="evenodd" d="M124.511 131.496C139.609 128.015 149.073 113.199 145.658 98.3829C142.242 83.5671 127.252 74.3643 112.153 77.8453C97.0545 81.3262 87.5905 96.1421 91.0062 110.958C94.4217 125.774 109.412 134.977 124.511 131.496ZM124.641 132.062C140.044 128.515 149.704 113.373 146.223 98.2523C142.742 83.132 127.426 73.7333 112.023 77.2796C96.6193 80.8259 86.9595 95.9681 90.4405 111.088C93.9215 126.209 109.238 135.608 124.641 132.062Z" fill="#8DBEE2"/>
<path fill-rule="evenodd" clip-rule="evenodd" d="M124.598 131.866C139.892 128.342 149.487 113.308 146.049 98.2965C142.59 83.2847 127.383 73.9513 112.088 77.4758C96.7934 81.0003 87.199 96.0337 90.6364 111.046C94.0955 126.057 109.303 135.39 124.598 131.866ZM124.728 132.432C140.349 128.842 150.139 113.504 146.615 98.1659C143.09 82.8278 127.578 73.3204 111.957 76.9101C96.3367 80.4999 86.5463 95.8381 90.0708 111.176C93.5953 126.514 109.107 136.022 124.728 132.432Z" fill="#8ABDE1"/>
<path fill-rule="evenodd" clip-rule="evenodd" d="M124.663 132.236C140.175 128.667 149.9 113.438 146.397 98.2088C142.895 82.9796 127.47 73.5375 111.979 77.1055C96.4669 80.6734 86.7421 95.9029 90.2449 111.132C93.7475 126.361 109.173 135.803 124.663 132.236ZM124.793 132.801C140.61 129.168 150.553 113.612 146.963 98.0782C143.395 82.5445 127.665 72.9065 111.849 76.5398C96.0318 80.173 86.0895 95.7289 89.6792 111.262C93.2473 126.796 108.977 136.434 124.793 132.801Z" fill="#88BCE1"/>
<path fill-rule="evenodd" clip-rule="evenodd" d="M124.75 132.606C140.458 128.995 150.335 113.548 146.789 98.1232C143.243 82.698 127.622 73.1035 111.892 76.7368C96.1843 80.3483 86.307 95.795 89.8532 111.22C93.3994 126.645 109.02 136.24 124.75 132.606ZM124.881 133.172C140.915 129.474 150.966 113.722 147.355 97.9926C143.721 82.2628 127.796 72.4944 111.762 76.1711C95.7272 79.8697 85.676 95.621 89.2875 111.351C92.9208 127.08 108.846 136.849 124.881 133.172Z" fill="#86BBE0"/>
<path fill-rule="evenodd" clip-rule="evenodd" d="M124.837 132.977C140.762 129.3 150.749 113.657 147.159 98.0143C143.569 82.3718 127.73 72.6685 111.805 76.3453C95.8796 80.0003 85.8936 95.6646 89.4833 111.308C93.0732 126.95 108.911 136.653 124.837 132.977ZM124.967 133.542C141.219 129.8 151.401 113.853 147.724 97.9057C144.048 81.9584 127.904 72.0594 111.675 75.8014C95.4225 79.5435 85.2409 95.4906 88.9176 111.438C92.5944 127.385 108.737 137.284 124.967 133.542Z" fill="#86BBE0"/>
<path fill-rule="evenodd" clip-rule="evenodd" d="M124.924 133.346C141.067 129.625 151.184 113.787 147.55 97.9268C143.895 82.0882 127.861 72.2545 111.718 75.9748C95.5751 79.6951 85.4585 95.5336 89.1135 111.394C92.7685 127.232 108.803 137.066 124.946 133.346H124.924ZM125.055 133.911C141.502 130.126 151.837 113.961 148.116 97.8178C144.396 81.6749 128.057 71.6453 111.588 75.4308C95.1399 79.2164 84.8058 95.3811 88.5261 111.524C92.2464 127.667 108.585 137.697 125.055 133.911Z" fill="#83BAE0"/>
<path fill-rule="evenodd" clip-rule="evenodd" d="M125.011 133.715C141.35 129.951 151.619 113.895 147.92 97.8395C144.222 81.7834 127.97 71.8191 111.631 75.5829C95.2924 79.3467 85.0234 95.4027 88.722 111.459C92.4205 127.515 108.672 137.479 125.011 133.715ZM125.142 134.281C141.807 130.452 152.25 114.069 148.486 97.709C144.722 81.3482 128.166 71.1881 111.501 75.039C94.8354 78.868 84.3925 95.2503 88.1563 111.611C91.9201 127.972 108.477 138.11 125.142 134.281Z" fill="#82B9DF"/>
<path fill-rule="evenodd" clip-rule="evenodd" d="M125.098 134.107C141.654 130.299 152.032 114.026 148.312 97.7739C144.57 81.522 128.122 71.4272 111.566 75.2345C95.0094 79.0418 84.6317 95.3152 88.352 111.567C92.0941 127.819 108.542 137.914 125.098 134.107ZM125.229 134.672C142.089 130.8 152.685 114.221 148.878 97.6434C145.07 81.0869 128.296 70.7962 111.435 74.6906C94.5742 78.5632 83.9791 95.1412 87.7864 111.719C91.5937 128.298 108.368 138.567 125.229 134.672Z" fill="#7FB7DF"/>
<path fill-rule="evenodd" clip-rule="evenodd" d="M125.185 134.477C141.959 130.626 152.467 114.135 148.682 97.6874C144.896 81.2181 128.231 71.0144 111.457 74.8653C94.6832 78.7161 84.175 95.2071 87.9605 111.655C91.7461 128.124 108.411 138.328 125.185 134.477ZM125.316 135.043C142.394 131.105 153.12 114.331 149.248 97.5568C145.397 80.7829 128.405 70.3835 111.327 74.3214C94.2481 78.2592 83.5223 95.033 87.3949 111.807C91.2457 128.581 108.237 138.981 125.316 135.043Z" fill="#7FB7DF"/>
<path fill-rule="evenodd" clip-rule="evenodd" d="M125.272 134.847C142.242 130.931 152.902 114.266 149.073 97.6008C145.244 80.9355 128.362 70.6013 111.392 74.4957C94.4222 78.4118 83.7615 95.077 87.5906 111.742C91.4196 128.407 108.303 138.741 125.272 134.847ZM125.403 135.413C142.699 131.432 153.533 114.44 149.639 97.4702C145.723 80.5003 128.557 69.9704 111.261 73.93C93.9651 77.9114 83.1306 94.9029 87.0249 111.873C90.941 128.842 108.107 139.372 125.403 135.413Z" fill="#7DB7DE"/>
<path fill-rule="evenodd" clip-rule="evenodd" d="M125.359 135.217C142.547 131.257 153.338 114.375 149.443 97.5137C145.571 80.6308 128.47 70.1661 111.305 74.1258C94.1175 78.0853 83.3263 94.9679 87.2207 111.829C91.0933 128.712 108.194 139.177 125.359 135.217ZM125.49 135.782C142.982 131.758 153.968 114.57 150.009 97.3831C146.049 80.1957 128.666 69.5352 111.152 73.5601C93.6604 77.585 82.6736 94.7723 86.6332 111.96C90.5928 129.147 107.976 139.807 125.49 135.782Z" fill="#7BB5DE"/>
<path fill-rule="evenodd" clip-rule="evenodd" d="M125.446 135.586C142.851 131.583 153.751 114.483 149.835 97.4044C145.897 80.3257 128.623 69.7305 111.218 73.7336C93.8129 77.7367 82.913 94.8371 86.8292 111.916C90.767 128.994 108.041 139.589 125.446 135.586ZM125.577 136.152C143.286 132.084 154.404 114.679 150.401 97.2954C146.397 79.9124 128.797 69.1213 111.087 73.1897C93.3778 77.2581 82.2603 94.663 86.2635 112.046C90.2666 129.429 107.867 140.22 125.577 136.152Z" fill="#79B4DD"/>
<path fill-rule="evenodd" clip-rule="evenodd" d="M125.533 135.956C143.134 131.91 154.186 114.614 150.205 97.3176C146.223 80.0433 128.732 69.3176 111.131 73.3642C93.5303 77.4108 82.4781 94.7068 86.4594 112.003C90.4408 129.277 107.933 140.003 125.533 135.956ZM125.664 136.522C143.591 132.388 154.817 114.788 150.771 97.209C146.724 79.6082 128.906 68.7084 111 72.8203C93.0733 76.9539 81.8471 94.5547 85.8938 112.133C89.9404 129.734 107.759 140.634 125.664 136.522Z" fill="#76B3DD"/>
<path fill-rule="evenodd" clip-rule="evenodd" d="M125.62 136.326C143.438 132.236 154.621 114.722 150.596 97.2303C146.571 79.7384 128.862 68.8821 111.044 72.994C93.2254 77.0842 82.0427 94.5979 86.0676 112.09C90.0925 129.582 107.802 140.438 125.62 136.326ZM125.751 136.892C143.874 132.715 155.252 114.918 151.162 97.0997C147.072 79.2815 129.058 68.2512 110.913 72.4284C92.7902 76.6055 81.4118 94.4019 85.5019 112.22C89.5921 130.017 107.606 141.069 125.751 136.892Z" fill="#76B3DD"/>
<path fill-rule="evenodd" clip-rule="evenodd" d="M125.707 136.697C143.721 132.542 155.035 114.832 150.966 97.1443C146.898 79.4568 128.971 68.47 110.956 72.6254C92.9427 76.7808 81.6293 94.4904 85.6977 112.178C89.7661 129.866 107.693 140.852 125.707 136.697ZM125.838 137.263C144.178 133.042 155.687 115.028 151.532 97.0138C147.398 78.9999 129.166 67.8391 110.826 72.0597C92.4856 76.2804 80.9767 94.2944 85.1321 112.309C89.2657 130.322 107.497 141.483 125.838 137.263Z" fill="#74B2DC"/>
<path fill-rule="evenodd" clip-rule="evenodd" d="M125.794 137.089C144.026 132.89 155.47 114.985 151.358 97.0794C147.246 79.1739 129.123 68.0783 110.891 72.2555C92.6597 76.4544 81.216 94.3596 85.3279 112.265C89.4398 130.17 107.563 141.266 125.794 137.089ZM125.925 137.654C144.483 133.39 156.101 115.159 151.923 96.9489C147.724 78.7388 129.297 67.4474 110.761 71.7116C92.2246 75.9758 80.5851 94.2075 84.7623 112.417C88.9612 130.627 107.388 141.918 125.925 137.654Z" fill="#71B1DC"/>
<path fill-rule="evenodd" clip-rule="evenodd" d="M125.881 137.457C144.331 133.215 155.905 115.092 151.728 96.9911C147.55 78.8899 129.232 67.6419 110.783 71.8844C92.3335 76.1269 80.7593 94.2498 84.9364 112.351C89.1136 130.452 107.432 141.7 125.881 137.457ZM126.012 138.023C144.766 133.715 156.536 115.288 152.293 96.8606C148.051 78.4548 129.406 67.011 110.652 71.3405C91.8984 75.6482 80.1283 94.0973 84.3708 112.503C88.6132 130.909 107.258 142.352 126.012 138.023Z" fill="#70B0DB"/>
<path fill-rule="evenodd" clip-rule="evenodd" d="M125.968 137.828C144.613 133.542 156.318 115.201 152.119 96.9046C147.898 78.5859 129.362 67.2293 110.717 71.5152C92.0723 75.8012 80.3675 94.1417 84.5664 112.439C88.7654 130.735 107.323 142.114 125.968 137.828ZM126.099 138.393C145.07 134.02 156.971 115.397 152.685 96.774C148.399 78.1508 129.558 66.5983 110.587 70.9713C91.6154 75.3443 79.7148 93.9676 84.0008 112.591C88.2867 131.214 107.127 142.766 126.099 138.393Z" fill="#6DAFDB"/>
<path fill-rule="evenodd" clip-rule="evenodd" d="M126.055 138.198C144.918 133.847 156.753 115.332 152.489 96.7958C148.225 78.2814 129.471 66.7942 110.63 71.1236C91.7679 75.4748 79.9326 93.9894 84.1968 112.525C88.461 131.04 107.215 142.527 126.077 138.198H126.055ZM126.186 138.763C145.353 134.347 157.384 115.506 153.055 96.6872C148.726 77.868 129.667 66.185 110.478 70.5797C91.311 74.9962 79.2799 93.8369 83.6093 112.656C87.9388 131.475 106.997 143.158 126.186 138.763Z" fill="#6DAFDB"/>
<path fill-rule="evenodd" clip-rule="evenodd" d="M126.121 138.568C145.201 134.173 157.167 115.441 152.859 96.709C148.551 77.977 129.601 66.3592 110.521 70.7539C91.4414 75.1487 79.4755 93.8806 83.7833 112.613C88.091 131.345 107.041 142.962 126.121 138.568ZM126.251 139.133C145.636 134.674 157.797 115.615 153.425 96.6004C149.052 77.5636 129.776 65.75 110.391 70.21C91.0063 74.67 78.8446 93.7285 83.2176 112.743C87.5906 131.78 106.867 143.593 126.251 139.133Z" fill="#6AAEDA"/>
<path fill-rule="evenodd" clip-rule="evenodd" d="M126.208 138.937C145.484 134.499 157.58 115.549 153.229 96.6214C148.878 77.6934 129.711 65.9451 110.435 70.3834C91.1587 74.8216 79.0623 93.7711 83.4135 112.699C87.7648 131.627 106.932 143.375 126.208 138.937ZM126.338 139.503C145.941 134.999 158.233 115.745 153.795 96.5124C149.356 77.28 129.885 65.3359 110.304 69.8394C90.7018 74.343 78.4096 93.597 82.8479 112.83C87.2861 132.062 106.758 144.006 126.338 139.503Z" fill="#68ADDA"/>
<path fill-rule="evenodd" clip-rule="evenodd" d="M126.295 139.307C145.788 134.825 158.015 115.68 153.621 96.5344C149.226 77.389 129.841 65.5319 110.348 70.0137C90.8541 74.4954 78.6271 93.641 83.0219 112.786C87.4166 131.932 106.801 143.789 126.295 139.307ZM126.425 139.872C146.223 135.304 158.668 115.854 154.186 96.4039C149.704 76.9539 130.037 64.901 110.217 69.448C90.419 74.0168 77.9962 93.4669 82.4562 112.917C86.938 132.367 106.606 144.42 126.425 139.872Z" fill="#65ACD9"/>
<path fill-rule="evenodd" clip-rule="evenodd" d="M126.382 139.677C146.071 135.152 158.45 115.789 153.99 96.4481C149.53 77.1069 129.95 65.0975 110.26 69.6445C90.5711 74.1698 78.1919 93.5327 82.6519 112.874C87.1119 132.215 106.692 144.224 126.382 139.677ZM126.512 140.243C146.528 135.631 159.081 115.963 154.556 96.3176C150.031 76.6718 130.146 64.4666 110.13 69.0789C90.1142 73.6912 77.5609 93.3587 82.0862 113.004C86.6115 132.65 106.497 144.855 126.512 140.243Z" fill="#63ABD9"/>
<path fill-rule="evenodd" clip-rule="evenodd" d="M126.469 140.068C146.376 135.478 158.864 115.919 154.382 96.3819C149.878 76.845 130.102 64.705 110.195 69.2956C90.2884 73.8861 77.8004 93.445 82.2821 112.982C86.7857 132.519 106.562 144.659 126.469 140.068ZM126.599 140.634C146.832 135.978 159.516 116.115 154.948 96.2514C150.379 76.3881 130.276 64.0741 110.043 68.7299C89.8097 73.3857 77.126 93.249 81.6947 113.112C86.2635 132.976 106.366 145.29 126.599 140.634Z" fill="#63ABD9"/>
<path fill-rule="evenodd" clip-rule="evenodd" d="M126.556 140.437C146.68 135.803 159.298 116.049 154.752 96.2942C150.205 76.5399 130.211 64.2912 110.086 68.9035C89.9619 73.5376 77.3434 93.2922 81.8904 113.047C86.4375 132.801 106.431 145.05 126.556 140.437ZM126.686 141.003C147.115 136.304 159.951 116.223 155.317 96.1637C150.705 76.1048 130.385 63.6603 109.956 68.3596C89.5268 73.0589 76.6907 93.1397 81.3248 113.199C85.937 133.258 106.257 145.703 126.686 141.003Z" fill="#60A9D8"/>
<path fill-rule="evenodd" clip-rule="evenodd" d="M126.643 140.807C146.963 136.13 159.734 116.158 155.144 96.2075C150.553 76.257 130.342 63.856 110.021 68.5336C89.701 73.2111 76.9302 93.1831 81.5207 113.155C86.1112 133.106 106.323 145.507 126.643 140.829V140.807ZM126.773 141.373C147.42 136.63 160.365 116.332 155.709 96.077C151.053 75.8001 130.537 63.2251 109.891 67.9897C89.2441 72.7325 76.2992 93.031 80.955 113.286C85.6109 133.563 106.127 146.138 126.773 141.373Z" fill="#5EA9D8"/>
<path fill-rule="evenodd" clip-rule="evenodd" d="M126.73 141.178C147.268 136.457 160.147 116.268 155.513 96.0996C150.879 75.9318 130.45 63.4221 109.913 68.1432C89.3747 72.8642 76.4951 93.0541 81.1291 113.222C85.7632 133.39 106.192 145.9 126.73 141.178ZM126.861 141.744C147.703 136.936 160.8 116.464 156.079 95.991C151.358 75.5185 130.646 62.8129 109.782 67.621C88.9396 72.4291 75.8424 92.9016 80.5635 113.374C85.2846 133.847 105.996 146.552 126.861 141.744Z" fill="#5BA7D7"/>
<path fill-rule="evenodd" clip-rule="evenodd" d="M126.817 141.549C147.572 136.762 160.582 116.399 155.905 96.013C151.205 75.6493 130.602 63.009 109.847 67.7736C89.0917 72.5599 76.0816 92.9236 80.7591 113.309C85.4367 133.673 106.062 146.313 126.817 141.549ZM126.947 142.114C148.007 137.263 161.235 116.573 156.471 95.9041C151.706 75.2359 130.776 62.3998 109.717 67.2297C88.6566 72.0813 75.4289 92.7713 80.1935 113.44C84.9581 134.108 105.887 146.944 126.947 142.114Z" fill="#5BA7D7"/>
<path fill-rule="evenodd" clip-rule="evenodd" d="M126.904 141.918C147.855 137.088 161.017 116.507 156.275 95.9255C151.532 75.3441 130.711 62.5733 109.76 67.4032C88.8089 72.233 75.6465 92.8143 80.3893 113.396C85.1321 133.977 105.953 146.748 126.904 141.918ZM127.035 142.483C148.312 137.588 161.648 116.681 156.84 95.795C152.032 74.909 130.885 61.9424 109.63 66.8375C88.352 71.7326 75.0155 92.6403 79.8236 113.526C84.6318 134.412 105.779 147.379 127.035 142.483Z" fill="#59A6D7"/>
<path fill-rule="evenodd" clip-rule="evenodd" d="M126.991 142.287C148.159 137.414 161.431 116.615 156.666 95.8378C151.88 75.0608 130.842 62.1594 109.673 67.0328C88.5044 71.9062 75.2331 92.705 79.9977 113.482C84.7841 134.259 105.822 147.161 126.991 142.287ZM127.122 142.853C148.595 137.914 162.083 116.811 157.232 95.7073C152.38 74.6257 131.037 61.5285 109.543 66.4672C88.0692 71.4058 74.5805 92.5092 79.4321 113.613C84.2837 134.694 105.626 147.791 127.122 142.853Z" fill="#55A5D6"/>
<path fill-rule="evenodd" clip-rule="evenodd" d="M127.078 142.658C148.464 137.741 161.866 116.724 157.036 95.7516C152.206 74.7569 130.95 61.7467 109.586 66.6636C88.1997 71.5805 74.798 92.5969 79.6278 113.57C84.4577 134.565 105.713 147.575 127.078 142.658ZM127.209 143.223C148.899 138.241 162.518 116.92 157.602 95.6211C152.707 74.3218 131.146 61.1158 109.455 66.098C87.7646 71.0801 74.1453 92.4011 79.0622 113.7C83.9573 135 105.518 148.205 127.209 143.223Z" fill="#52A4D5"/>
<path fill-rule="evenodd" clip-rule="evenodd" d="M127.165 143.049C148.747 138.088 162.301 116.876 157.428 95.6854C152.554 74.4951 131.103 61.3326 109.521 66.3148C87.9387 71.2752 74.3846 92.4874 79.258 113.678C84.1314 134.868 105.583 148.031 127.187 143.049H127.165ZM127.295 143.614C149.204 138.567 162.932 117.05 157.994 95.5548C153.055 74.06 131.277 60.7017 109.369 65.7491C87.4601 70.7965 73.732 92.3133 78.6706 113.808C83.631 135.303 105.387 148.662 127.295 143.614Z" fill="#50A3D5"/>
<path fill-rule="evenodd" clip-rule="evenodd" d="M127.252 143.419C149.052 138.393 162.715 116.986 157.798 95.5992C152.881 74.1911 131.212 60.9199 109.412 65.9456C87.6125 70.9712 73.9497 92.3792 78.8666 113.766C83.7834 135.173 105.453 148.445 127.252 143.419ZM127.383 143.985C149.487 138.894 163.367 117.181 158.363 95.4687C153.36 73.756 131.386 60.289 109.281 65.3799C87.1774 70.4708 73.297 92.1834 78.3009 113.896C83.3048 135.609 105.279 149.076 127.383 143.985Z" fill="#50A3D5"/>
<path fill-rule="evenodd" clip-rule="evenodd" d="M127.339 143.788C149.334 138.719 163.15 117.094 158.189 95.4897C153.207 73.8858 131.342 60.484 109.347 65.5315C87.3513 70.6006 73.5361 92.2262 78.4966 113.83C83.4787 135.434 105.344 148.836 127.339 143.788ZM127.469 144.354C149.791 139.219 163.802 117.289 158.755 95.3807C153.707 73.4724 131.538 59.8748 109.216 65.0093C86.8944 70.1437 72.8835 92.0739 77.9309 113.982C82.9783 135.891 105.148 149.488 127.469 144.354Z" fill="#4CA2D4"/>
<path fill-rule="evenodd" clip-rule="evenodd" d="M127.426 144.158C149.639 139.045 163.585 117.224 158.559 95.4028C153.534 73.6031 131.451 60.0491 109.238 65.1618C87.025 70.2745 73.0793 92.0958 78.105 113.917C83.1307 135.717 105.213 149.271 127.426 144.158ZM127.557 144.724C150.096 139.546 164.216 117.398 159.125 95.2938C154.034 73.168 131.647 59.4399 109.107 64.6396C86.5681 69.8176 72.4484 91.9653 77.5393 114.069C82.6302 136.195 105.017 149.924 127.557 144.724Z" fill="#4AA1D4"/>
<path fill-rule="evenodd" clip-rule="evenodd" d="M127.513 144.529C149.943 139.373 163.998 117.333 158.951 95.3164C153.882 73.2993 131.603 59.6364 109.173 64.7926C86.7422 69.9488 72.6877 91.9878 77.7351 114.005C82.8043 136.022 105.083 149.685 127.513 144.529ZM127.644 145.094C150.379 139.851 164.651 117.529 159.516 95.1859C154.382 72.8642 131.777 59.0055 109.042 64.2487C86.2853 69.4702 72.0132 91.8137 77.1477 114.135C82.2821 136.457 104.887 150.316 127.622 145.073L127.644 145.094Z" fill="#46A0D3"/>
<path fill-rule="evenodd" clip-rule="evenodd" d="M127.578 144.898C150.205 139.698 164.412 117.442 159.299 95.229C154.186 73.0159 131.69 59.2226 109.064 64.4223C86.4376 69.6437 72.2308 91.8785 77.3435 114.092C82.4562 136.305 104.952 150.098 127.578 144.898ZM127.709 145.464C150.662 140.177 165.064 117.638 159.864 95.0985C154.687 72.5591 131.864 58.5916 108.911 63.8566C85.9807 69.1433 71.5999 91.7044 76.7778 114.222C81.9558 136.761 104.778 150.729 127.731 145.442L127.709 145.464Z" fill="#449FD3"/>
<path fill-rule="evenodd" clip-rule="evenodd" d="M127.665 145.269C150.509 140.004 164.847 117.573 159.691 95.1427C154.534 72.712 131.821 58.7881 108.977 64.0531C86.133 69.3181 71.7958 91.7486 76.9737 114.179C82.1299 136.61 104.843 150.534 127.687 145.269H127.665ZM127.796 145.834C150.944 140.504 165.477 117.747 160.256 95.0122C155.035 72.2769 132.017 58.1572 108.846 63.4875C85.6762 68.8177 71.1648 91.5746 76.3863 114.31C81.6295 137.045 104.626 151.165 127.796 145.834Z" fill="#449FD3"/>
<path fill-rule="evenodd" clip-rule="evenodd" d="M127.752 145.638C150.814 140.33 165.26 117.681 160.06 95.055C154.861 72.4287 131.951 58.3743 108.89 63.6828C85.8283 68.9913 71.3823 91.6394 76.582 114.266C81.7817 136.892 104.713 150.946 127.752 145.638ZM127.883 146.204C151.249 140.83 165.913 117.877 160.626 94.9245C155.361 71.9936 132.125 57.7434 108.759 63.1171C85.3932 68.5126 70.7296 91.4653 76.0163 114.396C81.3031 137.349 104.517 151.578 127.883 146.204Z" fill="#409ED2"/>
<path fill-rule="evenodd" clip-rule="evenodd" d="M127.839 146.008C151.096 140.656 165.695 117.79 160.452 94.9686C155.187 72.1245 132.082 57.9613 108.803 63.3133C85.5454 68.6653 70.9471 91.531 76.2121 114.353C81.477 137.197 104.582 151.36 127.861 146.008H127.839ZM127.97 146.574C151.553 141.156 166.348 117.986 161.017 94.8381C155.687 71.6894 132.256 57.3304 108.672 62.7477C85.1103 68.1867 70.3162 91.3352 75.6464 114.484C80.9766 137.632 104.408 151.991 127.991 146.574H127.97Z" fill="#3D9DD2"/>
<path fill-rule="evenodd" clip-rule="evenodd" d="M127.926 146.399C151.401 141.003 166.13 117.942 160.822 94.8802C155.513 71.8407 132.191 57.5252 108.716 62.9424C85.2409 68.338 70.5121 91.3994 75.8206 114.439C81.129 137.479 104.451 151.794 127.926 146.377V146.399ZM128.057 146.964C151.837 141.482 166.761 118.116 161.387 94.7716C156.013 71.4056 132.386 56.8942 108.585 62.3768C84.7841 67.8593 69.8811 91.2254 75.2549 114.57C80.6286 137.914 104.277 152.425 128.057 146.943V146.964Z" fill="#389CD1"/>
<path fill-rule="evenodd" clip-rule="evenodd" d="M128.013 146.769C151.706 141.308 166.565 118.051 161.213 94.7938C155.861 71.5365 132.321 57.1122 108.629 62.573C84.9582 68.012 70.0987 91.291 75.4507 114.527C80.8027 137.784 104.343 152.208 128.013 146.747V146.769ZM128.144 147.335C152.141 141.809 167.196 118.225 161.779 94.6848C156.362 71.1014 132.495 56.4813 108.498 62.0073C84.523 67.5334 69.446 91.0952 74.8851 114.657C80.3023 138.219 104.147 152.839 128.144 147.313V147.335Z" fill="#389CD1"/>
<path fill-rule="evenodd" clip-rule="evenodd" d="M128.101 147.138C151.989 141.634 166.979 118.159 161.583 94.7065C156.188 71.2532 132.452 56.6984 108.542 62.2027C84.6537 67.6852 69.6637 91.1601 75.0592 114.613C80.4547 138.066 104.212 152.621 128.101 147.138ZM128.231 147.704C152.446 142.135 167.632 118.355 162.149 94.5759C156.688 70.8181 132.626 56.0675 108.433 61.637C84.2185 67.2066 69.0328 90.986 74.4936 114.743C79.9543 138.501 104.017 153.252 128.231 147.682V147.704Z" fill="#359BD1"/>
<path fill-rule="evenodd" clip-rule="evenodd" d="M128.187 147.508C152.293 141.961 167.414 118.29 161.975 94.6193C156.514 70.9486 132.56 56.2632 108.476 61.811C84.3706 67.3588 69.2501 91.0512 74.6891 114.7C80.1281 138.371 104.082 153.056 128.187 147.508ZM128.318 148.074C152.728 142.461 168.045 118.464 162.54 94.4888C157.014 70.5134 132.756 55.6323 108.346 61.2671C83.9137 66.8802 68.5974 90.8771 74.1234 114.831C79.6495 138.806 103.908 153.687 128.318 148.052V148.074Z" fill="#309AD0"/>
<path fill-rule="evenodd" clip-rule="evenodd" d="M128.275 147.88C152.576 142.288 167.849 118.4 162.344 94.5337C156.862 70.6672 132.691 55.8513 108.389 61.4426C84.0661 67.0339 68.815 90.9221 74.3193 114.789C79.8236 138.655 103.973 153.471 128.275 147.88ZM128.405 148.445C153.033 142.767 168.48 118.574 162.91 94.4031C157.341 70.2321 132.887 55.2204 108.259 60.8987C83.6309 66.5553 68.1841 90.7481 73.7319 114.919C79.3015 139.09 103.777 154.102 128.405 148.423V148.445Z" fill="#2B98D0"/>
<path fill-rule="evenodd" clip-rule="evenodd" d="M128.362 148.249C152.881 142.614 168.262 118.508 162.736 94.4462C157.188 70.3621 132.822 55.4374 108.303 61.0722C83.7833 66.7288 68.38 90.8128 73.9278 114.875C79.4756 138.959 103.842 153.884 128.362 148.249ZM128.492 148.815C153.338 143.093 168.915 118.704 163.302 94.3157C157.689 69.9269 132.996 54.8064 108.172 60.5065C83.3264 66.2284 67.7491 90.6387 73.3622 115.005C78.9752 139.394 103.647 154.515 128.492 148.793V148.815Z" fill="#2797CF"/>
<path fill-rule="evenodd" clip-rule="evenodd" d="M128.449 148.619C153.185 142.92 168.697 118.64 163.106 94.36C157.515 70.08 132.93 55.003 108.216 60.7031C83.4787 66.4032 67.9665 90.683 73.5579 114.963C79.1492 139.242 103.734 154.32 128.449 148.619ZM128.579 149.185C153.62 143.42 169.328 118.814 163.672 94.2294C158.015 69.6449 133.126 54.3721 108.085 60.1374C83.0435 65.9028 67.3139 90.5089 72.9704 115.093C78.6271 139.678 103.516 154.95 128.557 149.185H128.579Z" fill="#2797CF"/>
<path fill-rule="evenodd" clip-rule="evenodd" d="M128.536 148.988C153.468 143.245 169.133 118.747 163.498 94.2498C157.841 69.7741 133.061 54.5883 108.129 60.3319C83.1742 66.0755 67.5316 90.5729 73.1664 115.049C78.8012 139.524 103.582 154.732 128.536 148.988ZM128.666 149.554C153.925 143.745 169.763 118.921 164.063 94.1409C158.342 69.339 133.257 53.9574 107.998 59.7663C82.7391 65.5752 66.9006 90.3989 72.6007 115.179C78.3008 139.981 103.408 155.362 128.666 149.554Z" fill="#2096CF"/>
<path fill-rule="evenodd" clip-rule="evenodd" d="M128.623 149.381C153.773 143.594 169.546 118.879 163.867 94.1855C158.189 69.4924 133.191 54.1761 108.041 59.9632C82.8911 65.7503 67.1179 90.4653 72.7963 115.137C78.4746 139.83 103.473 155.146 128.623 149.359V149.381ZM128.753 149.946C154.208 144.094 170.198 119.074 164.433 94.0769C158.668 69.0573 133.365 53.5452 107.911 59.3975C82.4342 65.25 66.4653 90.2695 72.2306 115.267C77.996 140.265 103.298 155.777 128.753 149.925V149.946Z" fill="#1A95CE"/>
<path fill-rule="evenodd" clip-rule="evenodd" d="M128.71 149.751C154.077 143.92 169.981 119.009 164.259 94.0987C158.516 69.2095 133.3 53.7409 107.954 59.5933C82.5868 65.424 66.6831 90.3347 72.4049 115.224C78.1268 140.113 103.342 155.581 128.688 149.729L128.71 149.751ZM128.84 150.316C154.512 144.399 170.612 119.183 164.825 93.9682C159.016 68.7527 133.496 53.11 107.824 59.0277C82.1517 64.9453 66.0304 90.1607 71.8393 115.354C77.6482 140.57 103.146 156.212 128.819 150.295L128.84 150.316Z" fill="#1094CE"/>
<path fill-rule="evenodd" clip-rule="evenodd" d="M128.797 150.12C154.36 144.224 170.416 119.118 164.629 94.011C158.842 68.9044 133.431 53.3271 107.867 59.223C82.3038 65.0971 66.2479 90.2255 72.035 115.31C77.8221 140.417 103.233 155.994 128.797 150.098V150.12ZM128.927 150.686C154.817 144.724 171.047 119.292 165.194 93.8805C159.342 68.4693 133.626 52.6962 107.737 58.6573C81.847 64.6185 65.6169 90.0514 71.4693 115.441C77.3217 140.852 103.037 156.625 128.927 150.664V150.686Z" fill="#0593CD"/>
<path fill-rule="evenodd" clip-rule="evenodd" d="M128.884 150.491C154.664 144.551 170.83 119.227 165.02 93.9245C159.168 68.6223 133.561 52.9144 107.78 58.832C81.9992 64.7714 65.8344 90.0956 71.6433 115.42C77.4739 140.722 103.081 156.43 128.862 150.491H128.884ZM129.014 151.056C155.1 145.051 171.482 119.423 165.586 93.7939C159.669 68.1654 133.735 52.2834 107.65 58.2881C81.5641 64.2928 65.1817 89.9215 71.0776 115.55C76.9735 141.157 102.907 157.061 128.992 151.056H129.014Z" fill="#0593CD"/>
<path fill-rule="evenodd" clip-rule="evenodd" d="M128.971 150.859C154.948 144.876 171.265 119.334 165.39 93.8362C159.516 68.3165 133.692 52.478 107.693 58.461C81.7165 64.4439 65.3994 89.9856 71.2736 115.506C77.1477 141.025 102.972 156.864 128.971 150.881V150.859ZM129.101 151.425C155.404 145.377 171.917 119.53 165.956 93.7057C160.017 67.8813 133.866 51.8471 107.563 57.917C81.2596 63.9652 64.7685 89.8115 70.7079 115.636C76.6473 141.46 102.798 157.495 129.101 151.425Z" fill="#0092CD"/>
<path fill-rule="evenodd" clip-rule="evenodd" d="M129.036 151.23C155.23 145.204 171.678 119.466 165.761 93.7508C159.843 68.035 133.801 52.0661 107.606 58.0925C81.4119 64.1189 64.9643 89.8564 70.9037 115.594C76.8214 141.31 102.863 157.279 129.058 151.252L129.036 151.23ZM129.167 151.796C155.687 145.704 172.309 119.641 166.326 93.6202C160.343 67.5782 133.996 51.4351 107.476 57.5268C80.9768 63.6403 64.3334 89.6824 70.3163 115.724C76.2993 141.745 102.646 157.909 129.167 151.796Z" fill="#0091CC"/>
<path fill-rule="evenodd" clip-rule="evenodd" d="M129.123 151.599C155.535 145.529 172.091 119.575 166.13 93.6413C160.169 67.7297 133.931 51.652 107.519 57.7219C81.1073 63.7919 64.551 89.7469 70.5121 115.68C76.4733 141.614 102.733 157.691 129.123 151.621V151.599ZM129.254 152.165C155.97 146.008 172.744 119.77 166.696 93.5323C160.669 67.2946 134.105 51.021 107.389 57.1563C80.6722 63.3133 63.8983 89.5729 69.9464 115.811C75.9947 142.049 102.537 158.322 129.254 152.165Z" fill="#0090CC"/>
<path fill-rule="evenodd" clip-rule="evenodd" d="M129.21 151.969C155.818 145.834 172.527 119.683 166.522 93.5539C160.495 67.4467 134.062 51.2166 107.432 57.3518C80.8245 63.4653 64.1158 89.6161 70.1423 115.767C76.147 141.896 102.602 158.126 129.232 151.991L129.21 151.969ZM129.297 152.339C156.122 146.16 172.962 119.814 166.892 93.4669C160.843 67.1421 134.17 50.8032 107.345 56.982C80.5199 63.1607 63.7025 89.5073 69.7507 115.854C75.7989 142.201 102.472 158.539 129.297 152.361V152.339Z" fill="#0090CC"/>
</g>
<path d="M139.087 189.236C134.431 190.215 129.58 190.737 124.619 190.737C86.9814 190.737 56.5011 160.997 56.5011 124.316C56.5011 101.494 68.2712 81.391 86.2417 69.4252H65.5734C64.0287 69.4252 62.7451 68.1633 62.7451 66.5969C62.7451 65.0304 64.007 63.7686 65.5734 63.7686H95.749C95.749 63.7686 95.9015 63.7686 95.9886 63.7686C96.3582 63.7468 96.7283 63.7686 97.098 63.8991C98.5774 64.3995 99.3822 66.0095 98.882 67.4671L89.3528 96.0981C88.8524 97.5776 87.2425 98.3824 85.7848 97.8822C84.3054 97.3819 83.5004 95.7719 84.0008 94.314L91.0716 73.0802C73.7537 83.893 62.2882 102.799 62.2882 124.316C62.2882 157.885 90.2013 185.103 124.619 185.103C128.884 185.103 133.039 184.689 137.064 183.884C139.087 183.688 140.588 183.58 141.415 185.733C141.981 187.169 141.372 188.714 139.087 189.236Z" fill="#0090CC" stroke="#0090CC" stroke-width="2.98058" stroke-miterlimit="2.61"/>
<path fill-rule="evenodd" clip-rule="evenodd" d="M109.847 58.0034C114.503 57.0243 119.355 56.5022 124.315 56.5022C161.931 56.5022 192.433 86.2428 192.433 122.924C192.433 145.724 180.641 165.848 162.692 177.814H183.339C184.884 177.814 186.167 179.076 186.167 180.643C186.167 182.209 184.906 183.471 183.339 183.471H153.163C153.163 183.471 153.011 183.471 152.924 183.471C152.554 183.493 152.184 183.471 151.814 183.34C150.335 182.84 149.53 181.252 150.03 179.772L159.56 151.141C160.06 149.662 161.648 148.857 163.128 149.357C164.607 149.858 165.412 151.468 164.912 152.925L157.841 174.159C175.137 163.347 186.603 144.462 186.603 122.945C186.603 89.3757 158.689 62.1588 124.271 62.1588C120.007 62.1588 115.852 62.5721 111.827 63.3771C109.804 63.5729 108.302 63.6817 107.476 61.5278C106.91 60.0919 107.519 58.5473 109.804 58.0251L109.847 58.0034Z" fill="#808285" stroke="#808285" stroke-width="2.98058" stroke-miterlimit="2.61"/>
</g>
<defs>
<clipPath id="clip0_769_42">
<rect width="140" height="140" fill="white" transform="translate(55 55)"/>
</clipPath>
</defs>
</svg>
