<svg width="250" height="250" viewBox="0 0 250 250" fill="none" xmlns="http://www.w3.org/2000/svg">
<rect width="250" height="250" fill="#EB7500"/>
<path d="M49.1709 118.034C49.9451 118.189 59.4431 123.787 60.6836 124.499L91.8005 142.576C97.8585 146.13 104.464 149.896 110.382 153.643C108.736 153.864 106.436 153.868 104.743 153.894L96.1597 153.964L69.0592 154L50.9466 153.973C47.1261 153.964 43.1723 153.991 39.3641 153.88C39.3054 152.756 39.3678 151.421 39.4406 150.295C39.579 148.153 39.7055 147.507 41.2899 146.112L63.6954 146.109C66.2073 146.109 68.7191 146.095 71.2308 146.067C72.7809 146.051 74.3449 146.044 75.8901 145.925C76.3674 145.854 76.8774 145.815 77.1906 145.426C77.7818 144.692 77.7296 143.853 76.945 143.287C76.3252 142.839 75.55 142.41 74.8757 142.015L71.046 139.777L54.4559 130.14C52.893 129.22 51.3358 128.291 49.7846 127.352C47.208 125.789 45.3106 125.242 46.985 121.855C47.6715 120.466 48.1438 119.264 49.1709 118.034Z" fill="white"/>
<path d="M200.959 118.142C201.541 118.254 203.263 122.47 203.454 123.129C203.756 124.164 203.584 124.526 203.199 125.473C200.697 127.069 197.974 128.633 195.411 130.132L181.361 138.289L175.96 141.477C174.955 142.075 173.911 142.688 172.944 143.346C172.57 143.6 172.336 144.038 172.101 144.428C172.311 144.885 172.755 145.657 173.256 145.764C175.237 146.191 178.228 146.078 180.279 146.095L197.654 146.101C199.215 146.099 207.952 145.856 209.444 146.701C210.611 147.361 210.615 152.294 210.659 154H180.758L154.337 153.96L145.518 153.894C143.546 153.869 141.413 153.859 139.459 153.709C142.407 151.677 146.401 149.44 149.523 147.607L166.594 137.674L188.324 125.208C192.348 122.919 196.882 120.231 200.959 118.142Z" fill="white"/>
<path d="M171.02 85.4511C172.048 85.4936 175.044 87.9397 175.925 88.675C177.474 89.9686 175.649 92.4636 174.907 93.8374C173.819 95.8377 172.713 97.8273 171.588 99.8061C167.584 106.873 163.39 113.832 159.572 121.002C158.896 122.272 159.4 122.893 160.576 123.442C163.107 122.204 165.988 120.512 168.452 119.115L183.31 110.565C185.062 109.561 186.821 108.569 188.586 107.588C189.541 107.052 190.569 106.432 191.564 105.989C191.903 105.838 192.695 105.917 193.034 106.092C194.525 106.858 196.626 110.197 197.152 111.675C189.708 116.094 181.959 120.44 174.444 124.771L149.26 139.25C144.704 141.891 140.12 144.486 135.51 147.032C136.023 145.921 136.858 144.496 137.469 143.404L141.449 136.371C147.273 126.103 153.161 115.872 159.113 105.678L166.94 92.1254C167.614 90.9591 170.23 86.2182 171.02 85.4511Z" fill="white"/>
<path d="M78.7749 85.2414C79.0068 85.509 79.6814 86.6875 79.8921 87.0438L82.2543 91.0774L91.0045 106.171L106.567 133.149L111.411 141.672C112.35 143.339 113.493 145.291 114.321 146.998C112.812 146.276 110.912 145.161 109.434 144.331L100.874 139.47L75.3744 124.767L61.379 116.634C60.466 116.104 53.0152 111.895 52.8214 111.496C52.8553 110.494 55.3614 107.373 56.1341 106.553C56.3354 106.339 57.1598 106 57.4836 105.87C58.8094 106.25 60.5188 107.22 61.7692 107.893C63.9814 109.078 66.1681 110.31 68.3279 111.588L81.2848 119.063C83.5802 120.377 85.879 121.687 88.1873 122.979C89.5228 123.726 90.2203 123.241 90.8304 121.927C89.6513 119.498 87.806 116.385 86.46 114.009L77.213 97.919C76.655 96.9397 73.067 90.9392 73.1378 90.083C73.2506 88.7197 77.3896 86.1294 78.7749 85.2414Z" fill="white"/>
<path d="M131.613 72C133.105 72.2056 135.901 72.0315 136.235 74.053C136.413 75.1227 136.423 76.4305 136.448 77.5227C136.483 79.3486 136.504 81.1747 136.514 83.0008L136.532 99.3469C136.541 102.394 136.527 105.502 136.698 108.545C136.717 108.859 136.788 109.662 137.034 109.825C137.358 110.039 137.801 110.088 138.174 110.07C138.674 110.047 139.22 109.331 139.519 108.92C140.514 107.559 141.371 106.024 142.208 104.559L144.392 100.815L153.004 85.996L155.313 82.097C155.728 81.4018 156.632 79.8135 157.162 79.3499C158.687 78.0162 163.388 80.7834 164.513 81.6486L143.109 118.793C140.096 124.104 137.047 129.394 133.964 134.664C132.353 137.432 130.676 140.408 128.977 143.102C128.682 141.14 128.729 136.793 128.714 134.73C128.67 129.872 128.652 125.014 128.657 120.156L128.656 72H131.613Z" fill="white"/>
<path d="M121.393 118.689L121.334 133.593C121.314 136.299 121.362 140.358 121.041 142.966C119.353 140.444 117.515 137.164 115.953 134.513L107.204 119.533C99.8637 106.95 92.593 94.3257 85.3918 81.6621C86.6097 80.7831 91.7889 77.8191 92.8588 79.4824C98.9986 89.0281 104.309 99.1483 110.17 108.876C110.657 109.611 111.077 110.239 112.038 110.114C113.494 109.926 113.353 108.436 113.403 107.247C113.463 105.794 113.47 104.248 113.486 102.759L113.508 84.4585C113.508 81.2143 113.431 77.9506 113.653 74.7143C113.883 71.37 117.265 72.3332 119.462 72.0115L119.537 72H121.398L121.393 118.689Z" fill="white"/>
</svg>
