<svg width="250" height="250" viewBox="0 0 250 250" fill="none" xmlns="http://www.w3.org/2000/svg">
<path d="M0 48C0 21.4903 21.4903 0 48 0H202C228.51 0 250 21.4903 250 48V202C250 228.51 228.51 250 202 250H48C21.4903 250 0 228.51 0 202V48Z" fill="#036639"/>
<path d="M131.592 95C131.791 95.215 131.809 95.3089 131.808 95.6202C131.791 99.9663 131.763 104.308 131.926 108.652C131.935 108.871 131.895 109.19 131.744 109.356L131.585 109.343C130.791 108.789 129.921 105.395 129.481 104.236C129.16 103.376 128.772 102.542 128.324 101.742C126.718 98.9038 123.219 95.701 119.397 97.4002C118.109 97.9725 116.893 99.9679 116.529 101.328C115.359 105.704 117.478 109.117 121.216 111.333C123.03 112.462 124.895 113.272 126.626 114.5C128.454 115.788 129.991 117.447 131.135 119.367C133.157 122.831 134.029 126.502 132.956 130.464C132.066 133.628 130.558 137.184 127.599 138.917C126.076 139.761 122.915 140.62 121.185 140.318C118.558 139.86 115.527 138.649 112.914 137.945C112.424 138.746 112.135 139.829 111.598 140.439C111.293 140.575 111.389 140.583 111.094 140.532C110.889 140.332 110.901 140.22 110.869 139.935C110.87 136.382 110.89 132.829 110.928 129.276C110.936 128.152 110.725 126.222 111.033 125.115C111.089 124.919 111.316 124.867 111.501 124.824C111.671 124.886 111.817 124.905 111.877 125.071C112.527 126.858 112.673 128.854 113.314 130.692C113.756 131.984 114.362 133.213 115.116 134.351C116.274 136.076 118.61 138.342 120.698 138.597C124.955 139.117 127.295 136.489 127.937 132.657C129.116 125.633 121.767 123.316 117.275 119.931C112.367 116.234 110.626 110.466 111.559 104.572C112.569 98.3572 118.634 93.2707 124.964 95.9205C126.449 96.5421 127.436 97.3338 129.094 97.6449C129.588 97.4661 129.754 97.3534 130.188 97.0775C130.734 96.1159 130.523 95.5573 131.592 95Z" fill="#FEFDFD"/>
<path d="M91.5337 95.3443C96.8726 94.9649 97.6821 96.7499 101.982 98.2102C103.843 97.3362 104.228 95.5783 105.029 95.2942L105.208 95.3898C105.79 96.5083 105.19 106.712 105.466 108.671C105.517 109.036 105.445 109.981 105.138 110.24C104.343 110.152 103.728 108.059 103.47 107.328C101.634 102.139 98.6797 96.9097 92.461 96.8423C91.0958 96.8275 89.339 97.4909 88.4075 98.5877C84.0345 103.737 83.7582 111.769 83.6987 118.198C83.7612 123.262 84.1921 131.897 87.9914 135.674C89.6821 137.355 91.6004 137.749 93.8498 137.734C97.9174 137.567 101.262 134.919 103.546 131.732C103.912 131.221 104.218 130.645 104.677 130.215C105.066 130.108 105.872 130.093 106.074 130.498C105.987 131.785 104.658 133.879 103.839 134.85C101.186 137.995 98.1923 139.917 94.0261 140.322C90.3707 140.677 85.9412 138.877 83.1794 136.6C78.8826 133.056 76.5958 126.989 76.0433 121.572C75.3327 114.604 76.4447 106.683 80.9772 101.099C83.4539 98.0479 87.5795 95.7209 91.5337 95.3443Z" fill="#FEFDFD"/>
<path d="M168.286 95.7951C169.567 95.7937 179.806 95.6623 180.196 95.9571C180.298 97.1228 176.959 97.6844 176.432 99.9854C175.799 102.754 176.007 104.947 176.02 107.753L176.036 116.723L176.028 125.908C176.024 128.924 175.824 132.269 176.502 135.228C177.036 137.559 179.802 137.941 180.001 138.409C180.09 138.625 180.084 138.87 179.985 139.082C179.507 139.234 164.62 139.131 164.191 138.959L164.141 138.833C164.411 138.065 165.593 137.87 166.226 137.43C167.231 136.732 168.073 135.466 168.281 134.253C168.648 132.114 168.562 102.567 168.343 101.993C168.323 101.941 168.256 101.87 168.222 101.822C167.619 102.86 167.132 104.597 166.752 105.784L165.114 110.895C163.102 117.27 161.019 123.623 158.865 129.952C157.776 133.248 156.889 136.821 155.429 139.938L148.639 118.654L145.359 108.24C145.018 107.17 143.622 102.361 143.024 101.879L142.86 101.899C142.519 102.41 142.688 105.75 142.7 106.535C142.756 109.265 142.793 111.995 142.811 114.726L142.853 125.702C142.856 128.08 142.842 130.468 142.927 132.839C142.991 134.596 143.333 136.378 144.924 137.374C145.546 137.765 146.914 138.118 146.851 138.972C146.427 139.275 137.798 139.108 136.632 138.976C138.32 137.259 140.715 137.543 140.985 134.193C141.117 132.549 141.152 131.008 141.169 129.351L141.193 120.962L141.208 108.352C141.205 106.005 141.211 103.675 141.147 101.317C141.125 99.5295 140.759 98.1419 138.912 97.4456C138.151 97.1587 136.533 97.0708 136.747 96.0039C137.198 95.7436 139.566 95.8265 140.242 95.829C142.859 95.7691 146.134 95.7438 148.736 95.8317C149.87 98.8178 150.766 101.991 151.718 105.052L155.708 117.632C156.221 119.238 157.665 124.108 158.393 125.42L165.255 104.578C165.743 103.128 166.216 101.674 166.673 100.215C167.166 98.6414 167.502 97.2555 168.286 95.7951Z" fill="#FEFDFD"/>
<path fill-rule="evenodd" clip-rule="evenodd" d="M183.039 95.8222C185.608 95.6815 188.345 95.7726 190.922 95.77C194.323 95.7667 197.886 95.6901 201.235 96.2059C203.734 96.5909 206.308 97.8419 207.708 99.9976C209.259 102.28 209.962 104.876 209.481 107.613C209.041 110.121 207.52 112.644 205.403 114.082C204.501 114.694 203.531 115.183 202.616 115.817C203.966 116.604 205.66 117.174 206.856 118.09C209.231 119.91 210.773 122.61 211.135 125.58C211.555 128.783 210.55 132.091 208.589 134.631C206.479 137.142 203.803 139.011 200.406 139.13C197.89 139.114 194.703 139.251 192.269 139.11C190.517 139.008 183.511 139.408 182.441 138.915C182.5 138.524 183.221 138.207 183.575 138.061C185.703 137.183 186.707 135.309 186.819 133.048C186.929 130.834 186.928 128.53 186.93 126.28L186.923 107.318C186.921 105.24 187.131 102.277 186.591 100.31C185.858 97.6425 183.375 97.4805 182.865 96.2079C182.88 95.9128 182.831 96.0143 183.039 95.8222ZM200.84 118.778C199.305 117.396 196.833 117.524 194.895 117.639C194.842 117.642 194.788 117.646 194.735 117.652C194.609 117.697 194.492 117.705 194.43 117.829C194.258 118.185 194.393 133.089 194.464 134.595C194.485 135.045 194.516 135.557 194.678 135.982C194.904 136.579 195.331 137.071 195.92 137.33C196.976 137.795 198.418 137.504 199.445 137.083C200.133 136.801 200.695 136.434 201.241 135.931C203.465 133.443 203.336 129.643 203.198 126.482C203.093 124.066 202.731 120.481 200.84 118.778ZM201.889 104.338C202.078 100.192 201.02 97.1457 196.342 97.6137C195.558 97.8838 195.007 98.176 194.494 98.8677C194.385 101.049 194.427 103.483 194.427 105.681L194.452 115.893C196.089 115.816 197.64 115.75 199.147 115.01C202.505 112.926 201.733 107.746 201.889 104.338Z" fill="#FEFDFD"/>
<path fill-rule="evenodd" clip-rule="evenodd" d="M55.9036 95.4386C56.4082 95.5279 56.5025 95.8171 56.6648 96.2452C57.7025 98.9828 58.4486 101.817 59.3598 104.597L65.8799 125.031L67.9893 131.864C68.532 133.616 68.9677 135.75 70.2031 137.143C70.7265 137.734 72.367 138.25 72.751 138.858L72.6548 139.009C71.6871 139.201 57.5739 139.165 56.9312 138.915C56.781 138.624 56.8137 138.267 56.9847 137.992C57.5981 137.787 58.4178 137.92 59.1084 137.751C62.8167 136.84 61.099 133.208 60.3651 130.762C59.9603 129.413 59.2243 128.023 58.8935 126.68L57.2572 126.726C54.1521 126.759 50.9422 126.694 47.8273 126.678C46.9438 129.03 46.154 131.286 45.7002 133.796C45.295 136.037 46.182 137.626 48.541 137.961C48.8763 138.009 49.0981 138.015 49.3043 138.288C49.3541 138.575 49.4254 138.799 49.2988 139.059C48.5413 139.248 40.2487 139.138 39.2744 139.039C40.1531 138.109 41.5971 137.517 42.1477 136.56C43.1896 134.651 43.8711 132.454 44.5256 130.384C47.2459 121.779 49.8637 113.131 52.6934 104.561C53.3848 102.467 54.6298 97.0575 55.9036 95.4386ZM53.1584 108.761C52.3293 110.055 51.3291 114.3 50.8585 115.947C50.0976 118.609 49.0234 121.657 48.621 124.362L53.5237 124.33C54.987 124.331 56.5416 124.359 57.9974 124.326C57.6795 122.651 53.8071 109.428 53.1584 108.761Z" fill="#FEFDFD"/>
<rect x="34.5762" y="148.006" width="180.848" height="6.99367" fill="#FAEB01"/>
</svg>
