<svg width="250" height="250" viewBox="0 0 250 250" fill="none" xmlns="http://www.w3.org/2000/svg">
<mask id="path-1-inside-1_769_53" fill="white">
<path d="M0 48C0 21.4903 21.4903 0 48 0H202C228.51 0 250 21.4903 250 48V202C250 228.51 228.51 250 202 250H48C21.4903 250 0 228.51 0 202V48Z"/>
</mask>
<path d="M0 48C0 21.4903 21.4903 0 48 0H202C228.51 0 250 21.4903 250 48V202C250 228.51 228.51 250 202 250H48C21.4903 250 0 228.51 0 202V48Z" fill="white"/>
<path d="M48 0V2H202V0V-2H48V0ZM250 48H248V202H250H252V48H250ZM202 250V248H48V250V252H202V250ZM0 202H2V48H0H-2V202H0ZM48 250V248C22.5949 248 2 227.405 2 202H0H-2C-2 229.614 20.3858 252 48 252V250ZM250 202H248C248 227.405 227.405 248 202 248V250V252C229.614 252 252 229.614 252 202H250ZM202 0V2C227.405 2 248 22.5949 248 48H250H252C252 20.3858 229.614 -2 202 -2V0ZM48 0V-2C20.3858 -2 -2 20.3858 -2 48H0H2C2 22.5949 22.5949 2 48 2V0Z" fill="#DDDBDB" mask="url(#path-1-inside-1_769_53)"/>
<path d="M161.3 57.9341V58.1836V191.821H195V57.9341H161.3Z" fill="#2054D2"/>
<path d="M194.509 124.875C194.534 138.787 190.463 152.395 182.814 163.974C175.164 175.554 164.278 184.586 151.535 189.927C138.791 195.268 124.762 196.678 111.223 193.98C97.6837 191.28 85.2431 184.593 75.4754 174.765C65.7077 164.936 59.0519 152.407 56.3504 138.764C53.6489 125.12 55.023 110.976 60.2989 98.1198C65.5747 85.2643 74.5152 74.2749 85.9889 66.5434C97.4626 58.8113 110.954 54.6841 124.755 54.6841C143.234 54.6841 160.957 62.0754 174.035 75.2351C187.113 88.3948 194.477 106.247 194.509 124.875ZM89.0727 124.875C89.0727 131.989 91.1654 138.943 95.0862 144.859C99.0071 150.773 104.58 155.384 111.1 158.106C117.62 160.829 124.794 161.541 131.716 160.154C138.638 158.765 144.996 155.34 149.986 150.309C154.976 145.279 158.375 138.869 159.752 131.892C161.129 124.915 160.422 117.682 157.721 111.11C155.021 104.537 150.447 98.9194 144.579 94.9674C138.711 91.0148 131.813 88.9052 124.755 88.9052C115.292 88.9052 106.216 92.6947 99.5238 99.4404C92.8321 106.186 89.0727 115.335 89.0727 124.875Z" fill="#D8A28F"/>
</svg>
