<svg width="250" height="250" viewBox="0 0 250 250" fill="none" xmlns="http://www.w3.org/2000/svg">
<mask id="path-1-inside-1_769_51" fill="white">
<path d="M0 48C0 21.4903 21.4903 0 48 0H202C228.51 0 250 21.4903 250 48V202C250 228.51 228.51 250 202 250H48C21.4903 250 0 228.51 0 202V48Z"/>
</mask>
<path d="M0 48C0 21.4903 21.4903 0 48 0H202C228.51 0 250 21.4903 250 48V202C250 228.51 228.51 250 202 250H48C21.4903 250 0 228.51 0 202V48Z" fill="white"/>
<path d="M48 0V2H202V0V-2H48V0ZM250 48H248V202H250H252V48H250ZM202 250V248H48V250V252H202V250ZM0 202H2V48H0H-2V202H0ZM48 250V248C22.5949 248 2 227.405 2 202H0H-2C-2 229.614 20.3858 252 48 252V250ZM250 202H248C248 227.405 227.405 248 202 248V250V252C229.614 252 252 229.614 252 202H250ZM202 0V2C227.405 2 248 22.5949 248 48H250H252C252 20.3858 229.614 -2 202 -2V0ZM48 0V-2C20.3858 -2 -2 20.3858 -2 48H0H2C2 22.5949 22.5949 2 48 2V0Z" fill="#DDDBDB" mask="url(#path-1-inside-1_769_51)"/>
<path d="M124.744 66.1074C126.006 66.7489 134.921 82.4939 136.527 85.1913L185.435 167.407C188.631 172.818 191.89 178.042 195 183.566L157.77 183.765C156.716 183.66 156.356 183.606 155.782 182.63C154.692 180.779 153.667 178.894 152.602 177.03L146.399 166.33L124.134 128.612C112.018 128.665 99.8991 128.624 87.7817 128.49C89.9138 125.287 91.7194 121.707 93.675 118.401C97.0972 112.616 100.595 106.859 104.034 101.088L121.351 71.883C122.508 69.8984 123.449 68.0296 124.744 66.1074Z" fill="#0B370F"/>
<path d="M80.1685 141.305C92.6739 141.152 105.181 141.164 117.685 141.34C122.357 148.468 126.425 156.03 130.787 163.275L137.339 174.262C139.609 178.047 142.566 183.893 142.566 183.893H112.322L99.0077 162.805C99.0077 162.805 89.3122 176.447 85.8085 183.893H54.9995C54.9995 183.893 56.9412 180.162 57.8322 178.631L64.024 168.137C65.283 165.979 66.7099 163.828 68.0091 161.66C72.0697 154.884 76.0451 148.038 80.1685 141.305Z" fill="#E69702"/>
</svg>
