<svg width="250" height="250" viewBox="0 0 250 250" fill="none" xmlns="http://www.w3.org/2000/svg">
<mask id="path-1-inside-1_769_55" fill="white">
<path d="M0 48C0 21.4903 21.4903 0 48 0H202C228.51 0 250 21.4903 250 48V202C250 228.51 228.51 250 202 250H48C21.4903 250 0 228.51 0 202V48Z"/>
</mask>
<path d="M0 48C0 21.4903 21.4903 0 48 0H202C228.51 0 250 21.4903 250 48V202C250 228.51 228.51 250 202 250H48C21.4903 250 0 228.51 0 202V48Z" fill="white"/>
<path d="M48 0V2H202V0V-2H48V0ZM250 48H248V202H250H252V48H250ZM202 250V248H48V250V252H202V250ZM0 202H2V48H0H-2V202H0ZM48 250V248C22.5949 248 2 227.405 2 202H0H-2C-2 229.614 20.3858 252 48 252V250ZM250 202H248C248 227.405 227.405 248 202 248V250V252C229.614 252 252 229.614 252 202H250ZM202 0V2C227.405 2 248 22.5949 248 48H250H252C252 20.3858 229.614 -2 202 -2V0ZM48 0V-2C20.3858 -2 -2 20.3858 -2 48H0H2C2 22.5949 22.5949 2 48 2V0Z" fill="#DDDBDB" mask="url(#path-1-inside-1_769_55)"/>
<path d="M122.703 153.761C124.909 151.455 127.051 149.214 129.185 146.973C132.819 143.176 136.453 139.372 140.087 135.574C141.075 134.544 142.214 133.78 143.678 133.629C146.923 133.297 149.266 135.582 149.591 138.255C149.728 139.372 149.641 140.452 149.165 141.49C148.92 142.03 148.567 142.499 148.148 142.917C144.139 146.908 140.138 150.9 136.129 154.885C135.912 155.101 135.891 155.202 136.114 155.432C140.679 160.13 145.243 164.843 149.8 169.555C151.451 171.263 151.984 173.778 151.025 175.838C150.067 177.906 148.394 179.001 146.093 179.102C144.233 179.189 142.791 178.425 141.572 177.078C135.4 170.261 129.221 163.452 123.042 156.643C122.955 156.542 122.861 156.448 122.76 156.34C122.667 156.47 122.71 156.6 122.71 156.722C122.71 162.112 122.71 167.502 122.703 172.891C122.703 175.564 121.152 177.913 118.744 178.764C114.706 180.19 111.354 177.265 110.813 174.123C110.741 173.698 110.726 173.266 110.726 172.834C110.726 153.148 110.726 133.47 110.726 113.785C110.726 110.867 112.515 108.395 115.182 107.704C119.35 106.623 122.364 109.945 122.645 112.784C122.681 113.166 122.703 113.547 122.703 113.929C122.703 127.043 122.703 140.164 122.703 153.278C122.703 153.415 122.703 153.545 122.703 153.761Z" fill="black"/>
<path d="M183.008 173.092C182.648 173.503 182.323 173.899 181.977 174.267C178.977 177.487 175.264 179.051 170.866 179.101C167.859 179.137 165.054 178.474 162.552 176.781C158.997 174.382 156.892 171.031 156.135 166.823C155.904 165.555 155.818 164.28 155.818 162.99C155.818 155.288 155.818 147.578 155.818 139.875C155.818 137.137 157.382 134.81 159.791 133.931C163.388 132.619 167.376 135.134 167.758 138.953C167.794 139.328 167.808 139.695 167.808 140.07C167.808 146.778 167.808 153.486 167.808 160.194C167.808 162.061 168.169 163.819 169.265 165.368C170.794 167.522 172.928 168.481 175.538 168.466C179.814 168.445 182.568 165.281 182.958 161.614C183.015 161.074 183.03 160.54 183.03 160C183.03 153.292 183.03 146.583 183.03 139.875C183.03 137.202 184.241 135.192 186.657 134.111C190.622 132.331 194.264 135.206 194.905 138.47C194.978 138.838 194.985 139.205 194.985 139.58C194.985 150.762 194.963 161.953 194.999 173.135C195.006 175.859 192.749 178.698 189.808 179.08C186.772 179.476 183.7 177.278 183.16 174.259C183.102 173.892 183.066 173.51 183.008 173.092Z" fill="black"/>
<path d="M177.477 96.9328C178.854 97.4589 180.224 97.9922 181.601 98.511C185.444 99.9591 189.295 101.408 193.138 102.856C193.859 103.13 194.429 103.576 194.782 104.283C194.919 104.563 194.998 104.859 194.998 105.183C194.998 111.005 194.998 116.82 194.991 122.642C194.991 123.679 194.162 124.602 193.03 124.875C192.41 125.027 191.797 124.984 191.191 124.76C186.043 122.822 180.894 120.891 175.754 118.953C166.402 115.436 157.057 111.913 147.705 108.39C147.417 108.281 147.114 108.209 146.854 108.029C146.962 107.928 147.078 107.979 147.193 108.008C147.734 108.145 148.26 108.094 148.779 107.892C152.767 106.336 156.768 104.794 160.763 103.252C166.113 101.184 171.456 99.1017 176.806 97.0482C176.95 96.9905 177.095 96.9328 177.232 96.8538C177.333 96.8104 177.412 96.8538 177.477 96.9328Z" fill="#6F3A96"/>
<path d="M177.478 96.9311C177.406 96.9095 177.334 96.8951 177.262 96.8735C177.096 96.9528 176.959 96.8591 176.815 96.8087C171.241 94.7263 165.668 92.615 160.094 90.5256C156.496 89.1782 152.905 87.8235 149.314 86.4617C148.694 86.2239 148.082 86.1951 147.44 86.2528C147.31 86.2672 147.18 86.3176 147.065 86.2023C147.728 85.8492 148.456 85.6259 149.156 85.3521C156.518 82.4987 163.887 79.6454 171.249 76.7992C176.202 74.8826 181.149 72.9731 186.102 71.0565C187.854 70.3792 189.592 71.5681 189.592 73.4559C189.599 79.0834 189.592 84.7108 189.592 90.3382C189.592 91.5848 189.037 92.4277 187.861 92.889C185.215 93.9265 182.562 94.9425 179.915 95.9657C179.101 96.2827 178.286 96.6141 177.478 96.9311Z" fill="#00C3FF"/>
<path d="M147.059 86.2024C148.299 85.8781 149.388 86.3897 150.498 86.8076C157.183 89.3295 163.874 91.8371 170.558 94.359C172.793 95.2019 175.021 96.0449 177.256 96.888C177.184 97.0754 176.99 97.0754 176.853 97.133C173.889 98.2858 170.926 99.4316 167.955 100.577C164.753 101.817 161.552 103.041 158.351 104.281C155.596 105.347 152.842 106.421 150.088 107.487C149.64 107.66 149.193 107.833 148.746 108.006C148.119 108.244 147.484 108.208 146.85 108.028C145.797 107.538 145.278 106.695 145.278 105.542C145.271 102.688 145.278 99.835 145.278 96.9817C145.278 94.3301 145.3 91.6858 145.271 89.0341C145.249 87.6723 145.754 86.6996 147.059 86.2024Z" fill="#581689"/>
<path d="M103.379 139.848C103.379 139.402 103.342 138.962 103.263 138.522C102.773 135.835 100.328 133.702 97.639 133.594C94.2718 133.457 92.1013 136.044 91.5823 138.126C91.4091 138.818 91.3804 139.524 91.3804 140.324C91.2505 140.165 91.1784 140.079 91.1135 140C89.3615 137.852 87.22 136.21 84.6602 135.129C82.461 134.199 80.1538 133.76 77.7743 133.63C74.7891 133.472 71.8689 133.789 69.0785 134.862C63.5697 136.988 59.6761 140.871 57.1452 146.139C55.047 150.52 54.6648 155.189 55.2416 159.944C55.7752 164.325 57.4841 168.216 60.3538 171.581C62.9424 174.622 66.0573 176.906 69.8932 178.131C73.311 179.219 76.8009 179.348 80.3195 178.801C84.6745 178.124 88.3087 176.128 91.1208 172.705C91.1857 172.626 91.2288 172.496 91.366 172.482C91.3874 172.871 91.402 173.238 91.4237 173.613C91.6183 176.675 94.7764 180.04 99.0018 178.887C101.598 178.181 103.379 175.717 103.379 172.885C103.379 161.875 103.379 150.858 103.379 139.848ZM81.6318 167.697C78.4521 168.231 75.3732 167.928 72.5539 166.256C68.7828 164.022 66.9658 160.665 66.9874 156.291C67.0019 153.157 67.9609 150.404 70.261 148.199C72.2871 146.254 74.7098 145.159 77.5074 144.885C80.1681 144.625 82.7279 144.957 85.1144 146.218C89.0082 148.271 91.1281 151.867 91.1281 156.363C91.1641 163.194 86.2032 166.926 81.6318 167.697Z" fill="black"/>
</svg>
