<svg width="250" height="250" viewBox="0 0 250 250" fill="none" xmlns="http://www.w3.org/2000/svg">
<mask id="path-1-inside-1_769_56" fill="white">
<path d="M0 48C0 21.4903 21.4903 0 48 0H202C228.51 0 250 21.4903 250 48V202C250 228.51 228.51 250 202 250H48C21.4903 250 0 228.51 0 202V48Z"/>
</mask>
<path d="M0 48C0 21.4903 21.4903 0 48 0H202C228.51 0 250 21.4903 250 48V202C250 228.51 228.51 250 202 250H48C21.4903 250 0 228.51 0 202V48Z" fill="white"/>
<path d="M48 0V2H202V0V-2H48V0ZM250 48H248V202H250H252V48H250ZM202 250V248H48V250V252H202V250ZM0 202H2V48H0H-2V202H0ZM48 250V248C22.5949 248 2 227.405 2 202H0H-2C-2 229.614 20.3858 252 48 252V250ZM250 202H248C248 227.405 227.405 248 202 248V250V252C229.614 252 252 229.614 252 202H250ZM202 0V2C227.405 2 248 22.5949 248 48H250H252C252 20.3858 229.614 -2 202 -2V0ZM48 0V-2C20.3858 -2 -2 20.3858 -2 48H0H2C2 22.5949 22.5949 2 48 2V0Z" fill="#DDDBDB" mask="url(#path-1-inside-1_769_56)"/>
<path d="M55 59.9839H195V151.086V167.284C194.402 173.186 192.812 174.877 190.49 178.308C189.661 179.513 188.52 180.733 187.611 181.889C187.353 182.217 187.026 182.536 186.749 182.852C182.17 187.37 176.94 191.087 171.332 194.212C170.668 194.582 170.02 195.053 169.342 195.409C168.674 195.768 167.939 196.045 167.26 196.387C159.968 200.115 152.333 203.127 144.461 205.382C138.061 207.17 124.904 209.846 124.904 209.846C124.904 209.846 123.632 209.717 123.141 209.581C112.846 206.995 102.812 204.21 92.9524 200.344C84.4722 197.025 76.3167 193.091 68.9879 187.686C61.9289 182.39 55 174.901 55 165.548V59.9839ZM163.069 62.1076C162.837 62.1194 162.508 62.1059 162.268 62.1038C161.002 62.1626 159.313 62.1156 158.019 62.1157L149.71 62.1155L122.675 62.1239C122.705 64.1305 122.641 66.1107 122.647 68.1109L122.673 89.0708L122.675 98.1755C122.676 99.0744 122.74 101.793 122.653 102.602C122.732 104.609 122.68 106.955 122.68 108.987L122.655 122.742L122.676 164.644C121.586 164.737 120.987 164.741 119.871 164.693C119.085 164.785 117.776 164.752 116.95 164.75L111.973 164.741C107.38 164.738 102.507 164.834 97.9391 164.735C97.6115 164.757 97.2525 164.748 96.9218 164.745C91.3801 164.691 85.8168 164.817 80.2771 164.733C79.592 164.792 78.0729 164.748 77.3446 164.749L71.4468 164.745C66.6482 164.741 61.3827 164.857 56.6267 164.73C56.8499 179.138 71.2924 188.014 82.7151 193.783C93.1235 199.04 104.211 202.951 115.438 206.076L120.504 207.441C121.584 207.742 123.345 208.319 124.415 208.435C124.588 208.439 124.731 208.49 124.901 208.523C125.058 208.272 124.989 177.285 124.988 174.482L124.987 169.191C124.987 168.108 124.956 166.808 125.034 165.743L124.921 127.689L124.922 114.416C124.923 112.269 125.01 109.371 124.892 107.296C124.907 107.12 124.93 107.029 124.967 106.857C125.506 106.783 127.305 106.832 127.919 106.835L133.841 106.85L154.853 106.846L180.839 106.838L188.365 106.842C189.5 106.837 191.677 106.763 192.684 106.868L192.981 106.816C193.176 106.598 193.118 106.307 193.118 105.982C193.049 102.432 193.117 98.6048 193.117 95.0333C193.162 84.0623 193.142 73.0911 193.056 62.1204C192.277 62.0868 191.454 62.1031 190.671 62.1056C187.546 62.1979 183.981 62.1153 180.827 62.1155L163.069 62.1076Z" fill="#3195FF"/>
</svg>
