<svg width="250" height="250" viewBox="0 0 250 250" fill="none" xmlns="http://www.w3.org/2000/svg">
<mask id="path-1-inside-1_769_59" fill="white">
<path d="M0 48C0 21.4903 21.4903 0 48 0H202C228.51 0 250 21.4903 250 48V202C250 228.51 228.51 250 202 250H48C21.4903 250 0 228.51 0 202V48Z"/>
</mask>
<path d="M0 48C0 21.4903 21.4903 0 48 0H202C228.51 0 250 21.4903 250 48V202C250 228.51 228.51 250 202 250H48C21.4903 250 0 228.51 0 202V48Z" fill="white"/>
<path d="M48 0V2H202V0V-2H48V0ZM250 48H248V202H250H252V48H250ZM202 250V248H48V250V252H202V250ZM0 202H2V48H0H-2V202H0ZM48 250V248C22.5949 248 2 227.405 2 202H0H-2C-2 229.614 20.3858 252 48 252V250ZM250 202H248C248 227.405 227.405 248 202 248V250V252C229.614 252 252 229.614 252 202H250ZM202 0V2C227.405 2 248 22.5949 248 48H250H252C252 20.3858 229.614 -2 202 -2V0ZM48 0V-2C20.3858 -2 -2 20.3858 -2 48H0H2C2 22.5949 22.5949 2 48 2V0Z" fill="#DDDBDB" mask="url(#path-1-inside-1_769_59)"/>
<path d="M149.131 175.947H174.367C174.559 175.947 174.691 175.755 174.622 175.576L166.853 155.402C166.818 155.311 166.737 155.246 166.641 155.231C159.231 154.075 151.472 153.247 143.546 152.758C143.362 152.747 143.22 152.917 143.264 153.096L148.866 175.74C148.896 175.862 149.005 175.947 149.131 175.947Z" fill="#164B3B"/>
<path d="M73.9304 175.947H98.6694C98.7935 175.947 98.902 175.864 98.9334 175.744L104.767 153.432C104.814 153.251 104.668 153.076 104.481 153.091C96.4898 153.726 88.625 154.715 81.0678 156.069C80.9728 156.086 80.894 156.152 80.8604 156.242L73.6746 175.579C73.6083 175.758 73.7402 175.947 73.9304 175.947Z" fill="#164B3B"/>
<path d="M124.848 78.6516L138.088 132.174C138.117 132.288 138.215 132.372 138.332 132.381C145.909 133.002 152.742 134.248 158.878 135.906C159.095 135.964 159.286 135.752 159.206 135.543L123.508 42.8441C123.418 42.6094 123.085 42.6114 122.998 42.8471L87.402 138.638C87.3196 138.86 87.5394 139.074 87.7597 138.988C94.6822 136.263 102.144 134.09 109.949 132.949C110.058 132.933 110.147 132.854 110.175 132.748L124.319 78.6481C124.391 78.3744 124.78 78.377 124.848 78.6516Z" fill="#164B3B"/>
<path d="M136.294 177.331H111.346C111.174 177.331 111.045 177.174 111.078 177.005L115.875 152.639C115.9 152.515 116.007 152.424 116.133 152.419C121.401 152.227 126.685 152.184 131.936 152.288C132.066 152.29 132.176 152.385 132.199 152.513L136.562 177.01C136.592 177.178 136.464 177.331 136.294 177.331Z" fill="#164B3B"/>
<path d="M124.712 110.484L128.478 131.622C128.508 131.79 128.377 131.944 128.207 131.943C125.906 131.929 123.545 131.971 121.123 132.074C120.835 132.076 120.548 132.08 120.261 132.086C120.086 132.09 119.952 131.931 119.986 131.76L124.176 110.479C124.234 110.182 124.659 110.186 124.712 110.484Z" fill="#164B3B"/>
<path d="M204.64 162.672C165.075 145.07 88.4161 143.665 45.3629 162.971C45.0825 163.097 44.866 162.767 45.0983 162.566C50.8673 157.572 77.6503 136.762 123.404 136.762C178.308 136.762 200.761 157.807 204.925 162.296C205.12 162.507 204.902 162.788 204.64 162.672Z" fill="#952929"/>
</svg>
