<svg width="250" height="250" viewBox="0 0 250 250" fill="none" xmlns="http://www.w3.org/2000/svg">
<mask id="path-1-inside-1_769_60" fill="white">
<path d="M0 48C0 21.4903 21.4903 0 48 0H202C228.51 0 250 21.4903 250 48V202C250 228.51 228.51 250 202 250H48C21.4903 250 0 228.51 0 202V48Z"/>
</mask>
<path d="M0 48C0 21.4903 21.4903 0 48 0H202C228.51 0 250 21.4903 250 48V202C250 228.51 228.51 250 202 250H48C21.4903 250 0 228.51 0 202V48Z" fill="white"/>
<path d="M48 0V2H202V0V-2H48V0ZM250 48H248V202H250H252V48H250ZM202 250V248H48V250V252H202V250ZM0 202H2V48H0H-2V202H0ZM48 250V248C22.5949 248 2 227.405 2 202H0H-2C-2 229.614 20.3858 252 48 252V250ZM250 202H248C248 227.405 227.405 248 202 248V250V252C229.614 252 252 229.614 252 202H250ZM202 0V2C227.405 2 248 22.5949 248 48H250H252C252 20.3858 229.614 -2 202 -2V0ZM48 0V-2C20.3858 -2 -2 20.3858 -2 48H0H2C2 22.5949 22.5949 2 48 2V0Z" fill="#DDDBDB" mask="url(#path-1-inside-1_769_60)"/>
<path d="M180.865 153.948L198.287 189.071C199.084 190.677 197.939 192.567 196.146 192.604L162.955 193.29C162.015 193.31 161.146 192.788 160.721 191.948L148.009 166.802C147.234 165.27 147.978 163.404 149.596 162.827L177.85 152.731C179.018 152.314 180.314 152.837 180.865 153.948Z" fill="url(#paint0_linear_769_60)"/>
<path d="M161.164 121.523L65.5099 169.991C63.4733 171.023 61.2583 168.95 62.1534 166.85L63.7755 163.043C63.9658 162.597 64.2847 162.217 64.6916 161.952L152.391 104.87C154.022 103.809 156.214 104.403 157.087 106.142L162.606 117.151C163.411 118.757 162.767 120.711 161.164 121.523Z" fill="#D2A543"/>
<path d="M161.164 121.523L65.5099 169.991C63.4733 171.023 61.2583 168.95 62.1534 166.85L63.7755 163.043C63.9658 162.597 64.2847 162.217 64.6916 161.952L152.391 104.87C154.022 103.809 156.214 104.403 157.087 106.142L162.606 117.151C163.411 118.757 162.767 120.711 161.164 121.523Z" fill="url(#paint1_linear_769_60)"/>
<path d="M141.006 78.041L83.4941 127.744C82.1641 128.894 80.2071 127.416 80.949 125.822L121.02 39.747C121.596 38.5085 123.349 38.4851 123.958 39.7078L141.596 75.0987C142.095 76.0991 141.852 77.3102 141.006 78.041Z" fill="url(#paint2_linear_769_60)"/>
<path d="M150.939 98.8761L71.7719 151.509C70.7694 152.176 69.5083 151.146 69.9612 150.03L71.4353 146.4C71.5815 146.04 71.8114 145.719 72.106 145.466L143.627 83.8962C144.434 83.2014 145.68 83.4538 146.153 84.4079L151.776 95.7521C152.323 96.8558 151.964 98.1941 150.939 98.8761Z" fill="#D2A542"/>
<path d="M150.939 98.8761L71.7719 151.509C70.7694 152.176 69.5083 151.146 69.9612 150.03L71.4353 146.4C71.5815 146.04 71.8114 145.719 72.106 145.466L143.627 83.8962C144.434 83.2014 145.68 83.4538 146.153 84.4079L151.776 95.7521C152.323 96.8558 151.964 98.1941 150.939 98.8761Z" fill="url(#paint3_linear_769_60)"/>
<path d="M168.072 128.767L175.194 142.943C176.072 144.69 175.227 146.811 173.388 147.476L57.7827 189.241C54.9982 190.247 52.4215 187.322 53.7705 184.687L55.3592 181.583C55.598 181.117 55.9804 180.739 56.45 180.506L163.708 127.31C165.316 126.512 167.266 127.164 168.072 128.767Z" fill="url(#paint4_linear_769_60)"/>
<defs>
<linearGradient id="paint0_linear_769_60" x1="142.24" y1="176.118" x2="193.001" y2="164.101" gradientUnits="userSpaceOnUse">
<stop stop-color="#0D0E51"/>
<stop offset="1" stop-color="#0F0E6C"/>
</linearGradient>
<linearGradient id="paint1_linear_769_60" x1="167.206" y1="111.896" x2="44.7142" y2="151.107" gradientUnits="userSpaceOnUse">
<stop stop-color="#DDB754"/>
<stop offset="1" stop-color="#C4832F"/>
</linearGradient>
<linearGradient id="paint2_linear_769_60" x1="128.316" y1="28.5798" x2="83.8215" y2="123.049" gradientUnits="userSpaceOnUse">
<stop stop-color="#15156B"/>
<stop offset="1" stop-color="#0E074B"/>
</linearGradient>
<linearGradient id="paint3_linear_769_60" x1="155.267" y1="91.6753" x2="53.0272" y2="117.673" gradientUnits="userSpaceOnUse">
<stop stop-color="#DDB754"/>
<stop offset="1" stop-color="#C4832F"/>
</linearGradient>
<linearGradient id="paint4_linear_769_60" x1="180.659" y1="134.376" x2="40.5468" y2="192.053" gradientUnits="userSpaceOnUse">
<stop stop-color="#DDB754"/>
<stop offset="1" stop-color="#C4832F"/>
</linearGradient>
</defs>
</svg>
