<svg width="250" height="250" viewBox="0 0 250 250" fill="none" xmlns="http://www.w3.org/2000/svg">
<mask id="path-1-inside-1_769_69" fill="white">
<path d="M0 48C0 21.4903 21.4903 0 48 0H202C228.51 0 250 21.4903 250 48V202C250 228.51 228.51 250 202 250H48C21.4903 250 0 228.51 0 202V48Z"/>
</mask>
<path d="M0 48C0 21.4903 21.4903 0 48 0H202C228.51 0 250 21.4903 250 48V202C250 228.51 228.51 250 202 250H48C21.4903 250 0 228.51 0 202V48Z" fill="white"/>
<path d="M48 0V2H202V0V-2H48V0ZM250 48H248V202H250H252V48H250ZM202 250V248H48V250V252H202V250ZM0 202H2V48H0H-2V202H0ZM48 250V248C22.5949 248 2 227.405 2 202H0H-2C-2 229.614 20.3858 252 48 252V250ZM250 202H248C248 227.405 227.405 248 202 248V250V252C229.614 252 252 229.614 252 202H250ZM202 0V2C227.405 2 248 22.5949 248 48H250H252C252 20.3858 229.614 -2 202 -2V0ZM48 0V-2C20.3858 -2 -2 20.3858 -2 48H0H2C2 22.5949 22.5949 2 48 2V0Z" fill="#DDDBDB" mask="url(#path-1-inside-1_769_69)"/>
<path d="M113.075 88.1788C113.303 88.193 113.398 88.2588 113.601 88.3568C113.638 88.894 112.396 90.5593 112.033 91.1658C110.524 93.6998 109.064 96.2629 107.655 98.8538C102.353 108.718 96.0199 118.171 90.7792 128.107C89.8579 129.853 88.4798 131.563 87.4835 133.314L80.8124 145.071C78.8181 148.6 76.8491 151.995 74.6482 155.409C73.7081 156.723 72.7174 159.217 71.6544 160.318C66.8466 165.297 58.2112 165.303 53.1334 160.962C47.6333 156.335 47.796 147.583 52.5891 142.538C54.7533 140.26 56.8889 138.438 59.0839 136.299C61.6397 133.81 63.9688 131.795 66.6324 129.455L82.555 115.194L103.847 96.0618C106.003 94.1558 110.81 89.5481 113.075 88.1788Z" fill="#088192"/>
<path d="M134.94 49.3191C139.07 48.7997 143.126 50.565 145.867 53.6006C148.881 56.9394 149.803 62.1283 150.73 66.3539C151.42 69.434 152.092 72.5181 152.745 75.6061L158.281 101.419C160.518 111.738 163.188 121.974 165.27 132.339C165.698 134.468 166.174 136.542 166.089 138.723C164.182 136.349 163.27 133.994 161.631 131.385C160.705 129.858 159.498 128.269 158.63 126.741C157.272 124.347 156.033 121.927 154.651 119.533L139.28 93.0501C138.185 91.1841 136.806 89.2475 135.798 87.4106C132.276 80.9974 128.207 74.4667 124.668 68.117C121.539 62.5046 124.506 55.1281 129.397 51.5824C131.517 50.0454 132.248 49.7056 134.94 49.3191Z" fill="#088192"/>
<path d="M142.396 159.173C148.115 158.894 155.634 159.108 161.458 159.107L170.746 159.108C173.472 159.109 177.407 158.881 179.872 159.604C191.056 162.889 192.241 178.19 181.883 183.388C178.507 185.083 173.875 185.167 170.458 183.928C163.817 181.52 157.103 179.399 150.365 177.389C149.353 176.976 147.123 176.387 145.938 176.011C142.11 174.784 138.269 173.594 134.418 172.442C131.884 171.659 129.555 170.614 127.077 169.808L101.984 161.893C101.188 161.644 97.1105 160.48 96.6945 160.134C96.4882 159.663 96.5169 159.866 96.5743 159.365C97.4615 158.911 137.78 159.237 142.396 159.173Z" fill="#088192"/>
<path d="M124.283 118.311C128.977 117.456 133.472 120.582 134.302 125.28C135.132 129.979 131.981 134.456 127.278 135.26C122.611 136.058 118.176 132.937 117.353 128.275C116.529 123.613 119.626 119.161 124.283 118.311Z" fill="#EF2E2E"/>
</svg>
