<svg width="250" height="250" viewBox="0 0 250 250" fill="none" xmlns="http://www.w3.org/2000/svg">
<mask id="path-1-inside-1_769_65" fill="white">
<path d="M0 48C0 21.4903 21.4903 0 48 0H202C228.51 0 250 21.4903 250 48V202C250 228.51 228.51 250 202 250H48C21.4903 250 0 228.51 0 202V48Z"/>
</mask>
<path d="M0 48C0 21.4903 21.4903 0 48 0H202C228.51 0 250 21.4903 250 48V202C250 228.51 228.51 250 202 250H48C21.4903 250 0 228.51 0 202V48Z" fill="white"/>
<path d="M48 0V2H202V0V-2H48V0ZM250 48H248V202H250H252V48H250ZM202 250V248H48V250V252H202V250ZM0 202H2V48H0H-2V202H0ZM48 250V248C22.5949 248 2 227.405 2 202H0H-2C-2 229.614 20.3858 252 48 252V250ZM250 202H248C248 227.405 227.405 248 202 248V250V252C229.614 252 252 229.614 252 202H250ZM202 0V2C227.405 2 248 22.5949 248 48H250H252C252 20.3858 229.614 -2 202 -2V0ZM48 0V-2C20.3858 -2 -2 20.3858 -2 48H0H2C2 22.5949 22.5949 2 48 2V0Z" fill="#DDDBDB" mask="url(#path-1-inside-1_769_65)"/>
<path d="M112.147 144.974V143.284C112.18 137.484 112.694 132.86 113.688 129.413C114.715 125.966 116.207 123.182 118.162 121.061C120.118 118.94 122.471 117.018 125.222 115.294C127.277 113.968 129.116 112.593 130.741 111.168C132.365 109.742 133.657 108.168 134.618 106.445C135.58 104.688 136.06 102.732 136.06 100.578C136.06 98.2912 135.513 96.286 134.419 94.5625C133.326 92.839 131.851 91.5133 129.995 90.5852C128.172 89.6572 126.15 89.1932 123.929 89.1932C121.775 89.1932 119.737 89.6738 117.814 90.6349C115.892 91.563 114.318 92.955 113.091 94.8111C111.865 96.634 111.202 98.9044 111.103 101.622H90.8186C90.9843 94.9934 92.5753 89.5246 95.5914 85.2159C98.6075 80.8741 102.601 77.6425 107.573 75.5213C112.544 73.3669 118.03 72.2898 124.029 72.2898C130.624 72.2898 136.458 73.3835 141.529 75.571C146.6 77.7254 150.577 80.8575 153.461 84.9673C156.344 89.0772 157.786 94.0322 157.786 99.8324C157.786 103.71 157.14 107.157 155.847 110.173C154.588 113.156 152.814 115.808 150.527 118.128C148.241 120.415 145.539 122.486 142.424 124.342C139.805 125.9 137.651 127.524 135.961 129.214C134.303 130.905 133.061 132.86 132.232 135.081C131.437 137.302 131.022 140.036 130.989 143.284V144.974H112.147ZM121.991 176.793C118.676 176.793 115.842 175.633 113.489 173.312C111.169 170.959 110.026 168.142 110.059 164.861C110.026 161.613 111.169 158.829 113.489 156.509C115.842 154.188 118.676 153.028 121.991 153.028C125.139 153.028 127.907 154.188 130.293 156.509C132.679 158.829 133.889 161.613 133.922 164.861C133.889 167.048 133.309 169.054 132.182 170.876C131.089 172.666 129.647 174.108 127.857 175.202C126.067 176.262 124.112 176.793 121.991 176.793Z" fill="#FF0000"/>
</svg>
