<svg width="250" height="250" viewBox="0 0 250 250" fill="none" xmlns="http://www.w3.org/2000/svg">
<rect width="250" height="250" fill="#E6E7EA"/>
<path fill-rule="evenodd" clip-rule="evenodd" d="M193.651 85.7119V96.3662H56.3498V85.5674L125.072 53L193.651 85.7119ZM125 68.6826C120.582 68.6826 117 72.2645 117 76.6826C117 81.1009 120.582 84.6826 125 84.6826C129.419 84.6826 133 81.1009 133 76.6826C133 72.2645 129.418 68.6826 125 68.6826Z" fill="white"/>
<path d="M93 161.57H114V103.51H136V161.57H157V103.51H179V161.57H186.713V168.713H193.654V183H56.3457V168.713H63.2881V161.57H71V103.51H93V161.57Z" fill="white"/>
</svg>
