<svg width="250" height="250" viewBox="0 0 250 250" fill="none" xmlns="http://www.w3.org/2000/svg">
<mask id="path-1-inside-1_769_71" fill="white">
<path d="M0 48C0 21.4903 21.4903 0 48 0H202C228.51 0 250 21.4903 250 48V202C250 228.51 228.51 250 202 250H48C21.4903 250 0 228.51 0 202V48Z"/>
</mask>
<path d="M0 48C0 21.4903 21.4903 0 48 0H202C228.51 0 250 21.4903 250 48V202C250 228.51 228.51 250 202 250H48C21.4903 250 0 228.51 0 202V48Z" fill="white"/>
<path d="M48 0V2H202V0V-2H48V0ZM250 48H248V202H250H252V48H250ZM202 250V248H48V250V252H202V250ZM0 202H2V48H0H-2V202H0ZM48 250V248C22.5949 248 2 227.405 2 202H0H-2C-2 229.614 20.3858 252 48 252V250ZM250 202H248C248 227.405 227.405 248 202 248V250V252C229.614 252 252 229.614 252 202H250ZM202 0V2C227.405 2 248 22.5949 248 48H250H252C252 20.3858 229.614 -2 202 -2V0ZM48 0V-2C20.3858 -2 -2 20.3858 -2 48H0H2C2 22.5949 22.5949 2 48 2V0Z" fill="#DDDBDB" mask="url(#path-1-inside-1_769_71)"/>
<path d="M140.473 86.6694C150.039 86.2134 157.21 87.095 165.882 91.5557C178.907 98.2557 188.685 114.331 192.983 127.954C193.707 130.44 195.541 136.138 194.845 138.42C194.607 139.198 186.046 141.445 184.894 141.783L171.692 145.751C163.751 148.095 153.516 151.438 145.544 153.011C145.521 150.084 146.185 136.577 144.841 135.083C144.546 135.459 144.528 136.437 144.549 136.935C144.811 143.353 143.339 149.485 142.974 155.846C153.086 156.489 166.066 156.273 176.184 155.782C176.307 152.896 176.482 150.012 176.713 147.132C178.755 145.544 180.686 145.422 183.152 145.409C185.049 150.342 184.899 157.781 184.084 162.996C182.775 163.193 180.226 163.23 178.844 163.27C175.366 163.374 171.884 163.426 168.403 163.426C156.21 163.502 143.778 163.185 131.678 163.331C132.54 157.398 133.983 152.005 135.193 146.133C138.618 128.148 137.382 107.896 118.411 99.3227C115.696 98.0958 113.429 96.8208 110.383 96.3109C106.209 95.6123 102.543 95.9921 98.5735 94.2364C104.314 91.6974 116.123 92.4712 122.114 94.1488C124.811 94.92 127.393 96.0448 129.793 97.494C131.448 98.4974 132.959 99.7659 134.459 100.946C144.845 109.116 149.25 120.487 152.043 132.955C152.732 136.028 153.091 139.121 153.845 142.215C156.025 141.911 158.83 141.09 161.023 140.549C166.413 139.187 171.779 137.733 177.12 136.19C179.864 135.395 182.807 134.407 185.553 133.724L185.54 133.572C184.913 126.61 181.565 118.428 177.903 112.459C170.762 100.932 160.754 93.0882 147.185 90.8491C144.089 90.3382 127.321 90.1386 126.368 89.344L126.386 89.0809C127.642 87.8669 138.3 86.8283 140.473 86.6694Z" fill="#62BE27"/>
<path d="M98.346 100.827C99.0109 100.716 100.148 100.727 100.848 100.719C112.383 100.584 125.958 107.293 128.998 119.146C126.131 120.488 122.328 122.157 119.852 123.943C114.038 128.137 110.059 137.032 108.48 143.861C107.668 147.375 107.711 149.969 106.215 153.444C104.617 153.352 102.17 153.333 100.58 153.439C100.017 145.59 105.008 134.255 108.428 127.195C109.144 125.718 111.216 123.429 112.216 121.76C109.391 120.138 106.28 120.321 103.135 120.716C101.707 123.015 100.001 125.71 98.981 128.193C97.1133 132.739 96.0831 137.824 94.8196 142.591C94.0759 145.396 92.9919 149.152 92.5563 151.907C91.8992 156.065 92.172 159.049 90.8853 163.233L84.0912 163.196C83.6341 156.596 84.2644 153.808 85.5033 147.53C87.1031 140.761 89.8331 134.215 91.3067 127.209C89.2434 127.058 86.0683 126.648 84.1439 127.375C81.7212 128.41 81.3419 131.613 80.6495 133.716C78.5906 139.969 78.5884 147.456 76.1584 153.488C74.1666 153.388 72.0601 153.388 70.0567 153.36C69.5934 147.302 72.049 143.878 72.6411 138.108C72.88 135.779 67.0303 136.302 65.5158 136.372C62.2709 142.202 61.7753 149.38 61.1856 155.873C60.9689 158.26 60.8353 160.516 60.2451 162.849C58.2721 163.622 57.076 163.394 55.1192 162.92C54.222 149.735 58.4852 135.393 64.7224 123.844C65.6763 122.078 68.3095 118.719 69.6754 117.172C77.0447 108.822 86.9543 101.775 98.346 100.827Z" fill="#0A2261"/>
<path d="M159.964 120.962L160.102 120.954C161.304 120.887 162.579 121.113 163.43 121.996C165.997 124.661 166.613 130.645 166.724 134.043C164.367 135.006 163.472 135.511 160.929 136.013C159.783 136.179 158.795 136.194 157.638 136.229C155.963 131.958 154.835 126.677 154.264 122.126C155.942 121.594 158.226 121.124 159.964 120.962Z" fill="#62BE27"/>
<path d="M71.2537 156.426C72.7436 156.428 74.6425 156.712 76.1515 156.898C76.4754 159.778 77.2794 162.156 73.9388 163.199C72.1901 163.586 70.5253 163.364 68.8033 163.015C68.4193 160.283 67.7985 156.951 71.2537 156.426Z" fill="#0A2261"/>
<path d="M101.79 156.581C105.823 156.381 108.154 157.8 105.699 162.311C105.306 163.033 104.882 163.1 104.088 163.246C102.699 163.5 100.808 163.318 99.3654 163.222C99.1106 160.391 98.2316 157.32 101.79 156.581Z" fill="#0A2261"/>
</svg>
