<svg width="250" height="250" viewBox="0 0 250 250" fill="none" xmlns="http://www.w3.org/2000/svg">
<mask id="path-1-inside-1_769_78" fill="white">
<path d="M0 48C0 21.4903 21.4903 0 48 0H202C228.51 0 250 21.4903 250 48V202C250 228.51 228.51 250 202 250H48C21.4903 250 0 228.51 0 202V48Z"/>
</mask>
<path d="M0 48C0 21.4903 21.4903 0 48 0H202C228.51 0 250 21.4903 250 48V202C250 228.51 228.51 250 202 250H48C21.4903 250 0 228.51 0 202V48Z" fill="white"/>
<path d="M48 0V2H202V0V-2H48V0ZM250 48H248V202H250H252V48H250ZM202 250V248H48V250V252H202V250ZM0 202H2V48H0H-2V202H0ZM48 250V248C22.5949 248 2 227.405 2 202H0H-2C-2 229.614 20.3858 252 48 252V250ZM250 202H248C248 227.405 227.405 248 202 248V250V252C229.614 252 252 229.614 252 202H250ZM202 0V2C227.405 2 248 22.5949 248 48H250H252C252 20.3858 229.614 -2 202 -2V0ZM48 0V-2C20.3858 -2 -2 20.3858 -2 48H0H2C2 22.5949 22.5949 2 48 2V0Z" fill="#DDDBDB" mask="url(#path-1-inside-1_769_78)"/>
<path d="M167.866 178.224H155.798L150.361 162.451H111.723V173.048H143.771L145.699 178.224H82.019L122.578 71.2998H123.893L167.866 178.224Z" fill="#16243E"/>
<path d="M178.639 165.598L135.307 71.2998H178.639V165.598Z" fill="#16243E"/>
<path d="M71.3604 156.63V71.2998H110.807L71.3604 156.63Z" fill="#16243E"/>
<path d="M153.812 200H71.3604V180.809H146.662L153.812 200Z" fill="#F36C3C"/>
<path d="M178.639 200H163.304L156.689 180.809H178.639V200Z" fill="#F36C3C"/>
<path d="M111.782 69.1913H71.3604V50H120.653L111.782 69.1913Z" fill="#F36C3C"/>
<path d="M178.639 69.1913H134.338L125.519 50H178.639V69.1913Z" fill="#F36C3C"/>
</svg>
