<svg width="250" height="250" viewBox="0 0 250 250" fill="none" xmlns="http://www.w3.org/2000/svg">
<mask id="path-1-inside-1_769_85" fill="white">
<path d="M0 48C0 21.4903 21.4903 0 48 0H202C228.51 0 250 21.4903 250 48V202C250 228.51 228.51 250 202 250H48C21.4903 250 0 228.51 0 202V48Z"/>
</mask>
<path d="M0 48C0 21.4903 21.4903 0 48 0H202C228.51 0 250 21.4903 250 48V202C250 228.51 228.51 250 202 250H48C21.4903 250 0 228.51 0 202V48Z" fill="white"/>
<path d="M48 0V2H202V0V-2H48V0ZM250 48H248V202H250H252V48H250ZM202 250V248H48V250V252H202V250ZM0 202H2V48H0H-2V202H0ZM48 250V248C22.5949 248 2 227.405 2 202H0H-2C-2 229.614 20.3858 252 48 252V250ZM250 202H248C248 227.405 227.405 248 202 248V250V252C229.614 252 252 229.614 252 202H250ZM202 0V2C227.405 2 248 22.5949 248 48H250H252C252 20.3858 229.614 -2 202 -2V0ZM48 0V-2C20.3858 -2 -2 20.3858 -2 48H0H2C2 22.5949 22.5949 2 48 2V0Z" fill="#DDDBDB" mask="url(#path-1-inside-1_769_85)"/>
<path fill-rule="evenodd" clip-rule="evenodd" d="M104.479 115.302C102.503 118.953 101.077 122.896 100.262 127.001C99.0317 133.197 99.2241 139.596 100.825 145.705L68.9939 145.705C68.9939 141.657 69.7821 137.648 71.3134 133.908C72.8448 130.169 75.0894 126.771 77.9193 123.91C80.7488 121.048 84.1081 118.779 87.8046 117.232C91.5012 115.685 95.4624 114.889 99.4626 114.892C101.147 114.889 102.825 115.026 104.479 115.302Z" fill="#AF792C"/>
<path d="M177.248 145.705C178.771 139.958 178.966 133.932 177.819 128.095C176.673 122.259 174.214 116.768 170.635 112.047C167.055 107.326 162.451 103.501 157.177 100.869C151.904 98.2371 146.102 96.8684 140.222 96.8684C134.341 96.8684 128.54 98.2371 123.266 100.869C117.993 103.501 113.388 107.326 109.808 112.047C106.229 116.768 103.771 122.259 102.624 128.095C101.477 133.932 101.673 139.958 103.195 145.705H177.248Z" fill="#CCA159"/>
<path d="M192.716 147.505H57.2844C56.0226 147.505 55 148.541 55 149.817V150.818C55 152.095 56.0226 153.13 57.2844 153.13H192.716C193.978 153.13 195 152.095 195 150.818V149.817C195 148.541 193.978 147.505 192.716 147.505Z" fill="#AF792C"/>
</svg>
