<svg width="250" height="250" viewBox="0 0 250 250" fill="none" xmlns="http://www.w3.org/2000/svg">
<mask id="path-1-inside-1_769_86" fill="white">
<path d="M0 48C0 21.4903 21.4903 0 48 0H202C228.51 0 250 21.4903 250 48V202C250 228.51 228.51 250 202 250H48C21.4903 250 0 228.51 0 202V48Z"/>
</mask>
<path d="M0 48C0 21.4903 21.4903 0 48 0H202C228.51 0 250 21.4903 250 48V202C250 228.51 228.51 250 202 250H48C21.4903 250 0 228.51 0 202V48Z" fill="white"/>
<path d="M48 0V2H202V0V-2H48V0ZM250 48H248V202H250H252V48H250ZM202 250V248H48V250V252H202V250ZM0 202H2V48H0H-2V202H0ZM48 250V248C22.5949 248 2 227.405 2 202H0H-2C-2 229.614 20.3858 252 48 252V250ZM250 202H248C248 227.405 227.405 248 202 248V250V252C229.614 252 252 229.614 252 202H250ZM202 0V2C227.405 2 248 22.5949 248 48H250H252C252 20.3858 229.614 -2 202 -2V0ZM48 0V-2C20.3858 -2 -2 20.3858 -2 48H0H2C2 22.5949 22.5949 2 48 2V0Z" fill="#DDDBDB" mask="url(#path-1-inside-1_769_86)"/>
<path d="M60.0413 102.813L149.217 102.809L149.243 147.995C149.245 162.676 149.371 177.579 149.19 192.245L60.063 192.229C59.9285 182.164 60.0513 171.813 60.0508 161.729L60.0413 102.813Z" fill="#283B93"/>
<path d="M102.836 57.7554C131.625 58.1411 161.15 57.7792 189.999 57.8123C189.763 60.5508 189.899 65.5407 189.899 68.3832L189.897 87.9271L189.924 149.774C185.877 149.948 181.386 149.849 177.287 149.847L155.646 149.827C155.874 131.123 155.675 112.03 155.682 93.2928L102.845 93.2997L102.836 57.7554Z" fill="#1274BC"/>
</svg>
