<svg width="250" height="250" viewBox="0 0 250 250" fill="none" xmlns="http://www.w3.org/2000/svg">
<path d="M0 48C0 21.4903 21.4903 0 48 0H202C228.51 0 250 21.4903 250 48V202C250 228.51 228.51 250 202 250H48C21.4903 250 0 228.51 0 202V48Z" fill="#141414"/>
<path d="M178.315 126.122C184.77 119.032 186.887 108.239 183.712 99.2439C180.432 90.2491 171.967 83.3709 162.442 81.9951C163.501 77.974 163.818 73.6353 162.971 69.72C162.654 68.2385 162.231 66.8629 161.596 65.593C161.278 64.8523 160.855 64.2174 160.431 63.5824C157.575 59.5613 152.813 57.0216 148.051 55.9634C144.558 55.1168 141.066 55.011 137.468 55.011H92.0715C90.1667 55.011 89.5318 57.4449 91.1191 58.3972L106.675 68.3443H106.781C107.627 69.1909 108.685 69.6142 109.849 69.6142H145.299C145.299 69.6142 145.722 69.6142 145.934 69.72C146.675 69.9317 147.416 70.1433 147.945 70.6724C149.426 71.7306 149.849 73.8471 149.532 75.5402C149.214 77.3391 148.262 78.9263 147.204 80.4078C143.288 86.0164 137.998 90.5666 133.871 96.0692C129.532 101.784 126.675 108.45 125.193 115.329C124.135 108.662 121.807 102.207 118.209 96.4926C113.659 89.4026 107.204 83.3709 99.2673 80.8312C94.6112 79.2438 89.5318 79.0322 84.7699 80.1963C82.4419 80.7254 80.1138 81.6778 78.1032 83.0534C70.9074 87.8153 65.6164 94.6936 64.664 103.477C63.9233 110.355 66.1455 117.445 70.4841 122.736C70.8016 123.159 71.1191 123.583 71.5424 123.9C65.0873 130.99 62.9709 141.784 66.1455 150.778C69.4259 159.774 77.8916 166.652 87.4154 168.027C86.3572 172.048 85.9339 176.387 86.8863 180.302C87.2038 181.784 87.627 183.159 88.262 184.429C88.5794 185.17 89.0027 185.805 89.426 186.44C92.2832 190.462 97.0451 193.001 101.807 194.059C105.299 194.906 108.791 195.011 112.389 195.011H158.421C160.114 195.011 160.749 192.789 159.267 191.942L143.183 181.678H142.971C142.124 180.832 141.066 180.409 139.902 180.409H104.452C104.452 180.409 104.029 180.409 103.818 180.302C103.077 180.091 102.336 179.774 101.807 179.35C100.326 178.292 99.9022 176.175 100.22 174.483C100.537 172.683 101.49 171.096 102.548 169.615C106.463 164.006 111.754 159.456 115.881 153.953C120.22 148.238 123.077 141.572 124.558 134.588C125.511 141.255 127.945 147.71 131.542 153.529C136.093 160.62 142.548 166.652 150.484 169.191C155.14 170.779 160.219 170.991 164.981 169.826C167.31 169.297 169.637 168.344 171.649 166.969C178.844 162.313 184.135 155.329 185.087 146.546C185.829 139.667 183.606 132.578 179.267 127.286C178.95 126.863 178.526 126.44 178.209 126.122M100.22 150.038C96.6218 155.329 89.5318 156.811 84.135 153.529C80.2196 151.202 77.8916 147.075 77.8916 142.63V142.101C77.9974 139.667 79.0556 137.445 80.6429 135.858C82.2302 134.27 84.4525 133.212 86.8863 133.212L112.177 132.577L100.22 150.143V150.038ZM87.0979 115.54C84.664 115.54 82.5477 114.482 80.8545 112.895C79.2672 111.307 78.209 109.085 78.1032 106.651C78.1032 106.44 78.1032 106.334 78.1032 106.122C78.1032 101.678 80.4313 97.4449 84.2408 95.1169C89.7435 91.8365 96.8334 93.318 100.431 98.6089L112.389 116.175L87.0979 115.434V115.54ZM171.755 144.006C171.755 148.45 169.427 152.683 165.616 155.012C160.114 158.291 153.13 156.811 149.426 151.519L137.468 133.953L162.759 134.694C165.193 134.694 167.416 135.753 169.003 137.34C170.59 138.926 171.649 141.149 171.755 143.582V144.112V144.006ZM173.024 108.239C173.024 110.673 171.967 112.789 170.272 114.376C168.685 115.963 166.464 117.022 164.029 117.022L138.738 117.762H137.574L149.532 100.196C152.072 96.4926 156.199 94.6936 160.326 95.0111C162.548 95.0111 164.77 95.5402 166.781 96.7042C170.59 99.0323 172.919 103.159 172.919 107.71C172.919 107.921 172.919 108.027 172.919 108.239" fill="#A9FFF2"/>
</svg>
