<svg width="250" height="250" viewBox="0 0 250 250" fill="none" xmlns="http://www.w3.org/2000/svg">
<mask id="path-1-inside-1_769_91" fill="white">
<path d="M0 48C0 21.4903 21.4903 0 48 0H202C228.51 0 250 21.4903 250 48V202C250 228.51 228.51 250 202 250H48C21.4903 250 0 228.51 0 202V48Z"/>
</mask>
<path d="M0 48C0 21.4903 21.4903 0 48 0H202C228.51 0 250 21.4903 250 48V202C250 228.51 228.51 250 202 250H48C21.4903 250 0 228.51 0 202V48Z" fill="white"/>
<path d="M48 0V2H202V0V-2H48V0ZM250 48H248V202H250H252V48H250ZM202 250V248H48V250V252H202V250ZM0 202H2V48H0H-2V202H0ZM48 250V248C22.5949 248 2 227.405 2 202H0H-2C-2 229.614 20.3858 252 48 252V250ZM250 202H248C248 227.405 227.405 248 202 248V250V252C229.614 252 252 229.614 252 202H250ZM202 0V2C227.405 2 248 22.5949 248 48H250H252C252 20.3858 229.614 -2 202 -2V0ZM48 0V-2C20.3858 -2 -2 20.3858 -2 48H0H2C2 22.5949 22.5949 2 48 2V0Z" fill="#DDDBDB" mask="url(#path-1-inside-1_769_91)"/>
<rect x="55" y="55" width="140" height="140" rx="70" fill="#FCAE17"/>
<path d="M81.0098 54.4048L81.3419 95.5243C81.6347 131.742 81.6081 138.053 83.6833 143.573C84.2114 144.978 84.8755 146.331 85.7156 148.113C94.2372 166.19 114.541 176.206 134.292 172.076C140.47 170.783 149.136 166.323 153.938 161.965C158.01 158.268 164.068 150.302 164.068 148.646C164.068 147.862 162.986 148.295 155.601 148.295H147.134L145.945 148.899C137.099 153.394 127.09 157.327 117.458 154.939C116.008 154.579 114.575 154.076 113.16 153.375C103.789 148.733 97.9522 139.656 97.9392 129.338C97.9162 110.179 119.033 96.1858 136.875 104.868C140.146 106.46 145.889 111.083 145.889 112.125C145.889 112.441 142.433 112.702 138.209 112.706C128.687 112.713 118.691 116.196 117.212 127.239L116.888 129.663H168.992L168.659 126.051C168.133 120.34 166.695 115.322 163.935 109.558C161.811 105.125 160.408 103.257 155.67 98.5634C145.813 88.7961 136.694 85.2645 122.795 85.8306C116.679 86.0794 114.667 86.4343 110.471 88.0044C107.712 89.0367 104.056 90.7544 102.346 91.8219C100.637 92.8893 99.0146 93.6244 98.7419 93.4554C98.4698 93.287 98.2467 85.8651 98.2467 76.9623C98.2467 58.531 97.9464 56.8736 93.7345 52.0779C92.4586 50.6258 91.4896 49.32 91.4379 49C87.8182 50.5511 84.3344 52.3605 81.0098 54.4048Z" fill="white"/>
</svg>
