<svg width="250" height="250" viewBox="0 0 250 250" fill="none" xmlns="http://www.w3.org/2000/svg">
<path d="M0 48C0 21.4903 21.4903 0 48 0H202C228.51 0 250 21.4903 250 48V202C250 228.51 228.51 250 202 250H48C21.4903 250 0 228.51 0 202V48Z" fill="#296CEF"/>
<path d="M170.618 132.282C170.432 131.738 170.08 131.267 169.612 130.932C169.145 130.598 168.585 130.418 168.01 130.417C167.354 130.396 166.713 130.616 166.208 131.035C159.682 137.989 142.736 144.579 122.88 144.579C103.024 144.579 85.8646 137.876 79.4265 131.01C79.2184 130.737 78.9569 130.51 78.658 130.342C78.2945 130.067 77.8538 129.913 77.3981 129.901C77.0873 129.891 76.7777 129.943 76.4877 130.055C76.1977 130.167 75.9331 130.336 75.7098 130.553C75.4864 130.769 75.3089 131.028 75.1877 131.314C75.0665 131.601 75.0041 131.909 75.0043 132.219C74.9914 132.273 74.9914 132.329 75.0043 132.383C74.9976 132.395 74.9941 132.408 74.9941 132.421C74.9941 132.434 74.9976 132.447 75.0043 132.459V178.898C75.0043 183.169 76.7007 187.264 79.7203 190.284C82.7399 193.304 86.8354 195 91.1057 195H133.665C156.041 195 174.864 177.286 175.002 154.91C175.056 149.189 174.205 143.496 172.482 138.04L170.618 132.282Z" fill="white"/>
<path d="M175.001 95.0899C175.061 100.811 174.21 106.506 172.481 111.96L170.617 117.718C170.511 118.017 170.358 118.298 170.163 118.549C169.694 119.129 169.015 119.499 168.274 119.579C167.532 119.66 166.789 119.443 166.207 118.978C159.681 112.023 142.735 105.396 122.879 105.396C103.023 105.396 85.8636 112.124 79.4255 118.99C79.2162 119.265 78.9551 119.496 78.657 119.67C78.2896 119.937 77.8505 120.086 77.3971 120.099C77.0869 120.111 76.7776 120.06 76.4876 119.949C76.1976 119.839 75.933 119.671 75.7094 119.456C75.4859 119.24 75.3081 118.982 75.1868 118.696C75.0655 118.411 75.003 118.103 75.0033 117.793V71.1015C75.0033 68.9859 75.4201 66.8912 76.2301 64.9368C77.0401 62.9824 78.2272 61.2069 79.7237 59.7115C81.2202 58.2162 82.9967 57.0305 84.9517 56.222C86.9067 55.4136 89.0018 54.9983 91.1173 55H133.664C156.04 55 174.862 72.7141 175.001 95.0899Z" fill="white"/>
</svg>
