<svg width="250" height="250" viewBox="0 0 250 250" fill="none" xmlns="http://www.w3.org/2000/svg">
<mask id="path-1-inside-1_769_94" fill="white">
<path d="M0 48C0 21.4903 21.4903 0 48 0H202C228.51 0 250 21.4903 250 48V202C250 228.51 228.51 250 202 250H48C21.4903 250 0 228.51 0 202V48Z"/>
</mask>
<path d="M0 48C0 21.4903 21.4903 0 48 0H202C228.51 0 250 21.4903 250 48V202C250 228.51 228.51 250 202 250H48C21.4903 250 0 228.51 0 202V48Z" fill="white"/>
<path d="M48 0V2H202V0V-2H48V0ZM250 48H248V202H250H252V48H250ZM202 250V248H48V250V252H202V250ZM0 202H2V48H0H-2V202H0ZM48 250V248C22.5949 248 2 227.405 2 202H0H-2C-2 229.614 20.3858 252 48 252V250ZM250 202H248C248 227.405 227.405 248 202 248V250V252C229.614 252 252 229.614 252 202H250ZM202 0V2C227.405 2 248 22.5949 248 48H250H252C252 20.3858 229.614 -2 202 -2V0ZM48 0V-2C20.3858 -2 -2 20.3858 -2 48H0H2C2 22.5949 22.5949 2 48 2V0Z" fill="#DDDBDB" mask="url(#path-1-inside-1_769_94)"/>
<path d="M114.005 55.0364C117.952 54.9316 122.543 55.0767 126.501 55.1756C134.965 55.3526 143.417 55.9162 151.829 56.8645C156.784 57.4558 162.612 58.3176 167.362 59.8523C175.452 62.4654 182.53 68.9292 186.335 76.4762C190.167 83.9933 191.117 92.4942 189.793 100.765C189.021 105.589 187.629 108.8 185.068 112.903C184.16 114.357 182.86 116.673 182.356 118.255L182.299 118.433C183.984 122.916 187.865 126.741 189.65 131.257C196.05 147.444 192.29 165.238 180.507 177.883C172.885 186.008 162.815 191.418 151.831 193.288C146.012 194.271 138.787 194.475 132.8 194.681C129.758 194.841 126.662 194.843 123.617 194.889C117.604 195.024 111.59 195.036 105.577 194.923C100.428 194.9 95.2797 194.747 90.138 194.465C85.7764 194.244 81.4135 193.95 77.1218 193.226C68.8693 191.799 61.9064 186.29 58.8084 178.484C56.2761 172.104 56.7871 165.258 60.7429 159.575C62.0172 157.743 63.7801 155.785 65.7399 154.681C67.2637 153.822 69.1398 153.495 70.5858 152.44C71.4917 150.839 72.6121 145.198 72.9835 143.189C75.169 131.372 77.203 118.944 78.2772 106.977C78.4667 104.818 78.5532 102.65 78.5365 100.482C78.5293 99.8904 78.4886 97.807 78.2463 97.3645C76.4837 94.1428 72.296 92.9938 70.393 89.7409C65.3671 81.1499 67.2701 70.9266 74.1535 63.9922C77.2528 60.8843 81.0563 58.5696 85.2413 57.2447C89.5949 55.8641 95.2385 55.6044 99.8297 55.3854C104.552 55.1742 109.278 55.0578 114.005 55.0364Z" fill="#042A84"/>
<path d="M112.383 68.2553C116.965 68.0874 122.569 68.186 127.215 68.2207C132.138 68.2786 137.06 68.4171 141.978 68.6362C147.574 68.8708 153.498 68.906 158.899 70.504C163.547 71.879 167.78 74.2713 171.179 77.7437C177.822 84.5304 179.409 94.0204 175.904 102.764C175.23 104.446 174.372 106.246 173.337 107.746C171.341 110.641 161.521 118.698 161.669 121.516C161.679 121.677 161.75 121.743 161.861 121.85C162.701 122.659 164.757 123.207 165.855 123.778C167.553 124.67 169.155 125.734 170.636 126.952C175.846 131.261 178.886 137.325 179.535 144.106C181.019 159.595 170.305 175.275 155.08 179.005C151.172 179.964 146.695 180.234 142.676 180.599C140.956 180.675 139.187 180.819 137.457 180.908C124.689 181.53 111.902 181.705 99.1212 181.432C95.8676 181.374 92.6149 181.261 89.365 181.092C86.2209 180.954 82.9808 180.867 79.887 180.257C77.3342 179.754 74.6299 178.861 72.676 177.071C71.4122 175.913 70.578 174.368 70.5046 172.635C70.4527 171.406 70.6653 170.171 71.0557 169.007C72.8148 163.769 77.8094 164.789 80.6208 161.646C84.1276 157.727 88.694 129.355 89.5864 123.156C90.1481 119.129 90.6169 115.091 90.9926 111.043C91.453 106.199 91.8056 100.445 91.5537 95.5644C91.4953 94.1873 91.3294 92.8168 91.0573 91.4656C89.6022 84.3577 81.1707 86.4664 81.0366 78.8258C80.8766 69.71 91.7319 69.1509 98.4258 68.7728C103.099 68.5089 107.707 68.4067 112.383 68.2553Z" fill="white"/>
<path d="M128.358 130.209C139.891 130.205 140.656 146.941 137.681 154.872C136.055 159.206 134.396 161.643 130.195 163.615C127.43 164.794 123.388 166.092 121.727 162.434C121.394 161.658 121.131 160.691 121.047 159.855C120.247 151.887 123.124 143.989 122.439 136.037C122.34 134.885 122.106 133.132 122.847 132.159C124.062 130.564 126.528 130.38 128.358 130.209Z" fill="#042A84"/>
<path d="M130.71 84.2236C139.48 83.477 141.284 94.5382 140.145 101.005C139.264 106.001 137.574 110.48 133.41 113.596C130.614 115.391 128.359 115.475 125.211 114.807C125.48 108.488 124.083 86.852 130.71 84.2236Z" fill="#042A84"/>
</svg>
