<svg width="250" height="250" viewBox="0 0 250 250" fill="none" xmlns="http://www.w3.org/2000/svg">
<path d="M0 48C0 21.4903 21.4903 0 48 0H202C228.51 0 250 21.4903 250 48V202C250 228.51 228.51 250 202 250H48C21.4903 250 0 228.51 0 202V48Z" fill="#E40473"/>
<path d="M132.887 55C136.44 55.497 140.001 55.9565 143.547 56.4983C153.269 57.9855 165.35 62.3796 172.068 66.8746C170.91 67.7676 169.796 68.6308 168.698 69.479C174.579 72.0796 180.411 74.6577 186.244 77.2359C186.214 77.4825 186.181 77.7254 186.151 77.972C170.667 86.0466 155.183 94.1212 139.695 102.196C139.594 102.099 139.493 102.005 139.392 101.908C139.732 101.396 140.053 100.866 140.42 100.372C144.982 94.2295 149.555 88.0979 154.099 81.9402C154.42 81.503 154.51 80.8977 154.708 80.3709C154.136 80.539 153.449 80.5539 153.015 80.8977C146.256 86.1923 139.53 91.5281 132.793 96.8526C132.315 97.2337 131.818 97.5924 131.075 98.1491C130.652 96.4154 130.264 94.8872 129.909 93.3515C128.575 87.601 127.267 81.8468 125.903 76.1038C125.78 75.5881 125.328 75.151 125.029 74.6802C124.723 75.1472 124.259 75.5769 124.14 76.0851C122.54 82.8594 120.99 89.6449 119.424 96.4266C119.312 96.9049 119.163 97.3757 118.968 98.0632C118.427 97.6858 117.982 97.4093 117.571 97.088C110.733 91.6887 103.91 86.2783 97.0538 80.9052C96.6166 80.5652 95.9403 80.5278 95.3761 80.3484C95.5629 80.8715 95.6339 81.4806 95.9478 81.9066C100.447 88.0195 104.979 94.1062 109.504 100.2C109.907 100.746 110.3 101.295 110.498 102.155C109.978 101.916 109.448 101.699 108.94 101.437C94.6662 94.0016 80.4002 86.5548 66.123 79.1266C65.372 78.7343 64.5462 78.4802 63.7578 78.1588C63.7578 78.0355 63.7578 77.9085 63.7578 77.7852C69.5681 74.9529 75.3783 72.1207 81.1326 69.3145C80.2993 68.6532 79.1746 67.7602 78.0014 66.826C85.2053 62.189 97.0426 57.907 106.545 56.4946C110.09 55.9678 113.644 55.497 117.194 55C122.425 55 127.656 55 132.887 55Z" fill="white"/>
<path d="M151.899 195H97.9514C97.9514 193.55 97.9028 192.145 97.9589 190.744C98.8556 167.768 102.592 145.248 109.075 123.196C110.297 119.037 112.075 115.043 113.577 110.962C114.145 109.423 115.259 108.519 116.795 108.137C122.265 106.785 127.746 106.766 133.22 108.137C134.756 108.522 135.776 109.434 136.464 110.929C140.043 118.712 142.263 126.925 144.258 135.205C148.26 151.806 150.909 168.62 151.877 185.677C152.048 188.704 151.903 191.749 151.903 194.996L151.899 195Z" fill="white"/>
</svg>
