<svg width="250" height="250" viewBox="0 0 250 250" fill="none" xmlns="http://www.w3.org/2000/svg">
<mask id="path-1-inside-1_769_103" fill="white">
<path d="M0 48C0 21.4903 21.4903 0 48 0H202C228.51 0 250 21.4903 250 48V202C250 228.51 228.51 250 202 250H48C21.4903 250 0 228.51 0 202V48Z"/>
</mask>
<path d="M0 48C0 21.4903 21.4903 0 48 0H202C228.51 0 250 21.4903 250 48V202C250 228.51 228.51 250 202 250H48C21.4903 250 0 228.51 0 202V48Z" fill="white"/>
<path d="M48 0V2H202V0V-2H48V0ZM250 48H248V202H250H252V48H250ZM202 250V248H48V250V252H202V250ZM0 202H2V48H0H-2V202H0ZM48 250V248C22.5949 248 2 227.405 2 202H0H-2C-2 229.614 20.3858 252 48 252V250ZM250 202H248C248 227.405 227.405 248 202 248V250V252C229.614 252 252 229.614 252 202H250ZM202 0V2C227.405 2 248 22.5949 248 48H250H252C252 20.3858 229.614 -2 202 -2V0ZM48 0V-2C20.3858 -2 -2 20.3858 -2 48H0H2C2 22.5949 22.5949 2 48 2V0Z" fill="#DDDBDB" mask="url(#path-1-inside-1_769_103)"/>
<path d="M178.764 129.688C183.953 127.05 188.607 124.687 194.607 121.623C188.515 119.001 183.54 116.851 176.667 113.893C181.765 109.777 186.02 106.362 191.346 102.063C184.122 101.179 178.918 100.538 172.764 99.7913C175.795 94.5316 178.397 90.0189 181.642 84.4086C175.229 85.2471 169.902 85.9484 163.626 86.7564C164.453 83.3719 165.034 80.9936 165.601 78.6153C166.213 76.0388 166.825 73.4623 167.698 69.7881C161.621 72.7305 156.754 75.0935 150.738 78.0207C150.738 71.4194 150.738 66.2054 150.738 59.1162C145.488 64.0862 141.569 67.8214 136.855 72.2884C134.773 66.1901 133.074 61.1743 130.977 55.0151C127.242 60.8847 124.334 65.4279 121.135 70.4436C117.569 65.4431 114.66 61.3573 110.956 56.189C109.089 62.5617 107.589 67.7299 105.89 73.4775C101.16 69.8643 96.9966 66.678 91.7312 62.6684C91.7312 69.6509 91.7312 74.8039 91.7312 80.6429C86.1596 78.4323 81.3227 76.5266 75.4143 74.1941C77.3736 80.4295 78.9808 85.5672 80.8176 91.4825C74.6031 90.8879 69.2458 90.3848 63.1384 89.8055C66.659 95.2177 69.705 99.9286 73.2714 105.417C66.8273 106.301 61.8068 106.987 56.7862 107.673C58.0414 109.32 59.0975 111.195 60.6129 112.567C63.3221 115.037 66.3069 117.217 69.9805 120.159C64.5773 122.888 59.9853 125.206 55.3933 127.523C55.3933 128.026 55.3933 128.544 55.3933 129.048C60.2455 131.182 65.0824 133.316 70.7152 135.786C66.5671 139.613 62.7558 143.119 57.8883 147.601C57.8883 147.784 57.8883 147.967 57.9189 148.166C64.5007 148.76 69.5672 149.217 75.8582 149.782C73.0418 154.797 70.5162 159.325 67.3018 165.058C67.3478 165.241 67.3937 165.423 67.4702 165.606C73.5622 164.6 78.6593 163.746 84.8432 162.725C83.5574 168.229 82.4401 173.016 81.0778 178.794C81.3074 179.129 81.5829 179.465 81.9349 179.785C87.4453 177.025 91.8842 174.815 97.3181 172.101C97.3181 177.91 97.3181 182.788 97.3181 188.551C97.4864 188.825 97.6854 189.085 97.915 189.344C100.15 188.17 101.466 187.469 102.767 186.783C105.369 183.779 107.987 180.791 111.569 176.659C113.865 183.672 115.518 188.719 117.584 195C121.135 189.207 123.967 184.602 127.12 179.48C130.702 184.404 133.794 188.642 137.574 193.841C139.365 187.499 140.835 182.285 142.518 176.294C147.279 180.135 151.427 183.474 156.57 187.606C156.57 180.547 156.57 175.272 156.57 169.281C162.157 171.491 167.285 173.504 173.331 175.897C171.081 169.342 169.32 164.204 167.33 158.426C173.315 159.005 178.474 159.493 185.147 160.133C181.489 154.401 178.688 150.041 175.351 144.811C181.351 143.699 186.433 142.753 192.739 141.579C187.642 137.234 183.494 133.713 178.764 129.688Z" fill="#FDC012"/>
<path d="M83.5266 108.024C82.1949 103.892 81.1693 100.676 79.9601 96.8946C84.1235 96.7117 87.6593 96.544 91.4554 96.3763C91.1645 92.1533 90.9349 88.8145 90.6441 84.561C95.0065 85.7044 98.328 86.5734 102.032 87.5491C103.073 83.692 104.099 79.9263 105.323 75.3527C108.339 77.7157 110.818 79.6824 114.033 82.1979C116.405 79.0878 118.609 76.1759 121.395 72.5322C123.798 75.4899 126.217 78.4475 128.941 81.8015C131.849 79.347 134.635 76.9839 138.033 74.1025C139.151 78.0054 140.069 81.207 141.171 85.0488C145.044 83.4633 148.212 82.1522 152.406 80.4294C152.973 84.5457 153.447 88.1132 154.044 92.3972C157.641 92.1685 161.054 91.9398 165.172 91.6807C164.33 94.8975 163.473 98.1448 162.386 102.337C165.861 103.465 169.274 104.578 173.131 105.829C171.096 108.954 169.121 112.018 166.963 115.342C170.208 117.552 173.04 119.489 177.509 122.522C175.228 123.94 173.744 124.809 172.32 125.77C171.096 126.593 169.932 127.508 167.942 128.971C170.238 132.142 172.351 135.07 174.861 138.546C171.509 139.887 168.371 141.153 164.59 142.677C165.891 145.909 167.146 149.05 168.708 152.983C164.498 153.303 160.871 153.593 157.274 153.867C157.457 157.862 157.626 161.49 157.84 166.003C153.539 164.646 150.294 163.64 146.758 162.527C145.61 166.216 144.569 169.509 143.299 173.58C140.36 171.933 137.788 170.5 134.268 168.518C132.003 171.293 129.599 174.251 126.967 177.483C124.793 174.647 122.574 171.735 119.956 168.305C117.048 170.851 114.431 173.122 111.277 175.882C109.655 172.406 108.155 169.159 106.456 165.515C102.966 166.628 99.7209 167.665 95.8024 168.915C95.4045 165.134 95.0677 161.993 94.6851 158.426C90.9962 158.182 87.5216 157.938 83.848 157.694C84.6439 153.928 85.394 150.391 86.1287 146.87C82.0112 145.894 78.7662 145.132 74.2967 144.064C77.1743 140.497 79.1642 138.027 81.6898 134.887C78.4907 132.569 75.4141 130.359 72.0925 127.95C75.0161 125.175 77.4958 122.812 80.2969 120.144C77.6029 117.08 75.3069 114.473 72.6283 111.424C76.2559 110.295 79.4703 109.289 83.5266 108.024Z" fill="#FBE000"/>
<path d="M144.54 120.724C145.979 121.577 147.249 122.34 149.101 123.453C147.555 124.718 146.315 125.74 144.769 127.02C145.994 128.484 147.218 129.932 148.565 131.518C146.514 131.96 144.831 132.326 142.688 132.783C143.683 134.887 144.494 136.655 145.642 139.079C143.484 138.866 141.861 138.713 139.657 138.5C139.841 140.238 140.024 141.854 140.269 144.08C138.279 143.745 136.458 143.424 134.407 143.074C134.039 144.614 133.703 146.047 133.228 148.059C131.529 146.977 129.998 146.001 128.269 144.888C127.427 146.595 126.708 148.105 125.667 150.224C124.412 148.486 123.493 147.205 122.33 145.604C120.83 146.702 119.513 147.663 117.768 148.928C117.11 147.144 116.559 145.665 115.901 143.927C114.248 144.537 112.855 145.056 111.003 145.742C110.743 144.034 110.513 142.433 110.192 140.314C108.63 140.467 107.023 140.619 104.651 140.863C105.34 139.018 105.906 137.509 106.671 135.481C104.727 135.146 102.89 134.826 100.564 134.414C101.773 132.783 102.89 131.289 104.299 129.398C102.906 128.484 101.513 127.584 99.5842 126.334C100.916 125.191 102.11 124.169 103.732 122.782C102.646 121.577 101.559 120.373 100.135 118.788C101.804 118.101 103.319 117.492 105.493 116.607C104.727 114.9 103.977 113.192 103.028 111.043C104.926 111.18 106.61 111.302 108.661 111.439C108.814 109.854 108.967 108.222 109.151 106.286C110.682 106.606 112.044 106.896 113.942 107.292C114.401 105.753 114.86 104.182 115.457 102.2C116.927 103.039 118.304 103.832 120.095 104.868C120.906 103.237 121.626 101.819 122.605 99.8525C123.922 101.545 124.932 102.841 126.34 104.64C127.748 103.42 129.141 102.231 131.177 100.478C131.621 102.566 131.988 104.319 132.432 106.423C134.376 105.509 135.907 104.792 137.728 103.938C137.835 105.875 137.943 107.582 138.065 109.701C139.764 109.594 141.371 109.488 143.484 109.351C143.07 111.165 142.703 112.735 142.244 114.763C144.081 115.113 145.749 115.434 147.861 115.83C146.698 117.537 145.642 119.108 144.54 120.724Z" fill="#FFFFFD"/>
</svg>
