<svg width="250" height="250" viewBox="0 0 250 250" fill="none" xmlns="http://www.w3.org/2000/svg">
<mask id="path-1-inside-1_769_106" fill="white">
<path d="M0 48C0 21.4903 21.4903 0 48 0H202C228.51 0 250 21.4903 250 48V202C250 228.51 228.51 250 202 250H48C21.4903 250 0 228.51 0 202V48Z"/>
</mask>
<path d="M0 48C0 21.4903 21.4903 0 48 0H202C228.51 0 250 21.4903 250 48V202C250 228.51 228.51 250 202 250H48C21.4903 250 0 228.51 0 202V48Z" fill="white"/>
<path d="M48 0V2H202V0V-2H48V0ZM250 48H248V202H250H252V48H250ZM202 250V248H48V250V252H202V250ZM0 202H2V48H0H-2V202H0ZM48 250V248C22.5949 248 2 227.405 2 202H0H-2C-2 229.614 20.3858 252 48 252V250ZM250 202H248C248 227.405 227.405 248 202 248V250V252C229.614 252 252 229.614 252 202H250ZM202 0V2C227.405 2 248 22.5949 248 48H250H252C252 20.3858 229.614 -2 202 -2V0ZM48 0V-2C20.3858 -2 -2 20.3858 -2 48H0H2C2 22.5949 22.5949 2 48 2V0Z" fill="#DDDBDB" mask="url(#path-1-inside-1_769_106)"/>
<path d="M195 55L150.594 195H61.1021L106.188 55H195Z" fill="#098221"/>
<path d="M136.103 89.9695C128.097 90.4548 119.929 84.915 116.846 82.0845C122.391 111.328 136.614 143.019 143.032 155.21C144.059 155.147 148.871 155.021 159.91 155.021C144.14 132.276 137.013 100.129 136.103 89.9695Z" fill="#FECE06"/>
<path d="M100.02 151.881L77.4497 150.705C100.02 119.108 103.646 109.774 114.505 83.8943C122.241 118.368 129.855 135.657 140.902 155.414C139.782 155.294 133.657 154.842 117.822 153.594C107.67 142.581 109.107 129.241 109.759 118.368C103.575 130.228 100.02 138.747 100.02 151.881Z" fill="white"/>
</svg>
