<svg width="250" height="250" viewBox="0 0 250 250" fill="none" xmlns="http://www.w3.org/2000/svg">
<mask id="path-1-inside-1_769_108" fill="white">
<path d="M0 48C0 21.4903 21.4903 0 48 0H202C228.51 0 250 21.4903 250 48V202C250 228.51 228.51 250 202 250H48C21.4903 250 0 228.51 0 202V48Z"/>
</mask>
<path d="M0 48C0 21.4903 21.4903 0 48 0H202C228.51 0 250 21.4903 250 48V202C250 228.51 228.51 250 202 250H48C21.4903 250 0 228.51 0 202V48Z" fill="white"/>
<path d="M48 0V2H202V0V-2H48V0ZM250 48H248V202H250H252V48H250ZM202 250V248H48V250V252H202V250ZM0 202H2V48H0H-2V202H0ZM48 250V248C22.5949 248 2 227.405 2 202H0H-2C-2 229.614 20.3858 252 48 252V250ZM250 202H248C248 227.405 227.405 248 202 248V250V252C229.614 252 252 229.614 252 202H250ZM202 0V2C227.405 2 248 22.5949 248 48H250H252C252 20.3858 229.614 -2 202 -2V0ZM48 0V-2C20.3858 -2 -2 20.3858 -2 48H0H2C2 22.5949 22.5949 2 48 2V0Z" fill="#DDDBDB" mask="url(#path-1-inside-1_769_108)"/>
<g clip-path="url(#clip0_769_108)">
<path d="M66.3286 64.9993H123.664C124.407 64.9993 124.992 65.6003 124.992 66.3279V125.007H66.3286C65.5852 125.007 65 124.406 65 123.679V66.3279C65 65.6003 65.601 64.9993 66.3286 64.9993Z" fill="#1B1A23"/>
<path d="M167.504 106.831V83.1538C167.504 82.7869 167.206 82.4895 166.839 82.4895H143.162C142.795 82.4895 142.498 82.7869 142.498 83.1538V106.831C142.498 107.198 142.795 107.495 143.162 107.495H166.839C167.206 107.495 167.504 107.198 167.504 106.831Z" fill="#1B1A23"/>
<path d="M114.996 175.004V183.672C114.996 184.415 114.395 185 113.667 185H66.3286C65.5852 185 65 184.399 65 183.672V136.333C65 135.59 65.601 135.004 66.3286 135.004H74.996C97.0759 135.004 114.996 152.924 114.996 175.004Z" fill="#1B1A23"/>
<path d="M184.999 126.335V183.67C184.999 184.413 184.398 184.999 183.671 184.999H126.336C125.593 184.999 125.007 184.398 125.007 183.67V125.007H183.671C184.414 125.007 184.999 125.608 184.999 126.335Z" fill="#1B1A23"/>
</g>
<defs>
<clipPath id="clip0_769_108">
<rect width="120" height="120" fill="white" transform="translate(65 64.9993)"/>
</clipPath>
</defs>
</svg>
