<svg width="250" height="250" viewBox="0 0 250 250" fill="none" xmlns="http://www.w3.org/2000/svg">
<rect width="250" height="250" fill="#2B63E4"/>
<path d="M87.3476 60.0265C91.7213 59.968 96.2154 60.0228 100.599 60.0226L126.745 60.0216L140.293 60.0197C143.027 60.0194 146.32 59.9228 148.974 60.1877C152.217 60.501 155.398 61.2922 158.411 62.5353C166.659 65.9279 173.225 72.4525 176.67 80.6789C180.118 88.9442 180.136 98.2427 176.718 106.521C173.105 115.263 166.52 121.424 157.853 125.017C161.582 126.169 166.516 129.665 169.294 132.409C175.655 138.711 179.244 147.287 179.268 156.241C179.3 165.2 175.748 173.801 169.403 180.126C165.031 184.508 159.531 187.595 153.513 189.043C148.582 190.225 144.373 189.979 139.353 189.977L127.068 189.975L85.8515 189.976C85.7456 180.182 85.829 170.128 85.8515 160.323C92.8933 161.255 98.1865 160.314 104.683 157.789C104.764 162.143 104.695 166.714 104.696 171.085L140.423 171.083C144.158 171.088 147.78 171.43 151.267 169.983C154.932 168.468 157.836 165.546 159.326 161.87C160.793 158.224 160.754 154.146 159.219 150.529C157.976 147.616 155.822 145.166 153.085 143.585C151.791 142.837 150.58 142.453 149.21 141.887L145.059 140.151C141.159 138.516 137.224 136.822 133.311 135.232L100.723 148.993C94.4411 151.679 87.3441 151.728 81.0253 149.132C74.621 146.56 69.499 141.552 66.7841 135.206C64.1 128.799 64.0463 121.594 66.6347 115.148C69.2502 108.773 74.2837 103.694 80.6337 101.021C85.0621 99.1294 89.9326 98.5195 94.6904 99.2619C98.6142 99.882 100.058 100.763 103.515 102.248L109.895 104.929C117.654 108.186 125.523 111.583 133.309 114.743C134.591 114.29 136.194 113.565 137.469 113.029L144.786 109.955C146.248 109.342 147.716 108.722 149.184 108.123C150.381 107.634 151.528 107.262 152.68 106.642C153.904 105.979 155.029 105.145 156.019 104.166C158.82 101.388 160.399 97.609 160.407 93.6642C160.408 89.7386 158.844 85.9746 156.061 83.2052C153.952 81.0979 151.253 79.6804 148.32 79.1408C146.492 78.8093 143.103 78.9137 141.137 78.9142L129.893 78.9172H87.3466L87.3476 60.0265ZM97.7353 120.292C95.5589 119.377 92.4291 117.616 90.1132 117.884C88.0416 118.139 86.39 118.947 85.0849 120.623C83.9172 122.139 83.4074 124.06 83.6689 125.956C83.9164 127.839 84.9066 129.543 86.4189 130.691C87.9162 131.822 89.799 132.317 91.6591 132.069C93.1549 131.854 94.2393 131.18 95.6054 130.605C96.8001 130.101 98.0232 129.559 99.2245 129.076L108.937 124.994L97.7353 120.292Z" fill="#FEFEFE"/>
</svg>
