<svg width="250" height="250" viewBox="0 0 250 250" fill="none" xmlns="http://www.w3.org/2000/svg">
<path d="M0 48C0 21.4903 21.4903 0 48 0H202C228.51 0 250 21.4903 250 48V202C250 228.51 228.51 250 202 250H48C21.4903 250 0 228.51 0 202V48Z" fill="#2B63E4"/>
<path d="M87.3477 60.027C91.7214 59.9685 96.2155 60.0233 100.599 60.0231L126.745 60.0221L140.293 60.0202C143.027 60.0199 146.32 59.9232 148.974 60.1881C152.217 60.5015 155.398 61.2927 158.411 62.5358C166.659 65.9284 173.225 72.4529 176.67 80.6794C180.118 88.9447 180.136 98.2431 176.718 106.521C173.105 115.263 166.52 121.424 157.854 125.016C161.582 126.168 166.517 129.664 169.294 132.409C175.655 138.711 179.244 147.287 179.268 156.242C179.3 165.201 175.748 173.801 169.403 180.127C165.031 184.508 159.531 187.595 153.513 189.044C148.582 190.225 144.374 189.98 139.354 189.977L127.068 189.975L85.8516 189.976C85.7456 180.182 85.8291 170.129 85.8516 160.324C92.8934 161.256 98.1866 160.314 104.683 157.79C104.764 162.144 104.695 166.714 104.696 171.086L140.423 171.084C144.158 171.089 147.78 171.43 151.267 169.983C154.932 168.469 157.836 165.546 159.326 161.871C160.793 158.225 160.754 154.146 159.219 150.529C157.977 147.616 155.822 145.166 153.085 143.585C151.791 142.837 150.58 142.453 149.21 141.887L145.059 140.15C141.159 138.515 137.225 136.823 133.312 135.232L100.723 148.993C94.4411 151.678 87.3443 151.728 81.0254 149.132C74.6212 146.56 69.4991 141.552 66.7842 135.207C64.0999 128.8 64.0462 121.593 66.6348 115.147C69.2503 108.773 74.2839 103.694 80.6338 101.02C85.0621 99.129 89.9327 98.52 94.6904 99.2624C98.6143 99.8825 100.058 100.764 103.515 102.249L109.896 104.928C117.654 108.185 125.523 111.583 133.309 114.743C134.591 114.289 136.194 113.565 137.469 113.029L144.786 109.956C146.248 109.343 147.716 108.723 149.184 108.124C150.381 107.635 151.528 107.263 152.68 106.642C153.905 105.979 155.03 105.146 156.02 104.167C158.82 101.389 160.399 97.6087 160.407 93.6637C160.408 89.7383 158.844 85.974 156.062 83.2047C153.952 81.0975 151.253 79.6809 148.32 79.1413C146.492 78.8097 143.104 78.9142 141.137 78.9147L129.894 78.9176L87.3467 78.9167L87.3477 60.027ZM97.7354 120.292C95.559 119.377 92.4291 117.616 90.1133 117.883C88.0416 118.139 86.3901 118.947 85.085 120.624C83.9174 122.14 83.4075 124.061 83.669 125.957C83.9166 127.839 84.9068 129.543 86.419 130.691C87.9163 131.822 89.7991 132.317 91.6592 132.068C93.1549 131.854 94.2394 131.181 95.6055 130.605C96.8002 130.102 98.0232 129.559 99.2246 129.076L108.938 124.995L97.7354 120.292Z" fill="#FEFEFE"/>
</svg>
