<svg width="250" height="250" viewBox="0 0 250 250" fill="none" xmlns="http://www.w3.org/2000/svg">
<mask id="path-1-inside-1_769_114" fill="white">
<path d="M0 48C0 21.4903 21.4903 0 48 0H202C228.51 0 250 21.4903 250 48V202C250 228.51 228.51 250 202 250H48C21.4903 250 0 228.51 0 202V48Z"/>
</mask>
<path d="M0 48C0 21.4903 21.4903 0 48 0H202C228.51 0 250 21.4903 250 48V202C250 228.51 228.51 250 202 250H48C21.4903 250 0 228.51 0 202V48Z" fill="white"/>
<path d="M48 0V2H202V0V-2H48V0ZM250 48H248V202H250H252V48H250ZM202 250V248H48V250V252H202V250ZM0 202H2V48H0H-2V202H0ZM48 250V248C22.5949 248 2 227.405 2 202H0H-2C-2 229.614 20.3858 252 48 252V250ZM250 202H248C248 227.405 227.405 248 202 248V250V252C229.614 252 252 229.614 252 202H250ZM202 0V2C227.405 2 248 22.5949 248 48H250H252C252 20.3858 229.614 -2 202 -2V0ZM48 0V-2C20.3858 -2 -2 20.3858 -2 48H0H2C2 22.5949 22.5949 2 48 2V0Z" fill="#DDDBDB" mask="url(#path-1-inside-1_769_114)"/>
<path d="M177.612 113.831L177.618 141.899C177.62 145.487 177.838 151.813 177.632 155.242C171.136 159.372 164.129 163.098 157.461 166.935L127.65 184.174L115.763 191.014C114.169 191.947 110.102 194.444 108.592 195C106.685 194.25 102.971 191.995 101.068 190.901L87.1109 182.817L77.1353 177.097C76.0464 176.469 73.2069 174.912 72.3922 174.229C72.3286 161.707 72.1545 148.373 72.423 135.894C74.0116 135.84 104.285 117.356 108.557 115.502C108.892 118.182 108.784 121.568 108.781 124.328L108.769 137.571L108.77 147.382C108.769 148.909 108.829 151.857 108.617 153.282C110.035 152.595 111.951 151.256 113.373 150.404L123.365 144.519C129.34 141.004 135.742 137.725 141.617 134.184C143.727 133.576 146.948 131.395 148.933 130.273C154.995 126.841 161.033 123.364 167.044 119.842C169.401 118.452 175.424 114.681 177.612 113.831Z" fill="#4785FE"/>
<path d="M72.423 135.894C74.0116 135.84 104.285 117.356 108.557 115.502C108.892 118.182 108.784 121.568 108.781 124.328L108.769 137.571L108.77 147.382C108.769 148.909 108.829 151.857 108.617 153.282C105.269 155.493 100.854 157.872 97.3257 159.921L72.3922 174.229C72.3286 161.707 72.1545 148.373 72.423 135.894Z" fill="#0055FE"/>
<path d="M141.337 55.0024C141.601 56.1677 141.518 60.9676 141.519 62.5043L141.522 77.9478L141.517 90.2741C141.515 91.8101 141.6 95.1734 141.449 96.5867C139.271 98.0092 136.966 99.3232 134.712 100.625C126.538 105.347 118.443 110.219 110.145 114.72C109.613 115.008 109.135 115.309 108.557 115.501C104.285 117.356 74.0115 135.839 72.4228 135.894C72.2064 122.344 72.564 108.624 72.3315 95.0476C74.4355 92.7978 90.0949 84.4797 93.6922 82.3753C104.45 75.9591 115.28 69.6652 126.18 63.4946C130.31 61.1326 137.21 56.8328 141.337 55.0024Z" fill="#4785FE"/>
<path d="M141.337 55.0026C142.414 54.8577 151.96 60.8875 153.733 61.8323C161.044 65.7275 168.216 70.1164 175.379 74.2969C175.956 74.6369 177.509 75.5193 177.568 76.1911C177.691 77.5859 177.659 79.0208 177.657 80.4215L177.636 88.4293C177.615 96.8004 177.762 105.497 177.612 113.831C175.424 114.681 169.401 118.452 167.043 119.842C161.032 123.364 154.995 126.841 148.933 130.273C146.948 131.395 143.727 133.576 141.616 134.184C141.671 133.712 141.543 131.235 141.529 130.576C141.493 128.287 141.48 125.998 141.488 123.709L141.449 96.5868C141.6 95.1735 141.515 91.8102 141.517 90.2742L141.522 77.9479L141.519 62.5044C141.518 60.9677 141.601 56.1678 141.337 55.0026Z" fill="#0055FE"/>
</svg>
