<svg width="250" height="250" viewBox="0 0 250 250" fill="none" xmlns="http://www.w3.org/2000/svg">
<mask id="path-1-inside-1_769_117" fill="white">
<path d="M0 48C0 21.4903 21.4903 0 48 0H202C228.51 0 250 21.4903 250 48V202C250 228.51 228.51 250 202 250H48C21.4903 250 0 228.51 0 202V48Z"/>
</mask>
<path d="M0 48C0 21.4903 21.4903 0 48 0H202C228.51 0 250 21.4903 250 48V202C250 228.51 228.51 250 202 250H48C21.4903 250 0 228.51 0 202V48Z" fill="white"/>
<path d="M48 0V2H202V0V-2H48V0ZM250 48H248V202H250H252V48H250ZM202 250V248H48V250V252H202V250ZM0 202H2V48H0H-2V202H0ZM48 250V248C22.5949 248 2 227.405 2 202H0H-2C-2 229.614 20.3858 252 48 252V250ZM250 202H248C248 227.405 227.405 248 202 248V250V252C229.614 252 252 229.614 252 202H250ZM202 0V2C227.405 2 248 22.5949 248 48H250H252C252 20.3858 229.614 -2 202 -2V0ZM48 0V-2C20.3858 -2 -2 20.3858 -2 48H0H2C2 22.5949 22.5949 2 48 2V0Z" fill="#DDDBDB" mask="url(#path-1-inside-1_769_117)"/>
<path fill-rule="evenodd" clip-rule="evenodd" d="M113.28 61.3982C127.398 60.872 143.344 62.4696 152.721 74.4955C155.077 77.5171 154.597 78.5981 154.31 82.305C153.552 92.0824 146.647 97.0325 139.718 102.641C141.095 103.132 142.58 103.433 143.997 103.863C165.243 110.306 187.457 124.435 193.663 147.046C194.477 150.01 194.975 152.81 194.997 155.844C195.109 163.861 192.011 171.59 186.393 177.31C177.406 186.401 163.62 188.601 151.401 188.688C146.627 188.665 141.864 188.249 137.158 187.445C131.631 186.488 125.326 184.827 119.786 183.687L75.6701 174.245L64.7755 171.947C61.5399 171.232 58.3108 170.32 54.9995 170.023C55.9546 168.222 56.9246 166.09 57.8574 164.233L92.8194 93.8612L104.067 71.2914C105.016 69.3986 108.436 63.0611 108.891 61.5263C110.354 61.506 111.818 61.4635 113.28 61.3982ZM149.093 78.2885C141.884 66.0491 123.215 65.022 111.389 65.4738C111.254 71.131 111.369 77.2112 111.368 82.9075L111.366 157.213C111.367 164.067 111.269 171.176 111.372 178.009C112.851 178.229 114.276 178.665 115.727 178.922C125.049 180.569 134.914 183.578 144.293 184.581C151.151 185.287 158.077 184.931 164.826 183.526C174.994 181.318 184.546 176.095 188.248 165.769C188.888 163.571 189.707 160.828 189.851 158.576C190.254 152.317 188.052 144.203 184.899 138.796C173.977 120.071 152.254 109.338 131.633 105.498C136.204 96.9253 147.806 94.1433 149.122 83.4173C149.259 82.2966 149.637 79.2125 149.093 78.2885Z" fill="#580F7E"/>
<path fill-rule="evenodd" clip-rule="evenodd" d="M163.941 145.403C167.707 145.38 171.52 145.29 175.278 145.469C176.822 145.583 178.827 146.536 179.408 148.079C180.823 151.839 178.369 153.089 175.617 154.307C180.822 154.765 181.866 159.895 179.963 164.001C177.643 167.561 173.837 167.033 170.143 167.025C168.101 167.021 166.059 167.037 164.017 167.075C163.998 166.735 163.919 165.713 164.009 165.438C164.359 164.371 164.805 164.989 165.353 164.672C165.466 164.144 165.415 162.173 165.38 161.549C165.129 157.183 165.661 152.252 165.318 147.939C164.998 147.699 164.467 147.712 164.043 147.678C163.995 146.921 163.962 146.162 163.941 145.403ZM171.151 155.266C171.119 156.966 171.003 162.875 171.314 164.274C171.874 164.41 172.502 164.578 173.064 164.673C173.535 164.39 174.031 164.127 174.42 163.742C175.319 162.579 175.5 160.549 175.294 159.124C174.931 156.609 173.587 155.443 171.151 155.266ZM171.147 147.697C171.103 149.412 171.099 151.128 171.135 152.843C172.02 152.846 173.05 152.969 173.723 152.392C175.291 149.77 174.113 147.927 171.147 147.697Z" fill="#FB008C"/>
<path d="M137.454 145.369C139.249 145.369 142.3 145.287 143.982 145.5L143.986 147.585C143.295 147.66 142.624 147.702 141.932 147.747C142.787 152.849 142.816 158.372 143.266 163.536C143.298 163.909 143.358 164.489 143.598 164.762C144.945 165.227 144.677 165.785 144.643 167.061C141.851 167.032 139.03 167.059 136.236 167.065L136.223 166.878C136.169 166.1 136.005 165.548 136.489 164.992C136.919 164.792 137.467 164.892 137.952 164.934C137.536 162.352 137.467 157.789 137.376 155.06C137.313 153.983 137.254 152.984 137.126 151.913C135.064 156.624 134.354 162.38 133.011 167.174L130.699 167.133C129.569 161.68 129.326 157.323 127.116 152.142C126.584 155.988 126.427 160.898 126.234 164.809C126.763 164.868 127.31 164.91 127.842 164.958L127.797 167.065C125.942 167.059 124.164 167.136 122.31 167.214C122.188 163.546 122.613 165.46 123.644 164.681C123.917 160.618 124.428 156.538 124.673 152.471C124.746 151.246 124.999 148.86 124.859 147.755L124.695 147.652C124.336 147.712 124.162 147.78 123.835 147.633C123.674 147.182 123.723 145.922 123.721 145.383L130.142 145.383C130.806 148.23 132.601 153.2 133.56 156.184C134.566 154.241 137.02 147.484 137.454 145.369Z" fill="#FB008C"/>
<path d="M146.996 145.411C151.417 145.325 156.891 145.283 161.281 145.429L161.295 149.87C159.398 149.929 160.034 150.004 159.025 148.735C158.311 147.836 155.326 147.91 154.22 147.888L154.238 152.752C155.659 152.74 157.332 152.894 158.74 152.744C159.855 152.625 159.068 152.119 159.592 151.352C160.078 151.072 160.704 151.166 161.277 151.191C161.315 153.139 161.279 155.088 161.17 157.034L159.512 157.083C159.496 156.637 159.519 156.052 159.325 155.668C158.849 155.383 158.738 155.477 158.105 155.453C156.81 155.448 155.516 155.434 154.221 155.409C154.347 158.338 154.275 161.858 154.313 164.853L156.233 164.844C156.247 165.555 156.206 166.422 156.188 167.144C154.589 166.891 149.012 167.059 147.159 167.083C147.131 166.464 147.061 165.607 147.138 165.011C147.403 164.725 147.875 164.837 148.429 164.78C148.501 164.674 148.543 148.806 148.363 147.818C148.048 147.591 147.514 147.643 147.098 147.639C147.016 146.885 147.011 146.167 146.996 145.411Z" fill="#FB008C"/>
</svg>
