<svg width="250" height="250" viewBox="0 0 250 250" fill="none" xmlns="http://www.w3.org/2000/svg">
<rect width="250" height="250" fill="#0033A1"/>
<path d="M71.7376 74.3251C108.303 51.3522 162.887 57.0175 190.018 92.1928C199.299 104.24 203.444 119.466 201.552 134.555C199.514 150.316 189.062 165.673 176.538 175.119C164.938 183.868 152.737 189.072 138.467 191.617C130.6 192.796 123.315 193.895 115.295 193.247C100.96 192.089 86.9262 188.496 74.455 181.174C71.5596 179.474 68.893 177.976 66.4867 175.595C61.6039 166.346 74.0509 152.981 81.7677 149.094C92.393 143.742 104.972 141.543 116.811 141.407C130.914 141.244 152.69 141.368 163.746 151.456C168.721 148.434 173.412 145.391 167.405 140.309C168.144 138.337 168.499 136.799 167.597 134.78C162.878 124.212 132.194 112.861 121.322 108.658C128.349 107.348 140.23 106.322 143.255 98.6429C144.307 95.9179 142.824 93.0324 140.831 91.2208C135.64 86.5049 125.699 83.3469 118.779 82.126C100.922 78.9762 79.9219 79.2561 62 81.44C65.3907 78.8231 68.0677 76.6307 71.7376 74.3251Z" fill="#FEFEFE"/>
<path d="M158.431 135.486C159.677 135.317 162.297 136.222 163.387 136.906C164.811 137.8 165.155 138.017 165.542 139.572C163.094 139.635 160.117 137.105 158.431 135.486Z" fill="#FEFEFE"/>
</svg>
