<svg width="250" height="250" viewBox="0 0 250 250" fill="none" xmlns="http://www.w3.org/2000/svg">
<path d="M0 48C0 21.4903 21.4903 0 48 0H202C228.51 0 250 21.4903 250 48V202C250 228.51 228.51 250 202 250H48C21.4903 250 0 228.51 0 202V48Z" fill="#181A40"/>
<path d="M90.6479 60.4235C91.5059 59.6108 93.0726 58.1073 94.1299 57.0825C96.1387 55.1353 97.4546 54.7705 99.1664 55.6868C99.6468 55.9438 105.304 61.4649 111.738 67.9558C122.497 78.8108 123.549 79.7574 124.851 79.7574C126.15 79.7574 127.273 78.7547 138.58 67.4883C150.508 55.604 150.946 55.2193 152.518 55.2193C154.048 55.2193 154.465 55.5416 159.67 60.747C164.879 65.9562 165.198 66.3683 165.198 67.9017C165.198 69.4921 164.772 69.9563 146.379 88.3981C136.028 98.7765 127.024 107.55 126.37 107.895C125.668 108.265 124.753 108.414 124.132 108.259C122.908 107.951 113.804 99.0818 96.9434 81.7703C85.4966 70.0174 84.9293 69.3607 84.9293 67.8631C84.9293 66.5101 85.2192 66.0231 87.0088 64.3691C88.1525 63.3123 89.0883 62.3245 89.0883 62.1744C89.0883 62.0242 89.7904 61.2365 90.6479 60.4235Z" fill="#FEE06E"/>
<path d="M56.2422 99.9448C54.4987 97.1233 55.0739 96.0037 61.5383 89.635C66.1585 85.0834 66.6102 84.7478 68.1241 84.7432C69.7161 84.7386 70.1378 85.1292 88.9843 104.079C107.557 122.754 108.22 123.474 108.22 124.994C108.22 126.515 107.589 127.197 89.4002 145.355C70.9771 163.747 68.4231 166 66.9233 165.187C66.3648 164.885 64.3664 162.994 61.8469 160.386C60.9319 159.438 59.0138 157.502 57.5839 156.084C56.1544 154.665 54.9912 153.24 54.9991 152.918C55.0323 151.6 56.6361 149.818 68.0309 138.432C78.7216 127.75 79.9385 126.397 79.9385 125.189C79.9385 124.079 79.291 123.132 76.2204 119.756C74.1758 117.507 69.0336 112.436 64.7935 108.487C60.5534 104.538 56.7055 100.694 56.2422 99.9448Z" fill="#FEE06E"/>
<path d="M142.153 124.024C142.599 122.858 177.319 87.808 179.827 85.9909C181.799 84.5627 181.829 84.5573 183.615 85.318C185.081 85.9427 193.752 94.5198 194.651 96.2349C195.1 97.0921 195.111 97.5463 194.706 98.522C194.429 99.1916 189.991 103.806 184.843 108.776C173.429 119.796 170.189 123.4 170.189 125.076C170.189 126.106 171.956 128.035 182.214 138.198C188.827 144.751 194.457 150.64 194.723 151.283C195.113 152.225 195.085 152.687 194.58 153.641C193.71 155.286 184.359 164.471 183.064 164.953C182.331 165.226 181.628 165.182 180.776 164.811C178.971 164.023 143.026 128.109 142.336 126.403C141.956 125.462 141.897 124.693 142.153 124.024Z" fill="#FEE06E"/>
<path d="M84.9293 182.028C84.9293 180.774 86.5892 178.995 104.373 161.191C125.147 140.391 124.745 140.723 126.983 142.525C129.572 144.608 164.62 180.095 164.946 180.962C165.15 181.506 165.197 182.433 165.05 183.02C164.684 184.476 154.875 194.333 153.43 194.695C152.7 194.878 151.819 194.735 150.95 194.292C150.209 193.914 144.361 188.29 137.957 181.794C127.854 171.547 126.148 169.985 125.08 169.995C124.028 170.006 122.082 171.765 111.771 182.023C105.129 188.63 99.2766 194.25 98.7667 194.51C98.2564 194.769 97.3838 194.868 96.8274 194.728C96.2713 194.588 93.3663 191.983 90.3726 188.937C85.6114 184.094 84.9293 183.229 84.9293 182.028Z" fill="#FEE06E"/>
</svg>
