<svg width="250" height="250" viewBox="0 0 250 250" fill="none" xmlns="http://www.w3.org/2000/svg">
<mask id="path-1-inside-1_769_121" fill="white">
<path d="M0 48C0 21.4903 21.4903 0 48 0H202C228.51 0 250 21.4903 250 48V202C250 228.51 228.51 250 202 250H48C21.4903 250 0 228.51 0 202V48Z"/>
</mask>
<path d="M0 48C0 21.4903 21.4903 0 48 0H202C228.51 0 250 21.4903 250 48V202C250 228.51 228.51 250 202 250H48C21.4903 250 0 228.51 0 202V48Z" fill="white"/>
<path d="M48 0V2H202V0V-2H48V0ZM250 48H248V202H250H252V48H250ZM202 250V248H48V250V252H202V250ZM0 202H2V48H0H-2V202H0ZM48 250V248C22.5949 248 2 227.405 2 202H0H-2C-2 229.614 20.3858 252 48 252V250ZM250 202H248C248 227.405 227.405 248 202 248V250V252C229.614 252 252 229.614 252 202H250ZM202 0V2C227.405 2 248 22.5949 248 48H250H252C252 20.3858 229.614 -2 202 -2V0ZM48 0V-2C20.3858 -2 -2 20.3858 -2 48H0H2C2 22.5949 22.5949 2 48 2V0Z" fill="#DDDBDB" mask="url(#path-1-inside-1_769_121)"/>
<path d="M55.5674 59.9688H85.6472V88.4907H55.5674V59.9688Z" fill="#91D7F6"/>
<path d="M55.5674 92.2662H85.6472V120.788H55.5674V92.2662Z" fill="#91D7F6"/>
<path d="M55.5674 123.714H85.6472V152.236H55.5674V123.714Z" fill="#91D7F6"/>
<path d="M89.0798 59.9688H119.16V88.4907H89.0798V59.9688Z" fill="#0096DC"/>
<path d="M89.0798 92.2662H119.16V120.788H89.0798V92.2662Z" fill="#0096DC"/>
<path d="M89.0798 123.714H119.16V152.236H89.0798V123.714Z" fill="#0096DC"/>
<path d="M89.0798 155.162H119.16V190.031H89.0798V155.162Z" fill="#0096DC"/>
<path d="M121.91 155.162H157.234V190.031H121.91V155.162Z" fill="#3E4299"/>
<path d="M159.116 155.162H198.433V190.031H159.116V155.162Z" fill="#3E4299"/>
<path d="M121.91 59.9688H151.99V88.4907H121.91V59.9688Z" fill="#3E4299"/>
<path d="M121.91 92.2662H151.99V120.788H121.91V92.2662Z" fill="#3E4299"/>
<path d="M121.91 123.714H151.99V152.236H121.91V123.714Z" fill="#CD3339"/>
<path d="M154.74 123.714H198.433V152.236H154.74V123.714Z" fill="#3E4299"/>
</svg>
