<svg width="250" height="250" viewBox="0 0 250 250" fill="none" xmlns="http://www.w3.org/2000/svg">
<mask id="path-1-inside-1_769_123" fill="white">
<path d="M0 48C0 21.4903 21.4903 0 48 0H202C228.51 0 250 21.4903 250 48V202C250 228.51 228.51 250 202 250H48C21.4903 250 0 228.51 0 202V48Z"/>
</mask>
<path d="M0 48C0 21.4903 21.4903 0 48 0H202C228.51 0 250 21.4903 250 48V202C250 228.51 228.51 250 202 250H48C21.4903 250 0 228.51 0 202V48Z" fill="white"/>
<path d="M48 0V2H202V0V-2H48V0ZM250 48H248V202H250H252V48H250ZM202 250V248H48V250V252H202V250ZM0 202H2V48H0H-2V202H0ZM48 250V248C22.5949 248 2 227.405 2 202H0H-2C-2 229.614 20.3858 252 48 252V250ZM250 202H248C248 227.405 227.405 248 202 248V250V252C229.614 252 252 229.614 252 202H250ZM202 0V2C227.405 2 248 22.5949 248 48H250H252C252 20.3858 229.614 -2 202 -2V0ZM48 0V-2C20.3858 -2 -2 20.3858 -2 48H0H2C2 22.5949 22.5949 2 48 2V0Z" fill="#DDDBDB" mask="url(#path-1-inside-1_769_123)"/>
<path d="M166.339 100.584L113.748 86.9571V107.154C113.748 114.889 118.961 121.63 126.453 123.569L141.365 127.425V153.175L124.78 149.368C118.719 147.986 112.827 150.022 108.875 154.047V55L75.584 72.1181V195L107.347 178.658L152.179 189.229C163.43 192.139 174.413 183.653 174.413 172.014V110.986C174.413 106.064 171.091 101.772 166.339 100.559V100.584Z" fill="url(#paint0_linear_769_123)"/>
<defs>
<linearGradient id="paint0_linear_769_123" x1="169.976" y1="83.3686" x2="88.5559" y2="160.4" gradientUnits="userSpaceOnUse">
<stop stop-color="#24B2FF"/>
<stop offset="1" stop-color="#003DCA"/>
</linearGradient>
</defs>
</svg>
