<svg width="250" height="250" viewBox="0 0 250 250" fill="none" xmlns="http://www.w3.org/2000/svg">
<mask id="path-1-inside-1_769_126" fill="white">
<path d="M0 48C0 21.4903 21.4903 0 48 0H202C228.51 0 250 21.4903 250 48V202C250 228.51 228.51 250 202 250H48C21.4903 250 0 228.51 0 202V48Z"/>
</mask>
<path d="M0 48C0 21.4903 21.4903 0 48 0H202C228.51 0 250 21.4903 250 48V202C250 228.51 228.51 250 202 250H48C21.4903 250 0 228.51 0 202V48Z" fill="white"/>
<path d="M48 0V2H202V0V-2H48V0ZM250 48H248V202H250H252V48H250ZM202 250V248H48V250V252H202V250ZM0 202H2V48H0H-2V202H0ZM48 250V248C22.5949 248 2 227.405 2 202H0H-2C-2 229.614 20.3858 252 48 252V250ZM250 202H248C248 227.405 227.405 248 202 248V250V252C229.614 252 252 229.614 252 202H250ZM202 0V2C227.405 2 248 22.5949 248 48H250H252C252 20.3858 229.614 -2 202 -2V0ZM48 0V-2C20.3858 -2 -2 20.3858 -2 48H0H2C2 22.5949 22.5949 2 48 2V0Z" fill="#DDDBDB" mask="url(#path-1-inside-1_769_126)"/>
<path d="M55.157 124.731C57.7902 125.029 62.7892 124.908 65.5466 124.907L82.2413 124.883C85.3435 124.876 88.4889 124.833 91.5559 124.907C110.635 125.368 125.941 141.803 125.226 160.857C124.914 169.176 121.289 178.738 114.962 184.422C114.454 184.944 113.938 185.459 113.416 185.966C109.957 189.273 102.294 193.213 97.743 193.919C92.0012 194.811 83.5983 194.605 77.5897 194.53C70.1781 194.438 62.3333 194.744 55.0382 194.59C54.9543 193.281 55.0712 190.901 55.0869 189.482L55.1064 180.716L55.0942 133.291C55.0818 131.62 54.853 126.023 55.157 124.731Z" fill="#F49220"/>
<path d="M124.92 55.3781L149.098 55.363C154.331 55.3601 159.779 55.1213 164.938 55.7419C187.225 58.4231 200.79 82.1859 192.585 102.906C190.597 107.923 188.482 110.856 184.893 114.726C179.113 120.741 170.831 124.321 162.571 124.854C159.482 125.054 156.045 124.976 152.918 124.975L135.116 124.962C132.291 124.96 127.639 124.83 124.987 125.096L124.978 78.2588C124.979 71.2965 125.238 62.1173 124.92 55.3781Z" fill="#6C9448"/>
<path d="M80.3908 63.8842C94.8379 63.3056 107.031 74.5219 107.659 88.9671C108.286 103.412 97.1105 115.643 82.6675 116.319C68.1559 116.998 55.8537 105.758 55.2234 91.2438C54.5932 76.7297 65.8748 64.4656 80.3908 63.8842Z" fill="#FEE9D2"/>
<path d="M157.791 142.292C172.227 141.076 184.917 151.788 186.141 166.224C187.366 180.659 176.661 193.356 162.226 194.588C147.78 195.822 135.071 185.106 133.846 170.659C132.621 156.212 143.343 143.509 157.791 142.292Z" fill="#6C9448"/>
</svg>
