<svg width="250" height="250" viewBox="0 0 250 250" fill="none" xmlns="http://www.w3.org/2000/svg">
<path d="M0 48C0 21.4903 21.4903 0 48 0H202C228.51 0 250 21.4903 250 48V202C250 228.51 228.51 250 202 250H48C21.4903 250 0 228.51 0 202V48Z" fill="#1F414A"/>
<path d="M65.1503 124.579C65.1743 138.741 68.3145 150.393 75.0611 161.077C79.9812 168.9 86.5422 175.559 94.2899 180.595C95.7365 181.544 97.245 182.412 98.6334 183.444C100.231 184.631 101.088 186.331 100.587 188.283C100.118 190.196 98.702 191.327 96.6896 191.745C95.3496 192.047 93.9635 192.081 92.6104 191.846C91.2575 191.61 89.9641 191.11 88.8047 190.374C84.9206 187.888 80.9747 185.361 77.5946 182.261C73.5905 178.614 69.9235 174.614 66.6381 170.308C61.8592 163.985 58.4105 156.877 55.9936 149.282C53.6132 141.952 52.4222 134.288 52.466 126.582C52.6306 109.341 57.91 93.7945 68.6813 80.2091C73.4742 74.1148 79.2057 68.8219 85.6612 64.5286C101.417 53.9904 120.606 49.8793 139.295 53.0383C147.192 54.3618 154.798 57.0539 161.77 60.9934C164.283 62.4027 166.731 63.9457 169.11 65.571C171.643 67.3164 171.986 69.8401 171.081 71.6231C170.467 72.8357 169.408 73.7633 168.125 74.2109C166.842 74.6584 165.435 74.5912 164.201 74.0234C161.294 72.6929 158.541 71.0299 155.658 69.6377C143.289 63.668 130.313 61.7512 116.782 64.196C102.786 66.7494 91.0285 73.3422 81.5095 83.9742C70.7485 95.9856 65.5548 110.144 65.1503 124.579Z" fill="#BFFF84"/>
<path d="M96.9131 162.719C105.23 169.752 113.626 173.709 123.248 175.063C130.286 176.071 137.459 175.536 144.27 173.496C145.549 173.119 146.807 172.667 148.103 172.365C149.594 172.022 151.017 172.365 151.911 173.627C152.806 174.889 152.751 176.253 151.997 177.639C151.511 178.582 150.842 179.42 150.03 180.104C149.218 180.788 148.279 181.304 147.266 181.623C143.876 182.652 140.43 183.722 136.93 184.161C132.795 184.685 128.621 184.834 124.458 184.606C118.37 184.263 112.491 182.745 106.831 180.385C101.35 178.132 96.2641 175.016 91.7675 171.154C81.74 162.479 75.2505 151.644 72.6451 138.563C71.4607 132.718 71.2108 126.723 71.9046 120.801C73.5722 106.309 80.724 93.0063 91.8909 83.6241C96.5962 79.6497 101.96 76.5281 107.739 74.4003C109.817 73.6288 111.939 72.9567 114.078 72.3704C116.358 71.7497 118.007 72.8058 118.6 74.222C119.006 75.1873 119.022 76.2725 118.644 77.2491C118.266 78.2258 117.524 79.0176 116.574 79.458C114.346 80.4867 112.001 81.2891 109.748 82.287C100.091 86.5731 92.501 93.2182 87.2081 102.384C81.7366 111.861 79.7551 122.037 81.2635 132.912C82.9329 145.204 88.6477 155.299 96.9131 162.719Z" fill="#BFFF84"/>
<path d="M125.361 93.8415C134.922 93.7421 142.677 96.8728 149.152 103.079C151.298 105.136 151.819 108.199 149.814 110.28C148.271 111.871 146.502 111.854 144.439 110.359C142.186 108.73 140.026 106.889 137.582 105.637C126.54 99.9931 112.186 102.894 104.994 114.402C98.2543 125.168 102.3 140.167 113.469 146.448C122.324 151.43 134.641 150.714 142.399 143.767C143.22 143.032 144.084 142.345 144.984 141.71C146.643 140.527 148.35 140.839 149.187 142.673C149.777 144.002 150.125 145.426 150.215 146.877C150.203 147.796 149.834 148.675 149.187 149.329C140.771 157.476 130.675 160.195 119.286 158.155C109.42 156.385 101.819 151.064 96.5744 142.563C88.6588 129.739 91.3602 112.893 102.577 102.712C108.642 97.2054 117.85 93.4232 125.361 93.8415Z" fill="#BFFF84"/>
</svg>
