<svg width="250" height="250" viewBox="0 0 250 250" fill="none" xmlns="http://www.w3.org/2000/svg">
<mask id="path-1-inside-1_769_133" fill="white">
<path d="M0 48C0 21.4903 21.4903 0 48 0H202C228.51 0 250 21.4903 250 48V202C250 228.51 228.51 250 202 250H48C21.4903 250 0 228.51 0 202V48Z"/>
</mask>
<path d="M0 48C0 21.4903 21.4903 0 48 0H202C228.51 0 250 21.4903 250 48V202C250 228.51 228.51 250 202 250H48C21.4903 250 0 228.51 0 202V48Z" fill="white"/>
<path d="M48 0V2H202V0V-2H48V0ZM250 48H248V202H250H252V48H250ZM202 250V248H48V250V252H202V250ZM0 202H2V48H0H-2V202H0ZM48 250V248C22.5949 248 2 227.405 2 202H0H-2C-2 229.614 20.3858 252 48 252V250ZM250 202H248C248 227.405 227.405 248 202 248V250V252C229.614 252 252 229.614 252 202H250ZM202 0V2C227.405 2 248 22.5949 248 48H250H252C252 20.3858 229.614 -2 202 -2V0ZM48 0V-2C20.3858 -2 -2 20.3858 -2 48H0H2C2 22.5949 22.5949 2 48 2V0Z" fill="#DDDBDB" mask="url(#path-1-inside-1_769_133)"/>
<path d="M124.978 55C130.571 58.038 136.503 61.6204 142.061 64.8327L173.503 83.0345L173.497 111.291L149.26 125.046C155.107 128.808 161.953 131.917 167.857 135.695C169.267 136.597 172.525 138.164 173.587 139.237C173.404 142.322 173.507 146.31 173.507 149.464L173.52 167.013C157.899 176.43 141.019 185.861 125.162 195C121.112 192.857 116.605 190.132 112.589 187.821L89.5543 174.589L81.1912 169.775C80.1161 169.155 77.754 167.722 76.6701 167.263C76.2953 166.73 76.4409 158.375 76.4409 157.085L76.4407 138.874L76.4333 83.1835L124.978 55Z" fill="#BC3638"/>
<path d="M100.877 97.0367C104.304 95.1978 108.146 92.8646 111.567 90.8999L135.408 77.1901C139.898 74.605 144.625 71.7823 149.167 69.3318L149.185 97.2461C146.651 98.5041 143.195 100.622 140.674 102.073L125.203 110.93L125.216 139.114C130.383 141.842 135.781 145.303 140.959 148.135C142.108 148.763 148.509 152.409 149.25 153.071C150.252 152.769 154.87 149.99 156.037 149.335C161.802 146.097 167.732 142.261 173.586 139.237C173.404 142.322 173.506 146.31 173.506 149.464L173.519 167.013C157.899 176.43 141.019 185.861 125.162 195C121.112 192.857 116.604 190.132 112.589 187.822L89.5541 174.589L81.191 169.775C80.1159 169.155 77.7538 167.722 76.6699 167.263C76.9038 166.967 100.027 153.452 101.078 153.085C100.723 152.58 100.876 102.318 100.877 97.0367Z" fill="white"/>
<path d="M149.25 153.071C150.252 152.769 154.87 149.99 156.037 149.335C161.802 146.097 167.732 142.261 173.586 139.237C173.404 142.322 173.506 146.31 173.506 149.464L173.519 167.013C157.899 176.43 141.019 185.861 125.162 195C121.112 192.857 116.604 190.132 112.589 187.821L89.5541 174.589L81.191 169.775C80.1159 169.155 77.7538 167.722 76.6699 167.263C76.9038 166.967 100.027 153.452 101.078 153.085C102.226 153.58 105.062 155.305 106.276 156.007L116.303 161.835L149.12 180.869L149.113 160.936C149.111 159.667 149.014 153.934 149.25 153.071Z" fill="#932C2A"/>
</svg>
