<svg width="250" height="250" viewBox="0 0 250 250" fill="none" xmlns="http://www.w3.org/2000/svg">
<rect width="250" height="250" fill="white"/>
<path d="M177.82 64.5127C178.057 66.9629 176.811 68.5759 174.945 69.9508C157.765 82.6165 142.518 97.4175 128.403 113.371C115.573 127.872 103.874 143.295 93.7965 159.894C92.9248 161.33 92.2214 163.058 90.2487 162.881C88.4748 162.72 88.0083 160.938 87.3966 159.579C85.1869 154.709 82.8089 149.931 79.9569 145.407C75.2316 137.911 69.8563 131.244 60.0692 130.568C60.0692 109.446 60.115 88.3234 60.0004 67.201C59.9851 64.9121 60.4591 64.4436 62.7453 64.4513C101.099 64.5434 139.46 64.5127 177.82 64.5127Z" fill="#0EB257"/>
<path d="M60.0696 152.074C61.8741 151.445 62.4475 152.789 63.2657 153.949C68.4651 161.345 71.2865 169.886 74.8114 178.09C75.0637 178.673 75.2702 179.272 75.5302 179.856C77.7628 184.925 77.0212 185.909 71.5465 185.44C69.0309 185.225 66.4847 185.302 63.9538 185.325C62.3634 185.34 60.8954 185.202 60.0696 183.566C60.0696 173.074 60.0696 162.574 60.0696 152.074Z" fill="#0EB257"/>
<path d="M189.848 128.64C189.848 145.907 189.733 163.166 189.94 180.424C189.978 183.827 188.915 185.033 185.757 184.918C184.488 184.872 183.219 185.056 181.949 185.056C156.748 185.048 131.538 185.033 106.336 184.995C101.68 184.987 101.611 184.841 103.431 180.547C111.796 160.815 123.25 143.003 136.332 126.113C148.704 110.137 162.077 95.167 177.4 81.9943C180.298 79.5058 183.158 76.9634 186.185 74.6515C187.08 73.9755 188.074 72.4086 189.412 73.2535C190.421 73.891 189.825 75.3811 189.825 76.4795C189.856 93.8536 189.848 111.251 189.848 128.64Z" fill="#F15D22"/>
</svg>
