<svg width="250" height="250" viewBox="0 0 250 250" fill="none" xmlns="http://www.w3.org/2000/svg">
<mask id="path-1-inside-1_769_136" fill="white">
<path d="M0 48C0 21.4903 21.4903 0 48 0H202C228.51 0 250 21.4903 250 48V202C250 228.51 228.51 250 202 250H48C21.4903 250 0 228.51 0 202V48Z"/>
</mask>
<path d="M0 48C0 21.4903 21.4903 0 48 0H202C228.51 0 250 21.4903 250 48V202C250 228.51 228.51 250 202 250H48C21.4903 250 0 228.51 0 202V48Z" fill="white"/>
<path d="M48 0V2H202V0V-2H48V0ZM250 48H248V202H250H252V48H250ZM202 250V248H48V250V252H202V250ZM0 202H2V48H0H-2V202H0ZM48 250V248C22.5949 248 2 227.405 2 202H0H-2C-2 229.614 20.3858 252 48 252V250ZM250 202H248C248 227.405 227.405 248 202 248V250V252C229.614 252 252 229.614 252 202H250ZM202 0V2C227.405 2 248 22.5949 248 48H250H252C252 20.3858 229.614 -2 202 -2V0ZM48 0V-2C20.3858 -2 -2 20.3858 -2 48H0H2C2 22.5949 22.5949 2 48 2V0Z" fill="#DDDBDB" mask="url(#path-1-inside-1_769_136)"/>
<path d="M120.168 62.7297H129.734L129.839 62.7653C131.134 63.1909 133.409 63.1232 134.86 63.3347C143.166 64.5454 151.182 67.313 158.559 71.3039C159.954 72.059 161.411 72.7398 162.766 73.5698C164.146 74.4193 165.412 75.4428 166.693 76.4306C172.169 80.5026 177.051 85.416 181.151 90.8663C181.698 91.5932 182.258 92.3074 182.799 93.0409C184.526 95.3842 185.875 98.1203 187.201 100.725C191.152 108.488 193.797 116.989 194.609 125.678C194.735 127.042 194.679 128.48 195.001 129.818V135.415C194.529 137.012 194.619 140.347 194.314 142.27C192.157 155.836 186.697 172.306 172.691 177.708C159.736 182.703 144.978 174.524 133.226 169.55C132.892 166.558 133.576 162.297 134.331 159.393C136.158 152.611 140.553 146.808 146.586 143.212C152.823 139.571 163.374 138.405 170.352 140.219C167.414 133.403 160.417 133.443 154.189 134.888C154.636 133.776 155.095 132.544 155.364 131.379C157.208 123.379 155.089 112.993 148.586 107.65C151.15 112.933 151.188 119.462 149.977 125.123C148.775 130.32 145.957 136.763 141.37 139.791C137.327 142.459 132.953 140.471 130.549 136.71C128.1 133.103 131.585 128.912 134.094 126.276C141.775 118.209 143.879 111.562 137.611 101.479C137.229 100.837 136.831 100.205 136.418 99.583C136.648 100.332 136.802 100.697 137.134 101.409C139.088 105.775 139.914 111.168 138.226 115.85C136.619 120.307 132.347 122.706 127.725 121.229C126.668 120.891 125.661 119.973 125.253 118.914C123.5 113.701 124.953 105.789 127.01 100.799C127.642 99.2673 128.152 98.5588 128.975 97.2832C125.838 99.7242 124.193 101.663 122.644 105.461C121.356 108.618 120.914 111.741 120.457 115.104C119.211 124.27 121.382 139.508 107.343 137.672C101.541 136.891 100.314 131.099 101.012 126.161C101.69 121.364 103.498 116.951 105.485 112.572C106.058 111.317 107.143 109.838 107.828 108.633C102.193 112.999 96.1444 118.282 95.2367 125.737C94.7458 129.769 95.7748 132.376 97.5052 135.946C87.3852 137.363 85.2865 139.339 81.0583 148.507C82.3254 147.072 83.8769 145.245 85.3996 144.173C101.13 133.096 119.836 147.508 120.207 164.877C120.223 165.621 120.259 166.322 120.25 167.05C114.431 169.229 108.771 171.469 102.791 173.438C93.9097 176.364 83.0548 180.658 73.8286 176.712C70.7209 175.382 67.0808 172.215 65.3534 169.386C60.723 161.802 57.5698 153.436 55.9123 144.716C55.6334 143.249 55.4384 138.774 55.001 137.829V127.408C55.2282 126.962 55.592 123.108 55.7081 122.267C55.8915 120.954 56.1161 119.646 56.3814 118.347C57.8183 111.524 60.4767 104.698 63.8077 98.5882C64.6047 97.1264 65.3516 95.5918 66.2579 94.1976C75.6908 79.9511 89.9838 69.6221 106.471 65.1371C109.493 64.2863 112.591 63.7471 115.689 63.2564C117.103 63.0323 118.833 63.1913 120.168 62.7297Z" fill="#06A306"/>
</svg>
