<svg width="250" height="250" viewBox="0 0 250 250" fill="none" xmlns="http://www.w3.org/2000/svg">
<mask id="path-1-inside-1_769_140" fill="white">
<path d="M0 48C0 21.4903 21.4903 0 48 0H202C228.51 0 250 21.4903 250 48V202C250 228.51 228.51 250 202 250H48C21.4903 250 0 228.51 0 202V48Z"/>
</mask>
<path d="M0 48C0 21.4903 21.4903 0 48 0H202C228.51 0 250 21.4903 250 48V202C250 228.51 228.51 250 202 250H48C21.4903 250 0 228.51 0 202V48Z" fill="white"/>
<path d="M48 0V2H202V0V-2H48V0ZM250 48H248V202H250H252V48H250ZM202 250V248H48V250V252H202V250ZM0 202H2V48H0H-2V202H0ZM48 250V248C22.5949 248 2 227.405 2 202H0H-2C-2 229.614 20.3858 252 48 252V250ZM250 202H248C248 227.405 227.405 248 202 248V250V252C229.614 252 252 229.614 252 202H250ZM202 0V2C227.405 2 248 22.5949 248 48H250H252C252 20.3858 229.614 -2 202 -2V0ZM48 0V-2C20.3858 -2 -2 20.3858 -2 48H0H2C2 22.5949 22.5949 2 48 2V0Z" fill="#DDDBDB" mask="url(#path-1-inside-1_769_140)"/>
<path d="M40.707 52.9553C58.168 75.9133 86.8008 82.0036 116.522 91.7043C119.24 92.5913 120 92.9133 125.857 95.0696C126.98 100.338 128.368 103.757 130.922 108.493C133.172 112.668 135.34 116.932 138.797 120.279C132.5 112.413 127.5 96.4133 128.19 92.4465C117.085 90.0021 105.699 84.09 101.309 72.9465C100.706 71.4179 98.9369 65.7159 99.251 64.3704L99.4385 64.3137C101.849 67.1301 105.409 70.8011 108.085 73.4368C115.903 81.0971 124.851 87.5112 134.616 92.4553C139.617 95.0419 144.632 97.3939 149.97 99.2053C150.466 99.3737 153.9 100.325 153.898 100.563C153.75 111.382 152.554 121.869 159.724 131.154C160.694 132.41 162.2 134.43 163.729 135.252C167.358 136.984 172.34 137.469 176.375 137.847C181.662 138.342 194.499 138.252 198.819 140.855C200.448 141.835 203 145.913 203 145.913C203 145.913 204.701 146.588 205.976 147.202C206.395 147.404 206.726 147.759 206.854 148.205C207.327 149.849 206.834 150.973 205.483 152.492C204.07 150.793 202.738 149.035 200.338 148.791C199.629 148.719 198.579 148.676 198.812 149.634C199.5 150.413 201.5 150.413 201.5 150.413C201.5 150.413 199.17 151.131 198.379 150.845C197.046 150.537 195.401 150.612 194.013 150.622C189.216 150.611 184.783 151.352 180.649 153.958C177.847 155.725 174.74 158.822 173.945 162.12C173.23 165.09 173.794 168.655 177.279 169.301C178.192 169.47 178.838 169.21 179.707 168.976C179.385 171.615 179.54 172.845 181.254 173.916C182.482 174.684 184.951 174.19 184.951 174.19C184.951 174.19 182.561 176.246 181.509 176.526C180.924 176.751 179.455 177.73 179.001 178.174L178.979 178.401L179.099 178.455C178.3 178.961 174.695 182.765 174.058 183.628C174.113 176.843 174.234 177.135 168.731 173.218C168 175.413 162.5 176.913 162.5 176.913C171 171.413 162.324 168.176 157.723 164.66C159 173.841 140.5 185.413 140.5 185.413C140.5 185.413 148 178.913 146 174.19C146 178.913 139.542 184.332 135 186.913C122.821 193.166 105 183.913 108 185.413C111 186.913 128 185.413 135.5 176.913C115 182.5 112.613 184.178 87 174.19C112.388 181.16 137.46 170.552 148.345 151.246C143 157.413 137.077 160.595 129.5 161.413C135.049 158.599 138.5 155.913 139.64 149.618C133.5 153.913 132.985 161.413 111 160.413C121 157.413 128.723 154.933 130.66 144.468C118 152.913 106.82 158.331 93.5 146.913C104.437 150.891 116 146.913 123.52 137.96C106.5 145.413 89.6381 145.544 75.5127 131.578C88.0912 135.958 101.565 137.905 112.388 128.504C96.4739 130.663 75.5328 129.584 64.5 116.221C72 119.413 78.4417 120.64 85.3867 120.262C91.2489 119.943 94.6691 118.594 99.9551 116.347C91.1763 116.464 82.8901 116.408 73.5 111.739C64.7249 107.375 54.8164 94.9856 54.8164 94.9856C54.8164 94.9856 79.7395 105.81 89.2783 104.376C77.5003 101.627 67.5228 97.9681 58.168 89.9114C53.4263 85.8276 47.8808 78.5154 46.2578 72.4749C53.4999 81.7008 66.2414 88.4131 78.6904 89.467C68.487 86.9131 41.4535 72.6501 40.707 52.9553Z" fill="#1260B2"/>
<path d="M57.2422 71.9878C57.8213 72.1162 61.9849 74.2339 62.7211 74.5966C66.7218 76.5779 70.747 78.5098 74.7954 80.3918C88.2984 86.5066 102.777 91.5514 116.876 96.1154C118.717 96.7117 120.69 97.4059 122.563 97.8203C122.705 98.4306 122.903 99.0427 123.098 99.6365C128.618 116.391 140.819 129.187 156.819 136.366C158.889 137.295 161.01 138.076 163.027 139.085C155.096 138.611 147.692 134.762 141.399 130.162C139.555 128.815 137.735 127.661 136.183 125.962C135.465 126.754 134.677 127.555 133.814 128.186C127.989 132.449 118.851 138.686 111.384 137.77C112.898 137.274 114.504 137.152 116.13 136.448C120.404 134.597 124.964 131.904 128.632 129.059C130.636 127.504 132.383 125.765 134.434 124.262C132.435 122.452 129.893 119.842 128.034 117.841C125.558 119.811 120.459 122.009 117.424 123.154C111.983 125.168 105.721 126.442 99.9112 125.934C102.69 125.197 105.734 124.789 108.642 123.988C115.722 122.038 120.396 119.304 126.619 115.686C125.586 113.052 123.605 111.16 122.446 108.799C115.939 111.884 109.713 113.443 102.506 113.756C97.51 113.973 92.8093 113.066 87.8825 112.49C92.069 111.824 96.6178 112.079 100.732 111.627C107.627 110.87 115.276 108.596 121.676 106.005C120.984 104.028 120.133 102.078 119.576 100.075C113.317 101.099 107.735 102.289 101.333 102.172C95.4515 102.065 87.9795 101.597 82.6003 98.9559C84.4326 99.1819 86.1796 99.6234 88.0599 99.7215C97.0051 100.188 106.015 99.7675 114.827 98.1824C112.886 97.7088 111.266 97.1505 109.371 96.5117C93.4082 91.1294 77.0777 85.5895 62.8919 76.3017C61.364 75.3014 58.2241 73.3341 57.2422 71.9878Z" fill="white"/>
<path d="M197.473 143.002C198.897 143.173 200.38 143.683 200.851 145.209C199.105 145.409 197.681 144.885 197.473 143.002Z" fill="#E1E7EC"/>
<path d="M184.903 178.799C190.164 176.831 189.216 173.513 196.935 173.84C195.5 174.413 195.299 174.749 195.299 174.749C195.299 174.749 194.5 175.413 194.9 176.277C195.421 176.227 197.176 176.379 198 176.913C199.362 177.797 199.794 179.272 199.794 179.272C199.794 179.272 198.29 178.877 197 178.913C196.288 178.934 195.5 178.913 195.299 179.405C195.2 180.805 195 182.413 192.786 183.148C193.5 182.413 193.767 180.98 192.321 180.722C188.733 180.082 184.697 181.907 181.542 183.443C178.835 184.76 178.874 184.773 179.019 187.521C178.189 186.773 176.648 185.658 176.55 184.673C177.087 183.078 179.644 181.205 181.125 180.531C180.563 179.822 179.892 178.867 179.099 178.456L178.978 178.401L179.001 178.174C179.455 177.73 180.924 176.752 181.508 176.526C182.293 177.988 183.379 178.227 184.903 178.799Z" fill="#31B3ED"/>
</svg>
