<svg width="250" height="250" viewBox="0 0 250 250" fill="none" xmlns="http://www.w3.org/2000/svg">
<rect width="250" height="250" fill="white"/>
<path d="M40.707 52.9551C58.168 75.9131 86.8008 82.0034 116.522 91.7041C119.24 92.591 120 92.9131 125.857 95.0693C126.98 100.337 128.368 103.756 130.922 108.493C133.172 112.667 135.34 116.932 138.797 120.278C132.5 112.413 127.5 96.4131 128.19 92.4463C117.085 90.0019 105.699 84.0898 101.309 72.9463C100.706 71.4176 98.9369 65.7157 99.251 64.3701L99.4385 64.3135C101.849 67.1299 105.409 70.8009 108.085 73.4365C115.903 81.0968 124.851 87.511 134.616 92.4551C139.617 95.0417 144.632 97.3937 149.97 99.2051C150.466 99.3734 153.9 100.325 153.898 100.562C153.75 111.382 152.554 121.869 159.724 131.153C160.694 132.41 162.2 134.43 163.729 135.252C167.358 136.984 172.34 137.469 176.375 137.847C181.662 138.342 194.499 138.252 198.819 140.854C200.448 141.835 203 145.913 203 145.913C203 145.913 204.701 146.588 205.976 147.202C206.395 147.403 206.726 147.758 206.854 148.205C207.327 149.848 206.834 150.972 205.483 152.492C204.07 150.792 202.738 149.035 200.338 148.791C199.629 148.719 198.579 148.676 198.812 149.634C199.5 150.413 201.5 150.413 201.5 150.413C201.5 150.413 199.17 151.131 198.379 150.845C197.046 150.537 195.401 150.612 194.013 150.622C189.216 150.611 184.783 151.352 180.649 153.958C177.847 155.724 174.74 158.821 173.945 162.12C173.23 165.09 173.794 168.655 177.279 169.301C178.192 169.47 178.838 169.21 179.707 168.976C179.385 171.615 179.54 172.844 181.254 173.916C182.482 174.683 184.951 174.189 184.951 174.189C184.951 174.189 182.561 176.246 181.509 176.525C180.924 176.751 179.455 177.73 179.001 178.174L178.979 178.4L179.099 178.455C178.3 178.961 174.695 182.765 174.058 183.628C174.113 176.843 174.234 177.135 168.731 173.218C168 175.413 162.5 176.913 162.5 176.913C171 171.413 162.324 168.176 157.723 164.66C159 173.841 140.5 185.413 140.5 185.413C140.5 185.413 148 178.913 146 174.189C146 178.913 139.542 184.332 135 186.913C122.821 193.166 105 183.913 108 185.413C111 186.913 128 185.413 135.5 176.913C115 182.5 112.613 184.178 87 174.189C112.388 181.16 137.46 170.552 148.345 151.246C143 157.413 137.077 160.595 129.5 161.413C135.049 158.599 138.5 155.913 139.64 149.618C133.5 153.913 132.985 161.413 111 160.413C121 157.413 128.723 154.933 130.66 144.468C118 152.913 106.82 158.33 93.5 146.913C104.437 150.89 116 146.913 123.52 137.96C106.5 145.413 89.6381 145.544 75.5127 131.578C88.0912 135.957 101.565 137.905 112.388 128.504C96.4739 130.663 75.5328 129.584 64.5 116.221C72 119.413 78.4417 120.64 85.3867 120.262C91.2489 119.942 94.6691 118.594 99.9551 116.347C91.1763 116.463 82.8901 116.407 73.5 111.738C64.7249 107.375 54.8164 94.9854 54.8164 94.9854C54.8164 94.9854 79.7395 105.809 89.2783 104.376C77.5003 101.627 67.5228 97.9678 58.168 89.9111C53.4263 85.8274 47.8808 78.5152 46.2578 72.4746C53.4999 81.7006 66.2414 88.4129 78.6904 89.4668C68.487 86.9128 41.4535 72.6499 40.707 52.9551Z" fill="#1260B2"/>
<path d="M57.2417 71.9873C57.8208 72.1157 61.9844 74.2334 62.7206 74.5961C66.7213 76.5774 70.7465 78.5093 74.795 80.3914C88.2979 86.5061 102.777 91.5509 116.875 96.115C118.717 96.7112 120.689 97.4054 122.562 97.8198C122.705 98.4301 122.902 99.0423 123.098 99.636C128.617 116.39 140.819 129.186 156.818 136.366C158.888 137.294 161.01 138.076 163.026 139.085C155.095 138.61 147.691 134.762 141.399 130.162C139.555 128.814 137.734 127.661 136.182 125.961C135.465 126.753 134.676 127.554 133.813 128.186C127.989 132.448 118.85 138.685 111.383 137.769C112.898 137.273 114.504 137.152 116.13 136.448C120.403 134.596 124.963 131.904 128.631 129.059C130.636 127.504 132.382 125.764 134.434 124.261C132.435 122.451 129.892 119.841 128.034 117.841C125.558 119.811 120.458 122.008 117.424 123.154C111.982 125.168 105.721 126.441 99.9107 125.934C102.689 125.197 105.734 124.789 108.642 123.988C115.721 122.037 120.395 119.303 126.619 115.686C125.585 113.051 123.604 111.16 122.445 108.799C115.938 111.883 109.713 113.443 102.506 113.756C97.5096 113.973 92.8088 113.066 87.882 112.489C92.0685 111.823 96.6174 112.078 100.732 111.626C107.627 110.87 115.276 108.596 121.675 106.005C120.984 104.028 120.133 102.078 119.576 100.074C113.317 101.098 107.735 102.289 101.333 102.172C95.451 102.064 87.979 101.596 82.5998 98.9554C84.4321 99.1814 86.1791 99.6229 88.0594 99.721C97.0046 100.187 106.015 99.767 114.827 98.1819C112.885 97.7083 111.266 97.15 109.371 96.5112C93.4077 91.1289 77.0772 85.589 62.8915 76.3012C61.3635 75.3009 58.2236 73.3336 57.2417 71.9873Z" fill="white"/>
<path d="M197.473 143.002C198.897 143.172 200.38 143.683 200.851 145.209C199.105 145.409 197.681 144.885 197.473 143.002Z" fill="#E1E7EC"/>
<path d="M184.903 178.798C190.164 176.831 189.216 173.512 196.935 173.839C195.5 174.413 195.299 174.748 195.299 174.748C195.299 174.748 194.5 175.413 194.9 176.276C195.421 176.226 197.176 176.379 198 176.913C199.362 177.796 199.794 179.272 199.794 179.272C199.794 179.272 198.29 178.876 197 178.913C196.288 178.933 195.5 178.913 195.299 179.405C195.2 180.805 195 182.413 192.786 183.147C193.5 182.413 193.767 180.979 192.321 180.722C188.733 180.081 184.697 181.907 181.542 183.442C178.835 184.759 178.874 184.773 179.019 187.521C178.189 186.773 176.648 185.658 176.55 184.672C177.087 183.078 179.644 181.204 181.125 180.53C180.563 179.821 179.892 178.867 179.099 178.455L178.978 178.4L179.001 178.173C179.455 177.729 180.924 176.751 181.508 176.526C182.293 177.988 183.379 178.227 184.903 178.798Z" fill="#31B3ED"/>
</svg>
