<svg width="250" height="250" viewBox="0 0 250 250" fill="none" xmlns="http://www.w3.org/2000/svg">
<path d="M0 48C0 21.4903 21.4903 0 48 0H202C228.51 0 250 21.4903 250 48V202C250 228.51 228.51 250 202 250H48C21.4903 250 0 228.51 0 202V48Z" fill="#003C85"/>
<path d="M182.999 64.478C178.76 69.8615 174.593 75.1581 170.382 80.5126C149.243 64.8977 126.388 60.9759 102.35 71.9599C78.3562 82.9149 66.2581 102.683 64.2826 128.949C57.2747 128.949 50.2812 128.949 42.9993 128.949C42.8983 117.603 45.2055 106.808 49.6323 96.4893C57.0872 79.0799 68.9978 65.5489 85.3208 55.9977C117.404 37.2135 157.174 42.2351 182.999 64.478Z" fill="#EC2300"/>
<path d="M155.674 99.239C157.635 96.7499 159.582 94.2608 161.543 91.7716C147.888 80.2088 123.879 77.7197 106.446 86.4027C89.8342 94.666 78.9762 112.003 79.1637 128.949C82.3937 128.949 85.6237 128.949 88.8537 128.949C92.3576 93.0741 131.565 81.0337 155.674 99.239Z" fill="white"/>
<path d="M79.5963 141.265C81.7736 155.186 88.4066 166.445 99.7981 174.738C107.772 180.555 116.914 183.001 126.647 183.464C138.082 184.014 148.868 181.829 158.688 175.649C162.783 173.073 166.373 169.919 169.589 166.084C167.066 164.101 164.686 162.22 162.177 160.237C139.913 185.765 93.987 175.722 89.0411 138.573C85.7823 138.573 82.5234 138.573 79.2069 138.573C79.279 139.166 79.3223 139.586 79.38 140.02C79.4376 140.425 79.5242 140.845 79.5963 141.265Z" fill="white"/>
</svg>
