<svg width="250" height="250" viewBox="0 0 250 250" fill="none" xmlns="http://www.w3.org/2000/svg">
<rect width="250" height="250" fill="#003C85"/>
<path d="M183 64.4778C178.761 69.8613 174.594 75.1579 170.383 80.5124C149.244 64.8975 126.389 60.9757 102.351 71.9596C78.3571 82.9147 66.2591 102.683 64.2836 128.949C57.2757 128.949 50.2822 128.949 43.0002 128.949C42.8993 117.603 45.2064 106.807 49.6333 96.4891C57.0882 79.0797 68.9988 65.5487 85.3218 55.9974C117.405 37.2132 157.175 42.2349 183 64.4778Z" fill="#EC2300"/>
<path d="M155.675 99.2388C157.636 96.7496 159.583 94.2605 161.544 91.7714C147.889 80.2085 123.88 77.7194 106.447 86.4024C89.8352 94.6657 78.9772 112.003 79.1646 128.949C82.3946 128.949 85.6246 128.949 88.8546 128.949C92.3586 93.0738 131.566 81.0334 155.675 99.2388Z" fill="white"/>
<path d="M79.5972 141.264C81.7746 155.186 88.4076 166.445 99.7991 174.737C107.773 180.555 116.915 183.001 126.648 183.464C138.083 184.014 148.869 181.828 158.689 175.649C162.784 173.073 166.374 169.918 169.59 166.083C167.067 164.101 164.687 162.219 162.178 160.237C139.914 185.765 93.988 175.721 89.0421 138.573C85.7832 138.573 82.5244 138.573 79.2079 138.573C79.28 139.166 79.3233 139.586 79.3809 140.02C79.4386 140.425 79.5251 140.845 79.5972 141.264Z" fill="white"/>
</svg>
