<svg width="250" height="250" viewBox="0 0 250 250" fill="none" xmlns="http://www.w3.org/2000/svg">
<path d="M0 48C0 21.4903 21.4903 0 48 0H202C228.51 0 250 21.4903 250 48V202C250 228.51 228.51 250 202 250H48C21.4903 250 0 228.51 0 202V48Z" fill="#235025"/>
<path d="M184.697 90.1701C175.294 95.9895 166.427 101.573 157.418 106.92C156.457 107.495 154.441 107.054 153.284 106.417C145.125 101.95 137.014 97.3814 128.998 92.6551C126.8 91.3575 125.17 91.2396 122.942 92.6079C114.453 97.8218 105.861 102.87 97.2221 107.841C95.2927 108.949 94.4422 110.129 94.4895 112.441C94.6942 121.744 94.7494 131.047 94.7021 140.351C94.6864 142.71 95.3715 144.125 97.5292 145.321C105.782 149.89 113.956 154.616 122.068 159.437C124.028 160.601 125.485 160.522 127.399 159.374C136.061 154.199 144.794 149.135 153.583 144.173C154.599 143.598 156.481 143.331 157.347 143.889C165.946 149.402 174.412 155.119 183.476 161.151C182.035 162.063 181.019 162.74 179.972 163.361C162.694 173.537 145.377 183.658 128.155 193.936C125.808 195.336 124.131 195.36 121.76 193.976C104.105 183.666 86.3862 173.466 68.6045 163.369C66.2735 162.048 65.2891 160.679 65.3049 157.911C65.4309 136.419 65.4072 114.926 65.3285 93.4336C65.3206 91.1137 65.864 89.6589 68.006 88.3849C86.0397 77.6898 104.026 66.9003 121.949 56.0165C124.147 54.6796 125.69 54.6482 127.919 56.0008C145.401 66.5936 162.985 77.0371 180.531 87.5277C181.751 88.2748 182.941 89.0612 184.697 90.1701Z" fill="white"/>
</svg>
