<svg width="250" height="250" viewBox="0 0 250 250" fill="none" xmlns="http://www.w3.org/2000/svg">
<mask id="path-1-inside-1_769_151" fill="white">
<path d="M0 48C0 21.4903 21.4903 0 48 0H202C228.51 0 250 21.4903 250 48V202C250 228.51 228.51 250 202 250H48C21.4903 250 0 228.51 0 202V48Z"/>
</mask>
<path d="M0 48C0 21.4903 21.4903 0 48 0H202C228.51 0 250 21.4903 250 48V202C250 228.51 228.51 250 202 250H48C21.4903 250 0 228.51 0 202V48Z" fill="white"/>
<path d="M48 0V2H202V0V-2H48V0ZM250 48H248V202H250H252V48H250ZM202 250V248H48V250V252H202V250ZM0 202H2V48H0H-2V202H0ZM48 250V248C22.5949 248 2 227.405 2 202H0H-2C-2 229.614 20.3858 252 48 252V250ZM250 202H248C248 227.405 227.405 248 202 248V250V252C229.614 252 252 229.614 252 202H250ZM202 0V2C227.405 2 248 22.5949 248 48H250H252C252 20.3858 229.614 -2 202 -2V0ZM48 0V-2C20.3858 -2 -2 20.3858 -2 48H0H2C2 22.5949 22.5949 2 48 2V0Z" fill="#DDDBDB" mask="url(#path-1-inside-1_769_151)"/>
<path d="M120.535 54.3246C120.273 62.9251 118.771 71.2861 115.572 79.3054C110.256 92.6327 101.742 103.472 89.9145 111.69C81.9997 117.188 73.2866 120.867 63.8041 122.711C61.1172 123.235 58.4055 123.58 55.6774 123.814C55.0108 123.871 54.9882 123.672 55.0026 123.114C55.2536 113.118 57.4715 103.576 61.7529 94.5357C67.7132 81.9574 76.6176 71.9225 88.4599 64.5375C97.0001 59.2111 106.3 55.9146 116.325 54.6848C116.971 54.605 117.677 54.7175 118.272 54.3246C119.027 54.3246 119.782 54.3246 120.535 54.3246Z" fill="#174577"/>
<path d="M131.196 57.2036C130.884 56.2582 131.038 55.2862 131.026 54.3245C131.299 54.3245 131.575 54.3245 131.849 54.3245C131.857 54.3797 131.861 54.437 131.863 54.4943C131.587 54.9997 131.511 55.544 131.515 56.1129C131.519 56.4976 131.565 56.9171 131.196 57.2036Z" fill="#B1B2BB"/>
<path d="M131.193 57.2038C131.199 56.5019 131.246 55.798 131.197 55.1002C131.16 54.5559 131.464 54.5068 131.859 54.4945C140.986 55.401 149.586 58.0346 157.669 62.3338C164.625 66.0314 170.756 70.7971 176.089 76.5655C184.74 85.9231 190.415 96.8563 193.274 109.222C194.34 113.824 194.856 118.512 194.996 123.237C195.019 124.031 194.959 124.28 193.978 124.178C189.073 123.677 184.284 122.66 179.613 121.135C174.455 119.451 169.551 117.196 164.923 114.356C159.543 111.055 154.696 107.104 150.384 102.512C143.955 95.6694 139.079 87.8568 135.754 79.0927C133.359 72.782 131.865 66.2687 131.369 59.5345C131.316 58.759 131.252 57.9814 131.193 57.2038Z" fill="#A21D20"/>
<path d="M119.478 195.631C112.131 195.044 104.675 193.266 97.5297 190.176C88.6315 186.329 80.8977 180.851 74.2668 173.835C68.1172 167.327 63.4202 159.881 60.0728 151.598C57.8879 146.192 56.4642 140.579 55.6268 134.814C55.6021 134.647 55.6165 134.473 55.5815 134.307C55.4169 133.56 55.5445 133.247 56.4724 133.314C63.0499 133.806 69.4237 135.164 75.6123 137.444C81.0171 139.435 86.0844 142.054 90.8226 145.314C97.8342 150.137 103.782 156.022 108.679 162.965C112.966 169.042 116.182 175.641 118.41 182.715C119.675 186.734 120.535 190.849 121.083 195.026C121.169 195.707 121.103 195.732 119.478 195.631Z" fill="#FBAD19"/>
<path d="M194.398 134.266C194.007 137.581 193.343 140.845 192.454 144.057C190.382 151.541 187.216 158.541 182.819 164.958C173.612 178.394 161.26 187.698 145.683 192.703C141.679 193.988 137.569 194.829 133.386 195.331C132.8 195.4 132.641 195.343 132.73 194.694C134.456 181.85 139.256 170.27 147.249 160.041C154.092 151.281 162.57 144.518 172.658 139.744C179.192 136.652 186.047 134.704 193.199 133.718C194.367 133.554 194.425 133.579 194.398 134.266Z" fill="#00AF4D"/>
<path d="M94.95 130.92C94.9295 124.916 96.8552 119.461 99.645 114.231C101.999 109.817 105.227 106.205 109.43 103.474C114.532 100.159 120.153 98.6527 126.233 98.8941C131.87 99.1172 137.256 100.347 142.132 103.277C144.605 104.765 146.599 106.735 147.531 109.565C148.58 112.753 147.926 115.741 146.276 118.526C145.615 119.639 144.288 119.919 143.072 120.11C139.873 120.609 136.859 120.228 134.738 117.497C132.911 115.139 132.687 112.389 133.427 109.557C133.615 108.839 133.954 108.16 134.045 107.409C134.217 105.966 133.538 104.904 132.088 104.656C124.245 103.32 116.094 105.991 112.821 114.998C109.327 124.612 110.839 133.697 117.215 141.769C121.396 147.061 128.321 148.725 135.213 146.476C138.892 145.277 142.153 143.335 145.229 141.047C146.331 140.227 147.794 140.225 148.792 141.041C149.629 141.724 149.839 143.001 149.238 144.223C148.506 145.711 147.302 146.848 146.187 148.033C142.192 152.277 137.688 155.883 132.018 157.565C121.968 160.544 112.784 158.77 104.754 151.927C99.7396 147.654 96.5445 142.289 95.3492 135.788C95.0488 134.182 94.9541 132.555 94.95 130.92Z" fill="#252429"/>
<path d="M95.4333 131.37C95.3469 126.236 96.569 121.839 98.5009 117.595C99.7271 114.902 101.103 112.287 102.957 109.977C106.121 106.034 110.045 103.038 114.797 101.202C120.519 98.9924 126.385 98.8041 132.345 100.085C136.032 100.877 139.564 102.009 142.685 104.212C145.483 106.191 147.426 108.665 147.582 112.217C147.681 114.442 147.074 116.527 145.85 118.346C145.294 119.173 144.175 119.475 143.159 119.674C140.78 120.134 138.507 119.879 136.447 118.524C134.847 117.47 134.057 115.905 133.697 114.071C133.328 112.197 133.499 110.417 134.158 108.596C135.124 105.931 134.215 104.399 131.409 104.088C127.677 103.672 123.996 103.91 120.538 105.653C116.497 107.691 113.841 110.891 112.287 115.068C110.631 119.518 110.321 124.067 111.041 128.751C111.755 133.4 113.337 137.677 116.279 141.36C119.527 145.428 123.673 147.804 129.078 147.859C133.588 147.906 137.538 146.333 141.33 144.182C142.834 143.329 144.239 142.299 145.665 141.317C146.557 140.703 147.57 140.697 148.479 141.375C149.158 141.88 149.329 142.938 148.934 143.891C148.506 144.923 147.73 145.719 147 146.496C144.34 149.324 141.593 152.072 138.254 154.141C134.744 156.316 131.008 157.82 126.852 158.269C121.258 158.874 115.871 158.197 110.886 155.559C103.155 151.467 98.0421 145.24 95.9415 136.693C95.9003 136.529 95.888 136.359 95.8592 136.191C95.5588 134.452 95.314 132.709 95.4333 131.37Z" fill="#174577"/>
<path d="M135.954 152.496C130.002 155.029 123.871 156.394 117.382 155.187C110.214 153.853 104.954 149.846 101.66 143.46C97.2549 134.921 97.3269 126.2 101.417 117.577C104.046 112.033 108.266 107.902 113.735 105.051C113.959 104.984 114.014 105.084 113.967 105.285C110.33 108.962 107.165 112.985 104.993 117.701C102.193 123.783 101.152 130.1 103.075 136.623C105.534 144.96 111.284 150.028 119.588 152.289C124.661 153.671 129.793 153.489 134.907 152.375C135.171 152.318 135.448 152.322 135.72 152.3C135.95 152.185 135.973 152.314 135.954 152.496Z" fill="white"/>
<path d="M136.054 104.935C139.768 105.913 140.978 107.859 140.214 111.456C140.116 111.919 139.984 112.375 139.894 112.84C139.591 114.395 139.914 115.743 141.218 116.764C141.642 117.096 142.052 117.446 142.49 117.806C137.982 118.405 135.631 114.646 136.332 111.489C136.472 110.861 136.657 110.241 136.836 109.623C137.307 107.99 137.087 106.463 136.054 104.935Z" fill="#FEFEFF"/>
<path d="M113.966 105.283C113.888 105.205 113.812 105.127 113.734 105.049C113.874 104.855 114.178 104.677 114.277 104.804C114.481 105.064 114.143 105.162 113.966 105.283Z" fill="#B8CADA"/>
<path d="M135.954 152.496C135.876 152.431 135.798 152.365 135.72 152.3C135.87 152.238 136.014 152.158 136.171 152.121C136.282 152.095 136.407 152.126 136.572 152.134C136.397 152.398 136.175 152.447 135.954 152.496Z" fill="#E2E9EF"/>
</svg>
