<svg width="250" height="250" viewBox="0 0 250 250" fill="none" xmlns="http://www.w3.org/2000/svg">
<mask id="path-1-inside-1_769_155" fill="white">
<path d="M0 48C0 21.4903 21.4903 0 48 0H202C228.51 0 250 21.4903 250 48V202C250 228.51 228.51 250 202 250H48C21.4903 250 0 228.51 0 202V48Z"/>
</mask>
<path d="M0 48C0 21.4903 21.4903 0 48 0H202C228.51 0 250 21.4903 250 48V202C250 228.51 228.51 250 202 250H48C21.4903 250 0 228.51 0 202V48Z" fill="white"/>
<path d="M48 0V2H202V0V-2H48V0ZM250 48H248V202H250H252V48H250ZM202 250V248H48V250V252H202V250ZM0 202H2V48H0H-2V202H0ZM48 250V248C22.5949 248 2 227.405 2 202H0H-2C-2 229.614 20.3858 252 48 252V250ZM250 202H248C248 227.405 227.405 248 202 248V250V252C229.614 252 252 229.614 252 202H250ZM202 0V2C227.405 2 248 22.5949 248 48H250H252C252 20.3858 229.614 -2 202 -2V0ZM48 0V-2C20.3858 -2 -2 20.3858 -2 48H0H2C2 22.5949 22.5949 2 48 2V0Z" fill="#DDDBDB" mask="url(#path-1-inside-1_769_155)"/>
<path d="M138.009 57.2644C149.532 57.6983 162.762 64.3486 170.557 72.7455C177.258 79.9175 181.243 89.2055 181.823 99.0039C181.942 101.279 181.388 104.249 182.43 106.321C183.425 108.3 184.596 110.198 185.796 112.058C188.265 115.886 195.126 125.246 194.998 129.641C194.979 130.298 194.783 130.923 194.279 131.371C193.071 132.447 187.747 132.271 187.649 133.675C187.482 136.06 192.289 140.834 189.174 143.6C188.129 144.529 186.306 144.658 185.595 145.333C186.435 146.678 190.686 146.524 190.015 149.59C189.392 152.426 186.492 154.357 185.933 157.238C185.538 159.276 186.641 161.462 187.195 163.393C188.177 166.804 188.667 171.226 185.15 173.38C178.565 177.415 168.292 169.886 158.313 177.817C155.14 180.339 152.976 183.569 150.383 186.604C151.884 186.686 153.862 187.033 155.399 187.254L163.904 188.467L189.894 192.096L189.5 192.339L189.514 192.492L190.01 192.615L155.851 192.632C148.92 192.63 141.523 192.509 134.628 192.697C135.674 187.714 137.479 182.866 140.467 178.702C142.596 175.737 145.553 172.813 149.284 172.117C151.154 171.766 153.122 171.829 155.018 171.817C159.151 171.791 163.494 171.922 167.581 171.237C170.237 170.791 173.011 169.926 174.632 167.619C178.393 162.264 173.019 156.741 174.08 153.276C174.959 150.397 178.475 148.119 177.882 144.834C177.686 143.754 177.042 142.864 176.154 142.242C179.452 138.633 177.627 135.603 175.901 131.786C176.986 131.672 179.113 131.448 180.005 130.986C180.965 130.494 181.691 129.64 182.022 128.613C183.473 123.984 175.94 113.328 173.384 109.184C169.596 103.043 170.093 103.68 170.221 96.6281C170.297 90.5061 168.887 84.4571 166.114 78.9991C160.209 67.5178 150.008 61.5908 138.175 57.8078L138.714 57.6266L138.734 57.5141L138.009 57.2644Z" fill="#676765"/>
<path d="M86.9432 79.27C87.0477 79.4434 87.1408 79.5895 87.2304 79.7722C87.0177 80.128 85.2572 82.1284 84.8274 82.6964C83.0463 85.0807 81.5233 87.6472 80.2839 90.3529C74.1988 103.387 76.6081 120.37 83.4925 132.637C86.0592 137.211 89.1733 141.05 92.7064 144.924C96.4181 148.993 102.461 152.152 104.458 157.487C105.935 161.637 104.699 166.725 103.27 170.716C100.653 178.027 97.7917 185.672 94.4501 192.685C81.3457 192.552 68.105 192.823 55.0001 192.705C57.8139 191.937 60.8043 191.508 63.6563 190.882C69.8972 189.512 76.2598 188.365 82.4812 186.939C84.8182 176.59 87.3234 163.5 87.9463 153.007C89.1583 154.491 92.6571 158.578 93.9963 159.477C93.5856 158.534 92.923 157.569 92.3887 156.668C90.1649 152.916 87.4916 149.64 85.0299 146.008C76.9742 134.125 70.5145 118.779 72.247 104.205C73.4258 94.288 79.076 85.268 86.9432 79.27Z" fill="#2CB2E3"/>
<path d="M72.2718 89.7252C73.6348 86.3426 75.2481 82.9158 77.299 79.8784C91.2133 59.271 119.704 53.0692 142.178 61.972C151.722 65.7529 159.822 72.5794 163.879 82.1245C165.967 87.1257 166.936 92.5235 166.716 97.9388C166.662 99.2445 166.196 102.353 166.548 103.471C167.295 105.695 168.744 107.759 169.938 109.765C172.807 114.587 176.233 119.239 178.233 124.513C178.889 126.241 179.41 128.529 177.28 129.32C175.77 129.881 173.303 129.415 172.289 130.797C172.068 131.2 172.168 131.712 172.33 132.114C173.152 134.16 175.199 137.007 174.381 139.294C173.75 141.055 171.315 141.508 169.728 141.859C170.373 142.242 171.355 142.763 172.031 143.018C175.071 144.166 174.888 145.909 173.29 148.391C172.111 150.285 169.905 152.64 170.449 155.054C171.117 158.006 173.709 163.557 171.656 166.332C168.741 170.27 158.666 169.758 154.257 169.799C148.667 169.851 144.69 169.58 140.466 173.757C139.368 174.81 138.239 175.993 137.373 177.282C136.437 178.677 135.847 180.561 135.155 182.077C133.753 185.147 132.088 189.815 130.44 192.673C128.804 192.67 126.681 192.624 125.081 192.725C126.871 189.314 128.628 185.886 130.351 182.44C133.895 175.464 136.027 170.412 144.207 168.037C146.538 167.36 148.697 167.095 151.119 166.983C154.646 166.624 165.986 167.743 167.933 164.425C169.386 161.95 166.042 156.251 166.241 153.48C166.424 150.921 171.369 148.299 170.771 145.876C170.397 144.361 166.365 143.05 164.838 141.799C166.785 140.471 170.156 140.177 170.776 137.367C171.056 136.097 170.211 134.707 169.542 133.701C169.081 132.715 165.612 129.793 167.421 128.781C169.04 127.875 173.793 128.164 174.332 125.92C174.791 124.016 172.005 119.486 171.103 117.947C168.443 113.412 165.202 109.164 163.169 104.315C162.452 102.017 162.887 99.505 162.773 97.1341C161.092 61.7638 117.474 54.7368 91.992 69.4871C83.2052 74.5733 77.1801 80.6578 72.6806 89.8063L72.2718 89.7252Z" fill="#2DAFDF"/>
</svg>
