<svg width="250" height="250" viewBox="0 0 250 250" fill="none" xmlns="http://www.w3.org/2000/svg">
<mask id="path-1-inside-1_769_157" fill="white">
<path d="M0 48C0 21.4903 21.4903 0 48 0H202C228.51 0 250 21.4903 250 48V202C250 228.51 228.51 250 202 250H48C21.4903 250 0 228.51 0 202V48Z"/>
</mask>
<path d="M0 48C0 21.4903 21.4903 0 48 0H202C228.51 0 250 21.4903 250 48V202C250 228.51 228.51 250 202 250H48C21.4903 250 0 228.51 0 202V48Z" fill="white"/>
<path d="M48 0V2H202V0V-2H48V0ZM250 48H248V202H250H252V48H250ZM202 250V248H48V250V252H202V250ZM0 202H2V48H0H-2V202H0ZM48 250V248C22.5949 248 2 227.405 2 202H0H-2C-2 229.614 20.3858 252 48 252V250ZM250 202H248C248 227.405 227.405 248 202 248V250V252C229.614 252 252 229.614 252 202H250ZM202 0V2C227.405 2 248 22.5949 248 48H250H252C252 20.3858 229.614 -2 202 -2V0ZM48 0V-2C20.3858 -2 -2 20.3858 -2 48H0H2C2 22.5949 22.5949 2 48 2V0Z" fill="#DDDBDB" mask="url(#path-1-inside-1_769_157)"/>
<path fill-rule="evenodd" clip-rule="evenodd" d="M75.6172 184.071C75.6172 187.345 78.2716 190 81.546 190H125.637C138.84 190 150.287 187.418 159.978 182.256C169.668 177.051 177.158 169.603 182.448 159.912C187.738 150.179 190.383 138.542 190.383 125C190.383 111.458 187.717 99.8421 182.385 90.1514C177.095 80.4183 169.562 72.9704 159.787 67.8076C150.054 62.6025 138.501 60 125.129 60H81.546C78.2716 60 75.6172 62.6544 75.6172 65.9288V102.472C75.6172 105.746 78.2716 108.4 81.546 108.4H101.964C104.893 108.4 107.268 106.025 107.268 103.096C107.268 98.6544 112.401 96.1796 115.876 98.9454L142.416 120.066C145.399 122.44 145.399 126.971 142.416 129.344L115.876 150.466C112.401 153.231 107.268 150.757 107.268 146.315C107.268 143.385 104.893 141.011 101.964 141.011H81.546C78.2716 141.011 75.6172 143.665 75.6172 146.939V184.071Z" fill="#0040F7"/>
</svg>
