<svg width="250" height="250" viewBox="0 0 250 250" fill="none" xmlns="http://www.w3.org/2000/svg">
<mask id="path-1-inside-1_769_158" fill="white">
<path d="M0 48C0 21.4903 21.4903 0 48 0H202C228.51 0 250 21.4903 250 48V202C250 228.51 228.51 250 202 250H48C21.4903 250 0 228.51 0 202V48Z"/>
</mask>
<path d="M0 48C0 21.4903 21.4903 0 48 0H202C228.51 0 250 21.4903 250 48V202C250 228.51 228.51 250 202 250H48C21.4903 250 0 228.51 0 202V48Z" fill="white"/>
<path d="M48 0V2H202V0V-2H48V0ZM250 48H248V202H250H252V48H250ZM202 250V248H48V250V252H202V250ZM0 202H2V48H0H-2V202H0ZM48 250V248C22.5949 248 2 227.405 2 202H0H-2C-2 229.614 20.3858 252 48 252V250ZM250 202H248C248 227.405 227.405 248 202 248V250V252C229.614 252 252 229.614 252 202H250ZM202 0V2C227.405 2 248 22.5949 248 48H250H252C252 20.3858 229.614 -2 202 -2V0ZM48 0V-2C20.3858 -2 -2 20.3858 -2 48H0H2C2 22.5949 22.5949 2 48 2V0Z" fill="#DDDBDB" mask="url(#path-1-inside-1_769_158)"/>
<path d="M72.645 65.6185C75.8068 65.4985 79.5681 65.5982 82.7909 65.5982L123.416 65.5927C124.892 65.5897 126.974 65.3934 128.253 66.1198C129.135 66.626 129.773 67.4674 130.023 68.4521C130.546 70.4838 129.029 72.3101 128.026 74.0083L111.037 102.756C110.729 103.321 110.379 103.892 110.047 104.448C107.603 108.537 105.237 112.676 102.752 116.739C102.243 117.572 101.296 118.153 100.344 118.327C99.325 118.517 98.2725 118.288 97.4242 117.692C96.9696 117.37 96.566 116.857 96.2815 116.381C94.9357 114.131 93.6077 111.857 92.2752 109.6L74.3823 79.3087C72.8295 76.6798 71.25 74.059 69.7126 71.422C68.1969 68.8221 69.7229 66.0283 72.645 65.6185ZM99.6504 99.8147C101.03 97.2627 103.091 93.8488 104.626 91.3399C107.433 86.5716 110.273 81.6407 113.146 76.9255L86.1011 76.9207C86.7828 77.9149 87.5928 79.3806 88.2225 80.4463L97.0466 95.3936C97.8718 96.7915 98.8816 98.405 99.6504 99.8147Z" fill="#501B63"/>
<path d="M152.697 61.8821C152.835 61.8699 152.976 61.8613 153.115 61.8562C155.404 61.7823 156.321 63.2532 157.319 65.0322C157.893 66.0588 158.543 67.1119 159.142 68.1299L180.994 105.126C181.843 106.554 183.753 109.269 183.77 110.826C183.772 111.84 183.368 112.812 182.648 113.526C181.25 114.915 179.426 114.631 177.604 114.631L135.265 114.626L129.478 114.633C128.482 114.634 127.034 114.675 126.078 114.581C125.493 114.522 124.931 114.324 124.438 114.005C122.928 113.044 122.276 110.858 123.122 109.278C123.568 108.445 124.025 107.661 124.506 106.849L148.206 66.7292C148.795 65.7317 149.378 64.7275 149.983 63.7389C150.681 62.5975 151.429 62.1506 152.697 61.8821ZM139.75 103.316L153.325 103.319C157.721 103.318 162.385 103.234 166.758 103.322L154.69 82.8778C154.382 82.356 153.582 80.9241 153.238 80.4715L144.947 94.5321C143.263 97.3851 141.491 100.52 139.75 103.316Z" fill="#501B63"/>
<path d="M67.8456 133.449C69.5356 133.302 72.9046 133.406 74.7036 133.406L100.605 133.403C102.699 133.403 104.928 133.356 107.016 133.462C108.02 133.512 109.32 134.08 110.147 134.655C111.644 135.69 112.658 137.288 112.957 139.084C113.637 143.099 110.972 146.402 107.033 147.048C106.52 147.118 105.439 147.093 104.889 147.092L101.369 147.087L70.3098 147.092C69.6178 147.092 68.4244 147.119 67.7649 147.046C66.5503 146.904 65.3964 146.438 64.4256 145.694C62.9698 144.588 62.0184 142.945 61.7844 141.131C61.5487 139.317 62.0489 137.484 63.1734 136.041C64.3599 134.516 65.9512 133.695 67.8456 133.449Z" fill="#501B63"/>
<path d="M67.9769 153.946C68.6383 153.878 69.7415 153.906 70.4309 153.908L74.3167 153.916L104.392 153.91C106.667 153.91 108.3 153.817 110.255 155.236C111.732 156.307 112.715 157.928 112.98 159.733C113.257 161.566 112.784 163.432 111.667 164.91C110.453 166.515 108.829 167.295 106.878 167.576C104.164 167.677 100.947 167.595 98.2054 167.595L72.3702 167.597C71.2641 167.597 68.6144 167.666 67.6548 167.543C66.465 167.382 65.3388 166.909 64.3902 166.174C62.9346 165.05 61.992 163.389 61.7746 161.564C61.5587 159.74 62.0845 157.905 63.2341 156.472C64.4478 154.952 66.0671 154.158 67.9769 153.946Z" fill="#501B63"/>
<path d="M150.347 147.542C150.33 146.038 150.324 144.534 150.329 143.029C150.328 140.135 150.079 137.843 152.279 135.549C153.574 134.205 155.353 133.435 157.219 133.412C159.099 133.378 160.914 134.098 162.259 135.411C163.626 136.736 164.374 138.608 164.348 140.495C164.328 141.998 164.379 143.575 164.335 145.073L168.941 144.249C170.444 143.978 172.483 143.506 173.942 143.653C175.094 143.78 176.195 144.198 177.141 144.866C178.665 145.924 179.696 147.555 179.998 149.385C180.299 151.177 179.872 153.014 178.813 154.49C178.127 155.44 177.203 156.192 176.133 156.671C174.908 157.218 172.501 157.548 171.1 157.795L164.333 158.993C164.391 164.205 164.344 169.489 164.344 174.707L164.348 179.078C164.348 180.106 164.399 181.56 164.204 182.528C163.942 183.833 163.312 185.034 162.389 185.99C161.514 186.895 160.416 187.5 159.22 187.858C158.888 187.958 158.456 188.043 158.158 188.146H156.5C154.849 187.689 153.663 187.349 152.41 186.103C150.287 183.99 150.327 181.981 150.332 179.231L150.338 161.473L143.356 162.714L143.353 175.351L143.361 179.443C143.364 180.18 143.392 181.221 143.313 181.928C143.212 182.839 142.932 183.721 142.489 184.523C141.204 186.836 139.546 187.479 137.181 188.146H135.526C133.217 187.52 131.554 186.825 130.286 184.615C129.814 183.794 129.511 182.886 129.396 181.945C129.306 181.221 129.333 180.157 129.334 179.401L129.339 175.477C129.343 172.201 129.25 168.429 129.352 165.198C126.55 165.718 124.401 166.265 121.819 164.513C120.288 163.46 119.244 161.837 118.92 160.008C118.609 158.217 119.025 156.376 120.077 154.893C120.895 153.737 122.279 152.673 123.655 152.338C125.505 151.888 127.479 151.623 129.351 151.271L129.336 144.22C129.336 141.029 128.884 138.038 131.305 135.532C132.606 134.201 134.381 133.439 136.241 133.413C138.141 133.379 139.973 134.115 141.323 135.452C142.191 136.317 142.814 137.397 143.126 138.582C143.461 139.881 143.362 142.008 143.361 143.397L143.357 148.804C145.666 148.338 148.053 148.007 150.347 147.542Z" fill="#501B63"/>
<path d="M67.7576 188.146C65.5047 187.529 63.8257 186.789 62.5957 184.617C61.7111 183.032 61.4905 181.162 61.9823 179.415C62.4772 177.652 63.6582 176.16 65.2612 175.274C66.1043 174.81 67.0364 174.529 67.9957 174.451C69.644 174.331 72.5011 174.417 74.2371 174.417L103.607 174.418C104.963 174.418 106.826 174.322 108.093 174.69C109.853 175.194 111.339 176.378 112.222 177.981C113.129 179.637 113.292 181.447 112.762 183.25C112.256 184.988 111.064 186.444 109.46 187.284C108.388 187.858 108.01 187.807 107.03 188.146H67.7576Z" fill="#501B63"/>
<path d="M179.672 188.146C176.573 187.404 174.414 186.556 172.628 183.665C171.374 181.64 170.99 179.194 171.562 176.882C172.148 174.487 173.679 172.43 175.805 171.18C177.984 169.901 180.579 169.533 183.026 170.159C185.439 170.78 187.507 172.33 188.782 174.47C189.988 176.548 190.314 179.021 189.688 181.34C189.048 183.671 187.508 185.652 185.408 186.847C184.511 187.351 183.853 187.644 182.849 187.854C182.621 187.901 181.791 188.081 181.628 188.146H179.672Z" fill="#501B63"/>
<path d="M59.9995 104.943C60.6702 102.062 61.7252 99.9497 64.3442 98.337C66.5028 97.0227 69.0942 96.6173 71.5509 97.2097C73.9888 97.7863 76.0944 99.315 77.3978 101.454C78.6331 103.514 78.9899 105.984 78.3885 108.309C77.7644 110.702 76.1951 112.739 74.0404 113.953C71.8419 115.2 69.2391 115.525 66.8013 114.858C63.6686 113.999 61.1117 111.544 60.2963 108.399C60.2004 108.029 60.1125 107.597 59.9995 107.241V104.943Z" fill="#501B63"/>
</svg>
