<svg width="250" height="250" viewBox="0 0 250 250" fill="none" xmlns="http://www.w3.org/2000/svg">
<mask id="path-1-inside-1_769_161" fill="white">
<path d="M0 48C0 21.4903 21.4903 0 48 0H202C228.51 0 250 21.4903 250 48V202C250 228.51 228.51 250 202 250H48C21.4903 250 0 228.51 0 202V48Z"/>
</mask>
<path d="M0 48C0 21.4903 21.4903 0 48 0H202C228.51 0 250 21.4903 250 48V202C250 228.51 228.51 250 202 250H48C21.4903 250 0 228.51 0 202V48Z" fill="white"/>
<path d="M48 0V2H202V0V-2H48V0ZM250 48H248V202H250H252V48H250ZM202 250V248H48V250V252H202V250ZM0 202H2V48H0H-2V202H0ZM48 250V248C22.5949 248 2 227.405 2 202H0H-2C-2 229.614 20.3858 252 48 252V250ZM250 202H248C248 227.405 227.405 248 202 248V250V252C229.614 252 252 229.614 252 202H250ZM202 0V2C227.405 2 248 22.5949 248 48H250H252C252 20.3858 229.614 -2 202 -2V0ZM48 0V-2C20.3858 -2 -2 20.3858 -2 48H0H2C2 22.5949 22.5949 2 48 2V0Z" fill="#DDDBDB" mask="url(#path-1-inside-1_769_161)"/>
<path d="M125.37 55.0071C127.31 54.8527 128.31 57.3314 129.462 58.596C132.009 61.3908 134.003 64.5904 135.661 67.9759C136.236 69.1515 137 70.2768 137.42 71.5333C138.624 75.3047 139.334 79.2421 139.246 83.2133C139.219 84.4933 139.11 85.8611 138.898 87.1191C138.826 87.6929 138.425 88.5458 138.369 89.0864C138.126 91.4412 137.498 93.4876 136.439 95.6029C136.191 96.0969 135.948 96.9094 135.543 97.3082C134.847 97.5967 133.574 97.4339 132.846 97.277C130.788 96.8337 128.842 96.6216 126.744 96.4806C124.557 96.3386 122.119 96.5588 119.928 96.7203C118.958 96.8515 117.945 96.8655 116.979 96.9813C115.395 97.1713 114.83 95.7609 114.357 94.423C112.405 88.9783 111.804 83.1408 112.608 77.4127C112.885 75.353 113.302 73.0711 114.152 71.1535C116.185 66.5666 118.582 62.0455 121.934 58.2764C123.029 57.0451 123.709 55.5873 125.37 55.0071Z" fill="#F9BF12"/>
<path d="M94.2664 130.159C97.3744 129.762 96.4442 131.678 97.3746 133.548C98.3562 135.522 99.0123 136.858 99.6429 139.025C99.8622 139.778 101.941 142.363 102.534 143.107C103.118 143.841 106.427 146.828 106.339 147.586C106.016 150.348 100.318 154.879 98.1578 156.142C96.5965 156.975 95.0109 157.932 93.423 158.708C87.9333 161.393 82.1361 161.858 76.144 162.034C73.947 162.062 65.4825 161.912 64.0491 160.799C63.8489 160.643 63.765 160.401 63.7416 160.156C63.6644 159.351 63.9714 158.307 64.2488 157.553C64.4252 157.073 64.6678 156.624 64.879 156.16C65.5784 154.62 66.3377 153.172 67.1299 151.681C68.0928 149.871 68.9942 148.071 70.1016 146.337C70.8511 145.164 71.7277 143.998 72.5896 142.904C74.7596 140.149 76.9583 138.21 79.7358 136.096C80.6062 135.434 81.4621 134.746 82.4034 134.185C82.9843 133.838 83.625 133.605 84.2339 133.313C87.5038 131.746 90.6465 130.591 94.2664 130.159Z" fill="#F9BF12"/>
<path d="M154.013 130.291C157.931 129.943 165.414 133.032 168.655 135.3C169.306 135.755 169.887 136.306 170.506 136.803C171.903 137.923 173.365 138.964 174.57 140.307C175.311 141.132 175.927 142.109 176.59 142.999C177.745 144.553 178.911 146.087 179.942 147.729C180.706 148.946 181.317 150.231 181.972 151.508C182.617 152.762 183.338 153.989 183.924 155.272C184.244 155.974 184.491 156.711 184.783 157.425C185.12 158.25 185.659 159.121 185.799 159.999C185.839 160.248 185.843 160.499 185.673 160.704C184.752 161.813 176.285 161.962 174.53 162.024C169.912 162.145 164.399 161.729 159.979 160.363C158.802 160 157.233 159.245 156.076 158.777C151.764 157.03 148.349 154.416 145.167 151.058C144.339 150.178 143.347 149.353 142.859 148.221C142.444 147.256 143.564 146.801 144.146 146.302C148.885 142.236 151.596 136.905 153.065 130.913C153.152 130.557 153.715 130.385 154.013 130.291Z" fill="#F9BF12"/>
<path d="M74.6319 88.8038C78.0201 88.4999 83.0449 89.1947 86.3659 89.9015C87.2888 90.0623 88.4332 90.5959 89.3161 90.7542C92.0688 91.2477 94.18 92.4624 96.4691 94.0006C97.0798 94.411 97.9951 94.598 98.6264 95.125C99.2422 95.6392 99.8034 96.1951 100.382 96.7548C101.764 98.0388 105.526 100.825 105.801 102.685C105.907 103.398 103.063 106.169 102.466 106.932C101.638 107.988 100.174 109.689 99.6378 110.948C99.2486 111.861 99.0778 112.993 98.5713 113.989C98.3404 114.442 97.6031 115.475 97.5025 115.843C97.1178 117.249 97.0542 119.441 96.2164 120.681C96.0922 120.865 95.3406 120.843 95.082 120.844C88.7823 120.499 83.2158 117.614 78.2511 113.887C76.3025 112.425 75.6122 111.42 74.0319 109.686C72.1328 107.728 70.5744 105.794 69.3405 103.327C67.7266 100.101 65.4971 96.4411 64.2568 93.07C64.0353 92.4506 63.8808 91.8093 63.7959 91.1569C63.7523 90.7993 63.7243 90.3791 63.9802 90.0909C64.8263 89.138 72.8877 88.9935 74.6319 88.8038Z" fill="#F9BF12"/>
<path d="M129.95 153.224C131.025 153.017 132.098 152.678 133.141 152.421C135.506 151.838 135.962 151.094 136.913 153.611C139.107 159.424 140.063 165.974 138.359 172.039C137.931 173.561 137.751 175.311 137.13 176.828C135.283 181.799 132.856 186.295 129.529 190.434C129.037 191.008 126.65 195.269 125.826 194.987C124.091 194.393 122.521 191.536 121.433 190.079C115.786 182.518 111.895 173.571 112.438 163.963C112.689 159.515 113.079 157.226 114.649 152.886C114.99 152.658 115.09 152.613 115.473 152.459C116.944 152.646 118.462 153.168 119.577 153.273C122.375 153.673 127.035 153.483 129.95 153.224Z" fill="#F9BF12"/>
<path d="M170.456 88.952C173.303 88.8887 176.177 88.9276 179.018 89.1935C181.024 89.3931 183.22 89.2973 185.119 90.02C186.258 90.4533 185.497 91.0939 185.291 91.9685C184.724 94.3653 183.561 96.5118 182.444 98.6847C182.026 99.4989 181.683 100.364 181.254 101.176C179.801 103.782 178.16 106.351 176.16 108.576C175.2 109.652 174.302 110.984 173.263 112.003C172.449 112.802 171.395 113.567 170.482 114.26C169.484 114.945 168.474 115.833 167.423 116.43C166.011 117.233 164.379 118.031 162.908 118.725C161.466 119.405 159.764 119.885 158.261 120.372C157.272 120.617 156.082 120.67 155.067 120.848C154.534 120.941 154.015 120.941 153.535 120.66C152.805 119.554 152.301 116.566 151.81 115.06C150.606 111.37 148.723 108.879 146.406 105.847C146.093 105.443 145.753 105.059 145.391 104.698C145.014 104.326 143.292 102.961 143.417 102.487C143.689 101.454 145.031 100.505 145.726 99.7046C147.203 98.0044 148.913 96.2617 150.852 95.0927C151.355 94.7969 151.846 94.5062 152.33 94.1782C156.01 91.6864 160.422 90.1571 164.781 89.4061C165.545 89.2745 166.316 89.2908 167.079 89.2123C168.215 89.0956 169.315 88.9922 170.456 88.952Z" fill="#F9BF12"/>
<path d="M91.1645 64.1609C95.0661 64.3061 100.022 66.7322 103.617 68.287C104.43 68.639 105.287 69.5618 106.032 70.0504C107.809 71.2163 110.046 72.5682 110.937 74.5788C111.28 75.3636 111.002 76.9631 110.904 77.8838C110.799 78.8964 110.721 79.9116 110.671 80.9284C110.506 84.1386 110.858 88.6896 111.519 91.8557C111.708 92.7626 112.364 93.8313 112.624 94.6104C112.919 95.4957 113.85 97.0881 113.485 97.8659C113.022 98.8536 110.733 99.9845 109.746 100.371C108.751 100.759 108.045 101.546 107.025 100.708C106.08 99.931 105.591 98.9439 104.854 98.0237C104.418 97.4838 103.419 96.8804 103.003 96.3938C99.4692 92.2554 94.4066 91.1484 89.9448 88.6469C87.7929 87.4405 87.4094 78.581 87.6774 76.2838C87.9552 73.904 88.4898 64.4653 91.1645 64.1609Z" fill="#F9BF12"/>
<path d="M108.074 149.122C109.126 149.053 112.543 150.774 112.846 151.883C113.096 152.799 111.852 154.959 111.649 155.965C111.509 156.666 111.406 157.423 111.3 158.138C110.956 160.236 110.485 162.331 110.549 164.47C110.537 164.854 110.569 165.251 110.555 165.634C110.439 168.711 111.287 171.713 111.228 174.778C111.219 175.268 110.877 176.095 110.645 176.52C110.372 177.026 110.027 177.49 109.62 177.897C108.91 178.601 107.867 179.266 107.041 179.868C106.119 180.522 105.24 181.29 104.274 181.874C103.491 182.384 102.474 182.688 101.686 183.15C99.8305 184.238 98.3865 184.834 96.3162 185.42L93.0719 186.349C91.9364 186.59 90.7046 186.864 90.0157 185.688C89.1996 184.295 88.941 182.78 88.6373 181.223C87.5738 175.77 87.2195 170.214 88.3577 164.739C88.794 162.337 90.4405 162.074 92.3995 161.172C96.4994 159.284 100.512 157.122 103.789 153.955C105.158 152.632 106.402 150.169 108.074 149.122Z" fill="#F9BF12"/>
<path d="M160.172 64.0867C160.477 64.0718 160.838 64.0346 161.133 64.1319C161.502 64.2535 161.714 64.6042 161.868 64.9382C162.584 66.4927 163.337 70.1647 163.557 71.9296C163.992 75.4186 164.29 82.9169 163.135 86.1223C162.891 86.8016 162.52 87.6846 161.894 88.1014C160.881 88.7762 159.203 88.9956 158.035 89.3931C154.568 90.5727 150.493 92.5847 147.696 94.9604C147.047 95.5116 146.506 96.1757 145.896 96.7677C145.209 97.435 144.462 98.0444 143.787 98.7248C143.243 99.2749 142.431 100.686 141.725 100.934C141.372 101.058 140.996 100.841 140.684 100.693C140.29 100.502 137.89 99.2874 137.697 99.0875C136.433 97.7763 139.38 94.632 139.523 93.0749C139.71 91.8928 140.137 90.6078 140.368 89.4573C141.253 85.0411 141.238 80.8047 140.502 76.3666C140.18 74.4212 140.845 73.976 142.122 72.7099C146.22 68.6427 151.584 66.226 157.102 64.7357C157.969 64.5012 159.293 64.1373 160.172 64.0867Z" fill="#F9BF12"/>
<path d="M176.006 112.441C178.745 112.259 183.844 115.194 186.243 116.522C187.984 117.605 189.489 118.998 191.072 120.32C192.407 121.433 194.213 122.659 194.796 124.392C194.991 124.972 194.524 125.809 194.224 126.313C193.042 128.298 191.039 129.801 189.252 131.222C188.767 131.603 187.543 132.635 187.081 132.89C184.178 134.488 181.185 136.194 177.956 137.028C175.979 137.538 175.096 137.721 173.318 136.66C172.701 136.165 171.618 135.503 170.92 134.995C170.25 134.507 169.207 133.62 168.565 133.231C165.834 131.588 162.983 130.333 159.9 129.488C159.069 129.261 154.241 128.558 153.954 127.966C153.636 127.307 153.599 123.844 153.873 123.11C154.551 122.377 159.491 121.898 160.88 121.429C163.08 120.717 165.3 119.992 167.26 118.725C169.378 117.336 171.319 115.718 173.406 114.277C174.306 113.656 174.784 112.697 176.006 112.441Z" fill="#F9BF12"/>
<path d="M140.856 149.209C140.931 149.211 141.004 149.217 141.078 149.229C142.043 149.371 145.196 153.64 146.091 154.605C148.683 157.4 153.665 160.245 157.202 161.507C158.591 162.002 160.129 162.177 161.469 162.775C162.044 163.032 162.519 163.362 162.88 163.89C164.364 166.059 163.93 176.915 163.441 179.633C163.181 181.078 162.297 185.913 161.138 186.638C160.827 186.832 160.513 186.719 160.182 186.648C153.575 185.471 144.329 181.595 140.372 175.719C139.403 174.281 140.684 170.644 140.887 168.956C141.384 164.817 140.881 160.691 139.878 156.651C139.719 156.008 139.521 155.374 139.282 154.755C138.841 153.588 138.002 152.087 138.175 150.811C138.269 150.116 140.236 149.424 140.856 149.209Z" fill="#F9BF12"/>
<path d="M55.1572 123.52L55.2264 123.462C55.7925 122.977 56.304 122.429 56.8515 121.927C57.3164 121.501 57.9096 121.115 58.3555 120.683C61.7219 117.421 65.8606 114.837 70.2718 113.252C71.3356 112.945 72.4362 112.523 73.5576 112.568C74.6931 112.614 75.3064 114.069 76.0745 114.573C77.9938 115.832 80.0347 117.502 81.9502 118.685C84.4267 120.215 87.5431 121.228 90.3587 121.859C91.6677 122.131 95.0091 122.4 96.0003 122.915C96.6382 123.983 96.8978 127.289 95.6333 127.954C94.5357 128.532 93.1244 128.646 91.9103 128.856C90.8279 129.135 89.5018 129.296 88.4747 129.629C87.0936 130.078 85.3595 130.831 84.0168 131.396C82.5922 131.994 81.0639 132.984 79.7585 133.792C78.3629 134.665 76.4487 136.715 74.9986 137.16C72.8915 137.806 69.1791 136.223 67.3264 135.353C64.0683 133.822 61.0917 132.13 58.5529 129.561C56.9367 127.979 56.4744 127.651 55.1572 125.669V123.52Z" fill="#F9BF12"/>
<path d="M119.068 101.028C121.975 100.147 127.42 100.261 130.388 100.951C130.96 101.164 131.549 101.192 132.115 101.364C132.74 101.554 133.423 101.854 134.033 102.087C138.612 103.837 142.34 107.023 145.156 110.999C145.946 112.116 146.567 113.627 147.218 114.843C148.235 117.025 149.035 119.864 149.27 122.262C149.361 123.19 149.307 124.565 149.332 125.541C149.357 126.51 149.367 127.954 149.238 128.891C149.101 129.886 148.696 131.039 148.483 132.062C147.943 133.503 147.261 135.455 146.517 136.753C144.888 140.032 141.46 143.504 138.344 145.458C136.904 146.361 135.435 147.211 133.83 147.786C132.304 148.355 130.867 148.811 129.284 149.191L128.803 149.281C128.214 149.41 127.449 149.454 126.834 149.496C121.852 149.844 117.451 148.899 113.113 146.453C93.615 135.461 97.2183 107.044 119.068 101.028Z" fill="#980629"/>
</svg>
