<svg width="250" height="250" viewBox="0 0 250 250" fill="none" xmlns="http://www.w3.org/2000/svg">
<mask id="path-1-inside-1_769_166" fill="white">
<path d="M0 48C0 21.4903 21.4903 0 48 0H202C228.51 0 250 21.4903 250 48V202C250 228.51 228.51 250 202 250H48C21.4903 250 0 228.51 0 202V48Z"/>
</mask>
<path d="M0 48C0 21.4903 21.4903 0 48 0H202C228.51 0 250 21.4903 250 48V202C250 228.51 228.51 250 202 250H48C21.4903 250 0 228.51 0 202V48Z" fill="white"/>
<path d="M48 0V2H202V0V-2H48V0ZM250 48H248V202H250H252V48H250ZM202 250V248H48V250V252H202V250ZM0 202H2V48H0H-2V202H0ZM48 250V248C22.5949 248 2 227.405 2 202H0H-2C-2 229.614 20.3858 252 48 252V250ZM250 202H248C248 227.405 227.405 248 202 248V250V252C229.614 252 252 229.614 252 202H250ZM202 0V2C227.405 2 248 22.5949 248 48H250H252C252 20.3858 229.614 -2 202 -2V0ZM48 0V-2C20.3858 -2 -2 20.3858 -2 48H0H2C2 22.5949 22.5949 2 48 2V0Z" fill="#DDDBDB" mask="url(#path-1-inside-1_769_166)"/>
<path fill-rule="evenodd" clip-rule="evenodd" d="M186.478 134.442C186.337 141.631 186.439 149.166 186.438 156.372L186.46 194.993L125.999 195C125.786 174.968 125.942 154.466 125.964 134.406L186.478 134.442ZM147.967 148.861C147.942 157.697 148.059 166.716 147.938 175.521C154.063 175.515 160.559 175.41 166.657 175.514L166.676 172.454C161.535 172.454 156.281 172.511 151.147 172.444C151.123 171.046 150.939 164.542 151.109 163.591C151.386 163.414 151.448 163.447 151.796 163.473C156.055 163.455 160.313 163.46 164.571 163.488L164.567 160.516L151.142 160.52C151.094 157.661 151.021 154.661 151.064 151.805L166.136 151.817L166.193 148.842L147.967 148.861Z" fill="#12668C"/>
<path fill-rule="evenodd" clip-rule="evenodd" d="M125.956 71.6703C127.667 71.7921 130.694 71.685 132.514 71.6838L186.444 71.6879L186.43 132.027L125.982 132.039L125.956 71.6703ZM170.033 102.707C168.973 95.17 161.997 89.9246 154.462 90.9992C146.947 92.0711 141.72 99.0252 142.776 106.542C143.834 114.058 150.778 119.3 158.297 118.257C165.836 117.211 171.093 110.244 170.033 102.707Z" fill="#34006C"/>
<path d="M155.073 94.027C160.905 93.3078 166.22 97.4429 166.957 103.273C167.694 109.103 163.574 114.43 157.746 115.185C151.895 115.943 146.539 111.802 145.799 105.947C145.059 100.092 149.216 94.7492 155.073 94.027Z" fill="#34006C"/>
<path fill-rule="evenodd" clip-rule="evenodd" d="M63.5615 55C65.4969 55.15 68.963 55.0545 71.0212 55.0575L123.71 55.0476L123.732 115.465L63.5719 115.452C63.4718 107.982 63.555 100.328 63.5532 92.8378L63.5615 55ZM100.98 80.2064C101.488 80.9594 102.323 81.9376 102.657 82.778C104.164 86.578 103.637 92.3244 99.9429 94.6809C97.3265 96.3499 93.4249 95.9989 90.4562 95.9903C90.4915 93.3861 90.7199 91.1121 88.7094 89.036C87.3874 87.6707 85.7573 87.2507 83.9125 87.2228C83.6854 90.9438 83.8412 96.2399 83.8467 100.062L83.854 102.589L91.6641 102.598C96.9788 102.597 101.642 102.641 105.705 98.5562C109.383 94.8585 111.756 87.7345 107.511 83.5764C106.325 82.4161 102.684 80.3402 100.98 80.2064ZM104.631 74.6023C99.7058 70.7021 93.8987 71.6545 88.0032 71.5849C84.6745 71.5455 80.889 71.5247 77.5737 71.618C80.2971 77.6662 84.1395 78.3252 90.1202 78.1219C96.1836 77.9158 103.811 78.2056 108.409 82.6734C108.744 82.9988 109.415 83.7754 109.773 83.9683C109.323 80.3411 107.532 76.8999 104.631 74.6023Z" fill="#12668C"/>
<path fill-rule="evenodd" clip-rule="evenodd" d="M123.765 117.876C123.483 137.834 123.768 158.241 123.724 178.237C122.728 178.364 119.014 178.285 117.787 178.285L63.5621 178.284L63.5663 117.901C66.5286 118.086 71.4417 117.921 74.5533 117.921L114.571 117.935C116.953 117.937 121.634 118.07 123.765 117.876ZM86.5137 133.233L86.4863 136.304C88.8645 136.311 93.5559 136.463 95.7684 136.285L95.7746 146.824C95.7754 149.303 96.2338 153.954 94.4274 155.724C93.6054 156.531 92.4922 156.971 91.3406 156.945C89.3269 156.901 87.5429 155.82 86.1984 154.382C86.009 154.18 85.8276 153.971 85.6548 153.755C85.1204 154.62 84.6276 155.45 84.0052 156.256C84.6865 157.036 85.2863 157.725 86.1088 158.367C87.3158 159.206 87.9998 159.523 89.4131 159.904C93.4504 160.991 98.4908 158.491 98.7604 153.957C99.1655 147.146 98.7828 140.063 98.9271 133.218L86.5137 133.233Z" fill="#34006C"/>
</svg>
