<svg width="250" height="250" viewBox="0 0 250 250" fill="none" xmlns="http://www.w3.org/2000/svg">
<mask id="path-1-inside-1_769_167" fill="white">
<path d="M0 48C0 21.4903 21.4903 0 48 0H202C228.51 0 250 21.4903 250 48V202C250 228.51 228.51 250 202 250H48C21.4903 250 0 228.51 0 202V48Z"/>
</mask>
<path d="M0 48C0 21.4903 21.4903 0 48 0H202C228.51 0 250 21.4903 250 48V202C250 228.51 228.51 250 202 250H48C21.4903 250 0 228.51 0 202V48Z" fill="white"/>
<path d="M48 0V2H202V0V-2H48V0ZM250 48H248V202H250H252V48H250ZM202 250V248H48V250V252H202V250ZM0 202H2V48H0H-2V202H0ZM48 250V248C22.5949 248 2 227.405 2 202H0H-2C-2 229.614 20.3858 252 48 252V250ZM250 202H248C248 227.405 227.405 248 202 248V250V252C229.614 252 252 229.614 252 202H250ZM202 0V2C227.405 2 248 22.5949 248 48H250H252C252 20.3858 229.614 -2 202 -2V0ZM48 0V-2C20.3858 -2 -2 20.3858 -2 48H0H2C2 22.5949 22.5949 2 48 2V0Z" fill="#DDDBDB" mask="url(#path-1-inside-1_769_167)"/>
<path d="M77.4114 130.644C79.4186 128.489 80.4878 125.625 80.3838 122.682C80.4878 119.739 79.4186 116.875 77.4114 114.72C76.4094 113.679 75.1985 112.862 73.8583 112.322C72.5182 111.783 71.079 111.533 69.6353 111.589H65.6544V133.709H69.6353C71.0741 133.774 72.5103 133.534 73.8501 133.006C75.1902 132.478 76.4036 131.673 77.4114 130.644Z" fill="#005445"/>
<path d="M126.828 112.318C125.538 112.277 124.255 112.516 123.066 113.017C121.877 113.519 120.811 114.272 119.941 115.224C118.218 117.248 117.272 119.819 117.272 122.476C117.272 125.134 118.218 127.705 119.941 129.728C120.838 130.643 121.908 131.371 123.09 131.867C124.271 132.363 125.54 132.619 126.821 132.619C128.103 132.619 129.371 132.363 130.553 131.867C131.734 131.371 132.805 130.643 133.702 129.728C135.432 127.708 136.383 125.136 136.383 122.476C136.383 119.816 135.432 117.244 133.702 115.224C132.834 114.272 131.77 113.519 130.583 113.018C129.397 112.516 128.116 112.277 126.828 112.318Z" fill="#EF204A"/>
<path d="M152.088 111.734V98.2122H189.429C184.131 85.4215 175.159 74.4888 163.648 66.7972C152.137 59.1054 138.603 55 124.758 55C110.914 55 97.38 59.1054 85.8688 66.7972C74.3575 74.4888 65.3857 85.4215 60.0878 98.2122H73.9946C81.3017 98.2122 87.1803 100.468 91.6302 104.98C96.08 109.492 98.2916 115.357 98.265 122.576C98.265 129.803 96.0534 135.673 91.6302 140.185C87.2069 144.697 81.3283 146.952 73.9946 146.952H58.2964C61.7436 157.405 67.6084 166.897 75.4143 174.657C83.2201 182.416 92.7468 188.224 103.22 191.609C113.693 194.994 124.817 195.86 135.687 194.137C146.558 192.414 156.869 188.15 165.782 181.693V111.734H152.088ZM143.422 139.707C141.263 141.992 138.649 143.801 135.749 145.017C132.849 146.232 129.727 146.828 126.583 146.767C123.437 146.83 120.312 146.235 117.41 145.019C114.507 143.804 111.892 141.994 109.73 139.707C107.496 137.434 105.739 134.736 104.562 131.774C103.387 128.811 102.816 125.643 102.883 122.456C102.816 119.269 103.387 116.101 104.562 113.139C105.739 110.176 107.496 107.478 109.73 105.205C111.893 102.921 114.509 101.114 117.411 99.9003C120.314 98.6867 123.438 98.0936 126.583 98.1592C129.726 98.0956 132.847 98.6896 135.747 99.9029C138.647 101.116 141.261 102.922 143.422 105.205C145.659 107.477 147.419 110.174 148.597 113.137C149.775 116.1 150.348 119.268 150.283 122.456C150.354 125.645 149.783 128.815 148.604 131.778C147.426 134.742 145.664 137.438 143.422 139.707Z" fill="#005445"/>
<path d="M190.443 111.735H177.452V167.295C183.398 159.466 187.628 150.472 189.866 140.899C192.105 131.326 192.301 121.389 190.443 111.735Z" fill="#005445"/>
</svg>
