<svg width="250" height="250" viewBox="0 0 250 250" fill="none" xmlns="http://www.w3.org/2000/svg">
<mask id="path-1-inside-1_769_168" fill="white">
<path d="M0 48C0 21.4903 21.4903 0 48 0H202C228.51 0 250 21.4903 250 48V202C250 228.51 228.51 250 202 250H48C21.4903 250 0 228.51 0 202V48Z"/>
</mask>
<path d="M0 48C0 21.4903 21.4903 0 48 0H202C228.51 0 250 21.4903 250 48V202C250 228.51 228.51 250 202 250H48C21.4903 250 0 228.51 0 202V48Z" fill="white"/>
<path d="M48 0V2H202V0V-2H48V0ZM250 48H248V202H250H252V48H250ZM202 250V248H48V250V252H202V250ZM0 202H2V48H0H-2V202H0ZM48 250V248C22.5949 248 2 227.405 2 202H0H-2C-2 229.614 20.3858 252 48 252V250ZM250 202H248C248 227.405 227.405 248 202 248V250V252C229.614 252 252 229.614 252 202H250ZM202 0V2C227.405 2 248 22.5949 248 48H250H252C252 20.3858 229.614 -2 202 -2V0ZM48 0V-2C20.3858 -2 -2 20.3858 -2 48H0H2C2 22.5949 22.5949 2 48 2V0Z" fill="#DDDBDB" mask="url(#path-1-inside-1_769_168)"/>
<path d="M185.763 95.4553C185.919 95.4449 186.076 95.4424 186.233 95.4479C188.522 95.5282 188.902 99.0591 189.337 100.876C191.666 110.465 192.439 120.366 191.629 130.2C190.425 145.941 184.064 160.845 173.53 172.602C171.637 174.695 169.657 176.677 167.525 178.532C166.653 179.29 165.361 180.063 164.368 180.682C161.386 182.563 158.267 184.22 155.038 185.638C138.621 192.964 120.445 195.611 102.569 194.884C99.8359 194.773 97.1237 194.527 94.3994 194.296C93.0139 194.136 91.6128 194.026 90.2319 193.828C88.1894 193.534 87.4798 192.831 87.5573 190.78C87.6663 190.585 87.7899 190.399 87.9271 190.223C88.4396 189.567 89.6977 188.41 90.3236 187.813L102.829 175.843C103.568 175.134 108.933 169.717 109.762 169.633C110.803 169.527 114.654 169.859 116.106 169.83C123.961 169.666 131.76 168.16 138.72 164.401C151.881 157.317 157.365 144.494 158.779 130.166C158.918 128.74 159.002 127.31 159.034 125.878C159.06 125.029 158.998 121.23 159.192 120.943C160.203 119.442 164.386 115.646 165.672 114.411L176.17 104.381L182.108 98.6553C183.051 97.7399 184.62 95.9617 185.763 95.4553Z" fill="#7DCCC6"/>
<path d="M170.098 80.7193C170.482 80.6964 170.836 80.6622 171.195 80.8109C172.063 81.1448 172.706 82.3127 172.238 83.199C171.612 84.3997 170.374 85.2358 169.483 86.2395C167.262 88.7396 164.754 90.9483 162.401 93.3051C160.463 95.2458 158.538 97.231 156.612 99.1886L97.4562 159.514C96.5242 160.479 95.6742 161.56 94.7351 162.494C88.8543 168.341 83.1882 174.433 77.198 180.164C75.9068 181.4 74.2426 183.587 72.6347 184.258C71.5414 184.15 71.1271 183.786 70.5863 182.886C70.5397 181.953 70.5942 180.902 70.5612 179.95C70.4403 176.472 70.4981 172.999 70.4787 169.519L70.1949 131.122C70.156 128.763 69.86 123.547 70.2859 121.379C70.5872 120.941 71.0317 120.588 71.5211 120.39C73.1475 119.734 74.7881 119.084 76.4129 118.425L121.517 100.117L150.282 88.6636L162.417 83.7481C164.834 82.7683 167.663 81.5464 170.098 80.7193Z" fill="#32B2C9"/>
<path d="M106.874 55.0521C109.748 54.9461 112.691 55.021 115.59 55.1067C129.681 55.5257 144.151 57.1581 157.217 62.7462C158.642 63.3556 158.944 64.4224 158.256 65.7379C157.096 66.5631 154.14 67.758 152.718 68.3908L106.915 88.7924C105.242 89.4933 103.635 90.2875 101.985 91.0051L82.8731 99.4023L76.4436 102.277C75.1685 102.847 73.5416 103.629 72.2409 104.037C70.9843 103.658 70.5286 103.283 70.5141 101.923C70.4844 99.1352 70.5051 96.3346 70.5082 93.5466L70.5043 65.6394C70.5017 63.8036 70.4094 60.756 70.594 59.0377C70.7631 58.782 71.0876 58.3015 71.3698 58.2064C72.9835 57.6626 75.0573 57.4997 76.7346 57.2813C86.73 55.9599 96.7931 55.2156 106.874 55.0521Z" fill="#4F61A9"/>
</svg>
