<svg width="250" height="250" viewBox="0 0 250 250" fill="none" xmlns="http://www.w3.org/2000/svg">
<mask id="path-1-inside-1_769_170" fill="white">
<path d="M0 48C0 21.4903 21.4903 0 48 0H202C228.51 0 250 21.4903 250 48V202C250 228.51 228.51 250 202 250H48C21.4903 250 0 228.51 0 202V48Z"/>
</mask>
<path d="M0 48C0 21.4903 21.4903 0 48 0H202C228.51 0 250 21.4903 250 48V202C250 228.51 228.51 250 202 250H48C21.4903 250 0 228.51 0 202V48Z" fill="white"/>
<path d="M48 0V2H202V0V-2H48V0ZM250 48H248V202H250H252V48H250ZM202 250V248H48V250V252H202V250ZM0 202H2V48H0H-2V202H0ZM48 250V248C22.5949 248 2 227.405 2 202H0H-2C-2 229.614 20.3858 252 48 252V250ZM250 202H248C248 227.405 227.405 248 202 248V250V252C229.614 252 252 229.614 252 202H250ZM202 0V2C227.405 2 248 22.5949 248 48H250H252C252 20.3858 229.614 -2 202 -2V0ZM48 0V-2C20.3858 -2 -2 20.3858 -2 48H0H2C2 22.5949 22.5949 2 48 2V0Z" fill="#DDDBDB" mask="url(#path-1-inside-1_769_170)"/>
<path d="M124.945 145.923C123.08 148.819 120.796 151.522 118.857 154.381C118.174 155.389 117.382 156.375 116.664 157.365C115.042 159.649 113.395 161.915 111.721 164.161C110.965 165.196 110.192 166.407 109.368 167.364C107.758 169.235 104.623 168.885 102.424 168.882L96.1652 168.875L90.9679 168.886C88.6417 168.89 85.5698 169.167 84.1908 166.889C83.0667 165.032 82.288 162.532 81.482 160.485L77.0849 149.213L67.9588 125.934L59.4614 104.238L57.0216 98.1314C56.2084 96.0903 54.7492 93.154 55.0364 90.9492C55.2305 89.4585 56.4762 87.6227 57.9678 87.1485C60.4224 86.3683 63.0039 85.7444 65.5095 85.0569C68.879 84.1077 72.2601 83.2 75.6518 82.3337C77.3108 81.8957 79.228 81.2714 80.9029 81.1072C82.7189 80.9291 84.2147 82.1943 85.4491 83.3038L88.1756 85.7373L98.9504 95.3192L112.596 107.466C116.628 111.014 121.044 114.83 124.946 118.484C126.907 120.387 129.086 122.137 131.077 123.997C132.894 125.694 135.274 127.065 135.258 129.856C135.254 130.518 135.203 131.185 134.919 131.803C134.095 133.487 132.658 135.201 131.541 136.725L126.964 143.02C126.515 143.634 125.224 145.324 124.945 145.923Z" fill="#00377C"/>
<path d="M124.946 118.484C126 117.356 127.223 116.298 128.379 115.269L132.295 111.803L142.441 102.827L157.565 89.3487L163.15 84.3766C164.608 83.0951 166.314 81.1846 168.415 81.1195C168.972 81.1033 169.53 81.1514 170.075 81.263C171.32 81.5145 173.072 82.0441 174.343 82.3837L182.192 84.4776L187.905 86.0363C189.153 86.3701 190.43 86.6578 191.652 87.0795C193.607 87.7547 194.904 89.7936 194.998 91.8155C195.03 92.4971 194.693 93.3345 194.481 93.9733C193.702 96.0515 192.831 98.1053 192.012 100.169L188.406 109.413L178.69 134.166L170.036 156.295C168.877 159.239 167.749 162.243 166.566 165.183C164.871 169.395 161.906 168.852 158.07 168.852C153.625 168.852 149.2 168.832 144.758 168.851C141.189 168.866 140.144 166.907 138.272 164.29C137.38 163.038 136.479 161.793 135.568 160.554C131.993 155.702 128.451 150.825 124.945 145.923C125.224 145.324 126.515 143.635 126.964 143.02L131.541 136.725C132.658 135.201 134.095 133.487 134.919 131.803C135.203 131.185 135.254 130.518 135.258 129.856C135.274 127.065 132.894 125.694 131.077 123.997C129.086 122.137 126.907 120.387 124.946 118.484Z" fill="#7DD348"/>
</svg>
