<svg width="250" height="250" viewBox="0 0 250 250" fill="none" xmlns="http://www.w3.org/2000/svg">
<mask id="path-1-inside-1_769_176" fill="white">
<path d="M0 48C0 21.4903 21.4903 0 48 0H202C228.51 0 250 21.4903 250 48V202C250 228.51 228.51 250 202 250H48C21.4903 250 0 228.51 0 202V48Z"/>
</mask>
<path d="M0 48C0 21.4903 21.4903 0 48 0H202C228.51 0 250 21.4903 250 48V202C250 228.51 228.51 250 202 250H48C21.4903 250 0 228.51 0 202V48Z" fill="white"/>
<path d="M48 0V2H202V0V-2H48V0ZM250 48H248V202H250H252V48H250ZM202 250V248H48V250V252H202V250ZM0 202H2V48H0H-2V202H0ZM48 250V248C22.5949 248 2 227.405 2 202H0H-2C-2 229.614 20.3858 252 48 252V250ZM250 202H248C248 227.405 227.405 248 202 248V250V252C229.614 252 252 229.614 252 202H250ZM202 0V2C227.405 2 248 22.5949 248 48H250H252C252 20.3858 229.614 -2 202 -2V0ZM48 0V-2C20.3858 -2 -2 20.3858 -2 48H0H2C2 22.5949 22.5949 2 48 2V0Z" fill="#DDDBDB" mask="url(#path-1-inside-1_769_176)"/>
<path d="M67.9055 107.415C67.9055 91.2053 67.9055 74.9961 67.9055 58.7868C67.9055 58.0124 67.9452 57.238 67.8989 56.4703C67.8261 55.2789 68.4284 54.9215 69.5139 55.0142C70.0632 55.0605 70.6126 55.0208 71.1685 55.0208C102.369 55.0208 133.576 55.0274 164.777 55.0075C168.259 55.0075 171.588 55.4775 174.593 57.3373C178.657 59.8591 181.139 63.4464 181.847 68.2251C182.171 70.4093 182.29 72.5935 182.284 74.7975C182.264 101.703 182.27 128.608 182.27 155.506C182.27 159.557 182.25 159.59 178.63 157.545C161.752 148.027 144.861 138.542 128.056 128.906C125.727 127.569 124.085 127.661 121.789 128.978C104.421 138.946 86.9608 148.748 69.5205 158.597C68.0313 159.438 67.9254 159.385 67.9187 157.677C67.8989 147.531 67.9055 137.391 67.9055 127.244C67.9055 120.645 67.9055 114.033 67.9055 107.415Z" fill="#17B24C"/>
<path d="M181.835 190.599C181.835 192.227 181.835 193.524 181.835 195C143.857 195 106.024 195 67.973 195C67.5295 193.67 67.8141 192.273 67.7347 190.698C69.4357 190.42 71.0242 190.155 72.798 189.864C72.9767 187.534 73.1554 185.258 73.3474 182.815C76.9347 181.551 80.6875 181.386 84.3278 180.737C93.6271 179.089 102.966 177.692 112.279 176.15C117.097 175.356 121.399 177.302 124.378 181.783C127.356 176.825 131.81 175.482 137.264 176.375C148.854 178.268 160.463 180.102 172.059 181.968C173.138 182.14 174.197 182.392 175.236 182.603C176.103 185.033 175.282 187.594 176.533 189.95C178.188 190.149 179.915 190.361 181.835 190.599Z" fill="#4A4A4A"/>
</svg>
