<svg width="250" height="250" viewBox="0 0 250 250" fill="none" xmlns="http://www.w3.org/2000/svg">
<rect width="250" height="250" fill="white"/>
<path d="M67.9055 107.414C67.9055 91.2051 67.9055 74.9958 67.9055 58.7866C67.9055 58.0122 67.9452 57.2378 67.8989 56.47C67.8261 55.2787 68.4284 54.9213 69.5139 55.0139C70.0632 55.0602 70.6126 55.0205 71.1685 55.0205C102.369 55.0205 133.576 55.0272 164.777 55.0073C168.259 55.0073 171.588 55.4772 174.593 57.3371C178.657 59.8588 181.139 63.4462 181.847 68.2249C182.171 70.4091 182.29 72.5932 182.284 74.7973C182.264 101.702 182.27 128.607 182.27 155.506C182.27 159.557 182.25 159.59 178.63 157.544C161.752 148.027 144.861 138.542 128.056 128.905C125.727 127.568 124.085 127.661 121.789 128.978C104.421 138.946 86.9608 148.748 69.5205 158.597C68.0313 159.437 67.9254 159.384 67.9187 157.677C67.8989 147.53 67.9055 137.39 67.9055 127.244C67.9055 120.645 67.9055 114.033 67.9055 107.414Z" fill="#17B24C"/>
<path d="M181.835 190.599C181.835 192.227 181.835 193.524 181.835 195C143.857 195 106.024 195 67.973 195C67.5295 193.67 67.8141 192.273 67.7347 190.698C69.4357 190.42 71.0242 190.155 72.798 189.864C72.9767 187.534 73.1554 185.257 73.3474 182.815C76.9347 181.551 80.6875 181.385 84.3278 180.737C93.6271 179.089 102.966 177.692 112.279 176.15C117.097 175.356 121.399 177.302 124.378 181.783C127.356 176.825 131.81 175.481 137.264 176.375C148.854 178.268 160.463 180.101 172.059 181.968C173.138 182.14 174.197 182.391 175.236 182.603C176.103 185.032 175.282 187.594 176.533 189.95C178.188 190.149 179.915 190.36 181.835 190.599Z" fill="#4A4A4A"/>
</svg>
