<svg width="250" height="250" viewBox="0 0 250 250" fill="none" xmlns="http://www.w3.org/2000/svg">
<mask id="path-1-inside-1_769_180" fill="white">
<path d="M0 48C0 21.4903 21.4903 0 48 0H202C228.51 0 250 21.4903 250 48V202C250 228.51 228.51 250 202 250H48C21.4903 250 0 228.51 0 202V48Z"/>
</mask>
<path d="M0 48C0 21.4903 21.4903 0 48 0H202C228.51 0 250 21.4903 250 48V202C250 228.51 228.51 250 202 250H48C21.4903 250 0 228.51 0 202V48Z" fill="white"/>
<path d="M48 0V2H202V0V-2H48V0ZM250 48H248V202H250H252V48H250ZM202 250V248H48V250V252H202V250ZM0 202H2V48H0H-2V202H0ZM48 250V248C22.5949 248 2 227.405 2 202H0H-2C-2 229.614 20.3858 252 48 252V250ZM250 202H248C248 227.405 227.405 248 202 248V250V252C229.614 252 252 229.614 252 202H250ZM202 0V2C227.405 2 248 22.5949 248 48H250H252C252 20.3858 229.614 -2 202 -2V0ZM48 0V-2C20.3858 -2 -2 20.3858 -2 48H0H2C2 22.5949 22.5949 2 48 2V0Z" fill="#DDDBDB" mask="url(#path-1-inside-1_769_180)"/>
<rect x="55.002" y="57.8679" width="140" height="134.264" rx="28.0505" fill="#969942"/>
<path d="M106.488 80.1416C113.379 79.8659 120.887 80.437 127.865 80.4692C127.424 81.5721 126.727 84.0792 126.36 85.2867C125.866 86.9113 124.994 89.4456 124.64 91.0417C121.836 90.9256 118.82 90.9625 115.935 90.8603C112.88 90.7483 109.825 90.6813 106.768 90.6594C104.183 90.6305 101.842 90.6179 99.3249 90.8936C91.8511 91.7229 91.6624 96.9892 91.6306 103.066C91.6087 107.254 91.4043 110.533 92.0048 114.779L112.406 114.778C112.393 118.287 112.305 122.151 112.404 125.632L91.6643 125.678C91.7535 132.312 91.4716 138.959 91.5234 145.596C91.5483 148.773 91.466 152.171 92.5593 155.198C93.1214 156.755 94.2981 157.615 95.7522 158.243C97.8035 158.868 99.7383 158.923 101.857 158.982C106.262 159.102 110.683 158.916 115.086 159.04C114.887 159.532 114.688 160.076 114.514 160.58C113.489 163.55 112.223 166.514 111.261 169.499C103.572 170.099 91.8999 170.153 85.9379 164.622C79.6851 158.822 80.1234 146.633 80.2362 138.752C80.267 135.199 80.3395 131.647 80.4538 128.096C80.6956 121.686 80.6845 115.269 80.4207 108.86C80.0668 99.5691 79.7923 88.4047 88.9862 83.2605C93.8656 80.5305 101.021 80.3087 106.488 80.1416Z" fill="black"/>
<path d="M140.459 114.641C143.261 114.541 146.83 114.495 149.599 114.706C155.519 115.159 160.688 116.193 164.71 120.893C170.344 127.322 169.658 135.986 169.456 143.917C169.248 152.111 170.075 159.482 162.938 165.153C159.487 167.895 156.897 169.035 152.413 169.44C147.778 169.858 143.3 169.913 138.656 169.924C133.727 169.95 128.798 169.864 123.874 169.669C122.208 169.604 120.388 169.585 118.741 169.462L118.46 169.439C118.356 169.142 121.58 160.071 121.936 159.042C130.452 158.867 139.167 159.397 147.647 159.207C158.526 158.965 158.049 154.447 158.195 145.288C158.249 141.943 158.633 138.507 158.411 135.168C158.074 130.141 157.244 125.94 151.43 125.537C145.499 125.125 139.739 125.184 133.797 125.291C132.504 125.315 131.221 125.315 129.934 125.389L132.645 114.86C135.205 114.857 137.891 114.728 140.459 114.641Z" fill="#F6F6F6"/>
<path d="M141.245 80.4295C141.943 80.4033 142.64 80.3886 143.338 80.3855C149.899 80.3447 159.163 80.3663 163.998 85.3558C169.921 91.467 169.292 102.888 169.202 110.733L169.109 122.861C167.157 120.468 167.902 119.337 164.644 117.172C163.058 116.177 159.613 114.556 158.574 113.157C157.237 111.357 160.074 98.7869 156.65 93.6988C156.052 92.8109 155.237 92.1259 154.237 91.7373C152.418 91.0311 150.362 91.0111 148.44 90.9625C146.05 90.902 143.682 90.9397 141.293 91.005C138.124 91.0917 134.841 91.2852 131.716 90.6586C132.95 87.4713 134.057 83.8023 135.212 80.5268L141.245 80.4295Z" fill="#F6F6F6"/>
</svg>
