<svg width="250" height="250" viewBox="0 0 250 250" fill="none" xmlns="http://www.w3.org/2000/svg">
<mask id="path-1-inside-1_769_181" fill="white">
<path d="M0 48C0 21.4903 21.4903 0 48 0H202C228.51 0 250 21.4903 250 48V202C250 228.51 228.51 250 202 250H48C21.4903 250 0 228.51 0 202V48Z"/>
</mask>
<path d="M0 48C0 21.4903 21.4903 0 48 0H202C228.51 0 250 21.4903 250 48V202C250 228.51 228.51 250 202 250H48C21.4903 250 0 228.51 0 202V48Z" fill="white"/>
<path d="M48 0V2H202V0V-2H48V0ZM250 48H248V202H250H252V48H250ZM202 250V248H48V250V252H202V250ZM0 202H2V48H0H-2V202H0ZM48 250V248C22.5949 248 2 227.405 2 202H0H-2C-2 229.614 20.3858 252 48 252V250ZM250 202H248C248 227.405 227.405 248 202 248V250V252C229.614 252 252 229.614 252 202H250ZM202 0V2C227.405 2 248 22.5949 248 48H250H252C252 20.3858 229.614 -2 202 -2V0ZM48 0V-2C20.3858 -2 -2 20.3858 -2 48H0H2C2 22.5949 22.5949 2 48 2V0Z" fill="#DDDBDB" mask="url(#path-1-inside-1_769_181)"/>
<path d="M110.277 160.351C110.879 160.702 122.454 183.447 123.402 185.473C114.45 188.647 105.22 191.539 96.1901 194.538L95.9003 194.451C95.1006 193.103 93.5211 189.455 92.6936 187.815L83.1625 168.842C92.1109 166.247 101.296 162.958 110.277 160.351Z" fill="#1C6802"/>
<path d="M80.7736 83.4471L80.863 83.4671C81.2987 83.7931 88.7491 107.814 89.6051 110.526C88.8716 110.841 88.2069 111.199 87.4941 111.552C79.7155 115.406 72.1021 119.646 64.3091 123.456C63.8997 122.851 62.9025 119.259 62.5455 118.302C59.8974 111.205 57.789 103.123 55.001 96.1499C63.4494 92.2869 72.4052 87.579 80.7736 83.4471Z" fill="#1C6802"/>
<path d="M185.603 126.656C185.995 126.77 187.631 132.265 187.884 132.965C190.367 139.837 192.288 147.16 194.99 153.932L169.729 166.36C169.285 166.608 169.46 166.596 169.044 166.494C168.547 165.832 161.193 141.898 160.502 139.63C168.485 135.227 177.465 130.883 185.603 126.656Z" fill="#1C6802"/>
<path d="M153.815 55.5017L153.995 55.5454C154.499 56.2292 156.592 60.8073 157.191 61.9303C160.494 68.1245 163.509 74.9791 166.863 81.1059C164.584 81.9947 161.973 82.7206 159.631 83.5021C153.045 85.699 146.276 87.5509 139.712 89.7857C136.309 83.5451 133.231 76.9904 129.783 70.7528C128.686 68.7699 127.693 66.4606 126.543 64.5604C135.454 61.3827 144.804 58.5283 153.815 55.5017Z" fill="#1C6802"/>
<path d="M64.1782 126.517C68.0604 128.316 72.1283 130.614 75.9575 132.586C80.4632 134.907 85.1609 137.193 89.5607 139.672L81.1029 166.408L80.7941 166.521C75.5148 163.957 70.2484 161.366 64.9951 158.75C62.0716 157.289 57.9996 155.1 55.0528 153.898C55.5979 152.757 56.3939 150.252 56.8076 149.011L59.5486 140.759C60.7486 137.152 63.4283 129.977 64.1782 126.517Z" fill="#1C6802"/>
<path d="M169.004 83.3324C169.426 83.4719 170.099 83.8634 170.517 84.0706C176.604 87.0744 182.649 90.1762 188.743 93.1634C190.7 94.1227 192.979 95.2928 195.001 96.0631C191.883 104.783 188.986 113.974 185.998 122.805C185.944 123.055 185.917 123.036 185.745 123.246C184.832 123.271 183.083 122.076 182.209 121.626C179.96 120.489 177.719 119.337 175.486 118.168C170.486 115.559 165.506 113.055 160.527 110.392C161.06 108.466 161.853 106.437 162.415 104.497C164.449 97.4763 167.058 90.3519 169.004 83.3324Z" fill="#1C6802"/>
<path d="M139.771 160.232C140.968 160.684 142.374 161.154 143.598 161.514C151.397 163.809 159.115 166.541 166.89 168.877C165.353 171.655 163.797 175.005 162.367 177.892L157.125 188.287C156.147 190.261 155.067 192.725 154.023 194.598C146.758 192.061 139.362 189.863 132.101 187.306C130.35 186.689 128.481 186.031 126.699 185.554C130.99 177.079 135.348 168.638 139.771 160.232Z" fill="#1C6802"/>
<path d="M96.0388 55.4031C98.1846 56.3487 103.794 58.0486 106.211 58.8394L123.398 64.5058C120.967 69.4623 118.353 74.4103 115.776 79.294C114.007 82.6475 112.231 86.407 110.351 89.6657C107.524 88.9592 103.885 87.7128 101.026 86.8177C95.0745 84.9682 89.1382 83.0707 83.2173 81.1252C83.7949 80.1756 84.6264 78.3594 85.1403 77.3219L88.7064 70.172C90.9329 65.7565 94.2084 59.8741 96.0388 55.4031Z" fill="#1C6802"/>
<path d="M125.249 65.5492C125.56 65.6774 125.733 65.9713 125.876 66.2696C129.848 74.5391 134.436 82.5941 138.362 90.8734C138.069 92.1694 136.934 94.683 136.382 95.983L132.915 104.125L128.427 114.781C127.507 116.991 126.521 119.546 125.486 121.67C124.459 121.051 113.749 94.8381 112.149 91.0113C113.891 87.8186 115.381 84.4025 117.144 81.2025C119.976 76.0596 122.483 70.722 125.249 65.5492Z" fill="#834303"/>
<path d="M125.348 128.648C126.067 129.234 137.333 156.433 138.515 159.415C137.339 162.259 134.381 167.667 132.897 170.49C130.369 175.3 127.95 180.271 125.427 185.046C124.89 184.361 121.945 178.346 121.364 177.188C118.46 171.406 114.986 165.34 112.289 159.505C115.375 151.311 119.384 143.243 122.565 135.062C123.364 133.008 124.361 130.606 125.348 128.648Z" fill="#834303"/>
<path d="M159.373 112.173C160.764 112.05 182.136 123.572 185.362 125.117C178.808 128.697 171.938 131.924 165.355 135.473C163.564 136.439 161.557 137.51 159.707 138.303L156.124 136.814C149.076 134.104 142.144 130.665 135.089 127.921C132.982 127.102 130.637 126.172 128.647 125.149C138.659 120.894 149.512 116.647 159.373 112.173Z" fill="#834303"/>
<path d="M91.0573 112.175C92.2178 112.62 93.3406 113.114 94.4854 113.593C103.689 117.444 112.838 121.647 122.173 125.172C119.636 126.521 114.814 128.377 112.046 129.534L94.8299 136.817C93.5641 137.352 92.2891 137.865 91.0053 138.355C86.0611 136.083 80.7142 133.121 75.8185 130.632C73.3076 129.355 67.4868 126.579 65.356 125.185C66.9901 124.559 71.3962 122.166 73.2806 121.219L91.0573 112.175Z" fill="#834303"/>
<path d="M83.1317 83.1234C87.7829 84.3716 93.3719 86.443 98.0804 87.861C100.859 88.6978 107.861 90.803 110.336 91.8855C111.215 93.5799 112.167 96.1642 112.903 98.0057L117.028 108.328C118.6 112.224 121.735 118.967 122.853 122.755C122.419 122.647 121.893 122.474 121.48 122.302C111.609 118.18 101.439 114.476 91.6242 110.248C88.9718 102.483 86.7408 94.5455 84.0765 86.7801C83.7234 85.7511 83.1594 84.1784 83.1317 83.1234Z" fill="#834303"/>
<path d="M122.766 127.625L122.897 127.833C121.833 130.209 120.733 133.285 119.744 135.746L114.27 149.231C113.177 151.969 111.635 156.094 110.345 158.63C108.745 159.413 101.385 161.693 99.2946 162.313C94.1453 163.841 88.3776 166.032 83.2941 167.401L83.1497 167.148C83.3441 165.926 85.6074 159.3 86.1934 157.586C88.0906 152.038 89.7154 145.691 91.7076 140.261L110.299 132.72C114.334 131.08 118.812 129.373 122.766 127.625Z" fill="#834303"/>
<path d="M127.75 127.606C131.87 128.952 137.784 131.667 141.903 133.332C147.282 135.506 153.858 137.866 159.053 140.291C160.536 144.17 161.835 149.287 163.188 153.282C163.738 154.907 167.638 166.546 167.536 167.277C166.221 167.127 160.332 165.115 158.717 164.575C152.778 162.587 146.238 160.857 140.423 158.698C137.514 152.366 135.046 145.307 132.297 138.866C131.805 137.713 127.883 128.395 127.75 127.606Z" fill="#834303"/>
<path d="M167.15 83.1405C167.334 83.1669 167.246 83.1471 167.418 83.3586C167.226 84.502 166.993 84.8573 166.682 85.8869C166.003 88.1733 165.292 90.4503 164.55 92.7172C162.755 98.3721 160.92 104.573 159.015 110.125C156.105 111.67 149.881 113.91 146.516 115.258C140.483 117.676 134.216 120.375 128.166 122.658C128.112 122.633 128.011 122.497 127.964 122.441C128.229 121.387 129.115 119.368 129.545 118.307L132.43 111.15L137.324 98.96C138.202 96.7861 139.344 93.7295 140.421 91.7297C142.333 90.8523 148.435 89.0807 150.663 88.3877L167.15 83.1405Z" fill="#834303"/>
</svg>
