<svg width="250" height="250" viewBox="0 0 250 250" fill="none" xmlns="http://www.w3.org/2000/svg">
<mask id="path-1-inside-1_769_188" fill="white">
<path d="M0 48C0 21.4903 21.4903 0 48 0H202C228.51 0 250 21.4903 250 48V202C250 228.51 228.51 250 202 250H48C21.4903 250 0 228.51 0 202V48Z"/>
</mask>
<path d="M0 48C0 21.4903 21.4903 0 48 0H202C228.51 0 250 21.4903 250 48V202C250 228.51 228.51 250 202 250H48C21.4903 250 0 228.51 0 202V48Z" fill="white"/>
<path d="M48 0V2H202V0V-2H48V0ZM250 48H248V202H250H252V48H250ZM202 250V248H48V250V252H202V250ZM0 202H2V48H0H-2V202H0ZM48 250V248C22.5949 248 2 227.405 2 202H0H-2C-2 229.614 20.3858 252 48 252V250ZM250 202H248C248 227.405 227.405 248 202 248V250V252C229.614 252 252 229.614 252 202H250ZM202 0V2C227.405 2 248 22.5949 248 48H250H252C252 20.3858 229.614 -2 202 -2V0ZM48 0V-2C20.3858 -2 -2 20.3858 -2 48H0H2C2 22.5949 22.5949 2 48 2V0Z" fill="#DDDBDB" mask="url(#path-1-inside-1_769_188)"/>
<path d="M77.5083 77.8925V194.931H54.998V55.0693H194.998V194.931C194.998 194.931 149.775 194.677 127.512 194.677C116.978 194.677 107.998 190.116 104.156 183.249C100.898 177.424 101.746 173.024 102.888 171.196C105.762 171.966 110.231 172.246 110.231 172.246H171.214V77.8925H77.5083Z" fill="#008F46"/>
<path d="M171.214 172.246V77.8925L194.998 55.0693V194.931C194.998 194.931 149.775 194.677 127.512 194.677C116.978 194.677 107.998 190.116 104.156 183.249C100.898 177.424 101.746 173.024 102.888 171.196C105.762 171.966 110.231 172.246 110.231 172.246H171.214Z" fill="url(#paint0_linear_769_188)"/>
<path d="M189.595 79.552L169.371 59.8975L97.1845 132.169C97.1845 132.169 85.2204 142.616 84.7607 151.102C84.3458 158.762 86.8041 160.244 87.4687 161.16C93.9286 169.993 104.975 184.525 104.975 184.525C104.975 184.525 99.5743 177.388 104.198 167.669C107.025 162.066 112.434 156.956 112.434 156.956L189.595 79.552Z" fill="url(#paint1_linear_769_188)"/>
<defs>
<linearGradient id="paint0_linear_769_188" x1="88.0514" y1="182.846" x2="171.297" y2="182.846" gradientUnits="userSpaceOnUse">
<stop/>
<stop offset="1" stop-opacity="0"/>
</linearGradient>
<linearGradient id="paint1_linear_769_188" x1="175.552" y1="76.0654" x2="90.1356" y2="164.329" gradientUnits="userSpaceOnUse">
<stop stop-color="#3D4292"/>
<stop offset="1" stop-color="#0198D9"/>
</linearGradient>
</defs>
</svg>
