<svg width="250" height="250" viewBox="0 0 250 250" fill="none" xmlns="http://www.w3.org/2000/svg">
<rect width="250" height="250" fill="white"/>
<path d="M77.5083 77.8925V194.931H54.998V55.0693H194.998V194.931C194.998 194.931 149.775 194.677 127.512 194.677C116.978 194.677 107.998 190.116 104.156 183.249C100.898 177.424 101.746 173.024 102.888 171.196C105.762 171.966 110.231 172.246 110.231 172.246H171.214V77.8925H77.5083Z" fill="#008F46"/>
<path d="M171.214 172.246V77.8925L194.998 55.0693V194.931C194.998 194.931 149.775 194.677 127.512 194.677C116.978 194.677 107.998 190.116 104.156 183.249C100.898 177.424 101.746 173.024 102.888 171.196C105.762 171.966 110.231 172.246 110.231 172.246H171.214Z" fill="url(#paint0_linear_83_495)"/>
<path d="M189.595 79.552L169.371 59.8975L97.1845 132.169C97.1845 132.169 85.2204 142.616 84.7607 151.102C84.3458 158.762 86.8041 160.244 87.4687 161.16C93.9286 169.993 104.975 184.525 104.975 184.525C104.975 184.525 99.5743 177.388 104.198 167.669C107.025 162.066 112.434 156.956 112.434 156.956L189.595 79.552Z" fill="url(#paint1_linear_83_495)"/>
<defs>
<linearGradient id="paint0_linear_83_495" x1="88.0514" y1="182.846" x2="171.297" y2="182.846" gradientUnits="userSpaceOnUse">
<stop/>
<stop offset="1" stop-opacity="0"/>
</linearGradient>
<linearGradient id="paint1_linear_83_495" x1="175.552" y1="76.0654" x2="90.1356" y2="164.329" gradientUnits="userSpaceOnUse">
<stop stop-color="#3D4292"/>
<stop offset="1" stop-color="#0198D9"/>
</linearGradient>
</defs>
</svg>
