<svg width="250" height="250" viewBox="0 0 250 250" fill="none" xmlns="http://www.w3.org/2000/svg">
<mask id="path-1-inside-1_769_189" fill="white">
<path d="M0 48C0 21.4903 21.4903 0 48 0H202C228.51 0 250 21.4903 250 48V202C250 228.51 228.51 250 202 250H48C21.4903 250 0 228.51 0 202V48Z"/>
</mask>
<path d="M0 48C0 21.4903 21.4903 0 48 0H202C228.51 0 250 21.4903 250 48V202C250 228.51 228.51 250 202 250H48C21.4903 250 0 228.51 0 202V48Z" fill="white"/>
<path d="M48 0V2H202V0V-2H48V0ZM250 48H248V202H250H252V48H250ZM202 250V248H48V250V252H202V250ZM0 202H2V48H0H-2V202H0ZM48 250V248C22.5949 248 2 227.405 2 202H0H-2C-2 229.614 20.3858 252 48 252V250ZM250 202H248C248 227.405 227.405 248 202 248V250V252C229.614 252 252 229.614 252 202H250ZM202 0V2C227.405 2 248 22.5949 248 48H250H252C252 20.3858 229.614 -2 202 -2V0ZM48 0V-2C20.3858 -2 -2 20.3858 -2 48H0H2C2 22.5949 22.5949 2 48 2V0Z" fill="#DDDBDB" mask="url(#path-1-inside-1_769_189)"/>
<path d="M114.307 111.039H73.4576V139.785H114.307L104.221 153.401H52.2764V96.9177H104.221L114.307 111.039Z" fill="#009434"/>
<path fill-rule="evenodd" clip-rule="evenodd" d="M169.782 96.9177C175.909 96.9177 180.877 101.885 180.877 108.013V124.655L187.109 130.108C192.788 135.078 193.938 143.473 189.802 149.786L187.433 153.401H121.872V114.064H142.044V122.133H163.73V112.551C163.73 110.323 161.924 108.517 159.696 108.517H121.872V96.9177H169.782ZM142.549 143.315H173.816V140.289C173.816 134.718 169.301 130.203 163.73 130.203H142.549V143.315Z" fill="#009434"/>
<path d="M95.6475 132.724H76.9878V118.099H104.221L95.6475 132.724Z" fill="#009434"/>
</svg>
