<svg width="250" height="250" viewBox="0 0 250 250" fill="none" xmlns="http://www.w3.org/2000/svg">
<mask id="path-1-inside-1_769_190" fill="white">
<path d="M0 48C0 21.4903 21.4903 0 48 0H202C228.51 0 250 21.4903 250 48V202C250 228.51 228.51 250 202 250H48C21.4903 250 0 228.51 0 202V48Z"/>
</mask>
<path d="M0 48C0 21.4903 21.4903 0 48 0H202C228.51 0 250 21.4903 250 48V202C250 228.51 228.51 250 202 250H48C21.4903 250 0 228.51 0 202V48Z" fill="white"/>
<path d="M48 0V2H202V0V-2H48V0ZM250 48H248V202H250H252V48H250ZM202 250V248H48V250V252H202V250ZM0 202H2V48H0H-2V202H0ZM48 250V248C22.5949 248 2 227.405 2 202H0H-2C-2 229.614 20.3858 252 48 252V250ZM250 202H248C248 227.405 227.405 248 202 248V250V252C229.614 252 252 229.614 252 202H250ZM202 0V2C227.405 2 248 22.5949 248 48H250H252C252 20.3858 229.614 -2 202 -2V0ZM48 0V-2C20.3858 -2 -2 20.3858 -2 48H0H2C2 22.5949 22.5949 2 48 2V0Z" fill="#DDDBDB" mask="url(#path-1-inside-1_769_190)"/>
<path fill-rule="evenodd" clip-rule="evenodd" d="M77.9629 133.771C80.0033 133.555 81.8383 135.02 82.0791 137.059C82.3197 139.097 80.8765 140.95 78.8418 141.216C77.5036 141.39 76.1749 140.832 75.3633 139.753C74.5516 138.674 74.3828 137.242 74.9209 136.004C75.459 134.766 76.6208 133.913 77.9629 133.771ZM77.8223 134.978C74.7532 135.982 75.6255 140.471 78.8877 140.026C81.7361 139.18 81.4038 134.673 77.8223 134.978Z" fill="#357D30"/>
<path d="M65.1445 133.822C66.3488 133.81 66.9445 134.1 67.7812 134.914L66.8086 135.618C63.3653 132.627 60.8333 139.75 65.3232 140.09C65.9282 140.136 66.5106 139.64 66.8994 139.22C67.2456 139.469 67.5893 139.722 67.9297 139.979C67.3645 140.652 66.5996 141.087 65.7236 141.194C64.7336 141.318 63.7351 141.046 62.9453 140.436C62.1941 139.838 61.7135 138.964 61.6123 138.009C61.349 135.687 62.6963 134.074 65.0264 133.828C65.0656 133.825 65.1051 133.823 65.1445 133.822Z" fill="#357D30"/>
<path d="M117.933 133.822C119.136 133.808 119.736 134.096 120.571 134.915L119.595 135.618C116.945 133.293 114.343 137.336 116.45 139.417C117.467 140.422 118.743 140.251 119.692 139.227C120.056 139.472 120.382 139.722 120.729 139.988C120.138 140.658 119.401 141.083 118.506 141.192C117.515 141.317 116.514 141.042 115.727 140.428C113.508 138.67 114.094 134.746 116.868 133.995C117.208 133.903 117.477 133.864 117.826 133.828C117.862 133.825 117.897 133.823 117.933 133.822Z" fill="#357D30"/>
<path fill-rule="evenodd" clip-rule="evenodd" d="M131.995 133.98C133.596 133.917 135.817 134.001 135.353 136.264C135.254 136.743 134.732 137.06 134.312 137.283C135.566 137.798 135.943 138.521 135.571 139.835C134.555 141.416 132.234 141.048 130.556 141.033C130.545 138.685 130.547 136.336 130.564 133.987C130.996 133.991 131.532 133.998 131.995 133.98ZM131.814 137.93L131.813 139.955C132.509 139.963 133.56 140.048 134.136 139.678C135.581 137.85 132.812 137.924 131.814 137.93ZM131.817 135.058L131.812 136.854C132.563 136.865 133.25 136.961 133.9 136.6C135.017 134.99 132.769 135.041 131.817 135.058Z" fill="#357D30"/>
<path fill-rule="evenodd" clip-rule="evenodd" d="M193.456 133.984C196.147 133.974 199.652 133.549 199.8 137.429C199.842 138.547 199.466 139.269 198.707 140.063C197.135 141.308 195.385 141.046 193.442 141.033C193.432 138.684 193.437 136.334 193.456 133.984ZM194.704 135.116V139.899C195.891 139.9 196.835 139.978 197.837 139.208C198.39 138.537 198.545 138.072 198.471 137.204C198.285 135.028 196.314 135.097 194.704 135.116Z" fill="#357D30"/>
<path d="M53.7812 138.894C54.4224 137.261 55.0546 135.625 55.6777 133.985C56.298 133.993 56.9338 133.984 57.5557 133.984L57.5566 141.037L56.3662 141.032V135.498L56.3174 135.395C56.093 135.661 54.4127 140.462 54.2012 141.036L53.3428 141.029C52.7926 139.403 51.8682 136.8 51.2158 135.256C51.1671 137.12 51.206 139.159 51.2041 141.036L50 141.034L50.0059 133.983C50.6252 133.995 51.2746 133.984 51.8965 133.983L53.7812 138.894Z" fill="#357D30"/>
<path d="M93.4033 133.984C94.5555 135.736 95.6962 137.495 96.8242 139.262L96.8301 133.986L98.0928 133.987C98.0942 134.76 98.1667 140.844 98.0029 141.036L96.5117 141.034C95.3364 139.226 94.1713 137.411 93.0166 135.589C92.9902 137.387 93.0089 139.235 93.0068 141.037L91.7598 141.034L91.7617 133.983L93.4033 133.984Z" fill="#357D30"/>
<path d="M121.553 133.984C123.098 134.005 124.67 133.988 126.217 133.986L126.216 135.117L122.806 135.116L122.809 136.858L126.026 136.851L126.028 137.985L122.806 137.986V139.897L126.382 139.898L126.38 141.037L121.543 141.034L121.553 133.984Z" fill="#357D30"/>
<path d="M60.415 133.986L60.4102 141.036L59.1523 141.033C59.1418 138.684 59.1458 136.334 59.1641 133.984L60.415 133.986Z" fill="#357D30"/>
<path fill-rule="evenodd" clip-rule="evenodd" d="M68.7607 133.986C70.1247 133.98 73.3334 133.611 73.751 135.374C74.0738 136.738 73.534 137.571 72.2041 137.922L74.0566 141.036L72.5322 141.033C72.0585 140.08 71.4421 139 70.9316 138.05H70.0078V141.036L68.751 141.033C68.7421 138.685 68.7458 136.335 68.7607 133.986ZM70.0098 135.059L70.0107 136.983C70.7143 136.986 71.5506 137.037 72.1924 136.762C73.5329 135.008 71.03 135.041 70.0098 135.059Z" fill="#357D30"/>
<path d="M87.8398 135.118L84.5557 135.116V136.981C85.2472 136.978 86.9821 136.935 87.583 137.025C87.6954 137.227 87.6587 137.671 87.6562 137.923L87.6387 137.987C87.3768 138.167 85.0623 138.093 84.5557 138.09L84.5537 141.036L83.2969 141.033C83.2861 138.685 83.2888 136.335 83.3057 133.986L87.8389 133.984L87.8398 135.118Z" fill="#357D30"/>
<path d="M90.2373 133.986L90.2324 141.036L88.9775 141.033C88.9668 138.684 88.9698 136.334 88.9873 133.984L90.2373 133.986Z" fill="#357D30"/>
<path fill-rule="evenodd" clip-rule="evenodd" d="M103.023 133.983C104.017 136.283 105.121 138.72 106.046 141.036L104.631 141.034L103.978 139.419L103.051 139.415L100.924 139.414L100.291 141.035L98.8828 141.033L101.951 133.992L103.023 133.983ZM102.408 135.63C102.1 136.424 101.618 137.566 101.37 138.351L103.522 138.347C103.373 137.934 102.661 135.811 102.408 135.63Z" fill="#357D30"/>
<path d="M111.904 139.246L111.909 133.984L113.18 133.987C113.181 134.836 113.243 140.757 113.107 141.036L111.589 141.034C110.51 139.262 109.226 137.357 108.094 135.597L108.09 141.036L106.829 141.033C106.82 138.685 106.823 136.335 106.838 133.986L108.486 133.984L111.904 139.246Z" fill="#357D30"/>
<path d="M145.78 133.992L149.179 139.231L149.18 133.991L150.444 133.988C150.446 134.928 150.603 140.641 150.325 141.034L148.878 141.033L145.374 135.6C145.352 137.398 145.37 139.235 145.368 141.036L144.114 141.033L144.123 133.985L145.78 133.992Z" fill="#357D30"/>
<path d="M153.295 133.986V137.027L156.254 133.996L157.953 133.988C156.862 135.073 155.764 136.151 154.658 137.221C155.335 138.008 156.188 138.884 156.902 139.654C157.325 140.111 157.744 140.571 158.159 141.034L156.428 141.033C155.378 139.867 154.334 138.695 153.296 137.518L153.293 141.036L152.036 141.033C152.026 138.684 152.03 136.334 152.049 133.984L153.295 133.986Z" fill="#357D30"/>
<path d="M163.037 133.986L163.036 139.897L166.018 139.899L166.011 141.036L161.783 141.033L161.792 133.985L163.037 133.986Z" fill="#357D30"/>
<path d="M180.137 133.986L180.133 141.036L178.87 141.033L178.877 133.985L180.137 133.986Z" fill="#357D30"/>
<path fill-rule="evenodd" clip-rule="evenodd" d="M140.301 133.987C141.337 136.313 142.326 138.697 143.354 141.034L141.916 141.032L141.251 139.418L140.396 139.415L138.196 139.417L137.568 141.035L136.156 141.032C137.22 138.733 138.176 136.308 139.238 133.99L140.301 133.987ZM138.641 138.347L139.793 138.349L140.801 138.352C140.66 137.961 139.901 135.776 139.703 135.567L138.641 138.347Z" fill="#357D30"/>
<path d="M168.178 133.991L168.172 141.034L166.919 141.033C166.909 138.685 166.911 136.336 166.928 133.987L168.178 133.991Z" fill="#357D30"/>
<path d="M171.622 133.984C172.268 135.556 172.905 137.335 173.516 138.936C174.014 137.437 174.823 135.499 175.405 133.991L177.287 133.988L177.285 141.034L176.099 141.032L176.102 135.394L176.032 135.343C175.452 136.588 174.436 139.64 173.93 141.032L173.077 141.028C172.428 139.244 171.651 136.917 170.92 135.21C170.981 137.062 170.935 139.164 170.935 141.034L169.72 141.031C169.708 138.684 169.712 136.337 169.73 133.989L171.622 133.984Z" fill="#357D30"/>
<path d="M180.946 133.985C182.784 134.006 184.655 133.99 186.496 133.991L186.499 135.115L184.36 135.116L184.357 141.034L183.094 141.032V135.117H180.937L180.946 133.985Z" fill="#357D30"/>
<path d="M192.047 133.991L192.049 135.115L188.625 135.116L188.626 136.856L191.834 136.851V137.985L188.625 137.986V139.897L192.212 139.9L192.205 141.034L187.359 141.033L187.366 133.985L192.047 133.991Z" fill="#357D30"/>
<path d="M123.896 108.759C126.817 108.691 129.126 109.162 131.372 111.041C130.461 112.062 129.489 113.088 128.56 114.097C128.012 113.512 127.341 113.057 126.594 112.769C125.108 112.206 123.259 112.273 121.799 112.909C118.887 114.177 118.016 118.048 119.278 120.799C119.849 122.064 120.904 123.046 122.206 123.526C124.127 124.233 126.118 123.81 127.915 122.984L127.912 120.112L124.704 120.115L124.703 116.477L127.104 116.482H131.73V125.792C127.656 127.968 121.165 128.441 117.531 125.153C113.861 121.833 113.625 115.369 116.921 111.712C118.788 109.64 121.202 108.895 123.896 108.759Z" fill="#357D30"/>
<path fill-rule="evenodd" clip-rule="evenodd" d="M104.304 109.204C105.722 109.203 106.745 109.21 108.228 109.375C112.5 109.852 114.082 114.125 112.059 117.646C111.456 118.695 110.287 119.276 109.074 119.519C110.399 121.911 112.164 124.656 113.591 127.048L110.21 127.044L108.854 127.047L105.139 119.939L103.22 119.941L103.224 127.05L99.2646 127.046L99.2725 109.207L104.304 109.204ZM108.277 113.252C107.159 112.311 104.641 112.552 103.221 112.589L103.224 116.59C104.721 116.598 107.005 116.802 108.221 116.023C108.884 115.298 109.069 113.919 108.277 113.252Z" fill="#357D30"/>
<path d="M62.1465 112.858L53.9814 112.856V116.157C56.5336 116.184 59.1316 116.158 61.6875 116.158L61.6855 119.809C59.1845 119.757 56.4847 119.795 53.9795 119.806L53.9824 123.405L62.6084 123.4V127.049C58.4381 127.005 54.1939 127.046 50.0176 127.046L50.0254 109.207L62.1455 109.206L62.1465 112.858Z" fill="#357D30"/>
<path d="M63.9697 109.202C65.4696 109.212 66.9698 109.213 68.4697 109.204C69.9764 113.04 71.4268 117.025 72.8857 120.888C73.3921 119.735 73.9598 118.114 74.4209 116.912L77.376 109.208L81.6006 109.209C81.2016 110.387 80.2956 112.417 79.7949 113.628C78.0508 118.059 76.0849 122.63 74.2637 127.048L71.0811 127.047C70.5258 125.454 69.6445 123.481 69.0186 121.874C67.3728 117.649 65.5898 113.436 63.9697 109.202Z" fill="#357D30"/>
<path d="M95.7031 109.208V112.857L87.5303 112.856L87.5283 116.156L95.2461 116.159L95.2422 119.806C92.7113 119.765 90.0872 119.801 87.5488 119.8C87.487 120.173 87.5267 122.866 87.5283 123.401C90.3532 123.45 93.3278 123.404 96.1641 123.404L96.1631 127.048L83.5732 127.046L83.585 109.206L95.7031 109.208Z" fill="#357D30"/>
<path d="M199.975 122.097C199.975 122.868 200.058 126.636 199.92 127.048L194.813 127.046L187.015 114.33L187.012 127.048L183.048 127.044L183.055 109.209L188.432 109.211C190.803 113.218 193.536 117.678 196.033 121.603C195.942 117.584 196.023 113.253 196.022 109.209L199.974 109.207L199.975 122.097Z" fill="#357D30"/>
<path fill-rule="evenodd" clip-rule="evenodd" d="M139.956 109.206C143.044 109.204 147.626 109.055 148.53 113.018C149.231 116.087 148.102 118.733 144.893 119.534C146.22 121.932 147.964 124.664 149.398 127.043L144.662 127.046L140.939 119.94L139.05 119.939L139.051 127.045H135.074L135.086 109.209L139.956 109.206ZM144.063 113.236C142.956 112.335 140.484 112.544 139.049 112.587L139.051 116.59C140.551 116.598 142.848 116.811 144.044 115.996C144.704 115.258 144.87 113.893 144.063 113.236Z" fill="#357D30"/>
<path d="M163.646 112.856H155.473V116.157L163.187 116.163L163.184 119.804L155.508 119.799C155.429 120.067 155.469 122.989 155.473 123.403L164.106 123.406C164.109 124.57 164.14 125.896 164.087 127.046L151.509 127.044L151.517 109.209L163.646 109.208V112.856Z" fill="#357D30"/>
<path d="M179.506 109.211L179.51 112.855L171.326 112.857L171.323 116.155C173.88 116.188 176.493 116.161 179.054 116.162L179.049 119.802L171.377 119.799C171.266 120.142 171.321 122.889 171.325 123.402L179.958 123.409L179.963 127.045H167.378L167.387 109.208L179.506 109.211Z" fill="#357D30"/>
</svg>
