<svg width="250" height="250" viewBox="0 0 250 250" fill="none" xmlns="http://www.w3.org/2000/svg">
<mask id="path-1-inside-1_769_193" fill="white">
<path d="M0 48C0 21.4903 21.4903 0 48 0H202C228.51 0 250 21.4903 250 48V202C250 228.51 228.51 250 202 250H48C21.4903 250 0 228.51 0 202V48Z"/>
</mask>
<path d="M0 48C0 21.4903 21.4903 0 48 0H202C228.51 0 250 21.4903 250 48V202C250 228.51 228.51 250 202 250H48C21.4903 250 0 228.51 0 202V48Z" fill="white"/>
<path d="M48 0V2H202V0V-2H48V0ZM250 48H248V202H250H252V48H250ZM202 250V248H48V250V252H202V250ZM0 202H2V48H0H-2V202H0ZM48 250V248C22.5949 248 2 227.405 2 202H0H-2C-2 229.614 20.3858 252 48 252V250ZM250 202H248C248 227.405 227.405 248 202 248V250V252C229.614 252 252 229.614 252 202H250ZM202 0V2C227.405 2 248 22.5949 248 48H250H252C252 20.3858 229.614 -2 202 -2V0ZM48 0V-2C20.3858 -2 -2 20.3858 -2 48H0H2C2 22.5949 22.5949 2 48 2V0Z" fill="#DDDBDB" mask="url(#path-1-inside-1_769_193)"/>
<circle cx="180.388" cy="139.728" r="13.9458" fill="#273655"/>
<rect x="55.665" y="103.871" width="109.029" height="27.7819" rx="13.8909" transform="rotate(-26.6308 55.665 103.871)" fill="#36A477"/>
<rect x="89.0547" y="170.165" width="54.4109" height="27.7819" rx="13.8909" transform="rotate(-26.6308 89.0547 170.165)" fill="#36A477"/>
<rect x="72.6191" y="136.944" width="81.0085" height="27.7819" rx="13.8909" transform="rotate(-26.6308 72.6191 136.944)" fill="#36A477"/>
</svg>
