<svg width="250" height="250" viewBox="0 0 250 250" fill="none" xmlns="http://www.w3.org/2000/svg">
<mask id="path-1-inside-1_769_199" fill="white">
<path d="M0 48C0 21.4903 21.4903 0 48 0H202C228.51 0 250 21.4903 250 48V202C250 228.51 228.51 250 202 250H48C21.4903 250 0 228.51 0 202V48Z"/>
</mask>
<path d="M0 48C0 21.4903 21.4903 0 48 0H202C228.51 0 250 21.4903 250 48V202C250 228.51 228.51 250 202 250H48C21.4903 250 0 228.51 0 202V48Z" fill="white"/>
<path d="M48 0V2H202V0V-2H48V0ZM250 48H248V202H250H252V48H250ZM202 250V248H48V250V252H202V250ZM0 202H2V48H0H-2V202H0ZM48 250V248C22.5949 248 2 227.405 2 202H0H-2C-2 229.614 20.3858 252 48 252V250ZM250 202H248C248 227.405 227.405 248 202 248V250V252C229.614 252 252 229.614 252 202H250ZM202 0V2C227.405 2 248 22.5949 248 48H250H252C252 20.3858 229.614 -2 202 -2V0ZM48 0V-2C20.3858 -2 -2 20.3858 -2 48H0H2C2 22.5949 22.5949 2 48 2V0Z" fill="#DDDBDB" mask="url(#path-1-inside-1_769_199)"/>
<path d="M136.923 103.521C141.026 103.476 145.183 103.513 149.291 103.513L171.676 103.511L184.09 103.528C186.727 103.548 189.628 103.5 192.234 103.843C190.931 104.098 189.571 104.005 188.195 104.264C186.957 104.497 186.307 104.807 185.161 105.187C181.981 106.24 179.267 107.658 176.612 109.757C172.77 112.795 169.595 117.324 168.87 122.25C168.709 123.341 168.773 124.265 168.758 125.288C168.716 128.225 169.095 130.143 170.418 132.766C170.938 133.998 171.508 134.928 172.305 136.016C175.7 140.647 180.797 143.618 186.147 145.455C187.999 146.09 190.623 146.41 192.591 146.676C191.536 146.863 189.26 146.813 188.158 146.798C186.683 146.775 185.208 146.774 183.732 146.796C182.018 146.848 180.277 146.812 178.559 146.812L170.363 146.819L145.337 146.811C141.567 146.819 137.797 146.807 134.027 146.776C132.259 146.775 129.964 146.994 128.31 146.669C130.292 146.389 132.245 146.162 134.188 145.583C138.379 144.335 141.899 142.53 145.186 139.674C156.318 130.001 153.804 115.216 141.693 107.852C138.854 106.127 135.399 104.885 132.17 104.136C131.528 103.987 129.96 104.163 129.483 103.888C130.242 103.452 135.762 103.552 136.923 103.521Z" fill="#CC9933"/>
<path d="M67.6343 103.523C71.6928 103.448 75.9597 103.509 80.0331 103.51L103.184 103.511C107.258 103.497 111.332 103.507 115.405 103.542C117.476 103.562 120.583 103.483 122.536 103.881C121.385 104.074 119.942 103.953 118.814 104.211C114.796 105.127 110.567 106.826 107.329 109.401C106.952 109.779 106.602 110.402 106.169 110.704C98.8155 115.91 96.7461 126.02 101.157 133.821C104.646 139.992 110.287 143.456 116.887 145.593C118.756 146.198 120.815 146.248 122.698 146.726C120.911 146.89 119.118 146.819 117.332 146.792C115.909 146.783 114.485 146.784 113.062 146.795C111.544 146.858 109.972 146.815 108.446 146.813L79.0987 146.811C74.5187 146.839 69.9386 146.826 65.3588 146.773C63.2283 146.761 61.1018 146.952 59.005 146.683C65.1196 145.892 69.561 144.415 74.5327 140.707C83.4808 134.032 85.9672 122.182 78.5177 113.287C74.5632 108.565 69.4378 105.835 63.5314 104.298C62.3113 103.988 60.9144 104.033 59.6298 103.901L59.6171 103.848C60.3756 103.507 66.3301 103.548 67.6343 103.523Z" fill="#CC9933"/>
<path d="M128.712 150.993C132.859 150.845 137.787 150.96 142.005 150.961L184.699 150.964C187.949 150.962 192.143 150.841 195.337 151.025C195.228 152.972 195.329 155.063 195.298 157.022C195.285 157.896 195.362 158.966 195.236 159.817C194.915 159.83 194.661 159.827 194.339 159.815C192.881 159.704 190.174 159.792 188.636 159.793L177.974 159.786L134.292 159.791C133.376 159.79 128.217 159.919 127.846 159.516C127.77 158.977 127.822 157.952 127.824 157.37C127.818 156.001 127.826 154.631 127.846 153.262C127.853 152.701 127.688 151.598 127.969 151.202C128.165 151.026 128.445 151.025 128.712 150.993Z" fill="#009742"/>
<path d="M56.0643 159.785C55.9567 159.139 55.9142 151.839 56.0122 151.155C56.609 150.853 63.5002 150.964 64.6344 150.964L121.843 150.965C122.079 151.001 122.37 151.014 122.533 151.167C122.575 151.346 122.609 151.819 122.588 151.983C122.433 153.149 122.912 159.391 122.216 159.909C120.943 159.693 118.271 159.781 116.853 159.785L107.701 159.792L72.6493 159.777C68.6785 159.8 64.7078 159.801 60.737 159.778C59.5627 159.772 57.1009 159.876 56.0643 159.785Z" fill="#009742"/>
<path d="M55.9917 90.6669C57.4946 90.5893 59.2332 90.6233 60.7477 90.6247L190.454 90.631C191.461 90.624 195.244 90.4851 195.943 90.7703V99.58C195.032 99.7147 193.078 99.6459 192.068 99.6442L184.738 99.6294L68.1404 99.6342C64.2682 99.6368 59.8262 99.5376 56.0039 99.6703C55.8815 96.9339 55.9806 93.4745 55.9917 90.6669Z" fill="#009742"/>
</svg>
