<svg width="250" height="250" viewBox="0 0 250 250" fill="none" xmlns="http://www.w3.org/2000/svg">
<mask id="path-1-inside-1_769_201" fill="white">
<path d="M0 48C0 21.4903 21.4903 0 48 0H202C228.51 0 250 21.4903 250 48V202C250 228.51 228.51 250 202 250H48C21.4903 250 0 228.51 0 202V48Z"/>
</mask>
<path d="M0 48C0 21.4903 21.4903 0 48 0H202C228.51 0 250 21.4903 250 48V202C250 228.51 228.51 250 202 250H48C21.4903 250 0 228.51 0 202V48Z" fill="white"/>
<path d="M48 0V2H202V0V-2H48V0ZM250 48H248V202H250H252V48H250ZM202 250V248H48V250V252H202V250ZM0 202H2V48H0H-2V202H0ZM48 250V248C22.5949 248 2 227.405 2 202H0H-2C-2 229.614 20.3858 252 48 252V250ZM250 202H248C248 227.405 227.405 248 202 248V250V252C229.614 252 252 229.614 252 202H250ZM202 0V2C227.405 2 248 22.5949 248 48H250H252C252 20.3858 229.614 -2 202 -2V0ZM48 0V-2C20.3858 -2 -2 20.3858 -2 48H0H2C2 22.5949 22.5949 2 48 2V0Z" fill="#DDDBDB" mask="url(#path-1-inside-1_769_201)"/>
<path d="M130.711 105.744C133.902 105.843 137.398 105.777 140.603 105.777L164.422 105.777C165.119 105.78 167.094 105.748 167.655 105.895L167.715 106.079C167.185 107.721 158.16 115.769 156.624 117.656C155.547 118.981 152.762 121.286 151.534 122.703C150.995 123.326 150.058 124.064 149.5 124.785L149.452 124.849C148.76 125.421 148.053 126.195 147.408 126.846C141.904 132.401 136.444 138.085 130.759 143.455C130.562 135.905 130.706 127.852 130.706 120.264L130.701 110.983C130.696 109.38 130.622 107.288 130.711 105.744Z" fill="#F63900"/>
<path d="M130.859 54.511C131.612 54.6174 134.07 54.5745 134.891 54.5746L142.776 54.5738C151.023 54.5738 159.632 54.6975 167.848 54.5746C165.563 57.9043 161.834 60.7531 159.127 63.7768C158.747 64.2005 158.233 64.5872 157.842 65.0077C155.484 67.5402 152.874 69.8289 150.612 72.4519C150.226 72.8995 149.712 73.1737 149.306 73.6644C149.063 74.1985 147.962 75.0417 147.496 75.5058L141.331 81.6524L135.248 87.7403C133.808 89.1954 132.48 90.8496 130.76 91.9849C130.548 85.2919 130.704 77.8284 130.705 71.0479L130.7 60.6007C130.699 59.6592 130.589 55.0283 130.859 54.511Z" fill="#F63900"/>
<path d="M82.9023 105.78L116.031 105.778C117.184 105.781 119.14 105.739 120.25 105.802C118.859 106.816 119.142 107.071 118.108 108.131L101.532 124.816C100.389 125.965 99.1472 127.042 98.0364 128.221C94.2536 132.238 90.4164 136.158 86.3859 139.93C85.1975 141.043 84.1691 142.241 82.9023 143.355V105.78Z" fill="#F63900"/>
<path d="M82.9023 54.5763C90.0654 54.4781 97.4618 54.5762 104.644 54.5773L113.824 54.5677C114.577 54.5662 119.476 54.4451 119.844 54.7579C119.765 55.0486 115.62 59.3647 115.118 59.8747L93.1699 82.0253C91.8835 83.3231 90.7176 84.5094 89.3725 85.748C87.3178 87.6399 85.2374 90.446 82.9023 91.9753V54.5763Z" fill="#F63900"/>
<path d="M82.9023 157.178L108.107 157.18C111.991 157.18 116.047 157.123 119.916 157.197C119.247 157.859 118.732 158.524 118.138 159.243C117.732 159.68 117.278 160.085 116.885 160.531C116.739 160.696 116.057 161.628 115.976 161.668C115.026 162.148 114.706 162.949 114.068 163.573L86.0037 191.506L83.8522 193.691C83.6778 193.865 83.5623 194.038 83.3988 194.214C83.3036 194.316 83.0686 194.418 82.9686 194.511H82.9023V157.178Z" fill="#F63900"/>
</svg>
