<svg width="250" height="250" viewBox="0 0 250 250" fill="none" xmlns="http://www.w3.org/2000/svg">
<rect width="250" height="250" fill="white"/>
<path d="M123.486 103.954C123.886 104 125.626 104.609 126.157 104.773C128.872 105.595 131.575 106.457 134.265 107.359C153.473 113.831 172.79 122.764 189.665 134.132C191.452 135.336 193.203 136.614 195 137.824C188.607 136.833 182.288 134.985 175.941 133.74C172.97 133.157 169.931 132.417 166.969 131.752C168.127 141.27 168.713 150.849 168.723 160.437C168.778 169.386 167.206 186.601 162.141 194.244C161.84 192.993 161.662 191.597 161.43 190.319C157.391 168.108 150.418 145.826 139.041 126.151C135.671 120.415 131.987 114.87 128.006 109.54C126.972 108.132 124.101 105.249 123.486 103.954Z" fill="#86C327"/>
<path d="M76.1597 131.216C76.5049 129.94 76.7398 128.569 77.0945 127.254C78.6074 121.765 80.2281 116.307 81.9555 110.882C86.38 97.6968 91.6972 84.8285 97.8704 72.3661C99.7317 68.5345 101.672 64.7418 103.69 60.9905C104.459 59.5292 105.626 57.0985 106.44 55.7568C106.302 57.0634 106.088 58.3596 105.902 59.6599C104.646 68.4161 103.093 77.0969 101.89 85.8631C105.253 84.9961 108.853 84.6434 112.295 84.2112C127.266 82.3312 142.932 82.3908 157.606 86.2105C159.363 86.6678 161.102 87.105 162.871 87.5168C163.329 87.6115 163.536 87.5616 163.776 87.8553C163.429 88.1793 162.896 88.2317 162.416 88.3357C158.367 89.2232 154.252 89.941 150.242 90.99C130.746 96.09 111.559 104.002 95.0046 115.633C88.3483 120.357 82.0495 125.565 76.1597 131.216Z" fill="#E67817"/>
<path d="M55 123.135C76.8392 137.699 101.434 148.575 127.578 152.101C133.925 152.957 141.339 153.328 147.749 153.578C145.9 155.012 142.311 156.836 140.232 158.132C136.713 160.323 132.732 162.296 129.039 164.2C114.772 171.535 99.9262 177.683 84.651 182.582C83.059 183.101 78.5435 184.794 77.1215 185.025L73.0852 186.379C74.0689 185.54 75.9569 184.203 77.045 183.43C79.0543 181.664 81.8664 179.96 84.0281 178.298C88.5508 174.819 93.2548 171.495 97.7908 168.042C95.4519 166.594 92.8509 164.594 90.6162 162.957C78.8692 154.35 68.0563 143.953 60.0333 131.742C58.617 129.586 55.9085 125.485 55 123.135Z" fill="#7B2F7E"/>
<path d="M113.308 124.353C115.62 123.817 118.041 124.566 119.646 126.314C121.251 128.061 121.792 130.537 121.062 132.794C120.332 135.052 118.444 136.742 116.119 137.219C112.589 137.943 109.132 135.695 108.362 132.174C107.593 128.653 109.797 125.168 113.308 124.353Z" fill="#E67817"/>
</svg>
