<svg width="250" height="250" viewBox="0 0 250 250" fill="none" xmlns="http://www.w3.org/2000/svg">
<mask id="path-1-inside-1_769_205" fill="white">
<path d="M0 48C0 21.4903 21.4903 0 48 0H202C228.51 0 250 21.4903 250 48V202C250 228.51 228.51 250 202 250H48C21.4903 250 0 228.51 0 202V48Z"/>
</mask>
<path d="M0 48C0 21.4903 21.4903 0 48 0H202C228.51 0 250 21.4903 250 48V202C250 228.51 228.51 250 202 250H48C21.4903 250 0 228.51 0 202V48Z" fill="white"/>
<path d="M48 0V2H202V0V-2H48V0ZM250 48H248V202H250H252V48H250ZM202 250V248H48V250V252H202V250ZM0 202H2V48H0H-2V202H0ZM48 250V248C22.5949 248 2 227.405 2 202H0H-2C-2 229.614 20.3858 252 48 252V250ZM250 202H248C248 227.405 227.405 248 202 248V250V252C229.614 252 252 229.614 252 202H250ZM202 0V2C227.405 2 248 22.5949 248 48H250H252C252 20.3858 229.614 -2 202 -2V0ZM48 0V-2C20.3858 -2 -2 20.3858 -2 48H0H2C2 22.5949 22.5949 2 48 2V0Z" fill="#DDDBDB" mask="url(#path-1-inside-1_769_205)"/>
<path d="M124.874 50.011L79.9199 125.149H124.874V50.011Z" fill="#0187BC"/>
<path d="M124.876 50.011L169.83 125.149H124.876V50.011Z" fill="#01B3F1"/>
<path d="M77.3514 130.286L67.0762 147.304H124.874V130.286H77.3514Z" fill="#202159"/>
<path d="M172.399 130.286L182.674 147.304H124.876V130.286H172.399Z" fill="#202159"/>
<path d="M172.399 130.286L182.674 147.304H124.876V130.286H172.399Z" fill="url(#paint0_linear_769_205)" fill-opacity="0.2"/>
<path d="M65.1502 152.763L54.875 169.46H125.196V152.763H65.1502Z" fill="#202159"/>
<path d="M184.6 152.763L194.875 169.46H125.196V152.763H184.6Z" fill="#202159"/>
<path d="M184.6 152.763L194.875 169.46H125.196V152.763H184.6Z" fill="url(#paint1_linear_769_205)" fill-opacity="0.2"/>
<defs>
<linearGradient id="paint0_linear_769_205" x1="182.674" y1="138.795" x2="124.876" y2="138.795" gradientUnits="userSpaceOnUse">
<stop stop-color="white" stop-opacity="0"/>
<stop offset="0.5" stop-color="white" stop-opacity="0.2"/>
<stop offset="1" stop-color="white"/>
</linearGradient>
<linearGradient id="paint1_linear_769_205" x1="194.875" y1="161.112" x2="125.196" y2="161.112" gradientUnits="userSpaceOnUse">
<stop stop-color="white" stop-opacity="0"/>
<stop offset="0.5" stop-color="white" stop-opacity="0.2"/>
<stop offset="1" stop-color="white"/>
</linearGradient>
</defs>
</svg>
