<svg width="250" height="250" viewBox="0 0 250 250" fill="none" xmlns="http://www.w3.org/2000/svg">
<rect width="250" height="250" fill="white"/>
<path d="M124.875 50.0107L79.9209 125.148H124.875V50.0107Z" fill="#0187BC"/>
<path d="M124.875 50.0107L169.829 125.148H124.875V50.0107Z" fill="#01B3F1"/>
<path d="M77.3524 130.286L67.0771 147.304H124.875V130.286H77.3524Z" fill="#202159"/>
<path d="M172.398 130.286L182.673 147.304H124.875V130.286H172.398Z" fill="#202159"/>
<path d="M172.398 130.286L182.673 147.304H124.875V130.286H172.398Z" fill="url(#paint0_linear_83_512)" fill-opacity="0.2"/>
<path d="M65.1502 152.763L54.875 169.46H125.196V152.763H65.1502Z" fill="#202159"/>
<path d="M184.6 152.763L194.875 169.46H125.196V152.763H184.6Z" fill="#202159"/>
<path d="M184.6 152.763L194.875 169.46H125.196V152.763H184.6Z" fill="url(#paint1_linear_83_512)" fill-opacity="0.2"/>
<defs>
<linearGradient id="paint0_linear_83_512" x1="182.673" y1="138.795" x2="124.875" y2="138.795" gradientUnits="userSpaceOnUse">
<stop stop-color="white" stop-opacity="0"/>
<stop offset="0.5" stop-color="white" stop-opacity="0.2"/>
<stop offset="1" stop-color="white"/>
</linearGradient>
<linearGradient id="paint1_linear_83_512" x1="194.875" y1="161.111" x2="125.196" y2="161.111" gradientUnits="userSpaceOnUse">
<stop stop-color="white" stop-opacity="0"/>
<stop offset="0.5" stop-color="white" stop-opacity="0.2"/>
<stop offset="1" stop-color="white"/>
</linearGradient>
</defs>
</svg>
