<svg width="250" height="250" viewBox="0 0 250 250" fill="none" xmlns="http://www.w3.org/2000/svg">
<mask id="path-1-inside-1_769_210" fill="white">
<path d="M0 48C0 21.4903 21.4903 0 48 0H202C228.51 0 250 21.4903 250 48V202C250 228.51 228.51 250 202 250H48C21.4903 250 0 228.51 0 202V48Z"/>
</mask>
<path d="M0 48C0 21.4903 21.4903 0 48 0H202C228.51 0 250 21.4903 250 48V202C250 228.51 228.51 250 202 250H48C21.4903 250 0 228.51 0 202V48Z" fill="white"/>
<path d="M48 0V2H202V0V-2H48V0ZM250 48H248V202H250H252V48H250ZM202 250V248H48V250V252H202V250ZM0 202H2V48H0H-2V202H0ZM48 250V248C22.5949 248 2 227.405 2 202H0H-2C-2 229.614 20.3858 252 48 252V250ZM250 202H248C248 227.405 227.405 248 202 248V250V252C229.614 252 252 229.614 252 202H250ZM202 0V2C227.405 2 248 22.5949 248 48H250H252C252 20.3858 229.614 -2 202 -2V0ZM48 0V-2C20.3858 -2 -2 20.3858 -2 48H0H2C2 22.5949 22.5949 2 48 2V0Z" fill="#DDDBDB" mask="url(#path-1-inside-1_769_210)"/>
<path d="M121.062 152.133V192.055L98.0938 176.784V128.796L121.062 152.133Z" fill="#CA2335"/>
<path d="M148.406 176.784L125.438 192.055V152.133L148.406 134.13V176.784Z" fill="#CA2335"/>
<path d="M93.7188 174.555L70.75 160.336V141.939L93.7188 124.242V174.555Z" fill="#CA2335"/>
<path d="M175.75 160.336L152.781 174.555V130.701L175.75 112.698V160.336Z" fill="#CA2335"/>
<path d="M121.062 152.133V192.055L98.0938 176.784V128.796L121.062 152.133Z" fill="#CA2335"/>
<path d="M148.406 176.784L125.438 192.055V152.133L148.406 134.13V176.784Z" fill="#CA2335"/>
<path d="M93.7188 174.555L70.75 160.336V141.939L93.7188 124.242V174.555Z" fill="#CA2335"/>
<path d="M175.75 160.336L152.781 174.555V130.701L175.75 112.698V160.336Z" fill="#CA2335"/>
<path d="M148.406 71.9763V116.526L125.438 134.901V58.0107L148.406 71.9763Z" fill="#76BCEF"/>
<path d="M121.062 133.372L98.0938 109.502V71.9763L121.062 58.0107V133.372Z" fill="#76BCEF"/>
<path d="M93.7188 108.912L70.75 126.579V88.6357L93.7188 74.417V108.912Z" fill="#76BCEF"/>
<path d="M175.75 88.6357V94.6514L152.781 113.026V74.417L175.75 88.6357Z" fill="#76BCEF"/>
<path d="M121.062 150.133V155.62H120.516L98.0938 132.282V126.796L121.062 150.133Z" fill="#7A2528"/>
<path d="M148.406 137.617L125.438 155.62V150.133L148.406 132.13V137.617Z" fill="#7A2528"/>
<path d="M93.7188 127.73L70.75 145.426V139.94L93.7188 122.242V127.73Z" fill="#7A2528"/>
<path d="M175.75 116.186L152.781 134.189V128.701L175.75 110.698V116.186Z" fill="#7A2528"/>
<path d="M60.3594 150.433V141.136L95.9062 113.792L123.797 142.776L181.219 96.8389L178.484 90.8232L200.359 88.6357L189.969 109.964L186.141 105.042L125.438 152.62H120.516L93.7188 124.729L60.3594 150.433Z" fill="url(#paint0_linear_769_210)"/>
<defs>
<linearGradient id="paint0_linear_769_210" x1="200.359" y1="120.628" x2="60.3594" y2="120.628" gradientUnits="userSpaceOnUse">
<stop stop-color="#55A0C9"/>
<stop offset="0.5" stop-color="#1D6699"/>
<stop offset="1" stop-color="#205795"/>
</linearGradient>
</defs>
</svg>
