<svg width="250" height="250" viewBox="0 0 250 250" fill="none" xmlns="http://www.w3.org/2000/svg">
<mask id="path-1-inside-1_769_212" fill="white">
<path d="M0 48C0 21.4903 21.4903 0 48 0H202C228.51 0 250 21.4903 250 48V202C250 228.51 228.51 250 202 250H48C21.4903 250 0 228.51 0 202V48Z"/>
</mask>
<path d="M0 48C0 21.4903 21.4903 0 48 0H202C228.51 0 250 21.4903 250 48V202C250 228.51 228.51 250 202 250H48C21.4903 250 0 228.51 0 202V48Z" fill="white"/>
<path d="M48 0V2H202V0V-2H48V0ZM250 48H248V202H250H252V48H250ZM202 250V248H48V250V252H202V250ZM0 202H2V48H0H-2V202H0ZM48 250V248C22.5949 248 2 227.405 2 202H0H-2C-2 229.614 20.3858 252 48 252V250ZM250 202H248C248 227.405 227.405 248 202 248V250V252C229.614 252 252 229.614 252 202H250ZM202 0V2C227.405 2 248 22.5949 248 48H250H252C252 20.3858 229.614 -2 202 -2V0ZM48 0V-2C20.3858 -2 -2 20.3858 -2 48H0H2C2 22.5949 22.5949 2 48 2V0Z" fill="#DDDBDB" mask="url(#path-1-inside-1_769_212)"/>
<g clip-path="url(#clip0_769_212)">
<path d="M103.192 142.428C103.559 142.448 103.852 142.623 104.113 142.88C111.203 149.864 118.129 157.018 125.285 163.936C125.983 164.611 126.622 165.354 127.312 166.042L135.996 174.715C138.022 176.74 140.163 178.686 142.069 180.817C142.485 181.387 141.162 182.197 140.834 182.488C138.274 184.765 135.195 186.501 132.101 187.934C131.113 188.36 130.057 188.584 129.035 188.897C123.406 190.621 117.744 190.126 112.323 187.789C106.496 184.991 102.457 180.492 97.9925 175.979L90.1785 168.204L77.3397 155.405C76.6718 154.73 72.6944 150.992 72.6729 150.426L72.7563 150.365C73.2452 150.408 74.0147 150.683 74.5297 150.812C75.506 151.056 76.546 151.337 77.5306 151.508C80.717 152.06 83.4431 152.177 86.6238 151.548C87.6544 151.342 88.9002 151.222 89.8902 150.868C94.1731 149.335 98.2589 147.139 101.533 143.937C101.996 143.484 102.689 142.775 103.192 142.428Z" fill="#000082"/>
<path d="M115.066 94.7612C115.692 94.9375 118.503 97.938 119.147 98.5921L126.043 105.483C126.995 106.442 128.745 108.32 129.735 109.165C129.299 109.789 128.297 110.743 127.743 111.284C126.927 112.082 126.12 112.889 125.323 113.706C122.227 116.902 119.157 120.139 115.887 123.159C113.321 125.529 111.019 128.626 107.687 129.905C106.227 130.427 104.663 130.596 103.125 130.395C97.2996 129.597 92.9104 123.893 93.8248 118.069C94.3556 114.69 97.03 112.567 99.3421 110.305L105.356 104.365L111.675 98.0419C112.593 97.1238 114.092 95.4821 115.066 94.7612Z" fill="#DAA621"/>
<path d="M150.89 73.9354C150.733 73.4254 150.412 72.5891 150.533 72.1057L150.627 72.011C151.166 72.2311 153.138 74.1624 153.424 74.6333C154.102 75.4557 154.855 76.095 155.597 76.8589L160.192 81.6048L175.497 97.3649C177.818 99.729 180.284 101.983 182.375 104.541C183.306 105.677 184.291 106.718 185.195 107.898C188.902 112.739 191.504 118.411 190.989 124.635C190.686 128.315 189.335 131.72 187.285 134.803C186.759 135.614 185.701 136.817 185.045 137.591C182.56 140.522 179.885 143.278 177.187 146.011C176.684 146.52 176.217 147.099 175.696 147.617C173.182 150.116 170.752 152.664 168.127 155.047C166.827 156.228 165.476 157.737 164.109 158.856C163.304 159.498 162.563 160.225 161.814 160.93C161.381 161.339 160.75 161.76 160.361 162.175C159.224 163.387 158.051 164.218 156.727 165.192C154.743 166.696 152.664 167.7 150.281 168.397C148.392 168.949 146.336 169.44 144.378 169.209C140.859 168.792 137.767 167.827 134.745 165.969C132.977 164.881 131.222 163.954 129.663 162.492C125.89 159.448 122.505 155.991 119.061 152.586L112.237 145.856C111.216 144.853 110.118 143.837 109.122 142.827L105.202 138.875C104.488 138.167 103.161 136.866 102.383 136.255C102.066 135.743 101.756 135.411 101.359 134.962C102.536 134.783 103.383 135.079 104.444 135.162C106.061 135.24 107.7 134.886 109.216 134.399C112.502 133.345 114.339 131.169 116.693 128.843L123.959 121.645C127.444 118.238 130.939 114.894 134.34 111.388C135.65 110.104 136.842 108.69 138.138 107.395C142.549 102.985 146.806 99.2192 149.607 93.5037C152.582 87.4006 153.042 80.3743 150.89 73.9354Z" fill="#DAA621"/>
<path d="M119.85 56.5955H124.329C124.537 56.8982 124.623 56.8922 124.993 56.9428C138.977 58.8152 150.151 72.7533 147.036 86.9404C145.301 94.8435 139.373 99.3472 134.124 104.936C133.514 105.586 133.302 105.953 132.481 106.404C130.761 104.485 128.688 102.49 126.845 100.654L116.199 90.0274C115.68 89.5047 115.097 89.0266 114.615 88.5368C113.94 89.312 113.217 89.9787 112.499 90.7118C110.993 92.2561 109.466 93.7797 107.918 95.2823L97.1295 105.988C94.8319 108.293 92.7427 109.931 91.0002 112.769C86.8778 119.481 89.4422 127.826 95.5946 132.278C97.6227 133.745 98.9112 134.203 101.317 134.929C101.714 135.379 102.023 135.711 102.34 136.223C102.132 137.112 99.1294 139.757 98.2743 140.485C96.8806 141.697 95.5695 142.822 94.0114 143.81C90.8851 145.792 88.3353 146.568 84.6813 147.002C78.4305 147.692 72.1606 145.882 67.239 141.967C57.2597 134.076 53.3295 121.012 60.4147 109.862C62.2818 106.924 64.3564 104.936 66.8138 102.522C68.173 101.183 69.5255 99.8373 70.871 98.4845L89.6037 79.8012L102.139 67.2892C103.944 65.521 106.055 63.1955 108.039 61.7198C110.177 60.1285 113.167 58.5165 115.718 57.6562C116.845 57.276 118.492 57.0586 119.684 56.8022C119.74 56.7333 119.795 56.6644 119.85 56.5955Z" fill="#000082"/>
</g>
<defs>
<clipPath id="clip0_769_212">
<rect width="140" height="136.831" fill="white" transform="translate(54.875 56.5955)"/>
</clipPath>
</defs>
</svg>
