<svg width="250" height="250" viewBox="0 0 250 250" fill="none" xmlns="http://www.w3.org/2000/svg">
<mask id="path-1-inside-1_769_209" fill="white">
<path d="M0 48C0 21.4903 21.4903 0 48 0H202C228.51 0 250 21.4903 250 48V202C250 228.51 228.51 250 202 250H48C21.4903 250 0 228.51 0 202V48Z"/>
</mask>
<path d="M0 48C0 21.4903 21.4903 0 48 0H202C228.51 0 250 21.4903 250 48V202C250 228.51 228.51 250 202 250H48C21.4903 250 0 228.51 0 202V48Z" fill="white"/>
<path d="M48 0V2H202V0V-2H48V0ZM250 48H248V202H250H252V48H250ZM202 250V248H48V250V252H202V250ZM0 202H2V48H0H-2V202H0ZM48 250V248C22.5949 248 2 227.405 2 202H0H-2C-2 229.614 20.3858 252 48 252V250ZM250 202H248C248 227.405 227.405 248 202 248V250V252C229.614 252 252 229.614 252 202H250ZM202 0V2C227.405 2 248 22.5949 248 48H250H252C252 20.3858 229.614 -2 202 -2V0ZM48 0V-2C20.3858 -2 -2 20.3858 -2 48H0H2C2 22.5949 22.5949 2 48 2V0Z" fill="#DDDBDB" mask="url(#path-1-inside-1_769_209)"/>
<path d="M174.392 63.9163L174.35 103.287L115.122 103.28L115.182 122.97C107.741 123.084 99.017 123.196 91.601 122.925C95.959 128.034 100.067 133.467 104.318 138.674C106.878 141.811 109.787 145.421 113.79 141.671C115.206 139.917 115.257 138.465 115.286 136.285C115.344 131.862 115.155 127.39 115.251 122.971L174.358 122.948L174.355 162.676C167.241 162.828 159.837 162.727 152.698 162.724L115.141 162.729L115.188 186.088C115.195 189.716 115.252 193.398 115.192 197.025C115.163 198.779 114.901 200.35 113.507 201.577C112.58 202.383 111.367 202.78 110.142 202.681C106.691 202.428 105.212 199.227 103.205 196.894C100.862 194.169 98.6371 191.348 96.4135 188.526C91.525 182.362 86.5859 176.239 81.5951 170.158C79.5856 167.706 77.8127 165.313 75.7172 162.894C75.4967 149.673 75.8109 136.225 75.6479 122.946C80.9887 122.974 86.3299 122.96 91.6703 122.905C89.2787 120.523 86.0289 115.956 83.7436 113.238C81.0575 110.042 78.2882 106.611 75.7299 103.309C75.4323 93.1135 75.9159 82.7431 75.6801 72.5295C75.6157 69.7416 75.5589 66.7261 75.6723 63.9573L75.769 63.3088C82.4762 63.6326 89.9579 63.4796 96.7309 63.4807L131.03 63.4827L158.386 63.4788C163.113 63.4777 169.79 63.6494 174.382 63.304L174.392 63.9163Z" fill="#0EC16E"/>
</svg>
