<svg width="250" height="250" viewBox="0 0 250 250" fill="none" xmlns="http://www.w3.org/2000/svg">
<rect width="250" height="250" fill="#E6E7EA"/>
<path fill-rule="evenodd" clip-rule="evenodd" d="M193.651 92.2227V102.877H56.3498V92.0781L125.072 59.5107L193.651 92.2227ZM125 75.1934C120.582 75.1934 117 78.7752 117 83.1934C117 87.6116 120.582 91.1934 125 91.1934C129.419 91.1934 133 87.6116 133 83.1934C133 78.7752 129.418 75.1934 125 75.1934Z" fill="white"/>
<path d="M93 168.081H114V110.021H136V168.081H157V110.021H179V168.081H186.713V175.224H193.654V189.511H56.3457V175.224H63.2881V168.081H71V110.021H93V168.081Z" fill="white"/>
</svg>
