<svg width="250" height="250" viewBox="0 0 250 250" fill="none" xmlns="http://www.w3.org/2000/svg">
<mask id="path-1-inside-1_769_227" fill="white">
<path d="M0 48C0 21.4903 21.4903 0 48 0H202C228.51 0 250 21.4903 250 48V202C250 228.51 228.51 250 202 250H48C21.4903 250 0 228.51 0 202V48Z"/>
</mask>
<path d="M0 48C0 21.4903 21.4903 0 48 0H202C228.51 0 250 21.4903 250 48V202C250 228.51 228.51 250 202 250H48C21.4903 250 0 228.51 0 202V48Z" fill="white"/>
<path d="M48 0V2H202V0V-2H48V0ZM250 48H248V202H250H252V48H250ZM202 250V248H48V250V252H202V250ZM0 202H2V48H0H-2V202H0ZM48 250V248C22.5949 248 2 227.405 2 202H0H-2C-2 229.614 20.3858 252 48 252V250ZM250 202H248C248 227.405 227.405 248 202 248V250V252C229.614 252 252 229.614 252 202H250ZM202 0V2C227.405 2 248 22.5949 248 48H250H252C252 20.3858 229.614 -2 202 -2V0ZM48 0V-2C20.3858 -2 -2 20.3858 -2 48H0H2C2 22.5949 22.5949 2 48 2V0Z" fill="#DDDBDB" mask="url(#path-1-inside-1_769_227)"/>
<path d="M115.434 187.954C113.005 188.369 110.523 188.585 108.022 188.585C93.741 188.585 80.3844 181.76 70.4169 169.372C60.7212 157.326 55.375 141.391 55.375 124.502C55.375 107.612 60.7212 91.6769 70.3988 79.649C80.3844 67.261 93.741 60.4368 108.022 60.4368C122.302 60.4368 135.659 67.261 145.627 79.649C147.928 82.494 149.976 85.573 151.77 88.832H172.956C164.981 74.6614 152.567 65.3704 137.036 60.8149C138.921 60.5628 140.824 60.4368 142.745 60.4368C157.026 60.4368 170.382 67.261 180.349 79.649C185.497 86.0231 189.411 93.5134 191.948 101.652H142.962C136.438 85.4829 123.227 74.4093 108.003 74.4093C86.3468 74.4093 68.7134 96.8806 68.7134 124.52C68.7134 149.008 80.3663 180.338 115.416 187.954H115.434Z" fill="url(#paint0_linear_769_227)"/>
<path d="M194.85 115.352H124.895V150.536H141.569C138.596 156.748 134.591 162.06 129.879 166.111C148.872 168.164 156.23 151.202 159.002 139.804H137.473V128.173H182.2C180.732 154.101 163.443 174.61 142.747 174.61C122.05 174.61 103.456 152.138 103.456 124.5C103.456 107.682 109.98 92.7912 119.966 83.6981C107.788 80.4751 94.8481 90.5043 91.0059 112.652C90.4079 116.523 90.1179 120.484 90.1179 124.5C90.1179 141.389 95.4644 157.324 105.142 169.37C115.109 181.758 128.466 188.582 142.747 188.582C157.027 188.582 170.384 181.758 180.351 169.37C190.047 157.324 195.375 141.389 195.375 124.5C195.375 121.402 195.194 118.359 194.85 115.352Z" fill="#3333FF"/>
<defs>
<linearGradient id="paint0_linear_769_227" x1="139.972" y1="61.5171" x2="83.6068" y2="218.078" gradientUnits="userSpaceOnUse">
<stop stop-color="#00FFFF"/>
<stop offset="0.32" stop-color="#10BEFF"/>
<stop offset="1" stop-color="#3333FF"/>
</linearGradient>
</defs>
</svg>
