<svg width="250" height="250" viewBox="0 0 250 250" fill="none" xmlns="http://www.w3.org/2000/svg">
<rect width="250" height="250" fill="white"/>
<path fill-rule="evenodd" clip-rule="evenodd" d="M190.987 56.9933C193.197 56.9933 194.988 58.7753 194.987 60.985C194.976 101.404 194.994 171.538 194.999 188.959C194.999 191.17 193.206 192.96 190.994 192.958L114.679 192.875C114.679 192.875 114.512 139.279 114.49 112.72L114.447 94.0022C114.427 85.264 113.722 74.8717 120.613 68.2541C123.817 65.2121 128.093 63.5581 132.51 63.652C135.544 63.7187 139.503 64.7795 141.659 67.0293C143.138 68.5735 144.256 71.4725 144.084 73.6291C143.288 83.6584 132.969 89.5894 129.47 98.4434C128.077 101.815 127.794 105.305 127.859 108.912C127.912 111.825 128.006 114.367 130.107 116.664C132.605 119.394 137.183 119.542 139.821 116.945C141.68 115.113 142.033 113.523 141.991 111.003C142.056 109 141.815 104.618 142.639 103.018C144.313 99.8914 147.148 97.4673 149.279 94.6193C155.961 85.6882 161.322 73.5577 155.682 62.7707C154.769 61.0251 153.177 57.5047 151.149 56.9933H190.987Z" fill="#089D3C"/>
<path d="M55.0044 60.9946C55.002 58.7838 56.7935 56.9902 59.0044 56.9902H112.134C106.318 61.9358 101.703 71.0785 100.983 78.6199C100.342 85.3324 100.677 92.4155 100.707 99.1863C100.736 130.46 100.876 193.009 100.876 193.009L59.1426 192.999C56.9355 192.998 55.146 191.21 55.1436 189.003L55.0044 60.9946Z" fill="#089D3C"/>
</svg>
