<svg width="250" height="250" viewBox="0 0 250 250" fill="none" xmlns="http://www.w3.org/2000/svg">
<mask id="path-1-inside-1_769_230" fill="white">
<path d="M0 48C0 21.4903 21.4903 0 48 0H202C228.51 0 250 21.4903 250 48V202C250 228.51 228.51 250 202 250H48C21.4903 250 0 228.51 0 202V48Z"/>
</mask>
<path d="M0 48C0 21.4903 21.4903 0 48 0H202C228.51 0 250 21.4903 250 48V202C250 228.51 228.51 250 202 250H48C21.4903 250 0 228.51 0 202V48Z" fill="white"/>
<path d="M48 0V2H202V0V-2H48V0ZM250 48H248V202H250H252V48H250ZM202 250V248H48V250V252H202V250ZM0 202H2V48H0H-2V202H0ZM48 250V248C22.5949 248 2 227.405 2 202H0H-2C-2 229.614 20.3858 252 48 252V250ZM250 202H248C248 227.405 227.405 248 202 248V250V252C229.614 252 252 229.614 252 202H250ZM202 0V2C227.405 2 248 22.5949 248 48H250H252C252 20.3858 229.614 -2 202 -2V0ZM48 0V-2C20.3858 -2 -2 20.3858 -2 48H0H2C2 22.5949 22.5949 2 48 2V0Z" fill="#DDDBDB" mask="url(#path-1-inside-1_769_230)"/>
<path fill-rule="evenodd" clip-rule="evenodd" d="M190.987 56.9931C193.197 56.9931 194.988 58.7751 194.987 60.9847C194.976 101.404 194.994 171.538 194.999 188.958C194.999 191.17 193.206 192.96 190.994 192.958L114.679 192.874C114.679 192.874 114.512 139.279 114.49 112.72L114.447 94.002C114.427 85.2637 113.722 74.8715 120.613 68.2538C123.817 65.2118 128.093 63.5579 132.51 63.6517C135.544 63.7184 139.503 64.7793 141.659 67.029C143.138 68.5733 144.256 71.4723 144.084 73.6288C143.288 83.6581 132.969 89.5892 129.47 98.4431C128.077 101.814 127.794 105.304 127.859 108.911C127.912 111.824 128.006 114.367 130.107 116.664C132.605 119.394 137.183 119.542 139.821 116.944C141.68 115.113 142.033 113.522 141.991 111.003C142.056 109 141.815 104.618 142.639 103.017C144.313 99.8911 147.148 97.467 149.279 94.619C155.961 85.6879 161.322 73.5575 155.682 62.7705C154.769 61.0248 153.177 57.5044 151.149 56.9931H190.987Z" fill="#089D3C"/>
<path d="M55.0044 60.9943C55.002 58.7835 56.7935 56.99 59.0044 56.99H112.134C106.318 61.9355 101.703 71.0782 100.983 78.6197C100.342 85.3322 100.677 92.4152 100.707 99.186C100.736 130.46 100.876 193.009 100.876 193.009L59.1426 192.999C56.9355 192.998 55.146 191.21 55.1436 189.003L55.0044 60.9943Z" fill="#089D3C"/>
</svg>
