<svg width="250" height="250" viewBox="0 0 250 250" fill="none" xmlns="http://www.w3.org/2000/svg">
<rect width="250" height="250" fill="white"/>
<path d="M124.192 54.6357L183.978 89.3849L184.164 159.818L124.467 195.386C104.892 183.854 65.8359 160.608 65.8359 160.608V88.2646L124.192 54.6357ZM69.2541 90.4285L68.8439 158.208L124.467 190.755L181.16 156.91L181.155 91.3361L124.192 58.2148L69.2541 90.4285Z" fill="#F18435"/>
<path d="M72.7755 94.418C75.3696 95.7653 77.9261 97.1197 80.5354 98.4388C82.1956 99.2782 85.7779 100.997 87.2183 101.992C87.1383 102.339 87.3004 104.187 87.3138 104.726C87.3552 106.851 87.3792 108.977 87.3857 111.103L87.5439 133.408C87.56 137.202 87.4217 142.07 87.6233 145.707C91.4575 148.174 96.7469 150.874 100.825 153.234C106.694 156.643 112.582 160.019 118.489 163.362C120.475 164.482 122.434 165.685 124.439 166.756C125.279 166.083 127.122 165.208 128.131 164.67L136.71 160.199C143.782 156.422 150.885 152.705 158.021 149.051C159.545 148.275 161.12 147.351 162.634 146.618C162.572 145.772 162.386 140.087 162.276 139.828C163.128 138.876 174.748 131.884 176.616 130.828C176.802 131.523 176.808 132.625 176.794 133.353C176.656 140.543 176.854 147.765 176.703 154.951C174.872 155.596 171.095 157.744 169.177 158.771L156.397 165.611C145.522 171.49 134.366 177.151 123.513 183.049L86.9152 162.852L78.574 158.211C76.5182 157.054 74.5735 155.849 72.3733 154.996C72.2589 150.117 72.3509 144.948 72.3599 140.034L72.4852 109.194C72.4996 104.999 72.4855 98.9729 72.5796 94.6907C72.6565 94.5837 72.7218 94.4928 72.7755 94.418Z" fill="#235C8D"/>
<path d="M162.41 101.689L162.472 114.724L176.998 106.253L176.775 93.4341L124.589 66.1865L72.7764 94.4182C77.5911 96.9437 82.4356 99.4076 87.2192 101.992L124.589 82.0824L162.41 101.689Z" fill="#F18435"/>
<path d="M109.779 134.459V109.812L123.346 103.486C140.611 111.979 176.617 130.829 176.617 130.829L162.277 139.829L124.357 117.934C124.357 117.934 124.703 134.278 124.796 142.452C120.147 140.478 109.779 134.459 109.779 134.459Z" fill="#F18435"/>
</svg>
