<svg width="250" height="250" viewBox="0 0 250 250" fill="none" xmlns="http://www.w3.org/2000/svg">
<mask id="path-1-inside-1_769_232" fill="white">
<path d="M0 48C0 21.4903 21.4903 0 48 0H202C228.51 0 250 21.4903 250 48V202C250 228.51 228.51 250 202 250H48C21.4903 250 0 228.51 0 202V48Z"/>
</mask>
<path d="M0 48C0 21.4903 21.4903 0 48 0H202C228.51 0 250 21.4903 250 48V202C250 228.51 228.51 250 202 250H48C21.4903 250 0 228.51 0 202V48Z" fill="white"/>
<path d="M48 0V2H202V0V-2H48V0ZM250 48H248V202H250H252V48H250ZM202 250V248H48V250V252H202V250ZM0 202H2V48H0H-2V202H0ZM48 250V248C22.5949 248 2 227.405 2 202H0H-2C-2 229.614 20.3858 252 48 252V250ZM250 202H248C248 227.405 227.405 248 202 248V250V252C229.614 252 252 229.614 252 202H250ZM202 0V2C227.405 2 248 22.5949 248 48H250H252C252 20.3858 229.614 -2 202 -2V0ZM48 0V-2C20.3858 -2 -2 20.3858 -2 48H0H2C2 22.5949 22.5949 2 48 2V0Z" fill="#DDDBDB" mask="url(#path-1-inside-1_769_232)"/>
<path d="M124.192 54.6353L183.978 89.3844L184.164 159.818L124.467 195.385C104.892 183.854 65.8359 160.608 65.8359 160.608V88.2641L124.192 54.6353ZM69.2541 90.428L68.8439 158.207L124.467 190.754L181.16 156.91L181.155 91.3356L124.192 58.2143L69.2541 90.428Z" fill="#F18435"/>
<path d="M72.7755 94.4177C75.3696 95.7651 77.9261 97.1195 80.5354 98.4385C82.1956 99.278 85.7779 100.996 87.2183 101.992C87.1383 102.339 87.3004 104.187 87.3138 104.725C87.3552 106.851 87.3792 108.977 87.3857 111.103L87.5439 133.408C87.56 137.202 87.4217 142.07 87.6233 145.707C91.4575 148.174 96.7469 150.874 100.825 153.234C106.694 156.643 112.582 160.019 118.489 163.362C120.475 164.482 122.434 165.685 124.439 166.756C125.279 166.083 127.122 165.208 128.131 164.67L136.71 160.199C143.782 156.421 150.885 152.705 158.021 149.051C159.545 148.275 161.12 147.351 162.634 146.618C162.572 145.772 162.386 140.087 162.276 139.828C163.128 138.875 174.748 131.884 176.616 130.827C176.802 131.522 176.808 132.624 176.794 133.352C176.656 140.543 176.854 147.765 176.703 154.951C174.872 155.596 171.095 157.744 169.177 158.771L156.397 165.611C145.522 171.49 134.366 177.15 123.513 183.048L86.9152 162.852L78.574 158.211C76.5182 157.054 74.5735 155.849 72.3733 154.996C72.2589 150.116 72.3509 144.948 72.3599 140.033L72.4852 109.194C72.4996 104.998 72.4855 98.9727 72.5796 94.6904C72.6565 94.5835 72.7218 94.4925 72.7755 94.4177Z" fill="#235C8D"/>
<path d="M162.41 101.689L162.472 114.724L176.998 106.253L176.775 93.4341L124.589 66.1865L72.7764 94.4182C77.5911 96.9437 82.4356 99.4076 87.2192 101.992L124.589 82.0824L162.41 101.689Z" fill="#F18435"/>
<path d="M109.778 134.458V109.811L123.345 103.486C140.611 111.978 176.616 130.828 176.616 130.828L162.276 139.828L124.356 117.933C124.356 117.933 124.703 134.277 124.795 142.451C120.146 140.477 109.778 134.458 109.778 134.458Z" fill="#F18435"/>
</svg>
