<svg width="250" height="250" viewBox="0 0 250 250" fill="none" xmlns="http://www.w3.org/2000/svg">
<mask id="path-1-inside-1_769_237" fill="white">
<path d="M0 48C0 21.4903 21.4903 0 48 0H202C228.51 0 250 21.4903 250 48V202C250 228.51 228.51 250 202 250H48C21.4903 250 0 228.51 0 202V48Z"/>
</mask>
<path d="M0 48C0 21.4903 21.4903 0 48 0H202C228.51 0 250 21.4903 250 48V202C250 228.51 228.51 250 202 250H48C21.4903 250 0 228.51 0 202V48Z" fill="white"/>
<path d="M48 0V2H202V0V-2H48V0ZM250 48H248V202H250H252V48H250ZM202 250V248H48V250V252H202V250ZM0 202H2V48H0H-2V202H0ZM48 250V248C22.5949 248 2 227.405 2 202H0H-2C-2 229.614 20.3858 252 48 252V250ZM250 202H248C248 227.405 227.405 248 202 248V250V252C229.614 252 252 229.614 252 202H250ZM202 0V2C227.405 2 248 22.5949 248 48H250H252C252 20.3858 229.614 -2 202 -2V0ZM48 0V-2C20.3858 -2 -2 20.3858 -2 48H0H2C2 22.5949 22.5949 2 48 2V0Z" fill="#DDDBDB" mask="url(#path-1-inside-1_769_237)"/>
<path d="M175.602 89.9664C177.521 90.4803 177.882 91.051 177.675 88.4076C177.32 83.8477 178.007 79.3928 179.324 74.9437C179.79 76.4968 180.301 78.0357 180.715 79.6029C181.476 82.4678 182.439 85.2844 182.459 88.3139C182.476 91.0765 182.002 93.6802 180.355 95.9431C179.696 96.846 179.665 97.5814 180.071 98.6319C180.775 100.466 181.181 102.414 181.769 104.296C181.905 104.734 182.28 105.094 182.547 105.489C182.822 105.142 183.22 104.839 183.353 104.444C183.623 103.646 183.779 102.806 183.93 101.974C184.214 100.387 184.591 98.8505 185.534 97.4962C186.635 95.9175 187.697 94.3105 188.949 92.4564C189.02 93.1833 189.106 93.6575 189.111 94.1345C189.143 97.0618 189.165 99.9891 189.174 102.916C189.182 105.057 188.913 107.164 188.024 109.123C187.277 110.77 186.295 112.218 184.228 112.42C184.069 112.437 183.836 112.999 183.847 113.3C183.941 115.563 184.08 117.823 184.228 120.083C184.276 120.815 184.392 121.542 184.634 122.346C187.149 118.371 190.562 115.239 193.793 111.605C193.884 112.045 193.989 112.252 193.955 112.437C193.41 115.443 192.95 118.473 192.254 121.446C191.604 124.222 190.318 126.73 188.37 128.87C187.229 130.125 185.9 130.901 184.157 130.656C183.603 130.58 183.345 130.71 183.308 131.258C183.135 133.975 182.964 136.693 182.797 139.413C182.794 139.447 182.853 139.484 183.072 139.731C183.873 139.078 184.71 138.442 185.497 137.749C187.964 135.568 190.207 133.104 193.191 131.582C193.737 131.304 194.392 131.241 195 131.079C194.841 131.639 194.753 132.235 194.512 132.755C193.123 135.744 191.786 138.76 190.267 141.681C188.342 145.384 185.119 147.496 181.139 148.479C180.324 148.68 179.85 149.044 179.492 149.782C178.322 152.192 177.09 154.575 175.889 156.971C175.767 157.215 175.698 157.488 175.605 157.746C175.679 157.837 175.755 157.928 175.829 158.019C176.587 157.479 177.337 156.928 178.101 156.4C178.714 155.977 179.293 155.443 179.974 155.191C183.237 153.978 186.53 152.845 189.938 151.639C189.997 152.706 189.892 153.646 189.225 154.322C186.547 157.036 183.944 159.844 181.059 162.32C179.304 163.825 177.172 165.08 174.659 164.947C173.697 164.895 172.729 164.592 171.811 164.265C171.232 164.058 170.886 164.069 170.474 164.555C168.441 166.957 166.377 169.33 164.327 171.718C164.242 171.818 164.208 171.96 164.035 172.329C169.617 171.19 175.026 170.032 180.889 170.12C180.497 170.639 180.355 170.92 180.131 171.113C178.137 172.831 176.147 174.552 174.125 176.236C172.067 177.948 169.463 178.223 166.99 178.652C165.173 178.967 163.245 178.907 161.4 178.706C160.236 178.578 159.148 177.843 158.001 177.448C157.609 177.312 157.022 177.201 156.729 177.391C153.966 179.2 150.982 180.568 147.97 181.883C147.811 181.951 147.697 182.116 147.24 182.522C153.782 183.462 160.014 184.359 166.246 185.256C166.278 185.395 166.306 185.534 166.337 185.671C165.982 185.883 165.653 186.162 165.27 186.295C160.897 187.806 156.491 189.166 151.794 189.137C149.29 189.123 146.919 188.586 144.869 187.096C144.165 186.582 143.484 185.903 143.081 185.145C142.672 184.379 142.257 184.262 141.53 184.484C139.37 185.142 137.203 185.773 135.043 186.434C134.855 186.491 134.594 186.693 134.58 186.849C134.563 187.036 134.727 187.3 134.892 187.428C135.148 187.627 135.46 187.766 135.767 187.885C139.938 189.512 143.859 191.656 147.825 193.706C148.464 194.035 148.981 194.594 149.821 195.256C149.256 195.358 149.046 195.452 148.853 195.426C144.702 194.895 140.514 194.583 136.505 193.232C133.654 192.272 131.17 190.662 128.739 188.956C128.495 188.782 128.137 188.371 128.197 188.226C128.68 187.093 127.862 187.303 127.283 187.292C126.576 187.278 125.866 187.286 125.159 187.312C123.685 187.366 122.465 187.664 121.164 188.717C117.612 191.596 113.478 193.439 108.884 194.063C106.181 194.43 103.475 194.768 100.769 195.12C100.704 195.009 100.642 194.895 100.576 194.785C101.068 194.37 101.499 193.839 102.058 193.564C106.184 191.514 110.335 189.515 114.472 187.493C114.767 187.349 115.142 187.221 115.287 186.971C115.395 186.786 115.25 186.21 115.105 186.162C112.771 185.423 110.426 184.725 108.064 184.075C107.811 184.007 107.288 184.222 107.181 184.447C105.806 187.3 103.191 188.09 100.4 188.632C96.2039 189.45 92.28 188.124 88.3248 187.102C86.7944 186.707 85.318 186.108 83.8274 185.37C90.017 183.743 96.3657 183.311 102.658 181.965C102.362 181.784 102.076 181.582 101.769 181.423C99.0545 180.026 96.326 178.657 93.6286 177.226C93.0267 176.906 92.5951 176.82 91.9676 177.204C89.6082 178.646 87.0159 178.944 84.3299 178.518C82.5639 178.24 80.7467 178.067 79.0659 177.508C76.4367 176.633 74.2703 174.898 72.2601 173.03C71.201 172.048 70.318 170.875 69.3867 169.822C74.8069 169.663 80.2896 170.81 85.9455 172.011C85.7836 171.636 85.7325 171.366 85.5764 171.182C83.6087 168.848 81.6383 166.517 79.6281 164.22C79.4094 163.97 78.8132 163.731 78.5889 163.851C75.4117 165.58 72.5554 164.469 70 162.641C67.7144 161.003 65.6956 158.987 63.6144 157.076C62.7172 156.253 61.9364 155.296 61.1329 154.373C60.4373 153.578 59.9546 152.689 60.1164 151.457C60.4685 151.539 60.7751 151.579 61.0619 151.681C64.0801 152.746 67.1266 153.737 70.0909 154.932C71.2805 155.412 72.2885 156.349 73.3759 157.082C73.6769 157.283 73.9693 157.491 74.4549 157.823C74.4066 157.354 74.4492 157.067 74.3441 156.855C73.1204 154.416 71.8342 152.008 70.6559 149.549C70.2896 148.785 69.7984 148.416 69.0176 148.215C65.5764 147.32 62.598 145.636 60.5792 142.647C59.5344 141.099 58.7479 139.364 57.95 137.667C56.9137 135.46 55.9796 133.2 55 130.96C55.0568 130.858 55.1136 130.756 55.1675 130.653C55.866 130.923 56.6752 131.045 57.243 131.483C59.7359 133.405 62.1607 135.418 64.6053 137.402C65.4259 138.07 66.2323 138.754 67.0443 139.43C67.1266 139.359 67.2118 139.288 67.2942 139.217C67.0755 136.298 66.8597 133.379 66.6525 130.611C65.6161 130.443 64.4293 130.58 63.711 130.063C62.3595 129.095 61.0165 127.914 60.1363 126.528C57.95 123.087 57.1777 119.14 56.6979 115.137C56.5588 113.975 56.3231 112.823 56.0875 111.392C58.1999 112.919 59.4889 114.884 61.0307 116.593C62.561 118.291 63.9665 120.103 65.5707 122.036C65.7013 121 65.8688 120.026 65.9398 119.046C66.0789 117.116 66.1755 115.185 66.2606 113.251C66.2862 112.667 66.3203 112.329 65.3947 112.096C63.5009 111.622 62.385 110 61.8484 108.175C61.4026 106.653 61.0534 105.052 61.0023 103.473C60.8887 100.077 60.9909 96.6756 61.0108 93.277C61.0136 93.0073 61.0818 92.7347 61.1442 92.2719C63.5974 95.6932 66.1329 98.8449 66.4679 103.098C66.5048 103.555 66.6411 104.035 66.8541 104.441C67.0045 104.725 67.3623 104.901 67.6263 105.123C67.8478 104.844 68.1715 104.597 68.2737 104.282C69.0006 102.002 69.6934 99.7108 70.3634 97.4138C70.4458 97.1356 70.46 96.7097 70.3066 96.5053C67.0471 92.2179 67.1834 87.4735 68.4497 82.6041C69.134 79.9692 69.9716 77.3741 70.971 74.7279C71.1244 75.2759 71.3401 75.8153 71.4253 76.3747C72.0244 80.3809 72.8677 84.3616 72.4532 88.4587C72.2856 90.1254 72.3651 90.1311 73.9949 89.8159C74.1766 89.7818 74.3668 89.7818 74.5514 89.7676C74.5769 89.7506 74.6025 89.7336 74.6252 89.7165C77.0443 87.1753 80.0227 85.4774 83.2567 84.2651C84.8524 83.666 86.5957 83.4616 88.2709 83.0782C88.3135 83.1776 88.3589 83.2798 88.4015 83.3792C85.5707 85.8267 82.7882 88.3366 79.8864 90.6989C78.0097 92.2265 75.8773 93.348 73.3816 93.5893C73.0721 93.6205 72.6292 93.9045 72.5298 94.1771C71.4253 97.2151 70.3748 100.27 69.3101 103.322C69.452 103.416 69.5911 103.513 69.7331 103.606C70.3947 102.891 71.0846 102.201 71.7093 101.454C72.8876 100.046 73.9892 98.5751 75.1959 97.1924C76.3884 95.8267 79.8325 94.0606 81.9222 93.7171C80.1931 96.4229 78.6343 99.0408 76.8967 101.534C74.9205 104.367 72.632 106.999 69.8183 108.992C68.2822 110.08 67.5327 111.156 67.4759 113.021C67.3992 115.6 67.0528 118.169 66.837 120.744C66.8171 120.994 66.9137 121.255 66.979 121.667C68.3078 119.103 69.5145 116.698 70.7922 114.33C72.0954 111.92 73.7081 109.751 76.2039 108.206C75.6417 110.46 75.1988 112.755 74.4946 114.964C73.0068 119.631 71.4338 124.279 68.2453 128.152C68.0466 128.393 67.8592 128.737 67.8592 129.032C67.8648 132.607 67.8904 136.182 68.9779 139.64C69.0176 139.768 69.1085 139.881 69.4634 140.04C69.6479 138.748 69.8722 137.462 70.0114 136.165C70.5224 131.363 72.314 127.11 75.4997 123.152C75.389 125.208 75.3123 127.011 75.1902 128.814C75.0454 130.974 74.8552 133.132 74.699 135.293C74.5855 136.843 74.523 138.399 74.3896 139.947C74.2476 141.573 73.4043 142.868 72.3197 144.029C71.4026 145.009 70.8859 146.014 71.6922 147.371C73.1005 149.751 74.4236 152.181 76.0193 154.566C76.1244 148.97 76.0619 143.405 78.3986 137.956C78.9835 141.156 79.54 144.152 80.0767 147.147C80.3748 148.814 80.9171 150.489 80.8717 152.15C80.795 154.816 80.2981 157.471 80.0398 160.134C79.9801 160.739 79.9915 161.485 80.2924 161.965C81.289 163.552 82.4304 165.046 83.7223 166.528C84.3668 162.048 84.0318 157.57 84.2959 152.786C88.1459 158.314 91.2379 163.788 91.9847 170.301C92.0585 170.954 92.2913 171.633 92.1919 172.258C91.9307 173.907 92.7371 174.878 93.9949 175.724C94.8467 176.298 95.5764 177.05 96.3941 177.684C96.6184 177.857 96.9534 177.885 97.2374 177.979C97.2459 177.718 97.3169 177.439 97.2544 177.195C97.0244 176.281 96.7944 175.364 96.4821 174.478C95.4742 171.622 94.9631 168.666 94.5202 165.446C98.87 169.396 103.083 173.135 105.301 178.507C105.71 179.495 105.9 180.574 106.249 181.59C106.371 181.945 106.607 182.428 106.902 182.525C109.074 183.246 111.275 183.885 113.467 184.549C113.538 184.433 113.612 184.316 113.683 184.2C113.552 183.947 113.464 183.655 113.279 183.447C111.641 181.622 109.991 179.807 108.336 178.002C107.203 176.766 106.899 175.222 106.559 173.723C108.859 174.719 111.104 175.679 113.339 176.67C114.756 177.297 116.246 177.828 117.533 178.666C119.503 179.949 120.676 181.857 120.886 184.251C120.999 185.554 120.957 185.563 122.291 185.52C124.086 185.463 125.877 185.389 127.672 185.347C128.126 185.335 128.583 185.406 129.148 185.449C129.185 183.692 129.617 181.96 130.9 180.617C131.695 179.785 132.567 178.916 133.58 178.419C136.201 177.138 138.924 176.068 141.593 174.887C142.226 174.606 142.814 174.217 143.563 173.799C143.26 176.062 142.311 177.862 140.809 179.424C139.438 180.852 138.106 182.323 136.769 183.782C136.593 183.975 136.479 184.225 136.178 184.697C136.831 184.626 137.235 184.637 137.606 184.535C139.33 184.058 141.062 183.598 142.754 183.021C143.208 182.868 143.785 182.368 143.867 181.945C144.688 177.709 147.033 174.342 149.847 171.244C151.522 169.399 153.285 167.63 155.006 165.827C155.15 165.898 155.295 165.969 155.44 166.037C155.406 166.599 155.457 167.181 155.327 167.718C154.571 170.778 153.762 173.825 153.004 176.886C152.902 177.3 152.981 177.76 152.976 178.198C153.39 178.019 153.819 177.868 154.211 177.652C154.407 177.544 154.526 177.303 154.705 177.153C155.716 176.307 157.067 175.653 157.655 174.58C158.211 173.564 157.959 172.113 158.083 170.852C158.578 165.812 160.673 161.358 163.191 157.07C163.947 155.784 164.801 154.555 165.61 153.3C165.716 153.328 165.821 153.354 165.923 153.382C165.923 157.817 165.923 162.252 165.923 166.69C166.022 166.735 166.119 166.781 166.218 166.829C166.621 166.471 167.05 166.142 167.419 165.753C167.774 165.378 168.069 164.944 168.384 164.532C169.637 162.908 170.508 161.389 169.844 159.035C168.83 155.429 169.001 151.701 169.926 147.99C170.707 144.856 171.099 141.625 171.687 138.294C174.072 143.635 173.887 149.149 173.91 154.637C174.057 154.725 174.205 154.81 174.353 154.898C174.497 154.617 174.637 154.333 174.787 154.058C176.141 151.585 177.516 149.117 178.833 146.625C178.955 146.395 178.819 145.923 178.651 145.659C178.066 144.751 177.323 143.936 176.817 142.987C176.34 142.09 175.86 141.094 175.775 140.106C175.397 135.739 175.165 131.358 174.867 126.982C174.793 125.906 174.673 124.836 174.551 123.496C176.783 126.014 178.194 128.74 179.04 131.653C179.867 134.501 180.207 137.491 180.758 140.418C180.869 140.435 180.977 140.449 181.087 140.466C181.369 139.169 181.772 137.882 181.902 136.571C182.127 134.322 182.212 132.056 182.28 129.793C182.294 129.328 182.107 128.754 181.811 128.393C178.532 124.399 176.968 119.603 175.468 114.787C174.909 112.999 174.551 111.148 174.117 109.319C174.055 109.061 174.074 108.785 174.032 108.203C178.376 112.076 180.906 116.775 182.942 121.863C183.526 120.639 183.376 119.387 183.26 118.169C183.058 116.062 182.757 113.964 182.504 111.863C182.411 111.077 182.027 110.617 181.346 110.114C179.761 108.947 178.294 107.601 176.894 106.213C174.06 103.405 171.899 100.083 169.872 96.67C169.37 95.8267 168.844 94.9976 168.419 94.0351C170.582 94.8926 172.919 95.4065 174.577 97.1668C175.801 98.4644 176.848 99.9266 177.998 101.298C178.745 102.19 179.534 103.044 180.307 103.916C180.395 103.873 180.483 103.831 180.574 103.785C180.556 103.501 180.602 103.197 180.514 102.939C179.634 100.307 178.728 97.6807 177.834 95.0544C177.604 94.3786 177.186 94.1543 176.451 93.9272C174.625 93.3593 172.791 92.6524 171.15 91.6842C167.672 89.6342 165.04 86.5621 161.948 83.6688C164.458 83.7199 166.587 84.2509 168.609 85.2986C171.082 86.5819 173.475 87.9675 175.503 89.9124C175.539 89.9323 175.571 89.9493 175.602 89.9664Z" fill="#00923F"/>
<path d="M123.966 163.819C119.548 164.075 115.454 163.047 111.783 160.562C110.94 159.992 110.19 159.219 109.548 158.419C108.521 157.138 108.66 155.809 109.761 154.6C111.692 152.476 114.009 150.892 116.55 149.589C117.586 149.058 118.31 149.288 119.032 150.094C120.13 151.323 121.229 152.561 122.419 153.703C123.364 154.608 124.44 155.378 125.46 156.204C126.045 156.678 126.314 156.272 126.496 155.79C127.044 154.336 127.68 152.902 128.08 151.409C129.054 147.78 129.917 144.12 130.818 140.472C130.886 140.199 130.996 139.87 130.9 139.648C130.818 139.461 130.38 139.234 130.244 139.305C129.832 139.512 129.463 139.83 129.125 140.156C126.198 142.97 122.873 145.264 118.975 146.335C113.929 147.72 109.247 147.104 105.394 142.947C102.572 139.904 101.49 136.272 100.942 132.346C99.8067 124.205 102.603 117.028 106.4 110.108C109.125 105.139 112.777 100.886 116.928 97.0786C120.553 93.7538 124.679 91.1218 129.034 88.8191C132.657 86.9054 136.493 85.9628 140.539 85.8095C143.151 85.7101 145.764 85.9429 148.052 87.337C151.153 89.2251 151.962 92.3228 151.857 95.6561C151.672 101.48 149 105.878 143.907 108.796C142.132 109.813 140.36 110.741 138.248 110.733C136.448 110.724 135.988 110.182 136.82 108.615C138.333 105.761 139.029 102.709 139.296 99.5573C139.446 97.7941 139.242 95.9997 139.191 94.2195C139.165 93.2938 138.552 93.1065 137.825 93.2711C137.189 93.4159 136.584 93.7027 135.977 93.9526C132.603 95.3467 130.093 97.797 127.916 100.628C124.903 104.54 122.447 108.759 120.999 113.512C120.284 115.852 119.304 118.169 119.017 120.565C118.645 123.674 118.682 126.86 118.861 129.997C118.978 132.045 120.176 133.74 122.109 134.64C124.006 135.52 125.715 134.895 127.18 133.561C129.262 131.664 130.732 129.344 131.916 126.798C132.788 124.924 133.816 123.112 134.878 121.335C135.27 120.676 135.86 119.986 136.527 119.665C139.875 118.05 143.194 116.329 146.891 115.608C147.765 115.438 148.657 115.281 149.543 115.244C151.314 115.171 152.209 116.065 152.058 117.857C151.953 119.117 151.729 120.389 151.371 121.599C149.864 126.69 148.404 131.8 146.695 136.826C145.426 140.562 143.645 144.123 142.382 147.862C141.121 151.599 139.083 154.85 136.723 157.899C133.924 161.514 129.991 163.209 125.511 163.72C125.005 163.765 124.486 163.782 123.966 163.819Z" fill="#00923F"/>
<path d="M175.602 89.9664C175.571 89.9493 175.543 89.9322 175.512 89.9152C174.379 88.3025 173.283 86.6614 172.102 85.0827C171.142 83.805 170.114 82.5728 169.041 81.3888C168.728 81.0424 168.178 80.7954 167.703 80.7301C163.479 80.1395 159.475 78.842 155.642 77.0021C154.39 76.4002 153.198 75.6733 151.676 74.8414C155.849 74.742 159.682 74.5262 163.76 75.6563C163.467 75.1168 163.374 74.8272 163.186 74.6228C160.236 71.4229 160.111 71.4115 155.73 71.3774C151.011 71.3434 146.29 71.2241 141.571 71.1389C141.395 71.1361 141.219 71.0964 140.903 71.0566C142.76 69.5858 144.546 68.4501 146.951 68.5467C149.115 68.6318 151.292 68.4757 153.462 68.3735C153.873 68.3536 154.271 68.0895 154.677 67.9391C154.441 67.6154 154.259 67.2179 153.956 66.9765C152.848 66.0964 151.696 65.2786 150.571 64.4212C149.736 63.7852 148.885 63.4189 147.76 63.3479C146.043 63.2429 144.41 62.4677 143.237 61.2326C141.565 59.4723 140.131 57.4876 138.606 55.591C138.464 55.4149 138.396 55.1793 138.186 54.7477C140.58 55.1991 142.684 55.8664 144.691 56.8601C146.565 57.7886 148.294 59.0975 148.993 60.9885C149.702 62.9021 151.193 63.7738 152.536 64.9294C153.249 65.5427 154.004 66.1077 154.705 66.7324C155.216 67.1838 155.679 67.7233 156.386 67.0816C157.053 66.4768 156.369 66.102 156.111 65.6563C154.523 62.9107 153.473 59.9436 152.559 56.9254C152.527 56.8232 152.644 56.6756 152.701 56.5222C152.851 56.5393 153.021 56.5081 153.11 56.579C154.907 58.0214 156.84 59.3303 158.447 60.9572C161.074 63.6148 162.442 66.8289 161.806 70.6875C161.764 70.9515 161.934 71.3235 162.124 71.5364C163.791 73.3791 165.48 75.1991 167.173 77.0163C167.42 77.2803 167.723 77.4961 167.951 77.6892C167.434 75.4944 166.715 73.3252 166.457 71.1049C166.199 68.8845 166.4 66.6103 166.4 64.0066C167.039 64.5745 167.522 64.8755 167.828 65.3014C169.555 67.7091 171.417 70.0458 172.877 72.6069C174.061 74.6881 173.998 77.1639 173.74 79.5234C173.533 81.42 173.445 81.4115 171.15 81.633C171.593 82.3343 171.974 82.9249 172.343 83.524C173.524 85.4433 174.708 87.3598 175.855 89.2991C175.929 89.424 175.693 89.7392 175.602 89.9664Z" fill="#00923F"/>
<path d="M74.6277 89.7165C74.605 89.7335 74.5795 89.7506 74.5539 89.7676C73.8043 89.6597 74.0684 89.2083 74.2813 88.8505C75.3432 87.0788 76.4193 85.3184 77.5068 83.5637C77.7794 83.1236 78.1399 82.7375 78.4012 82.2917C78.5715 81.9964 78.634 81.6387 78.7476 81.3093C78.4352 81.2525 78.1059 81.1021 77.8163 81.1589C76.9503 81.3207 76.6777 81.1134 76.479 80.1424C75.5164 75.4462 77.1462 71.528 79.889 67.9107C80.9083 66.5649 82.0184 65.2929 83.3586 64.0833C83.3955 64.4184 83.4608 64.7506 83.4636 65.0856C83.4807 66.9737 83.3728 68.8704 83.5147 70.75C83.6908 73.1151 82.8589 75.1765 81.8396 77.2208C81.9134 77.2917 81.9872 77.3599 82.061 77.4309C82.3677 77.1725 82.7084 76.9425 82.9809 76.6472C84.5397 74.9578 86.0701 73.2457 87.6317 71.562C88.0974 71.0623 88.2336 70.6307 88.1825 69.867C87.9497 66.3633 89.0258 63.2287 91.5698 60.7585C93.086 59.2849 94.7924 58.0044 96.4335 56.6614C96.6976 56.4456 97.0724 56.3718 97.3961 56.2327C97.4046 56.5762 97.5125 56.9595 97.4017 57.2605C96.3342 60.1168 95.4227 63.0413 93.7504 65.6421C93.5744 65.9147 93.5744 66.6415 93.7106 66.704C94.0627 66.8715 94.676 66.9794 94.9401 66.7807C96.7487 65.4292 98.4977 63.9953 100.258 62.5813C100.4 62.4678 100.582 62.3059 100.599 62.1498C100.826 60.256 102.143 59.0464 103.415 57.8908C105.727 55.7926 108.671 55.1424 111.678 54.5688C110.815 56.4456 109.784 58.1776 108.319 59.5433C107.169 60.6165 105.826 61.5024 104.486 62.3372C103.875 62.7176 103.06 62.9419 102.339 62.9391C101.204 62.9363 100.392 63.4331 99.5624 64.0918C98.3813 65.0288 97.1235 65.8721 95.931 66.7949C95.6698 66.9964 95.542 67.3712 95.3518 67.6665C95.6698 67.8142 95.9821 68.0725 96.3058 68.0896C98.333 68.1889 100.369 68.3423 102.39 68.2656C104.932 68.1691 107.16 68.7284 108.972 70.7415C108.66 70.7699 108.333 70.8181 108.004 70.8238C102.623 70.9175 97.2399 70.9857 91.8594 71.1134C91.195 71.1305 90.4483 71.3264 89.8975 71.687C88.58 72.5473 87.4244 73.6177 86.5528 75.06C90.3546 74.265 94.1252 74.4013 98.2251 74.5263C94.5937 76.7324 91.0985 78.4019 87.2938 79.3587C85.613 79.7818 83.8895 80.0288 82.2087 80.4519C81.7033 80.5796 81.1524 80.926 80.8401 81.3377C78.7362 84.1004 76.6919 86.9169 74.6277 89.7165Z" fill="#00923F"/>
</svg>
