<svg width="250" height="250" viewBox="0 0 250 250" fill="none" xmlns="http://www.w3.org/2000/svg">
<mask id="path-1-inside-1_769_236" fill="white">
<path d="M0 48C0 21.4903 21.4903 0 48 0H202C228.51 0 250 21.4903 250 48V202C250 228.51 228.51 250 202 250H48C21.4903 250 0 228.51 0 202V48Z"/>
</mask>
<path d="M0 48C0 21.4903 21.4903 0 48 0H202C228.51 0 250 21.4903 250 48V202C250 228.51 228.51 250 202 250H48C21.4903 250 0 228.51 0 202V48Z" fill="white"/>
<path d="M48 0V2H202V0V-2H48V0ZM250 48H248V202H250H252V48H250ZM202 250V248H48V250V252H202V250ZM0 202H2V48H0H-2V202H0ZM48 250V248C22.5949 248 2 227.405 2 202H0H-2C-2 229.614 20.3858 252 48 252V250ZM250 202H248C248 227.405 227.405 248 202 248V250V252C229.614 252 252 229.614 252 202H250ZM202 0V2C227.405 2 248 22.5949 248 48H250H252C252 20.3858 229.614 -2 202 -2V0ZM48 0V-2C20.3858 -2 -2 20.3858 -2 48H0H2C2 22.5949 22.5949 2 48 2V0Z" fill="#DDDBDB" mask="url(#path-1-inside-1_769_236)"/>
<path d="M120.636 55.1305C159.213 52.7899 192.387 82.1557 194.744 120.731C197.101 159.306 167.749 192.492 129.175 194.866C90.5771 197.24 57.3668 167.867 55.0085 129.268C52.6504 90.67 82.0372 57.4726 120.636 55.1305ZM140.232 62.5563C134.833 61.3067 127.326 60.1994 121.769 60.7106C104.631 61.8179 89.3594 68.7371 77.6101 81.3317C66.0164 93.7595 59.3412 111.673 60.4714 128.675C61.6333 146.026 69.6436 162.204 82.738 173.647C89.8079 179.741 98.098 184.253 107.053 186.882C107.719 187.078 110.465 187.99 111.03 187.763L111.065 187.587C110.633 187.193 110.039 186.947 109.542 186.602C100.89 180.597 96.8528 170.496 96.3445 160.193C95.7572 148.29 100.348 136.827 104.296 125.789C107.284 117.524 110.442 108.873 114.074 100.854C115.806 97.0062 117.579 93.1762 119.39 89.3649C120.383 87.2905 122.173 83.8107 122.964 81.7379C123.149 91.4581 122.986 101.639 122.977 111.389L122.987 163.039L122.998 180.932C122.994 182.216 122.892 188.391 123.082 189.244C123.451 189.412 123.75 189.367 124.151 189.353L130.101 189.32L130.04 81.7575C133.208 87.6469 135.967 93.7413 138.647 99.8668C143.247 110.343 147.398 121.011 151.087 131.842C152.831 136.977 154.792 142.415 155.835 147.697C158.232 159.843 156.742 173.657 147.741 182.909C146.495 184.19 145.172 185.277 143.963 186.499C160.13 181.464 173.67 170.272 181.658 155.341C189.809 140.017 191.471 122.063 186.268 105.504C179.916 84.6565 161.331 67.4389 140.232 62.5563Z" fill="#03AF60"/>
</svg>
