<svg width="250" height="250" viewBox="0 0 250 250" fill="none" xmlns="http://www.w3.org/2000/svg">
<mask id="path-1-inside-1_769_235" fill="white">
<path d="M0 48C0 21.4903 21.4903 0 48 0H202C228.51 0 250 21.4903 250 48V202C250 228.51 228.51 250 202 250H48C21.4903 250 0 228.51 0 202V48Z"/>
</mask>
<path d="M0 48C0 21.4903 21.4903 0 48 0H202C228.51 0 250 21.4903 250 48V202C250 228.51 228.51 250 202 250H48C21.4903 250 0 228.51 0 202V48Z" fill="white"/>
<path d="M48 0V2H202V0V-2H48V0ZM250 48H248V202H250H252V48H250ZM202 250V248H48V250V252H202V250ZM0 202H2V48H0H-2V202H0ZM48 250V248C22.5949 248 2 227.405 2 202H0H-2C-2 229.614 20.3858 252 48 252V250ZM250 202H248C248 227.405 227.405 248 202 248V250V252C229.614 252 252 229.614 252 202H250ZM202 0V2C227.405 2 248 22.5949 248 48H250H252C252 20.3858 229.614 -2 202 -2V0ZM48 0V-2C20.3858 -2 -2 20.3858 -2 48H0H2C2 22.5949 22.5949 2 48 2V0Z" fill="#DDDBDB" mask="url(#path-1-inside-1_769_235)"/>
<path d="M91.4502 170.287C84.9752 176.616 70.5095 178.651 63.7939 178.287C70.2432 182.296 82.2562 185.083 90.0877 185.442C129.966 187.271 128.717 134.396 145.963 106.804C162.058 81.0505 182.753 82.4303 199.998 83.8099C154.622 54.8685 133.945 97.2591 128.427 108.986C116.7 131.29 102.145 159.833 91.4502 170.287Z" fill="#FD7B3F"/>
<path d="M83.132 142.481C77.5139 156.66 64.4132 172.753 59.998 175.411C68.8522 175.411 73.5311 176.848 86.6626 167.401C99.2529 158.345 108.195 126.554 121.745 101.985C141.501 66.1628 166.95 70.6711 184.844 72.7902C158.003 62.1952 146.156 62.0782 127.16 70.6711C107.877 79.3937 97.8858 105.246 83.132 142.481Z" fill="#93D43A"/>
</svg>
