<svg width="250" height="250" viewBox="0 0 250 250" fill="none" xmlns="http://www.w3.org/2000/svg">
<mask id="path-1-inside-1_769_238" fill="white">
<path d="M0 48C0 21.4903 21.4903 0 48 0H202C228.51 0 250 21.4903 250 48V202C250 228.51 228.51 250 202 250H48C21.4903 250 0 228.51 0 202V48Z"/>
</mask>
<path d="M0 48C0 21.4903 21.4903 0 48 0H202C228.51 0 250 21.4903 250 48V202C250 228.51 228.51 250 202 250H48C21.4903 250 0 228.51 0 202V48Z" fill="white"/>
<path d="M48 0V2H202V0V-2H48V0ZM250 48H248V202H250H252V48H250ZM202 250V248H48V250V252H202V250ZM0 202H2V48H0H-2V202H0ZM48 250V248C22.5949 248 2 227.405 2 202H0H-2C-2 229.614 20.3858 252 48 252V250ZM250 202H248C248 227.405 227.405 248 202 248V250V252C229.614 252 252 229.614 252 202H250ZM202 0V2C227.405 2 248 22.5949 248 48H250H252C252 20.3858 229.614 -2 202 -2V0ZM48 0V-2C20.3858 -2 -2 20.3858 -2 48H0H2C2 22.5949 22.5949 2 48 2V0Z" fill="#DDDBDB" mask="url(#path-1-inside-1_769_238)"/>
<path d="M88.8045 54.9741L137.436 54.9769L152.638 54.9677C159.472 54.9658 165.39 54.7396 172.11 56.3722C183.579 59.1584 192.589 68.7447 194.269 80.4678C195.263 87.4005 194.955 94.6712 194.955 101.701L194.953 129.349L194.955 151.307C194.957 163.316 195.899 174.921 187.274 184.522C180.714 191.825 172.725 194.325 163.2 194.898C163.146 194.901 163.093 194.904 163.039 194.907C158.339 195.13 152.92 194.994 148.14 194.993L121.833 194.987L100.668 194.998C92.4601 195.003 86.4486 195.411 78.3431 193.679C73.4956 192.613 69.0074 190.31 65.3166 186.992C53.1518 175.918 55.1184 161.985 55.1161 147.037L55.1188 117.785L55.1201 97.3216C55.1194 85.3514 54.4375 74.5799 63.1747 65.1125C70.1893 57.5116 78.8264 55.4054 88.8045 54.9741ZM171.074 128.381C171.53 124.385 170.988 117.134 169.467 113.337C166.903 116.041 163.888 118.141 161.079 120.499C150.195 129.638 137.867 136.409 125.213 142.818C115.988 147.49 106.32 152.302 96.2387 154.993C102.533 148.576 109.208 141.87 114.825 134.85C126.516 120.241 137.616 100.635 141.959 82.3753C135.556 79.6228 129.339 78.1144 122.308 78.7412C110.435 79.324 98.471 85.366 90.6168 94.289C71.59 115.905 76.0715 147.693 99.8209 163.808C128.481 183.255 169.419 162.922 171.074 128.381ZM112.308 146.108C113.763 145.498 115.17 144.969 116.498 144.107C118.428 143.321 120.975 141.696 122.808 140.599C134.485 133.616 145.172 125.511 155.376 116.521C158.849 113.462 164.041 109.034 166.804 105.413C166.01 103.559 163.453 97.7677 161.455 97.327C159.544 99.9569 158.117 102.941 156.288 105.511C144.704 121.783 127.238 133.186 112.308 146.108ZM130.184 123.682C132.06 122.162 133.993 120.773 135.832 119.231C144.534 110.941 151.774 102.644 156.906 91.6629C154.544 89.4457 150.965 86.342 147.931 85.1729C145.578 95.3525 143.614 103.353 137.855 112.418C135.541 116.061 132.163 120.181 130.184 123.682Z" fill="#7B2474"/>
</svg>
