<svg width="250" height="250" viewBox="0 0 250 250" fill="none" xmlns="http://www.w3.org/2000/svg">
<rect width="250" height="250" fill="white"/>
<path d="M83.1989 97.2315C84.2399 97.1966 85.3004 97.1853 86.3421 97.2043C96.0608 97.3818 105.861 96.9773 115.57 97.2835C115.209 98.6133 115.035 100.417 114.802 101.808C114.481 103.728 114.127 105.662 113.835 107.583C111.725 107.653 109.507 107.614 107.387 107.622C103.237 107.658 99.0869 107.666 94.9366 107.645C92.2302 107.647 86.0089 107.394 83.626 108.158C75.2441 110.844 69.1733 121.885 69.1237 130.392L69.1184 133.498C69.1221 135.605 69.1094 137.188 70.7421 138.802C74.0108 142.032 80.8375 141.611 85.2034 141.61L93.1813 141.613C93.5546 137.832 94.2809 134.132 94.6535 130.266C91.384 130.355 88.0764 130.261 84.8035 130.271C83.1565 130.276 81.4854 130.274 79.8424 130.18C79.9883 127.479 80.9578 122.469 81.4246 119.718L87.0918 119.779L109.226 119.713C109.143 122.728 108.809 124.298 108.334 127.215L107.393 133.004C106.491 138.248 105.748 143.548 104.863 148.798C104.645 150.095 104.306 151.461 104.215 152.765C99.654 152.946 94.1297 152.787 89.4666 152.785L81.984 152.802C78.5528 152.809 74.8582 152.851 71.4944 152.101C67.7007 151.256 63.9278 149.511 61.018 146.914C57.3089 143.603 55.3131 139.075 55.0427 134.136C54.5286 124.745 58.6995 113.435 64.9757 106.422C69.9806 100.83 75.6105 97.6482 83.1989 97.2315Z" fill="#048FD2"/>
<path d="M151.988 97.1521C155.919 97.1286 159.853 97.2261 163.783 97.2117C168.145 97.1958 172.418 97.1702 176.779 97.304C176.781 97.4634 176.779 97.6227 176.772 97.7819C176.665 100.568 176.283 105.579 174.187 107.522C172.885 107.792 168.692 107.683 167.156 107.68C162.644 107.662 158.133 107.668 153.622 107.699C153.524 108.513 153.279 109.67 153.135 110.517L151.939 117.456L147.816 142.391L146.721 148.966C146.531 150.046 146.279 151.093 146.132 152.182C142.832 152.272 139.409 152.211 136.097 152.191L133.284 152.176C133.447 150.725 133.783 149.375 133.999 147.959C134.3 145.984 134.643 144.043 134.964 142.077L138.022 124.233C138.233 123.024 138.363 121.805 138.578 120.599L139.634 114.454C140.011 112.357 140.518 109.745 140.723 107.619L118.956 107.641C118.984 107.299 119.012 106.927 119.063 106.587C119.537 103.465 119.986 100.31 120.365 97.1751C124.047 97.2059 127.729 97.2101 131.412 97.1878C138.271 97.2212 145.129 97.2092 151.988 97.1521Z" fill="#048FD2"/>
<path d="M182.639 97.1958C186.76 97.2225 190.88 97.2202 195 97.1891C194.148 103.923 193.05 110.281 191.954 116.954L189.929 129.691L188.615 138.083C188.395 139.434 188.116 140.761 187.911 142.12L187.027 147.777C186.833 149.093 186.649 150.733 186.387 152.009C186.229 152.14 186.152 152.102 185.912 152.116C181.772 152.2 177.631 152.201 173.49 152.118C173.542 150.925 174.021 148.767 174.22 147.463C174.929 142.82 175.7 138.187 176.532 133.566L180.218 111.64C181.022 106.839 181.898 102.008 182.639 97.1958Z" fill="#048FD2"/>
</svg>
