<svg width="250" height="250" viewBox="0 0 250 250" fill="none" xmlns="http://www.w3.org/2000/svg">
<mask id="path-1-inside-1_769_251" fill="white">
<path d="M0 48C0 21.4903 21.4903 0 48 0H202C228.51 0 250 21.4903 250 48V202C250 228.51 228.51 250 202 250H48C21.4903 250 0 228.51 0 202V48Z"/>
</mask>
<path d="M0 48C0 21.4903 21.4903 0 48 0H202C228.51 0 250 21.4903 250 48V202C250 228.51 228.51 250 202 250H48C21.4903 250 0 228.51 0 202V48Z" fill="white"/>
<path d="M48 0V2H202V0V-2H48V0ZM250 48H248V202H250H252V48H250ZM202 250V248H48V250V252H202V250ZM0 202H2V48H0H-2V202H0ZM48 250V248C22.5949 248 2 227.405 2 202H0H-2C-2 229.614 20.3858 252 48 252V250ZM250 202H248C248 227.405 227.405 248 202 248V250V252C229.614 252 252 229.614 252 202H250ZM202 0V2C227.405 2 248 22.5949 248 48H250H252C252 20.3858 229.614 -2 202 -2V0ZM48 0V-2C20.3858 -2 -2 20.3858 -2 48H0H2C2 22.5949 22.5949 2 48 2V0Z" fill="#DDDBDB" mask="url(#path-1-inside-1_769_251)"/>
<path d="M122.5 55.0634C124.757 54.8331 127.168 55.0515 129.428 55.1844C140.482 55.8343 151.066 59.464 160.478 65.3463C212.564 97.9007 204.808 176.027 143.317 192.673C143.27 185.206 143.385 177.674 143.227 170.218C144.849 169.358 146.525 168.592 148.134 167.738C171.127 155.278 180.005 127.038 168.598 103.613C149.648 64.7005 92.0258 68.4939 78.9115 110.132C78.8191 110.393 78.7311 110.655 78.6473 110.919C76.8179 116.558 76.681 120.31 76.6563 126.136C76.5737 145.629 89.6258 163.564 107.723 170.444C109.738 171.21 111.921 171.767 114.006 172.442C114.289 160.664 114.075 147.99 114.063 136.124L114.032 127.43C114.026 125.873 113.942 123.082 114.214 121.633C116.258 121.377 134.44 121.396 135.695 121.864C136.01 123.043 135.918 127.554 135.919 129.056L135.925 194.256C133.879 194.409 131.747 194.74 129.625 194.894C111.281 196.067 93.2083 190.004 79.2842 178.004C65.1988 165.749 56.5237 148.428 55.1473 129.809C53.9562 111.393 60.0249 93.2434 72.0533 79.2483C82.3231 67.4143 96.2218 59.3133 111.58 56.2092C114.805 55.5889 119.193 55.291 122.5 55.0634Z" fill="#A1DA63"/>
<path d="M123.296 93.2408C129.869 92.3725 135.896 97.0111 136.74 103.587C137.583 110.164 132.922 116.173 126.343 116.992C119.798 117.807 113.827 113.176 112.988 106.634C112.149 100.093 116.758 94.1044 123.296 93.2408Z" fill="#F4833D"/>
</svg>
