<svg width="250" height="250" viewBox="0 0 250 250" fill="none" xmlns="http://www.w3.org/2000/svg">
<rect width="250" height="250" fill="white"/>
<path d="M148.52 94.9145C150.601 94.823 152.401 94.7069 154.203 94.6752C157.253 94.6224 160.305 94.5943 163.354 94.6154C168.907 94.6506 174.34 95.3157 179.428 97.7793C183.372 99.6903 186.474 102.439 187.998 106.623C189.153 109.794 188.991 113.085 188.192 116.323C187.502 119.124 186.371 121.756 184.773 124.181C184.195 125.058 183.671 125.966 183.055 126.972C183.41 127.299 183.706 127.648 184.072 127.905C186.886 129.883 189.209 132.367 191.248 135.095C193.125 137.607 194.516 140.423 194.885 143.569C195.523 148.968 193.449 153.195 188.878 156.13C185.572 158.255 181.833 159.357 178.016 159.99C174.442 160.582 170.805 161.022 167.185 161.099C155.636 161.352 144.084 161.416 132.531 161.542C122.972 161.644 113.416 161.739 103.856 161.817C98.4055 161.863 92.9514 161.856 87.5009 161.901C78.8884 161.975 70.2725 162.074 61.66 162.158C61.1319 162.162 60.6002 162.183 60.0791 162.113C58.1777 161.859 56.7552 160.43 56.7517 158.815C56.7482 157.259 58.0651 155.904 59.9664 155.63C60.8889 155.496 61.8361 155.507 62.7762 155.503C70.1668 155.461 77.561 155.447 84.9517 155.387C96.8563 155.296 108.761 155.169 120.662 155.07C124.179 155.042 127.701 155.084 131.222 155.046C140.014 154.944 148.806 154.901 157.591 154.666C162.682 154.528 167.766 154.092 172.847 153.726C175.094 153.564 177.175 152.857 179.136 151.681C183.227 149.228 184.456 144.361 182.551 140.001C181.22 136.949 178.935 134.708 176.425 132.642C175.249 131.674 174.069 130.713 172.918 129.717C171.094 128.148 170.756 125.645 172.111 123.516C172.9 122.281 173.78 121.102 174.502 119.828C175.594 117.899 176.784 116.023 177.206 113.771C177.829 110.445 176.784 107.746 174.27 105.617C172.164 103.833 169.692 102.791 166.907 102.632C164.865 102.516 162.816 102.425 160.77 102.404C158.918 102.383 158.802 102.523 158.833 104.438C158.914 108.943 159.02 113.444 159.126 117.945C159.193 120.757 159.302 123.565 159.341 126.377C159.404 130.886 159.443 135.39 159.46 139.899C159.467 142.214 158.682 143.21 156.425 143.745C154.735 144.146 153.038 144.104 151.429 143.379C150.045 142.756 149.122 141.774 149.207 140.127C149.214 140.011 149.207 139.892 149.203 139.775C149.084 131.804 148.971 123.836 148.844 115.865C148.742 109.537 148.626 103.206 148.52 96.8783C148.513 96.3047 148.52 95.7275 148.52 94.9145Z" fill="#45554B"/>
<path d="M115.719 102.4C116.05 103.097 116.248 103.516 116.452 103.934C119.033 109.259 119.184 114.711 117.395 120.303C116.202 124.037 115.135 127.809 113.973 131.554C113.628 132.67 113.234 133.785 112.727 134.834C111.956 136.428 110.882 136.492 109.787 135.084C109.607 134.855 109.445 134.605 109.329 134.338C107.192 129.397 104.991 124.484 102.959 119.5C101.266 115.337 101.072 111.068 102.762 106.82C103.061 106.064 103.48 105.353 103.875 104.638C104.234 103.984 104.635 103.35 105.04 102.664C103.847 101.443 102.325 101.288 100.952 101.017C96.6003 100.169 92.3117 100.559 88.1815 102.203C85.9738 103.083 84.0231 104.392 82.5056 106.232C79.9599 109.322 79.6219 112.814 80.988 116.474C81.576 118.05 82.2838 119.609 83.7591 120.662C85.1111 121.626 86.5689 122.006 88.2167 121.971C90.6251 121.922 90.8716 122.221 90.0828 124.452C88.8998 127.813 87.6146 131.142 86.3189 134.461C86.0372 135.179 85.7872 136.147 84.7062 136.041C83.7872 135.953 83.6006 135.087 83.3013 134.405C81.4704 130.227 79.6078 126.064 77.8543 121.858C76.4705 118.54 75.541 115.094 75.6501 111.448C75.7945 106.581 77.7205 102.713 81.7415 99.778C87.171 95.8118 93.1567 94.7348 99.7058 95.4422C103.079 95.8047 106.23 96.8007 109.357 97.9621C110.142 98.2542 110.801 98.2436 111.544 97.9163C114.885 96.4382 118.35 95.393 122.008 95.0657C128.959 94.4463 135.293 95.942 140.68 100.57C143.458 102.96 145.007 106.021 145.469 109.674C145.912 113.19 145.419 116.579 144.155 119.838C142.229 124.8 140.198 129.717 138.177 134.64C138.018 135.024 137.638 135.496 137.282 135.58C136.659 135.724 136.18 135.249 135.913 134.69C135.05 132.898 134.159 131.114 133.385 129.281C132.723 127.721 132.198 126.106 131.624 124.508C131.466 124.068 131.325 123.618 131.233 123.16C131.004 121.996 131.247 121.651 132.458 121.622C133.814 121.594 135.152 121.577 136.409 120.964C137.43 120.468 138.3 119.856 138.909 118.849C140.472 116.27 141.377 113.56 140.779 110.515C140.374 108.45 139.405 106.658 137.888 105.198C135.775 103.164 133.307 101.759 130.423 101.122C126.11 100.169 121.825 100.049 117.6 101.541C117.008 101.756 116.452 102.062 115.719 102.4ZM110.734 121.038C112.484 119.155 113.477 116.973 113.646 114.464C113.839 111.582 112.758 109.09 110.984 106.873C110.022 105.673 109.607 105.666 108.737 106.887C106.308 110.297 106.262 113.936 107.85 117.663C108.417 118.994 109.188 120.236 110.734 121.038Z" fill="#45554B"/>
<path d="M102.068 138.42C109.455 138.364 116.842 138.297 124.229 138.251C130.623 138.213 137.021 138.209 143.415 138.163C144.5 138.156 145.51 138.294 146.433 138.906C148.253 140.11 148.151 142.327 146.137 143.217C145.257 143.608 144.222 143.798 143.253 143.812C136.915 143.896 130.581 143.889 124.243 143.942C114.448 144.023 104.652 144.129 94.8567 144.217C91.3955 144.248 87.9344 144.248 84.4732 144.284C76.7304 144.357 68.9912 144.456 61.2484 144.512C60.3823 144.519 59.4879 144.393 58.6534 144.164C57.3471 143.801 56.6007 142.798 56.5972 141.641C56.5901 140.367 57.1852 139.596 58.6429 139.149C59.2485 138.962 59.9034 138.864 60.5372 138.86C73.9699 138.734 87.4062 138.628 100.839 138.515C101.251 138.512 101.659 138.515 102.071 138.515C102.068 138.48 102.068 138.449 102.068 138.42Z" fill="#45554B"/>
<path d="M78.0166 135.971C77.6223 136.108 77.4075 136.235 77.1857 136.252C72.2633 136.59 67.3338 136.844 62.5417 135.309C61.4431 134.957 60.3692 134.398 59.4256 133.736C57.313 132.251 56.7179 129.998 56.6827 127.56C56.6299 123.632 56.644 119.701 56.5876 115.773C56.5137 110.325 56.394 104.878 56.3059 99.4261C56.2672 97.1315 56.2848 97.1174 58.6087 97.1033C61.01 97.0893 63.4079 97.0998 66.0205 97.0998C66.0662 97.7931 66.1402 98.409 66.1437 99.0249C66.1789 102.368 66.1754 105.708 66.2247 109.051C66.3127 115.027 66.4183 121.003 66.5345 126.979C66.5803 129.425 67.4993 130.657 69.8619 131.297C71.4464 131.723 73.0696 131.941 74.7315 131.712C75.7104 131.579 76.7033 131.554 77.7631 131.473C78.2701 132.993 78.0131 134.429 78.0166 135.971Z" fill="#45554B"/>
<path d="M60.8895 87.8934C62.5092 87.7703 63.9247 88.0483 65.1817 88.907C66.8119 90.0226 67.3365 91.7893 66.2767 93.1091C65.7169 93.8059 64.8789 94.4464 64.0409 94.7209C61.467 95.555 58.9002 95.7028 56.5129 94.0065C54.4496 92.539 54.4883 90.2444 56.6643 88.9387C57.9952 88.1398 59.4213 87.6647 60.8895 87.8934Z" fill="#F8605B"/>
</svg>
