<svg width="250" height="250" viewBox="0 0 250 250" fill="none" xmlns="http://www.w3.org/2000/svg">
<g clip-path="url(#clip0_769_268)">
<path d="M0 48C0 21.4903 21.4903 0 48 0H202C228.51 0 250 21.4903 250 48V202C250 228.51 228.51 250 202 250H48C21.4903 250 0 228.51 0 202V48Z" fill="white"/>
<path d="M220.859 220.011L36.3594 36.511V-23.989H266.859V220.011H220.859Z" fill="#2A176F"/>
<path d="M35.3594 35.011L219.859 218.511V279.011H-10.6406V35.011H35.3594Z" fill="#01923F"/>
<path d="M118.859 82.011L129.748 115.178H164.986L136.478 135.677L147.367 168.844L118.859 148.345L90.3518 168.844L101.241 135.677L72.7331 115.178H107.97L118.859 82.011Z" fill="white"/>
</g>
<defs>
<clipPath id="clip0_769_268">
<path d="M0 48C0 21.4903 21.4903 0 48 0H202C228.51 0 250 21.4903 250 48V202C250 228.51 228.51 250 202 250H48C21.4903 250 0 228.51 0 202V48Z" fill="white"/>
</clipPath>
</defs>
</svg>
