<svg width="250" height="250" viewBox="0 0 250 250" fill="none" xmlns="http://www.w3.org/2000/svg">
<mask id="path-1-inside-1_769_269" fill="white">
<path d="M0 48C0 21.4903 21.4903 0 48 0H202C228.51 0 250 21.4903 250 48V202C250 228.51 228.51 250 202 250H48C21.4903 250 0 228.51 0 202V48Z"/>
</mask>
<path d="M0 48C0 21.4903 21.4903 0 48 0H202C228.51 0 250 21.4903 250 48V202C250 228.51 228.51 250 202 250H48C21.4903 250 0 228.51 0 202V48Z" fill="white"/>
<path d="M48 0V2H202V0V-2H48V0ZM250 48H248V202H250H252V48H250ZM202 250V248H48V250V252H202V250ZM0 202H2V48H0H-2V202H0ZM48 250V248C22.5949 248 2 227.405 2 202H0H-2C-2 229.614 20.3858 252 48 252V250ZM250 202H248C248 227.405 227.405 248 202 248V250V252C229.614 252 252 229.614 252 202H250ZM202 0V2C227.405 2 248 22.5949 248 48H250H252C252 20.3858 229.614 -2 202 -2V0ZM48 0V-2C20.3858 -2 -2 20.3858 -2 48H0H2C2 22.5949 22.5949 2 48 2V0Z" fill="#DDDBDB" mask="url(#path-1-inside-1_769_269)"/>
<g clip-path="url(#clip0_769_269)">
<path d="M119.01 55.011H121.182H131.728C132.792 55.2719 133.691 55.3868 134.78 55.5344C136.842 55.7092 139.72 56.3209 141.739 56.7854C156.247 60.25 169.251 68.3011 178.82 79.7434C186.487 88.8326 191.708 99.7279 193.989 111.398C194.376 113.393 194.666 115.406 194.858 117.43C194.978 118.617 195.095 120.711 195.359 121.788V128.403C195.027 130.021 194.987 131.68 194.808 133.328C194.549 135.941 194.118 138.535 193.519 141.092C189.403 158.751 178.625 174.137 163.436 184.039C155.822 189.056 147.006 192.598 137.992 194.21C137.075 194.374 134.176 194.653 133.528 195.011H128.278H123.278H117.482C116.662 194.621 111.511 193.956 110.017 193.623C105.926 192.684 101.928 191.377 98.0715 189.719C81.0048 182.411 67.5321 168.634 60.6073 151.408C53.635 133.86 53.9165 114.261 61.3898 96.9199C69.4009 78.4852 84.9372 64.3741 104.056 58.1684C106.832 57.2794 109.63 56.6052 112.476 55.9878C114.236 55.606 117.465 55.6801 119.01 55.011Z" fill="#F8F8FA"/>
<path d="M119.01 55.011H121.182C118.868 55.4574 116.862 55.7726 114.588 56.4451C105 59.2217 96.6767 65.2452 91.0424 73.4841C84.6341 82.8788 82.2061 94.4286 84.2896 105.608C86.4061 116.913 92.9651 126.898 102.499 133.33C106.793 136.194 111.559 138.278 116.577 139.488C116.338 149.63 116.536 160.508 116.536 170.704L116.532 180.463C116.534 187.593 116.142 191.572 123.278 195.011H117.482C116.662 194.621 111.511 193.956 110.017 193.623C105.926 192.684 101.928 191.377 98.0715 189.719C81.0048 182.411 67.5321 168.634 60.6073 151.408C53.635 133.86 53.9165 114.261 61.3898 96.9199C69.4009 78.4852 84.9372 64.3741 104.056 58.1684C106.832 57.2794 109.63 56.6052 112.476 55.9878C114.236 55.606 117.465 55.6801 119.01 55.011Z" fill="#1A564A"/>
<path d="M134.78 55.5344C136.842 55.7092 139.72 56.3209 141.739 56.7854C156.247 60.25 169.251 68.3011 178.82 79.7434C186.487 88.8326 191.708 99.7279 193.99 111.398C194.376 113.393 194.666 115.406 194.858 117.43C195.398 122.762 195.39 127.972 194.808 133.328C194.549 135.941 194.118 138.535 193.519 141.092C189.404 158.751 178.625 174.137 163.436 184.039C155.822 189.056 147.007 192.598 137.992 194.21C137.076 194.374 134.176 194.653 133.528 195.011H128.278C129.679 194.382 130.999 193.651 132.095 192.556C133.445 191.206 134.354 189.479 134.704 187.603C135.064 185.651 134.964 183.058 134.964 181.024L134.963 172.206L134.942 139.612C138.4 139.199 144.269 136.62 147.243 134.938C156.974 129.369 164.129 120.202 167.167 109.409C170.304 98.2553 168.818 86.308 163.044 76.2623C156.663 65.0926 146.95 58.8674 134.78 55.5344Z" fill="#1A564A"/>
<path d="M123.472 74.3848C133.685 73.3047 142.846 80.6959 143.949 90.907C145.052 101.118 137.682 110.295 127.474 111.422C117.232 112.552 108.019 105.153 106.912 94.9088C105.805 84.6648 113.225 75.4683 123.472 74.3848Z" fill="#C9C9CA"/>
<path d="M123.618 87.3748C126.444 86.6939 129.282 88.4476 129.938 91.2791C130.594 94.1105 128.815 96.9335 125.978 97.564C123.176 98.1868 120.396 96.435 119.748 93.6388C119.101 90.8428 120.828 88.0472 123.618 87.3748Z" fill="#1A564A"/>
</g>
<defs>
<clipPath id="clip0_769_269">
<rect width="140" height="140" fill="white" transform="translate(55.3594 55.011)"/>
</clipPath>
</defs>
</svg>
