<svg width="250" height="250" viewBox="0 0 250 250" fill="none" xmlns="http://www.w3.org/2000/svg">
<mask id="path-1-inside-1_769_271" fill="white">
<path d="M0 48C0 21.4903 21.4903 0 48 0H202C228.51 0 250 21.4903 250 48V202C250 228.51 228.51 250 202 250H48C21.4903 250 0 228.51 0 202V48Z"/>
</mask>
<path d="M0 48C0 21.4903 21.4903 0 48 0H202C228.51 0 250 21.4903 250 48V202C250 228.51 228.51 250 202 250H48C21.4903 250 0 228.51 0 202V48Z" fill="white"/>
<path d="M48 0V2H202V0V-2H48V0ZM250 48H248V202H250H252V48H250ZM202 250V248H48V250V252H202V250ZM0 202H2V48H0H-2V202H0ZM48 250V248C22.5949 248 2 227.405 2 202H0H-2C-2 229.614 20.3858 252 48 252V250ZM250 202H248C248 227.405 227.405 248 202 248V250V252C229.614 252 252 229.614 252 202H250ZM202 0V2C227.405 2 248 22.5949 248 48H250H252C252 20.3858 229.614 -2 202 -2V0ZM48 0V-2C20.3858 -2 -2 20.3858 -2 48H0H2C2 22.5949 22.5949 2 48 2V0Z" fill="#DDDBDB" mask="url(#path-1-inside-1_769_271)"/>
<path d="M112.03 103.409C112.805 103.436 114.381 103.606 115.088 103.858C120.934 105.938 128.755 113.328 131.627 118.679C128.137 125.006 124.204 130.503 117.754 134.168C113.769 135.952 109.362 136.867 105.849 133.799C99.4244 128.188 97.8011 114.59 103.311 107.861C105.853 104.755 108.263 103.787 112.03 103.409Z" fill="#289719"/>
<path fill-rule="evenodd" clip-rule="evenodd" d="M130.928 55.162C134.276 54.5437 140.198 56.1728 142.902 58.174C146.008 60.4732 149.224 64.116 151.939 66.9308L182.062 98.1052C187.27 103.491 193.411 108.388 194.696 116.181C196.565 127.518 189.474 133.254 182.424 140.528L166.141 157.358L151.449 172.615C146.09 178.137 142.956 182.504 134.813 183.813C124.29 185.052 119.325 178.211 112.886 171.56L81.0178 138.583C74.1414 131.468 69.4757 127.737 70.6387 116.888C71.3911 109.87 74.6817 106.891 79.2658 102.148L88.9494 92.1456C96.33 84.4249 103.75 76.7411 111.207 69.0948C113.314 66.9347 115.567 64.6873 117.604 62.473C121.557 58.176 125.017 55.9497 130.928 55.162ZM129.991 107.168C125.985 101.979 117.79 94.1944 110.622 95.2686C106.157 95.7245 102.066 97.9654 99.2776 101.483C89.2914 113.86 92.4755 144.822 113.09 143.773C119.16 143.464 125.515 137.028 128.905 132.516C130.279 130.786 133.96 125.598 135.353 124.533C137.714 129.043 145.074 136.885 148.814 140.102C153.429 144.071 160.551 145.175 165.801 142.061C169.243 140.308 169.029 139.475 171.474 137.365C169.716 135.067 167.961 133.984 166.091 131.517C165.418 132.369 164.445 133.511 163.592 134.189C160.88 135.696 158.941 136.31 155.775 135.448C150.196 133.929 145.836 128.709 142.609 124.167C141.466 122.559 140.348 120.235 139.269 118.696C142.005 113.752 149.47 105.583 155.066 103.827C157.083 103.194 160.352 103.357 162.264 104.361C163.362 104.937 165.186 106.715 166.247 106.73C166.875 106.387 170.543 103.256 171.313 102.556C165.937 94.9007 156.79 92.8136 149.095 98.3813C144.153 101.957 138.038 108.928 135.244 114.322C133.336 112.322 131.752 109.449 129.991 107.168Z" fill="#289719"/>
<path d="M114.8 60.1965C114.909 60.2302 114.892 60.254 114.993 60.3688C114.564 61.4411 109.217 66.6671 108.023 67.8964L84.6355 92.1198L77.3354 99.6372C73.9216 103.151 70.0083 106.994 68.4799 111.855C67.2493 116.248 67.044 121.129 68.0684 125.569C69.554 132.007 74.3822 136.304 78.7405 140.815L90.8658 153.334L108.927 172.022C111.847 175.05 117.588 181.652 121.079 183.79C125.841 186.706 131.743 187.853 137.184 186.596C132.976 191.116 130.774 192.873 124.992 194.419C120.99 195.507 115.252 194.942 111.592 193.108C106.413 190.513 101.208 184.254 97.1666 180.082L80.2629 162.62L66.9572 148.807C63.028 144.743 58.1761 140.567 56.2171 135.205C54.5943 130.762 54.5147 123.14 56.4598 118.821C57.4441 116.633 58.732 114.595 60.2855 112.766C62.4308 110.22 65.9661 106.843 68.3487 104.393L98.5888 73.073C104.103 67.3637 107.081 63.1252 114.8 60.1965Z" fill="#F45518"/>
</svg>
