<svg width="250" height="250" viewBox="0 0 250 250" fill="none" xmlns="http://www.w3.org/2000/svg">
<mask id="path-1-inside-1_769_272" fill="white">
<path d="M0 48C0 21.4903 21.4903 0 48 0H202C228.51 0 250 21.4903 250 48V202C250 228.51 228.51 250 202 250H48C21.4903 250 0 228.51 0 202V48Z"/>
</mask>
<path d="M0 48C0 21.4903 21.4903 0 48 0H202C228.51 0 250 21.4903 250 48V202C250 228.51 228.51 250 202 250H48C21.4903 250 0 228.51 0 202V48Z" fill="white"/>
<path d="M48 0V2H202V0V-2H48V0ZM250 48H248V202H250H252V48H250ZM202 250V248H48V250V252H202V250ZM0 202H2V48H0H-2V202H0ZM48 250V248C22.5949 248 2 227.405 2 202H0H-2C-2 229.614 20.3858 252 48 252V250ZM250 202H248C248 227.405 227.405 248 202 248V250V252C229.614 252 252 229.614 252 202H250ZM202 0V2C227.405 2 248 22.5949 248 48H250H252C252 20.3858 229.614 -2 202 -2V0ZM48 0V-2C20.3858 -2 -2 20.3858 -2 48H0H2C2 22.5949 22.5949 2 48 2V0Z" fill="#DDDBDB" mask="url(#path-1-inside-1_769_272)"/>
<g clip-path="url(#clip0_769_272)">
<path d="M59.338 150.274C52.7875 134.227 53.0083 116.211 59.9501 100.329C60.8563 98.2175 61.9143 96.353 63.0458 94.3625C69.0807 83.6464 77.9679 74.813 88.7204 68.8431C94.2413 65.7073 100.884 62.9683 107.062 61.4777C122.432 57.9091 138.541 59.369 153.018 65.6426C181.444 77.9427 199.238 109.76 191.57 140.423C190.613 144.254 189.886 147.48 188.274 151.163C182.032 165.439 171.144 177.182 157.38 184.483C140.579 193.348 120.948 194.564 102.775 189.549C99.0601 188.523 93.3585 185.926 89.8176 184.197L89.9412 183.796C93.6137 185.752 102.265 188.447 106.372 189.157C130.086 193.261 156.99 182.472 168.98 160.986C175.838 148.812 177.56 134.406 173.763 120.959C173.21 119.038 172.473 117.427 171.716 115.603C163.759 96.4474 145.088 83.9722 124.697 81.3499C101.616 78.3815 76.3557 89.3996 64.8412 110.268C58.0224 122.414 56.4056 136.801 60.3584 150.157L59.8217 150.352L59.5638 150.167C59.3849 150.214 59.4341 150.164 59.338 150.274Z" fill="#70309F"/>
<path d="M123.52 119.144C123.352 118.788 112.768 162.439 113.754 165.618C116.206 173.52 130.382 159.119 131.827 157.228C130.873 159.911 131.427 161.263 128.951 163.507C125.466 166.666 122.311 169.428 117.978 171.393C117.109 171.743 116.224 172.035 115.328 172.307C112.444 173.183 109.302 173.676 106.526 172.145C104.671 171.122 103.926 169.262 103.697 167.248C103.372 164.38 104.107 161.141 104.641 158.316C105.688 152.777 110.732 133.214 109.465 129.091C109.217 128.282 108.773 127.529 108 127.129C106.165 126.179 100.384 127.666 98.4238 128.297C98.662 127.483 98.8818 126.627 99.1044 125.805C101.324 125.118 103.765 124.633 105.986 123.945C111.817 122.138 117.568 120.514 123.52 119.144Z" fill="black"/>
<path d="M130.423 94.5736L130.515 94.8347C129.011 97.5217 127.585 102.069 124.919 103.601C121.442 105.599 117.247 106.719 113.948 109.168L113.844 109.074C113.683 108.21 116.206 103.633 117.082 102.874C118.844 101.345 121.094 100.332 123.049 99.0859C125.502 97.5224 127.882 95.9894 130.423 94.5736Z" fill="black"/>
</g>
<defs>
<clipPath id="clip0_769_272">
<rect width="140" height="133.971" fill="white" transform="translate(53.8594 59.0254)"/>
</clipPath>
</defs>
</svg>
