<svg width="250" height="250" viewBox="0 0 250 250" fill="none" xmlns="http://www.w3.org/2000/svg">
<mask id="path-1-inside-1_769_276" fill="white">
<path d="M0 48C0 21.4903 21.4903 0 48 0H202C228.51 0 250 21.4903 250 48V202C250 228.51 228.51 250 202 250H48C21.4903 250 0 228.51 0 202V48Z"/>
</mask>
<path d="M0 48C0 21.4903 21.4903 0 48 0H202C228.51 0 250 21.4903 250 48V202C250 228.51 228.51 250 202 250H48C21.4903 250 0 228.51 0 202V48Z" fill="white"/>
<path d="M48 0V2H202V0V-2H48V0ZM250 48H248V202H250H252V48H250ZM202 250V248H48V250V252H202V250ZM0 202H2V48H0H-2V202H0ZM48 250V248C22.5949 248 2 227.405 2 202H0H-2C-2 229.614 20.3858 252 48 252V250ZM250 202H248C248 227.405 227.405 248 202 248V250V252C229.614 252 252 229.614 252 202H250ZM202 0V2C227.405 2 248 22.5949 248 48H250H252C252 20.3858 229.614 -2 202 -2V0ZM48 0V-2C20.3858 -2 -2 20.3858 -2 48H0H2C2 22.5949 22.5949 2 48 2V0Z" fill="#DDDBDB" mask="url(#path-1-inside-1_769_276)"/>
<path d="M112.507 144.985V143.295C112.54 137.495 113.054 132.871 114.048 129.424C115.076 125.977 116.567 123.193 118.523 121.072C120.478 118.951 122.831 117.029 125.582 115.305C127.637 113.979 129.477 112.604 131.101 111.179C132.725 109.753 134.018 108.179 134.979 106.456C135.94 104.699 136.42 102.743 136.42 100.589C136.42 98.3022 135.874 96.297 134.78 94.5735C133.686 92.85 132.211 91.5242 130.355 90.5962C128.532 89.6682 126.51 89.2042 124.29 89.2042C122.135 89.2042 120.097 89.6848 118.175 90.6459C116.252 91.574 114.678 92.966 113.452 94.8221C112.225 96.645 111.563 98.9153 111.463 101.633H91.179C91.3447 95.0044 92.9356 89.5356 95.9517 85.2269C98.9678 80.885 102.962 77.6535 107.933 75.5323C112.905 73.3779 118.39 72.3008 124.389 72.3008C130.985 72.3008 136.818 73.3945 141.889 75.582C146.96 77.7364 150.938 80.8685 153.821 84.9783C156.705 89.0882 158.146 94.0432 158.146 99.8434C158.146 103.721 157.5 107.168 156.207 110.184C154.948 113.167 153.175 115.819 150.888 118.139C148.601 120.426 145.9 122.497 142.784 124.353C140.166 125.911 138.011 127.535 136.321 129.225C134.664 130.916 133.421 132.871 132.592 135.092C131.797 137.313 131.383 140.047 131.349 143.295V144.985H112.507ZM122.351 176.804C119.036 176.804 116.203 175.644 113.849 173.323C111.529 170.97 110.386 168.153 110.419 164.872C110.386 161.624 111.529 158.84 113.849 156.52C116.203 154.199 119.036 153.039 122.351 153.039C125.5 153.039 128.267 154.199 130.653 156.52C133.04 158.84 134.25 161.624 134.283 164.872C134.25 167.059 133.67 169.064 132.543 170.887C131.449 172.677 130.007 174.119 128.217 175.213C126.428 176.273 124.472 176.804 122.351 176.804Z" fill="#FF0000"/>
</svg>
