<svg width="250" height="250" viewBox="0 0 250 250" fill="none" xmlns="http://www.w3.org/2000/svg">
<mask id="path-1-inside-1_769_278" fill="white">
<path d="M0 48C0 21.4903 21.4903 0 48 0H202C228.51 0 250 21.4903 250 48V202C250 228.51 228.51 250 202 250H48C21.4903 250 0 228.51 0 202V48Z"/>
</mask>
<path d="M0 48C0 21.4903 21.4903 0 48 0H202C228.51 0 250 21.4903 250 48V202C250 228.51 228.51 250 202 250H48C21.4903 250 0 228.51 0 202V48Z" fill="white"/>
<path d="M48 0V2H202V0V-2H48V0ZM250 48H248V202H250H252V48H250ZM202 250V248H48V250V252H202V250ZM0 202H2V48H0H-2V202H0ZM48 250V248C22.5949 248 2 227.405 2 202H0H-2C-2 229.614 20.3858 252 48 252V250ZM250 202H248C248 227.405 227.405 248 202 248V250V252C229.614 252 252 229.614 252 202H250ZM202 0V2C227.405 2 248 22.5949 248 48H250H252C252 20.3858 229.614 -2 202 -2V0ZM48 0V-2C20.3858 -2 -2 20.3858 -2 48H0H2C2 22.5949 22.5949 2 48 2V0Z" fill="#DDDBDB" mask="url(#path-1-inside-1_769_278)"/>
<path d="M124 170.546V87.1432L102.272 101.347V169.518C102.272 172.219 101.746 173.653 100.216 173.271C98.9925 172.965 98.6833 166.05 98.6817 162.631H74.5093C73.8999 172.991 77.5999 184.153 81.9771 188.125C86.3544 192.097 105.565 193.896 114.97 189.2C121.281 186.049 123.989 175.089 124 170.546Z" fill="#036426"/>
<path d="M74.5042 159.76H98.7995V101.354L124.861 81.6746L151.027 101.354V168.169H175.308V86.9792L125.082 52L74.5042 86.9792V159.76Z" fill="#BD9648"/>
<path d="M126.12 189.267V87.4302L148.035 101.597V171.345L175.555 171.298V189.267H126.12Z" fill="#036426"/>
</svg>
