<svg width="250" height="250" viewBox="0 0 250 250" fill="none" xmlns="http://www.w3.org/2000/svg">
<rect width="250" height="250" fill="white"/>
<path d="M124 170.546V87.1432L102.272 101.347V169.518C102.272 172.219 101.746 173.653 100.216 173.271C98.9925 172.965 98.6833 166.05 98.6817 162.631H74.5093C73.8999 172.991 77.5999 184.153 81.9771 188.125C86.3544 192.097 105.565 193.896 114.97 189.2C121.281 186.049 123.989 175.089 124 170.546Z" fill="#036426"/>
<path d="M74.5042 159.76H98.7995V101.354L124.861 81.6746L151.027 101.354V168.169H175.308V86.9792L125.082 52L74.5042 86.9792V159.76Z" fill="#BD9648"/>
<path d="M126.12 189.267V87.4302L148.035 101.597V171.345L175.555 171.298V189.267H126.12Z" fill="#036426"/>
</svg>
