<svg width="250" height="250" viewBox="0 0 250 250" fill="none" xmlns="http://www.w3.org/2000/svg">
<mask id="path-1-inside-1_769_281" fill="white">
<path d="M0 48C0 21.4903 21.4903 0 48 0H202C228.51 0 250 21.4903 250 48V202C250 228.51 228.51 250 202 250H48C21.4903 250 0 228.51 0 202V48Z"/>
</mask>
<path d="M0 48C0 21.4903 21.4903 0 48 0H202C228.51 0 250 21.4903 250 48V202C250 228.51 228.51 250 202 250H48C21.4903 250 0 228.51 0 202V48Z" fill="white"/>
<path d="M48 0V2H202V0V-2H48V0ZM250 48H248V202H250H252V48H250ZM202 250V248H48V250V252H202V250ZM0 202H2V48H0H-2V202H0ZM48 250V248C22.5949 248 2 227.405 2 202H0H-2C-2 229.614 20.3858 252 48 252V250ZM250 202H248C248 227.405 227.405 248 202 248V250V252C229.614 252 252 229.614 252 202H250ZM202 0V2C227.405 2 248 22.5949 248 48H250H252C252 20.3858 229.614 -2 202 -2V0ZM48 0V-2C20.3858 -2 -2 20.3858 -2 48H0H2C2 22.5949 22.5949 2 48 2V0Z" fill="#DDDBDB" mask="url(#path-1-inside-1_769_281)"/>
<path d="M99.121 90.4046C101.254 90.1596 103.589 91.5483 105.567 92.363C108.752 93.6555 111.929 94.9645 115.101 96.2897L156.995 113.574C159.885 114.759 163.308 116.024 166.019 117.561C166.617 117.9 166.714 118.378 166.844 119.02C166.514 120.844 158.693 126.354 156.689 127.889C151.656 131.744 146.653 135.635 141.678 139.562C130.964 147.303 120.834 156.234 110.031 163.865C109.383 164.323 108.76 164.172 108.068 163.963C107.492 163.505 107.335 162.612 107.221 161.89C106.029 154.334 105.192 146.624 104.219 139.041L98.7874 96.9666C98.4953 94.626 97.7736 92.1369 99.121 90.4046Z" fill="#D7A42A"/>
<path d="M168.716 125.058C169.479 125.103 170.104 125.413 170.694 125.871C171.328 128.205 170.636 136.952 170.537 139.938L169.909 161.984C169.762 167.706 169.986 173.689 169.526 179.404C169.478 179.991 169.209 180.282 168.748 180.584C165.957 180.912 155.101 178.272 151.671 177.554L125.783 172.098C123.378 171.609 115.813 170.402 114.39 169.025C113.726 167.68 114.837 166.659 115.768 165.89C120.007 162.387 124.446 159.115 128.797 155.749C136.346 149.814 143.929 143.921 151.543 138.071L162.613 129.437C164.054 128.323 167.327 125.679 168.716 125.058Z" fill="#D7A42A"/>
<path d="M150.861 58.1326C152.565 58.1258 153.227 59.7937 153.634 61.2485C154.942 65.9348 156.397 70.5689 157.838 75.2156L164.536 96.6944C165.556 99.9756 168.27 107.303 168.321 111.077C168.327 111.455 167.83 111.738 167.506 111.921C164.943 111.998 156.38 108.076 153.724 106.973L134.32 98.9247C130.899 97.5458 104.996 87.1516 104.17 86.1251C103.74 84.9211 103.878 83.9808 105.049 83.2662C107.515 81.7615 110.075 80.3985 112.612 79.015L142.523 62.7041C145.157 61.2637 148.224 59.4412 150.861 58.1326Z" fill="#D7A42A"/>
<path d="M91.3972 93.9389C91.7875 93.9854 92.2295 94.0104 92.6024 94.1339C92.942 94.2465 93.0631 94.3086 93.2189 94.6235C94.638 97.4935 97.0202 120.636 97.7085 125.994C99.1036 136.85 100.839 147.754 101.852 158.648C101.956 159.766 102.249 161.562 101.856 162.633C101.678 163.116 101.536 163.201 101.096 163.41C98.8869 163.389 94.4057 160.09 92.2929 158.738L78.8679 150.061L63.1803 139.95C61.6536 138.966 56.0473 135.498 55.0545 134.383C54.8742 133.537 55.1436 132.805 55.7133 132.166C58.2409 129.331 60.843 126.558 63.4352 123.781L75.4545 110.8C77.6642 108.412 89.5374 95.0414 91.3972 93.9389Z" fill="#D7A42A"/>
<path d="M107.566 173.633C108.298 173.531 109.26 173.584 109.986 173.732C122.557 176.294 135.098 179.023 147.659 181.636C148.169 181.742 150.96 182.385 151.238 182.66C153.141 184.546 151.926 186.144 149.776 186.418C146.793 186.798 144.043 187.01 141.254 187.454C138.071 187.755 134.687 188.278 131.491 188.674L116.227 190.531C113.653 190.865 103.119 192.577 101.707 191.536C100.799 188.92 105.158 180.115 105.928 177.221C106.135 176.444 107.056 174.273 107.566 173.633Z" fill="#D7A42A"/>
<path d="M78.8066 71.5902C80.7726 71.9914 82.444 74.5014 83.6702 76.0288C85.8679 78.7665 88.3167 81.1835 90.4483 83.969C91.6776 85.5751 91.1944 86.3996 89.9926 87.8347C87.3867 90.7418 84.6551 93.5978 81.9979 96.452L66.2261 113.522C64.7287 115.142 62.2445 118.33 59.9976 118.346C59.1194 117.961 58.6567 117.139 58.9604 116.189C60.0134 112.894 61.4997 109.682 62.8676 106.499C65.1353 101.187 67.4352 95.8894 69.7672 90.6059C72.3457 84.7456 74.7642 78.6538 77.5493 72.8797C77.8586 72.2384 78.2099 71.9567 78.8066 71.5902Z" fill="#D7A42A"/>
<path d="M163.97 70.6956C164.369 70.7157 164.789 70.7877 165.145 70.9808C165.61 71.234 165.931 71.6382 166.251 72.0491C169.112 75.7126 193.6 109.164 193.868 110.297C193.965 110.7 193.915 111.319 193.688 111.672C193.183 112.459 191.688 112.59 190.838 112.772C187.987 113.102 177.272 115.314 175.42 114.444C174.23 112.261 173.354 109.013 172.597 106.562L169.553 96.7182L165.166 82.596C164.349 79.9593 162.399 74.7376 162.478 71.8751C162.493 71.3418 163.473 70.9212 163.97 70.6956Z" fill="#D7A42A"/>
<path d="M191.929 117.659C193.013 117.494 194.893 117.387 194.996 118.957C195.047 119.72 194.395 121.683 194.13 122.421C191.316 130.304 188.298 138.118 185.456 145.991C184.373 148.93 179.362 163.092 178.166 164.721C176.998 165.144 175.09 165.24 175.06 163.698C174.814 150.22 175.767 136.743 175.861 123.264C176.095 120.837 176.031 119.89 178.738 119.459C183.083 118.767 187.556 118.057 191.929 117.659Z" fill="#D7A42A"/>
<path d="M130.707 58.4185C130.912 58.3845 131.118 58.3572 131.324 58.3364C132.222 58.2436 133.384 58.0719 134.132 58.7051C134.794 59.167 134.852 60.9878 134.185 61.4615C132.072 62.9596 129.403 64.2876 127.131 65.5257C121.8 68.4536 116.45 71.3516 111.086 74.2195C106.661 76.6234 102.246 79.1671 97.7818 81.511C97.3889 81.7174 96.4865 82.0805 96.0685 82.031C94.7793 81.8788 92.9537 79.2825 92.001 78.2091C89.9519 75.365 86.4843 72.227 84.605 69.1427C84.2256 68.5202 84.2161 68.143 84.4052 67.5102C85.721 66.0304 90.0501 65.6691 92.0239 65.3304L130.707 58.4185Z" fill="#D7A42A"/>
<path d="M65.3662 147.876C65.5661 147.892 65.7614 147.915 65.9578 147.957C67.501 148.284 96.5174 167.163 100.317 169.813C100.863 170.194 102.014 170.921 102.314 171.492C103.021 172.84 98.6507 183.084 97.9046 185.064C96.955 187.64 95.6836 190.359 93.0933 187.125C83.6861 175.378 74.2932 163.613 64.9349 151.826C63.4675 149.977 63.3844 149.299 65.3662 147.876Z" fill="#D7A42A"/>
</svg>
