<svg width="250" height="250" viewBox="0 0 250 250" fill="none" xmlns="http://www.w3.org/2000/svg">
<rect width="250" height="250" fill="white"/>
<path d="M99.121 90.4048C101.254 90.1598 103.589 91.5485 105.567 92.3632C108.752 93.6557 111.929 94.9648 115.101 96.2899L156.995 113.574C159.885 114.759 163.308 116.025 166.019 117.561C166.617 117.901 166.714 118.378 166.844 119.02C166.514 120.844 158.693 126.355 156.689 127.89C151.656 131.744 146.653 135.635 141.678 139.562C130.964 147.304 120.834 156.234 110.031 163.865C109.383 164.323 108.76 164.173 108.068 163.963C107.492 163.505 107.335 162.612 107.221 161.89C106.029 154.334 105.192 146.624 104.219 139.041L98.7874 96.9668C98.4953 94.6262 97.7736 92.1371 99.121 90.4048Z" fill="#D7A42A"/>
<path d="M168.716 125.058C169.479 125.103 170.104 125.413 170.694 125.871C171.328 128.205 170.636 136.952 170.537 139.938L169.909 161.984C169.762 167.706 169.986 173.689 169.526 179.404C169.478 179.991 169.209 180.282 168.748 180.584C165.957 180.912 155.101 178.272 151.671 177.554L125.783 172.098C123.378 171.609 115.813 170.402 114.39 169.025C113.726 167.68 114.837 166.66 115.768 165.89C120.007 162.387 124.446 159.115 128.797 155.749C136.346 149.814 143.929 143.921 151.543 138.071L162.613 129.437C164.054 128.323 167.327 125.679 168.716 125.058Z" fill="#D7A42A"/>
<path d="M150.861 58.1328C152.565 58.1261 153.227 59.7939 153.634 61.2488C154.942 65.935 156.397 70.5692 157.838 75.2159L164.536 96.6946C165.556 99.9759 168.27 107.303 168.321 111.078C168.327 111.455 167.83 111.739 167.506 111.921C164.943 111.999 156.38 108.076 153.724 106.974L134.32 98.925C130.899 97.5461 104.996 87.1519 104.17 86.1254C103.74 84.9213 103.878 83.981 105.049 83.2664C107.515 81.7617 110.075 80.3987 112.612 79.0153L142.523 62.7044C145.157 61.2639 148.224 59.4415 150.861 58.1328Z" fill="#D7A42A"/>
<path d="M91.3972 93.9392C91.7875 93.9857 92.2295 94.0106 92.6024 94.1341C92.942 94.2468 93.0631 94.3088 93.2189 94.6238C94.638 97.4938 97.0202 120.636 97.7085 125.994C99.1036 136.851 100.839 147.754 101.852 158.648C101.956 159.766 102.249 161.562 101.856 162.633C101.678 163.116 101.536 163.202 101.096 163.41C98.8869 163.39 94.4057 160.09 92.2929 158.738L78.8679 150.061L63.1803 139.95C61.6536 138.966 56.0473 135.499 55.0545 134.383C54.8742 133.537 55.1436 132.805 55.7133 132.166C58.2409 129.331 60.843 126.558 63.4352 123.782L75.4545 110.8C77.6642 108.413 89.5374 95.0416 91.3972 93.9392Z" fill="#D7A42A"/>
<path d="M107.566 173.633C108.298 173.531 109.26 173.584 109.986 173.732C122.557 176.294 135.098 179.023 147.659 181.636C148.169 181.742 150.96 182.385 151.238 182.66C153.141 184.546 151.926 186.145 149.776 186.418C146.793 186.798 144.043 187.011 141.254 187.455C138.071 187.756 134.687 188.279 131.491 188.674L116.227 190.531C113.653 190.866 103.119 192.577 101.707 191.536C100.799 188.92 105.158 180.115 105.928 177.221C106.135 176.444 107.056 174.273 107.566 173.633Z" fill="#D7A42A"/>
<path d="M78.8066 71.5904C80.7726 71.9916 82.444 74.5017 83.6702 76.0291C85.8679 78.7667 88.3167 81.1838 90.4483 83.9692C91.6776 85.5754 91.1944 86.3998 89.9926 87.835C87.3867 90.7421 84.6551 93.598 81.9979 96.4522L66.2261 113.522C64.7287 115.143 62.2445 118.33 59.9976 118.346C59.1194 117.961 58.6567 117.14 58.9604 116.189C60.0134 112.894 61.4997 109.682 62.8676 106.499C65.1353 101.187 67.4352 95.8897 69.7672 90.6062C72.3457 84.7459 74.7642 78.654 77.5493 72.88C77.8586 72.2387 78.2099 71.9569 78.8066 71.5904Z" fill="#D7A42A"/>
<path d="M163.97 70.6959C164.369 70.7159 164.789 70.7879 165.145 70.981C165.61 71.2343 165.931 71.6384 166.251 72.0493C169.112 75.7128 193.6 109.164 193.868 110.297C193.965 110.701 193.915 111.319 193.688 111.673C193.183 112.459 191.688 112.59 190.838 112.773C187.987 113.102 177.272 115.315 175.42 114.444C174.23 112.261 173.354 109.013 172.597 106.563L169.553 96.7184L165.166 82.5963C164.349 79.9595 162.399 74.7379 162.478 71.8754C162.493 71.3421 163.473 70.9214 163.97 70.6959Z" fill="#D7A42A"/>
<path d="M191.929 117.659C193.013 117.494 194.893 117.387 194.996 118.957C195.047 119.72 194.395 121.683 194.13 122.421C191.316 130.304 188.298 138.118 185.456 145.991C184.373 148.93 179.362 163.092 178.166 164.721C176.998 165.144 175.09 165.24 175.06 163.698C174.814 150.221 175.767 136.744 175.861 123.264C176.095 120.838 176.031 119.89 178.738 119.459C183.083 118.767 187.556 118.057 191.929 117.659Z" fill="#D7A42A"/>
<path d="M130.707 58.4187C130.912 58.3848 131.118 58.3574 131.324 58.3366C132.222 58.2438 133.384 58.0721 134.132 58.7053C134.794 59.1672 134.852 60.988 134.185 61.4617C132.072 62.9599 129.403 64.2878 127.131 65.526C121.8 68.4539 116.45 71.3518 111.086 74.2197C106.661 76.6237 102.246 79.1673 97.7818 81.5113C97.3889 81.7177 96.4865 82.0808 96.0685 82.0313C94.7793 81.8791 92.9537 79.2828 92.001 78.2094C89.9519 75.3653 86.4843 72.2272 84.605 69.143C84.2256 68.5204 84.2161 68.1433 84.4052 67.5104C85.721 66.0306 90.0501 65.6694 92.0239 65.3307L130.707 58.4187Z" fill="#D7A42A"/>
<path d="M65.3662 147.876C65.5661 147.893 65.7614 147.915 65.9578 147.957C67.501 148.284 96.5174 167.163 100.317 169.814C100.863 170.194 102.014 170.921 102.314 171.493C103.021 172.84 98.6507 183.085 97.9046 185.065C96.955 187.64 95.6836 190.359 93.0933 187.125C83.6861 175.378 74.2932 163.614 64.9349 151.826C63.4675 149.978 63.3844 149.299 65.3662 147.876Z" fill="#D7A42A"/>
</svg>
