<svg width="250" height="250" viewBox="0 0 250 250" fill="none" xmlns="http://www.w3.org/2000/svg">
<mask id="path-1-inside-1_769_284" fill="white">
<path d="M0 48C0 21.4903 21.4903 0 48 0H202C228.51 0 250 21.4903 250 48V202C250 228.51 228.51 250 202 250H48C21.4903 250 0 228.51 0 202V48Z"/>
</mask>
<path d="M0 48C0 21.4903 21.4903 0 48 0H202C228.51 0 250 21.4903 250 48V202C250 228.51 228.51 250 202 250H48C21.4903 250 0 228.51 0 202V48Z" fill="white"/>
<path d="M48 0V2H202V0V-2H48V0ZM250 48H248V202H250H252V48H250ZM202 250V248H48V250V252H202V250ZM0 202H2V48H0H-2V202H0ZM48 250V248C22.5949 248 2 227.405 2 202H0H-2C-2 229.614 20.3858 252 48 252V250ZM250 202H248C248 227.405 227.405 248 202 248V250V252C229.614 252 252 229.614 252 202H250ZM202 0V2C227.405 2 248 22.5949 248 48H250H252C252 20.3858 229.614 -2 202 -2V0ZM48 0V-2C20.3858 -2 -2 20.3858 -2 48H0H2C2 22.5949 22.5949 2 48 2V0Z" fill="#DDDBDB" mask="url(#path-1-inside-1_769_284)"/>
<path d="M60.9555 145.019V151.116H59.5941V147.571L58.0547 150.157H57.9012L56.3618 147.571V151.116H55.0005V145.019H56.3618L57.9785 147.727L59.5952 145.019H60.9555Z" fill="#2D9FC8"/>
<path d="M63.9753 145.019H65.3365V151.116H63.9753V145.019Z" fill="#2D9FC8"/>
<path d="M68.9308 150.332C68.3436 149.722 68.0548 148.965 68.0548 148.068C68.0548 147.171 68.3436 146.412 68.9308 145.812C69.5181 145.202 70.2577 144.898 71.1509 144.898C72.2148 144.898 73.1842 145.437 73.7027 146.309L72.5283 147.006C72.2642 146.527 71.7542 146.256 71.1498 146.256C70.6228 146.256 70.1965 146.421 69.882 146.753C69.5674 147.084 69.414 147.519 69.414 148.069C69.414 148.619 69.5674 149.053 69.882 149.385C70.1965 149.716 70.6217 149.882 71.1498 149.882C71.7542 149.882 72.2813 149.594 72.5283 149.132L73.7027 149.829C73.1928 150.699 72.2309 151.24 71.1509 151.24C70.2577 151.24 69.5181 150.936 68.9308 150.334V150.332Z" fill="#2D9FC8"/>
<path d="M79.4333 151.116L78.3103 149.112H77.6641V151.116H76.3028V145.019H78.685C79.255 145.019 79.7316 145.219 80.1311 145.629C80.5315 146.038 80.7269 146.526 80.7269 147.109C80.7269 147.85 80.2845 148.53 79.6297 148.878L80.8976 151.116H79.4333ZM77.6641 146.326V147.893H78.685C79.0597 147.893 79.3657 147.553 79.3657 147.109C79.3657 146.665 79.0597 146.326 78.685 146.326H77.6641Z" fill="#2D9FC8"/>
<path d="M86.2233 151.238C85.3645 151.238 84.6323 150.934 84.0279 150.323C83.4235 149.713 83.1261 148.965 83.1261 148.068C83.1261 147.171 83.4235 146.421 84.0279 145.812C84.6323 145.202 85.3634 144.898 86.2233 144.898C87.0833 144.898 87.8143 145.202 88.4187 145.812C89.022 146.422 89.3205 147.171 89.3205 148.068C89.3205 148.965 89.0231 149.714 88.4187 150.323C87.8143 150.934 87.0833 151.238 86.2233 151.238ZM86.2233 149.879C86.7172 149.879 87.125 149.713 87.4568 149.374C87.7885 149.034 87.9592 148.599 87.9592 148.067C87.9592 147.535 87.7885 147.099 87.4568 146.76C87.125 146.42 86.7172 146.254 86.2233 146.254C85.7294 146.254 85.3129 146.419 84.9812 146.76C84.6495 147.099 84.4874 147.535 84.4874 148.067C84.4874 148.599 84.6495 149.034 84.9812 149.374C85.3129 149.713 85.7294 149.879 86.2233 149.879Z" fill="#2D9FC8"/>
<path d="M95.6587 146.36H93.4043V147.536H95.6157V148.878H93.4043V151.116H92.0429V145.019H95.6587V146.36Z" fill="#2D9FC8"/>
<path d="M98.453 145.019H99.8143V151.116H98.453V145.019Z" fill="#2D9FC8"/>
<path d="M106.134 145.019H107.496V151.116H106.475L104.178 147.806V151.116H102.817V145.019H103.838L106.135 148.328L106.134 145.019Z" fill="#2D9FC8"/>
<path d="M114.197 151.116L113.899 150.157H111.688L111.39 151.116H109.901L111.926 145.019H113.662L115.687 151.116H114.197ZM112.096 148.852H113.491L112.793 146.614L112.096 148.852Z" fill="#2D9FC8"/>
<path d="M121.405 145.019H122.767V151.116H121.746L119.449 147.806V151.116H118.088V145.019H119.109L121.406 148.328L121.405 145.019Z" fill="#2D9FC8"/>
<path d="M126.362 150.332C125.775 149.722 125.486 148.965 125.486 148.068C125.486 147.171 125.775 146.412 126.362 145.812C126.949 145.202 127.689 144.898 128.582 144.898C129.646 144.898 130.615 145.437 131.134 146.309L129.959 147.006C129.695 146.527 129.185 146.256 128.581 146.256C128.054 146.256 127.628 146.421 127.313 146.753C126.998 147.084 126.845 147.519 126.845 148.069C126.845 148.619 126.998 149.053 127.313 149.385C127.628 149.716 128.053 149.882 128.581 149.882C129.185 149.882 129.712 149.594 129.959 149.132L131.134 149.829C130.624 150.699 129.662 151.24 128.582 151.24C127.689 151.24 126.949 150.936 126.362 150.334V150.332Z" fill="#2D9FC8"/>
<path d="M135.094 149.775H137.476V151.116H133.733V145.019H137.433V146.36H135.094V147.37H137.221V148.693H135.094V149.775Z" fill="#2D9FC8"/>
<path d="M148.691 149.331C148.691 149.862 148.504 150.289 148.138 150.62C147.772 150.951 147.312 151.117 146.768 151.117H144.267V145.02H146.597C147.133 145.02 147.575 145.185 147.933 145.508C148.299 145.83 148.477 146.249 148.477 146.762C148.477 147.275 148.306 147.65 147.959 147.956C148.444 148.278 148.691 148.73 148.691 149.331ZM145.628 146.326V147.406H146.597C146.903 147.406 147.116 147.18 147.116 146.866C147.116 146.553 146.903 146.327 146.597 146.327L145.628 146.326ZM146.768 149.81C147.108 149.81 147.329 149.575 147.329 149.226C147.329 148.878 147.108 148.643 146.768 148.643H145.628V149.81H146.768Z" fill="#2D9FC8"/>
<path d="M155.004 151.116L154.706 150.157H152.494L152.197 151.116H150.708L152.733 145.019H154.468L156.493 151.116H155.004ZM152.902 148.852H154.298L153.6 146.614L152.902 148.852Z" fill="#2D9FC8"/>
<path d="M162.212 145.019H163.573V151.116H162.552L160.256 147.806V151.116H158.895V145.019H159.916L162.213 148.328L162.212 145.019Z" fill="#2D9FC8"/>
<path d="M171.407 151.116H169.858L167.953 148.293V151.116H166.591V145.019H167.953V147.667L169.774 145.019H171.322L169.314 147.989L171.407 151.116Z" fill="#2D9FC8"/>
<path d="M179.303 149.775H181.429V151.116H177.941V145.019H179.303V149.775Z" fill="#2D9FC8"/>
<path d="M187.287 145.019V146.36H185.756V151.116H184.395V146.36H182.863V145.019H187.287Z" fill="#2D9FC8"/>
<path d="M192.106 145.019C192.932 145.019 193.613 145.314 194.166 145.898C194.719 146.482 195 147.205 195 148.067C195 148.928 194.719 149.661 194.166 150.244C193.613 150.828 192.932 151.115 192.106 151.115H189.724V145.017L192.106 145.019ZM192.106 149.775C192.575 149.775 192.957 149.618 193.247 149.313C193.544 149 193.689 148.581 193.689 148.068C193.689 147.555 193.544 147.136 193.247 146.831C192.958 146.518 192.575 146.361 192.106 146.361H191.086V149.775H192.106Z" fill="#2D9FC8"/>
<path d="M85.9421 139.305H76.948L62.8062 120.307V139.305H55.0005V98.7598H62.8062V116.657L76.3822 98.7598H85.3764L70.7257 118.452L85.9421 139.304V139.305Z" fill="#001D2E"/>
<path d="M108.397 110.345H115.694V139.305H108.397V135.887C106.191 138.725 103.137 140.115 99.1768 140.115C95.2164 140.115 92.1622 138.667 89.4472 135.712C86.7891 132.759 85.4311 129.109 85.4311 124.824C85.4311 120.538 86.788 116.946 89.4472 113.993C92.1622 111.039 95.3871 109.533 99.1768 109.533C102.966 109.533 106.191 110.923 108.397 113.761V110.345ZM100.535 132.991C102.798 132.991 104.664 132.238 106.134 130.732C107.662 129.168 108.397 127.199 108.397 124.824C108.397 122.448 107.662 120.479 106.134 118.973C104.664 117.409 102.797 116.656 100.535 116.656C98.2728 116.656 96.4059 117.409 94.934 118.973C93.4634 120.479 92.728 122.448 92.728 124.824C92.728 127.199 93.4634 129.168 94.934 130.732C96.4048 132.238 98.2717 132.991 100.535 132.991Z" fill="#001D2E"/>
<path d="M138.49 117.527H132.098V129.574C132.098 132.702 134.304 132.76 138.49 132.528V139.305C128.478 140.463 124.801 137.51 124.801 129.574V117.527H119.88V110.345H124.801V104.494L132.098 102.236V110.345H138.49V117.527Z" fill="#001D2E"/>
<path d="M154.893 121.754C159.022 122.623 164.397 124.651 164.341 130.848C164.341 133.802 163.266 136.119 161.06 137.741C158.911 139.305 156.195 140.115 152.971 140.115C147.145 140.115 143.184 137.798 141.092 133.223L147.427 129.574C148.275 132.065 150.086 133.339 152.971 133.339C155.573 133.339 156.875 132.528 156.875 130.848C156.875 129.284 154.612 128.416 151.727 127.663C147.541 126.563 142.279 124.766 142.279 118.743C142.279 115.904 143.297 113.646 145.334 112.024C147.427 110.345 149.972 109.533 153.026 109.533C157.608 109.533 161.568 111.734 163.773 115.672L157.552 119.148C156.647 117.18 155.119 116.195 153.026 116.195C151.16 116.195 149.746 117.121 149.746 118.569C149.746 120.133 152.009 121.002 154.893 121.754Z" fill="#001D2E"/>
<path d="M187.702 125.983C187.702 130.79 185.27 133.166 181.479 133.166C178.085 133.166 175.879 131.08 175.879 127.2V110.346H168.583V128.127C168.583 131.892 169.6 134.788 171.579 136.93C173.617 139.074 176.161 140.116 179.273 140.116C183.119 140.116 185.948 138.784 187.701 136.061V139.305H194.998V119.357H187.701L187.702 125.983Z" fill="#001D2E"/>
<path d="M194.999 110.345H187.702V117.059H194.999V110.345Z" fill="#2D9FC8"/>
</svg>
