<svg width="250" height="250" viewBox="0 0 250 250" fill="none" xmlns="http://www.w3.org/2000/svg">
<rect width="250" height="250" fill="white"/>
<path d="M60.9559 145.019V151.116H59.5946V147.571L58.0552 150.157H57.9017L56.3622 147.571V151.116H55.001V145.019H56.3622L57.979 147.727L59.5957 145.019H60.9559Z" fill="#2D9FC8"/>
<path d="M63.9758 145.019H65.337V151.116H63.9758V145.019Z" fill="#2D9FC8"/>
<path d="M68.9313 150.332C68.3441 149.722 68.0553 148.965 68.0553 148.068C68.0553 147.171 68.3441 146.412 68.9313 145.812C69.5186 145.202 70.2582 144.898 71.1514 144.898C72.2153 144.898 73.1847 145.437 73.7032 146.309L72.5288 147.006C72.2647 146.527 71.7547 146.256 71.1503 146.256C70.6232 146.256 70.197 146.421 69.8825 146.753C69.5679 147.084 69.4144 147.519 69.4144 148.069C69.4144 148.619 69.5679 149.053 69.8825 149.385C70.197 149.716 70.6222 149.882 71.1503 149.882C71.7547 149.882 72.2818 149.594 72.5288 149.132L73.7032 149.829C73.1933 150.699 72.2314 151.24 71.1514 151.24C70.2582 151.24 69.5186 150.936 68.9313 150.334V150.332Z" fill="#2D9FC8"/>
<path d="M79.4337 151.116L78.3108 149.112H77.6645V151.116H76.3033V145.019H78.6855C79.2555 145.019 79.7321 145.219 80.1315 145.629C80.532 146.038 80.7274 146.526 80.7274 147.109C80.7274 147.85 80.285 148.53 79.6302 148.878L80.8981 151.116H79.4337ZM77.6645 146.326V147.893H78.6855C79.0602 147.893 79.3662 147.553 79.3662 147.109C79.3662 146.665 79.0602 146.326 78.6855 146.326H77.6645Z" fill="#2D9FC8"/>
<path d="M86.2238 151.238C85.365 151.238 84.6328 150.934 84.0284 150.323C83.424 149.713 83.1266 148.965 83.1266 148.068C83.1266 147.171 83.424 146.421 84.0284 145.812C84.6328 145.202 85.3639 144.898 86.2238 144.898C87.0837 144.898 87.8147 145.202 88.4191 145.812C89.0225 146.422 89.321 147.171 89.321 148.068C89.321 148.965 89.0236 149.714 88.4191 150.323C87.8147 150.934 87.0837 151.238 86.2238 151.238ZM86.2238 149.879C86.7176 149.879 87.1255 149.713 87.4573 149.374C87.789 149.034 87.9597 148.599 87.9597 148.067C87.9597 147.535 87.789 147.099 87.4573 146.76C87.1255 146.42 86.7176 146.254 86.2238 146.254C85.7299 146.254 85.3134 146.419 84.9817 146.76C84.6499 147.099 84.4879 147.535 84.4879 148.067C84.4879 148.599 84.6499 149.034 84.9817 149.374C85.3134 149.713 85.7299 149.879 86.2238 149.879Z" fill="#2D9FC8"/>
<path d="M95.6591 146.36H93.4048V147.536H95.6162V148.878H93.4048V151.116H92.0434V145.019H95.6591V146.36Z" fill="#2D9FC8"/>
<path d="M98.4535 145.019H99.8147V151.116H98.4535V145.019Z" fill="#2D9FC8"/>
<path d="M106.135 145.019H107.496V151.116H106.475L104.179 147.806V151.116H102.818V145.019H103.838L106.136 148.328L106.135 145.019Z" fill="#2D9FC8"/>
<path d="M114.197 151.116L113.9 150.157H111.688L111.391 151.116H109.902L111.927 145.019H113.662L115.687 151.116H114.197ZM112.096 148.852H113.492L112.794 146.614L112.096 148.852Z" fill="#2D9FC8"/>
<path d="M121.406 145.019H122.767V151.116H121.746L119.45 147.806V151.116H118.089V145.019H119.11L121.407 148.328L121.406 145.019Z" fill="#2D9FC8"/>
<path d="M126.362 150.332C125.775 149.722 125.486 148.965 125.486 148.068C125.486 147.171 125.775 146.412 126.362 145.812C126.95 145.202 127.689 144.898 128.582 144.898C129.646 144.898 130.616 145.437 131.134 146.309L129.96 147.006C129.696 146.527 129.186 146.256 128.581 146.256C128.054 146.256 127.628 146.421 127.314 146.753C126.999 147.084 126.845 147.519 126.845 148.069C126.845 148.619 126.999 149.053 127.314 149.385C127.628 149.716 128.053 149.882 128.581 149.882C129.186 149.882 129.713 149.594 129.96 149.132L131.134 149.829C130.624 150.699 129.662 151.24 128.582 151.24C127.689 151.24 126.95 150.936 126.362 150.334V150.332Z" fill="#2D9FC8"/>
<path d="M135.095 149.775H137.477V151.116H133.733V145.019H137.434V146.36H135.095V147.37H137.221V148.693H135.095V149.775Z" fill="#2D9FC8"/>
<path d="M148.691 149.331C148.691 149.862 148.504 150.289 148.138 150.62C147.772 150.951 147.313 151.117 146.768 151.117H144.267V145.02H146.598C147.133 145.02 147.576 145.185 147.933 145.508C148.299 145.83 148.478 146.249 148.478 146.762C148.478 147.275 148.307 147.65 147.959 147.956C148.444 148.278 148.691 148.73 148.691 149.331ZM145.628 146.326V147.406H146.598C146.904 147.406 147.116 147.18 147.116 146.866C147.116 146.553 146.904 146.327 146.598 146.327L145.628 146.326ZM146.768 149.81C147.109 149.81 147.33 149.575 147.33 149.226C147.33 148.878 147.109 148.643 146.768 148.643H145.628V149.81H146.768Z" fill="#2D9FC8"/>
<path d="M155.004 151.116L154.706 150.157H152.495L152.197 151.116H150.708L152.733 145.019H154.468L156.494 151.116H155.004ZM152.903 148.852H154.298L153.601 146.614L152.903 148.852Z" fill="#2D9FC8"/>
<path d="M162.212 145.019H163.574V151.116H162.553L160.257 147.806V151.116H158.895V145.019H159.916L162.213 148.328L162.212 145.019Z" fill="#2D9FC8"/>
<path d="M171.407 151.116H169.859L167.953 148.293V151.116H166.592V145.019H167.953V147.667L169.774 145.019H171.323L169.315 147.989L171.407 151.116Z" fill="#2D9FC8"/>
<path d="M179.303 149.775H181.429V151.116H177.942V145.019H179.303V149.775Z" fill="#2D9FC8"/>
<path d="M187.287 145.019V146.36H185.757V151.116H184.395V146.36H182.864V145.019H187.287Z" fill="#2D9FC8"/>
<path d="M192.107 145.019C192.933 145.019 193.614 145.314 194.167 145.898C194.719 146.482 195.001 147.205 195.001 148.067C195.001 148.928 194.719 149.661 194.167 150.244C193.614 150.828 192.933 151.115 192.107 151.115H189.725V145.017L192.107 145.019ZM192.107 149.775C192.575 149.775 192.957 149.618 193.248 149.313C193.544 149 193.69 148.581 193.69 148.068C193.69 147.555 193.544 147.136 193.248 146.831C192.958 146.518 192.575 146.361 192.107 146.361H191.086V149.775H192.107Z" fill="#2D9FC8"/>
<path d="M85.9426 139.305H76.9485L62.8066 120.307V139.305H55.001V98.7598H62.8066V116.657L76.3827 98.7598H85.3769L70.7262 118.452L85.9426 139.304V139.305Z" fill="#001D2E"/>
<path d="M108.398 110.345H115.695V139.305H108.398V135.887C106.192 138.725 103.138 140.115 99.1772 140.115C95.2169 140.115 92.1627 138.667 89.4477 135.712C86.7896 132.759 85.4316 129.109 85.4316 124.824C85.4316 120.538 86.7885 116.946 89.4477 113.993C92.1627 111.039 95.3876 109.533 99.1772 109.533C102.967 109.533 106.192 110.923 108.398 113.761V110.345ZM100.535 132.991C102.798 132.991 104.664 132.238 106.135 130.732C107.662 129.168 108.398 127.199 108.398 124.824C108.398 122.448 107.662 120.479 106.135 118.973C104.664 117.409 102.797 116.656 100.535 116.656C98.2733 116.656 96.4064 117.409 94.9345 118.973C93.4638 120.479 92.7285 122.448 92.7285 124.824C92.7285 127.199 93.4638 129.168 94.9345 130.732C96.4053 132.238 98.2722 132.991 100.535 132.991Z" fill="#001D2E"/>
<path d="M138.49 117.527H132.098V129.574C132.098 132.702 134.305 132.76 138.49 132.528V139.305C128.478 140.463 124.802 137.51 124.802 129.574V117.527H119.88V110.345H124.802V104.494L132.098 102.236V110.345H138.49V117.527Z" fill="#001D2E"/>
<path d="M154.894 121.754C159.023 122.623 164.397 124.651 164.342 130.848C164.342 133.802 163.266 136.119 161.061 137.741C158.911 139.305 156.195 140.115 152.971 140.115C147.145 140.115 143.185 137.798 141.093 133.223L147.428 129.574C148.276 132.065 150.087 133.339 152.971 133.339C155.574 133.339 156.875 132.528 156.875 130.848C156.875 129.284 154.612 128.416 151.727 127.663C147.541 126.563 142.28 124.766 142.28 118.743C142.28 115.904 143.298 113.646 145.334 112.024C147.427 110.345 149.973 109.533 153.027 109.533C157.609 109.533 161.569 111.734 163.774 115.672L157.552 119.148C156.647 117.18 155.12 116.195 153.027 116.195C151.16 116.195 149.746 117.121 149.746 118.569C149.746 120.133 152.009 121.002 154.894 121.754Z" fill="#001D2E"/>
<path d="M187.703 125.983C187.703 130.79 185.27 133.166 181.48 133.166C178.086 133.166 175.879 131.08 175.879 127.2V110.346H168.583V128.127C168.583 131.892 169.601 134.788 171.58 136.93C173.617 139.074 176.162 140.116 179.273 140.116C183.12 140.116 185.948 138.784 187.702 136.061V139.305H194.999V119.357H187.702L187.703 125.983Z" fill="#001D2E"/>
<path d="M195 110.345H187.703V117.059H195V110.345Z" fill="#2D9FC8"/>
</svg>
