<svg width="250" height="250" viewBox="0 0 250 250" fill="none" xmlns="http://www.w3.org/2000/svg">
<rect width="250" height="250" fill="white"/>
<path d="M80.4289 67.4923V140.534L85.1952 136.297L154.312 67.4922H179.328L109.726 135.109C143.928 130.522 163.131 140.51 169.806 182.507H154.217C147.616 146.187 131.592 149.133 91.4415 151.362L90.9341 151.39L90.7644 151.4L90.5948 151.409L90.4246 151.419L90.0838 151.437L89.5711 151.466L89.3998 151.476L88.8843 151.505L88.7121 151.514L88.5396 151.524L88.367 151.534L88.1941 151.543L88.021 151.553L87.2814 151.595L87.0773 151.606L86.8951 151.617L86.667 151.629L86.1486 151.658L85.622 151.688L85.4084 151.7L85.1932 151.712L84.7566 151.736L84.535 151.748L84.3197 151.76L84.0847 151.774L83.5065 151.806L83.3053 151.816L83.1745 151.824L83.0305 151.831L82.5411 151.859L82.1648 151.879L81.5221 151.914L81.3859 151.921L80.8458 151.95L80.6309 151.962L80.4775 151.97L80.4287 154.579V182.507H65.001V67.4922L80.4289 67.4923Z" fill="#00A900"/>
<path fill-rule="evenodd" clip-rule="evenodd" d="M93.5398 109.538L135.776 67.4922H93.5398V109.538Z" fill="#00A900"/>
<path fill-rule="evenodd" clip-rule="evenodd" d="M185.001 80.2143L140.982 122.978C147.121 124.536 152.705 127.066 157.774 130.735C170.592 140.013 178.787 155.733 182.716 180.457L183.042 182.506H185.001V80.2143Z" fill="#FC0404"/>
<path fill-rule="evenodd" clip-rule="evenodd" d="M140.897 182.508C136.37 161.855 124.851 162.526 98.2249 164.077L97.5344 164.117L93.5398 164.357V182.508H140.897Z" fill="#00A900"/>
</svg>
