<svg width="250" height="250" viewBox="0 0 250 250" fill="none" xmlns="http://www.w3.org/2000/svg">
<mask id="path-1-inside-1_769_285" fill="white">
<path d="M0 48C0 21.4903 21.4903 0 48 0H202C228.51 0 250 21.4903 250 48V202C250 228.51 228.51 250 202 250H48C21.4903 250 0 228.51 0 202V48Z"/>
</mask>
<path d="M0 48C0 21.4903 21.4903 0 48 0H202C228.51 0 250 21.4903 250 48V202C250 228.51 228.51 250 202 250H48C21.4903 250 0 228.51 0 202V48Z" fill="white"/>
<path d="M48 0V2H202V0V-2H48V0ZM250 48H248V202H250H252V48H250ZM202 250V248H48V250V252H202V250ZM0 202H2V48H0H-2V202H0ZM48 250V248C22.5949 248 2 227.405 2 202H0H-2C-2 229.614 20.3858 252 48 252V250ZM250 202H248C248 227.405 227.405 248 202 248V250V252C229.614 252 252 229.614 252 202H250ZM202 0V2C227.405 2 248 22.5949 248 48H250H252C252 20.3858 229.614 -2 202 -2V0ZM48 0V-2C20.3858 -2 -2 20.3858 -2 48H0H2C2 22.5949 22.5949 2 48 2V0Z" fill="#DDDBDB" mask="url(#path-1-inside-1_769_285)"/>
<path d="M80.4294 67.4926V140.534L85.1957 136.298L154.313 67.4925H179.328L109.726 135.11C143.928 130.522 163.131 140.51 169.806 182.507H154.218C147.616 146.187 131.593 149.134 91.442 151.362L90.9346 151.39L90.7649 151.4L90.5953 151.409L90.4251 151.419L90.0843 151.438L89.5716 151.467L89.4003 151.476L88.8848 151.505L88.7126 151.514L88.5401 151.525L88.3675 151.534L88.1946 151.544L88.0215 151.554L87.2819 151.595L87.0778 151.607L86.8956 151.617L86.6675 151.63L86.149 151.658L85.6224 151.688L85.4089 151.7L85.1937 151.712L84.7571 151.736L84.5355 151.749L84.3202 151.76L84.0851 151.774L83.507 151.806L83.3058 151.817L83.175 151.824L83.031 151.832L82.5416 151.859L82.1653 151.879L81.5226 151.914L81.3864 151.922L80.8463 151.951L80.6314 151.962L80.478 151.97L80.4292 154.579V182.507H65.0015V67.4924L80.4294 67.4926Z" fill="#00A900"/>
<path fill-rule="evenodd" clip-rule="evenodd" d="M93.5403 109.538L135.776 67.4924H93.5403V109.538Z" fill="#00A900"/>
<path fill-rule="evenodd" clip-rule="evenodd" d="M185.001 80.2146L140.983 122.978C147.121 124.536 152.705 127.066 157.775 130.736C170.592 140.013 178.787 155.733 182.717 180.457L183.042 182.506H185.001V80.2146Z" fill="#FC0404"/>
<path fill-rule="evenodd" clip-rule="evenodd" d="M140.898 182.508C136.371 161.855 124.852 162.526 98.2254 164.077L97.5349 164.117L93.5403 164.357V182.508H140.898Z" fill="#00A900"/>
</svg>
