<svg width="250" height="250" viewBox="0 0 250 250" fill="none" xmlns="http://www.w3.org/2000/svg">
<mask id="path-1-inside-1_769_287" fill="white">
<path d="M0 48C0 21.4903 21.4903 0 48 0H202C228.51 0 250 21.4903 250 48V202C250 228.51 228.51 250 202 250H48C21.4903 250 0 228.51 0 202V48Z"/>
</mask>
<path d="M0 48C0 21.4903 21.4903 0 48 0H202C228.51 0 250 21.4903 250 48V202C250 228.51 228.51 250 202 250H48C21.4903 250 0 228.51 0 202V48Z" fill="white"/>
<path d="M48 0V2H202V0V-2H48V0ZM250 48H248V202H250H252V48H250ZM202 250V248H48V250V252H202V250ZM0 202H2V48H0H-2V202H0ZM48 250V248C22.5949 248 2 227.405 2 202H0H-2C-2 229.614 20.3858 252 48 252V250ZM250 202H248C248 227.405 227.405 248 202 248V250V252C229.614 252 252 229.614 252 202H250ZM202 0V2C227.405 2 248 22.5949 248 48H250H252C252 20.3858 229.614 -2 202 -2V0ZM48 0V-2C20.3858 -2 -2 20.3858 -2 48H0H2C2 22.5949 22.5949 2 48 2V0Z" fill="#DDDBDB" mask="url(#path-1-inside-1_769_287)"/>
<path fill-rule="evenodd" clip-rule="evenodd" d="M60.0911 60.8735C60.0911 60.8735 132.904 60.9418 169.649 60.9416C172.037 60.9994 175.046 61.2439 177.26 62.0848C191.662 67.5547 189.943 83.8886 189.931 96.369C189.899 127.288 190.011 158.207 189.897 189.126H92.6196L76.8084 188.913C72.3399 188.176 69.4414 187.149 66.0729 183.976C59.7935 178.062 60.2016 170.488 60.1156 162.805C59.8739 128.83 60.0874 94.8491 60.0911 60.8735ZM167.763 74.9141L87.0387 74.9535C82.7479 74.9537 78.2793 74.8951 74.0019 75.0045L74.0051 157.563C74.0048 161.54 73.8739 165.546 74.1955 169.509C74.5456 173.825 76.9381 175.178 80.9707 175.195C112.157 175.162 175.669 175.222 175.669 175.222C175.669 175.222 175.654 161.888 175.654 155.49L175.693 94.0231C175.694 89.8084 175.782 85.4125 175.521 81.2086C175.421 79.6037 174.957 77.5921 173.823 76.4019C172.23 74.7307 169.933 74.9187 167.763 74.9141Z" fill="#00933F"/>
<path d="M151.928 81.444L113.656 121.602L152.912 167.2C152.912 167.2 134.203 167.252 124.848 167.283L89.2852 121.94C101.651 108.774 125.59 81.539 125.59 81.539L151.928 81.444Z" fill="#00933F"/>
</svg>
