<svg width="250" height="250" viewBox="0 0 250 250" fill="none" xmlns="http://www.w3.org/2000/svg">
<rect width="250" height="250" fill="white"/>
<path fill-rule="evenodd" clip-rule="evenodd" d="M60.0906 60.874C60.0906 60.874 132.904 60.9423 169.648 60.9421C172.037 60.9999 175.045 61.2444 177.259 62.0853C191.661 67.5552 189.943 83.8891 189.93 96.3695C189.899 127.289 190.011 158.208 189.896 189.127H92.6191L76.8079 188.913C72.3394 188.177 69.441 187.15 66.0725 183.977C59.793 178.062 60.2011 170.488 60.1151 162.806C59.8734 128.831 60.0869 94.8496 60.0906 60.874ZM167.763 74.9146L87.0382 74.954C82.7474 74.9542 78.2788 74.8955 74.0015 75.005L74.0047 157.563C74.0043 161.54 73.8735 165.546 74.195 169.51C74.5452 173.825 76.9376 175.178 80.9702 175.196C112.157 175.162 175.668 175.222 175.668 175.222C175.668 175.222 175.653 161.888 175.654 155.49L175.693 94.0236C175.693 89.8089 175.782 85.413 175.521 81.2091C175.421 79.6042 174.957 77.5926 173.822 76.4024C172.229 74.7312 169.933 74.9192 167.763 74.9146Z" fill="#00933F"/>
<path d="M151.927 81.4445L113.655 121.603L152.912 167.2C152.912 167.2 134.203 167.252 124.848 167.283L89.2847 121.94C101.651 108.775 125.589 81.5394 125.589 81.5394L151.927 81.4445Z" fill="#00933F"/>
</svg>
