<svg width="250" height="250" viewBox="0 0 250 250" fill="none" xmlns="http://www.w3.org/2000/svg">
<path d="M0 48C0 21.4903 21.4903 0 48 0H202C228.51 0 250 21.4903 250 48V202C250 228.51 228.51 250 202 250H48C21.4903 250 0 228.51 0 202V48Z" fill="#004023"/>
<path d="M178.493 157.521C178.493 157.521 169.122 193.006 126.89 194.932C84.6567 196.857 71.5059 157.594 71.5059 157.594H107.417L125 167.787L142.78 157.521H178.493ZM169.298 80.627V132.077L125.085 157.66L80.2783 132.077V80.627L125.085 55L169.298 80.627ZM99.9238 95.5127V116.727L114.531 131.334H135.376L149.976 116.727V95.5127L135.404 80.9414H114.473L99.9238 95.5127Z" fill="white"/>
</svg>
