<svg width="250" height="250" viewBox="0 0 250 250" fill="none" xmlns="http://www.w3.org/2000/svg">
<mask id="path-1-inside-1_769_292" fill="white">
<path d="M0 48C0 21.4903 21.4903 0 48 0H202C228.51 0 250 21.4903 250 48V202C250 228.51 228.51 250 202 250H48C21.4903 250 0 228.51 0 202V48Z"/>
</mask>
<path d="M0 48C0 21.4903 21.4903 0 48 0H202C228.51 0 250 21.4903 250 48V202C250 228.51 228.51 250 202 250H48C21.4903 250 0 228.51 0 202V48Z" fill="white"/>
<path d="M48 0V2H202V0V-2H48V0ZM250 48H248V202H250H252V48H250ZM202 250V248H48V250V252H202V250ZM0 202H2V48H0H-2V202H0ZM48 250V248C22.5949 248 2 227.405 2 202H0H-2C-2 229.614 20.3858 252 48 252V250ZM250 202H248C248 227.405 227.405 248 202 248V250V252C229.614 252 252 229.614 252 202H250ZM202 0V2C227.405 2 248 22.5949 248 48H250H252C252 20.3858 229.614 -2 202 -2V0ZM48 0V-2C20.3858 -2 -2 20.3858 -2 48H0H2C2 22.5949 22.5949 2 48 2V0Z" fill="#DDDBDB" mask="url(#path-1-inside-1_769_292)"/>
<path d="M124.032 69.498L137.607 69.3638C134.208 75.0562 130.158 79.422 126.34 84.7636C116.688 98.2671 106.327 111.532 96.6809 125.026C98.4619 128.345 104.31 135.978 106.799 139.342L127.427 166.673C130.827 171.259 134.299 175.795 137.358 180.615L109.473 180.61L96.1961 180.636C95.3738 179.331 93.4591 177.013 92.4476 175.706L85.2739 166.376C77.7671 156.478 70.3771 146.492 63.1055 136.421C60.8629 133.288 56.7013 128.269 55 124.964C56.0479 122.836 59.2112 118.786 60.7103 116.749L70.5336 103.402C76.3047 95.5876 82.1459 87.8252 88.0562 80.1156C90.3458 77.1805 93.8725 72.4783 96.348 69.9463C98.9736 69.7342 103.956 69.8558 106.784 69.8311C112.534 69.7591 118.284 69.6481 124.032 69.498Z" fill="#81CB50"/>
<path d="M159.424 89.8559C178.722 89.5596 194.626 104.925 194.994 124.222C195.361 143.518 180.055 159.478 160.76 159.918C141.364 160.36 125.301 144.956 124.931 125.558C124.561 106.159 140.025 90.1534 159.424 89.8559Z" fill="#81CB50"/>
</svg>
