<svg width="250" height="250" viewBox="0 0 250 250" fill="none" xmlns="http://www.w3.org/2000/svg">
<mask id="path-1-inside-1_769_294" fill="white">
<path d="M0 48C0 21.4903 21.4903 0 48 0H202C228.51 0 250 21.4903 250 48V202C250 228.51 228.51 250 202 250H48C21.4903 250 0 228.51 0 202V48Z"/>
</mask>
<path d="M0 48C0 21.4903 21.4903 0 48 0H202C228.51 0 250 21.4903 250 48V202C250 228.51 228.51 250 202 250H48C21.4903 250 0 228.51 0 202V48Z" fill="white"/>
<path d="M48 0V2H202V0V-2H48V0ZM250 48H248V202H250H252V48H250ZM202 250V248H48V250V252H202V250ZM0 202H2V48H0H-2V202H0ZM48 250V248C22.5949 248 2 227.405 2 202H0H-2C-2 229.614 20.3858 252 48 252V250ZM250 202H248C248 227.405 227.405 248 202 248V250V252C229.614 252 252 229.614 252 202H250ZM202 0V2C227.405 2 248 22.5949 248 48H250H252C252 20.3858 229.614 -2 202 -2V0ZM48 0V-2C20.3858 -2 -2 20.3858 -2 48H0H2C2 22.5949 22.5949 2 48 2V0Z" fill="#DDDBDB" mask="url(#path-1-inside-1_769_294)"/>
<path fill-rule="evenodd" clip-rule="evenodd" d="M69.8194 64.3726C61.6349 64.3726 55 71.0074 55 79.192V154.225C55 162.136 61.1985 168.599 69.0037 169.023C70.941 169.951 73.1115 170.472 75.4035 170.472H168.616C176.801 170.472 183.436 163.837 183.436 155.652V84.7761C183.436 84.0546 183.384 83.3451 183.285 82.6511V79.192C183.285 71.0074 176.65 64.3726 168.465 64.3726H69.8194ZM183.285 82.6511C182.254 75.4733 176.079 69.9567 168.616 69.9567H75.4035C67.219 69.9567 60.5841 76.5916 60.5841 84.7761V155.652C60.5841 161.545 64.0232 166.634 69.0037 169.023C69.2737 169.037 69.5457 169.045 69.8194 169.045H168.465C176.65 169.045 183.285 162.41 183.285 154.225V82.6511Z" fill="#FF7A00"/>
<path d="M76.1517 75.3341C71.963 76.37 67.2788 80.6938 65.4773 85.1978L64.4413 87.765L64.3062 127.265C64.1711 171.134 64.1261 170.458 67.0987 175.052C68.63 177.484 70.9721 179.601 73.4493 180.907C76.4669 182.438 79.7999 182.574 112.724 182.574H145.288V192.257C145.288 201.4 145.333 201.94 146.098 201.535C146.504 201.265 149.521 198.833 152.719 196.04C155.962 193.293 160.826 189.104 163.619 186.807L168.618 182.574H173.753C182.49 182.574 186.499 181.357 190.192 177.529C191.228 176.493 192.669 174.376 193.345 172.89L194.606 170.188V86.8643L193.12 83.8466C191.498 80.5137 188.706 77.7212 185.373 76.1448L183.346 75.154L130.424 75.0639C101.329 75.0639 76.9173 75.154 76.1517 75.3341ZM121.056 101.502L121.191 116.365L130.199 106.366C140.333 95.1065 143.261 91.8637 146.188 88.7559L148.215 86.594L158.799 86.8643L154.656 91.5934C149.431 97.5386 130.199 119.338 128.758 120.914L127.677 122.085L135.199 132.399C148.981 151.271 160.421 167.035 160.781 167.575C161.052 168.026 159.88 168.161 155.512 168.161H149.927L143.08 159.063C139.297 154.018 132.812 145.416 128.668 139.921L121.191 129.922L121.056 149.019L120.966 168.161H111.958V139.786H97.9958V130.327H111.958V120.869H97.9958V110.96H111.958V86.6391H120.966L121.056 101.502Z" fill="#001E89"/>
</svg>
