<svg width="250" height="250" viewBox="0 0 250 250" fill="none" xmlns="http://www.w3.org/2000/svg">
<path d="M0 48C0 21.4903 21.4903 0 48 0H202C228.51 0 250 21.4903 250 48V202C250 228.51 228.51 250 202 250H48C21.4903 250 0 228.51 0 202V48Z" fill="#40196D"/>
<path d="M137.118 64.1509H164.447L116.449 124.734L165.533 185.316H136.846L86.1324 127.178L137.118 64.1509Z" fill="white"/>
<path d="M97.4016 64.1509H116.499L87.3752 127.178L115.141 185.316H94.4139L69.6361 126.635L97.4016 64.1509Z" fill="white"/>
<path d="M70.584 64.1509H81.4496L69.7924 126.635L81.4496 185.316H70.584L59.1984 126.635L70.584 64.1509Z" fill="white"/>
<path d="M55 64.1509H61.0913V185.316H55V64.1509Z" fill="white"/>
<circle cx="181.419" cy="172.269" r="13.5806" fill="white"/>
</svg>
