<svg width="250" height="250" viewBox="0 0 250 250" fill="none" xmlns="http://www.w3.org/2000/svg">
<mask id="path-1-inside-1_769_299" fill="white">
<path d="M0 48C0 21.4903 21.4903 0 48 0H202C228.51 0 250 21.4903 250 48V202C250 228.51 228.51 250 202 250H48C21.4903 250 0 228.51 0 202V48Z"/>
</mask>
<path d="M0 48C0 21.4903 21.4903 0 48 0H202C228.51 0 250 21.4903 250 48V202C250 228.51 228.51 250 202 250H48C21.4903 250 0 228.51 0 202V48Z" fill="white"/>
<path d="M48 0V2H202V0V-2H48V0ZM250 48H248V202H250H252V48H250ZM202 250V248H48V250V252H202V250ZM0 202H2V48H0H-2V202H0ZM48 250V248C22.5949 248 2 227.405 2 202H0H-2C-2 229.614 20.3858 252 48 252V250ZM250 202H248C248 227.405 227.405 248 202 248V250V252C229.614 252 252 229.614 252 202H250ZM202 0V2C227.405 2 248 22.5949 248 48H250H252C252 20.3858 229.614 -2 202 -2V0ZM48 0V-2C20.3858 -2 -2 20.3858 -2 48H0H2C2 22.5949 22.5949 2 48 2V0Z" fill="#DDDBDB" mask="url(#path-1-inside-1_769_299)"/>
<path d="M122.506 96.3129C123.76 97.1238 125.083 98.4226 126.324 99.4121C127.233 98.6043 128.355 97.7479 129.311 96.9538C128.801 98.0366 128.045 99.2015 127.401 100.206C131.677 103.271 133.876 105.45 139.271 103.974C141.125 103.467 143.118 103.097 145 102.396C145.431 102.236 146.963 101.628 147.267 101.683C147.3 102.064 144.998 103.419 144.531 103.761C141.85 105.777 138.935 108.009 137.781 111.312C136.132 116.03 137.997 118.645 142.297 120.228C140.746 121.184 139.115 122.045 137.518 122.927C139.339 128.495 140.734 134.242 142.352 139.874C142.536 140.515 143.641 143.879 143.459 144.251L143.328 144.186C143.064 143.545 142.513 142.538 142.186 141.855L133.395 123.567C133.289 125.65 132.254 142.612 131.753 143.269C131.224 142.778 130.152 133.675 129.779 132.293C129.714 132.053 129.722 130.714 129.694 130.633C129.071 128.899 133.473 120.673 133.312 120.127C132.518 120.129 129.958 123.184 128.582 122.515C128.504 122.158 129.487 120.558 129.696 120.05C129.902 119.552 130.07 119.022 130.245 118.524C132.554 111.944 129.357 107.596 126.373 102.014C125.617 103.288 124.355 105.047 123.707 106.222C121.46 110.293 121.562 118.603 122.775 122.946C121.431 122.016 119.145 120.463 117.748 119.805C117.974 120.8 120.874 125.76 121.582 127.31C121.695 127.54 122.386 129.039 122.466 129.145C123.097 132.292 121.867 136.915 121.431 140.127C121.352 140.71 121.047 143.227 120.735 143.446C119.972 142.292 119.507 128.183 119.245 125.838C119.206 125.488 119.295 125.239 119.135 124.771L118.933 124.686C118.371 124.964 118.089 126.036 117.815 126.606L116.152 129.994L111.257 139.912C110.38 141.668 109.385 143.753 108.428 145.446C109.859 138.596 114.625 115.898 113.448 110.265C112.695 106.657 107.911 103.63 105.072 101.726C108.519 102.534 111.852 103.59 115.363 104.107C117.699 104.452 118.514 103.967 120.457 102.791C121.989 101.863 123.581 101.206 125.041 100.097C124.419 99.3112 123.187 97.2802 122.506 96.3129Z" fill="#E88120"/>
<path d="M123.412 56.7771C124.923 56.6271 128.829 56.8371 130.431 56.9582C133.221 57.2184 135.883 57.8046 138.582 58.5041C157.656 63.4472 172.641 79.5414 176.906 98.6828C177.217 100.08 177.672 101.704 177.552 103.131C176.993 101.78 176.566 99.6807 175.931 98.0057C173.663 92.0081 170.409 86.4318 166.301 81.5077C163.998 78.7485 161.195 76.18 158.377 73.9521C149.374 66.835 139.447 63.3351 128.091 62.2866C122.412 61.977 117.316 62.2851 111.777 63.6558C96.8637 67.2811 84.129 76.9429 76.6209 90.3282C75.554 92.2364 74.4992 94.5162 73.616 96.5248C73.1161 97.6612 72.684 99.6978 72.0675 100.715C71.8535 100.304 72.4048 98.0826 72.543 97.5019C76.9463 79.0119 91.6803 63.7111 110.046 58.7388C114.764 57.4615 118.504 56.9714 123.412 56.7771Z" fill="#E88120"/>
<path d="M126.479 124.804C128.519 124.181 129.706 123.325 131.476 122.589C130.955 123.788 129.301 128.265 129.179 129.461C128.878 132.39 129.342 136.733 129.591 139.756C129.642 140.363 129.97 144.095 129.9 144.456C129.767 144.41 129.809 144.451 129.752 144.361L129.949 144.339L129.699 144.259C128.795 141.817 127.946 139.355 126.984 136.931C126.761 136.369 126.582 135.829 126.44 135.241C125.922 136.316 122.743 143.872 122.427 144.07C122.108 143.558 122.767 140.682 122.763 139.765C123.03 137.808 123.195 135.833 123.398 133.87C123.663 131.315 123.559 129.385 122.575 126.994C122.171 126.035 121.28 123.698 120.832 122.894C122.677 123.637 124.562 124.275 126.479 124.804Z" fill="#E88120"/>
<path d="M57.6892 134.354C60.2677 133.956 63.5599 139.595 64.3355 141.697C64.6071 142.433 66.1802 147.488 65.96 147.985C65.644 147.866 65.5365 147.663 65.3248 147.391C63.0476 144.901 61.8143 143.636 58.6087 142.521C58.5277 142.375 58.4497 142.227 58.3746 142.077C57.828 140.977 55.8588 136.693 56.2507 135.523C56.447 134.937 57.154 134.602 57.6892 134.354Z" fill="#01984F"/>
<path d="M58.1453 135.55C58.8696 136.223 59.4897 138.171 59.2279 139.165C59.075 139.745 58.6887 139.987 58.231 140.285L58.1074 140.211C58.548 139.688 58.7069 139.476 59.0536 138.89C58.8909 138.088 58.1599 135.986 58.1453 135.55Z" fill="#71EEAE"/>
<path d="M185.457 141.977C186.446 139.463 188.132 136.699 190.254 134.921C190.755 134.547 191.531 134.24 192.157 134.404C195.467 135.266 192.525 138.837 192.192 140.532C192.049 140.222 191.508 139.931 191.202 139.439C190.287 137.973 191.475 136.911 191.728 135.789L191.597 135.681C190.864 136.96 190.598 137.843 190.613 139.293C191.04 139.97 191.376 140.448 192.192 140.532C191.9 141.286 191.739 141.86 191.294 142.548C188.288 143.188 185.456 146.314 183.526 148.634C184.133 146.405 184.777 144.185 185.457 141.977Z" fill="#01984F"/>
<path d="M177.912 154.867C178.456 151.578 178.341 148.189 179.439 144.94C179.916 143.531 180.623 142.243 182.025 141.571C185.064 140.114 184.17 142.789 183.829 144.565C183.69 145.325 183.617 145.954 183.356 146.624L183.299 147.07C183.192 148.464 183.052 149.177 182.051 150.273C180.647 151.81 179.231 153.249 177.912 154.867Z" fill="#01984F"/>
<path d="M182.051 142.789C181.953 144.486 181.141 146.164 183.356 146.624L183.299 147.07C180.792 146.782 181.462 144.35 182.051 142.789Z" fill="#71EEAE"/>
<path d="M66.4794 146.649C66.1578 144.678 64.1607 138.883 68.5508 142.055C71.2467 144.003 71.5721 150.713 71.8718 153.836C71.9041 154.172 71.9346 154.509 71.9631 154.845C70.0328 152.294 66.7198 150.187 66.5395 146.948L66.4794 146.649Z" fill="#01984F"/>
<path d="M66.4794 146.649C68.2549 146.315 68.0491 145.196 68.0314 143.615L68.0487 143.714C68.4113 144.137 68.3357 145.197 68.2918 145.74C68.2818 145.863 68.2686 145.987 68.2523 146.11C67.7651 146.509 67.2059 147.106 66.5395 146.948L66.4794 146.649Z" fill="#71EEAE"/>
<path d="M136.52 94.3694C137.768 94.1041 139.061 94.5341 139.902 95.4934C140.742 96.4527 140.999 97.7915 140.572 98.9934C140.145 100.195 139.102 101.073 137.845 101.287C135.954 101.61 134.153 100.361 133.793 98.4774C133.432 96.5939 134.644 94.768 136.52 94.3694Z" fill="#E88120"/>
<path d="M116.505 94.4425C117.769 94.3898 118.963 95.0215 119.63 96.096C120.298 97.1703 120.335 98.5208 119.728 99.6302C119.121 100.74 117.963 101.436 116.698 101.453C115.758 101.466 114.851 101.1 114.183 100.438C113.515 99.7753 113.14 98.8724 113.145 97.9314C113.153 96.0573 114.633 94.5207 116.505 94.4425Z" fill="#E88120"/>
<path d="M74.0835 150.536C74.6985 150.593 75.3399 150.819 75.9173 151.022C77.5338 152.889 77.2556 155.694 76.8877 157.973C76.8316 158.32 76.657 158.878 76.3549 159.065L76.0217 158.981L75.9732 158.946C74.5876 157.919 73.6806 156.939 72.6512 155.551C73.2264 153.96 73.2551 151.506 74.0835 150.536ZM75.1482 153.001C75.238 152.529 75.3903 151.95 75.2971 151.49C75.1591 151.323 75.2161 151.345 75.0394 151.262C74.9825 151.733 74.849 152.504 74.9413 152.934L75.1482 153.001Z" fill="#01984F"/>
<path d="M74.7047 153.628L74.7936 153.627L74.8389 153.771C74.4563 154.336 73.9902 154.417 73.3553 154.422L73.1848 154.316C73.2834 153.901 73.9145 154.234 74.7047 153.628Z" fill="#71EEAE"/>
<path d="M75.0394 151.262C75.2161 151.345 75.1591 151.323 75.2971 151.49C75.3903 151.95 75.238 152.529 75.1482 153.001L74.9413 152.934C74.849 152.504 74.9825 151.733 75.0394 151.262Z" fill="#71EEAE" fill-opacity="0.988235"/>
<path d="M172.762 156.084C172.684 155.359 172.686 154.627 172.766 153.902C172.959 152.196 173.799 150.373 175.837 150.624C175.909 150.671 175.996 150.728 176.097 150.794C176.404 151.647 176.686 153.259 176.878 154.11C176.018 153.999 175.729 153.932 174.982 153.484L174.871 153.714C175.387 154.256 175.981 154.597 176.755 154.373L176.878 154.11C176.901 154.475 177.106 155.088 177.22 155.448L177.123 155.595C176.407 156.686 174.906 158.529 173.682 159.034C173.04 159.298 172.804 156.515 172.762 156.084Z" fill="#01984F"/>
<path d="M125.902 117.378C127.128 117.217 128.251 118.081 128.41 119.307C128.57 120.533 127.704 121.655 126.478 121.813C125.905 121.887 125.325 121.736 124.86 121.392C124.128 120.849 123.799 119.916 124.027 119.033C124.256 118.151 124.998 117.496 125.902 117.378Z" fill="#E88120"/>
<path d="M191.597 135.681L191.728 135.789C191.475 136.911 190.287 137.973 191.202 139.439C191.508 139.931 192.049 140.222 192.192 140.532C191.376 140.448 191.04 139.97 190.613 139.293C190.598 137.843 190.864 136.96 191.597 135.681Z" fill="#71EEAE" fill-opacity="0.988235"/>
<path d="M174.871 153.714L174.982 153.484C175.729 153.932 176.018 153.999 176.878 154.11L176.755 154.373C175.981 154.597 175.387 154.256 174.871 153.714Z" fill="#71EEAE" fill-opacity="0.988235"/>
<path d="M155.164 165.246L161.396 164.788C165.141 164.545 167.21 164.482 170.491 162.264C171.637 161.49 173.12 160.834 174.255 159.986C176.669 158.183 179.144 155.238 181.144 152.971C184.182 149.479 186.633 144.956 191.249 143.329C191.786 143.139 192.724 142.625 193.206 142.631C196.181 142.667 194.481 145.15 193.428 146.328C192.182 147.72 191.072 149.038 190.014 150.573C189.197 151.702 188.693 152.873 187.898 154C186.644 155.618 184.698 157.394 183.611 159.082C182.21 161.256 180.471 163.607 179.138 165.767C176.429 170.158 175.344 170.635 170.667 172.414C167.341 173.712 163.965 174.882 160.547 175.918C150.765 178.881 144.296 179.072 140.096 189.525C139.95 189.887 138.8 192.755 138.305 193.157C131.103 193.251 123.578 193.056 116.373 193.197C114.61 193.232 112.57 193.146 111.514 193.297C109.628 189.45 108.032 184.85 104.748 181.903C101.074 178.606 95.3913 177.659 90.7661 176.315C87.084 175.224 83.4418 174.002 79.8465 172.653C78.2998 172.068 76.4622 171.421 75.0279 170.619C73.2209 169.609 71.8569 167.381 70.7027 165.719C68.8802 163.095 67.2639 160.325 65.3144 157.794C64.2414 156.405 62.886 155.103 61.8128 153.709C61.2579 152.988 60.8183 152.018 60.3276 151.257C59.7884 150.421 59.129 149.506 58.5173 148.71C57.3949 147.251 55.9482 146.006 55.0882 144.342C54.9981 144.168 54.9843 144.065 54.875 143.904V143.652C55.1594 143.198 55.3215 142.878 55.8887 142.74C57.279 142.402 59.9109 143.773 61.0729 144.558C63.6301 146.286 65.4095 148.8 67.2989 151.172C69.7971 154.275 72.4742 157.464 75.5839 159.965C76.5579 160.748 77.8809 161.323 78.8849 161.976C81.9485 163.967 84.1401 164.698 87.8091 164.776C89.8208 164.819 92.5961 164.987 94.6412 165.248C90.5075 162.682 81.594 160.387 80.2597 155.406C80.0536 154.637 79.687 151.261 80.0676 150.588C80.4686 150.483 80.6525 150.557 81.0052 150.77C82.063 151.411 82.8633 152.316 83.937 152.943C84.6784 153.376 85.1982 153.501 85.4265 154.34C85.7193 154.173 85.8286 153.982 86.1675 154.107C89.0769 155.189 92.0443 156.883 95.1185 157.441C99.8923 158.307 105.08 157.261 109.741 158.704C111.038 159.115 112.974 160.444 114.105 161.222C116.359 162.7 117.872 164.195 119.123 166.602C121.812 171.778 123.284 177.379 124.174 183.116C124.328 184.104 124.743 188.892 125.079 189.223C125.348 188.477 125.26 186.533 125.374 185.631C126.179 179.29 127.593 172.95 130.466 167.2C130.999 166.177 131.458 165.136 132.197 164.24C133.751 162.356 135.923 161.124 137.935 159.794C139.096 159.027 140.598 158.405 141.976 158.221C146.249 157.651 150.606 158.04 154.878 157.463C155.93 157.32 157.09 156.745 158.11 156.424C160 155.733 161.823 154.831 163.691 154.081C163.896 154 164.252 154.188 164.447 154.274C164.463 154.237 164.634 153.825 164.634 153.825C165.517 153.186 166.404 152.524 167.285 151.884C167.911 151.428 168.492 150.903 169.191 150.571C169.449 150.447 169.579 150.54 169.793 150.635C170.157 151.052 170.152 151.324 170.2 151.843C170.962 159.954 160.709 162.094 155.237 165.203L155.164 165.246ZM58.9611 146.393C58.859 146.8 58.6803 147.288 58.7747 147.671C58.8481 147.691 58.9646 147.73 59.034 147.733C59.3663 146.844 59.4483 146.575 59.0651 145.652C58.7618 144.922 57.7005 143.664 56.9111 143.581C57.7548 144.787 58.408 144.738 58.9611 146.393ZM84.297 155.265L85.3693 154.61L85.1605 154.457C84.0356 154.834 84.2737 155.048 83.0522 154.516C82.4706 154.263 81.2207 153.429 80.6943 153.348C81.4489 154.283 83.1468 154.912 84.297 155.265Z" fill="#01984F"/>
<path d="M56.9111 143.581C57.7005 143.664 58.7618 144.922 59.0651 145.652C59.4483 146.575 59.3663 146.844 59.034 147.733C58.9646 147.73 58.8481 147.691 58.7747 147.671C58.6803 147.288 58.859 146.8 58.9611 146.393C58.408 144.738 57.7548 144.787 56.9111 143.581Z" fill="#71EEAE" fill-opacity="0.988235"/>
<path d="M169.052 153.189L169.122 153.356C168.654 154.129 166.709 154.883 165.852 155.247L164.531 154.751C164.503 154.66 164.507 154.532 164.502 154.43C164.933 154.335 165.047 154.665 165.504 154.746C166.664 154.952 168.157 153.816 169.052 153.189Z" fill="#71EEAE"/>
<path d="M192.572 143.73C192.527 144.23 191.373 145.154 191.124 145.739C190.801 146.496 191.165 147.011 191.023 147.717C190.389 147.108 190.558 146.701 190.605 145.852C191.165 144.984 191.685 144.278 192.572 143.73Z" fill="#71EEAE"/>
<path d="M80.6943 153.348C81.2207 153.429 82.4706 154.263 83.0522 154.516C84.2737 155.048 84.0356 154.834 85.1605 154.457L85.3693 154.61L84.297 155.265C83.1468 154.912 81.4489 154.283 80.6943 153.348Z" fill="#71EEAE" fill-opacity="0.988235"/>
</svg>
