<svg width="250" height="250" viewBox="0 0 250 250" fill="none" xmlns="http://www.w3.org/2000/svg">
<mask id="path-1-inside-1_769_302" fill="white">
<path d="M0 48C0 21.4903 21.4903 0 48 0H202C228.51 0 250 21.4903 250 48V202C250 228.51 228.51 250 202 250H48C21.4903 250 0 228.51 0 202V48Z"/>
</mask>
<path d="M0 48C0 21.4903 21.4903 0 48 0H202C228.51 0 250 21.4903 250 48V202C250 228.51 228.51 250 202 250H48C21.4903 250 0 228.51 0 202V48Z" fill="white"/>
<path d="M48 0V2H202V0V-2H48V0ZM250 48H248V202H250H252V48H250ZM202 250V248H48V250V252H202V250ZM0 202H2V48H0H-2V202H0ZM48 250V248C22.5949 248 2 227.405 2 202H0H-2C-2 229.614 20.3858 252 48 252V250ZM250 202H248C248 227.405 227.405 248 202 248V250V252C229.614 252 252 229.614 252 202H250ZM202 0V2C227.405 2 248 22.5949 248 48H250H252C252 20.3858 229.614 -2 202 -2V0ZM48 0V-2C20.3858 -2 -2 20.3858 -2 48H0H2C2 22.5949 22.5949 2 48 2V0Z" fill="#DDDBDB" mask="url(#path-1-inside-1_769_302)"/>
<path d="M184.702 73.5185V96.327C184.702 97.7896 184.126 99.1731 183.093 100.221L99.3651 183.509C97.1999 185.663 93.7038 185.663 91.5585 183.509L69.5092 161.57C67.344 159.416 67.344 155.937 69.5092 153.803L113.489 110.044H70.5223C67.4632 110.044 65 107.573 65 104.549V73.5185C65 70.4748 67.4632 68.0239 70.5223 68.0239H179.18C182.219 68.0239 184.702 70.4748 184.702 73.5185Z" fill="#419248"/>
<path d="M185 123.503V166.986C185 178.588 175.545 187.976 163.884 187.976C158.064 187.976 152.78 185.624 148.966 181.829C145.152 178.034 142.788 172.777 142.788 166.986V165.365L184.861 123.503H185Z" fill="#D87A32"/>
</svg>
