<svg width="250" height="250" viewBox="0 0 250 250" fill="none" xmlns="http://www.w3.org/2000/svg">
<rect width="250" height="250" fill="white"/>
<path d="M184.702 73.518V96.3265C184.702 97.7891 184.126 99.1726 183.093 100.22L99.3651 183.509C97.1999 185.663 93.7038 185.663 91.5585 183.509L69.5092 161.57C67.344 159.415 67.344 155.937 69.5092 153.802L113.489 110.043H70.5223C67.4632 110.043 65 107.572 65 104.549V73.518C65 70.4743 67.4632 68.0234 70.5223 68.0234H179.18C182.219 68.0234 184.702 70.4743 184.702 73.518Z" fill="#419248"/>
<path d="M185 123.503V166.985C185 178.587 175.545 187.976 163.884 187.976C158.064 187.976 152.78 185.623 148.966 181.829C145.152 178.034 142.788 172.776 142.788 166.985V165.365L184.861 123.503H185Z" fill="#D87A32"/>
</svg>
