<svg width="250" height="250" viewBox="0 0 250 250" fill="none" xmlns="http://www.w3.org/2000/svg">
<rect width="250" height="250" fill="white"/>
<path d="M94.5421 130.543C97.6543 131.312 101.76 132.723 104.896 133.686L124.875 139.813C130.334 141.49 184.697 157.831 185.341 158.43C184.9 158.716 147.899 158.627 143.684 158.607L66.9851 158.616C62.1635 158.664 57.3413 158.636 52.5205 158.532C54.06 157.164 56.4184 155.696 58.183 154.522L66.8254 148.764C70.8231 146.097 74.8205 143.307 78.945 140.845C79.7413 140.37 80.4852 139.885 81.2557 139.371L89.7411 133.708C91.2687 132.689 92.9949 131.481 94.5421 130.543Z" fill="#FDD316"/>
<path d="M130.682 59.3828C131.003 59.6461 132.373 68.5244 132.548 69.5805L135.877 89.6983C132.99 92.1739 129.15 95.0588 126.099 97.4778L107.16 112.491L53.3345 155.059C52.4228 155.737 50.8394 157.156 50 157.603C53.9597 152.61 57.9761 147.661 62.0485 142.759C63.4416 141.087 64.856 139.546 66.2758 137.817L126.652 64.1985C127.907 62.6656 129.352 60.8128 130.682 59.3828Z" fill="#FDD316"/>
<path d="M133.102 59.4685C133.332 59.5576 133.358 59.6464 133.479 59.8564L168.719 121L179.468 139.59C182.924 145.468 186.757 151.825 190 157.782C189.529 157.787 156.365 143.156 154.33 141.958C153.915 141.337 152.583 135.702 152.288 134.548L133.102 59.4685Z" fill="#FDD316"/>
</svg>
