<svg width="250" height="250" viewBox="0 0 250 250" fill="none" xmlns="http://www.w3.org/2000/svg">
<mask id="path-1-inside-1_769_305" fill="white">
<path d="M0 48C0 21.4903 21.4903 0 48 0H202C228.51 0 250 21.4903 250 48V202C250 228.51 228.51 250 202 250H48C21.4903 250 0 228.51 0 202V48Z"/>
</mask>
<path d="M0 48C0 21.4903 21.4903 0 48 0H202C228.51 0 250 21.4903 250 48V202C250 228.51 228.51 250 202 250H48C21.4903 250 0 228.51 0 202V48Z" fill="white"/>
<path d="M48 0V2H202V0V-2H48V0ZM250 48H248V202H250H252V48H250ZM202 250V248H48V250V252H202V250ZM0 202H2V48H0H-2V202H0ZM48 250V248C22.5949 248 2 227.405 2 202H0H-2C-2 229.614 20.3858 252 48 252V250ZM250 202H248C248 227.405 227.405 248 202 248V250V252C229.614 252 252 229.614 252 202H250ZM202 0V2C227.405 2 248 22.5949 248 48H250H252C252 20.3858 229.614 -2 202 -2V0ZM48 0V-2C20.3858 -2 -2 20.3858 -2 48H0H2C2 22.5949 22.5949 2 48 2V0Z" fill="#DDDBDB" mask="url(#path-1-inside-1_769_305)"/>
<path d="M94.5421 130.543C97.6543 131.312 101.76 132.723 104.896 133.686L124.875 139.814C130.334 141.49 184.697 157.832 185.341 158.431C184.9 158.716 147.899 158.627 143.684 158.607L66.9851 158.616C62.1635 158.664 57.3413 158.637 52.5205 158.532C54.06 157.164 56.4184 155.697 58.183 154.523L66.8254 148.764C70.8231 146.097 74.8205 143.307 78.945 140.845C79.7413 140.37 80.4852 139.885 81.2557 139.371L89.7411 133.708C91.2687 132.689 92.9949 131.482 94.5421 130.543Z" fill="#FDD316"/>
<path d="M130.682 59.3831C131.003 59.6464 132.373 68.5247 132.548 69.5807L135.877 89.6985C132.99 92.1741 129.15 95.0591 126.099 97.4781L107.16 112.492L53.3345 155.06C52.4228 155.737 50.8394 157.156 50 157.603C53.9597 152.61 57.9761 147.661 62.0485 142.759C63.4416 141.087 64.856 139.546 66.2758 137.817L126.652 64.1987C127.907 62.6659 129.352 60.8131 130.682 59.3831Z" fill="#FDD316"/>
<path d="M133.102 59.4688C133.332 59.5579 133.358 59.6466 133.479 59.8567L168.719 121.001L179.468 139.59C182.924 145.468 186.757 151.826 190 157.782C189.529 157.787 156.365 143.156 154.33 141.959C153.915 141.337 152.583 135.702 152.288 134.549L133.102 59.4688Z" fill="#FDD316"/>
</svg>
