<svg width="250" height="250" viewBox="0 0 250 250" fill="none" xmlns="http://www.w3.org/2000/svg">
<mask id="path-1-inside-1_769_307" fill="white">
<path d="M0 48C0 21.4903 21.4903 0 48 0H202C228.51 0 250 21.4903 250 48V202C250 228.51 228.51 250 202 250H48C21.4903 250 0 228.51 0 202V48Z"/>
</mask>
<path d="M0 48C0 21.4903 21.4903 0 48 0H202C228.51 0 250 21.4903 250 48V202C250 228.51 228.51 250 202 250H48C21.4903 250 0 228.51 0 202V48Z" fill="white"/>
<path d="M48 0V2H202V0V-2H48V0ZM250 48H248V202H250H252V48H250ZM202 250V248H48V250V252H202V250ZM0 202H2V48H0H-2V202H0ZM48 250V248C22.5949 248 2 227.405 2 202H0H-2C-2 229.614 20.3858 252 48 252V250ZM250 202H248C248 227.405 227.405 248 202 248V250V252C229.614 252 252 229.614 252 202H250ZM202 0V2C227.405 2 248 22.5949 248 48H250H252C252 20.3858 229.614 -2 202 -2V0ZM48 0V-2C20.3858 -2 -2 20.3858 -2 48H0H2C2 22.5949 22.5949 2 48 2V0Z" fill="#DDDBDB" mask="url(#path-1-inside-1_769_307)"/>
<path fill-rule="evenodd" clip-rule="evenodd" d="M128.728 77.5522C140 78.2257 146.739 80.8723 155.612 87.8789C160.639 91.8492 167.824 96.9422 173.831 99.1344C179.61 101.244 188.54 101.989 194.757 102.344C194.911 114.594 194.967 126.844 194.928 139.095C194.941 147.35 195.102 156.116 194.895 164.333C191.558 164.489 187.977 164.44 184.626 164.441L168.967 164.435C155.611 164.423 142.042 164.51 128.703 164.307C128.532 158.659 128.649 152.413 128.647 146.731L128.642 91.0974C128.639 86.7961 128.524 81.8073 128.728 77.5522ZM136.494 141.283C136.351 146.453 136.313 151.626 136.378 156.798C141.578 156.867 146.78 156.86 151.98 156.777C154.305 156.755 159.12 156.823 161.3 156.508L161.625 156.392C161.585 155.881 160.122 155.128 159.645 154.798C158.158 153.768 156.678 152.728 155.204 151.678C150.921 148.619 146.57 144.844 141.882 142.577C140.171 141.749 138.308 141.618 136.494 141.283ZM136.496 113.459C136.015 119.331 136.433 127.299 136.279 133.404C139.238 133.842 146.508 136.647 148.861 138.176C155.911 142.756 162.261 148.712 169.907 152.426C174.826 154.797 181.534 156.094 187.01 156.531C187.344 156.037 187.087 138.338 187.075 136.241C185.243 136.026 183.369 135.948 181.558 135.704C176.325 135.005 171.235 133.486 166.475 131.202C163.17 129.648 157.497 125.94 154.549 123.778C150.005 120.447 142.316 113.79 136.496 113.459ZM136.48 85.8767C136.019 92.2546 136.657 99.2064 136.244 105.444C137.685 105.587 140.411 106.884 141.897 107.414C148.44 109.75 152.961 113.507 158.45 117.565C167.982 124.611 174.973 128.586 187.081 128.896C187.129 122.44 187.313 115.338 187.174 108.931C174.916 107.737 166.648 104.806 156.637 97.6636C151.305 93.8592 142.95 86.4899 136.48 85.8767Z" fill="#009700"/>
<path fill-rule="evenodd" clip-rule="evenodd" d="M121.441 154.246C121.439 157.381 121.535 161.303 121.383 164.402L55.1744 164.314C55.0162 163.63 55.0663 160.562 55.0674 159.717L55.0799 150.595L55.0732 112.545C55.0732 111.163 54.8597 102.851 55.1619 102.353L55.6953 102.331C61.8052 102.063 71.2713 101.026 76.9833 98.875C81.1525 97.3045 87.6386 93.2614 91.1765 90.619C96.7386 86.4649 102.798 81.3387 109.599 79.3307C112.541 78.4621 118.258 77.8819 121.437 77.6034L121.441 154.246ZM113.605 141.499C108.596 141.665 105.182 144.241 101.284 147.146C97.3315 150.093 93.368 153.024 89.3045 155.811C89.1497 155.918 89.0508 156.167 89.0354 156.351C89.2515 156.626 89.1315 156.544 89.5302 156.627C92.4167 156.971 97.5093 156.866 100.559 156.847C104.761 156.821 109.667 156.958 113.823 156.735C113.841 155.356 113.973 141.951 113.752 141.55L113.605 141.499ZM113.565 113.774C107.805 114.065 99.3477 121.16 94.5107 124.684C83.774 132.507 76.2777 135.184 63.1584 136.158C63.0796 140.182 63.062 144.207 63.1044 148.231C63.1111 150.696 63.0418 153.742 63.1671 156.166C63.2495 156.239 63.3127 156.313 63.4082 156.348C75.6386 155.683 84.0605 151.189 93.5087 143.846C99.7954 138.959 105.82 134.884 113.867 133.396L113.877 119.308C113.877 118.613 113.937 114.339 113.809 113.869C113.718 113.824 113.649 113.772 113.565 113.774ZM113.716 85.9384C113.416 85.8841 113.357 85.8712 113.055 85.9066C107.316 87.2188 101.905 91.5009 97.2287 95.0836C86.1937 103.538 77.0065 107.775 63.1044 109.085C63.1035 111.064 63.002 128.188 63.1806 128.62C63.4521 128.709 63.4648 128.712 63.7477 128.7C65.321 128.683 67.0806 128.705 68.6328 128.484C77.7914 127.184 84.9097 122.798 92.1786 117.362C93.9181 116.061 95.6375 114.605 97.3589 113.369C100.636 111.054 104.154 109.1 107.851 107.541C109.35 106.903 112.346 105.711 113.888 105.357C113.859 103.554 113.972 86.341 113.716 85.9384Z" fill="#009700"/>
</svg>
