<svg width="250" height="250" viewBox="0 0 250 250" fill="none" xmlns="http://www.w3.org/2000/svg">
<path d="M0 48C0 21.4903 21.4903 0 48 0H202C228.51 0 250 21.4903 250 48V202C250 228.51 228.51 250 202 250H48C21.4903 250 0 228.51 0 202V48Z" fill="#040B8F"/>
<path fill-rule="evenodd" clip-rule="evenodd" d="M117.142 63.2476C113.687 63.7243 109.079 64.8006 105.481 65.971C101.029 67.4196 93.1798 71.3794 89.4431 74.062C86.1281 76.4417 81.3162 80.5539 81.3162 81.0072C81.3162 81.182 82.7941 81.3072 84.858 81.3072H88.4001L89.9203 80.1034C100.337 71.8557 113.508 67.5551 126.955 68.0109C138.751 68.4106 149.304 72.0881 158.878 79.1352L161.828 81.3072H165.342C167.388 81.3072 168.856 81.182 168.856 81.0072C168.856 80.5539 164.044 76.4417 160.729 74.062C156.96 71.3561 149.131 67.4159 144.587 65.9373C137.797 63.7283 134.396 63.195 126.332 63.0747C122.391 63.0161 118.256 63.0937 117.142 63.2476ZM58.447 84.3056C58.3267 84.619 58.152 86.2103 58.0585 87.8421C57.742 93.3652 59.3439 97.9661 62.7981 101.456C64.9779 103.659 67.1853 104.803 86.4564 113.716C100.174 120.061 109.971 124.996 113.619 127.4C118.151 130.385 120.122 133.077 120.874 137.31C121.291 139.658 121.048 141.216 119.434 146.521C118.342 150.109 118.306 150.38 118.488 153.553C118.719 157.574 119.429 159.788 121.35 162.48C122.711 164.387 124.478 166.043 125.153 166.043C125.919 166.043 129.08 162.344 130.13 160.22C131.139 158.177 131.268 157.612 131.544 153.986L131.573 153.597C131.754 151.221 131.476 148.832 130.754 146.56C129.129 141.451 128.84 139.671 129.252 137.324C130.022 132.936 132.33 129.994 137.547 126.75C141.915 124.034 157.478 116.457 178.031 107.041C185.719 103.518 188.047 101.723 190.009 97.8048C191.677 94.4711 192.355 91.2979 192.129 87.8754C191.84 83.4848 191.668 83.3729 190.055 86.5231C188.026 90.486 185.877 92.4823 177.89 97.8244C171.793 101.902 170.102 102.841 159.042 108.283C146.037 114.682 141.239 117.255 136.301 120.476C132.686 122.834 128.482 126.132 126.517 128.15L125.145 129.56L122.523 127.107C116.736 121.692 110.306 117.806 92.687 109.074C80.1711 102.871 78.4112 101.9 72.4377 97.9051C68.8396 95.4988 65.2386 92.9487 64.4358 92.2384C62.5981 90.6125 60.9816 88.4194 59.6797 85.787C58.8847 84.1792 58.6183 83.8589 58.447 84.3056ZM121.563 106.563C117.029 107.152 113.747 108.762 113.103 110.714C111.859 114.481 117.045 117.139 125.615 117.128C133.526 117.116 138.326 115.095 138.326 111.776C138.326 107.91 130.334 105.425 121.563 106.563ZM55.194 108.278C56.4071 112.671 59.8719 117.233 63.6975 119.476C67.3115 121.594 71.1779 122.46 84.4349 124.124C93.0478 125.205 100.684 126.549 104.954 127.734C106.219 128.085 107.312 128.313 107.384 128.241C107.538 128.086 104.539 126.641 100.164 124.762C95.0527 122.567 89.696 120.737 81.6247 118.426C70.8882 115.353 65.1346 113.021 58.1554 108.914C56.5205 107.951 55.1158 107.164 55.0345 107.164C54.9532 107.164 55.0249 107.665 55.194 108.278ZM192.532 108.632C189.578 110.405 182.26 113.947 178.918 115.221C177.512 115.756 172.888 117.188 168.64 118.402C161.388 120.476 155.575 122.415 151.254 124.201C148.321 125.414 142.67 128.123 142.801 128.254C142.866 128.319 143.953 128.085 145.217 127.734C149.488 126.549 157.124 125.205 165.737 124.124C179.009 122.458 182.859 121.594 186.49 119.467C188.636 118.209 190.778 116.113 192.35 113.73C193.675 111.723 195.2 108.128 194.98 107.53C194.918 107.365 193.817 107.86 192.532 108.632ZM131.817 109.821C134.198 110.437 135.572 111.191 135.452 111.814C135.186 113.197 130.798 114.316 125.615 114.324C120.505 114.332 115.896 113.094 115.896 111.714C115.896 110.885 118.853 109.785 122.594 109.224C124.384 108.956 129.84 109.308 131.817 109.821ZM59.1978 125.048C59.1978 125.716 61.5121 128.827 63.2305 130.468C67.6034 134.644 72.9592 135.581 85.8334 134.424C88.5748 134.177 95.3038 133.609 100.787 133.16C110.378 132.375 111.769 132.217 111.5 131.949C111.227 131.674 96.8066 130.184 88.6371 129.585C75.8025 128.645 70.2358 127.798 62.3663 125.589C60.3504 125.023 59.1978 124.826 59.1978 125.048ZM187.703 125.615C179.87 127.807 174.337 128.647 161.535 129.585C153.262 130.191 138.944 131.676 138.664 131.956C138.592 132.028 138.592 132.129 138.663 132.181C138.735 132.233 143.489 132.664 149.229 133.139C154.969 133.614 161.838 134.197 164.494 134.436C177.218 135.581 182.583 134.629 186.957 130.453C188.742 128.749 191.126 125.479 190.928 125.005C190.868 124.861 189.416 125.135 187.703 125.615ZM104.837 136.593C101.067 137.155 95.6699 137.98 92.8428 138.426C87.1431 139.326 80.8789 139.873 76.2468 139.874L73.2022 139.874L73.7231 140.669C74.5271 141.897 77.5187 143.887 79.434 144.469C81.815 145.194 87.5658 145.161 90.5063 144.407C91.7057 144.1 95.9113 142.588 99.8521 141.048C103.793 139.509 108.554 137.697 110.433 137.022C112.311 136.348 113.912 135.732 113.989 135.654C114.322 135.322 111.244 135.637 104.837 136.593ZM136.182 135.654C136.26 135.732 137.861 136.348 139.739 137.022C141.618 137.697 146.379 139.509 150.32 141.048C154.26 142.588 158.396 144.07 159.51 144.341C166.28 145.988 172.085 144.962 175.621 141.492L177.111 140.03L171.659 139.816C165.338 139.569 161.735 139.199 155.46 138.153C145.484 136.49 135.758 135.23 136.182 135.654ZM112.002 140.001C109.774 141.083 105.872 143.171 103.33 144.64C98.5406 147.408 94.8939 148.928 91.1577 149.714C89.9621 149.966 88.9194 150.236 88.8406 150.315C88.7618 150.394 89.2446 150.705 89.9132 151.007C90.8166 151.415 91.9306 151.556 94.2446 151.553C97.0618 151.55 97.5238 151.465 99.0733 150.659C101.21 149.547 105.239 146.776 111.409 142.173C118.023 137.24 118.074 137.05 112.002 140.001ZM134.793 139.19C135.622 139.841 138.404 141.919 140.974 143.807C150.342 150.689 151.733 151.448 155.346 151.647C157.797 151.782 160.778 151.187 161.219 150.473C161.306 150.332 160.291 149.976 158.964 149.682C154.928 148.788 151.683 147.438 146.842 144.64C142.287 142.007 134.321 138.005 133.636 138.005C133.444 138.005 133.964 138.538 134.793 139.19ZM115.339 143.692C112.514 146.975 109.287 150.111 106.005 152.762C104.762 153.765 103.746 154.711 103.746 154.863C103.746 155.238 105.819 155.209 107.241 154.814C108.845 154.369 109.98 153.327 111.548 150.863C112.287 149.702 114.055 146.965 115.477 144.781C116.9 142.597 118.008 140.809 117.941 140.809C117.874 140.809 116.703 142.106 115.339 143.692ZM134.68 144.703C136.111 146.93 137.885 149.702 138.623 150.863C140.192 153.327 141.326 154.369 142.931 154.814C144.331 155.203 146.426 155.24 146.426 154.876C146.426 154.732 145.059 153.483 143.388 152.101C140.412 149.639 137.466 146.72 133.877 142.678L132.079 140.653L134.68 144.703ZM75.5848 162.274C76.4415 163.725 80.6259 168.272 83.4969 170.872C108.048 193.11 145.341 192.164 168.985 168.704C171.387 166.322 175.086 161.995 175.086 161.569C175.086 161.46 173.677 161.37 171.956 161.37H168.825L166.144 164.187C151.547 179.526 129.544 185.421 109.042 179.486C100.15 176.911 92.1287 172.127 85.0655 165.186L81.1823 161.37H78.1162H75.0505L75.5848 162.274Z" fill="white"/>
</svg>
