<svg width="250" height="250" viewBox="0 0 250 250" fill="none" xmlns="http://www.w3.org/2000/svg">
<mask id="path-1-inside-1_769_309" fill="white">
<path d="M0 48C0 21.4903 21.4903 0 48 0H202C228.51 0 250 21.4903 250 48V202C250 228.51 228.51 250 202 250H48C21.4903 250 0 228.51 0 202V48Z"/>
</mask>
<path d="M0 48C0 21.4903 21.4903 0 48 0H202C228.51 0 250 21.4903 250 48V202C250 228.51 228.51 250 202 250H48C21.4903 250 0 228.51 0 202V48Z" fill="white"/>
<path d="M48 0V2H202V0V-2H48V0ZM250 48H248V202H250H252V48H250ZM202 250V248H48V250V252H202V250ZM0 202H2V48H0H-2V202H0ZM48 250V248C22.5949 248 2 227.405 2 202H0H-2C-2 229.614 20.3858 252 48 252V250ZM250 202H248C248 227.405 227.405 248 202 248V250V252C229.614 252 252 229.614 252 202H250ZM202 0V2C227.405 2 248 22.5949 248 48H250H252C252 20.3858 229.614 -2 202 -2V0ZM48 0V-2C20.3858 -2 -2 20.3858 -2 48H0H2C2 22.5949 22.5949 2 48 2V0Z" fill="#DDDBDB" mask="url(#path-1-inside-1_769_309)"/>
<path d="M60.002 106.363C70.7389 117.56 81.4758 128.745 92.7974 140.539C93.8674 132.962 94.8627 126.941 95.4475 120.882C95.5719 119.625 94.4024 117.945 93.3697 116.95C88.9282 112.67 84.2129 108.677 79.7838 104.384C73.6875 98.4872 72.9534 89.0068 77.9424 83.3211C82.8319 77.7598 92.3495 77.6852 99.1674 83.4331C108.909 91.6693 118.551 100.017 128.143 108.428C133.978 113.554 135.023 120.11 131.49 127.314C127.807 134.841 128.243 139.569 132.796 141.721C137.649 143.998 142.6 141.198 146.295 134.057C153.001 121.118 150.04 105.143 138.631 94.9165C127.011 84.5155 115.117 74.438 102.95 63.8752C132.025 63.8752 160.802 63.8752 190.014 63.8752C190.014 89.4298 190.014 114.984 190.014 140.303C179.34 130.449 168.727 120.633 158.289 111.003C157.493 117.286 156.572 123.171 156.112 129.081C156 130.549 156.995 132.502 158.102 133.597C162.494 137.926 167.247 141.895 171.676 146.187C177.909 152.234 178.568 161.353 173.38 167.151C168.354 172.75 159.483 173.086 152.74 167.462C142.638 159.027 132.697 150.38 122.818 141.671C117.755 137.205 116.623 130.536 119.434 124.315C120.106 122.823 121.014 121.429 121.612 119.924C123.266 115.756 123.304 111.725 119.024 109.1C114.682 106.45 111.148 108.453 108.187 111.837C98.4707 122.947 99.7397 143.301 111.46 154.274C121.811 163.966 132.796 172.999 143.496 182.317C144.554 183.238 145.599 184.159 147.851 186.124C117.63 186.124 88.8286 186.124 60.0144 186.124C60.002 159.537 60.002 132.95 60.002 106.363Z" fill="#091336"/>
<path d="M60.002 63.8752C65.9365 63.8752 71.4107 63.8752 76.1384 63.8752C70.826 69.5983 65.302 75.5453 60.002 81.2683C60.002 76.2171 60.002 70.295 60.002 63.8752Z" fill="#B4CE53"/>
<path d="M190.002 186.124C184.067 186.124 178.593 186.124 173.865 186.124C179.165 180.401 184.689 174.454 190.002 168.731C190.002 173.782 190.002 179.692 190.002 186.124Z" fill="#B4CE53"/>
</svg>
