<svg width="250" height="250" viewBox="0 0 250 250" fill="none" xmlns="http://www.w3.org/2000/svg">
<mask id="path-1-inside-1_769_310" fill="white">
<path d="M0 48C0 21.4903 21.4903 0 48 0H202C228.51 0 250 21.4903 250 48V202C250 228.51 228.51 250 202 250H48C21.4903 250 0 228.51 0 202V48Z"/>
</mask>
<path d="M0 48C0 21.4903 21.4903 0 48 0H202C228.51 0 250 21.4903 250 48V202C250 228.51 228.51 250 202 250H48C21.4903 250 0 228.51 0 202V48Z" fill="white"/>
<path d="M48 0V2H202V0V-2H48V0ZM250 48H248V202H250H252V48H250ZM202 250V248H48V250V252H202V250ZM0 202H2V48H0H-2V202H0ZM48 250V248C22.5949 248 2 227.405 2 202H0H-2C-2 229.614 20.3858 252 48 252V250ZM250 202H248C248 227.405 227.405 248 202 248V250V252C229.614 252 252 229.614 252 202H250ZM202 0V2C227.405 2 248 22.5949 248 48H250H252C252 20.3858 229.614 -2 202 -2V0ZM48 0V-2C20.3858 -2 -2 20.3858 -2 48H0H2C2 22.5949 22.5949 2 48 2V0Z" fill="#DDDBDB" mask="url(#path-1-inside-1_769_310)"/>
<path d="M176.847 170.577H195.008L174.006 135.572L141.741 113.657L176.847 170.577Z" fill="#282A67"/>
<path d="M141.842 113.758L124.798 137.304L147.431 170.576H176.855L141.842 113.758Z" fill="#2856A6"/>
<path d="M124.795 137.297L124.918 170.581H147.443L124.795 137.297Z" fill="#498FCC"/>
<path d="M124.918 170.578H102.577L124.797 137.297L124.918 170.578Z" fill="#60CBF4"/>
<path d="M76.0512 135.389L55.0078 170.578H72.3407L107.638 113.809L76.0512 135.389Z" fill="#282A67"/>
<path d="M102.567 170.579H72.3319L107.64 113.807L124.797 137.297L102.567 170.579Z" fill="#2856A6"/>
<path d="M125.006 53.4362L169.662 128.597L141.487 109.068L125.006 53.4362Z" fill="#7FD1F5"/>
<path d="M141.484 109.065L125.099 131.043L125 53.4194L141.484 109.065Z" fill="#DCF1FD"/>
<path d="M124.994 53.4299L80.1401 128.991L108.069 109.464L124.994 53.4299Z" fill="#7FD1F5"/>
<path d="M108.07 109.462L125.097 131.042L124.998 53.424L108.07 109.462Z" fill="#BAE5FB"/>
</svg>
