<svg width="250" height="250" viewBox="0 0 250 250" fill="none" xmlns="http://www.w3.org/2000/svg">
<path d="M0 48C0 21.4903 21.4903 0 48 0H202C228.51 0 250 21.4903 250 48V202C250 228.51 228.51 250 202 250H48C21.4903 250 0 228.51 0 202V48Z" fill="#6619B4"/>
<path d="M109.126 109.128C110.159 110.188 110.203 111.242 110.197 112.651C110.199 112.84 110.2 113.029 110.202 113.223C110.206 113.737 110.207 114.251 110.207 114.765C110.207 115.303 110.211 115.841 110.215 116.379C110.221 117.397 110.224 118.415 110.226 119.433C110.228 120.592 110.234 121.751 110.24 122.91C110.253 125.294 110.261 127.677 110.267 130.061C110.872 129.165 111.476 128.27 112.081 127.374C112.286 127.07 112.491 126.767 112.696 126.463C114.134 124.334 115.556 122.195 116.959 120.042C117.988 118.465 119.036 116.901 120.083 115.336C120.444 114.795 120.804 114.253 121.164 113.711C121.452 113.278 121.741 112.845 122.031 112.413C122.225 112.123 122.417 111.831 122.609 111.54C123.308 110.488 123.952 109.578 125.094 108.994C126.082 108.808 127.047 108.722 127.979 109.138C128.617 109.761 128.941 110.31 129.051 111.187C129.053 111.409 129.053 111.632 129.049 111.855C129.05 111.979 129.05 112.103 129.051 112.23C129.052 112.642 129.048 113.054 129.045 113.466C129.045 113.762 129.045 114.059 129.045 114.355C129.046 115.158 129.042 115.96 129.038 116.763C129.034 117.603 129.033 118.442 129.033 119.282C129.031 120.871 129.026 122.46 129.02 124.049C129.013 125.859 129.009 127.668 129.006 129.477C129 133.199 128.989 136.92 128.975 140.642C127.103 140.642 125.231 140.642 123.301 140.642C123.251 133.911 123.2 127.181 123.148 120.246C122.389 121.461 121.63 122.675 120.848 123.927C119.746 125.661 119.746 125.661 119.212 126.498C118.733 127.25 118.256 128.003 117.781 128.757C116.855 130.225 115.923 131.689 114.991 133.153C114.616 133.741 114.243 134.329 113.869 134.917C113.515 135.474 113.16 136.03 112.805 136.587C112.587 136.93 112.369 137.274 112.152 137.618C112.032 137.808 111.911 137.998 111.791 138.188C111.641 138.425 111.641 138.425 111.488 138.667C110.865 139.579 110.295 140.342 109.193 140.642C108.028 140.778 106.886 140.858 105.918 140.114C105.17 139.405 104.514 138.732 104.399 137.66C104.398 137.529 104.398 137.397 104.397 137.261C104.395 137.109 104.393 136.957 104.392 136.801C104.391 136.636 104.391 136.471 104.391 136.301C104.388 136.038 104.388 136.038 104.386 135.77C104.381 135.192 104.379 134.613 104.376 134.035C104.373 133.634 104.37 133.233 104.367 132.832C104.36 131.884 104.354 130.936 104.349 129.989C104.343 128.909 104.336 127.83 104.328 126.751C104.312 124.532 104.298 122.312 104.286 120.093C104.238 120.172 104.19 120.251 104.14 120.332C103.92 120.693 103.699 121.055 103.478 121.416C103.403 121.54 103.327 121.665 103.249 121.792C102.688 122.711 102.117 123.624 101.535 124.53C101.352 124.818 101.168 125.105 100.985 125.392C100.851 125.603 100.851 125.603 100.714 125.817C100.318 126.438 99.9249 127.061 99.5322 127.684C98.3166 129.611 97.0948 131.534 95.8644 133.451C95.6589 133.771 95.4535 134.092 95.248 134.412C95.1467 134.57 95.0454 134.728 94.941 134.89C94.0981 136.207 93.2682 137.532 92.4449 138.861C92.3552 139.005 92.2656 139.149 92.1732 139.298C92.0557 139.488 92.0557 139.488 91.9358 139.682C91.8247 139.853 91.8247 139.853 91.7114 140.028C91.6573 140.143 91.6032 140.258 91.5475 140.377C91.0329 140.837 90.3933 140.716 89.7304 140.702C89.5813 140.701 89.4322 140.7 89.2785 140.699C88.8019 140.696 88.3254 140.688 87.8489 140.68C87.5259 140.677 87.2029 140.674 86.8799 140.672C86.0879 140.665 85.2959 140.654 84.5039 140.642C84.74 139.949 85.1219 139.389 85.5414 138.797C85.6949 138.577 85.8481 138.357 86.0012 138.137C86.0822 138.021 86.1631 137.905 86.2466 137.785C86.678 137.16 87.0993 136.528 87.5206 135.897C87.6082 135.765 87.6959 135.634 87.7862 135.499C88.0597 135.089 88.3329 134.678 88.606 134.268C88.7479 134.055 88.7479 134.055 88.8926 133.838C90.0436 132.111 91.1897 130.38 92.3196 128.639C93.2765 127.165 94.2536 125.705 95.2306 124.244C95.7707 123.436 96.3096 122.627 96.8486 121.818C97.0419 121.528 97.2352 121.238 97.4284 120.948C97.522 120.808 97.6156 120.667 97.7121 120.523C98.429 119.447 99.1459 118.372 99.8629 117.297C99.971 117.134 100.079 116.972 100.19 116.805C100.423 116.457 100.655 116.109 100.887 115.76C101.431 114.945 101.975 114.129 102.517 113.312C102.686 113.056 102.855 112.801 103.025 112.546C103.235 112.23 103.444 111.914 103.653 111.598C104.962 109.628 106.575 108.054 109.126 109.128Z" fill="#FAF6FF"/>
<path d="M181.201 109.166C181.982 109.887 182.309 110.543 182.38 111.62C182.381 111.84 182.381 112.06 182.379 112.279C182.379 112.401 182.379 112.522 182.38 112.648C182.38 113.054 182.378 113.46 182.377 113.866C182.377 114.158 182.377 114.45 182.377 114.741C182.377 115.533 182.375 116.324 182.373 117.115C182.371 117.942 182.371 118.769 182.371 119.596C182.37 121.162 182.367 122.727 182.364 124.293C182.361 126.076 182.359 127.858 182.357 129.641C182.354 133.308 182.348 136.975 182.342 140.642C180.469 140.642 178.597 140.642 176.668 140.642C176.617 133.86 176.567 127.079 176.515 120.093C175.907 121.054 175.3 122.016 174.674 123.006C174.233 123.704 174.233 123.704 173.783 124.415C173.189 125.355 172.599 126.297 172.011 127.24C170.814 129.16 169.598 131.068 168.376 132.972C167.912 133.697 167.45 134.423 166.988 135.15C166.902 135.285 166.816 135.42 166.727 135.56C166.462 135.976 166.198 136.392 165.933 136.808C165.537 137.431 165.141 138.054 164.745 138.677C164.608 138.893 164.608 138.893 164.468 139.113C164.383 139.247 164.298 139.38 164.211 139.517C164.136 139.635 164.061 139.752 163.984 139.873C163.819 140.131 163.65 140.387 163.48 140.642C163.187 140.697 163.187 140.697 162.826 140.694C162.691 140.694 162.555 140.694 162.416 140.694C162.27 140.691 162.124 140.689 161.974 140.686C161.825 140.686 161.675 140.685 161.521 140.684C161.043 140.682 160.565 140.676 160.087 140.67C159.763 140.668 159.44 140.666 159.116 140.664C158.321 140.659 157.527 140.651 156.732 140.642C156.938 140.081 157.188 139.615 157.522 139.121C157.623 138.97 157.724 138.819 157.829 138.663C157.941 138.497 158.054 138.331 158.17 138.159C158.292 137.978 158.413 137.797 158.535 137.616C158.806 137.212 159.078 136.808 159.35 136.404C160.093 135.299 160.831 134.191 161.57 133.083C161.752 132.811 161.934 132.538 162.116 132.265C163.614 130.02 165.1 127.767 166.582 125.511C168.215 123.028 169.871 120.561 171.538 118.102C172.318 116.951 173.096 115.8 173.836 114.622C174.432 113.677 175.059 112.751 175.685 111.825C175.819 111.627 175.952 111.428 176.084 111.228C177.242 109.482 179.035 108.102 181.201 109.166Z" fill="#FAF6FF"/>
<path d="M154.671 109.118C155.917 110.428 155.742 112.089 155.728 113.779C155.728 114.072 155.728 114.366 155.728 114.659C155.728 115.452 155.725 116.245 155.72 117.039C155.717 117.869 155.716 118.699 155.716 119.529C155.714 121.1 155.709 122.67 155.702 124.241C155.696 126.03 155.692 127.818 155.689 129.607C155.683 133.285 155.672 136.963 155.658 140.641C153.786 140.641 151.913 140.641 149.984 140.641C149.934 133.911 149.883 127.18 149.831 120.246C148.383 122.509 146.935 124.773 145.493 127.04C145.229 127.455 144.965 127.87 144.7 128.284C143.771 129.741 142.848 131.201 141.933 132.667C140.53 134.918 139.107 137.157 137.668 139.386C137.597 139.496 137.527 139.606 137.454 139.719C136.968 140.47 136.968 140.47 136.796 140.641C136.584 140.656 136.372 140.659 136.159 140.659C136.024 140.659 135.889 140.659 135.75 140.659C135.603 140.658 135.457 140.657 135.305 140.656C135.156 140.656 135.006 140.656 134.852 140.656C134.372 140.655 133.893 140.653 133.413 140.651C133.089 140.65 132.764 140.649 132.44 140.649C131.643 140.647 130.846 140.645 130.049 140.641C130.303 139.873 130.748 139.256 131.202 138.594C131.331 138.404 131.331 138.404 131.463 138.21C131.65 137.935 131.837 137.66 132.025 137.385C132.533 136.639 133.039 135.892 133.545 135.145C133.649 134.99 133.754 134.836 133.862 134.676C134.933 133.092 135.986 131.496 137.036 129.897C139.024 126.872 141.029 123.858 143.04 120.847C144.017 119.383 144.993 117.918 145.969 116.454C146.687 115.377 146.687 115.377 147.042 114.847C147.526 114.125 148.002 113.397 148.469 112.663C148.576 112.498 148.684 112.332 148.794 112.161C149 111.841 149.205 111.52 149.407 111.197C150.604 109.354 152.448 108.221 154.671 109.118Z" fill="#FAF6FF"/>
<path d="M185.254 109.051C187.126 109.051 188.999 109.051 190.928 109.051C190.928 117.604 190.928 126.156 190.928 134.967C193.711 134.967 196.494 134.967 199.362 134.967C200.7 136.305 199.515 138.749 199.515 140.641C194.809 140.641 190.103 140.641 185.254 140.641C185.254 130.217 185.254 119.792 185.254 109.051Z" fill="#F9F5FF"/>
<path d="M68.7083 123.007C68.9652 123.05 69.2211 123.101 69.475 123.16C69.5015 125.203 69.5015 125.203 69.3984 126.093C69.3373 126.655 69.2882 127.215 69.2642 127.78C69.2529 127.994 69.2529 127.994 69.2414 128.212C69.3247 128.698 69.4208 128.838 69.7046 129.221C70.1929 129.986 70.1921 130.651 70.1755 131.539C70.1756 131.698 70.1757 131.856 70.1758 132.02C70.1753 132.541 70.1693 133.062 70.1633 133.583C70.1619 133.946 70.1608 134.308 70.16 134.671C70.1571 135.623 70.1496 136.575 70.1411 137.527C70.1332 138.499 70.1297 139.472 70.1259 140.444C70.1177 142.35 70.1042 144.256 70.0884 146.162C68.7221 146.162 67.3557 146.162 65.948 146.162C66.0149 144.315 66.1217 142.479 66.277 140.638C66.5207 137.821 66.5207 137.821 66.6476 134.997C66.6536 134.87 66.6595 134.743 66.6657 134.612C66.6716 133.412 66.0446 132.652 65.2633 131.791C64.4016 131.017 63.521 130.364 62.5489 129.737C61.6219 129.135 60.7715 128.455 59.917 127.756C59.5418 127.449 59.1611 127.153 58.7717 126.864C58.6793 126.796 58.5869 126.727 58.4917 126.656C58.2388 126.469 57.9847 126.283 57.7306 126.098C57.3627 125.769 57.2487 125.636 57.207 125.153C57.3588 125.052 57.5107 124.951 57.6671 124.847C58.1984 125.15 58.1984 125.15 58.7405 125.46C58.6741 125.379 58.6077 125.297 58.5393 125.213C58.4112 125.051 58.4112 125.051 58.2805 124.885C58.1951 124.778 58.1097 124.672 58.0217 124.562C57.8204 124.233 57.8204 124.233 57.8204 123.62C58.229 123.558 58.229 123.558 58.7405 123.62C59.0642 123.952 59.306 124.241 59.5648 124.617C59.6338 124.712 59.7028 124.807 59.7738 124.905C59.9433 125.139 60.109 125.376 60.274 125.614C60.2169 125.497 60.1598 125.381 60.1009 125.261C60.0284 125.108 59.9558 124.956 59.8811 124.799C59.8081 124.648 59.7352 124.496 59.66 124.341C59.5073 123.927 59.5073 123.927 59.6606 123.467C59.9137 123.467 60.1667 123.467 60.4274 123.467C60.5035 123.626 60.5796 123.785 60.658 123.949C61.2105 125.089 61.7666 126.161 62.5359 127.175C62.7276 127.454 62.7276 127.454 62.7276 127.76C64.046 128.2 65.448 127.967 66.698 127.435C67.0214 127.3 67.0214 127.3 67.3281 127.3C67.3396 127.207 67.3511 127.114 67.3629 127.018C67.5299 125.904 67.8728 123.842 68.7083 123.007ZM60.4274 125.767C60.5807 126.074 60.5807 126.074 60.5807 126.074L60.4274 125.767ZM60.5807 126.074C60.7341 126.38 60.7341 126.38 60.7341 126.38L60.5807 126.074ZM60.8874 126.687C60.8368 126.839 60.7862 126.991 60.7341 127.147C60.8859 127.198 61.0377 127.248 61.1941 127.3C61.0929 127.098 60.9917 126.896 60.8874 126.687Z" fill="#C0A9D6"/>
<path d="M73.3094 123.007C73.6676 123.032 73.6676 123.032 74.0761 123.16C74.3026 123.518 74.3026 123.518 74.4787 123.984C74.5413 124.15 74.604 124.316 74.6686 124.486C75.3029 126.357 75.3029 126.357 75.3029 127.3C75.5168 127.374 75.7309 127.448 75.9451 127.521C76.0643 127.562 76.1835 127.603 76.3063 127.645C77.0672 127.878 77.7553 127.935 78.552 127.933C78.7408 127.933 78.9296 127.934 79.1241 127.934C79.5833 127.947 79.5833 127.947 79.9034 127.76C80.01 127.558 80.1113 127.353 80.2101 127.147C80.3803 126.877 80.553 126.609 80.7277 126.342C81.3186 125.421 81.8183 124.494 82.2037 123.467C82.4567 123.467 82.7097 123.467 82.9704 123.467C83.1131 123.858 83.1369 124.04 83.0046 124.442C82.9459 124.563 82.8872 124.684 82.8267 124.808C82.7684 124.931 82.71 125.054 82.65 125.18C82.6039 125.272 82.5578 125.365 82.5104 125.46C82.6082 125.34 82.7061 125.22 82.8069 125.097C82.9336 124.941 83.0603 124.786 83.1909 124.626C83.3172 124.472 83.4435 124.317 83.5737 124.157C83.8905 123.773 83.8905 123.773 84.0439 123.62C84.2994 123.614 84.5551 123.613 84.8106 123.62C84.8578 124.101 84.8533 124.324 84.5758 124.73C84.4762 124.835 84.3766 124.94 84.2739 125.048C84.1743 125.155 84.0747 125.262 83.972 125.372C83.8558 125.492 83.8558 125.492 83.7372 125.614C83.8333 125.556 83.9293 125.499 84.0283 125.44C84.1536 125.368 84.279 125.295 84.4081 125.221C84.5326 125.148 84.6572 125.075 84.7855 125C84.895 124.949 85.0045 124.899 85.1173 124.847C85.2692 124.923 85.2692 124.923 85.424 125C85.3827 125.531 85.3007 125.736 84.9233 126.123C84.7722 126.243 84.6212 126.363 84.4656 126.486C84.3832 126.552 84.3008 126.617 84.216 126.685C83.9556 126.892 83.6932 127.096 83.4305 127.3C83.2724 127.426 83.1142 127.552 82.9513 127.681C82.0569 128.383 81.1425 129.041 80.2006 129.677C78.5387 130.808 76.9918 131.897 76.0697 133.741C75.9991 135.37 76.1047 136.992 76.2374 138.615C76.2547 138.835 76.2719 139.055 76.289 139.275C76.3335 139.844 76.3792 140.414 76.4251 140.984C76.4721 141.569 76.5179 142.154 76.5639 142.739C76.6537 143.88 76.7448 145.021 76.8364 146.162C75.4701 146.162 74.1037 146.162 72.696 146.162C72.6786 144.044 72.6646 141.926 72.6563 139.808C72.6523 138.824 72.6468 137.841 72.6381 136.857C72.6298 135.907 72.6252 134.958 72.6232 134.008C72.6218 133.646 72.6191 133.284 72.6149 132.922C72.6093 132.415 72.6086 131.907 72.6089 131.4C72.6062 131.25 72.6034 131.101 72.6006 130.948C72.6073 130.054 72.7526 129.508 73.2923 128.788C73.5707 128.362 73.5202 127.994 73.4705 127.5C73.4542 127.315 73.4379 127.129 73.4211 126.938C73.3895 126.652 73.3895 126.652 73.3573 126.361C73.3214 125.981 73.2856 125.6 73.2501 125.219C73.2235 124.968 73.2235 124.968 73.1964 124.713C73.0898 123.446 73.0898 123.446 73.3094 123.007ZM81.897 126.074C82.0503 126.38 82.0503 126.38 82.0503 126.38L81.897 126.074ZM81.5903 126.84C81.5397 126.992 81.4891 127.144 81.4369 127.3C81.69 127.199 81.943 127.098 82.2037 126.994C82.0013 126.943 81.7988 126.892 81.5903 126.84Z" fill="#C0A9D6"/>
<path d="M85.2707 112.579C85.6364 114.303 86.0333 116.639 85.1173 118.253C84.6152 118.955 84.0747 119.575 83.2771 119.94C83.1759 119.94 83.0747 119.94 82.9704 119.94C83.0001 119.847 83.0297 119.754 83.0603 119.658C83.3468 118.736 83.5608 117.822 83.7371 116.873C83.2058 118.239 83.2058 118.239 82.6637 119.633C82.5625 119.633 82.4613 119.633 82.357 119.633C81.9139 118.541 81.6434 117.493 82.0209 116.341C82.4707 115.357 84.0647 112.579 85.2707 112.579Z" fill="#C0A9D6"/>
<path d="M92.1715 119.326C91.9599 120.065 91.6337 120.673 91.213 121.31C91.1511 121.404 91.0891 121.499 91.0253 121.596C90.1744 122.876 89.4672 123.749 87.9448 124.195C87.1663 124.275 86.5766 124.31 85.8841 123.926C85.9677 123.872 86.0514 123.818 86.1375 123.763C87.0076 123.193 87.8321 122.582 88.6444 121.933C87.677 122.442 86.757 122.96 85.8841 123.62C85.6511 122.951 85.8602 122.583 86.1561 121.971C86.7263 120.926 87.4737 120.347 88.6184 120.01C91.1097 119.326 91.1097 119.326 92.1715 119.326Z" fill="#C0A9D6"/>
<path d="M50 119.326C51.8777 119.522 54.2119 119.773 55.6003 121.183C56.1854 121.93 56.4991 122.67 56.5941 123.62C55.9996 123.408 55.5392 123.13 55.0318 122.757C54.5559 122.364 54.5559 122.364 53.9871 122.24C54.1275 122.347 54.2678 122.454 54.4124 122.564C54.5965 122.705 54.7806 122.846 54.9647 122.987C55.0572 123.058 55.1497 123.128 55.2451 123.201C55.6099 123.481 55.9619 123.754 56.2874 124.08C55.1996 124.428 54.0851 124.244 53.067 123.773C51.64 122.763 50.6412 120.914 50 119.326ZM53.2204 121.626C53.271 121.727 53.3216 121.829 53.3737 121.933C53.4749 121.882 53.5761 121.832 53.6804 121.78C53.5286 121.729 53.3768 121.678 53.2204 121.626Z" fill="#C0A9D6"/>
<path d="M73.9223 114.726C74.0235 114.726 74.1247 114.726 74.229 114.726C76.1926 119.062 76.1926 119.062 75.6116 120.662C75.2925 121.334 74.9675 121.917 74.3824 122.393C74.2811 122.343 74.1799 122.292 74.0757 122.24C74.0757 121.228 74.0757 120.216 74.0757 119.173C73.9744 120.236 73.8732 121.298 73.769 122.393C72.881 121.505 72.3042 120.813 72.2217 119.555C72.2706 118.199 72.9183 115.73 73.9223 114.726Z" fill="#C0A9D6"/>
<path d="M68.0957 114.726C68.1969 114.726 68.2981 114.726 68.4024 114.726C68.6022 115.16 68.7996 115.594 68.9967 116.029C69.0526 116.151 69.1085 116.272 69.1662 116.397C69.7657 117.727 70.3172 119.226 69.7802 120.663C69.4787 121.281 69.1563 121.868 68.7091 122.393C68.6079 122.393 68.5067 122.393 68.4024 122.393C68.3518 121.28 68.3012 120.167 68.2491 119.02C68.1453 119.85 68.0782 120.573 68.0861 121.397C68.0882 121.679 68.0882 121.679 68.0903 121.967C68.0921 122.108 68.0939 122.248 68.0957 122.393C67.2415 122.03 66.9202 121.356 66.5772 120.524C66.0499 118.677 67.0317 116.711 67.8825 115.109C67.9528 114.983 68.0232 114.856 68.0957 114.726Z" fill="#C0A9D7"/>
<path d="M56.9009 112.579C57.8281 112.698 58.3392 113.587 58.8944 114.266C59.9988 115.712 60.431 116.712 60.2746 118.56C60.1604 118.965 60.0212 119.263 59.8145 119.633C59.7133 119.633 59.6121 119.633 59.5078 119.633C59.1536 118.621 58.7994 117.609 58.4344 116.566C58.5293 116.98 58.6242 117.395 58.7219 117.822C58.7511 117.951 58.7804 118.08 58.8105 118.213C58.9496 118.812 59.1034 119.375 59.3545 119.94C58.371 119.682 57.7693 119.204 57.1597 118.397C56.7871 117.748 56.7281 117.248 56.7272 116.505C56.7269 116.267 56.7269 116.267 56.7266 116.023C56.7272 115.857 56.7277 115.692 56.7284 115.521C56.7278 115.357 56.7272 115.194 56.7266 115.025C56.7276 114.193 56.7536 113.398 56.9009 112.579ZM58.1277 115.953C58.281 116.259 58.281 116.259 58.281 116.259L58.1277 115.953Z" fill="#C0A9D6"/>
<path d="M69.6285 106.444C70.1266 106.854 70.312 107.352 70.5582 107.939C70.6359 108.122 70.7135 108.305 70.7936 108.493C71.2871 109.774 71.6195 111.138 71.1991 112.492C70.9115 113.089 70.5421 113.628 70.0885 114.112C69.9873 114.112 69.8861 114.112 69.7818 114.112C69.7836 114.008 69.7854 113.904 69.7872 113.797C69.7886 113.654 69.79 113.511 69.7914 113.364C69.7932 113.225 69.795 113.086 69.7968 112.944C69.777 112.257 69.6968 111.574 69.6285 110.891C69.5779 111.954 69.5273 113.017 69.4751 114.112C68.8966 113.919 68.8349 113.729 68.5359 113.211C68.4564 113.075 68.3769 112.939 68.2951 112.8C67.782 111.838 67.8192 110.918 68.0806 109.878C68.4546 108.654 68.9645 107.542 69.6285 106.444Z" fill="#C0A9D6"/>
<path d="M80.6704 130.061C82.383 129.969 82.383 129.969 83.124 130.521C84.0017 131.525 84.5041 133.038 84.5041 134.354C83.2521 134.281 81.7243 133.935 80.795 133.041C80.3143 132.395 80.1718 131.986 80.1912 131.172C80.1953 130.946 80.1953 130.946 80.1995 130.715C80.2031 130.6 80.2067 130.485 80.2103 130.367C80.3132 130.456 80.3132 130.456 80.4182 130.547C80.9544 131.009 81.4945 131.463 82.0505 131.901C81.907 131.731 81.7632 131.562 81.6192 131.393C81.5392 131.299 81.4591 131.204 81.3766 131.107C81.1361 130.825 81.1361 130.825 80.8698 130.581C80.6704 130.367 80.6704 130.367 80.6704 130.061Z" fill="#C0A9D6"/>
<path d="M60.9171 130.05C61.0553 130.052 61.1934 130.053 61.3358 130.055C61.4412 130.056 61.5465 130.058 61.6551 130.06C61.5975 130.127 61.54 130.194 61.4808 130.263C60.9713 130.855 60.4672 131.452 59.9682 132.054C60.6874 131.546 61.2696 131.071 61.8084 130.367C61.9096 130.367 62.0108 130.367 62.1151 130.367C62.1442 131.196 62.1322 131.887 61.8084 132.667C60.8651 133.656 59.5971 134.086 58.2814 134.354C58.0789 134.354 57.8765 134.354 57.668 134.354C58.3241 131.334 58.3241 131.334 59.374 130.376C59.9008 130.078 60.3243 130.043 60.9171 130.05Z" fill="#C0A9D6"/>
<path d="M79.2903 111.198C79.9935 111.423 80.227 111.983 80.5459 112.598C80.6003 112.696 80.6548 112.794 80.7109 112.895C81.1379 113.702 81.3672 114.468 81.2306 115.393C80.9302 116.163 80.5779 116.546 79.9037 117.026C79.8531 116.368 79.8025 115.71 79.7504 115.032C79.6998 115.69 79.6492 116.348 79.597 117.026C78.8268 116.43 78.3272 116.004 78.0635 115.032C78.0194 113.641 78.7113 112.43 79.2903 111.198Z" fill="#C0A9D6"/>
<path d="M75.1491 109.972C75.8055 110.2 76.0612 110.675 76.395 111.246C76.4482 111.334 76.5014 111.421 76.5562 111.511C77.0857 112.394 77.402 113.069 77.296 114.112C77.0197 114.898 76.8342 115.263 76.0692 115.646C75.9679 114.937 75.8667 114.229 75.7625 113.499C75.7505 114.29 75.756 115.02 75.9158 115.799C75.1598 115.491 74.6746 114.934 74.229 114.265C74.0187 113.496 74.1401 112.872 74.344 112.119C74.3701 112.013 74.3962 111.908 74.423 111.8C74.5933 111.144 74.8235 110.57 75.1491 109.972Z" fill="#C0A9D7"/>
<path d="M77.6032 120.246C77.7044 120.246 77.8057 120.246 77.9099 120.246C78.9135 123.103 78.9135 123.103 78.6767 124.387C78.3164 125.135 77.8004 125.588 77.1432 126.074C77.042 126.074 76.9408 126.074 76.8365 126.074C76.9377 125.264 77.0389 124.454 77.1432 123.62C76.9914 124.329 76.8396 125.037 76.6831 125.767C76.5313 125.767 76.3795 125.767 76.2231 125.767C75.7103 124.886 75.4112 124.186 75.6097 123.16C76.024 122.076 76.8118 121.083 77.6032 120.246Z" fill="#C0A9D6"/>
<path d="M64.4157 120.246C65.4983 121.012 66.3063 122.138 66.6488 123.428C66.7523 124.072 66.6759 124.551 66.4092 125.154C66.0067 125.604 66.0067 125.604 65.6425 125.92C65.4906 125.262 65.3388 124.605 65.1824 123.927C65.233 124.635 65.2836 125.344 65.3358 126.074C64.5371 125.674 64.0556 125.369 63.6489 124.54C63.229 123.084 63.7864 121.565 64.4157 120.246ZM64.8757 122.853C65.0291 123.313 65.0291 123.313 65.0291 123.313L64.8757 122.853Z" fill="#C0A9D7"/>
<path d="M62.5745 111.198C63.0345 111.352 63.0345 111.352 63.2753 111.82C63.3565 112.015 63.4359 112.21 63.5137 112.406C63.5543 112.504 63.5948 112.602 63.6365 112.702C64.0359 113.674 64.3694 114.61 63.9978 115.646C63.677 116.245 63.2813 116.641 62.7278 117.026C62.4504 116.193 62.5665 115.288 62.5745 114.419C62.4733 115.279 62.3721 116.139 62.2678 117.026C61.1084 115.866 61.1084 115.866 60.9355 114.907C60.9682 113.619 61.8808 112.239 62.5745 111.198Z" fill="#C0A9D7"/>
<path d="M63.1882 106.138C64.3657 106.744 65.5261 107.938 65.9485 109.205C66.0077 110.017 66.0342 110.769 65.6418 111.505C65.2074 111.288 65.1791 111.023 65.0092 110.575C64.955 110.434 64.9009 110.293 64.8451 110.148C64.8043 110.039 64.7636 109.93 64.7217 109.818C64.7948 110.067 64.8684 110.317 64.9421 110.566C64.983 110.704 65.0239 110.843 65.0661 110.986C65.1704 111.349 65.1704 111.349 65.3351 111.658C64.6449 111.616 64.2299 111.322 63.7375 110.868C62.8338 109.814 62.9552 108.365 63.0348 107.058C63.0811 106.75 63.1307 106.443 63.1882 106.138ZM64.415 109.205C64.5683 109.511 64.5683 109.511 64.5683 109.511L64.415 109.205Z" fill="#C0A9D6"/>
<path d="M77.7573 106.138C77.8585 106.138 77.9598 106.138 78.064 106.138C78.1894 106.454 78.3138 106.77 78.4378 107.087C78.5072 107.263 78.5766 107.439 78.6481 107.62C78.99 108.577 79.208 109.639 78.8631 110.624C78.6062 111.156 78.3446 111.56 77.9107 111.965C77.8095 111.914 77.7083 111.864 77.604 111.812C77.604 111.559 77.604 111.306 77.604 111.045C77.5534 111.349 77.5028 111.652 77.4506 111.965C76.8692 111.442 76.5905 110.984 76.4736 110.206C76.443 109.011 76.7769 108.122 77.2973 107.058C77.3732 106.899 77.3732 106.899 77.4506 106.737C77.5493 106.536 77.6525 106.336 77.7573 106.138Z" fill="#C0A9D7"/>
<path d="M52.9131 125.92C54.3927 125.854 56.2245 125.78 57.4561 126.744C58.2803 127.655 58.2803 127.655 58.2803 128.22C57.8567 128.14 57.4636 128.05 57.0535 127.913C57.5849 128.141 57.5849 128.141 58.127 128.373C58.127 128.474 58.127 128.576 58.127 128.68C57.3175 128.95 56.4839 128.97 55.6926 128.622C54.5795 127.998 53.5191 127.045 52.9131 125.92Z" fill="#C0A9D6"/>
<path d="M89.2589 125.92C88.8035 127.024 87.613 128.118 86.5465 128.633C85.7254 128.936 84.8832 128.96 84.045 128.681C84.045 128.579 84.045 128.478 84.045 128.374C84.1462 128.323 84.2474 128.273 84.3517 128.221C84.1998 128.17 84.048 128.119 83.8916 128.067C84.5143 127.038 85.1023 126.434 86.2781 126.102C87.2739 125.88 88.2434 125.876 89.2589 125.92Z" fill="#C0A9D6"/>
<path d="M60.5809 118.559C61.5657 119.424 62.6109 120.79 62.7685 122.123C62.7634 122.835 62.6955 123.41 62.4211 124.079C62.3199 124.079 62.2186 124.079 62.1144 124.079C62.0132 123.877 61.9119 123.674 61.8077 123.466C61.8583 123.719 61.9089 123.972 61.961 124.233C61.2504 124.05 60.9788 123.701 60.5833 123.121C60.2279 122.508 60.2448 121.91 60.2454 121.223C60.2453 121.113 60.2452 121.004 60.2451 120.891C60.2533 120.075 60.3559 119.346 60.5809 118.559ZM61.3476 121.626C61.501 121.932 61.501 121.932 61.501 121.932L61.3476 121.626ZM61.501 122.086C61.6543 122.699 61.6543 122.699 61.6543 122.699L61.501 122.086Z" fill="#C0A9D6"/>
<path d="M66.7169 110.432C67.4486 111.164 67.5923 112.795 67.6747 113.81C67.6273 114.777 67.2122 115.547 66.5635 116.259C66.4623 116.259 66.3611 116.259 66.2568 116.259C66.2568 115.905 66.2568 115.551 66.2568 115.186C66.2062 115.54 66.1556 115.894 66.1035 116.259C65.5661 115.793 65.3463 115.418 65.1834 114.726C65.1267 113.89 65.2813 113.253 65.6051 112.493C65.6438 112.395 65.6826 112.298 65.7225 112.198C65.9884 111.553 66.3132 111.001 66.7169 110.432ZM66.4102 113.192C66.5635 113.652 66.5635 113.652 66.5635 113.652L66.4102 113.192Z" fill="#C0A9D6"/>
<path d="M72.2362 112.579C72.8518 113.194 72.7277 114.269 72.7441 115.1C72.7342 116.357 72.4951 117.015 71.6803 117.946C71.3161 118.253 71.3161 118.253 71.0094 118.253C71.06 117.848 71.1106 117.443 71.1627 117.026C71.0109 117.557 71.0109 117.557 70.856 118.099C70.7548 118.099 70.6536 118.099 70.5493 118.099C70.1572 117.168 70.0459 116.219 70.3768 115.255C70.8387 114.278 71.4695 113.345 72.2362 112.579ZM71.4694 115.493C71.6228 115.799 71.6228 115.799 71.6228 115.799L71.4694 115.493Z" fill="#C0A9D7"/>
<path d="M81.4364 108.132C82.0694 108.343 82.2601 108.778 82.5962 109.32C82.6573 109.415 82.7185 109.511 82.7816 109.609C83.4417 110.653 83.7169 111.485 83.5833 112.732C83.4636 113.123 83.3133 113.441 83.1233 113.806C83.0221 113.603 82.9209 113.401 82.8166 113.192C82.8166 113.293 82.8166 113.395 82.8166 113.499C82.8166 113.6 82.8166 113.701 82.8166 113.806C82.0338 113.516 81.582 112.884 81.2352 112.157C80.9489 110.804 81.2003 109.477 81.4364 108.132ZM82.2032 111.045C82.3565 111.352 82.3565 111.352 82.3565 111.352L82.2032 111.045ZM82.3565 111.505C82.5099 112.119 82.5099 112.119 82.5099 112.119L82.3565 111.505Z" fill="#C0A9D6"/>
<path d="M60.4286 108.285C61.1157 108.972 60.9428 110.316 60.9484 111.244C60.9343 112.047 60.8594 112.645 60.3435 113.292C60.0395 113.575 59.733 113.786 59.3551 113.959C59.4057 113.453 59.4563 112.947 59.5085 112.425C59.4073 112.931 59.3061 113.437 59.2018 113.959C59.1006 113.959 58.9994 113.959 58.8951 113.959C58.469 112.962 58.2832 112.104 58.5884 111.045C59.0684 110.03 59.6703 109.112 60.4286 108.285ZM59.6618 111.352C59.8152 111.965 59.8152 111.965 59.8152 111.965L59.6618 111.352Z" fill="#C0A9D6"/>
<path d="M81.4372 118.559C81.5384 118.559 81.6397 118.559 81.7439 118.559C81.9259 119.377 81.937 120.167 81.9452 121.003C81.9496 121.152 81.9541 121.302 81.9587 121.456C81.9669 122.39 81.8949 122.904 81.2839 123.619C81.1858 123.742 81.0878 123.866 80.9868 123.993C80.6705 124.233 80.6705 124.233 80.2679 124.233C79.9037 124.079 79.9037 124.079 79.712 123.84C79.3662 122.716 79.4022 121.916 79.9037 120.859C80.2376 120.279 80.5963 119.722 80.9772 119.172C81.0578 119.054 81.1385 118.937 81.2216 118.816C81.2927 118.731 81.3639 118.646 81.4372 118.559ZM80.6705 121.932C80.8238 122.392 80.8238 122.392 80.8238 122.392L80.6705 121.932ZM80.5171 122.392C80.2186 123.232 80.2186 123.232 80.3638 124.079C80.5819 123.493 80.7073 123.019 80.6705 122.392C80.6199 122.392 80.5693 122.392 80.5171 122.392Z" fill="#C0A9D6"/>
<path d="M74.5361 105.218C74.6879 105.268 74.8397 105.319 74.9961 105.371C75.4501 106.391 75.8357 107.623 75.6095 108.745C75.2612 109.429 75.0781 109.624 74.3827 109.971C74.3827 109.465 74.3827 108.959 74.3827 108.438C74.3321 108.995 74.2815 109.551 74.2294 110.125C73.2863 109.206 73.2863 109.206 73.2422 108.38C73.2474 107.184 73.8888 106.188 74.5361 105.218Z" fill="#C0A9D6"/>
<path d="M58.4343 129.294C58.5355 129.395 58.6368 129.496 58.741 129.601C58.5386 129.753 58.3362 129.904 58.1276 130.061C58.3807 129.96 58.6337 129.858 58.8944 129.754C58.8277 130.51 58.5035 130.912 57.9743 131.441C57.2289 131.769 56.567 131.786 55.7699 131.767C55.6006 131.765 55.6006 131.765 55.4278 131.763C55.1521 131.759 54.8763 131.753 54.6006 131.748C54.9628 130.702 55.6956 129.918 56.5846 129.275C57.2206 129.093 57.7953 129.124 58.4343 129.294Z" fill="#C0A9D7"/>
<path d="M85.8975 129.5C86.6162 130.105 87.2161 130.804 87.7245 131.594C87.7245 131.645 87.7245 131.695 87.7245 131.747C87.3123 131.76 86.9004 131.769 86.4881 131.776C86.3728 131.78 86.2574 131.784 86.1386 131.788C85.3215 131.798 84.7662 131.678 84.0441 131.287C83.6524 130.803 83.3729 130.375 83.2773 129.754C83.581 129.855 83.8846 129.956 84.1974 130.06C84.0456 129.959 83.8938 129.858 83.7374 129.754C83.7374 129.602 83.7374 129.45 83.7374 129.294C84.4746 129.017 85.242 129.077 85.8975 129.5Z" fill="#C0A9D6"/>
<path d="M87.7255 115.339C87.9508 116.528 88.2142 118.106 87.6105 119.211C87.0448 119.903 87.0448 119.903 86.652 120.093C86.2495 120.093 86.2495 120.093 85.8853 119.94C85.5188 119.346 85.5003 118.781 85.5786 118.099C85.878 117.281 86.7126 115.339 87.7255 115.339ZM86.652 118.099C86.8054 118.406 86.8054 118.406 86.8054 118.406L86.652 118.099ZM86.4987 118.559C86.652 119.02 86.652 119.02 86.652 119.02L86.4987 118.559ZM86.3453 119.02C86.2947 119.323 86.2441 119.627 86.192 119.94C86.2932 119.838 86.3944 119.737 86.4987 119.633C86.4498 119.31 86.4498 119.31 86.3453 119.02Z" fill="#C0A9D6"/>
<path d="M54.6011 115.339C55.5977 116.097 56.4627 116.967 56.6677 118.25C56.6999 119.355 56.6999 119.355 56.3592 119.758C56.248 119.848 56.248 119.848 56.1346 119.94C56.0334 119.737 55.9322 119.535 55.8279 119.326C55.8785 119.579 55.9291 119.832 55.9812 120.093C55.3023 119.886 55.0054 119.597 54.6011 119.02C54.4189 118.655 54.4279 118.429 54.4274 118.023C54.4272 117.887 54.427 117.751 54.4268 117.611C54.4274 117.468 54.4279 117.326 54.4286 117.179C54.428 117.037 54.4274 116.895 54.4268 116.748C54.427 116.612 54.4272 116.476 54.4274 116.336C54.4275 116.211 54.4277 116.086 54.4279 115.957C54.4477 115.646 54.4477 115.646 54.6011 115.339ZM55.5212 118.406C55.6745 118.866 55.6745 118.866 55.6745 118.866L55.5212 118.406Z" fill="#C0A9D7"/>
<path d="M72.2356 103.838C72.9016 104.504 73.1091 105.749 73.1881 106.668C73.1273 107.479 72.7461 107.994 72.2356 108.591C72.1344 108.591 72.0332 108.591 71.9289 108.591C71.9289 108.237 71.9289 107.883 71.9289 107.518C71.8783 107.872 71.8277 108.227 71.7756 108.591C71.3029 108.166 71.0111 107.834 70.8555 107.211C70.8555 106.012 71.3823 104.691 72.2356 103.838Z" fill="#C0A9D6"/>
<path d="M86.6513 110.892C87.2244 110.976 87.4524 111.193 87.8206 111.63C87.9112 111.735 88.0017 111.841 88.095 111.949C88.4574 112.43 88.6517 112.726 88.6257 113.336C88.4721 113.873 88.2657 114.173 87.8781 114.572C87.7769 114.572 87.6757 114.572 87.5714 114.572C87.4702 114.218 87.369 113.864 87.2647 113.499C87.2647 113.853 87.2647 114.207 87.2647 114.572C86.7543 114.393 86.3578 114.253 86.0379 113.805C85.6903 112.879 86.1353 112.059 86.498 111.199C86.5486 111.097 86.5992 110.996 86.6513 110.892Z" fill="#C0A9D7"/>
<path d="M55.2152 110.892C55.6752 111.045 55.6752 111.045 55.8543 111.358C56.1622 112.139 56.4222 112.8 56.2886 113.652C55.9891 114.162 55.8247 114.375 55.2535 114.543C55.1396 114.553 55.0258 114.562 54.9085 114.572C54.9085 114.218 54.9085 113.864 54.9085 113.499C54.8579 113.853 54.8072 114.207 54.7551 114.572C54.2393 114.359 53.9548 114.144 53.6817 113.652C53.5914 113.059 53.6494 112.791 53.9404 112.262C54.2883 111.821 54.6536 111.431 55.0618 111.045C55.1124 110.995 55.163 110.944 55.2152 110.892Z" fill="#C0A9D6"/>
<path d="M79.2247 131.954C79.9726 132.155 80.4104 132.812 80.8229 133.434C80.933 133.686 81.0379 133.941 81.1296 134.201C80.2891 134.481 79.3976 134.444 78.5226 134.354C77.9219 133.969 77.7994 133.765 77.6313 133.079C77.6218 132.943 77.6123 132.807 77.6025 132.667C77.9821 132.743 77.9821 132.743 78.3693 132.821C78.1669 132.669 77.9644 132.517 77.7559 132.361C78.292 132.003 78.5925 131.944 79.2247 131.954Z" fill="#C0A9D7"/>
<path d="M63.6465 131.966C64.0147 132.071 64.171 132.225 64.4157 132.514C64.2132 132.666 64.0108 132.818 63.8023 132.974C64.0553 132.873 64.3083 132.772 64.569 132.667C64.4951 133.629 64.4951 133.629 64.1749 134.08C63.6703 134.451 63.2333 134.428 62.633 134.402C62.4764 134.4 62.4764 134.4 62.3167 134.398C61.5542 134.38 61.5542 134.38 61.1953 134.201C61.4899 132.891 62.2518 131.895 63.6465 131.966Z" fill="#C0A9D6"/>
<path d="M84.8105 119.479C85.4075 121.734 85.4075 121.734 84.8584 122.69C84.4938 123.015 84.2016 123.171 83.737 123.313C83.737 123.11 83.737 122.908 83.737 122.699C83.6864 122.851 83.6358 123.003 83.5837 123.159C83.4824 123.159 83.3812 123.159 83.277 123.159C82.9608 122.685 82.8881 122.217 82.9008 121.65C83.0349 121.012 83.4629 120.566 83.8904 120.092C84.0042 119.966 84.1181 119.839 84.2354 119.709C84.5038 119.479 84.5038 119.479 84.8105 119.479ZM83.8904 121.779C84.0437 122.239 84.0437 122.239 84.0437 122.239L83.8904 121.779Z" fill="#C0A9D6"/>
<path d="M57.5154 119.479C59.0941 120.77 59.0941 120.77 59.346 121.693C59.3571 122.326 59.2541 122.64 58.8955 123.159C58.6068 123.285 58.6068 123.285 58.2821 123.313C57.6649 122.996 57.2694 122.561 57.0361 121.913C57.0635 121.066 57.2796 120.29 57.5154 119.479ZM58.1288 121.626C58.2821 121.933 58.2821 121.933 58.2821 121.933L58.1288 121.626ZM58.2821 122.086C58.3327 122.39 58.3833 122.693 58.4355 123.006C58.54 122.716 58.54 122.716 58.5888 122.393C58.4876 122.291 58.3864 122.19 58.2821 122.086Z" fill="#C0A9D6"/>
<path d="M64.4142 116.259C64.9338 116.479 65.2298 116.75 65.5931 117.179C65.6854 117.286 65.7777 117.394 65.8728 117.505C66.3139 118.06 66.3021 118.468 66.2544 119.172C66.0244 119.623 66.0244 119.623 65.7943 119.939C65.6931 119.838 65.5919 119.737 65.4876 119.632C65.4876 119.733 65.4876 119.835 65.4876 119.939C65.0446 119.89 64.8219 119.749 64.4525 119.488C63.9619 118.821 64.0116 118.288 64.1075 117.485C64.1881 117.065 64.2923 116.67 64.4142 116.259ZM65.1809 118.559C65.3343 119.019 65.3343 119.019 65.3343 119.019L65.1809 118.559Z" fill="#C0A9D6"/>
<path d="M52.4536 114.879C52.9137 115.032 52.9137 115.032 53.0592 115.306C53.3225 116.118 53.4856 116.786 53.3737 117.639C53.1553 118.032 52.9439 118.246 52.607 118.559C52.4552 118.559 52.3033 118.559 52.1469 118.559C52.1469 118.357 52.1469 118.154 52.1469 117.946C52.0963 118.148 52.0457 118.351 51.9936 118.559C51.8924 118.559 51.7912 118.559 51.6869 118.559C51.3161 117.91 51.0976 117.466 51.2268 116.719C51.5629 116.053 51.9241 115.408 52.4536 114.879Z" fill="#C0A9D6"/>
<path d="M89.4117 114.879C90.2068 115.203 90.5434 115.837 90.9452 116.566C91.149 117.177 91.1351 117.389 90.9069 117.994C90.6385 118.406 90.6385 118.406 90.1785 118.559C90.1279 118.306 90.0773 118.053 90.0251 117.793C90.0251 118.046 90.0251 118.299 90.0251 118.559C89.4649 118.368 89.292 118.303 88.9517 117.793C88.8187 116.724 88.9713 115.852 89.4117 114.879Z" fill="#C1A9D7"/>
<path d="M77.6027 116.259C77.9094 116.412 77.9094 116.412 78.001 116.662C78.1495 117.537 78.3455 118.7 77.8734 119.488C77.6314 119.699 77.6314 119.699 77.1426 119.939C76.9908 119.888 76.839 119.838 76.6826 119.786C76.6826 119.735 76.6826 119.684 76.6826 119.632C76.5814 119.733 76.4802 119.835 76.3759 119.939C76.0683 119.434 75.9173 119.097 75.9062 118.501C76.1915 117.528 76.7792 116.837 77.6027 116.259ZM76.9893 118.405C77.1426 118.712 77.1426 118.712 77.1426 118.712L76.9893 118.405Z" fill="#C0A9D6"/>
<path d="M70.3954 120.246C71.1488 120.574 71.6186 121.113 72.0822 121.78C72.2923 122.457 72.2886 122.727 72.0151 123.38C71.9361 123.51 71.857 123.64 71.7755 123.773C71.6743 123.672 71.5731 123.571 71.4688 123.467C71.4688 123.619 71.4688 123.77 71.4688 123.927C70.8623 123.725 70.4891 123.509 70.0887 123.007C70.018 122.538 70.018 122.538 70.0312 122.019C70.0331 121.849 70.0351 121.678 70.0372 121.502C70.0872 121.027 70.194 120.677 70.3954 120.246Z" fill="#C0A9D6"/>
<path d="M66.2555 106.138C67.0332 106.515 67.6409 107.093 68.0958 107.825C68.1069 108.506 68.0125 108.793 67.6357 109.358C67.5345 109.358 67.4333 109.358 67.329 109.358C67.2784 109.257 67.2278 109.156 67.1757 109.051C67.125 109.203 67.0744 109.355 67.0223 109.511C66.1405 109.109 66.1405 109.109 65.7955 108.591C65.7883 108.204 65.7883 108.204 65.8338 107.767C65.8473 107.624 65.8607 107.48 65.8746 107.332C65.9497 106.899 66.0778 106.538 66.2555 106.138Z" fill="#C0A9D6"/>
<path d="M79.7498 117.332C79.851 117.332 79.9522 117.332 80.0565 117.332C80.2894 118.145 80.4567 119.179 80.0385 119.947C79.8264 120.198 79.8264 120.198 79.4431 120.552C79.19 120.502 78.937 120.451 78.6763 120.399C78.5099 119.759 78.4166 119.243 78.7069 118.631C79.0235 118.159 79.3476 117.734 79.7498 117.332Z" fill="#C0A9D6"/>
<path d="M52.7603 124.387C53.1245 124.703 53.1245 124.703 53.3737 125C52.7986 125.748 52.7986 125.748 52.4536 125.92C51.5019 125.986 50.8751 125.835 50 125.46C50 125.359 50 125.258 50 125.153C50.2859 124.994 50.5738 124.838 50.8626 124.684C51.0227 124.597 51.1828 124.509 51.3478 124.42C51.9097 124.207 52.1895 124.218 52.7603 124.387Z" fill="#C0A9D6"/>
<path d="M72.6967 109.051C72.798 109.051 72.8992 109.051 73.0034 109.051C73.4725 109.872 73.7546 110.552 73.7702 111.505C73.5497 111.965 73.5497 111.965 73.3101 112.272C72.8156 112.232 72.6001 112.179 72.2559 111.812C71.9407 110.971 72.1234 110.23 72.4763 109.425C72.5854 109.24 72.5854 109.24 72.6967 109.051ZM72.8501 111.045C73.0034 111.658 73.0034 111.658 73.0034 111.658L72.8501 111.045Z" fill="#C0A9D6"/>
<path d="M85.4241 108.591C85.5253 108.591 85.6265 108.591 85.7308 108.591C85.906 109.467 86.0513 110.333 85.7021 111.179C85.3775 111.559 85.1393 111.688 84.6574 111.811C84.3507 111.658 84.3507 111.658 84.1973 111.198C84.0942 110.447 84.1945 110.057 84.6382 109.463C84.8889 109.155 85.1431 108.872 85.4241 108.591Z" fill="#C0A9D6"/>
<path d="M91.6981 124.862C91.9125 125.003 92.1201 125.154 92.3259 125.307C91.7861 125.846 91.1404 125.943 90.3994 125.977C89.8865 125.965 89.7131 125.917 89.2493 125.652C88.9521 125.307 88.9521 125.307 88.9521 124.693C89.9969 124.093 90.675 124.271 91.6981 124.862Z" fill="#C0A9D6"/>
<path d="M56.5956 108.591C57.2871 108.822 57.633 109.36 57.9757 109.971C58.1357 110.504 58.1571 110.786 58.0141 111.323C57.8224 111.658 57.8224 111.658 57.3623 111.811C56.6597 111.326 56.6597 111.326 56.4422 110.891C56.4274 110.531 56.4223 110.169 56.4231 109.808C56.4227 109.614 56.4223 109.419 56.4219 109.218C56.4422 108.744 56.4422 108.744 56.5956 108.591ZM57.3623 111.045C57.5157 111.351 57.5157 111.351 57.5157 111.351L57.3623 111.045Z" fill="#C0A9D6"/>
<path d="M61.3479 107.825C61.9601 108.267 62.3783 108.685 62.7281 109.358C62.8092 109.952 62.7653 110.473 62.5747 111.045C61.7472 110.971 61.7472 110.971 61.3767 110.652C60.954 109.785 61.0059 108.903 61.1946 107.978C61.2452 107.927 61.2958 107.877 61.3479 107.825Z" fill="#C0A9D6"/>
<path d="M62.2693 117.332C63.5763 118.349 63.5763 118.349 63.6925 119.17C63.7141 119.661 63.7199 119.998 63.4194 120.399C63.3435 120.45 63.2676 120.5 63.1894 120.552C62.6292 120.361 62.4563 120.296 62.1159 119.786C62.0901 119.389 62.0801 119.012 62.0872 118.616C62.0873 118.51 62.0874 118.404 62.0875 118.294C62.0944 117.507 62.0944 117.507 62.2693 117.332ZM63.036 119.939C63.1894 120.246 63.1894 120.246 63.1894 120.246L63.036 119.939Z" fill="#C0A9D6"/>
<path d="M80.5161 108.285C80.752 108.993 80.749 109.692 80.6694 110.432C80.4106 110.853 80.4106 110.853 80.056 111.045C79.6439 111.026 79.6439 111.026 79.2893 110.892C79.0393 110.392 79.0643 110.067 79.1359 109.511C79.9538 108.285 79.9538 108.285 80.5161 108.285ZM79.596 110.585C79.7493 110.892 79.7493 110.892 79.7493 110.892L79.596 110.585Z" fill="#C0A9D6"/>
<path d="M78.9836 124.693C79.2999 124.76 79.2999 124.76 79.597 124.847C79.5495 125.243 79.5015 125.639 79.4532 126.035C79.4332 126.203 79.4332 126.203 79.4128 126.374C79.3485 126.898 79.2723 127.404 79.1369 127.914C78.7827 127.914 78.4284 127.914 78.0635 127.914C78.1872 127.406 78.3121 126.898 78.4373 126.39C78.4726 126.245 78.5078 126.1 78.5442 125.95C78.5783 125.813 78.6124 125.675 78.6475 125.533C78.6788 125.405 78.7102 125.277 78.7424 125.146C78.8302 124.847 78.8302 124.847 78.9836 124.693Z" fill="#C0A9D6"/>
<path d="M63.1876 124.693C63.4801 124.734 63.4801 124.734 63.801 124.847C63.975 125.282 64.1057 125.681 64.2227 126.131C64.2565 126.251 64.2903 126.371 64.3251 126.494C64.4612 126.987 64.5678 127.399 64.5678 127.914C64.2135 127.914 63.8593 127.914 63.4943 127.914C63.4128 127.435 63.3336 126.955 63.2547 126.476C63.2315 126.34 63.2082 126.203 63.1843 126.063C63.1631 125.932 63.1418 125.802 63.1199 125.667C63.0998 125.547 63.0798 125.426 63.0591 125.302C63.0343 125 63.0343 125 63.1876 124.693Z" fill="#C0A9D6"/>
</svg>
