<svg width="250" height="250" viewBox="0 0 250 250" fill="none" xmlns="http://www.w3.org/2000/svg">
<path d="M0 48C0 21.4903 21.4903 0 48 0H202C228.51 0 250 21.4903 250 48V202C250 228.51 228.51 250 202 250H48C21.4903 250 0 228.51 0 202V48Z" fill="#002F63"/>
<path fill-rule="evenodd" clip-rule="evenodd" d="M160.084 79.4206C162.69 84.7535 168.085 93.4173 171.216 98.8454L195 140.114C191.362 147.231 186.586 154.542 182.709 161.603C181.288 164.192 178.816 167.985 177.725 170.61L142.484 170.584C141.111 167.83 138.575 163.769 136.967 160.975L124.978 140.341C121.51 146.514 117.76 152.782 114.202 158.931C112.427 162.05 108.858 167.744 107.544 170.647C96.0447 170.403 83.8616 170.58 72.3169 170.585C71.7223 169.272 71.0415 168.181 70.3528 166.932C65.4365 158.017 59.646 149.195 55 140.171C57.5078 135.18 61.7922 128.287 64.6834 123.3L81.3034 94.4343C83.455 90.7133 88.2627 82.98 89.8911 79.4606L101.012 98.6273C103.108 102.246 105.419 106.015 107.411 109.665C110.295 105.421 113.89 98.725 116.547 94.1442C118.988 89.9355 122.921 83.5748 125.004 79.3528L160.084 79.4206ZM142.379 110.227C138.701 116.474 135.065 122.745 131.471 129.04C129.463 132.539 127.175 136.773 124.964 140.068C130.924 140.015 136.884 140.005 142.843 140.038L159.91 140.03C158.285 137.224 143.133 110.58 142.379 110.227ZM107.284 110.195C101.964 120.029 95.6664 130.208 90.0995 140.033L107.705 140.052C113.374 140.041 119.229 140.106 124.882 140.014C123.229 137.163 108.063 110.535 107.284 110.195Z" fill="#FEFEFE"/>
</svg>
