<svg width="250" height="250" viewBox="0 0 250 250" fill="none" xmlns="http://www.w3.org/2000/svg">
<mask id="path-1-inside-1_769_320" fill="white">
<path d="M0 48C0 21.4903 21.4903 0 48 0H202C228.51 0 250 21.4903 250 48V202C250 228.51 228.51 250 202 250H48C21.4903 250 0 228.51 0 202V48Z"/>
</mask>
<path d="M0 48C0 21.4903 21.4903 0 48 0H202C228.51 0 250 21.4903 250 48V202C250 228.51 228.51 250 202 250H48C21.4903 250 0 228.51 0 202V48Z" fill="white"/>
<path d="M48 0V2H202V0V-2H48V0ZM250 48H248V202H250H252V48H250ZM202 250V248H48V250V252H202V250ZM0 202H2V48H0H-2V202H0ZM48 250V248C22.5949 248 2 227.405 2 202H0H-2C-2 229.614 20.3858 252 48 252V250ZM250 202H248C248 227.405 227.405 248 202 248V250V252C229.614 252 252 229.614 252 202H250ZM202 0V2C227.405 2 248 22.5949 248 48H250H252C252 20.3858 229.614 -2 202 -2V0ZM48 0V-2C20.3858 -2 -2 20.3858 -2 48H0H2C2 22.5949 22.5949 2 48 2V0Z" fill="#DDDBDB" mask="url(#path-1-inside-1_769_320)"/>
<path fill-rule="evenodd" clip-rule="evenodd" d="M167.417 81.4613C178.682 81.2314 188.002 90.1746 188.239 101.441C188.476 112.707 179.54 122.034 168.275 122.278C157.002 122.522 147.666 113.575 147.429 102.299C147.192 91.0229 156.143 81.6914 167.417 81.4613ZM177.544 100.97C177.046 95.6397 172.328 91.7187 166.997 92.2041C161.648 92.6912 157.711 97.4296 158.211 102.778C158.711 108.127 163.459 112.053 168.806 111.54C174.133 111.028 178.042 106.3 177.544 100.97Z" fill="#8C2C27"/>
<path fill-rule="evenodd" clip-rule="evenodd" d="M81.5666 81.4615C92.8566 81.2674 102.159 90.279 102.325 101.571C102.491 112.863 93.4573 122.145 82.1665 122.282C70.9154 122.42 61.6754 113.424 61.5101 102.171C61.3448 90.9186 70.3163 81.6549 81.5666 81.4615ZM91.6335 100.974C91.1391 95.6389 86.4167 91.7123 81.0815 92.2006C75.7374 92.6897 71.8034 97.4225 72.2987 102.767C72.794 108.111 77.5304 112.04 82.8733 111.539C88.2075 111.038 92.128 106.31 91.6335 100.974Z" fill="#8C2C27"/>
<path fill-rule="evenodd" clip-rule="evenodd" d="M122.864 154.302C134.075 153.202 144.056 161.398 145.159 172.611C146.261 183.824 138.068 193.808 126.857 194.912C115.643 196.017 105.658 187.82 104.555 176.605C103.452 165.389 111.65 155.404 122.864 154.302ZM124.71 164.836C119.33 164.917 115.042 169.357 115.147 174.737C115.252 180.118 119.71 184.387 125.089 184.258C130.434 184.13 134.671 179.704 134.566 174.358C134.462 169.012 130.056 164.755 124.71 164.836Z" fill="#8C2C27"/>
<path fill-rule="evenodd" clip-rule="evenodd" d="M123.371 55.067C134.625 54.2456 144.407 62.7198 145.2 73.9774C145.993 85.2353 137.495 94.9975 126.237 95.7619C115.019 96.5236 105.301 88.0615 104.511 76.8441C103.721 65.6266 112.157 55.8855 123.371 55.067ZM134.446 74.143C133.742 68.8225 128.841 65.0925 123.526 65.8318C118.261 66.5642 114.574 71.4096 115.271 76.6804C115.969 81.9512 120.789 85.671 126.063 85.0086C131.387 84.3401 135.149 79.4636 134.446 74.143Z" fill="#333E56"/>
<path fill-rule="evenodd" clip-rule="evenodd" d="M166.593 128.865C177.83 128.18 187.494 136.735 188.177 147.973C188.861 159.21 180.307 168.875 169.07 169.558C157.836 170.24 148.176 161.685 147.492 150.449C146.809 139.214 155.36 129.551 166.593 128.865ZM177.528 148.138C176.903 142.798 172.06 138.983 166.723 139.624C161.409 140.263 157.615 145.082 158.237 150.398C158.86 155.714 163.666 159.524 168.983 158.917C174.324 158.309 178.154 153.477 177.528 148.138Z" fill="#333E56"/>
<path fill-rule="evenodd" clip-rule="evenodd" d="M80.6607 128.869C91.8832 128.176 101.546 136.705 102.254 147.929C102.961 159.152 94.4462 168.827 83.2255 169.55C71.984 170.274 62.2878 161.738 61.5789 150.494C60.8699 139.25 69.4173 129.563 80.6607 128.869ZM91.6148 148.15C90.9959 142.808 86.1537 138.985 80.8139 139.623C75.5019 140.258 71.7038 145.071 72.3195 150.386C72.9352 155.701 77.7326 159.517 83.0492 158.921C88.3936 158.322 92.2336 153.493 91.6148 148.15Z" fill="#333E56"/>
</svg>
