<svg width="250" height="250" viewBox="0 0 250 250" fill="none" xmlns="http://www.w3.org/2000/svg">
<mask id="path-1-inside-1_769_329" fill="white">
<path d="M0 48C0 21.4903 21.4903 0 48 0H202C228.51 0 250 21.4903 250 48V202C250 228.51 228.51 250 202 250H48C21.4903 250 0 228.51 0 202V48Z"/>
</mask>
<path d="M0 48C0 21.4903 21.4903 0 48 0H202C228.51 0 250 21.4903 250 48V202C250 228.51 228.51 250 202 250H48C21.4903 250 0 228.51 0 202V48Z" fill="white"/>
<path d="M48 0V2H202V0V-2H48V0ZM250 48H248V202H250H252V48H250ZM202 250V248H48V250V252H202V250ZM0 202H2V48H0H-2V202H0ZM48 250V248C22.5949 248 2 227.405 2 202H0H-2C-2 229.614 20.3858 252 48 252V250ZM250 202H248C248 227.405 227.405 248 202 248V250V252C229.614 252 252 229.614 252 202H250ZM202 0V2C227.405 2 248 22.5949 248 48H250H252C252 20.3858 229.614 -2 202 -2V0ZM48 0V-2C20.3858 -2 -2 20.3858 -2 48H0H2C2 22.5949 22.5949 2 48 2V0Z" fill="#DDDBDB" mask="url(#path-1-inside-1_769_329)"/>
<path d="M102.306 171.458C102.224 170.371 102.776 169.519 103.341 168.678C105.635 165.27 108.747 162.737 112.168 160.567C120.532 155.262 129.785 152.141 139.286 149.68C151.922 146.401 164.79 144.545 177.791 143.492C186.267 142.805 194.75 142.518 203.25 142.47C203.802 142.467 204.357 142.47 204.84 142.47C205.034 142.891 205.075 143.151 204.83 143.496C198.001 143.845 191.149 144.627 184.32 145.588C168.361 147.834 152.719 151.194 138.118 158.448C133.209 160.885 129.526 164.669 125.713 168.361C124.855 169.191 124.382 170.418 123.732 171.461C116.587 171.458 109.445 171.458 102.306 171.458Z" fill="#EE2B27"/>
<path d="M103.925 161.069C116.806 138.765 129.691 116.457 142.828 93.7121C151.859 109.34 160.689 124.627 169.687 140.201C165.009 140.85 160.785 141.435 156.581 142.016C151.958 134.003 147.662 126.046 142.763 118.136C142.385 118.751 142.13 119.151 141.891 119.565C136.275 129.331 130.654 139.097 125.048 148.873C124.578 149.69 124.016 150.326 123.114 150.681C116.615 153.245 110.362 156.246 105.014 160.868C104.782 161.066 104.459 161.155 104.176 161.295C104.098 161.22 104.01 161.145 103.925 161.069Z" fill="#1A3C64"/>
<path d="M132.028 74.5867C134.874 78.3468 136.532 82.4932 139.143 86.4071C126.36 108.564 113.533 130.8 100.805 152.866C96.0459 152.866 91.7192 152.866 86.7899 152.866C101.959 126.62 116.92 100.726 132.028 74.5867Z" fill="#1B6C99"/>
<path d="M110.334 74.5388C112.72 78.7194 114.895 82.5308 117.152 86.4823C104.38 108.664 91.6105 130.841 78.9572 152.814C74.1573 152.814 69.7863 152.814 65 152.814C80.1588 126.64 95.1373 100.781 110.334 74.5388Z" fill="#4686AE"/>
</svg>
