<svg width="250" height="250" viewBox="0 0 250 250" fill="none" xmlns="http://www.w3.org/2000/svg">
<path d="M0 48C0 21.4903 21.4903 0 48 0H202C228.51 0 250 21.4903 250 48V202C250 228.51 228.51 250 202 250H48C21.4903 250 0 228.51 0 202V48Z" fill="#0047CC"/>
<path d="M167.399 146.245H152.6C152.6 118.899 126.127 118.586 125 118.586C97.7124 118.586 97.3994 145.115 97.3994 146.245H82.6001C82.6001 118.899 56.1274 118.586 54.9998 118.586V103.754C66.3474 103.754 81.3758 108.77 90.1575 121.32C96.6841 111.502 107.82 103.754 125 103.754C136.347 103.754 151.376 108.77 160.158 121.32C166.684 111.504 177.821 103.754 195 103.754V118.586C167.713 118.586 167.399 145.115 167.399 146.245Z" fill="white"/>
</svg>
