<svg width="250" height="250" viewBox="0 0 250 250" fill="none" xmlns="http://www.w3.org/2000/svg">
<mask id="path-1-inside-1_769_344" fill="white">
<path d="M0 48C0 21.4903 21.4903 0 48 0H202C228.51 0 250 21.4903 250 48V202C250 228.51 228.51 250 202 250H48C21.4903 250 0 228.51 0 202V48Z"/>
</mask>
<path d="M0 48C0 21.4903 21.4903 0 48 0H202C228.51 0 250 21.4903 250 48V202C250 228.51 228.51 250 202 250H48C21.4903 250 0 228.51 0 202V48Z" fill="white"/>
<path d="M48 0V2H202V0V-2H48V0ZM250 48H248V202H250H252V48H250ZM202 250V248H48V250V252H202V250ZM0 202H2V48H0H-2V202H0ZM48 250V248C22.5949 248 2 227.405 2 202H0H-2C-2 229.614 20.3858 252 48 252V250ZM250 202H248C248 227.405 227.405 248 202 248V250V252C229.614 252 252 229.614 252 202H250ZM202 0V2C227.405 2 248 22.5949 248 48H250H252C252 20.3858 229.614 -2 202 -2V0ZM48 0V-2C20.3858 -2 -2 20.3858 -2 48H0H2C2 22.5949 22.5949 2 48 2V0Z" fill="#DDDBDB" mask="url(#path-1-inside-1_769_344)"/>
<path d="M145.284 185C144.357 183.911 143.162 182.899 142.133 181.881C139.056 178.837 136.028 175.732 132.944 172.694C131.021 170.8 129.629 169.43 128.351 166.981C127.35 165.097 126.717 163.039 126.484 160.919C126.177 157.919 126.271 152.053 126.266 148.956L126.261 106.936C126.258 103.083 126.22 99.2189 126.349 95.3768C126.404 93.7511 127.784 92.2528 129.395 92.4948C131.342 92.7873 133.679 95.6661 135.029 97.0143L142.32 104.337L162.201 124.134L173.435 135.35L177.172 139.095C177.754 139.673 179.621 141.335 179.666 141.982C179.84 144.475 179.766 147.056 179.762 149.563L179.759 178.047C179.759 179.531 179.846 183.761 179.678 185H145.284Z" fill="#FE4100"/>
<path d="M70.1895 65H104.719C106.465 66.7108 108.261 68.6534 110.027 70.4057L114.708 75.0754C117.194 77.5301 119.813 79.9566 121.636 82.9948C121.906 83.4445 122.11 84.2916 122.311 84.8178C123.302 87.4117 123.508 88.816 123.535 91.5994L123.553 146.921C123.555 149.53 123.612 152.2 123.44 154.777C123.333 156.387 122.161 157.662 120.532 157.535C119.814 157.479 119.305 157.351 118.773 156.822C117.09 155.221 115.513 153.514 113.853 151.888C108.486 146.572 103.149 141.225 97.8431 135.847L72.2343 110.337C71.6867 109.788 70.5532 108.877 70.1895 108.32V65Z" fill="#FE4100"/>
<path d="M126.378 65H179.707C179.872 67.6226 179.759 71.2002 179.759 73.9105L179.756 90.1778C179.855 105.847 179.816 121.517 179.638 137.186C177.089 134.992 173.709 131.424 171.282 128.995L144.345 102.121C141.362 99.2258 138.413 96.2947 135.499 93.3285C132.115 89.9054 128.225 86.5795 126.992 81.7132C126.272 78.8743 126.305 76.3202 126.329 73.4183C126.352 70.6159 126.265 67.8017 126.378 65Z" fill="#FE4100"/>
<path d="M70.1895 112.701C70.9477 113.51 71.9689 114.377 72.802 115.201L79.5964 121.978L105.884 148.316L114.297 156.7C116.542 158.929 120.025 161.964 121.473 164.728C124.474 170.461 123.304 177.423 123.475 183.649C123.485 184.025 123.454 184.652 123.39 185H70.1895V112.701Z" fill="#FE4100"/>
</svg>
