<svg width="250" height="250" viewBox="0 0 250 250" fill="none" xmlns="http://www.w3.org/2000/svg">
<mask id="path-1-inside-1_769_349" fill="white">
<path d="M0 48C0 21.4903 21.4903 0 48 0H202C228.51 0 250 21.4903 250 48V202C250 228.51 228.51 250 202 250H48C21.4903 250 0 228.51 0 202V48Z"/>
</mask>
<path d="M0 48C0 21.4903 21.4903 0 48 0H202C228.51 0 250 21.4903 250 48V202C250 228.51 228.51 250 202 250H48C21.4903 250 0 228.51 0 202V48Z" fill="white"/>
<path d="M48 0V2H202V0V-2H48V0ZM250 48H248V202H250H252V48H250ZM202 250V248H48V250V252H202V250ZM0 202H2V48H0H-2V202H0ZM48 250V248C22.5949 248 2 227.405 2 202H0H-2C-2 229.614 20.3858 252 48 252V250ZM250 202H248C248 227.405 227.405 248 202 248V250V252C229.614 252 252 229.614 252 202H250ZM202 0V2C227.405 2 248 22.5949 248 48H250H252C252 20.3858 229.614 -2 202 -2V0ZM48 0V-2C20.3858 -2 -2 20.3858 -2 48H0H2C2 22.5949 22.5949 2 48 2V0Z" fill="#DDDBDB" mask="url(#path-1-inside-1_769_349)"/>
<path d="M65.1448 135.803C68.0473 130.725 72.6478 125.301 76.7753 121.19C96.26 101.781 125.938 87.2796 152.287 80.1064C158.162 78.4959 164.132 77.2531 170.162 76.3888C171.773 76.1553 173.775 75.8098 175.393 75.8135C177.343 75.8172 179.797 77.5395 180.223 79.5323C180.369 80.2256 180.217 80.9472 179.803 81.5226C178.923 82.7384 173.173 83.2277 171.474 83.4821C147.926 87.0227 125.031 95.81 104.905 108.488C94.7949 114.857 84.9443 121.65 76.9978 130.661C74.6513 133.328 72.2618 135.523 70.22 138.541C69.366 139.576 67.071 143.025 66.6699 144.175C66.0721 145.102 65.1519 147.15 64.6702 148.194C63.8585 150.002 63.0814 152.062 62.5969 153.998C62.3912 154.978 62.1859 156.076 61.946 157.039C61.5674 158.483 61.3416 161.895 61.5506 163.403C61.651 164.191 62.0944 165.734 62.3001 166.591C60.8844 163.97 59.5069 161.373 58.7407 158.492C57.5957 156.083 56.7999 152.526 56.5967 149.895C56.6698 149.498 56.6956 149.075 57.0919 148.915C57.4832 150.567 57.9062 151.759 58.5733 153.324C58.7166 152.784 58.8421 151.396 58.9128 150.776C58.3412 149.556 57.8306 148.257 57.3176 147.007C57.4946 146.032 58.2479 142.827 58.7712 142.1C59.3858 143.395 59.7119 143.738 60.7245 144.774C61.2161 143.49 61.7399 142.332 62.3039 141.081C61.4253 140.334 60.6744 139.717 59.8851 138.868C60.1021 137.951 61.661 134.377 62.3069 133.724C63.2306 134.427 64.1729 135.174 65.1448 135.803Z" fill="#1FA7A1"/>
<path d="M59.8848 138.868C60.1018 137.951 61.6607 134.377 62.3066 133.724C63.2303 134.427 64.1726 135.174 65.1445 135.803C64.2068 137.567 63.2598 139.326 62.3036 141.081C61.425 140.334 60.6741 139.717 59.8848 138.868Z" fill="#90D4D0"/>
<path d="M57.3174 147.007C57.4944 146.032 58.2477 142.827 58.771 142.1C59.3856 143.395 59.7117 143.738 60.7243 144.773C60.1738 146.442 59.432 149.388 58.9126 150.776C58.341 149.556 57.8304 148.257 57.3174 147.007Z" fill="#B7BEBF"/>
<path d="M56.5967 149.895C56.6698 149.498 56.6956 149.075 57.0919 148.915C57.4832 150.567 57.9062 151.759 58.5733 153.323C58.5712 155.154 58.5825 156.657 58.7407 158.492C57.5957 156.083 56.7999 152.526 56.5967 149.895Z" fill="#C5DEA6"/>
<path d="M74.0219 152.241C78.5698 153.556 82.2487 153.846 86.976 154.181C101.824 155.233 116.814 152.187 130.952 147.838C136.137 146.244 141.111 143.868 146.293 142.266C147.728 141.823 149.339 141.783 150.642 142.652C151.119 142.968 151.51 143.399 151.775 143.907C152.203 144.747 152.274 145.724 151.972 146.616C151.34 148.464 149.102 149.502 147.418 150.237C141.987 152.597 136.212 154.284 130.523 155.9C115.319 160.224 99.323 163.253 83.4889 161.253C80.5254 160.879 73.3606 159.654 70.7598 158.407C71.4074 156.58 72.8886 153.739 74.0219 152.241Z" fill="#B4BFC0"/>
<path d="M59.0353 130.528C64.726 117.676 78.0593 105.33 89.4561 97.4622C94.3937 94.1811 99.5316 91.125 104.677 88.1831C110.762 84.7016 117.023 81.2472 123.541 78.6508C125.559 77.8468 129.04 76.2561 129.974 79.1893C130.593 81.1304 129.51 82.1913 127.911 83.0568C123.777 85.2548 119.529 87.2267 115.351 89.3387C109.267 92.4207 103.338 95.8014 97.587 99.4697C86.6413 106.541 77.1534 114.282 68.7942 124.329C67.5533 125.821 62.7992 132.106 62.3064 133.724C61.6605 134.377 60.1016 137.951 59.8846 138.868C59.5843 139.534 58.8308 141.408 58.7707 142.1C58.2474 142.827 57.4941 146.032 57.3171 147.007C57.1295 147.688 57.003 148.2 57.0914 148.915C56.6951 149.075 56.6693 149.498 56.5962 149.895C55.9992 147.09 55.6318 145.775 55.701 142.809C55.1181 140.569 54.8953 136.917 55.0455 134.649L55.2774 134.02C55.517 135.625 55.8186 136.408 56.4033 137.927C56.6394 137.377 56.9015 136.123 57.0527 135.485C56.5202 134.666 55.9973 133.841 55.4843 133.01C55.7125 131.763 56.6838 129.364 57.2002 128.19C57.8689 128.917 58.4469 129.732 59.0353 130.528Z" fill="#9BC84A"/>
<path d="M57.2003 128.19C57.869 128.917 58.447 129.733 59.0354 130.528C58.3933 132.188 57.7324 133.84 57.0528 135.485C56.5203 134.666 55.9974 133.841 55.4844 133.01C55.7126 131.763 56.6839 129.364 57.2003 128.19Z" fill="#90D4D0"/>
<path d="M55.2774 134.021C55.517 135.625 55.8186 136.408 56.4033 137.927C56.1163 139.382 55.8978 141.315 55.701 142.809C55.1181 140.569 54.8953 136.917 55.0455 134.649L55.2774 134.021Z" fill="#B7BEBF"/>
<path d="M69.4788 161.952C75.8515 165.072 87.0664 166.597 94.1944 166.725C103.354 166.891 114.372 165.385 123.286 163.244C125.577 162.701 127.845 162.067 130.086 161.345C133.679 160.172 147.711 154.503 144.938 163.469C144.51 164.855 141.766 165.857 140.514 166.223C119.583 172.833 89.1462 178.923 68.6729 168.277L68.3037 168.083C68.3737 166.219 68.9711 163.718 69.4788 161.952Z" fill="#C5DEA6"/>
<path d="M74.3822 139.993C76.1264 138.021 77.8399 136.025 79.6861 134.148C82.1973 131.596 93.2561 121.056 96.2565 120.945C97.0702 120.914 97.9712 121.28 98.5477 121.854C99.2802 122.583 99.5814 123.817 99.5433 124.82C99.4831 126.426 98.3719 127.389 97.2497 128.386C92.3305 132.755 86.8681 136.798 82.4849 141.725C81.1107 142.853 77.7772 146.87 76.7164 148.395C75.8413 149.569 74.8125 151.005 74.0209 152.241C72.8876 153.739 71.4064 156.58 70.7588 158.407C70.2768 159.624 69.8949 160.718 69.4784 161.952C68.9707 163.718 68.3732 166.219 68.3033 168.083C68.2287 169.121 68.1113 170.334 68.1092 171.361C68.0367 172.355 67.9686 175.865 68.2991 176.671C68.2872 177.534 68.3619 177.823 68.5326 178.664C66.2029 176.714 64.6556 173.209 63.728 170.388C63.1115 169.11 62.6237 167.718 62.2307 166.357C62.801 167.18 63.1761 167.691 63.8278 168.443C63.9142 167.494 63.8694 166.593 63.9825 165.574C63.1981 164.929 62.1913 164.163 61.5495 163.403C61.3406 161.895 61.5663 158.483 61.9449 157.039C63.0497 158.042 63.8433 158.379 64.8503 159.179C65.0337 158.235 65.3191 157.213 65.5606 156.274C64.4959 155.649 63.4272 154.916 62.5958 153.998C63.0803 152.062 63.8574 150.002 64.6691 148.194C65.8858 148.959 66.599 149.331 67.9476 149.853C68.6514 148.452 69.2383 147.283 70.0523 145.941C69.2845 145.471 67.5499 144.649 66.6689 144.175C67.0699 143.025 69.3649 139.576 70.2189 138.541C71.6043 139.056 72.9613 139.586 74.3822 139.993Z" fill="#9BC84A"/>
<path d="M66.6689 144.175C67.07 143.025 69.365 139.576 70.219 138.541C71.6044 139.056 72.9614 139.586 74.3823 139.993C72.6873 142.161 71.5786 143.895 70.0523 145.941C69.2846 145.471 67.55 144.649 66.6689 144.175Z" fill="#90D4D0"/>
<path d="M64.6691 148.193C65.8857 148.959 66.599 149.331 67.9475 149.853C67.0229 152.108 66.3369 153.969 65.5606 156.274C64.4959 155.649 63.4271 154.915 62.5957 153.998C63.0802 152.062 63.8573 150.002 64.6691 148.193Z" fill="#B7BEBF"/>
<path d="M61.5495 163.403C61.3406 161.894 61.5663 158.483 61.9449 157.039C63.0497 158.042 63.8433 158.379 64.8503 159.179C64.4862 161.302 64.1488 163.425 63.9825 165.574C63.1981 164.928 62.1913 164.163 61.5495 163.403Z" fill="#C5DEA6"/>
<path d="M62.2314 166.357C62.8018 167.179 63.1768 167.691 63.8285 168.443C63.888 169.129 63.7991 169.704 63.7287 170.388C63.1123 169.109 62.6244 167.718 62.2314 166.357Z" fill="#90D4D0"/>
<path d="M131.442 57.9463C134.334 57.5345 135.783 59.8019 133.165 61.5034C132.284 62.0762 130.133 62.6341 129.066 62.9899C127.548 63.508 126.04 64.054 124.543 64.6274C107.839 70.992 91.9611 79.6612 78.2178 91.1654C74.7982 94.1663 70.8372 97.3244 67.9996 100.906C63.9991 105.952 59.6531 111.738 57.0094 117.627C56.6305 118.494 56.2581 119.717 55.9326 120.644C55.9643 119.439 56.2785 117.625 56.5034 116.417C57.695 110.026 60.3255 105.139 64.2381 100.092C76.7182 83.9922 94.2019 73.0683 112.486 64.6338C117.952 62.1126 125.429 58.7336 131.442 57.9463Z" fill="#1FA7A1"/>
<path d="M56.2903 123.892C59.408 115.239 65.0743 107.856 71.5205 101.433C81.671 91.4028 93.455 82.7445 106.308 76.5044C107.834 75.7631 109.701 74.8644 110.749 76.8757C111.235 77.81 111.01 79.8716 110.054 80.4223C108.115 81.541 106.044 82.5048 104.061 83.578C96.335 87.8057 89.0116 92.7329 82.1836 98.297C72.8984 105.862 62.1747 117.137 57.2006 128.19C56.6843 129.364 55.713 131.763 55.4847 133.01L55.2778 134.02L55.0459 134.649C55.0712 131.899 55.1962 129.15 55.4209 126.41C55.7812 125.87 56.0446 124.605 56.2903 123.892Z" fill="#6B7E82"/>
<path d="M68.2995 176.671C67.969 175.865 68.0371 172.355 68.1096 171.36C70.7255 172.738 73.4768 174.172 76.2535 175.2C84.9929 178.435 94.632 178.846 103.843 178.446C106.533 178.329 110.588 177.427 113.008 178.711C116.124 180.632 115.695 184.137 111.924 184.846C109.139 185.37 106.599 185.214 103.813 185.263C95.6153 185.408 73.2666 183.991 68.2995 176.671Z" fill="#8CD1CE"/>
<path d="M68.5156 178.593C69.2412 179.007 70.4984 180.354 71.2353 180.953C73.2548 182.592 75.7746 184.203 78.185 185.197C80.25 186.046 83.1938 187.067 85.3609 187.563C86.7978 187.889 88.2408 188.188 89.69 188.457C93.053 189.056 96.0939 189.383 98.6789 191.871C99.4778 192.64 99.6622 193.495 98.8448 194.321C95.4216 196.116 88.0232 194.255 84.6861 192.778C79.2052 190.312 74.3967 186.566 70.6647 181.855C69.991 181.007 68.904 179.591 68.5156 178.593Z" fill="#DCE6AA"/>
<path d="M82.4853 141.725C85.3566 141.807 88.9568 141.641 91.7151 141.988C95.2329 142.429 96.6219 148.975 91.6229 149.466C86.5034 149.967 81.7564 149.06 76.7168 148.395C77.7776 146.869 81.1111 142.853 82.4853 141.725Z" fill="#90D4D0"/>
<path d="M108.029 112.767C109.649 112.651 110.993 113.456 111.416 115.063C111.726 116.244 111.554 117.501 110.934 118.553C110.101 119.968 109.025 120.477 107.522 120.845C105.653 120.928 104.157 120.096 103.841 118.135C103.628 116.873 103.939 115.578 104.701 114.55C105.601 113.362 106.636 112.982 108.029 112.767Z" fill="#9BC84A"/>
<path d="M120.71 105.499C125.362 105.041 126.4 112.332 120.46 113.403C115.162 113.032 115.061 106.86 120.71 105.499Z" fill="#9BC84A"/>
<path d="M140.401 73.1705C141.361 73.1029 142.391 73.3242 143.187 73.8798C143.816 74.3125 144.245 74.9789 144.38 75.7287C144.817 78.212 142.481 79.0812 140.526 79.4229C139.554 79.3885 138.66 79.2447 137.816 78.7652C135.449 77.4191 136.02 74.7268 138.356 73.7458C139.124 73.4225 139.591 73.3254 140.401 73.1705Z" fill="#9BC84A"/>
<path d="M151.981 69.8646C152.781 69.7531 153.935 70.0202 154.662 70.4255C156.026 71.1864 156.998 73.0636 156.015 74.5019C155.299 75.5505 154.176 75.7079 152.995 75.8861C147.994 75.966 145.86 70.5526 151.981 69.8646Z" fill="#9BC84A"/>
<path d="M189.132 75.2505C191.728 75.0071 193.649 76.5364 194.735 78.7714C195.403 80.147 194.751 81.2436 193.433 81.7845C189.963 82.3414 185.242 77.2888 189.132 75.2505Z" fill="#1FA7A1"/>
<path d="M120.278 70.2298C124.765 69.8304 124.5 75.0365 119.089 76.1012C117.861 76.1479 116.032 75.8676 115.763 74.4907C115.242 71.8317 118.431 70.6941 120.278 70.2298Z" fill="#6B7E82"/>
<path d="M145.286 61.6165C150.428 60.9794 151.549 65.567 146.448 66.8577C141.304 67.6646 140.009 62.937 145.286 61.6165Z" fill="#6B7E82"/>
<path d="M157.93 58.8006C159.671 58.6946 162.164 59.3034 162.621 61.2583C162.751 61.8028 162.636 62.3769 162.304 62.8279C161.656 63.7177 160.512 63.9824 159.49 64.116C157.768 64.21 155.309 63.6191 154.856 61.6803C154.73 61.1486 154.834 60.5883 155.143 60.1375C155.789 59.2081 156.889 58.9528 157.93 58.8006Z" fill="#6B7E82"/>
<path d="M132.631 65.4203C133.529 65.32 134.496 65.3316 135.267 65.7941C137.38 67.0627 136.415 69.6343 134.404 70.3758C133.789 70.6025 133.417 70.6779 132.804 70.79C127.865 71.0598 127.31 66.6793 132.631 65.4203Z" fill="#6B7E82"/>
<path d="M139.76 54.9742C144.208 54.575 146.113 58.0737 141.509 59.249C136.967 59.6031 135.004 56.0259 139.76 54.9742Z" fill="#1FA7A1"/>
<path d="M55.4198 126.41C55.4048 125.227 55.5989 122.958 55.7575 121.807L56.2892 123.892C56.0434 124.605 55.78 125.87 55.4198 126.41Z" fill="#1FA7A1" fill-opacity="0.988235"/>
</svg>
