<svg width="250" height="250" viewBox="0 0 250 250" fill="none" xmlns="http://www.w3.org/2000/svg">
<path d="M0 48C0 21.4903 21.4903 0 48 0H202C228.51 0 250 21.4903 250 48V202C250 228.51 228.51 250 202 250H48C21.4903 250 0 228.51 0 202V48Z" fill="#121212"/>
<path d="M145.75 107.229L135.503 113.409L124.744 118.559L134.991 124.74L145.238 130.92L155.484 137.1L165.732 143.281L175.978 149.461V173.152L165.732 166.972L155.484 160.791L145.238 154.611L134.991 148.431L124.744 142.25V154.096L114.497 160.276L104.25 166.456L94.0035 172.637L83.7566 178.817L73.5098 184.997V161.306L83.7566 156.156L94.0035 149.976L104.25 143.795L114.497 137.615L124.744 131.435L114.497 125.255L104.25 119.075L94.0035 112.894L83.7566 106.714L73.5098 100.534V76.8428L83.7566 83.0231L94.0035 89.2033L104.763 95.3837L115.01 101.564L125.256 107.744V95.8985L135.503 89.7183L145.75 83.5381L155.997 77.3578L166.244 71.1776L176.491 64.9973V88.6883L166.244 94.8685L155.997 101.049L145.75 107.229Z" fill="white"/>
</svg>
