<svg width="250" height="250" viewBox="0 0 250 250" fill="none" xmlns="http://www.w3.org/2000/svg">
<mask id="path-1-inside-1_769_353" fill="white">
<path d="M0 48C0 21.4903 21.4903 0 48 0H202C228.51 0 250 21.4903 250 48V202C250 228.51 228.51 250 202 250H48C21.4903 250 0 228.51 0 202V48Z"/>
</mask>
<path d="M0 48C0 21.4903 21.4903 0 48 0H202C228.51 0 250 21.4903 250 48V202C250 228.51 228.51 250 202 250H48C21.4903 250 0 228.51 0 202V48Z" fill="white"/>
<path d="M48 0V2H202V0V-2H48V0ZM250 48H248V202H250H252V48H250ZM202 250V248H48V250V252H202V250ZM0 202H2V48H0H-2V202H0ZM48 250V248C22.5949 248 2 227.405 2 202H0H-2C-2 229.614 20.3858 252 48 252V250ZM250 202H248C248 227.405 227.405 248 202 248V250V252C229.614 252 252 229.614 252 202H250ZM202 0V2C227.405 2 248 22.5949 248 48H250H252C252 20.3858 229.614 -2 202 -2V0ZM48 0V-2C20.3858 -2 -2 20.3858 -2 48H0H2C2 22.5949 22.5949 2 48 2V0Z" fill="#DDDBDB" mask="url(#path-1-inside-1_769_353)"/>
<path fill-rule="evenodd" clip-rule="evenodd" d="M185.834 70.4167C186.939 70.4168 187.998 70.8558 188.78 71.6371C189.561 72.4184 190 73.4782 190 74.5832V175.417C190 176.521 189.561 177.581 188.78 178.363C187.998 179.144 186.939 179.583 185.834 179.583H64.1664C63.0615 179.583 62.0017 179.144 61.2203 178.363C60.4391 177.581 60 176.521 60 175.417V74.5832C60.0001 73.4782 60.439 72.4184 61.2203 71.6371C62.0017 70.8557 63.0615 70.4168 64.1664 70.4167H185.834ZM65.6748 173.967H129.475C114.132 169.964 100.133 161.944 88.9191 150.734C77.7053 139.523 69.6816 125.525 65.6748 110.183V173.967ZM129.135 94.0348C128.395 94.1036 127.696 94.4073 127.141 94.902C127.067 94.9679 126.996 95.0368 126.928 95.1083C126.48 95.5761 126.17 96.1615 126.035 96.7992L116.875 140.613L104.817 111.558C104.535 110.877 104.044 110.302 103.415 109.917C102.785 109.533 102.05 109.359 101.315 109.421C100.58 109.482 99.8838 109.775 99.3269 110.259C99.2573 110.319 99.1904 110.382 99.1262 110.447C98.6682 110.908 98.3466 111.488 98.201 112.124L95.8635 122.241H80.4831C80.0121 122.218 79.5413 122.291 79.0993 122.456C78.6571 122.62 78.2524 122.873 77.9107 123.198C77.5691 123.523 77.2976 123.915 77.1117 124.349C76.9259 124.782 76.83 125.249 76.83 125.721C76.83 125.839 76.8356 125.956 76.8475 126.073C76.882 126.429 76.971 126.779 77.1125 127.109C77.2984 127.543 77.5707 127.934 77.9123 128.26C78.2539 128.585 78.658 128.837 79.1001 129.002C79.5423 129.166 80.0135 129.239 80.4847 129.216H98.6429C99.4304 129.217 100.195 128.95 100.811 128.46C101.428 127.969 101.858 127.283 102.034 126.516L102.538 124.318L114.75 153.742C115.016 154.376 115.462 154.917 116.035 155.298C116.607 155.679 117.279 155.883 117.967 155.883H118.291C118.853 155.831 119.391 155.642 119.86 155.337C120.018 155.237 120.168 155.124 120.309 154.998C120.862 154.503 121.242 153.844 121.393 153.116L130.548 109.361L143.392 140.525C143.672 141.203 144.159 141.776 144.783 142.16C145.408 142.545 146.138 142.723 146.869 142.668C147.443 142.625 147.993 142.44 148.474 142.135C148.617 142.046 148.754 141.948 148.884 141.839C149.444 141.366 149.841 140.728 150.018 140.016L152.909 128.441H169.576C170.047 128.464 170.518 128.391 170.96 128.226C171.402 128.062 171.807 127.81 172.149 127.485C172.49 127.159 172.762 126.768 172.948 126.334C173.134 125.9 173.229 125.433 173.229 124.961C173.229 124.49 173.134 124.023 172.948 123.589C172.898 123.474 172.842 123.363 172.781 123.254C172.609 122.94 172.39 122.654 172.131 122.406C171.789 122.081 171.385 121.829 170.943 121.665C170.501 121.5 170.029 121.427 169.558 121.45H150.184C149.408 121.449 148.654 121.708 148.042 122.185C147.886 122.307 147.741 122.441 147.609 122.587C147.216 123.012 146.935 123.532 146.793 124.1L145.809 128.033L132.675 96.1668C132.39 95.4804 131.893 94.9033 131.256 94.5196C130.619 94.136 129.876 93.9658 129.135 94.0348ZM120.584 76.0836C135.925 80.0835 149.922 88.1015 161.133 99.3113C172.345 110.521 180.365 124.518 184.366 139.859V76.0836H120.584Z" fill="#EF130F"/>
</svg>
