<svg width="250" height="250" viewBox="0 0 250 250" fill="none" xmlns="http://www.w3.org/2000/svg">
<mask id="path-1-inside-1_769_354" fill="white">
<path d="M0 48C0 21.4903 21.4903 0 48 0H202C228.51 0 250 21.4903 250 48V202C250 228.51 228.51 250 202 250H48C21.4903 250 0 228.51 0 202V48Z"/>
</mask>
<path d="M0 48C0 21.4903 21.4903 0 48 0H202C228.51 0 250 21.4903 250 48V202C250 228.51 228.51 250 202 250H48C21.4903 250 0 228.51 0 202V48Z" fill="white"/>
<path d="M48 0V2H202V0V-2H48V0ZM250 48H248V202H250H252V48H250ZM202 250V248H48V250V252H202V250ZM0 202H2V48H0H-2V202H0ZM48 250V248C22.5949 248 2 227.405 2 202H0H-2C-2 229.614 20.3858 252 48 252V250ZM250 202H248C248 227.405 227.405 248 202 248V250V252C229.614 252 252 229.614 252 202H250ZM202 0V2C227.405 2 248 22.5949 248 48H250H252C252 20.3858 229.614 -2 202 -2V0ZM48 0V-2C20.3858 -2 -2 20.3858 -2 48H0H2C2 22.5949 22.5949 2 48 2V0Z" fill="#DDDBDB" mask="url(#path-1-inside-1_769_354)"/>
<path d="M105.533 61.7591C108.282 61.5144 109.467 61.0786 112.363 61.2177C113.021 61.8295 113.837 62.2463 113.866 63.1064C113.928 64.98 111.701 66.1842 111.025 67.4463C109.935 69.4797 110.251 70.9232 108.318 72.7146C107.197 73.7529 105.973 74.4257 104.864 75.3848C104.384 75.8002 103.469 77.5312 102.87 78.0304C102.542 78.3038 102.318 78.4959 101.967 78.7575C99.9376 80.2701 96.5135 81.2678 94.5265 82.4424C89.8397 85.2134 85.2253 91.3839 82.5761 96.1244C82.1422 96.9007 81.2877 98.271 81.014 99.0759L81.1249 99.3229C83.2653 99.8513 85.7893 97.3162 87.3452 96.0779C90.4984 93.5682 93.5738 92.8961 97.4656 93.8518C102.653 95.1253 99.832 97.8711 97.1585 99.9787C95.6562 101.16 94.139 102.279 92.6974 103.534C91.298 104.753 90.1953 106.586 88.9081 107.789C85.6394 110.846 83.2287 114.228 80.6283 117.828C69.6576 133.014 69.8351 154.191 81.2963 169.052C82.3536 170.423 83.5187 172.412 84.4697 173.888C86.3031 177.869 90.6537 181.07 94.3729 183.095C94.7658 183.309 97.3073 184.782 97.5446 184.971C97.9923 185.743 99.6832 186.199 99.6233 186.899C99.1086 186.998 99.0402 187.2 98.6086 187.268C98.0649 187.02 97.3828 186.52 96.8709 186.801C95.463 186.436 91.4598 184.211 90.0948 183.427C78.3511 176.708 68.7681 166.778 62.4713 154.803C54.3948 139.181 52.7954 121.008 58.0191 104.216C59.0594 100.936 60.4934 97.5432 62.0536 94.4821C62.7174 93.3634 63.7181 92.237 64.3637 91.1309C68.9315 83.3051 75.9467 77.0932 83.5375 72.2796C84.1399 71.8977 84.8485 71.2863 85.476 70.9571C90.1501 68.5043 94.5238 65.5498 99.2097 63.1186C100.012 62.5978 101.095 62.0937 101.977 61.7272C102.648 62.0939 104.46 61.6407 105.533 61.7591Z" fill="#010262"/>
<path d="M97.5446 184.971C98.6402 185.581 107.909 190.566 108.111 190.821C108.131 190.847 108.153 190.871 108.173 190.897C108.185 190.912 108.195 190.929 108.206 190.945C104.616 190.121 100.145 188.444 96.8709 186.801C97.3828 186.52 98.0649 187.02 98.6086 187.268C99.0402 187.2 99.1086 186.998 99.6233 186.899C99.6832 186.199 97.9923 185.743 97.5446 184.971Z" fill="#010262"/>
<path d="M101.978 61.7276C126.198 51.6157 148.591 53.5898 168.89 70.4566C170.289 71.6201 171.48 73.1382 172.763 74.4251C173.884 75.6191 175.439 77.1897 176.441 78.4447C179.134 81.8187 181.49 85.5402 183.531 89.3426C184.594 91.3234 185.47 92.856 186.405 94.9287C187.449 97.2461 188.048 100.222 188.927 102.367C189.427 104.141 190.263 106.972 190.601 108.718C189.892 108.22 190.056 106.334 189.28 105.891C188.679 106.905 189.54 108.306 189.287 109.819C189.628 112.738 190.052 115.741 190.232 118.692C190.8 128.02 189.412 138.361 185.484 146.888C184.652 148.694 181.324 153.644 180.058 155.251C180.007 155.315 179.955 155.379 179.902 155.441C179.684 155.388 178.76 155.145 178.667 154.971C177.339 152.443 178.126 150.077 175.936 147.812C174.326 146.146 175.192 141.906 175.542 139.88C173.715 135.582 175.322 133.746 176.67 129.969C177.278 128.244 177.65 126.444 177.773 124.618C178.269 116.945 176.829 111.757 174.397 104.633C173.955 105.377 173.496 106.061 173.224 106.888C172.062 110.423 173.131 114.166 170.853 117.406C169.449 119.402 166.838 121.157 164.428 121.609C163.993 121.69 163.794 121.651 163.486 121.418C162.498 118.789 163.258 112.494 163.026 109.382C162.638 104.18 162.271 98.0251 161.049 92.9352C159.884 88.0791 157.104 81.2506 154.416 76.9922C153.123 74.9439 150.159 71.8362 148.37 70.102C146.326 68.1218 143.981 66.9568 141.596 65.5895C131.837 59.9952 123.018 60.6983 112.364 61.2181C109.468 61.079 108.283 61.5148 105.534 61.7595C104.461 61.6411 102.648 62.0943 101.978 61.7276Z" fill="black"/>
<path d="M189.289 109.819C189.541 108.306 188.68 106.904 189.281 105.891C190.057 106.334 189.893 108.22 190.602 108.718C191.162 110.314 191.522 111.983 192.017 113.578C195.246 123.969 195.887 135.559 193.777 146.24C192.953 150.412 190.822 155.486 189.106 159.374C187.497 163.02 185.598 166.191 183.011 169.208C181.923 170.476 181.014 172.042 179.858 173.274C177.189 176.091 173.68 179.226 170.627 181.626C169.137 182.797 166.465 184.186 164.822 185.222C161.442 187.352 157.901 189.15 154.127 190.432C141.39 194.759 128.252 195.711 115.119 192.595C113.697 192.257 109.32 191.432 108.208 190.944C104.618 190.12 100.147 188.444 96.8729 186.801C97.3848 186.521 98.0669 187.02 98.6106 187.268C99.0422 187.2 99.1106 186.998 99.6253 186.899C99.6852 186.2 97.9943 185.743 97.5466 184.971C97.3093 184.782 94.7678 183.309 94.3749 183.095C90.6557 181.07 86.3051 177.869 84.4717 173.888C86.9553 171.871 90.1418 173.843 93.0815 172.103C95.2285 170.832 99.2254 172.765 101.443 173.754C105.02 171.303 107.065 175.039 110.101 176.299C112.244 177.188 115.429 178.873 117.628 179.309C122.656 180.306 130.25 180.693 135.293 179.824C132.888 174.884 125.891 177.613 122.955 172.664C116.328 161.492 124.95 165.998 130.668 167.008C143.877 169.342 158.765 170.222 170.81 163.368C172.44 162.44 179.542 156.991 179.903 155.441C179.956 155.378 180.008 155.315 180.059 155.25C181.326 153.643 184.654 148.693 185.485 146.888C189.413 138.36 190.802 128.019 190.234 118.692C190.054 115.741 189.629 112.738 189.289 109.819Z" fill="#F50701"/>
<path d="M188.927 102.366C189.427 104.14 190.263 106.971 190.601 108.718C189.892 108.22 190.056 106.334 189.28 105.891C188.679 106.904 189.54 108.306 189.287 109.819C188.85 108.369 188.569 105.337 188.493 103.794C188.45 102.925 188.429 102.893 188.927 102.366Z" fill="#F50701"/>
</svg>
