<svg width="250" height="250" viewBox="0 0 250 250" fill="none" xmlns="http://www.w3.org/2000/svg">
<mask id="path-1-inside-1_769_362" fill="white">
<path d="M0 48C0 21.4903 21.4903 0 48 0H202C228.51 0 250 21.4903 250 48V202C250 228.51 228.51 250 202 250H48C21.4903 250 0 228.51 0 202V48Z"/>
</mask>
<path d="M0 48C0 21.4903 21.4903 0 48 0H202C228.51 0 250 21.4903 250 48V202C250 228.51 228.51 250 202 250H48C21.4903 250 0 228.51 0 202V48Z" fill="white"/>
<path d="M48 0V2H202V0V-2H48V0ZM250 48H248V202H250H252V48H250ZM202 250V248H48V250V252H202V250ZM0 202H2V48H0H-2V202H0ZM48 250V248C22.5949 248 2 227.405 2 202H0H-2C-2 229.614 20.3858 252 48 252V250ZM250 202H248C248 227.405 227.405 248 202 248V250V252C229.614 252 252 229.614 252 202H250ZM202 0V2C227.405 2 248 22.5949 248 48H250H252C252 20.3858 229.614 -2 202 -2V0ZM48 0V-2C20.3858 -2 -2 20.3858 -2 48H0H2C2 22.5949 22.5949 2 48 2V0Z" fill="#DDDBDB" mask="url(#path-1-inside-1_769_362)"/>
<path fill-rule="evenodd" clip-rule="evenodd" d="M119.681 49.4215C122.156 49.369 124.482 49.3128 126.959 49.4364C129.586 49.5673 132.016 49.8626 134.612 50.1944C134.23 52.4693 132.737 61.6938 133.576 63.2563C134.578 65.1239 137.101 65.9269 138.991 66.4767C140.165 62.002 141.429 57.0298 142.413 52.5087C143.955 53.5197 145.267 54.5931 146.944 55.4634C147.613 55.8109 148.802 56.7444 149.423 57.2181C151.249 58.6107 152.923 60.1681 154.879 61.4054C155.376 61.7251 155.972 62.2714 156.429 62.67C156.143 64.2927 155.656 66.0318 155.257 67.6427C154.592 70.4207 153.857 73.1816 153.052 75.9222C154.871 78.6774 156.892 80.2694 158.363 83.4882C159.738 80.3056 161.421 77.2823 162.862 74.131C163.393 72.9728 164.094 71.898 164.578 70.7028C165.653 72.9446 166.646 75.2671 167.781 77.4768C168.72 79.3053 169.819 81.0959 170.691 82.9719C171.04 83.7233 171.734 84.5833 172.058 85.3165C173.267 88.0563 174.749 90.6265 176.086 93.294C174.042 94.6575 171.99 96.0504 169.764 97.0944C168.955 97.4737 168.217 97.9925 167.373 98.3556C167.457 98.6921 167.512 99.0445 167.58 99.3859C168.252 102.761 169.034 106.12 169.85 109.463C170.052 110.292 170.276 111.164 170.385 112.009C170.991 111.921 171.641 111.852 172.212 111.631C175.721 110.273 177.912 106.44 181.064 104.44L182.764 119.288L183.277 124.154C183.386 125.199 183.479 126.411 183.684 127.427C180.216 128.538 176.9 129.144 173.452 130.063C173.148 131.687 171.903 138.239 172.414 139.444C172.92 140.632 174.142 141.673 175.324 142.149C178.345 143.367 181.55 141.261 184.248 140.129C184.568 147.422 185.111 154.729 185.436 162.043L173.836 162.019C173.775 164.405 173.823 167.101 173.845 169.493C175.664 169.412 178.108 169.486 179.973 169.484C182.881 169.453 185.79 169.443 188.698 169.453C188.676 168.145 188.857 165.449 189.343 164.205C189.411 164.03 189.564 163.942 189.735 163.881C190.421 163.946 190.901 165.37 191.138 165.955C192.842 170.125 193.776 174.591 194.503 179.022C194.722 180.352 194.68 182.096 194.999 183.342V184.638L125.091 184.324C119.539 184.242 113.987 184.202 108.435 184.204C105.321 184.202 101.347 184.32 98.3106 184.137C97.7896 183.769 97.4274 184.116 97.148 183.9C97.5141 183.777 97.6139 183.938 97.9189 183.682C96.3492 183.777 95.3176 183.847 93.7696 183.521C93.8425 183.67 93.8709 183.7 94.0059 183.797C93.9008 183.909 93.8421 183.966 93.7259 184.066C86.7306 183.968 79.7344 183.94 72.7385 183.982C66.9186 183.981 60.8049 184.039 54.999 183.853L55.0025 170.891C57.0312 170.907 59.1674 170.785 61.1953 170.715L69.5481 170.431C71.4265 170.356 72.9894 170.216 74.9043 170.235C74.8044 167.341 74.8828 163.929 74.882 160.998C73.619 161.24 71.2818 161.163 69.937 161.226C67.9704 161.319 65.9626 161.4 63.9954 161.396C64.0489 159.554 64.1791 157.994 64.2851 156.185C64.4278 153.298 64.5966 150.411 64.7911 147.526L65.8397 129.019C67.3483 130.798 71.068 134.226 73.5208 134.74C73.7819 134.794 74.2187 134.604 74.3995 134.399C75.757 132.858 75.6609 129.822 75.7978 127.898C75.8893 126.612 75.9842 125.402 76.0141 124.191C72.8248 123.838 69.0038 123.009 65.7063 122.521C67.0992 117.106 68.2034 111.567 69.6476 106.156C69.7476 105.782 69.8542 105.226 69.9141 104.833C70.2107 102.889 70.8371 100.961 71.1473 99.0316C73.8431 99.9969 77.3614 101.285 80.1145 101.876C81.2816 99.9538 82.2532 97.2938 82.6106 95.0543C82.1717 93.7946 79.4334 90.8891 78.5499 89.5681C77.6805 88.2683 76.9992 86.9953 76.2532 85.6214C79.1456 79.9245 82.4729 74.5764 85.651 69.0488C86.6064 67.3871 87.9133 65.8574 88.9157 64.1397C89.6002 67.4814 90.2995 70.9012 91.6058 74.0613C92.0631 75.1676 92.1828 76.1561 93.6987 76.0673C96.2244 75.9193 98.0851 73.9584 99.7161 72.2435C98.4115 69.0099 96.7869 65.9671 95.4377 62.7528C95.1499 62.0672 94.8226 61.377 94.5136 60.6999C96.5317 59.3795 98.4211 57.7138 100.436 56.372C102.449 55.0317 104.775 54.085 106.869 52.8442C107.894 52.2366 109.268 51.7142 110.366 51.2624L112.347 65.725C114.317 66.096 116.097 66.0056 117.628 64.5512C118.216 63.9944 118.644 63.2914 118.871 62.5145C119.23 61.2855 119.324 58.1305 119.386 56.7318L119.681 49.4215ZM152.935 84.4676C150.918 84.6662 150.703 85.034 149.378 86.5443C148.359 87.706 147.779 89.0058 146.877 90.2247C145.552 92.0156 144.27 93.9579 142.846 95.6709C142.233 96.408 141.198 97.0405 140.48 97.695C139.515 98.4989 138.661 99.2454 137.63 100.004C136.176 101.075 133.895 103.124 132.022 101.707C131.399 101.236 131.166 100.173 131.139 99.427C131.054 95.8085 131.496 92.0064 129.785 88.6626C128.91 86.9539 127.619 85.6669 125.565 85.7677C124.578 85.8162 123.691 86.4173 123.076 87.1606C121.63 88.9592 121.68 91.505 121.82 93.73C121.965 96.0295 123.946 99.5441 122.404 101.665C122.253 101.873 122.13 101.924 121.909 101.958C121.398 101.717 118.653 98.627 118.003 97.9598C117.187 97.1095 116.272 96.3909 115.411 95.5866C113.914 94.1885 112.403 92.465 110.728 91.2716C108.925 89.9869 106.903 88.4343 104.963 87.4146C103.48 86.6352 101.57 86.316 99.9338 86.036C97.964 85.7688 95.0593 85.5283 94.1776 87.8463C92.8294 91.3908 95.5276 94.8745 97.6046 97.4924C97.928 97.9529 98.2378 98.4191 98.5558 98.8813C99.1393 99.7295 99.6188 100.79 100.241 101.595C102.243 104.189 103.998 106.952 106.133 109.44C106.312 109.648 106.468 109.909 106.64 110.126C108.51 112.928 110.962 115.208 112.984 117.892C115.487 121.215 117.503 124.849 119.962 128.178C121.497 130.29 122.514 131.829 125.192 132.368C130.259 133.453 132.992 129.93 134.906 125.779C135.422 124.66 135.79 123.493 136.088 122.295C136.606 120.216 137.566 118.309 138.673 116.496C139.803 114.649 141.321 114.349 142.936 113.13C144.137 112.067 145.345 110.983 146.48 109.85C147.44 108.892 148.636 107.931 149.419 106.829C153.207 101.495 155.337 95.1379 155.37 88.5789C155.378 87.1875 155.438 85.8987 154.492 84.7705C153.895 84.5602 153.59 84.4667 152.935 84.4676Z" fill="#00B5F2"/>
<path d="M152.525 86.2858C152.593 86.2785 152.66 86.2716 152.727 86.2653C152.999 86.2403 153.522 86.1903 153.688 86.4292C154.31 87.3196 154.015 89.9003 153.908 90.8909C153.271 96.7925 151.148 102.935 146.927 107.24C146.316 108.046 145.225 108.622 144.588 109.34C142.388 111.819 139.126 112.926 137.304 115.732C136.512 116.953 136.207 117.928 135.735 119.189C134.299 123.027 133.687 126.738 130.359 129.509C127.819 131.624 124.581 131.009 122.355 128.732C120.396 126.728 118.965 123.91 117.439 121.571C116.226 119.712 114.799 117.851 113.598 115.965C113.046 115.09 111.948 114.2 111.28 113.363C109.829 111.544 108.351 109.744 106.87 107.95C105.785 106.599 104.831 105.066 103.761 103.695C103.101 102.848 102.434 102.005 101.815 101.13C100.673 99.5551 99.5781 97.5217 98.414 96.0276L98.3583 95.9573C98.0856 95.5787 97.7904 95.1594 97.5396 94.7634C96.5072 93.133 94.8678 91.2431 95.1896 89.1875C95.2908 88.5418 96.097 87.9455 96.699 87.8967C104.953 87.2276 111.06 93.7227 116.575 98.8831C118.149 100.356 119.495 102.143 121.243 103.424C122.249 104.059 123.209 103.284 123.696 102.398C126.01 98.1883 121.477 93.4386 123.66 89.1379C125.027 86.7185 127.874 87.7989 128.812 89.9241C130.424 93.4906 129.149 97.752 129.981 101.425C130.375 103.163 132.743 104.408 134.365 103.798C138.534 102.233 142.41 98.4086 145.334 95.1365C146.78 93.518 147.757 91.4072 149.068 89.6855C149.982 88.3818 150.804 86.7655 152.428 86.3121L152.525 86.2858Z" fill="#F31D93"/>
<path fill-rule="evenodd" clip-rule="evenodd" d="M93.357 140.239C94.9279 139.565 97.4035 139.479 98.9975 140.149C100.945 140.97 102.802 143.162 103.447 145.177C105.13 150.645 104.571 156.756 104.68 162.419C104.757 166.398 104.697 170.498 104.335 174.439C104.005 178.043 102.527 182.2 98.7878 183.441C98.5472 183.522 98.103 183.604 97.9192 183.682C96.3494 183.777 95.3176 183.847 93.7696 183.521C87.3899 180.964 87.8383 172.204 87.6785 166.526C87.5634 162.915 87.5669 159.3 87.6891 155.689C87.7513 153.374 87.8189 151.252 88.0737 148.924C88.4537 145.453 89.9286 141.71 93.357 140.239ZM95.7988 145.752C93.6764 146.156 93.2197 148.087 92.9962 149.951C92.5845 153.817 92.6484 157.767 92.673 161.654C92.6998 165.896 92.4735 170.302 93.2324 174.482C93.5773 176.382 94.436 177.669 96.5206 177.655C96.9841 177.579 97.4933 177.472 97.8763 177.183C99.527 175.937 99.4076 172.619 99.4907 170.737C99.6685 166.713 99.5114 162.67 99.567 158.643C99.5763 155.342 99.6352 151.966 99.1687 148.694C98.9014 146.82 97.7564 145.649 95.7988 145.752Z" fill="#FEFEFE"/>
<path d="M123.538 140.31C125.645 140.401 128.263 140.33 130.409 140.332L130.395 163.382C130.385 169.901 130.321 176.549 130.406 183.059C128.834 183.023 127.156 183.047 125.577 183.046L125.588 168.087C125.589 164.927 125.631 161.689 125.572 158.536C125.521 158.026 125.632 156.277 125.323 155.982L125.162 156.093C125.136 156.415 125.139 156.483 124.967 156.753C124.826 157.191 124.633 158.89 124.545 159.482L123.574 166.033L122.116 175.569C121.708 178.224 121.327 180.409 121.182 183.105C119.978 183.078 118.773 183.069 117.568 183.079C117.354 181.15 116.977 178.931 116.686 176.985C116.089 172.947 115.459 168.915 114.795 164.888C114.29 161.757 113.952 158.74 113.474 155.626L113.306 155.593C113.236 155.393 113.235 154.974 113.234 154.75L113.163 154.71C112.841 155.376 113.132 159.653 112.96 160.204L112.961 175.279L112.947 180.138C112.944 181.035 112.915 182.218 112.983 183.096C111.888 182.986 109.37 183.055 108.213 183.064L108.221 145.346C108.221 143.84 108.278 141.786 108.197 140.321C110.353 140.334 112.771 140.381 114.906 140.318C115.816 146.553 116.789 152.779 117.826 158.994C118.256 161.662 118.844 164.7 119.134 167.353L119.326 167.739C119.456 167.682 119.397 167.715 119.506 167.644L119.584 167.648C119.881 166.265 120.06 164.725 120.265 163.319C120.724 160.472 121.047 157.622 121.399 154.765C121.991 149.954 122.772 145.095 123.538 140.31Z" fill="#FEFEFE"/>
<path fill-rule="evenodd" clip-rule="evenodd" d="M148.252 140.36C151.278 140.586 155.36 139.924 158.163 140.976C162.808 142.719 162.674 149.084 162.507 153.137C162.398 155.767 161.505 158.584 158.924 159.612C160.465 160.205 161.72 161.369 162.426 162.862C163.935 166.116 163.509 175.021 162.242 178.557C161.856 179.541 161.233 180.423 160.488 181.17C159.734 181.926 158.835 182.465 157.805 182.754C155.914 183.285 150.526 183.041 148.266 183.057L148.252 140.36ZM153.155 177.078C154.833 177.079 156.136 177.294 157.411 176.096C158.838 174.156 158.505 168.715 158.201 166.302C157.81 163.196 155.76 163.119 153.146 163.069L153.155 177.078ZM153.147 146.208L153.155 157.42C154.652 157.419 155.674 157.596 156.807 156.491C158.055 155.023 157.794 151.513 157.681 149.621C157.475 146.199 155.828 146.191 153.147 146.208Z" fill="#FEFEFE"/>
<path d="M133.824 140.316C137.796 140.429 142.126 140.305 146.141 140.337C146.131 142.432 146.134 144.527 146.147 146.622L138.73 146.626C138.748 150.353 138.68 154.125 138.752 157.848C140.694 157.874 142.658 157.804 144.584 157.852C144.543 159.583 144.478 163.05 144.597 164.706C142.786 164.618 140.532 164.674 138.688 164.67L138.68 183.037L133.789 183.03L133.839 154.623C133.844 149.895 133.904 145.033 133.824 140.316Z" fill="#FEFEFE"/>
</svg>
