<svg width="250" height="250" viewBox="0 0 250 250" fill="none" xmlns="http://www.w3.org/2000/svg">
<mask id="path-1-inside-1_769_364" fill="white">
<path d="M0 48C0 21.4903 21.4903 0 48 0H202C228.51 0 250 21.4903 250 48V202C250 228.51 228.51 250 202 250H48C21.4903 250 0 228.51 0 202V48Z"/>
</mask>
<path d="M0 48C0 21.4903 21.4903 0 48 0H202C228.51 0 250 21.4903 250 48V202C250 228.51 228.51 250 202 250H48C21.4903 250 0 228.51 0 202V48Z" fill="white"/>
<path d="M48 0V2H202V0V-2H48V0ZM250 48H248V202H250H252V48H250ZM202 250V248H48V250V252H202V250ZM0 202H2V48H0H-2V202H0ZM48 250V248C22.5949 248 2 227.405 2 202H0H-2C-2 229.614 20.3858 252 48 252V250ZM250 202H248C248 227.405 227.405 248 202 248V250V252C229.614 252 252 229.614 252 202H250ZM202 0V2C227.405 2 248 22.5949 248 48H250H252C252 20.3858 229.614 -2 202 -2V0ZM48 0V-2C20.3858 -2 -2 20.3858 -2 48H0H2C2 22.5949 22.5949 2 48 2V0Z" fill="#DDDBDB" mask="url(#path-1-inside-1_769_364)"/>
<path d="M107.696 123.806C127.294 122.517 144.24 137.328 145.586 156.922C146.932 176.517 132.169 193.506 112.579 194.908C92.9086 196.315 75.8357 181.479 74.4846 161.805C73.1334 142.131 88.0179 125.101 107.696 123.806ZM114.794 167.384C124.091 166.876 131.227 158.949 130.761 149.65C130.294 140.352 122.4 133.179 113.099 133.604C103.739 134.031 96.5102 141.987 96.9798 151.345C97.4493 160.704 105.438 167.897 114.794 167.384Z" fill="#02C85D"/>
<path d="M139.226 55.0084C158.9 54.5843 175.188 70.1991 175.594 89.8734C176 109.548 160.37 125.821 140.695 126.209C121.047 126.596 104.799 110.991 104.394 91.3425C103.988 71.694 119.578 55.4321 139.226 55.0084ZM135.093 120.449C144.438 120.034 151.677 112.123 151.265 102.778C150.852 93.4329 142.944 86.1908 133.599 86.6003C124.25 87.0101 117.004 94.9228 117.416 104.272C117.829 113.621 125.744 120.864 135.093 120.449Z" fill="#2940BE"/>
</svg>
