<svg width="250" height="250" viewBox="0 0 250 250" fill="none" xmlns="http://www.w3.org/2000/svg">
<rect width="250" height="250" fill="#070724"/>
<path d="M94.1901 113.567C72.462 113.514 57.1369 119.455 55.1995 129.433C52.288 144.43 81.581 164.429 120.545 171.993C159.509 179.558 191.879 174.907 194.791 159.911C197.043 148.31 180.915 134.366 155.457 125.145V127.346C175.718 135.268 188.321 146.607 186.478 156.096C183.98 168.964 156 172.914 122.303 166.372C88.6066 159.83 63.2554 142.628 65.7536 129.761C67.2563 122.021 78.2214 117.127 94.1901 116.312V113.567Z" fill="#D7EA58"/>
<path d="M75.9677 128.76C80.0254 123.243 93.9988 122.168 93.9988 122.168V118.29C93.9988 118.29 85.6618 118.872 80.0392 121.586C75.8443 123.611 73.0126 126.097 72.284 130.698C71.7109 134.317 74.6105 139.035 74.6105 139.035C74.6105 139.035 73.2472 132.458 75.9677 128.76Z" fill="#D9D9D9"/>
<path d="M155.455 132.866C157.588 133.993 159.956 134.955 162.435 136.514C172.379 142.765 180.053 151.519 176.201 157.647C174.3 160.67 170.546 163.212 165.807 163.889C171.842 163.566 176.832 160.266 179.273 156.382C183.18 150.473 176.588 141.942 166.506 134.963C163.21 133.024 159.527 130.891 155.455 129.406V132.866Z" fill="#D9D9D9"/>
<path d="M117.841 93.5475C120.392 92.7474 123.169 91.8237 126.178 90.7574C127.998 90.1123 129.743 89.4249 131.413 88.707V166.037C129.161 165.685 126.895 165.283 124.637 164.85C122.382 164.417 120.105 163.939 117.841 163.412V93.5475Z" fill="white"/>
<path d="M139.944 84.4636V167.117C144.737 167.558 149.335 167.661 153.516 167.253V74.4365C150.406 77.1816 145.869 81.0918 139.944 84.4636Z" fill="white"/>
<path d="M95.7441 98.6644C97.2427 98.5322 101.664 98.0057 109.316 96.0088V161.159C104.308 159.655 99.6303 157.885 95.7441 155.828V98.6644Z" fill="white"/>
</svg>
