<svg width="250" height="250" viewBox="0 0 250 250" fill="none" xmlns="http://www.w3.org/2000/svg">
<mask id="path-1-inside-1_769_369" fill="white">
<path d="M0 48C0 21.4903 21.4903 0 48 0H202C228.51 0 250 21.4903 250 48V202C250 228.51 228.51 250 202 250H48C21.4903 250 0 228.51 0 202V48Z"/>
</mask>
<path d="M0 48C0 21.4903 21.4903 0 48 0H202C228.51 0 250 21.4903 250 48V202C250 228.51 228.51 250 202 250H48C21.4903 250 0 228.51 0 202V48Z" fill="white"/>
<path d="M48 0V2H202V0V-2H48V0ZM250 48H248V202H250H252V48H250ZM202 250V248H48V250V252H202V250ZM0 202H2V48H0H-2V202H0ZM48 250V248C22.5949 248 2 227.405 2 202H0H-2C-2 229.614 20.3858 252 48 252V250ZM250 202H248C248 227.405 227.405 248 202 248V250V252C229.614 252 252 229.614 252 202H250ZM202 0V2C227.405 2 248 22.5949 248 48H250H252C252 20.3858 229.614 -2 202 -2V0ZM48 0V-2C20.3858 -2 -2 20.3858 -2 48H0H2C2 22.5949 22.5949 2 48 2V0Z" fill="#DDDBDB" mask="url(#path-1-inside-1_769_369)"/>
<path d="M177.772 101.645L159.983 124.235L173.789 74.4799L156.603 69.714L143.679 116.279L128.86 60L111.608 64.5381L123.373 109.244C106.631 103.868 87.6932 113.135 72.4373 134.268C72.0272 134.842 71.6078 135.37 71.1977 135.899C70.3593 136.983 69.4113 138.204 68.4727 139.681L83.5282 149.249C84.0114 148.483 84.604 147.727 85.2875 146.843C85.8249 146.16 86.3628 145.458 86.9007 144.711C89.7441 140.765 104.645 121.346 118.461 126.412C125.059 128.828 132.196 137.156 133.061 148.41C133.672 156.356 130.555 166.18 123.41 169.579C118.297 172.012 112.401 172.768 106.796 171.693C101.592 170.699 96.8615 168.148 93.4713 164.503C90.4823 161.296 88.1581 157.131 85.6882 152.73C85.0413 151.573 84.3943 150.415 83.7291 149.267L68.2812 158.188C68.9011 159.263 69.5115 160.348 70.1224 161.441C72.993 166.571 75.9642 171.884 80.4115 176.659C86.3722 183.056 94.556 187.521 103.46 189.216C106.212 189.745 109.01 190 111.808 190C118.461 190 125.096 188.533 131.084 185.681C144.161 179.457 151.861 164.485 160.203 153.349C170.455 139.653 180.96 126.139 191.718 112.835C187.196 108.925 182.468 105.344 177.772 101.654V101.645Z" fill="#3DCD3A"/>
</svg>
