<svg width="250" height="250" viewBox="0 0 250 250" fill="none" xmlns="http://www.w3.org/2000/svg">
<mask id="path-1-inside-1_769_370" fill="white">
<path d="M0 48C0 21.4903 21.4903 0 48 0H202C228.51 0 250 21.4903 250 48V202C250 228.51 228.51 250 202 250H48C21.4903 250 0 228.51 0 202V48Z"/>
</mask>
<path d="M0 48C0 21.4903 21.4903 0 48 0H202C228.51 0 250 21.4903 250 48V202C250 228.51 228.51 250 202 250H48C21.4903 250 0 228.51 0 202V48Z" fill="white"/>
<path d="M48 0V2H202V0V-2H48V0ZM250 48H248V202H250H252V48H250ZM202 250V248H48V250V252H202V250ZM0 202H2V48H0H-2V202H0ZM48 250V248C22.5949 248 2 227.405 2 202H0H-2C-2 229.614 20.3858 252 48 252V250ZM250 202H248C248 227.405 227.405 248 202 248V250V252C229.614 252 252 229.614 252 202H250ZM202 0V2C227.405 2 248 22.5949 248 48H250H252C252 20.3858 229.614 -2 202 -2V0ZM48 0V-2C20.3858 -2 -2 20.3858 -2 48H0H2C2 22.5949 22.5949 2 48 2V0Z" fill="#DDDBDB" mask="url(#path-1-inside-1_769_370)"/>
<path d="M112.023 144.985V143.295C112.056 137.495 112.57 132.871 113.564 129.424C114.591 125.977 116.083 123.193 118.038 121.072C119.994 118.951 122.347 117.029 125.098 115.305C127.153 113.979 128.992 112.604 130.616 111.179C132.241 109.753 133.533 108.179 134.494 106.456C135.455 104.699 135.936 102.743 135.936 100.589C135.936 98.3022 135.389 96.297 134.295 94.5735C133.202 92.85 131.727 91.5242 129.871 90.5962C128.048 89.6682 126.026 89.2042 123.805 89.2042C121.651 89.2042 119.613 89.6848 117.69 90.6459C115.768 91.574 114.194 92.966 112.967 94.8221C111.741 96.645 111.078 98.9153 110.979 101.633H90.6946C90.8603 95.0044 92.4512 89.5356 95.4673 85.2269C98.4834 80.885 102.477 77.6535 107.449 75.5323C112.42 73.3779 117.906 72.3008 123.905 72.3008C130.5 72.3008 136.334 73.3945 141.405 75.582C146.476 77.7364 150.453 80.8685 153.337 84.9783C156.22 89.0882 157.662 94.0432 157.662 99.8434C157.662 103.721 157.016 107.168 155.723 110.184C154.464 113.167 152.69 115.819 150.403 118.139C148.116 120.426 145.415 122.497 142.3 124.353C139.681 125.911 137.527 127.535 135.837 129.225C134.179 130.916 132.937 132.871 132.108 135.092C131.313 137.313 130.898 140.047 130.865 143.295V144.985H112.023ZM121.866 176.804C118.552 176.804 115.718 175.644 113.365 173.323C111.045 170.97 109.902 168.153 109.935 164.872C109.902 161.624 111.045 158.84 113.365 156.52C115.718 154.199 118.552 153.039 121.866 153.039C125.015 153.039 127.783 154.199 130.169 156.52C132.555 158.84 133.765 161.624 133.798 164.872C133.765 167.059 133.185 169.064 132.058 170.887C130.964 172.677 129.523 174.119 127.733 175.213C125.943 176.273 123.988 176.804 121.866 176.804Z" fill="#FF0000"/>
</svg>
