<svg width="250" height="250" viewBox="0 0 250 250" fill="none" xmlns="http://www.w3.org/2000/svg">
<mask id="path-1-inside-1_769_372" fill="white">
<path d="M0 48C0 21.4903 21.4903 0 48 0H202C228.51 0 250 21.4903 250 48V202C250 228.51 228.51 250 202 250H48C21.4903 250 0 228.51 0 202V48Z"/>
</mask>
<path d="M0 48C0 21.4903 21.4903 0 48 0H202C228.51 0 250 21.4903 250 48V202C250 228.51 228.51 250 202 250H48C21.4903 250 0 228.51 0 202V48Z" fill="white"/>
<path d="M48 0V2H202V0V-2H48V0ZM250 48H248V202H250H252V48H250ZM202 250V248H48V250V252H202V250ZM0 202H2V48H0H-2V202H0ZM48 250V248C22.5949 248 2 227.405 2 202H0H-2C-2 229.614 20.3858 252 48 252V250ZM250 202H248C248 227.405 227.405 248 202 248V250V252C229.614 252 252 229.614 252 202H250ZM202 0V2C227.405 2 248 22.5949 248 48H250H252C252 20.3858 229.614 -2 202 -2V0ZM48 0V-2C20.3858 -2 -2 20.3858 -2 48H0H2C2 22.5949 22.5949 2 48 2V0Z" fill="#DDDBDB" mask="url(#path-1-inside-1_769_372)"/>
<path d="M167.551 152.832C165.453 152.723 163.375 152.372 161.357 151.786C158.382 150.937 155.593 149.537 153.135 147.659C150.745 145.821 148.751 143.521 147.27 140.896C146.202 139.019 145.39 137.008 144.855 134.916C144.545 133.682 144.321 132.427 144.185 131.162C144.077 130.18 144.037 129.195 144.023 128.213C144.014 127.412 144.048 126.609 144.11 125.809C144.192 124.735 144.332 123.665 144.529 122.605C144.848 120.902 145.36 119.24 146.052 117.652C146.766 115.996 147.673 114.432 148.756 112.99C150.638 110.504 153.026 108.444 155.761 106.947C158.633 105.367 161.774 104.334 165.023 103.9C166.127 103.745 167.235 103.678 168.345 103.614C169.388 103.566 170.432 103.578 171.473 103.651C175 103.833 178.46 104.681 181.67 106.151C183.631 107.054 185.459 108.221 187.102 109.621C188.732 111.021 190.14 112.658 191.282 114.478C192.239 115.993 193.02 117.612 193.608 119.304C194.153 120.9 194.534 122.547 194.746 124.22C194.917 125.495 194.954 126.775 194.998 127.807C195.029 130.716 194.602 133.611 193.733 136.386C192.819 139.223 191.379 141.863 189.489 144.166C186.905 147.266 183.56 149.639 179.78 151.052C177.679 151.862 175.485 152.402 173.248 152.659C172.259 152.777 171.263 152.827 170.268 152.877C169.988 152.891 169.707 152.898 169.427 152.897C168.8 152.899 168.175 152.868 167.551 152.832ZM166.748 114.086C164.778 114.466 162.926 115.309 161.347 116.546C159.883 117.664 158.689 119.097 157.853 120.739C156.869 122.692 156.308 124.831 156.208 127.015C156.081 128.954 156.287 130.9 156.814 132.77C157.483 135.268 158.845 137.525 160.745 139.279C161.939 140.361 163.333 141.199 164.849 141.746C166.957 142.488 169.214 142.709 171.427 142.39C173.986 142.068 176.382 140.962 178.287 139.223C180.046 137.624 181.343 135.581 182.04 133.309C182.592 131.578 182.855 129.769 182.821 127.952C182.837 127.333 182.805 126.714 182.726 126.1C182.552 124.524 182.138 122.984 181.498 121.533C180.349 118.836 178.291 116.627 175.683 115.289C174.139 114.493 172.45 114.016 170.718 113.888C170.289 113.852 169.862 113.835 169.434 113.835C168.533 113.835 167.634 113.919 166.748 114.086ZM78.5681 152.835C76.5288 152.729 74.5077 152.396 72.5421 151.843C70.0511 151.148 67.6819 150.075 65.5175 148.66C63.8012 147.53 62.2466 146.172 60.8963 144.623C59.5825 143.116 58.4711 141.443 57.5905 139.648C56.4692 137.383 55.7099 134.957 55.3392 132.457C55.1851 131.449 55.0859 130.433 55.0431 129.414C55.0125 128.751 54.9876 128.083 55.0067 127.419C55.0363 124.328 55.6192 121.268 56.7283 118.383C57.6934 115.909 59.0894 113.624 60.8506 111.636C63.0132 109.232 65.6596 107.313 68.616 106.004C71.0488 104.915 73.6294 104.192 76.2739 103.858C77.262 103.724 78.2569 103.644 79.2538 103.619C79.7818 103.61 80.3053 103.566 80.8353 103.579C83.8914 103.608 86.9258 104.099 89.8356 105.034C92.702 105.961 95.372 107.411 97.7093 109.311C99.5044 110.784 101.048 112.538 102.28 114.506C103.861 117.016 104.951 119.805 105.49 122.722C105.679 123.76 105.812 124.807 105.887 125.86C105.947 126.593 105.933 127.324 105.946 127.709C106.002 130.144 105.728 132.575 105.13 134.936C104.358 137.993 102.984 140.865 101.088 143.384C99.207 145.887 96.8218 147.966 94.0858 149.488C91.1951 151.106 88.0231 152.16 84.739 152.595C83.6256 152.75 82.5095 152.824 81.3827 152.874C81.0813 152.887 80.7788 152.893 80.4775 152.893C79.8414 152.892 79.2042 152.868 78.5681 152.835ZM79.2202 113.891C78.2698 113.959 77.3295 114.135 76.4187 114.415C74.1811 115.106 72.1747 116.394 70.6141 118.14C69.7716 119.081 69.0787 120.145 68.5608 121.297C67.6016 123.446 67.1299 125.781 67.1783 128.134C67.1558 129.726 67.3702 131.311 67.8145 132.84C68.5025 135.356 69.8977 137.622 71.8359 139.368C73.2494 140.622 74.9329 141.533 76.755 142.032C78.5877 142.526 80.5009 142.647 82.3812 142.388C85.091 142.051 87.617 140.838 89.574 138.934C91.1416 137.419 92.3077 135.538 92.9677 133.46C93.6742 131.307 93.9451 129.035 93.7645 126.776C93.6652 125.311 93.3612 123.867 92.8621 122.485C92.1268 120.372 90.8612 118.484 89.1863 117.002C87.7397 115.734 86.0222 114.815 84.1654 114.313C82.981 113.99 81.7584 113.829 80.5307 113.835C80.0945 113.835 79.6583 113.855 79.2202 113.891ZM135.929 151.21C134.17 148.946 132.397 146.69 130.629 144.436C127.906 140.963 125.182 137.49 122.456 134.016C121.845 133.24 121.24 132.463 120.633 131.686C120.542 131.547 120.429 131.421 120.3 131.316C120.254 131.463 120.24 131.62 120.26 131.773C120.256 138.171 120.256 144.569 120.26 150.967C120.26 151.687 120.282 151.622 119.609 151.622H109.697C109.163 151.622 109.164 151.622 109.164 151.095C109.164 135.864 109.164 120.635 109.164 105.407C109.164 104.865 109.164 104.865 109.718 104.865H119.733C120.26 104.865 120.26 104.865 120.26 105.402C120.26 112.672 120.26 119.942 120.26 127.212C120.26 127.763 120.176 127.717 120.738 128.039C122.283 128.907 123.998 129.433 125.764 129.58C127.364 129.746 128.981 129.655 130.552 129.311C130.665 129.276 130.787 129.278 130.899 129.316C131.011 129.355 131.107 129.428 131.174 129.525C132.183 130.759 133.204 131.985 134.221 133.21C135.53 134.792 136.84 136.371 138.152 137.946C139.3 139.333 140.449 140.719 141.596 142.105C142.899 143.675 144.203 145.245 145.508 146.816C146.744 148.305 147.981 149.796 149.22 151.289C149.243 151.314 149.265 151.341 149.285 151.369C149.322 151.425 149.38 151.477 149.355 151.552C149.33 151.627 149.269 151.617 149.21 151.614C149.199 151.612 149.187 151.612 149.176 151.614C149.086 151.619 148.994 151.614 148.903 151.614C144.865 151.614 140.824 151.607 136.789 151.623H136.775C136.611 151.633 136.446 151.6 136.298 151.528C136.15 151.455 136.023 151.346 135.929 151.21Z" fill="#00846A"/>
<path d="M127.348 127.807C125.787 127.787 124.24 127.5 122.777 126.957C122.734 126.94 122.69 126.925 122.65 126.906C122.392 126.791 122.38 126.773 122.501 126.524C122.714 126.105 122.954 125.7 123.22 125.314C124.465 123.47 126.161 121.976 128.146 120.972C129.499 120.288 130.96 119.846 132.465 119.664C134.337 119.437 136.236 119.615 138.033 120.185C138.284 120.263 138.531 120.356 138.776 120.451C139.042 120.553 139.063 120.607 138.937 120.859C138.714 121.285 138.465 121.696 138.191 122.092C136.565 124.484 134.189 126.267 131.438 127.157C130.469 127.48 129.464 127.678 128.446 127.749C128.107 127.771 127.772 127.806 127.43 127.806L127.348 127.807ZM123.574 122.047C123.381 121.618 123.213 121.178 123.072 120.729C122.56 119.167 122.353 117.522 122.464 115.883C122.594 113.791 123.23 111.762 124.318 109.97C125.415 108.157 126.935 106.635 128.748 105.535C128.784 105.51 128.825 105.485 128.865 105.463C129.113 105.336 129.16 105.35 129.277 105.616C129.745 106.676 130.069 107.795 130.239 108.941C130.345 109.587 130.394 110.241 130.385 110.895C130.391 114.01 129.277 117.024 127.246 119.386C126.343 120.458 125.265 121.368 124.058 122.081C124.008 122.109 123.962 122.141 123.909 122.165C123.855 122.2 123.794 122.223 123.73 122.233C123.669 122.233 123.634 122.176 123.574 122.047Z" fill="#66B464"/>
<path d="M151.102 97.8906C151.04 98.8776 150.867 99.8543 150.585 100.802C150.047 102.625 149.115 104.306 147.855 105.729C146.577 107.181 144.989 108.329 143.208 109.086C141.939 109.624 140.595 109.965 139.222 110.098C138.895 110.132 138.833 110.084 138.832 109.756C138.842 109.056 138.923 108.359 139.074 107.675C139.519 105.41 140.57 103.308 142.114 101.592C144.116 99.3233 146.851 97.8303 149.841 97.3731C150.123 97.3266 150.407 97.2877 150.692 97.2564C151.036 97.2182 151.096 97.2756 151.1 97.6209C151.1 97.6898 151.1 97.7586 151.1 97.8897" fill="#C7D340"/>
<path d="M130.954 117.862C130.436 117.68 130.443 117.652 130.712 117.166C131.398 115.943 132.29 114.847 133.348 113.927C134.421 112.986 135.656 112.249 136.993 111.75C137.959 111.381 138.967 111.136 139.994 111.022C141.918 110.821 143.863 111.074 145.671 111.762C145.944 111.864 145.957 111.917 145.813 112.199C145.41 112.949 144.929 113.655 144.378 114.303C143.297 115.588 141.958 116.631 140.447 117.365C139.158 118 137.765 118.396 136.334 118.534C135.934 118.574 135.533 118.587 134.972 118.596H134.886C133.543 118.573 132.215 118.325 130.954 117.862ZM132.504 112.705C131.977 111.482 131.646 110.184 131.522 108.858C131.322 106.701 131.701 104.531 132.622 102.57C133.127 101.49 133.785 100.488 134.576 99.5956C135.38 98.6974 136.309 97.9191 137.334 97.2846C137.353 97.2714 137.372 97.26 137.393 97.251C137.759 97.031 137.769 97.0327 137.933 97.4182C138.567 98.8642 138.905 100.423 138.925 102.002C138.981 104.491 138.281 106.939 136.92 109.024C135.902 110.586 134.536 111.891 132.929 112.838C132.858 112.891 132.776 112.928 132.69 112.945C132.617 112.945 132.579 112.873 132.506 112.705H132.504Z" fill="#ADCB64"/>
</svg>
