<svg width="250" height="250" viewBox="0 0 250 250" fill="none" xmlns="http://www.w3.org/2000/svg">
<mask id="path-1-inside-1_769_373" fill="white">
<path d="M0 48C0 21.4903 21.4903 0 48 0H202C228.51 0 250 21.4903 250 48V202C250 228.51 228.51 250 202 250H48C21.4903 250 0 228.51 0 202V48Z"/>
</mask>
<path d="M0 48C0 21.4903 21.4903 0 48 0H202C228.51 0 250 21.4903 250 48V202C250 228.51 228.51 250 202 250H48C21.4903 250 0 228.51 0 202V48Z" fill="white"/>
<path d="M48 0V2H202V0V-2H48V0ZM250 48H248V202H250H252V48H250ZM202 250V248H48V250V252H202V250ZM0 202H2V48H0H-2V202H0ZM48 250V248C22.5949 248 2 227.405 2 202H0H-2C-2 229.614 20.3858 252 48 252V250ZM250 202H248C248 227.405 227.405 248 202 248V250V252C229.614 252 252 229.614 252 202H250ZM202 0V2C227.405 2 248 22.5949 248 48H250H252C252 20.3858 229.614 -2 202 -2V0ZM48 0V-2C20.3858 -2 -2 20.3858 -2 48H0H2C2 22.5949 22.5949 2 48 2V0Z" fill="#DDDBDB" mask="url(#path-1-inside-1_769_373)"/>
<path d="M85.0543 113.012C76.3747 109.472 70.1175 107.903 57.0214 105.682C60.9614 92.1425 80.8279 55.0317 123.807 55.0317C160.933 55.0256 183.214 78.8377 191.065 101.195C178.138 104.853 172.787 106.68 164.053 109.844C161.189 101.218 150.099 82.0685 125.688 82.0685C98.6725 82.0685 87.2582 102.597 85.0543 113.012Z" fill="#499547"/>
<path d="M78.1901 177.307C53.9036 155.008 53.9028 129.53 55.672 111.854C80.636 113.773 101.797 125.794 113.55 136.056C91.886 154.109 80.797 172.823 78.1901 177.307Z" fill="#499547"/>
<path d="M98.4285 190.004C95.458 189.089 87.7005 184.631 84.5389 182.332C90.4286 172.561 107.77 148.929 130.568 133.322C156.595 115.503 181.726 109.772 192.987 107.657C193.579 108.347 195.453 117.635 194.899 120.567C176.373 123.861 163.474 128.938 140.42 144.582C117.366 160.226 102.82 181.359 98.4285 190.004Z" fill="#ABCF38"/>
<path d="M143.107 155.523C121.442 172.301 113.104 185.09 108.364 193.621C111.856 194.07 119.888 194.968 124.079 194.968C135.004 178.056 144.283 169.825 157.155 159.947C170.924 150.009 186.439 145.928 192.475 145.13C193.373 141.738 195.195 134.298 194.836 130.826C172.513 135.287 153.104 147.781 143.107 155.523Z" fill="#ABCF38"/>
<path d="M131.861 194.968C137.399 184.392 156.736 160.935 189.781 151.716C186.189 162.042 170.774 190.029 131.861 194.968Z" fill="#ABCF38"/>
</svg>
