<svg width="250" height="250" viewBox="0 0 250 250" fill="none" xmlns="http://www.w3.org/2000/svg">
<mask id="path-1-inside-1_769_385" fill="white">
<path d="M0 48C0 21.4903 21.4903 0 48 0H202C228.51 0 250 21.4903 250 48V202C250 228.51 228.51 250 202 250H48C21.4903 250 0 228.51 0 202V48Z"/>
</mask>
<path d="M0 48C0 21.4903 21.4903 0 48 0H202C228.51 0 250 21.4903 250 48V202C250 228.51 228.51 250 202 250H48C21.4903 250 0 228.51 0 202V48Z" fill="white"/>
<path d="M48 0V2H202V0V-2H48V0ZM250 48H248V202H250H252V48H250ZM202 250V248H48V250V252H202V250ZM0 202H2V48H0H-2V202H0ZM48 250V248C22.5949 248 2 227.405 2 202H0H-2C-2 229.614 20.3858 252 48 252V250ZM250 202H248C248 227.405 227.405 248 202 248V250V252C229.614 252 252 229.614 252 202H250ZM202 0V2C227.405 2 248 22.5949 248 48H250H252C252 20.3858 229.614 -2 202 -2V0ZM48 0V-2C20.3858 -2 -2 20.3858 -2 48H0H2C2 22.5949 22.5949 2 48 2V0Z" fill="#DDDBDB" mask="url(#path-1-inside-1_769_385)"/>
<path d="M60.3763 88.4263C63.3195 89.495 70.8629 95.1378 73.6824 97.1698C76.0855 98.9351 78.5589 100.629 81.0984 102.248C80.9492 105.272 79.0186 109.645 78.1134 112.647C77.3486 115.183 77.2589 116.571 76.8974 119.109C75.8801 126.25 76.5481 133.621 78.8426 140.566C82.7252 152.318 91.6494 162.78 104.159 168.807C114.191 173.64 125.623 175.152 136.742 172.473C149.538 169.391 159.5 160.981 165.818 151.231C172.839 140.393 175.176 126.799 172.365 114.665C171.743 111.98 170.745 109.533 169.828 106.92C169.348 105.554 169.068 104.194 168.613 102.821C170.527 101.092 175.294 97.7803 177.549 96.2321C180.68 94.0836 186.137 90.2778 189.53 88.7133C194.625 94.3317 197.548 108.213 198.701 115.478C201.183 134.082 196.388 152.865 185.07 168.885C175.043 182.995 159.519 194.022 140.566 197.941C123.38 201.523 105.234 199.03 90.2169 191.023C71.3107 181.105 58.4989 163.532 53.4215 145.29C51.8232 139.65 50.9094 133.884 50.6949 128.083C50.2992 116.587 53.3187 98.2831 60.3763 88.4263Z" fill="#F5A333"/>
<path d="M122.476 50.544C128.707 50.19 136.378 50.9907 142.343 52.3734C154.605 55.2151 164.841 60.6853 173.559 68.5405C176.927 71.5754 179.154 73.2713 181.678 77.0727C176.685 80.2874 171.704 84.1901 166.765 87.509C164.973 88.7129 162.535 90.6461 160.7 91.6633C158.49 90.3049 157.395 88.7611 155.532 87.221C150.941 83.4233 145.182 79.8589 138.964 78.4438L138.977 101.906C137.035 102.644 134.532 103.83 132.609 104.681C128.978 106.25 125.382 107.876 121.821 109.557C118.61 111.137 114.135 112.958 110.738 114.467L110.997 78.4498C104.893 79.96 98.6115 83.5051 94.1593 87.3666C92.1738 89.0886 91.6523 90.3639 89.1072 91.7976C88.5257 91.2527 86.9274 90.1753 86.2194 89.6785L80.9648 85.9925L73.2323 80.533C71.671 79.43 69.9509 78.154 68.3169 77.1545C69.9205 73.7243 74.609 70.0084 77.5935 67.436C87.7918 58.6461 101.212 52.8876 115.509 51.0485C117.783 50.7559 120.175 50.6616 122.476 50.544Z" fill="#273A65"/>
<path d="M138.644 121.315L138.776 121.307C139.125 121.613 138.975 125.052 138.975 125.721L138.987 134.118L138.995 156.309C131.448 159.647 121.326 160.598 113.457 157.574C112.813 157.313 112.044 156.858 111.431 156.518C110.944 154.669 110.892 150.544 110.834 148.522C110.708 143.645 110.636 138.765 110.615 133.887C113.734 132.579 117.001 131.002 120.098 129.612L138.644 121.315Z" fill="#273A65"/>
<path d="M138.774 106.807C138.829 106.866 138.885 106.924 138.938 106.983C139.015 109.652 138.953 113.778 139.006 116.311C137.541 116.856 135.455 117.874 133.978 118.508C130.238 120.167 126.46 121.767 122.796 123.546C118.861 125.456 114.71 127.01 110.683 128.722C110.596 128.117 110.657 126.209 110.666 125.545C110.71 123.587 110.715 121.63 110.682 119.673C115.803 117.392 120.638 115.091 125.679 112.771L138.774 106.807Z" fill="#273A65"/>
</svg>
