<svg width="250" height="250" viewBox="0 0 250 250" fill="none" xmlns="http://www.w3.org/2000/svg">
<mask id="path-1-inside-1_769_387" fill="white">
<path d="M0 48C0 21.4903 21.4903 0 48 0H202C228.51 0 250 21.4903 250 48V202C250 228.51 228.51 250 202 250H48C21.4903 250 0 228.51 0 202V48Z"/>
</mask>
<path d="M0 48C0 21.4903 21.4903 0 48 0H202C228.51 0 250 21.4903 250 48V202C250 228.51 228.51 250 202 250H48C21.4903 250 0 228.51 0 202V48Z" fill="white"/>
<path d="M48 0V2H202V0V-2H48V0ZM250 48H248V202H250H252V48H250ZM202 250V248H48V250V252H202V250ZM0 202H2V48H0H-2V202H0ZM48 250V248C22.5949 248 2 227.405 2 202H0H-2C-2 229.614 20.3858 252 48 252V250ZM250 202H248C248 227.405 227.405 248 202 248V250V252C229.614 252 252 229.614 252 202H250ZM202 0V2C227.405 2 248 22.5949 248 48H250H252C252 20.3858 229.614 -2 202 -2V0ZM48 0V-2C20.3858 -2 -2 20.3858 -2 48H0H2C2 22.5949 22.5949 2 48 2V0Z" fill="#DDDBDB" mask="url(#path-1-inside-1_769_387)"/>
<path d="M131.915 56.9822C133.159 57.1899 134.398 57.4516 135.649 57.5964C161.854 60.6168 188.19 81.0619 193.929 113.051C200.274 148.413 177.81 182.922 142.798 191.052C121.378 196.027 101.763 191.544 84.3945 177.862C83.9425 177.506 83.522 177.108 82.8886 176.559C89.3343 169.729 95.7852 163.01 102.329 156.131C112.826 163.781 124.306 166.531 136.967 163.304C145.864 161.038 153.009 156.124 158.534 148.825C169.616 134.184 168.989 113.423 157.22 99.4444C145.735 85.8045 122.976 79.2908 102.89 93.2884C96.1918 86.9195 89.4721 80.5314 82.6443 74.0386C83.3074 73.4087 83.8291 72.8818 84.384 72.3915C91.8993 65.7364 100.676 61.4998 110.362 59.1459C113.904 58.2839 117.565 57.9035 121.17 57.2946C121.617 57.2195 122.053 57.0869 122.494 56.9805C125.635 56.9805 128.774 56.9805 131.915 56.9805V56.9822Z" fill="#3BC4C0"/>
<path d="M54.9998 104.329C62.0474 97.206 68.9485 90.2316 75.9421 83.163C89.9746 97.0786 103.915 110.905 118.012 124.885C104.189 138.955 90.4091 152.978 76.7081 166.924C69.6116 159.846 62.6355 152.889 55.5686 145.84C62.3981 138.988 69.2783 132.081 76.3103 125.025C69.2155 118.134 62.1888 111.31 54.9998 104.327V104.329Z" fill="#EFC029"/>
</svg>
