<svg width="250" height="250" viewBox="0 0 250 250" fill="none" xmlns="http://www.w3.org/2000/svg">
<mask id="path-1-inside-1_769_389" fill="white">
<path d="M0 48C0 21.4903 21.4903 0 48 0H202C228.51 0 250 21.4903 250 48V202C250 228.51 228.51 250 202 250H48C21.4903 250 0 228.51 0 202V48Z"/>
</mask>
<path d="M0 48C0 21.4903 21.4903 0 48 0H202C228.51 0 250 21.4903 250 48V202C250 228.51 228.51 250 202 250H48C21.4903 250 0 228.51 0 202V48Z" fill="white"/>
<path d="M48 0V2H202V0V-2H48V0ZM250 48H248V202H250H252V48H250ZM202 250V248H48V250V252H202V250ZM0 202H2V48H0H-2V202H0ZM48 250V248C22.5949 248 2 227.405 2 202H0H-2C-2 229.614 20.3858 252 48 252V250ZM250 202H248C248 227.405 227.405 248 202 248V250V252C229.614 252 252 229.614 252 202H250ZM202 0V2C227.405 2 248 22.5949 248 48H250H252C252 20.3858 229.614 -2 202 -2V0ZM48 0V-2C20.3858 -2 -2 20.3858 -2 48H0H2C2 22.5949 22.5949 2 48 2V0Z" fill="#DDDBDB" mask="url(#path-1-inside-1_769_389)"/>
<path d="M146.17 149.305C151.6 144.007 171.647 141.942 170.435 129.054C170.096 125.429 148.837 74.0266 144.994 70.1213C137.577 62.5789 127.441 68.5185 119.065 72.0661C108.952 76.3493 98.8452 80.6704 88.7141 84.9133C82.5711 87.4885 67.8104 94.5414 73.1934 103.537C75.7083 107.739 100.801 109.087 108.527 110.187C118.303 111.582 124.537 113.178 130.879 118.344C130.662 118.481 130.428 118.622 130.179 118.767C118.11 125.149 101.624 131.925 91.2603 139.443C90.9854 146.428 92.1769 147.475 95.8609 153.025C98.4719 156.957 100.786 160.673 103.528 164.5C111.708 175.909 118.486 193.773 128.655 196.983C134.257 198.751 140.004 197.584 143.19 193.623C145.262 191.046 146.599 163.655 146.172 149.308L146.17 149.305Z" fill="black"/>
</svg>
