<svg width="250" height="250" viewBox="0 0 250 250" fill="none" xmlns="http://www.w3.org/2000/svg">
<path d="M0 48C0 21.4903 21.4903 0 48 0H202C228.51 0 250 21.4903 250 48V202C250 228.51 228.51 250 202 250H48C21.4903 250 0 228.51 0 202V48Z" fill="#780001"/>
<path fill-rule="evenodd" clip-rule="evenodd" d="M156.244 62.2858C168.081 62.2823 175.914 62.1799 185.013 71.1484C192.028 78.0641 193.957 84.5965 193.992 94.3174L194 104.809C194.023 115.58 192.973 121.717 185.121 129.538C175.322 139.298 166.732 138.682 154.055 138.751L135.913 138.827C135.805 146.042 135.88 153.411 135.882 160.637C135.954 167.68 134.606 173.409 130.188 179.055C124.879 185.842 118.298 190.266 109.618 191.377C106.002 191.84 102.526 191.547 99.0532 191.657C88.9711 191.975 83.3409 191.531 75.0899 185.011C68.8982 180.119 65.0823 173.021 64.2977 165.149C63.8655 160.814 64.031 155.631 64.0318 151.159V103.291C64.0295 97.9179 63.8264 92.6013 64.543 87.2626C66.3455 73.835 78.0249 63.9002 91.2723 62.453C92.0373 62.3174 95.1732 62.2715 95.9885 62.2686L156.244 62.2858ZM181.955 100.138C182.209 84.8531 170.675 72.8555 155.208 73.9605C154.323 74.0238 153.053 73.9619 152.137 73.963L140.537 73.9778L101.098 73.9728C100.46 73.977 98.6988 73.9857 98.1263 74.0741C87.0945 75.2971 78.8783 83.0745 76.6128 94.0458C75.7236 98.3513 76.0478 103.774 76.053 108.244L76.0728 127.19L76.0571 146.322C76.0544 150.043 75.877 153.879 76.2432 157.58C78.3888 179.27 104.561 188.022 118.522 170.795C123.587 164.546 123.339 157.288 123.421 149.763L123.593 138.99C117.759 139.051 112.533 139.567 106.949 137.511C96.6434 133.716 91.3262 123.873 93.5732 113.179C94.1787 110.68 94.75 108.616 96.1655 106.433C104.864 93.0201 124.52 93.307 133.008 106.857C136.631 112.641 135.907 120.481 135.892 127.084L150.689 126.975C160.5 126.875 167.438 127.173 174.881 119.638C180.353 114.098 181.993 107.771 181.955 100.138ZM123.79 127.172C123.851 118.925 125.138 107.471 112.848 108.274C107.707 109.425 104.131 114.903 105.405 120.064C106.013 122.517 107.591 124.619 109.776 125.887C111.922 127.142 113.713 127.219 116.101 127.238C118.646 127.217 121.251 127.225 123.79 127.172Z" fill="#FEFEFE"/>
</svg>
