<svg width="250" height="250" viewBox="0 0 250 250" fill="none" xmlns="http://www.w3.org/2000/svg">
<path d="M0 48C0 21.4903 21.4903 0 48 0H202C228.51 0 250 21.4903 250 48V202C250 228.51 228.51 250 202 250H48C21.4903 250 0 228.51 0 202V48Z" fill="#FCBE16"/>
<path d="M69.4735 65C72.4814 65.2944 79.3333 65.1047 82.5155 65.1022L185 65.0531L184.987 180.922C183.337 179.377 181.617 177.625 180.037 176.005C169.88 165.587 159.121 155.547 149.099 145.019L149.079 101.507C134.727 101.307 119.918 101.497 105.529 101.496C104.521 100.511 101.526 97.598 100.794 96.7674C97.258 92.7559 69.6462 66.4077 69.4735 65Z" fill="black"/>
<path d="M65.0092 69.9842C65.5188 70.3387 68.342 73.1819 68.854 73.6963L76.8012 81.6933L92.4847 97.3418C95.1793 100.028 98.7812 103.426 101.262 106.222L101.264 149.241L144.405 149.242L180.145 184.99L64.9985 185L65.0092 69.9842Z" fill="black"/>
</svg>
