<svg width="250" height="250" viewBox="0 0 250 250" fill="none" xmlns="http://www.w3.org/2000/svg">
<mask id="path-1-inside-1_769_396" fill="white">
<path d="M0 48C0 21.4903 21.4903 0 48 0H202C228.51 0 250 21.4903 250 48V202C250 228.51 228.51 250 202 250H48C21.4903 250 0 228.51 0 202V48Z"/>
</mask>
<path d="M0 48C0 21.4903 21.4903 0 48 0H202C228.51 0 250 21.4903 250 48V202C250 228.51 228.51 250 202 250H48C21.4903 250 0 228.51 0 202V48Z" fill="white"/>
<path d="M48 0V2H202V0V-2H48V0ZM250 48H248V202H250H252V48H250ZM202 250V248H48V250V252H202V250ZM0 202H2V48H0H-2V202H0ZM48 250V248C22.5949 248 2 227.405 2 202H0H-2C-2 229.614 20.3858 252 48 252V250ZM250 202H248C248 227.405 227.405 248 202 248V250V252C229.614 252 252 229.614 252 202H250ZM202 0V2C227.405 2 248 22.5949 248 48H250H252C252 20.3858 229.614 -2 202 -2V0ZM48 0V-2C20.3858 -2 -2 20.3858 -2 48H0H2C2 22.5949 22.5949 2 48 2V0Z" fill="#DDDBDB" mask="url(#path-1-inside-1_769_396)"/>
<path d="M139.282 128.415C134.578 132.519 127.827 133.779 122.084 131.631C121.62 131.456 121.253 131.265 120.984 131.097C121.716 130.029 124.021 128.027 128.807 125.964C133.689 123.85 138.28 123.375 142.56 124.538C141.619 126.033 140.521 127.333 139.282 128.415ZM171.872 130.371C171.258 129.121 170.267 128.105 169.274 127.134C165.967 123.906 162.442 120.91 158.732 118.17C160.816 102.177 156.565 85.427 147.124 72.4377C142.062 65.4736 135.109 59.4596 126.939 56.6648C123.352 55.4383 118.468 54.2817 114.792 55.5518C110.736 56.9541 106.781 58.9553 103.278 61.4708C98.7902 64.6919 94.9064 68.7529 91.732 73.2941C86.0486 81.4241 82.578 90.9651 80.3856 100.677C75.6206 121.788 76.784 144.419 84.8623 164.467C88.8226 174.289 94.6545 183.716 103.372 189.594C112.088 195.473 124.087 197.129 133.074 191.683C134.477 190.834 135.821 189.792 136.661 188.369C139 184.396 135.488 178.421 130.927 178.613C128.674 178.707 126.66 179.985 124.523 180.712C119.333 182.477 113.438 180.862 109.037 177.563C104.637 174.262 101.542 169.476 99.0967 164.513C92.6911 151.506 90.2025 136.737 90.5957 122.205C90.9465 109.304 93.5802 96.297 99.683 84.9681C102.041 80.5937 104.965 76.4259 108.907 73.442C112.847 70.4601 117.924 68.7642 122.759 69.6831C127.964 70.6685 132.23 74.471 135.533 78.6643C142.855 87.9595 146.755 99.9591 146.318 111.845C135.99 109.49 124.711 111.816 116.111 118.073C111.314 121.564 107.083 127.024 107.837 132.962C108.663 139.466 115.164 143.782 121.5 145.123C133.768 147.718 147.341 141.814 153.932 131.014C158.213 133.564 160.914 139.246 165.872 139.551C170.208 139.818 173.788 134.438 171.916 130.465C171.903 130.434 171.887 130.404 171.872 130.371Z" fill="#1C9FF3"/>
</svg>
