<svg width="250" height="250" viewBox="0 0 250 250" fill="none" xmlns="http://www.w3.org/2000/svg">
<mask id="path-1-inside-1_769_399" fill="white">
<path d="M0 48C0 21.4903 21.4903 0 48 0H202C228.51 0 250 21.4903 250 48V202C250 228.51 228.51 250 202 250H48C21.4903 250 0 228.51 0 202V48Z"/>
</mask>
<path d="M0 48C0 21.4903 21.4903 0 48 0H202C228.51 0 250 21.4903 250 48V202C250 228.51 228.51 250 202 250H48C21.4903 250 0 228.51 0 202V48Z" fill="white"/>
<path d="M48 0V2H202V0V-2H48V0ZM250 48H248V202H250H252V48H250ZM202 250V248H48V250V252H202V250ZM0 202H2V48H0H-2V202H0ZM48 250V248C22.5949 248 2 227.405 2 202H0H-2C-2 229.614 20.3858 252 48 252V250ZM250 202H248C248 227.405 227.405 248 202 248V250V252C229.614 252 252 229.614 252 202H250ZM202 0V2C227.405 2 248 22.5949 248 48H250H252C252 20.3858 229.614 -2 202 -2V0ZM48 0V-2C20.3858 -2 -2 20.3858 -2 48H0H2C2 22.5949 22.5949 2 48 2V0Z" fill="#DDDBDB" mask="url(#path-1-inside-1_769_399)"/>
<path d="M166.591 77.7583L60.798 98.728L59 134.365L129.992 119.808L120.981 192.865L156.222 188.681L168.525 79.5367C168.648 78.4424 167.672 77.5442 166.591 77.7583Z" fill="#50C2EB"/>
<path d="M187.024 118.048L167.33 122.373L163.318 158.23L187.394 152.937L188.998 119.716C189.05 118.645 188.071 117.818 187.024 118.048Z" fill="#91C83D"/>
<path d="M80.0969 172.367L84.1776 133.785L118.772 126.5L118.423 132.553L124.213 130.582L120.024 166.676L82.0285 174.135C80.9538 174.346 79.9817 173.456 80.0969 172.367Z" fill="#91C83D"/>
<path d="M124.44 81.1425L89.7995 88.1011L92.274 63.5129L124.851 59.15C125.9 59.0096 126.801 59.8911 126.684 60.9424L124.44 81.1425Z" fill="#91C83D"/>
</svg>
