<svg width="250" height="250" viewBox="0 0 250 250" fill="none" xmlns="http://www.w3.org/2000/svg">
<mask id="path-1-inside-1_769_401" fill="white">
<path d="M0 48C0 21.4903 21.4903 0 48 0H202C228.51 0 250 21.4903 250 48V202C250 228.51 228.51 250 202 250H48C21.4903 250 0 228.51 0 202V48Z"/>
</mask>
<path d="M0 48C0 21.4903 21.4903 0 48 0H202C228.51 0 250 21.4903 250 48V202C250 228.51 228.51 250 202 250H48C21.4903 250 0 228.51 0 202V48Z" fill="white"/>
<path d="M48 0V2H202V0V-2H48V0ZM250 48H248V202H250H252V48H250ZM202 250V248H48V250V252H202V250ZM0 202H2V48H0H-2V202H0ZM48 250V248C22.5949 248 2 227.405 2 202H0H-2C-2 229.614 20.3858 252 48 252V250ZM250 202H248C248 227.405 227.405 248 202 248V250V252C229.614 252 252 229.614 252 202H250ZM202 0V2C227.405 2 248 22.5949 248 48H250H252C252 20.3858 229.614 -2 202 -2V0ZM48 0V-2C20.3858 -2 -2 20.3858 -2 48H0H2C2 22.5949 22.5949 2 48 2V0Z" fill="#DDDBDB" mask="url(#path-1-inside-1_769_401)"/>
<path fill-rule="evenodd" clip-rule="evenodd" d="M120.912 55.073C103.917 56.1392 88.1923 63.095 76.1165 74.8889C64.1612 86.5649 56.9032 101.822 55.3024 118.642C54.937 122.482 55.0582 130.195 55.5396 133.734C56.6259 141.717 58.6069 148.425 61.9103 155.308C70.137 172.45 85.0202 185.518 103.159 191.526C118.463 196.596 135.525 196.1 150.607 190.147C173.952 180.933 190.514 160.111 194.213 135.326C194.811 131.319 194.928 129.47 194.909 124.34C194.892 119.866 194.846 119.006 194.477 116.378C193.815 111.667 192.979 107.832 191.751 103.878C191.533 103.176 191.303 102.519 191.241 102.418C191.16 102.288 188.743 102.88 182.928 104.456C146.847 114.231 72.6967 133.736 72.4717 133.511C72.4427 133.482 72.3012 132.643 72.1571 131.645C71.7772 129.014 71.7765 121.025 72.1561 118.335C73.0073 112.305 74.5598 107.094 77.0317 101.969C85.336 84.7518 101.943 73.4088 120.992 71.943C125.43 71.6016 130.783 71.9113 135.163 72.7628C143.378 74.3602 151.046 77.871 157.932 83.1881C158.959 83.9815 161.115 85.9565 162.845 87.6885L165.927 90.7751L174.468 88.4826C180.976 86.7361 183.005 86.134 182.993 85.9541C182.941 85.2034 178.506 79.6653 175.379 76.4458C163.342 64.0546 148.723 57.0159 131.338 55.2423C129.132 55.0171 123.309 54.9226 120.912 55.073ZM135.877 129.856C138.774 130.404 141.417 131.847 143.691 134.122C146.746 137.177 148.255 140.777 148.266 145.038C148.276 148.624 147.265 151.579 144.979 154.645C143.59 156.508 143.224 157.464 143.231 159.209C143.234 160.171 143.323 160.77 143.538 161.28C143.704 161.675 145.184 164.623 146.826 167.832C149.555 173.165 149.811 173.736 149.811 174.483C149.811 174.933 149.714 175.533 149.596 175.816C149.284 176.562 148.343 177.317 147.382 177.59C146.457 177.854 128.573 182.051 127.665 182.218C126.767 182.382 125.782 182.033 125.035 181.285C124.277 180.526 124.107 180.056 122.16 173.301C118.309 159.941 116.312 149.093 116.837 144.383C117.01 142.837 117.13 142.379 117.95 140.152C119.377 136.273 121.431 133.744 124.813 131.702C128.082 129.727 131.866 129.096 135.877 129.856Z" fill="#84C240"/>
</svg>
