<svg width="250" height="250" viewBox="0 0 250 250" fill="none" xmlns="http://www.w3.org/2000/svg">
<mask id="path-1-inside-1_769_408" fill="white">
<path d="M0 48C0 21.4903 21.4903 0 48 0H202C228.51 0 250 21.4903 250 48V202C250 228.51 228.51 250 202 250H48C21.4903 250 0 228.51 0 202V48Z"/>
</mask>
<path d="M0 48C0 21.4903 21.4903 0 48 0H202C228.51 0 250 21.4903 250 48V202C250 228.51 228.51 250 202 250H48C21.4903 250 0 228.51 0 202V48Z" fill="white"/>
<path d="M48 0V2H202V0V-2H48V0ZM250 48H248V202H250H252V48H250ZM202 250V248H48V250V252H202V250ZM0 202H2V48H0H-2V202H0ZM48 250V248C22.5949 248 2 227.405 2 202H0H-2C-2 229.614 20.3858 252 48 252V250ZM250 202H248C248 227.405 227.405 248 202 248V250V252C229.614 252 252 229.614 252 202H250ZM202 0V2C227.405 2 248 22.5949 248 48H250H252C252 20.3858 229.614 -2 202 -2V0ZM48 0V-2C20.3858 -2 -2 20.3858 -2 48H0H2C2 22.5949 22.5949 2 48 2V0Z" fill="#DDDBDB" mask="url(#path-1-inside-1_769_408)"/>
<path d="M145.834 108.876C149.652 112.763 153.356 116.539 157.068 120.311C157.952 121.208 157.341 121.81 156.698 122.439C153.416 125.649 150.141 128.863 146.867 132.081C142.986 135.892 139.084 139.692 135.258 143.559C134.958 143.862 134.899 144.896 135.167 145.195C138.094 148.445 141.08 151.643 144.114 154.789C145.084 155.8 146.062 155.431 147.005 154.51C154.043 147.638 161.132 140.817 168.149 133.922C170.11 131.994 171.861 129.854 173.751 127.852C174.56 126.994 174.477 126.294 173.696 125.492C168.074 119.705 162.504 113.872 156.848 108.125C151.7 102.889 146.465 97.7401 141.262 92.5556C137.356 88.6692 133.404 84.8339 129.546 80.9003C124.264 75.5112 119.041 70.071 113.846 64.5994C113.416 64.147 113.009 63.0181 113.254 62.6876C116.177 58.7422 119.597 55.497 124.958 55.3947C128.023 55.3357 130.65 56.5118 132.792 58.5495C137.352 62.8961 141.786 67.3686 146.256 71.8097C159.794 85.2706 173.297 98.7668 186.883 112.18C189.704 114.965 192.477 117.735 194.078 121.417C195.822 125.425 195.072 128.851 191.972 131.974C177.498 146.549 163.037 161.134 148.579 175.724C143.96 180.386 143.865 180.511 139.246 175.992C129.727 166.681 120.354 157.213 110.867 147.87C109.546 146.568 109.711 145.612 110.867 144.432C115.585 139.598 120.26 134.728 124.982 129.897C131.447 123.281 137.936 116.688 144.421 110.092C144.69 109.805 145.009 109.576 145.834 108.876Z" fill="#D29829"/>
<path d="M106.197 69.4653C117.684 80.6525 129.136 91.8043 140.71 103.074C137.092 106.984 133.972 110.509 130.686 113.876C123.534 121.2 116.307 128.454 109.081 135.704C107.834 136.954 106.386 138.005 105.1 139.22C104.023 140.239 103.112 140.302 101.866 139.385C98.1378 136.632 94.8242 133.505 92.1259 129.724C91.4671 128.8 91.5027 128.179 92.3311 127.376C98.1812 121.723 104.019 116.059 109.791 110.328C111.369 108.762 112.769 107.008 114.114 105.242C114.41 104.852 114.402 103.782 114.086 103.448C111.27 100.443 108.363 97.5238 105.463 94.5933C104.591 93.7121 103.818 94.1409 103.085 94.8529C98.481 99.3333 93.7867 103.727 89.2817 108.302C81.5026 116.205 73.8537 124.237 66.1062 132.171C64.7886 133.52 63.2383 134.649 61.8458 135.837C55.5145 132.297 53.2107 125.11 56.477 119.517C57.8656 117.137 58.5756 116.7 61.262 117.239C64.7965 117.947 68.2916 118.844 71.8064 119.639C73.049 119.918 74.3113 120.126 76.0825 120.469C75.4237 117.998 74.8912 116.012 74.3665 114.021C73.6368 111.248 72.9109 108.471 72.1969 105.694C71.7827 104.081 72.3271 102.811 73.4948 101.642C77.6249 97.512 81.6447 93.2755 85.8064 89.1767C92.3508 82.7295 98.9741 76.3649 105.566 69.9688C105.747 69.7878 105.968 69.6462 106.197 69.4653Z" fill="#702C90"/>
<path d="M137.933 186.53C135.771 188.465 133.4 190.829 130.777 192.867C128.118 194.932 124.99 195.215 122.11 193.418C119.183 191.592 116.276 189.606 113.755 187.269C103.85 178.084 94.0944 168.734 84.2916 159.439C78.2482 153.708 72.2206 147.969 66.189 142.225C65.8143 141.871 65.4947 141.458 65.2502 141.183C69.8813 136.569 74.4612 132.01 79.1516 127.333C98.4139 146.729 117.842 166.295 137.933 186.53Z" fill="#702C90"/>
</svg>
