<svg width="250" height="250" viewBox="0 0 250 250" fill="none" xmlns="http://www.w3.org/2000/svg">
<mask id="path-1-inside-1_769_409" fill="white">
<path d="M0 48C0 21.4903 21.4903 0 48 0H202C228.51 0 250 21.4903 250 48V202C250 228.51 228.51 250 202 250H48C21.4903 250 0 228.51 0 202V48Z"/>
</mask>
<path d="M0 48C0 21.4903 21.4903 0 48 0H202C228.51 0 250 21.4903 250 48V202C250 228.51 228.51 250 202 250H48C21.4903 250 0 228.51 0 202V48Z" fill="white"/>
<path d="M48 0V2H202V0V-2H48V0ZM250 48H248V202H250H252V48H250ZM202 250V248H48V250V252H202V250ZM0 202H2V48H0H-2V202H0ZM48 250V248C22.5949 248 2 227.405 2 202H0H-2C-2 229.614 20.3858 252 48 252V250ZM250 202H248C248 227.405 227.405 248 202 248V250V252C229.614 252 252 229.614 252 202H250ZM202 0V2C227.405 2 248 22.5949 248 48H250H252C252 20.3858 229.614 -2 202 -2V0ZM48 0V-2C20.3858 -2 -2 20.3858 -2 48H0H2C2 22.5949 22.5949 2 48 2V0Z" fill="#DDDBDB" mask="url(#path-1-inside-1_769_409)"/>
<path d="M78.7363 83.9014V105.327C78.7363 108.499 82.1842 110.469 84.9163 108.858L123.618 86.0379C125.58 84.8811 128.013 84.8723 129.984 86.0149L147.111 95.9477C149.056 97.0756 150.253 99.1537 150.253 101.402V123.662C150.253 125.009 149.537 126.253 148.374 126.931L116.498 145.506C115.335 146.184 114.62 147.428 114.62 148.774V168.882C114.62 172.057 118.076 174.026 120.808 172.407L175.409 140.045C176.559 139.364 177.264 138.127 177.264 136.79V85.9395C177.264 84.6015 176.557 83.3629 175.405 82.6824L129.213 55.3944C128.348 54.8835 127.277 54.868 126.398 55.3534L80.6909 80.5896C79.485 81.2554 78.7363 82.524 78.7363 83.9014Z" fill="#A9D046"/>
<path d="M80.0246 129.57V193.106C80.0246 194.55 81.5779 195.461 82.8387 194.757L105.167 182.282C106.663 181.447 107.59 179.867 107.59 178.154V139.409C107.59 138.76 107.95 138.165 108.525 137.863L139.534 121.602C147.415 117.469 149.449 107.105 143.715 100.3C139.372 95.1445 131.959 93.8415 126.118 97.2063L85.0609 120.857C81.9449 122.652 80.0246 125.974 80.0246 129.57Z" fill="#C3CE48"/>
</svg>
