<svg width="250" height="250" viewBox="0 0 250 250" fill="none" xmlns="http://www.w3.org/2000/svg">
<path d="M0 48C0 21.4903 21.4903 0 48 0H202C228.51 0 250 21.4903 250 48V202C250 228.51 228.51 250 202 250H48C21.4903 250 0 228.51 0 202V48Z" fill="black"/>
<path d="M94.8016 129.126C96.401 129.033 98.2447 129.052 99.843 129.08C99.9416 129.934 100.016 130.437 100.209 131.278C94.2314 130.996 86.2386 131.731 80.4784 133.284C73.857 135.069 68.2901 137.815 64.7533 143.86C66.1163 144.525 67.3322 145.092 68.795 145.481C77.6965 147.783 87.2104 144.02 94.6774 139.287C96.7244 137.99 98.7769 136.765 100.666 135.244C100.901 135.055 101.204 135.168 101.457 135.247C101.888 135.585 102.11 136.269 102.333 136.79C99.3976 139.139 93.4414 142.791 90.0734 144.436C82.7192 148.214 72.5675 149.997 64.8787 146.354C64.527 146.187 64.2047 145.987 63.8911 145.756C63.09 148.948 62.9418 150.443 63.243 153.692C62.285 153.778 62.0392 153.815 61.1261 154.152C60.5489 151.172 61.0094 147.549 61.9579 144.687C59.469 143.008 56.7748 140.004 55.506 137.274C56.1075 137.064 56.8139 136.671 57.3915 136.374C58.8385 138.782 60.5953 141.103 62.9549 142.687C68.4953 131.891 83.9159 129.682 94.8016 129.126Z" fill="url(#paint0_linear_769_410)"/>
<path d="M120.669 150.216C121.405 150.283 122.053 150.299 122.789 150.315C122.597 151.356 122.223 152.473 121.909 153.497C118.871 163.381 115.541 179.885 123.859 187.965C125.373 186.571 126.635 184.926 127.591 183.102C132.822 173.239 129.764 160.507 126.672 150.437C127.383 150.408 128.13 150.304 128.839 150.22C129.287 151.226 129.78 153.08 130.091 154.186C131.637 159.677 132.753 165.873 132.604 171.588C132.297 179.229 130.495 183.956 125.528 189.61C128.205 191.261 129.654 191.91 132.741 192.49C132.56 193.181 132.436 193.993 132.31 194.703C127.838 193.456 127.758 193.645 123.765 190.991C120.443 193.405 118.6 193.972 114.75 194.861L114.434 192.76C117.747 191.657 119.059 191.7 122.155 189.403C121.836 189.098 121.474 188.744 121.205 188.393C113.703 178.596 116.439 164.721 119.546 153.764C119.866 152.633 120.227 151.302 120.669 150.216Z" fill="url(#paint1_linear_769_410)"/>
<path d="M110.971 146.396C111.493 146.64 112.197 146.873 112.449 147.361C112.562 148.161 110.8 149.678 110.256 150.346C103.091 159.151 94.6888 170.248 98.2647 182.192C99.2561 181.919 100.926 181.076 101.811 180.527C111.565 174.477 115.581 159.803 116.207 149C116.924 149.193 117.638 149.395 118.349 149.604C117.693 155.739 116.476 163.198 113.862 168.84C110.617 176.261 106.624 181.117 99.14 184.292C101.264 187.193 101.545 187.611 104.474 189.907C104.218 190.374 103.889 191.09 103.484 191.395C101.617 191.666 97.9195 186.353 97.071 184.859C94.1837 185.717 90.2781 185.372 87.374 184.739C87.6332 184.119 87.8248 183.384 88.0138 182.733C91.5377 183.272 92.676 183.402 96.1516 182.832C92.3876 171.212 99.9588 159.661 106.938 150.94C107.919 149.715 109.773 147.33 110.971 146.396Z" fill="url(#paint2_linear_769_410)"/>
<path d="M103.14 139.061C103.92 138.877 104.469 140.103 104.837 140.685C101.565 141.953 95.6958 145.064 92.8193 146.97C87.1956 150.698 81.23 155.369 78.6855 161.825C78.0734 163.378 77.773 165.125 77.4579 166.772C95.7505 167.925 105.704 144.224 107.557 143.763C108.044 143.893 108.543 144.472 108.923 144.844C107.396 148.545 101.716 155.983 98.8649 158.935C97.9172 159.913 96.9405 160.862 95.936 161.782C90.3242 166.835 85.1987 169.086 77.553 168.683C77.9994 171.918 78.4995 173.174 80.1357 176.047C79.459 176.511 79.0241 176.799 78.2966 177.189C76.6031 174.741 75.5469 171.46 75.3567 168.495C72.7749 168.055 71.0289 167.497 68.7426 166.142C68.0956 165.759 66.8322 165.202 66.631 164.489C66.7551 164.012 67.3733 163.324 67.7024 162.908C71.102 165.172 71.6639 165.286 75.4094 166.571C75.5571 161.472 79.0523 155.517 82.6623 152.108C87.9945 147.073 96.2303 141.598 103.14 139.061Z" fill="url(#paint3_linear_769_410)"/>
<path d="M138.515 146.611C139.277 146.783 140.697 148.666 141.225 149.305C148.99 158.708 156.548 171.211 151.644 183.697C154.923 184.154 156.306 184.046 159.478 183.507C159.642 184.234 159.786 184.823 159.999 185.54C157.45 186.352 153.315 186.374 150.728 185.643C149.92 187.014 148.986 188.307 147.939 189.505C147.218 190.319 145.132 192.545 144.054 192.608C143.64 192.346 143.175 191.612 142.87 191.187C145.842 188.521 146.219 188.538 148.64 184.945C148.536 184.901 148.433 184.855 148.33 184.808C142.358 182.092 138.092 176.478 135.834 170.444C133.257 164.256 131.744 156.418 131.168 149.715C131.903 149.547 132.569 149.334 133.286 149.111C133.632 154.334 135.134 162.508 136.965 167.343C139.526 174.101 142.764 179.968 149.617 183.007C150.287 180.946 150.765 179.36 150.915 177.173C151.687 165.874 143.897 155.699 136.891 147.649C137.342 147.327 138.031 146.919 138.515 146.611Z" fill="url(#paint4_linear_769_410)"/>
<path d="M190.931 110.261C191.6 110.447 192.302 110.409 192.999 110.409C192.586 114.042 192.161 116.124 190.243 119.262C192.537 122.063 194.133 124.354 195 127.962L192.904 128.451C191.912 125.464 191.034 123.505 188.897 121.186C180.247 129.859 168.92 129.537 157.536 128.081C156.399 127.936 150.885 127.161 150.507 126.663C150.395 126.027 150.548 125.329 150.647 124.683C152.384 125.095 154.878 125.497 156.664 125.765C164.386 126.923 171.704 127.325 179.252 124.878C182.45 123.644 185.112 122.258 187.299 119.521C178.798 112.226 165.696 114.54 156.075 118.103C154.184 118.803 151.924 119.579 150.211 120.603C150.02 119.955 149.822 118.99 149.662 118.311C160.752 113.051 178.498 108.716 188.604 117.838C189.445 116.215 190.06 114.654 190.426 112.853C190.597 112.012 190.695 111.073 190.931 110.261Z" fill="url(#paint5_linear_769_410)"/>
<path d="M131.875 55.8712C134.547 56.8014 137.636 58.9408 139.406 61.1506C143.139 59.5647 145.101 59.3061 149.09 59.2558C148.99 60.1941 148.95 60.522 149.05 61.4698C146.196 61.2464 143.349 62.0158 140.691 62.9752C141.798 64.5015 142.801 67.4972 143.14 69.3252C144.764 78.0763 141.542 87.493 137.497 95.1805C136.417 97.234 135.543 99.1467 134.23 101.096C133.43 100.805 132.975 100.691 132.152 100.501C137.081 92.0299 141.081 83.8291 141.343 73.8519C141.214 70.2297 140.716 67.1942 138.751 64.0542C137.145 64.9564 135.165 66.7385 134.01 68.1707C127.238 76.5653 127.064 89.4719 128.076 99.6966C127.083 99.4442 126.843 99.4324 125.835 99.4315C125.803 97.6643 125.543 95.8809 125.488 94.1066C125.111 82.0706 126.7 69.4278 137.528 62.1643C135.147 60.0745 133.977 58.948 130.95 57.8379C131.254 57.2475 131.575 56.2755 131.875 55.8712Z" fill="url(#paint6_linear_769_410)"/>
<path d="M159.474 64.8469C161.192 65.4908 163.873 70.8673 164.279 72.6043C166.12 72.7183 172.34 73.4853 173.466 74.9671C173.515 75.3868 172.904 76.3782 172.663 76.8281C170.228 75.5153 167.49 75.0218 164.758 74.8733C164.931 76.5101 164.92 78.1613 164.725 79.7956C163.257 91.3596 152.023 100.391 143.377 107.084L141.672 105.626C149.41 99.2591 156.99 94.0629 161.193 84.4449C162.594 80.9848 162.806 78.6827 162.612 75.0221C159.562 75.5858 158.043 76.0596 155.28 77.5679C147.39 81.8754 140.604 94.5833 138.278 103.168C137.582 102.68 137.092 102.443 136.339 102.064C140.658 89.3006 147.547 75.4165 162.158 72.8742C160.436 69.4862 160.829 69.3702 158.009 66.236C158.48 65.7533 158.978 65.3038 159.474 64.8469Z" fill="url(#paint7_linear_769_410)"/>
<path d="M91.8454 63.2679C92.4837 63.3464 92.8662 64.0448 93.2376 64.54C92.6973 65.608 91.8524 66.6717 91.2065 67.7077C90.3329 69.109 89.8084 70.3276 89.1813 71.8481C100.394 73.8353 107.466 86.9252 111.274 96.5094C111.926 98.1498 112.887 100.597 113.158 102.292C112.661 102.625 111.968 103.175 111.361 103.109C110.891 102.201 110.318 100.274 109.952 99.2357C109.323 97.4513 108.614 95.6958 107.83 93.974C104.522 86.7242 99.8605 78.8364 92.497 75.1732C91.2227 74.5393 90.0363 74.3241 88.7104 73.828C88.0868 77.3513 88.4305 80.3094 89.3941 83.7058C92.3282 92.539 99.0429 98.8043 106.213 104.33C106.7 104.705 107.71 105.225 107.823 105.803C107.618 106.315 107.012 106.851 106.608 107.262C103.574 105.637 95.8518 98.4046 93.6811 95.6122C88.2911 88.6784 85.3125 82.6575 86.4901 73.6932C84.1786 74.1309 81.8493 73.9845 79.6786 75.2473C79.4017 75.4085 79.1753 75.3964 78.8838 75.3267C78.4802 74.9077 78.2027 74.1612 77.9581 73.6119C81.2536 72.0651 83.3222 71.4922 87.0063 71.6044C88.1409 67.9177 89.4075 66.1512 91.8454 63.2679Z" fill="url(#paint8_linear_769_410)"/>
<path d="M150.241 129.084C161.812 129.137 175.476 130.878 183.42 140.36C184.488 141.634 185.315 143.06 186.16 144.486C188.669 142.559 189.519 141.174 191.243 138.613C191.811 138.913 192.436 139.195 193.02 139.47C191.967 142.359 189.229 144.769 186.946 146.653C188.162 149.823 188.203 153.079 187.857 156.402C186.985 156.191 186.574 156.144 185.691 156.062C186.165 153.323 185.744 150.267 185.045 147.602C178.416 151.115 169.436 149.159 162.956 146.228C158.753 144.598 151.05 139.835 147.517 137.009C147.959 136.272 148.114 135.932 148.442 135.148C150.062 136.171 151.798 137.472 153.442 138.548C156.795 140.755 160.326 142.678 163.999 144.296C171.049 147.356 176.982 148.489 184.252 145.624C182.777 142.984 181.791 141.497 179.498 139.407C172.532 133.06 158.989 130.81 149.719 131.28C149.906 130.564 150.075 129.807 150.241 129.084Z" fill="url(#paint9_linear_769_410)"/>
<path d="M69.649 82.0107C70.1602 82.1719 70.937 82.3917 71.3688 82.7156C71.5839 82.8769 71.2227 83.6897 71.1179 84.0599C70.4591 86.3863 70.3763 88.6649 70.4775 91.0614C83.4738 87.4314 97.0989 100.128 104.984 108.967C104.671 109.486 104.266 110.203 103.776 110.529C103.232 110.476 99.7956 106.505 99.0982 105.849C95.2664 102.248 91.8092 98.9985 87.2559 96.3204C81.4885 92.9282 77.407 92.3387 70.8661 92.9776C71.81 96.4891 73.254 99.1183 75.7204 101.805C82.1385 108.641 92.696 112.452 101.774 114.196C101.495 114.896 101.229 115.6 100.977 116.31C88.4198 113.415 72.0544 107.672 68.818 93.5249C65.8366 95.1555 64.7981 95.9205 62.534 98.4216C62.1544 97.9952 61.4067 97.4407 60.9387 97.0694C63.1146 93.9893 65.054 93.183 68.3171 91.6583C68.0717 89.9092 68.3336 83.0155 69.649 82.0107Z" fill="url(#paint10_linear_769_410)"/>
<path d="M180.811 84.1521C182.267 85.157 182.37 91.4496 182.12 93.1423C182.322 93.205 182.519 93.2795 182.712 93.3654C184.467 94.1363 189.035 97.1076 189.708 98.8191C189.649 99.4859 188.886 99.9753 188.345 100.441C186.393 97.8904 184.398 96.7268 181.677 95.2043C177.074 108.678 161.553 113.397 149.015 116.199C148.688 115.497 148.434 114.822 148.157 114.1C153.972 113.146 162.144 110.474 167.331 107.677C169.503 106.506 172.079 104.588 173.993 103.044C176.802 100.41 178.424 98.0896 179.607 94.4302C177.617 94.0261 175.349 93.6125 173.319 93.7473C162.442 94.47 153.073 102.929 146.102 110.521C145.662 109.948 145.217 109.379 144.766 108.815C145.313 108.028 146.43 106.929 147.132 106.206C155.695 97.3753 167.055 89.1001 180.053 92.6141C180.138 90.4558 180.079 88.1949 179.403 86.1232C179.284 85.7544 179.141 85.3198 179.237 84.9554C179.603 84.5894 180.312 84.3559 180.811 84.1521Z" fill="url(#paint11_linear_769_410)"/>
<path d="M146.221 139.106C147.181 139.283 148.882 140.194 149.792 140.641C160.872 146.094 172.249 154.437 172.927 167.915C176.42 166.835 176.991 166.585 179.962 164.578C180.503 165.167 180.826 165.528 181.3 166.185C179.081 168.265 175.784 169.164 172.898 169.887C172.338 174.128 171.785 175.436 169.799 179.118C169.132 178.8 168.623 178.459 168.007 178.061C169.446 175.225 170.247 173.285 170.659 170.119C170.574 170.12 170.488 170.121 170.402 170.12C168.189 170.1 166.529 169.661 164.454 169.084C158.673 167.476 155.068 163.999 150.981 159.821C147.444 155.834 143.247 149.876 140.666 145.207C141.027 144.824 141.716 144.15 142.204 143.981C142.737 144.225 144.106 146.706 144.487 147.327C146.728 150.983 149.305 154.654 152.174 157.849C156.06 162.176 160.932 166.328 166.72 167.69C168.145 168.025 169.363 168.076 170.808 168.153C170.655 167.318 170.58 166.274 170.446 165.358C170.127 163.185 169.272 161.229 168.389 159.237C164.918 151.414 152.875 143.91 145.022 140.907C145.414 140.302 145.814 139.702 146.221 139.106Z" fill="url(#paint12_linear_769_410)"/>
<path d="M56.554 108.063L58.698 107.86C59.1583 110.995 59.6569 113.126 61.1636 115.99C70.6098 108.615 85.168 112.264 95.3077 116.403C96.9442 117.071 98.6407 117.86 100.276 118.474C100.001 119.382 99.9508 119.828 99.8345 120.764C98.2648 119.927 96.3826 119.194 94.7367 118.508C85.5932 114.697 70.9625 110.907 62.4031 117.798C71.9262 128.776 86.6471 127.002 99.4785 124.525C99.4274 125.439 99.4218 125.812 99.5144 126.73C88.0038 128.981 74.3101 130.542 64.3391 122.792C62.989 121.743 61.8719 120.493 60.753 119.206C58.611 121.954 58.1871 122.763 57.0535 126.126C56.3586 125.896 55.7184 125.672 55 125.516V125.023C55.4074 124.407 55.9061 122.903 56.2239 122.139C56.8146 120.719 57.4348 119.958 58.3728 118.773C58.6026 118.403 59.4411 117.643 59.3055 117.202C59.0498 116.369 58.4924 115.595 58.1564 114.79C57.3142 112.77 56.7249 110.232 56.554 108.063Z" fill="url(#paint13_linear_769_410)"/>
<path d="M119.547 55.1392H120.053C120.288 55.8188 120.532 56.3823 120.816 57.0376C117.674 58.8025 116.594 59.0123 113.887 61.9009C124.679 69.7329 125.33 87.3526 123.624 99.4789C122.548 99.5246 122.507 99.4932 121.443 99.7082C122.553 87.847 123.183 71.434 112.491 63.5722C111.467 65.4438 110.501 67.1911 109.95 69.2675C107.022 80.3081 112.168 91.2469 117.447 100.595C116.751 100.779 116.044 101.049 115.364 101.293C114.589 100.377 113.868 98.58 113.278 97.4763C107.719 87.0825 103.448 73.2403 110.677 62.5093C107.713 61.4584 106.039 61.061 102.864 61.1517C102.909 60.2355 102.913 59.9275 102.791 59.0145C106.565 58.8567 108.514 59.3194 112.003 60.6923C113.572 59.004 114.918 57.7662 116.931 56.613C117.696 56.175 118.775 55.6651 119.458 55.2006L119.547 55.1392Z" fill="url(#paint14_linear_769_410)"/>
<defs>
<linearGradient id="paint0_linear_769_410" x1="100.556" y1="47.9051" x2="146.589" y2="194.861" gradientUnits="userSpaceOnUse">
<stop stop-color="#F14A99"/>
<stop offset="1" stop-color="#9451EC"/>
</linearGradient>
<linearGradient id="paint1_linear_769_410" x1="100.556" y1="47.9051" x2="146.589" y2="194.861" gradientUnits="userSpaceOnUse">
<stop stop-color="#F14A99"/>
<stop offset="1" stop-color="#9451EC"/>
</linearGradient>
<linearGradient id="paint2_linear_769_410" x1="100.556" y1="47.9051" x2="146.589" y2="194.861" gradientUnits="userSpaceOnUse">
<stop stop-color="#F14A99"/>
<stop offset="1" stop-color="#9451EC"/>
</linearGradient>
<linearGradient id="paint3_linear_769_410" x1="100.556" y1="47.9051" x2="146.589" y2="194.861" gradientUnits="userSpaceOnUse">
<stop stop-color="#F14A99"/>
<stop offset="1" stop-color="#9451EC"/>
</linearGradient>
<linearGradient id="paint4_linear_769_410" x1="100.556" y1="47.9051" x2="146.589" y2="194.861" gradientUnits="userSpaceOnUse">
<stop stop-color="#F14A99"/>
<stop offset="1" stop-color="#9451EC"/>
</linearGradient>
<linearGradient id="paint5_linear_769_410" x1="100.556" y1="47.9051" x2="146.589" y2="194.861" gradientUnits="userSpaceOnUse">
<stop stop-color="#F14A99"/>
<stop offset="1" stop-color="#9451EC"/>
</linearGradient>
<linearGradient id="paint6_linear_769_410" x1="100.556" y1="47.9051" x2="146.589" y2="194.861" gradientUnits="userSpaceOnUse">
<stop stop-color="#F14A99"/>
<stop offset="1" stop-color="#9451EC"/>
</linearGradient>
<linearGradient id="paint7_linear_769_410" x1="100.556" y1="47.9051" x2="146.589" y2="194.861" gradientUnits="userSpaceOnUse">
<stop stop-color="#F14A99"/>
<stop offset="1" stop-color="#9451EC"/>
</linearGradient>
<linearGradient id="paint8_linear_769_410" x1="100.556" y1="47.9051" x2="146.589" y2="194.861" gradientUnits="userSpaceOnUse">
<stop stop-color="#F14A99"/>
<stop offset="1" stop-color="#9451EC"/>
</linearGradient>
<linearGradient id="paint9_linear_769_410" x1="100.556" y1="47.9051" x2="146.589" y2="194.861" gradientUnits="userSpaceOnUse">
<stop stop-color="#F14A99"/>
<stop offset="1" stop-color="#9451EC"/>
</linearGradient>
<linearGradient id="paint10_linear_769_410" x1="100.556" y1="47.9051" x2="146.589" y2="194.861" gradientUnits="userSpaceOnUse">
<stop stop-color="#F14A99"/>
<stop offset="1" stop-color="#9451EC"/>
</linearGradient>
<linearGradient id="paint11_linear_769_410" x1="100.556" y1="47.9051" x2="146.589" y2="194.861" gradientUnits="userSpaceOnUse">
<stop stop-color="#F14A99"/>
<stop offset="1" stop-color="#9451EC"/>
</linearGradient>
<linearGradient id="paint12_linear_769_410" x1="100.556" y1="47.9051" x2="146.589" y2="194.861" gradientUnits="userSpaceOnUse">
<stop stop-color="#F14A99"/>
<stop offset="1" stop-color="#9451EC"/>
</linearGradient>
<linearGradient id="paint13_linear_769_410" x1="100.556" y1="47.9051" x2="146.589" y2="194.861" gradientUnits="userSpaceOnUse">
<stop stop-color="#F14A99"/>
<stop offset="1" stop-color="#9451EC"/>
</linearGradient>
<linearGradient id="paint14_linear_769_410" x1="100.556" y1="47.9051" x2="146.589" y2="194.861" gradientUnits="userSpaceOnUse">
<stop stop-color="#F14A99"/>
<stop offset="1" stop-color="#9451EC"/>
</linearGradient>
</defs>
</svg>
