<svg width="250" height="250" viewBox="0 0 250 250" fill="none" xmlns="http://www.w3.org/2000/svg">
<mask id="path-1-inside-1_769_411" fill="white">
<path d="M0 48C0 21.4903 21.4903 0 48 0H202C228.51 0 250 21.4903 250 48V202C250 228.51 228.51 250 202 250H48C21.4903 250 0 228.51 0 202V48Z"/>
</mask>
<path d="M0 48C0 21.4903 21.4903 0 48 0H202C228.51 0 250 21.4903 250 48V202C250 228.51 228.51 250 202 250H48C21.4903 250 0 228.51 0 202V48Z" fill="white"/>
<path d="M48 0V2H202V0V-2H48V0ZM250 48H248V202H250H252V48H250ZM202 250V248H48V250V252H202V250ZM0 202H2V48H0H-2V202H0ZM48 250V248C22.5949 248 2 227.405 2 202H0H-2C-2 229.614 20.3858 252 48 252V250ZM250 202H248C248 227.405 227.405 248 202 248V250V252C229.614 252 252 229.614 252 202H250ZM202 0V2C227.405 2 248 22.5949 248 48H250H252C252 20.3858 229.614 -2 202 -2V0ZM48 0V-2C20.3858 -2 -2 20.3858 -2 48H0H2C2 22.5949 22.5949 2 48 2V0Z" fill="#DDDBDB" mask="url(#path-1-inside-1_769_411)"/>
<ellipse cx="125" cy="125" rx="70.3225" ry="70" fill="#0098DB"/>
<path d="M129.082 77.9287C145.971 77.9265 165.843 76.6326 178.958 89.4267C190.016 100.214 191.288 121.581 180.028 132.723C169.875 142.77 156.896 142.381 143.695 142.363L130.195 142.338L130.206 186.319C120.714 186.093 110.257 186.321 100.689 186.299C100.872 170.697 100.706 154.774 100.707 139.143L100.694 77.9453L101.621 77.9394L129.082 77.9287ZM130.23 91.2802C130.008 103.574 130.214 116.436 130.199 128.775C137.992 128.869 147.323 129.341 153.604 124.127C160.31 117.771 159.294 104.572 153.195 98.0664C148.085 92.6148 141.937 91.519 134.773 91.3496L130.23 91.2802Z" fill="#FEFEFE"/>
</svg>
