<svg width="250" height="250" viewBox="0 0 250 250" fill="none" xmlns="http://www.w3.org/2000/svg">
<mask id="path-1-inside-1_769_413" fill="white">
<path d="M0 48C0 21.4903 21.4903 0 48 0H202C228.51 0 250 21.4903 250 48V202C250 228.51 228.51 250 202 250H48C21.4903 250 0 228.51 0 202V48Z"/>
</mask>
<path d="M0 48C0 21.4903 21.4903 0 48 0H202C228.51 0 250 21.4903 250 48V202C250 228.51 228.51 250 202 250H48C21.4903 250 0 228.51 0 202V48Z" fill="white"/>
<path d="M48 0V2H202V0V-2H48V0ZM250 48H248V202H250H252V48H250ZM202 250V248H48V250V252H202V250ZM0 202H2V48H0H-2V202H0ZM48 250V248C22.5949 248 2 227.405 2 202H0H-2C-2 229.614 20.3858 252 48 252V250ZM250 202H248C248 227.405 227.405 248 202 248V250V252C229.614 252 252 229.614 252 202H250ZM202 0V2C227.405 2 248 22.5949 248 48H250H252C252 20.3858 229.614 -2 202 -2V0ZM48 0V-2C20.3858 -2 -2 20.3858 -2 48H0H2C2 22.5949 22.5949 2 48 2V0Z" fill="#DDDBDB" mask="url(#path-1-inside-1_769_413)"/>
<path d="M90.0126 64.0227L138.308 64.0314L152.329 64.0293C154.54 64.0287 157.563 63.9273 159.688 64.0646C159.44 64.6773 158.403 66.2984 158.033 66.9871C155.014 72.6116 151.352 77.9737 148.539 83.7109C147.376 83.8399 144.5 83.773 143.227 83.7738L132.983 83.7751L101.226 83.7469C99.5865 86.839 97.178 90.7014 95.3831 93.798L83.3555 114.587L79.9459 120.474C79.3943 121.419 78.1192 123.459 77.8116 124.408C75.5112 124.607 72.5674 124.419 70.2078 124.454C65.1852 124.527 60.0851 124.407 55.0674 124.53C55.5014 123.481 56.1958 122.485 56.7783 121.499L59.4696 116.853L69.7506 99.1417L84.2882 73.9596C85.3472 72.1409 86.3964 70.2859 87.4464 68.4608C88.3313 66.9227 89.0033 65.5091 90.0126 64.0227Z" fill="#EF7A57"/>
<path d="M160.756 64.5439C168.126 77.63 175.614 90.6493 183.218 103.6L189.549 114.612C191.468 117.887 193.353 120.813 195.001 124.245V125.915C193.424 129.208 190.085 134.358 188.17 137.733L169.77 169.615L165.941 176.24C165.08 177.715 163.163 180.569 162.804 181.989C161.927 181.009 159.289 176.04 158.556 174.665C156.352 170.533 153.499 166.033 151.468 161.856C152.067 160.506 153.242 158.857 154.035 157.515L158.941 149.095L172.902 125C172.023 123.791 170.901 121.57 170.097 120.176L164.428 110.456L155.521 95.0455C153.527 91.6185 151.169 87.753 149.34 84.2704C150.062 82.5636 151.827 79.6613 152.796 77.969C155.379 73.4528 158.033 68.9773 160.756 64.5439Z" fill="#D43638"/>
<path d="M55.001 125.503C62.5433 125.659 70.3609 125.32 77.843 125.536C78.1114 126.886 79.6144 129.042 80.3536 130.338C82.248 133.695 84.1821 137.029 86.1555 140.339L95.0064 155.667C96.9794 159.071 99.2458 162.811 101.121 166.24L126.967 166.25C131.532 166.249 137.904 166.43 142.288 166.135C145.704 172.53 150.105 179.606 153.118 185.971C146.434 185.813 139.124 185.934 132.408 185.954L105.813 185.955C100.453 185.966 94.4789 186.082 89.1535 185.93L89.496 185.815C89.5058 184.976 63.8362 141.137 60.7414 135.718L56.9711 129.009C56.4787 128.145 55.2844 126.243 55.001 125.503Z" fill="#D43638"/>
<path d="M142.47 92.9423C142.697 92.8746 142.699 92.892 142.919 92.9545C142.899 93.3182 126.509 121.745 124.712 124.496C113.001 124.301 100.673 124.45 88.9353 124.494C88.8181 124.497 88.6889 124.457 88.5702 124.431L88.5068 124.21C88.6748 123.635 89.2564 122.953 89.6081 122.357L93.0921 116.459L102.32 100.46C103.649 98.1866 105.325 94.8861 106.932 92.9697C118.778 93.0395 130.624 93.0304 142.47 92.9423Z" fill="#EF7A57"/>
<path d="M143.773 93.4927C144.354 93.8062 146.441 97.7353 146.958 98.6358L151.239 106L162.281 125.041C161.797 125.656 160.991 127.129 160.565 127.855C159.552 129.554 158.551 131.261 157.565 132.976C155.166 137.135 152.67 141.232 150.348 145.434C149.047 147.787 147.699 150.094 146.257 152.364C145.987 151.926 145.678 151.473 145.394 151.041C144.812 150.093 144.283 149.011 143.739 148.031C141.558 144.107 139.261 140.176 137.239 136.171L132.151 136.19C131.458 135.185 130.973 134.065 130.37 133.007C129.252 131.052 128.062 129.141 126.966 127.171C126.536 126.397 126.06 125.601 125.498 124.918C126.964 123.461 127.368 121.909 128.421 120.102L134.983 108.747C137.886 103.66 141.012 98.6661 143.773 93.4927Z" fill="#D43638"/>
<path d="M88.3076 125.536L124.735 125.509C125.92 127.15 126.743 128.752 127.743 130.505C128.807 132.369 130.343 134.57 131.163 136.542C130.416 137.939 129.057 139.575 128.019 140.746C128.915 141.933 130.04 144.219 130.794 145.572C132.594 148.736 134.356 151.92 136.08 155.126L137.154 156.993C134.995 156.779 130.473 157.019 128.108 156.983C121.032 156.875 113.565 157.213 106.512 156.953C105.482 155.68 103.562 152.093 102.681 150.549L95.9955 138.927L90.9122 130.251C90.247 129.118 88.6919 126.651 88.3076 125.536Z" fill="#D43638"/>
</svg>
