<svg width="250" height="250" viewBox="0 0 250 250" fill="none" xmlns="http://www.w3.org/2000/svg">
<path d="M0 48C0 21.4903 21.4903 0 48 0H202C228.51 0 250 21.4903 250 48V202C250 228.51 228.51 250 202 250H48C21.4903 250 0 228.51 0 202V48Z" fill="#F77500"/>
<path d="M68.2441 143.832V160.612C68.2441 171.575 76.9882 180.773 87.9557 180.8C94.3992 180.818 100.126 177.742 103.747 172.982C104.241 172.324 105.29 172.673 105.29 173.499V174.919C105.29 186.499 114.769 195.811 126.331 195.075C136.649 194.422 144.822 185.841 144.822 175.355V173.499C144.822 172.673 145.865 172.324 146.364 172.982C149.985 177.742 155.707 180.814 162.155 180.795C173.123 180.768 181.867 171.57 181.867 160.607V143.827C181.867 135.868 177.157 129.025 170.378 125.894C169.72 125.59 169.72 124.647 170.378 124.343C177.157 121.207 181.867 114.364 181.867 106.405V89.6295C181.867 78.662 173.118 69.4687 162.155 69.4369C155.707 69.4188 149.985 72.4953 146.364 77.2553C145.865 77.9133 144.822 77.5639 144.822 76.738V75.3132C144.822 63.7331 135.342 54.4218 123.78 55.1569C113.457 55.8149 105.29 64.3956 105.29 74.8821V76.738C105.29 77.5639 104.246 77.9133 103.747 77.2553C100.126 72.4953 94.3992 69.4188 87.9557 69.4369C76.9882 69.4732 68.2441 78.6711 68.2441 89.634V106.41C68.2441 114.369 72.9542 121.216 79.7289 124.347C80.3914 124.651 80.3914 125.59 79.7289 125.899C72.9542 129.03 68.2441 135.873 68.2441 143.832ZM107.772 106.414V104.558C107.772 103.737 108.815 103.383 109.31 104.032C112.917 108.787 118.626 111.859 125.051 111.859C131.481 111.859 137.185 108.787 140.792 104.037C141.291 103.383 142.33 103.742 142.33 104.563V106.419C142.33 114.373 147.04 121.221 153.82 124.352C154.478 124.656 154.478 125.595 153.82 125.903C147.04 129.034 142.33 135.882 142.33 143.836V145.692C142.33 146.514 141.291 146.872 140.792 146.219C137.185 141.463 131.481 138.396 125.051 138.396C118.626 138.396 112.917 141.468 109.31 146.219C108.815 146.872 107.772 146.514 107.772 145.697V143.841C107.772 135.882 103.062 129.039 96.2868 125.908C95.6243 125.599 95.6243 124.66 96.2868 124.352C103.062 121.221 107.772 114.373 107.772 106.414Z" fill="#FBF4A2"/>
</svg>
