<svg width="250" height="250" viewBox="0 0 250 250" fill="none" xmlns="http://www.w3.org/2000/svg">
<path d="M0 48C0 21.4903 21.4903 0 48 0H202C228.51 0 250 21.4903 250 48V202C250 228.51 228.51 250 202 250H48C21.4903 250 0 228.51 0 202V48Z" fill="#0F4D66"/>
<path d="M79.3371 85.4829L79.4494 85.521C79.4659 85.8035 77.9514 89.3668 77.7216 90.0616C76.6423 93.2999 76.0354 96.6769 75.9196 100.088C75.745 105.566 75.8986 111.537 75.8926 117.051L75.8656 167.168C75.8699 169.463 75.9258 171.871 75.871 174.149C78.1373 174.078 80.6281 174.129 82.91 174.135L94.7394 174.153L130.691 174.148L143.732 174.164C146.622 174.163 150.093 174.223 152.917 173.892C156.59 173.463 161.574 172.144 164.745 170.206C161.119 177.187 156.141 182.28 149.18 185.971C140.55 190.193 135.799 189.956 126.438 189.965L73.3156 189.957C68.9012 189.975 64.4867 189.969 60.0724 189.938L60.0449 145.207L60.0558 127.712C60.0564 120.979 59.566 113.62 61.4823 107.199C64.4129 97.3802 70.4036 90.3533 79.3371 85.4829Z" fill="url(#paint0_linear_769_418)"/>
<path d="M115.276 60.1164C117.165 59.9526 121.425 60.0811 123.455 60.0819L189.94 60.0882L189.949 123.274C189.952 129.833 190.403 136.362 188.569 142.691C186.434 150.091 181.961 156.601 175.819 161.25C173.922 162.677 172.363 163.582 170.301 164.72C172.643 159.88 173.678 156.119 174.086 150.715C174.219 144.335 174.136 137.712 174.142 131.313L174.148 98.5975C174.14 91.0387 174.079 83.391 174.172 75.8389C172.004 75.9123 169.544 75.8633 167.364 75.8635L121.039 75.8726L107.31 75.8491C99.1728 75.8494 92.8337 75.7908 85.3595 79.649C86.3918 77.3491 88.3888 74.3912 90.0438 72.5123C96.739 64.9116 105.238 60.8207 115.276 60.1164Z" fill="url(#paint1_linear_769_418)"/>
<path fill-rule="evenodd" clip-rule="evenodd" d="M88.4536 112.26C91.9897 112.223 98.5647 112.048 98.6731 117.043C98.7331 119.81 96.1397 121.102 93.9387 121.887C95.5622 123.575 97.9113 125.863 99.3707 127.575C99.3079 129.121 99.5177 131.269 99.3629 132.671L93.7765 126.669C92.7284 125.537 91.4166 123.991 90.2266 123.016C89.9754 122.81 89.379 122.8 89.0545 122.789C88.8952 122.784 88.7359 122.78 88.5767 122.777C88.6266 123.663 88.5846 124.953 88.5842 125.863C88.5803 127.782 88.5864 129.703 88.603 131.623C87.2844 131.535 85.667 131.573 84.3243 131.571C84.3089 125.4 84.1776 118.408 84.3766 112.274C85.7354 112.248 87.0946 112.244 88.4536 112.26ZM93.3083 113.776C92.1336 112.561 90.1579 112.704 88.5867 112.707L88.5824 122.174C90.1308 122.383 91.6362 122.651 92.9131 121.46C94.8474 119.656 95.1905 115.723 93.3083 113.776Z" fill="#DBE6CB"/>
<path fill-rule="evenodd" clip-rule="evenodd" d="M143.393 117.123C145.489 116.91 147.979 117.202 149.173 119.156C150.103 120.675 149.96 122.485 149.956 124.187C149.945 125.729 149.943 127.272 149.947 128.815C149.965 130.754 149.87 130.699 151.671 130.837L151.737 130.974C151.56 131.23 151.195 131.382 150.901 131.466C148.9 132.037 146.845 132.278 146.033 129.905C144.222 131.469 141.952 132.414 139.591 131.473C139.476 131.403 139.363 131.33 139.252 131.255C138.461 130.712 137.827 129.901 137.684 128.934C137.552 127.987 137.804 127.026 138.385 126.267C140.091 124.064 143.508 124.047 145.964 123.711C145.99 120.108 145.777 117.064 141.046 118.4C140.063 118.678 139.18 119.344 138.278 119.824C138.334 119.752 138.39 119.68 138.447 119.609C139.627 118.168 141.558 117.315 143.393 117.123ZM146.006 124.391C145.793 124.207 145.656 124.27 145.362 124.299C144.6 124.441 144.056 124.521 143.365 124.905C141.308 126.05 140.754 128.755 142.635 130.337C143.935 130.934 144.976 130.22 145.975 129.415C146.026 128.117 146.129 125.605 146.006 124.391Z" fill="#DBE6CB"/>
<path fill-rule="evenodd" clip-rule="evenodd" d="M105.617 117.108C113.133 116.54 112.054 121.978 112.034 127.289C112.031 128.066 111.924 130.026 112.355 130.596C112.954 130.961 113.557 130.788 114.261 130.793C112.758 131.651 109.873 132.726 108.572 130.848C108.384 130.578 108.303 130.151 108.021 129.969C106.247 131.718 102.928 132.699 100.873 130.888C99.4682 129.65 99.3687 127.432 100.649 126.078C101.726 124.939 103.828 124.088 105.377 124.031C106.216 123.936 107.248 123.844 108.071 123.703C108.098 120.429 108.031 117.508 103.853 118.207C102.146 118.493 101.786 119.199 100.395 119.772C101.705 118.215 103.588 117.255 105.617 117.108ZM108.144 124.23C107.55 124.269 106.87 124.414 106.276 124.523C105.173 124.972 104.368 125.424 103.886 126.597C102.973 128.818 104.466 131.617 107.061 130.138C107.385 129.953 107.692 129.741 107.981 129.504C108.21 129.068 108.14 124.961 108.144 124.23Z" fill="#DCE6CD"/>
<path d="M156.353 116.891C156.305 117.639 156.259 118.269 156.28 119.017C158.236 117.614 159.917 116.602 162.409 117.084C166.021 117.783 165.706 121.269 165.752 124.011C165.794 126.48 165.602 129.186 165.782 131.588L161.858 131.57C161.731 129.122 161.866 126.642 161.813 124.201C161.768 122.112 162.351 117.774 159.063 118.158C157.774 118.309 157.059 118.895 156.168 119.735L156.169 119.735C156.379 120.21 156.273 130.293 156.271 131.569C155 131.531 153.641 131.546 152.364 131.538C152.449 130.317 152.346 128.508 152.352 127.234C152.369 124.128 152.283 120.988 152.364 117.884C153.685 117.519 155.015 117.188 156.353 116.891Z" fill="#DBE6CB"/>
<path d="M129.604 117.314C127.721 117.275 125.465 117.27 123.585 117.343C123.153 121.409 122.246 123.522 120.608 127.165C120.424 126.331 119.984 125.357 119.623 124.568C118.533 122.185 117.573 119.69 116.462 117.321C115.079 117.264 113.623 117.322 112.234 117.359C112.807 118.689 118.101 131.034 118.474 131.414C118.602 132.32 117.759 133.949 117.221 134.668C116 136.298 114.304 136.279 112.539 135.857L112.325 137.784C116.613 137.556 117.785 135.008 119.233 131.389C119.495 131.073 120.598 128.304 120.85 127.745C122.29 124.549 123.675 120.574 125.455 117.598C125.68 117.995 125.877 118.493 126.053 118.921C127.838 123.25 129.849 127.498 131.652 131.816C130.437 135.079 129.508 136.726 125.571 135.856C125.571 136.483 125.472 137.169 125.397 137.798C129.752 137.525 130.857 135.076 132.399 131.379C132.937 130.09 133.559 128.822 134.072 127.49C135.714 123.869 136.806 120.98 138.688 117.332C138.046 117.337 137.403 117.345 136.76 117.357C136.278 120.706 135.44 123.939 133.807 126.935C133.531 126.514 132.503 124.066 132.251 123.449C131.417 121.408 130.43 119.34 129.604 117.314Z" fill="#DCE6CD"/>
<defs>
<linearGradient id="paint0_linear_769_418" x1="199.175" y1="57.655" x2="64.6954" y2="179.957" gradientUnits="userSpaceOnUse">
<stop stop-color="#5EB77B"/>
<stop offset="1" stop-color="#209B6C"/>
</linearGradient>
<linearGradient id="paint1_linear_769_418" x1="199.175" y1="57.655" x2="64.6954" y2="179.957" gradientUnits="userSpaceOnUse">
<stop stop-color="#5EB77B"/>
<stop offset="1" stop-color="#209B6C"/>
</linearGradient>
</defs>
</svg>
