<svg width="250" height="250" viewBox="0 0 250 250" fill="none" xmlns="http://www.w3.org/2000/svg">
<mask id="path-1-inside-1_769_424" fill="white">
<path d="M0 48C0 21.4903 21.4903 0 48 0H202C228.51 0 250 21.4903 250 48V202C250 228.51 228.51 250 202 250H48C21.4903 250 0 228.51 0 202V48Z"/>
</mask>
<path d="M0 48C0 21.4903 21.4903 0 48 0H202C228.51 0 250 21.4903 250 48V202C250 228.51 228.51 250 202 250H48C21.4903 250 0 228.51 0 202V48Z" fill="white"/>
<path d="M48 0V2H202V0V-2H48V0ZM250 48H248V202H250H252V48H250ZM202 250V248H48V250V252H202V250ZM0 202H2V48H0H-2V202H0ZM48 250V248C22.5949 248 2 227.405 2 202H0H-2C-2 229.614 20.3858 252 48 252V250ZM250 202H248C248 227.405 227.405 248 202 248V250V252C229.614 252 252 229.614 252 202H250ZM202 0V2C227.405 2 248 22.5949 248 48H250H252C252 20.3858 229.614 -2 202 -2V0ZM48 0V-2C20.3858 -2 -2 20.3858 -2 48H0H2C2 22.5949 22.5949 2 48 2V0Z" fill="#DDDBDB" mask="url(#path-1-inside-1_769_424)"/>
<path fill-rule="evenodd" clip-rule="evenodd" d="M173.55 65.0262C176.734 65.059 180.244 64.6343 182.735 67.0703C184.581 68.8753 184.967 71.3648 184.979 73.836L184.976 130.994C184.977 131.794 184.977 132.597 184.981 133.397C184.996 136.593 185.295 139.71 182.817 142.18C181.772 143.225 180.43 143.922 178.974 144.174C177.76 144.39 175.203 144.353 173.9 144.358L166.08 144.39L135.407 144.557C136.49 145.823 138.638 147.857 139.872 149.097L175.588 184.983C173.646 184.922 171.557 184.962 169.599 184.962L123.516 184.959C122.04 183.545 120.48 181.87 119.052 180.394L111.88 173.004C109.832 170.902 107.592 168.686 105.624 166.532C105.577 170.195 105.722 173.863 105.688 177.528C105.675 178.915 105.703 180.43 105.527 181.81C105.444 182.465 105.133 183.224 104.676 183.705C103.77 184.659 102.521 184.99 101.242 184.966C94.0492 184.965 86.8503 184.962 79.6583 184.962L72.8799 184.966C71.3799 184.969 69.9422 184.999 68.4448 184.851C64.3301 184.442 65.0472 179.741 65.049 176.669L65.0434 156.073C65.042 153.8 65.0179 151.404 65.0581 149.154C65.1477 144.131 68.1905 144.272 72.152 144.306C74.9573 144.33 77.8184 144.287 80.6342 144.309C81.7083 144.317 82.7549 144.275 83.8261 144.369L71.0126 131.464C69.0694 129.512 66.9153 127.437 65.0463 125.435L65.1122 92.7332C65.118 86.3551 65.0318 79.7001 65.1586 73.3459C67.278 75.5681 69.5702 77.8171 71.7363 80.0052L83.7442 92.1404C90.9739 99.4421 98.2844 107.001 105.588 114.198C105.498 111.116 105.591 107.588 105.6 104.479L105.64 76.7636C105.642 75.2734 105.634 73.7824 105.659 72.292C105.691 70.3749 106.076 69.0501 107.336 67.5777C108.575 66.1064 110.356 65.1985 112.274 65.0605C112.51 65.0369 112.99 65.03 113.233 65.0298C118.01 65.0272 122.794 65.0336 127.571 65.0337L170.853 65.0285C171.751 65.0276 172.651 65.0169 173.55 65.0262ZM128.573 98.5566C118.06 99.1233 109.819 105.728 107.358 116.044C111.452 120.068 115.602 124.393 119.629 128.502L132.037 141.134L133.576 142.695C139.59 141.389 144.645 138.068 147.985 132.85C151.164 127.87 152.24 121.833 150.978 116.061C149.684 110.209 146.097 105.121 141.021 101.935C137.289 99.6211 132.963 98.4468 128.573 98.5566Z" fill="#FE0000"/>
</svg>
