<svg width="250" height="250" viewBox="0 0 250 250" fill="none" xmlns="http://www.w3.org/2000/svg">
<mask id="path-1-inside-1_769_428" fill="white">
<path d="M0 48C0 21.4903 21.4903 0 48 0H202C228.51 0 250 21.4903 250 48V202C250 228.51 228.51 250 202 250H48C21.4903 250 0 228.51 0 202V48Z"/>
</mask>
<path d="M0 48C0 21.4903 21.4903 0 48 0H202C228.51 0 250 21.4903 250 48V202C250 228.51 228.51 250 202 250H48C21.4903 250 0 228.51 0 202V48Z" fill="white"/>
<path d="M48 0V2H202V0V-2H48V0ZM250 48H248V202H250H252V48H250ZM202 250V248H48V250V252H202V250ZM0 202H2V48H0H-2V202H0ZM48 250V248C22.5949 248 2 227.405 2 202H0H-2C-2 229.614 20.3858 252 48 252V250ZM250 202H248C248 227.405 227.405 248 202 248V250V252C229.614 252 252 229.614 252 202H250ZM202 0V2C227.405 2 248 22.5949 248 48H250H252C252 20.3858 229.614 -2 202 -2V0ZM48 0V-2C20.3858 -2 -2 20.3858 -2 48H0H2C2 22.5949 22.5949 2 48 2V0Z" fill="#DDDBDB" mask="url(#path-1-inside-1_769_428)"/>
<path d="M100.887 60.0324C103.221 59.9699 105.773 60.0171 108.122 60.017L133.044 60.0167C140.086 60.0142 144.894 59.8569 151.798 61.8766C162.873 65.0969 172.193 72.6262 177.67 82.7773C182.798 92.2255 184.003 103.312 181.026 113.641C177.624 125.197 169.799 134.012 159.843 140.566C157.312 142.232 154.846 143.535 152.195 144.977L75.0898 187.007C73.5319 187.851 71.9943 188.718 70.4207 189.536C67.3805 191.116 63.944 188.424 64.792 185.081C65.4934 182.314 66.2379 179.538 66.9682 176.77L95.6257 68.2564C96.051 66.6386 96.4688 65.0093 96.914 63.3974C97.5176 61.2119 98.6101 60.2124 100.887 60.0324Z" fill="#3E155C"/>
<path d="M167.011 151.117C176.591 150.594 184.783 157.933 185.312 167.512C185.841 177.092 178.506 185.288 168.927 185.823C159.34 186.358 151.135 179.017 150.605 169.429C150.076 159.841 157.422 151.641 167.011 151.117Z" fill="#8A2FCB"/>
</svg>
