<svg width="250" height="250" viewBox="0 0 250 250" fill="none" xmlns="http://www.w3.org/2000/svg">
<rect width="250" height="250" fill="white"/>
<path d="M57.4246 133.658L55 153.053C76.6257 139.864 108.621 140.042 121.915 141.78C122.36 139.073 122.93 132.173 123.734 124.203C96.8708 121.487 68.3347 129.375 57.4246 133.658Z" fill="#04AEED"/>
<path d="M63.3357 100.904L60.9111 120.3C82.5369 107.111 114.532 107.288 127.827 109.026C128.271 106.319 128.842 99.419 129.645 91.4486C102.782 88.7332 74.2459 96.6208 63.3357 100.904Z" fill="#04AEED"/>
<path d="M194.999 99.7734C175.557 112.167 142.934 111.001 129.053 108.869C129.053 109.674 128.712 114.412 127.348 126.919C159.525 129.42 185.856 120.855 194.999 116.26C194.952 115.36 194.886 110.802 194.999 99.7734Z" fill="#3D3F96"/>
<path d="M120.667 158.756L123.511 140.564C158.303 145.225 182.445 135.495 190.167 130.047C189.977 131.658 189.286 137.523 188.035 148.097C163.59 159.126 132.937 159.798 120.667 158.756Z" fill="#3D3F96"/>
</svg>
