<svg width="250" height="250" viewBox="0 0 250 250" fill="none" xmlns="http://www.w3.org/2000/svg">
<mask id="path-1-inside-1_769_429" fill="white">
<path d="M0 48C0 21.4903 21.4903 0 48 0H202C228.51 0 250 21.4903 250 48V202C250 228.51 228.51 250 202 250H48C21.4903 250 0 228.51 0 202V48Z"/>
</mask>
<path d="M0 48C0 21.4903 21.4903 0 48 0H202C228.51 0 250 21.4903 250 48V202C250 228.51 228.51 250 202 250H48C21.4903 250 0 228.51 0 202V48Z" fill="white"/>
<path d="M48 0V2H202V0V-2H48V0ZM250 48H248V202H250H252V48H250ZM202 250V248H48V250V252H202V250ZM0 202H2V48H0H-2V202H0ZM48 250V248C22.5949 248 2 227.405 2 202H0H-2C-2 229.614 20.3858 252 48 252V250ZM250 202H248C248 227.405 227.405 248 202 248V250V252C229.614 252 252 229.614 252 202H250ZM202 0V2C227.405 2 248 22.5949 248 48H250H252C252 20.3858 229.614 -2 202 -2V0ZM48 0V-2C20.3858 -2 -2 20.3858 -2 48H0H2C2 22.5949 22.5949 2 48 2V0Z" fill="#DDDBDB" mask="url(#path-1-inside-1_769_429)"/>
<path d="M57.4246 133.66L55 153.055C76.6257 139.866 108.621 140.044 121.915 141.782C122.36 139.074 122.93 132.175 123.734 124.204C96.8708 121.489 68.3347 129.377 57.4246 133.66Z" fill="#04AEED"/>
<path d="M63.3347 100.905L60.9102 120.301C82.5359 107.111 114.531 107.289 127.826 109.027C128.27 106.32 128.841 99.42 129.644 91.4496C102.781 88.7342 74.2449 96.6217 63.3347 100.905Z" fill="#04AEED"/>
<path d="M194.999 99.7749C175.557 112.168 142.934 111.002 129.053 108.87C129.053 109.676 128.712 114.413 127.348 126.92C159.525 129.422 185.856 120.856 194.999 116.261C194.952 115.361 194.886 110.804 194.999 99.7749Z" fill="#3D3F96"/>
<path d="M120.668 158.757L123.512 140.564C158.304 145.226 182.446 135.495 190.168 130.047C189.978 131.658 189.287 137.523 188.036 148.097C163.591 159.126 132.938 159.799 120.668 158.757Z" fill="#3D3F96"/>
</svg>
