<svg width="250" height="250" viewBox="0 0 250 250" fill="none" xmlns="http://www.w3.org/2000/svg">
<mask id="path-1-inside-1_769_431" fill="white">
<path d="M0 48C0 21.4903 21.4903 0 48 0H202C228.51 0 250 21.4903 250 48V202C250 228.51 228.51 250 202 250H48C21.4903 250 0 228.51 0 202V48Z"/>
</mask>
<path d="M0 48C0 21.4903 21.4903 0 48 0H202C228.51 0 250 21.4903 250 48V202C250 228.51 228.51 250 202 250H48C21.4903 250 0 228.51 0 202V48Z" fill="white"/>
<path d="M48 0V2H202V0V-2H48V0ZM250 48H248V202H250H252V48H250ZM202 250V248H48V250V252H202V250ZM0 202H2V48H0H-2V202H0ZM48 250V248C22.5949 248 2 227.405 2 202H0H-2C-2 229.614 20.3858 252 48 252V250ZM250 202H248C248 227.405 227.405 248 202 248V250V252C229.614 252 252 229.614 252 202H250ZM202 0V2C227.405 2 248 22.5949 248 48H250H252C252 20.3858 229.614 -2 202 -2V0ZM48 0V-2C20.3858 -2 -2 20.3858 -2 48H0H2C2 22.5949 22.5949 2 48 2V0Z" fill="#DDDBDB" mask="url(#path-1-inside-1_769_431)"/>
<path d="M161.476 91.2342C164.243 91.234 173.698 93.7706 178.079 95.0389V70.5564C163.941 66.5702 140.699 64.5246 130.845 64V111.861C140.076 111.966 155.222 114.614 161.641 115.926V150.444C161.641 153.325 160.103 155.988 157.608 157.429L146.142 164.049L146.144 141.562H130.846C130.846 149.254 130.845 170.526 130.845 193.814C154.578 179.915 173.921 162.72 176.465 159.835C178.402 158.083 178.348 155.185 178.079 153.955V113.026C178.079 108.644 178.079 107.261 174.621 106.108C171.854 105.186 154.482 102.495 146.142 101.266V77.5146C149.278 76.9612 157.672 78.283 161.476 79.0132V91.2342Z" fill="#666666"/>
<path fill-rule="evenodd" clip-rule="evenodd" d="M118.768 64.1018C118.768 82.0769 118.697 95.979 118.697 104.992C118.697 111.265 115.539 112.84 106.484 118.702C111.521 123.115 119.395 127.289 119.395 135.071V194C119.395 194 110.258 188.244 104.612 184.984C104.612 166.785 103.992 141.671 103.992 141.671C103.839 138.734 102.284 132.058 97.2856 128.854C92.2872 125.65 89.3285 124.102 88.474 123.728V173.072C84.2551 169.735 75.0484 162.018 71.9723 157.853C71.9723 146.766 71.8461 94.5678 71.7832 70.1188C79.4837 68.175 99.7179 64.8833 118.768 64.1018ZM103.935 77.5417C99.0031 77.5417 91.6046 78.2757 88.5218 78.6427L88.7987 112.291C97.6057 112.291 103.184 102.111 103.935 99.306C104.961 95.4768 104.038 85.9069 103.935 77.5417Z" fill="#0795E4"/>
</svg>
