<svg width="250" height="250" viewBox="0 0 250 250" fill="none" xmlns="http://www.w3.org/2000/svg">
<path d="M0 48C0 21.4903 21.4903 0 48 0H202C228.51 0 250 21.4903 250 48V202C250 228.51 228.51 250 202 250H48C21.4903 250 0 228.51 0 202V48Z" fill="#25214F"/>
<path d="M122.807 55.7397C122.807 55.7397 111.113 62.6587 102.956 72.1296C94.7919 81.6004 87.002 94.1067 87.002 94.1067C87.002 94.1067 99.083 99.5452 106.046 106.94C114.083 115.199 122.814 126.775 122.814 136.127C122.807 145.478 122.807 55.7397 122.807 55.7397Z" fill="#D9AC0A"/>
<path d="M125.017 55.7397C125.017 55.7397 136.711 62.6587 144.867 72.1296C153.024 81.6004 160.822 94.1141 160.822 94.1141C160.822 94.1141 148.741 99.5526 141.778 106.948C133.741 115.206 125.01 126.782 125.01 136.134C125.01 145.478 125.017 55.7397 125.017 55.7397Z" fill="#D9AC0A"/>
<path d="M160.438 174.835V184.18H91.9916V174.835H89.4316V194.26H162.997V174.835H160.438Z" fill="#D9AC0B"/>
</svg>
