<svg width="250" height="250" viewBox="0 0 250 250" fill="none" xmlns="http://www.w3.org/2000/svg">
<mask id="path-1-inside-1_769_435" fill="white">
<path d="M0 48C0 21.4903 21.4903 0 48 0H202C228.51 0 250 21.4903 250 48V202C250 228.51 228.51 250 202 250H48C21.4903 250 0 228.51 0 202V48Z"/>
</mask>
<path d="M0 48C0 21.4903 21.4903 0 48 0H202C228.51 0 250 21.4903 250 48V202C250 228.51 228.51 250 202 250H48C21.4903 250 0 228.51 0 202V48Z" fill="white"/>
<path d="M48 0V2H202V0V-2H48V0ZM250 48H248V202H250H252V48H250ZM202 250V248H48V250V252H202V250ZM0 202H2V48H0H-2V202H0ZM48 250V248C22.5949 248 2 227.405 2 202H0H-2C-2 229.614 20.3858 252 48 252V250ZM250 202H248C248 227.405 227.405 248 202 248V250V252C229.614 252 252 229.614 252 202H250ZM202 0V2C227.405 2 248 22.5949 248 48H250H252C252 20.3858 229.614 -2 202 -2V0ZM48 0V-2C20.3858 -2 -2 20.3858 -2 48H0H2C2 22.5949 22.5949 2 48 2V0Z" fill="#DDDBDB" mask="url(#path-1-inside-1_769_435)"/>
<path d="M133.202 176.657C94.2918 188.749 68.3518 156.821 68.3518 156.821C111.767 155.279 148.079 141.18 175.545 118.673C175.545 118.673 175.545 163.498 133.202 176.657Z" fill="#2F2E93"/>
<path d="M165.245 70.6079C146.172 125.158 103.447 146.139 55 155.676C116.798 166.739 177.452 120.962 195 72.8967L165.245 70.6079Z" fill="#2F2E93"/>
<path d="M133.201 76.7112C122.919 109.667 105.929 126.012 62.2477 152.624C114.689 136.462 135.97 120.264 160.286 79.3815L133.201 76.7112Z" fill="#2F2E93"/>
<path d="M126.717 86.2483C113.977 111.88 100.618 125.177 66.4442 146.902C92.0451 118.712 100.777 105.322 107.262 83.1965L126.717 86.2483Z" fill="#01A54E"/>
</svg>
