<svg width="250" height="250" viewBox="0 0 250 250" fill="none" xmlns="http://www.w3.org/2000/svg">
<rect width="250" height="250" fill="white"/>
<path d="M133.202 176.657C94.2918 188.749 68.3518 156.82 68.3518 156.82C111.767 155.279 148.079 141.18 175.545 118.673C175.545 118.673 175.545 163.498 133.202 176.657Z" fill="#2F2E93"/>
<path d="M165.245 70.6074C146.172 125.158 103.447 146.139 55 155.676C116.798 166.738 177.452 120.962 195 72.8963L165.245 70.6074Z" fill="#2F2E93"/>
<path d="M133.201 76.7107C122.919 109.667 105.929 126.012 62.2477 152.624C114.689 136.462 135.97 120.263 160.286 79.381L133.201 76.7107Z" fill="#2F2E93"/>
<path d="M126.717 86.2478C113.977 111.88 100.618 125.177 66.4442 146.902C92.0451 118.711 100.777 105.321 107.262 83.196L126.717 86.2478Z" fill="#01A54E"/>
</svg>
