<svg width="250" height="250" viewBox="0 0 250 250" fill="none" xmlns="http://www.w3.org/2000/svg">
<path d="M0 48C0 21.4903 21.4903 0 48 0H202C228.51 0 250 21.4903 250 48V202C250 228.51 228.51 250 202 250H48C21.4903 250 0 228.51 0 202V48Z" fill="#17171A"/>
<path d="M101.716 106.967C101.881 106.957 102.047 106.948 102.212 106.941C106.516 106.738 112.216 106.91 116.655 106.909L162.89 106.905C166.066 106.905 169.543 106.765 172.672 107.046C175.825 107.329 177.852 110.507 177.875 113.457C177.931 120.67 175.016 128.143 170.118 133.408C165.574 138.377 159.497 141.68 152.857 142.789C151.149 143.061 149.572 143.113 147.844 143.178C144.432 143.261 140.816 143.173 137.368 143.187L104.146 143.178L87.0917 143.208C83.9066 143.211 80.6155 143.306 77.4501 143.04C74.3521 142.78 72.1328 139.892 72.1574 136.878C72.2939 120.186 85.1099 107.454 101.716 106.967Z" fill="#262628"/>
<path d="M78.4743 65.1515C79.5285 65.0372 81.17 65.0776 82.2562 65.0779L136.549 65.0777C141.63 65.0755 147.911 64.7297 152.817 65.5099C165.571 67.538 175.824 77.6124 177.559 90.4985C178.293 95.9544 178.106 100.264 171.765 101.179C166.533 101.323 160.618 101.206 155.34 101.202L110.162 101.204C105.504 101.208 100.198 101.449 95.6891 100.479C90.3951 99.3257 85.5145 96.7546 81.5697 93.0406C75.9254 87.7768 72.5041 80.2934 72.1459 72.5599C72.0387 70.2426 72.301 68.7709 73.9282 67.0234C75.1326 65.7298 76.7311 65.2093 78.4743 65.1515Z" fill="#262628"/>
<path d="M119.343 149.077C120.742 148.956 123.216 149.029 124.677 149.031L134.133 149.041L143.99 149.035C146.334 149.032 149.226 148.962 151.515 149.218C156.378 149.76 161.434 151.766 165.391 154.615C171.925 159.3 176.291 166.426 177.498 174.376C178.249 179.08 178.157 184.012 172.315 184.894C169.455 185.063 166.898 184.986 164.053 184.957L156.13 184.943C153.537 184.93 150.944 184.936 148.35 184.96C141.035 185.041 136.59 184.895 129.877 181.542C121.363 177.288 116.007 169.575 114.312 160.249C113.456 155.539 113.31 150.077 119.343 149.077Z" fill="#262628"/>
<path d="M100.563 111.231C101.336 111.141 103.05 111.174 103.849 111.175L109.698 111.182L160.725 111.184L168.086 111.171C169.387 111.168 171.002 111.108 172.281 111.282C172.92 111.369 173.378 112.142 173.693 112.664C174.148 118.169 171.455 125.34 167.904 129.518C162.95 135.345 157.266 138.169 149.782 138.939C143.865 139.144 137.481 139.019 131.527 139.017L85.8425 139.019C83.7525 139.019 79.0149 139.173 77.1914 138.716C76.7054 138.242 76.3331 137.423 76.342 136.735C76.521 122.861 86.9601 112.262 100.563 111.231Z" fill="#FEFEFE"/>
<path d="M78.0401 69.3902C81.7826 69.1804 87.2082 69.351 91.0434 69.3523L137.866 69.3522C144.228 69.352 152.649 68.7851 158.485 71.4006C164.74 74.2024 169.618 79.3842 172.037 85.7965C173.102 88.6183 173.804 92.1016 173.698 95.1717C173.669 96.055 172.984 96.6369 172.177 96.9212C169.655 97.1302 165.134 96.9947 162.485 96.9944L116.431 96.9962C111.505 96.9962 106.524 97.0343 101.604 96.9642C94.6589 96.8652 88.0087 93.8758 83.2511 88.7671C78.6119 83.8186 76.1378 77.2242 76.3772 70.4453C77.0166 69.8222 77.2422 69.6674 78.0401 69.3902Z" fill="#FEFEFE"/>
<path d="M119.481 153.234C127.734 153.078 136.049 153.308 144.308 153.206C146.842 153.175 149.484 153.13 151.987 153.515C154.728 153.944 157.38 154.821 159.835 156.112C165.89 159.26 170.446 164.684 172.503 171.19C173.18 173.333 174.327 178.314 173.299 180.3L172.179 180.731C169.874 180.988 164.875 180.846 162.422 180.845L145.536 180.843C142.999 180.822 139.273 180.633 136.809 180.023C132.788 179.027 128.254 176.267 125.405 173.281C120.384 168.021 117.989 161.791 118.079 154.584C118.556 153.862 118.717 153.619 119.481 153.234Z" fill="#FEFEFE"/>
</svg>
