<svg width="250" height="250" viewBox="0 0 250 250" fill="none" xmlns="http://www.w3.org/2000/svg">
<mask id="path-1-inside-1_769_439" fill="white">
<path d="M0 48C0 21.4903 21.4903 0 48 0H202C228.51 0 250 21.4903 250 48V202C250 228.51 228.51 250 202 250H48C21.4903 250 0 228.51 0 202V48Z"/>
</mask>
<path d="M0 48C0 21.4903 21.4903 0 48 0H202C228.51 0 250 21.4903 250 48V202C250 228.51 228.51 250 202 250H48C21.4903 250 0 228.51 0 202V48Z" fill="white"/>
<path d="M48 0V2H202V0V-2H48V0ZM250 48H248V202H250H252V48H250ZM202 250V248H48V250V252H202V250ZM0 202H2V48H0H-2V202H0ZM48 250V248C22.5949 248 2 227.405 2 202H0H-2C-2 229.614 20.3858 252 48 252V250ZM250 202H248C248 227.405 227.405 248 202 248V250V252C229.614 252 252 229.614 252 202H250ZM202 0V2C227.405 2 248 22.5949 248 48H250H252C252 20.3858 229.614 -2 202 -2V0ZM48 0V-2C20.3858 -2 -2 20.3858 -2 48H0H2C2 22.5949 22.5949 2 48 2V0Z" fill="#DDDBDB" mask="url(#path-1-inside-1_769_439)"/>
<path d="M153.107 185.152H118.893V150.877C118.893 128.256 137.746 109.748 160.789 109.748H195.003V144.022C195.003 166.644 176.15 185.152 153.107 185.152Z" fill="#6E94E8"/>
<path d="M141.586 161.846H86.4236C68.9672 161.846 55.002 148.135 55.002 130.998V95.6954C55.002 78.558 68.9672 64.8481 86.4236 64.8481H141.935C159.392 64.8481 173.357 78.558 173.357 95.6954V131.341C173.008 148.135 159.043 161.846 141.586 161.846Z" fill="#034EA2"/>
<path d="M145.079 142.309C148.742 142.309 151.712 139.394 151.712 135.797C151.712 132.201 148.742 129.285 145.079 129.285C141.415 129.285 138.445 132.201 138.445 135.797C138.445 139.394 141.415 142.309 145.079 142.309Z" fill="white"/>
</svg>
