<svg width="250" height="250" viewBox="0 0 250 250" fill="none" xmlns="http://www.w3.org/2000/svg">
<path d="M0 48C0 21.4903 21.4903 0 48 0H202C228.51 0 250 21.4903 250 48V202C250 228.51 228.51 250 202 250H48C21.4903 250 0 228.51 0 202V48Z" fill="#038682"/>
<path d="M105.252 109.878L107.268 109.747C108.158 110.447 110.302 111.754 111.31 112.412L119.876 117.975C128.229 123.431 136.547 128.941 144.828 134.506C148.004 136.672 151.415 138.53 154.366 141.1C156.306 142.789 157.279 144.471 158.465 146.597C160.865 150.899 160.676 160.93 158.856 165.327C153.807 177.524 130.993 190.108 119.713 195.345C117.911 195.062 116.091 194.978 114.265 194.627C111.749 190.712 108.819 186.567 106.191 182.687L92.0217 161.571C92.3241 160.205 92.7813 158.643 93.1508 157.274C94.0027 154.119 94.8742 150.969 95.7652 147.824C96.313 145.89 97.3345 142.118 98.2363 140.433C98.799 139.387 99.5879 138.479 100.545 137.775C102.29 136.511 104.391 136.187 106.5 136.465C110.343 136.97 112.403 142.975 111.699 146.294C110.704 150.982 109.489 155.633 108.63 160.388C109.717 162.085 111.119 163.863 112.282 165.542C115.454 170.124 119.014 174.686 122.13 179.283C123.25 178.344 125.493 176.937 126.8 176.044C130.295 173.649 133.757 171.204 137.184 168.712C138.885 167.474 140.753 166.132 142.368 164.804C145.758 162.015 144.56 155.024 143.274 151.473C142.415 150.649 140.071 149.144 139.02 148.435C136.526 146.726 134.02 145.035 131.502 143.362C128.788 141.531 126.103 139.678 123.377 137.862C121.807 136.816 119.939 135.82 118.428 134.778C111.597 130.07 104.56 125.545 97.7375 120.843C97.2315 117.625 96.8228 113.857 96.4375 110.594C98.8531 110.534 102.721 110.082 105.252 109.878Z" fill="#FEFEFE"/>
<path d="M132.111 54.6683C132.671 54.5627 136.528 55.1313 137.383 55.2278C143.46 66.9876 149.147 79.1594 155.253 90.8896C153.98 95.386 152.736 99.8904 151.52 104.402C150.943 106.552 149.452 113.319 148.524 114.826C147.28 116.848 144.662 118.567 142.394 119.102L142.292 119.073C135.304 117.065 136.051 111.308 137.356 105.481C138.361 100.994 139.692 96.5848 140.993 92.1766C138.623 87.171 136.191 82.1575 133.675 77.2249C133.085 76.067 131.404 72.2446 130.82 71.3742C130.453 71.273 130.492 71.348 130.075 71.5657C125.737 73.4606 121.265 75.8332 116.906 77.7634C115.151 78.5403 113.274 79.5609 111.501 80.2172C110.947 81.5401 110.237 83.9926 109.781 85.4375L106.862 94.7425C106.305 96.5363 105.71 98.8392 104.857 100.474C103.184 103.683 99.7686 107.588 95.7109 106.579C92.9529 105.893 91.1372 103.218 89.7557 100.954C90.102 99.493 91.1153 96.6666 91.603 95.1595C92.9862 90.8385 94.4036 86.5284 95.8548 82.2297C96.5583 80.0844 97.2481 77.9346 97.9244 75.7805C98.3354 74.4831 98.9157 72.396 99.534 71.2851C100.721 70.5176 102.438 69.6945 103.736 69.0362L110.836 65.4804C117.955 61.9315 125.047 58.3274 132.111 54.6683Z" fill="#FEFEFE"/>
</svg>
