<svg width="250" height="250" viewBox="0 0 250 250" fill="none" xmlns="http://www.w3.org/2000/svg">
<path d="M0 48C0 21.4903 21.4903 0 48 0H202C228.51 0 250 21.4903 250 48V202C250 228.51 228.51 250 202 250H48C21.4903 250 0 228.51 0 202V48Z" fill="#15233C"/>
<path d="M91.3688 60.7163L153.413 60.7047L168.512 60.6957C170.95 60.6923 175.35 60.5608 177.584 60.9325C180.597 61.4104 183.377 62.8413 185.517 65.0152C187.824 67.3278 189.801 70.8805 189.82 74.2008C190.134 76.7183 189.941 83.0834 189.941 85.941L189.952 109.58L189.949 147.327L189.948 159.408C189.948 161.296 190.024 163.944 189.927 165.755C190.013 168.955 190.055 172.494 189.861 175.654C189.403 183.107 182.558 189.333 175.124 189.245C171.922 189.207 168.067 189.469 164.919 189.221C161.202 189.405 155.74 189.251 151.907 189.253H126.436L92.614 189.248C86.5572 189.248 80.0442 189.363 74.0153 189.198C70.3254 188.976 66.8514 187.384 64.2733 184.735C62.1602 182.589 60.7497 179.852 60.229 176.886C59.9105 175.016 60.0173 169.873 60.0169 167.781L60.0183 151.036L60.0555 92.8369C59.9905 91.7398 60.0199 90.4886 60.0196 89.3796L60.0233 80.4546C60.0229 74.5845 59.8085 69.6933 64.3813 65.1047C69.2255 60.2438 74.548 60.7219 80.8034 60.7099L91.3688 60.7163Z" fill="url(#paint0_linear_769_453)"/>
<path d="M155.38 115.104C141.617 107.305 130.453 91.3715 126.841 76.129C125.975 72.477 125.649 68.596 125.088 65.0405C124.839 66.8939 124.557 68.8723 124.292 70.7619C122.534 80.0854 119.945 87.5197 114.675 95.5587C103.094 113.225 84.8154 123.306 63.979 124.965L64.0744 124.991C68.0184 125.472 71.8662 125.817 75.7426 126.807C88.0058 129.836 99.1304 136.351 107.773 145.563C109.865 147.776 112.895 151.414 114.417 154.052C114.955 154.649 116.691 157.638 117.115 158.411C121.684 166.653 124.342 175.816 124.893 185.224C125.41 183.323 125.858 178.314 126.369 175.841C128.518 165.887 133.009 156.588 139.469 148.715C148.187 138.121 160.02 130.54 173.289 127.05C177.731 125.918 181.762 125.434 186.286 125.004C175.581 123.951 164.375 121.302 155.38 115.104Z" fill="#15233C"/>
<defs>
<linearGradient id="paint0_linear_769_453" x1="63.4382" y1="60.6704" x2="190" y2="198.066" gradientUnits="userSpaceOnUse">
<stop stop-color="#47AF00"/>
<stop offset="0.420869" stop-color="#F0D713"/>
<stop offset="1" stop-color="#FC7D0B"/>
</linearGradient>
</defs>
</svg>
