<svg width="250" height="250" viewBox="0 0 250 250" fill="none" xmlns="http://www.w3.org/2000/svg">
<mask id="path-1-inside-1_769_455" fill="white">
<path d="M0 48C0 21.4903 21.4903 0 48 0H202C228.51 0 250 21.4903 250 48V202C250 228.51 228.51 250 202 250H48C21.4903 250 0 228.51 0 202V48Z"/>
</mask>
<path d="M0 48C0 21.4903 21.4903 0 48 0H202C228.51 0 250 21.4903 250 48V202C250 228.51 228.51 250 202 250H48C21.4903 250 0 228.51 0 202V48Z" fill="white"/>
<path d="M48 0V2H202V0V-2H48V0ZM250 48H248V202H250H252V48H250ZM202 250V248H48V250V252H202V250ZM0 202H2V48H0H-2V202H0ZM48 250V248C22.5949 248 2 227.405 2 202H0H-2C-2 229.614 20.3858 252 48 252V250ZM250 202H248C248 227.405 227.405 248 202 248V250V252C229.614 252 252 229.614 252 202H250ZM202 0V2C227.405 2 248 22.5949 248 48H250H252C252 20.3858 229.614 -2 202 -2V0ZM48 0V-2C20.3858 -2 -2 20.3858 -2 48H0H2C2 22.5949 22.5949 2 48 2V0Z" fill="#DDDBDB" mask="url(#path-1-inside-1_769_455)"/>
<path fill-rule="evenodd" clip-rule="evenodd" d="M114.401 57.9787C102.839 64.2194 83.6872 71.7112 68.92 72.5632C65.5212 97.5913 73.9411 129.082 78.5759 141.699C108.239 129.031 136.511 126.121 146.94 126.25C121.41 133.293 98.0393 148.557 88.1438 156.361C87.2823 157.04 87.0521 158.236 87.5824 159.196C99.0793 180.022 114.386 188.978 124.924 195C167.838 173.92 182.868 124.589 181.816 98.4997C181.764 97.2076 181.164 96.005 179.93 95.6209C171.522 93.0054 139.661 94.0277 123.379 94.9648C128.323 88.476 163.805 82.219 180.928 79.9016V71.4045C163.558 70.2065 145.955 62.5061 133.162 56.5867C127.239 53.8461 120.144 54.8789 114.401 57.9787ZM92.0943 72.5631L89.7768 84.1502L79.7347 86.4676L89.3906 89.1712L91.708 100.372L93.6392 89.1712L103.295 86.8538L93.6392 84.1502L92.0943 72.5631ZM82.4199 99.5973L81.3932 105.017L76.717 106.146L81.2368 107.362L82.3716 112.579L83.2198 107.342L87.7158 106.215L83.196 104.998L82.4199 99.5973ZM101.545 99.8387L102.17 96.5421L102.642 99.8274L105.391 100.567L102.656 101.253L102.14 104.439L101.45 101.266L98.7005 100.526L101.545 99.8387Z" fill="#F0B929"/>
</svg>
