<svg width="250" height="250" viewBox="0 0 250 250" fill="none" xmlns="http://www.w3.org/2000/svg">
<mask id="path-1-inside-1_769_457" fill="white">
<path d="M0 48C0 21.4903 21.4903 0 48 0H202C228.51 0 250 21.4903 250 48V202C250 228.51 228.51 250 202 250H48C21.4903 250 0 228.51 0 202V48Z"/>
</mask>
<path d="M0 48C0 21.4903 21.4903 0 48 0H202C228.51 0 250 21.4903 250 48V202C250 228.51 228.51 250 202 250H48C21.4903 250 0 228.51 0 202V48Z" fill="white"/>
<path d="M48 0V2H202V0V-2H48V0ZM250 48H248V202H250H252V48H250ZM202 250V248H48V250V252H202V250ZM0 202H2V48H0H-2V202H0ZM48 250V248C22.5949 248 2 227.405 2 202H0H-2C-2 229.614 20.3858 252 48 252V250ZM250 202H248C248 227.405 227.405 248 202 248V250V252C229.614 252 252 229.614 252 202H250ZM202 0V2C227.405 2 248 22.5949 248 48H250H252C252 20.3858 229.614 -2 202 -2V0ZM48 0V-2C20.3858 -2 -2 20.3858 -2 48H0H2C2 22.5949 22.5949 2 48 2V0Z" fill="#DDDBDB" mask="url(#path-1-inside-1_769_457)"/>
<path d="M130.742 55L78.8154 106.927C65.6188 120.123 65.6188 141.519 78.8154 154.715L79.7442 155.644C86.1352 162.035 96.4976 162.035 102.889 155.644L125.576 132.956L124.648 132.028C118.257 125.637 107.896 125.637 101.505 132.027L130.742 102.789C143.939 89.5928 143.939 68.1966 130.742 55Z" fill="#061870"/>
<path d="M171.182 95.2846L170.254 94.3558C163.863 87.9648 153.5 87.9648 147.109 94.3558L123.8 117.665L124.728 118.594C131.119 124.985 141.481 124.985 147.872 118.595L119.255 147.212C106.059 160.408 106.059 181.803 119.255 195L171.182 143.073C184.379 129.877 184.379 108.481 171.182 95.2846Z" fill="#F9AE0C"/>
</svg>
