<svg width="250" height="250" viewBox="0 0 250 250" fill="none" xmlns="http://www.w3.org/2000/svg">
<mask id="path-1-inside-1_769_458" fill="white">
<path d="M0 48C0 21.4903 21.4903 0 48 0H202C228.51 0 250 21.4903 250 48V202C250 228.51 228.51 250 202 250H48C21.4903 250 0 228.51 0 202V48Z"/>
</mask>
<path d="M0 48C0 21.4903 21.4903 0 48 0H202C228.51 0 250 21.4903 250 48V202C250 228.51 228.51 250 202 250H48C21.4903 250 0 228.51 0 202V48Z" fill="white"/>
<path d="M48 0V2H202V0V-2H48V0ZM250 48H248V202H250H252V48H250ZM202 250V248H48V250V252H202V250ZM0 202H2V48H0H-2V202H0ZM48 250V248C22.5949 248 2 227.405 2 202H0H-2C-2 229.614 20.3858 252 48 252V250ZM250 202H248C248 227.405 227.405 248 202 248V250V252C229.614 252 252 229.614 252 202H250ZM202 0V2C227.405 2 248 22.5949 248 48H250H252C252 20.3858 229.614 -2 202 -2V0ZM48 0V-2C20.3858 -2 -2 20.3858 -2 48H0H2C2 22.5949 22.5949 2 48 2V0Z" fill="#DDDBDB" mask="url(#path-1-inside-1_769_458)"/>
<path d="M91.2638 55.222C93.9958 54.8233 98.8054 55.0817 101.641 55.0894L119.31 55.0975L144.519 55.0835C150.336 55.0772 157.098 54.7449 162.729 55.7762C175.908 58.1897 187.977 70.8381 188.969 84.3496C189.336 89.3551 189.188 94.7006 189.187 99.7142L189.184 126.839L189.188 151.383C189.194 155.837 189.42 163.346 188.696 167.49C187.689 173.056 185.267 178.27 181.664 182.63C175.676 189.886 168.184 193.896 158.849 194.786C157.356 195.145 151.797 194.944 150.108 194.937L134.824 194.923L106.439 194.938C100.457 194.944 93.4252 195.283 87.6248 194.312C74.1058 192.048 62.3288 179.203 61.0504 165.586C60.626 161.065 60.8287 155.669 60.8289 151.045L60.8313 125.796L60.8287 99.4783C60.8142 87.8855 59.7268 77.5648 67.8187 68.0173C74.4539 60.1884 81.0098 56.2868 91.2638 55.222Z" fill="#E41F24"/>
<path d="M124.82 110.379C141.788 109.017 165.928 116.431 174.34 132.378C178.958 141.135 179.199 150.734 176.294 160.108C173.361 169.569 165.785 175.764 157.117 180.074C139.932 188.192 118.398 188.471 100.545 182.38C90.913 179.095 79.6361 172.098 75.1179 162.692C71.9063 155.5 71.3675 152.563 71.3955 144.699C79.25 146.233 88.4163 147.429 96.3792 148.318C113.564 150.29 130.852 151.212 148.149 151.077C149.597 151.068 156.295 151.129 157.142 150.735L157.238 150.328C156.655 148.557 151.826 146.641 150.118 145.84C134.51 138.52 117.587 134.381 100.894 130.349C97.916 129.629 91.8857 127.84 89.0039 127.72C98.0305 117.325 111.193 111.399 124.82 110.379Z" fill="white"/>
<path d="M121.292 64.6812C121.758 64.6257 122.324 64.6308 122.791 64.6105C142.314 63.7643 166.833 69.2273 171.454 91.5369C172.11 94.7031 172.36 97.4971 172.483 100.753L138.54 102.579C138.392 96.7878 137.185 82.8494 133.547 78.4846C130.223 85.2434 128.338 88.915 123.777 95.0064C114.912 106.366 103.968 113.956 90.7168 119.217C88.4538 120.116 85.1737 121.036 83.1246 122.149C78.2506 114.922 75.8162 109.154 75.1223 100.428C73.0085 73.8488 99.4989 66.2394 121.292 64.6812Z" fill="white"/>
</svg>
