<svg width="250" height="250" viewBox="0 0 250 250" fill="none" xmlns="http://www.w3.org/2000/svg">
<rect width="250" height="250" fill="white"/>
<path d="M187.513 106.141C187.954 106.567 189.02 108.604 189.325 109.239C190.994 112.71 192.008 116.451 192.918 120.176C196.088 133.147 195.715 146.923 191.232 159.569C184.693 177.581 171.252 192.248 153.88 200.332C142.35 205.94 129.423 208.021 116.717 206.316C114.16 205.947 110.729 205.255 108.292 204.388C106.563 200.095 105.658 196.535 105.499 191.848C105.33 186.903 106.635 180.696 109.011 176.344C110.739 173.18 114.962 168.647 117.44 166.008C124.352 158.644 131.884 151.703 139.101 144.617C141.519 142.243 143.75 139.664 146.104 137.227C149.579 133.632 153.323 130.117 156.741 126.492C155.844 125.478 154.868 124.488 154.225 123.313C154.135 123.132 154.059 122.957 153.977 122.773L154.086 122.545C159.216 121.086 164.574 119.919 169.744 118.559C171.748 118.032 174.017 117.58 175.973 116.974L172.007 131.563C171.407 133.764 170.479 136.804 170.063 138.953C168.627 138.142 167.592 136.935 166.062 135.978C156.814 145.025 147.614 154.119 138.461 163.262C133.185 168.451 127.089 173.512 122.695 179.472C119.124 184.315 117.838 188.014 118.756 193.956C125.227 194.959 131.614 194.422 137.968 192.906C153.109 189.323 166.207 179.876 174.386 166.639C181.843 154.48 185.018 137.959 180.928 124.077C180.035 121.045 179.233 117.91 178.497 114.837C181.116 111.966 184.295 108.333 187.513 106.141Z" fill="#002164"/>
<path d="M193.116 43.1128L193.279 43.1055C193.472 43.3768 187.879 62.5845 187.537 64.6699C186.154 63.8072 184.82 62.8674 183.542 61.8552C182.578 62.9733 181.151 64.2815 180.075 65.3371L174.864 70.5322C168.492 76.9539 162.068 83.324 155.593 89.6416L113.069 132.086C109.182 135.964 105.217 139.752 101.33 143.624C92.5468 152.374 83.3712 161.886 80.9498 174.522C82.0117 175.253 83.4921 176.368 83.6002 177.736C83.8097 180.383 83.1861 183.385 82.8724 186.029C82.6411 187.932 82.5039 189.844 82.4615 191.76C80.0553 190.454 77.7859 188.274 75.7606 186.418C73.3593 184.212 66.5261 177.205 67.212 173.84C69.0165 164.989 74.5087 154.818 79.9006 147.605C82.838 143.676 86.3096 140.319 89.6251 137.011C93.1569 133.482 96.7223 129.986 100.321 126.525C110.717 116.455 121.034 106.304 131.271 96.0729C135.098 92.2279 138.788 88.2472 142.549 84.3676L162.772 63.8804C164.981 61.6871 167.175 59.479 169.354 57.2567C170.659 55.9216 172.869 53.5639 174.264 52.4404C172.574 51.1183 172.107 50.4906 171.14 48.6739C174.089 47.694 179.178 46.5819 182.277 45.7757C185.066 45.05 190.372 43.5543 193.116 43.1128Z" fill="#002164"/>
<path d="M183.605 80.8013L183.798 80.9074C183.762 81.5951 182.411 86.8615 182.182 87.7957L180.251 95.6554C179.694 97.9276 179.253 100.712 177.879 102.607C176.698 101.685 175.563 100.706 174.478 99.6714C171.104 102.168 167.681 105.717 164.686 108.722L152.363 121.164L111.311 162.061C103.8 169.532 98.7687 177.315 98.7428 188.219C99.9238 188.728 101.202 189.351 102.279 190.047C103.081 193.771 103.801 199.324 104.411 203.17C100.906 202.417 98.3445 201.358 95.1106 199.893C91.6816 198.246 88.5323 196.547 85.4561 194.311L85.4409 194.134C83.2398 168.253 100.062 154.692 116.743 138.236L145.912 109.289C151.984 103.298 159.494 96.417 164.924 89.9816C164.063 89.1174 163.004 87.7622 162.264 86.7984C164.955 85.5171 169.013 84.465 171.977 83.685C175.842 82.678 179.718 81.7167 183.605 80.8013Z" fill="#C60D10"/>
<path d="M125.738 67.194C131.38 67.0721 140.817 67.5433 145.781 70.6314C144.676 72.5325 138.471 78.9285 136.82 79.9581C136.154 80.3732 128.057 79.3811 126.087 79.3223C116.942 79.0867 107.879 81.0974 99.6915 85.1783C74.8506 97.4524 61.7355 125.022 69.4836 151.834C70.8023 156.396 70.1174 157.346 68.6422 161.697C67.4279 165.196 66.094 168.652 64.6427 172.06C64.1806 171.226 63.6683 170.386 63.1854 169.558C57.8176 160.367 55.3312 150.16 55.0198 139.56C54.5463 120.724 61.4998 102.459 74.3787 88.7064C83.0956 79.4742 95.0574 72.4648 107.419 69.4215C113.341 67.9635 119.649 67.3728 125.738 67.194Z" fill="#002164"/>
</svg>
