<svg width="250" height="250" viewBox="0 0 250 250" fill="none" xmlns="http://www.w3.org/2000/svg">
<mask id="path-1-inside-1_769_460" fill="white">
<path d="M0 48C0 21.4903 21.4903 0 48 0H202C228.51 0 250 21.4903 250 48V202C250 228.51 228.51 250 202 250H48C21.4903 250 0 228.51 0 202V48Z"/>
</mask>
<path d="M0 48C0 21.4903 21.4903 0 48 0H202C228.51 0 250 21.4903 250 48V202C250 228.51 228.51 250 202 250H48C21.4903 250 0 228.51 0 202V48Z" fill="white"/>
<path d="M48 0V2H202V0V-2H48V0ZM250 48H248V202H250H252V48H250ZM202 250V248H48V250V252H202V250ZM0 202H2V48H0H-2V202H0ZM48 250V248C22.5949 248 2 227.405 2 202H0H-2C-2 229.614 20.3858 252 48 252V250ZM250 202H248C248 227.405 227.405 248 202 248V250V252C229.614 252 252 229.614 252 202H250ZM202 0V2C227.405 2 248 22.5949 248 48H250H252C252 20.3858 229.614 -2 202 -2V0ZM48 0V-2C20.3858 -2 -2 20.3858 -2 48H0H2C2 22.5949 22.5949 2 48 2V0Z" fill="#DDDBDB" mask="url(#path-1-inside-1_769_460)"/>
<path d="M141.37 192.05H127.5C108.272 192.05 89.8315 184.412 76.2349 170.816C62.6382 157.22 54.9991 138.78 54.998 119.552C54.998 73.0346 83.8983 55.0015 119.549 55.0015C159.589 55.0015 191.525 82.3977 192.047 127.5V141.37C191.529 165.347 177.624 192.05 141.37 192.05Z" fill="#F15A01"/>
<path d="M112.668 159.846C101.961 157.252 95.7734 151.472 95.7734 151.472L104.055 137.603C104.055 137.603 113.692 145.782 121.783 145.796C125.378 145.796 132.231 145.454 132.247 138.694C132.247 133.433 124.525 131.045 115.92 126.728C107.24 122.41 102.156 115.631 102.171 108.086C102.184 96.6175 110.785 88.6962 120.524 86.5601C121.428 85.1681 122.733 84.083 124.267 83.448C125.801 82.813 127.491 82.658 129.115 83.0034C130.252 83.2437 131.325 83.7234 132.262 84.4104C133.199 85.0975 133.98 85.9763 134.551 86.9883C139.448 88.0766 144.1 90.0682 148.268 92.861C148.297 92.876 151.274 94.8951 151.274 94.8951L141.607 106.035C141.607 106.035 134.417 101.01 126.945 101.01C122.773 100.995 120.049 102.41 118.928 104.753H118.912C118.514 105.612 118.313 106.549 118.324 107.495C118.324 111.53 125.177 114.435 133.414 117.972C141.504 121.406 150.361 128.273 150.345 137.763C150.32 152.731 140.448 159.271 128.626 160.745C127.785 162.023 126.64 163.073 125.294 163.798C123.947 164.524 122.441 164.904 120.911 164.903C119.204 164.904 117.53 164.433 116.074 163.54C114.619 162.647 113.44 161.369 112.668 159.846Z" fill="white"/>
<path d="M151.274 94.8926L141.608 106.033C141.608 106.033 134.417 101.008 126.946 101.008C122.773 100.993 120.049 102.408 118.928 104.751H118.914C129.174 83.1022 147.06 92.563 148.268 92.8578C148.295 92.8736 151.274 94.8926 151.274 94.8926Z" fill="url(#paint0_linear_769_460)"/>
<defs>
<linearGradient id="paint0_linear_769_460" x1="95.194" y1="74.0751" x2="114.528" y2="128.458" gradientUnits="userSpaceOnUse">
<stop offset="0.141" stop-color="#999999"/>
<stop offset="0.799" stop-color="white"/>
</linearGradient>
</defs>
</svg>
