<svg width="250" height="250" viewBox="0 0 250 250" fill="none" xmlns="http://www.w3.org/2000/svg">
<mask id="path-1-inside-1_769_463" fill="white">
<path d="M0 48C0 21.4903 21.4903 0 48 0H202C228.51 0 250 21.4903 250 48V202C250 228.51 228.51 250 202 250H48C21.4903 250 0 228.51 0 202V48Z"/>
</mask>
<path d="M0 48C0 21.4903 21.4903 0 48 0H202C228.51 0 250 21.4903 250 48V202C250 228.51 228.51 250 202 250H48C21.4903 250 0 228.51 0 202V48Z" fill="white"/>
<path d="M48 0V2H202V0V-2H48V0ZM250 48H248V202H250H252V48H250ZM202 250V248H48V250V252H202V250ZM0 202H2V48H0H-2V202H0ZM48 250V248C22.5949 248 2 227.405 2 202H0H-2C-2 229.614 20.3858 252 48 252V250ZM250 202H248C248 227.405 227.405 248 202 248V250V252C229.614 252 252 229.614 252 202H250ZM202 0V2C227.405 2 248 22.5949 248 48H250H252C252 20.3858 229.614 -2 202 -2V0ZM48 0V-2C20.3858 -2 -2 20.3858 -2 48H0H2C2 22.5949 22.5949 2 48 2V0Z" fill="#DDDBDB" mask="url(#path-1-inside-1_769_463)"/>
<path d="M55.0547 181.029C57.2559 170.873 59.457 160.718 62.1084 148.412C77.8668 148.412 94.2255 146.986 110.234 148.787C129.294 150.913 134.722 159.567 132.996 180.128C107.132 181.254 81.0935 182.355 55.0547 183.48C55.0547 182.68 55.0547 181.854 55.0547 181.029Z" fill="#ED1F25"/>
<path d="M112.562 67.0182C108.585 91.6063 104.783 115.119 101.006 138.506C79.6449 138.081 65.1622 125.199 65.8875 108.19C66.838 86.3284 88.5996 66.2428 112.562 67.0182Z" fill="#ED1F25"/>
<path d="M154.031 108.04C174.642 107.84 186.923 118.521 187.449 135.73C188.124 157.541 168.339 178.677 143.275 180.579C146.877 156.316 150.404 132.528 154.031 108.04Z" fill="#ED1F25"/>
<path d="M122.416 66.293C146.679 66.293 170.242 66.293 195.055 66.293C193.679 76.2232 192.353 85.7283 190.802 96.8842C173.018 96.8842 155.584 98.1599 138.45 96.459C126.018 95.2083 120.84 83.8773 122.416 66.293Z" fill="#ED1F25"/>
<path d="M126.592 107.365C134.346 107.215 140.374 112.468 140.749 119.696C141.075 126.325 134.671 133.354 127.918 133.779C120.714 134.229 113.385 127.501 113.235 120.247C113.06 112.893 118.613 107.54 126.592 107.365Z" fill="#ED1F25"/>
</svg>
