<svg width="250" height="250" viewBox="0 0 250 250" fill="none" xmlns="http://www.w3.org/2000/svg">
<mask id="path-1-inside-1_769_464" fill="white">
<path d="M0 48C0 21.4903 21.4903 0 48 0H202C228.51 0 250 21.4903 250 48V202C250 228.51 228.51 250 202 250H48C21.4903 250 0 228.51 0 202V48Z"/>
</mask>
<path d="M0 48C0 21.4903 21.4903 0 48 0H202C228.51 0 250 21.4903 250 48V202C250 228.51 228.51 250 202 250H48C21.4903 250 0 228.51 0 202V48Z" fill="white"/>
<path d="M48 0V2H202V0V-2H48V0ZM250 48H248V202H250H252V48H250ZM202 250V248H48V250V252H202V250ZM0 202H2V48H0H-2V202H0ZM48 250V248C22.5949 248 2 227.405 2 202H0H-2C-2 229.614 20.3858 252 48 252V250ZM250 202H248C248 227.405 227.405 248 202 248V250V252C229.614 252 252 229.614 252 202H250ZM202 0V2C227.405 2 248 22.5949 248 48H250H252C252 20.3858 229.614 -2 202 -2V0ZM48 0V-2C20.3858 -2 -2 20.3858 -2 48H0H2C2 22.5949 22.5949 2 48 2V0Z" fill="#DDDBDB" mask="url(#path-1-inside-1_769_464)"/>
<path d="M191.844 188.887H58V181.399C58 181.399 88.089 181.426 103.109 181.426L191.844 181.417V188.887Z" fill="#CDB15D"/>
<path d="M124.6 48.8867C126.597 50.055 128.775 51.5749 130.743 52.8436L189.365 90.8194C187.103 90.6568 183.909 90.7489 181.564 90.749L59.9457 90.7587C61.6249 89.8236 64.0169 88.1712 65.6957 87.0815L107.48 59.9626L118.6 52.7655C120.565 51.4926 122.61 50.074 124.6 48.8867Z" fill="#CDB15D"/>
<path d="M59.6843 172.774C64.442 172.874 69.5191 172.783 74.3081 172.779L189.628 172.787L189.605 179.537C183.653 179.758 176.262 179.558 170.225 179.558L84.5898 179.574C76.5202 179.576 67.727 179.752 59.6989 179.544L59.6843 172.774Z" fill="#CDB15D"/>
<path d="M62.9919 100.927L186.308 100.924C186.285 103.229 186.294 105.534 186.335 107.839C172.87 108.024 158.91 107.842 145.409 107.841L62.9781 107.853C63.0109 105.544 63.0155 103.236 62.9919 100.927Z" fill="#CDB15D"/>
<path d="M64.6872 92.3475C75.5174 92.2118 86.6511 92.3368 97.513 92.3364L184.659 92.3333C184.637 94.6289 184.667 96.9266 184.629 99.2239L64.6642 99.2139C64.7948 96.883 64.7236 94.6785 64.6872 92.3475Z" fill="#CDB15D"/>
<path d="M137.278 109.552L154.458 109.532L154.476 112.927L151.192 112.942L151.194 156.365C151.192 158.065 151.252 160.315 151.169 161.984C151.199 163.84 151.207 165.695 151.193 167.551C152.261 167.56 153.399 167.51 154.472 167.482L154.513 171.094L137.212 171.106L137.25 167.503C138.396 167.549 139.694 167.529 140.852 167.537C140.848 164.819 140.759 161.589 140.876 158.912C140.633 143.775 140.872 128.108 140.849 112.933L137.229 112.949C137.238 111.866 137.218 110.621 137.278 109.552Z" fill="url(#paint0_linear_769_464)"/>
<path d="M71.6428 109.571L88.8381 109.529L88.8313 112.933L85.3213 112.947C85.3281 128.701 85.523 144.866 85.3008 160.573C85.4248 162.417 85.3171 165.606 85.3155 167.553L88.8454 167.548L88.837 171.102L71.6275 171.111L71.6084 167.501C72.7369 167.527 73.8658 167.534 74.9946 167.522C74.9308 164.302 74.9105 160.511 75.0016 157.303C74.8064 142.597 75.0276 127.672 74.9791 112.941L71.6156 112.947L71.6428 109.571Z" fill="url(#paint1_linear_769_464)"/>
<path d="M93.5533 109.559L110.676 109.524L110.675 112.912C109.584 112.925 108.464 112.951 107.375 112.945L107.357 159.731C107.408 162.074 107.415 165.216 107.323 167.541C108.446 167.562 109.57 167.55 110.692 167.504L110.685 171.091C105.073 171.186 99.192 171.107 93.5625 171.109L93.5567 167.498C94.5279 167.571 96.0257 167.529 97.0354 167.531C96.9999 166.937 96.9935 166.193 97.015 165.599C97.1532 161.784 96.817 157.696 97.0628 153.898C96.8849 149.436 97.0255 143.996 97.0259 139.445L97.0339 112.949L93.5504 112.947L93.5533 109.559Z" fill="url(#paint2_linear_769_464)"/>
<path d="M115.5 109.572C121.13 109.532 126.886 109.489 132.513 109.535L132.513 112.933L129.113 112.943L129.112 156.264C129.108 157.917 129.174 160.131 129.082 161.721C129.185 163.337 129.11 165.864 129.115 167.549C130.292 167.554 131.334 167.548 132.511 167.485L132.513 171.106L115.403 171.11L115.417 167.512C116.475 167.547 117.704 167.515 118.776 167.514C118.768 164.482 118.776 161.449 118.799 158.417C118.711 153.359 118.782 148.162 118.779 143.094L118.778 112.954L115.471 112.955L115.5 109.572Z" fill="url(#paint3_linear_769_464)"/>
<path d="M172.933 112.944L176.434 112.94L176.427 109.519L159.311 109.553L159.268 112.944L162.594 112.939C162.735 117.81 162.611 123.291 162.61 128.222L162.623 157.608C162.619 160.791 162.696 164.379 162.591 167.529C161.755 167.528 160.041 167.575 159.275 167.498C159.271 168.488 159.312 170.195 159.206 171.126L176.436 171.106L176.43 167.53C175.293 167.538 174.073 167.569 172.944 167.52L172.933 112.944Z" fill="url(#paint4_linear_769_464)"/>
<defs>
<linearGradient id="paint0_linear_769_464" x1="124.022" y1="116.497" x2="124.022" y2="188.677" gradientUnits="userSpaceOnUse">
<stop stop-color="#C9AF72"/>
<stop offset="1" stop-color="#887344"/>
</linearGradient>
<linearGradient id="paint1_linear_769_464" x1="124.022" y1="116.497" x2="124.022" y2="188.677" gradientUnits="userSpaceOnUse">
<stop stop-color="#C9AF72"/>
<stop offset="1" stop-color="#887344"/>
</linearGradient>
<linearGradient id="paint2_linear_769_464" x1="124.022" y1="116.497" x2="124.022" y2="188.677" gradientUnits="userSpaceOnUse">
<stop stop-color="#C9AF72"/>
<stop offset="1" stop-color="#887344"/>
</linearGradient>
<linearGradient id="paint3_linear_769_464" x1="124.022" y1="116.497" x2="124.022" y2="188.677" gradientUnits="userSpaceOnUse">
<stop stop-color="#C9AF72"/>
<stop offset="1" stop-color="#887344"/>
</linearGradient>
<linearGradient id="paint4_linear_769_464" x1="124.022" y1="116.497" x2="124.022" y2="188.677" gradientUnits="userSpaceOnUse">
<stop stop-color="#C9AF72"/>
<stop offset="1" stop-color="#887344"/>
</linearGradient>
</defs>
</svg>
