<svg width="250" height="250" viewBox="0 0 250 250" fill="none" xmlns="http://www.w3.org/2000/svg">
<mask id="path-1-inside-1_769_465" fill="white">
<path d="M0 48C0 21.4903 21.4903 0 48 0H202C228.51 0 250 21.4903 250 48V202C250 228.51 228.51 250 202 250H48C21.4903 250 0 228.51 0 202V48Z"/>
</mask>
<path d="M0 48C0 21.4903 21.4903 0 48 0H202C228.51 0 250 21.4903 250 48V202C250 228.51 228.51 250 202 250H48C21.4903 250 0 228.51 0 202V48Z" fill="white"/>
<path d="M48 0V2H202V0V-2H48V0ZM250 48H248V202H250H252V48H250ZM202 250V248H48V250V252H202V250ZM0 202H2V48H0H-2V202H0ZM48 250V248C22.5949 248 2 227.405 2 202H0H-2C-2 229.614 20.3858 252 48 252V250ZM250 202H248C248 227.405 227.405 248 202 248V250V252C229.614 252 252 229.614 252 202H250ZM202 0V2C227.405 2 248 22.5949 248 48H250H252C252 20.3858 229.614 -2 202 -2V0ZM48 0V-2C20.3858 -2 -2 20.3858 -2 48H0H2C2 22.5949 22.5949 2 48 2V0Z" fill="#DDDBDB" mask="url(#path-1-inside-1_769_465)"/>
<path d="M77.4747 169.605C68.4104 165.54 60.3362 158.091 56.8904 148.646C53.4283 139.157 54.76 128.8 59.1444 119.812C68.5663 100.498 87.9639 87.3868 107.707 80.2134C125.382 73.9108 146.29 71.7319 164.443 77.2024C166.16 77.7197 169.694 78.939 171.31 79.7001C171.81 79.886 172.478 80.1435 172.92 80.4484C182.302 85.1687 189.915 91.9514 193.303 102.151C196.533 111.873 194.675 122.321 190.033 131.304C180.289 150.159 160.233 163.41 140.609 170.085C124.859 175.442 107.213 177.401 90.8997 174.01C88.2154 173.446 85.5696 172.712 82.9786 171.812C82.1142 171.507 79.818 170.471 79.0805 170.34C78.5022 170.097 78.0277 169.897 77.4747 169.605Z" fill="#FEFEFE"/>
<path d="M77.4747 169.605C68.4104 165.54 60.3362 158.091 56.8904 148.646C53.4283 139.157 54.76 128.8 59.1444 119.812C68.5663 100.498 87.9639 87.3868 107.707 80.2134C125.382 73.9108 146.29 71.7319 164.443 77.2024C166.16 77.7197 169.694 78.939 171.31 79.7001C169.721 81.3992 167.938 82.9999 166.247 84.5973L160.711 89.9087L145.965 104.001L99.9948 148.006L84.0337 163.257C82.8532 164.383 81.6623 165.562 80.4807 166.69C79.8338 167.308 77.8978 169.014 77.4747 169.605Z" fill="#3E4096"/>
<path d="M140.116 78.9357C141.173 78.8424 142.716 78.8708 143.811 78.8728C151.131 78.8394 158.38 80.3046 165.112 83.1779C159.507 88.2851 153.75 94.0469 148.228 99.3113L105.793 139.872C104.244 141.405 102.664 142.907 101.055 144.377C92.9958 139.633 86.1197 133.144 85.3244 123.234C84.6599 114.956 88.9886 106.677 94.3205 100.622C103.593 90.0916 116.812 83.1717 130.431 80.1967C133.667 79.4954 136.837 79.1681 140.116 78.9357Z" fill="#FEFEFE"/>
<path d="M108.399 92.1567L108.45 92.1692C108.513 92.3215 108.142 92.7148 108.032 92.8882C100.258 105.07 102.753 120.861 117.028 126.674C111.978 131.513 106.942 136.573 101.93 141.469C101.566 141.851 101.209 142.196 100.828 142.562C97.9917 139.973 96.2633 138.427 94.0151 135.313C82.4775 119.335 94.8638 101.785 108.399 92.1567Z" fill="#CD9A34"/>
<path d="M172.919 80.4482C182.3 85.1685 189.914 91.9512 193.302 102.15C196.531 111.873 194.674 122.32 190.031 131.304C180.287 150.158 160.231 163.409 140.608 170.085C124.857 175.442 107.212 177.401 90.8984 174.009C88.214 173.446 85.5683 172.712 82.9772 171.812C82.1128 171.507 79.8167 170.47 79.0791 170.34C80.3206 169.104 81.9309 167.41 83.2341 166.319C84.5116 166.928 86.0972 167.443 87.4403 167.898C101.653 172.645 117.317 170.884 131.022 165.093C147.082 158.306 167.535 141.085 161.969 121.363C160.042 114.537 153.334 108.358 147.168 105.086C147.919 104.515 149.414 102.968 150.151 102.261C152.216 100.321 154.264 98.3623 156.295 96.3858C161.867 91.1059 167.408 85.7932 172.919 80.4482Z" fill="#3E4096"/>
<path d="M147.397 106.917C165.194 121.763 160.475 139.213 144.839 153.349C143.54 154.524 142.188 155.543 140.806 156.611L140.393 156.403C143.898 151.027 145.252 144.025 144.057 137.71C142.742 130.768 137.803 125.293 131.232 122.795C134.265 119.881 137.254 116.861 140.268 113.929L144.04 110.218C145.165 109.125 146.328 108.065 147.397 106.917Z" fill="#CD9A34"/>
</svg>
