<svg width="250" height="250" viewBox="0 0 250 250" fill="none" xmlns="http://www.w3.org/2000/svg">
<rect width="250" height="250" fill="white"/>
<path d="M55.0465 54.8867C55.2944 55.0568 55.3888 55.0785 55.6986 55.0889C58.5191 55.1836 61.3948 55.1415 64.2179 55.14L79.6068 55.1382L128.224 55.1367L144.085 55.1373C147.094 55.1375 150.473 55.0671 153.456 55.1947C156.824 55.3229 160.178 55.7119 163.487 56.3579C171.079 57.9156 178.312 61.0092 183.868 66.544C188.608 71.2896 191.866 77.3101 193.245 83.873C194.173 88.3386 193.918 94.1841 193.967 98.8909L194.246 119.15L195.02 174.031C195.05 176.697 195.203 179.353 195.195 182.02C195.181 186.286 195.307 190.558 195.295 194.823L195.25 194.883C195.022 194.885 195.178 194.894 195.028 194.871C194.08 194.724 192.957 194.748 192.001 194.748L187.78 194.751L172.022 194.753L121.992 194.752L105.852 194.752C102.544 194.752 98.9151 194.826 95.64 194.636C84.0864 193.965 72.7065 190.553 64.8337 181.626C60.7503 176.922 58.0067 171.207 56.8898 165.079C56.3598 162.162 56.4006 159.883 56.3782 156.942L56.3158 148.531L55.8127 112.634L55.2739 74.8552L55.0578 60.7621C55.0475 59.0087 54.9383 56.5648 55.0465 54.8867Z" fill="#6DEA17"/>
<path d="M72.6852 73.1406C73.2956 73.3102 76.7459 73.2546 77.5762 73.2535L87.2197 73.2462L127.428 73.248L139.399 73.2452C144.728 73.2447 149.23 73.1151 154.499 74.2591C160.028 75.4596 165.086 77.6581 169.195 81.6349C172.807 85.1641 175.289 89.687 176.325 94.6292C176.977 97.6855 176.833 102.145 176.876 105.368L177.081 119.831L177.902 177.046C177.163 176.862 173.276 176.931 172.31 176.932L161.042 176.936L124.511 176.935C118.196 176.936 111.87 176.977 105.556 176.925C96.5675 176.852 87.0399 174.496 80.6497 167.818C77.3327 164.296 75.0805 159.907 74.1537 155.157C73.616 152.398 73.7321 147.676 73.683 144.638L73.42 126.188L72.9185 90.9614L72.7519 79.632C72.7212 77.5424 72.6377 75.2159 72.6852 73.1406Z" fill="#191412"/>
<path d="M131.625 148.158C132.028 144.586 132.054 139.386 129.69 136.46C127.726 134.029 124.72 133.05 121.916 131.969L111.896 128.116C104.507 125.27 98.783 122.993 96.983 114.39C96.4076 111.619 96.2646 108.775 96.5589 105.96C97.1061 100.692 99.4633 96.2219 103.585 92.8483C108.497 88.827 114.618 88.0866 120.715 88.6886C126.104 89.2206 131.173 91.3366 134.558 95.6938C138.109 100.265 138.141 103.922 137.899 109.298C135.07 109.367 132.24 109.41 129.409 109.427C129.675 105.608 129.459 102.887 126.825 99.8829C124.693 97.4517 122.23 96.3081 119.075 96.1258C110.928 95.6553 105.245 98.983 104.949 107.684C104.839 110.896 105.107 113.637 107.417 116.195C109.517 118.504 112.404 119.376 115.238 120.453L122.657 123.272C127.251 125.019 132.066 126.776 135.731 130.18C139.768 133.929 140.529 139.711 140.296 144.937C140.225 146.525 140.065 148.129 139.731 149.687C139.656 149.597 139.561 149.558 139.44 149.544C136.782 149.232 134.237 148.729 131.625 148.158Z" fill="#6DEA17"/>
<path d="M127.984 114.972C134.576 114.876 141.4 114.96 148.009 114.959L155.882 114.958C162.824 114.959 162.106 114.107 162.048 121.247L148.808 121.252C148.688 131.387 148.804 141.759 148.804 151.915L148.8 165.014C147.376 165.02 142.973 165.134 141.849 164.855C141.804 164.811 141.759 164.768 141.716 164.723C141.438 164.443 141.23 164.232 141.205 163.823C141.107 162.242 141.146 160.576 141.147 158.99L141.153 150.02L141.16 121.255C137.676 121.212 134.18 121.287 130.695 121.256C129.934 121.25 128.188 121.276 128.062 120.215C127.866 118.549 127.963 116.662 127.984 114.972Z" fill="#FEFEFE"/>
<path d="M95.6157 140.384C98.2364 140.33 101.525 140.402 104.154 140.48C104.148 144.783 103.841 149.361 106.119 153.225C107.527 155.614 110.174 157.124 112.827 157.697C117.023 158.603 122.888 158.508 126.558 156.135C129.613 154.159 130.852 151.531 131.626 148.159C134.238 148.729 136.782 149.232 139.44 149.544C139.562 149.559 139.656 149.597 139.732 149.688C136.598 162.151 127.469 166.306 115.565 165.76C105.352 165.29 97.5681 159.772 96.0672 149.204C95.6218 146.067 95.6034 143.533 95.6157 140.384Z" fill="#FEFEFE"/>
</svg>
