<svg width="250" height="250" viewBox="0 0 250 250" fill="none" xmlns="http://www.w3.org/2000/svg">
<mask id="path-1-inside-1_769_467" fill="white">
<path d="M0 48C0 21.4903 21.4903 0 48 0H202C228.51 0 250 21.4903 250 48V202C250 228.51 228.51 250 202 250H48C21.4903 250 0 228.51 0 202V48Z"/>
</mask>
<path d="M0 48C0 21.4903 21.4903 0 48 0H202C228.51 0 250 21.4903 250 48V202C250 228.51 228.51 250 202 250H48C21.4903 250 0 228.51 0 202V48Z" fill="white"/>
<path d="M48 0V2H202V0V-2H48V0ZM250 48H248V202H250H252V48H250ZM202 250V248H48V250V252H202V250ZM0 202H2V48H0H-2V202H0ZM48 250V248C22.5949 248 2 227.405 2 202H0H-2C-2 229.614 20.3858 252 48 252V250ZM250 202H248C248 227.405 227.405 248 202 248V250V252C229.614 252 252 229.614 252 202H250ZM202 0V2C227.405 2 248 22.5949 248 48H250H252C252 20.3858 229.614 -2 202 -2V0ZM48 0V-2C20.3858 -2 -2 20.3858 -2 48H0H2C2 22.5949 22.5949 2 48 2V0Z" fill="#DDDBDB" mask="url(#path-1-inside-1_769_467)"/>
<path d="M55.0474 54.8867C55.2954 55.0568 55.3897 55.0785 55.6996 55.0889C58.5201 55.1836 61.3958 55.1415 64.2189 55.14L79.6078 55.1382L128.225 55.1367L144.086 55.1373C147.095 55.1375 150.474 55.0671 153.457 55.1947C156.825 55.3229 160.179 55.7119 163.488 56.3579C171.08 57.9156 178.313 61.0092 183.869 66.544C188.609 71.2896 191.867 77.3101 193.246 83.873C194.174 88.3386 193.919 94.1841 193.968 98.8909L194.247 119.15L195.021 174.031C195.051 176.697 195.204 179.353 195.196 182.02C195.182 186.286 195.308 190.558 195.296 194.823L195.251 194.883C195.023 194.885 195.179 194.894 195.029 194.871C194.081 194.724 192.958 194.748 192.002 194.748L187.781 194.751L172.023 194.753L121.993 194.752L105.853 194.752C102.545 194.752 98.9161 194.826 95.6409 194.636C84.0873 193.965 72.7075 190.553 64.8346 181.626C60.7513 176.922 58.0077 171.207 56.8908 165.079C56.3608 162.162 56.4016 159.883 56.3792 156.942L56.3168 148.531L55.8137 112.634L55.2749 74.8552L55.0588 60.7621C55.0485 59.0087 54.9393 56.5648 55.0474 54.8867Z" fill="#6DEA17"/>
<path d="M72.6861 73.1396C73.2966 73.3092 76.7468 73.2537 77.5772 73.2525L87.2206 73.2453L127.429 73.247L139.4 73.2442C144.729 73.2437 149.231 73.1141 154.5 74.2582C160.029 75.4586 165.087 77.6571 169.196 81.6339C172.808 85.1631 175.29 89.686 176.326 94.6282C176.978 97.6845 176.834 102.144 176.877 105.367L177.082 119.83L177.902 177.045C177.164 176.861 173.277 176.93 172.311 176.931L161.043 176.935L124.512 176.934C118.197 176.935 111.871 176.976 105.557 176.924C96.5685 176.851 87.0409 174.495 80.6507 167.817C77.3337 164.295 75.0815 159.906 74.1547 155.156C73.6169 152.397 73.7331 147.675 73.6839 144.637L73.421 126.187L72.9194 90.9604L72.7529 79.631C72.7222 77.5414 72.6387 75.215 72.6861 73.1396Z" fill="#191412"/>
<path d="M131.626 148.158C132.029 144.585 132.055 139.386 129.691 136.459C127.727 134.028 124.721 133.049 121.917 131.969L111.897 128.116C104.508 125.269 98.7839 122.992 96.984 114.39C96.4086 111.618 96.2656 108.775 96.5598 105.959C97.1071 100.692 99.4643 96.2214 103.585 92.8478C108.498 88.8265 114.619 88.0861 120.716 88.6881C126.105 89.2201 131.174 91.3361 134.559 95.6933C138.11 100.264 138.142 103.921 137.9 109.297C135.071 109.367 132.241 109.41 129.41 109.426C129.676 105.607 129.46 102.887 126.826 99.8825C124.694 97.4512 122.231 96.3076 119.076 96.1253C110.929 95.6548 105.246 98.9825 104.949 107.683C104.84 110.895 105.108 113.636 107.418 116.194C109.518 118.503 112.405 119.376 115.239 120.452L122.658 123.271C127.252 125.019 132.067 126.776 135.732 130.18C139.769 133.929 140.53 139.71 140.297 144.937C140.226 146.524 140.066 148.128 139.732 149.687C139.657 149.596 139.562 149.558 139.441 149.543C136.783 149.232 134.238 148.728 131.626 148.158Z" fill="#6DEA17"/>
<path d="M127.985 114.971C134.577 114.875 141.401 114.959 148.01 114.958L155.883 114.957C162.825 114.958 162.107 114.106 162.049 121.246L148.809 121.251C148.689 131.387 148.805 141.758 148.805 151.914L148.801 165.013C147.377 165.019 142.974 165.133 141.85 164.854C141.805 164.81 141.76 164.767 141.717 164.722C141.439 164.442 141.231 164.231 141.206 163.822C141.108 162.241 141.147 160.575 141.148 158.989L141.154 150.019L141.161 121.254C137.677 121.211 134.181 121.286 130.696 121.255C129.935 121.249 128.189 121.275 128.063 120.214C127.867 118.548 127.964 116.661 127.985 114.971Z" fill="#FEFEFE"/>
<path d="M95.6167 140.383C98.2373 140.33 101.526 140.401 104.155 140.48C104.149 144.782 103.842 149.361 106.12 153.225C107.528 155.613 110.175 157.124 112.828 157.697C117.024 158.603 122.889 158.508 126.559 156.134C129.614 154.158 130.853 151.531 131.627 148.158C134.239 148.729 136.783 149.232 139.441 149.544C139.563 149.558 139.657 149.597 139.733 149.687C136.599 162.15 127.47 166.306 115.566 165.759C105.353 165.29 97.5691 159.771 96.0682 149.203C95.6228 146.066 95.6044 143.532 95.6167 140.383Z" fill="#FEFEFE"/>
</svg>
