<svg width="250" height="250" viewBox="0 0 250 250" fill="none" xmlns="http://www.w3.org/2000/svg">
<path d="M0 48C0 21.4903 21.4903 0 48 0H202C228.51 0 250 21.4903 250 48V202C250 228.51 228.51 250 202 250H48C21.4903 250 0 228.51 0 202V48Z" fill="#073042"/>
<path d="M147.071 113.848H93.7508C86.6273 113.848 80.8438 108.065 80.8438 100.941V93.6766C80.8438 86.5531 86.6273 80.7696 93.7508 80.7696H134.094C141.218 80.7696 147.001 86.5531 147.001 93.6766V113.848H147.071Z" fill="white"/>
<path d="M156.243 169.006H115.899C108.776 169.006 102.993 163.223 102.993 156.099V135.928H156.313C163.437 135.928 169.22 141.711 169.22 148.835V156.099C169.15 163.223 163.366 169.006 156.243 169.006Z" fill="white"/>
<path d="M169.149 54.8867H81.1275C66.7394 54.8867 54.9609 66.5947 54.9609 81.0533V169.075C54.9609 171.191 56.6537 172.883 58.7695 172.883C60.8855 172.883 62.5782 171.191 62.5782 169.075V83.2397C62.5782 71.7434 71.8881 62.4334 83.3845 62.4334H169.078C171.194 62.4334 172.887 60.7407 172.887 58.6248C172.958 56.5794 171.265 54.8867 169.149 54.8867Z" fill="white"/>
<path d="M191.229 76.8902C189.113 76.8902 187.421 78.5829 187.421 80.6988V166.463C187.421 177.96 178.111 187.269 166.614 187.269H80.8499C78.734 187.269 77.0413 188.962 77.0413 191.078C77.0413 193.194 78.734 194.887 80.8499 194.887H168.871C183.259 194.887 195.038 183.179 195.038 168.72V80.6988C195.038 78.6535 193.345 76.8902 191.229 76.8902Z" fill="white"/>
</svg>
