<svg width="250" height="250" viewBox="0 0 250 250" fill="none" xmlns="http://www.w3.org/2000/svg">
<path d="M0 48C0 21.4903 21.4903 0 48 0H202C228.51 0 250 21.4903 250 48V202C250 228.51 228.51 250 202 250H48C21.4903 250 0 228.51 0 202V48Z" fill="#143867"/>
<path d="M98.0838 87.1697C99.3453 87.1145 101.037 87.1623 102.337 87.1623L110.663 87.1633L118.134 87.1589C119.504 87.1579 120.872 87.1461 122.245 87.1771C123.387 87.195 124.337 87.9861 124.718 89.0363C124.958 89.6969 124.933 90.2874 124.933 90.9791C124.932 92.4639 124.932 93.9518 124.933 95.4368L124.934 106.566L124.933 117.825C124.932 119.804 124.941 121.796 124.921 123.775C124.889 124.255 124.901 124.772 124.704 125.215C124.236 126.267 123.556 126.801 122.418 127.002C120.782 127.044 118.963 127.006 117.314 127.006L107.436 127.005L101.435 127.012C100.323 127.014 99.2182 127.024 98.1061 126.983C96.9169 126.938 95.7627 125.783 95.6322 124.623C95.463 123.12 95.5387 121.442 95.5505 119.915L95.5602 112.769V97.7094C95.5596 95.2384 95.5255 92.7694 95.5643 90.2991C95.5906 88.6291 96.3906 87.4729 98.0838 87.1697Z" fill="#0098DA"/>
<path d="M98.9529 88.3486C103.605 88.2596 108.554 88.3469 113.23 88.3464L118.594 88.3418C119.611 88.3404 120.607 88.324 121.628 88.3713C122.72 88.3371 123.89 89.5287 123.998 90.5996C124.106 91.6714 124.056 93.0967 124.057 94.2182L124.058 102.117L124.057 116.106C124.057 118.506 124.089 120.921 124.022 123.319C123.985 124.688 122.901 125.622 121.613 125.836L106.503 125.836L101.764 125.841C99.8206 125.847 97.4603 126.309 96.6342 124.07C96.5274 123.78 96.4625 123.475 96.4419 123.166C96.3654 121.854 96.4263 119.956 96.426 118.584L96.425 109.714L96.4258 97.7499C96.4263 95.6724 96.4189 93.5837 96.4375 91.5065C96.4717 91.0391 96.4533 90.4664 96.6428 90.037C97.1001 89.001 97.834 88.4697 98.9529 88.3486Z" fill="#FEFFFF"/>
<path d="M109.032 100.689L111.407 100.689L111.406 105.301C112.914 104.786 114.417 104.258 115.917 103.717L116.736 106.016L112.238 107.472C113.174 108.741 114.102 110.07 115.023 111.355C114.374 111.845 113.657 112.344 112.994 112.823L110.835 109.611L110.28 108.791L107.555 112.825C106.878 112.333 106.148 111.844 105.457 111.364L108.295 107.475L103.743 106.013C104.024 105.252 104.298 104.489 104.566 103.723C106.039 104.274 107.549 104.799 109.031 105.33C109.054 103.801 109.033 102.222 109.032 100.689Z" fill="#0098DA"/>
<path d="M68.2486 91.3359C69.6655 91.2662 71.4049 91.309 72.8492 91.3091L81.063 91.3115L88.6484 91.3065C90.0168 91.3047 92.5119 91.1429 93.7924 91.5518C94.6942 91.8397 95.3695 93.0703 95.3785 94.0309C95.3918 95.4491 95.3944 96.9499 95.3948 98.4093L95.3962 106.706L95.395 114.864C95.3944 116.311 95.403 117.755 95.3756 119.202C95.3473 120.694 94.6897 121.572 93.2661 122.03C92.7563 122.13 90.884 122.094 90.2467 122.093L84.2881 122.089L73.9164 122.094C72.1123 122.094 70.3102 122.107 68.5046 122.067C67.5631 122.047 66.2649 121.088 66.1306 120.146C65.929 118.732 66.0139 117.083 66.0135 115.636L66.0134 107.097L66.0155 98.4223C66.0151 96.8604 65.9767 95.2611 66.0478 93.7035C66.1039 92.4754 67.1416 91.633 68.2486 91.3359Z" fill="#0098DA"/>
<path d="M79.4776 100.647L81.8762 100.644L81.877 105.269C83.3456 104.713 84.8822 104.181 86.3628 103.645L87.2025 105.977L82.6787 107.414L85.4805 111.301L83.4372 112.788C82.7073 111.647 81.8648 110.447 81.1035 109.317L80.7367 108.772L77.9881 112.791L75.9123 111.298L78.7526 107.419L74.1865 105.977L75.0316 103.645C76.3959 104.209 78.0652 104.778 79.4697 105.299C79.4641 103.748 79.4667 102.197 79.4776 100.647Z" fill="#FEFFFF"/>
<path d="M136.247 136.059C136.411 136.038 136.763 136.032 136.941 136.033C138.587 136.027 140.279 136.031 141.92 136.031C145.79 136.029 150.307 135.818 152.543 139.669C153.36 141.076 153.653 142.51 153.656 144.136C153.669 146.232 153.079 148.453 151.526 149.949C148.439 152.92 143.422 152.455 139.475 152.449L138.608 152.454L138.617 157.668C138.619 158.754 138.677 159.951 138.522 161.006C138.322 162.357 137.289 163.376 135.894 163.341C134.194 163.299 133.311 162.208 133.213 160.578C133.136 159.267 133.166 157.992 133.166 156.687L133.163 149.627L133.162 142.681C133.162 141.376 133.128 140.084 133.213 138.781C133.344 136.769 134.41 136.218 136.247 136.059ZM138.612 148.329C141.099 148.34 144.982 148.695 146.946 147.142C149.462 144.651 147.966 140.233 144.13 140.225C142.319 140.221 140.445 140.131 138.608 140.135L138.612 148.329Z" fill="#FEFFFF"/>
<path d="M163.672 143.032C170.837 142.668 174.072 144.412 173.701 151.896C173.618 153.575 173.692 155.411 173.693 157.147C173.695 158.968 175.575 161.587 173.649 162.911C171.49 164.292 170.168 162.176 169.101 160.545C168.508 160.988 167.945 161.373 167.318 161.766C163.827 163.957 158.404 164.294 156.034 160.293C155.857 159.956 155.714 159.602 155.606 159.237C155.201 157.837 155.318 156.415 156.023 155.129C157.537 152.365 161.02 152.133 163.821 151.525C165.487 151.177 167.139 150.765 168.774 150.29C168.536 146.537 166.937 146.195 163.467 146.598C161.863 146.785 160.829 147.984 160.076 149.325C159.114 151.039 156.61 150.485 156.295 148.637C156.144 147.708 156.7 146.454 157.313 145.723C158.911 143.812 161.318 143.297 163.672 143.032ZM161.374 159.378C163.473 160.811 166.554 159.883 167.96 157.942C168.63 157.016 168.927 154.464 168.733 153.378L168.685 153.337C167.056 153.877 165.373 154.188 163.706 154.561C162.575 154.814 161.186 155.178 160.638 156.313C160.088 157.452 160.525 158.562 161.374 159.378Z" fill="#FEFFFF"/>
<path d="M91.8182 143.023C91.8584 143.021 91.8988 143.02 91.939 143.02C94.0359 143.007 94.4051 144.688 94.3891 146.396C96.0331 144.34 97.6461 143.189 100.402 143.038C104.236 142.827 107.208 145.094 107.471 149.043C107.63 151.436 107.528 153.819 107.556 156.216C107.542 157.908 107.64 159.392 107.468 161.09C107.251 163.223 104.89 164.077 103.35 162.68C102.33 161.755 102.524 159.375 102.524 158.001L102.53 153.156C102.536 151.185 102.756 147.683 100.331 147.035C99.7261 146.873 98.9199 146.851 98.3051 146.976C97.6133 147.122 96.9691 147.438 96.4308 147.896C94.5287 149.507 94.7164 152.219 94.7153 154.533L94.7238 158.87C94.7252 160.001 94.8311 161.392 94.1724 162.345C92.9535 164.099 90.1561 163.483 89.8305 161.321C89.6439 160.082 89.688 159.029 89.6876 157.777L89.6872 152.799L89.6886 148.254C89.6879 146.129 89.1772 143.491 91.8182 143.023Z" fill="#FEFFFF"/>
<path d="M119.019 143.035C121.246 142.776 124.693 143.619 126.354 145.155C127.371 146.095 128.206 147.746 127.102 148.951C126.697 149.394 126.088 149.582 125.506 149.588C123.963 149.6 123.264 148.213 122.322 147.251C121.516 146.42 120.507 146.215 119.398 146.218C118.137 146.202 116.245 146.783 116.309 148.342C116.314 149.301 117.36 149.874 118.159 150.154C119.864 150.753 121.673 151.06 123.401 151.613C125.825 152.388 128.532 153.817 128.601 156.719C128.621 158.306 128.195 159.821 127.074 160.983C125.108 163.025 122.369 163.272 119.715 163.366C117.293 163.254 115.233 162.938 113.201 161.354C111.44 159.981 110.258 156.386 113.465 155.981C114.601 155.838 115.349 157.13 115.86 157.929C116.901 159.56 118.584 160.229 120.477 160.11C123.341 160.21 125.367 157.056 122.014 155.646C118.696 154.28 111.914 153.936 111.687 149.131C111.484 144.846 115.486 143.222 119.019 143.035Z" fill="#FEFFFF"/>
<path d="M81.979 143.025C85.0847 142.95 84.6893 146.043 84.6913 148.163L84.6935 152.926L84.6918 157.984C84.69 160.143 85.157 162.981 82.3111 163.355C79.2443 163.481 79.675 159.875 79.6733 157.852L79.6713 153.007L79.6727 148.292C79.674 146.11 79.2055 143.454 81.979 143.025Z" fill="#FEFFFF"/>
<path d="M81.6916 135.815C83.0468 135.535 84.3702 136.414 84.6386 137.771C84.907 139.128 84.0177 140.444 82.658 140.702C81.314 140.956 80.0163 140.079 79.7509 138.737C79.4856 137.396 80.3519 136.091 81.6916 135.815Z" fill="#FEFFFF"/>
<path d="M172.59 78.8867H172.645C173.128 78.9846 174.035 78.9399 174.564 78.9381L178.94 78.9222C179.897 78.9193 181.077 78.8438 181.99 79.0323C183.23 79.2886 184.009 80.4654 184.034 81.6896C184.061 83.0405 184.054 84.3876 184.053 85.7386L184.051 93.0978L184.049 115.578L184.049 126.834C184.052 128.603 184.135 130.602 183.957 132.339C183.856 133.328 182.547 134.481 181.556 134.443C179.779 134.485 178.008 134.464 176.237 134.462L166.117 134.459L160.221 134.461C157.814 134.469 155.345 135.019 154.646 132.048C154.718 131.124 154.671 129.454 154.671 128.483C154.679 126.436 154.674 124.389 154.655 122.341C154.704 121.533 154.662 120.244 154.663 119.409V113.538L154.662 95.3707L154.665 85.8062C154.665 85.0342 154.717 82.1143 154.624 81.5525C155.157 78.4001 157.578 78.9232 160.093 78.9247L168.855 78.9267C169.54 78.9268 172.046 78.9817 172.59 78.8867Z" fill="#00FE00" fill-opacity="0.988235"/>
<path d="M168.127 100.655L170.524 100.65V105.27L174.995 103.653C175.289 104.393 175.575 105.221 175.853 105.973C174.37 106.472 172.816 106.943 171.32 107.42L174.117 111.314C173.433 111.798 172.757 112.293 172.089 112.797L169.864 109.482L169.384 108.771L166.64 112.788L164.558 111.31L167.395 107.426C165.928 106.923 164.312 106.445 162.821 105.971C163.112 105.275 163.415 104.373 163.681 103.652C165.045 104.216 166.716 104.787 168.12 105.309L168.127 100.655Z" fill="#FEFFFF"/>
<path d="M154.478 127.725C154.378 129.196 153.603 130.906 151.938 131.087C150.969 131.193 149.854 131.125 148.866 131.12L143.068 131.118L132.997 131.122C131.453 131.124 129.109 131.204 127.629 131.096C127.229 131.063 126.847 130.917 126.528 130.675C125.522 129.926 125.097 128.596 125.084 127.384C125.066 125.863 125.097 124.339 125.097 122.817L125.098 111.516V94.5153L125.085 89.5025C125.073 87.4705 124.667 83.3988 127.676 83.0739C128.594 82.9748 129.934 83.0582 130.891 83.058L137.921 83.0558L147.172 83.0523C148.74 83.052 150.383 83.0145 151.945 83.091C153.559 83.17 154.323 84.9692 154.479 86.3904L154.472 112.668L154.473 122.703C154.473 124.272 154.421 126.176 154.478 127.725Z" fill="#00FE00" fill-opacity="0.988235"/>
<path d="M128.179 84.5041C129.609 84.441 131.275 84.4804 132.731 84.4806L140.768 84.483L147.432 84.4773C148.634 84.4759 149.833 84.4887 151.033 84.4944C152.126 84.4027 153.307 85.7326 153.455 86.7603C153.713 88.5477 153.599 90.7682 153.596 92.5911L153.595 102.638L153.594 118.736L153.6 123.536C153.608 125.751 154.051 128.96 151.303 129.691C149.907 129.745 148.324 129.711 146.908 129.711L139.133 129.71L132.418 129.713C131.2 129.714 129.962 129.759 128.745 129.702C128.377 129.685 128.033 129.665 127.696 129.502C126.969 129.15 126.456 128.411 126.2 127.663C125.781 126.433 125.982 120.584 125.982 118.894L125.983 105.253L125.984 93.7711C125.984 91.8288 125.956 89.8801 125.987 87.9381C126.012 86.3733 126.605 85.0148 128.179 84.5041Z" fill="#FEFFFF"/>
<path d="M138.582 100.688L140.951 100.687V105.31L145.461 103.721L146.29 106.009C144.844 106.516 143.242 106.999 141.775 107.475C142.717 108.732 143.65 110.077 144.566 111.359C143.932 111.844 143.189 112.351 142.534 112.82L140.309 109.508L139.833 108.81C138.998 109.906 137.903 111.643 137.103 112.826L135.008 111.357L137.834 107.474C136.341 106.973 134.794 106.496 133.291 106.013L134.118 103.725C135.589 104.274 137.098 104.804 138.577 105.339C138.609 103.822 138.581 102.212 138.582 100.688Z" fill="#00FE00"/>
<path d="M55 138.797C55.5008 135.942 57.3625 135.904 59.8895 136.036C64.3894 136.273 71.2541 134.865 74.1653 139.324C76.3713 142.703 75.9218 148.545 72.333 150.789C68.986 152.896 64.2988 152.452 60.4612 152.453L60.4683 157.482C60.4747 159.641 60.8842 163.308 57.7632 163.347C55.8878 163.37 55.3164 162.159 55 160.554V138.797ZM60.4655 148.329C62.8982 148.34 66.9674 148.703 68.8285 147.091C70.3174 145.697 70.3547 142.906 68.9894 141.409C68.0013 140.325 65.8993 140.147 64.4782 140.135L60.46 140.136L60.4655 148.329Z" fill="#FEFFFF"/>
<path d="M185.882 157.996C187.188 153.99 188.718 150.012 190.068 146.022C190.435 144.936 190.99 143.225 192.247 143.054C193.819 142.84 194.704 143.707 195 145.139V145.206C194.424 147.392 193.748 149.027 192.947 151.127L190.4 157.8L188.358 163.143C187.753 164.725 187.218 166.232 186.387 167.721C185.239 169.778 183.838 170.365 181.638 170.757H178.959C178.284 170.618 177.211 170.469 176.682 170.048C175.765 169.318 175.798 167.435 176.981 166.959C178.261 166.444 179.671 167.336 180.952 166.782C182.133 166.212 182.844 164.044 183.317 162.867C182.883 161.612 182.201 160.034 181.703 158.778L178.565 150.857C178.031 149.513 177.47 148.159 176.954 146.816C176.667 145.966 176.409 145.28 176.833 144.427C177.18 143.708 177.702 143.298 178.481 143.11C179.742 142.805 180.635 143.329 181.149 144.484C181.83 146.011 182.321 147.619 182.862 149.198L185.882 157.996Z" fill="#FEFFFF"/>
<path d="M154.479 86.3905L154.523 86.383C154.71 86.1561 154.431 82.1857 154.624 81.5527C154.717 82.1145 154.665 85.0344 154.665 85.8064L154.663 95.3709L154.663 113.538V119.409C154.663 120.245 154.704 121.533 154.655 122.342C154.509 123.458 154.639 126.309 154.606 127.578L154.479 127.725C154.422 126.176 154.474 124.272 154.473 122.703L154.473 112.668L154.479 86.3905Z" fill="#003D01" fill-opacity="0.168627"/>
<path d="M154.606 127.577C154.639 126.309 154.509 123.457 154.655 122.341C154.674 124.388 154.679 126.436 154.671 128.483C154.671 129.454 154.719 131.124 154.646 132.048C154.547 131.647 154.602 128.22 154.606 127.577Z" fill="#015401" fill-opacity="0.360784"/>
</svg>
