<svg width="250" height="250" viewBox="0 0 250 250" fill="none" xmlns="http://www.w3.org/2000/svg">
<mask id="path-1-inside-1_769_470" fill="white">
<path d="M0 48C0 21.4903 21.4903 0 48 0H202C228.51 0 250 21.4903 250 48V202C250 228.51 228.51 250 202 250H48C21.4903 250 0 228.51 0 202V48Z"/>
</mask>
<path d="M0 48C0 21.4903 21.4903 0 48 0H202C228.51 0 250 21.4903 250 48V202C250 228.51 228.51 250 202 250H48C21.4903 250 0 228.51 0 202V48Z" fill="white"/>
<path d="M48 0V2H202V0V-2H48V0ZM250 48H248V202H250H252V48H250ZM202 250V248H48V250V252H202V250ZM0 202H2V48H0H-2V202H0ZM48 250V248C22.5949 248 2 227.405 2 202H0H-2C-2 229.614 20.3858 252 48 252V250ZM250 202H248C248 227.405 227.405 248 202 248V250V252C229.614 252 252 229.614 252 202H250ZM202 0V2C227.405 2 248 22.5949 248 48H250H252C252 20.3858 229.614 -2 202 -2V0ZM48 0V-2C20.3858 -2 -2 20.3858 -2 48H0H2C2 22.5949 22.5949 2 48 2V0Z" fill="#DDDBDB" mask="url(#path-1-inside-1_769_470)"/>
<path d="M58 102.812L70.3503 122.15C80.5104 122.236 97.6985 123.052 105.84 121.237C110.125 120.281 114.195 118.601 116.329 116.236C119.744 112.451 121.223 109.91 122.227 104.247C123.052 99.5919 122.526 96.7548 120.299 91.9014L112.97 80.999L89.8062 82.0387L102.274 100.712L58 102.812Z" fill="url(#paint0_linear_769_470)"/>
<path d="M198 102.812L185.649 122.15C175.489 122.236 158.301 123.052 150.16 121.237C145.875 120.281 141.804 118.601 139.67 116.236C136.256 112.451 134.776 109.91 133.773 104.247C132.948 99.5919 133.474 96.7548 135.701 91.9014L143.03 80.999L166.194 82.0387L153.725 100.712L198 102.812Z" fill="url(#paint1_linear_769_470)"/>
<path d="M126.886 187.002L107.548 174.651C107.463 164.491 106.647 147.303 108.462 139.162C109.418 134.877 111.097 130.806 113.463 128.672C117.248 125.258 119.788 123.778 125.451 122.775C130.107 121.95 132.944 122.476 137.797 124.702L148.7 132.031L147.66 155.196L128.987 142.727L126.886 187.002Z" fill="url(#paint2_linear_769_470)"/>
<defs>
<linearGradient id="paint0_linear_769_470" x1="58" y1="101.703" x2="197.998" y2="101.703" gradientUnits="userSpaceOnUse">
<stop stop-color="#0BA293"/>
<stop offset="1" stop-color="#06FFBF"/>
</linearGradient>
<linearGradient id="paint1_linear_769_470" x1="57.9936" y1="101.703" x2="197.991" y2="101.703" gradientUnits="userSpaceOnUse">
<stop stop-color="#0BA293"/>
<stop offset="1" stop-color="#06FFBF"/>
</linearGradient>
<linearGradient id="paint2_linear_769_470" x1="127.996" y1="187.002" x2="127.996" y2="122.406" gradientUnits="userSpaceOnUse">
<stop stop-color="#0BA293"/>
<stop offset="1" stop-color="#06FFBF"/>
</linearGradient>
</defs>
</svg>
