<svg width="250" height="250" viewBox="0 0 250 250" fill="none" xmlns="http://www.w3.org/2000/svg">
<mask id="path-1-inside-1_769_471" fill="white">
<path d="M0 48C0 21.4903 21.4903 0 48 0H202C228.51 0 250 21.4903 250 48V202C250 228.51 228.51 250 202 250H48C21.4903 250 0 228.51 0 202V48Z"/>
</mask>
<path d="M0 48C0 21.4903 21.4903 0 48 0H202C228.51 0 250 21.4903 250 48V202C250 228.51 228.51 250 202 250H48C21.4903 250 0 228.51 0 202V48Z" fill="white"/>
<path d="M48 0V2H202V0V-2H48V0ZM250 48H248V202H250H252V48H250ZM202 250V248H48V250V252H202V250ZM0 202H2V48H0H-2V202H0ZM48 250V248C22.5949 248 2 227.405 2 202H0H-2C-2 229.614 20.3858 252 48 252V250ZM250 202H248C248 227.405 227.405 248 202 248V250V252C229.614 252 252 229.614 252 202H250ZM202 0V2C227.405 2 248 22.5949 248 48H250H252C252 20.3858 229.614 -2 202 -2V0ZM48 0V-2C20.3858 -2 -2 20.3858 -2 48H0H2C2 22.5949 22.5949 2 48 2V0Z" fill="#DDDBDB" mask="url(#path-1-inside-1_769_471)"/>
<path d="M152.32 124.028C135.921 124.028 122.557 137.386 122.557 153.778C122.557 170.17 135.921 183.528 152.32 183.528C168.718 183.528 182.082 170.17 182.082 153.778C182.082 137.337 168.718 124.028 152.32 124.028Z" fill="#122D97"/>
<path d="M82.2658 139.293C82.2658 107.586 108.063 81.7988 139.783 81.7988C165.874 81.7988 188 99.2672 195 123.146C194.07 85.3707 163.035 54.8867 125 54.8867C86.3777 54.8867 55 86.2515 55 124.858C55 163.416 86.3287 194.781 124.902 194.83C100.378 188.273 82.2658 165.862 82.2658 139.293Z" fill="#122D97"/>
<path d="M139.784 89.8188C112.518 89.8188 90.2947 111.985 90.2947 139.288C90.2947 166.2 111.882 188.121 138.658 188.757C124.658 183.277 114.721 169.674 114.721 153.772C114.721 133.074 131.561 116.193 152.316 116.193C170.134 116.193 185.064 128.621 188.931 145.307C189.176 143.349 189.274 141.343 189.274 139.288C189.274 112.033 167.05 89.8188 139.784 89.8188Z" fill="#122D97"/>
</svg>
