<svg width="250" height="250" viewBox="0 0 250 250" fill="none" xmlns="http://www.w3.org/2000/svg">
<mask id="path-1-inside-1_769_472" fill="white">
<path d="M0 48C0 21.4903 21.4903 0 48 0H202C228.51 0 250 21.4903 250 48V202C250 228.51 228.51 250 202 250H48C21.4903 250 0 228.51 0 202V48Z"/>
</mask>
<path d="M0 48C0 21.4903 21.4903 0 48 0H202C228.51 0 250 21.4903 250 48V202C250 228.51 228.51 250 202 250H48C21.4903 250 0 228.51 0 202V48Z" fill="white"/>
<path d="M48 0V2H202V0V-2H48V0ZM250 48H248V202H250H252V48H250ZM202 250V248H48V250V252H202V250ZM0 202H2V48H0H-2V202H0ZM48 250V248C22.5949 248 2 227.405 2 202H0H-2C-2 229.614 20.3858 252 48 252V250ZM250 202H248C248 227.405 227.405 248 202 248V250V252C229.614 252 252 229.614 252 202H250ZM202 0V2C227.405 2 248 22.5949 248 48H250H252C252 20.3858 229.614 -2 202 -2V0ZM48 0V-2C20.3858 -2 -2 20.3858 -2 48H0H2C2 22.5949 22.5949 2 48 2V0Z" fill="#DDDBDB" mask="url(#path-1-inside-1_769_472)"/>
<path d="M117.995 117.463V110.08H89.6591V117.463H117.995Z" fill="#2A65FD"/>
<path d="M68.4141 121.118H59.9133V139.637H68.4141V121.118Z" fill="#2A65FD"/>
<path d="M78.3358 117.463V110.08H50V117.463H78.3358Z" fill="#2A65FD"/>
<path d="M98.157 130.322L89.6562 121.118V139.637H117.992V132.952H98.157V130.322Z" fill="#2A65FD"/>
<path d="M95.1029 121.118L96.555 122.69C96.555 122.69 98.7192 125.034 100.66 127.135H117.991V121.118H95.1029Z" fill="#2A65FD"/>
<path d="M137.834 110.08H129.334V139.587H137.834V110.08Z" fill="#2A65FD"/>
<path d="M150.559 110.08V127.827L142.09 118.644V128.694H142.086V130.42L150.559 139.587H159.007V110.08H150.559Z" fill="#2A65FD"/>
<path d="M178.832 110.08H170.331V139.587H178.832V110.08Z" fill="#2A65FD"/>
<path d="M191.556 110.08V127.827L183.087 118.644V128.694H183.08V130.42L191.556 139.587H200V110.08H191.556Z" fill="#2A65FD"/>
</svg>
