<svg width="250" height="250" viewBox="0 0 250 250" fill="none" xmlns="http://www.w3.org/2000/svg">
<path d="M0 48C0 21.4903 21.4903 0 48 0H202C228.51 0 250 21.4903 250 48V202C250 228.51 228.51 250 202 250H48C21.4903 250 0 228.51 0 202V48Z" fill="#BE0201"/>
<path d="M57.7505 63.8803C60.4122 63.7707 63.6275 63.8527 66.3317 63.8529H93.4511C95.3862 63.8514 97.3595 63.805 99.2931 63.8818C99.9512 63.9079 100.754 64.1463 101.268 64.5372C101.7 64.8651 102.133 65.4075 102.206 65.9602C102.4 67.5706 102.349 69.2778 102.344 70.9018V171.419C102.347 174.815 102.358 178.218 102.344 181.612C102.308 182.551 102.36 183.354 101.718 184.123C101.072 184.899 100.557 185.135 99.5935 185.26C99.373 185.277 99.09 185.283 98.8647 185.285C95.0413 185.304 91.2111 185.285 87.3878 185.289L83.3961 185.292C82.0211 185.293 80.1797 185.511 79.1896 184.477C78.6471 183.91 78.3375 183.282 78.2944 182.497C78.2241 181.221 78.246 179.941 78.2455 178.665L78.2511 84.6993C73.5664 84.6019 68.8355 84.747 64.1467 84.6877C62.149 84.6624 60.1432 84.7295 58.1463 84.656C57.6537 84.6005 56.9067 84.551 56.4714 84.2975C54.7798 83.3119 55.0387 81.171 55.0393 79.6298L55.0356 69.924C55.0356 67.3332 54.4742 64.5008 57.7505 63.8803Z" fill="#FEFEFE"/>
<path d="M106.675 64.4883C108.78 64.3901 111.101 64.4365 113.227 64.4357L185.945 64.4317C188.177 64.4316 194.343 64.0958 194.939 67.3537C195.049 67.9533 194.975 69.331 194.973 69.9971V79.2716C194.972 80.4046 194.999 82.0736 194.828 83.1753C193.171 85.4437 189.258 85.3172 186.79 85.3157L141.245 85.316C138.419 85.3274 135.593 85.3185 132.767 85.2896C131.249 85.2829 129.762 85.3326 128.244 85.2484C128.342 86.9427 128.3 89.0288 128.301 90.7449L128.285 99.9653L128.276 160.988L128.29 174.253C128.3 177.114 128.323 179.984 128.25 182.842C128.21 184.035 127.82 184.801 126.774 185.411C125.917 185.954 125.164 185.954 124.202 185.922C122.441 185.864 120.657 185.884 118.895 185.885L110.842 185.884C109.462 185.89 108.03 185.951 106.661 185.881C105.244 185.807 104.323 184.236 104.265 182.937C104.177 180.962 104.2 178.997 104.2 177.024L104.166 90.2169L104.2 76.6398C104.199 73.772 104.176 70.905 104.23 68.036C104.256 66.6453 104.446 65.7593 105.621 64.8773C106.024 64.5747 106.172 64.5244 106.675 64.4883Z" fill="#1A0B8F"/>
<path d="M136.531 104.357C137.424 104.286 138.564 104.332 139.487 104.338L144.027 104.344L177.544 104.343L182.595 104.333C184.591 104.314 189.902 103.88 190.63 106.74C190.836 107.551 190.752 109.767 190.752 110.725L190.739 117.596C190.731 119.188 190.749 120.796 190.707 122.384C190.663 123.996 188.539 124.91 187.192 125.149C186.449 125.208 185.195 125.168 184.399 125.167L145.473 125.163L140.195 125.174C137.992 125.183 133.515 125.578 133.05 122.274C132.954 121.593 133.007 120.678 133.008 119.973L133.01 116.065C133.005 113.87 133.013 111.675 133.031 109.481C133.046 108.519 133.048 107.133 133.146 106.201C133.913 105.314 135.417 104.655 136.531 104.357Z" fill="#1A0B8F"/>
<path fill-rule="evenodd" clip-rule="evenodd" d="M179.615 167.008C183.013 167.012 187.646 166.737 190.73 168.322C192.349 169.155 192.849 171.268 191.816 172.736C191.349 173.447 190.783 173.807 190.044 174.195C192.547 174.87 195.243 176.766 194.308 179.594C192.635 184.656 184.561 183.906 180.416 183.928C178.567 183.939 176.78 183.989 175.074 183.905C174.961 181.616 174.925 178.6 174.986 176.283L174.813 176.182C173.79 176.29 172.495 176.299 171.459 176.267C169.074 176.193 166.541 176.375 164.172 176.242L164.163 180.573C164.167 181.526 164.216 182.965 164.088 183.86C162.758 183.91 161.365 183.944 160.036 183.869C159.974 181.997 159.846 167.779 160.16 167.196C161.227 166.934 163.337 167.01 164.524 167.01L170.079 167.014L179.615 167.008ZM186.345 176.237C184.553 176.131 182.862 176.216 181.078 176.196C180.544 176.191 179.601 176.234 179.104 176.185C179.077 177.861 179.075 179.538 179.101 181.214C182.007 181.22 186.877 181.579 189.235 180.25C189.701 179.877 190.116 179.514 190.173 178.88C190.361 176.79 187.9 176.328 186.345 176.237ZM164.178 169.81C164.153 171.007 164.147 172.205 164.163 173.402C164.853 173.431 165.562 173.449 166.252 173.436C169.103 173.383 171.973 173.488 174.821 173.468L174.984 173.529L175.005 169.83L164.178 169.81ZM179.084 169.728C179.084 170.979 179.068 172.263 179.109 173.511C181.396 173.396 185.567 173.869 187.369 172.716C187.783 172.352 188.029 172.103 188.085 171.529C188.235 169.956 185.64 169.799 184.565 169.761C182.746 169.699 180.904 169.794 179.084 169.728Z" fill="#FEFEFE"/>
<path d="M137.775 167.023C138.835 166.987 139.969 166.997 141.034 166.988C141.353 167.557 142.312 168.776 142.723 169.353C144.223 171.463 145.906 173.528 147.39 175.648C147.768 175.037 148.507 174.073 148.949 173.457L151.973 169.214C152.428 168.574 153.113 167.67 153.491 167.008C154.248 167.007 158.183 166.859 158.566 167.263C158.791 168.128 158.725 169.819 158.724 170.776L158.717 175.173L158.716 180.404C158.715 181.427 158.733 182.897 158.616 183.878C157.24 183.939 155.965 183.907 154.591 183.855C154.467 180.636 154.546 177.032 154.547 173.77C154.547 172.907 154.519 171.93 154.617 171.081C152.467 173.781 150.541 176.791 148.387 179.483C147.573 179.568 146.76 179.549 145.942 179.549C145.541 178.874 144.863 178.059 144.41 177.39C143.033 175.363 141.143 173.112 139.879 171.062C139.688 173.956 139.87 177.071 139.806 179.987C139.782 181.097 139.876 182.842 139.692 183.887C138.398 183.931 137.253 183.951 135.961 183.864C135.818 182.319 135.757 168.096 136.028 167.24C136.402 166.958 137.277 167.025 137.775 167.023Z" fill="#FEFEFE"/>
</svg>
