<svg width="250" height="250" viewBox="0 0 250 250" fill="none" xmlns="http://www.w3.org/2000/svg">
<mask id="path-1-inside-1_769_475" fill="white">
<path d="M0 48C0 21.4903 21.4903 0 48 0H202C228.51 0 250 21.4903 250 48V202C250 228.51 228.51 250 202 250H48C21.4903 250 0 228.51 0 202V48Z"/>
</mask>
<path d="M0 48C0 21.4903 21.4903 0 48 0H202C228.51 0 250 21.4903 250 48V202C250 228.51 228.51 250 202 250H48C21.4903 250 0 228.51 0 202V48Z" fill="white"/>
<path d="M48 0V2H202V0V-2H48V0ZM250 48H248V202H250H252V48H250ZM202 250V248H48V250V252H202V250ZM0 202H2V48H0H-2V202H0ZM48 250V248C22.5949 248 2 227.405 2 202H0H-2C-2 229.614 20.3858 252 48 252V250ZM250 202H248C248 227.405 227.405 248 202 248V250V252C229.614 252 252 229.614 252 202H250ZM202 0V2C227.405 2 248 22.5949 248 48H250H252C252 20.3858 229.614 -2 202 -2V0ZM48 0V-2C20.3858 -2 -2 20.3858 -2 48H0H2C2 22.5949 22.5949 2 48 2V0Z" fill="#DDDBDB" mask="url(#path-1-inside-1_769_475)"/>
<path fill-rule="evenodd" clip-rule="evenodd" d="M167.686 54.8867C167.594 56.5051 167.656 58.7538 167.658 60.401C167.674 64.2919 167.671 68.1831 167.648 72.074C174.413 72.0662 179.571 71.7761 184.847 77.1044C188.969 81.2675 189.912 85.1635 189.916 90.8667L189.914 163.067C189.917 165.627 190.056 170.232 189.643 172.595C189.044 176.092 187.353 179.31 184.814 181.789C179.181 187.381 173.427 186.843 166.223 186.782C165.62 186.777 165.018 186.769 164.415 186.756C164.454 189.441 164.425 192.167 164.477 194.833L142.895 194.842C139.257 194.842 135.01 194.948 131.405 194.822C126.222 194.954 120.473 194.843 115.253 194.843L84.341 194.845C84.3207 192.324 84.3559 189.862 84.2708 187.335C84.9228 187.35 85.5753 187.351 86.2275 187.339C91.7395 187.205 95.8095 185.588 99.7963 181.603C101.653 179.748 103.901 175.69 104.2 173.121C104.517 170.399 104.38 166.141 104.374 163.251L104.379 95.113C104.38 92.8248 104.429 90.4514 104.355 88.1747C104.114 80.7652 97.8856 74.2228 90.8202 72.5672C88.3779 71.9949 86.2243 72.0008 83.7427 72.0862C81.7158 72.1007 79.412 72.1566 77.3994 72.0817C78.2571 71.9369 81.7009 71.9999 82.6727 72.003C82.6841 66.5794 82.8407 60.2403 82.6297 54.9033L167.686 54.8867ZM157.377 138.501C153.251 138.569 149.04 138.393 144.923 138.524L144.935 159.44L144.931 165.938C144.93 168.425 144.852 171.174 145.434 173.587C146.147 176.53 147.669 179.214 149.828 181.336C153.016 184.534 157.355 186.318 161.871 186.288C162.436 186.287 163.311 186.24 163.878 186.166C163.985 184.645 163.913 182.299 163.911 180.737L163.907 138.545C161.77 138.476 159.52 138.465 157.377 138.501ZM160.439 71.9909C156.356 72.2627 151.801 74.6244 149.104 77.7071C147.215 79.8557 145.913 82.4553 145.322 85.2543C144.874 87.433 144.93 90.045 144.928 92.2867L144.936 123.004L163.899 123.002L163.911 84.4556C163.911 83.008 164.079 73.0715 163.819 72.2294L163.66 72.0943C162.586 72.0251 161.516 72.06 160.439 71.9909Z" fill="#1B1463"/>
<path d="M167.687 54.8867L82.6299 54.9033C82.8409 60.2403 82.6845 66.5792 82.6732 72.0028L83.743 72.0861C86.2246 72.0008 88.3782 71.9947 90.8206 72.5671C97.886 74.2226 104.114 80.7651 104.355 88.1746C104.429 90.4514 104.38 92.8247 104.38 95.113L104.374 107.614L104.371 145.1L104.375 163.251C104.38 166.141 104.518 170.399 104.201 173.121C103.902 175.69 101.654 179.748 99.7967 181.603C95.8098 185.588 91.7397 187.205 86.2276 187.339C85.5754 187.351 84.9231 187.35 84.2711 187.335C84.3562 189.862 84.321 192.324 84.3413 194.845L115.253 194.843C120.473 194.843 126.222 194.954 131.405 194.821L131.403 71.4989L149.32 71.4943C152.191 71.4941 157.83 71.3186 160.372 71.8581L160.439 71.9907C161.517 72.0598 162.586 72.0251 163.66 72.0942L163.592 71.9966C164.87 72.1665 166.334 72.0711 167.648 72.074C167.671 68.183 167.674 64.2921 167.658 60.4011C167.656 58.754 167.594 56.5051 167.687 54.8867Z" fill="#C7B199"/>
<path d="M77.4001 72.0815C79.4126 72.1564 81.7164 72.1005 83.7434 72.086L83.7413 186.817C82.0278 186.771 80.1528 186.756 78.4308 186.789C69.6809 186.947 61.8055 180.079 61.1264 171.289C60.9463 168.959 61.0137 166.515 61.0169 164.149L61.0219 153.853L61.0197 120.635L61.0168 98.3573L61.0162 91.9568C61.0187 86.4494 61.3897 82.3278 65.2639 77.9417C68.4728 74.3088 72.582 72.4124 77.4001 72.0815Z" fill="#1B1463"/>
</svg>
