<svg width="250" height="250" viewBox="0 0 250 250" fill="none" xmlns="http://www.w3.org/2000/svg">
<mask id="path-1-inside-1_769_476" fill="white">
<path d="M0 48C0 21.4903 21.4903 0 48 0H202C228.51 0 250 21.4903 250 48V202C250 228.51 228.51 250 202 250H48C21.4903 250 0 228.51 0 202V48Z"/>
</mask>
<path d="M0 48C0 21.4903 21.4903 0 48 0H202C228.51 0 250 21.4903 250 48V202C250 228.51 228.51 250 202 250H48C21.4903 250 0 228.51 0 202V48Z" fill="white"/>
<path d="M48 0V2H202V0V-2H48V0ZM250 48H248V202H250H252V48H250ZM202 250V248H48V250V252H202V250ZM0 202H2V48H0H-2V202H0ZM48 250V248C22.5949 248 2 227.405 2 202H0H-2C-2 229.614 20.3858 252 48 252V250ZM250 202H248C248 227.405 227.405 248 202 248V250V252C229.614 252 252 229.614 252 202H250ZM202 0V2C227.405 2 248 22.5949 248 48H250H252C252 20.3858 229.614 -2 202 -2V0ZM48 0V-2C20.3858 -2 -2 20.3858 -2 48H0H2C2 22.5949 22.5949 2 48 2V0Z" fill="#DDDBDB" mask="url(#path-1-inside-1_769_476)"/>
<path d="M87.9446 119.884C91.6178 119.686 95.7124 119.882 99.4057 119.937C100.575 119.955 101.352 120.928 102.004 121.786C102.154 123.078 102.081 125.27 102.071 126.61L102.027 134.522L102.037 162.663C103.767 162.641 105.497 162.664 107.226 162.73C107.166 156.104 107.14 149.478 107.149 142.852C107.133 139.699 106.974 136.078 107.24 132.904C107.322 131.932 108.452 130.84 109.536 130.796C111.899 130.701 114.354 130.976 116.728 130.862C118.961 130.845 122.983 130.165 123.098 133.336C123.249 136.521 123.155 139.703 123.154 142.88C123.178 149.47 123.157 156.059 123.092 162.649L128.209 162.769C127.973 153.308 128.368 143.74 128.197 134.268C128.167 132.592 128.44 131.989 129.609 130.866C130.803 130.717 133.06 130.842 134.377 130.836C136.642 130.825 138.994 130.816 141.258 130.883C142.659 130.924 143.132 131.36 143.997 132.36C144.294 133.82 144.112 140.041 144.105 141.92L144.103 162.643C145.738 162.636 147.556 162.723 149.203 162.77C149.273 156.771 149.22 150.677 149.219 144.673L149.198 129.622C149.194 127.123 149.108 124.455 149.323 121.967C149.474 120.751 150.793 119.807 151.98 119.85C155.453 119.996 159.089 119.637 162.528 120.029C165.77 120.398 165.081 124.306 165.063 126.6L165.026 134.112C165.029 143.606 164.926 153.264 165.055 162.734C170.996 162.749 171.555 161.633 171.28 168.602C171.186 170.987 170.687 171.442 168.265 171.472C161.037 171.56 153.804 171.519 146.575 171.519L108.121 171.53L89.2498 171.526C87.0504 171.527 82.0805 171.713 80.2053 171.432C78.9872 170.526 79.0533 164.188 79.8588 163.074C80.915 162.296 84.7926 162.679 86.3425 162.739C86.2461 152.813 86.2136 142.887 86.2447 132.961C86.2453 130.802 86.2326 128.643 86.2067 126.484C86.1837 124.046 85.6499 121.408 87.9446 119.884Z" fill="#0D045A"/>
<path d="M125.644 62.3833C125.872 62.4197 190.247 109.745 195.47 113.609C190.163 113.617 184.703 113.71 179.412 113.62C178.603 113.152 176.79 111.729 175.937 111.123C172.76 108.854 169.605 106.557 166.47 104.231C156.231 96.6229 145.941 89.0837 135.601 81.614C133.282 79.9673 130.998 78.1017 128.627 76.4973C127.714 75.8797 126.518 74.8958 125.564 74.4151C124.84 74.7812 123.683 75.6931 122.991 76.2067C110.874 85.1948 98.4031 94.1865 86.2265 103.047L78.2401 108.857C76.0743 110.456 73.7703 112.273 71.4423 113.614C66.9355 113.632 59.7313 113.409 55.4697 113.777C56.933 112.304 60.3265 110.033 62.1816 108.678L75.0947 99.2621L105.254 77.3094C111.945 72.4525 119.107 67.3767 125.644 62.3833Z" fill="#0D045A"/>
<path d="M73.1421 172.249C75.3836 172.164 78.7005 172.345 80.9944 172.395C84.7815 172.473 88.5693 172.5 92.3571 172.476L141.021 172.518C152.139 172.534 163.263 172.577 174.376 172.22C175.659 172.179 177.042 172.235 178.31 172.385C179.033 172.901 179.208 173.033 179.795 173.72C179.884 175.403 179.987 178.177 179.673 179.802C179.534 180.522 179.129 180.761 178.54 181.101C177.097 181.433 170.254 181.305 168.325 181.304L146.045 181.302L96.1121 181.304L80.43 181.309C78.249 181.314 76.0779 181.376 73.8861 181.39C71.7995 181.403 71.9601 179.741 71.9237 178.098C71.8914 176.645 71.9089 175.128 71.9829 173.667C72.347 173.062 72.5919 172.687 73.1421 172.249Z" fill="#0D045A"/>
<path d="M124.796 86.7197C127.547 86.5804 130.297 87.0157 132.871 87.9981C136.34 89.3457 140.855 92.7597 142.386 96.2453C141.344 96.293 138.335 96.2871 137.709 96.9058C137.413 97.7638 138.216 97.7268 138.356 98.4999C137.485 99.5083 128.163 107.074 127.124 107.652C126.143 106.227 125.502 105.538 124.394 104.249C122.59 105.459 121.227 106.525 119.551 107.888C117.257 109.83 114.959 111.774 112.579 113.609C111.329 114.573 110.085 115.541 108.919 116.605C107.913 114.718 106.988 112.701 106.506 110.583C104.255 100.707 109.706 91.2519 119.098 87.7338C120.919 87.0517 122.853 86.8416 124.796 86.7197Z" fill="#D30400"/>
<path d="M111.683 98.8912C114.01 98.8092 116.339 98.7921 118.667 98.8399C118.631 101.286 118.64 103.732 118.695 106.178C117.775 107.17 116.698 108.046 115.665 108.924C114.336 110.073 113.099 111.12 111.604 112.056C111.764 108.461 111.787 102.487 111.683 98.8912Z" fill="#FFFEFF"/>
<path d="M120.776 94.2378C122.652 94.3408 125.522 94.2679 127.52 94.2987C127.371 96.7886 127.608 101.251 127.581 104.032C126.686 103.444 126.387 103.159 125.774 102.319C125.591 101.942 125.483 101.579 125.051 101.515C123.691 102.695 122.018 103.943 120.771 105.115C120.907 101.753 120.764 97.6869 120.776 94.2378Z" fill="#FFFEFF"/>
<path d="M134.935 93.5969L136.646 93.5718L136.594 98.5626C135.807 99.5032 132.067 102.291 130.937 103.112C130.526 103.401 129.978 103.695 129.535 103.95C129.726 102.205 129.688 95.5889 129.574 93.6672L134.935 93.5969Z" fill="#FFFEFF"/>
<path d="M143.547 98.8877C143.729 98.9394 143.845 99.0353 144.002 99.1409C144.745 100.535 145.021 103.328 145.091 104.923C145.329 110.37 143.432 115.79 139.657 119.776C136.193 123.453 131.399 125.59 126.349 125.707C120.514 125.841 115.769 123.953 111.566 119.947L109.35 117.296C111.296 116.621 114.726 114.187 116.557 113.013C118.581 111.715 120.738 110.36 122.741 109.041C123.769 110.802 124.96 111.896 126.363 113.381C129.172 110.965 132.237 108.654 135.086 106.126C136.6 104.783 139.607 102.15 141.069 101.078L141.215 101.246C141.637 101.727 141.913 102.19 142.517 102.229C142.933 101.781 142.633 100.436 143.547 98.8877Z" fill="#D30400"/>
</svg>
