<svg width="250" height="250" viewBox="0 0 250 250" fill="none" xmlns="http://www.w3.org/2000/svg">
<mask id="path-1-inside-1_769_480" fill="white">
<path d="M0 48C0 21.4903 21.4903 0 48 0H202C228.51 0 250 21.4903 250 48V202C250 228.51 228.51 250 202 250H48C21.4903 250 0 228.51 0 202V48Z"/>
</mask>
<path d="M0 48C0 21.4903 21.4903 0 48 0H202C228.51 0 250 21.4903 250 48V202C250 228.51 228.51 250 202 250H48C21.4903 250 0 228.51 0 202V48Z" fill="white"/>
<path d="M48 0V2H202V0V-2H48V0ZM250 48H248V202H250H252V48H250ZM202 250V248H48V250V252H202V250ZM0 202H2V48H0H-2V202H0ZM48 250V248C22.5949 248 2 227.405 2 202H0H-2C-2 229.614 20.3858 252 48 252V250ZM250 202H248C248 227.405 227.405 248 202 248V250V252C229.614 252 252 229.614 252 202H250ZM202 0V2C227.405 2 248 22.5949 248 48H250H252C252 20.3858 229.614 -2 202 -2V0ZM48 0V-2C20.3858 -2 -2 20.3858 -2 48H0H2C2 22.5949 22.5949 2 48 2V0Z" fill="#DDDBDB" mask="url(#path-1-inside-1_769_480)"/>
<path d="M55 125.854C58.3767 122.887 61.3101 120.278 64.2738 117.717C68.0088 114.496 71.7803 111.31 75.5335 108.106C79.2928 104.903 83.0522 101.705 86.7993 98.4956C90.1639 95.6135 93.5041 92.6951 96.8869 89.8252C97.8586 89 98.9457 88.3083 100.106 87.4649C115.349 99.8911 130.387 112.147 145.691 124.622C131.219 137.813 116.607 150.263 102.001 163.254C86.4471 150.876 70.9665 138.559 55 125.854Z" fill="#007CC3"/>
<path d="M92.1016 65.4521C101.63 65.4521 110.376 65.4521 119.364 65.4521C144.343 85.044 169.505 104.775 195 124.768C170.598 145.003 146.518 164.971 122.547 184.848C113.516 185.564 104.667 185.315 95.703 185.078C101.351 179.642 107.43 174.885 113.309 169.91C119.328 164.819 125.425 159.832 131.486 154.796C137.468 149.826 143.414 144.809 149.451 139.906C155.469 135.022 161.415 130.059 167.604 124.78C159.235 117.76 150.702 111.51 142.461 104.897C134.268 98.3257 125.96 91.8942 117.688 85.4202C109.362 78.9037 101.017 72.4115 92.1016 65.4521Z" fill="#DA251D"/>
</svg>
