<svg width="250" height="250" viewBox="0 0 250 250" fill="none" xmlns="http://www.w3.org/2000/svg">
<rect width="250" height="250" fill="white"/>
<path d="M55 125.855C58.3767 122.888 61.3101 120.279 64.2738 117.718C68.0088 114.496 71.7803 111.311 75.5335 108.107C79.2928 104.904 83.0522 101.706 86.7993 98.4966C90.1639 95.6145 93.5041 92.6961 96.8869 89.8262C97.8586 89.001 98.9457 88.3093 100.106 87.4659C115.349 99.8921 130.387 112.148 145.691 124.623C131.219 137.814 116.607 150.264 102.001 163.255C86.4471 150.877 70.9665 138.56 55 125.855Z" fill="#007CC3"/>
<path d="M92.1016 65.4531C101.63 65.4531 110.376 65.4531 119.364 65.4531C144.343 85.045 169.505 104.776 195 124.769C170.598 145.004 146.518 164.972 122.547 184.849C113.516 185.565 104.667 185.316 95.703 185.079C101.351 179.643 107.43 174.886 113.309 169.911C119.328 164.82 125.425 159.833 131.486 154.797C137.468 149.827 143.414 144.81 149.451 139.907C155.469 135.023 161.415 130.06 167.604 124.781C159.235 117.761 150.702 111.511 142.461 104.898C134.268 98.3267 125.96 91.8952 117.688 85.4212C109.362 78.9047 101.017 72.4125 92.1016 65.4531Z" fill="#DA251D"/>
</svg>
