<svg width="250" height="250" viewBox="0 0 250 250" fill="none" xmlns="http://www.w3.org/2000/svg">
<mask id="path-1-inside-1_769_482" fill="white">
<path d="M0 48C0 21.4903 21.4903 0 48 0H202C228.51 0 250 21.4903 250 48V202C250 228.51 228.51 250 202 250H48C21.4903 250 0 228.51 0 202V48Z"/>
</mask>
<path d="M0 48C0 21.4903 21.4903 0 48 0H202C228.51 0 250 21.4903 250 48V202C250 228.51 228.51 250 202 250H48C21.4903 250 0 228.51 0 202V48Z" fill="white"/>
<path d="M48 0V2H202V0V-2H48V0ZM250 48H248V202H250H252V48H250ZM202 250V248H48V250V252H202V250ZM0 202H2V48H0H-2V202H0ZM48 250V248C22.5949 248 2 227.405 2 202H0H-2C-2 229.614 20.3858 252 48 252V250ZM250 202H248C248 227.405 227.405 248 202 248V250V252C229.614 252 252 229.614 252 202H250ZM202 0V2C227.405 2 248 22.5949 248 48H250H252C252 20.3858 229.614 -2 202 -2V0ZM48 0V-2C20.3858 -2 -2 20.3858 -2 48H0H2C2 22.5949 22.5949 2 48 2V0Z" fill="#DDDBDB" mask="url(#path-1-inside-1_769_482)"/>
<path d="M59.123 194.647C68.4311 184.389 77.7392 173.324 87.9339 163.128C109.764 141.264 132.046 119.853 154.128 98.2463C155.671 96.7365 157.905 95.333 158.392 93.5C159.008 91.1844 158.99 87.8416 157.679 86.1502C156.757 84.9547 153.135 85.3268 150.91 85.8403C149.443 86.1812 148.291 87.9789 147.054 89.1875C118.589 116.933 90.1264 144.691 61.6672 172.461C60.1557 173.935 58.5645 175.325 55.7587 177.902C55.4795 174.316 55.1648 172.146 55.1648 169.977C55.1293 134.326 55.2623 98.6934 55.0008 63.0296C54.9565 56.831 56.7738 54.8475 63.028 54.8873C104.737 55.1323 146.447 55.1618 188.156 54.9759C193.032 54.9759 195.022 56.3041 195 61.5552C194.825 103.9 194.814 146.248 194.964 188.599C194.964 192.885 193.772 194.895 189.131 194.882C146.122 194.784 103.117 194.758 60.1158 194.802C59.2825 194.802 58.4758 194.537 59.123 194.647Z" fill="#FF0000"/>
</svg>
