<svg width="250" height="250" viewBox="0 0 250 250" fill="none" xmlns="http://www.w3.org/2000/svg">
<rect width="250" height="250" fill="#E6E7EA"/>
<path fill-rule="evenodd" clip-rule="evenodd" d="M193.651 92.5967V103.251H56.3498V92.4521L125.072 59.8848L193.651 92.5967ZM125 75.5674C120.582 75.5674 117 79.1493 117 83.5674C117 87.9857 120.582 91.5674 125 91.5674C129.419 91.5674 133 87.9857 133 83.5674C133 79.1493 129.418 75.5674 125 75.5674Z" fill="white"/>
<path d="M93 168.455H114V110.395H136V168.455H157V110.395H179V168.455H186.713V175.598H193.654V189.885H56.3457V175.598H63.2881V168.455H71V110.395H93V168.455Z" fill="white"/>
</svg>
