<svg width="250" height="250" viewBox="0 0 250 250" fill="none" xmlns="http://www.w3.org/2000/svg">
<path d="M0 48C0 21.4903 21.4903 0 48 0H202C228.51 0 250 21.4903 250 48V202C250 228.51 228.51 250 202 250H48C21.4903 250 0 228.51 0 202V48Z" fill="url(#paint0_linear_769_490)"/>
<path d="M69.4857 55.6219C71.9625 55.4538 75.322 55.5433 77.8373 55.5427L92.4121 55.5406L137.572 55.5414L165.781 55.544C169.651 55.5443 177.795 55.2975 181.14 55.9389C181.47 56.2345 181.982 56.8378 182.008 57.2417C182.412 63.6747 182.202 72.4231 182.21 78.7092L182.206 148.666C182.206 152.353 182.712 175.742 181.75 177.528C180.066 179.033 170.174 181.641 167.341 182.479C162.176 184.357 156.208 185.925 150.91 187.562C142.254 190.237 133.532 193.007 124.828 195.498C121.77 194.734 118.124 193.539 115.058 192.616L98.499 187.642C94.2708 186.373 69.9443 179.535 67.7516 177.954C67.1269 175.402 67.3257 170.344 67.3259 167.487L67.3265 152.08C67.3268 143.016 66.9957 57.8154 67.5614 56.7671C67.9133 56.1149 68.8195 55.8085 69.4857 55.6219ZM72.7081 174.33C75.6417 174.968 79.4956 176.236 82.4347 177.117L98.8321 182.04L115.413 187.026C118.151 187.848 122.206 188.958 124.787 189.935C126.792 189.167 128.88 188.563 130.93 187.92C142.136 184.405 153.443 181.137 164.633 177.581C168.49 176.393 172.992 174.903 176.862 173.891C176.512 170.209 176.718 163.426 176.718 159.507L176.721 132.342L176.719 85.8537C176.719 77.7343 176.571 69.0198 176.766 60.9462L72.7222 60.9674C73.0578 82.0193 72.765 103.91 72.7613 125.054L72.7611 156.387C72.7622 162.238 72.869 168.505 72.7081 174.33Z" fill="white"/>
<path d="M131.15 66.3408C132.354 66.4799 134.455 66.4417 135.727 66.4561C135.823 69.5777 135.68 73.122 135.712 76.3187L135.864 109.288C137.306 107.487 138.551 105.974 140.101 104.263C139.965 99.2582 140.064 93.8415 140.051 88.8078L139.862 66.3704C141.236 66.4783 142.917 66.435 144.317 66.4352C144.132 77.3636 144.358 88.5933 144.323 99.5641C145.586 97.864 147.268 95.956 148.653 94.3111C148.465 90.7871 148.556 86.7417 148.554 83.1683L148.475 66.3874C149.941 66.4789 151.334 66.4486 152.799 66.374C152.693 74.2326 153.081 81.7599 152.802 89.7698C154.759 87.0268 157.51 83.9992 159.726 81.4286C163.531 76.9533 167.401 72.5343 171.338 68.1736C171.347 70.3084 171.397 72.6011 171.271 74.7176C170.479 75.9862 168.658 77.9618 167.62 79.1568L161.354 86.3591L140.509 110.453L104.741 151.758L93.1463 165.157C91.1812 167.425 88.5504 170.628 86.5038 172.681C85.1539 172.111 83.5737 171.729 82.1387 171.453C83.7293 168.807 88.135 164.087 90.2685 161.632C92.0102 159.627 95.1365 155.911 96.9889 154.172C95.1474 154.502 92.2592 154.437 90.3041 154.484C86.2798 154.581 82.2539 154.556 78.2277 154.744C78.2689 153.383 78.2009 151.718 78.1819 150.335C85.225 150.622 93.5057 149.739 100.517 150.063C101.554 148.762 102.429 147.769 103.546 146.548C101.889 146.842 95.0356 146.874 92.9279 146.86C88.0588 146.83 83.0351 147.176 78.2446 147.176L78.1825 142.701C78.6891 142.76 79.1981 142.793 79.708 142.802C86.39 142.92 99.8328 142.417 106.98 142.347C107.123 142.346 110.125 138.882 110.836 138.2C105.749 138.473 100.458 138.346 95.3488 138.467C89.6366 138.604 83.9733 138.81 78.2591 138.795C78.2155 137.367 78.235 135.895 78.2359 134.464C80.504 134.651 85.387 134.419 87.7846 134.371L104.116 134.085C106.952 134.02 112.138 133.643 114.604 134.335C113.394 133.342 111.057 130.934 109.839 129.764C107.242 129.696 103.804 129.867 101.143 129.92L78.2635 130.381L78.1934 125.977C84.0545 126.213 91.1217 125.621 97.0668 125.702C99.5993 125.737 102.846 125.4 105.296 125.759C104.042 124.357 102.113 122.548 100.749 121.201C98.962 121.455 95.6345 121.382 93.7601 121.431C88.5938 121.566 83.4052 121.451 78.2366 121.726L78.2316 117.362C81.8899 117.454 85.807 117.228 89.4781 117.199C91.9804 117.179 93.9876 116.937 96.496 117.34C94.9848 116.011 93.2791 114.339 91.8704 112.906C88.1461 112.888 81.8652 112.879 78.2528 113.181L78.2298 108.68C81.1591 108.907 84.7566 108.441 87.4133 108.817C84.7215 106.295 80.8139 102.874 78.3907 100.286C78.1923 98.2438 78.2233 96.2893 78.2229 94.2403C79.5283 95.8442 85.4248 101.01 87.3256 102.815C97.2119 112.203 107.235 121.49 117.155 130.849C117.78 129.981 118.879 128.75 119.593 127.901C117.267 126.054 114.425 123.247 112.241 121.182L102.594 112.111L78.3216 89.3011C78.1313 87.3833 78.0974 85.4533 78.2201 83.5301C81.2378 86.053 83.8799 88.6906 86.7378 91.3908L97.2908 101.285C105.572 109.095 114.201 116.923 122.343 124.831C123.179 123.719 123.833 123.06 124.816 122.064L90.9861 90.2935C86.8111 86.3489 82.3364 82.3661 78.301 78.3218C78.123 76.3892 78.0968 74.4456 78.2227 72.5089C89.3132 82.5725 100.679 93.4357 111.6 103.752L121.365 112.902C123.509 114.92 125.408 116.851 127.657 118.781C128.489 117.629 129.081 116.866 130.173 115.961C128.688 114.865 127.017 113.137 125.628 111.836L117.76 104.471L92.4093 80.6997C90.6583 79.0648 78.176 67.5909 78.1497 66.8237C79.2444 66.264 81.9344 66.4634 83.2518 66.5C85.1512 67.6927 88.9333 71.5994 90.7662 73.2418C95.8849 77.8279 101.117 83.3516 106.241 87.8177C105.902 81.6378 106.121 72.8018 106.091 66.4208L110.475 66.4496C110.635 69.1678 110.525 73.3491 110.532 76.1278C110.586 81.3393 110.601 86.551 110.577 91.7626C111.892 93.2692 113.142 94.3773 114.623 95.7065C114.343 93.8882 114.168 67.1276 114.393 66.3515C115.449 66.4826 117.583 66.4288 118.721 66.4313L118.785 88.4157C118.801 92.0904 118.97 95.9842 118.805 99.6327C120.273 100.938 121.822 102.46 123.261 103.821C122.791 101.601 122.962 92.7644 122.958 89.8261L122.728 66.3635C124.01 66.4694 125.83 66.4384 127.151 66.4548C127.323 68.585 127.221 71.7796 127.219 73.9785L127.258 85.6665C127.26 92.8 127.585 100.671 127.342 107.677C128.858 109.008 130.338 110.32 131.714 111.799C131.339 108.977 131.527 103.162 131.505 100.135L131.371 80.3545C131.362 75.8961 131.482 70.728 131.15 66.3408Z" fill="white"/>
<path d="M171.009 103.886L171.197 104.001C171.456 104.592 171.369 112.65 171.373 114.038L169.455 112.131C168.669 113.26 167.907 114.08 166.991 115.093C168.386 116.715 169.875 117.767 171.262 119.315C171.397 120.993 171.352 123.265 171.36 125C168.905 122.81 166.468 120.6 164.048 118.37C163.197 119.519 162.539 120.49 161.447 121.421C164.423 123.805 168.402 127.647 171.236 130.325C171.389 131.995 171.364 134.504 171.391 136.242L163.364 128.911C162.137 127.787 159.771 125.721 158.86 124.517C157.954 125.602 157.127 126.514 156.16 127.544C160.867 132.195 166.353 136.81 171.252 141.549C171.404 143.366 171.351 145.332 171.341 147.165C168.534 144.928 161.401 138.363 158.921 135.713C160.388 139.473 161.731 143.705 163.036 147.568C165.556 155.091 168.133 162.594 170.766 170.078C169.316 170.42 167.992 170.865 166.581 171.324C163.889 164.126 161.369 155.93 158.844 148.61L155.083 137.586C154.445 135.694 153.464 133.028 153.064 131.175C151.899 132.579 150.857 133.872 149.563 135.161C154.138 147.298 157.87 160.617 162.456 172.636C161.293 172.867 159.417 173.505 158.234 173.869C157.536 171.163 155.53 165.79 154.597 163.042C151.792 154.969 149.059 146.872 146.4 138.75C145.647 139.941 143.998 141.649 143.021 142.96C144.557 146.638 146.096 151.655 147.416 155.515L151.532 167.689C152.317 170 153.207 172.874 154.138 175.092C152.773 175.487 151.308 175.982 149.943 176.413L143.375 157.038C142.424 154.256 140.499 149.088 139.873 146.39C138.795 147.742 137.672 149.055 136.502 150.327C136.913 151.823 137.531 153.366 138.017 154.849C140.52 162.489 143.314 170.051 145.793 177.697L141.627 178.939L133.279 154.062C132.081 155.502 131.202 156.558 129.858 157.869C130.551 160.125 131.597 162.84 132.382 165.139L137.501 180.197C135.957 180.733 134.866 181.037 133.299 181.431C131.278 175.022 128.857 168.007 126.635 161.643C125.163 163.87 120.351 169.013 118.461 171.329C117.092 173.007 112.106 178.846 110.752 179.997C109.23 179.355 107.798 179.04 106.205 178.664C107.692 177.25 111.475 172.598 112.994 170.831L126.435 155.306L171.009 103.886Z" fill="white"/>
<path d="M171.023 80.3594C171.59 80.745 171.338 85.5966 171.329 86.5087C166.825 92.2504 160.433 99.2232 155.568 104.839L126.653 138.25L105.134 163.074C102.334 166.306 97.4991 172.332 94.6317 175.129C93.7128 174.749 92.4767 174.415 91.5003 174.124C91.0137 174.012 90.8986 173.963 90.4491 173.761L90.4355 173.523C91.7422 171.506 96.8817 165.875 98.7537 163.7L117.828 141.672L152.916 101.168C158.831 94.3437 164.937 87.0122 171.023 80.3594Z" fill="white"/>
<path d="M170.924 92.1982L171.23 92.4125C171.482 93.6185 171.333 96.9287 171.285 98.2833C170.482 99.6466 165.878 104.732 164.593 106.212L149.872 123.217L117.257 160.884L108.676 170.78C107.399 172.274 103.956 176.469 102.579 177.541C101.842 177.234 101.068 176.99 100.309 176.737C99.6113 176.614 99.0906 176.636 98.75 176.005C98.8791 174.681 100.88 173.184 101.783 172.142L109.926 162.599L134.528 134.172L157.185 108.004C161.636 102.844 166.351 97.2056 170.924 92.1982Z" fill="white"/>
<defs>
<linearGradient id="paint0_linear_769_490" x1="36.1279" y1="21.9181" x2="125" y2="250" gradientUnits="userSpaceOnUse">
<stop stop-color="#476EE2"/>
<stop offset="1" stop-color="#9308FF"/>
</linearGradient>
</defs>
</svg>
