<svg width="250" height="250" viewBox="0 0 250 250" fill="none" xmlns="http://www.w3.org/2000/svg">
<path d="M0 48C0 21.4903 21.4903 0 48 0H202C228.51 0 250 21.4903 250 48V202C250 228.51 228.51 250 202 250H48C21.4903 250 0 228.51 0 202V48Z" fill="#038E46"/>
<path d="M84.1972 150.152L92.1608 152.62L153.779 117.247V108.843L145.227 107.664L84.9265 143.479L84.1972 150.152Z" fill="white"/>
<path d="M81.3663 152.484L77.9269 83.1061L65 90.9334L68.4396 161.261L102.832 178.338L166.637 140.744L165.806 128.054L103.9 164.225L81.3663 152.484Z" fill="white"/>
<path d="M103.722 187.576L112.929 195L148.367 174.707L146.882 162.234L103.722 187.576Z" fill="white"/>
<path d="M102.895 75.7706L103.742 91.3384L149.417 60.6168L136.7 55L102.895 75.7706Z" fill="white"/>
<path d="M184.866 161.795L171.321 169.617L167.686 100.706L147.037 88.8482L85.0893 126.335L82.2276 110.724L145.932 73.633L183.149 94.6454L184.866 161.795Z" fill="white"/>
</svg>
