<svg width="250" height="250" viewBox="0 0 250 250" fill="none" xmlns="http://www.w3.org/2000/svg">
<mask id="path-1-inside-1_769_500" fill="white">
<path d="M0 48C0 21.4903 21.4903 0 48 0H202C228.51 0 250 21.4903 250 48V202C250 228.51 228.51 250 202 250H48C21.4903 250 0 228.51 0 202V48Z"/>
</mask>
<path d="M0 48C0 21.4903 21.4903 0 48 0H202C228.51 0 250 21.4903 250 48V202C250 228.51 228.51 250 202 250H48C21.4903 250 0 228.51 0 202V48Z" fill="white"/>
<path d="M48 0V2H202V0V-2H48V0ZM250 48H248V202H250H252V48H250ZM202 250V248H48V250V252H202V250ZM0 202H2V48H0H-2V202H0ZM48 250V248C22.5949 248 2 227.405 2 202H0H-2C-2 229.614 20.3858 252 48 252V250ZM250 202H248C248 227.405 227.405 248 202 248V250V252C229.614 252 252 229.614 252 202H250ZM202 0V2C227.405 2 248 22.5949 248 48H250H252C252 20.3858 229.614 -2 202 -2V0ZM48 0V-2C20.3858 -2 -2 20.3858 -2 48H0H2C2 22.5949 22.5949 2 48 2V0Z" fill="#DDDBDB" mask="url(#path-1-inside-1_769_500)"/>
<path d="M72.9066 63.0945C73.9004 62.8165 84.0694 62.9328 85.7751 62.9331L119.383 62.9413L161.721 62.9277L175.185 62.9243C178 62.9232 180.815 62.8816 183.643 63.016C188.42 63.243 193.04 67.1579 194.435 71.6705C194.893 73.1521 194.809 75.1914 194.882 76.7443C194.919 78.4681 194.893 80.2415 194.893 81.9703L194.884 93.6038C194.877 100.617 195.127 109.052 194.916 115.942C194.911 119.058 195.046 123.895 194.863 126.845C194.641 143.391 195.096 160.023 194.725 176.562C194.775 180.58 189.441 186.144 185.55 186.727C181.302 187.364 175.214 187.098 170.762 187.092L143.072 187.088H92.7052L76.5629 187.106C73.2947 187.111 70.1564 187.121 66.8293 187.02C61.884 187.187 56.27 182.544 55.4632 177.623C54.8116 173.647 55.0435 167.518 55.0472 163.304L55.0466 139.231L55.06 96.8355L55.0589 83.584C55.0574 79.4982 54.5215 72.8785 56.7325 69.4631C60.7059 62.8803 65.801 62.6492 72.9066 63.0945Z" fill="#00AFEE"/>
<path d="M72.9065 63.0945C73.9003 62.8165 84.0693 62.9328 85.775 62.9331L119.382 62.9413L161.721 62.9277L175.185 62.9243C178 62.9232 180.814 62.8816 183.643 63.016C188.42 63.243 193.04 67.1579 194.435 71.6705C194.893 73.1521 194.809 75.1914 194.882 76.7443C194.919 78.4681 194.893 80.2415 194.893 81.9703L194.884 93.6038C194.877 100.617 195.127 109.052 194.916 115.942C155.249 126.027 116.322 87.4019 84.1654 69.5718C81.7429 68.242 79.3276 66.899 76.9197 65.5427C75.789 64.9066 73.8334 63.8948 72.9065 63.0945Z" fill="#A8CE48"/>
<path d="M56.7327 69.463C60.706 62.8802 65.8011 62.6491 72.9067 63.0944C73.8337 63.8947 75.7893 64.9065 76.9199 65.5426C79.3278 66.8989 81.7431 68.2418 84.1656 69.5717C116.322 87.4017 155.25 126.027 194.916 115.942C194.911 119.058 195.046 123.894 194.863 126.845C184.145 129.812 175.437 129.973 164.533 127.677C160.025 126.589 155.591 124.991 151.323 123.204C123.912 111.725 101.373 91.3814 75.2474 77.5657C71.933 75.8128 60.1558 69.8436 56.7327 69.463Z" fill="#FEFDFC"/>
<path d="M136.93 140.456C140.698 140.533 144.642 140.407 148.47 140.459C148.439 141.952 148.435 143.531 148.46 145.026C148.648 156.103 148.154 167.377 148.591 178.433C145.926 178.293 142.604 178.374 139.891 178.368C139.835 173.915 139.828 169.46 139.869 165.006C139.884 161.565 140.015 156.906 139.713 153.598C139.054 155.026 138.368 157.474 137.771 159.05C135.322 165.515 133.498 172.248 130.955 178.679C129.329 178.371 126.973 178.402 125.266 178.378C123.32 172.878 121.627 167.188 119.589 161.688C118.605 159.034 118.125 156.49 116.731 153.999C117.131 159.719 116.677 166.242 116.859 172.026C116.926 174.175 116.805 176.394 117.028 178.543C114.527 178.29 110.71 178.383 108.103 178.387C108.087 165.878 108.275 152.95 108.072 140.482C111.895 140.436 115.718 140.423 119.541 140.444C121.846 146.777 123.623 153.604 125.779 160.001C126.56 162.318 127.315 165.06 128.259 167.28C129.249 164.942 130.31 161.136 131.139 158.566C133.04 152.668 135.227 146.385 136.93 140.456Z" fill="#FEFDFC"/>
<path fill-rule="evenodd" clip-rule="evenodd" d="M154.632 140.511C160.443 140.398 167.094 140.066 172.793 140.932C182.199 142.36 186.029 153.298 177.112 158.901C179.38 159.792 181.241 160.438 182.456 162.726C184.115 165.853 183.68 169.33 182.405 172.444C178.737 178.99 170.964 178.387 164.549 178.392L154.634 178.395L154.632 140.511ZM163.249 162.061C163.296 165.274 163.325 168.487 163.334 171.699C166.621 171.753 170.977 172.323 173.543 170.499C175.385 168.72 175.134 165.17 173.43 163.512C171.199 161.344 166.207 162.401 163.249 162.061ZM163.251 146.999C163.268 149.954 163.215 153.243 163.338 156.171C166.687 156.237 169.04 156.569 172.059 154.906C172.838 154.328 173.142 153.899 173.279 152.926C173.775 149.4 172.051 147.619 168.619 147.185C166.826 146.96 164.958 147.185 163.251 146.999Z" fill="#FEFDFC"/>
<path d="M70.8309 140.503C73.7271 140.459 76.6232 140.432 79.5197 140.423C79.3631 145.224 79.5679 150.388 79.4772 155.251C79.5015 158.916 79.3375 162.503 79.6443 166.161C79.9815 170.18 82.6101 172.328 86.6429 172.324C95.0137 172.318 93.5049 163.113 93.5064 157.369L93.5109 140.523C96.3433 140.46 99.1766 140.445 102.009 140.479C101.941 142.498 101.995 144.827 101.995 146.869L102.014 159.361C102.019 164.729 102.78 170.188 98.6864 174.368C92.7952 180.386 80.9323 180.42 74.7486 174.851C72.6456 172.847 71.0126 169.733 70.9414 166.823C70.727 158.057 71.0332 149.264 70.8309 140.503Z" fill="#FEFDFC"/>
</svg>
