<svg width="250" height="250" viewBox="0 0 250 250" fill="none" xmlns="http://www.w3.org/2000/svg">
<mask id="path-1-inside-1_769_501" fill="white">
<path d="M0 48C0 21.4903 21.4903 0 48 0H202C228.51 0 250 21.4903 250 48V202C250 228.51 228.51 250 202 250H48C21.4903 250 0 228.51 0 202V48Z"/>
</mask>
<path d="M0 48C0 21.4903 21.4903 0 48 0H202C228.51 0 250 21.4903 250 48V202C250 228.51 228.51 250 202 250H48C21.4903 250 0 228.51 0 202V48Z" fill="white"/>
<path d="M48 0V2H202V0V-2H48V0ZM250 48H248V202H250H252V48H250ZM202 250V248H48V250V252H202V250ZM0 202H2V48H0H-2V202H0ZM48 250V248C22.5949 248 2 227.405 2 202H0H-2C-2 229.614 20.3858 252 48 252V250ZM250 202H248C248 227.405 227.405 248 202 248V250V252C229.614 252 252 229.614 252 202H250ZM202 0V2C227.405 2 248 22.5949 248 48H250H252C252 20.3858 229.614 -2 202 -2V0ZM48 0V-2C20.3858 -2 -2 20.3858 -2 48H0H2C2 22.5949 22.5949 2 48 2V0Z" fill="#DDDBDB" mask="url(#path-1-inside-1_769_501)"/>
<path d="M69.2506 55.1554C84.4381 53.824 102.992 63.1256 102.519 84.5475C102.108 103.207 102.419 121.879 102.444 140.544C102.463 152.739 110.962 161.786 123.368 162.912C134.524 163.92 144.703 156.068 146.868 144.7C147.173 143.089 147.154 141.403 147.161 139.748C147.179 126.806 147.173 113.865 147.173 100.152C150.166 103.4 152.735 106.131 155.249 108.918C162.616 117.075 169.97 125.238 179.346 131.236C179.993 131.653 180.578 132.68 180.622 133.451C181.412 147.594 179.185 161.02 170.188 172.475C156.077 190.443 137.33 197.928 115.012 194.021C92.7879 190.126 77.7683 176.874 71.1545 154.973C69.9163 150.866 69.3501 146.411 69.3253 142.112C69.1759 113.187 69.2506 84.2551 69.2506 55.1554Z" fill="#010101"/>
<path d="M142.516 75.4697C158.226 82.488 168.647 95.529 179.505 108.072C179.897 108.526 180.488 109.062 180.494 109.559C180.562 115.302 180.537 121.045 180.537 127.223C172.642 122.221 166.706 115.906 160.715 109.653C152.508 101.091 144.426 92.3994 135.952 84.1119C131.733 79.9868 126.544 77.1434 120.073 77.8216C128.243 68.3768 139.685 65.4712 150.523 70.8095C158.182 74.5862 164.199 80.385 169.979 86.4762C172.399 89.0271 174.683 91.7025 176.966 94.3717C180.786 98.8328 180.768 98.8452 180.413 105.453C169.17 93.2953 158.916 80.385 142.516 75.4697Z" fill="#12BE08"/>
<path d="M142.516 75.4697C158.226 82.488 168.647 95.529 179.505 108.072C179.897 108.526 180.488 109.062 180.494 109.559C180.562 115.302 180.537 121.045 180.537 127.223C172.642 122.221 166.706 115.906 160.715 109.653C152.508 101.091 144.426 92.3994 135.952 84.1119C131.733 79.9868 126.544 77.1434 120.073 77.8216C128.243 68.3768 139.685 65.4712 150.523 70.8095C158.182 74.5862 164.199 80.385 169.979 86.4762C172.399 89.0271 174.683 91.7025 176.966 94.3717C180.786 98.8328 180.768 98.8452 180.413 105.453C169.17 93.2953 158.916 80.385 142.516 75.4697Z" fill="url(#paint0_radial_769_501)"/>
<defs>
<radialGradient id="paint0_radial_769_501" cx="0" cy="0" r="1" gradientUnits="userSpaceOnUse" gradientTransform="translate(184.598 91.1107) rotate(37.1608) scale(59.7836 11.9377)">
<stop offset="0.0445145" stop-color="#119530"/>
<stop offset="1" stop-color="#119530" stop-opacity="0"/>
</radialGradient>
</defs>
</svg>
