<svg width="250" height="250" viewBox="0 0 250 250" fill="none" xmlns="http://www.w3.org/2000/svg">
<mask id="path-1-inside-1_769_508" fill="white">
<path d="M0 48C0 21.4903 21.4903 0 48 0H202C228.51 0 250 21.4903 250 48V202C250 228.51 228.51 250 202 250H48C21.4903 250 0 228.51 0 202V48Z"/>
</mask>
<path d="M0 48C0 21.4903 21.4903 0 48 0H202C228.51 0 250 21.4903 250 48V202C250 228.51 228.51 250 202 250H48C21.4903 250 0 228.51 0 202V48Z" fill="white"/>
<path d="M48 0V2H202V0V-2H48V0ZM250 48H248V202H250H252V48H250ZM202 250V248H48V250V252H202V250ZM0 202H2V48H0H-2V202H0ZM48 250V248C22.5949 248 2 227.405 2 202H0H-2C-2 229.614 20.3858 252 48 252V250ZM250 202H248C248 227.405 227.405 248 202 248V250V252C229.614 252 252 229.614 252 202H250ZM202 0V2C227.405 2 248 22.5949 248 48H250H252C252 20.3858 229.614 -2 202 -2V0ZM48 0V-2C20.3858 -2 -2 20.3858 -2 48H0H2C2 22.5949 22.5949 2 48 2V0Z" fill="#DDDBDB" mask="url(#path-1-inside-1_769_508)"/>
<path fill-rule="evenodd" clip-rule="evenodd" d="M144.963 102.019L140.089 103.485V106.798V110.111H137.287H134.485V112.844V115.577L133.718 114.442C131.886 111.73 128.244 109.345 124.848 108.633C122.603 108.162 118.654 108.328 116.331 108.989C111.053 110.494 108.253 113.192 107.561 117.443C107.224 119.515 107.554 121.512 108.537 123.35C109.337 124.847 111.48 126.941 113.225 127.933C114.562 128.693 118.993 130.544 121.312 131.312C123.071 131.894 123.951 132.75 123.951 133.878C123.951 134.919 123.226 135.486 121.679 135.657C119.987 135.844 118.205 135.483 117.129 134.735C116.643 134.397 115.831 133.505 115.325 132.751L114.404 131.382L110.224 133.988C107.926 135.422 105.977 136.662 105.894 136.745C105.604 137.034 107 139.049 108.504 140.511C113.545 145.413 122.493 146.481 129.213 142.982C131.22 141.938 133.74 139.462 134.625 137.667C135.232 136.434 135.27 136.194 135.265 133.565C135.262 131.149 135.189 130.593 134.725 129.434C133.359 126.026 129.038 123.615 119.738 121.072C119.05 120.884 118.65 120.604 118.338 120.095C117.75 119.134 117.787 118.559 118.478 117.912C118.997 117.426 119.253 117.37 120.973 117.37H122.889L124.261 118.878C125.015 119.708 125.702 120.386 125.786 120.386C125.976 120.386 133.819 116.175 134.205 115.865C134.426 115.688 134.485 116.122 134.485 117.902V120.163H137.287H140.089V128.292C140.089 135.76 140.125 136.538 140.531 137.842C141.608 141.293 144.367 143.706 148.323 144.656C149.951 145.047 154.993 145.129 156.45 144.788L157.234 144.604L157.295 139.867L157.355 135.129H154.665C152.009 135.129 151.965 135.12 151.243 134.477L150.511 133.826L150.445 127L150.38 120.174L153.807 120.113L157.234 120.051L157.295 115.081L157.355 110.111H153.877H150.399V105.308C150.399 101.602 150.335 100.511 150.118 100.53C149.964 100.543 147.644 101.213 144.963 102.019ZM170.173 108.997C163.697 110.688 158.743 116.519 157.557 123.843C157.184 126.149 157.405 130.279 158.018 132.448C159.8 138.75 164.415 143.568 170.122 145.085C172.059 145.6 175.58 145.6 177.518 145.085C179.417 144.58 181.442 143.611 182.933 142.493L184.13 141.595L184.196 143.053L184.262 144.511H189.631H195V127.087V109.664H189.621H184.242V111.113V112.561L183.065 111.662C181.454 110.43 178.973 109.264 177.14 108.878C175.03 108.432 172.149 108.481 170.173 108.997ZM93.0218 126.529V143.84H98.5129H104.004V126.529V109.217H98.5129H93.0218V126.529ZM55.0231 110.306C55.0966 110.537 57.9137 118.201 61.2832 127.339L67.41 143.952L73.3581 144.012L79.3062 144.071L79.7518 142.783C79.9968 142.075 82.4891 135.062 85.29 127.199C88.0912 119.336 90.6175 112.224 90.9044 111.395L91.4262 109.887H86.0897H80.753L77.1965 120.366C75.2403 126.13 73.5784 130.807 73.5036 130.761C73.4285 130.715 71.7632 126.001 69.8028 120.285L66.2385 109.892L60.5642 109.89C55.117 109.887 54.8951 109.904 55.0231 110.306ZM176.754 117.266C179.19 118.101 181.115 119.759 182.249 121.998C183.051 123.581 183.485 126.119 183.196 127.534L182.99 128.539L181.598 126.48C180.833 125.348 180.011 124.317 179.771 124.19C179.157 123.862 178.434 124.253 177.688 125.317C177.219 125.987 176.924 126.194 176.438 126.194C175.891 126.194 175.503 125.811 173.648 123.44C171.119 120.207 171.014 120.108 170.191 120.202C169.671 120.262 169.128 120.855 167.062 123.618C165.687 125.457 164.451 126.998 164.316 127.043C163.743 127.233 164.381 123.532 165.195 121.942C166.242 119.897 168.468 118.053 170.903 117.214C172.483 116.67 175.082 116.693 176.754 117.266ZM175.527 129.75L177.854 132.189L179.146 132.345C179.856 132.43 180.49 132.585 180.553 132.687C180.617 132.79 180.162 133.274 179.542 133.762C176.017 136.539 170.801 136.349 167.344 133.316C165.867 132.02 165.758 131.742 166.308 130.668C166.844 129.621 167.6 129.323 168.366 129.858C169.368 130.558 170.022 130.332 171.052 128.93C172.095 127.511 172.306 127.319 172.838 127.314C173.037 127.312 174.248 128.408 175.527 129.75Z" fill="#060D83"/>
</svg>
