<svg width="250" height="250" viewBox="0 0 250 250" fill="none" xmlns="http://www.w3.org/2000/svg">
<mask id="path-1-inside-1_769_512" fill="white">
<path d="M0 48C0 21.4903 21.4903 0 48 0H202C228.51 0 250 21.4903 250 48V202C250 228.51 228.51 250 202 250H48C21.4903 250 0 228.51 0 202V48Z"/>
</mask>
<path d="M0 48C0 21.4903 21.4903 0 48 0H202C228.51 0 250 21.4903 250 48V202C250 228.51 228.51 250 202 250H48C21.4903 250 0 228.51 0 202V48Z" fill="white"/>
<path d="M48 0V2H202V0V-2H48V0ZM250 48H248V202H250H252V48H250ZM202 250V248H48V250V252H202V250ZM0 202H2V48H0H-2V202H0ZM48 250V248C22.5949 248 2 227.405 2 202H0H-2C-2 229.614 20.3858 252 48 252V250ZM250 202H248C248 227.405 227.405 248 202 248V250V252C229.614 252 252 229.614 252 202H250ZM202 0V2C227.405 2 248 22.5949 248 48H250H252C252 20.3858 229.614 -2 202 -2V0ZM48 0V-2C20.3858 -2 -2 20.3858 -2 48H0H2C2 22.5949 22.5949 2 48 2V0Z" fill="#DDDBDB" mask="url(#path-1-inside-1_769_512)"/>
<path d="M155.152 73.296C155.272 73.2684 155.266 73.2839 155.397 73.3005L155.463 73.4262C155.431 73.9312 154.935 75.3343 154.755 75.9152L148.836 95.1569C148.019 97.8012 147.224 100.531 146.338 103.145C146.581 103.817 147.013 104.746 147.304 105.418L149.191 109.788L163.801 143.857C164.353 145.143 164.941 146.419 165.465 147.715C165.554 147.933 165.722 148.283 165.7 148.517C165.61 149.452 154.307 184.753 154.068 185.087C153.999 185.184 153.975 185.188 153.857 185.21C153.554 184.891 152.452 181.792 152.193 181.133C150.548 177.024 148.948 172.897 147.395 168.752L111.914 75.9673C111.626 75.2172 111.217 73.9683 110.898 73.3081C119.81 73.4316 128.947 73.3338 137.871 73.3342H148.826C150.863 73.3341 153.138 73.3841 155.152 73.296Z" fill="#C2C2C1"/>
<path d="M65.0515 73.2769C65.7324 73.3697 68.796 73.3101 69.633 73.3092L97.3831 73.3105C100.384 73.3106 104.137 73.4091 107.1 73.2784C106.621 74.9641 105.958 76.8225 105.407 78.503L102.987 85.9524L98.9697 98.4446C98.2005 100.799 97.1494 103.604 96.498 105.926L110.162 147.268L113.453 157.192C113.815 158.271 114.867 161.205 115.026 162.136C114.727 162.87 113.727 164.465 113.283 165.217L109.894 170.953C107.751 174.502 105.707 178.113 103.49 181.626C102.474 183.236 101.403 185.078 100.466 186.73C100.282 185.89 99.912 184.806 99.6494 183.965C99.138 182.296 98.6036 180.634 98.0464 178.979C97.0006 175.707 95.9717 172.428 94.9598 169.145L74.9128 105.103L68.134 83.5769L66.1284 77.1709C65.7716 76.0356 65.4066 74.887 65.0614 73.7476C64.9876 73.5038 64.9756 73.4693 65.0515 73.2769Z" fill="#2D3389"/>
<path d="M182.813 73.2942C183.542 73.2828 184.271 73.2782 185 73.2804C184.67 74.1505 184.333 75.2937 184.043 76.1927C183.431 78.1259 182.808 80.0558 182.176 81.9826L179.06 91.553C178.017 94.7376 176.916 97.8282 176.161 101.096C175.947 102.025 175.401 103.295 175.092 104.244C174.574 105.864 174.043 107.48 173.499 109.092C173.12 110.222 172.681 111.88 172.01 112.798C171.773 111.807 171.189 110.565 170.837 109.583C170.21 107.83 169.616 106.063 168.971 104.319C168.481 102.702 167.727 100.778 167.162 99.1701L159.576 77.4079C159.126 76.1407 158.659 74.5235 158.156 73.325C160.91 73.2224 164.056 73.2962 166.838 73.2959L182.813 73.2942Z" fill="#ED0A7B"/>
</svg>
