<svg width="250" height="250" viewBox="0 0 250 250" fill="none" xmlns="http://www.w3.org/2000/svg">
<mask id="path-1-inside-1_769_513" fill="white">
<path d="M0 48C0 21.4903 21.4903 0 48 0H202C228.51 0 250 21.4903 250 48V202C250 228.51 228.51 250 202 250H48C21.4903 250 0 228.51 0 202V48Z"/>
</mask>
<path d="M0 48C0 21.4903 21.4903 0 48 0H202C228.51 0 250 21.4903 250 48V202C250 228.51 228.51 250 202 250H48C21.4903 250 0 228.51 0 202V48Z" fill="white"/>
<path d="M48 0V2H202V0V-2H48V0ZM250 48H248V202H250H252V48H250ZM202 250V248H48V250V252H202V250ZM0 202H2V48H0H-2V202H0ZM48 250V248C22.5949 248 2 227.405 2 202H0H-2C-2 229.614 20.3858 252 48 252V250ZM250 202H248C248 227.405 227.405 248 202 248V250V252C229.614 252 252 229.614 252 202H250ZM202 0V2C227.405 2 248 22.5949 248 48H250H252C252 20.3858 229.614 -2 202 -2V0ZM48 0V-2C20.3858 -2 -2 20.3858 -2 48H0H2C2 22.5949 22.5949 2 48 2V0Z" fill="#DDDBDB" mask="url(#path-1-inside-1_769_513)"/>
<path d="M67.057 60.0385L152.645 60L152.658 152.746C151.776 152.726 150.86 152.745 149.978 152.752C140.51 152.827 131.028 152.674 121.562 152.782C121.362 147.892 121.485 142.135 121.506 137.197L138.255 137.201L138.248 75.4829C119.428 75.688 100.049 75.5271 81.2051 75.4768L81.2106 137.224L95.3634 137.198L95.3757 152.709C86.0067 152.928 76.4753 152.626 67.0915 152.773C66.8556 142.068 67.043 130.658 67.047 119.889L67.057 60.0385Z" fill="#F26625"/>
<path d="M154.378 97.5317C158.441 97.603 162.651 97.5568 166.726 97.5676C172.159 97.539 177.594 97.5428 183.027 97.5785L183.02 189.944C173.29 190.057 163.368 189.963 153.626 189.964L97.1874 189.96L97.2035 97.5632L128.391 97.5676L128.37 113.048C122.814 113.014 117.256 113.027 111.7 113.086L111.717 174.823L168.707 174.836C168.927 168.121 168.745 160.278 168.745 153.481L168.743 112.979C164.06 113.128 159.164 112.958 154.404 113.084C154.352 107.9 154.344 102.716 154.378 97.5317Z" fill="#5B5B5E"/>
</svg>
