<svg width="250" height="250" viewBox="0 0 250 250" fill="none" xmlns="http://www.w3.org/2000/svg">
<mask id="path-1-inside-1_769_515" fill="white">
<path d="M0 48C0 21.4903 21.4903 0 48 0H202C228.51 0 250 21.4903 250 48V202C250 228.51 228.51 250 202 250H48C21.4903 250 0 228.51 0 202V48Z"/>
</mask>
<path d="M0 48C0 21.4903 21.4903 0 48 0H202C228.51 0 250 21.4903 250 48V202C250 228.51 228.51 250 202 250H48C21.4903 250 0 228.51 0 202V48Z" fill="white"/>
<path d="M48 0V2H202V0V-2H48V0ZM250 48H248V202H250H252V48H250ZM202 250V248H48V250V252H202V250ZM0 202H2V48H0H-2V202H0ZM48 250V248C22.5949 248 2 227.405 2 202H0H-2C-2 229.614 20.3858 252 48 252V250ZM250 202H248C248 227.405 227.405 248 202 248V250V252C229.614 252 252 229.614 252 202H250ZM202 0V2C227.405 2 248 22.5949 248 48H250H252C252 20.3858 229.614 -2 202 -2V0ZM48 0V-2C20.3858 -2 -2 20.3858 -2 48H0H2C2 22.5949 22.5949 2 48 2V0Z" fill="#DDDBDB" mask="url(#path-1-inside-1_769_515)"/>
<path d="M141.628 135.516C142.154 142.089 142.549 147.742 142.943 153.263C150.567 153.788 152.408 151.948 151.882 144.981C151.619 141.563 151.619 138.014 151.488 134.596C151.488 134.202 151.619 133.807 151.619 133.019C155.826 137.094 159.901 141.037 164.107 144.981C168.314 140.511 172.652 135.911 177.516 130.652C177.779 133.15 177.91 134.859 178.042 136.699C178.304 146.821 178.699 156.943 178.83 167.065C178.962 174.69 175.544 177.976 167.919 178.239C160.427 178.502 152.802 179.028 144.652 179.422C144.915 185.206 145.178 190.859 145.441 197.037C133.347 187.309 121.779 177.976 109.948 168.511C120.464 157.601 130.718 146.953 141.628 135.516Z" fill="#09A1DF"/>
<path d="M86.1535 104.887C81.8155 109.62 77.4775 114.089 72.6137 119.216C72.3508 112.906 72.0879 107.253 71.9564 101.601C71.6935 95.2909 71.6935 89.1125 71.2991 82.9341C70.9048 77.1501 75.1113 71.8919 81.4212 72.0234C88.6512 72.1548 95.8812 71.2346 103.111 70.7088C103.769 70.7088 104.426 70.4459 105.215 70.183C105.083 64.6619 104.82 59.2722 104.557 52.9624C116.783 62.6901 128.351 72.0234 140.182 81.4881C129.665 92.3989 119.412 103.178 108.632 114.615C108.107 108.305 107.581 102.784 107.186 97.2627C100.351 95.5538 97.0643 98.8402 98.2474 105.15C99.0361 109.094 98.7732 113.037 99.0361 117.638C94.5667 113.3 90.4916 109.225 86.1535 104.887Z" fill="#09A1DF"/>
<path d="M133.741 95.5539C138.473 90.5586 142.811 85.9577 147.412 81.0939C143.337 77.676 139.262 74.5211 134.924 70.9718C136.239 70.8404 137.027 70.7089 137.816 70.7089C147.412 70.7089 157.009 70.8404 166.605 70.7089C172.257 70.5774 177.384 73.2066 176.99 80.9624C176.595 88.8497 176.858 96.737 176.858 105.019C182.774 105.019 188.295 105.019 194.999 105.019C184.088 116.587 173.966 127.366 163.581 138.54C153.459 127.366 143.337 116.587 132.558 105.019C139.131 105.019 144.652 105.019 150.699 105.019C150.699 103.047 150.83 101.601 150.699 100.023C150.304 97.1314 148.727 95.4225 145.572 95.5539C141.76 95.5539 137.948 95.5539 133.741 95.5539Z" fill="#0E69B2"/>
<path d="M86.4168 111.723C96.8017 122.765 106.924 133.544 117.44 144.849C111.262 144.849 105.609 144.849 99.4308 144.849C99.4308 146.953 99.2994 148.53 99.4308 150.108C99.6937 153 101.14 154.577 104.163 154.577C107.975 154.577 111.919 154.577 116.389 154.577C111.525 159.572 107.055 164.305 102.454 169.169C106.661 172.586 110.736 175.741 115.337 179.554C113.102 179.554 111.656 179.554 110.079 179.554C101.008 179.554 92.0693 179.554 82.9989 179.554C76.4262 179.554 73.1398 176.267 73.0084 169.826C73.0084 162.99 73.0084 156.023 73.0084 149.187C73.0084 148.004 73.0084 146.821 73.0084 145.244C67.0929 145.244 61.4403 145.244 54.999 145.244C65.7783 133.676 75.9004 122.896 86.4168 111.723Z" fill="#0E69B2"/>
</svg>
