<svg width="250" height="250" viewBox="0 0 250 250" fill="none" xmlns="http://www.w3.org/2000/svg">
<rect width="250" height="250" fill="white"/>
<path d="M77.9995 61.668H172.102C172.913 61.8391 173.725 61.986 174.542 62.1237C181.355 63.2723 187.141 68.4539 189.348 74.9605C189.619 75.7628 189.669 76.8513 190 77.6271V141.438L161.766 141.423C157.09 141.422 151.159 141.256 146.576 141.48C148.003 139.563 151.389 136.535 153.174 134.863C158.046 130.301 162.707 125.552 167.666 121.087C167.909 120.871 168.136 120.628 168.387 120.422C165.64 117.54 162.573 114.786 159.784 111.932C158.849 110.975 156.606 108.934 155.988 107.872C154.675 109.614 149.826 113.98 148.099 115.622L134.572 128.623L122.922 139.79C118.95 143.649 115.052 147.68 110.938 151.371C108.538 153.524 105.287 157.02 102.772 158.887C106.78 158.593 111.696 158.763 115.81 158.767L138.408 158.773L173.121 158.771C178.492 158.77 184.69 158.616 190 158.761V172.581C188.954 175.702 188.825 177.286 186.693 180.334C183.871 184.369 179.453 186.975 174.692 188.05C173.099 188.409 170.152 188.325 168.474 188.325L160.791 188.319L131.794 188.318L94.8895 188.32L83.4953 188.325C77.5655 188.326 73.3834 188.582 68.1937 184.952C63.5401 181.697 61.0438 177.347 60 171.81V108.697C63.1302 108.706 103.153 108.643 103.182 108.656C103.18 108.689 103.18 108.723 103.176 108.756C103.093 109.611 83.921 127.714 81.7296 129.61L89.8845 137.749C91.0653 138.93 93.14 140.882 94.123 142.128C106.572 129.87 119.155 117.747 131.869 105.764C135.887 101.921 139.721 97.8746 143.904 94.2203C145.062 93.2095 145.924 92.1399 147.241 91.2716C144.256 91.4612 139.809 91.3401 136.69 91.3348L118.115 91.3198L60 91.3121V77.9734C60.1133 77.6447 60.2349 76.744 60.3669 76.267C60.8918 74.3302 61.6903 72.478 62.7385 70.7667C65.1862 66.8229 69.7854 63.6629 74.2096 62.4034C75.2387 62.1104 76.8377 61.9405 77.9995 61.668Z" fill="#2453E3"/>
</svg>
