<svg width="250" height="250" viewBox="0 0 250 250" fill="none" xmlns="http://www.w3.org/2000/svg">
<mask id="path-1-inside-1_769_516" fill="white">
<path d="M0 48C0 21.4903 21.4903 0 48 0H202C228.51 0 250 21.4903 250 48V202C250 228.51 228.51 250 202 250H48C21.4903 250 0 228.51 0 202V48Z"/>
</mask>
<path d="M0 48C0 21.4903 21.4903 0 48 0H202C228.51 0 250 21.4903 250 48V202C250 228.51 228.51 250 202 250H48C21.4903 250 0 228.51 0 202V48Z" fill="white"/>
<path d="M48 0V2H202V0V-2H48V0ZM250 48H248V202H250H252V48H250ZM202 250V248H48V250V252H202V250ZM0 202H2V48H0H-2V202H0ZM48 250V248C22.5949 248 2 227.405 2 202H0H-2C-2 229.614 20.3858 252 48 252V250ZM250 202H248C248 227.405 227.405 248 202 248V250V252C229.614 252 252 229.614 252 202H250ZM202 0V2C227.405 2 248 22.5949 248 48H250H252C252 20.3858 229.614 -2 202 -2V0ZM48 0V-2C20.3858 -2 -2 20.3858 -2 48H0H2C2 22.5949 22.5949 2 48 2V0Z" fill="#DDDBDB" mask="url(#path-1-inside-1_769_516)"/>
<path d="M77.9995 61.6675H172.102C172.913 61.8386 173.725 61.9855 174.542 62.1232C181.355 63.2718 187.141 68.4534 189.348 74.96C189.619 75.7623 189.669 76.8508 190 77.6266V141.437L161.766 141.422C157.09 141.422 151.159 141.255 146.576 141.479C148.003 139.562 151.389 136.534 153.174 134.863C158.046 130.3 162.707 125.551 167.666 121.086C167.909 120.87 168.136 120.627 168.387 120.421C165.64 117.539 162.573 114.786 159.784 111.932C158.849 110.975 156.606 108.933 155.988 107.871C154.675 109.614 149.826 113.979 148.099 115.621L134.572 128.622L122.922 139.79C118.95 143.649 115.052 147.679 110.938 151.37C108.538 153.524 105.287 157.02 102.772 158.887C106.78 158.592 111.696 158.763 115.81 158.766L138.408 158.773L173.121 158.77C178.492 158.77 184.69 158.615 190 158.76V172.581C188.954 175.701 188.825 177.285 186.693 180.334C183.871 184.369 179.453 186.975 174.692 188.049C173.099 188.409 170.152 188.324 168.474 188.324L160.791 188.318L131.794 188.317L94.8895 188.319L83.4953 188.324C77.5655 188.326 73.3834 188.581 68.1937 184.951C63.5401 181.697 61.0438 177.346 60 171.81V108.697C63.1302 108.705 103.153 108.642 103.182 108.655C103.18 108.689 103.18 108.722 103.176 108.755C103.093 109.611 83.921 127.713 81.7296 129.61L89.8845 137.749C91.0653 138.929 93.14 140.881 94.123 142.128C106.572 129.869 119.155 117.747 131.869 105.763C135.887 101.921 139.721 97.8741 143.904 94.2198C145.062 93.209 145.924 92.1395 147.241 91.2711C144.256 91.4607 139.809 91.3396 136.69 91.3343L118.115 91.3193L60 91.3116V77.9729C60.1133 77.6442 60.2349 76.7435 60.3669 76.2666C60.8918 74.3297 61.6903 72.4775 62.7385 70.7662C65.1862 66.8224 69.7854 63.6624 74.2096 62.4029C75.2387 62.1099 76.8377 61.94 77.9995 61.6675Z" fill="#2453E3"/>
</svg>
