<svg width="250" height="250" viewBox="0 0 250 250" fill="none" xmlns="http://www.w3.org/2000/svg">
<path d="M0 48C0 21.4903 21.4903 0 48 0H202C228.51 0 250 21.4903 250 48V202C250 228.51 228.51 250 202 250H48C21.4903 250 0 228.51 0 202V48Z" fill="#006A37"/>
<path d="M85.6804 65.3851C88.904 65.1803 93.8543 65.323 97.1629 65.3201L119.448 65.3185L181.147 65.3292C179.42 67.1358 176.462 71.2455 174.829 73.3613L164.871 86.1052L135.826 123.624C131.077 129.732 125.453 137.464 120.478 143.232C123.815 143.482 127.493 143.313 130.905 143.481C137.563 143.864 144.131 145.207 150.405 147.469C164.139 152.321 176.148 161.093 184.948 172.7C186.78 175.142 188.697 177.878 190 180.623C179.656 180.73 169.31 180.754 158.966 180.694C156.995 179.1 155.226 177.792 153.173 176.314C137.664 165.526 115.993 165.049 99.8074 174.495C96.7052 176.305 93.9664 178.553 91.1108 180.712C80.7401 180.754 70.3696 180.697 60 180.544C63.1226 176.651 66.2553 172.216 69.3677 168.226C82.0182 152.16 94.5596 136.01 106.991 119.775L121.782 100.799C123.919 98.0891 128.902 92.087 130.431 89.4065C115.822 89.6048 101.211 89.6388 86.6011 89.5085C80.757 89.4868 72.9296 89.05 67.3597 89.4222C68.8916 86.661 71.0583 84.2847 72.8835 81.7679C76.821 76.3386 81.8405 70.7401 85.6804 65.3851Z" fill="#8BBB1D"/>
</svg>
