<svg width="250" height="250" viewBox="0 0 250 250" fill="none" xmlns="http://www.w3.org/2000/svg">
<path d="M0 125C0 55.9644 55.9644 0 125 0C194.036 0 250 55.9644 250 125C250 194.036 194.036 250 125 250C55.9644 250 0 194.036 0 125Z" fill="white"/>
<path d="M125.632 118.238H125.295C123.95 118.268 122.633 118.626 121.458 119.282L59.1914 154.313C57.9574 155.006 56.9252 156.009 56.1963 157.222C55.4674 158.436 55.067 159.819 55.0347 161.235V161.656C55.0593 162.986 55.4181 164.29 56.0781 165.445C57.1366 167.329 58.8968 168.717 60.9745 169.307C63.0522 169.898 65.2788 169.641 67.1683 168.594C85.3435 158.372 122.317 137.539 123.377 137.118C124.07 136.767 124.838 136.588 125.615 136.596C126.301 136.58 126.979 136.742 127.584 137.067C128.577 137.606 182.766 168.847 182.766 168.847C183.942 169.519 185.266 169.889 186.62 169.925H187.04C188.442 169.892 189.812 169.498 191.018 168.781C192.223 168.064 193.224 167.049 193.923 165.832C194.606 164.617 194.976 163.251 195 161.858V161.656C194.985 160.235 194.6 158.844 193.882 157.618C193.165 156.392 192.141 155.375 190.911 154.666L129.536 119.299C128.348 118.61 127.005 118.234 125.632 118.205" fill="#002668"/>
<path d="M125.631 80.1596H125.295C123.949 80.1816 122.63 80.5406 121.458 81.2038L59.1909 116.234C57.9555 116.92 56.9195 117.916 56.1849 119.123C55.4502 120.331 55.042 121.709 55.0005 123.122V123.543C55.0294 124.873 55.3879 126.176 56.0439 127.333C57.1082 129.22 58.8769 130.608 60.9622 131.192C63.0475 131.776 65.2792 131.509 67.1678 130.448C85.343 120.242 122.316 99.4095 123.376 98.9885C124.069 98.6328 124.836 98.448 125.614 98.4495C126.3 98.4419 126.976 98.6039 127.583 98.9211L182.765 130.701C183.937 131.385 185.263 131.762 186.619 131.796H187.04C188.444 131.763 189.815 131.367 191.021 130.647C192.227 129.927 193.227 128.907 193.923 127.686C194.612 126.474 194.983 125.107 195 123.712V123.527C194.984 122.104 194.599 120.71 193.882 119.482C193.165 118.254 192.141 117.233 190.911 116.52L129.536 81.1533C128.346 80.4694 127.003 80.0986 125.631 80.0754" fill="#D2232A"/>
</svg>
