<svg width="250" height="250" viewBox="0 0 250 250" fill="none" xmlns="http://www.w3.org/2000/svg">
<mask id="path-1-inside-1_350_4" fill="white">
<path d="M0 125C0 55.9644 55.9644 0 125 0C194.036 0 250 55.9644 250 125C250 194.036 194.036 250 125 250C55.9644 250 0 194.036 0 125Z"/>
</mask>
<path d="M0 125C0 55.9644 55.9644 0 125 0C194.036 0 250 55.9644 250 125C250 194.036 194.036 250 125 250C55.9644 250 0 194.036 0 125Z" fill="white"/>
<path d="M0 125M250 125M250 125M0 125M125 0M250 125M125 250M0 125M125 250V248C57.069 248 2 192.931 2 125H0H-2C-2 195.14 54.8598 252 125 252V250ZM250 125H248C248 192.931 192.931 248 125 248V250V252C195.14 252 252 195.14 252 125H250ZM125 0V2C192.931 2 248 57.069 248 125H250H252C252 54.8598 195.14 -2 125 -2V0ZM125 0V-2C54.8598 -2 -2 54.8598 -2 125H0H2C2 57.069 57.069 2 125 2V0Z" fill="#DDDBDB" mask="url(#path-1-inside-1_350_4)"/>
<path d="M125.63 118.238H125.294C123.949 118.267 122.632 118.626 121.457 119.282L59.1899 154.312C57.956 155.005 56.9237 156.008 56.1948 157.222C55.4659 158.436 55.0656 159.818 55.0332 161.234V161.655C55.0578 162.986 55.4166 164.289 56.0766 165.445C57.1351 167.328 58.8953 168.717 60.973 169.307C63.0507 169.897 65.2773 169.641 67.1668 168.594C85.342 158.371 122.315 137.538 123.375 137.117C124.069 136.767 124.837 136.588 125.614 136.595C126.3 136.579 126.978 136.742 127.583 137.067C128.575 137.606 182.764 168.847 182.764 168.847C183.941 169.518 185.264 169.889 186.618 169.924H187.039C188.441 169.891 189.811 169.498 191.016 168.781C192.222 168.064 193.223 167.048 193.922 165.832C194.604 164.617 194.974 163.251 194.999 161.857V161.655C194.983 160.235 194.598 158.843 193.881 157.618C193.164 156.392 192.14 155.375 190.91 154.666L129.535 119.299C128.347 118.61 127.003 118.233 125.63 118.204" fill="#002668"/>
<path d="M125.631 80.1594H125.294C123.948 80.1814 122.629 80.5403 121.457 81.2036L59.1904 116.234C57.955 116.92 56.9191 117.915 56.1844 119.123C55.4497 120.331 55.0416 121.709 55 123.122V123.543C55.0289 124.873 55.3874 126.175 56.0434 127.332C57.1077 129.22 58.8765 130.607 60.9618 131.192C63.047 131.776 65.2787 131.508 67.1673 130.448C85.3425 120.242 122.316 99.4092 123.376 98.9882C124.068 98.6325 124.836 98.4477 125.614 98.4493C126.299 98.4417 126.976 98.6037 127.583 98.9208L182.765 130.701C183.937 131.385 185.262 131.762 186.619 131.795H187.039C188.443 131.762 189.815 131.367 191.021 130.647C192.227 129.927 193.226 128.907 193.922 127.686C194.612 126.474 194.983 125.106 194.999 123.712V123.526C194.983 122.104 194.598 120.71 193.881 119.482C193.164 118.253 192.14 117.233 190.91 116.52L129.535 81.1531C128.346 80.4692 127.002 80.0983 125.631 80.0752" fill="#D2232A"/>
</svg>
