<svg width="250" height="250" viewBox="0 0 250 250" fill="none" xmlns="http://www.w3.org/2000/svg">
<mask id="path-1-inside-1_453_554" fill="white">
<path d="M0 125C0 55.9644 55.9644 0 125 0C194.036 0 250 55.9644 250 125C250 194.036 194.036 250 125 250C55.9644 250 0 194.036 0 125Z"/>
</mask>
<path d="M0 125C0 55.9644 55.9644 0 125 0C194.036 0 250 55.9644 250 125C250 194.036 194.036 250 125 250C55.9644 250 0 194.036 0 125Z" fill="white"/>
<path d="M0 125M250 125M250 125M0 125M125 0M250 125M125 250M0 125M125 250V248C57.069 248 2 192.931 2 125H0H-2C-2 195.14 54.8598 252 125 252V250ZM250 125H248C248 192.931 192.931 248 125 248V250V252C195.14 252 252 195.14 252 125H250ZM125 0V2C192.931 2 248 57.069 248 125H250H252C252 54.8598 195.14 -2 125 -2V0ZM125 0V-2C54.8598 -2 -2 54.8598 -2 125H0H2C2 57.069 57.069 2 125 2V0Z" fill="#DDDBDB" mask="url(#path-1-inside-1_453_554)"/>
<path fill-rule="evenodd" clip-rule="evenodd" d="M146.458 89.0107C175.813 87.9376 185.845 107.619 165.849 129.493C151.04 145.694 127.29 156.616 105.395 157.804C105.242 157.82 105.09 157.831 104.936 157.842C93.2534 158.543 76.282 154.76 75.2819 140.248C74.7447 132.451 80.6979 122.522 85.8942 117.001C100.928 101.025 124.593 90.1541 146.458 89.0107ZM148.499 104.152C147.929 104.109 145.421 104.161 144.922 104.255C138.939 104.895 134.073 106.695 130.16 111.53C126.924 115.584 125.424 120.756 125.991 125.913C127.468 139.489 145.921 141.63 154.916 134.576C155.812 133.873 157.749 122.67 158.066 120.893L152.406 120.889C152.058 120.905 151.37 120.832 151.182 121.155C148.914 125.059 151.529 131.03 145.523 131.77C128.071 133.927 131.614 111.208 145.976 110.718C149.903 110.584 152.318 111.576 155.25 114.162L155.473 114.36L161.026 109.959C157.319 105.942 154.035 104.57 148.499 104.152ZM112.541 104.705C110.464 104.705 107.206 104.603 105.224 104.727C103.895 105.713 101.264 110.209 100.211 111.838L93.4489 122.144L87.5612 131.075C86.2119 133.123 84.4117 135.684 83.4294 137.891C85.8961 137.887 88.9111 137.952 91.3308 137.819L91.4606 137.68C93.6607 135.285 94.508 131.07 97.2878 130.847C97.5408 130.825 98.4817 130.852 98.7858 130.863C101.925 130.856 108.433 130.673 111.314 130.979L112.992 137.774H120.666C118.105 127.054 114.833 115.341 112.541 104.705ZM107.145 112.66C107.633 113.45 109.686 123.216 110.054 124.787L103.036 124.793L99.7966 124.797C101.161 121.683 105.161 115.734 107.145 112.66Z" fill="#022350"/>
<path d="M164.5 79.3849C170.064 78.9082 176.618 79.6416 182.081 80.7901C197.364 84.003 208.037 95.9826 204.223 112.125C201.163 125.079 193.339 135.028 183.736 143.891C178.207 148.993 172.703 153.605 166.164 157.438C150.183 167.265 131.941 174.211 113.142 175.644C110.515 175.843 105.837 176.127 103.421 175.551L103.42 175.382C103.693 175.151 111.704 172.976 113.034 172.553C116.939 171.286 120.783 169.84 124.556 168.222C136.789 163.006 148.177 155.998 158.347 147.426C169.402 138.002 180.83 124.638 182.348 109.754C184.067 92.9011 168.506 84.3553 153.738 83.9128C149.589 83.7884 144.844 83.8566 140.704 83.5483C142.475 82.9876 144.798 82.5554 146.63 82.1075C152.684 80.6267 158.293 79.7678 164.5 79.3849Z" fill="#022350"/>
<path d="M141.998 74.1251C143.738 74.0924 144.805 74.0879 146.525 74.2665C128.297 79.311 114.404 85.1399 98.7303 96.4781C85.3451 106.328 70.81 120.892 67.7586 137.818C64.6448 155.092 79.7998 165.29 95.2895 165.951C98.5432 166.09 103.552 166.076 106.684 166.57L106.869 166.599C100.285 168.171 95.7076 169.281 88.9677 169.884C87.8978 169.982 86.8255 170.047 85.7518 170.08C74.1389 170.481 61.6824 169.254 52.6315 160.999C48.4234 157.16 45.4375 150.671 45.0214 144.976C44.8567 142.723 45.6839 140.106 46.0921 137.909C48.0034 127.626 54.9055 117.557 62.2478 109.962C79.4177 92.2017 104.214 79.3584 128.566 75.271C133.249 74.485 137.307 74.2613 141.998 74.1251Z" fill="#B78816"/>
</svg>
