<svg width="250" height="250" viewBox="0 0 250 250" fill="none" xmlns="http://www.w3.org/2000/svg">
<path d="M0 125C0 55.9644 55.9644 0 125 0C194.036 0 250 55.9644 250 125C250 194.036 194.036 250 125 250C55.9644 250 0 194.036 0 125Z" fill="white"/>
<path d="M146.458 89.0106C175.813 87.9374 185.846 107.619 165.85 129.493C151.041 145.693 127.29 156.616 105.396 157.804C105.243 157.82 105.09 157.831 104.936 157.842C93.2534 158.542 76.283 154.76 75.2829 140.248C74.7456 132.451 80.6979 122.522 85.8942 117.001C100.928 101.025 124.593 90.1541 146.458 89.0106ZM148.499 104.151C147.929 104.108 145.42 104.16 144.922 104.254C138.94 104.894 134.073 106.694 130.16 111.529C126.924 115.583 125.424 120.755 125.991 125.912C127.468 139.489 145.921 141.629 154.916 134.575C155.813 133.871 157.749 122.667 158.066 120.891L152.406 120.888C152.058 120.904 151.37 120.832 151.182 121.155C148.914 125.059 151.529 131.03 145.523 131.77C128.072 133.927 131.615 111.207 145.976 110.717C149.903 110.583 152.318 111.575 155.25 114.161L155.473 114.359L161.026 109.958C157.319 105.941 154.035 104.569 148.499 104.151ZM112.541 104.704C110.464 104.704 107.206 104.602 105.224 104.726C103.895 105.711 101.264 110.208 100.211 111.837L93.4489 122.142L87.5612 131.074C86.212 133.122 84.4118 135.683 83.4294 137.889C85.8961 137.886 88.9111 137.951 91.3308 137.818L91.4607 137.679C93.6605 135.284 94.5082 131.069 97.2878 130.846C97.5406 130.824 98.4814 130.851 98.7858 130.862C101.925 130.855 108.433 130.672 111.314 130.978L112.992 137.773H120.666C118.105 127.053 114.833 115.34 112.541 104.704ZM107.145 112.659C107.633 113.446 109.685 123.213 110.054 124.786L103.036 124.792L99.7966 124.796C101.162 121.682 105.161 115.733 107.145 112.659Z" fill="#022350"/>
<path d="M164.5 79.3851C170.064 78.9085 176.618 79.6419 182.081 80.7904C197.364 84.0032 208.037 95.9828 204.223 112.125C201.163 125.079 193.339 135.028 183.736 143.891C178.207 148.993 172.703 153.605 166.164 157.439C150.183 167.266 131.941 174.211 113.142 175.644C110.515 175.844 105.837 176.127 103.421 175.551L103.42 175.382C103.693 175.152 111.704 172.976 113.034 172.553C116.939 171.286 120.783 169.84 124.556 168.223C136.789 163.006 148.177 155.999 158.347 147.426C169.402 138.002 180.83 124.638 182.348 109.754C184.067 92.9014 168.506 84.3555 153.738 83.913C149.589 83.7886 144.844 83.8569 140.704 83.5486C142.475 82.9878 144.798 82.5557 146.63 82.1077C152.684 80.6269 158.293 79.7681 164.5 79.3851Z" fill="#022350"/>
<path d="M141.998 74.1252C143.738 74.0925 144.805 74.088 146.525 74.2667C128.297 79.3111 114.404 85.14 98.7303 96.4783C85.3451 106.328 70.81 120.892 67.7586 137.819C64.6448 155.092 79.7998 165.29 95.2895 165.951C98.5432 166.091 103.552 166.076 106.684 166.57L106.869 166.599C100.285 168.171 95.7076 169.281 88.9677 169.884C87.8978 169.982 86.8255 170.047 85.7518 170.08C74.1389 170.481 61.6824 169.254 52.6315 160.999C48.4234 157.16 45.4375 150.671 45.0214 144.976C44.8567 142.723 45.6839 140.106 46.0921 137.909C48.0034 127.626 54.9055 117.557 62.2478 109.962C79.4177 92.2019 104.214 79.3585 128.566 75.2712C133.249 74.4851 137.307 74.2614 141.998 74.1252Z" fill="#B78816"/>
</svg>
