<svg width="250" height="250" viewBox="0 0 250 250" fill="none" xmlns="http://www.w3.org/2000/svg">
<path d="M0 125C0 55.9644 55.9644 0 125 0C194.036 0 250 55.9644 250 125C250 194.036 194.036 250 125 250C55.9644 250 0 194.036 0 125Z" fill="white"/>
<path d="M63.8037 55.0001H186.224C182.672 59.1992 178.883 63.4203 175.255 67.5646L91.4914 163.298C82.2955 173.826 72.8613 184.388 63.7759 195C63.9228 189.934 63.8007 184.122 63.8 178.981L63.8037 55.0001Z" fill="#E52730"/>
<path d="M130.473 150.697C136.728 150.84 143.471 150.705 149.757 150.706L184.968 150.7L184.966 192.393L99.5619 192.385C98.207 192.385 95.0486 192.296 93.8528 192.462C96.823 189.196 99.8541 185.627 102.778 182.289L126.321 155.368C127.478 154.04 129.262 151.865 130.473 150.697Z" fill="#272526"/>
<path d="M184.78 88.3806C184.969 88.5923 184.894 92.9167 184.894 93.4907L184.899 132.236C183.578 132.335 181.674 132.273 180.32 132.272L146.69 132.255L146.591 132.238C146.642 131.823 165.939 109.97 167.992 107.589C173.173 101.581 179.554 94.4819 184.78 88.3806Z" fill="#272526"/>
</svg>
