<svg width="250" height="250" viewBox="0 0 250 250" fill="none" xmlns="http://www.w3.org/2000/svg">
<mask id="path-1-inside-1_453_545" fill="white">
<path d="M0 125C0 55.9644 55.9644 0 125 0C194.036 0 250 55.9644 250 125C250 194.036 194.036 250 125 250C55.9644 250 0 194.036 0 125Z"/>
</mask>
<path d="M0 125C0 55.9644 55.9644 0 125 0C194.036 0 250 55.9644 250 125C250 194.036 194.036 250 125 250C55.9644 250 0 194.036 0 125Z" fill="white"/>
<path d="M0 125M250 125M250 125M0 125M125 0M250 125M125 250M0 125M125 250V248C57.069 248 2 192.931 2 125H0H-2C-2 195.14 54.8598 252 125 252V250ZM250 125H248C248 192.931 192.931 248 125 248V250V252C195.14 252 252 195.14 252 125H250ZM125 0V2C192.931 2 248 57.069 248 125H250H252C252 54.8598 195.14 -2 125 -2V0ZM125 0V-2C54.8598 -2 -2 54.8598 -2 125H0H2C2 57.069 57.069 2 125 2V0Z" fill="#DDDBDB" mask="url(#path-1-inside-1_453_545)"/>
<path d="M63.8032 55H186.224C182.671 59.1991 178.882 63.4201 175.255 67.5644L91.4909 163.298C82.295 173.826 72.8608 184.388 63.7754 195C63.9223 189.934 63.8002 184.122 63.7995 178.981L63.8032 55Z" fill="#E52730"/>
<path d="M130.472 150.697C136.728 150.84 143.47 150.705 149.756 150.706L184.968 150.7L184.965 192.393L99.5614 192.385C98.2065 192.385 95.0481 192.296 93.8523 192.462C96.8225 189.195 99.8536 185.627 102.778 182.289L126.32 155.368C127.477 154.04 129.261 151.865 130.472 150.697Z" fill="#272526"/>
<path d="M184.779 88.3805C184.968 88.5922 184.894 92.9166 184.894 93.4905L184.898 132.236C183.577 132.335 181.674 132.273 180.32 132.272L146.689 132.255L146.591 132.238C146.642 131.823 165.938 109.97 167.992 107.589C173.173 101.581 179.554 94.4818 184.779 88.3805Z" fill="#272526"/>
</svg>
