<svg width="250" height="250" viewBox="0 0 250 250" fill="none" xmlns="http://www.w3.org/2000/svg">
<mask id="path-1-inside-1_453_533" fill="white">
<path d="M0 125C0 55.9644 55.9644 0 125 0C194.036 0 250 55.9644 250 125C250 194.036 194.036 250 125 250C55.9644 250 0 194.036 0 125Z"/>
</mask>
<path d="M0 125C0 55.9644 55.9644 0 125 0C194.036 0 250 55.9644 250 125C250 194.036 194.036 250 125 250C55.9644 250 0 194.036 0 125Z" fill="white"/>
<path d="M0 125M250 125M250 125M0 125M125 0M250 125M125 250M0 125M125 250V248C57.069 248 2 192.931 2 125H0H-2C-2 195.14 54.8598 252 125 252V250ZM250 125H248C248 192.931 192.931 248 125 248V250V252C195.14 252 252 195.14 252 125H250ZM125 0V2C192.931 2 248 57.069 248 125H250H252C252 54.8598 195.14 -2 125 -2V0ZM125 0V-2C54.8598 -2 -2 54.8598 -2 125H0H2C2 57.069 57.069 2 125 2V0Z" fill="#DDDBDB" mask="url(#path-1-inside-1_453_533)"/>
<path d="M152.467 123.11H148.862L148.687 106.452H155.609L109.598 71.0844L61.5594 107.225H69.8574V165.609H195V167.042H67.7196V109.447H55L109.598 66.959L166.307 110.116H152.467V123.11Z" fill="#438198"/>
<path d="M108.072 136.867C109.299 136.867 110.508 137.016 111.698 137.313C112.889 137.592 113.939 138.02 114.851 138.596L113.456 142.028C112.544 141.507 111.633 141.126 110.722 140.884C109.811 140.624 108.918 140.494 108.044 140.494C107.17 140.494 106.453 140.596 105.895 140.8C105.338 141.005 104.938 141.275 104.696 141.609C104.454 141.925 104.333 142.298 104.333 142.725C104.333 143.227 104.538 143.637 104.947 143.953C105.356 144.25 105.895 144.493 106.565 144.679C107.234 144.865 107.97 145.05 108.769 145.236C109.588 145.422 110.397 145.637 111.196 145.878C112.015 146.12 112.758 146.446 113.428 146.855C114.098 147.264 114.637 147.803 115.047 148.473C115.474 149.142 115.688 149.988 115.688 151.011C115.688 152.109 115.381 153.114 114.767 154.025C114.154 154.936 113.233 155.671 112.005 156.229C110.796 156.787 109.262 157.066 107.402 157.066C105.84 157.066 104.342 156.861 102.91 156.452C101.478 156.024 100.325 155.476 99.4508 154.806L100.985 151.402C101.822 151.997 102.808 152.49 103.943 152.881C105.096 153.252 106.258 153.439 107.43 153.439C108.323 153.439 109.039 153.355 109.578 153.187C110.136 153.001 110.546 152.75 110.806 152.434C111.066 152.118 111.196 151.756 111.196 151.347C111.196 150.826 110.992 150.417 110.582 150.119C110.173 149.803 109.634 149.552 108.965 149.366C108.295 149.161 107.551 148.975 106.733 148.807C105.933 148.621 105.124 148.398 104.305 148.138C103.506 147.878 102.771 147.543 102.101 147.134C101.432 146.725 100.883 146.185 100.455 145.515C100.046 144.846 99.8411 143.99 99.8411 142.949C99.8411 141.833 100.139 140.819 100.734 139.907C101.348 138.978 102.26 138.243 103.469 137.703C104.696 137.146 106.23 136.867 108.072 136.867Z" fill="#323C5F"/>
<path fill-rule="evenodd" clip-rule="evenodd" d="M96.1417 156.731H91.3991L89.6651 152.546H80.6129L78.8725 156.731H74.241L82.9457 137.201H87.4092L96.1417 156.731ZM82.0399 149.114H88.2438L85.1476 141.64L82.0399 149.114Z" fill="#323C5F"/>
<path fill-rule="evenodd" clip-rule="evenodd" d="M130.048 137.201C131.796 137.201 133.303 137.49 134.567 138.067C135.832 138.625 136.809 139.433 137.497 140.494C138.185 141.554 138.529 142.818 138.529 144.288C138.529 145.738 138.185 146.994 137.497 148.054C136.809 149.114 135.832 149.933 134.567 150.509C133.303 151.067 131.796 151.346 130.048 151.346H126.114V156.731H121.594V137.201H130.048ZM126.114 147.664H129.796C131.191 147.664 132.233 147.366 132.921 146.771C133.609 146.176 133.954 145.348 133.954 144.288C133.954 143.209 133.609 142.372 132.921 141.777C132.233 141.182 131.191 140.884 129.796 140.884H126.114V147.664Z" fill="#323C5F"/>
<path d="M149.092 156.731H144.572V137.201H149.092V156.731Z" fill="#323C5F"/>
<path fill-rule="evenodd" clip-rule="evenodd" d="M164.887 137.201C167.603 137.201 169.714 137.834 171.221 139.098C172.727 140.345 173.48 142.074 173.48 144.288C173.48 145.738 173.136 146.994 172.448 148.054C171.76 149.095 170.784 149.896 169.519 150.454C169.506 150.459 169.493 150.464 169.48 150.469L173.843 156.731H168.961L165.211 151.288C165.141 151.288 165.07 151.29 164.999 151.29H161.065V156.731H156.546V137.201H164.887ZM161.065 147.691H164.748C166.143 147.691 167.184 147.394 167.872 146.798C168.561 146.185 168.905 145.348 168.905 144.288C168.905 143.209 168.561 142.372 167.872 141.777C167.184 141.182 166.143 140.884 164.748 140.884H161.065V147.691Z" fill="#323C5F"/>
<path d="M194.637 140.828H184.37V145.069H193.438V148.584H184.37V153.104H195V156.731H179.879V137.201H194.637V140.828Z" fill="#323C5F"/>
</svg>
