<svg width="250" height="250" viewBox="0 0 250 250" fill="none" xmlns="http://www.w3.org/2000/svg">
<mask id="path-1-inside-1_453_549" fill="white">
<path d="M0 125C0 55.9644 55.9644 0 125 0C194.036 0 250 55.9644 250 125C250 194.036 194.036 250 125 250C55.9644 250 0 194.036 0 125Z"/>
</mask>
<path d="M0 125C0 55.9644 55.9644 0 125 0C194.036 0 250 55.9644 250 125C250 194.036 194.036 250 125 250C55.9644 250 0 194.036 0 125Z" fill="white"/>
<path d="M0 125M250 125M250 125M0 125M125 0M250 125M125 250M0 125M125 250V248C57.069 248 2 192.931 2 125H0H-2C-2 195.14 54.8598 252 125 252V250ZM250 125H248C248 192.931 192.931 248 125 248V250V252C195.14 252 252 195.14 252 125H250ZM125 0V2C192.931 2 248 57.069 248 125H250H252C252 54.8598 195.14 -2 125 -2V0ZM125 0V-2C54.8598 -2 -2 54.8598 -2 125H0H2C2 57.069 57.069 2 125 2V0Z" fill="#DDDBDB" mask="url(#path-1-inside-1_453_549)"/>
<path d="M113.523 136.721V126.954L137.608 114.633V124.512L113.523 136.721Z" fill="#BC8C49"/>
<path d="M113.523 125.622V114.411L137.497 101.869V113.079L113.523 125.622Z" fill="#BC8C49"/>
<path d="M123.601 185.219V197.258L81.2814 177.492V164.845L123.601 185.219Z" fill="#0A30A1"/>
<path d="M169.152 176.692L126.832 196.458V184.419L169.152 164.045V176.692Z" fill="#0A30A1"/>
<path d="M123.601 170.443V182.483L81.2814 162.718V150.07L123.601 170.443Z" fill="#0A30A1"/>
<path d="M169.152 161.917L126.832 181.682V169.643L169.152 149.27V161.917Z" fill="#0A30A1"/>
<path fill-rule="evenodd" clip-rule="evenodd" d="M75.3156 148.598H79.5166V176.934L73.7001 173.783V167.047H70.4691V172.394L64.6527 170.243V167.677H60V161.991H65.8164V166.708H69.4992V158.323H60V152.636H69.4992V143.718H75.3156V148.598ZM70.4691 157.289H73.7001V153.476H70.4691V157.289Z" fill="#0A30A1"/>
<path fill-rule="evenodd" clip-rule="evenodd" d="M180.5 151.841H190V157.528H180.5V165.913H184.184V161.195H190V166.882H185.347V169.447L179.53 171.599V166.252H176.3V172.987L170.483 176.139V147.802H174.684V142.923H180.5V151.841ZM176.3 156.494H179.531V152.681H176.3V156.494Z" fill="#0A30A1"/>
<path d="M123.601 155.668V167.707L81.2814 147.942V135.295L123.601 155.668Z" fill="#0A30A1"/>
<path d="M169.152 147.142L126.832 166.907V154.868L169.152 134.494V147.142Z" fill="#0A30A1"/>
<path d="M137.608 147.265L125.954 153.148L113.523 147.265V136.587L137.608 124.508V147.265Z" fill="#0A30A1"/>
<path d="M65.8164 149.405H60V143.718H65.8164V149.405Z" fill="#0A30A1"/>
<path d="M190 148.609H184.184V142.923H190V148.609Z" fill="#0A30A1"/>
<path d="M160.029 97.3182V136.721L139.939 146.821V86.6631L160.029 97.3182Z" fill="#0A30A1"/>
<path d="M110.947 146.108L90.4898 136.879V97.9638L110.947 86.889V146.108Z" fill="#0A30A1"/>
<path d="M79.5166 139.906H74.4754V134.219H79.5166V139.906Z" fill="#0A30A1"/>
<path d="M175.525 139.11H170.483V133.424H175.525V139.11Z" fill="#0A30A1"/>
<path d="M137.386 97.3182L113.301 109.861V85.7752L137.386 71.5678V97.3182Z" fill="#0A30A1"/>
<path d="M136.173 64.2782V70.1227L121.406 78.7372V52.7422L136.173 64.2782Z" fill="#0A30A1"/>
</svg>
