<svg width="250" height="250" viewBox="0 0 250 250" fill="none" xmlns="http://www.w3.org/2000/svg">
<mask id="path-1-inside-1_453_543" fill="white">
<path d="M0 125C0 55.9644 55.9644 0 125 0C194.036 0 250 55.9644 250 125C250 194.036 194.036 250 125 250C55.9644 250 0 194.036 0 125Z"/>
</mask>
<path d="M0 125C0 55.9644 55.9644 0 125 0C194.036 0 250 55.9644 250 125C250 194.036 194.036 250 125 250C55.9644 250 0 194.036 0 125Z" fill="white"/>
<path d="M0 125M250 125M250 125M0 125M125 0M250 125M125 250M0 125M125 250V248C57.069 248 2 192.931 2 125H0H-2C-2 195.14 54.8598 252 125 252V250ZM250 125H248C248 192.931 192.931 248 125 248V250V252C195.14 252 252 195.14 252 125H250ZM125 0V2C192.931 2 248 57.069 248 125H250H252C252 54.8598 195.14 -2 125 -2V0ZM125 0V-2C54.8598 -2 -2 54.8598 -2 125H0H2C2 57.069 57.069 2 125 2V0Z" fill="#DDDBDB" mask="url(#path-1-inside-1_453_543)"/>
<path d="M123.982 75L44.0938 103.239H123.982V75Z" fill="#85C325"/>
<path d="M126.016 75L205.904 103.239H126.016V75Z" fill="#85C325"/>
<rect x="57.4062" y="105.747" width="8.62906" height="5.00699" fill="#E77A16"/>
<rect x="57.4062" y="117.497" width="8.62906" height="5.00699" fill="#E77A16"/>
<rect x="57.4062" y="111.709" width="21.0224" height="4.57915" fill="#E77A16"/>
<rect x="57.4062" y="123.204" width="21.0224" height="5.01612" fill="#E77A16"/>
<rect x="55.7832" y="128.817" width="138.673" height="24.3623" fill="#84C126"/>
<rect width="137.757" height="6.34349" transform="matrix(1 0 0 -1 56.2188 175)" fill="#E77A16"/>
<rect x="80.4785" y="111.709" width="21.0224" height="4.57915" fill="#E77A16"/>
<rect x="81.0781" y="123.204" width="20.93" height="5.01612" fill="#E77A16"/>
<rect x="103.551" y="111.709" width="21.0224" height="4.57915" fill="#E77A16"/>
<rect x="104.291" y="123.204" width="20.877" height="5.01612" fill="#E77A16"/>
<rect x="126.621" y="111.709" width="21.6912" height="4.57915" fill="#E77A16"/>
<rect x="127.545" y="123.204" width="20.7683" height="5.01612" fill="#E77A16"/>
<rect x="149.959" y="111.709" width="21.6912" height="4.57915" fill="#E77A16"/>
<rect x="150.537" y="123.204" width="21.1141" height="5.01612" fill="#E77A16"/>
<rect x="173.699" y="111.709" width="20.7573" height="4.57915" fill="#E77A16"/>
<rect x="173.699" y="123.204" width="20.7573" height="5.01612" fill="#E77A16"/>
<rect x="68.1953" y="105.747" width="20.9232" height="5.00699" fill="#E77A16"/>
<rect x="68.1953" y="117.497" width="21.3614" height="5.00699" fill="#E77A16"/>
<rect x="90.7363" y="105.747" width="21.5285" height="5.00699" fill="#E77A16"/>
<rect x="91.4883" y="117.497" width="20.7762" height="5.00699" fill="#E77A16"/>
<rect x="113.217" y="105.747" width="21.5285" height="5.00699" fill="#E77A16"/>
<rect x="113.959" y="117.497" width="20.7879" height="5.00699" fill="#E77A16"/>
<rect x="136.951" y="105.747" width="20.9427" height="5.00699" fill="#E77A16"/>
<rect x="137.646" y="117.497" width="20.7975" height="5.00699" fill="#E77A16"/>
<rect x="160.291" y="105.747" width="20.7491" height="5.00699" fill="#E77A16"/>
<rect x="160.291" y="117.497" width="21.223" height="5.00699" fill="#E77A16"/>
<rect x="185.475" y="105.747" width="8.98295" height="5.00699" fill="#E77A16"/>
<rect x="185.475" y="117.497" width="8.98295" height="5.00699" fill="#E77A16"/>
</svg>
