<svg width="250" height="250" viewBox="0 0 250 250" fill="none" xmlns="http://www.w3.org/2000/svg">
<path d="M0 125C0 55.9644 55.9644 0 125 0C194.036 0 250 55.9644 250 125C250 194.036 194.036 250 125 250C55.9644 250 0 194.036 0 125Z" fill="white"/>
<path d="M123.983 75.0002L44.0947 103.239H123.983V75.0002Z" fill="#85C325"/>
<path d="M126.017 75.0002L205.905 103.239H126.017V75.0002Z" fill="#85C325"/>
<rect x="57.4077" y="105.747" width="8.62906" height="5.00699" fill="#E77A16"/>
<rect x="57.4077" y="117.497" width="8.62906" height="5.00699" fill="#E77A16"/>
<rect x="57.4077" y="111.709" width="21.0224" height="4.57915" fill="#E77A16"/>
<rect x="57.4077" y="123.205" width="21.0224" height="5.01612" fill="#E77A16"/>
<rect x="55.7847" y="128.818" width="138.673" height="24.3623" fill="#84C126"/>
<rect width="137.757" height="6.34349" transform="matrix(1 0 0 -1 56.2202 175)" fill="#E77A16"/>
<rect x="80.4795" y="111.709" width="21.0224" height="4.57915" fill="#E77A16"/>
<rect x="81.0786" y="123.205" width="20.93" height="5.01612" fill="#E77A16"/>
<rect x="103.551" y="111.709" width="21.0224" height="4.57915" fill="#E77A16"/>
<rect x="104.292" y="123.205" width="20.877" height="5.01612" fill="#E77A16"/>
<rect x="126.623" y="111.709" width="21.6912" height="4.57915" fill="#E77A16"/>
<rect x="127.545" y="123.205" width="20.7683" height="5.01612" fill="#E77A16"/>
<rect x="149.96" y="111.709" width="21.6912" height="4.57915" fill="#E77A16"/>
<rect x="150.538" y="123.205" width="21.1141" height="5.01612" fill="#E77A16"/>
<rect x="173.701" y="111.709" width="20.7573" height="4.57915" fill="#E77A16"/>
<rect x="173.701" y="123.205" width="20.7573" height="5.01612" fill="#E77A16"/>
<rect x="68.1958" y="105.747" width="20.9232" height="5.00699" fill="#E77A16"/>
<rect x="68.1958" y="117.497" width="21.3614" height="5.00699" fill="#E77A16"/>
<rect x="90.7373" y="105.747" width="21.5285" height="5.00699" fill="#E77A16"/>
<rect x="91.4897" y="117.497" width="20.7762" height="5.00699" fill="#E77A16"/>
<rect x="113.219" y="105.747" width="21.5285" height="5.00699" fill="#E77A16"/>
<rect x="113.959" y="117.497" width="20.7879" height="5.00699" fill="#E77A16"/>
<rect x="136.951" y="105.747" width="20.9427" height="5.00699" fill="#E77A16"/>
<rect x="137.648" y="117.497" width="20.7975" height="5.00699" fill="#E77A16"/>
<rect x="160.292" y="105.747" width="20.7491" height="5.00699" fill="#E77A16"/>
<rect x="160.292" y="117.497" width="21.223" height="5.00699" fill="#E77A16"/>
<rect x="185.475" y="105.747" width="8.98295" height="5.00699" fill="#E77A16"/>
<rect x="185.475" y="117.497" width="8.98295" height="5.00699" fill="#E77A16"/>
</svg>
