<svg width="250" height="250" viewBox="0 0 250 250" fill="none" xmlns="http://www.w3.org/2000/svg">
<mask id="path-1-inside-1_453_544" fill="white">
<path d="M0 125C0 55.9644 55.9644 0 125 0C194.036 0 250 55.9644 250 125C250 194.036 194.036 250 125 250C55.9644 250 0 194.036 0 125Z"/>
</mask>
<path d="M0 125C0 55.9644 55.9644 0 125 0C194.036 0 250 55.9644 250 125C250 194.036 194.036 250 125 250C55.9644 250 0 194.036 0 125Z" fill="white"/>
<path d="M0 125M250 125M250 125M0 125M125 0M250 125M125 250M0 125M125 250V248C57.069 248 2 192.931 2 125H0H-2C-2 195.14 54.8598 252 125 252V250ZM250 125H248C248 192.931 192.931 248 125 248V250V252C195.14 252 252 195.14 252 125H250ZM125 0V2C192.931 2 248 57.069 248 125H250H252C252 54.8598 195.14 -2 125 -2V0ZM125 0V-2C54.8598 -2 -2 54.8598 -2 125H0H2C2 57.069 57.069 2 125 2V0Z" fill="#DDDBDB" mask="url(#path-1-inside-1_453_544)"/>
<path d="M151.436 46H152.041C152.428 47.1341 152.463 48.025 152.751 49.0803C153.375 51.3677 153.825 53.544 154.318 55.8468L158.152 74.1409L160.22 83.7706C160.58 85.4033 161.741 89.9929 161.633 91.4789C160.94 91.8829 150.623 85.8003 149.554 84.9481C146.77 87.1872 145.68 90.382 143.781 93.2002C142.172 95.5883 140.622 97.6799 139.215 100.25C138.192 102.118 136.371 104.057 135.342 105.983C134.527 107.274 133.843 108.523 133.059 109.808C132.395 110.899 131.387 112.067 130.667 113.19C129.439 115.105 128.28 117.05 127.06 118.965C126.54 119.779 125.797 120.534 125.236 121.388L113.541 139.556C110.219 144.674 107.017 150.051 103.397 154.973C102.447 156.264 101.712 157.735 100.571 158.885C96.0823 163.325 91.6852 166.775 85.4504 168.545C84.1287 168.921 83.1014 169.38 81.69 169.587C77.489 167.349 75.717 165.729 72.2606 162.508C66.5564 157.192 61.8126 151.907 57.7425 145.236C54.198 139.426 51.0704 133.599 49.0946 127.019C48.926 126.49 48.6858 125.358 48.4863 124.973V123.587C51.2208 124.423 57.9737 127.667 60.4 129.219C58.8649 133.733 57.3236 136.563 57.9314 141.748C58.7105 148.394 69.5786 153.956 75.3833 152.857C83.9749 151.229 89.6496 140.599 93.8641 133.753C96.3811 129.734 99.4307 125.502 102.073 121.54C102.928 120.273 103.498 118.828 104.32 117.577L124.305 87.2174L132.512 74.2368C137.153 67.0178 142.073 59.8953 146.662 52.6408C148.215 50.186 149.814 48.322 151.436 46Z" fill="#EA5E35"/>
<path d="M123.642 186C123.622 185.978 123.266 185.594 123.266 185.594C120.809 184.946 105.741 183.054 105.385 180.785C105.821 179.545 107.068 177.911 107.776 176.689C111.122 170.916 114.854 165.273 118.361 159.59L140.043 124.464C142.929 119.772 145.869 114.901 148.659 110.132C149.279 109.072 150.686 107.177 151.57 106.338C153.359 109.624 155.488 112.737 157.089 116.153C158.534 119.236 160.283 121.857 161.475 125.064C160.522 127.95 158.869 129.609 157.372 132.078L146.457 149.816C145.691 151.037 145.026 152.408 144.271 153.659L138.119 163.647C134.76 169.134 131.265 174.555 127.952 180.101C127.215 181.347 126.411 182.551 125.542 183.71C125.221 184.136 123.888 185.702 123.748 186H123.642Z" fill="#036E01"/>
<path d="M141.442 186C142.21 183.423 143.994 181.25 145.331 178.969C148.713 173.2 152.382 167.58 155.921 161.901C157.184 159.869 158.338 157.561 159.605 155.498C160.116 154.667 160.908 153.906 161.274 153.25C163.696 148.904 166.343 144.766 168.97 140.55C169.291 140.036 169.953 139.025 170.44 138.731C170.809 138.701 170.866 138.715 171.147 138.956C172.26 139.91 180.668 152.995 181.512 154.844C181.055 157.249 179.454 159.303 178.2 161.373L172.956 169.944C171.375 172.502 169.996 175.053 168.266 177.508C167.786 178.189 167.389 179.062 166.862 179.771C166.446 180.322 165.942 180.8 165.37 181.187C162.414 183.178 154.372 184.433 150.717 184.971C149.521 185.146 146.425 185.465 145.549 186H141.442Z" fill="#036E01"/>
</svg>
