<svg width="250" height="250" viewBox="0 0 250 250" fill="none" xmlns="http://www.w3.org/2000/svg">
<path d="M0 125C0 55.9644 55.9644 0 125 0C194.036 0 250 55.9644 250 125C250 194.036 194.036 250 125 250C55.9644 250 0 194.036 0 125Z" fill="#DA4A07"/>
<path d="M174.011 97.2012C164.424 91.2054 148.257 81.0913 131.751 70.7608L38 130.606C69.1725 104.91 100.336 79.2051 133.589 51.7871C148.889 68.9785 163.912 85.8585 174.011 97.2012Z" fill="white"/>
<path d="M178 170.025H118.889C141.462 167.179 157.161 165.206 173.284 163.173C174.446 150.576 175.564 138.324 176.691 126.073C176.691 140.427 178 155.152 178 170.025Z" fill="white"/>
<path d="M134.474 186.212H73.1953V142.771L78.1538 179.152C95.2744 181.298 111.979 183.391 134.474 186.212Z" fill="white"/>
<path d="M145.326 122.725H132.67V135.772H145.326V122.725Z" fill="white"/>
<path d="M145.318 137.217H132.506V150.229H145.318V137.217Z" fill="white"/>
<path d="M145.316 107.644H132.521V120.552H145.316V107.644Z" fill="white"/>
<path d="M145.371 92.9873H132.619V105.55H145.371V92.9873Z" fill="white"/>
<path d="M128.594 123.572V136.576C125.924 137.718 122.942 139.007 119.067 140.669C118.894 136.645 118.738 133.211 118.564 129.404C122.006 127.405 124.945 125.692 128.594 123.572Z" fill="white"/>
<path d="M128.777 92.832V106.77C125.769 107.731 122.727 108.7 119.086 109.85V99.3902C121.938 97.4608 124.981 95.4017 128.777 92.832Z" fill="white"/>
<path d="M128.701 109.331V120.587C125.918 122.222 122.971 123.953 119.312 126.107V112.454C122.225 111.485 125.181 110.508 128.701 109.331Z" fill="white"/>
<path d="M128.647 138.705V150.169C125.83 151.311 122.822 152.531 118.973 154.097V143.516C121.651 142.183 124.789 140.626 128.647 138.705Z" fill="white"/>
</svg>
