<svg width="250" height="250" viewBox="0 0 250 250" fill="none" xmlns="http://www.w3.org/2000/svg">
<path d="M0 125C0 55.9644 55.9644 0 125 0C194.036 0 250 55.9644 250 125C250 194.036 194.036 250 125 250C55.9644 250 0 194.036 0 125Z" fill="white"/>
<path d="M135.574 73.4792H135.629C135.818 73.6801 137.099 74.6062 137.395 74.826L141.214 77.6552L155.414 88.2125L188.386 112.717C190.556 114.331 192.76 115.936 194.914 117.567C196.604 118.847 198.269 120.305 200 121.54C197.323 124.188 194.668 127.073 191.963 129.656C192.488 127.202 192.934 124.401 193.367 121.909C192.731 121.527 191.677 120.719 191.032 120.255L186.384 116.908L172.146 106.664L148.589 89.7092C144.378 86.6817 139.756 83.4938 135.649 80.3785C134.954 80.8532 133.722 81.4894 132.947 81.9207L127.948 84.6962L112.012 93.5597L58.8811 123.237C58.8076 125.487 58.6573 127.723 58.6207 129.972C57.6419 129.323 57.0629 128.658 56.2107 127.921C54.4543 126.402 52.6828 124.509 50.9043 123.048C51.6029 122.594 52.6371 122.047 53.3773 121.626L58.0406 118.965L71.7714 110.935L114.093 86.0986L128.977 77.3858L133.357 74.83C133.84 74.5473 135.184 73.7958 135.574 73.4792Z" fill="#25396E"/>
<path d="M143.681 127.328C143.851 128.121 143.875 129.911 143.944 130.817L144.572 139.794L146.266 163.314L146.897 172.406C146.975 173.538 147.01 175.418 147.147 176.478L139.914 176.476L139.063 151.021L138.692 141.013C138.658 139.8 138.568 138.543 138.583 137.334L138.363 137.116C137.846 140.226 137.527 144.038 137.136 147.211L134.757 166.479L134.067 172.219C133.912 173.591 133.788 175.094 133.546 176.448C131.919 176.424 130.29 176.423 128.663 176.443L125.687 150.571L124.417 139.414C124.276 138.222 124.176 136.889 124.008 135.72C123.772 137.233 123.779 138.912 123.721 140.454L123.461 147.706L122.601 167.586C122.498 169.627 122.405 171.668 122.324 173.708C122.289 174.565 122.314 175.624 122.238 176.449C119.99 176.418 117.44 176.379 115.194 176.446C115.258 173.42 115.543 170.318 115.674 167.276L117.204 134.905C117.359 131.583 117.624 128.242 117.734 124.923C121.031 123.291 124.482 121.323 127.756 119.765C128.061 121.712 128.114 123.611 128.31 125.557L129.552 138.415L130.276 145.891C130.512 148.19 130.723 149.764 130.784 152.083C131.234 150.291 131.275 147.627 131.488 145.776C131.776 143.277 131.955 140.793 132.182 138.298L133.513 124.466C133.668 122.827 133.913 121.038 134.014 119.414L143.681 127.328ZM138.364 137.116L138.583 137.333C138.606 136.737 138.603 136.21 138.481 135.625L138.364 137.116Z" fill="#25396E"/>
<path d="M134.371 93.4719C134.641 93.4766 134.811 93.6132 135.032 93.7769C138.617 96.4225 142.193 99.1006 145.769 101.756L167.792 118.12L182.059 128.717C182.919 129.347 183.805 129.915 184.663 130.543C189.537 134.078 194.333 137.719 199.048 141.464L191.609 153.11L189.518 156.382C189.225 156.839 188.682 157.742 188.35 158.131C189.468 152.688 190.951 147.186 192.131 141.739C187.011 138.157 181.894 134.342 176.799 130.704L134.599 100.449C133.457 101.204 131.645 102.145 130.397 102.839L122.789 107.056L96.9525 121.432C92.5351 123.89 88.1384 126.481 83.6849 128.888L66.963 138.068L62.2432 140.683C61.398 141.152 60.0528 141.848 59.3172 142.41C58.9718 143.881 59.6748 146.672 59.9454 148.235C60.5306 151.5 61.0883 154.769 61.6185 158.042L50 142.931C51.0831 142.09 52.4717 141.335 53.6746 140.633L58.8042 137.636L77.8371 126.606L118.947 102.483C124.052 99.5019 129.24 96.365 134.371 93.4719Z" fill="#CEAC66"/>
<path d="M150.3 129.473C151.312 129.834 153.161 131.375 154.112 132.073C159.295 135.88 164.26 139.696 167.467 145.427C169.516 149.088 173.156 156.695 166.919 158.48C167.907 159.516 168.749 160.388 169.418 161.66C171.136 164.933 171.435 168.508 169.535 171.756C169.155 172.343 168.711 172.885 168.209 173.373C167.345 174.209 166.313 174.854 165.182 175.263C161.453 176.642 154.378 176.403 150.299 176.327C150.25 174.114 150.291 171.762 150.293 169.54L150.317 156.354L150.3 129.473ZM158.085 158.922C158.047 161.88 158.01 165.949 158.139 168.893C159.557 169.098 160.472 169.046 161.463 167.861C163.382 165.331 163.153 162.127 160.555 160.176C159.741 159.565 159.015 159.287 158.085 158.922ZM157.956 143.204C157.911 144.299 157.905 145.477 157.926 146.576C157.966 148.666 157.862 150.822 157.955 152.905C159.21 152.888 160.126 152.821 161.08 151.862C163.361 148.998 161.652 145.969 159.131 144.029C158.751 143.737 158.359 143.463 157.956 143.204Z" fill="#25396E"/>
<path d="M113.976 126.304L114.115 126.337C114.215 126.604 113.952 133.831 113.95 134.776C113.099 135.173 110.058 136.504 109.251 136.735L109.268 176.477L101.801 176.475L101.803 169.387L101.932 140.154C100.393 140.915 98.2684 141.649 96.617 142.4L96.6143 135.118C97.4701 134.736 98.4313 134.232 99.2603 133.783C102.266 132.158 105.329 130.698 108.386 129.185C110.257 128.241 112.121 127.28 113.976 126.304Z" fill="#25396E"/>
<path d="M94.2399 135.722L94.3302 135.789C94.4131 136.334 94.3564 138.929 94.3555 139.696L94.3737 147.838L94.3882 176.478C92.0697 176.472 89.7512 176.487 87.4329 176.521L87.2416 176.492C86.9624 176.005 87.2874 142.936 87.2901 138.857C88.1453 138.557 89.5416 137.889 90.4 137.501C91.5844 136.966 93.1185 136.329 94.2399 135.722Z" fill="#25396E"/>
<path d="M174.029 76.1884C174.753 76.6249 176.125 77.667 176.855 78.1899L182.981 82.5846C183.948 83.2788 185.293 84.305 186.278 84.9196L186.372 105.145C186.031 105.01 183.267 102.998 182.802 102.661C179.945 100.593 177.009 98.5845 174.166 96.5033C173.965 91.8081 174.131 86.9554 174.028 82.2461C173.985 80.2969 173.957 78.1313 174.029 76.1884Z" fill="#25396E"/>
<path d="M171.818 76.0144C171.83 76.0208 171.935 76.1174 171.935 76.1298C171.973 79.9276 171.851 91.8885 171.839 95.1076L164.222 88.9918L158.085 84.0635C159.519 83.1648 161.234 82.2113 162.711 81.3457L171.818 76.0144Z" fill="#25396E"/>
</svg>
