<svg width="250" height="250" viewBox="0 0 250 250" fill="none" xmlns="http://www.w3.org/2000/svg">
<mask id="path-1-inside-1_453_553" fill="white">
<path d="M0 125C0 55.9644 55.9644 0 125 0C194.036 0 250 55.9644 250 125C250 194.036 194.036 250 125 250C55.9644 250 0 194.036 0 125Z"/>
</mask>
<path d="M0 125C0 55.9644 55.9644 0 125 0C194.036 0 250 55.9644 250 125C250 194.036 194.036 250 125 250C55.9644 250 0 194.036 0 125Z" fill="white"/>
<path d="M0 125M250 125M250 125M0 125M125 0M250 125M125 250M0 125M125 250V248C57.069 248 2 192.931 2 125H0H-2C-2 195.14 54.8598 252 125 252V250ZM250 125H248C248 192.931 192.931 248 125 248V250V252C195.14 252 252 195.14 252 125H250ZM125 0V2C192.931 2 248 57.069 248 125H250H252C252 54.8598 195.14 -2 125 -2V0ZM125 0V-2C54.8598 -2 -2 54.8598 -2 125H0H2C2 57.069 57.069 2 125 2V0Z" fill="#DDDBDB" mask="url(#path-1-inside-1_453_553)"/>
<path d="M135.574 73.4795H135.629C135.818 73.6803 137.099 74.6064 137.395 74.8262L141.214 77.6554L155.414 88.2127L188.386 112.717C190.556 114.331 192.76 115.936 194.914 117.567C196.604 118.847 198.269 120.305 200 121.541C197.323 124.188 194.668 127.073 191.963 129.657C192.488 127.202 192.934 124.401 193.367 121.909C192.731 121.528 191.677 120.719 191.032 120.255L186.384 116.909L172.146 106.664L148.589 89.7095C144.378 86.682 139.756 83.494 135.649 80.3788C134.954 80.8535 133.722 81.4896 132.947 81.921L127.948 84.6965L112.012 93.56L58.8811 123.237C58.8076 125.487 58.6573 127.723 58.6207 129.972C57.6419 129.324 57.0629 128.658 56.2107 127.921C54.4543 126.402 52.6828 124.509 50.9043 123.049C51.6029 122.595 52.6371 122.047 53.3773 121.627L58.0406 118.965L71.7714 110.935L114.093 86.0988L128.977 77.3861L133.357 74.8302C133.84 74.5476 135.184 73.7961 135.574 73.4795Z" fill="#25396E"/>
<path d="M143.681 127.328C143.85 128.122 143.875 129.912 143.943 130.817L144.571 139.795L146.266 163.314L146.896 172.406C146.974 173.538 147.009 175.419 147.146 176.479L139.913 176.477L139.062 151.021L138.691 141.014C138.657 139.8 138.567 138.543 138.582 137.335L138.362 137.116C137.846 140.227 137.527 144.039 137.136 147.212L134.757 166.479L134.066 172.22C133.912 173.591 133.788 175.094 133.546 176.448C131.918 176.424 130.29 176.423 128.662 176.443L125.687 150.571L124.417 139.414C124.276 138.222 124.176 136.889 124.008 135.721C123.772 137.234 123.778 138.912 123.721 140.454L123.461 147.706L122.601 167.587C122.497 169.627 122.405 171.668 122.323 173.709C122.289 174.566 122.313 175.625 122.237 176.449C119.99 176.419 117.439 176.38 115.193 176.446C115.257 173.421 115.543 170.319 115.674 167.276L117.203 134.905C117.359 131.584 117.624 128.243 117.733 124.924C121.031 123.291 124.481 121.324 127.756 119.766C128.06 121.713 128.113 123.612 128.31 125.558L129.552 138.415L130.275 145.892C130.512 148.191 130.723 149.764 130.783 152.083C131.233 150.291 131.275 147.627 131.487 145.776C131.775 143.277 131.954 140.794 132.182 138.299L133.513 124.467C133.668 122.827 133.912 121.038 134.014 119.414L143.681 127.328ZM138.363 137.116L138.582 137.334C138.605 136.738 138.603 136.21 138.48 135.625L138.363 137.116Z" fill="#25396E"/>
<path d="M134.371 93.4727C134.641 93.4774 134.811 93.6139 135.032 93.7777C138.617 96.4232 142.193 99.1014 145.769 101.757L167.792 118.121L182.059 128.718C182.919 129.348 183.805 129.916 184.663 130.543C189.537 134.079 194.333 137.72 199.048 141.465L191.609 153.11L189.518 156.383C189.225 156.84 188.682 157.743 188.35 158.132C189.468 152.689 190.951 147.187 192.131 141.739C187.011 138.158 181.894 134.343 176.799 130.704L134.599 100.45C133.457 101.205 131.645 102.145 130.397 102.84L122.789 107.056L96.9525 121.432C92.5351 123.891 88.1384 126.482 83.6849 128.888L66.963 138.069L62.2432 140.684C61.398 141.152 60.0528 141.849 59.3172 142.411C58.9718 143.882 59.6748 146.673 59.9454 148.236C60.5306 151.501 61.0883 154.769 61.6185 158.043L50 142.932C51.0831 142.091 52.4717 141.336 53.6746 140.633L58.8042 137.637L77.8371 126.606L118.947 102.483C124.052 99.5026 129.24 96.3657 134.371 93.4727Z" fill="#CEAC66"/>
<path fill-rule="evenodd" clip-rule="evenodd" d="M150.3 129.474C151.312 129.834 153.161 131.376 154.113 132.074C159.296 135.88 164.261 139.696 167.467 145.428C169.516 149.089 173.156 156.696 166.92 158.48C167.908 159.516 168.75 160.389 169.419 161.661C171.137 164.934 171.434 168.509 169.535 171.757C169.155 172.344 168.711 172.886 168.21 173.374C167.345 174.21 166.314 174.855 165.182 175.264C161.454 176.643 154.379 176.404 150.299 176.328C150.25 174.115 150.291 171.763 150.294 169.541L150.316 156.354L150.3 129.474ZM158.085 158.923C158.047 161.88 158.01 165.949 158.138 168.894C159.556 169.099 160.472 169.046 161.464 167.861C163.383 165.332 163.153 162.128 160.554 160.177C159.741 159.566 159.014 159.288 158.085 158.923ZM157.956 143.205C157.91 144.3 157.906 145.477 157.926 146.577C157.967 148.667 157.861 150.822 157.955 152.905C159.209 152.889 160.125 152.821 161.08 151.862C163.361 148.999 161.653 145.97 159.132 144.029C158.752 143.738 158.359 143.463 157.956 143.205Z" fill="#25396E"/>
<path d="M113.976 126.304L114.116 126.337C114.216 126.604 113.953 133.831 113.951 134.776C113.1 135.173 110.059 136.504 109.252 136.735L109.269 176.477L101.802 176.475L101.804 169.387L101.933 140.154C100.394 140.915 98.2694 141.649 96.618 142.4L96.6152 135.118C97.4711 134.736 98.4322 134.232 99.2612 133.784C102.267 132.158 105.33 130.698 108.387 129.185C110.258 128.241 112.122 127.28 113.976 126.304Z" fill="#25396E"/>
<path d="M94.2404 135.722L94.3307 135.789C94.4136 136.334 94.3569 138.929 94.356 139.696L94.3742 147.838L94.3887 176.478C92.0702 176.472 89.7516 176.487 87.4334 176.521L87.2421 176.492C86.9629 176.005 87.2879 142.936 87.2906 138.857C88.1458 138.557 89.5421 137.889 90.4005 137.501C91.5849 136.966 93.119 136.329 94.2404 135.722Z" fill="#25396E"/>
<path d="M174.028 76.1885C174.752 76.625 176.125 77.6671 176.855 78.19L182.98 82.5847C183.947 83.2789 185.292 84.3051 186.277 84.9197L186.371 105.145C186.03 105.01 183.267 102.998 182.802 102.662C179.944 100.593 177.008 98.5846 174.166 96.5035C173.964 91.8082 174.131 86.9555 174.028 82.2462C173.984 80.297 173.957 78.1314 174.028 76.1885Z" fill="#25396E"/>
<path d="M171.817 76.0146C171.829 76.021 171.934 76.1176 171.934 76.13C171.972 79.9279 171.85 91.8887 171.838 95.1078L164.221 88.9921L158.084 84.0638C159.518 83.165 161.233 82.2115 162.71 81.346L171.817 76.0146Z" fill="#25396E"/>
</svg>
