<svg width="250" height="250" viewBox="0 0 250 250" fill="none" xmlns="http://www.w3.org/2000/svg">
<mask id="path-1-inside-1_453_494" fill="white">
<path d="M0 125C0 55.9644 55.9644 0 125 0C194.036 0 250 55.9644 250 125C250 194.036 194.036 250 125 250C55.9644 250 0 194.036 0 125Z"/>
</mask>
<path d="M0 125C0 55.9644 55.9644 0 125 0C194.036 0 250 55.9644 250 125C250 194.036 194.036 250 125 250C55.9644 250 0 194.036 0 125Z" fill="white"/>
<path d="M0 125M250 125M250 125M0 125M125 0M250 125M125 250M0 125M125 250V248C57.069 248 2 192.931 2 125H0H-2C-2 195.14 54.8598 252 125 252V250ZM250 125H248C248 192.931 192.931 248 125 248V250V252C195.14 252 252 195.14 252 125H250ZM125 0V2C192.931 2 248 57.069 248 125H250H252C252 54.8598 195.14 -2 125 -2V0ZM125 0V-2C54.8598 -2 -2 54.8598 -2 125H0H2C2 57.069 57.069 2 125 2V0Z" fill="#DDDBDB" mask="url(#path-1-inside-1_453_494)"/>
<path d="M124 173.546V90.1432L102.272 104.347V172.518C102.272 175.219 101.746 176.653 100.216 176.271C98.9925 175.965 98.6833 169.05 98.6817 165.631H74.5093C73.8999 175.991 77.5999 187.153 81.9771 191.125C86.3544 195.097 105.565 196.896 114.97 192.2C121.281 189.049 123.989 178.089 124 173.546Z" fill="#036426"/>
<path d="M74.5042 162.76H98.7995V104.354L124.861 84.6746L151.027 104.354V171.169H175.308V89.9792L125.082 55L74.5042 89.9792V162.76Z" fill="#BD9648"/>
<path d="M126.12 192.267V90.4302L148.035 104.597V174.345L175.555 174.298V192.267H126.12Z" fill="#036426"/>
</svg>
