<svg width="250" height="250" viewBox="0 0 250 250" fill="none" xmlns="http://www.w3.org/2000/svg">
<path d="M0 125C0 55.9644 55.9644 0 125 0C194.036 0 250 55.9644 250 125C250 194.036 194.036 250 125 250C55.9644 250 0 194.036 0 125Z" fill="white"/>
<path fill-rule="evenodd" clip-rule="evenodd" d="M107.285 60.0795C112.389 59.6652 116.864 60.8859 121.421 63.3696C144.16 75.7562 165.987 96.5651 180.433 118.03C183.441 122.818 186.933 128.151 188.463 133.625C189.859 138.619 191.257 145.021 185.014 146.904C159.014 149.724 88.5933 75.816 105.157 60.5466L107.285 60.0795ZM172.036 123.681C183.899 119.13 143.11 74.2812 127.634 75.6784C126.769 76.0983 126.096 76.4619 125.755 77.4276C124.897 79.866 126.31 83.1745 127.417 85.3701C133.727 97.8979 154.055 118.801 167.577 123.202C169.125 123.707 170.413 123.894 172.036 123.681Z" fill="#014CFB"/>
<path d="M159.31 146.281C163.867 151.421 171.464 166.9 168.638 173.726C165.714 180.789 153.351 176.023 148.724 173.771C141.442 170.191 134.547 165.872 128.147 160.884C110.11 146.976 81.27 117.169 73.9162 95.7103C72.7045 92.1739 71.4564 87.617 73.2157 84.092C73.9405 82.6402 74.9823 81.5292 76.5535 81.0264C83.1808 78.9099 93.7412 84.655 99.5905 87.6114C99.5349 88.2949 99.4914 88.5322 99.6537 89.2195C98.1268 88.7901 96.6441 88.3627 95.0362 88.5209C93.6529 88.6583 92.3312 89.2496 91.4582 90.3587C90.3422 91.7747 90.2156 93.6521 90.439 95.3751C92.4802 111.132 118.243 137.466 130.61 146.889C136.763 151.578 148.96 160.573 156.947 159.402C158.269 159.208 159.5 158.658 160.301 157.551C162.702 154.235 159.862 149.787 159.31 146.281Z" fill="#01DCFC"/>
<path d="M64.0075 102.824C64.5726 106.477 64.8583 110.629 65.603 114.162C68.1901 126.432 73.6966 137.419 81.2061 147.362C91.2556 160.771 103.579 171.348 118.662 178.676C127.643 183.041 133.546 184.408 143.285 185.805C143.494 186.417 143.365 186.625 143.147 187.216C132.549 191.487 116.692 190.396 105.948 186.962C89.1128 181.653 75.1177 169.802 67.1094 154.071C60.4507 141.087 58.9274 125.677 61.5705 111.373C62.0712 108.662 63.1538 105.481 64.0075 102.824Z" fill="#014CFB"/>
<path d="M149.548 62.3167C162.792 60.4714 195.238 96.1227 187.335 101.824C177.128 105.112 141.54 69.5814 149.548 62.3167Z" fill="#014CFB"/>
<path d="M99.5905 87.6114C101.135 88.4418 103.284 89.5396 104.618 90.6656C102.877 90.2231 101.337 89.6808 99.6537 89.2195C99.4914 88.5322 99.5349 88.2949 99.5905 87.6114Z" fill="#55CCF5"/>
</svg>
